<svg xmlns="http://www.w3.org/2000/svg" viewBox="0 0 13.229 13.229">
    <path stroke="#000" stroke-linecap="round" stroke-linejoin="round" stroke-width=".2" d="M6.38 5.16H1.744v.56H6.38v1.955H3.47v.572h6.325v-.572H7.002V5.719h4.521V5.16H7.002V1.643h5.067v-.56H1.211v.56H6.38zm3.937-.736c-.546-.75-1.054-1.765-1.22-2.426l-.52.229c.165.66.698 1.65 1.232 2.387zM4.564 1.985C4.08 2.62 3.47 3.598 3 4.424l.572.228a17 17 0 0 1 1.46-2.438zm2.463 10.16c1.029-1.625 3.163-3.48 5.36-4.597a3 3 0 0 1-.381-.483c-2.16 1.143-4.255 2.972-5.309 4.47-1.22-1.612-3.48-3.352-5.435-4.368a2.8 2.8 0 0 1-.42.533c1.982.902 4.255 2.68 5.601 4.445z"/>
</svg>
