<svg xmlns="http://www.w3.org/2000/svg" viewBox="0 0 13.229 13.229">
    <path stroke="#000" stroke-linecap="round" stroke-linejoin="round" stroke-width=".2" d="M3.389 5.35V3.93H9.7v1.42zM9.7 1.948v1.486H3.389V1.947zm.597-1.016H9.7v.496H3.389v-.47h-.61v4.915h7.519zM1.039 8.92v.571h5.296v1.664c-1.473.178-2.857.394-3.899.66l.508.483c1.816-.495 5.347-.838 8.255-.99a3 3 0 0 1-.165-.534c-1.308.076-2.73.178-4.09.317v-1.6h5.246V8.92H7.77c1.143-1.334 2.997-2.591 4.61-3.2a1.9 1.9 0 0 1-.419-.483c-1.689.71-3.695 2.159-4.877 3.683h-.14V6.253h-.609V8.92h-.152C4.976 7.497 2.944 6.1 1.268 5.414a1.7 1.7 0 0 1-.42.496c1.588.571 3.468 1.778 4.636 3.01z"/>
</svg>
