<svg xmlns="http://www.w3.org/2000/svg" viewBox="0 0 13.229 13.229">
    <path stroke="#000" stroke-linecap="round" stroke-linejoin="round" stroke-width=".2" d="M4.9 7.739h3.264v-.585H.874v.585H4.29v2.184H1.535v.571H4.29v1.804h.61v-1.804h2.756v-.571H4.9zM8.19 6.43c.228.369 1.155 1.791 1.498 2.261v.597H8.062v.584h1.626v2.49h.571v-2.49H12v-.584h-1.65c.418-1.867 1.295-4.026 2.12-5.118a3 3 0 0 1-.368-.546c-.673.952-1.359 2.59-1.842 4.19V.869h-.571v7.048c-.381-.647-.902-1.55-1.092-1.955zm-3.9-4.47v2.438H1.344v.572H4.29v1.638h.61V4.97h2.997v-.572H4.9V1.96h3.874v-.584H.76v.584z"/>
</svg>
