<svg xmlns="http://www.w3.org/2000/svg" viewBox="0 0 13.229 13.229">
    <path stroke="#000" stroke-linecap="round" stroke-linejoin="round" stroke-width=".2" d="M7.79 8.958V6.85h3.441v2.108zM7.204 6.85v2.108h-3.39c.152-.737.19-1.46.19-2.108zm1.55-4.687A9 9 0 0 1 7.7 3.738H4.03a18 18 0 0 0 1.296-1.575zm-4.75 2.134h3.2v2.006h-3.2zm7.226 2.006H7.789V4.297h3.442zm.597-2.565H8.374a10 10 0 0 0 1.244-1.892l-.406-.267-.115.038H5.694c.14-.228.28-.457.406-.673L5.427.83C4.754 2.1 3.484 3.738 1.731 4.932c.153.089.343.28.445.419.444-.318.85-.648 1.232-1.003v2.476c0 1.651-.216 3.67-2.007 5.13a2.1 2.1 0 0 1 .432.445c.99-.825 1.55-1.841 1.842-2.882h7.556v1.917c0 .242-.089.318-.368.33-.267.013-1.232.026-2.337-.012.089.178.203.444.241.61 1.296 0 2.096 0 2.515-.102.406-.102.546-.33.546-.826z"/>
</svg>
