<svg xmlns="http://www.w3.org/2000/svg" viewBox="0 0 13.229 13.229">
    <path stroke="#000" stroke-linecap="round" stroke-linejoin="round" stroke-width=".2" d="M9.84 7.878v1.423H3.528V7.878zm-6.312 3.404V9.796H9.84v1.486zm-.596 1.016h.596v-.495H9.84v.47h.61V7.357H2.932zM12.19 4.31v-.572H6.894V2.074c1.473-.177 2.857-.393 3.899-.66L10.285.93c-1.816.496-5.347.839-8.255.99.063.153.14.382.165.534a95 95 0 0 0 4.09-.317v1.6H1.038v.572h4.42C4.316 5.643 2.462 6.9.849 7.51c.152.114.33.33.419.483 1.689-.712 3.696-2.16 4.877-3.683h.14v2.667h.609V4.31h.152c1.207 1.422 3.239 2.819 4.915 3.505.09-.165.267-.381.42-.496-1.588-.571-3.468-1.778-4.636-3.01z"/>
</svg>
