<svg xmlns="http://www.w3.org/2000/svg" viewBox="0 0 13.229 13.229">
    <path stroke="#000" stroke-linecap="round" stroke-linejoin="round" stroke-width=".2" d="M8.33 5.49H5.064v.585h7.29V5.49H8.939V3.306h2.756v-.571H8.939V.93h-.61v1.804H5.573v.571H8.33zM5.04 6.8c-.23-.37-1.156-1.792-1.5-2.261V3.94h1.626v-.584H3.54V.867h-.57v2.49H1.23v.584h1.65C2.463 5.808 1.586 7.967.76 9.06c.114.14.292.381.368.546.673-.952 1.36-2.59 1.842-4.19v6.946h.571V5.313c.381.648.902 1.55 1.092 1.956zm3.899 4.47V8.831h2.946v-.572H8.94V6.621h-.61v1.638H5.332v.572h2.997v2.438H4.456v.584h8.013v-.584z"/>
</svg>
