<?xml version="1.0" encoding="UTF-8" standalone="no"?>
<!-- Created with Inkscape (http://www.inkscape.org/) -->

<svg
   viewBox="0 0 38.549999 41.919998"
   version="1.1"
   id="svg1"
   inkscape:version="1.3.2 (091e20e, 2023-11-25, custom)"
   sodipodi:docname="Kaku.svg"
   xml:space="preserve"
   xmlns:inkscape="http://www.inkscape.org/namespaces/inkscape"
   xmlns:sodipodi="http://sodipodi.sourceforge.net/DTD/sodipodi-0.dtd"
   xmlns="http://www.w3.org/2000/svg"
   xmlns:svg="http://www.w3.org/2000/svg"><sodipodi:namedview
     id="namedview1"
     pagecolor="#ffffff"
     bordercolor="#111111"
     borderopacity="1"
     inkscape:showpageshadow="false"
     inkscape:pageopacity="0"
     inkscape:pagecheckerboard="1"
     inkscape:deskcolor="#d1d1d1"
     inkscape:document-units="mm"
     showguides="true"
     inkscape:zoom="11.569391"
     inkscape:cx="19.231782"
     inkscape:cy="20.960482"
     inkscape:window-width="1292"
     inkscape:window-height="745"
     inkscape:window-x="-8"
     inkscape:window-y="-8"
     inkscape:window-maximized="1"
     inkscape:current-layer="layer1"
     labelstyle="default"><inkscape:page
       x="0"
       y="0"
       width="38.549999"
       height="41.919998"
       id="page42"
       margin="0"
       bleed="0" /></sodipodi:namedview><defs
     id="defs1"><inkscape:path-effect
       effect="powerstroke"
       id="path-effect12"
       is_visible="true"
       lpeversion="1.3"
       scale_width="1"
       interpolator_type="CubicBezierJohan"
       interpolator_beta="0.2"
       start_linecap_type="zerowidth"
       end_linecap_type="zerowidth"
       offset_points="7,4.9921382"
       linejoin_type="extrp_arc"
       miter_limit="4"
       not_jump="false"
       sort_points="true"
       message="&lt;b&gt;Ctrl + click&lt;/b&gt; on existing node and move it" /><inkscape:path-effect
       effect="powerstroke"
       id="path-effect13"
       is_visible="true"
       lpeversion="1.3"
       scale_width="1"
       interpolator_type="CubicBezierJohan"
       interpolator_beta="0.2"
       start_linecap_type="zerowidth"
       end_linecap_type="zerowidth"
       offset_points="5,4.9921382"
       linejoin_type="extrp_arc"
       miter_limit="4"
       not_jump="false"
       sort_points="true"
       message="&lt;b&gt;Ctrl + click&lt;/b&gt; on existing node and move it" /><inkscape:path-effect
       effect="powerstroke"
       id="path-effect13-8"
       is_visible="true"
       lpeversion="1.3"
       scale_width="1"
       interpolator_type="CubicBezierJohan"
       interpolator_beta="0.2"
       start_linecap_type="zerowidth"
       end_linecap_type="zerowidth"
       offset_points="5,4.9921382"
       linejoin_type="extrp_arc"
       miter_limit="4"
       not_jump="false"
       sort_points="true"
       message="&lt;b&gt;Ctrl + click&lt;/b&gt; on existing node and move it" /><inkscape:path-effect
       effect="powerstroke"
       id="path-effect13-5"
       is_visible="true"
       lpeversion="1.3"
       scale_width="1"
       interpolator_type="CubicBezierJohan"
       interpolator_beta="0.2"
       start_linecap_type="zerowidth"
       end_linecap_type="zerowidth"
       offset_points="5,4.9921382"
       linejoin_type="extrp_arc"
       miter_limit="4"
       not_jump="false"
       sort_points="true"
       message="&lt;b&gt;Ctrl + click&lt;/b&gt; on existing node and move it" /><inkscape:path-effect
       effect="powerstroke"
       id="path-effect13-6"
       is_visible="true"
       lpeversion="1.3"
       scale_width="1"
       interpolator_type="CubicBezierJohan"
       interpolator_beta="0.2"
       start_linecap_type="zerowidth"
       end_linecap_type="zerowidth"
       offset_points="5,4.9921382"
       linejoin_type="extrp_arc"
       miter_limit="4"
       not_jump="false"
       sort_points="true"
       message="&lt;b&gt;Ctrl + click&lt;/b&gt; on existing node and move it" /></defs><g
     inkscape:label="Layer 1"
     inkscape:groupmode="layer"
     id="layer1"
     transform="rotate(180,62.1375,101.93)"><path
       style="fill:#938e5e;fill-opacity:1;fill-rule:evenodd;stroke:none;stroke-width:0.982424;stroke-linecap:round;stroke-linejoin:round;stroke-dasharray:none;stroke-opacity:1;paint-order:stroke fill markers"
       d="m 118.85,200 v -6.4 L 114.42512,168.86241 105,165.8 95.574879,168.86241 91.149996,193.6 l 2e-6,6.4 z"
       id="path12"
       sodipodi:nodetypes="cccccccc" /><path
       style="display:inline;fill:#fff29e;fill-opacity:1;fill-rule:evenodd;stroke:none;stroke-width:0.373013;stroke-linecap:round;stroke-linejoin:round;paint-order:stroke fill markers"
       d="m 105,169 9.42512,3.06241 L 118.85,200 H 91.149999 l 4.42488,-27.93759 z"
       id="path13"
       sodipodi:nodetypes="cccccc" /><path
       id="path3"
       style="fill:#000000;stroke-width:0.468836"
       d="m 104.2901,171.36559 c -1.00413,0.0312 -1.10581,0.0542 -0.8177,0.18317 0.45382,0.20329 0.51906,0.35575 0.29703,0.69461 -0.48764,0.74424 -3.997654,3.15938 -5.806924,3.99566 -1.08849,0.50311 -1.46435,0.87957 -0.68031,0.68128 0.22173,-0.0561 0.76598,-0.16565 1.20945,-0.24349 0.8847,-0.1553 1.982394,-0.63589 3.225214,-1.41176 0.92989,-0.5805 2.84948,-1.9517 3.44786,-2.46276 0.32483,-0.27741 0.45724,-0.32341 0.64325,-0.22386 0.12878,0.0689 0.36663,0.12525 0.52865,0.12525 0.162,0 0.403,0.083 0.53543,0.18414 0.23135,0.17677 0.21635,0.20718 -0.38377,0.77529 -0.64871,0.61412 -1.0866,0.97821 -1.49389,1.24192 -0.93376,0.60457 -1.52531,0.89787 -1.91641,1.029 -0.39109,0.13115 -0.98709,0.083 -1.42071,-0.0834 -0.31762,-0.12188 -0.32073,0.40829 -0.006,1.0837 0.24609,0.52869 0.31133,0.86461 0.31035,1.59953 -10e-4,1.1246 -0.24032,2.5466 -0.62387,3.71654 -0.23428,0.71463 -0.25848,0.92198 -0.13931,1.18353 0.18521,0.40652 0.4588,0.50789 0.8315,0.30843 0.5074,-0.27155 0.70976,-0.91503 0.81768,-2.60087 0.14547,-2.27201 0.34333,-4.1317 0.4504,-4.23284 0.11281,-0.10654 2.26461,-0.2037 2.26457,-0.10219 -1e-5,0.0391 -0.33922,0.21033 -0.75372,0.38038 -0.41451,0.17003 -0.75212,0.36121 -0.75034,0.42494 0.002,0.0638 0.17299,0.15063 0.38062,0.1931 0.37788,0.0773 0.75131,0.31218 0.75131,0.47269 0,0.0469 -0.34888,0.18728 -0.7753,0.31181 -0.9611,0.28068 -1.10206,0.39813 -0.77528,0.64519 0.16987,0.12842 0.43387,0.17047 0.83732,0.13373 l 0.58921,-0.0535 v 0.60497 c 0,0.54479 -0.0338,0.61801 -0.33846,0.73386 -0.18614,0.0708 -0.61509,0.1139 -0.95312,0.0959 -0.34698,-0.0184 -0.63336,0.0241 -0.65779,0.0973 -0.0238,0.0714 0.18964,0.28401 0.47439,0.47245 0.40214,0.26611 0.61212,0.32735 0.94076,0.27402 0.4614,-0.0749 0.49868,-0.0324 0.5788,0.6619 0.067,0.58054 0.18221,0.83389 0.42157,0.92575 0.29588,0.11354 0.74785,-0.51768 0.84045,-1.17384 0.131,-0.92812 0.15721,-0.96346 0.9008,-1.21067 0.51446,-0.17103 0.71762,-0.3031 0.74451,-0.48432 0.0586,-0.39504 -0.21397,-0.5292 -0.84263,-0.41404 -0.61267,0.11221 -0.79249,-0.005 -0.66603,-0.43393 0.11019,-0.37377 0.25157,-0.47958 0.82448,-0.6178 0.44169,-0.10658 0.52332,-0.17477 0.52332,-0.43659 0,-0.27616 -0.0578,-0.31419 -0.52721,-0.34816 -0.50843,-0.0368 -0.52719,-0.0529 -0.52719,-0.4562 0,-0.23 -0.0837,-0.50191 -0.18607,-0.60424 -0.1023,-0.1023 -0.18607,-0.23439 -0.18607,-0.29341 0,-0.13345 1.19235,-0.38946 1.61261,-0.34621 0.17056,0.0176 0.37386,0.0391 0.45184,0.0477 0.078,0.008 0.17994,0.11344 0.22653,0.23283 0.10403,0.26656 0.0953,3.19149 -0.0138,4.59868 -0.10013,1.29155 -0.21858,1.43569 -1.08588,1.32163 l -0.63307,-0.0831 0.62023,0.62193 c 0.34113,0.34209 0.78769,0.82099 0.99236,1.06408 0.20468,0.24309 0.40649,0.44293 0.44847,0.44433 0.18813,0.006 0.71619,-0.524 0.89303,-0.89666 0.16442,-0.34651 0.18362,-0.79287 0.12453,-2.88748 -0.0547,-1.93587 -0.0277,-2.71762 0.12284,-3.5753 0.10596,-0.60371 0.16699,-1.16443 0.13568,-1.24603 -0.0313,-0.0816 -0.28982,-0.29951 -0.57445,-0.48407 -0.39512,-0.2562 -0.67143,-0.33555 -1.16778,-0.33555 -0.35755,0 -0.68495,0.0568 -0.83288,0.10043 -0.48434,0.15778 -0.95937,0.30878 -1.46562,0.39234 -0.4318,0.0673 -0.8687,0.13754 -0.97105,0.15602 -0.1023,0.0185 -0.20628,-0.0224 -0.23089,-0.0906 -0.0437,-0.12118 0.83571,-0.68019 2.54441,-1.61745 1.18873,-0.65203 1.65629,-1.03159 1.65403,-1.34319 -0.005,-0.77905 -0.76037,-0.9875 -2.29073,-0.63258 -0.9136,0.21187 -1.05658,0.17725 -1.05658,-0.25512 0,-0.45057 -0.3671,-0.56861 -1.64434,-0.5289 z m -2.52745,12.91124 c -0.0272,0.0272 0.0632,0.19237 0.2006,0.36705 0.13742,0.17469 0.24919,0.36459 0.24858,0.42206 -0.002,0.18355 -0.88083,1.0403 -1.41006,1.37444 -1.496224,0.94464 -2.872534,1.52127 -3.631994,1.52127 -0.43308,0 -0.55622,0.1672 -0.21854,0.29678 0.30116,0.11558 1.41407,0.0837 2.03659,-0.0582 0.30702,-0.07 0.9422,-0.30329 1.411524,-0.51871 l 0.8533,-0.39176 0.28613,0.35905 c 0.21006,0.26343 0.25549,0.41594 0.17105,0.57371 -0.0632,0.11823 -1.13421,1.23186 -2.379904,2.47487 -2.27165,2.26678 -4.01359,3.63627 -4.83417,3.80038 -0.19021,0.038 -0.34573,0.14604 -0.34573,0.23986 0,0.13056 0.23388,0.17056 0.99842,0.17056 1.0522,0 1.48224,-0.1395 1.91691,-0.62168 0.49423,-0.54827 2.923332,-2.76052 2.974694,-2.70916 0.029,0.0289 -0.029,0.72034 -0.128904,1.53652 -0.0998,0.8162 -0.2172,1.97463 -0.26093,2.57421 -0.0785,1.07582 -0.0751,1.09496 0.27232,1.45755 0.401354,0.4189 0.680244,0.46304 0.952404,0.15045 0.14656,-0.16833 0.20755,-0.71441 0.27135,-2.43077 0.0453,-1.21741 0.11342,-2.44547 0.15167,-2.72902 0.0643,-0.47684 0.0408,-0.53217 -0.31399,-0.73944 -0.211,-0.12325 -0.38337,-0.2628 -0.38305,-0.31011 0.001,-0.2246 1.96139,-2.0793 2.62315,-2.48239 0.51682,-0.31479 0.63391,-0.53235 0.52356,-0.97201 -0.0985,-0.39236 -0.51595,-0.55179 -1.22568,-0.46833 -0.30643,0.0361 -0.55538,0.0209 -0.55336,-0.0337 0.002,-0.0546 0.50439,-0.3429 1.11641,-0.64082 0.61203,-0.29791 1.11278,-0.61689 1.11278,-0.7089 0,-0.40382 -0.75942,-1.02763 -1.56971,-1.2894 -0.44877,-0.14499 -0.83827,-0.24157 -0.86542,-0.21443 z m 9.40063,0.79831 c -0.45914,-0.0793 -1.1639,0.006 -1.9971,0.27572 -0.90914,0.2944 -2.98672,0.73632 -3.61672,0.76923 -0.23174,0.0121 -0.51901,-0.0211 -0.6384,-0.0739 -0.4322,-0.19107 -0.20709,0.16552 0.41937,0.66432 0.35004,0.2787 0.68195,0.50684 0.73774,0.50684 0.0558,0 0.54505,-0.14025 1.08734,-0.31157 0.86246,-0.27245 1.52747,-0.4381 2.43829,-0.60739 0.13645,-0.0253 0.55511,-0.0826 0.93035,-0.12719 0.8952,-0.10648 1.07941,-0.16758 1.16294,-0.38522 0.14885,-0.38793 -0.0647,-0.63161 -0.52381,-0.71085 z m 2.54076,1.66712 c -0.50333,0.0197 -1.13299,0.13245 -1.99612,0.34282 -0.82167,0.20026 -1.91255,0.45409 -2.42424,0.56403 -0.51168,0.10992 -1.15363,0.27251 -1.42653,0.36123 -0.2729,0.0888 -0.71946,0.23318 -0.99237,0.32102 -0.48128,0.15492 -0.89333,0.32861 -2.27208,0.95724 -0.79846,0.36405 -1.06397,0.3357 -1.11642,-0.11872 -0.0572,-0.49627 -0.20732,-0.42078 -0.61927,0.31133 -1.03624,1.84168 -0.19173,2.57071 1.4154,1.22205 0.86213,-0.72348 3.13906,-1.75018 3.87984,-1.74924 0.33788,3.7e-4 0.89009,1.03103 1.01126,1.88758 0.12769,0.90257 0.18045,4.29564 0.0686,4.40752 -0.1257,0.12572 -1.42153,-0.33669 -2.03634,-0.72659 -0.31721,-0.20117 -0.59024,-0.32228 -0.60667,-0.26917 -0.0164,0.0531 0.68078,0.83283 1.54938,1.73278 1.86388,1.93115 2.04284,2.00465 2.62919,1.08007 0.45741,-0.72126 0.56921,-1.57203 0.37456,-2.8504 -0.0823,-0.54029 -0.15749,-1.85626 -0.16692,-2.9243 l -0.017,-1.94186 -0.71326,-0.31714 c -0.3923,-0.17444 -0.71327,-0.36438 -0.71327,-0.42229 0,-0.0965 1.92316,-0.44002 3.20121,-0.57178 0.29876,-0.0308 0.98215,0.052 1.55058,0.18777 0.75273,0.17987 1.08876,0.20989 1.29546,0.11581 0.55599,-0.25306 0.21338,-0.99761 -0.6367,-1.38365 -0.35791,-0.16254 -0.73495,-0.23583 -1.23828,-0.21611 z"
       inkscape:label="path1"
       sodipodi:nodetypes="cscssccccscccccscsccscsscsscsccsccccsssssssccscssscssccccscsccccsccccccsscccsccscscccsscssscsssssssscccssscccccccsscscsccsssssscccsssccsscccssssscc" /></g></svg>
