<?xml version="1.0" encoding="UTF-8" standalone="no"?>
<!-- Created with Inkscape (http://www.inkscape.org/) -->

<svg
   viewBox="0 0 38.549999 41.919998"
   version="1.1"
   id="svg1"
   inkscape:version="1.3.2 (091e20e, 2023-11-25, custom)"
   sodipodi:docname="Gyoku.svg"
   xml:space="preserve"
   xmlns:inkscape="http://www.inkscape.org/namespaces/inkscape"
   xmlns:sodipodi="http://sodipodi.sourceforge.net/DTD/sodipodi-0.dtd"
   xmlns="http://www.w3.org/2000/svg"
   xmlns:svg="http://www.w3.org/2000/svg"><sodipodi:namedview
     id="namedview1"
     pagecolor="#ffffff"
     bordercolor="#111111"
     borderopacity="1"
     inkscape:showpageshadow="false"
     inkscape:pageopacity="0"
     inkscape:pagecheckerboard="1"
     inkscape:deskcolor="#d1d1d1"
     inkscape:document-units="mm"
     showguides="true"
     inkscape:zoom="11.569391"
     inkscape:cx="19.275"
     inkscape:cy="20.960482"
     inkscape:window-width="1292"
     inkscape:window-height="745"
     inkscape:window-x="-8"
     inkscape:window-y="-8"
     inkscape:window-maximized="1"
     inkscape:current-layer="layer1"
     labelstyle="default"><inkscape:page
       x="0"
       y="0"
       width="38.549999"
       height="41.919998"
       id="page42"
       margin="0"
       bleed="0" /></sodipodi:namedview><defs
     id="defs1"><inkscape:path-effect
       effect="powerstroke"
       id="path-effect12"
       is_visible="true"
       lpeversion="1.3"
       scale_width="1"
       interpolator_type="CubicBezierJohan"
       interpolator_beta="0.2"
       start_linecap_type="zerowidth"
       end_linecap_type="zerowidth"
       offset_points="7,4.9921382"
       linejoin_type="extrp_arc"
       miter_limit="4"
       not_jump="false"
       sort_points="true"
       message="&lt;b&gt;Ctrl + click&lt;/b&gt; on existing node and move it" /><inkscape:path-effect
       effect="powerstroke"
       id="path-effect13"
       is_visible="true"
       lpeversion="1.3"
       scale_width="1"
       interpolator_type="CubicBezierJohan"
       interpolator_beta="0.2"
       start_linecap_type="zerowidth"
       end_linecap_type="zerowidth"
       offset_points="5,4.9921382"
       linejoin_type="extrp_arc"
       miter_limit="4"
       not_jump="false"
       sort_points="true"
       message="&lt;b&gt;Ctrl + click&lt;/b&gt; on existing node and move it" /></defs><g
     inkscape:label="Layer 1"
     inkscape:groupmode="layer"
     id="layer1"
     transform="rotate(180,62.137499,101.68)"><path
       style="fill:#938e5e;fill-opacity:1;fill-rule:evenodd;stroke:none;stroke-width:1;stroke-linecap:round;stroke-linejoin:round;stroke-dasharray:none;stroke-opacity:1;paint-order:stroke fill markers"
       d="m 119.35,200 v -6.4 L 114.78527,167.97943 105,164.8 95.21473,167.97943 90.649996,193.6 l 2e-6,6.4 z"
       id="path12"
       sodipodi:nodetypes="cccccccc" /><path
       style="display:inline;fill:#fff29e;fill-opacity:1;fill-rule:evenodd;stroke:none;stroke-width:0.385762;stroke-linecap:round;stroke-linejoin:round;paint-order:stroke fill markers"
       d="m 105,168 9.78527,3.17942 L 119.35,200 h -28.7 l 4.56473,-28.82058 z"
       id="path13" /><path
       id="path5"
       style="fill:#000000;stroke-width:0.475324"
       inkscape:label="path1"
       d="m 106.28894,171.39371 c -0.34394,-0.0151 -0.73165,0.0556 -1.16335,0.21543 -2.54994,0.94312 -5.354727,1.40181 -6.107887,0.99876 -0.1338,-0.0718 -0.24303,-0.0794 -0.24303,-0.0189 0,0.17726 1.18275,1.23861 1.488067,1.33548 0.28913,0.0918 1.62767,-0.13569 1.84886,-0.31408 0.1988,-0.16064 0.37342,0.0113 0.71577,0.69809 0.41511,0.83411 0.51062,1.26124 0.31635,1.41579 -0.0858,0.0684 -0.58625,0.25021 -1.11199,0.4043 -0.94712,0.2778 -2.01633,0.30993 -2.533937,0.076 -0.36473,-0.16479 -0.2608,0.21506 0.12661,0.46206 0.18974,0.12094 0.537227,0.3617 0.772247,0.53447 0.52271,0.38442 0.83479,0.39175 1.86507,0.0438 0.4712,-0.15912 0.84549,-0.22375 0.90884,-0.15723 0.0593,0.0624 0.12737,0.53795 0.15118,1.05673 l 0.0435,0.94324 -1.50915,0.52294 c -2.253047,0.78083 -2.961687,1.05806 -3.566567,1.39542 -0.6457,0.3602 -0.75459,0.29481 -0.87471,-0.52267 -0.0472,-0.32354 -0.14287,-0.58301 -0.21203,-0.577 -0.0692,0.004 -0.28952,0.37758 -0.48976,0.82531 l -0.36398,0.81428 0.50208,0.59441 c 0.27629,0.32694 0.63429,0.66128 0.79561,0.74303 0.23622,0.11982 0.3685,0.10999 0.67919,-0.0506 0.21241,-0.10961 0.4427,-0.26798 0.51187,-0.35188 0.36019,-0.43575 1.633677,-1.19772 2.578127,-1.5426 1.69835,-0.62008 2.77735,-0.84856 4.59038,-0.97196 0.4842,-0.034 1.31896,-0.12397 1.85502,-0.20183 1.15689,-0.16857 1.25361,-0.36284 0.46621,-0.93586 -0.27969,-0.20335 -0.68985,-0.5237 -0.91179,-0.71162 l -0.40332,-0.34168 -0.0393,0.43601 c -0.0265,0.30539 -0.10243,0.43855 -0.25135,0.44482 -0.34091,0.0151 -1.18985,0.10961 -1.55976,0.17462 -0.46292,0.0813 -0.53537,-0.0813 -0.54996,-1.23256 -0.0151,-1.11426 -0.0775,-1.04192 1.23233,-1.40672 0.39523,-0.10999 0.84799,-0.30993 1.00613,-0.44414 0.28573,-0.24265 0.28611,-0.24492 0.0378,-0.44138 -0.18746,-0.14741 -0.4743,-0.18747 -1.12699,-0.15723 l -0.87517,0.0404 -0.11074,-0.55511 c -0.1372,-0.686 -0.47135,-0.97381 -1.25936,-1.08399 -0.33298,-0.0465 -0.56981,-0.12019 -0.52611,-0.16403 0.13606,-0.13606 1.47528,-0.38045 2.20058,-0.40185 0.38046,-0.0113 1.05957,-0.11376 1.50919,-0.22828 0.72039,-0.18293 0.81745,-0.24379 0.81745,-0.50873 0,-0.17727 -0.13418,-0.40056 -0.32542,-0.54358 -0.25664,-0.19163 -0.55674,-0.29519 -0.90072,-0.31106 z m -2.19718,5.16488 c -10.091987,-5.16704 -10.091987,-5.16704 0,0 z m 5.0273,1.15277 c -0.17311,-0.034 -0.28347,-0.0265 -0.28347,0.034 0,0.0582 0.13871,0.23698 0.30879,0.39647 0.17008,0.1595 0.46591,0.52314 0.65757,0.80785 0.19163,0.28461 0.48379,0.70176 0.64922,0.92653 0.35302,0.47978 0.69333,0.5226 0.95673,0.12057 0.23849,-0.36397 0.0726,-1.06119 -0.34016,-1.42982 -0.34848,-0.31106 -1.42986,-0.75501 -1.94887,-0.85456 z m -3.36119,3.20452 c -0.19238,0.008 -0.31786,0.034 -0.31786,0.0903 0,0.0718 0.0847,0.16366 0.1886,0.20335 0.2676,0.10242 0.23358,0.54407 -0.0748,0.97736 -0.14514,0.20372 -0.76749,0.70912 -1.38341,1.12329 -0.61596,0.41413 -1.11985,0.81412 -1.11985,0.88892 0,0.0748 0.0707,0.1081 0.15723,0.0737 0.0866,-0.034 0.55337,-0.21694 1.03757,-0.40581 1.26049,-0.49165 3.23177,-1.43141 3.48992,-1.66366 0.28649,-0.25777 0.28045,-0.69405 -0.0113,-0.95945 -0.20599,-0.18633 -1.38696,-0.35037 -1.96459,-0.32807 z m 4.08706,1.23846 c -0.0227,0.0627 0.0151,0.19238 0.11679,0.38272 0.085,0.15874 0.0567,0.34281 -0.0975,0.63028 -0.2434,0.45416 -2.55507,2.43455 -2.6818,2.29761 -0.14287,-0.1542 0.1149,-1.52669 0.38344,-2.04192 0.20107,-0.38597 0.22035,-0.49815 0.0843,-0.49815 -0.21619,0 -0.82655,0.70637 -0.82655,0.95673 0,0.30841 -0.35188,0.33903 -0.70497,0.0612 -0.32202,-0.25323 -0.93307,-0.36473 -0.92725,-0.16933 9.8e-4,0.0518 0.11339,0.23585 0.2487,0.40876 0.13531,0.17311 0.24718,0.48534 0.2487,0.69439 0.002,0.23509 0.14929,0.55753 0.38589,0.84474 l 0.38295,0.46447 -0.78135,0.60182 c -0.92283,0.71072 -1.36795,1.13343 -1.36795,1.2989 0,0.0658 0.0227,0.12019 0.0529,0.12019 0.0952,0 2.01664,-1.04181 2.21072,-1.19866 0.10356,-0.0839 0.50106,-0.32391 0.88303,-0.53375 0.55639,-0.30539 0.73531,-0.35264 0.89973,-0.23623 0.11301,0.0798 0.32353,0.22829 0.4687,0.32996 0.14514,0.10167 0.26382,0.28347 0.26382,0.40385 0,0.34281 -2.47476,0.89051 -3.58426,1.33476 -0.34583,0.13871 -0.9924,0.39875 -1.43666,0.5782 -0.44432,0.17953 -0.8151,0.31257 -0.82414,0.29556 -0.008,-0.0151 -0.0786,-0.17197 -0.1542,-0.34507 l -0.13796,-0.31446 -0.22186,0.50306 c -0.26155,0.59362 -0.29329,1.22213 -0.0752,1.48507 0.13568,0.16366 0.26646,0.12738 1.00782,-0.28044 1.31893,-0.72496 1.19001,-0.73933 2.14511,0.23887 0.79643,0.81563 1.2792,1.13459 1.71721,1.13459 0.13002,0 0.18067,-0.15798 0.18067,-0.56497 0,-0.46935 -0.065,-0.62367 -0.38223,-0.91179 -0.21015,-0.19087 -0.59978,-0.43174 -0.86609,-0.53549 -0.26609,-0.10356 -0.48156,-0.24529 -0.47873,-0.31446 0.004,-0.0692 0.66151,-0.35566 1.46346,-0.63645 1.41693,-0.4961 2.20176,-0.62669 2.221,-0.36964 0.004,0.0692 0.0469,0.55023 0.093,1.06902 0.0457,0.51875 0.11338,1.63187 0.14967,2.47351 0.0559,1.28839 0.034,1.56169 -0.13267,1.72924 -0.10923,0.1096 -0.25323,0.1988 -0.31899,0.1988 -0.34243,0 -1.55693,-0.53761 -2.49884,-1.10609 -0.58553,-0.35339 -1.09222,-0.61464 -1.12597,-0.58089 -0.0707,0.0707 1.35161,1.44312 2.07435,2.00141 0.26872,0.2075 0.93321,0.77341 1.47698,1.25762 0.54381,0.4842 1.13928,0.97902 1.32323,1.0997 0.43968,0.28839 0.44675,0.28687 0.90219,-0.18784 l 0.39206,-0.40873 -0.0684,-1.13187 c -0.0378,-0.62253 -0.12095,-1.49974 -0.18558,-1.94932 -0.73876,-5.15906 -0.7408,-5.14228 0.59196,-5.17251 0.39281,-0.008 0.88408,-0.0302 1.09158,-0.0514 0.2075,-0.0189 0.78528,0.0151 1.28393,0.0771 1.42864,0.17688 1.62295,-0.0302 0.81967,-0.8752 -0.26079,-0.2744 -0.61992,-0.53512 -0.79756,-0.57968 -0.17764,-0.0446 -1.05349,0.0302 -1.94638,0.16857 l -1.6234,0.24945 -0.44014,-0.25701 c -0.30917,-0.18066 -0.67431,-0.25965 -1.22621,-0.2657 -0.46364,-0.004 -0.78449,-0.0631 -0.78211,-0.14136 0.004,-0.13342 0.92162,-0.7555 1.50526,-1.0206 0.49588,-0.22526 1.80861,-1.07336 1.96727,-1.27092 0.079,-0.0986 0.11868,-0.27591 0.0877,-0.39448 -0.0745,-0.28498 -0.92305,-0.76468 -1.47922,-0.83589 -0.24416,-0.0302 -0.55817,-0.11792 -0.69831,-0.19314 -0.14363,-0.0767 -0.22829,-0.0805 -0.25134,-0.0189 z m -8.6929,0.6033 c -0.63761,9.8e-4 -2.000337,0.19162 -1.999957,0.27931 1.9e-4,0.042 0.21241,0.18973 0.47116,0.32806 0.699147,0.37343 0.771597,0.68071 0.988167,4.19122 l 0.0881,1.42468 -0.47529,-0.19843 c -0.679597,-0.28384 -1.667967,-0.0937 -3.227377,0.62095 -1.14533,0.52502 -1.34546,0.57771 -2.1021,0.55318 -0.45993,-0.0151 -0.86114,0.0227 -0.89164,0.0862 -0.071,0.14551 1.0926,1.03715 1.48825,1.14022 0.2041,0.0533 0.55836,-0.0484 1.10266,-0.31673 0.44104,-0.2177 0.82482,-0.39546 0.8526,-0.39546 0.0264,0 0.0854,0.1595 0.1285,0.35491 0.0514,0.23471 -0.0518,0.74201 -0.30539,1.49887 -0.2109,0.62911 -0.41859,1.48186 -0.46179,1.89504 -0.0741,0.70788 -0.0597,0.76329 0.24379,0.96213 0.29745,0.19503 0.34583,0.19541 0.63251,0.008 0.17084,-0.11187 0.37078,-0.35603 0.44436,-0.54308 0.24681,-0.62711 0.77202,-2.83942 0.77202,-3.25313 0,-0.45106 -0.3978,-0.92237 -0.7784,-0.92237 -0.50284,0 -0.16479,-0.23358 1.06134,-0.73419 0.70901,-0.28951 1.325577,-0.52566 1.370137,-0.5249 0.11452,0.002 0.28045,3.82153 0.18255,4.21038 -0.079,0.31559 -0.0866,0.3171 -0.42369,0.10772 -0.1886,-0.11717 -0.456307,-0.3122 -0.594677,-0.43307 -0.13833,-0.12095 -0.41579,-0.28196 -0.6163,-0.35793 -0.40672,-0.1542 -0.42649,-0.19842 0.33487,0.75433 0.25059,0.31371 0.565767,0.8229 0.700547,1.13188 0.13455,0.30917 0.45385,0.80229 0.7089,1.09626 0.25512,0.29406 0.51504,0.53448 0.57797,0.53448 0.0627,0 0.26684,-0.24039 0.45295,-0.53448 0.29934,-0.47244 0.33525,-0.64283 0.30955,-1.46836 -0.29103,-3.02726 -0.65909,-6.09844 -0.26042,-9.1449 0.0718,-0.336 0.17802,-0.82962 0.23585,-1.09676 0.0934,-0.42981 0.0658,-0.52997 -0.23811,-0.87025 -0.25626,-0.28687 -0.45231,-0.38412 -0.7718,-0.38344 z m -2.566107,1.48779 -1.03167,0.004 c -0.56732,0.002 -1.0765,0.0495 -1.13161,0.1047 -0.0918,0.0918 0.1406,0.32353 0.57695,0.57453 0.20637,0.11868 0.36511,1.04596 0.26911,1.57597 -0.0582,0.32202 -0.15345,0.39792 -0.69586,0.5522 -0.48549,0.13833 -0.79957,0.14967 -1.38269,0.0518 -0.41499,-0.0699 -0.79821,-0.10205 -0.85135,-0.0714 -0.0998,0.0571 0.26306,0.64328 0.70278,1.13554 0.18255,0.20447 0.33865,0.26117 0.57673,0.20976 0.36397,-0.0786 0.95049,-0.27062 1.3323,-0.43597 0.13833,-0.0597 0.93065,-0.27402 1.76068,-0.47555 1.637577,-0.39784 1.820207,-0.55556 1.07393,-0.928 -0.30614,-0.1527 -0.58266,-0.19389 -0.9317,-0.13796 l -0.49619,0.0794 0.099,-0.67942 c 0.0544,-0.3738 0.10583,-0.87747 0.11414,-1.11959 z m 4.599947,0.81745 c -0.44256,0 -0.76416,0.0544 -0.76416,0.13002 0,0.1697 1.51554,1.7086 1.76068,1.7877 0.6078,0.19616 0.71007,-0.97543 0.13531,-1.55016 -0.3258,-0.3258 -0.45487,-0.36737 -1.13187,-0.36737 z"
       sodipodi:nodetypes="cccscscscsscccccccscccccccccssccccccccccccccscsccccccsscssscccssscsccssccccsscssscsccccssssssscsccccssssscsssscscsscssscccccscsscccscsccccccccccccsccssssccscsssscscsssssssccssccccssscccsssccsccccsscss" /></g></svg>
