<?xml version="1.0" encoding="UTF-8" standalone="no"?>
<!-- Created with Inkscape (http://www.inkscape.org/) -->

<svg
   viewBox="0 0 38.549999 41.919998"
   version="1.1"
   id="svg1"
   inkscape:version="1.3.2 (091e20e, 2023-11-25, custom)"
   sodipodi:docname="Kei.svg"
   xml:space="preserve"
   xmlns:inkscape="http://www.inkscape.org/namespaces/inkscape"
   xmlns:sodipodi="http://sodipodi.sourceforge.net/DTD/sodipodi-0.dtd"
   xmlns="http://www.w3.org/2000/svg"
   xmlns:svg="http://www.w3.org/2000/svg"><sodipodi:namedview
     id="namedview1"
     pagecolor="#ffffff"
     bordercolor="#111111"
     borderopacity="1"
     inkscape:showpageshadow="false"
     inkscape:pageopacity="0"
     inkscape:pagecheckerboard="1"
     inkscape:deskcolor="#d1d1d1"
     inkscape:document-units="mm"
     showguides="true"
     inkscape:zoom="13.096375"
     inkscape:cx="19.280145"
     inkscape:cy="20.959999"
     inkscape:window-width="1292"
     inkscape:window-height="745"
     inkscape:window-x="-8"
     inkscape:window-y="-8"
     inkscape:window-maximized="1"
     inkscape:current-layer="layer1"
     labelstyle="default"><inkscape:page
       x="0"
       y="0"
       width="38.549999"
       height="41.919998"
       id="page42"
       margin="0"
       bleed="0" /></sodipodi:namedview><defs
     id="defs1"><inkscape:path-effect
       effect="powerstroke"
       id="path-effect12"
       is_visible="true"
       lpeversion="1.3"
       scale_width="1"
       interpolator_type="CubicBezierJohan"
       interpolator_beta="0.2"
       start_linecap_type="zerowidth"
       end_linecap_type="zerowidth"
       offset_points="7,4.9921382"
       linejoin_type="extrp_arc"
       miter_limit="4"
       not_jump="false"
       sort_points="true"
       message="&lt;b&gt;Ctrl + click&lt;/b&gt; on existing node and move it" /><inkscape:path-effect
       effect="powerstroke"
       id="path-effect13"
       is_visible="true"
       lpeversion="1.3"
       scale_width="1"
       interpolator_type="CubicBezierJohan"
       interpolator_beta="0.2"
       start_linecap_type="zerowidth"
       end_linecap_type="zerowidth"
       offset_points="5,4.9921382"
       linejoin_type="extrp_arc"
       miter_limit="4"
       not_jump="false"
       sort_points="true"
       message="&lt;b&gt;Ctrl + click&lt;/b&gt; on existing node and move it" /><inkscape:path-effect
       effect="powerstroke"
       id="path-effect13-2"
       is_visible="true"
       lpeversion="1.3"
       scale_width="1"
       interpolator_type="CubicBezierJohan"
       interpolator_beta="0.2"
       start_linecap_type="zerowidth"
       end_linecap_type="zerowidth"
       offset_points="5,4.9921382"
       linejoin_type="extrp_arc"
       miter_limit="4"
       not_jump="false"
       sort_points="true"
       message="&lt;b&gt;Ctrl + click&lt;/b&gt; on existing node and move it" /><inkscape:path-effect
       effect="powerstroke"
       id="path-effect13-7"
       is_visible="true"
       lpeversion="1.3"
       scale_width="1"
       interpolator_type="CubicBezierJohan"
       interpolator_beta="0.2"
       start_linecap_type="zerowidth"
       end_linecap_type="zerowidth"
       offset_points="5,4.9921382"
       linejoin_type="extrp_arc"
       miter_limit="4"
       not_jump="false"
       sort_points="true"
       message="&lt;b&gt;Ctrl + click&lt;/b&gt; on existing node and move it" /></defs><g
     inkscape:label="Layer 1"
     inkscape:groupmode="layer"
     id="layer1"
     transform="matrix(-0.88850161,0,0,-1,112.56767,204.85999)"><path
       style="fill:#938e5e;fill-opacity:1;fill-rule:evenodd;stroke:none;stroke-width:1;stroke-linecap:round;stroke-linejoin:round;stroke-dasharray:none;stroke-opacity:1;paint-order:stroke fill markers"
       d="m 119.35,200 v -6.4 L 114.67855,170.59411 105,167.79999 95.321455,170.59411 90.649996,193.6 l 2e-6,6.4 z"
       id="path12"
       sodipodi:nodetypes="cccccccc" /><path
       style="display:inline;fill:#fff29e;fill-opacity:1;fill-rule:evenodd;stroke:none;stroke-width:0.367234;stroke-linecap:round;stroke-linejoin:round;paint-order:stroke fill markers"
       d="m 105,171 9.67855,2.79412 L 119.35,200 h -28.7 l 4.671455,-26.20588 z"
       id="path13"
       sodipodi:nodetypes="cccccc" /><path
       id="path2-6"
       style="fill:#000000;stroke-width:0.491702"
       d="m 106.35287,174.04844 c -0.65819,0.0202 -0.79359,0.0617 -0.79359,0.24263 0,0.1199 0.12092,0.30974 0.26848,0.42201 0.48105,0.36596 0.89192,2.09993 0.59225,2.49953 -0.14725,0.19634 -1.4571,0.31951 -1.87968,0.17675 -0.30951,-0.10455 -0.36123,-0.0893 -0.36123,0.1073 0,0.3097 0.7358,0.99109 1.07017,0.99109 0.14799,0 0.46927,-0.0622 0.7141,-0.13796 0.49478,-0.15325 0.63708,-0.08 0.76905,0.3952 0.0854,0.30698 0.0542,0.32571 -0.85289,0.51782 -0.51772,0.10965 -1.23613,0.21465 -1.59664,0.23328 -0.69007,0.0358 -0.81464,0.18179 -0.43912,0.51544 0.43011,0.38216 1.17676,0.38053 2.78514,-0.007 0.2806,-0.0676 0.31054,-0.0314 0.31054,0.37196 0,0.37339 -0.0622,0.46803 -0.37954,0.57842 -0.20876,0.0727 -0.70548,0.14041 -1.10387,0.15041 -0.82579,0.0208 -0.91707,0.17207 -0.34531,0.57292 0.3046,0.21357 0.49497,0.25216 0.96422,0.19542 0.5313,-0.0642 0.59235,-0.044 0.66719,0.22085 0.0454,0.16032 0.0616,0.42146 0.0364,0.58007 -0.0417,0.26212 -0.15271,0.30249 -1.21896,0.4443 -1.50433,0.20007 -1.94497,0.21972 -2.24279,0.0994 -0.48205,-0.19476 -0.26752,0.43489 0.31619,0.92833 0.63379,0.53568 0.8891,0.57142 1.64355,0.22945 1.15712,-0.5245 4.06801,-0.95456 6.03233,-0.89121 0.83084,0.0267 1.43475,-0.005 1.48477,-0.0761 0.13873,-0.19945 -0.19203,-0.69811 -0.60786,-0.91636 -0.48262,-0.2533 -1.85441,-0.26888 -2.85336,-0.0327 -0.83255,0.19696 -1.01276,0.10747 -1.01276,-0.50272 0,-0.37183 0.0364,-0.4058 0.44856,-0.41915 0.24671,-0.008 0.49773,-0.008 0.55774,0.002 0.24904,0.037 0.64992,-0.25763 0.64992,-0.47758 0,-0.29366 -0.3936,-0.49051 -0.98067,-0.49051 -0.46447,0 -0.95158,-0.28933 -0.95158,-0.56525 0,-0.1802 0.45246,-0.2596 1.89585,-0.33246 1.08069,-0.0546 1.41657,-0.20487 1.41657,-0.6342 0,-0.40351 -1.0384,-0.65207 -1.88452,-0.45101 -1.04366,0.24803 -1.17459,0.21125 -1.12544,-0.31638 0.0235,-0.25293 0.10469,-0.46285 0.18059,-0.46609 0.36617,-0.0166 1.70656,-0.43909 1.83737,-0.57914 0.30788,-0.3296 -0.0546,-0.51995 -0.93539,-0.49098 -0.94908,0.0311 -0.87417,0.15506 -0.83594,-1.38126 0.0232,-0.92818 0.006,-0.99499 -0.30972,-1.1446 -0.36102,-0.17168 -0.70165,-0.20055 -1.93009,-0.16264 z m -3.69494,0.65148 c -0.24019,-0.0108 -0.58146,0.037 -1.17367,0.13676 -0.89922,0.15154 -1.12698,0.30875 -0.61893,0.42679 0.50977,0.11845 0.8353,0.79688 0.92514,1.92806 l 0.0833,1.04857 -0.62216,0.24455 c -1.429788,0.56194 -3.344703,0.7663 -4.145636,0.44237 -0.415322,-0.16798 -0.273295,0.14778 0.272259,0.605 0.757717,0.63502 1.626538,0.81723 2.723497,0.35822 1.09698,-0.45903 1.57146,-0.53991 1.63429,-0.37786 0.0933,0.24051 -0.1584,0.84023 -0.4863,1.15875 -0.64833,0.62981 -2.581328,1.78037 -4.281767,2.54863 -0.967959,0.43732 -1.759723,0.84825 -1.759723,0.91323 0,0.21563 1.095745,0.1224 2.038186,-0.1734 1.096829,-0.34425 2.457307,-0.98854 3.399214,-1.60999 0.42291,-0.279 0.71,-0.39667 0.76718,-0.31447 0.10107,0.14533 -0.0647,1.7753 -0.20055,1.97045 -0.13633,0.196 -0.46205,0.14546 -1.20711,-0.18705 -0.382106,-0.17052 -0.729524,-0.27897 -0.772034,-0.24119 -0.04252,0.0377 0.508357,0.59105 1.224094,1.22963 1.25893,1.12325 1.51388,1.29816 1.75395,1.10702 0.24008,-0.19111 0.42944,-1.14436 0.43841,-2.62215 0.005,-0.69632 0.0425,-1.31622 0.0852,-1.37741 0.0425,-0.0613 0.41273,0.0569 0.82246,0.26225 0.61838,0.31008 0.79422,0.35024 1.03512,0.23568 0.49407,-0.23493 0.1304,-0.86161 -0.79493,-1.36975 -0.3451,-0.18948 -0.45032,-0.32096 -0.39816,-0.49818 0.0933,-0.3171 -0.03,-0.58513 -0.26984,-0.58513 -0.0276,0 -0.73438,-0.45124 0.1445,-1.25527 0.57301,-0.52424 0.59168,-0.61413 0.19678,-0.94103 -0.2875,-0.23797 -0.28995,-0.27186 -0.1108,-1.43131 0.18292,-1.1837 0.18233,-1.18812 -0.13505,-1.41645 -0.18761,-0.13499 -0.3267,-0.2045 -0.5669,-0.21532 z m 7.0788,10.57459 c -0.9237,-0.10107 -2.44783,0.12503 -4.03917,0.6311 -0.3416,0.10863 -1.22662,0.23067 -1.96675,0.27113 -0.74012,0.0406 -1.34567,0.12418 -1.34567,0.18585 0,0.0617 0.0672,0.2241 0.1496,0.36095 0.13512,0.22432 0.11815,0.24032 -0.17252,0.16215 -0.17732,-0.0476 -0.3772,-0.13242 -0.44452,-0.18802 -0.11758,-0.0971 -1.31226,-0.0375 -1.74084,0.087 -0.17054,0.0495 -0.15836,0.0963 0.0698,0.26561 0.15235,0.11301 0.39182,0.43432 0.53213,0.71396 0.22144,0.44142 0.24296,0.70016 0.16416,1.96207 -0.0971,1.55468 -0.33703,3.20873 -0.47659,3.28536 -0.0469,0.0258 -0.34845,0.004 -0.670398,-0.0483 -0.693996,-0.11276 -0.74213,0.004 -0.248537,0.59783 0.582905,0.70201 0.941605,0.79333 1.998825,0.50894 0.49931,-0.13429 1.07903,-0.28001 1.28852,-0.32381 0.20946,-0.0439 0.41518,-0.12875 0.72192,-0.21322 0.30673,-0.0845 0.69131,-0.17635 0.98523,-0.28854 0.29395,-0.1122 0.90721,-0.27305 1.36265,-0.35736 0.45547,-0.0842 1.26257,-0.26833 1.79369,-0.40908 1.20983,-0.32057 1.99973,-0.32423 2.68704,-0.0127 0.48335,0.21908 0.55218,0.31106 0.69736,0.93241 0.24251,1.03792 -0.15495,2.18831 -1.05992,3.06812 -0.85337,0.82962 -1.50993,0.87051 -2.67679,0.16647 -0.45129,-0.27231 -0.82029,-0.43668 -0.82029,-0.36526 0,0.15875 1.27508,1.63545 1.86997,2.16564 0.38932,0.34697 0.48682,0.37662 0.97395,0.29748 0.8177,-0.13286 1.52195,-0.62682 2.22553,-1.56113 0.0935,-0.12416 0.3352,-0.44634 0.53697,-0.71614 0.46766,-0.62528 0.81358,-1.5203 1.00091,-2.58933 0.1317,-0.75159 0.11814,-0.89584 -0.12347,-1.33408 -0.35881,-0.65081 -1.01433,-1.00613 -2.09318,-1.13456 -1.28421,-0.15287 -2.26164,-0.0952 -3.37066,0.19904 -1.42613,0.37836 -1.5175,0.36496 -1.34807,-0.19664 0.0591,-0.19586 0.22409,-0.29553 1.20013,-0.4728 0.97603,-0.17727 2.05578,-0.67304 2.12819,-0.87133 0.0293,-0.0801 -0.0825,-0.26638 -0.24856,-0.41387 -0.2647,-0.2352 -0.38886,-0.25731 -1.00925,-0.17866 -1.3187,0.16716 -1.3932,0.15708 -1.43947,-0.19737 -0.0375,-0.28659 0.0162,-0.3314 0.48306,-0.40452 0.83012,-0.13 1.88309,-0.45243 2.1479,-0.65771 0.22106,-0.17135 0.22321,-0.20719 0.026,-0.40094 -0.22706,-0.2229 -0.82182,-0.21708 -1.85569,0.0181 -0.42922,0.0976 -0.52346,0.0724 -0.84508,-0.22633 -0.1991,-0.1849 -0.4941,-0.4172 -0.6556,-0.51639 -0.16148,-0.0992 -0.29355,-0.21471 -0.29355,-0.25651 0,-0.17241 1.62437,-0.38019 2.93907,-0.37603 1.90951,0.007 2.53151,-0.35122 1.66565,-0.95637 -0.15472,-0.10812 -0.39566,-0.17827 -0.70357,-0.21195 z m -4.97296,1.73812 c 0.17956,-0.0664 0.27471,-0.008 0.37956,0.23855 0.21846,0.51049 0.17286,1.00918 -0.10134,1.10511 -0.42102,0.14725 -2.02594,0.38509 -2.2773,0.33746 -0.17952,-0.0341 -0.24155,-0.1677 -0.24155,-0.52023 0,-0.26085 0.0631,-0.50898 0.12362,-0.63784 0.0604,-0.12887 0.0823,-0.24055 0.143,-0.32785 0.0887,-0.12767 0.16441,-0.12888 0.38629,-0.007 0.26751,0.14844 0.86468,0.0774 1.58772,-0.18945 z m -2.19695,2.02529 c 0.0376,0.0152 0.083,0.0608 0.13991,0.12933 0.33721,0.40653 0.67213,0.46277 1.57912,0.26514 0.47616,-0.10374 0.90609,-0.15272 0.95561,-0.10873 0.0495,0.044 0.0329,0.28137 -0.0375,0.52764 -0.12425,0.436 -0.15471,0.45367 -1.16264,0.66847 h -2.7e-4 c -0.56933,0.12133 -1.2034,0.22284 -1.40928,0.22563 l -0.37445,0.006 0.083,-0.82773 c 0.0705,-0.70263 0.11348,-0.93059 0.22645,-0.88499 z m -0.29921,2.32588 c 0.0699,0 0.2648,0.0778 0.43292,0.1734 0.28394,0.16126 0.85379,0.14025 1.89288,-0.07 0.26784,-0.0542 0.35884,0.54212 0.11026,0.7221 -0.0987,0.0714 -0.60505,0.24606 -1.12544,0.38801 -1.14293,0.31176 -1.41259,0.32118 -1.52843,0.053 -0.11668,-0.27015 0.0547,-1.26628 0.21781,-1.26628 z m 4.70797,1.73645 c -0.50956,0.0178 -0.62416,0.0777 -0.92974,0.48811 -0.19168,0.25736 -0.34828,0.52092 -0.34828,0.58585 0,0.24323 -0.26626,0.2471 -0.84885,0.0121 -0.57189,-0.23055 -1.22141,-0.32567 -1.22141,-0.17889 0,0.0376 0.17903,0.2722 0.39788,0.52116 0.21883,0.24897 0.44016,0.61823 0.49196,0.82057 0.0519,0.20233 0.22986,0.54673 0.39573,0.76547 0.16583,0.21874 0.35106,0.39808 0.41162,0.39855 0.0604,4.6e-4 0.2624,-0.14512 0.44855,-0.32358 0.26222,-0.2514 0.33857,-0.45811 0.33857,-0.91734 0,-0.57871 0.34456,-1.57859 0.54399,-1.57859 0.28239,0 1.10682,0.8689 1.3171,1.38819 0.41631,1.0281 1.29571,1.0423 1.51065,0.0245 0.20756,-0.983 -1.13145,-2.05405 -2.50777,-2.00614 z m -3.9327,1.08402 c -0.0556,-8e-5 -0.25839,0.27589 -0.45071,0.61314 -0.19234,0.33723 -0.38493,0.61313 -0.4278,0.61313 -0.0428,0 -0.45323,-0.19557 -0.91195,-0.43445 -0.45872,-0.23888 -0.86849,-0.40362 -0.91058,-0.36621 -0.19165,0.17026 1.38744,2.38069 1.88264,2.63532 0.2074,0.10665 0.67494,0.0615 0.85075,-0.0823 0.11063,-0.0904 0.0793,-2.97865 -0.0324,-2.9788 z m -5.277009,0.54848 c -0.279392,0.0231 -0.545309,0.0752 -0.591163,0.11591 -0.04583,0.0409 0.05291,0.28987 0.219697,0.55352 0.166778,0.26366 0.36772,0.801 0.446403,1.1942 0.07867,0.39318 0.174902,0.8115 0.213764,0.92953 0.04281,0.13009 0.20582,0.2146 0.414054,0.2146 0.272597,0 0.395561,-0.10759 0.595469,-0.52119 0.740207,-1.5314 0.177801,-2.60847 -1.298224,-2.48657 z"
       sodipodi:nodetypes="cssccsscsccccsscccccsscsccscsccssssssccccccccccccccsccsssscccccccccsccccsccccccscscscssscccccscsccssssssssssssssccsscccccscscsccsscssccssccssccccccccsssscsscsscssssssssssccssscsssssccsccssc"
       inkscape:label="path1"
       transform="translate(6.4484719e-7)" /></g></svg>
