<?xml version="1.0" encoding="UTF-8" standalone="no"?>
<!-- Created with Inkscape (http://www.inkscape.org/) -->

<svg
   viewBox="0 0 38.549999 41.919998"
   version="1.1"
   id="svg1"
   inkscape:version="1.3.2 (091e20e, 2023-11-25, custom)"
   sodipodi:docname="Fu.svg"
   xml:space="preserve"
   xmlns:inkscape="http://www.inkscape.org/namespaces/inkscape"
   xmlns:sodipodi="http://sodipodi.sourceforge.net/DTD/sodipodi-0.dtd"
   xmlns="http://www.w3.org/2000/svg"
   xmlns:svg="http://www.w3.org/2000/svg"><sodipodi:namedview
     id="namedview1"
     pagecolor="#ffffff"
     bordercolor="#111111"
     borderopacity="1"
     inkscape:showpageshadow="false"
     inkscape:pageopacity="0"
     inkscape:pagecheckerboard="1"
     inkscape:deskcolor="#d1d1d1"
     inkscape:document-units="mm"
     showguides="true"
     inkscape:zoom="13.096375"
     inkscape:cx="19.280145"
     inkscape:cy="20.959999"
     inkscape:window-width="1292"
     inkscape:window-height="745"
     inkscape:window-x="-8"
     inkscape:window-y="-8"
     inkscape:window-maximized="1"
     inkscape:current-layer="layer1"
     labelstyle="default"><inkscape:page
       x="0"
       y="0"
       width="38.549999"
       height="41.919998"
       id="page42"
       margin="0"
       bleed="0" /></sodipodi:namedview><defs
     id="defs1"><inkscape:path-effect
       effect="powerstroke"
       id="path-effect12"
       is_visible="true"
       lpeversion="1.3"
       scale_width="1"
       interpolator_type="CubicBezierJohan"
       interpolator_beta="0.2"
       start_linecap_type="zerowidth"
       end_linecap_type="zerowidth"
       offset_points="7,4.9921382"
       linejoin_type="extrp_arc"
       miter_limit="4"
       not_jump="false"
       sort_points="true"
       message="&lt;b&gt;Ctrl + click&lt;/b&gt; on existing node and move it" /><inkscape:path-effect
       effect="powerstroke"
       id="path-effect13"
       is_visible="true"
       lpeversion="1.3"
       scale_width="1"
       interpolator_type="CubicBezierJohan"
       interpolator_beta="0.2"
       start_linecap_type="zerowidth"
       end_linecap_type="zerowidth"
       offset_points="5,4.9921382"
       linejoin_type="extrp_arc"
       miter_limit="4"
       not_jump="false"
       sort_points="true"
       message="&lt;b&gt;Ctrl + click&lt;/b&gt; on existing node and move it" /><inkscape:path-effect
       effect="powerstroke"
       id="path-effect13-7"
       is_visible="true"
       lpeversion="1.3"
       scale_width="1"
       interpolator_type="CubicBezierJohan"
       interpolator_beta="0.2"
       start_linecap_type="zerowidth"
       end_linecap_type="zerowidth"
       offset_points="5,4.9921382"
       linejoin_type="extrp_arc"
       miter_limit="4"
       not_jump="false"
       sort_points="true"
       message="&lt;b&gt;Ctrl + click&lt;/b&gt; on existing node and move it" /></defs><g
     inkscape:label="Layer 1"
     inkscape:groupmode="layer"
     id="layer1"
     transform="matrix(-0.78397201,0,0,-1,101.59206,205.86)"><path
       style="fill:#938e5e;fill-opacity:1;fill-rule:evenodd;stroke:none;stroke-width:1;stroke-linecap:round;stroke-linejoin:round;stroke-dasharray:none;stroke-opacity:1;paint-order:stroke fill markers"
       d="m 119.35,200 v -6.4 L 114.37784,172.1888 105,169.8 l -9.377862,2.3888 -4.972142,21.4112 2e-6,6.4 z"
       id="path12"
       sodipodi:nodetypes="cccccccc" /><path
       style="display:inline;fill:#fff29e;fill-opacity:1;fill-rule:evenodd;stroke:none;stroke-width:0.354345;stroke-linecap:round;stroke-linejoin:round;paint-order:stroke fill markers"
       d="m 105,173 9.37784,2.38879 L 119.35,200 h -28.7 l 4.972138,-24.61119 z"
       id="path13"
       sodipodi:nodetypes="cccccc" /><path
       id="path1"
       style="display:inline;fill:#000000;stroke-width:0.534436"
       d="m 105.91339,174.73314 c -0.0844,-0.005 -0.17885,-0.002 -0.28414,0.008 -0.28079,0.0281 -0.63815,0.10928 -1.08422,0.23597 -0.56614,0.1608 -1.06015,0.31664 -1.09794,0.34626 -0.0378,0.0296 0.14863,0.19727 0.41453,0.37267 0.59846,0.39478 0.80567,1.05088 0.86837,2.75172 l 0.0458,1.24516 -0.4791,0.0915 c -0.26351,0.0503 -0.63045,0.12804 -0.81534,0.17313 -0.31586,0.077 -0.34279,0.0235 -0.44791,-0.88594 -0.18863,-1.63193 -0.21337,-1.68091 -0.84093,-1.68091 -0.30081,0 -0.76444,0.0881 -1.03025,0.19586 l -0.48316,0.19587 0.39926,0.29026 c 0.49771,0.36163 0.78334,1.08707 0.71522,1.81688 -0.0582,0.62373 0.18429,0.50949 -2.823145,1.32879 -1.069804,0.29144 -1.198398,0.30233 -1.44978,0.12398 -0.336767,-0.23891 -0.65003,-0.2536 -0.65003,-0.0306 0,0.24377 0.991782,1.21214 1.24142,1.21214 0.118143,0 0.808444,-0.22535 1.534309,-0.50079 1.366366,-0.51849 1.695886,-0.59094 1.695886,-0.37292 0,0.0703 -0.2917,0.61826 -0.64817,1.21753 -0.53286,0.89582 -0.61867,1.14027 -0.48253,1.37452 0.0911,0.15671 0.27842,0.28488 0.41641,0.28488 0.44853,0 1.36618,-0.82929 1.60449,-1.45008 0.31471,-0.8198 0.28901,-1.01736 -0.18122,-1.38601 -0.22492,-0.17633 -0.38661,-0.33038 -0.35932,-0.34258 0.49786,-0.22251 2.4601,-0.82775 2.68371,-0.82775 0.0809,0 0.32995,0.24453 0.55333,0.54335 0.2942,0.39357 0.41181,0.73995 0.42701,1.25641 0.0115,0.39212 -0.009,0.73687 -0.0468,0.76611 -0.0373,0.0293 -0.42421,-0.0837 -0.85963,-0.25088 -1.18063,-0.45328 -1.21184,-0.37565 -0.15284,0.37878 0.38939,0.3231 0.98975,0.6214 1.42359,0.78889 -0.0688,0.054 -0.28368,0.22004 -0.50155,0.3932 -1.20256,0.95576 -0.57334,0.45186 -1.79166,1.35837 -1.33058,0.99003 -2.38142,1.65748 -2.45352,1.5584 -0.0377,-0.0518 -0.11765,-0.31974 -0.17779,-0.59519 -0.15836,-0.72529 -0.25468,-0.939 -0.42265,-0.939 -0.0819,0 -0.14878,0.21155 -0.14878,0.47023 0,0.25868 -0.0757,0.66715 -0.16812,0.90771 -0.250456,0.65191 -0.444972,1.65944 -0.355586,1.84206 l 3.11e-4,-2.5e-4 c 0.24341,0.49727 0.909945,0.0719 6.584205,-4.20254 2.1121,-1.59102 2.06274,-1.58582 3.06332,-0.33476 0.68195,0.85272 1.10249,1.04264 1.58764,0.71697 0.36808,-0.24707 0.38897,-0.5402 0.0727,-1.0197 -0.24661,-0.37387 -1.3625,-1.13414 -1.66469,-1.13414 -0.40367,0 -0.11311,-0.37573 0.94136,-1.21728 1.11765,-0.89198 1.23911,-1.0678 0.9688,-1.40265 -0.12327,-0.15271 -0.30548,-0.15467 -1.26013,-0.0134 -0.61386,0.0909 -1.39912,0.12971 -1.74516,0.0863 -0.34603,-0.0434 -0.67134,-0.0459 -0.72271,-0.006 -0.16494,0.12932 0.0697,0.42392 0.34092,0.42817 0.14432,0.003 0.39797,0.0847 0.56395,0.18315 0.27833,0.1652 0.28238,0.20143 0.0521,0.46559 -0.13732,0.15753 -0.61779,0.59623 -1.068,0.97496 l -0.81878,0.6886 0.048,-1.252 0.0477,-1.25201 -0.67872,-0.11787 c -0.37329,-0.0649 -0.67873,-0.15277 -0.67873,-0.19513 0,-0.10797 1.99442,-0.4896 2.95446,-0.56536 0.43918,-0.0346 1.65125,-0.0914 2.6937,-0.12618 1.04243,-0.0348 1.95872,-0.0938 2.03617,-0.13132 0.27266,-0.1321 0.13659,-0.55092 -0.24236,-0.74557 -0.83244,-0.42762 -2.75868,-0.32942 -5.33497,0.27168 -0.46606,0.1087 -0.87,0.17743 -0.8977,0.15258 -0.0277,-0.0248 -0.0856,-0.34693 -0.12882,-0.71574 l -0.0786,-0.67075 0.59169,0.0743 c 0.33562,0.0421 0.99806,-0.008 1.53057,-0.11762 1.48175,-0.30257 1.94716,-0.78689 1.00405,-1.04464 -0.69749,-0.19062 -0.88189,-0.17415 -1.96787,0.17582 -0.60862,0.19614 -1.00892,0.26393 -1.10668,0.1873 -0.0977,-0.0766 -0.0887,-0.44655 0.0249,-1.02238 0.18456,-0.93471 0.0907,-1.35202 -0.5,-1.38528 z m -1.07828,12.09653 c -0.13517,0.033 -0.0863,0.20245 -0.0334,0.5524 0.09,0.5955 0.0642,0.65366 -0.50311,1.13438 -0.49086,0.41591 -0.67506,0.49443 -1.02901,0.43894 -0.41393,-0.0649 -1.76761,0.14769 -1.76761,0.27755 0,0.0346 0.1578,0.23026 0.3509,0.43502 0.31541,0.33446 0.34726,0.5034 0.31316,1.66209 -0.0338,1.15042 -9.4e-4,1.32594 0.30068,1.62687 0.18616,0.18554 0.31137,0.40109 0.27824,0.47904 -0.0331,0.0779 -0.88224,0.33087 -1.88677,0.56194 -1.573976,0.35186 -3.013165,0.92548 -4.666253,0.97886 -0.417215,0.002 -0.758577,0.0508 -0.758577,0.10857 0,0.0577 0.259977,0.35404 0.577978,0.65828 0.318004,0.30425 0.684255,0.55313 0.813786,0.55313 0.129532,0 0.606179,-0.15783 1.05895,-0.35066 1.987791,-0.84653 4.470246,-1.54683 6.732056,-1.89928 3.3467,-0.52151 4.85684,-0.64645 7.1519,-0.59128 1.92612,0.0463 2.40846,0.0233 2.59731,-0.1247 0.53151,-0.4167 0.008,-0.76709 -1.54148,-1.03267 -0.68202,-0.11685 -2.72244,-0.0198 -4.0156,0.19098 -0.56803,0.0925 -0.5863,-0.17194 -0.0399,-0.57441 0.2196,-0.16173 0.39925,-0.38988 0.39925,-0.50716 0,-0.41178 -0.38611,-0.51905 -2.19588,-0.60962 -0.33367,-0.0167 -0.22301,-0.22666 0.15971,-0.30297 0.19761,-0.0394 0.95972,-0.17621 1.6937,-0.3042 1.32977,-0.23188 1.7162,-0.43769 1.5315,-0.81503 -0.10264,-0.20969 -0.75013,-0.46583 -1.17749,-0.46583 -0.16099,0 -1.20424,0.25352 -2.31846,0.56341 -2.46245,0.68482 -2.72852,0.70122 -2.86274,0.17507 -0.13082,-0.51276 -0.0614,-0.57654 0.73861,-0.67515 1.6258,-0.20038 2.57571,-0.66679 2.40423,-1.18085 -0.11049,-0.33129 -0.30886,-0.44971 -1.16843,-0.69642 -0.68276,-0.19598 -1.00207,-0.29933 -1.13723,-0.2663 z m -1.01715,3.56651 0.44385,0.36313 0.44354,0.36313 0.7539,-0.20126 c 0.41457,-0.11078 0.85147,-0.24964 0.97068,-0.30835 0.16671,-0.0821 0.1916,-0.0452 0.10854,0.15993 -0.0743,0.18367 -0.0301,0.29018 0.14255,0.3421 0.31119,0.0937 0.34901,1.15863 0.0511,1.44469 -0.10979,0.10547 -0.75043,0.31322 -1.42357,0.46193 -0.67311,0.14871 -1.29298,0.27045 -1.37742,0.27045 -0.31836,0 -0.47579,-1.88647 -0.2174,-2.60598 z m -1.28322,4.48595 c -0.30427,0.005 -0.32813,0.0889 -0.39894,0.41301 -0.0527,0.24101 -0.17888,0.55863 -0.28072,0.70572 -0.26401,0.38134 -2.242729,1.50095 -3.208671,1.81565 -0.449754,0.14654 -0.817529,0.32004 -0.817529,0.38563 0,0.0715 0.423491,0.0876 1.058639,0.0399 1.069714,-0.0804 2.017201,-0.3809 3.200871,-1.01531 0.33618,-0.18017 1.13556,-0.55403 1.77635,-0.83092 1.11322,-0.48104 1.15503,-0.5154 0.9398,-0.77076 -0.33588,-0.39855 -1.05838,-0.6809 -1.85994,-0.727 -0.17586,-0.0101 -0.30844,-0.0174 -0.40986,-0.0159 z m 4.91016,0.18095 c -0.12424,0.007 -0.1937,0.0303 -0.1937,0.0728 0,0.0689 0.30487,0.28764 0.67779,0.48638 0.37291,0.19873 0,0 1.58203,0.89352 2.36588,1.33623 1.42481,1.13136 2.25826,1.44616 0.64078,0.17039 0.92403,-0.15758 0.96476,-0.67124 0,-0.67157 -1.19712,-1.39612 -3.09545,-1.87336 -0.95612,-0.24039 -1.82098,-0.37422 -2.19369,-0.35433 z"
       sodipodi:nodetypes="ccssccccccsccccscsscsssscscsccsccscsscsssccccssscccsscsscccccscccccsscccccscccccccscscsccsssccccsscscccsscsccccccccccccccscccscsscsscccccscscscc"
       transform="translate(6.5956948e-7)" /></g></svg>
