<?xml version="1.0" encoding="UTF-8" standalone="no"?>
<!-- Created with Inkscape (http://www.inkscape.org/) -->

<svg
   viewBox="0 0 38.549999 41.919998"
   version="1.1"
   id="svg1"
   inkscape:version="1.3.2 (091e20e, 2023-11-25, custom)"
   sodipodi:docname="Hi.svg"
   xml:space="preserve"
   xmlns:inkscape="http://www.inkscape.org/namespaces/inkscape"
   xmlns:sodipodi="http://sodipodi.sourceforge.net/DTD/sodipodi-0.dtd"
   xmlns="http://www.w3.org/2000/svg"
   xmlns:svg="http://www.w3.org/2000/svg"><sodipodi:namedview
     id="namedview1"
     pagecolor="#ffffff"
     bordercolor="#111111"
     borderopacity="1"
     inkscape:showpageshadow="false"
     inkscape:pageopacity="0"
     inkscape:pagecheckerboard="1"
     inkscape:deskcolor="#d1d1d1"
     inkscape:document-units="mm"
     showguides="true"
     inkscape:zoom="3.4650824"
     inkscape:cx="72.725543"
     inkscape:cy="79.218895"
     inkscape:window-width="1292"
     inkscape:window-height="745"
     inkscape:window-x="-8"
     inkscape:window-y="-8"
     inkscape:window-maximized="1"
     inkscape:current-layer="layer1"
     labelstyle="default"><inkscape:page
       x="0"
       y="0"
       width="38.549999"
       height="41.919998"
       id="page42"
       margin="0"
       bleed="0" /></sodipodi:namedview><defs
     id="defs1"><inkscape:path-effect
       effect="powerstroke"
       id="path-effect12"
       is_visible="true"
       lpeversion="1.3"
       scale_width="1"
       interpolator_type="CubicBezierJohan"
       interpolator_beta="0.2"
       start_linecap_type="zerowidth"
       end_linecap_type="zerowidth"
       offset_points="7,4.9921382"
       linejoin_type="extrp_arc"
       miter_limit="4"
       not_jump="false"
       sort_points="true"
       message="&lt;b&gt;Ctrl + click&lt;/b&gt; on existing node and move it" /><inkscape:path-effect
       effect="powerstroke"
       id="path-effect13"
       is_visible="true"
       lpeversion="1.3"
       scale_width="1"
       interpolator_type="CubicBezierJohan"
       interpolator_beta="0.2"
       start_linecap_type="zerowidth"
       end_linecap_type="zerowidth"
       offset_points="5,4.9921382"
       linejoin_type="extrp_arc"
       miter_limit="4"
       not_jump="false"
       sort_points="true"
       message="&lt;b&gt;Ctrl + click&lt;/b&gt; on existing node and move it" /><inkscape:path-effect
       effect="powerstroke"
       id="path-effect13-8"
       is_visible="true"
       lpeversion="1.3"
       scale_width="1"
       interpolator_type="CubicBezierJohan"
       interpolator_beta="0.2"
       start_linecap_type="zerowidth"
       end_linecap_type="zerowidth"
       offset_points="5,4.9921382"
       linejoin_type="extrp_arc"
       miter_limit="4"
       not_jump="false"
       sort_points="true"
       message="&lt;b&gt;Ctrl + click&lt;/b&gt; on existing node and move it" /></defs><g
     inkscape:label="Layer 1"
     inkscape:groupmode="layer"
     id="layer1"
     transform="rotate(180,62.137499,101.93)"><path
       style="fill:#938e5e;fill-opacity:1;fill-rule:evenodd;stroke:none;stroke-width:0.982424;stroke-linecap:round;stroke-linejoin:round;stroke-dasharray:none;stroke-opacity:1;paint-order:stroke fill markers"
       d="m 118.85,200 v -6.4 L 114.42512,168.86241 105,165.8 95.574879,168.86241 91.149996,193.6 l 2e-6,6.4 z"
       id="path12"
       sodipodi:nodetypes="cccccccc" /><path
       style="display:inline;fill:#fff29e;fill-opacity:1;fill-rule:evenodd;stroke:none;stroke-width:0.373013;stroke-linecap:round;stroke-linejoin:round;paint-order:stroke fill markers"
       d="m 105,169 9.42512,3.06241 L 118.85,200 H 91.149999 l 4.42488,-27.93759 z"
       id="path13"
       sodipodi:nodetypes="cccccc" /><path
       id="path4"
       style="fill:#000000;stroke-width:0.488304"
       d="m 107.78014,170.73702 c -0.44411,-0.0319 -0.80748,-0.0166 -0.80748,0.033 0,0.05 0.14524,0.22752 0.32299,0.39441 0.30128,0.28303 0.4445,0.77432 0.2261,0.77569 -0.24295,0.001 -0.93668,0.81389 -0.93668,1.0969 0,0.3923 0.43546,0.87695 1.09615,1.21956 0.56939,0.29527 0.98818,0.33584 1.36768,0.13269 0.2278,-0.12199 0.23426,-0.1661 0.0688,-0.48449 -0.19888,-0.38295 -0.79303,-0.86597 -1.30358,-1.06008 -0.45608,-0.17348 -0.40394,-0.34163 0.13269,-0.42872 0.68246,-0.11074 1.37381,-0.57916 1.32604,-0.89833 -0.0644,-0.43044 -0.61359,-0.71759 -1.49284,-0.78073 z m -2.53247,0.243 c -0.35232,0.002 -0.7395,0.0951 -1.11734,0.27706 -0.31976,0.1541 -1.54068,0.65539 -2.71315,1.11383 -1.987179,0.777 -2.177749,0.82731 -2.810039,0.7411 -0.91641,-0.12494 -0.89072,0.10262 0.0646,0.57208 1.238,0.60846 1.758819,0.72689 2.117869,0.48145 0.16758,-0.11461 0.33362,-0.24116 0.36917,-0.28135 0.22261,-0.25181 3.48619,-1.68613 3.83656,-1.68613 0.0373,0 0.0304,0.21801 -0.0148,0.48449 -0.0456,0.26646 -0.11645,0.87535 -0.15779,1.35305 -0.0666,0.77151 -0.0386,0.93019 0.24981,1.42117 0.17865,0.30396 0.59538,0.75498 0.92634,1.00228 0.62391,0.46619 0.61346,0.67712 -0.0166,0.34671 -0.32522,-0.17035 -0.42843,-0.16352 -1.05023,0.0692 -0.37926,0.14192 -0.72433,0.22298 -0.76687,0.18049 -0.16388,-0.16407 -0.18524,-1.49261 -0.0314,-1.95915 0.1589,-0.4816 0.15373,-0.4974 -0.32096,-0.93239 -0.4778,-0.43786 -0.49221,-0.44179 -1.34221,-0.35175 -0.47249,0.05 -0.88641,0.11756 -0.91977,0.14986 -0.0334,0.0323 0.13361,0.21067 0.37093,0.39643 0.57665,0.45129 0.75926,0.94018 0.86276,2.31141 l 0.0867,1.14965 -0.47288,0.2256 c -0.26,0.12403 -0.52864,0.22533 -0.59728,0.22533 -0.0723,0 -0.12494,-0.56435 -0.12494,-1.34067 0,-1.09063 -0.0399,-1.37383 -0.214,-1.51806 -0.23176,-0.192 -1.761539,-0.24757 -1.938699,-0.0705 -0.0563,0.0563 0.11535,0.28783 0.38104,0.51452 0.397529,0.3391 0.505269,0.538 0.607869,1.12265 0.0685,0.39082 0.0823,0.98915 0.0305,1.32958 l -0.0941,0.61898 -0.579379,-0.52488 -0.57936,-0.52485 0.40475,0.0808 c 0.337309,0.0675 0.419369,0.0354 0.491809,-0.19279 0.1218,-0.38404 -0.352539,-1.10309 -0.869559,-1.31796 -0.45659,-0.18978 -1.68686,-0.23142 -2.09643,-0.0709 -0.21741,0.0853 -0.12864,0.1709 0.5814,0.5607 0.46089,0.25306 0.96836,0.52587 1.12769,0.60611 0.15927,0.0803 0.29021,0.19593 0.29069,0.25713 9.2e-4,0.10132 -0.34082,0.0688 -1.32326,-0.12587 -0.24836,-0.0493 -0.35529,-0.0166 -0.35529,0.10575 0,0.0969 0.15982,0.2758 0.35529,0.39768 0.62259,0.38834 1.48929,1.22193 1.40779,1.35381 -0.0432,0.07 -0.41392,0.28989 -0.82388,0.48879 -0.40997,0.19887 -0.94889,0.48794 -1.19761,0.6422 -0.56446,0.35008 -0.74461,0.29255 -0.85038,-0.27126 -0.0458,-0.24432 -0.13122,-0.47381 -0.18976,-0.50999 -0.19413,-0.11996 -0.76861,1.22741 -0.76861,1.80271 0,0.56847 -0.007,0.55964 1.14007,1.55161 0.28671,0.24805 0.28988,0.24766 0.50644,-0.0646 0.5615,-0.80967 2.34521,-2.44592 2.66645,-2.44592 0.289529,0 -0.26618,1.26432 -0.76004,1.72903 -0.1421,0.1338 -0.70897,0.61835 -1.25966,1.07723 -0.55071,0.45888 -1.0013,0.88857 -1.0013,0.9546 0,0.14857 0.4589,0.0397 1.55039,-0.36765 1.22672,-0.45781 1.692469,-0.75967 2.173639,-1.40805 0.54896,-0.73978 0.78816,-1.3184 0.94374,-2.28442 0.0685,-0.42553 0.17792,-0.87344 0.24325,-0.99548 0.13934,-0.26028 1.01377,-0.70469 1.13957,-0.57912 0.0474,0.0474 0.10667,0.60479 0.1314,1.23849 0.0495,1.26395 0.0554,1.25572 -0.7482,1.02524 -0.24352,-0.0698 -0.4629,-0.10667 -0.48776,-0.0817 -0.0714,0.0714 1.6274,1.68104 1.91424,1.81379 0.19692,0.0912 0.32389,0.0537 0.53647,-0.1589 0.27275,-0.27276 0.27533,-0.31055 0.12346,-1.83022 -0.0853,-0.85342 -0.16222,-1.5959 -0.17089,-1.64979 -0.0915,-0.57314 0.0435,-0.9458 0.41181,-1.13628 0.61989,-0.32055 0.71462,-0.13583 0.81279,1.58293 0.12549,2.19675 0.50985,2.89147 2.02022,3.65182 1.141,0.57443 2.32231,0.77857 4.48279,0.77368 1.98405,-0.004 2.36466,-0.0952 2.36466,-0.56448 -0.23713,-1.21851 -1.53587,-1.92942 -2.32933,-2.7949 -0.50987,-0.56559 -0.97112,-1.00101 -1.02501,-0.96771 -0.0539,0.0334 0.0485,0.35623 0.22738,0.71766 0.28323,0.57231 0.30992,0.73534 0.20792,1.26319 l -0.11701,0.60612 -1.01465,-0.0244 c -2.00831,-0.0485 -3.09206,-0.44351 -3.45098,-1.25817 -0.29572,-0.67114 -0.34968,-2.07844 -0.12273,-3.1989 l 0.17514,-0.864 0.37673,0.1948 c 0.5897,0.30494 1.91168,0.5366 2.95263,0.51729 1.25721,-0.0233 1.32068,-0.2397 0.34242,-1.16479 -0.3859,-0.36492 -0.85408,-0.90535 -1.04065,-1.20088 -0.52036,-0.82458 -0.61686,-0.80972 -0.52384,0.0803 0.0766,0.73355 0.065,0.782 -0.18875,0.782 -0.99774,0 -2.58927,-0.6434 -2.86481,-1.15823 -0.26707,-0.49904 -0.14765,-1.29271 0.33183,-2.20518 0.25487,-0.48505 0.44382,-0.98165 0.41988,-1.10348 -0.024,-0.1218 -0.20766,-0.34394 -0.40827,-0.49357 -0.23826,-0.17773 -0.55559,-0.26521 -0.90793,-0.2627 z m 2.08205,6.70186 c -0.49843,-0.0906 -0.55786,0.096 -0.17053,0.55614 0.39651,0.47125 0.42315,0.87657 0.072,1.09591 -0.14211,0.0888 -0.25839,0.25651 -0.25839,0.37296 0,0.30873 0.88896,1.16651 1.55567,1.5009 0.67779,0.33997 0.59563,0.3256 0.90742,0.15872 0.14303,-0.0766 0.25007,-0.26963 0.25007,-0.45144 0,-0.29734 -0.35597,-0.63354 -1.24556,-1.17665 -0.21606,-0.13196 -0.18583,-0.16869 0.29877,-0.36514 0.29653,-0.12015 0.56768,-0.29267 0.60234,-0.38305 0.11977,-0.3123 -0.50035,-0.82265 -1.36718,-1.12518 -0.26342,-0.0919 -0.47832,-0.15299 -0.64447,-0.18326 z m -3.75933,6.04477 c -0.7988,0.067 -0.90846,0.17422 -0.60335,0.59046 0.2868,0.39123 0.48686,1.18828 0.29826,1.18828 -0.0672,0 -0.67037,0.1183 -1.34042,0.26293 -0.67003,0.14451 -1.55258,0.26532 -1.961159,0.26874 -0.52117,0.004 -0.7429,0.0563 -0.7429,0.1744 0,0.23254 0.961849,1.08083 1.320999,1.16505 0.16167,0.0378 0.87536,-0.0747 1.58594,-0.25058 1.2104,-0.2994 1.3024,-0.30566 1.45828,-0.0989 0.28995,0.38464 0.13989,0.72688 -0.36009,0.82085 -1.63916,0.30815 -2.04142,0.39702 -2.35786,0.52109 -0.46113,0.18068 -0.44965,0.3841 0.038,0.67223 0.38059,0.22484 0.42186,0.22416 1.25967,-0.0225 1.49218,-0.43926 1.55087,-0.44428 1.70909,-0.14856 0.0784,0.14635 0.1242,0.39183 0.10187,0.5453 -0.0347,0.23934 -0.13786,0.285 -0.72495,0.32073 -0.37653,0.0229 -0.97463,0.15576 -1.32907,0.29549 -0.35444,0.13971 -0.66831,0.25409 -0.69747,0.25409 -0.0292,0 -0.20589,-0.30521 -0.39289,-0.67828 -0.18699,-0.37306 -0.42263,-0.76998 -0.56496,-1.09618 -0.14229,-0.32619 -0.957359,-0.68028 -1.416649,-0.68028 -0.45982,0 -1.82643,0.48337 -1.82643,0.64599 0,0.19079 0.59319,0.58711 1.15697,0.77317 0.63606,0.20992 1.31436,0.91941 2.298299,2.40378 1.0176,1.53513 1.05307,1.57492 1.19861,1.34471 0.0674,-0.10649 0.12347,-0.38085 0.12439,-0.60964 l 0.002,-0.41586 0.4701,0.31895 c 0.40302,0.27351 0.62648,0.35547 0.95106,0.34847 0.0356,-9.7e-4 0.30422,-0.0408 0.59704,-0.0886 0.49527,-0.081 0.53654,-0.0644 0.59401,0.23619 0.034,0.17773 0.0271,0.37227 -0.0148,0.43225 -0.0901,0.12679 -1.94208,0.5743 -3.88879,0.9397 -0.746119,0.14008 -2.025169,0.40235 -2.842339,0.58292 -0.92336,0.20401 -1.78795,0.31563 -2.28392,0.29472 -0.43894,-0.0185 -0.8354,0.004 -0.88091,0.0493 -0.11808,0.11811 1.53394,1.27061 1.98837,1.39212 0.45445,0.12144 1.15854,-0.0616 2.72682,-0.6568 0.67505,-0.2562 1.634349,-0.58825 2.131749,-0.73809 0.49741,-0.14986 1.19509,-0.36147 1.55039,-0.47036 0.35528,-0.10889 0.87854,-0.21152 1.16275,-0.22811 l 0.5168,-0.0303 0.14506,1.22739 c 0.18505,1.56433 0.29927,2.06238 0.55413,2.41841 0.2416,0.33748 0.3895,0.36009 0.72951,0.11129 0.25441,-0.18618 0.28425,-0.86215 0.15318,-3.48127 l -0.0316,-0.62884 1.16277,-0.0818 c 2.35724,-0.1661 4.97012,-0.0867 6.00767,0.1829 1.11991,0.29097 2.19638,0.28075 2.19638,-0.0209 0,-0.38264 -1.38673,-1.37763 -2.19638,-1.57584 -0.38317,-0.0938 -1.11106,-0.0591 -1.80875,0.086 -0.39082,0.0814 -1.32103,0.17514 -2.06716,0.20844 -0.7461,0.0332 -1.83918,0.0984 -2.429,0.14487 l -1.07244,0.0843 0.0605,-0.37119 c 0.0332,-0.2041 0.0653,-0.41455 0.0712,-0.46783 0.006,-0.0533 0.29759,-0.0969 0.64825,-0.0969 0.35066,0 0.7844,-0.0559 0.96393,-0.12421 0.23629,-0.0899 0.42585,-0.0722 0.68661,0.0639 0.19815,0.10335 0.40391,0.1883 0.45699,0.18874 0.3917,0.004 2.93949,-3.10846 2.93949,-3.59002 0,-0.19275 -0.27875,-0.42326 -1.04771,-0.86679 l -1.04746,-0.60435 -1.92408,0.0166 -1.92383,0.0166 v -0.39238 c 0,-0.31415 0.058,-0.39667 0.2907,-0.41435 0.15982,-0.0129 0.37791,-0.0349 0.48449,-0.0507 0.10649,-0.0166 0.51726,-0.0351 0.91245,-0.0426 0.85927,-0.0166 1.32316,-0.34619 1.25918,-0.89529 -0.072,-0.61812 -0.72486,-0.66704 -2.72072,-0.20416 -0.31428,0.0729 -0.35528,0.0454 -0.35528,-0.2382 0,-0.76681 -0.95992,-1.32631 -2.11031,-1.22988 z m 2.22462,4.49187 h 0.85465 c 0.47003,0 1.1128,0.0652 1.42848,0.14451 0.47141,0.11867 0.57409,0.19779 0.57409,0.44234 0,0.34311 -0.21501,1.45161 -0.41863,2.15851 -0.15817,0.54901 -0.2109,0.57485 -0.52739,0.2584 -0.16259,-0.16259 -0.43341,-0.2261 -0.96419,-0.2261 -0.69879,0 -0.74053,-0.0185 -0.77745,-0.33585 -0.038,-0.32768 -0.0196,-0.33621 0.76761,-0.35985 0.80656,-0.0242 1.14485,-0.16223 1.14485,-0.46708 0,-0.31191 -0.37352,-0.467 -1.18471,-0.4918 l -0.81783,-0.0251 -0.0399,-0.54907 z m -4.32761,2.53423 c 0.0484,-0.009 0.14303,0.0436 0.32879,0.15023 0.35514,0.20382 0.43005,0.20375 1.18953,2.6e-4 0.86333,-0.23132 1.14461,-0.15891 1.14461,0.29396 0,0.20632 -0.14488,0.23849 -1.23444,0.27481 -0.67893,0.0227 -1.28939,-0.0148 -1.35658,-0.0816 -0.0672,-0.0675 -0.12218,-0.25398 -0.12218,-0.4141 0,-0.14266 0.002,-0.21418 0.0502,-0.22357 z"
       inkscape:label="path1"
       sodipodi:nodetypes="csccscsscscccsscsccssccccscccscccccssssscccccccccscccsssccccsscsscsccsscccccsscccccsssccccsccccscsscsscccccssssssccscccsscscsccscccccssccssssscccccccsscccssccccssccccssssccssssscsccccscccssscccsssssscsscccccsssccsc" /></g></svg>
