<?xml version="1.0" encoding="UTF-8" standalone="no"?>
<!-- Created with Inkscape (http://www.inkscape.org/) -->

<svg
   viewBox="0 0 38.549999 41.919998"
   version="1.1"
   id="svg1"
   inkscape:version="1.3.2 (091e20e, 2023-11-25, custom)"
   sodipodi:docname="Gin.svg"
   xml:space="preserve"
   xmlns:inkscape="http://www.inkscape.org/namespaces/inkscape"
   xmlns:sodipodi="http://sodipodi.sourceforge.net/DTD/sodipodi-0.dtd"
   xmlns="http://www.w3.org/2000/svg"
   xmlns:svg="http://www.w3.org/2000/svg"><sodipodi:namedview
     id="namedview1"
     pagecolor="#ffffff"
     bordercolor="#111111"
     borderopacity="1"
     inkscape:showpageshadow="0"
     inkscape:pageopacity="0"
     inkscape:pagecheckerboard="1"
     inkscape:deskcolor="#d1d1d1"
     inkscape:document-units="mm"
     showguides="true"
     inkscape:zoom="13.096375"
     inkscape:cx="19.280145"
     inkscape:cy="20.959999"
     inkscape:window-width="1292"
     inkscape:window-height="745"
     inkscape:window-x="-8"
     inkscape:window-y="-8"
     inkscape:window-maximized="1"
     inkscape:current-layer="layer1"><inkscape:page
       x="0"
       y="0"
       width="38.549999"
       height="41.919998"
       id="page42"
       margin="0"
       bleed="0" /></sodipodi:namedview><defs
     id="defs1"><inkscape:path-effect
       effect="powerstroke"
       id="path-effect13"
       is_visible="true"
       lpeversion="1.3"
       scale_width="1"
       interpolator_type="CubicBezierJohan"
       interpolator_beta="0.2"
       start_linecap_type="zerowidth"
       end_linecap_type="zerowidth"
       offset_points="5,4.9921382"
       linejoin_type="extrp_arc"
       miter_limit="4"
       not_jump="false"
       sort_points="true"
       message="&lt;b&gt;Ctrl + click&lt;/b&gt; on existing node and move it" /><inkscape:path-effect
       effect="powerstroke"
       id="path-effect12"
       is_visible="true"
       lpeversion="1.3"
       scale_width="1"
       interpolator_type="CubicBezierJohan"
       interpolator_beta="0.2"
       start_linecap_type="zerowidth"
       end_linecap_type="zerowidth"
       offset_points="7,4.9921382"
       linejoin_type="extrp_arc"
       miter_limit="4"
       not_jump="false"
       sort_points="true"
       message="&lt;b&gt;Ctrl + click&lt;/b&gt; on existing node and move it" /><inkscape:path-effect
       effect="powerstroke"
       id="path-effect13-0"
       is_visible="true"
       lpeversion="1.3"
       scale_width="1"
       interpolator_type="CubicBezierJohan"
       interpolator_beta="0.2"
       start_linecap_type="zerowidth"
       end_linecap_type="zerowidth"
       offset_points="5,4.9921382"
       linejoin_type="extrp_arc"
       miter_limit="4"
       not_jump="false"
       sort_points="true"
       message="&lt;b&gt;Ctrl + click&lt;/b&gt; on existing node and move it" /><inkscape:path-effect
       effect="powerstroke"
       id="path-effect13-9"
       is_visible="true"
       lpeversion="1.3"
       scale_width="1"
       interpolator_type="CubicBezierJohan"
       interpolator_beta="0.2"
       start_linecap_type="zerowidth"
       end_linecap_type="zerowidth"
       offset_points="5,4.9921382"
       linejoin_type="extrp_arc"
       miter_limit="4"
       not_jump="false"
       sort_points="true"
       message="&lt;b&gt;Ctrl + click&lt;/b&gt; on existing node and move it" /><inkscape:path-effect
       effect="powerstroke"
       id="path-effect13-6"
       is_visible="true"
       lpeversion="1.3"
       scale_width="1"
       interpolator_type="CubicBezierJohan"
       interpolator_beta="0.2"
       start_linecap_type="zerowidth"
       end_linecap_type="zerowidth"
       offset_points="5,4.9921382"
       linejoin_type="extrp_arc"
       miter_limit="4"
       not_jump="false"
       sort_points="true"
       message="&lt;b&gt;Ctrl + click&lt;/b&gt; on existing node and move it" /></defs><g
     inkscape:label="Layer 1"
     inkscape:groupmode="layer"
     id="layer1"
     transform="translate(-84.724992,-164.64)"><path
       style="fill:#938e5e;fill-opacity:1;fill-rule:evenodd;stroke:none;stroke-width:0.964528;stroke-linecap:round;stroke-linejoin:round;stroke-dasharray:none;stroke-opacity:1;paint-order:stroke fill markers"
       d="m 90.649993,169 v 6.4 l 4.285044,23.85462 9.064953,2.94538 9.06497,-2.94539 L 117.34999,175.4 V 169 Z"
       id="path12"
       sodipodi:nodetypes="cccccccc" /><path
       style="display:inline;fill:#fff29e;fill-opacity:1;fill-rule:evenodd;stroke:none;stroke-width:0.360263;stroke-linecap:round;stroke-linejoin:round;paint-order:stroke fill markers"
       d="M 103.99999,199 94.935037,196.05462 90.649995,169 h 26.699995 l -4.28503,27.05461 z"
       id="path13-6"
       sodipodi:nodetypes="cccccc" /><path
       id="path1"
       style="fill:#000000;stroke-width:0.448191"
       d="m 101.43529,172.18862 c -0.75119,0.0188 -0.82882,0.0671 -0.56907,0.35413 0.2291,0.25314 0.11643,0.81566 -0.30873,1.54136 -0.26775,0.457 -1.828808,2.57785 -2.117823,2.87727 -0.09088,0.0941 -0.288836,0.33124 -0.44006,0.52691 -0.455235,0.58902 -1.551539,1.45146 -2.348972,1.848 -0.412953,0.20535 -0.750642,0.41395 -0.750642,0.46345 0,0.1849 0.719121,0.22437 1.238407,0.0681 0.799248,-0.24053 1.589918,-0.7414 2.294548,-1.45381 l 0.627892,-0.63483 0.748557,0.0767 c 0.653723,0.067 0.773473,0.11852 0.943573,0.40647 0.10714,0.18136 0.19478,0.37564 0.19478,0.43172 0,0.13064 -0.57475,0.37595 -2.159051,0.92111 -1.082916,0.37263 -1.33133,0.41975 -1.689815,0.32077 -0.231145,-0.0638 -0.419183,-0.0805 -0.418286,-0.0368 0.0083,0.36226 1.340504,1.08679 1.849164,1.00565 0.310905,-0.0496 0.380343,-0.0152 0.443067,0.2191 0.04092,0.1528 0.07507,0.40055 0.07597,0.55053 9e-4,0.14999 0.08849,0.44065 0.194779,0.64619 0.636716,1.23128 1.338772,0.77882 1.305112,-0.8412 -0.0172,-0.82637 -0.23411,-1.11969 -0.37011,-0.50051 -0.11224,0.51103 -0.238326,0.53986 -0.711732,0.16213 -0.678037,-0.46383 -0.04791,-0.70283 0.561892,-0.97114 0.3424,-0.1463 0.72009,-0.31904 0.83934,-0.38377 0.36279,-0.19692 0.52866,0.0788 0.61747,1.02649 0.0971,1.03635 -8e-4,1.71552 -0.21006,1.78499 -0.44698,0.14845 -1.00933,0.66254 -1.718776,0.93239 -0.639815,0.24336 -1.513114,0.37782 -1.639787,0.17286 -0.03653,-0.0591 -0.116736,-0.10747 -0.178106,-0.10747 -0.224575,0 -0.101896,0.32048 0.266812,0.69761 0.385232,0.39402 1.044784,0.80152 1.161278,0.79705 0.116493,-0.004 0.215736,-0.006 0.402541,-0.10896 0.964548,-0.908 2.151958,-1.46144 3.249238,-2.17364 0.21381,-0.14369 0.63029,-0.37821 0.92551,-0.52112 0.48571,-0.23512 0.53345,-0.29528 0.50074,-0.6316 -0.0877,-0.90198 -1.55278,0.0433 -1.76533,0.0433 -0.0599,0 -0.10885,-0.16009 -0.10885,-0.35575 0,-0.2891 0.05,-0.35606 0.26681,-0.35831 0.35605,-0.004 1.27547,-0.42771 1.53835,-0.70987 0.11588,-0.12439 0.21076,-0.35189 0.21076,-0.50537 0,-0.28199 -0.33104,-0.72739 -0.61608,-0.82916 -0.10444,-0.0373 -0.0485,-0.14049 0.1714,-0.31708 0.36577,-0.29372 0.40962,-0.50224 0.15077,-0.71705 -0.13858,-0.11513 -0.30646,-0.11489 -0.80044,7.9e-4 -0.34379,0.0806 -0.68038,0.18994 -0.74787,0.24296 -0.14903,0.11707 -0.91666,-0.45502 -0.82012,-0.61122 0.0371,-0.06 0.21983,-0.10908 0.40624,-0.10908 0.44572,0 1.41213,-0.41885 1.50106,-0.65059 0.10065,-0.26231 -0.17145,-0.5355 -0.53432,-0.53595 -0.17137,-2.6e-4 -0.71174,0.136 -1.2009,0.30272 -1.65826,0.56517 -1.87676,0.62784 -1.83146,0.39584 0.0873,-0.44702 1.78122,-2.24348 1.85161,-2.7256 0.0368,-0.252 0.0806,-0.23403 0.73999,0.30388 0.73409,0.59882 1.21392,0.89173 1.46285,0.89308 0.0813,2.6e-4 0.22015,-0.17274 0.3085,-0.3847 l 0.16074,-0.3854 0.14799,0.69899 c 0.0847,0.39956 0.1185,1.0092 0.0787,1.42301 -0.0382,0.39818 -0.10238,1.4444 -0.14267,2.32488 -0.11102,2.42707 0.36441,5.39224 0.91949,5.7344 0.26541,0.16362 0.93325,-0.42457 1.70996,-1.50592 0.99647,-1.38728 1.01805,-1.43206 0.87664,-1.804 l -0.12599,-0.33143 c -0.44432,0.566 -1.02661,0.97699 -1.56267,1.43319 -0.21619,0.19567 -0.23537,0.19541 -0.38215,-0.005 -0.085,-0.11621 -0.1955,-0.46231 -0.24574,-0.76917 -0.0502,-0.30686 -0.10255,-0.61131 -0.11627,-0.67653 -0.13079,-0.62176 -0.17356,-1.58687 -0.073,-1.64905 0.18802,-0.1162 0.9585,0.32634 3.41507,1.96195 1.24876,0.83144 2.45944,1.59056 2.69037,1.68704 0.82545,0.3449 1.11875,-0.0233 0.74022,-0.92921 -0.23204,-0.55534 -1.09522,-1.09917 -3.03291,-1.91054 -0.88049,-0.36869 -1.64438,-0.71005 -1.69746,-0.75875 -0.0531,-0.0487 0.16036,-0.17293 0.47433,-0.27585 1.30633,-0.4282 2.15941,-0.91868 2.91966,-1.67893 0.4403,-0.4403 0.54727,-0.61983 0.48707,-0.81781 -0.15667,-0.51523 -0.62775,-0.84944 -1.50314,-1.06679 l -0.3275,-0.0813 0.0753,0.63994 0.0753,0.64016 -0.58365,0.57786 c -0.56953,0.56414 -0.69258,0.67074 -1.68333,1.45543 l -0.4792,0.37938 -0.74647,-0.2191 c -0.6442,-0.18912 -0.75127,-0.26085 -0.78238,-0.5239 -0.0439,-0.37108 0.11837,-0.42944 1.48345,-0.5334 0.95393,-0.0726 0.97657,-0.0817 1.1562,-0.4602 0.342,-1.01472 0.79768,-1.97704 1.13905,-2.99077 0.3326,-1.00479 0.27652,-1.18941 -0.4338,-1.42832 -0.39263,-0.13205 -0.64114,-0.12581 -1.63956,0.0405 -0.64723,0.10784 -1.30456,0.24457 -1.46052,0.30387 -0.15598,0.0593 -0.45353,0.10866 -0.66125,0.10955 -0.20772,8e-4 -0.44693,0.0457 -0.53154,0.0994 -0.19075,0.12099 -0.0676,0.23274 0.65962,0.59916 0.40092,0.20202 0.55598,0.2278 0.74879,0.12461 0.3338,-0.17864 0.68623,-0.2617 1.17657,-0.2777 l 0.41504,-0.0137 v 0.65221 c 0,0.42125 -0.0476,0.64333 -0.13433,0.6272 -0.34653,-0.0645 -0.96927,-0.0515 -1.31924,0.0273 -0.35594,0.0802 -0.39646,0.0585 -0.51324,-0.27654 -0.14547,-0.41729 -0.84268,-0.99869 -1.14762,-0.95701 -0.11331,0.0154 -0.44604,-0.0828 -0.73953,-0.21817 -0.2935,-0.13543 -0.68038,-0.30391 -0.85974,-0.37428 -0.33892,-0.13297 -0.42985,-0.45629 -0.19432,-0.69182 0.3286,-0.3286 -0.52732,-0.7907 -1.423,-0.76824 z m 5.38235,4.14695 c 0.7112,-0.0332 0.71151,-0.0329 0.71151,0.30549 0,0.30716 -0.0701,0.36483 -0.75574,0.62257 -0.41557,0.15622 -0.80245,0.28395 -0.85973,0.28395 -0.16615,0 -0.12425,-1.06761 0.0442,-1.12678 0.0815,-0.0286 0.4684,-0.067 0.85973,-0.0852 z m -4.02952,2.79413 c 0.0342,0.0165 0.0745,0.0624 0.1246,0.1304 0.22046,0.29955 0.21506,0.65996 -0.0151,0.9885 -0.30141,0.43032 -0.43027,0.31916 -0.34741,-0.2997 0.0879,-0.65642 0.13517,-0.86887 0.23786,-0.8192 z m 4.48301,5.22277 c -0.0504,0.0428 -0.009,0.14354 0.091,0.3305 0.19586,0.36597 -0.45573,0.96751 -1.67105,1.54252 -0.55438,0.26229 -1.09446,0.52106 -1.19997,0.57485 -0.1055,0.0538 -0.41233,0.15718 -0.68185,0.22975 -0.45791,0.12331 -0.69447,0.46252 -0.34162,0.48986 0.45105,0.035 1.12249,-0.052 1.54043,-0.19942 0.61991,-0.2187 0.77143,-0.21152 0.85255,0.0399 0.1403,0.43467 0.78,0.6939 0.94728,1.61547 0.0722,0.39754 0.22296,0.66726 0.37335,0.66726 0.34645,0 0.15244,0.36418 -0.42292,0.79373 -0.50841,0.37958 -0.76487,0.74786 -0.52066,0.74786 0.1637,0 1.90279,-0.89146 2.13266,-1.09319 0.13661,-0.11991 0.32957,-0.18675 0.42871,-0.1487 0.16221,0.0623 0.50776,0.63866 0.4243,0.7078 -0.0187,0.0155 -0.59435,0.17318 -1.27917,0.35042 -1.30379,0.33744 -2.43156,0.77744 -3.01091,1.17449 -0.33319,0.22835 -0.34727,0.22868 -0.50398,0.0143 -0.23596,-0.32268 -0.0933,-0.44548 -0.32981,-0.64178 -0.13899,-0.11536 -0.23011,-0.008 -0.51904,0.6082 -0.19273,0.41137 -0.38509,0.89559 -0.42731,1.07628 -0.0909,0.38875 0.0966,0.79813 0.36547,0.79813 0.42001,0 1.62601,-1.00081 2.037,-1.22449 0.68209,-0.37124 0.67694,-0.37504 1.31553,0.90929 0.47021,0.94566 0.84392,1.27275 1.1291,0.98758 0.45082,-0.45082 0.0542,-1.51639 -0.77056,-2.07012 -0.22672,-0.15222 -0.42787,-0.32053 -0.44701,-0.37405 -0.0287,-0.0803 0.45135,-0.23105 0.98364,-0.30896 0.0652,-0.01 0.19863,-0.0475 0.29646,-0.0843 0.49562,-0.18647 1.35105,-0.32579 1.442,-0.23485 0.20446,0.20447 0.45097,1.77334 0.45186,2.87427 8e-4,1.36603 -0.0956,2.0158 -0.31197,2.09883 -0.0894,0.0343 -0.60197,-0.075 -1.13905,-0.24296 -0.53709,-0.16799 -1.13655,-0.3367 -1.33221,-0.37497 l -0.35576,-0.0697 0.46925,0.39142 c 0.25815,0.21521 0.82344,0.71137 1.25601,1.10269 0.43257,0.39133 1.04248,0.91162 1.35537,1.15619 v -2.3e-4 c 0.31288,0.24458 0.60472,0.44469 0.64873,0.44469 0.044,0 0.23692,-0.16357 0.42848,-0.3634 0.33874,-0.35338 0.34834,-0.39638 0.34834,-1.57123 0,-0.66434 -0.0408,-1.52801 -0.0906,-1.91934 -0.12008,-0.94466 -0.22071,-2.30188 -0.24527,-3.30737 l -0.0199,-0.81688 1.91679,0.0808 c 1.29463,0.0547 1.94174,0.0405 1.99369,-0.0436 0.13605,-0.22013 -0.39656,-0.80509 -1.01236,-1.11195 -0.64534,-0.32137 -0.93269,-0.3214 -2.09212,0.001 -0.57408,0.15971 -0.64822,0.15556 -1.06725,-0.0623 -0.24768,-0.12877 -0.60004,-0.29226 -0.78307,-0.36316 -0.18304,-0.0709 -0.29998,-0.18197 -0.25987,-0.2469 0.0914,-0.14784 1.93249,-1.04009 2.25147,-1.09111 0.63775,-0.102 0.0992,-1.12445 -0.8287,-1.57331 -0.49235,-0.23817 -1.16951,-0.36685 -1.63863,-0.31128 -0.0534,0.006 0.0134,0.16656 0.14823,0.35598 0.32133,0.45126 0.30933,0.70831 -0.056,1.20367 -0.45473,0.71283 -1.3896,1.27403 -1.90452,1.74053 -0.0392,-0.0392 0.0726,-0.25991 0.24829,-0.49031 0.27701,-0.3632 0.30845,-0.48631 0.23624,-0.92666 -0.0458,-0.27935 -0.16371,-0.59908 -0.26195,-0.71035 -0.15453,-0.17502 -1.1094,-0.42292 -1.36672,-0.35482 -0.0489,0.0129 -0.0889,-0.0297 -0.0889,-0.095 0,-0.12211 1.1858,-0.45589 1.88575,-0.77496 0.35244,-0.16407 0.80603,-0.31638 1.00796,-0.33839 0.45571,-0.0497 0.51367,-0.28543 0.1758,-0.71497 -0.29218,-0.37144 -0.99794,-0.7103 -1.74124,-0.83587 -0.26717,-0.0452 -0.40934,-0.0604 -0.45974,-0.0176 z m -6.0429,1.14484 c -0.3385,0.0103 -0.63874,0.0517 -0.76709,0.12044 -0.22165,0.11862 -0.20967,0.15233 0.23115,0.65313 0.42393,0.48162 0.47115,0.60369 0.5371,1.38688 0.12162,1.44456 0.1257,3.04928 0.008,3.14987 -0.0614,0.0524 -0.4585,0.37101 -0.88243,0.70803 -0.423935,0.33702 -1.037607,0.91822 -1.36371,1.29145 -0.326108,0.37323 -0.895268,1.00146 -1.264814,1.39591 l -0.671895,0.71705 -0.342552,-0.3261 c -0.447656,-0.42617 -0.530679,-0.41157 -0.336756,0.0593 0.0873,0.21197 0.196137,0.71493 0.241798,1.11774 0.131849,1.16322 0.680568,1.44864 1.211776,0.63044 1.196335,-1.73094 0.68353,-1.27525 3.172113,-4.69378 0.15869,-0.21611 0.1726,-0.21022 0.3041,0.12924 0.14514,0.37467 0.097,3.67635 -0.0558,3.82919 -0.0437,0.0437 -0.24944,-0.0225 -0.4572,-0.14731 -1.560458,-0.9373 -1.920412,-0.90022 -0.903962,0.0931 0.344752,0.33691 0.857162,0.9682 1.138822,1.40285 0.28165,0.43465 0.57926,0.81743 0.66124,0.85047 0.3808,0.1535 0.58276,0.0633 0.74902,-0.33468 0.21787,-0.52143 0.22607,-0.98803 0.0697,-3.91488 -0.13272,-2.48452 -0.0809,-5.77334 0.10585,-6.72544 0.16445,-0.83851 0.0473,-1.23897 -0.38772,-1.32597 -0.28136,-0.0563 -0.6581,-0.0772 -0.99661,-0.0669 z m -1.89502,2.0055 c -0.07796,0.0429 -0.157938,0.21022 -0.227206,0.49472 -0.06717,0.27589 -0.17972,0.52079 -0.250139,0.54428 -0.134403,0.0448 -0.903618,-0.11511 -1.258096,-0.26149 -0.869024,-0.35886 1.261084,1.89568 1.689815,2.06247 0.473876,0.18436 0.569184,0.15192 0.651282,-0.22188 0.06685,-0.30436 -0.116269,-1.41468 -0.39049,-2.36704 -0.06122,-0.21262 -0.137204,-0.294 -0.215166,-0.25106 z m 4.05825,0.90999 c -0.12608,0.0115 -0.22236,0.0366 -0.26288,0.0771 -0.0497,0.0497 0.0996,0.28932 0.33167,0.53269 0.23202,0.24339 0.51763,0.70942 0.63484,1.03553 0.1172,0.3261 0.29244,0.6863 0.38933,0.80044 0.0969,0.11413 0.24188,0.20752 0.32217,0.20752 0.1522,0 0.5287,-0.68854 0.52852,-0.96651 -2.1e-4,-0.36137 -0.44906,-1.30591 -0.70617,-1.486 -0.21292,-0.14913 -0.85924,-0.23541 -1.23748,-0.2008 z"
       sodipodi:nodetypes="ccccscsscccsssccscsccccccscssssscccscssccsccccscscccccccccccccccscssccsccsccssccccccccssscccsscssccsccccccccccssscsscssscccccccccsscscccssssccsscssssccccscccsccscscccccccsscssscscccscscssscsscccccsccsscsssscsscsscssssscsssscccsssssc"
       transform="rotate(180,103.99999,184.5)" /></g></svg>
