<?xml version="1.0" encoding="UTF-8" standalone="no"?>
<!-- Created with Inkscape (http://www.inkscape.org/) -->

<svg
   viewBox="0 0 38.549999 41.919998"
   version="1.1"
   id="svg1"
   inkscape:version="1.3.2 (091e20e, 2023-11-25, custom)"
   sodipodi:docname="Kin.svg"
   xml:space="preserve"
   xmlns:inkscape="http://www.inkscape.org/namespaces/inkscape"
   xmlns:sodipodi="http://sodipodi.sourceforge.net/DTD/sodipodi-0.dtd"
   xmlns="http://www.w3.org/2000/svg"
   xmlns:svg="http://www.w3.org/2000/svg"><sodipodi:namedview
     id="namedview1"
     pagecolor="#ffffff"
     bordercolor="#111111"
     borderopacity="1"
     inkscape:showpageshadow="0"
     inkscape:pageopacity="0"
     inkscape:pagecheckerboard="1"
     inkscape:deskcolor="#d1d1d1"
     inkscape:document-units="mm"
     showguides="true"
     inkscape:zoom="13.096375"
     inkscape:cx="19.280145"
     inkscape:cy="20.959999"
     inkscape:window-width="1292"
     inkscape:window-height="745"
     inkscape:window-x="-8"
     inkscape:window-y="-8"
     inkscape:window-maximized="1"
     inkscape:current-layer="layer1"><inkscape:page
       x="0"
       y="0"
       width="38.549999"
       height="41.919998"
       id="page42"
       margin="0"
       bleed="0" /></sodipodi:namedview><defs
     id="defs1"><inkscape:path-effect
       effect="powerstroke"
       id="path-effect13"
       is_visible="true"
       lpeversion="1.3"
       scale_width="1"
       interpolator_type="CubicBezierJohan"
       interpolator_beta="0.2"
       start_linecap_type="zerowidth"
       end_linecap_type="zerowidth"
       offset_points="5,4.9921382"
       linejoin_type="extrp_arc"
       miter_limit="4"
       not_jump="false"
       sort_points="true"
       message="&lt;b&gt;Ctrl + click&lt;/b&gt; on existing node and move it" /></defs><g
     inkscape:label="Layer 1"
     inkscape:groupmode="layer"
     id="layer1"
     transform="translate(-84.724993,-165.64)"><path
       style="fill:#fff29e;fill-opacity:1;fill-rule:evenodd;stroke:none;stroke-width:0.360263;stroke-linecap:round;stroke-linejoin:round;paint-order:stroke fill markers"
       d="m 104,170 9.06496,2.94538 L 117.34999,200 H 90.649996 l 4.285031,-27.05461 z"
       id="path13"
       sodipodi:nodetypes="cccccc" /><path
       style="display:inline;fill:#938e5e;fill-opacity:1;fill-rule:evenodd;stroke:none;stroke-width:0.372309;stroke-linecap:round;stroke-linejoin:round;stroke-dasharray:none;stroke-opacity:1;paint-order:stroke fill markers"
       d="m 90.649998,200 -3e-6,3.2 H 117.34999 V 200 Z"
       id="path45" /><path
       id="path2"
       style="display:inline;fill:#000000;stroke-width:0.452639"
       d="m 102.88443,171.44284 c -0.60198,-0.0333 -0.655,-0.0156 -0.61775,0.20326 0.20664,1.21397 0.2185,1.17503 -0.74522,2.44761 -1.19457,1.90996 -4.817854,4.55839 -6.255389,4.55839 -0.09131,0 -0.166078,0.0574 -0.166078,0.12771 0,0.12595 1.349442,0.0904 2.254869,-0.0594 1.239921,-0.20516 3.138418,-1.58567 3.250298,-1.66768 0.18535,-0.13589 0.26475,-0.13557 0.6349,0.10939 0.36875,0.24403 0.62956,0.32423 1.00814,0.30993 0.4813,-0.0182 0.52463,0.008 0.75202,0.45354 0.1327,0.26014 0.21392,0.54467 0.18034,0.63225 -0.0336,0.0876 -0.54833,0.31398 -1.14381,0.50314 -0.95352,0.30292 -1.19611,0.33521 -2.03359,0.27063 -0.53842,-0.0415 -0.951067,-0.0264 -0.951067,0.0346 0,0.25112 1.495497,1.08313 1.941437,1.08042 0.2797,-0.002 0.76271,-0.16249 1.55782,-0.51788 0.61513,-0.27493 0.68962,-0.25479 0.71107,0.19041 0.0297,0.61556 0.0613,0.94334 0.15532,1.61536 0.0843,0.60245 0.0751,0.63231 -0.22806,0.74757 -0.71596,0.27222 -0.90405,0.28051 -0.90405,0.0393 0,-0.12571 0.0445,-0.27987 0.0987,-0.34244 0.15596,-0.17997 0.55479,-1.47623 0.47787,-1.55315 -0.0382,-0.0382 -0.27182,0.0679 -0.51928,0.23578 -0.51706,0.35088 -0.73573,0.36949 -1.52717,0.12935 -0.50477,-0.15316 -0.92534,-0.14504 -0.92534,0.0178 0,0.1889 1.10267,1.31082 1.54051,1.56741 l 0.52536,0.30782 -0.64372,0.16842 c -0.78258,0.20476 -1.762,0.2594 -2.063761,0.11508 -0.131623,-0.063 -0.267242,-0.0616 -0.332382,0.004 -0.128703,0.1287 1.053503,1.26852 1.417343,1.39604 0.36385,0.12752 0.94626,-0.22685 1.32054,-0.41854 0.38023,-0.20463 0.74509,-0.41376 0.81096,-0.46478 0.19417,-0.15039 1.9676,-0.7183 2.87425,-0.92042 0.96881,-0.21617 2.22352,-0.21568 2.96057,9e-4 1.18063,0.34698 1.48913,0.0282 0.7071,-0.73072 -0.75116,-0.72898 -1.25954,-0.8081 -2.86139,-0.44536 -0.56455,0.12784 -0.41001,-0.16611 0.27952,-0.53191 0.99741,-0.52912 1.38281,-1.31802 0.72956,-1.49326 -0.41555,-0.11148 -1.44041,-0.0794 -1.63572,0.0512 -0.1567,0.10477 -0.15285,0.13577 0.0299,0.2435 0.32542,0.19179 0.26959,0.86033 -0.10947,1.31082 -0.26079,0.30993 -0.28813,0.3989 -0.1497,0.48653 0.15319,0.097 0.12548,0.129 -0.0868,0.10057 -0.0421,-0.006 -0.12287,0.0617 -0.17964,0.1497 -0.31858,0.49369 -0.54307,-1.26185 -0.27624,-2.16036 0.16803,-0.56586 0.21413,-0.61529 0.68558,-0.73588 0.27798,-0.0711 0.66186,-0.18038 0.85283,-0.24303 0.19096,-0.0627 0.60281,-0.11391 0.91528,-0.11391 0.87801,0 0.83844,-0.408 -0.0898,-0.92604 -0.2757,-0.15385 -1.06421,-0.0624 -1.94331,0.22549 -0.38387,0.12573 -0.42956,0.11165 -0.68792,-0.21122 -0.37273,-0.46581 -0.34986,-0.60716 0.11111,-0.68348 0.21407,-0.0354 0.5509,-0.0985 0.7485,-0.14011 0.19761,-0.0416 0.48054,-0.10033 0.62875,-0.13052 0.44743,-0.0911 0.36067,-0.60951 -0.14222,-0.84932 -0.39189,-0.18688 -0.4509,-0.18333 -1.22287,0.0774 -1.4992,0.50647 -3.00278,0.73351 -3.35891,0.50712 -0.24955,-0.15865 1.19293,-1.50041 2.08692,-2.64082 l 0.21964,-0.28022 0.67108,0.31788 c 0.36913,0.17477 1.20372,0.75894 1.85465,1.29819 0.65094,0.53925 1.50604,1.22034 1.90004,1.51361 0.39399,0.29327 0.7888,0.60443 0.87738,0.69143 0.25889,0.2543 0.82839,0.51472 0.99902,0.45682 0.0865,-0.0294 0.34581,-0.0828 0.57635,-0.11905 2.48224,-0.3897 2.48713,-0.39323 1.07784,-0.76441 -1.18975,-0.31337 -3.30352,-1.35568 -5.1497,-2.5393 -0.82336,-0.52787 -1.69861,-1.05255 -1.94494,-1.16603 -0.43271,-0.19935 -0.58257,-0.44173 -0.32607,-0.52723 0.0683,-0.0228 0.13567,-0.22542 0.1497,-0.45027 0.0212,-0.34049 -0.0345,-0.44424 -0.33378,-0.62079 -0.19761,-0.11659 -0.65569,-0.22841 -1.01797,-0.24841 z m 4.12075,12.27686 c -0.16259,-0.0171 -0.29338,-0.0155 -0.36303,0.0112 -0.15875,0.0609 -0.15798,0.1 0.007,0.33589 0.10289,0.14689 0.18713,0.41792 0.18713,0.60231 0,0.27773 -0.12132,0.4138 -0.70757,0.79271 -0.38922,0.25157 -0.88772,0.52445 -1.10779,0.60629 -0.22006,0.0818 -0.48286,0.19126 -0.58383,0.24326 -0.10097,0.052 -0.35695,0.13263 -0.56886,0.17918 -0.21191,0.0465 -0.38525,0.13121 -0.38525,0.18806 0,0.15356 0.95163,0.19389 1.46777,0.0622 0.53859,-0.1374 0.69993,-0.009 0.90709,0.72441 0.1911,0.67623 0.62376,1.28179 0.97984,1.37116 0.16393,0.0412 0.36944,0.0496 0.45682,0.0187 0.16146,-0.057 0.1972,-0.13107 0.67763,-1.40087 0.14953,-0.39522 0.31123,-0.81288 0.35929,-0.92815 0.15479,-0.3713 -0.21745,-0.23495 -0.57214,0.20958 -0.32575,0.40826 -0.81935,0.56428 -1.20982,0.32029 -0.39047,-0.24399 -0.55151,-0.35215 -0.55151,-0.44098 0,-0.13579 1.06226,-0.63031 1.48271,-0.77554 0.42046,-0.14523 0.6646,-0.2692 0.87391,-0.35213 0.20931,-0.0829 0.46964,-0.2491 0.57846,-0.36934 0.24041,-0.26566 0.10887,-0.5809 -0.38993,-0.93469 -0.27562,-0.19549 -1.05042,-0.41247 -1.53817,-0.46361 z m -5.7836,1.28088 c -0.35406,-0.001 -1.2114,0.24859 -1.2114,0.35344 0,0.0425 0.18094,0.25276 0.40209,0.46711 l 0.40209,0.38969 9.5e-4,1.85067 9.5e-4,1.85068 -1.792905,1.79103 c -0.986046,0.985 -1.897089,1.82397 -2.024702,1.86448 -0.162474,0.0516 -0.305051,-0.0189 -0.475297,-0.23532 -0.328847,-0.41803 -0.594297,-0.408 -0.5277,0.0201 0.02817,0.18114 0.0822,0.56333 0.119995,0.84932 0.0833,0.6304 0.457318,1.39839 0.7326,1.50403 0.416871,0.15997 0.870555,-0.19747 1.244389,-0.98007 0.347114,-0.91569 0.897898,-1.70224 1.55408,-2.43007 0.10114,-0.10376 0.29163,-0.33877 0.42337,-0.52231 0.50348,-0.70146 0.64105,-0.84302 0.73166,-0.75272 0.0515,0.0513 0.1141,1.20997 0.13918,2.57485 0.0465,2.53202 0.1611,3.24589 0.60512,3.76895 0.23289,0.27436 0.36462,0.26445 0.63575,-0.0482 0.2555,-0.29458 0.2828,-0.83766 0.109,-2.16248 -0.64389,-4.90822 -0.62925,-5.59796 0.1731,-8.21646 0.30849,-1.00679 0.22322,-1.34669 -0.41776,-1.66659 -0.29641,-0.14793 -0.6675,-0.26926 -0.82453,-0.27016 z m 8.70534,0.45121 c -0.20218,-0.0122 -0.35494,0.006 -0.41355,0.0643 -0.0409,0.0409 0.019,0.21734 0.13333,0.3918 0.27244,0.4158 0.26583,1.07709 -0.0138,1.38847 -0.24122,0.26862 -1.88829,1.53514 -2.27503,1.80868 -0.38674,0.27353 -0.71352,0.49561 -0.90027,0.57297 -0.18675,0.0773 -0.33963,0.19132 -0.4118,0.23373 -0.0722,0.0424 -0.24732,0.1228 -0.41015,0.2528 l -0.29613,0.23624 0.47905,-0.0578 c 0.59057,-0.0713 1.14029,-0.27466 1.9026,-0.70406 0.5503,-0.30999 0.59468,-0.31702 0.74476,-0.1193 0.20197,0.26612 0.20662,0.38654 0.0173,0.43811 -0.96014,0.26156 -1.6298,0.46229 -1.82635,0.54735 -0.13173,0.057 -0.546,0.24262 -0.92066,0.41261 -0.37466,0.16998 -0.75191,0.3107 -1.15634,0.5275 -0.40442,0.21679 -0.66823,0.18347 -1.07841,-0.16167 -0.19772,-0.16637 -0.39025,-0.25279 -0.42782,-0.19204 -0.19118,0.30934 0.28827,1.91541 0.60208,2.01699 0.0729,0.0236 0.29525,-0.10704 0.49425,-0.29052 0.19899,-0.18347 0.51265,-0.4629 0.69704,-0.62079 l 0.33519,-0.287 0.27788,0.34688 c 0.15278,0.19083 0.35902,0.5894 0.45823,0.88581 0.26341,0.78697 0.61975,1.32482 0.82569,1.24579 0.21654,-0.0831 0.53455,-0.8583 0.56886,-1.38707 0.0354,-0.54561 -0.15969,-0.85363 -0.66616,-1.05235 -0.23594,-0.0926 -0.42899,-0.21025 -0.42899,-0.26151 0.23918,-0.31492 0.64312,-0.41641 0.99598,-0.56091 0.18543,-0.0768 0.40355,-0.13964 0.60638,-0.22613 0.20283,-0.0865 0.41286,-0.15383 0.60713,-0.17478 0.35204,-0.0379 0.35408,-0.0347 0.57167,0.97983 0.35818,1.67003 0.44764,2.27376 0.52746,3.55586 0.0808,1.2984 0.0277,1.46906 -0.51062,1.63993 -0.29015,0.0921 -1.61582,-0.30018 -2.17206,-0.64278 -0.62185,-0.38301 -0.72804,-0.27958 -0.21356,0.20794 0.47349,0.44869 2.02687,1.4666 2.41836,1.61706 0.39149,0.15046 0.72051,0.30529 0.95973,0.38753 0.85087,0.29251 1.24464,-0.0552 1.30403,-1.15106 0.026,-0.47955 -0.024,-0.90054 -0.13941,-1.17491 -0.41519,-0.98726 -0.67193,-2.76379 -0.60698,-4.20005 0.0343,-0.75748 0.0975,-1.46538 0.14034,-1.57326 0.10473,-0.26369 0.47219,-0.32339 2.57906,-0.41846 1.24628,-0.0562 1.79477,-0.12383 1.79477,-0.22128 0,-0.18616 -0.44627,-0.58647 -0.92206,-0.82686 -0.53491,-0.27026 -1.04028,-0.24245 -2.07616,0.11415 -0.4917,0.16927 -1.00759,0.33582 -1.14638,0.37004 -0.24006,0.0592 -1.39367,-0.43475 -1.52975,-0.65494 -0.0345,-0.0558 0.1636,-0.2002 0.44044,-0.32092 0.81281,-0.35443 2.93445,-1.40243 2.00506,-2.33182 -0.28683,-0.28683 -1.33773,-0.59367 -1.94424,-0.63015 z m -12.766901,1.99803 c -0.108887,0.0377 0.06998,0.34697 0.46103,0.72863 0.266781,0.26037 0.616449,0.69753 0.77704,0.97142 0.160592,0.27388 0.440753,0.609 0.622664,0.74476 l 0.330747,0.247 0.20958,-0.24911 c 0.27045,-0.32143 0.26469,-0.39874 -0.0865,-1.15316 -0.247779,-0.53223 -0.380398,-0.66827 -0.846977,-0.86827 -0.304296,-0.13043 -0.660233,-0.23718 -0.790841,-0.23718 -0.130605,0 -0.34158,-0.0558 -0.468988,-0.12397 -0.103025,-0.0551 -0.171415,-0.0727 -0.207707,-0.0601 z m 5.549911,0.15439 0.4442,0.49167 c 0.26333,0.29148 0.50008,0.71336 0.58126,1.03574 0.0753,0.29915 0.24421,0.68024 0.37518,0.84675 0.13098,0.16651 0.32631,0.28593 0.43413,0.26525 0.2679,-0.0513 0.48049,-0.73219 0.48864,-1.56461 0.008,-0.81668 -0.0342,-0.84586 -1.42777,-0.98522 z"
       inkscape:label="path1"
       sodipodi:nodetypes="cccsssssccsccscccscsccccsccccccsccccsssccsccccscscsssscccsccccscccscssccccccsscssssssscscscscssscccsccccccccccsscsccsssscccccscsccccsccsscscssccccscssccccscssccccccsssscsssccccsccccsssccccscccc" /></g></svg>
