<?xml version="1.0" encoding="UTF-8" standalone="no"?>
<!-- Created with Inkscape (http://www.inkscape.org/) -->

<svg
   viewBox="0 0 38.549999 41.919998"
   version="1.1"
   id="svg1"
   inkscape:version="1.3.2 (091e20e, 2023-11-25, custom)"
   sodipodi:docname="Gyoku.svg"
   xml:space="preserve"
   xmlns:inkscape="http://www.inkscape.org/namespaces/inkscape"
   xmlns:sodipodi="http://sodipodi.sourceforge.net/DTD/sodipodi-0.dtd"
   xmlns="http://www.w3.org/2000/svg"
   xmlns:svg="http://www.w3.org/2000/svg"><sodipodi:namedview
     id="namedview1"
     pagecolor="#ffffff"
     bordercolor="#111111"
     borderopacity="1"
     inkscape:showpageshadow="0"
     inkscape:pageopacity="0"
     inkscape:pagecheckerboard="1"
     inkscape:deskcolor="#d1d1d1"
     inkscape:document-units="mm"
     showguides="true"
     inkscape:zoom="13.096375"
     inkscape:cx="19.280145"
     inkscape:cy="20.959999"
     inkscape:window-width="1292"
     inkscape:window-height="745"
     inkscape:window-x="-8"
     inkscape:window-y="-8"
     inkscape:window-maximized="1"
     inkscape:current-layer="layer1"><inkscape:page
       x="0"
       y="0"
       width="38.549999"
       height="41.919998"
       id="page42"
       margin="0"
       bleed="0" /></sodipodi:namedview><defs
     id="defs1"><inkscape:path-effect
       effect="powerstroke"
       id="path-effect13"
       is_visible="true"
       lpeversion="1.3"
       scale_width="1"
       interpolator_type="CubicBezierJohan"
       interpolator_beta="0.2"
       start_linecap_type="zerowidth"
       end_linecap_type="zerowidth"
       offset_points="5,4.9921382"
       linejoin_type="extrp_arc"
       miter_limit="4"
       not_jump="false"
       sort_points="true"
       message="&lt;b&gt;Ctrl + click&lt;/b&gt; on existing node and move it" /></defs><g
     inkscape:label="Layer 1"
     inkscape:groupmode="layer"
     id="layer1"
     transform="matrix(1.5526719,0,0,1.5526719,-139.00342,-260.56662)"><path
       style="display:inline;fill:#fff29e;fill-opacity:1;fill-rule:evenodd;stroke:none;stroke-width:0.24845;stroke-linecap:round;stroke-linejoin:round;paint-order:stroke fill markers"
       d="m 101.93939,168 6.30221,2.04771 2.93992,18.56192 H 92.697253 l 2.939919,-18.56192 z"
       id="path13"
       transform="translate(4.5566654e-7,1.9822226)" /><path
       style="display:inline;fill:#938e5e;fill-opacity:1;fill-rule:evenodd;stroke:none;stroke-width:0.248604;stroke-linecap:round;stroke-linejoin:round;stroke-dasharray:none;stroke-opacity:1;paint-order:stroke fill markers"
       d="m 92.697255,188.60963 -2e-6,2.06096 h 18.484267 v -2.06096 z"
       id="path45"
       transform="translate(4.5566654e-7,1.9822226)" /><path
       id="path5"
       style="display:inline;fill:#000000;stroke-width:0.30613"
       inkscape:label="path1"
       d="m 102.76955,170.18565 c -0.22156,-0.0104 -0.47122,0.0359 -0.74924,0.13874 -1.64228,0.6074 -3.448676,0.90281 -3.93373,0.64322 -0.08619,-0.0462 -0.156614,-0.0511 -0.156614,-0.0116 0,0.11408 0.761739,0.79772 0.958367,0.86012 0.186336,0.0591 1.048276,-0.0873 1.190737,-0.20233 0.12795,-0.10332 0.24052,0.007 0.461,0.4496 0.26733,0.53723 0.32886,0.8123 0.20375,0.91184 -0.0552,0.044 -0.37757,0.16111 -0.71616,0.2604 -0.609988,0.17888 -1.298608,0.19952 -1.631955,0.0488 -0.234808,-0.10609 -0.167859,0.13844 0.08145,0.29758 0.122228,0.078 0.345997,0.23291 0.497374,0.34424 0.336633,0.24756 0.537635,0.25229 1.201191,0.0281 0.30345,-0.10251 0.54453,-0.1442 0.58532,-0.10124 0.0382,0.0401 0.0819,0.34646 0.0973,0.68057 l 0.028,0.60748 -0.971954,0.3368 c -1.451059,0.50288 -1.90744,0.68142 -2.29702,0.89871 -0.415863,0.23196 -0.485988,0.18998 -0.563338,-0.33664 -0.03053,-0.20826 -0.09198,-0.37548 -0.136526,-0.3716 -0.04457,0.003 -0.186524,0.2431 -0.315443,0.53153 l -0.234448,0.52443 0.323359,0.38284 c 0.177867,0.21056 0.408509,0.42587 0.5124,0.47854 0.152067,0.0771 0.237237,0.0708 0.437414,-0.0327 0.136726,-0.0707 0.285121,-0.17263 0.329683,-0.22653 0.231955,-0.28064 1.052141,-0.77138 1.660421,-0.99348 1.093802,-0.39936 1.788712,-0.5465 2.956392,-0.62598 0.31184,-0.0212 0.84947,-0.0798 1.19471,-0.13003 0.74508,-0.10853 0.80736,-0.23363 0.30026,-0.60273 -0.18005,-0.13106 -0.44429,-0.33728 -0.58722,-0.4583 l -0.25977,-0.22005 -0.0252,0.28079 c -0.0176,0.19673 -0.0661,0.28246 -0.162,0.28649 -0.21957,0.009 -0.76632,0.0705 -1.00455,0.11235 -0.29813,0.0524 -0.3448,-0.0524 -0.3542,-0.79384 -0.009,-0.71762 -0.05,-0.67102 0.79367,-0.90598 0.25455,-0.0709 0.54614,-0.19966 0.64799,-0.28603 0.18414,-0.15618 0.18436,-0.15765 0.0233,-0.28428 -0.1208,-0.0949 -0.30547,-0.1208 -0.72582,-0.10135 l -0.56366,0.0262 -0.0714,-0.35753 c -0.0883,-0.44181 -0.30359,-0.62716 -0.81108,-0.69813 -0.21445,-0.0299 -0.36699,-0.0775 -0.33885,-0.10563 0.0876,-0.0876 0.95016,-0.24505 1.41729,-0.25882 0.24501,-0.007 0.6824,-0.0734 0.97196,-0.14696 0.46396,-0.11791 0.52648,-0.15689 0.52648,-0.32762 0,-0.11409 -0.0863,-0.258 -0.20961,-0.3501 -0.16523,-0.12336 -0.35856,-0.19017 -0.58011,-0.20043 z m -1.41509,3.32641 c -6.499637,-3.32781 -6.499637,-3.32781 0,0 z m 3.23782,0.74242 c -0.11143,-0.0214 -0.18255,-0.018 -0.18255,0.0212 0,0.0376 0.0894,0.15254 0.19885,0.25534 0.10945,0.10286 0.30005,0.33691 0.4235,0.5203 0.12342,0.18339 0.31158,0.45195 0.41811,0.59673 0.22736,0.30899 0.44653,0.33657 0.61618,0.0776 0.15365,-0.2345 0.0468,-0.68344 -0.21895,-0.92086 -0.22444,-0.20044 -0.92089,-0.48625 -1.25514,-0.55036 z m -2.16476,2.06384 c -0.124,0.005 -0.2047,0.0228 -0.2047,0.0582 0,0.0464 0.0546,0.10529 0.12149,0.13099 0.17226,0.0661 0.15045,0.3504 -0.0482,0.62946 -0.0934,0.1311 -0.49429,0.4567 -0.89097,0.72344 -0.39669,0.26672 -0.72122,0.52434 -0.72122,0.57251 0,0.0481 0.0456,0.0695 0.10123,0.0475 0.0556,-0.0221 0.3564,-0.13971 0.66823,-0.26135 0.81181,-0.31665 2.08142,-0.92189 2.24767,-1.07147 0.18443,-0.16594 0.18063,-0.44699 -0.008,-0.61792 -0.13263,-0.12001 -0.89326,-0.2257 -1.26527,-0.21134 z m 2.63223,0.79762 c -0.0149,0.0405 0.009,0.12399 0.0751,0.24648 0.0547,0.10228 0.0365,0.22079 -0.0628,0.40593 -0.15686,0.2925 -1.64558,1.56796 -1.72719,1.47977 -0.092,-0.0994 0.074,-0.98326 0.24695,-1.31509 0.12956,-0.24858 0.14179,-0.32082 0.0542,-0.32082 -0.13931,0 -0.53234,0.45493 -0.53234,0.61618 0,0.19859 -0.22669,0.21836 -0.45403,0.0395 -0.20732,-0.16308 -0.60092,-0.23492 -0.59718,-0.10899 6.4e-4,0.0334 0.0731,0.15187 0.16024,0.26323 0.0871,0.11143 0.15918,0.31259 0.1601,0.44723 10e-4,0.15132 0.096,0.35907 0.24853,0.54403 l 0.24663,0.29916 -0.50322,0.38758 c -0.59433,0.45775 -0.88101,0.72998 -0.88101,0.83655 0,0.0424 0.0153,0.0774 0.0341,0.0774 0.0613,0 1.2988,-0.67097 1.42378,-0.772 0.0668,-0.054 0.32272,-0.20872 0.56872,-0.34377 0.35833,-0.19671 0.47358,-0.22701 0.57947,-0.15218 0.0727,0.0514 0.20846,0.14711 0.30185,0.21261 0.0934,0.0655 0.16989,0.18254 0.16989,0.26008 0,0.22067 -1.59385,0.57354 -2.30841,0.85965 -0.22274,0.0892 -0.63915,0.2568 -0.92529,0.3724 -0.28614,0.11559 -0.52494,0.20131 -0.53076,0.19046 -0.006,-0.0104 -0.0506,-0.11084 -0.0994,-0.22227 l -0.0887,-0.20249 -0.14285,0.32399 c -0.16848,0.38231 -0.18898,0.78709 -0.0484,0.95646 0.0875,0.1054 0.17165,0.0819 0.64908,-0.1805 0.84945,-0.46691 0.76642,-0.47617 1.38154,0.15377 0.51294,0.52529 0.82387,0.73071 1.10596,0.73071 0.0838,0 0.11628,-0.10182 0.11628,-0.36386 0,-0.30228 -0.0417,-0.40165 -0.24616,-0.58722 -0.13533,-0.12285 -0.38629,-0.27805 -0.5578,-0.34487 -0.1715,-0.0668 -0.31016,-0.15794 -0.30833,-0.20249 0.003,-0.0446 0.42604,-0.22905 0.94254,-0.40989 0.91256,-0.31953 1.41802,-0.40362 1.43041,-0.23809 0.003,0.0446 0.0302,0.35436 0.0598,0.68847 0.0295,0.33412 0.073,1.051 0.0965,1.59304 0.036,0.8298 0.0225,1.00581 -0.0854,1.11371 -0.0705,0.0705 -0.16301,0.12814 -0.20549,0.12814 -0.22056,0 -1.00271,-0.34625 -1.60934,-0.71236 -0.37712,-0.22758 -0.70344,-0.39587 -0.72518,-0.37413 -0.0456,0.0456 0.8705,0.92943 1.33597,1.28899 0.17302,0.13364 0.60103,0.49813 0.95124,0.80997 0.35022,0.31183 0.73374,0.63052 0.85221,0.70824 0.28318,0.18578 0.28772,0.18487 0.58106,-0.12102 l 0.25248,-0.26324 -0.044,-0.72897 c -0.0242,-0.40094 -0.078,-0.96589 -0.11944,-1.25545 -0.47578,-3.32264 -0.4771,-3.31182 0.38125,-3.33131 0.25298,-0.006 0.56939,-0.0206 0.70303,-0.0331 0.13366,-0.0124 0.50575,0.0104 0.8269,0.0497 0.9201,0.11397 1.04524,-0.0198 0.5279,-0.56365 -0.16807,-0.17668 -0.39926,-0.34463 -0.51366,-0.37334 -0.11443,-0.0287 -0.67848,0.02 -1.25355,0.10853 l -1.04553,0.16074 -0.28349,-0.16549 c -0.19905,-0.11624 -0.43427,-0.1672 -0.78972,-0.17117 -0.29859,-0.003 -0.50523,-0.0406 -0.5037,-0.0909 0.003,-0.0858 0.59355,-0.48655 0.96943,-0.6573 0.31938,-0.14509 1.16482,-0.69128 1.26701,-0.81852 0.0509,-0.0634 0.0764,-0.17779 0.0565,-0.25406 -0.0481,-0.18364 -0.59448,-0.49249 -0.95267,-0.53834 -0.15713,-0.0202 -0.35949,-0.076 -0.44975,-0.12435 -0.0924,-0.0495 -0.14704,-0.052 -0.16199,-0.0116 z m -5.598586,0.38854 c -0.410653,6.4e-4 -1.288288,0.12355 -1.288049,0.18002 1.16e-4,0.027 0.13668,0.1221 0.303431,0.21119 0.450294,0.24061 0.496943,0.43839 0.636425,2.69933 l 0.05668,0.91754 -0.306111,-0.12783 c -0.437684,-0.18286 -1.074219,-0.0604 -2.078552,0.39992 -0.737657,0.33814 -0.866538,0.37207 -1.35385,0.35627 -0.296213,-0.009 -0.5546,0.0154 -0.574253,0.0555 -0.04583,0.0937 0.703679,0.66796 0.95851,0.73435 0.131554,0.0343 0.359606,-0.0312 0.71015,-0.20408 0.284052,-0.14007 0.531226,-0.25469 0.549105,-0.25469 0.0179,0 0.05507,0.10285 0.08273,0.22859 0.03323,0.15126 -0.0333,0.47787 -0.196641,0.96532 -0.13574,0.40518 -0.269587,0.95438 -0.29741,1.22049 -0.04766,0.4559 -0.03851,0.49159 0.156936,0.61965 0.191618,0.12555 0.222616,0.12596 0.407356,0.005 0.110036,-0.0721 0.238775,-0.22942 0.286177,-0.34977 0.159081,-0.40389 0.497214,-1.8287 0.497214,-2.09516 0,-0.2905 -0.256191,-0.59404 -0.501329,-0.59404 -0.323842,0 -0.106217,-0.15051 0.68357,-0.47283 0.456619,-0.18637 0.853708,-0.33856 0.882426,-0.33808 0.07382,0.001 0.180547,2.46124 0.117694,2.71165 -0.05101,0.20322 -0.05565,0.20432 -0.272884,0.0694 -0.121559,-0.0754 -0.293893,-0.20099 -0.382997,-0.2789 -0.08909,-0.0779 -0.267784,-0.18155 -0.396916,-0.2305 -0.261955,-0.0993 -0.274694,-0.12788 0.215622,0.48582 0.161322,0.20193 0.364377,0.52998 0.451182,0.72898 0.08677,0.19901 0.292297,0.5167 0.456549,0.70604 0.164252,0.18933 0.331718,0.34423 0.372242,0.34423 0.04051,0 0.171755,-0.1549 0.291716,-0.34423 0.192783,-0.30429 0.215953,-0.41401 0.199483,-0.9457 -0.187471,-1.94967 -0.424475,-3.92765 -0.167686,-5.88969 0.04631,-0.21648 0.114546,-0.53431 0.151876,-0.70634 0.06,-0.27684 0.0424,-0.34134 -0.153299,-0.56049 -0.165051,-0.18472 -0.291304,-0.24738 -0.497059,-0.24695 z m -1.652685,0.95821 -0.664435,0.003 c -0.365364,0.001 -0.693315,0.0319 -0.728808,0.0673 -0.05925,0.0593 0.09059,0.20833 0.371598,0.37003 0.132977,0.0765 0.23504,0.67363 0.173391,1.01499 -0.03748,0.20746 -0.09892,0.25626 -0.448169,0.35563 -0.312674,0.089 -0.514971,0.0965 -0.890497,0.0333 -0.267287,-0.0449 -0.514095,-0.0656 -0.548312,-0.046 -0.06425,0.0368 0.169424,0.41431 0.452601,0.73133 0.117666,0.13173 0.21819,0.16826 0.371448,0.13511 0.234435,-0.0507 0.612164,-0.17436 0.858056,-0.2808 0.08909,-0.0385 0.599386,-0.17638 1.133955,-0.30627 1.054665,-0.25623 1.172288,-0.35779 0.691653,-0.59766 -0.197279,-0.0985 -0.37525,-0.12486 -0.600049,-0.0889 l -0.319559,0.0511 0.06376,-0.43758 c 0.03504,-0.24069 0.06815,-0.56513 0.07358,-0.72105 z m 2.962551,0.52646 c -0.28501,0 -0.49215,0.0352 -0.49215,0.0837 0,0.10934 0.97608,1.10041 1.13396,1.15135 0.39145,0.12633 0.45732,-0.62823 0.0871,-0.99837 -0.20974,-0.20974 -0.29295,-0.23667 -0.72897,-0.23667 z"
       sodipodi:nodetypes="cccscscscsscccccccscccccccccssccccccccccccccscsccccccsscssscccssscsccssccccsscssscsccccssssssscsccccssssscsssscscsscssscccccscsscccscsccccccccccccsccssssccscsssscscsssssssccssccccssscccsssccsccccsscss"
       transform="translate(4.5566654e-7,1.9822226)" /><path
       id="path1"
       style="fill:#000000;stroke-width:0.018768"
       d="m 98.595072,191.77627 c -0.0012,0.015 0.0033,0.0295 0.01278,0.0502 0.01261,0.0272 0.03129,0.0506 0.04161,0.0511 0.01033,5e-4 0.05652,0.003 0.102394,0.006 0.07602,0.005 0.09348,0.0164 0.194129,0.12586 0.06077,0.066 0.101484,0.12332 0.09066,0.12692 -0.02411,0.008 -0.04778,0.12379 -0.03306,0.16214 0.009,0.0234 0.02156,0.0213 0.07892,-0.0139 0.108666,-0.0666 0.191258,-0.15001 0.20373,-0.20586 0.01132,-0.0505 0.0098,-0.0519 -0.07787,-0.0533 -0.04921,-9.4e-4 -0.111693,-0.003 -0.138667,-0.006 -0.064,-0.005 -0.177464,-0.0832 -0.203716,-0.14079 l -0.02138,-0.0459 0.142923,0.0117 c 0.115984,0.01 0.151646,0.0213 0.193069,0.0597 0.02796,0.0259 0.05549,0.0469 0.06189,0.0469 0.011,0 0.14826,0.19757 0.14826,0.21333 0,0.004 0.01385,0.0385 0.02989,0.0768 0.02504,0.0598 0.03244,0.0657 0.0576,0.0448 0.02213,-0.0184 0.02678,-0.0438 0.01814,-0.10666 -0.0063,-0.0458 -0.02069,-0.0952 -0.032,-0.1088 -0.01133,-0.0136 -0.01697,-0.0345 -0.01281,-0.0469 0.0088,-0.0264 0.277049,0.32353 0.349854,0.45652 0.04804,0.0877 0.107655,0.12732 0.151456,0.10025 0.04213,-0.026 0.02007,-0.13967 -0.05015,-0.25491 -0.156733,-0.25751 -0.195051,-0.33706 -0.162121,-0.33706 0.05543,0 0.386527,0.11721 0.437027,0.15155 0.0505,0.0343 0.10384,0.066 0.15604,0.10122 0.0828,0.0789 0.1529,0.15456 0.20056,0.23038 0.0183,0.0401 0.0268,0.0442 0.0405,0.0224 0.0272,-0.043 0.0215,-0.0758 -0.0331,-0.18346 -0.0901,-0.17822 -0.29511,-0.31742 -0.568507,-0.38719 -0.113529,-0.0291 -0.168678,-0.0559 -0.149328,-0.0725 0.0044,-0.004 0.03586,-0.0128 0.09454,-0.007 0.05869,0.006 0.106395,-0.003 0.161465,-0.003 0.12723,9.4e-4 0.16494,-0.0123 0.19092,-0.0693 0.0279,-0.0612 0.0279,-0.21809 0,-0.27947 -0.04,-0.0881 -0.0688,-0.0492 -0.0885,0.12054 -0.01,0.0823 -0.0215,0.10626 -0.0565,0.12373 -0.0575,0.0286 -0.12415,0.0139 -0.0949,-0.0214 0.0316,-0.038 -0.03504,-0.13699 -0.104528,-0.15573 -0.120789,-0.0326 -0.198971,0.0364 -0.19413,0.17173 0.002,0.0493 -0.0062,0.0977 -0.01702,0.1088 -0.03225,0.0323 -0.08824,0.0107 -0.09493,-0.0363 -0.0068,-0.0484 0.03125,-0.10252 0.235728,-0.33706 0.23799,-0.27295 0.35493,-0.58376 0.28692,-0.76264 -0.0485,-0.12763 -0.143594,0.008 -0.218656,0.31359 -0.02592,0.10538 -0.07647,0.25093 -0.111999,0.32318 -0.07728,0.15717 -0.229927,0.35886 -0.253855,0.33492 -0.02654,-0.0265 -0.11093,-0.32619 -0.11093,-0.39358 0,-0.0337 -0.01512,-0.0758 -0.03312,-0.0939 -0.03132,-0.0313 -0.03349,-0.0299 -0.0448,0.0224 -0.03206,0.14872 -0.01771,0.25986 0.04902,0.38398 0.03927,0.073 0.06152,0.1363 0.07357,0.18407 0.01207,0.0477 0.0033,0.0592 -0.02657,0.0592 -0.0914,0 -0.157984,-0.085 -0.204787,-0.2624 -0.03809,-0.1443 -0.113067,-0.22554 -0.113067,-0.12265 0,0.0251 -0.0099,0.0516 -0.02138,0.0587 -0.01269,0.007 -0.0166,0.0427 -0.01063,0.0895 l 0.0096,0.0778 -0.171729,-0.18347 c -0.19033,-0.20259 -0.238032,-0.22418 -0.273055,-0.12371 -0.02987,0.0857 -0.02595,0.21331 0.0075,0.24105 0.0379,0.0314 0.03456,0.0565 -0.0064,0.0565 -0.01841,0 -0.04762,0.0238 -0.06507,0.0533 -0.0132,0.0224 -0.02005,0.0384 -0.02136,0.0534 z M 98.738,191.62799 c 2.08e-4,-0.004 0.0012,-0.008 0.0033,-0.0117 0.0063,-0.0102 0.03801,-0.004 0.07467,0.0149 0.03506,0.0178 0.08799,0.0501 0.117325,0.0714 l 0.05337,0.0385 -0.0512,-0.01 c -0.02834,-0.006 -0.05623,-0.0175 -0.06189,-0.0266 -0.0056,-0.009 -0.02945,-0.0159 -0.05335,-0.0159 -0.03572,0 -0.07165,-0.0248 -0.07999,-0.049 -0.0012,-0.004 -0.0023,-0.008 -0.0023,-0.0117 z m 0.70931,0.30508 0.06077,0.008 c 0.03355,0.004 0.067,0.007 0.07467,0.008 0.0077,9.4e-4 0.06416,0.10163 0.124784,0.22292 0.06065,0.12128 0.116543,0.24192 0.123733,0.26772 l 0.01281,0.0469 -0.03946,-0.0469 c -0.02163,-0.0258 -0.0563,-0.0787 -0.0768,-0.11732 -0.02052,-0.0386 -0.09204,-0.14167 -0.158928,-0.22933 z m 0.341319,-0.18666 c -0.0012,-0.005 -0.0012,-0.01 0,-0.016 0.0038,-0.0207 0.02406,-0.032 0.05332,-0.032 0.02927,0 0.04828,0.0113 0.05226,0.032 0.005,0.0257 -0.0062,0.0331 -0.05226,0.0331 -0.03461,0 -0.05003,-0.005 -0.05332,-0.017 z m 1.127421,-0.13334 c 2.5e-4,0.0102 0.002,0.0211 0.005,0.0352 0.007,0.0375 0.0238,0.08 0.0373,0.0939 0.0204,0.0209 0.023,0.0151 0.0171,-0.0352 l -0.007,-0.0608 0.0992,0.01 c 0.15588,0.0161 0.19127,0.0415 0.26879,0.18986 0.0384,0.0734 0.10398,0.18245 0.14506,0.24106 0.0411,0.0586 0.08,0.13866 0.0865,0.17812 l 0.0117,0.0714 0.0511,-0.0917 c 0.0281,-0.0504 0.0512,-0.11044 0.0512,-0.13332 0,-0.0229 -0.0435,-0.10234 -0.096,-0.17706 -0.0525,-0.0747 -0.092,-0.13861 -0.0885,-0.14187 0.0144,-0.0136 0.20277,0.0697 0.21394,0.0779 0.0112,0.008 0.0469,0.0151 0.0761,0.0298 0.0293,0.0148 0.0946,0.0331 0.144,0.0395 0.10402,0.0136 0.12814,-0.0129 0.08,-0.0865 -0.0292,-0.0446 -0.029,-0.0455 0.0266,-0.0373 0.0309,0.005 0.0565,0.0169 0.0699,0.0191 0.0133,0.002 0.17428,0.22666 0.23732,0.351 0.0253,0.0501 0.0415,0.10256 0.0363,0.11627 -0.0119,0.031 0.0168,0.0325 0.0469,0.003 0.0434,-0.0433 0.0226,-0.12376 -0.0693,-0.26452 -0.0505,-0.0776 -0.10172,-0.14659 -0.11306,-0.15359 -0.0371,-0.023 -0.0215,-0.048 0.0299,-0.048 0.0386,0 0.0887,0.0399 0.21546,0.16959 0.0908,0.0929 0.17399,0.16854 0.18886,0.18329 0.0149,0.0147 0.0237,0.0226 0.034,0.0226 0.0442,0 0.0113,-0.068 -0.0939,-0.19518 -0.062,-0.0749 -0.11306,-0.14143 -0.11306,-0.14827 0,-0.007 0.0128,-0.0129 0.0288,-0.0129 0.032,0 0.30162,0.2453 0.31354,0.25797 0.14007,0.12721 0.24326,0.24787 0.42247,0.30098 0.0128,-0.0104 0.0235,-0.0294 0.0235,-0.0416 0,-0.0476 -0.0996,-0.15337 -0.19305,-0.20479 -0.054,-0.0297 -0.11157,-0.0672 -0.128,-0.0843 -0.0165,-0.017 -0.0747,-0.0687 -0.13012,-0.1152 -0.19991,-0.16775 -0.26753,-0.24156 -0.2686,-0.27347 -9.4e-4,-0.0319 -0.0135,-0.0506 -0.0205,-0.0785 -0.009,-0.0372 -0.004,-0.0569 0.0203,-0.0746 0.0398,-0.0291 0.0525,-0.0299 0.14079,-0.006 0.10271,0.0285 0.11163,0.0487 0.08,0.18558 -0.0152,0.0656 -0.0248,0.12137 -0.0214,0.12481 0.003,0.003 0.0257,-0.043 0.0502,-0.10453 0.0245,-0.0614 0.0507,-0.112 0.0587,-0.112 0.0257,0 0.11366,0.11727 0.16,0.21332 0.0503,0.10423 0.059,0.15316 0.0539,0.16621 -0.005,0.013 -0.005,0.0195 -0.0284,0.0343 -0.0207,0.0132 -0.017,0.0169 0.0159,0.017 0.0581,4.9e-4 0.0817,-0.071 0.0725,-0.21439 -0.008,-0.13014 -0.0286,-0.17451 -0.13333,-0.28693 l -0.0736,-0.0789 0.032,-0.0619 c 0.0179,-0.0337 0.0549,-0.099 0.0821,-0.14506 l 0.0502,-0.0832 0.0246,0.0608 c 0.0137,0.0337 0.0209,0.0692 0.0255,0.0831 0.005,0.014 0.0305,0.0712 0.0526,0.14088 0.0431,0.13535 0.0872,0.22081 0.0693,0.13547 -0.006,-0.0259 -0.0196,-0.0848 -0.032,-0.1312 -0.025,-0.0938 -0.0311,-0.31292 -0.0106,-0.41065 0.0132,-0.063 0.013,-0.063 -0.0458,-0.0512 -0.0911,0.0183 -0.0915,0.0187 -0.26452,0.33066 -0.0201,0.0361 -0.043,0.0724 -0.0512,0.0811 -0.0164,0.0173 -0.22127,-0.0225 -0.23572,-0.0459 -0.01,-0.0156 -0.12131,0.0375 -0.144,0.0683 -0.0197,0.0268 -0.0172,0.13017 0.005,0.18666 0.01,0.0264 0.0137,0.048 0.008,0.048 -0.0125,0 -0.10947,-0.061 -0.1216,-0.0768 -0.006,-0.007 -0.0283,-0.005 -0.0522,0.005 -0.0327,0.0122 -0.041,0.0251 -0.032,0.0534 0.007,0.0207 0.005,0.0373 -0.006,0.0373 -0.0201,0 -0.1534,-0.14257 -0.15359,-0.16427 -2.5e-4,-0.0276 -0.127,-0.0985 -0.15573,-0.0875 -0.0546,0.0209 -0.0559,0.0993 -0.005,0.18773 l 0.048,0.0821 -0.0619,-0.0117 c -0.077,-0.0146 -0.12148,-0.0364 -0.19306,-0.096 l -0.0555,-0.0469 -0.0214,0.0736 c -0.0197,0.0683 -0.0183,0.0756 0.0278,0.11521 l 0.049,0.0427 -0.0555,-0.0224 c -0.031,-0.0126 -0.0776,-0.0371 -0.10347,-0.0544 -0.0258,-0.0172 -0.0795,-0.0433 -0.11946,-0.0576 -0.0796,-0.0284 -0.13782,-0.0901 -0.15573,-0.16533 -0.02,-0.0837 -0.0415,-0.0983 -0.0917,-0.0619 -0.0245,0.0177 -0.0456,0.048 -0.0459,0.0672 -5e-4,0.0275 -0.01,0.0323 -0.0427,0.0224 -0.1177,-0.035 -0.17349,-0.032 -0.2176,0.01 -0.0182,0.0172 -0.0284,0.0299 -0.033,0.0459 -0.003,0.007 -0.003,0.0174 -0.003,0.0277 z m 0.10773,0.19839 c 9.4e-4,0.0108 0.0159,0.0328 0.0448,0.0651 0.0809,0.0896 0.0882,0.15456 0.0214,0.19839 -0.0655,0.0429 -0.0584,0.064 0.0214,0.064 0.0539,0 0.0813,-0.0143 0.1312,-0.0672 0.0348,-0.0369 0.0629,-0.0778 0.0629,-0.0917 0,-0.0496 -0.0235,-0.0853 -0.0565,-0.0853 -0.0185,0 -0.0702,-0.0202 -0.1152,-0.0459 -0.0596,-0.034 -0.0956,-0.0485 -0.10666,-0.0437 -0.003,9.4e-4 -0.003,0.003 -0.003,0.007 z m 1.05703,-0.16532 c -9.4e-4,-0.004 1.1e-4,-0.007 0.003,-0.01 0.005,-0.005 0.0363,0.0181 0.0704,0.0502 0.0452,0.0424 0.0539,0.0586 0.0309,0.0587 -0.0274,7e-5 -0.0974,-0.0707 -0.10346,-0.0992 z m 1.62982,0.64424 c -0.003,0.003 0.003,0.009 0.0139,0.0234 0.0142,0.0173 0.0373,0.032 0.0511,0.032 0.0139,0 0.0224,0.0106 0.0192,0.0234 -0.003,0.0129 -0.003,0.0173 0.003,0.01 0.005,-0.007 0.0193,-0.0149 0.0341,-0.0149 0.0147,0 0.0417,-0.007 0.0597,-0.0171 0.0179,-0.01 0.0471,-0.0221 0.0651,-0.0277 0.0252,-0.007 0.0294,-0.019 0.0171,-0.0522 -0.008,-0.0236 -0.012,-0.0543 -0.008,-0.0672 0.01,-0.028 -0.0247,-0.0316 -0.0416,-0.005 -0.007,0.0105 -0.0196,0.0152 -0.0288,0.01 -0.009,-0.006 -0.0357,0.0148 -0.0587,0.0459 -0.0339,0.0458 -0.0503,0.0546 -0.0897,0.0448 -0.0217,-0.006 -0.0331,-0.008 -0.0363,-0.006 z m 0.0555,-1.07409 c 9.3e-4,0.0234 0.0155,0.048 0.0427,0.0843 0.0755,0.10071 0.12365,0.21093 0.11413,0.26346 -0.0101,0.0555 0.003,0.0613 0.0555,0.0214 0.0702,-0.0532 0.60687,-0.007 0.67048,0.0255 0.0636,0.0325 0.29976,0.12967 0.31079,0.17183 0.0118,0.045 0.0299,0.0471 0.0619,0.008 0.0192,-0.0233 0.0187,-0.0341 -0.007,-0.0619 -0.0345,-0.0622 -0.10122,-0.076 -0.1642,-0.1055 -0.14736,-0.0779 -0.3152,-0.12228 -0.46078,-0.12266 -0.15868,-5e-4 -0.17966,-0.0222 -0.0843,-0.0853 0.10656,-0.0705 0.10111,-0.10012 -0.0171,-0.0992 -0.11318,9.4e-4 -0.15443,0.0332 -0.14613,0.11626 0.005,0.0484 -2.4e-4,0.0592 -0.0331,0.0608 -0.0219,9.4e-4 -0.0624,0.008 -0.0896,0.0149 -0.0411,0.0103 -0.049,0.006 -0.049,-0.0256 0,-0.0204 -0.0143,-0.0674 -0.032,-0.10452 -0.0442,-0.0926 -0.0245,-0.10236 0.22826,-0.10346 0.17167,-5e-4 0.3398,-0.0163 0.63892,-0.0597 0.033,-0.005 0.0366,0.005 0.0352,0.0789 -9.4e-4,0.0464 -0.007,0.11426 -0.0139,0.15039 -0.0105,0.0528 -0.01,0.0578 0.006,0.0234 0.0104,-0.0234 0.0323,-0.0484 0.054,-0.077 0.0217,-0.0286 0.16574,-0.17154 0.18495,-0.17154 0.005,0 0.0285,-0.015 0.0533,-0.0331 0.0624,-0.0455 0.0635,-0.10633 -0.0118,-0.11512 -0.0753,-0.008 -0.12531,-0.006 -0.34318,0.0298 -0.28444,0.0462 -0.64745,0.0576 -0.73703,0.0234 -0.0618,-0.0236 -0.21886,-0.0546 -0.20479,-0.0405 0.006,0.006 -0.007,0.0308 -0.0266,0.0565 -0.0239,0.0305 -0.0364,0.0523 -0.0352,0.0758 z m 0.16639,0.69224 c 0,0.0209 0.0138,0.0243 0.0565,0.0149 0.0503,-0.0111 0.0693,-9.4e-4 0.17386,0.0981 0.1269,0.12025 0.24331,0.20417 0.36159,0.26025 l 0.0746,0.0353 -0.12586,0.01 c -0.10806,0.008 -0.13362,0.0177 -0.17812,0.064 l -0.0522,0.0534 0.0469,-0.0139 c 0.0259,-0.007 0.18594,-0.0202 0.35625,-0.0277 0.17032,-0.008 0.33629,-0.0221 0.36906,-0.0331 0.0327,-0.011 0.0644,-0.0156 0.0916,-0.0291 0.0271,-0.0136 0.0694,-0.0343 0.10787,-0.0605 0.0385,-0.0262 0.0693,-0.0606 0.0693,-0.0758 0,-0.0337 0.004,-0.0333 -0.096,0.003 -0.14217,0.0507 -0.42691,0.0697 -0.59839,0.0395 -0.0465,-0.008 -0.11319,-0.0348 -0.14931,-0.0587 -0.10681,-0.0705 -0.24426,-0.19952 -0.24426,-0.22933 0,-0.0152 0.007,-0.0223 0.0181,-0.0159 0.0103,0.007 0.11595,0.0152 0.23465,0.0192 0.18133,0.007 0.21653,0.003 0.24887,-0.0352 0.0324,-0.0377 0.032,-0.0794 -0.006,-0.0939 -0.0163,-0.007 -0.0903,-0.0124 -0.16425,-0.0128 -0.074,-2.5e-4 -0.1838,-0.0125 -0.2432,-0.0266 -0.1218,-0.0291 -0.12775,-0.0146 -0.0149,0.0363 0.10904,0.0492 0.096,0.0726 -0.032,0.0576 -0.0791,-0.009 -0.11637,-0.0233 -0.13972,-0.0534 -0.066,-0.0852 -0.0912,-0.1075 -0.10986,-0.096 -0.0107,0.007 -0.0142,0.0356 -0.008,0.0661 0.008,0.0402 0.004,0.0578 -0.0181,0.0661 -0.0163,0.007 -0.0299,0.0233 -0.0299,0.0384 z"
       sodipodi:nodetypes="cccccccccccccccssccccccccsccccccccccccccccccccccssccccscsccccccscccccccccscccccsccccccscccsscccccccccccscccccccssccccscssscscccccccccccssscsccccccccccscccccccccscccsscccccccccccccccccccscccsssccsscccsccscsccccccccccccccsccscccccccscccccccsscscccccccccccscsscsscsccccscccccccccssccccccsc" /></g></svg>
