<?xml version="1.0" encoding="UTF-8" standalone="no"?>
<!-- Created with Inkscape (http://www.inkscape.org/) -->

<svg
   viewBox="0 0 38.549999 41.919998"
   version="1.1"
   id="svg1"
   inkscape:version="1.3.2 (091e20e, 2023-11-25, custom)"
   sodipodi:docname="Kyo.svg"
   xml:space="preserve"
   xmlns:inkscape="http://www.inkscape.org/namespaces/inkscape"
   xmlns:sodipodi="http://sodipodi.sourceforge.net/DTD/sodipodi-0.dtd"
   xmlns="http://www.w3.org/2000/svg"
   xmlns:svg="http://www.w3.org/2000/svg"><sodipodi:namedview
     id="namedview1"
     pagecolor="#ffffff"
     bordercolor="#111111"
     borderopacity="1"
     inkscape:showpageshadow="0"
     inkscape:pageopacity="0"
     inkscape:pagecheckerboard="1"
     inkscape:deskcolor="#d1d1d1"
     inkscape:document-units="mm"
     showguides="true"
     inkscape:zoom="13.096375"
     inkscape:cx="19.280144"
     inkscape:cy="20.959998"
     inkscape:window-width="1292"
     inkscape:window-height="745"
     inkscape:window-x="-8"
     inkscape:window-y="-8"
     inkscape:window-maximized="1"
     inkscape:current-layer="layer1"><inkscape:page
       x="0"
       y="0"
       width="38.549999"
       height="41.919998"
       id="page42"
       margin="0"
       bleed="0" /></sodipodi:namedview><defs
     id="defs1"><inkscape:path-effect
       effect="powerstroke"
       id="path-effect13"
       is_visible="true"
       lpeversion="1.3"
       scale_width="1"
       interpolator_type="CubicBezierJohan"
       interpolator_beta="0.2"
       start_linecap_type="zerowidth"
       end_linecap_type="zerowidth"
       offset_points="5,4.9921382"
       linejoin_type="extrp_arc"
       miter_limit="4"
       not_jump="false"
       sort_points="true"
       message="&lt;b&gt;Ctrl + click&lt;/b&gt; on existing node and move it" /></defs><g
     inkscape:label="Layer 1"
     inkscape:groupmode="layer"
     id="layer1"
     transform="matrix(0.81881518,0,0,1,-66.700592,-166.64)"><path
       style="fill:#fff29e;fill-opacity:1;fill-rule:evenodd;stroke:none;stroke-width:0.360847;stroke-linecap:round;stroke-linejoin:round;paint-order:stroke fill markers"
       d="m 105,172 9.78527,2.78199 L 119.35,200 H 90.649995 l 4.56473,-25.21801 z"
       id="path13" /><path
       style="display:inline;fill:#938e5e;fill-opacity:1;fill-rule:evenodd;stroke:none;stroke-width:0.386001;stroke-linecap:round;stroke-linejoin:round;stroke-dasharray:none;stroke-opacity:1;paint-order:stroke fill markers"
       d="m 90.649998,200 -3e-6,3.2 H 119.35 V 200 Z"
       id="path45" /><path
       id="path1"
       style="fill:#000000;stroke-width:0.477295"
       d="m 105.21854,173.64936 c -0.10065,0.0248 -0.13247,0.11722 -0.13247,0.28612 0,0.31312 -0.60456,0.91342 -1.14264,1.13492 -1.20524,0.49613 -2.95215,1.12376 -3.12782,1.12376 -0.10761,0 -0.19544,0.0838 -0.19544,0.18614 0,0.15777 0.11166,0.17484 0.73269,0.11205 1.64621,-0.16649 3.0924,-0.45844 4.31979,-0.87223 1.17374,-0.39571 1.30123,-0.46853 1.33862,-0.76242 0.0477,-0.37504 -0.42212,-0.78509 -1.24812,-1.08938 -0.27454,-0.10114 -0.44397,-0.14381 -0.54461,-0.11896 z m -0.70652,2.80035 c -0.61159,-0.0215 -1.11603,0.0156 -1.24022,0.0913 -0.16507,0.10064 -0.171,0.14054 -0.0272,0.18793 0.29872,0.0985 0.72505,0.52313 0.72505,0.72246 0,0.18391 -1.07206,0.48199 -2.86096,0.79522 -0.8976,0.15717 -3.096997,0.20483 -3.593649,0.0779 -0.603665,-0.15429 -0.464029,0.0767 0.36171,0.59838 0.838984,0.52999 1.210505,0.57509 2.464369,0.29952 0.42216,-0.0928 0.7765,-0.16921 0.78747,-0.17007 0.011,-8.7e-4 0.0571,0.078 0.10249,0.17476 0.28132,0.60027 -3.72959,2.74567 -5.935077,3.17464 -0.372313,0.0724 -0.676809,0.17075 -0.676809,0.21873 0,0.0857 1.145437,0.12845 2.364872,0.0879 0.910962,-0.0303 2.001215,-0.4045 3.496614,-1.20031 0.72919,-0.38806 1.48281,-0.77387 1.6747,-0.85727 0.1919,-0.0834 0.41827,-0.22866 0.50318,-0.32296 0.10834,-0.1203 0.37406,-0.16519 0.89078,-0.1502 0.40502,0.0117 0.79096,0.0489 0.85753,0.0826 0.0666,0.0337 0.12102,0.25845 0.12102,0.4995 0,0.37837 -0.0429,0.43829 -0.31401,0.43812 -0.87126,-4.3e-4 -2.75629,0.18493 -2.75629,0.27117 0,0.0542 0.34468,0.23704 0.76594,0.40621 0.72777,0.29226 0.80618,0.30064 1.57822,0.17007 0.44689,-0.0756 1.26207,-0.13749 1.81126,-0.13749 0.90988,0 1.04082,0.0305 1.4741,0.34193 0.45775,0.32909 0.47081,0.36146 0.35544,0.86709 -0.11943,0.52343 -0.41581,1.43602 -0.49418,1.52126 -0.0227,0.0247 -0.12566,-0.0123 -0.22869,-0.0824 -0.26563,-0.1805 -0.82488,-0.2029 -2.23731,-0.0897 -0.7013,0.0561 -1.27997,0.0556 -1.3438,-0.001 -0.0617,-0.055 -0.15358,-0.2908 -0.20416,-0.52406 l -0.0919,-0.42405 0.43885,0.12521 c 0.51149,0.146 2.35052,0.063 3.02586,-0.1366 0.33119,-0.0979 0.45357,-0.20437 0.45357,-0.39459 0,-0.52433 -0.28431,-0.57644 -2.12336,-0.38858 -1.41816,0.14487 -1.70668,0.14732 -1.83799,0.0161 -0.45501,-0.45481 -0.75394,-0.60421 -1.44302,-0.72135 -0.41714,-0.0707 -0.79241,-0.10109 -0.83381,-0.0672 -0.0414,0.0339 0.15321,0.28005 0.43231,0.54704 0.46892,0.44858 0.84234,1.22439 1.11919,2.32518 0.0474,0.18855 0.11171,0.41996 0.14283,0.51423 0.0311,0.0943 0.0612,0.20998 0.067,0.25712 0.0252,0.20248 0.3984,0.0613 0.54789,-0.20735 0.13373,-0.24036 0.21934,-0.27633 0.47591,-0.19997 0.38127,0.11345 2.21034,0.12252 2.93047,0.0145 0.48128,-0.0722 0.54155,-0.0511 0.73623,0.25711 0.11662,0.18466 0.29717,0.33568 0.40123,0.33568 0.32568,0 1.04501,-0.70198 1.27893,-1.24808 0.12322,-0.28768 0.28043,-0.61113 0.34917,-0.71867 0.0687,-0.10753 0.19962,-0.56549 0.29084,-1.01774 l 0.16572,-0.82223 -0.40778,-0.26716 c -0.22431,-0.14696 -0.4768,-0.26751 -0.91663,-0.39916 -0.43983,-0.13165 -0.96769,-0.24794 -1.38472,-0.29674 -0.73421,-0.0859 -0.75955,-0.10079 -0.80328,-0.4745 -0.0415,-0.35451 -0.0187,-0.38031 0.27911,-0.31537 0.17835,0.0389 1.07799,0.17895 1.99907,0.31113 0.9211,0.13218 2.11433,0.3188 2.65163,0.4149 1.5746,0.28164 2.2303,0.30548 2.49271,0.0906 0.12564,-0.10288 0.22869,-0.22777 0.22869,-0.27765 0,-0.17565 -0.58742,-0.6993 -0.95457,-0.85102 -0.35217,-0.14554 -3.55271,-0.3979 -5.67448,-0.44749 l -0.97692,-0.023 -0.0415,-0.64078 -0.0412,-0.64078 0.65391,-0.0734 c 0.35963,-0.0403 1.36289,-0.0734 2.2294,-0.0734 1.24533,0 1.62124,-0.0374 1.79437,-0.17922 0.31108,-0.25472 0.054,-0.59344 -0.51489,-0.67828 -0.98531,-0.14694 -2.4755,-0.0896 -3.35705,0.12923 -0.17622,0.0437 -0.39404,-0.07 -0.71361,-0.37273 -0.44575,-0.42223 -0.49153,-0.43671 -1.49072,-0.47182 z m -0.49882,2.05915 c 0.22094,-0.0521 0.24759,0.003 0.20934,0.43232 -0.0241,0.27061 -0.10641,0.50257 -0.18317,0.51557 -0.47441,0.0802 -1.60492,-0.2791 -1.60492,-0.51021 0,-0.0421 0.29831,-0.14457 0.6629,-0.22744 0.3646,-0.0829 0.77662,-0.17742 0.91585,-0.21024 z m 0.24396,7.46613 c -0.40024,0.008 -0.70624,0.0314 -0.70624,0.067 0,0.046 0.157,0.21226 0.3489,0.36938 0.19189,0.15712 0.34889,0.35531 0.34889,0.44058 0,0.20334 -2.64542,0.68959 -3.48243,0.64011 -0.33751,-0.02 -0.635,0.0161 -0.661,0.0799 -0.026,0.0638 0.17511,0.29239 0.44675,0.50798 l 0.49391,0.39191 1.42694,-0.20667 c 1.87753,-0.27205 1.8282,-0.27019 1.87969,-0.0681 0.0346,0.13614 -0.3089,0.24576 -1.52998,0.48834 -2.09758,0.4167 -2.0599,0.41225 -2.7353,0.31113 -0.324403,-0.0486 -0.615216,-0.0546 -0.646285,-0.0134 -0.03107,0.0412 0.211984,0.43875 0.539974,0.88338 0.327991,0.44463 0.738741,1.11114 0.912861,1.48131 0.58385,1.24124 0.69759,1.41591 0.9224,1.41591 0.12304,0 0.29469,-0.15427 0.3816,-0.34282 0.15746,-0.34156 0.67273,-0.4826 0.85944,-0.23524 0.0447,0.0592 0.32784,0.0833 0.62911,0.0536 0.45513,-0.0449 0.5746,-0.0127 0.70734,0.19038 0.0879,0.13443 0.10692,0.28321 0.0422,0.33077 -0.11116,0.0817 -1.0974,0.30457 -1.86197,0.42071 -0.1919,0.0291 -1.25953,0.21277 -2.37251,0.40799 -1.112993,0.19522 -2.400192,0.35934 -2.860417,0.36469 -0.822052,0.01 -0.839369,0.003 -0.981822,-0.35599 -0.07975,-0.20121 -0.184461,-0.39833 -0.232777,-0.43789 -0.117087,-0.0959 -0.485544,0.58839 -0.586585,1.08938 -0.0699,0.34658 -0.01456,0.45715 0.415132,0.82848 0.272722,0.23569 0.578336,0.42853 0.678987,0.42853 0.18848,0 1.189169,-0.26566 1.683433,-0.44683 1.10461,-0.40489 5.180849,-1.26727 5.989869,-1.26727 0.17476,0 0.24528,0.37774 0.57732,3.08537 0.0907,0.73955 0.21311,1.17884 0.37397,1.34249 0.21839,0.22198 0.52033,0.16883 0.649,-0.11427 0.17042,-0.37495 0.29673,-1.66599 0.31292,-3.19652 0.009,-0.84608 0.0726,-1.37917 0.17254,-1.44672 0.1685,-0.11388 1.65447,-0.25506 2.80999,-0.26693 1.28592,-0.0132 2.64186,0.15653 3.85586,0.48253 1.67305,0.44926 1.7824,0.45411 2.11464,0.0919 0.26404,-0.28781 0.26772,-0.32596 0.0572,-0.58899 -0.24765,-0.30949 -1.42057,-0.89757 -2.29235,-1.14943 -0.43936,-0.12693 -0.88077,-0.14012 -2.0754,-0.0618 -0.83452,0.0549 -1.57032,0.056 -1.63519,0.003 -0.0649,-0.0531 0.002,-0.19247 0.14802,-0.30979 0.54495,-0.43689 2.1299,-2.19497 2.1299,-2.36268 0,-0.0957 -0.38512,-0.45932 -0.85562,-0.80794 -0.95647,-0.70874 -0.91411,-0.70395 -3.04767,-0.35175 -1.01724,0.16792 -1.12083,0.14714 -1.12083,-0.22587 0,-0.33089 0.42115,-0.42434 2.15281,-0.47785 1.16719,-0.0361 1.46632,-0.12068 1.47355,-0.41692 8.6e-4,-0.0481 -0.20193,-0.18926 -0.4514,-0.3138 -0.50372,-0.25148 -1.22028,-0.28672 -2.33079,-0.11427 -0.70477,0.10944 -0.74265,0.10187 -1.14619,-0.22855 -0.22954,-0.18795 -0.52249,-0.34966 -0.65091,-0.35934 -0.37699,-0.0284 -0.87132,-0.0367 -1.27156,-0.029 z m 4.62644,2.86687 c 0.10634,0.031 0.10731,0.10532 0.10494,0.25266 -0.005,0.29798 -0.30528,1.39989 -0.47156,1.73016 -0.0676,0.13422 -0.31685,0.174 -1.07177,0.17141 -1.07867,-0.004 -1.10311,-0.0104 -1.10311,-0.29506 0,-0.15228 0.17215,-0.21405 0.76757,-0.27497 0.42221,-0.0432 0.86643,-0.15928 0.987,-0.258 0.36276,-0.29704 -0.0561,-0.53168 -0.91994,-0.51557 -0.69045,0.0129 -0.711,0.004 -0.66891,-0.28702 0.05,-0.34584 0.33143,-0.43459 1.63955,-0.51624 0.41825,-0.0261 0.62988,-0.0384 0.73623,-0.007 z m -4.4877,0.44035 c 0.0726,0.0367 0.13193,0.20967 0.13193,0.38412 0,0.29407 -0.08,0.33921 -1.09848,0.62158 -0.60417,0.16751 -1.16288,0.30465 -1.24132,0.30465 -0.17274,0 -0.31183,-0.27253 -0.31183,-0.61042 0,-0.216 0.15749,-0.28295 1.19389,-0.50776 0.65663,-0.14243 1.25325,-0.22888 1.32581,-0.19217 z m -2.3139,1.58108 c 0.0389,-0.0555 0.12431,-0.0355 0.25895,0.056 0.11961,0.0812 0.54309,0.11219 1.11974,0.0819 0.80806,-0.0424 0.92758,-0.0233 0.92758,0.14842 0,0.14824 -0.20099,0.23119 -0.81091,0.33434 -1.24454,0.21048 -1.37416,0.19067 -1.47546,-0.22408 -0.0514,-0.21025 -0.0588,-0.34112 -0.0199,-0.39661 z m 5.79525,0.82223 c 0.30623,-0.0208 0.60577,0.042 0.80328,0.16828 l 0.3151,0.20132 -0.45466,0.1337 c -0.25002,0.0735 -0.73699,0.15799 -1.0824,0.18792 -0.34541,0.0299 -0.69898,0.0738 -0.78557,0.0975 -0.22749,0.0623 -0.47046,-0.174 -0.47046,-0.45754 0,-0.20703 0.0905,-0.2485 0.59313,-0.27117 0.32621,-0.0147 0.81293,-0.0418 1.08158,-0.06 z"
       sodipodi:nodetypes="cscsscscccccsscsccscsscsccscscscssccccccccccssccscssccccsssscccccccccssscccccsccscccsscscscscsssccccccsscsscccscsccssssssscscsssssscccsccsscssscccccccssscccccssssssscccsccccccccscscc" /></g></svg>
