<svg xmlns="http://www.w3.org/2000/svg" viewBox="0 0 60 60">
    <defs>
        <filter id="1NK_svg__a" color-interpolation-filters="sRGB">
            <feFlood flood-color="#000" flood-opacity=".498" result="flood"/>
            <feComposite in="flood" in2="SourceGraphic" operator="in" result="composite1"/>
            <feGaussianBlur in="composite1" result="blur" stdDeviation="1"/>
            <feOffset dx="2.5" dy="3" result="offset"/>
            <feComposite in="SourceGraphic" in2="offset" result="composite2"/>
        </filter>
    </defs>
    <g stroke-width="1.667">
        <g filter="url(#1NK_svg__a)" opacity=".99">
            <path fill="#feec99" d="m30 50.018 12.132-3.724 6.471-38.692H11.398l6.468 38.673z"/>
            <path fill="#c3983c" fill-opacity=".992" d="M17.865 48.657v-2.382L30 50.018l12.132-3.724v2.381L30 52.399z"/>
        </g>
        <g opacity=".99">
            <path fill="#fecfcf" d="M33.108 14.323c2.13 1.06 2.18 1.708.132 1.708-.866 0-1.574.235-1.574.524s.348.524.775.524c.426 0 1.15.575 1.611 1.277 1.456 2.222-.582 4.2-4.742 4.603-1.052.102-1.63.48-1.758 1.148-.198 1.044.144 1.049 4.9.055 2.149-.448 3.951.813 2.928 2.046-.494.595-.898.691-1.346.32-.378-.314-1.922-.397-3.776-.203-1.993.208-3.552.105-4.273-.28-1.176-.63-1.538-2.363-.612-2.934q.524-.327-.018-1.342c-.673-1.257-.045-2.575 1.975-4.142 1.302-1.01 1.329-1.093.27-.802-2.558.704-4.303-1.133-2.648-2.788.9-.9 6.142-.716 8.156.286m-3.248 4.822c-.959 1.06-.728 2.131.462 2.131 1.01 0 2.034-1.434 1.68-2.354-.408-1.064-1.036-1-2.142.223m8.362 11.644c-5.696 5.928-6.498 7.254-5.508 9.107.878 1.64.508 2.031-1.499 1.591-3.655-.803-3.458-2.874.71-7.482 3.549-3.92 6.335-6.175 9.005-7.288 1.88-.784 1.699-.512-2.708 4.072m-14.292.61c2.812 2.655 5.114 5.006 5.114 5.227 0 1.417-10.38-5.05-11.517-7.177-.758-1.414-.433-2.942.617-2.902.368.015 2.973 2.197 5.786 4.853m8.786-3.411c0 .28-.628.92-1.393 1.423-1.219.798-1.284.973-.524 1.397.477.267.867.71.867.984 0 .723-3.871.613-4.616-.13-.916-.916-.77-2.407.29-2.962 1.464-.77 5.374-1.288 5.374-.712z"/>
            <path fill="#feafaf" d="M32.521 14.163c2.434 1.06 2.682 1.868.575 1.868-2.463 0-2.843.616-.788 1.28 1.403.454 1.749.861 1.88 2.226.187 1.93-.73 2.626-4.247 3.226-1.501.257-2.257.672-2.379 1.306-.163.848.165.898 3.717.577 3.256-.295 3.948-.219 4.208.46.387 1.008-.927 2.278-1.462 1.414-.237-.385-1.524-.462-3.849-.233-3.093.305-3.603.222-4.453-.716-.783-.865-.848-1.268-.357-2.187.451-.842.453-1.308.006-1.846-.759-.914-.04-2.357 1.958-3.924 1.423-1.115 1.428-1.132.186-.863-2.58.56-4.309-1.66-2.179-2.8 1.41-.756 5.218-.643 7.184.212m-2.22 4.366c-.317.213-.856.918-1.198 1.566-.544 1.033-.494 1.181.404 1.181 1.677 0 2.683-.579 2.683-1.543 0-1.459-.77-1.95-1.888-1.203zm9.46 10.451c-3.74 3.586-7.57 8.338-7.57 9.398 0 .41.286 1.205.636 1.765.858 1.375.342 1.737-1.716 1.204-2.347-.608-3.014-1.779-2.046-3.59 1.633-3.05 7.237-8.422 10.563-10.126l3.315-1.699zm-19.373-.748c.866.948 3.09 3.074 4.941 4.726 1.852 1.652 3.215 3.154 3.03 3.339-.184.184-1.68-.347-3.327-1.18-3.747-1.896-8.22-6.03-7.964-7.359.3-1.561 1.636-1.37 3.322.474zm12.328.112c0 .137-.767.644-1.703 1.129-1.672.864-1.68.887-.524 1.405 1.869.834 1.37 1.488-.999 1.313-4.539-.337-3.451-4.096 1.185-4.096 1.123 0 2.04.112 2.04.249"/>
            <path fill="#fe8f8f" d="M31.994 13.977c.901.262 1.932.83 2.293 1.265.562.677.39.789-1.215.789-1.858 0-3.38 1.032-1.568 1.066 2.41.041 3.628 2.736 1.981 4.383-.839.839-3.673 1.566-4.973 1.275-.457-.1-.83.321-.943 1.07-.186 1.23-.161 1.235 3.468.87 3.802-.381 4.715-.01 4.079 1.648-.25.65-.471.691-1.072.193-.52-.431-1.794-.516-4.065-.274-2.905.31-3.425.227-4.257-.692-.794-.878-.84-1.217-.286-2.103.486-.778.506-1.242.078-1.757-.775-.934.215-2.775 2.254-4.184l1.537-1.064-1.567.26c-1.61.267-3.415-.366-3.415-1.197 0-1.874 3.857-2.653 7.671-1.548m-2.628 5.444c-1.113 1.7-1.077 1.855.426 1.855 1.214 0 2.924-1.197 2.924-2.048 0-1.548-2.296-1.414-3.35.193m9.263 10.64c-2.025 1.948-4.41 4.69-5.296 6.093-1.52 2.404-1.566 2.624-.793 3.803.794 1.212.775 1.252-.586 1.252-1.852 0-3.434-.882-3.434-1.916 0-2.814 10.472-12.772 13.432-12.772.198 0-1.297 1.594-3.323 3.54m-14.831 1.473c2.741 2.718 4.78 4.945 4.532 4.948-1.14.015-7.103-3.624-9.16-5.589-2.28-2.18-2.77-3.986-1.136-4.199.43-.056 3.023 2.121 5.764 4.84m7.423-2.297c-1.715 1.098-1.73 1.14-.64 1.724 1.432.766.862 1.33-1.344 1.33-1.241 0-1.903-.324-2.343-1.145-.522-.975-.438-1.286.564-2.099.72-.582 2.02-.949 3.349-.943l2.17.009z"/>
            <path fill="#fe6f6f" d="M32.037 14.075c.924.354 1.975.94 2.334 1.3.52.523.288.657-1.157.664-.996.003-2.164.235-2.597.516-.62.4-.497.51.575.516 1.47.01 3.097 1.439 3.097 2.723 0 1.362-1.74 2.45-4.197 2.626-2.022.143-2.385.344-2.535 1.405-.174 1.228-.146 1.234 3.48.87 3.802-.381 4.715-.01 4.079 1.648-.253.656-.47.693-1.082.184-.53-.439-1.733-.524-3.883-.275-2.767.32-3.24.236-4.252-.777-1.061-1.061-1.08-1.2-.273-2.091.569-.629.673-1.073.305-1.3-1.074-.663-.546-2.286 1.261-3.872l1.82-1.599-2.172-.16c-2.26-.166-2.822-.7-2.04-1.937.616-.973 5.128-1.248 7.237-.441m-2.701 5.22c-1.155 1.648-1.03 1.981.738 1.981 1.588 0 3.019-1.588 2.372-2.634-.56-.907-2.269-.55-3.11.652m9.593 10.363c-1.911 1.725-4.336 4.434-5.389 6.02-1.854 2.793-1.886 2.925-1.047 4.208.853 1.3.844 1.323-.538 1.323-1.84 0-3.436-.881-3.436-1.894 0-2.078 6.478-8.948 11.015-11.683 3.196-1.927 2.983-1.212-.605 2.026m-15.377 1.83c2.876 2.73 5.027 4.973 4.778 4.982-.83.032-6.432-3.164-8.423-4.804-1.083-.893-2.152-2.12-2.38-2.727-.421-1.135-.186-2.418.442-2.418.194 0 2.707 2.235 5.583 4.966m7.328-2.11c-1.553 1.335-1.56 1.357-.4 1.668 1.679.451.921 1.246-1.187 1.246-1.283 0-1.954-.314-2.38-1.111-.828-1.548.317-2.573 3.238-2.899l2.3-.256z"/>
            <path fill="#fe4e4e" d="M31.863 14.178c3.155 1.124 3.544 1.852.987 1.852-1.194 0-2.317.235-2.496.525-.178.288.11.524.64.524 1.424 0 3.295 1.49 3.295 2.623 0 1.462-2.026 2.623-4.575 2.623-2.063 0-2.245.11-2.245 1.353 0 1.345.023 1.352 3.788 1.18 3.04-.139 3.817-.018 3.946.614.132.65-.598.786-4.18.78-4.65-.007-5.651-.318-5.651-1.755 0-.502.295-1.226.655-1.608.524-.556.524-.743 0-.936-1.268-.465-.634-2.189 1.465-3.984l2.12-1.815-2.314.26c-2.835.32-3.723-.609-1.952-2.042 1.4-1.133 3.689-1.202 6.517-.194m-2.527 5.117c-1.15 1.639-1.03 1.981.692 1.981 1.711 0 2.953-1.17 2.5-2.354-.45-1.173-2.258-.963-3.192.372zm9.538 10.373c-4.504 4.128-7.465 8.508-6.706 9.924.778 1.453.704 1.616-.727 1.616-1.219 0-2.922-1.198-2.922-2.056 0-.739 2.99-4.556 5.655-7.222 2.33-2.328 6.747-5.409 7.758-5.409.208 0-1.17 1.417-3.058 3.147M23.536 31.54c2.884 2.703 4.998 4.922 4.696 4.93-.714.023-8.036-4.479-9.499-5.84-1.385-1.289-1.85-2.854-1.043-3.513.411-.336 2.255 1.058 5.846 4.423m7.38-2.264c-1.462 1.22-1.487 1.311-.525 1.852.942.527.949.593.094.922-1.317.508-3.367-.123-3.763-1.159-.5-1.303.823-2.316 3.43-2.626l2.3-.271z"/>
            <path fill="#fe2f2f" d="M31.836 14.142c2.76 1.021 2.849 1.242.664 1.652-2.036.382-3.095 1.285-1.506 1.285 1.424 0 3.295 1.49 3.295 2.623 0 1.469-2.03 2.623-4.61 2.623-2.177 0-2.271.064-2.113 1.442.18 1.57.32 1.596 4.746.905 2.065-.324 2.537-.241 2.817.49.456 1.186-.02 1.555-1.195.926-.627-.337-1.932-.343-3.709-.02-1.87.34-3.075.319-3.797-.067-1.194-.64-1.38-2.077-.4-3.112.523-.556.523-.743 0-.936-1.291-.473-.619-2.195 1.573-4.038l2.23-1.874-2.423.319c-2.64.347-3.43-.18-2.394-1.598.887-1.214 4.364-1.529 6.823-.62zm-2.5 5.152c-1.15 1.64-1.03 1.982.692 1.982 1.711 0 2.953-1.17 2.5-2.354-.45-1.173-2.258-.963-3.192.372m8.334 11.487c-4.785 5.005-6.394 7.583-5.564 8.914.335.536.61 1.096.61 1.245 0 .65-2.091.181-3.203-.72l-1.221-.987 1.465-2.117c1.991-2.873 7.534-8.127 9.78-9.27 1.598-.815 1.36-.44-1.867 2.935m-13.872 1.015c2.741 2.588 4.51 4.538 3.934 4.335-1.983-.697-7.345-4.037-8.787-5.47-1.481-1.476-1.952-3.634-.785-3.592.36.011 2.897 2.139 5.638 4.727m7.118-2.466c-1.455 1.164-1.483 1.26-.532 1.792.931.521.897.59-.451.928-1.642.412-3.635-.926-3.173-2.132.303-.788 2.917-1.824 4.59-1.821.997.003.956.121-.434 1.233"/>
            <path fill="#fe0404" d="M30.579 14.025c2.518.444 4.16 1.482 2.34 1.482-.578 0-1.488.317-2.023.708-.908.664-.874.733.554 1.09 2.97.747 3.605 2.155 1.79 3.971-.73.73-1.749 1.05-3.349 1.05-1.812 0-2.353.208-2.559.99-.527 2.021.296 2.377 3.788 1.636 2.271-.482 3.389-.52 3.78-.127.897.896.018 1.79-1.145 1.167-.674-.36-1.764-.362-3.353-.006-3.894.873-6.427-.921-4.375-3.097.524-.556.524-.743 0-.935-1.29-.474-.617-2.196 1.574-4.022l2.23-1.857-2.362.108c-2.03.095-2.36-.033-2.36-.918 0-1.3 2.243-1.806 5.47-1.24m-1.33 5.021c-.384.505-.705 1.213-.714 1.574-.016.686 1.93.883 3.35.337.836-.32 1.129-1.83.48-2.48-.665-.665-2.422-.344-3.116.57m8.091 12.078c-4.729 4.963-6.088 7.204-5.214 8.602.324.519.59 1.065.59 1.212 0 .648-2.088.186-3.187-.707l-1.207-.975 1.898-2.585c2.424-3.303 7.019-7.654 9.344-8.848 1.513-.776 1.152-.24-2.224 3.3m-13.542.747 4.982 4.774-3.796-2.022c-4.265-2.27-7.48-5.103-7.48-6.588 0-1.767 1.226-1.02 6.295 3.836zm7.152-2.689c-1.6 1.258-1.773 2.043-.464 2.102.572.026.367.241-.542.573-1.684.614-2.999-.133-2.999-1.703 0-.663.61-1.13 1.967-1.507 2.976-.827 3.571-.671 2.038.535"/>
        </g>
    </g>
</svg>
