<svg xmlns="http://www.w3.org/2000/svg" viewBox="0 0 60 60">
    <defs>
        <filter id="1NG_svg__a" color-interpolation-filters="sRGB">
            <feFlood flood-color="#000" flood-opacity=".498" result="flood"/>
            <feComposite in="flood" in2="SourceGraphic" operator="in" result="composite1"/>
            <feGaussianBlur in="composite1" result="blur" stdDeviation="1"/>
            <feOffset dx="3" dy="3" result="offset"/>
            <feComposite in="SourceGraphic" in2="offset" result="composite2"/>
        </filter>
    </defs>
    <g stroke-width="1.667">
        <g filter="url(#1NG_svg__a)" opacity=".99">
            <path fill="#feec99" d="m30 50.758 12.853-3.83 6.493-40.07H10.653l6.732 40.07z"/>
            <path fill="#c3983c" fill-opacity=".992" d="M17.385 49.31v-2.382L30 50.758l12.852-3.83v2.38L30 53.14z"/>
        </g>
        <g opacity=".99">
            <path fill="#fecece" d="M25.9 14.014c-.445.537-.067.59 2.063.287 4.773-.68 7.152-.525 8.424.554l1.18.999-1.204 1.02c-.662.56-1.539 1.206-1.947 1.435-.651.363-.642.559.07 1.575.725 1.037.732 1.25.057 1.995-.683.753-.633.915.509 1.663 2.046 1.34 1.542 1.846-1.482 1.492-2.576-.303-2.75-.256-2.75.745 0 .746.312 1.068 1.033 1.068 1.198 0 2.966.853 2.966 1.43 0 .528-7.867 2.205-8.501 1.813-1.046-.646-.48-2.151 1.005-2.668 1.986-.693 2.065-2.163.097-1.769-.932.186-1.616.022-2.042-.49-.777-.937-.326-1.814.934-1.814 1.43 0 2.51-.538 2.51-1.252 0-.408-.592-.617-1.623-.57-1.144.052-1.624-.15-1.624-.677 0-.414.726-.962 1.624-1.227 1.028-.303 1.624-.797 1.624-1.349 0-.71-.532-.898-2.873-1.021-2.522-.131-2.893-.284-3.03-1.246-.112-.795.256-1.307 1.35-1.874 1.84-.95 2.35-.987 1.63-.119m5.5 3.81-.168 1.183 1.66-1.05c2.226-1.411 2.355-2.064.325-1.65-1.229.249-1.69.634-1.817 1.517m-.078 3.83c0 .527.27.698.789.5.435-.168.997-.304 1.25-.304.251 0 .458-.224.458-.5s-.561-.5-1.25-.5c-.813 0-1.248.281-1.248.804zm9.743 5.843c-3.75 3.149-7.1 6.84-8.36 9.212l-1.125 2.116 1.119.785c1.457 1.02 1.417 1.633-.133 2.022-.792.2-1.723.006-2.534-.525-1.054-.69-1.252-1.162-1.122-2.674.157-1.824.133-1.849-4.447-4.587-6.179-3.693-7.633-5.018-7.633-6.954 0-1.155.228-1.544.9-1.544.897 0 4.531 2.948 9.423 7.644l2.578 2.474 3.437-3.436c2.958-2.957 8.616-6.737 9.965-6.657.236.014-.695.97-2.068 2.124"/>
            <path fill="#feb0b0" d="M35.943 14.362c1.448.898 1.048 2.38-.913 3.385-1.577.808-1.695.995-1 1.572.886.735 1.049 2.311.29 2.78-.802.495-.581 1.156.499 1.5.55.175.998.606.998.959 0 .471-.67.579-2.498.404-2.289-.221-2.498-.153-2.498.821 0 .741.312 1.064 1.033 1.064 1.194 0 2.965.853 2.965 1.428 0 .4-5.223 1.621-7.482 1.75-1.876.106-1.906-1.45-.045-2.413 2.02-1.044 2.098-2.468.111-2.032-.935.206-1.62.071-2.005-.394-.722-.87.067-1.657 1.92-1.914.709-.099 1.317-.558 1.414-1.066.138-.72-.063-.836-1.03-.594-.777.196-1.429.028-1.844-.47-.546-.657-.44-.85.694-1.282.734-.28 1.547-.509 1.803-.509.258 0 .468-.437.468-.973 0-.819-.409-.996-2.572-1.124-3.07-.18-4.355-1.452-2.705-2.679 1.173-.87 2.486-.96 1.975-.134q-.358.581.438.278c1.65-.634 9.108-.9 9.984-.357m-3.748 1.985c-.6.005-.874.403-.874 1.268 0 1.225.042 1.24 1.41.533.776-.4 1.732-1.12 2.123-1.598.651-.793.604-.84-.535-.54-.688.182-1.643.333-2.124.337m-.874 5.057c0 .994.4 1.144 1.708.643 1.224-.47.931-1.438-.46-1.519-.917-.052-1.248.18-1.248.876m-6.977 9.12 5.765 5.178 1.481-1.976c1.493-1.993 6.22-5.835 8.863-7.2 2.815-1.456 2.3-.378-1.224 2.569-3.528 2.949-7.37 7.76-7.395 9.257-.008.42.48 1.187 1.082 1.703l1.097.938-1.147.424c-.737.273-1.62.196-2.471-.215-1.052-.509-1.324-.995-1.329-2.376-.002-.955-.177-2.005-.386-2.333s-2.105-1.548-4.213-2.711c-5.15-2.844-7.734-5.203-7.537-6.888.083-.708.488-1.346.9-1.418.411-.07 3.344 2.2 6.514 5.048"/>
            <path fill="#fe8e8e" d="M35.693 14.343c1.67.713 1.395 2.207-.607 3.286-1.551.835-1.656 1.018-1 1.741.963 1.064.932 2.435-.062 2.817-.65.249-.537.514.625 1.464l1.419 1.16-2.623.019c-2.285.015-2.624.148-2.624 1.017 0 .647.334.999.944.999.52 0 1.475.443 2.123.983l1.18.983-1.25.022c-.686.013-2.45.343-3.917.733-1.468.39-2.985.59-3.373.441-1.205-.463-.772-1.723.795-2.315 1.853-.699 2.182-2.626.37-2.17-.62.155-1.44.09-1.82-.146-1.061-.655-.278-1.937 1.292-2.117.896-.102 1.464-.5 1.578-1.102.147-.778-.037-.887-1.063-.629-.803.202-1.459.05-1.852-.425-.505-.608-.38-.825.724-1.244.734-.28 1.547-.509 1.804-.509.256 0 .467-.437.467-.973 0-.819-.409-.996-2.572-1.124-3.07-.18-4.355-1.452-2.705-2.679 1.162-.861 2.486-.96 1.983-.147-.244.395.018.483.845.282 2.485-.601 8.237-.828 9.319-.367m-3.44 2.004c-.721.006-1.686 1.918-1.208 2.395.308.31 3.052-1.27 3.81-2.192.65-.793.603-.84-.536-.54-.688.182-1.616.333-2.065.337zm-.931 5.057c0 .994.4 1.144 1.707.643 1.224-.47.931-1.438-.46-1.519-.917-.052-1.248.18-1.248.876zm-9.665 6.867a700.063 700.1 90 0 1 5.844 5.147l2.426 2.173 3.822-3.748c3.237-3.173 8.22-6.528 8.797-5.922.092.097-1.319 1.414-3.137 2.928-3.564 2.967-6.919 7.01-7.423 8.944-.213.815-.048 1.394.51 1.803 1.273.931.977 1.74-.639 1.74-2.073 0-3.188-1.272-2.823-3.22.287-1.529.186-1.63-4.227-4.203-5.983-3.49-8.074-5.341-7.877-6.977.082-.694.411-1.347.73-1.452.32-.105 2.119 1.149 3.997 2.786z"/>
            <path fill="#fe6f6f" d="M35.693 14.436c.618.314 1.124.859 1.124 1.209 0 .637-2.024 2.466-3.143 2.839-.407.136-.321.472.275 1.068 1.068 1.07 1.122 2.233.12 2.617-.94.36-.982 1.18-.06 1.18.378 0 .967.337 1.309.75.539.649.28.749-1.937.749-2.226 0-2.56.13-2.56 1 0 .646.334.998.944.998.52 0 1.475.443 2.123.983l1.18.983-1.544.017c-.85.009-2.614.338-3.921.731-1.308.393-2.693.595-3.077.447-1.203-.462-.77-1.722.797-2.314 1.833-.692 2.12-2.467.375-2.326-1.885.153-2.373.01-2.373-.696 0-.373.73-.886 1.62-1.142 2.011-.577 2.717-2.498.735-2-.785.197-1.455.054-1.823-.389-.647-.78-.409-1.001 1.591-1.479.996-.238 1.375-.639 1.375-1.457 0-1.008-.205-1.107-1.944-.942-3.462.33-5.396-1.635-2.78-2.827 1.598-.728 1.877-.73 1.427-.001-.263.425.291.485 2.094.227 5.069-.726 6.98-.78 8.073-.225m-4.494 2.242c-.538.334-.47 2.174.081 2.174.82 0 3.516-1.73 3.787-2.43.207-.537-.135-.607-1.613-.33-1.032.195-2.046.458-2.255.586m.122 4.713c0 .78.27.99 1.119.869 1.612-.23 1.728-1.662.145-1.793-.976-.081-1.264.129-1.264.924m-8.944 7.55c2.265 2.009 4.91 4.345 5.877 5.192l1.757 1.54 2.854-3.039c2.648-2.821 6.845-5.813 9.198-6.553.68-.213.519.056-.499.838-4.888 3.763-9.744 9.545-9.744 11.604 0 .466.338.976.75 1.133 1.342.517.847 1.68-.714 1.68-2.07 0-3.131-1.22-2.763-3.18.292-1.56.219-1.63-4.953-4.705-5.48-3.259-7.455-5.117-7.207-6.786.272-1.826 1.3-1.396 5.443 2.276z"/>
            <path fill="#fe4f4f" d="M35.142 14.352c.59.238 1.23.688 1.424.999.406.659-1.1 2.502-2.045 2.502-1.06 0-1.318.954-.483 1.788.987.988 1.003 2.154.03 2.528-.938.36-.981 1.18-.06 1.18.379 0 .968.337 1.31.75.539.649.28.749-1.937.749-2.226 0-2.56.13-2.56 1 0 .646.334.998.944.998.52 0 1.475.443 2.123.983l1.18.983-1.498.022c-.825.013-2.66.333-4.08.71-1.857.493-2.732.535-3.123.144-.878-.878-.637-1.362.956-1.917 2.234-.778 2.063-2.424-.25-2.424-2.37 0-2.287-1.19.126-1.784 1.386-.344 1.874-.724 1.874-1.464 0-.965-.124-.994-2.436-.578-.242.044-.542-.206-.67-.556-.136-.37.41-.859 1.312-1.173 1.116-.39 1.544-.853 1.544-1.677 0-1.043-.18-1.12-2.125-.912-1.46.158-2.435-.017-3.123-.56-.992-.784-.99-.797.208-1.81.917-.775 1.3-.87 1.593-.393.311.501 1.104.506 3.926.022 4.048-.695 4.378-.7 5.84-.11m-3.943 2.326c-.207.13-.378.79-.378 1.47v1.234l1.99-1.14c2.79-1.596 3.093-2.608.643-2.15-1.032.195-2.046.458-2.255.586m-.286 4.797c-.12.64.163.876 1.06.876 1.294 0 2.58-1.099 1.986-1.695-.664-.662-2.877-.067-3.046.82m-10.296 5.97a345.827 345.845 90 0 1 5.86 5.228l3.4 3.105 3.345-3.393c2.88-2.92 7.97-6.519 9.242-6.533.221-.002-.903 1.083-2.498 2.412-3.74 3.12-6.35 6.034-7.604 8.494-.994 1.948-.994 1.968-.022 2.848 1.355 1.226 1.226 1.73-.443 1.73-2.05 0-3.402-1.632-2.674-3.23.647-1.419.228-1.797-5.547-4.995-4.401-2.437-6.976-4.844-6.76-6.321.258-1.764 1.066-1.622 3.701.654z"/>
            <path fill="#fe2f2f" d="M34.657 14.194c1.322.27 2.364 1.425 1.926 2.135-.177.285-.814.782-1.418 1.103-.996.531-1.032.508-.4-.259.973-1.178.449-1.473-1.911-1.075-1.839.311-2.033.485-2.033 1.811v1.468l1.624-.84c1.495-.771 1.569-.774.938-.012-.587.707-.577.826.072.826.691 0 1.364.98 1.364 1.986 0 .224-.393.556-.876.739-.7.267-.75.209-.249-.296 1.044-1.052.707-1.5-.999-1.336-1.239.12-1.625.393-1.625 1.156 0 .674.285.952.876.853.48-.08.874.087.874.375 0 .286.294.521.654.521s1.09.345 1.624.766c.901.712.793.756-1.528.625-2.231-.127-2.515-.026-2.652.937-.121.844.17 1.149 1.339 1.406.821.18 1.737.621 2.035.98.43.519 0 .727-2.09 1.006-4.419.592-6.021.564-6.251-.109-.123-.365.441-.864 1.328-1.174 2.272-.792 2.134-2.438-.206-2.438-1.22 0-1.748-.227-1.748-.75 0-.424.448-.75 1.032-.75 1.58 0 2.965-.927 2.965-1.984 0-.814-.261-.908-1.816-.656-1.422.232-1.765.143-1.582-.406.128-.386.664-.78 1.19-.88 1.44-.269 2.133-1.004 1.874-1.991-.182-.696-.759-.886-2.702-.886-3.192 0-4.174-.882-2.503-2.247.879-.719 1.306-.824 1.574-.39.337.546 3.053.447 7.192-.26.562-.095 1.51-.075 2.108.046m4.02 15.134c-3.663 3.416-6.281 6.644-7.012 8.65-.206.567.034 1.194.666 1.734 1.374 1.178 1.236 1.624-.499 1.624-1.923 0-3.352-1.924-2.546-3.43.612-1.142.204-1.497-5.71-4.962-4.575-2.681-6.134-4.047-6.53-5.723-.736-3.112 2.306-1.287 9.585 5.752l3.056 2.955 3.69-3.667c2.03-2.016 4.926-4.315 6.439-5.11l2.748-1.444z"/>
            <path fill="#fe0404" d="M36.272 15.049c.738.891.415 1.58-1.107 2.363-.903.465-.987.447-.471-.097.927-.981.76-1.461-.5-1.454-2.484.015-3.373.556-3.373 2.05 0 1.687.101 1.717 1.891.575 1.287-.821 1.322-.821.671 0-.591.747-.574.865.125.865.446 0 .811.225.811.5 0 .276-.788.5-1.75.5-1.552 0-1.748.146-1.748 1.307 0 1.062.188 1.258 1 1.046.549-.143.998-.056.998.192 0 .25.295.453.655.453s1.09.348 1.624.772c.898.714.779.749-1.586.462-2.126-.258-2.61-.166-2.881.54-.433 1.127.457 2.127 2.062 2.319 3.604.429.372 1.814-4.87 2.087-1.792.094-1.901-.808-.203-1.685 2.115-1.094 1.967-2.687-.254-2.72-.937-.015-1.798-.307-1.914-.651-.125-.37.224-.624.864-.624 1.644 0 3.007-.924 3.007-2.04 0-.883-.219-.963-1.814-.663-2.337.437-2.142-.797.224-1.411 1.246-.323 1.589-.678 1.589-1.646 0-1.177-.142-1.235-2.998-1.235-2.665 0-2.998-.112-2.998-1 0-.55.168-1.004.375-1.01.205-.006 2.976-.134 6.156-.284 4.803-.226 5.89-.144 6.415.489m-12.027 15.81 5.611 5.05 3.381-3.406c1.86-1.874 4.607-4.048 6.105-4.831l2.721-1.422-1.748 1.383c-2.992 2.366-6.845 6.684-8.07 9.044l-1.175 2.259 1.125.762c1.404.95 1.443 1.638.092 1.638-2.005 0-3.045-.956-2.898-2.666.076-.877-.025-1.858-.224-2.18s-2.365-1.732-4.812-3.131c-5.932-3.396-8.997-6.911-6.454-7.405.404-.079 3.26 2.13 6.346 4.906"/>
        </g>
    </g>
</svg>
