<svg xmlns="http://www.w3.org/2000/svg" viewBox="0 0 52.157 52.157">
    <g opacity=".99">
        <path fill="#fdd3e3" fill-opacity=".992" stroke="#000" stroke-width="1.044" d="m-11.54 7.386-13.14 4.634-6.169 42.276H7.767L1.598 12.02z" transform="matrix(-1.04053 0 0 -.96762 14.07 55.905)"/>
        <path fill="none" stroke="#ffffe5" stroke-width=".658" d="m34.978 14.98.29 2.917"/>
        <path fill="none" stroke="#fff" stroke-width=".658" d="M31.603 17.693H20.866"/>
        <path stroke="#000" stroke-linecap="round" stroke-linejoin="round" stroke-width=".604" d="M21.4 18.396a4.86 6.037 0 0 0 .029.153 4.86 6.037 0 0 0 .153.574 4.86 6.037 0 0 0 .199.55 4.86 6.037 0 0 0 .241.523 4.86 6.037 0 0 0 .283.492 4.86 6.037 0 0 0 .32.454 4.86 6.037 0 0 0 .357.41 4.86 6.037 0 0 0 .386.366 4.86 6.037 0 0 0 .414.315 4.86 6.037 0 0 0 .437.262 4.86 6.037 0 0 0 .457.207 4.86 6.037 0 0 0 .471.15 4.86 6.037 0 0 0 .48.09 4.86 6.037 0 0 0 .486.03 4.86 6.037 0 0 0 .343-.014 4.86 6.037 0 0 0 .482-.074 4.86 6.037 0 0 0 .475-.132 4.86 6.037 0 0 0 .46-.19 4.86 6.037 0 0 0 .444-.246 4.86 6.037 0 0 0 .422-.301 4.86 6.037 0 0 0 .395-.352 4.86 6.037 0 0 0 .365-.397 4.86 6.037 0 0 0 .331-.442 4.86 6.037 0 0 0 .295-.48 4.86 6.037 0 0 0 .253-.515 4.86 6.037 0 0 0 .212-.543 4.86 6.037 0 0 0 .166-.567 4.86 6.037 0 0 0 .067-.323z"/>
        <path stroke="#000" stroke-linecap="round" stroke-linejoin="round" stroke-width=".658" d="M37.194 34.439v-16.76h-2.576a9 9 0 0 1-.044.291 9 9 0 0 1-.217.85 9 9 0 0 1-.3.826 9 9 0 0 1-.383.79 9 9 0 0 1-.459.749 9 9 0 0 1-.532.7 9 9 0 0 1-.598.642 9 9 0 0 1-.661.58 9 9 0 0 1-.714.51 9 9 0 0 1-.762.438 9 9 0 0 1-.801.359 9 9 0 0 1-.834.276 9 9 0 0 1-.857.193 9 9 0 0 1-.872.106 9 9 0 0 1-.621.022 9 9 0 0 1-.878-.044 9 9 0 0 1-.868-.131 9 9 0 0 1-.852-.218 9 9 0 0 1-.824-.3 9 9 0 0 1-.792-.383 9 9 0 0 1-.748-.459 9 9 0 0 1-.7-.532 9 9 0 0 1-.642-.598 9 9 0 0 1-.58-.66 9 9 0 0 1-.511-.714 9 9 0 0 1-.436-.762 9 9 0 0 1-.36-.802 9 9 0 0 1-.277-.833 9 9 0 0 1-.191-.858l-.006-.039h-2.335v16.76z"/>
        <path stroke="#000" stroke-linejoin="round" stroke-width=".539" d="M16.029 16.583h-2.636l.6 1.094.49.02h1.624a12 12 0 0 1-.072-.843q-.004-.135-.006-.271zm20.084 1.099 1.637-.001.568.005.563-1.112h-2.694q-.003.264-.017.527-.023.293-.057.581z"/>
        <path stroke="#000" stroke-width=".539" d="m16.044 14.78-2.668.01.003 1.508 2.593-.002a6.017 7.717 0 0 1-.009-.311 6.017 7.717 0 0 1 .03-.77 6.017 7.717 0 0 1 .051-.434zm20.046 1.59 2.805-.004-.007-1.585-2.867.01a5.926 7.895 0 0 1 .065.714 5.926 7.895 0 0 1 .015.558 5.926 7.895 0 0 1-.011.307z"/>
        <path stroke="#000" stroke-width=".718" d="M30.886 17.795a4.794 9.913 0 0 0 .013-.566 4.794 9.913 0 0 0-.011-.702 4.794 9.913 0 0 0-.058-.984 4.794 9.913 0 0 0-.069-.636l-9.316.048a4.794 9.913 0 0 0-.037.304 4.794 9.913 0 0 0-.072.98 4.794 9.913 0 0 0-.024.99 4.794 9.913 0 0 0 .01.58z"/>
        <path stroke="#000" stroke-linejoin="round" stroke-width=".658" d="M37.204 34.438c1.757 1.287 1.863 2.01 2.506 3.569-9.234-.955-18.546-1.091-27.263 0 .629-2.064.745-2.374 2.454-3.569z"/>
        <path stroke="#000" stroke-linecap="round" stroke-linejoin="round" stroke-width=".539" d="M26.08 25.68a8.787 8.787 0 0 0 8.786-8.787 8.787 8.787 0 0 0-8.787-8.788 8.787 8.787 0 0 0-8.788 8.788 8.787 8.787 0 0 0 8.788 8.787zm0-2.777a5.793 6.01 0 0 1-5.794-6.01 5.793 6.01 0 0 1 5.793-6.01 5.793 6.01 0 0 1 5.792 6.01 5.793 6.01 0 0 1-5.792 6.01z"/>
        <path fill="none" stroke="#000" stroke-width=".658" d="M26.02 16.37v-6.198"/>
        <path fill="#fff" stroke="#fdd3e3" stroke-opacity=".992" stroke-width=".957" d="M37.553 33.623H14.604"/>
        <path fill="none" stroke="#000" stroke-width=".658" d="m30.269 12.209-4.161 4.219-4.35-4.35"/>
        <path fill="#fff" stroke="#fcc7dc" stroke-opacity=".988" stroke-width=".838" d="M39.22 16.29h-3.224"/>
        <path fill="#fff" stroke="#fdd3e3" stroke-opacity=".992" stroke-width=".658" d="M31.164 16.29H20.985"/>
        <path fill="#fff" stroke="#fcc7dc" stroke-opacity=".988" stroke-width=".838" d="M16.113 16.29h-3.048"/>
        <path fill="none" stroke="#fdd3e3" stroke-opacity=".992" stroke-width=".658" d="M26.05 14.713v8.028"/>
        <path fill="#fff" stroke="#fdd3e3" stroke-opacity=".992" stroke-width=".658" d="m24.55 14.846 5.614 5.842"/>
        <path fill="none" stroke="#fdd3e3" stroke-opacity=".992" stroke-width=".658" d="m27.758 14.734-5.811 5.913"/>
        <path fill="none" stroke="#fdd3e3" stroke-linejoin="bevel" stroke-opacity=".992" stroke-width=".658" d="M21.602 14.386a5.34 5.34 0 0 0 .986 6.948 5.34 5.34 0 0 0 7.017-.032 5.34 5.34 0 0 0 .923-6.956"/>
        <path fill="none" stroke="#fdd3e3" stroke-opacity=".992" stroke-width=".658" d="M31.133 17.805H21.037"/>
        <path fill="none" stroke="#fdd3e3" stroke-linejoin="bevel" stroke-opacity=".992" stroke-width="1.077" d="M16.855 14.424a9.495 9.495 0 0 0 3.851 10.08 9.495 9.495 0 0 0 10.79-.032A9.495 9.495 0 0 0 35.29 14.37"/>
        <path fill="#fdd3e3" fill-opacity=".992" stroke="#fdd3e3" stroke-opacity=".992" stroke-width="1.077" d="M37.584 18.546h-1.752m-19.502 0h-1.75"/>
    </g>
</svg>
