<svg xmlns="http://www.w3.org/2000/svg" viewBox="0 0 52.157 52.157">
    <path fill="#fee572" stroke="#000" stroke-width=".878" d="M26.08 5.256 14.845 8.985l-5.882 37.94h34.229L37.31 8.985z" opacity=".99"/>
    <g opacity=".98">
        <path fill="red" stroke="red" stroke-width="4.938" d="M372.14 1666.57v-346.55h15v346.55z" transform="matrix(-.06275 0 0 .04583 49.94 -41.436)"/>
        <g stroke="red" stroke-width="4.938">
            <path fill="#ffdf00" stroke-width="7.525" d="m373.444 1325.142-13.45-8.57 2.65-111.341 16.688-28.568 17.542 27.755 2.373 111.247-13.382 9.224z" transform="matrix(-.04427 0 0 .03233 42.927 -22.995)"/>
            <path fill="none" stroke-width="6.02" d="M379.551 1181.017v105.099l16.535 13.127m-16.535-13.127-16.317 14.496" transform="matrix(-.04427 0 0 .03233 42.927 -22.995)"/>
        </g>
        <path fill="red" d="M26.12 20.487a7.364 7.364 0 0 1 7.364 7.363 7.364 7.364 0 0 1-7.364 7.364 7.364 7.364 0 0 1-7.363-7.364 7.364 7.364 0 0 1 7.363-7.363m0 1.605a5.76 5.76 0 0 0-5.757 5.758 5.76 5.76 0 0 0 5.757 5.757 5.76 5.76 0 0 0 5.758-5.757 5.76 5.76 0 0 0-5.758-5.758"/>
        <path fill="red" stroke="red" stroke-width="6.371" d="M372.14 1666.57v-346.55h15v346.55z" transform="matrix(-.06275 0 0 -.04583 49.94 97.187)"/>
        <g stroke="red" stroke-width="4.938">
            <path fill="#ffdf00" stroke-width="7.525" d="m373.444 1325.142-13.45-8.57 2.65-111.341 16.688-28.568 17.542 27.755 2.373 111.247-13.382 9.224z" transform="matrix(-.04427 0 0 -.03233 42.925 78.747)"/>
            <path fill="none" stroke-width="6.02" d="M379.551 1181.017v105.099l16.535 13.127m-16.535-13.127-16.317 14.496" transform="matrix(-.04427 0 0 -.03233 42.925 78.747)"/>
        </g>
        <path fill="red" stroke="red" stroke-width="6.371" d="M372.14 1666.57v-346.55h15v346.55z" transform="rotate(135 4.968 -20.195)scale(.06275 -.04582)"/>
        <path fill="red" stroke="red" stroke-width="6.371" d="M372.14 1666.57v-346.55h15v346.55z" transform="rotate(45 75 51.359)scale(.06275 .04582)"/>
        <path fill="red" stroke="red" stroke-width="4.938" d="M372.14 1666.57v-346.55h15v346.55z" transform="matrix(0 -.06275 -.04583 0 94.948 51.671)"/>
        <g stroke="red" stroke-width="4.938">
            <path fill="#ffdf00" stroke-width="7.525" d="m373.444 1325.142-13.45-8.57 2.65-111.341 16.688-28.568 17.542 27.755 2.373 111.247-13.382 9.224z" transform="matrix(0 -.04427 -.03233 0 77.014 44.657)"/>
            <path fill="none" stroke-width="6.02" d="M379.551 1181.017v105.099l16.535 13.127m-16.535-13.127-16.317 14.496" transform="matrix(0 -.04427 -.03233 0 77.014 44.657)"/>
        </g>
        <path fill="red" stroke="red" stroke-width="5.575" d="M372.14 1666.57v-346.55h15v346.55z" transform="matrix(0 -.06275 .04583 0 -42.741 51.671)"/>
        <g stroke="red" stroke-width="4.938">
            <path fill="#ffdf00" stroke-width="7.525" d="m373.444 1325.142-13.45-8.57 2.65-111.341 16.688-28.568 17.542 27.755 2.373 111.247-13.382 9.224z" transform="matrix(0 -.04427 .03233 0 -24.857 44.657)"/>
            <path fill="none" stroke-width="6.02" d="M379.551 1181.017v105.099l16.535 13.127m-16.535-13.127-16.317 14.496" transform="matrix(0 -.04427 .03233 0 -24.857 44.657)"/>
        </g>
        <g stroke="red" stroke-width="4.938">
            <path fill="#ffdf00" stroke-width="7.525" d="m373.444 1325.142-13.45-8.57 2.65-111.341 16.688-28.568 17.542 27.755 2.373 111.247-13.382 9.224z" transform="rotate(-45 -6.628 28.025)scale(.04426 .03233)"/>
            <path fill="none" stroke-width="6.02" d="M379.551 1181.017v105.099l16.535 13.127m-16.535-13.127-16.317 14.496" transform="rotate(-45 -6.628 28.025)scale(.04426 .03233)"/>
        </g>
        <g stroke="red" stroke-width="4.938">
            <path fill="#ffdf00" stroke-width="7.525" d="m373.444 1325.142-13.45-8.57 2.65-111.341 16.688-28.568 17.542 27.755 2.373 111.247-13.382 9.224z" transform="rotate(45 32.873 91.385)scale(-.04426 .03233)"/>
            <path fill="none" stroke-width="6.02" d="M379.551 1181.017v105.099l16.535 13.127m-16.535-13.127-16.317 14.496" transform="rotate(45 32.873 91.385)scale(-.04426 .03233)"/>
        </g>
    </g>
</svg>
