<svg xmlns="http://www.w3.org/2000/svg" viewBox="0 0 100 100">
    <g filter="drop-shadow(6px 3px 1px rgba(0,0,0,0.5))">
        <g filter="drop-shadow(1px 1px 0.35px rgba(0, 0, 0, .5))">
            <path fill="#c3983c" d="M24.577 86.418v-4.545l25.337 7.886 25.336-7.886v4.545l-25.336 7.886z"/>
            <path fill="#feec99" d="m49.909 92.164 25.34-7.887L88.265 5.518H11.559l13.018 78.755z"/>
        </g>
        <path fill="red" d="m53.682 19.968-1.46 9.218-3.1.873-3.004-.832-1.554-9.259Zm-14.364 5.273a2.727 2.727 0 1 1-5.454-.01 2.727 2.727 0 0 1 5.454.01m25.05 0a2.727 2.727 0 1 1-5.454-.01 2.727 2.727 0 0 1 5.454.01M51.91 37.63a2.723 2.723 0 1 1-5.44.005 2.723 2.723 0 0 1 5.44-.004m0-25.237a2.727 2.727 0 1 1-5.45 0 2.727 2.727 0 0 1 5.45 0m5.377 7.514 7.787-7.968L62.063 9l-7.786 7.968Zm4.782 21.118 3-2.95-7.823-7.963-3 2.95zm-20.918-21.1 2.973-2.977-7.973-7.968-2.973 2.977Zm0 10.168 2.977 2.978-7.972 7.963-2.978-2.977Zm10.532 21.541q-.282.668-.282 1.428-2.564 2.99-4.364 2.99-.909 0-3.231-1.331-3.469-2.182-5.173-2.182.759-1.137 2.086-2.518 1.71-.378 2.61-.378 5.554 0 8.358 1.996zm3.372 5.464q-1.472.332-4.318 1.564-1.804 1-2.895 3.04-5.364 1.378-12.486 1.378.377-4.7 2.227-8.546.24 2.041 1.568 3.228 1.664 1.231 4.086 1.231 4.273 0 6.123-1.945 2.277-1.232 3.986-1.755 1 1.328 1.71 1.805m1.568 13.527q-.046 2.282-.382 4.605-2.705-.996-3.7-.996-.905 0-1.568.091l3.513-2.513-4.227 1.331v-1.472q3.227-.664 6.364-1.046m.236 9.591q-1.71-.427-2.514-.427-.904 0-3.181.332.19-.569.19-.805 0-.477-1.09-.854v-1q3.181-.9 5.79-.9.091 2.136.805 3.654m.095-16.709q0 .995-.19 5.268-2.991-1.045-3.7-1.045-.764 0-1.71.14 1.755-1.327 4.41-2.94-2.137.236-5.5 1.659l.186-1.896q5.318-1.136 6.504-1.186m8.023-9.59q.568 2.467 1.137 2.467 1.236 0 1.759-1.236.904-2.041.904-3.368 0-2.232-1.19-3.418-1.946-1.519-3.605-1.519-1.805 0-2.518 3.228-.76 1.709-1.614 3.559-.664.759-1.282.759-.804 0-1.804-1.85-1.473-2.046-3.087-2.046-.804 0-1.423.573-3.136-4.127-8.404-6.836-.76-1.614-2.182-1.614-2.85 0-6.077 3.323-2.896 3.227-5.127 13.39-1 1.283-1 2.137 0 1.327 1.618 3.036 1.754 1.85 2.85 1.85.854 0 2.09-.14 4.696-.191 10.964-.905l-.24 2.85q-2.514 1.09-4.7 1.518-1.946.427-1.946 1.427 0 1.66 3.182 2.278.663 0 3.322-.81l-.236 1.95q-1.9.664-3.986 1.232-1.855.523-1.855 1.428 0 1.468 2.71 1.709.613 0 2.895-.337 0 1.378.427 2.182-4.036.478-6.268.955-1.9.568-1.9 1.659 0 1.427 1.377 2.377 1.518 1.091 3.373 1.091.759 0 2.277-1.282 7.218-1.995 11.818-2.327 1.568.523 1.95.523.664 0 .664-.523 0-.286-.191-.76 1.9 0 1.9-.808 0-.664-1.186-1.71 0-2.563.713-7.927.614-4.363.664-7.831 0-1.9-.76-3.705-1.281-1.99-2.754-1.99-1.327 0-1.995 1.895-1.046-.378-3.605-.378 1.423-1.427 3.368-2.518.664.096 1.046.096.759 0 2.514-2.041 2.422-1.755 4.559-2.66z"/>
    </g>
</svg>
