<svg xmlns="http://www.w3.org/2000/svg" viewBox="0 0 100 100">
    <g filter="drop-shadow(6px 3px 1px rgba(0,0,0,0.5))">
        <path fill="#c3983c" d="M27.132 82.318v-4.545l22.782 8.436 22.781-8.432v4.546l-22.781 8.431z"/>
        <path fill="#feec99" d="m49.914 88.614 22.781-8.432 9.887-71.114H17.245l9.887 71.11z"/>
        <path fill="red" d="m53.168 24.782-.982 6.182-2.082.586-2.004-.56-1.046-6.208zm-12.913 3.382a2.71 2.71 0 1 1-5.419 0 2.71 2.71 0 0 1 5.419 0m24.904 0a2.71 2.71 0 1 1-5.418 0 2.71 2.71 0 0 1 5.418 0M40.255 40.482a2.71 2.71 0 1 1-5.419 0 2.71 2.71 0 0 1 5.419 0m24.904 0a2.71 2.71 0 1 1-5.418 0 2.71 2.71 0 0 1 5.418 0m-12.386 0a2.71 2.71 0 1 1-5.414 0 2.71 2.71 0 0 1 5.418 0zm0-25.082a2.71 2.71 0 1 1-5.414 0 2.71 2.71 0 0 1 5.418 0z"/>
        <path fill="red" d="m54.418 22.895-1.454 9.219-3.105.872-2.99-.831-1.555-9.26zM41.186 67.273q.65-.846 2.91-1.855 2.222-.968 2.463-1.29-.318-2.628-.159-3.96-1.255-1.09-1.495-2.264.363-1.29 2.018-3.272 1.654-1.941 2.063-3.068-.727-.728-3.718-1.455-2.663-.65-3.636-2.264.04-.645 1.213-1.05 1.169-.445 6.137-1.372 4.972-.968 5.94-.973 1.737 0 2.182 1.736-.204.968-1.29 2.228-1.255 1.372-1.537 2.136.405.327 2.5.409 1.905.036 1.905 1.773 0 1.136-1.255 2.545-1.29 1.455-3.759 2.827-2.095 1.137-4.2 2.228-.24 1.168-.24 2.136 0 .41.04.686 1.091-.318 5.168-2.381 3.114-1.573 5.373-1.537h.286q.728.364.728 1.05 0 1.296-3.596 4.164v-.686l.282-.891q-1.577.409-4.323 1.94-2.586 1.455-3.959 2.623-.204.528-.204 1.01 0 .445.204.808 2.991-1.936 5.496-2.545l-5.255 5.173q1.618.24 2.91 1.454 1.295 1.25 1.29 2.828 0 .686-.727 2.463l-1.046 2.51q-.968-.287-2.227-1.055-1.532-.928-1.532-1.655 0-.286.81-1.254.804-.969.804-1.573 0-.205-.036-.364-.364-.082-.85-.082t-1.496.082-1.536.082q-3.068 0-2.95-1.9v-.282q.69-.486 2.709-1.536 1.736-.891 2.586-1.66-1.05-.563-3.113-1.008a68 68 0 0 0-2.219-.2q-1.09-.205-1.659-1.455m9.05-9.654v.081q4.082-1.136 5.9-3.154.646-.727.646-1.214 0-.282-.323-.4a2.7 2.7 0 0 0-.61-.082q-2.017 0-3.835 1.414-1.86 1.455-1.773 3.355m-.65-8.487q0 .568.323 1.173 1.331-1.455 2.181-2.223a.9.9 0 0 0-.281-.04q-.773 0-2.182.727-.041.163-.041.363"/>
    </g>
</svg>
