<svg xmlns="http://www.w3.org/2000/svg" viewBox="0 0 100 100">
    <g filter="drop-shadow(6px 3px 1px rgba(0,0,0,0.5))">
        <path fill="#c3983c" d="M26.745 84.318v-4.545l23.169 7.145 23.159-7.109v4.545l-23.16 7.11z"/>
        <path fill="#feec99" d="m49.909 89.323 23.164-7.11 12.35-73.85H14.4l12.345 73.819z"/>
        <path fill="red" d="m52.182 22.082-.978 6.182-2.081.586-2.005-.56-1.045-6.208zm-12.91 3.382a2.71 2.71 0 1 1-5.417 0 2.71 2.71 0 0 1 5.418 0m24.904 0a2.71 2.71 0 1 1-5.418 0 2.71 2.71 0 0 1 5.418 0M39.273 37.782a2.71 2.71 0 1 1-5.418 0 2.71 2.71 0 0 1 5.418 0m24.904 0a2.71 2.71 0 1 1-5.418-.005 2.71 2.71 0 0 1 5.418.005m-12.382 0a2.71 2.71 0 1 1-5.418 0 2.71 2.71 0 0 1 5.418 0m0-25.087a2.71 2.71 0 1 1-5.418 0 2.71 2.71 0 0 1 5.418 0"/>
        <path fill="red" d="m53.573 20.19-1.455 9.224-3.104.872-2.991-.831-1.564-9.264zM33.636 66.954q0-.363.241-.727.81-.527 1.86-.809 1.008-.282 1.977-.523.686-.286 2.022-.809 1.573-.609 4.4-1.336l.687.082-2.5 2.345q-1.578 1.537-1.741 2.787.527.522 3.354.522 5.21 0 9.25-2.136 3.555-1.864 7.314-6.105l1.859-2.181q1.132-1.291 2.018-1.937 1.173.81 1.173 3.15 0 1.214-1.777 3.596-.164.24-4 4.604-3.073 3.477-3.878 4.446-2.304 2.827-3.354 4.804.604 1.214 1.29 1.577-.563.282-1.09.569-.764.363-1.091.363-1.936 0-2.746-1.213 0-1.9 1.619-4 .522-.728 3.227-3.596 2.023-2.136 2.59-3.513-3.881 2.463-6.872 3.39-3.19 1.014-7.55 1.014-1.5 0-2.59-.164-1.333-.2-3.433-1.577-2.259-1.49-2.259-2.623m7.15-21.531q0-1.455 1.737-1.455.24 0 .563.037 2.828.527 5.173.527 3.436 0 8-2.06 1.614.487 1.695 2.91l-2.99 2.382q.122.122 2.545 1.372 1.982 1.01 1.982 1.818 0 1.091-1.537 2.469-1.254 1.127-2.545 1.736-3.068 1.455-3.355 1.614-1.654 1.131-1.654 3.072 0 .4.082.805 1.29-.646 3.109-.646 1.009 0 1.982.241l.604.487q-1.29.486-2.668 2.018-1.695 1.864-2.34 2.304-.41.282-1.215.282-2.945 0-4.481-1.009v-.318q-.046-.814.44-1.46.446-.604.932-1.213.564-1.045.646-3.272-.16-.241-1.496-.564-1.372-.282-1.859-.85-.036-.2-.036-.4 0-1.296 2.945-4.364 3.437-3.559 3.882-4.445-2.304.686-5.336.686-4.805 0-4.805-2.704m10.182 9.531q4.682-.85 5.977-3.59-.245-.773-2.95-.932-1.859.682-3.031 4.522"/>
    </g>
</svg>
