<svg xmlns="http://www.w3.org/2000/svg" viewBox="0 0 100 100">
    <g filter="drop-shadow(6px 3px 1px rgba(0,0,0,0.5))">
        <path fill="#c3983c" d="M28.35 83.118v-4.545l21.568 6.213L71 78.096v4.545l-21.082 6.69z"/>
        <path fill="#feec99" d="m71 80.5 10.877-70.01H17.955L28.35 80.983l21.568 6.209z"/>
        <path fill="red" d="m52.94 25.432-.981 6.182-2.082.586-2.004-.56-1.046-6.208zm-12.913 3.386a2.71 2.71 0 1 1-5.413-.004 2.71 2.71 0 0 1 5.413 0zm24.905 0a2.71 2.71 0 1 1-5.418-.004 2.71 2.71 0 0 1 5.418 0zM40.027 41.136a2.71 2.71 0 1 1-5.418-.009 2.71 2.71 0 0 1 5.418.005zm24.905 0a2.71 2.71 0 1 1-5.418-.009 2.71 2.71 0 0 1 5.418.005zm-12.387 0a2.71 2.71 0 1 1-5.413-.009 2.71 2.71 0 0 1 5.418.005zm0-25.09a2.71 2.71 0 1 1-5.413 0 2.71 2.71 0 0 1 5.418 0z"/>
        <path fill="red" d="m54.2 23.545-1.455 9.219-3.104.872-3-.831-1.555-9.26zM58.682 72.5q-.773 0-2.114-.568-1.727-.773-2.682-2.464-.49-.918-1.232-3.35-.704-2.295-1.445-3.386-.986 0-3.595 2.713-2.5 2.61-2.787 3.637l.532 1.122q-.145 0-.636.105-.423.036-.668.036-.991 0-2.437-1.654-1.445-1.66-1.409-2.682v-.245q.955-.491 2.682-1.623 1.759-1.587 5.318-4.441.605-.35 1.695-1.023.423-.245 1.06-1.023.563-.636 1.195-.913 3.564-3.527 3.564-5.364 0-2.009-4.3-2.009-2.046 0-5.01.777-4.686 1.305-4.9 1.341-1.022-.386-2.008-.74-1.091-.455-1.482-1.378 0-.845.704-1.3.673-.459 2.891-1.164 2.046-.74 3-.918 1.796-.354 4.514-.354 3.454 0 5.954 1.2 3.318 1.518 3.318 4.545 0 2.296-1.768 4.868l-3.1 4.3q.918 1.691 1.655 3.173.986 2.4 2.009 4.76 1.409 3.031 3.104 3.636-.104.381-1.622.381"/>
    </g>
</svg>
