<svg xmlns="http://www.w3.org/2000/svg" viewBox="0 0 100 100">
    <g filter="drop-shadow(6px 3px 1px rgba(0,0,0,0.5))">
        <path fill="#c3983c" d="M23.814 85.745V81.2l26.095 8.559 26.1-8.56v4.546l-26.1 8.56z"/>
        <path fill="#feec99" d="m49.909 92.164 26.1-8.56 12.255-78.09H11.559l12.255 78.09z"/>
        <g fill="red">
            <path d="m53.245 24.8-1.009 6.39-2.154.61-2.073-.577-1.086-6.423z"/>
            <path d="m50.09 32.2.1-.014 2.155-.604a.41.41 0 0 0 .287-.323l1.004-6.395a.4.4 0 0 0-.395-.464h-6.318a.4.4 0 0 0-.396.468l1.082 6.423a.41.41 0 0 0 .291.318l2.073.577zm-.008-.818-1.718-.477L47.4 25.2h5.373l-.891 5.677zM39.9 41.032a2.8 2.8 0 1 1-5.595.018 2.8 2.8 0 0 1 5.595-.018m25.745 0a2.8 2.8 0 1 1-5.595.018 2.8 2.8 0 0 1 5.595-.018M39.9 15.095a2.8 2.8 0 1 1-5.59.005 2.8 2.8 0 0 1 5.59 0zm25.745 0a2.8 2.8 0 1 1-5.59.005 2.8 2.8 0 0 1 5.59 0zM52.186 46.09V34.828h-4.204v11.264zm-.122-24.767.086-11.264-4.21-.032-.09 11.268zm-8.746 9.022v-4.209H32.045v4.21zm24.332.06.023-4.21-11.26-.059-.022 4.21zM43.568 82.273l-.29 1.895q-.864-.454-1.446-1.032.863-.863 1.736-.863m-.5 2.268q-.163.454-.163.74 0 1.033 2.022 2.146 1.318.746 1.9.746 2.637-.5 2.637-1.569 0-.827-1.896-2.104 0-4.127.123-8.255 1.073-.536 1.073-.95 0-.986-2.391-1.236l-4.418.455q.622-.91 1.9-2.187 1.404-.663 2.804-1.154l.5.327q.618 1.282 1.236 1.282.7 0 .7-1.282 0-.7-.659-2.723.95-10.482.95-11.018 0-4.373-2.768-6.19-2.636-1.774-9.695-1.774-7.305 0-7.305 3.51 0 1.318 1.487 2.104 2.763 6.764 7.095 9.614-1.732-2.519-2.268-9.819 3.468-.827 6.645-.827 3.877 0 3.877 1.364-.045 2.018-1.65 9.773l-2.022.581q1.032-2.727 1.032-3.218 0-.704-1.237-1.282 1.61-2.431 1.61-3.218 0-1.154-3.346-1.936.623-.746 1.445-1.446-1.609.164-3.713.537-1.568 0-1.568 1.236 0 .66.659 1.405.909.909 1.695.909 1.277 0 2.636.204l-1.113 1.155q-1.855.577-1.855 1.818 0 1.277 2.35 2.064L39.441 66.3q-1.318.618-1.318 1.486.159 1.364 2.1 1.61.659 0 1.404-.496 1.487-.864 2.887-1.527 0 1.072.454 1.859-1.4.7-4.827 1.113-2.273.332-2.273 1.319 0 .622.582 1.159-1.155.822-2.145 1.854-1.241.577-1.241 1.196 0 .745.745 1.486 1.486 1.486 2.6 1.486.864 0 1.773-.95l4.786-1.568q-.7 1.737-1.073 3.468-1.072-.454-1.981-.454-5.691.495-5.691 2.64 0 2.355 3.09 2.355.292 0 .705-.127 1.487 0 3.055.332zm17.377-19.355Q59.66 67.004 56.4 68.2q-.164-2.436-.164-5.364 1.691-1.445 3.591-2.104-.786 1.195-1.982 2.559-1.486.782-1.486 1.44.123.955 1.527 1.114.455 0 2.56-.659m1.113-5.118q-.127 1.527-.455 2.973-.454-.082-.909-.082-.409 0-1.031.04.786-1.235 1.731-2.476zm6.85 10.073q.618.368.91.368.78 0 .78-.618 0-.864-.863-1.487-1.818-.909-2.768-.909-1.568 0-5.818 2.605 3.509-4.91 4.664-13.864.74-1.532.74-2.027-.454-4.25-2.39-4.25-.955 0-1.319.705-.54 2.804-.622 7.468-.496-.746-1.114-.746-.864 0-4.373 3.305 0-2.727.368-6.068 2.6.409 4.91 2.063-1.441-2.932-4.246-5.572-.582-1.773-1.9-1.773-1.94 0-3.054 4.29.536 9.246.536 10.483 0 .372-.286 2.477-.537 1.073-.537 1.65 0 .863 1.4 1.9 1.2.74 1.941.74.618 0 3.3-1.608-.823 1.854-4.209 2.972l-3.714.823q-.495.164-.495 1.241 0 1.44 2.809 1.61.41 0 1.936-1.16l3.673-1.114q-1.854 1.282-3.918 2.396-2.85.74-2.85 1.65 0 1.404 2.064 1.65.704 0 1.736-.618l1.482-.41q-1.155.946-4.455 2.228-1.282.409-1.282 1.154 0 1.196 1.941 1.978 0 2.063 1.114 3.136.99.99 2.354.99 3.919 0 3.919-1.276 0-.578-1.773-1.487l-.66-.5 3.383-1.977-4.332.536-1.114-.081.946-.991 7.14-2.31 2.023-.168q.41-.081.41-.659 0-.409-.782-.74-1.691-.578-2.35-.578-.623 0-3.346.577 1.114-1.031 2.064-1.772.704-.664.704-1.573 0-1.4-.745-1.4-.7 0-3.218 2.35-1.278.618-2.56 1.032 3.714-3.382 7.428-5.032z"/>
        </g>
    </g>
</svg>
