<svg xmlns="http://www.w3.org/2000/svg" viewBox="0 0 100 100">
    <g filter="drop-shadow(6px 3px 1px rgba(0,0,0,0.5))">
        <path fill="#c3983c" d="M25.832 85.577v-4.545l24.082 7.309 24.536-7.314v4.546L49.914 92.89z"/>
        <path fill="#feec99" d="m49.914 90.745 24.536-7.309 12.395-76.5H12.982l12.85 76.5z"/>
        <path fill="red" d="m52.24 22.905-.976 6.181-2.082.587-2.005-.56-1.045-6.208zm-12.908 3.381a2.71 2.71 0 1 1-5.418 0 2.71 2.71 0 0 1 5.418 0m24.895 0a2.705 2.705 0 1 1-5.409 0 2.71 2.71 0 0 1 5.41 0M39.331 38.605a2.71 2.71 0 1 1-5.418 0 2.71 2.71 0 0 1 5.418 0m24.895 0a2.705 2.705 0 1 1-5.409 0 2.71 2.71 0 0 1 5.41 0m-12.378 0a2.71 2.71 0 1 1-5.418 0 2.71 2.71 0 0 1 5.418 0m0-25.082a2.71 2.71 0 1 1-5.414 0 2.71 2.71 0 0 1 5.414 0"/>
        <path fill="red" d="m53.682 21.11-1.45 9.217-3.11.878-2.995-.837-1.554-9.259zm3.686 27.149-2.24 1.268-.783-.732zm0 5.7q0 .636-4.19 2.29l.1-1.9q.581-.972 1.604-1.804 2.486.732 2.486 1.414m16.377 4.045q0-.436-1.118-.436-2.636 0-7.118 2.777-1.705 1.219-5.41 5.119-1.9-2.387-4.876-2.387-.828 0-2.632.291.245-1.268.39-2.727Q60 57.714 60 56.104q0-2.34-3.41-5.118 2.583-1.95 4.628-2.777.927-.195 2.291-.29 1.364-.196 1.364-1.319 0-1.268-1.46-2.045-1.168-.637-2.29-.637-1.219 0-6.482 1.273-3.805.727-6.582.727-5.068 0-10.773-.44-2.531 0-2.531 2.486 0 1.363 1.022 2.29 2.728 1.955 4.291 1.955 1.264 0 3.264-2.195 4.24-.637 6.336-.832l-.045 4.486q-2 2-4.196 3.85-1.268.636-1.268 1.56 0 1.9 4.727 3.072-.34 1.318-1.704 2.582-3.9.977-3.9 2.682 0 1.559 1.218 2.29 1.904.928 3.218.928.877 0 2.436-1.805 4.923-2.145 8.823-2.24-3.945 4.681-8.286 10.236-5.51-4.391-10.773-10.237-3.363-3.559-4.873-4.045-2.877-.832-6.772-.832-3.123 0-3.123 1.318 0 2.387 2.195 4.823 1.073 1.223 4.046 2.195 3.604.973 4.773 1.51 4.781 3.268 12.431 7.945-2.386 2.877-2.386 3.704 0 .928 1.56 2.291 1.363 1.123 2.485 1.123 3.023-.145 3.023-.977 0-.877-1.073-1.755 10.919-18.182 20.714-24.909.827-.29.827-.973"/>
    </g>
</svg>
