<svg xmlns="http://www.w3.org/2000/svg" viewBox="0 0 100 100">
    <g filter="drop-shadow(6px 3px 1px rgba(0,0,0,0.5))">
        <path fill="#c3983c" d="M24.24 86.132v-4.546l25.67 8.174 25.673-8.177v4.545L49.909 94.31z"/>
        <path fill="#feec99" d="m49.909 92.164 25.673-8.173L88.264 5.518H11.559l12.682 78.473z"/>
        <path d="m53.295 24.695-1 6.341-2.131.596-2.055-.568-1.073-6.364z"/>
        <path d="m50.173 32.032.1-.014 2.136-.59a.41.41 0 0 0 .282-.328l1-6.336a.4.4 0 0 0-.396-.464h-6.259a.4.4 0 0 0-.395.464l1.073 6.368a.41.41 0 0 0 .29.318l2.055.573.114.013zm-.01-.818-1.7-.469-.954-5.645h5.318l-.886 5.618zm-13.868 13.35 8.355-8.355-2.977-2.973-8.355 8.35zm22.15-22.16 8.169-8.354-3.01-2.945-8.168 8.354zM63.61 44.55l3-2.95-8.205-8.35-3 2.95zM41.673 22.418l2.977-2.977-8.355-8.35-2.977 2.977zm-6.546 47.155q.123-.41 1.032-1.196.864-.745 1.114-1.159.122-1.073.122-2.477 0-2.105-.29-6.318-.328-4.169-.328-6.273 0-1.323.164-2.891.164-.209 1.195-2.605.746-1.69 1.778-2.063 1.281.29 2.395 1.404.66.91 2.064 2.6.99.955 1.981 1.941 1.282 1.282 1.323 2.273-2.354-1.032-4.254-1.032-.741 0-1.405.164-.04 1.318-.04 2.6t.045 2.604q2.804 1.319 5.49 1.319 5.946 0 11.81-2.973l.7.209q.29-5.618 1.159-7.636.368-.873 1.363-1.737 1.855.164 1.855 3.755 0 .868-.864 6.44-.868 5.619-.827 9.169v1.077l1.318 2.146-.163.372-1.65-.29q-4.873 1.031-7.56 2.64-2.85 1.696-5.863 5.496.577.495 1.282 1.44 7.513-6.15 10.363-6.44 1.278-.123 3.055-.123 1.695 0 2.436.618-7.227 2.85-12.677 9.5-.082.291-.082.577 0 .455.164.91l-.287.372q-.745.246-1.404.246-1.073 0-2.682-.828-1.655-.822-2.068-1.731l.909-1.241q-.618-.41-2.932-.41-1.113 0-3.095-2.108.082-1.487.786-1.9.741-.246 2.105-.741 2.227-.955 3.095-2.564-1.445.373-2.85.745-1.773.41-2.89.41-.742 0-2.764-.987-1.737-.827-2.682-1.486-.996-.66-1.45-1.818zm6.81-2.146v2.187q.331.786 1.695.786 1.854 0 5.49-.91-1.072-.745-.908-1.526-1.732.372-2.273.372-1.773 0-4-.909m.204-6.113q.041 2.477 0 4.418.578-.782 1.9-.95h3.137q1.154 0 1.818-.618l.123-2.519q-1.732.455-3.76.455-1.895 0-3.218-.786M52.673 66.6q0 .373.5.95.454.577.531.909 3.555-1.445 5.782-2.023l-.082-1.736H59.2q-1.532-.082-6.486 1.568-.041.21-.041.332m-.164-5.41v2.15q1.032-.29 2.064-.54 1.318-.41 1.94-.864 1.446.782 3.014 1.982 0-2.395.25-4.914-3.8 1.032-7.273 2.182"/>
    </g>
</svg>
