<svg xmlns="http://www.w3.org/2000/svg" viewBox="0 0 100 100">
    <g filter="drop-shadow(6px 3px 1px rgba(0,0,0,0.5))">
        <path fill="#c3983c" d="M25.755 85.454V80.91l24.154 7.432 24.16-7.432v4.545l-24.16 7.432z"/>
        <path fill="#feec99" d="m49.909 90.745 24.16-7.431L86.84 6.936H12.977L25.75 83.314z"/>
        <path d="m53.259 23.732-.977 6.182-2.073.59-2.018-.559-1.046-6.213zm-12.914 3.386a2.71 2.71 0 1 1-5.409 0 2.71 2.71 0 0 1 5.41 0m24.904 0a2.71 2.71 0 1 1-5.418 0 2.71 2.71 0 0 1 5.418 0M40.345 39.432a2.71 2.71 0 1 1-5.409.004 2.71 2.71 0 0 1 5.41-.004m24.904 0a2.71 2.71 0 1 1-5.418 0 2.71 2.71 0 0 1 5.418 0m-12.373 0a2.71 2.71 0 1 1-5.418 0 2.71 2.71 0 0 1 5.418 0m0-25.082a2.7 2.7 0 0 1-2.709 2.7 2.705 2.705 0 1 1 0-5.41c1.5 0 2.71 1.215 2.71 2.71"/>
        <path d="m54.65 22.423-1.46 9.227-3.1.864-2.995-.828-1.563-9.263zm-3.2 58.7a2.05 2.05 0 0 0 .895-.273h.01a5 5 0 0 1 .527-.255 9 9 0 0 0 .89-.04c.455-.028.828-.182 1.028-.496a.27.27 0 0 0 0-.29l-1.377-2.26q2.045-4.755 6.536-10.76 4.918-6.526 8.736-9.022a.282.282 0 0 0-.018-.482 1.8 1.8 0 0 0-.823-.236c-.49 0-1.054.318-1.877.886q-1.227.855-3.15 2.532h-.004a4.6 4.6 0 0 0-1.219.887q-.818.75-2.036 2.09c-1.74 1.969-2.809 3.078-3.309 3.5a4.8 4.8 0 0 0-1.886-1.372 8.2 8.2 0 0 0-.955-1.65l-.004-.01c-.469-.645-.673-1.172-.673-1.531 0-.168.045-.355.09-.541l7.25-1.755.928.337a.5.5 0 0 0 .15.013l.205-.045a.27.27 0 0 0 .227-.273v-.204l-.014-.091a6 6 0 0 0-.645-1.441l-.01-.014-.886-1.132a.27.27 0 0 0-.177-.104l-1.214-.2a.27.27 0 0 0-.304.177 1.36 1.36 0 0 1-.882.846 32 32 0 0 1-1.582.395l-.054.018q-.637.277-1.319.56h-.009q-.681.263-1.218.258l-.154-.013a32 32 0 0 1-.182-4.428c.027-1.99-.073-3.486-.291-4.59l9.268-2.15.705.15h.113l.541-.114 1.064.309a.282.282 0 0 0 .354-.305q-.213-1.7-1.531-3.868a.27.27 0 0 0-.178-.127l-.886-.204a.27.27 0 0 0-.168.018 2.46 2.46 0 0 0-1.35 1.145 36 36 0 0 1-4.696 1.336l-.036.014q-1.855.6-2.318.718a27 27 0 0 1-2.341.278l-.068.013c-1.041.318-1.755.473-2.014.473q-.564 0-1.559-.196a23 23 0 0 0-1.682-.331h-.014l-1.886-.123a15 15 0 0 1-2.4-.71q-1.454-.5-2.723-.5h-.013l-.81.046a.27.27 0 0 0-.163.06 2.09 2.09 0 0 0-.827 1.627 1.96 1.96 0 0 0 .645 1.372q.618.61 1.773 1.146 1.932.954 3.409.873h.005l6.681-.319.273.1c-.032.028-.027.06-.068.091a1.8 1.8 0 0 1-.646.218h-.013a9 9 0 0 0-.946.228 1.4 1.4 0 0 0-.422.218h.004c-.845.145-2 .645-3.518 1.486h-.004q-1.046.605-1.682.9a3.2 3.2 0 0 1-.8.278q-.246 0-.491-.073a.282.282 0 0 0-.355.227 5 5 0 0 0-.045.486c0 .546.259 1.06.723 1.51s1.127.84 1.995 1.213l.1.023 3.068.123a.282.282 0 0 0 .26-.41l-.578-1.127c.518-1.227 1.664-2.527 3.418-3.854l.146.727q0 .082-.037.295a5 5 0 0 0-.045.41c0 .154.032.327.09.554a2.3 2.3 0 0 1 .073.418 5 5 0 0 1-.077.546 5 5 0 0 0-.086.668q0 .823-.018 1.3a5 5 0 0 1-.05.559.5.5 0 0 0-.005.136l.136.632-.613 1.191-3.078.382-2.79-.477a.5.5 0 0 0-.146.013l-1.209.446a.27.27 0 0 0-.182.218q-.045.3-.045.568c0 .577.25 1.096.704 1.464q.682.59 1.56.59v-.558h.018l.031.004.037.01.073.045.104.163-.04.214-.069.073-.036.018-.046.018c-.027.01-.009.005.005 0l.209-.027.95-.118c.836-.105 2.159-.269 3.877-.473l.286.268-.372.91-.019.104a2.6 2.6 0 0 0 .81 1.854l.104.068c.123.046.205.041.314.069-.45.136-.9.286-2.023.563-1.05.273-1.9.591-2.6.941a264 264 0 0 1-3.34-3.877l-.014-.014q-2.16-2.25-4.241-3.25a.27.27 0 0 0-.178-.023 4.6 4.6 0 0 1-1.4 0 14 14 0 0 0-1.49-.163q-.282 0-.773.082-.518.077-.723.077-1.455 0-2.023.082a.5.5 0 0 0-.136.063l-.85.728a.27.27 0 0 0-.096.263l.241 1.373a.27.27 0 0 0 .096.168q1.268 1.046 3.632 1.982 2.745 1.136 3.627 1.714l.009.009q1.455.863 3.055 2.418.231.232 2.704 2.823l.01.009c2.422 2.295 4.19 3.895 5.531 5.04a3.2 3.2 0 0 0-1.073.5 1.59 1.59 0 0 0-.586 1.246l.004.055.123.645a.27.27 0 0 0 .114.177q1.259.891 2.109 1.35c.568.305.99.478 1.363.478m-.045-6.482a146 146 0 0 1-3.1-4.477l.077.009c.582 0 1.396-.273 2.541-.791l1.746-.81.686-.308a46 46 0 0 1 1.923-.569l.436.296zm8.032-18.323a.282.282 0 0 0 .268-.4c-.15-.318-.395-1.373-.664-3.036-.195-1.332-.65-2.314-1.404-2.887a.27.27 0 0 0-.296-.027 1.96 1.96 0 0 1-1.236.218.27.27 0 0 0-.295.146 5 5 0 0 0-.56 2.59v.446l.023.114q.532 1.186 1.787 1.836l.018.01 2.259.967z"/>
    </g>
</svg>
