<svg xmlns="http://www.w3.org/2000/svg" viewBox="0 0 100 100">
    <g filter="drop-shadow(6px 3px 1px rgba(0,0,0,0.5))">
        <path fill="#c3983c" d="M22.482 86.559v-4.545l27.377 9.168 27.486-9.205v4.546l-27.481 9.204z"/>
        <path fill="#feec99" d="m49.859 93.59 27.486-9.208L89.682 4.1H10.136l12.346 80.318z"/>
        <path d="M54.559 21.586 53.104 30.8 50 31.677l-2.991-.832-1.568-9.259zM40.15 26.632a2.71 2.71 0 1 1-5.418 0 2.71 2.71 0 0 1 5.418 0m24.9 0a2.71 2.71 0 1 1-5.414 0 2.71 2.71 0 0 1 5.414 0m-24.9 12.313a2.71 2.71 0 1 1-5.418 0 2.71 2.71 0 0 1 5.418 0m24.9 0a2.71 2.71 0 1 1-5.414 0 2.71 2.71 0 0 1 5.414 0m-12.377 0a2.71 2.71 0 1 1-5.419 0 2.71 2.71 0 0 1 5.419 0M40.15 13.864c0 1.5-1.214 2.704-2.71 2.704a2.705 2.705 0 1 1 0-5.409c1.5 0 2.71 1.214 2.71 2.71zm24.9 0a2.7 2.7 0 0 1-2.71 2.704 2.705 2.705 0 1 1 0-5.409c1.5 0 2.71 1.214 2.71 2.71zm-12.377 0a2.702 2.702 0 1 1-5.405 0 2.702 2.702 0 0 1 5.405 0"/>
        <path d="m54.695 21.364-1.454 9.209-3.105.882-3-.832-1.554-9.264zM43.473 88.34l-5.605-.908q-.1-.255-.959-.964-.864-.654-1.009-1.514.705-1.263 2.773-1.768.709-.15 3.436-.35.81-.054 3.536-.659 2.678-.554 3.437-.809 1.409-.454 2.422-1.164-1.513-.704-2.981-1.363-1.614-.805-2.019-2.523l.2-.959q1.014-.05 1.319-.91.15-.408.15-1.717.045-.2.1-.66.05-.4.05-.604l-.155-1.214q-.454 0-1.968.155-1.21.1-1.968.1-3.337 0-5.05-2.423v-1.468l1.109-.704 2.123.454q.604.15 2.877-.454 2.227-.61 2.882-1.164l.3-1.214-.3-1.209.909-8.99q-10.41.404-10.76.404-1.617 0-3.836-.66-2.272-.654-3.236-1.463l-1.414-1.464q-1.059-1.213-1.059-1.818 0-.554.755-1.163.759-.655 1.213-.5 5.205 1.818 6.064 2.068 3.636 1.059 6.364 1.059 5.3 0 12.772-1.614.66-.104 1.823-.759 1.11-.659 1.718-.809 1.718-.404 2.018-.554 1.014-.455 1.264-1.464l1.868-.71q1.264.255 2.528 1.719 1.209 1.464 1.968 1.718l.659 1.514-.355.25q-.204-.046-.709-.2-.554-.15-.809-.15-.15 0-4.04 1.209-4.292 1.318-5.655 1.668-3.282.86-5.81 1.064 1.01 2.018 1.01 6.309v.659q0 2.627.254 4.04l2.373-.204q2.323.56 6.468 2.328l-1.114-.105q-1.009 0-8.181 2.377-.305 9.341-.305 8.587 0 1.818 1.668 2.472.66-.15 2.523-.2 1.568 0 2.173-.254 2.682 1.163 6.363 4.24l-2.272-.25q-1.864 0-10.355 2.373-5.045 1.414-9.545 3.287"/>
    </g>
</svg>
