<svg xmlns="http://www.w3.org/2000/svg" viewBox="0 0 100 100">
    <g filter="drop-shadow(6px 3px 1px rgba(0,0,0,0.5))">
        <path fill="#c3983c" d="M28.468 83.618v-4.545l21.446 7.136 21.44-7.1v4.545l-21.44 7.1z"/>
        <path fill="#feec99" d="m49.914 88.614 21.44-7.1L82.582 9.068H17.245l11.223 72.41z"/>
        <path d="m54.173 15.273-1.241 7.868-2.641.745-2.564-.704-1.332-7.91zm-1.778 26.2V27.609h-4.209v13.864z"/>
        <path d="M54.554 14.055 53.1 23.268l-3.105.882-2.99-.832-1.555-9.263zM49.436 81.89l-1.454-.286-.773.287q-.927-.164-1.614-.85t-.686-1.618q0-1.291.968-1.655.81-.164 2.346-.527.768-.241 2.422-1.091 1.941-.968 2.182-1.455l-2.059-.768q-.286-.682-1.332-1.854-3.84 1.209-8.281 1.209-1.419 0-2.387-.928-1.009-.931-1.009-2.345l.123-.564 1.736-.486 2.423.486q1.577.282 2.504.282 1.05 0 1.864-.282-4.409-4.727-9.336-6.99-1.7-.805-3.437-1.573-1.936-.891-3.227-1.9l-.486-.928q.645-.645 1.29-.931l.892.204 1.654-.363 2.223.2.809-.364q2.786.323 5.009 2.586v-.604q.318-.323.645-.687.323-.327.323-.85 0-.281-.163-.645 0-.973-.037-2.71-.045-1.895-.045-2.663 0-4.486 2.145-5.332l.727.16.646 1.254q.282.118 2.745.564.246-.041 3.355-.446 2.1-.282 3.354-.727.969-.564 2.91-1.614.886.728 1.454 1.896-.727 3.959-.727 9.618 0 2.423 1.09 2.786.969-.604.969-1.332.927-1.09 1.818-2.227 1.21-1.49 2.06-2.054 1.735-1.091 2.585-1.091l1.896.04q-2.664 1.896-6.423 6.705-3.273 4.2-5.209 7.796 3.636 0 5.332-2.06.2-.045.445-.045 1.332 0 1.86 1.377.24.569.522 2.591-1.132-.163-2.663-.568-3.273.764-4.891 1.21-3.473.931-4.728 1.617.246 1.455 1.455 3.15l.568-.204.646.204q1.009-.281 1.172-.281.16 0 .4.118l3.396.163q-.646.364-5.214 2.787-3.068 1.7-4.968 3.272l.609.61v.44l-.89-.081zm.605-12.204q.486-.118.604-1.045.082-.727.123-1.418l-.24-.605.363-1.982-.287-.727q.323-.118.41-.645.077-.482.118-.891l-.246-1.091-4.482.363q-1.777.164-3.113-.604 2.304 2.827 6.75 8.645m9.818-9.732-1.94-.772q-.728.409-2.387.727t-2.341.645q.404 1.378.445 3.682t.282 3.273q1.214-.164 2.018-1.136.123-.16 1.296-2.06.082-.2 1.495-2.1.927-1.172 1.127-2.263zm-2.427-2.468-.2-3.513q-2.223.163-4.241.686l-3.841 1.332h-1.173q-.523 0-1.009.245-.159 1.937-.159 2.137 0 1.213.845 1.213-.481 0 2.469-.363 4.845-.682 7.309-1.737m-2.182-5.29.486.122q1.291 0 1.578-.445v-.728q0 .2-.164-.686.082-.89-.082-2.586-1.173.159-4.968 1.172-3.032.769-5.01.846v3.882l.487.2q3.391-.564 3.877-.687 2.587-.527 3.796-1.09"/>
    </g>
</svg>
