<svg xmlns="http://www.w3.org/2000/svg" viewBox="0 0 100 100">
    <g filter="drop-shadow(6px 3px 1px rgba(0,0,0,0.5))">
        <path fill="#c3983c" d="M26.745 84.318v-4.545l23.164 7.145 23.164-7.109v4.545l-23.164 7.11z"/>
        <path fill="#feec99" d="m49.909 89.323 23.164-7.11 12.35-73.858H14.4l12.345 73.827z"/>
        <path d="M50.059 35.39a3.955 3.955 0 0 0 3.932-3.93 3.955 3.955 0 0 0-3.932-3.92 3.94 3.94 0 0 0-3.923 3.92c0 2.154 1.764 3.93 3.923 3.93m0-2.404a1.5 1.5 0 0 1-1.518-1.527c0-.859.654-1.514 1.518-1.514a1.5 1.5 0 0 1 1.527 1.514 1.5 1.5 0 0 1-1.527 1.527M40.19 43.855a2.723 2.723 0 1 1-5.445-.005 2.723 2.723 0 0 1 5.446.005m25.05 0a2.723 2.723 0 1 1-5.446-.005 2.723 2.723 0 0 1 5.446.005m-15.182 3.918a3.955 3.955 0 0 0 3.932-3.918 3.955 3.955 0 0 0-3.932-3.932 3.955 3.955 0 0 0-3.923 3.932c0 2.15 1.773 3.922 3.923 3.922zm0-2.4a1.486 1.486 0 0 1-1.518-1.518 1.5 1.5 0 0 1 1.518-1.528c.855 0 1.527.673 1.527 1.528a1.5 1.5 0 0 1-1.527 1.518m3.109-30.159-.977 6.222-2.091.587-2.027-.56-1.046-6.25z"/>
        <path d="m54.677 13.99-1.459 9.228-3.1.868-2.995-.831-1.564-9.264zM43.59 83.254q-.481-.24-1.895-.363-1.213-.077-1.822-.682l.204-1.055q.687-.24.728-.809v-1.05l.404-1.172-.204-.569-1.578.287q-.404-.123-1.495-.164-1.091 0-1.777-.727-.082-.2-.082-.41 0-.522.932-1.49.04 0 1.454-.446.81-.24 1.332-.768l1.536-.609.205-2.827q-.527-.123-1.137-.123-1.372 0-2.463.364-3.437-.405-5.091-1.655V67.85l2.223-.282q.281-.036 1.25.364.931.409 1.5.409.24 0 .481-.082.41.16.773.16 1.696 0 5.01-.77.122-.035 2.063-.767 1.94-.728 2.1-.81.69-.363.973-.886l1.536.446q.123.44.604.727.446.282.446.564 0 .04-.041.163l-.686-.045q-1.214.568-3.519 1.254-2.504.773-3.554 1.214l.118.645-.282 1.7 3.682.973 1.127 1.091q-2.868.523-4.809 1.455 0 .404-.122 1.331-.119.973-.119 1.419l.2 2.786q1.01.445 1.619 1.295zm13.305-1.29q-1.213-.487-2.427-.932-1.254-.605-1.495-1.982 1.05-.2 1.213-1.25v-2.023q0-.2.082-.568.077-.364.077-.564 0-.568-.522-.931-.123 0-.528.045-.281.036-.486.036-.89 0-1.332-.809l.2-.927q.932-.527 1.864-1.014 1.29-.686 1.25-1.409-.077-1.095-.077-.854l.363-1.66-.163-1.008q-1.578-.564-3.155-1.173-1.618-.887-1.695-2.668l.809-1.01q.522-.04 1.409.123.045 0 .932.682.85.727.931.855.16.318.646.927l.204-.523-.045-1.577.286-1.7-.163-.686.163-.85-.24-1.373.158-.85-.24-1.537q0-.163.081-.486.078-.282.078-.445l-.16-.928.241-.89-.363-.969.727-1.659.891.041q.61.605.89 1.7.405 1.491.565 1.86l-.523 7.354.077 1.418q.891-.123 1.741-1.336.605-.932 1.214-1.9.968-1.25 3.109-2.428 2.672-1.372 3.395-2.018l.568.16 1.9-.2.81.24q-1.741 1.336-5.137 4.164-1.695 1.454-3.8 4.65-2.14 3.236-2.704 5.336 2.668-.482 3.513-1.859.727 0 1.577.773 1.137.963 1.378 1.09l.727 1.773q-.286.123-.61.123-.726 0-1.695-.645-1.336.281-3.113 1.25-2.264 1.295-2.955 1.581l-.363 4.969.163 1.94q.85.287 1.741 1.782l.037.2q-.928-.04-.682-.04-.728 0-1.337.609M43.591 66.559l-2.791-1.05q-.164-.568-.164-.686 0-.328.287-.85.24-.487.24-.773 0-.241-.204-.564l-.809.041q-3.15.164-3.795-.968l.036-.773q.527-.44 1.864-.727 1.531-.282 2.018-.523.932-.486.932-1.618 0-.24-.082-.727-.123-.487-.123-.727l.205-1.25-.61-.246-1.695.323q-.286.609-1.295.609l-1.332-.323q-1.214-.286-2.51-.568-1.413-.405-2.263-1.136l-.24-1.046.445-1.054.768-.241q.845.122 3.436.85 2.141.604 3.396.604 1.736 0 4.486-.445 3.073-.446 4.327-1.01 1.25-.527 1.941-1.577.605.246 1.09 1.05.442.773.77.85v.891l-.57-.204q-1.25.486-3.435 1.09-2.505.65-3.478.973v3.437q.364.123 2.346.2 1.454.082 2.227.85-3.477 1.09-5.182 2.023-.077 1.172-.077 2.345 0 .282.04.523l1.415 1.09q-.119.205-.319.61l.037.122z"/>
    </g>
</svg>
