<svg xmlns="http://www.w3.org/2000/svg" viewBox="0 0 100 100">
    <g filter="drop-shadow(6px 3px 1px rgba(0,0,0,0.5))">
        <path fill="#c3983c" d="M29.027 82.545V78l20.887 6.786 20.863-6.777v4.545l-20.863 6.773z"/>
        <path fill="#feec99" d="m70.773 80.409 11.104-69.923H17.955L29.027 80.41l20.887 6.786z"/>
        <path d="m52.309 23.614-.877 5.595-1.882.527-1.818-.509-.95-5.613zm-.355 14.195a2.445 2.445 0 1 1-4.89 0 2.448 2.448 0 0 1 4.895 0z"/>
        <path d="m54.109 21.627-1.455 9.228-3.104.868-3-.832-1.555-9.264zm-4.655 57.346q-.49 0-1.69-.46-1.196-.422-1.514-.74-.036-.282-.036-.528 0-.6.245-.845l.073-3.21q-1.023 0-4.164 1.337-.35-.104-1.759-.104-.532 0-.954-.35-.423-.319-.387-.814v-.068q.564-.564 1.41-.673.813-.104 1.59-.173 3.732-.459 4.191-.672.355-.35.355-1.905 0-.318.454-1.654l-.736-.037-7.123 1.127q-.845.141-2.223-.422-1.195-.491-1.972-1.196l-.069-1.377q.846-.564 1.478-.564.459 0 2.118.455 1.618.464 2.5.464 5.113 0 7.545-1.2-.668-.141-1.34-.319-.669-.14-.81-.918.387-1.477.387-2.573l.109-1.268q-.037.21-.11-.636l-.068-1.268q-.072-.741-.422-1.128l-2.927 2.891.49.705q-.136.773-1.409.773-.281-.246-1.054-.278l-1.132-.072 2.786 3.104q-4.972-.813-7.086-3v-.136q-.032-.46.386-.887.532-.49.6-.704h.182q.314-.032.946.286.636.35.881.35l.355-.845q.986-.246 2.114-1.305.85-.882 1.727-1.763.6-.387 1.764-1.341.6-.668 1.8-1.864.527-.5 1.972-1.518.955-.814 2.891-2.223 1.273-.773 2.15-1.2.705-.209 2.046-.773.772-.422 1.513-.845 1.023-.495 1.66-.495.245 0 .772.14l.99-.245.67.177q-5.465 2.537-12.305 8.496.531 1.163 1.34 1.904l1.55 1.546q-1.127.318-2.89.886-.032.318-.032.6t.104.846q.073.6.073.913 0 1.66.241 2.187.214.563 1.486 1.518.21 0 3.241-.564 2.15-.423 3.137-.74 2.045-.6 2.818-1.483l1.027-.386q.95.386 1.69 1.336.705.955.742 1.941l-1.091-.072q-.85-.596-1.06-.596-.072 0-6.876 1.76l-.705.5q.495.204.495.772 0 .177-.036.564-.073.422-.073.6 0 3.631 1.132 4.195l-.182.105-.031.14.14.246-.986.109q-.177-.214-1.482-.495-1.09-.214-1.268-1.06.141-1.477.705-4.827-1.832 0-3.419.637l.564 1.477-.209 4.936q.136.35.173 1.273 0 .909.14 1.159.423.6 1.164 1.69-.068.674-1.477.674m7.718-16.537q-.386 0-.527-.318-.073-.136-.355-1.336-.281-1.164-.281-1.341 0-1.164.495-2.15.564-1.091 1.514-1.518 1.09.636 1.09 1.8 0 .845-.986 2.363-.986 1.514-.954 2.5z"/>
    </g>
</svg>
