<svg xmlns="http://www.w3.org/2000/svg" viewBox="0 0 100 100">
    <g filter="drop-shadow(6px 3px 1px rgba(0,0,0,0.5))">
        <path fill="#c3983c" d="M23.795 85.604V81.06l26.114 8.7 26.1-8.56v4.546l-26.1 8.56z"/>
        <path fill="#feec99" d="m49.909 92.164 26.1-8.56 12.255-78.09H11.559l12.236 77.954z"/>
        <path d="m53.354 27.327-1.009 6.4-2.15.605-2.086-.577-1.073-6.428z"/>
        <path d="m50.2 34.732.104-.014 2.15-.604a.41.41 0 0 0 .287-.328l1.009-6.395a.4.4 0 0 0-.396-.464h-6.318a.4.4 0 0 0-.395.468l1.073 6.428a.41.41 0 0 0 .29.318l2.082.577zm-.01-.818-1.726-.478-.955-5.704h5.377l-.895 5.677zm2.11 14.709V37.35h-4.21v11.273zm-.141-24.768.1-11.26-4.209-.036-.096 11.26zm-8.745 9.022v-4.209H32.145v4.21zm24.345.06.023-4.21-11.268-.059-.023 4.21zm-31.309 48.7q0-1.9 3.464-1.9.99 0 1.859.822l1.486 1.405-.045.245q-2.682.827-4.41.827-2.354 0-2.354-1.404m1.032-4.746q0-.204.04-.409.823-.582 2.023-.582 2.555 0 3.837 1.86v.409q-2.273.377-3.632.377-2.273 0-2.273-1.655zm-7.06-23.972q0-1.114.746-1.737.741-.659 1.896-.659 1.031 0 3.181.786 1.896.7 3.05 1.364 3.3 1.936 5.078 5.732 1.568 3.468 1.568 7.636 0 .946-.082 1.855 1.155-.41 2.636-1.073v-2.886q-.036-5.16.21-7.473.536-5.24 2.477-6.477 1.154 4.086 1.154 12.09 0 2.519.082 3.342 1.818-.782 3.468-1.691.455-5.241 3.423-8.705 3.218-3.714 8.295-3.964l.373.21q-2.477 1.522-5.036 4.7-2.846 3.55-3.055 6.068 3.714-1.528 4.168-2.764.123-.045.21-.045.781 0 1.277 1.654.409 1.237.409 2.273 0 .364-.327 1.523l-.287.29-1.118-.954q-2.35 1.036-4.618 1.945v.369q-.082 1.736 1.523 3.181 1.9-1.24 3.963-1.322-4.25 3.918-6.313 7.55l1.318.827-.037.368-2.85.746q-2.886-.291-3.631-2.105.577-1.032 2.518-2.518 1.445-1.155 2.932-2.273-2.6-.49-3.096-3.463-1.732.827-3.754 1.486l-.046 2.309q-.04 4.955.414 6.11.209.408.663.99.66.782.741.95l.046.577-2.482.66q-2.559-.373-4.082-2.6.327-.619.782-1.9.41-1.278.332-4.619v-.868l-2.81.99q-.454.246-.945.496-.536.246-1.031.205 2.681 1.982 2.681 7.427l-.127 3.427q.91-.25 5.905-2.186Q57 78.91 57.082 78.91q1.236 0 3.34 3.795l-.408.332q-.991-.245-1.86-.245-.495 0-13.04 4.5-1.155-.087-3.423-.996-.25-.863-.25-1.277 0-.745.659-1.118.955-.491 1.24-.864.66-.909.66-2.927 0-2.89-1.405-4.79-1.527-2.065-4.331-2.183-1.487.491-1.569 4.991-.536-.577-1.072-1.818-.741-1.818-.864-1.936-.582-.787-1.654-2.355-.369-.618-.369-1.236 0-.25.082-.537 1.237-.786 3.26-.786 2.6 0 5.24.99.246-.74.246-1.485 1.072-.369 1.072-2.31 0-1.113-.204-2.227l-2.35 2.432.863.705.169.286h-.169q-1.318-.041-3.054.745-1.977-.454-1.977-2.15 0-.454.327-.7.082-.081 1.695-.454 1.564-.368 3.423-1.61-2.64-.204-3.673-.577-2.186-.74-2.186-2.559 0-1.072 1.114-1.445 1.031.086 2.681 1.2 1.237.95 2.478 1.854-1.9-4.168-6.768-5.9-1.282 1.569-1.819 8.582-.945-1.482-1.318-3.877l-.659-4.045q-.786-3.505-.786-4"/>
    </g>
</svg>
