<svg xmlns="http://www.w3.org/2000/svg" viewBox="0 0 100 100">
    <g filter="drop-shadow(6px 3px 1px rgba(0,0,0,0.5))">
        <path fill="#c3983c" d="M25.832 85.573v-4.546l24.082 7.314 24.536-7.318v4.545l-24.536 7.318z"/>
        <path fill="#feec99" d="m49.909 90.745 24.54-7.313L86.846 6.936H12.982l12.85 76.496z"/>
        <path fill="url(#1GI_svg__linearGradient29775)" d="m363.944 259.87 1.242 1.66 18.681-5.935-.863-1.63z" transform="matrix(1.32304 0 0 1.26364 -431.25 -237.672)"/>
        <path d="m52.427 24.195-.977 6.182-2.073.591-2.018-.563-1.045-6.21zm-12.9 15.7a2.71 2.71 0 1 1-5.418 0 2.71 2.71 0 0 1 5.418 0m24.891 0a2.71 2.71 0 1 1-5.418 0 2.71 2.71 0 0 1 5.418 0m-12.373 0a2.71 2.71 0 1 1-5.418 0 2.71 2.71 0 0 1 5.418 0M39.527 14.818a2.7 2.7 0 0 1-2.709 2.696 2.705 2.705 0 1 1 0-5.41 2.71 2.71 0 0 1 2.71 2.71zm24.891 0a2.7 2.7 0 0 1-2.709 2.696 2.705 2.705 0 1 1 0-5.41c1.5 0 2.71 1.214 2.71 2.71z"/>
        <path d="m53.818 22.886-1.45 9.223-3.109.868-2.995-.832-1.555-9.259zm3.514 57.209q-.41.123-1.455-.322-.89-.323-1.418-.687.045-.122.045-.163-.045-.119-.286-.646-.24-.482-.24-.768l.04-.24q2.06-.85 2.95-3.678-3.554-.082-5.454-1.537l-.364-1.695.2-.682h.245q1.532-.045 3.228 1.005 1.454.932 2.872 1.863 1.655-1.54 3.31-5.418h-.2q-1.132-.04-2.991 1.05-1.86 1.132-2.864 1.132-.246 0-.491-.04l-.805-.887v-.728q1.046-.245 2.382-.931 1.091-.605 2.223-1.25l-1.86-1.05-.363-.85q-1.209.363-2.909.363-.24 0-.563-.082-.246-.363-.446-.727-.318-.482-.318-.768 0-.118.036-.318.728-.327 2.382-.527t2.386-.61v-5.49q-1.818 1.695-2.227 2.95l.364.886-3.791-.2-.527-2.1 4.159-1.818q.286.118.568.118.845 0 1.536-.846v-2.063q-1.94.968-3.682.968-.24 0-.563-.036-.405-.246-.927-1.137.927-.927 2.786-1.65l2.99-1.172q1.046-.569 3.15-1.578.892-.24 2.628-.927 1.168-.568 1.532-1.618l1.014.445q.645.928.645 2.264 0 .604-.123 1.209l-.886-.2q-1.414.282-3.436 1.21-2.464 1.09-3.355 1.376l.286 2.787q0 .727-.122 2.222-.164 1.491-.164 2.219l.323 1.336q3.477-.85 4.409-1.9.845.323 2.5 1.536-1.41.282-3.514 1.291-2.545 1.255-3.432 1.537-.081.2-.081.404 0 .482.768 1.291.727.81.727.973 0 .118-.123.282l1.737.809 2.181-2.346q.405-.686 1.373-1.94.81-.887 1.818-1.25.246-.61 1.01-1.132.727-.528 1.377-.487h.04Q61.41 69.31 58.46 78.237l1.377 1.254-.082.24h-.081q-.123 0-.364-.122-.24-.077-.323-.077zM35.8 77.51q-.41-.927-.41-1.773 0-.245.046-.527l.887-.568q.163-1.373.282-2.705.24-1.536.568-2.586.363-.768.886-2.71-1.214-.4-3.554-1.408l-.446-.81q.61-.968 2.546-1.336.568-.363 1.577-1.09.404-.319 1.009-1.169.564-.85 1.009-1.213-1.373-3.15-4.727-5.86-2.137-1.695-6.341-4.077l-.241-.932q.482-.481 1.332-.727 1.132-.282 1.413-.404l.85.163 1.373-.486 1.818.163q2.828 2.3 4.682 5.373 1.377-.727 3.923-3.395.768-.646 2.182-2.018.845-.891.845-2.305l1.136-.404 1.573 1.577.164 1.736-1.091 8.564q.036.409.077 1.254-.118 1.618-.564 11.837 0 .163.041.527t.041.523q0 1.818.605 2.95.2.445 1.09 1.413.605.646.605 1.373l-1.818-.645q-1.654.363-4.968 1.131-.927.241-1.941.605-.604.282-1.895.85-.364.159-1.173.159-.886 0-3.391-1.045m11.673-3.237q-.446-.318-.605-1.209-.204-.89-.486-1.214-1.214.241-3.314.969-2.223.772-3.273 1.013l.082 2.182q5.01-.364 7.591-1.74m-5.245-3.314q.482 0 1.454-.119.928-.081 1.455-.081.845 0 1.532-.564l.445-2.827q0-.328-.123-.891-.159-.123-.318-.2-2.995 1.009-6.468 2.786l-.036 1.896zm1.936-5.369v-.65l-2.586-3.672-1.291 1.409q-.968 1.013-.85 1.618l.245 1.295h-.89l-.564.764 1.209.364zm2.955-.85q.359-3.718.881-5.981l-.159-.728.16-2.622-.482-.41q-2.023 1.219-4.046 3.682.65 1.168 1.177 3.15.487 1.655.928 3.314zm13.69-11.109.769-2.75q.486.123 1.172.61v.24q-.045.318.282.968-.286 3.15-.286 2.791 0 .805.85 1.737-1.41-.287-1.896-.891-.363-.405-.486-1.255-.123-1.009-.405-1.454m-18.3 3.072q.728-.363 2.06-1.213 1.413-.968 2.1-1.291.609.282.772.282.2 0 .282-.041.318-.318.318-2.218l-.2-1.9q-2.95 1.209-6.868 3.795.323.686.646 1.414.486.932.89 1.172"/>
    </g>
</svg>
