<svg xmlns="http://www.w3.org/2000/svg" viewBox="0 0 100 100">
    <g filter="drop-shadow(6px 3px 1px rgba(0,0,0,0.5))">
        <path fill="#fee572" d="M49.914.773 24.55 8.682l-12.99 78.74h76.704L75.273 8.683z"/>
        <path fill="#c3983c" d="M11.56 87.423v6.818h76.704v-6.818z"/>
        <path fill="red" d="m47.627 72.436.977-6.222 2.091-.591 2.028.563 1.054 6.25z"/>
        <path fill="red" d="m50.69 65.227-.1.014-2.09.59a.41.41 0 0 0-.291.319l-.977 6.223a.4.4 0 0 0 .395.463h6.15a.4.4 0 0 0 .396-.468l-1.055-6.25a.41.41 0 0 0-.286-.318l-2.028-.564zm.01.814 1.668.463.936 5.528h-5.209l.864-5.5zm9.904 2.986a2.727 2.727 0 1 1 5.455.01 2.727 2.727 0 0 1-5.455-.01m-25.05 0a2.727 2.727 0 1 1 5.455.01 2.727 2.727 0 0 1-5.454-.01m12.463-12.39a2.723 2.723 0 1 1 5.441-.005 2.723 2.723 0 0 1-5.44.004m0 25.237a2.725 2.725 0 1 1 5.45 0 2.727 2.727 0 0 1-5.45 0m10.754-17.705-2.978-2.977 7.973-7.964 2.977 2.977zM42.636 74.364l-7.781 7.963 3.009 2.941L45.65 77.3zM37.864 53.24l-3.005 2.95 7.823 7.963 3-2.95zm20.913 21.1-2.973 2.977 7.973 7.968 2.973-2.977z"/>
        <path fill="red" d="m46.245 74.3 1.46-9.218 3.1-.873 3 .832 1.559 9.259zm1.995-31.673q.287-.663.287-1.422 2.564-2.991 4.364-2.991.909 0 3.232 1.331 3.463 2.182 5.172 2.182-.759 1.137-2.09 2.518-1.705.378-2.61.378-5.554 0-8.354-1.996m-3.368-5.454q1.468-.337 4.318-1.568 1.804-1 2.895-3.041 5.364-1.378 12.487-1.378-.378 4.7-2.228 8.546-.24-2.041-1.568-3.227-1.663-1.232-4.086-1.232-4.273 0-6.123 1.945-2.277 1.232-3.986 1.755-1-1.328-1.71-1.805zm-1.568-13.537q.045-2.281.381-4.604 2.705.995 3.7.995.905 0 1.568-.09l-3.513 2.513 4.227-1.332v1.473q-3.227.664-6.363 1.045m-.237-9.59q1.71.427 2.514.427.904 0 3.182-.332-.191.568-.191.804 0 .478 1.09.855v1q-3.181.9-5.79.9-.091-2.136-.805-3.655m-.095 16.71q0-.996.19-5.269 2.991 1.046 3.7 1.046.76 0 1.71-.146-1.755 1.332-4.41 2.946 2.132-.237 5.5-1.664l-.186 1.9q-5.318 1.137-6.504 1.187m-8.023 9.59q-.568-2.468-1.136-2.468-1.237 0-1.76 1.237-.904 2.04-.904 3.368 0 2.232 1.186 3.418 1.95 1.518 3.61 1.518 1.804 0 2.518-3.227.759-1.71 1.613-3.56.664-.758 1.282-.758.805 0 1.805 1.85 1.468 2.045 3.086 2.045.804 0 1.423-.573 3.136 4.128 8.404 6.837.76 1.613 2.182 1.613 2.85 0 6.077-3.322 2.896-3.228 5.128-13.391 1-1.282 1-2.137 0-1.327-1.619-3.036-1.754-1.85-2.85-1.85-.854 0-2.09.141-4.696.19-10.964.9l.236-2.845q2.518-1.091 4.7-1.519 1.95-.427 1.95-1.427 0-1.659-3.182-2.277-.663 0-3.322.809l.236-1.95q1.9-.664 3.986-1.232 1.855-.523 1.855-1.427 0-1.468-2.71-1.71-.613 0-2.895.337 0-1.377-.427-2.182 4.036-.477 6.268-.954 1.9-.568 1.9-1.66 0-1.427-1.377-2.377-1.518-1.09-3.373-1.09-.759 0-2.277 1.281-7.218 1.996-11.818 2.328-1.568-.523-1.95-.523-.664 0-.664.523 0 .286.191.759-1.9 0-1.9.809 0 .663 1.187 1.709 0 2.563-.714 7.927-.614 4.364-.664 7.832 0 1.9.76 3.704 1.281 1.991 2.754 1.991 1.327 0 1.995-1.895 1.046.377 3.605.377-1.423 1.427-3.368 2.518-.664-.095-1.046-.095-.759 0-2.513 2.04-2.423 1.755-4.56 2.66z"/>
    </g>
</svg>
