<svg xmlns="http://www.w3.org/2000/svg" viewBox="0 0 100 100">
    <g filter="drop-shadow(6px 3px 1px rgba(0,0,0,0.5))">
        <path fill="#fee572" d="m49.914 3.177-21.441 7.118-11.228 72.432h65.337L71.354 10.3z"/>
        <path fill="#c3983c" d="M17.245 82.723v6.818h65.337v-6.818z"/>
        <path fill="red" d="m46.827 67.004.977-6.181 2.087-.587 2 .56 1.05 6.208zm12.914-3.381a2.71 2.71 0 1 1 5.413 0 2.71 2.71 0 0 1-5.413 0m-24.905 0a2.71 2.71 0 1 1 5.419 0 2.71 2.71 0 0 1-5.419 0m24.905-12.319a2.71 2.71 0 1 1 5.413 0 2.71 2.71 0 0 1-5.413 0m-24.905 0a2.71 2.71 0 1 1 5.419 0 2.71 2.71 0 0 1-5.419 0m12.382 0a2.71 2.71 0 1 1 5.418 0 2.71 2.71 0 0 1-5.418 0m0 25.082a2.71 2.71 0 1 1 5.418 0 2.71 2.71 0 0 1-5.418 0"/>
        <path fill="red" d="m45.577 68.89 1.455-9.217 3.104-.873 2.991.832 1.555 9.259zm13.232-44.385q-.65.85-2.91 1.863-2.222.964-2.463 1.287.318 2.627.16 3.959 1.254 1.09 1.495 2.263-.364 1.291-2.018 3.273-1.655 1.94-2.064 3.068.727.727 3.718 1.455 2.664.65 3.637 2.263-.041.646-1.214 1.05-1.168.446-6.136 1.373-4.973.968-5.941.973-1.737 0-2.182-1.737.204-.968 1.29-2.227 1.255-1.373 1.537-2.136-.404-.327-2.5-.41-1.904-.036-1.904-1.772 0-1.136 1.254-2.545 1.291-1.455 3.76-2.828 2.095-1.136 4.2-2.227.24-1.168.24-2.136 0-.41-.04-.687-1.092.318-5.169 2.382-3.114 1.573-5.373 1.536H39.9q-.727-.363-.727-1.05 0-1.295 3.595-4.163v.686l-.282.891q1.578-.409 4.323-1.94 2.586-1.455 3.96-2.624.204-.527.204-1.009 0-.445-.205-.809-2.99 1.937-5.495 2.546l5.254-5.173q-1.618-.24-2.909-1.455-1.295-1.25-1.29-2.827 0-.686.726-2.463l1.046-2.51q.968.287 2.227 1.055 1.532.927 1.532 1.655 0 .286-.81 1.254-.804.968-.804 1.573 0 .204.037.363.363.082.85.082t1.495-.082 1.537-.081q3.068 0 2.95 1.9v.281q-.691.487-2.71 1.537-1.736.89-2.586 1.659 1.05.564 3.114 1.009a68 68 0 0 0 2.218.2q1.09.205 1.659 1.455m-9.05 9.654v-.082q-4.082 1.137-5.9 3.155-.645.727-.645 1.213 0 .282.322.4a2.7 2.7 0 0 0 .61.082q2.018 0 3.836-1.413 1.859-1.455 1.772-3.355m.65 8.486q0-.568-.322-1.172-1.332 1.454-2.182 2.222a.9.9 0 0 0 .282.041q.772 0 2.182-.727.04-.164.04-.364"/>
    </g>
</svg>
