<svg xmlns="http://www.w3.org/2000/svg" viewBox="0 0 100 100">
    <g filter="drop-shadow(6px 3px 1px rgba(0,0,0,0.5))">
        <path fill="#fee572" d="m49.909 3.177-23.15 7.087L14.4 84.145h71.023L73.09 10.35z"/>
        <path fill="#c3983c" d="M14.4 84.145v6.819h71.023v-6.819z"/>
        <path fill="red" d="m46.673 68.409.977-6.182 2.086-.582 2 .555 1.046 6.214zm12.913-3.382a2.71 2.71 0 1 1 5.414 0 2.71 2.71 0 0 1-5.414 0m-24.904 0a2.71 2.71 0 1 1 5.413 0 2.71 2.71 0 0 1-5.413 0M59.586 52.71a2.71 2.71 0 1 1 5.414.005 2.71 2.71 0 0 1-5.414 0zm-24.904 0a2.71 2.71 0 1 1 5.418.005 2.71 2.71 0 0 1-5.418 0zm12.382 0a2.71 2.71 0 1 1 5.418.005 2.71 2.71 0 0 1-5.418 0zm0 25.086a2.71 2.71 0 1 1 5.418 0 2.71 2.71 0 0 1-5.418 0"/>
        <path fill="red" d="m45.282 70.3 1.459-9.218 3.1-.878 2.995.832L54.4 70.3zm19.936-46.764q0 .364-.24.728-.81.527-1.86.809-1.009.282-1.977.522-.687.287-2.023.81-1.573.609-4.4 1.336l-.686-.082 2.5-2.345q1.577-1.537 1.74-2.787-.527-.522-3.354-.522-5.209 0-9.25 2.136-3.554 1.864-7.313 6.104l-1.86 2.182q-1.131 1.291-2.018 1.937-1.172-.81-1.172-3.15 0-1.214 1.777-3.596.163-.24 4-4.604 3.073-3.478 3.877-4.446 2.305-2.827 3.355-4.804-.605-1.214-1.291-1.578.563-.281 1.09-.568.764-.363 1.091-.363 1.937 0 2.746 1.213 0 1.9-1.618 4-.523.727-3.227 3.596-2.023 2.136-2.591 3.513 3.881-2.463 6.872-3.39 3.191-1.014 7.55-1.014 1.5 0 2.591.163 1.332.2 3.432 1.578 2.26 1.49 2.26 2.622m-7.15 21.532q0 1.455-1.737 1.455-.241 0-.564-.037-2.827-.527-5.173-.527-3.436 0-8 2.06-1.613-.487-1.695-2.91l2.99-2.382q-.122-.122-2.545-1.372-1.981-1.01-1.981-1.819 0-1.09 1.536-2.468 1.255-1.127 2.545-1.736 3.069-1.455 3.355-1.614 1.654-1.132 1.654-3.073 0-.4-.081-.804-1.291.645-3.11.645-1.008 0-1.981-.24l-.605-.487q1.291-.486 2.668-2.018 1.696-1.864 2.341-2.305.41-.281 1.214-.281 2.945 0 4.482 1.009v.318q.045.813-.441 1.459-.446.604-.932 1.214-.564 1.045-.645 3.272.159.241 1.495.564 1.373.282 1.86.85.035.2.035.4 0 1.295-2.945 4.364-3.436 3.559-3.882 4.445 2.305-.686 5.337-.686 4.804 0 4.804 2.704m-10.182-9.532q-4.681.85-5.977 3.591.246.773 2.95.932 1.86-.682 3.032-4.523"/>
    </g>
</svg>
