<svg xmlns="http://www.w3.org/2000/svg" viewBox="0 0 100 100">
    <g filter="drop-shadow(6px 3px 1px rgba(0,0,0,0.5))">
        <path fill="#fee572" d="m49.914 5.582-20.887 6.786-11.072 69.918h63.922L70.8 12.364z"/>
        <path fill="#c3983c" d="M17.955 82.286v6.818h63.922v-6.818z"/>
        <path fill="red" d="m47.509 66.568.977-6.182 2.082-.586 2.005.559 1.045 6.21zm12.91-3.386a2.71 2.71 0 1 1 5.417.004 2.71 2.71 0 0 1-5.418 0zm-24.9 0a2.71 2.71 0 1 1 5.413.004 2.71 2.71 0 0 1-5.414 0zm24.9-12.314a2.71 2.71 0 1 1 5.417 0 2.71 2.71 0 0 1-5.418 0m-24.9 0a2.71 2.71 0 1 1 5.414 0 2.71 2.71 0 0 1-5.414 0m12.382 0a2.71 2.71 0 1 1 5.418 0 2.71 2.71 0 0 1-5.418 0m0 25.086a2.71 2.71 0 1 1 5.414 0 2.71 2.71 0 0 1-5.414 0"/>
        <path fill="red" d="m46.245 68.454 1.455-9.218 3.104-.872 3 .831 1.56 9.264zM41.764 19.5q.772 0 2.113.568 1.727.773 2.682 2.464.491.918 1.232 3.35.704 2.295 1.445 3.386.987 0 3.596-2.713 2.5-2.61 2.786-3.637l-.532-1.123q.146 0 .637-.104.422-.036.668-.036.99 0 2.436 1.654 1.446 1.66 1.41 2.682v.245q-.955.491-2.683 1.623-1.759 1.586-5.318 4.441-.604.35-1.695 1.023-.423.245-1.06 1.022-.563.637-1.195.914-3.563 3.527-3.563 5.364 0 2.009 4.3 2.009 2.045 0 5.009-.777 4.686-1.305 4.9-1.341 1.022.386 2.009.74 1.09.455 1.482 1.378 0 .845-.705 1.3-.673.459-2.89 1.163-2.046.741-3 .919-1.796.354-4.514.354-3.455 0-5.955-1.2-3.318-1.518-3.318-4.545 0-2.296 1.768-4.868l3.1-4.3q-.918-1.691-1.654-3.173-.987-2.4-2.01-4.76-1.409-3.031-3.104-3.636.104-.381 1.623-.381"/>
    </g>
</svg>
