<svg xmlns="http://www.w3.org/2000/svg" viewBox="0 0 100 100">
    <g filter="drop-shadow(6px 3px 1px rgba(0,0,0,0.5))">
        <path fill="#fee572" d="m49.909.773-26.09 8.559-12.255 78.09h76.704L76.014 9.333z"/>
        <path fill="#c3983c" d="M11.56 87.423v6.818h76.704v-6.818z"/>
        <path fill="red" d="m46.55 69.459 1.009-6.39 2.15-.605 2.077.577 1.082 6.418z"/>
        <path fill="red" d="m49.704 62.059-.104.018-2.15.605a.41.41 0 0 0-.286.322l-1.01 6.396a.4.4 0 0 0 .396.464h6.318a.4.4 0 0 0 .396-.469l-1.082-6.422a.41.41 0 0 0-.291-.319l-2.073-.577zm.01.818 1.718.482.963 5.7h-5.377l.896-5.677zm10.181-9.65a2.8 2.8 0 1 1 5.596-.013 2.8 2.8 0 0 1-5.596.013m-25.745 0a2.8 2.8 0 1 1 5.595-.013 2.8 2.8 0 0 1-5.595.013m25.745 25.937a2.8 2.8 0 1 1 5.591 0 2.8 2.8 0 0 1-5.59 0m-25.746 0a2.8 2.8 0 1 1 5.59 0 2.8 2.8 0 0 1-5.59 0m13.454-30.991v11.263h4.21V48.173zm.128 24.763L47.645 84.2l4.21.032.09-11.264zm8.745-9.022v4.209H67.75v-4.21zm-24.332-.06-.022 4.21 11.259.059.023-4.21zm24.082-51.863.291-1.9q.864.454 1.446 1.032-.869.863-1.737.863zm.5-2.273q.164-.454.164-.74 0-1.033-2.023-2.146-1.318-.746-1.9-.746-2.636.5-2.636 1.569 0 .827 1.895 2.104 0 4.127-.123 8.255-1.077.536-1.077.95 0 .99 2.396 1.236l4.413-.455q-.618.91-1.895 2.187-1.405.663-2.81 1.159l-.49-.332q-.623-1.277-1.241-1.277-.7 0-.7 1.277 0 .7.659 2.727-.95 10.478-.95 11.014 0 4.373 2.768 6.19 2.637 1.774 9.696 1.774 7.304 0 7.304-3.505 0-1.323-1.486-2.104-2.764-6.773-7.096-9.619 1.728 2.519 2.269 9.819-3.469.827-6.646.827-3.877 0-3.877-1.364.04-2.018 1.65-9.773l2.023-.581q-1.032 2.727-1.032 3.218 0 .704 1.236 1.282-1.609 2.431-1.609 3.218 0 1.154 3.345 1.94-.622.742-1.445 1.442 1.61-.164 3.714-.537 1.568 0 1.568-1.236 0-.66-.66-1.405-.908-.909-1.695-.909-1.277 0-2.636-.204l1.109-1.155q1.86-.577 1.86-1.818 0-1.273-2.35-2.06l1.935-1.98q1.319-.62 1.319-1.487-.164-1.364-2.1-1.61-.664 0-1.405.496-1.486.864-2.886 1.527 0-1.072-.455-1.859 1.4-.7 4.827-1.113 2.273-.328 2.273-1.319 0-.622-.582-1.159 1.155-.822 2.146-1.854 1.236-.577 1.236-1.196 0-.745-.74-1.486-1.487-1.486-2.6-1.486-.864 0-1.773.95l-4.787 1.568q.7-1.732 1.073-3.468 1.073.454 1.977.454 5.696-.495 5.696-2.636 0-2.355-3.091-2.355-.291 0-.705.123-1.486 0-3.054-.332zM39.345 29.073q.787-1.818 4.046-3.014.164 2.436.164 5.364-1.691 1.445-3.591 2.104.786-1.195 1.981-2.554 1.487-.787 1.487-1.446-.123-.95-1.527-1.113-.455 0-2.56.659m-1.113 5.118q.123-1.527.454-2.973.455.082.91.082.409 0 1.031-.04-.786 1.235-1.736 2.476zm-6.846-10.068q-.618-.373-.909-.373-.782 0-.782.618 0 .864.864 1.487 1.818.909 2.768.909 1.568 0 5.818-2.6-3.509 4.909-4.663 13.863-.741 1.528-.741 2.023.454 4.25 2.39 4.25.95 0 1.319-.7.54-2.81.623-7.473.495.746 1.113.746.864 0 4.373-3.305 0 2.727-.368 6.068-2.6-.409-4.91-2.063 1.442 2.932 4.246 5.572.578 1.773 1.9 1.773 1.941 0 3.055-4.29-.537-9.246-.537-10.483 0-.372.287-2.477.536-1.073.536-1.65 0-.863-1.4-1.895-1.2-.746-1.94-.746-.619 0-3.3 1.61.822-1.855 4.208-2.969l3.714-.827q.495-.164.495-1.236 0-1.446-2.809-1.61-.409 0-1.936 1.155l-3.673 1.114q1.855-1.282 3.918-2.396 2.85-.74 2.85-1.65 0-1.4-2.063-1.65-.705 0-1.737.618l-1.481.414q1.154-.95 4.454-2.227 1.277-.414 1.277-1.155 0-1.2-1.936-1.982 0-2.063-1.114-3.136-.99-.99-2.354-.99-3.918 0-3.918 1.276 0 .582 1.772 1.487l.66.5-3.382 1.977 4.332-.536 1.113.081-.95.991-7.136 2.31-2.023.168q-.409.081-.409.659 0 .409.782.74 1.69.578 2.35.578.618 0 3.345-.577-1.118 1.031-2.063 1.772-.705.664-.705 1.573 0 1.4.746 1.4.7 0 3.218-2.35 1.277-.618 2.559-1.032-3.714 3.382-7.427 5.032z"/>
    </g>
</svg>
