<svg xmlns="http://www.w3.org/2000/svg" viewBox="0 0 100 100">
    <g filter="drop-shadow(6px 3px 1px rgba(0,0,0,0.5))">
        <path fill="#fee572" d="m49.909.773-24.09 7.382-12.837 76.427h73.863L74 8.155z"/>
        <path fill="#c3983c" d="M12.982 84.582V91.4h73.863v-6.818z"/>
        <path fill="red" d="m46.682 71.159.977-6.182 2.086-.586 2 .559 1.05 6.209zm12.909-3.386a2.71 2.71 0 1 1 5.418.004 2.71 2.71 0 0 1-5.414 0zm-24.891 0a2.705 2.705 0 1 1 5.41 0 2.71 2.71 0 0 1-5.41 0m24.89-12.319a2.71 2.71 0 1 1 5.419.01 2.71 2.71 0 0 1-5.414-.005zm-24.89 0a2.705 2.705 0 1 1 5.41 0 2.71 2.71 0 0 1-5.41 0m12.373 0a2.71 2.71 0 1 1 5.418.01 2.71 2.71 0 0 1-5.418-.005zm0 25.091a2.71 2.71 0 1 1 5.418 0 2.71 2.71 0 0 1-5.418 0"/>
        <path fill="red" d="m45.245 72.954 1.446-9.218 3.113-.877 2.991.836 1.555 9.26zm-3.69-27.15 2.24-1.263.782.727zm0-5.7q0-.636 4.19-2.29l-.095 1.9q-.586.972-1.61 1.804-2.485-.732-2.485-1.413m-16.378-4.046q0 .436 1.123.436 2.632 0 7.114-2.777 1.709-1.218 5.409-5.118 1.904 2.386 4.877 2.386.827 0 2.632-.29-.246 1.268-.391 2.727-7.018 2.927-7.018 4.536 0 2.341 3.409 5.118-2.582 1.95-4.627 2.777-.928.196-2.291.291-1.364.196-1.364 1.319 0 1.268 1.46 2.045 1.172.636 2.29.636 1.218 0 6.486-1.272 3.8-.728 6.578-.728 5.068 0 10.772.441 2.537 0 2.537-2.486 0-1.364-1.028-2.291-2.727-1.954-4.286-1.954-1.268 0-3.268 2.195-4.241.636-6.337.832l.05-4.487q2-2 4.191-3.85 1.269-.636 1.269-1.559 0-1.9-4.728-3.072.341-1.319 1.705-2.582 3.9-.977 3.9-2.682 0-1.56-1.218-2.29-1.9-.928-3.219-.928-.877 0-2.436 1.804-4.923 2.146-8.818 2.241 3.945-4.677 8.282-10.232 5.509 4.387 10.772 10.232 3.364 3.56 4.873 4.046 2.877.832 6.773.832 3.123 0 3.123-1.319 0-2.386-2.191-4.822-1.073-1.223-4.046-2.196-3.609-.973-4.777-1.509-4.777-3.268-12.432-7.945 2.391-2.878 2.391-3.705 0-.927-1.564-2.29-1.363-1.124-2.481-1.124-3.023.146-3.023.978 0 .877 1.073 1.754-10.918 18.182-20.718 24.91-.828.29-.828.972"/>
    </g>
</svg>
