<svg xmlns="http://www.w3.org/2000/svg" viewBox="0 0 100 100">
    <g filter="drop-shadow(6px 3px 1px rgba(0,0,0,0.5))">
        <path fill="#fee572" d="m49.909.773-26.1 8.559-12.25 78.09h76.705L76.009 9.333z"/>
        <path fill="#c3983c" d="M11.56 87.423v6.818h76.704v-6.818z"/>
        <path d="m46.523 70.64 1-6.336 2.131-.595 2.055.564 1.073 6.368z"/>
        <path d="m49.645 63.304-.1.019-2.131.59a.41.41 0 0 0-.287.328l-1 6.34a.4.4 0 0 0 .396.464h6.259a.4.4 0 0 0 .395-.468l-1.073-6.368a.41.41 0 0 0-.29-.318l-2.055-.568zm.01.819 1.7.468.954 5.65h-5.318l.886-5.623zm13.868-13.35-8.355 8.354 2.977 2.977L66.5 53.75zm-22.15 22.163-8.168 8.355 3.009 2.94 8.168-8.35zm-5.164-22.15-3 2.955 8.2 8.35 3-2.95zm21.936 22.132-2.977 2.977 8.355 8.355 2.977-2.977zm6.546-47.154q-.123.409-1.032 1.195-.864.746-1.114 1.16-.122 1.072-.122 2.476 0 2.105.29 6.319.328 4.168.328 6.272 0 1.323-.164 2.891-.163.21-1.195 2.605-.746 1.69-1.778 2.063-1.281-.29-2.395-1.404-.66-.91-2.064-2.6-.99-.955-1.981-1.941-1.282-1.282-1.323-2.273 2.354 1.032 4.254 1.032.741 0 1.405-.164.04-1.318.04-2.6t-.045-2.604q-2.804-1.318-5.49-1.318-5.946 0-11.81 2.972l-.7-.209q-.295 5.619-1.159 7.637-.368.872-1.363 1.736-1.855-.164-1.855-3.754 0-.869.864-6.441.868-5.619.827-9.169v-1.077l-1.318-2.145.164-.373 1.65.29q4.872-1.03 7.559-2.64 2.85-1.695 5.863-5.495-.577-.496-1.282-1.441-7.513 6.15-10.363 6.44-1.277.123-3.055.123-1.695 0-2.436-.618 7.227-2.85 12.677-9.5.082-.29.082-.577 0-.455-.164-.91l.287-.372q.745-.245 1.404-.245 1.073 0 2.682.827 1.655.823 2.068 1.732l-.909 1.24q.618.41 2.932.41 1.114 0 3.095 2.109-.081 1.486-.786 1.9-.74.245-2.105.74-2.227.955-3.095 2.564 1.445-.372 2.85-.745 1.773-.41 2.89-.41.742 0 2.765.987 1.736.827 2.681 1.486.996.66 1.45 1.819zm-6.81 2.145v-2.182q-.331-.786-1.695-.786-1.854 0-5.49.909 1.072.745.908 1.527 1.732-.372 2.273-.372 1.773 0 4 .909m-.204 6.113q-.041-2.477 0-4.418-.578.782-1.9.95h-3.137q-1.154 0-1.818.618l-.123 2.518q1.732-.454 3.76-.454 1.895 0 3.218.786m-10.528-5.286q0-.373-.5-.95-.454-.577-.531-.91-3.555 1.446-5.782 2.024l.082 1.736h.204q1.532.082 6.486-1.568.041-.21.041-.332m.164 5.409V32q-1.032.29-2.064.54-1.318.41-1.94.865-1.446-.782-3.014-1.982 0 2.395-.25 4.913 3.8-1.031 7.273-2.181"/>
    </g>
</svg>
