<svg xmlns="http://www.w3.org/2000/svg" viewBox="0 0 100 100">
    <g filter="drop-shadow(6px 3px 1px rgba(0,0,0,0.5))">
        <path fill="#fee572" d="m49.909.773-24.09 7.382-12.842 76.422h73.864L74 8.15z"/>
        <path fill="#c3983c" d="M12.977 84.577v6.818h73.864v-6.818z"/>
        <path d="m46.659 67.832.977-6.182 2.073-.591 2.018.56 1.046 6.213zm12.91-3.387a2.71 2.71 0 1 1 5.413 0 2.71 2.71 0 0 1-5.41 0zm-24.9 0a2.71 2.71 0 1 1 5.417 0 2.71 2.71 0 0 1-5.418 0m24.9-12.313a2.71 2.71 0 1 1 5.414-.005 2.71 2.71 0 0 1-5.41.005zm-24.9 0a2.71 2.71 0 1 1 5.418 0 2.71 2.71 0 0 1-5.418 0m12.373 0a2.71 2.71 0 1 1 5.418 0 2.71 2.71 0 0 1-5.418 0m0 25.077a2.7 2.7 0 0 1 2.709-2.695 2.705 2.705 0 1 1 0 5.409 2.71 2.71 0 0 1-2.71-2.714"/>
        <path d="m45.273 69.14 1.454-9.226 3.1-.864 2.996.827 1.563 9.264zm3.195-58.7a2.05 2.05 0 0 0-.895.274h-.01a5 5 0 0 1-.527.254 9 9 0 0 0-.89.041c-.455.027-.828.182-1.028.496a.27.27 0 0 0 0 .29l1.377 2.26q-2.045 4.75-6.536 10.759-4.914 6.527-8.732 9.022a.282.282 0 0 0 .018.482q.41.227.823.237c.491 0 1.055-.319 1.877-.887q1.228-.854 3.15-2.532h.005c.34-.145.714-.427 1.218-.886q.818-.75 2.037-2.09c1.74-1.97 2.809-3.078 3.309-3.5q.695.854 1.886 1.372c.136.382.432.882.954 1.65l.005.009c.468.645.673 1.173.673 1.532 0 .168-.046.354-.091.54l-7.25 1.755-.927-.336a.5.5 0 0 0-.15-.014l-.205.046a.27.27 0 0 0-.227.272v.205l.013.09q.328.978.646 1.442l.009.013.886 1.132a.27.27 0 0 0 .178.105l1.213.2a.27.27 0 0 0 .305-.178 1.36 1.36 0 0 1 .882-.845 32 32 0 0 1 1.581-.395l.055-.019q.636-.277 1.318-.559h.01q.681-.263 1.217-.259l.155.014c.136.968.204 2.423.182 4.427-.028 1.991.072 3.486.29 4.591l-9.267 2.15-.705-.15h-.114l-.54.114-1.064-.31a.282.282 0 0 0-.355.305q.214 1.7 1.532 3.868a.27.27 0 0 0 .177.127l.887.205a.27.27 0 0 0 .168-.018 2.46 2.46 0 0 0 1.35-1.146 36 36 0 0 1 4.695-1.336l.037-.014q1.854-.6 2.318-.718a27 27 0 0 1 2.34-.277l.069-.014c1.04-.318 1.754-.472 2.014-.472q.563 0 1.559.195c.863.191 1.404.3 1.681.332h.014l1.886.123c.373.045 1.2.281 2.4.709q1.455.5 2.723.5h.014l.809-.046a.27.27 0 0 0 .164-.059 2.09 2.09 0 0 0 .827-1.627 1.96 1.96 0 0 0-.646-1.373 6.4 6.4 0 0 0-1.772-1.145q-1.932-.955-3.41-.873h-.004l-6.682.318-.273-.1c.032-.027.028-.059.069-.09a1.8 1.8 0 0 1 .645-.219h.01a9 9 0 0 0 .945-.227 1.4 1.4 0 0 0 .422-.218h.005c.845-.146 2-.646 3.518-1.487h.005q1.045-.604 1.681-.9a3.2 3.2 0 0 1 .8-.277q.246 0 .491.073a.282.282 0 0 0 .355-.228 5 5 0 0 0 .045-.486c0-.545-.259-1.059-.722-1.509s-1.128-.84-1.996-1.214l-.1-.022-3.068-.123a.282.282 0 0 0-.26.409l.578 1.127c-.518 1.228-1.663 2.528-3.418 3.855l-.145-.727q0-.082.036-.296a5 5 0 0 0 .045-.409 2.3 2.3 0 0 0-.09-.555 2.3 2.3 0 0 1-.073-.418q0-.15.077-.545a5 5 0 0 0 .086-.668q0-.823.019-1.3a5 5 0 0 1 .05-.56.5.5 0 0 0 .004-.136l-.136-.632.613-1.19 3.078-.382 2.79.477a.5.5 0 0 0 .146-.014l1.21-.445a.27.27 0 0 0 .18-.218q.046-.3.046-.569a1.82 1.82 0 0 0-.704-1.463 2.36 2.36 0 0 0-1.56-.591v.559h-.017l-.032-.005-.037-.009-.072-.045-.105-.164.041-.213.068-.073.037-.018.045-.018c.027-.01.01-.005-.005 0l-.209.027-.95.118c-.836.105-2.159.268-3.877.473l-.286-.268.372-.91.019-.104a2.6 2.6 0 0 0-.81-1.855l-.104-.068c-.123-.045-.205-.04-.314-.068.45-.136.9-.286 2.023-.564 1.05-.272 1.9-.59 2.6-.94a264 264 0 0 1 3.341 3.877l.014.013q2.159 2.25 4.24 3.25a.27.27 0 0 0 .178.023 4.6 4.6 0 0 1 1.4 0c.786.11 1.25.164 1.49.164q.283 0 .773-.082.519-.077.723-.077 1.455 0 2.023-.082a.5.5 0 0 0 .136-.064l.85-.727a.27.27 0 0 0 .096-.264l-.241-1.372a.27.27 0 0 0-.096-.169q-1.268-1.045-3.631-1.981-2.746-1.137-3.628-1.714l-.018-.01q-1.454-.863-3.054-2.417a386 386 0 0 1-2.705-2.823l-.01-.01a146 146 0 0 0-5.53-5.04 3.2 3.2 0 0 0 1.072-.5 1.59 1.59 0 0 0 .586-1.246l-.004-.054-.123-.646a.27.27 0 0 0-.114-.177q-1.259-.89-2.109-1.35c-.568-.304-.99-.477-1.363-.477m.045 6.482a146 146 0 0 1 3.1 4.477l-.077-.01c-.582 0-1.396.274-2.541.792l-1.746.809-.686.309a46 46 0 0 1-1.923.568l-.436-.295zm-8.023 18.322a.282.282 0 0 0-.268.4c.15.319.396 1.373.664 3.037.195 1.332.65 2.313 1.404 2.886a.27.27 0 0 0 .296.027 1.96 1.96 0 0 1 1.236-.218.27.27 0 0 0 .296-.145q.6-1.123.559-2.591v-.446l-.023-.113a3.77 3.77 0 0 0-1.786-1.837l-.019-.009-2.259-.968z"/>
    </g>
</svg>
