<svg xmlns="http://www.w3.org/2000/svg" viewBox="0 0 100 100">
    <g filter="drop-shadow(6px 3px 1px rgba(0,0,0,0.5))">
        <path fill="#fee572" d="M49.909 0 22.791 8.89l-12.655 80.6h79.546l-12.65-80.6z"/>
        <path fill="#c3983c" d="M10.136 89.49v6.819h79.546v-6.818z"/>
        <path d="m45.227 74.404 1.455-9.213 3.1-.882 2.995.832 1.564 9.263zm14.41-5.045a2.71 2.71 0 1 1 5.413 0 2.71 2.71 0 0 1-5.418 0zm-24.905 0a2.71 2.71 0 1 1 5.418-.005 2.71 2.71 0 0 1-5.418 0zm24.904-12.314a2.71 2.71 0 1 1 5.414 0 2.71 2.71 0 0 1-5.418 0zm-24.904 0a2.71 2.71 0 1 1 5.418-.004 2.71 2.71 0 0 1-5.418 0zm12.382 0a2.71 2.71 0 1 1 5.418 0 2.71 2.71 0 0 1-5.418 0m12.522 25.078c0-1.5 1.21-2.7 2.705-2.7a2.705 2.705 0 1 1 0 5.409 2.71 2.71 0 0 1-2.71-2.71zm-24.904 0a2.7 2.7 0 0 1 2.709-2.7 2.705 2.705 0 1 1 0 5.409 2.71 2.71 0 0 1-2.71-2.71m12.383 0a2.7 2.7 0 1 1 5.4 0 2.7 2.7 0 0 1-5.4 0"/>
        <path d="m45.09 74.627 1.455-9.213 3.1-.878 3 .832 1.56 9.26zM56.314 7.645l5.604.91q.1.254.96.963.863.655 1.008 1.514-.704 1.263-2.772 1.768-.71.15-3.437.35-.809.055-3.536.66-2.677.554-3.437.808-1.409.455-2.422 1.164 1.513.704 2.982 1.363 1.613.805 2.018 2.523l-.2.96q-1.014.05-1.318.908-.15.41-.15 1.719-.046.2-.1.659-.05.4-.05.604l.154 1.214q.455 0 1.968-.155 1.21-.1 1.968-.1 3.337 0 5.05 2.423v1.468l-1.109.705-2.122-.455q-.605-.15-2.878.455-2.227.609-2.881 1.163l-.3 1.214.3 1.21-.91 8.99q10.41-.405 10.76-.405 1.618 0 3.836.66 2.273.654 3.236 1.463l1.414 1.464q1.059 1.213 1.059 1.818 0 .554-.755 1.164-.759.654-1.213.5-5.205-1.819-6.064-2.069-3.636-1.059-6.363-1.059-5.3 0-12.773 1.614-.66.104-1.823.759-1.109.66-1.718.81-1.718.404-2.018.554-1.014.454-1.264 1.463l-1.868.71q-1.264-.255-2.527-1.719-1.21-1.463-1.968-1.718l-.66-1.514.355-.25q.205.046.71.2.554.15.808.15.15 0 4.041-1.209 4.291-1.318 5.655-1.668 3.281-.859 5.809-1.063-1.01-2.019-1.01-6.31v-.659q0-2.627-.254-4.04l-2.373.204q-2.322-.56-6.468-2.327l1.114.104q1.009 0 8.182-2.377.304-9.34.304-8.586 0-1.819-1.668-2.473-.66.15-2.523.2-1.568 0-2.172.254-2.682-1.163-6.364-4.24l2.273.25q1.863 0 10.354-2.373 5.046-1.414 9.546-3.287"/>
    </g>
</svg>
