<svg xmlns="http://www.w3.org/2000/svg" viewBox="0 0 100 100">
    <g filter="drop-shadow(6px 3px 1px rgba(0,0,0,0.5))">
        <path fill="#fee572" d="m49.914 3.177-21.441 7.118-11.228 72.423h65.337L71.354 10.295z"/>
        <path fill="#c3983c" d="M17.245 82.718v6.818h65.337v-6.818z"/>
        <path d="m45.832 78.923 1.24-7.873 2.642-.746 2.563.705 1.327 7.914zm1.777-26.205v13.864h4.21V52.718z"/>
        <path d="m45.45 80.136 1.454-9.213 3.105-.882 2.99.832 1.555 9.263zm5.118-67.831 1.455.286.772-.286q.928.163 1.614.85t.686 1.618q0 1.29-.968 1.654-.809.164-2.345.528-.768.24-2.423 1.09-1.94.969-2.182 1.455l2.06.768q.286.682 1.331 1.855 3.841-1.21 8.282-1.21 1.418 0 2.386.928 1.01.932 1.01 2.345l-.123.564-1.737.486-2.422-.486q-1.578-.282-2.505-.282-1.05 0-1.864.282 4.41 4.727 9.337 6.99 1.7.805 3.436 1.574 1.936.89 3.227 1.9l.487.927q-.646.645-1.291.932l-.891-.205-1.655.364-2.222-.2-.81.363q-2.786-.322-5.009-2.586v.605q-.318.322-.645.686-.323.327-.323.85 0 .282.164.645 0 .973.036 2.71.046 1.895.046 2.663 0 4.486-2.146 5.332l-.727-.16-.645-1.254q-.282-.118-2.746-.563-.245.04-3.354.445-2.1.282-3.355.727-.968.564-2.909 1.614-.886-.727-1.455-1.895.728-3.96.728-9.619 0-2.422-1.091-2.786-.968.605-.968 1.332-.928 1.09-1.819 2.227-1.209 1.491-2.059 2.055-1.736 1.09-2.586 1.09l-1.895-.036q2.663-1.895 6.422-6.704 3.273-4.2 5.21-7.796-3.637 0-5.332 2.06-.2.045-.446.045-1.332 0-1.859-1.377-.24-.569-.523-2.591 1.132.163 2.664.568 3.273-.764 4.89-1.21 3.474-.931 4.728-1.617-.245-1.455-1.454-3.15l-.569.204-.645-.204q-1.01.281-1.173.281-.159 0-.4-.118l-3.395-.163q.645-.364 5.213-2.787 3.068-1.7 4.968-3.273l-.609-.609v-.445l.891.082zm-.604 12.204q-.487.118-.605 1.046-.082.727-.123 1.418l.241.604-.363 1.982.286.727q-.323.119-.41.646-.076.482-.117.89l.245 1.092 4.482-.364q1.777-.164 3.114.605-2.305-2.828-6.75-8.646m-9.819 9.732 1.941.773q.728-.41 2.387-.728t2.34-.645q-.404-1.377-.445-3.682t-.282-3.273q-1.213.164-2.018 1.137-.123.159-1.295 2.059-.082.2-1.496 2.1-.927 1.173-1.127 2.263zm2.428 2.468.2 3.514q2.222-.164 4.24-.687l3.841-1.331h1.173q.523 0 1.01-.246.158-1.936.158-2.136 0-1.214-.845-1.214.482 0-2.468.364-4.846.682-7.31 1.736M44.756 42l-.487-.123q-1.29 0-1.577.446v.727q0-.2.164.686-.082.891.081 2.587 1.173-.16 4.968-1.173 3.032-.768 5.01-.845v-3.882l-.487-.2q-3.39.563-3.877.686-2.586.527-3.795 1.091"/>
    </g>
</svg>
