<svg xmlns="http://www.w3.org/2000/svg" viewBox="0 0 100 100">
    <g filter="drop-shadow(6px 3px 1px rgba(0,0,0,0.5))">
        <path fill="#fee572" d="m49.914 3.177-23.16 7.087L14.4 84.136h71.023L73.09 10.35z"/>
        <path fill="#c3983c" d="M14.4 84.14v6.819h71.023v-6.818z"/>
        <path d="M50.727 59.127A3.955 3.955 0 0 0 46.8 63.06c0 2.16 1.777 3.923 3.932 3.923 2.15 0 3.918-1.773 3.918-3.923a3.955 3.955 0 0 0-3.918-3.932zm0 2.41a1.5 1.5 0 0 1 1.518 1.522c0 .864-.654 1.518-1.513 1.518a1.5 1.5 0 0 1-1.528-1.518c0-.855.669-1.523 1.528-1.523zM60.6 50.668a2.723 2.723 0 1 1 5.44.005 2.723 2.723 0 0 1-5.44-.005m-25.055 0a2.723 2.723 0 1 1 5.446.005 2.723 2.723 0 0 1-5.441-.005zm15.182-3.923a3.955 3.955 0 0 0-3.927 3.923c0 2.155 1.773 3.932 3.932 3.932a3.955 3.955 0 0 0 3.918-3.932 3.94 3.94 0 0 0-3.918-3.923zm0 2.41c.864 0 1.518.65 1.518 1.513a1.5 1.5 0 0 1-1.513 1.527 1.5 1.5 0 0 1-1.528-1.527 1.5 1.5 0 0 1 1.528-1.518zm-4.613 31.377 1.454-9.228 3.105-.868 2.99.832 1.564 9.264zm11.081-69.264q.487.241 1.9.364 1.214.077 1.823.682l-.204 1.054q-.687.241-.728.81v1.05l-.404 1.172.204.568 1.578-.286q.404.123 1.495.163 1.09 0 1.777.728.082.2.082.409 0 .523-.932 1.49-.04 0-1.454.446-.81.241-1.332.768l-1.536.61-.205 2.827q.527.122 1.136.122 1.373 0 2.464-.363 3.436.404 5.09 1.654v1.137l-2.222.282q-.282.036-1.25-.364-.932-.41-1.5-.41-.24 0-.482.083-.409-.16-.772-.16-1.696 0-5.01.769-.122.036-2.063.768-1.941.727-2.1.809-.691.364-.973.886l-1.536-.445q-.123-.441-.605-.727-.445-.282-.445-.564 0-.04.04-.164l.687.046q1.214-.568 3.518-1.255 2.505-.772 3.555-1.213l-.118-.646.281-1.7-3.681-.973-1.128-1.09q2.869-.523 4.81-1.455 0-.405.122-1.332.118-.973.118-1.418l-.2-2.786q-1.009-.446-1.618-1.296zm-13.3 1.291q1.214.486 2.428.932 1.254.604 1.495 1.982-1.05.2-1.214 1.25v2.022q0 .2-.081.569-.078.363-.078.563 0 .568.523.932.123 0 .527-.045.282-.037.487-.037.89 0 1.332.81l-.2.927q-.932.527-1.864 1.013-1.291.687-1.25 1.41.077 1.095.077.854l-.363 1.659.163 1.01q1.577.563 3.155 1.172 1.618.886 1.695 2.668l-.809 1.01q-.523.04-1.409-.124-.045 0-.932-.681-.85-.728-.932-.855-.159-.318-.645-.927l-.205.522.046 1.578-.287 1.7.164.686-.164.85.241 1.373-.159.85.241 1.536q0 .164-.082.487-.077.281-.077.445l.16.927-.242.891.364.968-.727 1.66-.891-.041q-.61-.605-.891-1.7-.405-1.491-.564-1.86l.523-7.354-.077-1.418q-.891.122-1.741 1.336-.605.932-1.214 1.9-.968 1.25-3.109 2.427-2.673 1.373-3.395 2.019l-.569-.16-1.9.2-.809-.24q1.741-1.337 5.137-4.164 1.695-1.455 3.8-4.65 2.14-3.236 2.704-5.336-2.668.481-3.513 1.859-.728 0-1.578-.773-1.136-.964-1.377-1.091l-.727-1.773q.286-.122.609-.122.727 0 1.695.645 1.337-.282 3.114-1.25 2.264-1.295 2.955-1.582l.363-4.968-.163-1.94q-.85-.287-1.741-1.783l-.037-.2q.928.041.682.041.727 0 1.336-.609m13.3 15.405 2.791 1.05q.164.568.164.686 0 .327-.286.85-.241.486-.241.773 0 .24.204.563l.81-.04q3.15-.164 3.795.968l-.037.772q-.527.441-1.863.728-1.532.281-2.018.522-.932.487-.932 1.619 0 .24.082.727.122.486.122.727l-.204 1.25.609.246 1.695-.323q.287-.61 1.296-.61l1.332.323q1.213.287 2.509.569 1.413.404 2.263 1.136l.241 1.045-.445 1.055-.768.24q-.846-.122-3.437-.85-2.14-.604-3.395-.604-1.737 0-4.487.446-3.072.445-4.327 1.009-1.25.527-1.94 1.577-.605-.245-1.092-1.05-.44-.773-.768-.85v-.89l.568.204q1.25-.487 3.437-1.091 2.504-.65 3.477-.973v-3.436q-.364-.123-2.346-.2-1.454-.082-2.227-.85 3.477-1.091 5.182-2.023.077-1.173.077-2.345 0-.282-.04-.523L55.581 29.3q.118-.205.318-.61l-.036-.122z"/>
    </g>
</svg>
