<svg xmlns="http://www.w3.org/2000/svg" viewBox="0 0 100 100">
    <g filter="drop-shadow(6px 3px 1px rgba(0,0,0,0.5))">
        <path fill="#fee572" d="M49.914 6.664 29.027 13.45 17.955 83.368h63.922L70.8 13.45z"/>
        <path fill="#c3983c" d="M17.955 83.364v6.818h63.922v-6.818z"/>
    </g>
    <path d="M48.273 57.59a2.445 2.445 0 1 1 4.89 0 2.445 2.445 0 0 1-4.89 0m-2.155 16.178 1.455-9.227 3.104-.868 3 .831 1.56 9.264zm4.655-57.341q.5 0 1.695.46 1.196.422 1.514.74.036.282.036.528 0 .6-.245.845l-.073 3.21q1.023 0 4.164-1.337.35.104 1.759.104.531 0 .954.35.423.318.387.814v.068q-.564.564-1.41.673-.813.104-1.59.173-3.732.459-4.191.672-.355.35-.355 1.905 0 .318-.454 1.654l.736.037 7.123-1.128q.845-.14 2.222.423 1.196.491 1.973 1.196l.068 1.377q-.845.564-1.477.564-.46 0-2.118-.455-1.618-.464-2.5-.464-5.114 0-7.546 1.2.669.141 1.341.319.668.14.81.918-.387 1.477-.387 2.572l-.11 1.269q.037-.21.11.636l.068 1.268q.073.741.423 1.127l2.927-2.89-.49-.705q.136-.773 1.408-.773.282.246 1.055.278l1.132.072-2.787-3.104q4.973.813 7.087 3v.136q.032.46-.387.886-.531.491-.6.705h-.181q-.314.032-.946-.286-.636-.35-.882-.35l-.354.845q-.987.246-2.114 1.305-.85.881-1.727 1.763-.6.387-1.764 1.341-.6.668-1.8 1.864-.527.5-1.973 1.518-.954.814-2.89 2.223-1.273.772-2.15 1.2-.705.209-2.046.772-.773.423-1.513.846-1.023.495-1.66.495-.245 0-.772-.14l-.991.245-.668-.177q5.463-2.537 12.304-8.496-.532-1.163-1.34-1.904l-1.55-1.546q1.126-.318 2.89-.886.032-.318.032-.6t-.105-.846q-.072-.6-.072-.913 0-1.66-.241-2.187-.214-.563-1.487-1.518-.209 0-3.24.564-2.15.423-3.137.74-2.045.6-2.818 1.483l-1.027.386q-.95-.386-1.691-1.336-.705-.955-.741-1.941l1.09.072q.85.596 1.06.596.073 0 6.877-1.76l.705-.5q-.496-.204-.496-.772 0-.177.037-.564.072-.422.072-.6 0-3.631-1.131-4.195l.181-.105.032-.14-.14-.246.986-.11q.177.215 1.481.496 1.091.214 1.269 1.06-.141 1.477-.705 4.827 1.832 0 3.418-.637l-.563-1.477.209-4.936q-.137-.35-.173-1.273 0-.91-.141-1.16-.423-.6-1.164-1.69.069-.673 1.478-.673m-7.718 16.537q.386 0 .527.318.073.136.354 1.336.282 1.164.282 1.341 0 1.164-.495 2.15-.564 1.091-1.514 1.518-1.09-.636-1.09-1.8 0-.845.986-2.363.986-1.514.954-2.5z"/>
</svg>
