<svg xmlns="http://www.w3.org/2000/svg" viewBox="0 0 100 100">
    <g filter="drop-shadow(6px 3px 1px rgba(0,0,0,0.5))">
        <path fill="#fee572" d="m49.909.773-26.09 8.559-12.255 78.09h76.704L76.014 9.333z"/>
        <path fill="#c3983c" d="M11.56 87.423v6.818h76.704v-6.818z"/>
        <path d="m46.514 67.318 1.009-6.395 2.15-.605 2.086.577 1.073 6.428z"/>
        <path d="m49.668 59.918-.1.014-2.154.604a.41.41 0 0 0-.287.328l-1.009 6.395a.4.4 0 0 0 .396.464h6.318a.4.4 0 0 0 .4-.469l-1.078-6.427a.41.41 0 0 0-.29-.318l-2.082-.577zm.01.818 1.726.478.955 5.704h-5.373l.896-5.677zm-2.11-14.709V57.3h4.21V46.027zm.141 24.768-.1 11.26 4.21.036.1-11.26zm8.745-9.022v4.209h11.269v-4.21zm-24.345-.06-.023 4.21 11.269.059.022-4.21zm31.31-48.695q0 1.896-3.465 1.896-.99 0-1.859-.823l-1.486-1.405.045-.245q2.682-.827 4.41-.827 2.354 0 2.354 1.404m-1.032 4.746q0 .204-.04.409-.823.582-2.023.582-2.555 0-3.837-1.86v-.409q2.273-.377 3.632-.377 2.273 0 2.273 1.655zm7.06 23.972q0 1.114-.746 1.737-.741.659-1.896.659-1.031 0-3.181-.787-1.896-.7-3.05-1.363-3.3-1.937-5.078-5.732-1.568-3.468-1.568-7.636 0-.946.082-1.855-1.155.41-2.636 1.073v2.886q.036 5.16-.21 7.473-.536 5.24-2.477 6.477-1.154-4.086-1.154-12.09 0-2.519-.082-3.342-1.818.782-3.468 1.691-.455 5.241-3.423 8.705-3.218 3.713-8.295 3.963l-.373-.209q2.477-1.522 5.036-4.7 2.846-3.55 3.055-6.068-3.714 1.527-4.168 2.764-.123.045-.21.045-.781 0-1.277-1.654-.409-1.237-.409-2.273 0-.364.327-1.523l.287-.29 1.118.954q2.35-1.036 4.618-1.946v-.368q.082-1.736-1.523-3.182-1.9 1.241-3.963 1.323 4.25-3.918 6.313-7.55l-1.318-.827.037-.368 2.85-.746q2.886.291 3.631 2.105-.577 1.032-2.518 2.518-1.445 1.155-2.932 2.273 2.6.49 3.096 3.463 1.732-.827 3.754-1.486l.046-2.31q.04-4.954-.414-6.108-.209-.41-.663-.991-.66-.782-.741-.95l-.046-.577 2.482-.66q2.56.373 4.082 2.6-.327.619-.782 1.9-.41 1.278-.332 4.619v.868l2.81-.991q.454-.245.945-.495.536-.246 1.032-.205-2.682-1.982-2.682-7.427l.127-3.428q-.91.25-5.905 2.187-4.786 1.859-4.868 1.859-1.236 0-3.34-3.796l.409-.331q.99.245 1.859.245.495 0 13.04-4.5 1.155.086 3.423.996.25.863.25 1.277 0 .745-.659 1.118-.954.49-1.24.864-.66.909-.66 2.927 0 2.89 1.405 4.79 1.527 2.064 4.331 2.183 1.487-.491 1.569-4.991.536.577 1.072 1.818.741 1.818.864 1.936.582.787 1.655 2.355.368.618.368 1.236 0 .25-.082.537-1.236.786-3.26.786-2.6 0-5.24-.991-.246.74-.246 1.486-1.072.369-1.072 2.31 0 1.113.204 2.227l2.35-2.432-.863-.705-.169-.286h.169q1.318.04 3.054-.745 1.977.454 1.977 2.15 0 .454-.327.7-.082.081-1.695.454-1.564.368-3.423 1.61 2.64.204 3.673.576 2.186.741 2.186 2.56 0 1.072-1.114 1.445-1.031-.086-2.681-1.2-1.237-.95-2.478-1.855 1.9 4.169 6.769 5.9 1.281-1.568 1.818-8.581.945 1.481 1.318 3.877l.659 4.045q.786 3.505.786 4"/>
    </g>
</svg>
