<svg xmlns="http://www.w3.org/2000/svg" viewBox="0 0 100 100">
    <g filter="drop-shadow(6px 3px 1px rgba(0,0,0,0.5))">
        <path fill="#fee572" d="M49.914 1.414 25.827 8.75 12.982 85.223h73.863L74.014 8.84z"/>
        <path fill="#c3983c" d="M12.982 85.223v6.818h73.863v-6.818z"/>
        <path d="M59.559 52.773a2.71 2.71 0 1 1 5.418 0 2.71 2.71 0 0 1-5.418 0m-24.89 0a2.71 2.71 0 1 1 5.417 0 2.71 2.71 0 0 1-5.418 0m12.373 0a2.71 2.71 0 1 1 5.418 0 2.71 2.71 0 0 1-5.418 0m12.518 25.081a2.7 2.7 0 0 1 2.71-2.7 2.705 2.705 0 1 1 0 5.41 2.71 2.71 0 0 1-2.71-2.71m-24.89 0c0-1.5 1.208-2.7 2.708-2.7a2.705 2.705 0 1 1 0 5.41 2.71 2.71 0 0 1-2.709-2.71m10.605-8.068 1.445-9.227 3.11-.868 2.995.832 1.554 9.263zm-3.518-57.209q.409-.122 1.454.323.891.323 1.418.686-.045.123-.045.164.045.118.286.645.241.482.241.769l-.04.24q-2.06.85-2.95 3.678 3.554.082 5.454 1.536l.363 1.696-.2.681h-.245q-1.532.046-3.227-1.004-1.455-.932-2.873-1.864-1.655 1.541-3.31 5.418h.2q1.133.041 2.992-1.05 1.859-1.131 2.863-1.131.246 0 .491.04l.805.887v.727q-1.046.246-2.382.932-1.091.605-2.223 1.25l1.86 1.05.363.85q1.209-.364 2.909-.364.241 0 .564.082.245.364.445.727.318.482.318.769 0 .118-.036.318-.727.327-2.382.527t-2.386.61v5.49q1.818-1.695 2.227-2.95l-.364-.886 3.791.2.528 2.1-4.16 1.818q-.286-.118-.568-.118-.845 0-1.536.845v2.064q1.94-.968 3.682-.968.24 0 .563.036.405.245.928 1.136-.928.928-2.787 1.65l-2.99 1.173q-1.046.568-3.15 1.577-.891.241-2.628.928-1.168.568-1.532 1.618l-1.013-.446q-.646-.927-.646-2.263 0-.605.123-1.21l.886.2q1.414-.281 3.437-1.208 2.463-1.091 3.354-1.378l-.286-2.786q0-.727.123-2.223.163-1.49.163-2.218l-.322-1.336q-3.478.85-4.41 1.9-.845-.323-2.5-1.537 1.41-.282 3.514-1.29 2.546-1.255 3.432-1.537.082-.2.082-.405 0-.481-.768-1.29-.728-.81-.728-.973 0-.118.123-.282l-1.736-.81-2.182 2.346q-.405.687-1.373 1.941-.809.887-1.818 1.25-.246.61-1.01 1.132-.726.527-1.376.486h-.041q8.168-10.181 11.113-19.109l-1.377-1.254.082-.241h.082q.122 0 .363.123.241.077.323.077zm21.531 2.587q.41.927.41 1.772 0 .246-.046.528l-.886.568q-.164 1.373-.282 2.704-.241 1.537-.568 2.587-.364.768-.887 2.709 1.214.4 3.555 1.409l.445.809q-.609.968-2.545 1.336-.568.364-1.578 1.091-.404.318-1.009 1.168-.563.85-1.009 1.214 1.373 3.15 4.728 5.86 2.136 1.695 6.34 4.076l.241.932q-.481.482-1.331.728-1.132.281-1.414.404l-.85-.164-1.373.487-1.818-.164q-2.827-2.3-4.682-5.373-1.377.728-3.923 3.396-.768.645-2.181 2.018-.846.891-.846 2.305l-1.136.404-1.573-1.577-.164-1.736L50 36.09q-.036-.41-.077-1.255.118-1.618.563-11.836 0-.164-.04-.527t-.042-.523q0-1.818-.604-2.95-.2-.445-1.091-1.414-.605-.645-.605-1.372l1.819.645q1.654-.364 4.968-1.132.927-.24 1.94-.604.605-.282 1.896-.85.364-.16 1.173-.16.886 0 3.39 1.046m-11.672 3.236q.446.319.605 1.21.204.89.486 1.213 1.214-.24 3.314-.968 2.222-.773 3.272-1.014l-.081-2.181q-5.01.363-7.591 1.74m5.245 3.314q-.482 0-1.454.118-.928.082-1.455.082-.845 0-1.532.564l-.445 2.827q0 .327.122.89.16.124.319.2 2.995-1.008 6.468-2.785l.036-1.896zm-1.936 5.368v.65l2.586 3.673 1.291-1.41q.968-1.013.85-1.617l-.245-1.296h.89l.564-.763-1.209-.364zm-2.955.85q-.359 3.718-.882 5.982l.16.727-.16 2.623.482.41q2.023-1.219 4.046-3.683-.65-1.168-1.178-3.15-.486-1.654-.927-3.313zm-13.69 11.11-.769 2.75q-.486-.123-1.173-.61v-.24q.046-.319-.281-.969.286-3.15.286-2.79 0-.805-.85-1.737 1.41.286 1.895.89.364.405.487 1.255.123 1.01.404 1.455m18.3-3.073q-.727.364-2.059 1.214-1.413.968-2.1 1.29-.609-.281-.773-.281-.2 0-.281.04-.319.319-.319 2.219l.2 1.9q2.95-1.21 6.869-3.795-.323-.687-.646-1.414-.486-.932-.89-1.173"/>
    </g>
</svg>
