<svg xmlns="http://www.w3.org/2000/svg" viewBox="0 0 35.983 35.983">
    <g stroke="#000">
        <path fill="#e8bc5d" stroke-width=".499" d="m31.069 3.349-3.63 25.831-9.447 3.439-9.447-3.439-3.63-25.83z"/>
        <path stroke-width=".337" d="M17.61 23.882q.157-.315.876-1.079 1.686-1.91 4.182-3.89 2.496-1.978 3.98-1.978.292 0 .292.112 0 .157-.854.765-.878.63-1.034.72-1.372.965-3.395 3.35-1.845 2.157-2.249 3.26 0 .022-.135.472a4.5 4.5 0 0 1-.27.742q-.135.292-.292.292-.382 0-1.236-.652-.877-.63-.877-.99a.4.4 0 0 1 .135-.292.5.5 0 0 1 .27-.157c-1.2-1.634-2.917-2.984-5.75-4.647l-1.618-.945a5 5 0 0 0-.405-.225q-.405-.18-.63-.36-.247-.18-.247-.359 0-.27.607-.315t.787 0a6.6 6.6 0 0 1 1.506.158 3.8 3.8 0 0 1 1.237.607q.563.45.9.764c.21.225.225.286.645.78q.607.743.921 1.08l1.597 1.73q.855.922 1.056 1.057zm1.011-8.836q0 2.45.405 2.72.225-.021.742-.157.494-.112.764-.112.337 0 .832.247.495.27.495.562 0 .248-.832.248-.247 0-.742-.045a20 20 0 0 0-.787-.023q-.944 0-2.9.562-.045 0-.338.113-.315.112-.494.112-.36 0-.967-.27t-.607-.584q0-.36 1.259-.405 1.26-.045 1.327.023.27 0 .764-.045-.36-.54-.495-.945a2.2 2.2 0 0 1-.112-.832v-1.034l-1.282.18q-.158.023-.764.157-.607.158-.967.158-.405 0-1.057-.292-.651-.293-.652-.63 0-.337.45-.337.36 0 1.08.045.719.045 1.078.045 1.193 0 2.114-.09.023-.585.09-5.351a44 44 0 0 0-2.383.112l-.63.112a6 6 0 0 1-.742.068q-.563 0-1.484-.292-.944-.293-.944-.742 0-.36.72-.36.27 0 .764.09.495.067.607.067 2.339.18 3.597.18 2.361 0 4.947-.494 1.529-.293 1.73-.293.473 0 1.17.225t.697.585q0 .135-.225.202a3 3 0 0 1-.517.09h-.945q-2.562.18-3.844.292l-1.012.09q0 .563.045 1.731.023 1.192.045 1.777 0 .607-.022 1.753l1.641-.247q.203-.023.9-.18.674-.157 1.056-.157c.382 0 .607.097 1.057.292q.675.292.674.585 0 .225-.45.225a4 4 0 0 1-.494-.045 8 8 0 0 0-.517-.023q-1.979 0-3.845.337zm-2.338-4.654q-.112.202-.697.81-.585.607-.81 1.056 0 .023-.134.338-.135.315-.248.494-.135.203-.247.203-.315 0-.9-.563-.584-.54-.561-.831v-.045q.022-.113.157-.203a1.3 1.3 0 0 1 .382-.18q.247-.067.27-.067.202-.068.81-.36.584-.293 1.101-.494.495-.18.764-.18h.045q.045.022.068.022zm7.105 2.226h-.068q-.966 0-2.046-.562-1.101-.54-1.101-1.394v-.247q0-.63.427-.63.36 0 1.596 1.282 1.237 1.303 1.192 1.551z"/>
    </g>
</svg>
