<svg xmlns="http://www.w3.org/2000/svg" viewBox="0 0 35.983 35.983">
    <g stroke="#000">
        <path fill="#e8bc5d" stroke-width=".528" d="M8.105 29.472 4.269 2.18h27.634l-3.836 27.293-9.98 3.633z"/>
        <g stroke-width=".352">
            <path d="M12.307 11.402q-1.824-1.98-2.945-2.225c-.122-.027-.246-.093-.372-.105a.74.74 0 0 1-.346-.171q-.135-.15-.086-.379.105-.48.792-1.098.686-.618 1.144-.518.16.034.68.843l.472.583c.148.128.39.48.759.992 1.613 1.807 1.125 3.079-.098 2.078z"/>
            <path d="M27.248 17.789q-1.149.796-2.695 3-1.547 2.203-1.547 3.351 0 .188.023.375 0 .21-.093.375-.118.165-.352.164-.492 0-1.242-.539t-.75-1.007q0-.165.68-.844-.493-.21-1.149-.422a4.1 4.1 0 0 1-1.265-.656q-.586-.445-.586-.985 0-.468.445-.468.351 0 1.5.914 1.125.914 1.523 1.03.141-.256.774-.96 2.25-2.508 4.687-3.54zm-13.851-7.172q.375-.328.703-.586t.633-.539l.562-.562q.258-.258.54-.61a9 9 0 0 0 .491-.75q.094-.234.446-.726.351-.516.609-.516.305 0 1.055.797.726.774.726 1.078 0 .21-.656.563-.68.375-.727.445-.046.188-.046.96l-.024 4.337q0 .492-.023 1.453a68 68 0 0 0-.024 1.476v3.399q0 .726.328 1.5.329.773.328.89 0 .423-.796.422-.212 0-.633-.14t-.61-.141q-.491 0-1.359.164-.867.188-1.312.398-.048.024-.493.282-.444.258-.656.257-.468 0-1.289-.68-.843-.678-.844-1.148 0-.187.375-.797.235-.445.68-1.851.422-1.407.422-1.852 0-.351-.54-.773-.538-.399-1.054-.797-.54-.374-.539-.68 0-.328.82-.82.797-.492 1.055-.586.165-.117.703-.468.516-.352.914-.586.375-.211.75-.329c-.078-.109-.226-.25-.445-.468a13 13 0 0 1-.641-.628c-5.486-5.611-1.493-3.917.313-1.786q.164.21.258.398zM12.95 20.93q-.14.68-.14 1.711 0 .446.492.446.54 0 1.453-.282.89-.28 1.219-.328l.023-2.273q-.656.258-1.031.422a3.7 3.7 0 0 1-.844.234q-.468.07-1.172.07zm.118-1.007 2.906-.47.14-2.46q-1.92.867-2.953.867zm9.984-5.156q2.015-.774 2.367-.774.328 0 .844.164.492.188.492.445l-.047.141-.094.07a39 39 0 0 0-2.015.399q-1.407.328-1.5.469-.07.117-.07.843 0 .259.14.82.14.587.305.587a.7.7 0 0 0 .21-.047 1 1 0 0 1 .188-.024q.21 0 .703.188.492.188.492.351 0 .048-.023.07-.046.048-1.828.61-1.805.586-1.945.586-.259 0-.727-.211-.47-.188-.469-.398 0-.258.68-.446.68-.187 1.055-.187a2.7 2.7 0 0 1-.375-.399q-.118-.14-.118-.539 0-.234.07-.703a5 5 0 0 0 .071-.633q-.891.516-1.242.516-.304 0-.727-.258-.421-.234-.422-.515 0-.258.961-.446.962-.187 1.43-.187 0-1.22.047-3.703-.657.984-.914 1.898-.165.188-.328.188-.353 0-.914-.305-.585-.282-.586-.586 0-.141.351-.375l.375-.234 2.016-1.875.07-1.22-1.148.4q-1.008.374-1.43.374a.4.4 0 0 1-.14-.047q-.024-.023-.024-.07 0-.024.258-.281.633-.446 1.406-.867a39 39 0 0 1 1.758-.844 59 59 0 0 0 1.476-.703q.375-.187 1.454-.844h.046q.282-.024.774.563.492.563.492.867 0 .07-.023.094-.118.234-.563.234-.585 0-1.594.305-1.03.304-1.406.375l.07 1.921q.024 1.266.047 2.297.024 1.031.024 1.946zm-8.672-1.172q-2.508 2.133-2.437 3.023v.117l.07.14h.07q.609 0 2.274-.421 1.64-.398 1.804-.422 0-.093.024-.281v-.258q0-.258-.703-.937-.704-.68-1.102-.961zm1.875.937.328-4.875q-1.101.61-2.648 1.57.89 1.079 2.32 3.305zm10.617-2.226h-.117q-.797 0-1.852-.493-1.078-.468-1.078-1.148 0-.586.563-.586.398 0 1.453.914 1.054.914 1.054 1.266v.023z"/>
        </g>
    </g>
</svg>
