<svg xmlns="http://www.w3.org/2000/svg" viewBox="0 0 35.983 35.983">
    <g stroke="#000">
        <path fill="#e8bc5d" stroke-width=".499" d="m27.438 6.803 3.63 25.832H4.916l3.63-25.832 9.447-3.438z"/>
        <path stroke-width=".337" d="M18.374 12.101q-.157.315-.877 1.08-1.686 1.91-4.182 3.889-2.495 1.978-3.98 1.978-.292 0-.292-.112 0-.158.855-.764.876-.63 1.034-.72 1.371-.966 3.395-3.35 1.843-2.159 2.248-3.26 0-.023.135-.472.135-.472.27-.742.135-.293.292-.293.382 0 1.237.652.877.63.877.99a.4.4 0 0 1-.135.292.5.5 0 0 1-.27.157c1.2 1.634 2.916 2.984 5.749 4.648l1.619.944q.023.023.404.225.405.18.63.36.247.18.247.36 0 .27-.607.314-.607.045-.787 0a6.6 6.6 0 0 1-1.506-.157 3.8 3.8 0 0 1-1.237-.607q-.561-.45-.9-.765c-.209-.225-.225-.285-.644-.78a24 24 0 0 0-.922-1.08l-1.596-1.73q-.855-.922-1.057-1.057zm-1.012 8.836q0-2.45-.405-2.72-.225.022-.742.157-.495.112-.764.112-.337 0-.832-.247-.495-.27-.495-.562 0-.247.832-.247.248 0 .742.045.517.022.787.022.945 0 2.9-.562.045 0 .338-.112.315-.113.495-.113.36 0 .966.27.607.27.607.585 0 .36-1.259.404-1.26.045-1.326-.022-.27 0-.765.045.36.54.495.944.135.405.112.832v1.034l1.282-.18q.158-.022.764-.157.607-.158.967-.158.405 0 1.057.293.652.292.652.63 0 .336-.45.337-.36 0-1.079-.045-.72-.045-1.08-.045-1.19 0-2.113.09-.023.585-.09 5.35a44 44 0 0 0 2.384-.112q.135-.022.63-.112a6 6 0 0 1 .741-.068q.563 0 1.484.293.944.292.944.742 0 .36-.719.36a4.6 4.6 0 0 1-.764-.09 7 7 0 0 0-.608-.068q-2.338-.18-3.597-.18-2.361 0-4.946.495-1.53.292-1.732.292-.471 0-1.169-.225-.697-.225-.697-.584 0-.135.225-.203.247-.067.517-.09h.945q2.563-.18 3.844-.292l1.012-.09q0-.562-.045-1.731a100 100 0 0 0-.045-1.776q0-.608.023-1.754l-1.642.247q-.202.023-.9.18-.673.158-1.056.158c-.383 0-.607-.098-1.057-.293q-.674-.293-.674-.584 0-.225.45-.225.158 0 .494.045.337.022.517.022 1.98 0 3.845-.337zm2.338 4.654q.113-.203.697-.81.585-.606.81-1.056 0-.022.135-.337t.247-.495q.135-.202.247-.202.315 0 .9.562.585.54.562.832v.045q-.023.112-.158.202a1.3 1.3 0 0 1-.382.18 3 3 0 0 1-.27.067 9 9 0 0 0-.809.36q-.585.293-1.102.495-.494.18-.764.18h-.045a.2.2 0 0 0-.068-.023zm-7.104-2.226h.067q.967 0 2.046.562 1.102.54 1.102 1.394v.248q0 .63-.427.63-.36 0-1.597-1.282-1.236-1.305-1.191-1.552z"/>
    </g>
</svg>
