<svg xmlns="http://www.w3.org/2000/svg" viewBox="0 0 35.983 35.983">
    <g stroke="#000">
        <path fill="#e8bc5d" stroke-width=".528" d="m8.105 5.829 9.981-3.633 9.981 3.633 3.836 27.293H4.27z"/>
        <g stroke-width=".352">
            <path d="M23.866 23.899q1.823 1.98 2.945 2.225c.122.027.246.093.371.104q.206.045.346.172.136.15.086.378-.105.48-.791 1.099-.687.618-1.145.518-.16-.034-.68-.844l-.472-.582c-.148-.129-.39-.48-.758-.992-1.614-1.807-1.126-3.079.098-2.078z"/>
            <path d="M8.924 17.512q1.149-.797 2.696-3 1.546-2.203 1.546-3.352 0-.187-.023-.375a.74.74 0 0 1 .094-.375q.117-.164.351-.164.492 0 1.242.54.75.539.75 1.007 0 .164-.68.844.493.21 1.15.422.678.211 1.265.656.585.446.586.984 0 .47-.446.47-.351 0-1.5-.915-1.125-.915-1.523-1.031-.141.258-.773.96-2.25 2.509-4.688 3.54zm13.852 7.172q-.375.328-.703.585-.33.258-.633.54l-.563.562a7 7 0 0 0-.539.61 9 9 0 0 0-.492.75q-.093.234-.445.726-.352.515-.61.515-.304 0-1.054-.796-.727-.774-.727-1.078 0-.212.656-.563.68-.375.727-.445.047-.188.047-.961l.023-4.336q0-.492.024-1.453a68 68 0 0 0 .023-1.477v-3.398q0-.726-.328-1.5-.328-.773-.328-.89 0-.422.797-.422.21 0 .633.14.42.14.609.14.492 0 1.36-.163.866-.187 1.312-.399.046-.024.492-.281.446-.258.656-.258.469 0 1.29.68.843.68.843 1.148 0 .187-.375.797-.234.445-.68 1.852-.422 1.406-.422 1.851 0 .352.54.774.538.397 1.054.797.54.374.54.68 0 .327-.821.82-.797.492-1.055.585-.165.118-.703.47-.515.351-.914.585-.375.21-.75.328c.078.11.227.25.445.469.22.187.626.612.641.628 5.486 5.61 1.494 3.916-.313 1.786a2.4 2.4 0 0 1-.257-.398zm.445-10.313q.14-.68.14-1.71 0-.447-.492-.446-.538 0-1.453.281-.89.282-1.218.328l-.024 2.274q.657-.258 1.031-.422a3.7 3.7 0 0 1 .844-.234q.469-.07 1.172-.07zm-.117 1.008-2.906.469-.141 2.46q1.922-.866 2.953-.867zm-9.984 5.156q-2.016.774-2.368.774-.328 0-.843-.164-.492-.188-.492-.446l.046-.14.094-.07a39 39 0 0 0 2.016-.4q1.405-.327 1.5-.468.07-.117.07-.844 0-.258-.14-.82-.141-.585-.305-.586a.7.7 0 0 0-.211.047 1 1 0 0 1-.188.023q-.21 0-.703-.187-.492-.187-.492-.352a.1.1 0 0 1 .023-.07q.048-.046 1.829-.61 1.804-.585 1.945-.585.258 0 .726.21.47.189.47.4 0 .257-.68.444-.68.188-1.055.188.258.234.375.398.117.141.117.54 0 .234-.07.703a5 5 0 0 0-.07.632q.89-.515 1.241-.515.306 0 .727.258.422.234.422.515 0 .258-.961.445-.96.188-1.43.188 0 1.219-.047 3.703.657-.984.914-1.898.165-.188.329-.188.351 0 .914.305.586.281.586.586 0 .14-.352.375l-.375.234-2.016 1.875-.07 1.219q.141-.047 1.149-.399 1.007-.375 1.43-.375a.4.4 0 0 1 .14.047.1.1 0 0 1 .023.07q0 .024-.258.282-.632.446-1.406.867-.772.399-1.758.844a59 59 0 0 0-1.476.703q-.375.187-1.453.844h-.047q-.282.023-.773-.563-.493-.562-.493-.867 0-.07.024-.094.117-.234.562-.234.586 0 1.594-.305 1.03-.305 1.406-.375-.023-.68-.07-1.922-.024-1.266-.047-2.297a86 86 0 0 1-.023-1.945zm8.671 1.172q2.508-2.133 2.438-3.023v-.118l-.07-.14h-.07q-.61 0-2.274.422-1.641.398-1.805.422 0 .093-.023.28v.259q0 .257.703.937t1.101.961zm-1.875-.937-.328 4.874q1.102-.61 2.649-1.57-.892-1.078-2.32-3.304zM9.3 22.996h.118q.796 0 1.851.492 1.078.47 1.078 1.149 0 .585-.562.586-.399 0-1.453-.914-1.055-.915-1.055-1.266v-.024z"/>
        </g>
    </g>
</svg>
