<?xml version="1.0" encoding="UTF-8" standalone="no"?>
<!-- Created with Inkscape (http://www.inkscape.org/) -->

<svg
   viewBox="0 0 38.549999 41.919998"
   version="1.1"
   id="svg1"
   inkscape:version="1.3.2 (091e20e, 2023-11-25, custom)"
   sodipodi:docname="Uma.svg"
   xml:space="preserve"
   xmlns:inkscape="http://www.inkscape.org/namespaces/inkscape"
   xmlns:sodipodi="http://sodipodi.sourceforge.net/DTD/sodipodi-0.dtd"
   xmlns="http://www.w3.org/2000/svg"
   xmlns:svg="http://www.w3.org/2000/svg"><sodipodi:namedview
     id="namedview1"
     pagecolor="#ffffff"
     bordercolor="#111111"
     borderopacity="1"
     inkscape:showpageshadow="false"
     inkscape:pageopacity="0"
     inkscape:pagecheckerboard="1"
     inkscape:deskcolor="#d1d1d1"
     inkscape:document-units="mm"
     showguides="true"
     inkscape:zoom="13.096375"
     inkscape:cx="19.280145"
     inkscape:cy="20.959999"
     inkscape:window-width="1292"
     inkscape:window-height="745"
     inkscape:window-x="-8"
     inkscape:window-y="-8"
     inkscape:window-maximized="1"
     inkscape:current-layer="layer1"
     labelstyle="default"><inkscape:page
       x="0"
       y="0"
       width="38.549999"
       height="41.919998"
       id="page42"
       margin="0"
       bleed="0" /></sodipodi:namedview><defs
     id="defs1"><inkscape:path-effect
       effect="powerstroke"
       id="path-effect12"
       is_visible="true"
       lpeversion="1.3"
       scale_width="1"
       interpolator_type="CubicBezierJohan"
       interpolator_beta="0.2"
       start_linecap_type="zerowidth"
       end_linecap_type="zerowidth"
       offset_points="7,4.9921382"
       linejoin_type="extrp_arc"
       miter_limit="4"
       not_jump="false"
       sort_points="true"
       message="&lt;b&gt;Ctrl + click&lt;/b&gt; on existing node and move it" /><inkscape:path-effect
       effect="powerstroke"
       id="path-effect13"
       is_visible="true"
       lpeversion="1.3"
       scale_width="1"
       interpolator_type="CubicBezierJohan"
       interpolator_beta="0.2"
       start_linecap_type="zerowidth"
       end_linecap_type="zerowidth"
       offset_points="5,4.9921382"
       linejoin_type="extrp_arc"
       miter_limit="4"
       not_jump="false"
       sort_points="true"
       message="&lt;b&gt;Ctrl + click&lt;/b&gt; on existing node and move it" /><inkscape:path-effect
       effect="powerstroke"
       id="path-effect13-8"
       is_visible="true"
       lpeversion="1.3"
       scale_width="1"
       interpolator_type="CubicBezierJohan"
       interpolator_beta="0.2"
       start_linecap_type="zerowidth"
       end_linecap_type="zerowidth"
       offset_points="5,4.9921382"
       linejoin_type="extrp_arc"
       miter_limit="4"
       not_jump="false"
       sort_points="true"
       message="&lt;b&gt;Ctrl + click&lt;/b&gt; on existing node and move it" /><inkscape:path-effect
       effect="powerstroke"
       id="path-effect13-5"
       is_visible="true"
       lpeversion="1.3"
       scale_width="1"
       interpolator_type="CubicBezierJohan"
       interpolator_beta="0.2"
       start_linecap_type="zerowidth"
       end_linecap_type="zerowidth"
       offset_points="5,4.9921382"
       linejoin_type="extrp_arc"
       miter_limit="4"
       not_jump="false"
       sort_points="true"
       message="&lt;b&gt;Ctrl + click&lt;/b&gt; on existing node and move it" /><inkscape:path-effect
       effect="powerstroke"
       id="path-effect13-52"
       is_visible="true"
       lpeversion="1.3"
       scale_width="1"
       interpolator_type="CubicBezierJohan"
       interpolator_beta="0.2"
       start_linecap_type="zerowidth"
       end_linecap_type="zerowidth"
       offset_points="5,4.9921382"
       linejoin_type="extrp_arc"
       miter_limit="4"
       not_jump="false"
       sort_points="true"
       message="&lt;b&gt;Ctrl + click&lt;/b&gt; on existing node and move it" /><inkscape:path-effect
       effect="powerstroke"
       id="path-effect13-4"
       is_visible="true"
       lpeversion="1.3"
       scale_width="1"
       interpolator_type="CubicBezierJohan"
       interpolator_beta="0.2"
       start_linecap_type="zerowidth"
       end_linecap_type="zerowidth"
       offset_points="5,4.9921382"
       linejoin_type="extrp_arc"
       miter_limit="4"
       not_jump="false"
       sort_points="true"
       message="&lt;b&gt;Ctrl + click&lt;/b&gt; on existing node and move it" /><inkscape:path-effect
       effect="powerstroke"
       id="path-effect13-51"
       is_visible="true"
       lpeversion="1.3"
       scale_width="1"
       interpolator_type="CubicBezierJohan"
       interpolator_beta="0.2"
       start_linecap_type="zerowidth"
       end_linecap_type="zerowidth"
       offset_points="5,4.9921382"
       linejoin_type="extrp_arc"
       miter_limit="4"
       not_jump="false"
       sort_points="true"
       message="&lt;b&gt;Ctrl + click&lt;/b&gt; on existing node and move it" /></defs><g
     inkscape:label="Layer 1"
     inkscape:groupmode="layer"
     id="layer1"
     transform="rotate(180,62.137499,101.93)"><path
       style="fill:#938e5e;fill-opacity:1;fill-rule:evenodd;stroke:none;stroke-width:0.982424;stroke-linecap:round;stroke-linejoin:round;stroke-dasharray:none;stroke-opacity:1;paint-order:stroke fill markers"
       d="m 118.85,200 v -6.4 L 114.42512,168.86241 105,165.8 95.574879,168.86241 91.149996,193.6 l 2e-6,6.4 z"
       id="path12"
       sodipodi:nodetypes="cccccccc" /><path
       style="display:inline;fill:#fff29e;fill-opacity:1;fill-rule:evenodd;stroke:none;stroke-width:0.373013;stroke-linecap:round;stroke-linejoin:round;paint-order:stroke fill markers"
       d="m 105,169 9.42512,3.06241 L 118.85,200 H 91.149999 l 4.42488,-27.93759 z"
       id="path13"
       sodipodi:nodetypes="cccccc" /><path
       id="path1-7"
       style="fill:#000000;stroke-width:0.474679"
       d="m 108.7634,172.20244 c -0.95903,0.0272 -1.75708,0.8386 -1.75708,1.7865 0,0.48141 0.61941,1.38079 0.95103,1.38079 0.36709,0 0.17771,0.41216 -0.72657,1.58168 -0.45687,0.59086 -0.77539,0.85572 -1.39697,1.16173 -0.87978,0.43311 -1.04291,0.46978 -1.11586,0.25093 -0.0924,-0.27709 -1.34555,-0.0995 -2.92371,0.41431 -0.41444,0.13494 -0.85185,0.29939 -0.97186,0.36525 -0.35473,0.19465 -1.274512,0.48992 -1.33566,0.42878 -0.0311,-0.0311 0.05151,-0.17645 0.183492,-0.32305 0.475608,-0.52839 1.321738,-1.00531 2.403418,-1.35479 1.84036,-0.5946 2.10848,-0.80493 1.78847,-1.40286 -0.1307,-0.24421 -0.20936,-0.26067 -0.85265,-0.18029 -0.38968,0.0486 -0.92361,0.1746 -1.18675,0.27989 -0.26313,0.10527 -0.50808,0.16184 -0.54432,0.12559 -0.0364,-0.0363 0.065,-0.34 0.22495,-0.67506 l 0.29091,-0.60933 1.06754,-0.16654 c 1.62393,-0.25354 1.6325,-0.25656 1.76345,-0.60099 0.0899,-0.23687 0.0708,-0.42529 -0.0739,-0.71872 -0.26025,-0.52779 -1.36137,-1.41173 -1.70579,-1.3695 -0.31139,0.0382 -0.83334,0.58143 -1.43156,1.48993 -0.41624,0.63212 -0.43236,0.64206 -0.90098,0.55144 -0.26245,-0.0507 -0.814438,-0.21325 -1.226503,-0.36108 -0.886419,-0.318 -0.946106,-0.32359 -0.946106,-0.0891 0,0.63943 1.190122,1.57046 1.771539,1.38594 0.31604,-0.10037 0.31143,0.1841 -0.0132,0.8205 -0.27092,0.53106 -0.32747,1.06837 -0.12559,1.19313 0.27208,0.16816 0.0817,0.54081 -0.726573,1.42248 -0.774933,0.84535 -0.904535,0.93444 -1.596887,1.09698 -0.414454,0.0974 -1.135041,0.17772 -1.601303,0.17882 -2.153384,0.0322 0.478453,1.02322 0.951509,1.33688 0.195259,0.16374 0.442676,0.29779 0.549713,0.29779 0.199081,0 1.606728,-0.67569 1.889772,-0.90712 0.106288,-0.0869 0.156995,-0.0871 0.156995,-4.7e-4 0,0.0703 -0.313356,0.42951 -0.69616,0.79819 -0.824706,0.79431 -1.19866,1.39735 -1.559354,2.51383 -0.262856,0.81361 -0.264527,1.24639 -0.0076,1.92213 0.09208,0.24221 0.210954,0.32037 0.48716,0.32037 0.492654,0 0.710459,-0.36438 0.947095,-1.58463 0.289404,-1.49238 0.704124,-2.39079 1.604753,-3.47685 0.28691,-0.346 0.29826,-0.34829 0.69982,-0.14767 0.2245,0.11217 0.40817,0.23105 0.40817,0.26419 0,0.0332 -0.244,0.43865 -0.5421,0.90122 -1.02153,1.5852 -1.254855,2.3571 -0.91276,3.01864 0.11244,0.21742 0.24555,0.38673 0.56916,0.48297 0.23981,0.0713 2.11068,-0.29104 2.7534,-1.56719 0.48279,-0.9586 0.43062,-2.37636 -0.10328,-2.8089 -0.14154,-0.11469 -0.2573,-0.26453 -0.2573,-0.33287 0,-0.22118 1.32259,-1.34042 2.2116,-1.87162 l 0.8654,-0.5171 0.0628,0.39395 c 0.0455,0.28551 0.18492,0.46396 0.50678,0.64857 0.93198,0.53457 1.05707,0.66305 0.86836,0.89043 -0.0944,0.11386 -0.6435,0.52072 -1.2201,0.90442 -1.33618,0.88909 -1.78167,1.6534 -1.1122,1.90793 0.46099,0.17527 1.0446,0.0166 1.65896,-0.45111 1.02211,-0.77825 4.7959,-0.80181 3.02084,0.89902 -0.67379,0.64561 -2.09415,1.25964 -3.36401,1.45412 -1.14767,0.17577 -1.48897,0.30365 -1.48897,0.55806 0,0.31798 3.69653,0.24093 4.78969,-0.0998 1.52005,-0.47383 1.83503,-0.61912 2.28078,-1.05207 0.79706,-0.77419 0.7637,-1.63827 -0.0964,-2.49836 -0.5856,-0.5856 -0.95835,-0.68723 -2.60974,-0.7121 -0.46626,-0.007 -0.84774,-0.0412 -0.84774,-0.0763 0,-0.0349 0.23389,-0.27964 0.51978,-0.54358 0.49269,-0.45485 0.51003,-0.4947 0.33238,-0.76558 -0.20578,-0.31373 -1.21809,-0.91121 -1.76271,-1.0403 -0.38882,-0.0922 -0.42889,-0.28967 -0.16289,-0.80409 0.19065,-0.36865 0.68787,-0.59508 2.51775,-1.14701 1.27036,-0.38316 1.52713,-0.49277 1.76025,-0.75037 0.44752,-0.49451 0.0938,-0.78422 -1.54243,-1.26376 -0.75643,-0.22171 -0.84499,-0.37419 -0.53672,-0.92306 0.37855,-0.67397 0.33701,-1.31716 -0.11774,-1.82649 -0.2771,-0.31038 -0.47288,-0.41579 -0.75772,-0.40768 z m -0.32649,1.2834 c 0.33365,0 0.49625,0.37303 0.37114,0.85142 -0.088,0.33619 -0.19232,0.34993 -0.45234,0.0591 -0.37117,-0.41514 -0.327,-0.91054 0.0811,-0.91054 z m -5.31511,0.25118 c 0.25555,0 0.4013,0.44658 0.19794,0.60662 -0.17157,0.13506 -0.80406,0.2615 -0.88796,0.1776 -0.11265,-0.11265 0.47826,-0.78422 0.69002,-0.78422 z m 8.43334,0.10081 c -0.16192,0.007 -0.29142,0.0355 -0.36476,0.089 -0.28312,0.20702 -0.17102,0.3313 0.83867,0.93114 0.48547,0.28843 0.97696,0.677 1.09231,0.86346 0.11534,0.18645 0.28993,0.4058 0.38782,0.4874 0.38778,0.32326 0.81443,-0.16928 0.67702,-0.78151 -0.11382,-0.50714 -0.37129,-0.83092 -0.93288,-1.17326 -0.43417,-0.26467 -1.21243,-0.43712 -1.69818,-0.41627 z m -2.52657,2.03427 c 0.0463,0 0.23263,0.0773 0.41431,0.17145 0.24689,0.1281 0.29028,0.20056 0.17146,0.28726 -0.36108,0.26341 -1.10089,0.53659 -1.10089,0.40645 0,-0.17991 0.40799,-0.86516 0.51512,-0.86516 z m -4.96581,3.29091 c 0.042,0.0178 0.006,0.0709 -0.0783,0.17219 -0.0995,0.11995 -0.55934,0.5203 -1.02191,0.88946 -0.46257,0.36916 -0.88644,0.66336 -0.94194,0.65396 -1.01504,-0.17206 -1.04613,-0.24444 -0.32895,-0.76533 0.72802,-0.52876 1.31539,-0.7994 1.97881,-0.91201 0.22977,-0.039 0.3502,-0.0564 0.39224,-0.0382 z m -1.98322,2.91218 c 0.16051,-0.0936 0.28123,0.0282 0.40963,0.33826 0.13507,0.32608 0.12761,0.49185 -0.0478,1.0484 -0.11462,0.36361 -0.30713,0.74792 -0.4278,0.85389 -0.26299,0.23091 -0.66147,0.34927 -0.88234,0.26222 -0.21921,-0.0864 -0.0763,-0.82295 0.30026,-1.5471 0.28729,-0.55262 0.48754,-0.86199 0.64808,-0.95567 z m 9.16554,4.87406 c -0.27653,-0.0192 -0.60953,-0.009 -1.08863,0.0241 -2.00977,0.13902 -2.04511,0.14381 -5.0968,0.70032 -0.34539,0.0629 -1.05184,0.17812 -1.5699,0.25584 -0.51808,0.0777 -1.1631,0.19911 -1.43327,0.26984 -0.27019,0.0707 -0.58104,0.14724 -0.69077,0.16974 -0.10975,0.0226 -0.6233,0.13043 -1.14137,0.2399 -0.51806,0.10952 -1.353445,0.19913 -1.856412,0.19918 -0.721724,8e-5 -0.930739,0.0424 -0.991496,0.20067 -0.08941,0.23299 0.558362,0.82778 1.259745,1.104 0.701384,0.27624 1.206153,0.247 2.043433,-0.12872 0.90103,-0.40432 3.18856,-0.9901 4.88241,-1.25028 0.69075,-0.10606 2.41451,-0.21971 3.83056,-0.25266 2.57745,-0.06 3.23759,-0.15344 3.52371,-0.49819 0.22447,-0.27046 -0.14538,-0.62429 -0.92232,-0.88234 -0.25253,-0.0838 -0.47236,-0.13217 -0.74889,-0.15136 z m -4.46124,2.54496 c -0.53468,0.006 -1.28826,0.13337 -2.16377,0.3834 -0.42744,0.12187 -0.89423,0.16838 -1.22452,0.12144 -0.6402,-0.0909 -0.72757,0.14552 -0.20532,0.55632 1.12454,0.88457 1.66378,-0.12315 1.49899,0.6704 -0.0466,0.22448 -0.0954,0.57773 -0.10842,0.78495 -0.0207,0.32724 0.023,0.38208 0.33214,0.4175 0.19571,0.0225 0.55328,-0.0529 0.79452,-0.16729 0.51698,-0.24532 1.52052,-0.27622 2.27783,-0.0701 1.11415,0.30315 1.39184,1.65647 0.51904,2.52926 -0.14205,0.14208 -3.00013,1.97045 -3.30587,1.17376 -0.0419,-0.1093 -0.076,-0.39434 -0.076,-0.6336 0,-0.64551 -0.45709,-1.0516 -1.1838,-1.0516 -0.73908,0 -1.76652,0.46561 -2.36418,1.07146 -0.6107,0.61907 -0.62927,1.05794 -0.0628,1.48234 0.51911,0.38891 0.80998,0.47479 1.97441,0.58283 v -2.5e-4 c 1.10236,0.10227 1.47014,0.0705 2.82951,-0.24604 3.2471,-0.75605 4.75697,-2.50516 3.79917,-4.40113 -0.15542,-0.30765 -0.46042,-0.67748 -0.67776,-0.82173 -0.47462,-0.31507 -1.58096,-0.67683 -2.25552,-0.73763 -0.26904,-0.0243 -0.53151,-0.0498 -0.58331,-0.0568 -0.23742,-0.0321 -0.0465,-0.30273 0.47097,-0.66746 0.31084,-0.21909 0.56516,-0.47364 0.56516,-0.56565 0,-0.24154 -0.31576,-0.35939 -0.85044,-0.35422 z m -3.13736,5.65608 c 0.15516,-0.007 0.2441,0.0791 0.32454,0.2556 0.0806,0.17693 0.14667,0.46025 0.14667,0.62968 0,0.26686 -0.0546,0.30624 -0.40816,0.29337 -1.18114,-0.0429 -1.54242,-0.44593 -0.78495,-0.87546 0.34545,-0.1959 0.56674,-0.29614 0.7219,-0.30319 z"
       sodipodi:nodetypes="csssssssssssssccccsssssssssssscsssssssssssssscssssccsssscsssssssssssssssssccsssssssscsssssscsssssssscscsssssssssscssssssscsssssssccsssssssssssssccsssscssccssscss"
       transform="translate(-0.01245937)" /></g></svg>
