<?xml version="1.0" encoding="UTF-8" standalone="no"?>
<!-- Created with Inkscape (http://www.inkscape.org/) -->

<svg
   viewBox="0 0 38.549999 41.919998"
   version="1.1"
   id="svg1"
   inkscape:version="1.3.2 (091e20e, 2023-11-25, custom)"
   sodipodi:docname="Kin.svg"
   xml:space="preserve"
   xmlns:inkscape="http://www.inkscape.org/namespaces/inkscape"
   xmlns:sodipodi="http://sodipodi.sourceforge.net/DTD/sodipodi-0.dtd"
   xmlns="http://www.w3.org/2000/svg"
   xmlns:svg="http://www.w3.org/2000/svg"><sodipodi:namedview
     id="namedview1"
     pagecolor="#ffffff"
     bordercolor="#111111"
     borderopacity="1"
     inkscape:showpageshadow="0"
     inkscape:pageopacity="0"
     inkscape:pagecheckerboard="1"
     inkscape:deskcolor="#d1d1d1"
     inkscape:document-units="mm"
     showguides="true"
     inkscape:zoom="13.096375"
     inkscape:cx="19.280144"
     inkscape:cy="20.959998"
     inkscape:window-width="1292"
     inkscape:window-height="745"
     inkscape:window-x="-8"
     inkscape:window-y="-8"
     inkscape:window-maximized="1"
     inkscape:current-layer="layer1"><inkscape:page
       x="0"
       y="0"
       width="38.549999"
       height="41.919998"
       id="page42"
       margin="0"
       bleed="0" /></sodipodi:namedview><defs
     id="defs1"><inkscape:path-effect
       effect="powerstroke"
       id="path-effect13"
       is_visible="true"
       lpeversion="1.3"
       scale_width="1"
       interpolator_type="CubicBezierJohan"
       interpolator_beta="0.2"
       start_linecap_type="zerowidth"
       end_linecap_type="zerowidth"
       offset_points="5,4.9921382"
       linejoin_type="extrp_arc"
       miter_limit="4"
       not_jump="false"
       sort_points="true"
       message="&lt;b&gt;Ctrl + click&lt;/b&gt; on existing node and move it" /><inkscape:path-effect
       effect="powerstroke"
       id="path-effect12"
       is_visible="true"
       lpeversion="1.3"
       scale_width="1"
       interpolator_type="CubicBezierJohan"
       interpolator_beta="0.2"
       start_linecap_type="zerowidth"
       end_linecap_type="zerowidth"
       offset_points="7,4.9921382"
       linejoin_type="extrp_arc"
       miter_limit="4"
       not_jump="false"
       sort_points="true"
       message="&lt;b&gt;Ctrl + click&lt;/b&gt; on existing node and move it" /><inkscape:path-effect
       effect="powerstroke"
       id="path-effect13-0"
       is_visible="true"
       lpeversion="1.3"
       scale_width="1"
       interpolator_type="CubicBezierJohan"
       interpolator_beta="0.2"
       start_linecap_type="zerowidth"
       end_linecap_type="zerowidth"
       offset_points="5,4.9921382"
       linejoin_type="extrp_arc"
       miter_limit="4"
       not_jump="false"
       sort_points="true"
       message="&lt;b&gt;Ctrl + click&lt;/b&gt; on existing node and move it" /><inkscape:path-effect
       effect="powerstroke"
       id="path-effect13-9"
       is_visible="true"
       lpeversion="1.3"
       scale_width="1"
       interpolator_type="CubicBezierJohan"
       interpolator_beta="0.2"
       start_linecap_type="zerowidth"
       end_linecap_type="zerowidth"
       offset_points="5,4.9921382"
       linejoin_type="extrp_arc"
       miter_limit="4"
       not_jump="false"
       sort_points="true"
       message="&lt;b&gt;Ctrl + click&lt;/b&gt; on existing node and move it" /><inkscape:path-effect
       effect="powerstroke"
       id="path-effect13-1"
       is_visible="true"
       lpeversion="1.3"
       scale_width="1"
       interpolator_type="CubicBezierJohan"
       interpolator_beta="0.2"
       start_linecap_type="zerowidth"
       end_linecap_type="zerowidth"
       offset_points="5,4.9921382"
       linejoin_type="extrp_arc"
       miter_limit="4"
       not_jump="false"
       sort_points="true"
       message="&lt;b&gt;Ctrl + click&lt;/b&gt; on existing node and move it" /></defs><g
     inkscape:label="Layer 1"
     inkscape:groupmode="layer"
     id="layer1"
     transform="translate(-84.724992,-164.64)"><path
       style="fill:#938e5e;fill-opacity:1;fill-rule:evenodd;stroke:none;stroke-width:0.964528;stroke-linecap:round;stroke-linejoin:round;stroke-dasharray:none;stroke-opacity:1;paint-order:stroke fill markers"
       d="m 90.649993,169 v 6.4 l 4.285044,23.85462 9.064953,2.94538 9.06497,-2.94539 L 117.34999,175.4 V 169 Z"
       id="path12"
       sodipodi:nodetypes="cccccccc" /><path
       style="display:inline;fill:#fff29e;fill-opacity:1;fill-rule:evenodd;stroke:none;stroke-width:0.360263;stroke-linecap:round;stroke-linejoin:round;paint-order:stroke fill markers"
       d="M 103.99999,199 94.935037,196.05462 90.649995,169 h 26.699995 l -4.28503,27.05461 z"
       id="path13-6"
       sodipodi:nodetypes="cccccc" /><path
       id="path1"
       style="display:inline;fill:#000000;stroke-width:0.481562"
       d="m 102.03937,171.74196 c -0.10507,0.0203 -0.0983,0.14094 -0.0119,0.36806 0.26921,0.70806 0.0732,1.5152 -0.61566,2.53532 -0.18927,0.28031 -0.3736,0.53831 -0.40986,0.57337 -1.319043,1.6885 -2.750042,3.28825 -4.489823,4.55303 -0.262789,0.17747 -0.477801,0.38014 -0.477801,0.45043 0,0.20679 1.084367,0.002 1.855208,-0.35089 1.253426,-0.48814 2.508996,-1.55027 2.998586,-2.28142 0.4896,-0.73115 0.84795,-1.13764 1.19833,-1.54471 0.8964,-1.04143 1.0646,-1.20868 1.21715,-1.20868 0.19761,0 1.4499,0.71238 2.53408,1.44161 0.52145,0.35073 1.46602,1.1497 2.09909,1.77557 0.63306,0.62588 1.31702,1.22392 1.52,1.32888 0.47954,0.24799 1.05045,0.1402 2.13392,-0.40289 1.95837,-0.98163 1.96056,-0.97655 -0.6933,-1.58545 -1.1015,-0.25273 -1.38775,-0.38112 -5.71643,-2.56867 l -1.36472,-0.68983 -0.008,-0.63707 c -0.009,-0.78639 -0.24623,-1.1185 -1.086,-1.52323 -0.36103,-0.174 -0.57804,-0.25374 -0.68311,-0.23343 z m 3.32743,4.97186 c -0.15789,-0.0384 -0.81,0.0969 -1.44907,0.30062 -0.63908,0.20373 -1.29483,0.37029 -1.76966,0.44562 -0.47483,0.0753 -0.88985,0.27354 -0.88985,0.42313 0,0.12839 1.17166,0.64826 1.46102,0.64826 0.25908,0 0.40052,0.35526 0.21526,0.54052 -0.0777,0.0777 -0.5583,0.15832 -1.06808,0.17917 -0.50978,0.0208 -1.11362,0.0707 -1.34207,0.11099 -0.36465,0.0642 -0.39934,0.10354 -0.28294,0.32102 0.23253,0.43449 1.12949,0.79362 2.03611,0.81525 0.75559,0.018 0.83175,0.045 0.86975,0.30758 0.0961,0.66423 -0.50825,0.84567 -1.16514,0.34989 -0.58725,-0.44322 -1.35688,-0.64187 -1.95225,-0.50368 -0.465048,0.10794 -0.506934,0.15927 -0.769208,0.93992 -0.497458,1.48065 -0.3535,2.31167 0.474565,2.73988 0.322963,0.16699 0.428473,0.16895 0.788613,0.0154 0.22867,-0.0975 0.58785,-0.37073 0.79808,-0.60745 0.21023,-0.23672 0.70646,-0.67209 1.10292,-0.96729 0.84106,-0.62626 0.87198,-0.60027 0.87198,0.73586 0,0.8088 -0.0229,0.88398 -0.28668,0.93942 -0.15767,0.0331 -0.68803,0.14459 -1.17857,0.24786 -0.49054,0.10327 -1.20724,0.22608 -1.59266,0.27275 -1.049235,0.1271 -1.06594,0.0869 0.44569,1.08475 h 2.5e-4 c 0.42034,0.27747 0.78276,0.50476 0.80529,0.50493 0.0226,1.6e-4 0.28057,-0.13926 0.57336,-0.30983 0.29278,-0.17058 0.81898,-0.37612 1.8023,-0.67238 0.98332,-0.29627 3.44601,-0.38212 4.74331,-0.20458 2.65788,0.36372 2.53019,0.36373 2.89492,-9.6e-4 0.1812,-0.1812 0.32924,-0.38164 0.32924,-0.44545 0,-0.25097 -0.50895,-0.74162 -1.03698,-0.99965 -0.49036,-0.23963 -0.72384,-0.26555 -1.98909,-0.22173 -1.63104,0.0565 -1.65106,0.0405 -1.17857,-0.93743 0.3346,-0.6924 0.33392,-1.55192 -0.002,-1.97864 -0.37425,-0.47578 -1.00144,-0.63997 -2.04384,-0.53529 -0.62641,0.0629 -0.88468,0.0467 -0.88468,-0.0555 0,-0.0794 0.0717,-0.16738 0.15927,-0.1956 0.24236,-0.0781 1.52474,-0.22708 1.83431,-0.21302 0.1624,0.007 0.36092,-0.12036 0.488,-0.3143 0.20121,-0.30709 0.20046,-0.34172 -0.009,-0.57286 -0.30296,-0.33477 -0.90421,-0.47155 -1.51727,-0.34516 -1.47457,0.30398 -1.33506,0.33444 -1.38885,-0.30261 -0.007,-0.083 0.18799,-0.17249 0.43326,-0.19859 0.98342,-0.10475 1.40154,-0.28102 1.40154,-0.59128 0,-0.33208 -0.30694,-0.64585 -0.73312,-0.74954 z m 0.72989,4.74217 c 0.27924,0.52176 -0.379,2.68165 -0.81724,2.68165 -0.098,0 -0.25432,0.024 -0.34765,0.0535 -0.41827,0.13215 -0.48214,-0.0539 -0.40389,-1.17782 0.0954,-1.36987 0.20202,-1.67811 0.77387,-1.74379 0.57185,-0.0657 0.68963,-0.0104 0.79491,0.18646 z m -5.22842,0.3459 c 0.17936,0.0427 0.43309,0.13261 0.5639,0.19983 0.28745,0.14773 0.15373,0.31116 -0.59203,0.72317 -0.26492,0.14637 -0.50861,0.26603 -0.5415,0.26603 -0.10814,0 -0.0626,-0.42024 0.0918,-0.84735 0.13116,-0.36275 0.19579,-0.40884 0.4778,-0.34168 z m 8.79425,4.94971 c -0.31772,-0.047 -0.88371,-0.002 -1.87661,0.10875 -2.14592,0.23934 -3.52193,0.26366 -4.49231,0.0796 -0.3713,-0.0704 -0.70883,-0.0929 -0.75005,-0.05 -0.0412,0.0429 0.25404,0.37366 0.65623,0.73487 l 0.73138,0.65673 -0.56116,0.71496 c -0.30862,0.39321 -0.68194,0.95169 -0.82968,1.24128 -0.24624,0.48266 -0.25283,0.55726 -0.0791,0.89314 0.19493,0.37697 0.89265,1.03374 1.0982,1.03374 0.0636,0 0.34418,-0.36208 0.62362,-0.80455 0.44795,-0.70928 0.87012,-1.17583 1.54514,-1.70788 0.15984,-0.12599 0.27957,-0.0995 0.63482,0.14035 0.24076,0.16256 0.6531,0.36602 0.91654,0.45217 0.46008,0.15046 0.54539,0.39095 0.13861,0.39095 -0.10762,0 -0.59609,0.1216 -1.0855,0.27026 -1.35953,0.41294 -0.99515,0.56118 1.33435,0.5425 1.06523,-0.009 2.07432,-0.0372 2.24243,-0.0637 0.16809,-0.0265 0.32811,0.0161 0.35561,0.0948 0.0311,0.0889 -0.20526,0.1698 -0.62413,0.21377 -0.37077,0.0389 -0.96082,0.10435 -1.31121,0.14533 -0.35039,0.041 -1.23528,0.13397 -1.96619,0.2068 -1.92979,0.19229 -0.99437,0.21167 -3.0746,0.31231 -0.86801,0.0419 -1.59878,0.0969 -1.62377,0.12194 -0.23042,0.23042 1.7011,1.59615 2.25735,1.59615 0.12158,0 0.58345,-0.17545 1.02628,-0.38996 0.56548,-0.27392 1.12724,-0.42674 2.11941,-0.57516 0.99215,-0.14841 1.55197,-0.2108 2.18601,-0.25626 1.08833,-0.078 1.16091,-0.0676 1.29778,0.18813 0.16494,0.3082 0.34557,1.69239 0.28693,2.19888 -0.0481,0.41568 -0.24301,0.4697 -1.29877,0.36059 -0.45551,-0.047 -0.85689,-0.0609 -0.8919,-0.0309 -0.035,0.0301 0.13702,0.22945 0.38224,0.4432 0.24522,0.21375 0.87145,0.76812 1.3916,1.23183 0.52014,0.46372 1.06483,0.88043 1.21042,0.92599 0.54054,0.1692 0.57092,0.15475 1.18878,-0.56515 0.44296,-0.51612 0.50944,-0.91388 0.29041,-1.73277 -0.30936,-1.15661 -0.51364,-2.16709 -0.51364,-2.53931 0,-0.39969 0.009,-0.40588 0.6087,-0.40588 0.93291,0 1.35227,-0.4092 1.0982,-1.07132 -0.10966,-0.28576 -0.93979,-0.47452 -1.73054,-0.39368 -0.54446,0.0557 -0.76125,0.0174 -1.10541,-0.19511 l -0.42802,-0.26428 0.52358,-0.48352 c 0.42557,-0.39288 0.52384,-0.5688 0.52384,-0.93918 0,-0.68848 -0.48454,-1.18747 -1.33883,-1.37865 -0.66774,-0.14943 -0.75152,-0.13593 -2.32082,0.37552 -1.68662,0.54968 -2.00824,0.60579 -2.32554,0.40513 -0.10326,-0.0653 -0.21794,-0.0712 -0.25483,-0.0129 -0.0369,0.0582 -0.46443,0.28569 -0.95012,0.50542 -1.06552,0.48206 -1.23816,0.39509 -0.84163,-0.42404 0.23664,-0.48882 0.34058,-0.58282 0.64354,-0.58282 0.19869,0 0.86719,-0.10895 1.48566,-0.24214 0.61847,-0.13319 1.66927,-0.31124 2.335,-0.39567 1.27048,-0.16114 1.52896,-0.26875 1.52896,-0.63632 0,-0.25775 -0.0695,-0.39692 -0.38722,-0.44396 z m -12.541992,0.10004 c -0.618205,0.0634 -0.677144,0.21515 -0.312563,0.80504 0.342068,0.55347 0.515763,1.39296 0.368304,1.78081 -0.09625,0.25317 -0.228761,0.29056 -1.325399,0.37278 -0.670075,0.0502 -1.218141,0.13708 -1.218141,0.19311 0,0.10343 0.525799,0.45682 1.213662,0.8155 0.49024,0.25562 0.757955,0.24874 2.270297,-0.057 1.430596,-0.28921 1.485162,-0.312 1.485162,-0.62761 0,-0.29073 -0.232778,-0.48882 -0.6403,-0.54475 -0.576921,-0.0792 -0.628968,-0.17933 -0.547233,-1.05464 0.129218,-1.38377 -0.188214,-1.79667 -1.293789,-1.68325 z m 2.558469,0.12592 c -0.125251,0.009 -0.204559,0.0326 -0.204559,0.0724 0,0.0623 0.1204,0.38579 0.267769,0.71894 0.21676,0.49002 0.25341,0.75472 0.19137,1.38587 -0.0422,0.42909 -0.13531,2.0828 -0.2068,3.67483 -0.0715,1.59202 -0.166284,2.98928 -0.21078,3.1052 -0.06876,0.17919 -0.206167,0.19811 -0.918022,0.12517 l -0.837398,-0.0858 1.046681,1.02578 c 0.802027,0.78602 1.128809,1.02523 1.398312,1.02378 0.86359,-0.005 1.06576,-0.63264 0.81748,-2.53881 -0.25499,-1.95777 -0.008,-4.49337 0.59825,-6.13724 0.37451,-1.01585 0.19398,-1.83928 -0.47283,-2.15682 -0.30441,-0.14496 -1.09373,-0.24129 -1.469473,-0.21327 z m 10.418773,2.14637 c 0.41732,0.0101 0.36119,0.32463 -0.26852,0.73387 -0.47202,0.30676 -1.69368,0.70035 -1.68723,0.5435 0.0102,-0.24924 0.94805,-1.04735 1.38438,-1.17807 0.24061,-0.0721 0.43226,-0.10265 0.57137,-0.0993 z m -11.406477,2.7476 c -0.25781,0.003 -0.673287,0.071 -1.382883,0.20431 -0.595659,0.11194 -1.498699,0.27275 -2.006757,0.3576 -0.508062,0.0849 -0.923747,0.21833 -0.923747,0.29664 0,0.31327 1.203419,1.00807 1.62377,0.93743 0.311629,-0.0524 0.350365,0.37607 0.150806,1.66882 -0.162941,1.05551 -0.161111,1.07234 0.127417,1.30598 0.673277,0.54519 0.972572,0.1153 1.221376,-1.75417 0.101417,-0.76208 0.185445,-1.47561 0.18689,-1.58545 0.0016,-0.12977 0.250321,-0.27775 0.710477,-0.4228 0.737171,-0.23237 0.953831,-0.47847 0.729389,-0.82819 -0.07893,-0.12298 -0.178925,-0.18356 -0.436738,-0.18017 z m 10.445147,1.54961 c -0.10201,-0.0663 -0.44214,0.0382 -1.01482,0.31704 -0.95545,0.46524 -2.02526,0.6425 -2.60327,0.43152 -0.25099,-0.0916 -0.26085,-0.0594 -0.21351,0.70152 0.0581,0.93369 0.22788,1.54979 0.50268,1.82459 0.2972,0.2972 0.69536,0.1706 1.25836,-0.55704 0.56301,-0.72764 1.02798,-1.34257 1.65622,-2.01038 0.38007,-0.404 0.51636,-0.64096 0.41434,-0.70725 z"
       sodipodi:nodetypes="ssssssccssssssscccssscscsssscsscssscsssssscccssccssssccsscssssccscccscsccssssssccsscccssssssssscssssscssscssscssscsssssssccsssssssssssccsssssssssssssssscccscsssssscsscssssssscsscssssscss"
       transform="rotate(180,103.99999,184.5)" /></g></svg>
