<?xml version="1.0" encoding="UTF-8" standalone="no"?>
<!-- Created with Inkscape (http://www.inkscape.org/) -->

<svg
   viewBox="0 0 38.549999 41.919998"
   version="1.1"
   id="svg1"
   inkscape:version="1.3.2 (091e20e, 2023-11-25, custom)"
   sodipodi:docname="Kyo.svg"
   xml:space="preserve"
   xmlns:inkscape="http://www.inkscape.org/namespaces/inkscape"
   xmlns:sodipodi="http://sodipodi.sourceforge.net/DTD/sodipodi-0.dtd"
   xmlns="http://www.w3.org/2000/svg"
   xmlns:svg="http://www.w3.org/2000/svg"><sodipodi:namedview
     id="namedview1"
     pagecolor="#ffffff"
     bordercolor="#111111"
     borderopacity="1"
     inkscape:showpageshadow="false"
     inkscape:pageopacity="0"
     inkscape:pagecheckerboard="1"
     inkscape:deskcolor="#d1d1d1"
     inkscape:document-units="mm"
     showguides="true"
     inkscape:zoom="13.096375"
     inkscape:cx="19.280144"
     inkscape:cy="20.959998"
     inkscape:window-width="1292"
     inkscape:window-height="745"
     inkscape:window-x="-8"
     inkscape:window-y="-8"
     inkscape:window-maximized="1"
     inkscape:current-layer="layer1"
     labelstyle="default"><inkscape:page
       x="0"
       y="0"
       width="38.549999"
       height="41.919998"
       id="page42"
       margin="0"
       bleed="0" /></sodipodi:namedview><defs
     id="defs1"><inkscape:path-effect
       effect="powerstroke"
       id="path-effect12"
       is_visible="true"
       lpeversion="1.3"
       scale_width="1"
       interpolator_type="CubicBezierJohan"
       interpolator_beta="0.2"
       start_linecap_type="zerowidth"
       end_linecap_type="zerowidth"
       offset_points="7,4.9921382"
       linejoin_type="extrp_arc"
       miter_limit="4"
       not_jump="false"
       sort_points="true"
       message="&lt;b&gt;Ctrl + click&lt;/b&gt; on existing node and move it" /><inkscape:path-effect
       effect="powerstroke"
       id="path-effect13"
       is_visible="true"
       lpeversion="1.3"
       scale_width="1"
       interpolator_type="CubicBezierJohan"
       interpolator_beta="0.2"
       start_linecap_type="zerowidth"
       end_linecap_type="zerowidth"
       offset_points="5,4.9921382"
       linejoin_type="extrp_arc"
       miter_limit="4"
       not_jump="false"
       sort_points="true"
       message="&lt;b&gt;Ctrl + click&lt;/b&gt; on existing node and move it" /><inkscape:path-effect
       effect="powerstroke"
       id="path-effect13-8"
       is_visible="true"
       lpeversion="1.3"
       scale_width="1"
       interpolator_type="CubicBezierJohan"
       interpolator_beta="0.2"
       start_linecap_type="zerowidth"
       end_linecap_type="zerowidth"
       offset_points="5,4.9921382"
       linejoin_type="extrp_arc"
       miter_limit="4"
       not_jump="false"
       sort_points="true"
       message="&lt;b&gt;Ctrl + click&lt;/b&gt; on existing node and move it" /><inkscape:path-effect
       effect="powerstroke"
       id="path-effect13-86"
       is_visible="true"
       lpeversion="1.3"
       scale_width="1"
       interpolator_type="CubicBezierJohan"
       interpolator_beta="0.2"
       start_linecap_type="zerowidth"
       end_linecap_type="zerowidth"
       offset_points="5,4.9921382"
       linejoin_type="extrp_arc"
       miter_limit="4"
       not_jump="false"
       sort_points="true"
       message="&lt;b&gt;Ctrl + click&lt;/b&gt; on existing node and move it" /></defs><g
     inkscape:label="Layer 1"
     inkscape:groupmode="layer"
     id="layer1"
     transform="matrix(-0.81881521,0,0,-1,105.2506,205.36)"><path
       style="fill:#938e5e;fill-opacity:1;fill-rule:evenodd;stroke:none;stroke-width:1;stroke-linecap:round;stroke-linejoin:round;stroke-dasharray:none;stroke-opacity:1;paint-order:stroke fill markers"
       d="m 119.35,200 v -6.4 l -4.93136,-22.29416 -9.41866,-2.50583 -9.418612,2.50581 -4.931372,22.29418 2e-6,6.4 z"
       id="path12"
       sodipodi:nodetypes="cccccccc" /><path
       style="display:inline;fill:#fff29e;fill-opacity:1;fill-rule:evenodd;stroke:none;stroke-width:0.360847;stroke-linecap:round;stroke-linejoin:round;paint-order:stroke fill markers"
       d="m 105,172 9.41864,2.50583 L 119.35,200 h -28.7 l 4.931368,-25.49419 z"
       id="path13"
       sodipodi:nodetypes="cccccc" /><path
       id="path1-4"
       style="fill:#000000;stroke-width:0.482822"
       d="m 103.81032,173.64249 c -0.0582,-0.002 -0.10588,0.15572 -0.10588,0.35062 0,0.19492 -0.0723,0.46803 -0.16048,0.60689 -0.18714,0.29468 -1.22825,1.14144 -1.74263,1.4174 -0.19571,0.105 -0.35569,0.2689 -0.35569,0.36418 0,0.18214 0.20428,0.17228 1.31497,-0.0641 0.48809,-0.10388 0.54954,-0.0914 0.65404,0.13478 0.16893,0.36568 0.0694,0.42276 -0.74228,0.42582 -0.40306,9.2e-4 -0.97394,0.0487 -1.26864,0.10475 -0.32915,0.0625 -1.07606,0.0527 -1.936753,-0.0255 -0.770616,-0.07 -1.446197,-0.0905 -1.501091,-0.0456 -0.130715,0.10703 0.615954,0.74604 1.126922,0.9645 0.238908,0.10215 0.694133,0.15954 1.129392,0.14224 l 0.72933,-0.0289 -0.0394,0.38878 c -0.0216,0.21379 -0.11454,0.46284 -0.20653,0.55359 -0.20044,0.19776 -1.774024,1.06453 -2.618028,1.46005 -0.844004,0.39551 -1.687991,0.76044 -1.939833,0.76044 -0.380664,0 -0.146722,0.28343 0.297788,0.36079 0.226535,0.0394 0.507238,0.0569 0.623706,0.0388 0.116469,-0.018 0.465875,-0.0675 0.776464,-0.11017 1.243499,-0.26234 2.407053,-0.71684 3.485273,-1.27811 1.09611,-0.58059 1.11702,-0.57867 1.86037,0.16166 0.41954,0.41783 1.24958,1.0582 1.37149,1.0582 0.21652,0 0.6891,-0.61003 0.78005,-1.00695 0.0511,-0.22298 0.0349,-0.87016 -0.0359,-1.43841 -0.0708,-0.56825 -0.0953,-1.07649 -0.054,-1.12931 0.10049,-0.12896 0.9397,-0.2309 2.47193,-0.30006 0.98401,-0.0444 1.32632,-0.10525 1.53032,-0.27229 0.22821,-0.18685 0.23798,-0.24794 0.0737,-0.46396 -0.35806,-0.47063 -0.82207,-0.49115 -3.6951,-0.16392 -0.37365,0.0426 -0.69036,-0.005 -1.02351,-0.15126 -0.51993,-0.22927 -0.58726,-0.47125 -0.22197,-0.62246 0.12786,-0.0529 0.35502,-0.1378 0.67059,-0.28321 0.29495,-0.17918 0.48814,-0.28343 0.65513,-0.41082 l 0.30359,-0.23165 -0.28071,-0.31743 c -0.23829,-0.2695 -1.59446,-0.93776 -1.92653,-0.94938 z m -0.55229,4.19014 c 0.49264,0.025 0.54473,0.26683 0.66038,1.15529 l 0.10202,0.78321 -0.44117,-0.0275 c -0.70237,-0.0438 -0.85475,-0.16269 -0.76819,-0.59943 0.0704,-0.35526 0.0237,-0.41829 -0.57353,-0.76944 -0.35767,-0.21032 -0.63442,-0.39316 -0.61516,-0.40639 0.0193,-0.0132 0.45907,-0.0603 0.97748,-0.10453 0.28078,-0.0239 0.49396,-0.0395 0.65817,-0.0312 z m 4.03866,0.67687 c -0.23567,0.007 -0.34522,0.0331 -0.34522,0.0769 0,0.0692 0.36529,0.32117 0.81175,0.5597 0.44647,0.23852 1.00235,0.56158 1.23528,0.71774 0.23294,0.15614 0.8047,0.43188 1.27059,0.61274 0.94249,0.3659 2.03745,0.44343 2.32029,0.16437 0.24899,-0.24566 -0.0515,-1.02319 -0.55478,-1.43525 -0.47728,-0.39081 -1.28071,-0.53795 -3.63608,-0.66626 -0.50437,-0.0275 -0.86617,-0.0377 -1.10183,-0.03 z m 0.43125,2.52912 c -0.1553,-8.7e-4 -0.61287,0.10125 -1.01663,0.22691 -0.40377,0.12565 -0.94377,0.25857 -1.19999,0.29553 -0.25623,0.037 -0.94217,0.16214 -1.52453,0.27816 -1.8893,0.37639 -2.86888,0.47487 -4.270553,0.42919 -0.819844,-0.0267 -1.376458,-1.5e-4 -1.376458,0.0657 0,0.0608 0.28797,0.33963 0.639975,0.61975 0.70958,0.56469 1.051616,1.13037 1.566996,2.59122 0.19065,0.54041 0.45117,1.04758 0.57904,1.12705 0.28179,0.17514 0.56132,0.18688 0.62674,0.0262 0.0265,-0.0651 -0.0103,-0.61203 -0.0816,-1.21512 -0.0781,-0.66127 -0.0783,-1.35978 -7.9e-4,-1.75991 l 0.1285,-0.66355 0.84705,-0.0661 c 0.78252,-0.0612 2.14156,-0.2627 3.99591,-0.5922 1.53505,-0.27276 1.83376,0.0988 1.49503,1.86038 -0.11739,0.61044 -0.24998,1.30497 -0.29448,1.5434 -0.0512,0.27443 -0.0249,0.43348 0.0717,0.43348 0.20494,0 1.01224,-0.71395 1.24712,-1.05055 0.23489,-0.33661 0.40865,-0.55454 0.55533,-0.82089 0.14669,-0.26635 0.47581,-0.68911 0.73125,-0.93945 0.5269,-0.5164 0.51081,-0.74734 -0.0885,-1.27201 -0.65134,-0.5702 -1.92959,-1.11276 -2.63104,-1.11713 z m -1.37427,2.09744 c -0.25972,-0.0199 -0.60309,0.0174 -1.0963,0.10679 -0.3494,0.0634 -0.77329,0.13403 -0.9419,0.15714 -1.09606,0.15035 -1.74043,0.35634 -1.74043,0.55631 0,0.0493 0.20647,0.19258 0.45882,0.31856 0.50762,0.25343 0.78512,0.27507 1.51763,0.11899 0.27177,-0.0579 0.96533,-0.19988 1.54135,-0.31563 0.57601,-0.11575 1.06942,-0.26464 1.09631,-0.33076 0.0269,-0.0661 -0.0818,-0.23484 -0.24127,-0.37501 -0.15857,-0.13938 -0.33446,-0.21647 -0.59421,-0.23639 z m 0.31682,1.45083 c -0.13907,0.002 -0.28396,0.0198 -0.4249,0.0548 -0.70549,0.17566 -2.70365,0.44093 -3.32064,0.44093 -0.34784,0 -0.63226,0.0461 -0.63226,0.10228 0,0.0562 0.25417,0.29026 0.56498,0.52018 0.31081,0.22992 0.5898,0.41791 0.61984,0.41791 0.31685,0 2.56137,-0.40167 3.05043,-0.54592 0.83367,-0.2459 1.0103,-0.36703 0.95955,-0.65701 -0.0364,-0.20821 -0.39977,-0.33972 -0.817,-0.33323 z m -2.53646,1.77277 c -0.45071,-0.0163 -0.85249,0.0157 -0.92094,0.10635 -0.0464,0.0615 0.14006,0.37917 0.41442,0.70575 0.27437,0.3266 0.46373,0.64025 0.42077,0.6972 -0.14213,0.18831 -1.1834,0.10207 -3.91128,-0.32443 -0.377363,-0.059 -0.385777,-0.05 -0.240431,0.26302 0.08283,0.17838 0.481121,0.57611 0.885101,0.88368 l 0.73456,0.55924 0.91764,-0.0763 c 1.56711,-0.13002 1.61956,-0.12561 1.66487,0.13365 0.0347,0.19812 -0.11577,0.28135 -0.91764,0.50845 -1.06481,0.30156 -1.66961,0.54873 -2.02306,0.82679 -0.21609,0.16999 -0.33161,0.15927 -1.420844,-0.13028 -1.472107,-0.39134 -2.104025,-0.50619 -2.101358,-0.38201 10e-4,0.0527 0.441459,0.50321 0.978849,1.00086 0.956519,0.88579 0.990656,0.93954 1.621583,2.5578 0.35447,0.90916 0.64467,1.73313 0.64467,1.83102 0,0.11974 -0.24252,0.22418 -0.74118,0.31901 -0.966009,0.18372 -3.731555,0.26225 -3.847015,0.10929 -0.128255,-0.16993 -0.352939,-0.14078 -0.352939,0.0459 0,0.0888 0.44704,0.48611 0.993463,0.88279 0.785732,0.57039 1.132337,0.74252 1.657978,0.82293 0.626305,0.0958 0.746136,0.0688 2.077103,-0.46757 1.49645,-0.60304 2.45092,-0.87893 3.41302,-0.98664 0.65834,-0.0737 0.63215,-0.10979 0.83491,1.14761 0.0513,0.3179 0.19065,0.66902 0.30965,0.78029 0.5317,0.49708 0.90331,-0.0412 0.90331,-1.30836 v -0.83583 l 2.35227,0.0808 c 1.29372,0.0445 2.66992,0.11737 3.05815,0.16188 0.38823,0.0445 1.19689,0.0805 1.79695,0.0802 0.93854,-4.4e-4 1.13468,-0.0366 1.40458,-0.25761 0.2581,-0.21133 0.2899,-0.31174 0.1795,-0.56557 -0.21607,-0.49679 -0.73625,-0.71492 -2.03986,-0.85523 -0.66,-0.071 -1.2609,-0.17766 -1.3351,-0.23706 -0.0853,-0.0683 -8.8e-4,-0.33093 0.2283,-0.71435 0.19968,-0.33344 0.40707,-0.77087 0.69072,-1.11975 0.28365,-0.34887 0.48694,-1.26001 0.35596,-1.59789 -0.0483,-0.12478 -0.41605,-0.45332 -0.81699,-0.73016 -0.79399,-0.54818 -0.66218,-0.52094 -3.92286,-0.8094 -1.63175,-0.14435 -1.97644,-0.23486 -1.97644,-0.51928 0,-0.16226 0.40217,-0.23918 1.71781,-0.32804 1.00059,-0.0676 1.38804,-0.25472 1.38804,-0.67077 0,-0.55624 -0.92719,-0.88735 -1.73105,-0.61818 -1.03231,0.34567 -1.05789,0.34291 -1.36129,-0.14404 -0.174,-0.27927 -0.46837,-0.52484 -0.76902,-0.64165 -0.26447,-0.10277 -0.76416,-0.16766 -1.21488,-0.18401 z m 1.97039,3.89505 0.95789,0.0772 c 0.52689,0.0426 1.43217,0.20026 2.01175,0.35064 l 1.05385,0.27364 0.0392,1.64905 c 0.0216,0.90704 -0.0167,1.6952 -0.0852,1.75133 -0.0685,0.0561 -0.53105,0.12946 -1.02766,0.163 -0.4966,0.0336 -1.26635,0.1274 -1.71064,0.20862 -0.73211,0.13384 -0.82904,0.12839 -1.03483,-0.0578 -0.12488,-0.11299 -0.20626,-0.32673 -0.1806,-0.47503 0.0407,-0.23544 0.18094,-0.29222 1.10513,-0.44907 0.78558,-0.13331 1.07048,-0.23166 1.1057,-0.38132 0.091,-0.38683 -0.2522,-0.54969 -1.10542,-0.52448 -0.94094,0.0278 -1.12912,-0.0429 -1.12912,-0.42423 0,-0.25937 0.0541,-0.28226 0.67058,-0.28357 1.56458,-0.003 2.09823,-0.24333 1.74373,-0.78569 -0.11675,-0.17863 -0.32656,-0.22248 -1.16414,-0.24248 -0.56189,-0.0135 -1.07312,-0.0504 -1.13602,-0.0822 -0.0628,-0.0318 -0.11415,-0.21752 -0.11415,-0.41272 z m -2.13389,0.41069 c 0.0814,8.7e-4 0.13779,0.0194 0.17839,0.0526 0.0806,0.066 0.12416,0.21516 0.0968,0.33144 -0.0373,0.15887 -0.25699,0.24082 -0.88428,0.33008 -0.45909,0.0653 -0.85971,0.18038 -0.89006,0.2558 -0.0689,0.17115 0.59459,0.53686 1.06846,0.58882 0.60767,0.0667 0.87049,0.24445 0.87049,0.58927 0,0.31061 -0.0308,0.32533 -0.72463,0.34543 -1.27864,0.0371 -1.29516,0.21669 -0.065,0.71255 0.90082,0.36311 1.11514,0.58762 0.9761,1.02298 -0.049,0.15317 -0.24282,0.2369 -0.65735,0.28379 -0.32339,0.0366 -0.84692,0.10069 -1.16359,0.14224 l -0.576,0.0754 -0.3069,-1.54407 c -0.16878,-0.84932 -0.3065,-1.7308 -0.30633,-1.95882 2.6e-4,-0.38566 0.052,-0.43518 0.74144,-0.7087 0.93064,-0.36921 1.39835,-0.52175 1.64254,-0.51883 z"
       sodipodi:nodetypes="csssssscsssscccscscssssscscsssscscccscccccsssssccsssssssssscssscsssssccccsssscsssccsccsssssssccsssssscssscsssccsssscssssssssssssscsccsssscccssssssssscccccsssscscsscsccsccscsssssssccccssc"
       transform="translate(6.5424442e-7)" /></g></svg>
