<?xml version="1.0" encoding="UTF-8" standalone="no"?>
<!-- Created with Inkscape (http://www.inkscape.org/) -->

<svg
   viewBox="0 0 38.549999 41.919998"
   version="1.1"
   id="svg1"
   inkscape:version="1.3.2 (091e20e, 2023-11-25, custom)"
   sodipodi:docname="Fu.svg"
   xml:space="preserve"
   xmlns:inkscape="http://www.inkscape.org/namespaces/inkscape"
   xmlns:sodipodi="http://sodipodi.sourceforge.net/DTD/sodipodi-0.dtd"
   xmlns="http://www.w3.org/2000/svg"
   xmlns:svg="http://www.w3.org/2000/svg"><sodipodi:namedview
     id="namedview1"
     pagecolor="#ffffff"
     bordercolor="#111111"
     borderopacity="1"
     inkscape:showpageshadow="false"
     inkscape:pageopacity="0"
     inkscape:pagecheckerboard="1"
     inkscape:deskcolor="#d1d1d1"
     inkscape:document-units="mm"
     showguides="true"
     inkscape:zoom="13.096375"
     inkscape:cx="19.280144"
     inkscape:cy="20.959998"
     inkscape:window-width="1292"
     inkscape:window-height="745"
     inkscape:window-x="-8"
     inkscape:window-y="-8"
     inkscape:window-maximized="1"
     inkscape:current-layer="layer1"
     labelstyle="default"><inkscape:page
       x="0"
       y="0"
       width="38.549999"
       height="41.919998"
       id="page42"
       margin="0"
       bleed="0" /></sodipodi:namedview><defs
     id="defs1"><inkscape:path-effect
       effect="powerstroke"
       id="path-effect12"
       is_visible="true"
       lpeversion="1.3"
       scale_width="1"
       interpolator_type="CubicBezierJohan"
       interpolator_beta="0.2"
       start_linecap_type="zerowidth"
       end_linecap_type="zerowidth"
       offset_points="7,4.9921382"
       linejoin_type="extrp_arc"
       miter_limit="4"
       not_jump="false"
       sort_points="true"
       message="&lt;b&gt;Ctrl + click&lt;/b&gt; on existing node and move it" /><inkscape:path-effect
       effect="powerstroke"
       id="path-effect13"
       is_visible="true"
       lpeversion="1.3"
       scale_width="1"
       interpolator_type="CubicBezierJohan"
       interpolator_beta="0.2"
       start_linecap_type="zerowidth"
       end_linecap_type="zerowidth"
       offset_points="5,4.9921382"
       linejoin_type="extrp_arc"
       miter_limit="4"
       not_jump="false"
       sort_points="true"
       message="&lt;b&gt;Ctrl + click&lt;/b&gt; on existing node and move it" /><inkscape:path-effect
       effect="powerstroke"
       id="path-effect13-7"
       is_visible="true"
       lpeversion="1.3"
       scale_width="1"
       interpolator_type="CubicBezierJohan"
       interpolator_beta="0.2"
       start_linecap_type="zerowidth"
       end_linecap_type="zerowidth"
       offset_points="5,4.9921382"
       linejoin_type="extrp_arc"
       miter_limit="4"
       not_jump="false"
       sort_points="true"
       message="&lt;b&gt;Ctrl + click&lt;/b&gt; on existing node and move it" /><inkscape:path-effect
       effect="powerstroke"
       id="path-effect13-4"
       is_visible="true"
       lpeversion="1.3"
       scale_width="1"
       interpolator_type="CubicBezierJohan"
       interpolator_beta="0.2"
       start_linecap_type="zerowidth"
       end_linecap_type="zerowidth"
       offset_points="5,4.9921382"
       linejoin_type="extrp_arc"
       miter_limit="4"
       not_jump="false"
       sort_points="true"
       message="&lt;b&gt;Ctrl + click&lt;/b&gt; on existing node and move it" /></defs><g
     inkscape:label="Layer 1"
     inkscape:groupmode="layer"
     id="layer1"
     transform="matrix(-0.78397201,0,0,-1,101.59206,205.86)"><path
       style="fill:#938e5e;fill-opacity:1;fill-rule:evenodd;stroke:none;stroke-width:1;stroke-linecap:round;stroke-linejoin:round;stroke-dasharray:none;stroke-opacity:1;paint-order:stroke fill markers"
       d="m 119.35,200 v -6.4 L 114.37784,172.1888 105,169.8 l -9.377862,2.3888 -4.972142,21.4112 2e-6,6.4 z"
       id="path12"
       sodipodi:nodetypes="cccccccc" /><path
       style="display:inline;fill:#fff29e;fill-opacity:1;fill-rule:evenodd;stroke:none;stroke-width:0.354345;stroke-linecap:round;stroke-linejoin:round;paint-order:stroke fill markers"
       d="m 105,173 9.37784,2.38879 L 119.35,200 h -28.7 l 4.972138,-24.61119 z"
       id="path13"
       sodipodi:nodetypes="cccccc" /><path
       id="path1-0"
       style="fill:#000000;stroke-width:0.561797"
       d="m 103.64274,175.73795 c -0.70723,-0.0282 -1.35073,0.002 -1.39843,0.11053 -0.0367,0.0838 0.26973,0.449 0.68069,0.81177 0.82765,0.73056 1.04857,1.32082 0.86136,2.29958 -0.12222,0.63892 -0.37605,0.80524 -1.42303,0.93208 -0.32317,0.0391 -0.74732,0.10786 -0.94234,0.15268 -0.49551,0.11394 -0.62575,-0.23578 -0.30919,-0.82976 0.20441,-0.38349 0.21695,-0.55469 0.062,-0.84801 -0.10681,-0.20217 -0.20388,-0.37055 -0.21574,-0.37453 -0.0118,-0.004 -0.60712,-0.0392 -1.322683,-0.0784 -0.844468,-0.0463 -1.30105,-0.0235 -1.30105,0.0651 0,0.075 0.07034,0.17064 0.156404,0.21232 0.08606,0.0417 0.249318,0.40065 0.362638,0.79763 0.165914,0.58116 0.16276,0.86263 -0.01541,1.44489 -0.201501,0.65849 -0.193977,0.74664 0.08328,0.98682 0.168769,0.14621 0.517271,0.26373 0.782008,0.26373 0.593543,0 0.625733,0.20568 0.04983,0.31901 -0.525139,0.10333 -0.9081,0.75409 -1.435473,2.43993 -0.289177,0.92441 -0.339625,1.31156 -0.219681,1.68806 0.144557,0.45375 0.198559,0.48748 0.756755,0.47529 0.29077,-0.007 1.583322,-0.1039 3.172932,-1.27883 0.32316,-0.23887 0.90163,-0.57206 1.28563,-0.74032 l 0.69807,-0.30589 0.77856,0.52959 c 0.25952,0.23988 0.40337,0.29503 0.57921,0.29503 0.22533,0 0.48145,-0.25252 0.8679,-0.85546 0.30159,-0.4705 0.65343,-0.81437 0.75315,-0.85547 0.0918,-0.0378 0.53427,-0.11721 0.93676,-0.26039 0.96572,-0.34354 1.15154,-0.33184 1.15154,0.0717 0,0.6525 -0.31955,0.96341 -1.76271,1.7148 -1.73221,0.9019 -3.28918,1.31208 -6.54718,1.72508 -0.61458,0.0779 -0.65551,0.10574 -0.52986,0.36244 0.0806,0.16459 0.42235,0.20307 1.80172,0.20307 h 1.70237 l -0.11377,0.36193 c -0.16496,0.52469 -0.72209,1.35838 -1.19088,1.78214 -0.31214,0.28215 -0.47515,0.33956 -0.70232,0.24677 -0.39309,-0.16056 -2.504168,-0.32872 -2.733247,-0.21772 -0.110605,0.0536 0.06886,0.29939 0.463625,0.63517 0.873822,0.74325 1.400452,1.64551 1.509252,2.5862 0.0857,0.74093 0.0679,0.79081 -0.32067,0.90662 -0.59445,0.17718 -3.58039,0.45429 -4.083467,0.3789 -0.722416,-0.10827 -0.663326,0.16001 0.183946,0.83439 0.948321,0.7548 1.172544,0.78104 3.289001,0.38326 1.72453,-0.32415 1.81549,-0.32471 1.81549,-0.011 0,0.4927 -0.83742,1.0356 -2.685369,1.74101 -1.014067,0.38709 -1.844385,0.74401 -1.845654,0.79326 -9.34e-4,0.0493 0.168338,0.11538 0.376083,0.14677 0.720323,0.10877 1.222588,0.0873 2.35125,-0.10025 1.37929,-0.22913 3.55736,-1.0069 3.71362,-1.32612 0.12807,-0.26165 -0.59787,-1.17776 -1.10038,-1.3886 -0.4752,-0.19938 -0.36161,-0.3821 0.73225,-0.48454 1.09386,-0.10244 2.90694,-0.1556 4.75358,-0.15038 1.84665,0.006 3.7721,9.4e-4 4.27889,-0.008 1.59542,-0.0314 2.01806,-0.72339 0.7574,-1.24027 -0.58541,-0.24007 -0.93515,-0.27248 -2.72799,-0.25423 -2.34098,0.0238 -2.47204,-0.0479 -1.44105,-0.78863 0.65774,-0.47256 0.68297,-0.84246 0.0666,-0.96883 -0.33573,-0.0688 -0.58819,-0.38687 -0.38099,-0.47991 0.0652,-0.0293 0.46044,-0.0922 0.87839,-0.13959 1.02297,-0.11608 1.31531,-0.46077 0.79053,-0.93258 -0.50163,-0.451 -0.87611,-0.48609 -2.78373,-0.26065 -2.87762,0.34006 -3.22658,0.241 -2.11781,-0.60151 0.74467,-0.56583 0.70866,-0.90122 -0.13213,-1.22331 -0.34625,-0.13263 -0.62955,-0.29137 -0.62955,-0.35266 0,-0.0613 0.43439,-0.17953 0.9653,-0.26297 0.5309,-0.0834 1.38078,-0.25893 1.88861,-0.38969 0.50783,-0.13077 1.33882,-0.33247 1.84664,-0.4483 2.36146,-0.53862 2.57925,-1.12319 0.93481,-2.50857 -0.42421,-0.35738 -0.71375,-0.69263 -0.64331,-0.74494 0.0705,-0.0523 0.76487,-0.18796 1.54302,-0.30151 0.77815,-0.11356 1.47374,-0.28137 1.54596,-0.37299 0.17454,-0.22138 -0.17912,-0.62423 -0.8797,-1.00224 -0.80652,-0.43516 -1.57342,-0.3323 -3.73427,0.50124 -1.97549,0.76204 -1.96939,0.76242 -2.5952,-0.11053 -0.5744,-0.80123 -0.48107,-0.82509 3.48606,-0.88965 3.29769,-0.0537 3.65613,-0.14061 3.13751,-0.76114 -0.15321,-0.18332 -0.5237,-0.38572 -0.82331,-0.44983 -0.66256,-0.14178 -2.95285,-0.0881 -3.98051,0.0933 -0.82496,0.14566 -1.18072,0.0279 -1.18072,-0.39046 0,-0.33048 0.40191,-0.46712 1.61516,-0.54907 1.39951,-0.0945 2.23394,-0.54711 1.97682,-1.07242 -0.22913,-0.4681 -1.32245,-0.51766 -3.02081,-0.13675 -0.34948,0.0784 -0.45059,-0.034 -0.79871,-0.88838 -0.05,-0.12288 -0.30789,-0.31133 -0.57282,-0.41873 -0.30319,-0.12292 -1.07415,-0.20905 -1.78139,-0.23726 z m 0.1446,5.28832 c 0.43251,0 0.54029,0.22749 0.62364,1.31611 0.0389,0.50878 -0.002,0.59541 -0.28789,0.61461 -0.18317,0.0123 -0.67275,-0.13357 -1.08825,-0.32414 -0.41549,-0.19057 -1.16148,-0.476 -1.65778,-0.63415 -0.79454,-0.25319 -0.86374,-0.30374 -0.5774,-0.42388 0.40981,-0.17194 2.46095,-0.54855 2.98768,-0.54855 z m -3.13096,1.96774 c 0.21166,-0.0333 0.53906,0.0356 1.00168,0.20358 0.48021,0.17442 0.87214,0.3642 0.87152,0.42182 -5.1e-4,0.0576 -0.44126,0.32697 -0.97874,0.59842 -1.24782,0.63019 -1.53777,0.63779 -1.53777,0.0406 0,-0.15722 0.34252,-1.21712 0.64331,-1.26443 z m 1.94796,7.37661 c 0.0586,0 0.29055,0.0946 0.51576,0.21027 0.29149,0.14974 0.85757,0.21609 1.96434,0.23032 1.37717,0.0177 1.56137,0.0482 1.61549,0.26759 0.0553,0.22409 -0.059,0.49331 -0.4951,1.16547 -0.0816,0.12569 -0.14821,0.31084 -0.14821,0.41154 0,0.1007 -0.0944,0.24222 -0.20985,0.31438 -0.32434,0.20275 -2.76604,0.3008 -2.95718,0.11875 -0.18154,-0.1729 -0.44863,-2.71832 -0.28525,-2.71832 z m 4.41855,4.79916 c -0.45969,-0.0319 -0.73041,-0.0284 -0.81118,0.0108 -0.0854,0.0414 0.14133,0.26411 0.50395,0.49508 0.36263,0.23098 1.12285,0.71615 1.68927,1.07808 0.5664,0.36193 1.26942,0.76169 1.56237,0.88837 0.29294,0.12668 0.78426,0.23032 1.09185,0.23032 2.54779,0 0.74865,-2.15111 -2.09125,-2.50034 -0.83673,-0.10292 -1.4853,-0.17036 -1.94501,-0.2023 z"
       sodipodi:nodetypes="sccssccsssssssssssssscccssssssssscssssssssscssccsssccccsssscsssssssssssssssssssssssssssssssssscssssccssscsssssscssssss"
       transform="translate(6.5956948e-7)" /></g></svg>
