<?xml version="1.0" encoding="UTF-8" standalone="no"?>
<!-- Created with Inkscape (http://www.inkscape.org/) -->

<svg
   viewBox="0 0 38.549999 41.919998"
   version="1.1"
   id="svg1"
   inkscape:version="1.3.2 (091e20e, 2023-11-25, custom)"
   sodipodi:docname="Hi.svg"
   xml:space="preserve"
   xmlns:inkscape="http://www.inkscape.org/namespaces/inkscape"
   xmlns:sodipodi="http://sodipodi.sourceforge.net/DTD/sodipodi-0.dtd"
   xmlns="http://www.w3.org/2000/svg"
   xmlns:svg="http://www.w3.org/2000/svg"><sodipodi:namedview
     id="namedview1"
     pagecolor="#ffffff"
     bordercolor="#111111"
     borderopacity="1"
     inkscape:showpageshadow="false"
     inkscape:pageopacity="0"
     inkscape:pagecheckerboard="1"
     inkscape:deskcolor="#d1d1d1"
     inkscape:document-units="mm"
     showguides="true"
     inkscape:zoom="13.096375"
     inkscape:cx="19.280145"
     inkscape:cy="20.959999"
     inkscape:window-width="1292"
     inkscape:window-height="745"
     inkscape:window-x="-8"
     inkscape:window-y="-8"
     inkscape:window-maximized="1"
     inkscape:current-layer="layer1"
     labelstyle="default"><inkscape:page
       x="0"
       y="0"
       width="38.549999"
       height="41.919998"
       id="page42"
       margin="0"
       bleed="0" /></sodipodi:namedview><defs
     id="defs1"><inkscape:path-effect
       effect="powerstroke"
       id="path-effect12"
       is_visible="true"
       lpeversion="1.3"
       scale_width="1"
       interpolator_type="CubicBezierJohan"
       interpolator_beta="0.2"
       start_linecap_type="zerowidth"
       end_linecap_type="zerowidth"
       offset_points="7,4.9921382"
       linejoin_type="extrp_arc"
       miter_limit="4"
       not_jump="false"
       sort_points="true"
       message="&lt;b&gt;Ctrl + click&lt;/b&gt; on existing node and move it" /><inkscape:path-effect
       effect="powerstroke"
       id="path-effect13"
       is_visible="true"
       lpeversion="1.3"
       scale_width="1"
       interpolator_type="CubicBezierJohan"
       interpolator_beta="0.2"
       start_linecap_type="zerowidth"
       end_linecap_type="zerowidth"
       offset_points="5,4.9921382"
       linejoin_type="extrp_arc"
       miter_limit="4"
       not_jump="false"
       sort_points="true"
       message="&lt;b&gt;Ctrl + click&lt;/b&gt; on existing node and move it" /><inkscape:path-effect
       effect="powerstroke"
       id="path-effect13-8"
       is_visible="true"
       lpeversion="1.3"
       scale_width="1"
       interpolator_type="CubicBezierJohan"
       interpolator_beta="0.2"
       start_linecap_type="zerowidth"
       end_linecap_type="zerowidth"
       offset_points="5,4.9921382"
       linejoin_type="extrp_arc"
       miter_limit="4"
       not_jump="false"
       sort_points="true"
       message="&lt;b&gt;Ctrl + click&lt;/b&gt; on existing node and move it" /><inkscape:path-effect
       effect="powerstroke"
       id="path-effect13-5"
       is_visible="true"
       lpeversion="1.3"
       scale_width="1"
       interpolator_type="CubicBezierJohan"
       interpolator_beta="0.2"
       start_linecap_type="zerowidth"
       end_linecap_type="zerowidth"
       offset_points="5,4.9921382"
       linejoin_type="extrp_arc"
       miter_limit="4"
       not_jump="false"
       sort_points="true"
       message="&lt;b&gt;Ctrl + click&lt;/b&gt; on existing node and move it" /></defs><g
     inkscape:label="Layer 1"
     inkscape:groupmode="layer"
     id="layer1"
     transform="rotate(180,62.137499,101.93)"><path
       style="fill:#938e5e;fill-opacity:1;fill-rule:evenodd;stroke:none;stroke-width:0.982424;stroke-linecap:round;stroke-linejoin:round;stroke-dasharray:none;stroke-opacity:1;paint-order:stroke fill markers"
       d="m 118.85,200 v -6.4 L 114.42512,168.86241 105,165.8 95.574879,168.86241 91.149996,193.6 l 2e-6,6.4 z"
       id="path12"
       sodipodi:nodetypes="cccccccc" /><path
       style="display:inline;fill:#fff29e;fill-opacity:1;fill-rule:evenodd;stroke:none;stroke-width:0.373013;stroke-linecap:round;stroke-linejoin:round;paint-order:stroke fill markers"
       d="m 105,169 9.42512,3.06241 L 118.85,200 H 91.149999 l 4.42488,-27.93759 z"
       id="path13"
       sodipodi:nodetypes="cccccc" /><path
       id="path1"
       style="fill:#000000;stroke-width:0.442268"
       d="m 105.42578,172.54597 c -0.15618,-0.0392 -0.83483,0.1285 -1.6652,0.41139 -0.77093,0.26264 -1.80204,0.55365 -2.29118,0.64679 -0.48916,0.0931 -1.01014,0.21391 -1.15783,0.26855 l -0.26854,0.0994 0.28019,0.26466 c 0.59109,0.55804 1.5163,0.872 1.80736,0.61342 0.19156,-0.17018 2.36406,-0.75635 2.54534,-0.68679 0.12666,0.0486 0.19288,0.3561 0.24934,1.15714 0.0948,1.34489 0.25253,2.07274 0.51538,2.37851 0.33497,0.38965 0.95561,0.67404 1.64624,0.75443 0.65444,0.0761 1.79805,-0.14641 2.64407,-0.51469 0.19308,-0.0841 0.59747,-0.24116 0.89888,-0.34922 0.44544,-0.15969 0.56231,-0.26141 0.62417,-0.54302 0.066,-0.30045 -0.006,-0.44341 -0.54806,-1.07579 -0.34326,-0.40109 -0.68977,-0.79875 -0.77021,-0.88379 -0.0805,-0.0851 -0.14627,-0.20353 -0.14627,-0.26329 0,-0.0597 -0.0458,-0.10856 -0.10148,-0.10856 -0.0556,0 -0.12771,0.37157 -0.16021,0.82597 -0.0708,0.98867 -0.36566,1.38304 -1.20102,1.60647 -1.26902,0.3394 -2.29368,0.0539 -2.44044,-0.67993 -0.185,-0.92502 -0.20928,-0.90515 1.09086,-0.88928 1.0461,0.0128 1.19227,-0.0116 1.41723,-0.2361 l 0.25072,-0.25025 -0.24684,-0.24706 c -0.28867,-0.28867 -0.62928,-0.30515 -1.59274,-0.0772 -0.38617,0.0914 -0.74287,0.12625 -0.79261,0.0774 -0.0498,-0.0487 -0.0124,-0.27593 0.0832,-0.50464 l 0.17394,-0.41573 1.05542,0.0602 c 1.15394,0.0658 1.41084,-0.0268 1.41084,-0.50875 0,-0.51833 -0.7321,-0.66235 -1.6988,-0.33414 l -0.53686,0.18216 -0.40567,-0.35608 c -0.22306,-0.19585 -0.52419,-0.38574 -0.6692,-0.42213 z m -2.91993,2.58899 c -0.43176,-0.0394 -0.39599,0.12958 -0.0937,0.67308 0.35297,0.63463 0.70736,1.84975 0.70736,2.42536 0,0.28017 -0.0747,0.37128 -0.42396,0.51719 -0.5359,0.22394 -0.51217,0.22901 -0.51217,-0.10992 0,-0.47029 -0.23203,-0.83887 -0.65503,-1.04059 -0.36627,-0.17467 -0.52696,-0.4707 -0.30625,-0.56428 0.0506,-0.0214 0.21222,-0.21003 0.35905,-0.41916 0.50025,-0.71247 -0.0131,-1.19942 -1.26432,-1.19942 h -0.707815 v 0.7117 0.7117 l -0.936135,0.95258 c -0.51487,0.52395 -0.936135,0.96724 -0.936135,0.98504 0,0.22231 1.788641,-0.35995 2.297135,-0.7478 0.50063,-0.38186 0.6238,-0.26739 0.62645,0.58302 0.004,1.1117 -0.3888,1.36741 -2.098752,1.36741 -0.646785,0 -1.175883,0.0287 -1.175883,0.064 0,0.15475 0.694644,0.67749 1.257929,0.94665 0.337884,0.16146 0.614341,0.34233 0.614341,0.40179 0,0.10916 -0.809359,1.07221 -0.957846,1.13977 -0.0441,0.0201 -0.254734,0.19593 -0.468069,0.39082 l -0.387848,0.35447 0.526578,-0.0752 c 0.905566,-0.1291 1.802021,-0.79006 2.67561,-1.9726 0.2464,-0.33355 0.52203,-0.66427 0.61228,-0.73501 0.24621,-0.19296 1.72031,-0.73339 1.79547,-0.65821 0.10824,0.10823 0.0698,1.5933 -0.0459,1.77627 -0.0934,0.14763 -0.19095,0.14377 -0.7398,-0.0293 -0.74077,-0.23351 -0.78713,-0.23815 -0.78713,-0.0782 0,0.15713 2.02745,2.2192 2.18195,2.2192 0.0647,0 0.24508,-0.13624 0.4011,-0.3026 0.26089,-0.2782 0.2819,-0.38618 0.26054,-1.34501 -0.0128,-0.57342 -0.0778,-1.33864 -0.14466,-1.70039 -0.0669,-0.36177 -0.093,-0.7044 -0.0578,-0.7613 0.0352,-0.057 0.31763,-0.10331 0.62759,-0.10331 0.53756,0 0.56697,0.0168 0.63673,0.36568 0.0402,0.20112 0.0743,0.97782 0.0757,1.726 0.003,1.09093 0.0474,1.45882 0.22877,1.85855 0.33553,0.73921 1.09872,1.35387 1.93352,1.55711 0.86221,0.20989 1.95909,0.0572 3.10095,-0.4315 0.75461,-0.323 2.10359,-1.03816 2.66446,-1.51731 0.56086,-0.47915 0.61201,-0.55669 0.61201,-0.98233 0,-0.68287 -0.40325,-1.06588 -1.94015,-1.84393 -0.12365,-0.0626 -0.3958,-0.20328 -0.60496,-0.31265 -0.20917,-0.10937 -0.38031,-0.16183 -0.38031,-0.11634 0,0.0455 0.13345,0.35573 0.29665,0.68931 0.77733,1.58881 0.34419,2.18238 -1.99339,2.73161 -1.62527,0.38188 -2.17195,0.375 -2.57986,-0.0329 -0.35996,-0.35996 -0.42452,-1.19478 -0.0823,-1.06344 0.266,0.1021 2.02834,0.0953 2.31999,-0.009 0.66917,-0.23904 0.82482,-0.7594 0.30717,-1.02708 -0.28005,-0.14481 -0.45336,-0.14686 -1.19942,-0.0147 -0.47964,0.085 -1.0203,0.21237 -1.20148,0.28316 -0.44298,0.1731 -0.43166,0.17981 -0.42944,-0.25163 0.004,-0.61582 0.0997,-0.67554 1.0696,-0.66095 0.84158,0.0126 1.48583,-0.16793 1.67161,-0.46853 0.27565,-0.44604 -0.70636,-0.83917 -1.48534,-0.59469 -0.27334,0.0858 -0.54703,0.19938 -0.60817,0.25255 -0.22008,0.19139 -0.43023,0.0898 -0.58668,-0.28363 -0.0877,-0.20916 -0.29977,-0.51195 -0.4715,-0.67284 -0.2711,-0.25402 -0.41893,-0.29239 -1.12194,-0.29163 l -0.80952,8.1e-4 -0.0121,-0.41047 c -0.006,-0.22574 -0.004,-0.83554 0.008,-1.35506 0.0234,-1.11863 -0.025,-1.18184 -1.06755,-1.39941 -0.25524,-0.0533 -0.45099,-0.0897 -0.59492,-0.10284 z m 1.0479,9.79787 c -0.15901,0.0542 -0.0796,0.32017 0.23814,0.88928 0.17681,0.31665 0.29326,0.60403 0.25872,0.63857 -0.0345,0.0346 -0.78487,0.12665 -1.66726,0.20478 -0.88237,0.0781 -1.60418,0.17903 -1.60418,0.22442 0,0.16156 1.0009,0.93277 1.36924,1.05499 0.29822,0.0989 0.52902,0.0781 1.13153,-0.10262 0.84097,-0.25231 1.00973,-0.19413 1.00973,0.34854 0,0.28851 -0.0658,0.34267 -0.61433,0.50622 -0.33789,0.10075 -1.12775,0.24184 -1.75525,0.31357 -0.70652,0.0807 -1.14092,0.18175 -1.14092,0.26512 0,0.18264 1.21769,0.76837 1.59732,0.76837 0.16778,0 0.66615,-0.13034 1.10756,-0.28956 l 0.80265,-0.28934 0.0741,0.29482 c 0.0407,0.16221 0.0544,0.3147 0.0304,0.33871 -0.11199,0.112 -2.02308,0.43145 -2.28342,0.38167 -0.36899,-0.0705 -0.49368,0.19415 -0.22922,0.48636 0.10537,0.11644 0.40465,0.27554 0.66507,0.35356 0.3994,0.11967 0.55394,0.11101 0.98824,-0.0548 0.64294,-0.24555 0.90326,-0.16336 0.85339,0.26946 -0.0398,0.34576 0.0306,0.32359 -1.7701,0.55857 -0.353,0.0461 -0.54693,0.12483 -0.52017,0.21141 0.0732,0.2368 0.90926,0.57867 1.59594,0.6525 l 0.6573,0.0706 0.0356,0.42967 0.0358,0.42945 -0.67946,0.0766 c -0.37364,0.042 -0.93935,0.11958 -1.25702,0.17255 -0.31767,0.053 -0.64174,0.0717 -0.72038,0.0416 -0.35412,-0.13589 -1.21495,-2.71316 -1.33083,-3.98451 -0.0483,-0.52958 -0.15811,-1.0476 -0.24409,-1.1512 -0.367071,-0.44228 -1.97157,-0.94286 -2.588078,-0.80745 l -0.330936,0.0727 0.592166,0.6637 c 0.436288,0.48882 0.754106,1.03576 1.206736,2.07682 0.337946,0.77729 0.808564,1.76628 1.045832,2.19795 0.66076,1.20211 0.69918,1.16526 -1.148221,1.10479 -0.868848,-0.0284 -1.579728,-0.0162 -1.579728,0.0269 0,0.0432 0.251208,0.41562 0.558346,0.82735 0.821199,1.10082 1.419175,1.32093 2.340333,0.86139 0.36329,-0.18123 2.89471,-0.91891 3.56785,-1.03966 0.50433,-0.0905 0.44619,-0.18904 0.74804,1.26524 0.11878,0.57225 0.30964,1.19471 0.42419,1.3834 v 2.3e-4 c 0.11457,0.18869 0.27253,0.32195 0.35105,0.29621 0.21992,-0.0721 0.43973,-0.85464 0.57869,-2.05945 l 0.12637,-1.09452 1.29862,0.0583 c 1.19627,0.0536 3.43009,0.35257 5.53956,0.74142 1.05602,0.19465 1.62305,-0.33786 1.21975,-1.14549 -0.31573,-0.6323 -1.16378,-0.90927 -2.79856,-0.91374 -0.72405,-0.002 -1.31645,-0.0351 -1.31645,-0.0736 0,-0.15449 0.89661,-1.54518 1.3505,-2.09464 0.26582,-0.32179 0.5753,-0.72738 0.6877,-0.90117 0.2003,-0.3097 0.19735,-0.32592 -0.14285,-0.81911 -0.46382,-0.67243 -0.65941,-0.82379 -1.48579,-1.14869 -0.61954,-0.24358 -0.92225,-0.27917 -2.57436,-0.30305 l -1.87227,-0.0269 -0.0354,-0.40316 c -0.0415,-0.47272 0.0636,-0.51134 1.48921,-0.54508 0.95131,-0.0225 1.29692,-0.14254 1.29426,-0.44979 -0.004,-0.48653 -0.17388,-0.55206 -1.42499,-0.54897 l -1.20125,0.003 -0.33665,-0.38373 c -0.33733,-0.3842 -0.81692,-0.65681 -1.36489,-0.77592 -0.1609,-0.035 -0.43735,-0.0985 -0.61434,-0.14125 -0.10597,-0.0256 -0.1856,-0.0311 -0.2386,-0.013 z m 3.41153,4.1822 c 0.36832,8.1e-4 0.8139,0.0366 1.30296,0.10673 0.65139,0.0935 0.81476,0.16816 1.13863,0.52018 0.20799,0.22606 0.35704,0.47864 0.33117,0.56131 -0.0259,0.0827 -0.10973,0.67697 -0.18651,1.32055 -0.14425,1.20933 -0.30739,1.92226 -0.44406,1.94175 -0.69766,0.0983 -2.98419,0.13822 -3.06872,0.0535 -0.061,-0.0611 -0.11085,-0.2981 -0.11085,-0.52657 v -0.41551 h 0.99031 c 1.09952,0 1.44279,-0.16692 1.29563,-0.63056 -0.12051,-0.37971 -0.47643,-0.50335 -1.42088,-0.49367 -0.84582,0.008 -0.86506,0.003 -0.86506,-0.2818 0,-0.3129 -0.0543,-0.29878 1.35072,-0.3515 1.04034,-0.039 1.45609,-0.52398 0.81135,-0.94642 -0.28722,-0.1882 -1.47221,-0.24912 -1.94243,-0.0999 -0.13561,0.0431 -0.20804,-0.0276 -0.24935,-0.24362 -0.0464,-0.24273 -3.2e-4,-0.32641 0.22741,-0.41299 0.18024,-0.0685 0.47137,-0.1024 0.83968,-0.10147 z"
       sodipodi:nodetypes="ssscccsssssssssssssssscccsscccscccscsssssscsccccsscssssscccsssscsssscssccssscssssscsscssscssssssccccscccsssssssssssccccssssssccccccscsssccssssssssccscccsscssssscccsccccsscccsssscsscsscssssssc"
       transform="translate(-0.01245937)" /></g></svg>
