<?xml version="1.0" encoding="UTF-8" standalone="no"?>
<!-- Created with Inkscape (http://www.inkscape.org/) -->

<svg
   viewBox="0 0 38.549999 41.919998"
   version="1.1"
   id="svg1"
   inkscape:version="1.3.2 (091e20e, 2023-11-25, custom)"
   sodipodi:docname="Tokin.svg"
   xml:space="preserve"
   xmlns:inkscape="http://www.inkscape.org/namespaces/inkscape"
   xmlns:sodipodi="http://sodipodi.sourceforge.net/DTD/sodipodi-0.dtd"
   xmlns="http://www.w3.org/2000/svg"
   xmlns:svg="http://www.w3.org/2000/svg"><sodipodi:namedview
     id="namedview1"
     pagecolor="#ffffff"
     bordercolor="#111111"
     borderopacity="1"
     inkscape:showpageshadow="0"
     inkscape:pageopacity="0"
     inkscape:pagecheckerboard="1"
     inkscape:deskcolor="#d1d1d1"
     inkscape:document-units="mm"
     showguides="true"
     inkscape:zoom="13.096375"
     inkscape:cx="19.280145"
     inkscape:cy="20.959999"
     inkscape:window-width="1292"
     inkscape:window-height="745"
     inkscape:window-x="-8"
     inkscape:window-y="-8"
     inkscape:window-maximized="1"
     inkscape:current-layer="layer1"><inkscape:page
       x="0"
       y="0"
       width="38.549999"
       height="41.919998"
       id="page42"
       margin="0"
       bleed="0" /></sodipodi:namedview><defs
     id="defs1"><inkscape:path-effect
       effect="powerstroke"
       id="path-effect13"
       is_visible="true"
       lpeversion="1.3"
       scale_width="1"
       interpolator_type="CubicBezierJohan"
       interpolator_beta="0.2"
       start_linecap_type="zerowidth"
       end_linecap_type="zerowidth"
       offset_points="5,4.9921382"
       linejoin_type="extrp_arc"
       miter_limit="4"
       not_jump="false"
       sort_points="true"
       message="&lt;b&gt;Ctrl + click&lt;/b&gt; on existing node and move it" /></defs><g
     inkscape:label="Layer 1"
     inkscape:groupmode="layer"
     id="layer1"
     transform="matrix(0.78397198,0,0,1,-63.042056,-167.14)"><path
       style="fill:#fff29e;fill-opacity:1;fill-rule:evenodd;stroke:none;stroke-width:0.354345;stroke-linecap:round;stroke-linejoin:round;paint-order:stroke fill markers"
       d="m 105,173 9.78527,2.68264 L 119.35,200 H 90.649995 l 4.56473,-24.31736 z"
       id="path13" /><path
       style="display:inline;fill:#938e5e;fill-opacity:1;fill-rule:evenodd;stroke:none;stroke-width:0.386001;stroke-linecap:round;stroke-linejoin:round;stroke-dasharray:none;stroke-opacity:1;paint-order:stroke fill markers"
       d="m 90.649998,200 -3e-6,3.2 H 119.35 V 200 Z"
       id="path45" /><path
       id="path1"
       style="fill:#000000;stroke-width:0.655624"
       d="m 102.75782,178.52404 c -0.2481,-0.0384 -0.63963,-0.0263 -1.36489,0.006 -0.85079,0.0386 -1.62862,0.13417 -1.728405,0.21239 -0.111298,0.0873 0.06799,0.34966 0.464145,0.67886 0.37991,0.31569 0.90922,1.07391 1.2853,1.84129 0.35163,0.71747 0.86359,1.61874 1.1376,2.00298 l 0.49821,0.69866 -0.49553,0.61496 c -0.9914,1.23121 -1.97842,2.92375 -2.23043,3.82417 -0.873198,3.12003 1.95491,6.7343 5.0509,6.00054 2.59631,-0.61776 3.87397,-1.72271 4.54083,-3.92707 0.6929,-2.29041 0.57108,-3.20261 -0.23647,-1.77139 -0.43199,0.76562 -0.56957,0.91619 -1.68823,1.84729 -3.53309,2.94067 -7.90542,-0.10407 -5.32945,-4.34464 0.75379,-1.24093 1.27918,-1.56771 2.52124,-1.56771 1.6405,0 3.12199,-0.70227 3.41548,-1.61901 0.2902,-0.90649 -0.50546,-1.23564 -2.00698,-0.83065 -0.55569,0.14989 -1.24423,0.39238 -1.52981,0.53907 -0.34613,0.1778 -0.58457,0.21547 -0.71517,0.11309 -0.33935,-0.26604 -0.75885,-1.77449 -0.76106,-2.73764 -0.002,-0.60716 -0.11326,-1.04971 -0.3241,-1.28571 -0.15074,-0.16871 -0.25509,-0.25763 -0.50318,-0.29609 z"
       sodipodi:nodetypes="ssssssccscssssssssscsss" /></g></svg>
