<?xml version="1.0" encoding="UTF-8" standalone="no"?>
<!-- Created with Inkscape (http://www.inkscape.org/) -->

<svg
   viewBox="0 0 38.549999 41.919998"
   version="1.1"
   id="svg1"
   inkscape:version="1.3.2 (091e20e, 2023-11-25, custom)"
   sodipodi:docname="Ryu.svg"
   xml:space="preserve"
   xmlns:inkscape="http://www.inkscape.org/namespaces/inkscape"
   xmlns:sodipodi="http://sodipodi.sourceforge.net/DTD/sodipodi-0.dtd"
   xmlns="http://www.w3.org/2000/svg"
   xmlns:svg="http://www.w3.org/2000/svg"><sodipodi:namedview
     id="namedview1"
     pagecolor="#ffffff"
     bordercolor="#111111"
     borderopacity="1"
     inkscape:showpageshadow="0"
     inkscape:pageopacity="0"
     inkscape:pagecheckerboard="1"
     inkscape:deskcolor="#d1d1d1"
     inkscape:document-units="mm"
     showguides="true"
     inkscape:zoom="13.096375"
     inkscape:cx="19.280145"
     inkscape:cy="20.959999"
     inkscape:window-width="1292"
     inkscape:window-height="745"
     inkscape:window-x="-8"
     inkscape:window-y="-8"
     inkscape:window-maximized="1"
     inkscape:current-layer="layer1"><inkscape:page
       x="0"
       y="0"
       width="38.549999"
       height="41.919998"
       id="page42"
       margin="0"
       bleed="0" /></sodipodi:namedview><defs
     id="defs1"><inkscape:path-effect
       effect="powerstroke"
       id="path-effect13"
       is_visible="true"
       lpeversion="1.3"
       scale_width="1"
       interpolator_type="CubicBezierJohan"
       interpolator_beta="0.2"
       start_linecap_type="zerowidth"
       end_linecap_type="zerowidth"
       offset_points="5,4.9921382"
       linejoin_type="extrp_arc"
       miter_limit="4"
       not_jump="false"
       sort_points="true"
       message="&lt;b&gt;Ctrl + click&lt;/b&gt; on existing node and move it" /></defs><g
     inkscape:label="Layer 1"
     inkscape:groupmode="layer"
     id="layer1"
     transform="translate(-85.737497,-165.14)"><path
       style="fill:#fff29e;fill-opacity:1;fill-rule:evenodd;stroke:none;stroke-width:0.373013;stroke-linecap:round;stroke-linejoin:round;paint-order:stroke fill markers"
       d="m 105.01246,169 9.42512,3.06241 L 118.86246,200 H 91.162456 l 4.42488,-27.93759 z"
       id="path13"
       sodipodi:nodetypes="cccccc" /><path
       style="display:inline;fill:#938e5e;fill-opacity:1;fill-rule:evenodd;stroke:none;stroke-width:0.379217;stroke-linecap:round;stroke-linejoin:round;stroke-dasharray:none;stroke-opacity:1;paint-order:stroke fill markers"
       d="m 91.175004,200 -3e-6,3.2 H 118.875 V 200 Z"
       id="path45" /><path
       id="path1"
       style="fill:#000000;stroke-width:0.455003"
       d="m 106.9616,172.16281 c -0.11397,-0.003 -0.23319,0.009 -0.35951,0.0374 -0.98571,0.22231 -1.29829,0.55981 -1.30357,1.40796 -0.004,0.65538 0.1958,1.01955 0.87751,1.59911 0.23179,0.19706 0.32218,0.36911 0.2845,0.54174 -0.0303,0.13913 -0.12788,0.59658 -0.21655,1.01646 -0.13402,0.63473 -0.21819,0.79287 -0.49918,0.93817 -0.89492,0.46279 -2.22887,1.4892 -2.89796,2.22973 -0.40828,0.45187 -0.79648,0.82236 -0.86269,0.82319 -0.20193,0.002 -1.62521,-0.6315 -1.62521,-0.72397 0,-0.0476 0.70692,-0.31617 1.57113,-0.59699 1.67563,-0.54447 1.87069,-0.72378 1.15848,-1.06514 -0.4334,-0.20772 -1.0684,-0.0665 -3.00754,0.66943 -0.781856,0.29672 -1.455862,0.50534 -1.497768,0.46344 -0.04191,-0.0419 0.216627,-0.37296 0.574656,-0.73549 0.523303,-0.52989 0.727777,-0.65907 1.042322,-0.65907 0.21521,0 0.59616,-0.0888 0.8467,-0.19728 0.78192,-0.33861 0.9253,-0.38826 1.35858,-0.47166 0.51656,-0.0994 0.72232,-0.25494 0.72232,-0.54551 0,-0.54698 -0.74005,-0.59451 -2.47827,-0.15918 -0.85326,0.21371 -1.473971,0.29897 -1.972022,0.27087 -0.431739,-0.0244 -0.726681,0.007 -0.726549,0.0795 0.251913,0.48502 0.757434,0.6505 1.193514,0.89373 0.14642,0.0927 0.14642,0.13037 0,0.27088 -0.303242,0.29098 -1.122552,0.87635 -1.55444,1.11051 -0.876299,0.4751 -1.059776,0.83123 -0.842939,1.6365 0.260157,0.96614 0.731936,1.02456 1.347996,0.16671 0.658864,-0.91745 0.964566,-0.56699 0.380443,0.43616 -0.67604,1.16101 -1.134642,2.1942 -1.206451,2.71809 -0.09527,0.69508 0.158351,1.77497 0.490011,2.08654 0.246912,0.23196 0.25948,0.23239 0.548557,0.0143 0.274766,-0.20726 0.302186,-0.32525 0.382321,-1.64825 0.101461,-1.67492 0.196096,-2.09334 0.708208,-3.13357 l 0.38232,-0.77664 0.499881,0.0777 c 0.68589,0.10646 1.25347,0.38131 1.33812,0.64801 0.0413,0.13045 -0.10518,0.58895 -0.35387,1.10792 -0.27376,0.57127 -0.42417,1.06163 -0.42417,1.38187 0,1.02558 0.87665,1.16422 1.41242,0.22337 0.21331,-0.37459 0.2695,-0.66359 0.27087,-1.39809 0.002,-0.97919 0.28364,-1.47545 0.51376,-1.71761 0.14897,-0.15678 0.4862,-0.59162 0.74958,-0.96639 0.50871,-0.72381 1.70665,-1.829 1.83895,-1.69668 0.0435,0.0434 -0.0202,0.52371 -0.14155,1.06748 -0.32881,1.4742 -0.34484,1.68572 -0.14696,1.95181 0.17872,0.2403 0.17986,0.24018 0.51965,-0.0122 0.23006,-0.17093 0.39488,-0.45391 0.50834,-0.87281 0.22715,-0.83866 0.49445,-0.83199 0.49354,0.0122 -3.7e-4,0.34762 -0.0509,0.82163 -0.11216,1.05338 -0.0612,0.23173 -0.14127,0.73981 -0.17799,1.12909 -0.0366,0.38927 -0.1271,0.78067 -0.20103,0.86974 -0.13074,0.15753 -2.26638,0.89044 -2.59466,0.89044 -0.0902,0 -0.16388,0.0542 -0.16388,0.12037 0,0.18314 1.67502,0.13519 2.22714,-0.0637 0.26485,-0.0954 0.49101,-0.17425 0.50271,-0.17517 0.0117,-8.6e-4 0.15742,0.28254 0.32377,0.63014 0.16636,0.34763 0.40898,0.75365 0.53915,0.9022 0.32749,0.37373 1.34386,0.86422 2.02226,1.04239 0.67843,0.17818 2.97017,-0.1107 3.84934,-0.64012 0.87917,-0.5294 1.87255,-1.99789 1.79409,-2.40533 -0.10271,-0.53339 -0.6257,-1.05892 -1.44698,-1.45381 -0.19864,-0.0955 -0.45628,-0.25245 -0.57255,-0.3487 -0.34197,-0.28307 -0.39177,-0.0534 -0.11051,0.50976 0.14393,0.28819 0.2617,0.64447 0.2617,0.79192 0,0.35022 -1.11673,1.42536 -1.87281,1.80298 -1.41909,0.70872 -3.64387,0.11014 -3.52012,-0.94711 0.0315,-0.26871 0.17157,-0.35243 1.17942,-0.70468 1.02198,-0.35719 1.4712,-0.56076 2.69435,-1.22126 0.73554,-0.3972 1.21243,-1.06095 1.13849,-1.58407 -0.031,-0.2188 -0.24411,-0.39554 -0.87985,-0.7296 -0.46157,-0.24255 -0.85604,-0.49093 -0.87634,-0.55186 -0.0359,-0.10788 0.47161,-0.28907 1.26406,-0.45121 0.25457,-0.0522 0.39074,-0.15036 0.38938,-0.28121 -0.002,-0.32016 -0.14967,-0.4735 -0.76535,-0.80085 -0.51957,-0.27626 -0.62716,-0.29354 -1.07806,-0.17211 -0.61657,0.16601 -1.40514,0.55955 -1.40514,0.70114 0,0.10325 0.45646,0.26423 0.87703,0.3092 0.41744,0.0447 0.4928,0.25431 0.28144,0.78251 -0.1434,0.35844 -0.16449,0.55773 -0.0764,0.72232 0.33001,0.61663 0.0318,1.04385 -1.3882,1.98873 -1.13769,0.75698 -1.46033,0.79586 -1.33342,0.16129 0.0414,-0.20715 0.10996,-0.98375 0.15237,-1.72585 0.0851,-1.49066 0.0825,-1.49749 -0.67435,-1.62051 -0.48953,-0.0796 -0.55855,-0.25536 -0.37222,-0.94734 0.12759,-0.47379 0.14321,-0.4842 1.54198,-1.04186 0.77722,-0.30984 1.46214,-0.61085 1.52223,-0.66893 0.17755,-0.17161 -0.0961,-0.39774 -1.07642,-0.88879 -0.50447,-0.25271 -0.94677,-0.53617 -0.98284,-0.63015 -0.12175,-0.31709 0.34372,-0.21069 0.4117,-1.34024 0.036,-0.59644 0.002,-0.73186 -0.25864,-1.01999 -0.29416,-0.32558 -0.5883,-0.48567 -0.93017,-0.4973 z m -6.08961,0.0665 c -0.48752,0.0125 -0.912386,0.0652 -0.944281,0.11685 -0.03191,0.0516 0.06897,0.17699 0.224071,0.27863 0.30688,0.20108 0.73487,0.90572 0.85118,1.40138 0.13655,0.58193 -0.0982,0.70429 -1.516823,0.79026 -0.711784,0.0431 -1.294151,0.10079 -1.294151,0.12815 0,0.0656 0.681885,0.64093 1.074071,0.90619 0.352122,0.23815 0.865793,0.22235 2.814723,-0.0858 1.2253,-0.19376 2.01012,-0.44783 2.01012,-0.65107 0,-0.27468 -0.4139,-0.49047 -1.08746,-0.56666 l -0.72044,-0.0813 0.0311,-0.81684 c 0.0275,-0.72332 -0.002,-0.85286 -0.26218,-1.1298 -0.26931,-0.2871 -0.36624,-0.31091 -1.17987,-0.28992 z m 5.48674,0.86456 c 0.0829,-0.014 0.16972,-0.01 0.2537,0.0167 0.28836,0.0915 0.34425,0.25693 0.27604,0.81472 -0.0308,0.25269 -0.12158,0.45145 -0.20621,0.45145 -0.29003,0 -0.78557,-0.49642 -0.78557,-0.78698 0,-0.24861 0.2135,-0.45382 0.46204,-0.49589 z m 1.19163,2.94406 c 0.0522,-0.0127 0.10271,-0.009 0.14437,0.0174 0.14322,0.0903 0.14579,0.14134 0.0153,0.29861 -0.16489,0.19869 -0.48907,0.25996 -0.48907,0.0924 0,-0.18189 0.17274,-0.37003 0.32942,-0.40842 z m -1.36798,11.11057 c -0.3594,0.0136 -0.84744,0.12013 -1.67013,0.32729 -0.79454,0.2001 -1.83739,0.43139 -2.31742,0.51377 -0.48004,0.0824 -0.8728,0.1923 -0.8728,0.24452 0,0.15686 0.74734,0.65934 1.2965,0.87164 0.64566,0.24975 1.072,0.25084 1.53256,0.003 0.19864,-0.10657 0.76746,-0.32203 1.26406,-0.47872 0.81173,-0.25616 0.917,-0.26593 1.04398,-0.0962 0.21406,0.28617 -0.0399,1.83635 -0.32472,1.98262 -0.0976,0.0501 -0.61091,0.19771 -1.14062,0.328 -1.3533,0.33287 -1.80677,0.52599 -2.40113,1.02281 -0.65416,0.54681 -0.78647,0.97755 -0.40301,1.31202 0.35615,0.31066 0.75297,0.5143 1.62051,0.83189 0.95871,0.35097 1.07006,0.46933 0.7891,0.83894 -0.4671,0.61446 -0.86952,1.43267 -0.86952,1.76771 0,0.34173 0.33884,0.76764 0.72232,0.90783 v -2.4e-4 c 0.33328,0.12183 0.98322,0.0863 1.66801,-0.091 0.37373,-0.0968 1.15475,-0.22982 1.73572,-0.29578 1.42223,-0.16147 1.73324,-0.35548 1.83473,-1.14438 0.0432,-0.33608 0.13719,-0.81589 0.20902,-1.06631 0.0989,-0.34469 0.0949,-0.49093 -0.0165,-0.60193 -0.11567,-0.1153 -0.19244,-0.0865 -0.35928,0.13425 -0.32434,0.42925 -1.53851,0.98662 -2.54362,1.16766 -0.49659,0.0894 -1.05188,0.1991 -1.23397,0.24382 -0.22105,0.0543 -0.33105,0.0337 -0.33105,-0.0618 0,-0.2489 0.61807,-1.20904 0.77828,-1.20904 0.0844,0 0.2241,-0.25298 0.31059,-0.56195 0.17093,-0.61046 0.72471,-1.32746 1.14979,-1.48908 0.36603,-0.13916 0.4792,-0.71598 0.23372,-1.19068 -0.10518,-0.20348 -0.25075,-0.36986 -0.32353,-0.36986 -0.17611,0 -0.0553,-0.58234 0.2537,-1.22174 0.59582,-1.2332 0.43107,-1.76702 -0.73737,-2.39009 -0.30793,-0.1642 -0.53854,-0.24338 -0.89796,-0.22972 z m -0.42629,4.59678 c 0.26362,0.0368 0.22729,0.28776 -0.0522,0.91417 -0.18117,0.40606 -0.361,0.73444 -0.39948,0.72961 -0.454,-0.0571 -1.63487,-0.56956 -1.63487,-0.70938 0,-0.20552 1.11434,-0.79193 1.72091,-0.90572 0.15667,-0.0293 0.27775,-0.0409 0.36563,-0.0287 z"
       sodipodi:nodetypes="sccssssscssssssssssssssssssssssscccsssscssscsssssssssssssccssssssssssssscsssssssccssssssccsscsssssssscccccscsssssccsscccsssccsssssssssccsssssssssssssssscccscsscc" /></g></svg>
