<?xml version="1.0" encoding="UTF-8" standalone="no"?>
<!-- Created with Inkscape (http://www.inkscape.org/) -->

<svg
   viewBox="0 0 38.549999 41.919998"
   version="1.1"
   id="svg1"
   inkscape:version="1.3.2 (091e20e, 2023-11-25, custom)"
   sodipodi:docname="Kaku.svg"
   xml:space="preserve"
   xmlns:inkscape="http://www.inkscape.org/namespaces/inkscape"
   xmlns:sodipodi="http://sodipodi.sourceforge.net/DTD/sodipodi-0.dtd"
   xmlns="http://www.w3.org/2000/svg"
   xmlns:svg="http://www.w3.org/2000/svg"><sodipodi:namedview
     id="namedview1"
     pagecolor="#ffffff"
     bordercolor="#111111"
     borderopacity="1"
     inkscape:showpageshadow="0"
     inkscape:pageopacity="0"
     inkscape:pagecheckerboard="1"
     inkscape:deskcolor="#d1d1d1"
     inkscape:document-units="mm"
     showguides="true"
     inkscape:zoom="13.096375"
     inkscape:cx="14.164225"
     inkscape:cy="19.967358"
     inkscape:window-width="1292"
     inkscape:window-height="745"
     inkscape:window-x="-8"
     inkscape:window-y="-8"
     inkscape:window-maximized="1"
     inkscape:current-layer="layer1"><inkscape:page
       x="0"
       y="0"
       width="38.549999"
       height="41.919998"
       id="page42"
       margin="0"
       bleed="0" /></sodipodi:namedview><defs
     id="defs1"><inkscape:path-effect
       effect="powerstroke"
       id="path-effect13"
       is_visible="true"
       lpeversion="1.3"
       scale_width="1"
       interpolator_type="CubicBezierJohan"
       interpolator_beta="0.2"
       start_linecap_type="zerowidth"
       end_linecap_type="zerowidth"
       offset_points="5,4.9921382"
       linejoin_type="extrp_arc"
       miter_limit="4"
       not_jump="false"
       sort_points="true"
       message="&lt;b&gt;Ctrl + click&lt;/b&gt; on existing node and move it" /></defs><g
     inkscape:label="Layer 1"
     inkscape:groupmode="layer"
     id="layer1"
     transform="translate(-85.737497,-165.14)"><path
       style="fill:#fff29e;fill-opacity:1;fill-rule:evenodd;stroke:none;stroke-width:0.373013;stroke-linecap:round;stroke-linejoin:round;paint-order:stroke fill markers"
       d="m 105.01246,169 9.42512,3.06241 L 118.86246,200 H 91.162456 l 4.42488,-27.93759 z"
       id="path13"
       sodipodi:nodetypes="cccccc" /><path
       style="display:inline;fill:#938e5e;fill-opacity:1;fill-rule:evenodd;stroke:none;stroke-width:0.379217;stroke-linecap:round;stroke-linejoin:round;stroke-dasharray:none;stroke-opacity:1;paint-order:stroke fill markers"
       d="m 91.175004,200 -3e-6,3.2 H 118.875 V 200 Z"
       id="path45" /><path
       id="path1-6"
       style="fill:#000000;stroke-width:0.476684"
       d="m 103.40387,171.78702 c -0.2995,0 -0.31198,0.0272 -0.23131,0.50474 0.0645,0.38186 0.0216,0.6363 -0.17613,1.0447 -0.32792,0.6774 -1.43164,1.92651 -1.93002,2.18424 -0.4779,0.24713 -0.36393,0.36404 0.31408,0.3222 0.77065,-0.0476 2.06374,-0.49975 2.82938,-0.98952 l 0.66535,-0.42542 v 0.61731 c 0,0.69765 -0.15693,0.94809 -1.23217,1.96722 -0.85934,0.81451 -0.89928,0.83418 -1.76128,0.86906 -0.52346,0.0212 -0.73521,0.0813 -0.76117,0.21604 -0.0696,0.36159 1.71003,1.05644 2.21454,0.86463 0.40646,-0.15454 0.4052,-0.15529 0.403,0.23451 -0.003,0.53199 -0.14025,0.6452 -0.82078,0.67643 -1.38265,0.0634 -1.61177,0.576 -0.47542,1.06465 0.0973,0.0418 0.98043,-0.142 1.04396,0.33994 -0.003,0.48962 -0.15853,0.57688 -1.10259,0.62026 -0.50226,0.0231 -0.91239,0.0986 -0.91143,0.16801 0.005,0.38372 0.55932,0.69663 1.42454,0.80477 l 0.62446,0.0781 0.053,0.69368 c 0.11644,1.52919 0.46326,2.08861 1.01686,1.64033 0.34891,-0.28253 0.48809,-0.63937 0.60056,-1.53958 0.0908,-0.72684 0.335,-0.98361 0.93557,-0.98361 0.43245,0 1.14475,-0.37449 1.14274,-0.60081 -0.004,-0.47308 -0.21702,-0.59717 -1.0341,-0.60327 -0.76186,-0.006 -0.79152,-0.0179 -0.75822,-0.30989 0.0426,-0.37377 0.15572,-0.4489 1.06096,-0.70672 0.39448,-0.11236 0.74403,-0.27407 0.77669,-0.35916 0.14874,-0.38761 -0.4864,-0.73 -1.26542,-0.68209 -0.47331,0.0291 -0.61622,-0.0161 -0.81142,-0.25717 -0.43045,-0.53159 -0.31784,-0.72129 0.50646,-0.85405 1.16305,-0.18729 2.78536,-0.12926 3.24422,0.11603 0.33287,0.17795 0.4043,0.30263 0.46778,0.81487 0.13712,1.1064 0.10172,4.72084 -0.048,4.90129 -0.10362,0.12484 -0.35214,0.1494 -0.94961,0.0936 -0.56749,-0.053 -0.80896,-0.0325 -0.80896,0.0687 0,0.0794 0.0721,0.14434 0.16036,0.14434 0.0883,0 0.46223,0.19865 0.83088,0.44143 0.41607,0.25495 0.79936,0.40234 1.05234,0.82054 0.48822,0.858 1.61397,0.13073 1.61397,-1.04273 0,-0.23316 -0.11857,-0.87462 -0.26333,-1.42528 -0.2452,-0.93277 -0.25234,-1.09593 -0.10617,-2.38845 0.19732,-1.74474 0.17641,-2.14455 -0.13844,-2.65399 -0.54376,-0.87983 -1.96491,-1.55076 -2.7843,-1.31444 -1.15151,0.33211 -4.14899,0.71489 -4.14899,0.52987 0,-0.13777 0.683,-0.48579 1.92559,-0.98115 1.04829,-0.4179 1.47972,-0.74421 1.47972,-1.11934 0,-0.3738 -0.29914,-0.63236 -1.05874,-0.91537 -0.79174,-0.295 -0.96093,-0.54368 -0.60918,-0.89542 0.16009,-0.1601 0.23649,-0.35897 0.19657,-0.51164 -0.0775,-0.29649 -1.91988,-1.28241 -2.39633,-1.28241 z m -3.861524,5.7743 0.109372,0.80206 c 0.187238,1.37385 0.118983,1.85086 -0.498086,3.49054 -0.659219,1.75169 -0.718144,2.33643 -0.309148,3.06414 0.151508,0.26957 0.345992,0.49021 0.432315,0.49021 0.234975,0 0.565692,-0.37589 0.772251,-0.87794 0.10103,-0.24554 0.25617,-0.61662 0.34487,-0.82472 0.21499,-0.50438 0.54094,-1.69139 0.75994,-2.76804 0.17453,-0.85804 0.17144,-0.88938 -0.14016,-1.50978 -0.17502,-0.34846 -0.57755,-0.91085 -0.89469,-1.2499 z m 10.718204,8.97959 c -1.143,0.0882 -3.02181,0.48055 -4.42759,0.96193 -0.86154,0.29501 -1.4782,0.42788 -1.98643,0.42788 -0.8506,0 -0.94844,0.16977 -0.25717,0.44635 0.26395,0.10562 0.67542,0.29682 0.91439,0.42493 0.64221,0.3443 0.99282,0.31382 2.61753,-0.22712 1.26363,-0.42072 1.67784,-0.49943 2.89737,-0.55154 1.12849,-0.0482 1.47432,-0.1074 1.67113,-0.2855 0.45843,-0.41488 0.18527,-0.97204 -0.57642,-1.17575 -0.17274,-0.0462 -0.4718,-0.0506 -0.85281,-0.0212 z m -10.726579,0.38083 c -0.403379,0 -0.439267,0.035 -0.569523,0.55227 -0.105588,0.41933 -0.359713,0.78055 -1.055538,1.50018 -0.504032,0.52127 -1.001493,0.97445 -1.105544,1.00701 -0.104029,0.0326 -0.149217,0.10226 -0.100258,0.15494 0.122885,0.13221 2.264278,-0.24206 2.738488,-0.47863 0.212575,-0.10604 0.415715,-0.14539 0.451529,-0.0874 0.03581,0.0579 0.0045,0.3876 -0.06947,0.73259 -0.115071,0.53656 -0.265728,0.75564 -1.041498,1.51421 -1.20058,1.17396 -1.744215,1.57944 -3.589322,2.67765 -0.394662,0.23489 -0.508792,0.49907 -0.215542,0.49907 0.40517,0 1.763685,-0.40029 2.052471,-0.57873 0.288786,-0.17843 0.670177,-0.37708 1.072514,-0.61969 0.402336,-0.2426 0.757058,-0.44118 0.788266,-0.44118 0.131513,0 0.04169,1.01456 -0.145829,1.646 -0.351869,1.18487 -0.267735,2.44097 0.171201,2.55497 0.121346,0.0316 0.296332,0.0356 0.49817,-0.002 0.201839,-0.0372 0.379794,-0.27846 0.546284,-0.57327 0.24715,-0.43765 0.31191,-0.76079 0.353,-1.76129 0.0468,-1.14 0.0276,-1.26447 -0.27787,-1.78567 l -0.328361,-0.56041 0.408421,-0.24559 c 0.63356,-0.381 1.60659,-1.29116 1.60659,-1.50288 0,-0.37953 -0.42652,-0.89812 -1.02672,-1.24866 -0.33715,-0.19691 -0.61276,-0.3887 -0.61263,-0.42616 1.2e-4,-0.0375 0.24576,-0.22335 0.54612,-0.4131 0.30036,-0.18975 0.64838,-0.45791 0.77324,-0.59588 0.21249,-0.23479 0.21372,-0.27131 0.019,-0.56854 -0.27044,-0.41273 -1.33787,-0.95011 -1.88716,-0.95011 z m 13.087439,1.30433 c -0.70637,0.0174 -1.75041,0.28725 -3.6711,0.91685 -2.49393,0.81752 -3.38974,0.98203 -4.91361,0.90232 -0.6487,-0.0339 -1.17944,-0.0419 -1.17944,-0.0177 0,0.0242 0.2412,0.19492 0.53602,0.37936 0.29481,0.18443 0.71239,0.48301 0.92793,0.66362 1.01668,0.8519 0.92578,0.81226 1.46125,0.63554 0.27101,-0.0894 0.52199,-0.21009 1.86717,-0.82454 1.34518,-0.61445 1.90039,-0.80693 1.98992,-0.80693 0.0895,0 0.2802,0.19865 0.7659,0.87506 0.48571,0.67642 0.52365,1.07166 0.52365,2.63691 0,1.37867 -0.043,1.92433 -0.15765,1.99851 -0.0867,0.0561 -0.55494,0.11015 -1.04051,0.12021 -1.58839,0.0329 -1.70266,0.0436 -1.70266,0.15864 0,0.0626 0.18446,0.17748 0.4099,0.2552 0.42007,0.14481 1.72364,0.97649 1.93664,1.15463 0.213,0.17814 0.45331,0.35919 0.6905,0.49153 0.2372,0.13233 0.64217,0.244 0.89986,0.24781 0.61533,0.009 0.78685,-0.30404 0.73802,-1.34868 -0.0601,-1.28529 -0.0606,-3.18642 -9.6e-4,-4.11475 l 0.0557,-0.86684 -0.85157,-0.77275 c -0.46826,-0.42491 -0.85136,-0.81506 -0.85133,-0.86709 10e-5,-0.16422 1.13098,-0.10252 1.93347,0.10542 1.09788,0.28448 2.41302,0.30019 2.68134,0.032 0.19535,-0.19524 0.19358,-0.24183 -0.0268,-0.68702 -0.25397,-0.51293 -0.75195,-0.85265 -1.44426,-0.98534 -0.23754,-0.0455 -0.67107,-0.14422 -0.9634,-0.21923 -0.18041,-0.0463 -0.37841,-0.0686 -0.61387,-0.0628 z"
       sodipodi:nodetypes="sscssccsscsscssssccccssscsssscssssssssssssssssssssssccssssssscccssssssssccssssssssssscsssccssccssssssssscsssssscscssssscscsccssssssscc" /></g></svg>
