<?xml version="1.0" encoding="UTF-8" standalone="no"?>
<!-- Created with Inkscape (http://www.inkscape.org/) -->

<svg
   viewBox="0 0 38.549999 41.919998"
   version="1.1"
   id="svg1"
   inkscape:version="1.3.2 (091e20e, 2023-11-25, custom)"
   sodipodi:docname="Gyoku.svg"
   xml:space="preserve"
   xmlns:inkscape="http://www.inkscape.org/namespaces/inkscape"
   xmlns:sodipodi="http://sodipodi.sourceforge.net/DTD/sodipodi-0.dtd"
   xmlns="http://www.w3.org/2000/svg"
   xmlns:svg="http://www.w3.org/2000/svg"><sodipodi:namedview
     id="namedview1"
     pagecolor="#ffffff"
     bordercolor="#111111"
     borderopacity="1"
     inkscape:showpageshadow="0"
     inkscape:pageopacity="0"
     inkscape:pagecheckerboard="1"
     inkscape:deskcolor="#d1d1d1"
     inkscape:document-units="mm"
     showguides="true"
     inkscape:zoom="13.096375"
     inkscape:cx="19.280145"
     inkscape:cy="20.959999"
     inkscape:window-width="1292"
     inkscape:window-height="745"
     inkscape:window-x="-8"
     inkscape:window-y="-8"
     inkscape:window-maximized="1"
     inkscape:current-layer="layer1"><inkscape:page
       x="0"
       y="0"
       width="38.549999"
       height="41.919998"
       id="page42"
       margin="0"
       bleed="0" /></sodipodi:namedview><defs
     id="defs1"><inkscape:path-effect
       effect="powerstroke"
       id="path-effect13"
       is_visible="true"
       lpeversion="1.3"
       scale_width="1"
       interpolator_type="CubicBezierJohan"
       interpolator_beta="0.2"
       start_linecap_type="zerowidth"
       end_linecap_type="zerowidth"
       offset_points="5,4.9921382"
       linejoin_type="extrp_arc"
       miter_limit="4"
       not_jump="false"
       sort_points="true"
       message="&lt;b&gt;Ctrl + click&lt;/b&gt; on existing node and move it" /></defs><g
     inkscape:label="Layer 1"
     inkscape:groupmode="layer"
     id="layer1"
     transform="matrix(1.5526719,0,0,1.5526719,-139.00342,-260.56662)"><path
       style="display:inline;fill:#fff29e;fill-opacity:1;fill-rule:evenodd;stroke:none;stroke-width:0.24845;stroke-linecap:round;stroke-linejoin:round;paint-order:stroke fill markers"
       d="m 101.93939,168 6.30221,2.04771 2.93992,18.56192 H 92.697253 l 2.939919,-18.56192 z"
       id="path13"
       transform="translate(4.5566654e-7,1.9822226)" /><path
       style="display:inline;fill:#938e5e;fill-opacity:1;fill-rule:evenodd;stroke:none;stroke-width:0.248604;stroke-linecap:round;stroke-linejoin:round;stroke-dasharray:none;stroke-opacity:1;paint-order:stroke fill markers"
       d="m 92.697255,188.60963 -2e-6,2.06096 h 18.484267 v -2.06096 z"
       id="path45"
       transform="translate(4.5566654e-7,1.9822226)" /><path
       id="path1"
       style="fill:#000000;stroke-width:0.299274"
       d="m 103.96103,172.8111 c -0.37677,0.0202 -0.89382,0.11876 -1.64722,0.30065 -1.64436,0.39699 -2.458766,0.49923 -3.756865,0.472 -0.625627,-0.0131 -1.04969,0.008 -1.051187,0.0534 -0.0012,0.0414 0.154378,0.23725 0.345654,0.43505 0.469881,0.48588 0.760537,0.56676 1.538348,0.42808 0.336592,-0.06 0.70939,-0.11029 0.82848,-0.11182 l 0.21652,-0.003 -0.0493,0.4949 c -0.0827,0.8306 0.0217,0.77902 -1.650627,0.8158 -0.737466,0.0162 -0.720611,0.01 -0.546858,0.20198 0.08291,0.0916 0.31108,0.26087 0.507111,0.37612 0.302644,0.17793 0.44899,0.20956 0.970149,0.20956 h 0.613825 l 0.12604,0.37905 c 0.0693,0.20849 0.10821,0.42511 0.0866,0.48144 -0.0229,0.0597 -0.29817,0.14018 -0.66053,0.19301 -0.341714,0.0498 -0.710327,0.11313 -0.819203,0.14058 -0.417317,0.1052 -1.670496,0.12934 -2.028754,0.0391 -0.201361,-0.0507 -0.385807,-0.0725 -0.409988,-0.0483 -0.06452,0.0645 0.352674,0.48095 0.882611,0.88076 0.410422,0.30965 0.51043,0.34936 0.877816,0.34936 0.228021,0 0.625313,-0.0672 0.882923,-0.14939 2.436175,-0.77721 2.722075,-0.83295 3.952505,-0.77003 0.56616,0.029 1.15409,0.0721 1.30652,0.0957 0.15243,0.0237 0.57102,0.0446 0.93025,0.0465 1.04326,0.006 1.30793,-0.28913 0.77821,-0.86715 l -0.27111,-0.2957 -1.13438,0.004 c -0.76918,0.003 -1.29996,0.0453 -1.64862,0.13238 -0.28282,0.0706 -0.5301,0.11249 -0.54949,0.0931 -0.0527,-0.0527 0.23847,-0.84386 0.36468,-0.99071 0.067,-0.078 0.30055,-0.1474 0.60083,-0.17878 0.31488,-0.0329 0.54267,-0.10299 0.63501,-0.19533 0.13924,-0.13924 0.13924,-0.15017 -0.004,-0.32709 -0.12448,-0.15374 -0.24341,-0.1891 -0.74296,-0.22116 l -0.59464,-0.0382 -0.13208,-0.42901 c -0.0727,-0.23599 -0.13207,-0.47654 -0.13207,-0.53448 0,-0.1351 0.51445,-0.26446 1.91787,-0.48237 0.29687,-0.0461 0.53738,-0.27582 0.53618,-0.51237 -2.9e-4,-0.0665 -0.11835,-0.20111 -0.26229,-0.2991 -0.19267,-0.13116 -0.42913,-0.18924 -0.8059,-0.16904 z m 1.60315,1.26183 c -0.17102,-0.007 -0.29678,0.0191 -0.29678,0.0835 0,0.0482 0.0891,0.15778 0.19795,0.24343 0.2358,0.18547 0.25141,0.40007 0.05,0.6862 -0.0814,0.1156 -0.17444,0.29533 -0.20677,0.39932 -0.0525,0.16882 -0.0387,0.18432 0.12821,0.14522 0.10283,-0.0241 0.41858,-0.12706 0.70167,-0.22874 0.47502,-0.17062 0.51652,-0.20435 0.53912,-0.43783 0.0328,-0.33879 -0.16455,-0.6173 -0.54546,-0.76971 -0.18062,-0.0723 -0.39688,-0.1139 -0.5679,-0.1214 z m -0.1327,5.16112 c -0.23937,0.0197 -0.61777,0.10667 -1.29089,0.27374 -1.05711,0.26237 -1.21811,0.28361 -1.5849,0.20848 -0.37207,-0.0762 -0.43918,-0.0664 -0.75641,0.11073 -0.2858,0.15956 -0.43412,0.18952 -0.82864,0.16764 -0.60555,-0.0335 -0.65445,0.069 -0.23338,0.4901 0.34953,0.34953 0.55251,0.38571 1.08568,0.19363 0.3872,-0.13949 0.35632,-0.13926 0.35632,-0.003 0,0.0626 -0.1602,0.22881 -0.35586,0.36932 -0.71849,0.51598 -0.83907,1.09986 -0.33776,1.635 0.27611,0.29475 0.48797,0.22795 1.03742,-0.32694 0.59301,-0.59887 0.7708,-0.67767 1.0153,-0.44989 0.22463,0.20927 0.23087,0.20831 0.50665,-0.0799 0.30709,-0.32099 0.64847,-0.52648 1.10006,-0.66238 0.31926,-0.0961 0.37559,-0.0958 0.41308,0.002 0.0572,0.14907 -0.0921,0.36044 -0.69873,0.98932 -0.27646,0.28663 -0.57389,0.61983 -0.66099,0.74049 -0.22722,0.31478 -1.0504,0.50534 -2.60918,0.60393 -0.69468,0.0439 -1.27405,0.0908 -1.28734,0.10408 -0.0397,0.0397 0.23164,0.30916 0.59635,0.59232 0.20221,0.15701 0.46915,0.28267 0.65279,0.3073 0.71027,0.0953 1.09806,-0.49993 4.99488,-1.03541 l 0.28874,-0.0396 0.0566,1.2841 c 0.0311,0.70628 0.0427,1.35369 0.0257,1.43875 -0.0288,0.14359 -0.0924,0.15318 -0.8905,0.13377 -0.7274,-0.0177 -0.84535,-0.004 -0.76786,0.0894 0.0504,0.0607 0.19171,0.13046 0.31426,0.15497 0.12254,0.0245 0.38015,0.17698 0.57237,0.33884 0.19222,0.16187 0.55987,0.43108 0.81704,0.59836 0.25717,0.16728 0.48329,0.3042 0.50248,0.3042 0.13559,0 0.52692,-0.38595 0.66423,-0.65511 0.15026,-0.29453 0.157,-0.36639 0.0721,-0.76538 -0.0516,-0.24218 -0.1442,-0.60065 -0.20584,-0.79663 -0.1308,-0.41582 -0.35942,-1.98331 -0.30266,-2.07515 0.0213,-0.0345 0.26274,-0.0628 0.53649,-0.0628 0.50813,0 0.6673,-0.0831 0.78209,-0.40829 0.12479,-0.35353 -0.6839,-0.59547 -1.47122,-0.44015 -0.0474,0.009 -0.11915,-0.15385 -0.1593,-0.36266 -0.0907,-0.47148 -0.20658,-0.44734 -0.39885,0.0829 -0.13833,0.38148 -0.16643,0.40813 -0.51469,0.48746 -0.52131,0.11877 -1.75614,0.26906 -1.80543,0.21977 -0.0227,-0.0227 0.0396,-0.0847 0.13857,-0.13764 0.099,-0.053 0.25327,-0.16444 0.34271,-0.24776 0.0894,-0.0833 0.38657,-0.27681 0.66037,-0.42993 0.53111,-0.29702 1.12697,-0.95049 1.12697,-1.236 0,-0.089 -0.0759,-0.22752 -0.16858,-0.30792 -0.40734,-0.35329 -1.33604,-0.2972 -2.24047,0.13532 -0.5911,0.28268 -0.70607,0.30446 -1.31255,0.24822 -0.19693,-0.0183 -0.21563,0.0233 -0.12017,0.26832 0.0365,0.0938 -0.0481,0.18598 -0.31395,0.34179 -0.66306,0.38859 -0.82773,0.0996 -0.36174,-0.63501 0.19323,-0.30458 0.294,-0.39079 0.46211,-0.39576 0.27019,-0.008 1.42866,-0.2578 1.64026,-0.35369 0.0871,-0.0395 0.42043,-0.14256 0.7408,-0.2292 0.82315,-0.2226 0.96093,-0.36394 0.63269,-0.64862 -0.11744,-0.10186 -0.21778,-0.14935 -0.45716,-0.1296 z m -6.78267,0.72997 c -0.148733,0.0279 -0.270334,0.0804 -0.270334,0.11646 0,0.0361 0.09234,0.23089 0.205224,0.43287 0.175097,0.3133 0.197282,0.42457 0.151406,0.75812 -0.02957,0.21504 -0.104091,0.43284 -0.165634,0.48391 -0.185208,0.0398 -0.397304,0.14188 -0.639187,0.18899 l -0.329567,0.0544 0.0433,-0.63146 0.0433,-0.63145 -0.307763,-0.19038 c -0.313322,-0.19381 -0.967527,-0.4191 -1.031392,-0.35524 -0.01936,0.0194 0.09994,0.26227 0.265079,0.5399 0.247803,0.41662 0.299574,0.57695 0.296162,0.91803 -0.0024,0.22729 -0.03198,0.44108 -0.06604,0.47509 -0.03406,0.034 -0.376718,0.0619 -0.761363,0.0619 -0.384643,0 -0.722889,0.0235 -0.751619,0.0523 -0.02876,0.0287 0.148431,0.2037 0.393593,0.3888 0.593013,0.44773 0.532619,0.45259 2.674284,-0.21821 0.152614,-0.0478 0.162551,-0.006 0.08784,0.3673 -0.03435,0.17174 -0.114883,0.27799 -0.249302,0.3291 -0.60439,0.22979 -1.580602,0.41335 -2.431784,0.45716 -0.653771,0.0336 -0.950196,0.0783 -0.950196,0.14305 0,0.0518 0.227338,0.24104 0.505256,0.42067 0.398819,0.25776 0.565688,0.3213 0.791829,0.30173 0.261126,-0.0226 0.288734,-0.005 0.311629,0.19378 0.01383,0.12014 -0.09087,0.55798 -0.2326,0.97308 l -0.257654,0.75472 0.207391,0.20739 c 0.199952,0.19995 0.214628,0.20271 0.40906,0.0753 0.110923,-0.0727 0.250571,-0.22986 0.310237,-0.34922 0.13687,-0.27379 0.285918,-1.02479 0.326012,-1.64227 0.01697,-0.2613 0.03386,-0.49894 0.03743,-0.52814 0.0036,-0.0292 0.115715,-0.0772 0.249302,-0.10656 0.133584,-0.0293 0.33847,-0.10314 0.455301,-0.16409 0.364872,-0.19036 0.420013,-0.15156 0.375811,0.2643 -0.022,0.20687 -0.06177,0.64269 -0.08846,0.96845 -0.0267,0.32577 -0.06311,0.61607 -0.08104,0.64506 -0.03262,0.0528 -0.426323,-0.0208 -0.686668,-0.12821 -0.198463,-0.0819 -0.179552,0.13586 0.02816,0.3237 0.09174,0.083 0.231105,0.2755 0.309773,0.42792 0.07866,0.15243 0.273719,0.42858 0.433343,0.61367 0.159621,0.18509 0.334242,0.33653 0.388027,0.33653 0.05379,0 0.201295,-0.10806 0.327867,-0.24018 0.25591,-0.26711 0.237182,-0.0178 0.184811,-2.45204 l -0.02475,-1.14816 0.286728,-0.79183 c 0.278876,-0.77013 0.461336,-1.54272 0.461336,-1.95374 0,-0.41622 -0.706767,-0.84143 -1.234143,-0.7425 z m 5.43765,4.40239 c -0.12898,0.01 -0.26011,0.0376 -0.39097,0.0832 -0.28177,0.0982 -0.28711,0.11427 -0.13053,0.38818 0.18965,0.33176 0.14257,0.66139 -0.15836,1.10856 -0.15243,0.22651 -0.27714,0.46547 -0.27714,0.53108 0,0.0822 0.0431,0.10184 0.13857,0.0631 0.0762,-0.0309 0.31762,-0.11902 0.53649,-0.19595 0.21888,-0.0769 0.5996,-0.26899 0.84612,-0.42668 0.73269,-0.4687 0.86946,-0.80582 0.47819,-1.17909 -0.28726,-0.27405 -0.65543,-0.40236 -1.04237,-0.37241 z"
       sodipodi:nodetypes="ssscsssccssssccsssccsssssccccsssssscccsscsssssssssssssssssssssssssssssssssscccssssssssssssssssssssssssssssssssssssscccccssssscsssssssssccssscssssscssssssccssssssssssssssss" /><path
       d="m -190.76156,97.336843 0.006,0.0243 q -0.18835,0.01013 -0.19038,0.01013 -0.0871,0 -0.17215,-0.05873 -0.0668,-0.04456 -0.21671,-0.236962 -0.1438,-0.18633 -0.21063,-0.307849 -0.0182,0.107342 -0.0182,0.139747 0,0.01013 0.004,0.04658 0.004,0.03443 0.004,0.05671 0,0.07089 0.0182,0.170127 0.0182,0.08101 0.0344,0.166077 0.0182,0.09722 -0.1438,0.328102 l -0.0365,0.01013 -0.0608,-0.0243 q -0.0385,-0.03646 -0.0425,-0.07494 0,-0.0162 -0.004,-0.04051 -0.0263,-0.05266 -0.0932,-0.109367 -0.10329,-0.08304 -0.10937,-0.08911 -0.0121,-0.04658 -0.0527,-0.08709 -0.0385,-0.03646 -0.0749,-0.07291 -0.0445,0.02025 -0.0851,0.07089 -0.0466,0.05873 -0.077,0.07899 -0.0587,0.04253 -0.17418,0.06076 l -0.0567,-0.03848 q 0.1762,-0.117469 0.26734,-0.293672 -0.0101,-0.02836 -0.0446,-0.06279 -0.0527,-0.05063 -0.0547,-0.05266 -0.002,-0.0041 -0.0405,-0.06279 -0.0223,-0.03646 -0.0547,-0.05063 l -0.008,-0.04051 q 0.0304,-0.07696 0.11747,-0.137722 0.008,-0.0041 0.16203,-0.08911 0.0587,-0.03038 0.10126,-0.06684 0.0243,0.01823 0.0567,0.0243 0.0344,0.0041 0.0648,0.0081 0.0871,0.0162 0.0992,0.09924 -0.0506,0.04253 -0.0749,0.111393 -0.0203,0.06279 -0.0405,0.127595 -0.0142,0.03848 -0.11342,0.21671 0.17215,0.170127 0.35241,0.22076 0.0263,-0.05266 0.0203,-0.160001 -0.0101,-0.151899 -0.0162,-0.565064 0,-0.0061 0.004,-0.04456 l -0.0122,-0.02835 q 0.008,-0.119494 0.0405,-0.350381 l -0.0223,-0.111393 -0.0284,-0.0081 q -0.083,0.0081 -0.0891,0.0081 0,0 -0.0466,-0.0041 l -0.0344,-0.06076 q 0.002,-0.0041 0.0425,-0.05063 0.0263,-0.02835 0.0263,-0.05671 l 0.0365,-0.03241 0.0405,0.01013 0.0385,-0.01013 q 0.0263,0.0162 0.12759,0.03646 0.079,0.01823 0.1195,0.07696 0.0283,0.04456 0.0324,0.103291 -0.0851,0.01418 -0.0992,0.131646 -0.002,0.02025 -0.006,0.06076 -0.0142,0.101266 -0.0142,0.09316 0.004,0.07291 0.008,0.09114 0.006,0.05468 0.0223,0.09114 l 0.0547,0.06481 q 0.14582,-0.08911 0.26329,-0.259241 l -0.081,-0.03848 0.12557,-0.08911 q 0.0972,0.01418 0.12152,0.02025 0.0608,0.02025 0.10127,0.07291 l -0.0365,0.09316 q -0.0749,0.03241 -0.21063,0.147849 -0.12962,0.105317 -0.21671,0.139747 0.0648,0.119494 0.21063,0.222785 0.13165,0.08101 0.26329,0.164052 0.17013,0.109367 0.18836,0.22076 l 0.0263,0.02835 q -0.0142,0.0061 -0.0385,0.01823 z m -1.33469,-0.62785 q -0.0405,0.02228 -0.12355,0.04861 -0.083,0.02633 -0.11747,0.04658 0.006,0.03038 0.0486,0.09114 0.0446,0.05873 0.0709,0.07494 0.008,0.0061 0.0223,0.01013 0.0648,-0.149873 0.10126,-0.267342 z m 0.27544,5.004567 q 0,-0.0162 -0.0324,-0.0385 -0.0142,-0.008 -0.0344,-0.0263 0.0284,-0.0122 0.0425,-0.0122 0.0344,0 0.0972,0.0284 0.0668,-0.0608 0.19848,-0.18026 -0.14379,0.0365 -0.20658,0.0608 -0.11747,0.0446 -0.19038,0.10329 -0.0344,-0.0223 -0.0506,-0.0608 -0.0162,-0.0405 -0.0304,-0.081 0.0182,-0.0729 0.079,-0.21063 0.0628,-0.13772 0.081,-0.21064 l -0.0203,-0.0587 h 0.0567 q 0.0142,0.0101 0.083,0.0405 0.0689,0.0304 0.0689,0.15392 -0.0263,0.0182 -0.0365,0.0446 -0.0203,0.0527 -0.0223,0.0547 -0.002,0.002 -0.0263,0.0324 -0.0162,0.0203 -0.0162,0.0365 0,0.004 0.004,0.0101 0.14785,-0.0547 0.45165,-0.16 0.0486,0.008 0.0972,0.0162 0.0506,0.0182 0.0506,0.077 0,0.0182 -0.006,0.0446 -0.0466,0.0162 -0.0952,0.0547 -0.0466,0.0365 -0.0911,0.0729 -0.0628,0.0365 -0.15798,0.11139 0.0182,0.0101 0.0304,0.0365 0.0142,0.0324 0.0203,0.0405 0.1843,-0.0466 0.26936,-0.0385 0.0122,-0.0263 0.0122,-0.0466 0,-0.006 0,-0.008 l -0.0648,-0.0203 q 0.0142,-0.0425 0.0506,-0.0587 0.0567,-0.0243 0.0648,-0.0324 l 0.0911,-0.0182 q 0.0284,-0.006 0.0506,0.0284 0.0223,0.0344 0.0223,0.0689 -0.0223,0.006 -0.0425,0.0263 -0.0182,0.0203 -0.0182,0.0385 0,0.008 0.008,0.0182 l 0.11545,-0.0101 q 0.0304,-0.002 0.10126,0.0223 0.0709,0.0223 0.10329,0.0425 l 0.0101,0.0891 -0.0365,0.0506 -0.32,-0.0547 q -0.006,-0.002 -0.0121,-0.002 -0.0425,0 -0.0952,0.0668 -0.0385,0.0506 -0.077,0.10126 -0.0263,0.0284 -0.0567,0.0587 0.0182,0.0142 0.0749,0.0324 0.0567,0.0162 0.0851,0.0385 l 0.0162,0.0689 q -0.0324,0 -0.0344,0.004 -0.002,0.002 -0.0162,0.0365 -0.15393,0.0203 -0.35241,0.11747 -0.1681,0.081 -0.3362,0.16405 -0.0284,-0.002 -0.0263,-0.002 0,0 -0.15797,0.0182 l 0.21468,-0.12557 q -0.12354,0.0324 -0.21874,0.083 -0.0628,-0.008 -0.0628,-0.0567 0,-0.008 0.006,-0.0162 l -0.0122,-0.0527 0.0142,-0.0567 0.12152,-0.0668 -0.0527,-0.10734 v -0.0284 q -0.0608,0.004 -0.1843,0.0466 -0.12152,0.0425 -0.19038,0.0425 -0.13772,0 -0.16405,-0.083 0.13772,-0.0689 0.26531,-0.11545 0.0871,-0.0243 0.2633,-0.077 -0.0122,-0.0344 -0.0405,-0.077 -0.0202,-0.0263 -0.0689,-0.10127 l 0.0365,-0.002 q 0.0486,-0.002 0.0992,0.0486 0.0405,0.0446 0.079,0.0891 0.0446,-0.0182 0.13772,-0.0547 l -0.006,-0.0162 -0.0972,0.0182 z m 0.39089,0.15393 -0.004,0.0972 q 0.0729,-0.0486 0.12759,-0.13164 -0.0729,0.0121 -0.12354,0.0344 z m -0.13975,-0.22076 q -0.0506,0.0243 -0.11949,0.0729 l 0.0121,0.0324 q 0.0648,-0.0142 0.13165,-0.0425 -0.0101,-0.0466 -0.0243,-0.0628 z m 0.008,0.3119 0.0121,-0.0405 -0.006,-0.0122 -0.10734,0.0344 0.0101,0.14582 q 0.0344,-0.0203 0.1114,-0.0526 0.002,-0.004 0.002,-0.008 0,-0.0101 -0.0101,-0.0324 -0.0101,-0.0223 -0.0121,-0.0344 z m -0.24304,0.0648 0.0101,-0.0547 q -0.004,0 -0.008,0 -0.0101,0 -0.0567,0.0243 -0.0385,0.0223 -0.0506,0.081 -0.004,0.0486 -0.0101,0.0972 0.083,-0.004 0.18025,-0.0567 -0.002,-0.002 -0.0223,-0.0527 -0.0122,-0.0304 -0.0425,-0.0385 z m 1.08963,0.60152 q -0.0121,0.0871 -0.0628,0.077 l -0.0365,0.0142 q -0.16405,-0.0587 -0.3119,-0.28557 l 0.0608,-0.0263 q 0.22886,0.083 0.40911,0.23696 z m -0.6157,0.13165 q -0.0911,0 -0.11949,-0.0587 l -0.0891,-0.079 0.002,-0.0162 q 0,-0.0142 -0.0304,-0.0385 l -0.0142,-0.0101 q -0.0263,-0.0223 -0.0263,-0.0385 0,-0.0122 0.0162,-0.0284 0.0182,-0.004 0.0365,-0.004 0.0466,0 0.1762,0.0425 l 0.0709,-0.081 q 0.0142,0.11746 0.0142,0.11746 0,0.16203 0,0.16811 z m -0.4557,-0.0365 q -0.0567,0.0446 -0.0567,0.12557 l -0.0567,0.0182 q -0.0324,0.0101 -0.0992,-0.0648 -0.0608,-0.0689 -0.079,-0.11545 l -0.0446,-0.008 q -0.14177,0.0344 -0.20051,0.10127 -0.0324,0.002 -0.0466,-0.0101 -0.004,-0.002 -0.0284,-0.0365 -0.008,-0.008 -0.0182,-0.0122 l 0.006,-0.0911 q 0.0324,-0.0405 0.13772,-0.0911 0.0284,-0.0122 0.0567,-0.0304 l 0.0344,0.0608 0.0223,0.008 0.0263,-0.006 q 0.0547,0.008 0.10937,0.0182 0.0547,0.0101 0.0972,0.0446 0.0506,-0.0162 0.10532,-0.0527 0.0344,-0.0223 0.16203,-0.10734 -0.11342,0.15392 -0.1276,0.24911 z m 0.44355,4.70482 q 0.0567,0 0.13164,-0.0851 l 0.0628,0.0121 q 0.0263,-0.0121 0.0527,-0.0121 0.0243,0 0.0506,0.0162 v 0.083 q -0.0689,0.0385 -0.11949,0.13165 -0.0425,0.083 -0.083,0.16405 -0.0668,0.10937 -0.17621,0.24101 l -0.0668,0.0223 -0.0223,-0.077 q 0.0668,-0.11747 0.18836,-0.36456 l -0.17823,0.0871 -0.0284,-0.10329 0.0304,-0.0567 h 0.0162 q 0.0445,0.002 0.0891,-0.0729 -0.0243,-0.0162 -0.0304,-0.0506 -0.004,-0.0344 -0.0162,-0.0486 0.0203,-0.46988 0.21266,-0.76963 l -0.0689,0.008 -0.13569,-0.0668 q 0.077,-0.0162 0.13772,-0.0405 0.079,-0.0344 0.15595,-0.0689 0.0952,-0.0385 0.16405,-0.0385 0,0 0.10532,0.008 0.0304,0.0243 0.0304,0.0587 0,0.002 -0.002,0.0202 -0.0749,0.0608 -0.13974,0.0628 -0.0162,0.0101 -0.0648,0.0324 -0.0405,0.0182 -0.0607,0.0466 -0.0304,0.0405 -0.077,0.0729 -0.0648,0.0486 -0.0729,0.10532 l 0.004,0.0101 q 0.12152,-0.1033 0.22481,-0.1276 l 0.0425,0.008 0.0365,-0.0122 q 0.081,0.008 0.1357,0.0628 0.0142,0.0324 0.0142,0.17012 0,0.0203 -0.006,0.0628 -0.004,0.0425 -0.004,0.0628 0,0.0405 0.004,0.12557 0.006,0.0851 0.006,0.1276 0,0.19443 -0.081,0.30785 l -0.0425,0.0243 q -0.0567,-0.0182 -0.0749,-0.0709 -0.0162,-0.0466 -0.0324,-0.0932 l 0.006,-0.22076 q -0.0142,-0.006 -0.0263,-0.006 -0.0223,0 -0.0486,0.0223 -0.0243,0.0203 -0.0466,0.0385 -0.10734,0.0749 -0.11544,0.081 -0.0608,0.0486 -0.081,0.10936 z m 0.29975,-0.67645 q -0.0324,-0.002 -0.0608,0.0203 -0.0425,0.0304 -0.0547,0.0365 -0.0486,0.004 -0.11747,0.0344 l -0.0101,0.0749 q 0.0385,-0.006 0.12152,-0.0405 0.077,-0.0324 0.12354,-0.0344 l 0.008,-0.0486 q 0,-0.0162 -0.0101,-0.0425 z m 0.006,0.2086 -0.15797,0.0425 -0.10937,-0.008 -0.0324,0.10735 0.0142,0.0405 q 0.11949,-0.0243 0.19646,-0.079 l 0.0344,0.008 0.0668,-0.0182 z m -0.2957,0.24304 q -0.0243,0.1195 -0.0243,0.1357 0,0.008 0.004,0.0203 v 0.006 q 0.0689,-0.0608 0.1357,-0.14582 z m 0.61773,0.80406 -0.0486,0.0284 h -0.0749 q -0.0486,0 -0.10531,-0.0567 l -0.11342,-0.0344 0.0628,-0.0486 q -0.0162,-0.0405 -0.0749,-0.11544 -0.0587,-0.0547 -0.0608,-0.0547 -0.0284,-0.0344 -0.0284,-0.079 0.0284,0.0223 0.0668,0.0304 0.0405,0.008 0.079,0.0142 l 0.0445,-0.0182 q 0.0405,0.0203 0.1195,0.0547 0.10126,0.0405 0.13164,0.079 0.0425,0.0446 0.0425,0.14987 z m -0.77165,-1.09773 q -0.0263,0.0344 -0.081,0.0952 -0.0304,0.0304 -0.0304,0.0324 v 0.002 q 0.0648,-0.0142 0.0689,-0.0142 0.0142,0 0.0344,0.0122 l 0.0223,0.0526 -0.0121,0.0405 q -0.0162,0.006 -0.13975,0.0284 -0.077,0.0122 -0.10532,0.0446 v 0.19241 q 0.0142,-0.0223 0.0466,-0.0668 0.0142,-0.0162 0.0527,-0.0425 -0.0405,0.17215 -0.10937,0.2795 -0.008,0.0911 -0.008,0.0972 0,0.0425 0.008,0.12557 0.0101,0.083 0.0101,0.1276 0,0 -0.0121,0.0587 l -0.0405,0.0365 q -0.0628,-0.0182 -0.083,-0.081 -0.0304,-0.10329 -0.0324,-0.10936 l 0.004,-0.0547 -0.20658,0.14785 q -0.0851,-0.0425 -0.0851,-0.11342 0,-0.0121 0.004,-0.0263 0.0486,-0.079 0.14583,-0.25721 0.0891,-0.16608 0.14582,-0.25317 h -0.0385 l -0.0263,-0.0587 0.0162,-0.0506 q 0.0385,0 0.0891,-0.0466 l 0.0122,-0.10734 -0.0101,-0.0385 q -0.14582,0.0587 -0.20861,0.16202 0.0101,0.077 0.0101,0.0851 0,0.0263 -0.0304,0.0628 -0.0486,-0.0121 -0.0567,-0.0628 l -0.002,-0.0162 q -0.004,-0.0243 -0.0223,-0.0324 v -0.0628 q 0,-0.0932 0.0729,-0.18633 0.0101,-0.0142 0.13975,-0.1519 0.0243,-0.0243 0.0304,-0.0385 l -0.0162,0.002 -0.16,-0.0365 q 0.1033,-0.0385 0.2876,-0.1114 l 0.0203,-0.0851 q -0.006,-0.0142 -0.006,-0.0608 0,-0.0162 -0.004,-0.0162 h -0.0972 q 0.0385,-0.1114 0.16,-0.11545 l 0.0749,0.0304 q 0.0101,0.0466 0.0101,0.0466 0,0.0162 -0.0121,0.11746 l 0.0506,0.0182 0.0304,-0.0121 0.0385,0.0223 0.0142,0.0344 -0.0142,0.0486 q -0.0425,0.008 -0.0851,0.0182 -0.0547,0.0122 -0.077,0.0365 l -0.008,0.13975 0.13165,-0.0344 q 0.0445,0.006 0.0891,0.0162 0.0466,0.0101 0.0689,0.0506 -0.0223,0.0263 -0.0689,0.079 z m -0.24101,0.0101 q -0.008,0.0122 -0.008,0.0344 0,0.008 0.004,0.0466 0.0202,-0.0162 0.081,-0.10329 z m -0.0952,-0.17013 q -0.17418,0.11544 -0.22887,0.23494 l 0.21469,-0.1276 q 0.0142,-0.083 0.0142,-0.0911 0,-0.006 0,-0.0162 z m -0.33013,-0.0587 q -0.0547,0.0506 -0.10937,0.10126 -0.0729,0.0709 -0.0729,0.11139 0,0.0122 0.0223,0.0932 -0.0121,0.11747 -0.0466,0.2957 -0.0486,0.25924 -0.0547,0.29164 0.0608,-0.0952 0.11342,-0.21266 0.0263,-0.0608 0.0709,-0.13164 -0.0101,0.14582 -0.0486,0.26126 -0.0203,0.0628 -0.081,0.20456 -0.0263,0.0749 -0.0527,0.1438 -0.0324,0.0851 -0.0932,0.12557 -0.0324,-0.0142 -0.0587,-0.0527 -0.0243,-0.0385 -0.0243,-0.0709 0,-0.0324 0.0203,-0.16203 0.0142,-0.0932 0.0547,-0.23089 0.0547,-0.18228 0.0648,-0.22278 0.0182,-0.077 0.0587,-0.3038 0.0344,-0.19038 0.0689,-0.30177 l -0.13165,-0.11545 0.18025,-0.0182 0.008,0.006 q 0.002,0.004 0.006,0.004 0.006,0 0.0203,-0.002 0.0142,-0.004 0.0203,-0.004 l 0.083,0.0466 q 0.0203,0.0749 0.0203,0.081 0,0.0243 -0.0385,0.0628 z"
       id="text1"
       style="font-size:2.07393px;line-height:0;font-family:HakusyuGyosyoBold;-inkscape-font-specification:HakusyuGyosyoBold;text-align:center;writing-mode:vertical-lr;text-anchor:middle;stroke-width:0.220456;stroke-linecap:round;stroke-linejoin:round"
       transform="rotate(-90)"
       aria-label="水   無   瀬"
       inkscape:label="path1" /></g></svg>
