<?xml version="1.0" encoding="UTF-8" standalone="no"?>
<!-- Created with Inkscape (http://www.inkscape.org/) -->

<svg
   viewBox="0 0 38.549999 41.919998"
   version="1.1"
   id="svg1"
   inkscape:version="1.3.2 (091e20e, 2023-11-25, custom)"
   sodipodi:docname="Kei.svg"
   xml:space="preserve"
   xmlns:inkscape="http://www.inkscape.org/namespaces/inkscape"
   xmlns:sodipodi="http://sodipodi.sourceforge.net/DTD/sodipodi-0.dtd"
   xmlns="http://www.w3.org/2000/svg"
   xmlns:svg="http://www.w3.org/2000/svg"><sodipodi:namedview
     id="namedview1"
     pagecolor="#ffffff"
     bordercolor="#111111"
     borderopacity="1"
     inkscape:showpageshadow="0"
     inkscape:pageopacity="0"
     inkscape:pagecheckerboard="1"
     inkscape:deskcolor="#d1d1d1"
     inkscape:document-units="mm"
     showguides="true"
     inkscape:zoom="13.096375"
     inkscape:cx="19.280144"
     inkscape:cy="20.883641"
     inkscape:window-width="1292"
     inkscape:window-height="745"
     inkscape:window-x="-8"
     inkscape:window-y="-8"
     inkscape:window-maximized="1"
     inkscape:current-layer="layer1"><inkscape:page
       x="0"
       y="0"
       width="38.549999"
       height="41.919998"
       id="page42"
       margin="0"
       bleed="0" /></sodipodi:namedview><defs
     id="defs1"><inkscape:path-effect
       effect="powerstroke"
       id="path-effect13"
       is_visible="true"
       lpeversion="1.3"
       scale_width="1"
       interpolator_type="CubicBezierJohan"
       interpolator_beta="0.2"
       start_linecap_type="zerowidth"
       end_linecap_type="zerowidth"
       offset_points="5,4.9921382"
       linejoin_type="extrp_arc"
       miter_limit="4"
       not_jump="false"
       sort_points="true"
       message="&lt;b&gt;Ctrl + click&lt;/b&gt; on existing node and move it" /></defs><g
     inkscape:label="Layer 1"
     inkscape:groupmode="layer"
     id="layer1"
     transform="matrix(0.88850158,0,0,1,-74.017663,-166.14)"><path
       style="fill:#fff29e;fill-opacity:1;fill-rule:evenodd;stroke:none;stroke-width:0.367234;stroke-linecap:round;stroke-linejoin:round;paint-order:stroke fill markers"
       d="m 105,171 9.78527,2.88135 L 119.35,200 H 90.649994 l 4.56473,-26.11865 z"
       id="path13" /><path
       style="display:inline;fill:#938e5e;fill-opacity:1;fill-rule:evenodd;stroke:none;stroke-width:0.386001;stroke-linecap:round;stroke-linejoin:round;stroke-dasharray:none;stroke-opacity:1;paint-order:stroke fill markers"
       d="m 90.649998,200 -3e-6,3.2 H 119.35 V 200 Z"
       id="path45" /><path
       id="path1"
       style="display:inline;fill:#000000;stroke-width:0.453528"
       d="m 101.39729,173.99385 c -0.27364,0.0386 -0.59361,0.11493 -0.91126,0.22224 l -0.34834,0.11752 0.52537,0.4224 c 0.4435,0.35643 0.53179,0.50085 0.5659,0.92673 0.0555,0.6925 -0.24879,0.94555 -1.360793,1.13197 -0.751252,0.12593 -1.265562,0.12059 -2.680322,-0.0278 -0.48674,-0.0511 -0.324243,0.24035 0.359034,0.64331 1.173136,0.69186 1.566394,0.77078 2.583101,0.51959 0.47472,-0.11729 0.8962,-0.17792 0.93662,-0.13497 0.0404,0.0429 0.0404,0.38337 0,0.75663 -0.0529,0.48865 -0.12681,0.6829 -0.26431,0.69367 -0.10502,0.008 -0.33416,0.047 -0.5092,0.0862 -0.25859,0.0578 -0.432343,-0.0246 -0.926678,-0.43918 -0.633075,-0.53096 -0.95788,-0.66038 -0.783957,-0.31237 0.05441,0.10886 0.124005,0.41896 0.154654,0.68903 0.04622,0.40722 -0.04291,0.67752 -0.522387,1.58352 -0.915463,1.72986 -0.901241,2.67329 0.04152,2.7599 0.266919,0.0245 0.368344,-0.0609 0.629302,-0.52887 l 0.311045,-0.55781 0.388618,0.4447 c 0.21367,0.24465 0.640233,0.66124 0.947813,0.92563 0.75945,0.65282 1.18518,0.62434 1.72704,-0.11531 0.19459,-0.26564 0.21762,-0.46321 0.15142,-1.30075 -0.22192,-2.80731 -0.22376,-3.0446 -0.0331,-4.07236 0.21442,-1.15568 0.26246,-1.26982 0.53382,-1.26982 0.102,0 0.41034,-0.0623 0.68526,-0.13851 0.96929,-0.26879 0.90797,-1.10568 -0.0811,-1.10568 -0.46932,0 -0.67729,-0.27537 -0.67729,-0.89692 0,-0.362 -0.41924,-0.89056 -0.80758,-1.0182 -0.13324,-0.0438 -0.36063,-0.043 -0.63427,-0.004 z m 4.78927,0.826 c -0.16731,0.002 -0.35744,0.0515 -0.70514,0.15022 -0.7908,0.2245 -0.86992,0.3046 -0.48236,0.48889 0.13779,0.0655 0.45286,0.35465 0.70016,0.64242 0.33656,0.39163 0.44979,0.63384 0.44979,0.96297 0,0.51792 -0.0192,0.52699 -1.33245,0.63381 -0.62467,0.0508 -1.02222,0.1353 -1.05547,0.22445 -0.0685,0.1837 0.68122,0.46246 1.6532,0.61458 0.7721,0.12085 1.00758,0.30775 0.74367,0.59029 -0.0808,0.0865 -0.63157,0.22127 -1.2238,0.29956 -0.59222,0.0783 -1.0766,0.17706 -1.0766,0.21959 0,0.10742 0.38397,0.3943 0.75934,0.56731 0.17262,0.0796 0.60145,0.14977 0.95303,0.15597 0.66657,0.0118 0.83934,0.16575 0.58356,0.52025 -0.0931,0.12905 -0.41114,0.17363 -1.32798,0.18645 -0.663,0.009 -1.26919,0.0521 -1.34737,0.095 -0.24242,0.13312 0.10519,0.38599 1.11788,0.81297 0.69152,0.29156 1.04712,0.38101 1.32026,0.33247 l 0.37371,-0.0663 -0.0388,0.5355 -0.0386,0.53572 -1.49581,0.0318 c -0.8227,0.0175 -1.49581,0.0705 -1.49581,0.11753 0,0.12114 1.17045,1.11215 1.40033,1.18565 0.30878,0.0987 0.8304,0.0868 0.96099,-0.0219 0.0665,-0.0554 0.66531,-0.21354 1.33046,-0.3517 1.05088,-0.21828 1.40124,-0.2406 2.67335,-0.17054 2.28826,0.12603 2.38218,0.12075 2.78325,-0.15331 0.63742,-0.43556 -0.0359,-1.30839 -1.1487,-1.4892 -0.48178,-0.0783 -1.43032,0.0477 -2.63407,0.34993 -0.65298,0.16394 -0.77784,0.069 -0.78072,-0.59404 -10e-4,-0.33827 0.0468,-0.36451 0.23595,-0.40118 0.50135,-0.0972 1.00947,-0.19326 1.50501,-0.32011 0.0834,-0.0204 0.25236,-0.17374 0.37544,-0.34065 0.21864,-0.29647 0.21684,-0.30849 -0.0818,-0.52335 -0.22261,-0.16014 -0.41972,-0.20232 -0.72552,-0.15508 -0.23094,0.0357 -0.62045,0.0961 -0.86551,0.1341 -0.43705,0.0678 -0.44556,0.0619 -0.44556,-0.31503 0,-0.41821 0.0289,-0.43033 1.11389,-0.46569 0.29758,-0.01 0.54104,-0.0505 1.1239,-0.1765 0.58285,-0.12601 0.8725,-0.39249 0.67724,-0.71666 -0.23863,-0.39617 -0.68503,-0.48914 -1.55424,-0.32364 -0.43341,0.0825 -0.91683,0.17442 -1.07436,0.20413 -0.22533,0.0425 -0.28643,0.003 -0.28643,-0.18336 0,-0.24564 0.0462,-0.2633 1.14573,-0.43874 0.52376,-0.0836 0.57624,-0.12191 0.61214,-0.44846 0.047,-0.42731 -0.24625,-0.61195 -1.12136,-0.70627 l -0.57286,-0.0618 0.0415,-0.57482 c 0.035,-0.48366 -0.0103,-0.6295 -0.28593,-0.92056 -0.18018,-0.19024 -0.57085,-0.43242 -0.86825,-0.53815 -0.25657,-0.0912 -0.40108,-0.13661 -0.56838,-0.13454 z m -5.29923,4.82612 c 0.18556,0 0.19952,0.14479 0.12755,1.32902 -0.0444,0.73097 -0.11716,1.44355 -0.16161,1.58353 -0.0448,0.14119 -0.17332,0.24785 -0.28867,0.23969 -0.32566,-0.023 -1.01735,-0.34541 -1.087048,-0.50678 -0.139956,-0.32405 1.097128,-2.64546 1.409778,-2.64546 z m 6.59115,5.5854 c -0.12961,0.009 -0.21934,0.0294 -0.46123,0.10628 -0.24189,0.0769 -0.79252,0.20494 -1.33195,0.3614 -0.53942,0.15645 -1.52947,0.33873 -2.19995,0.40515 -0.67048,0.0664 -1.24344,0.1425 -1.27327,0.16901 -0.0299,0.0265 -0.18814,-0.0635 -0.35183,-0.20015 -0.2177,-0.18172 -0.49369,-0.25919 -1.02787,-0.28852 -1.314898,-0.0722 -1.669117,0.37637 -1.026873,1.30075 0.278333,0.40059 0.276163,0.57317 -0.0291,2.39892 -0.262063,1.56742 0.19004,3.67419 0.913253,4.25572 0.44606,0.35867 0.55606,0.0605 0.58007,-1.5727 0.0304,-2.06716 0.13946,-3.06561 0.44183,-4.04585 0.14263,-0.46236 0.2893,-0.98055 0.32597,-1.15163 0.0777,-0.36267 0.11848,-0.37075 0.66137,-0.13012 0.24279,0.10762 0.61399,0.16364 0.91549,0.13807 0.44541,-0.0377 0.51601,-0.0107 0.58206,0.22313 0.10603,0.37535 -0.0391,0.45326 -0.94457,0.50634 -0.43814,0.0257 -0.83715,0.0826 -0.88665,0.12658 -0.19885,0.17669 0.22602,0.47669 0.99654,0.70362 0.74698,0.21999 0.81404,0.26617 0.81404,0.56201 0,0.29172 -0.0666,0.34088 -0.70016,0.51738 -0.38509,0.10728 -0.97228,0.19829 -1.30485,0.20214 -0.42423,0.005 -0.60469,0.0531 -0.60469,0.16215 0,0.24453 0.62407,1.17353 0.83716,1.24618 0.10577,0.0361 0.40458,-0.0535 0.66411,-0.19904 0.84466,-0.47359 1.00274,-0.475 1.10097,-0.01 0.10867,0.51464 -0.0946,0.75127 -0.61911,0.72041 -0.21557,-0.0127 -0.72125,-0.0157 -1.12384,-0.007 -0.78803,0.0177 -0.86083,0.0939 -0.59076,0.62055 0.30234,0.58958 1.02286,0.65722 2.72308,0.2556 0.63015,-0.14885 1.48944,-0.33565 1.90954,-0.41532 0.4201,-0.0797 0.84975,-0.16367 0.95477,-0.18645 0.10503,-0.0228 0.64525,-0.0949 1.20068,-0.16039 1.50218,-0.17703 3.04674,0.13759 3.37824,0.68794 0.35865,0.59543 -0.0672,1.53445 -0.96894,2.13625 -0.20008,0.13352 -0.42104,0.28399 -0.49106,0.33446 -0.55946,0.40329 -1.61865,0.52815 -2.66043,0.31348 -1.07772,-0.22206 -1.08773,-0.22143 -0.70886,0.0418 0.17273,0.11999 0.62052,0.43811 0.99529,0.70692 0.37478,0.26882 0.89035,0.60545 1.14572,0.74824 0.36929,0.20656 0.58671,0.24838 1.06219,0.20413 0.95493,-0.0889 1.59745,-0.48064 2.3454,-1.42998 0.58123,-0.73773 1.17692,-1.83762 1.26383,-2.33353 0.17181,-0.9804 -0.83254,-1.99156 -2.39886,-2.41505 -1.08983,-0.29465 -1.69779,-0.26082 -3.90859,0.21716 -1.78532,0.38599 -1.99005,0.34962 -1.93117,-0.34242 0.0231,-0.27169 0.0804,-0.52914 0.1273,-0.57217 0.0469,-0.043 0.56729,-0.13169 1.15641,-0.19705 1.14386,-0.12693 1.5942,-0.30799 1.73276,-0.69589 0.19807,-0.55448 -0.81377,-0.81663 -1.97219,-0.51097 -0.89913,0.23723 -0.91913,0.23432 -0.87198,-0.12968 0.0398,-0.30756 0.0537,-0.31211 1.2412,-0.39942 0.66057,-0.0486 1.27639,-0.14371 1.36851,-0.21163 0.22736,-0.16768 0.21145,-0.60128 -0.0286,-0.77829 -0.27016,-0.1992 -1.38933,-0.21737 -1.99408,-0.0322 -0.5532,0.16934 -0.73771,0.12431 -0.73771,-0.18049 0,-0.16832 0.14745,-0.21553 0.85929,-0.27526 0.47261,-0.0397 1.21403,-0.0725 1.64773,-0.0729 0.64528,-8.5e-4 0.85218,-0.0497 1.13926,-0.26907 0.34499,-0.26366 0.34717,-0.27316 0.1278,-0.57062 -0.12269,-0.16637 -0.3654,-0.35054 -0.53955,-0.40936 -0.38686,-0.13069 -1.13432,-0.2062 -1.52315,-0.17916 z m -0.25237,7.67172 c -0.1229,0.0219 -0.20647,0.0748 -0.30483,0.16856 -0.12929,0.12331 -0.73139,0.44262 -1.33792,0.70958 -1.01367,0.44617 -1.15802,0.47974 -1.78547,0.41422 -0.37544,-0.0392 -0.77343,-0.10222 -0.88441,-0.14006 -0.30432,-0.10376 -0.24406,0.14609 0.14769,0.61326 0.19215,0.22913 0.37832,0.44208 0.41373,0.4732 0.0354,0.0311 0.1593,0.20926 0.2755,0.39588 0.1162,0.18663 0.34535,0.4021 0.50921,0.47895 0.72395,0.3395 1.12523,0.0472 1.31231,-0.95634 0.11338,-0.60818 0.43824,-0.97213 1.14995,-1.28794 l 0.5659,-0.25118 0.32174,0.28608 c 0.4804,0.42684 1.24752,0.87423 1.69372,0.98794 0.4083,0.10404 0.59933,-0.0303 0.82822,-0.58344 0.20688,-0.49997 -0.92317,-1.11659 -2.36505,-1.29059 -0.25533,-0.0308 -0.41739,-0.04 -0.54029,-0.0181 z m -8.006394,1.21681 c -0.175959,0.0279 -0.220133,0.11006 -0.128297,0.24588 0.245302,0.36279 1.923881,1.93894 2.156441,2.02491 0.64651,0.23899 1.33667,-0.0351 1.33667,-0.53086 0,-0.69524 -1.03424,-1.39768 -2.44485,-1.6604 -0.436073,-0.0812 -0.744005,-0.10744 -0.919964,-0.0795 z m -3.222352,0.1648 c -0.03682,0.0309 0.432607,0.95374 0.695446,1.39033 0.26284,0.43658 0.638305,0.6987 1.308827,1.01831 0.195845,0.0933 0.489237,0.12467 0.762821,0.0815 0.581077,-0.0917 0.603503,-0.1076 0.69967,-0.49662 0.125559,-0.50793 -0.260829,-1.00926 -1.090032,-1.41408 -0.304993,-0.14889 -2.307981,-0.63724 -2.376732,-0.57946 z"
       sodipodi:nodetypes="ccccscssssscsssssccccsscsssssscccssssscsssssssssscccccsssssssscssssccsscsscssscccssccssssssccsssscssssssscsssssscscssscssssssssssscssssscssssssccssscsssccsssssssssscccsssssssssssscsssss" /></g></svg>
