<?xml version="1.0" encoding="UTF-8" standalone="no"?>
<!-- Created with Inkscape (http://www.inkscape.org/) -->

<svg
   viewBox="0 0 38.549999 41.919998"
   version="1.1"
   id="svg1"
   inkscape:version="1.3.2 (091e20e, 2023-11-25, custom)"
   sodipodi:docname="Gin.svg"
   xml:space="preserve"
   xmlns:inkscape="http://www.inkscape.org/namespaces/inkscape"
   xmlns:sodipodi="http://sodipodi.sourceforge.net/DTD/sodipodi-0.dtd"
   xmlns="http://www.w3.org/2000/svg"
   xmlns:svg="http://www.w3.org/2000/svg"><sodipodi:namedview
     id="namedview1"
     pagecolor="#ffffff"
     bordercolor="#111111"
     borderopacity="1"
     inkscape:showpageshadow="0"
     inkscape:pageopacity="0"
     inkscape:pagecheckerboard="1"
     inkscape:deskcolor="#d1d1d1"
     inkscape:document-units="mm"
     showguides="true"
     inkscape:zoom="13.096375"
     inkscape:cx="19.241966"
     inkscape:cy="20.959999"
     inkscape:window-width="1292"
     inkscape:window-height="745"
     inkscape:window-x="-8"
     inkscape:window-y="-8"
     inkscape:window-maximized="1"
     inkscape:current-layer="layer1"><inkscape:page
       x="0"
       y="0"
       width="38.549999"
       height="41.919998"
       id="page42"
       margin="0"
       bleed="0" /></sodipodi:namedview><defs
     id="defs1"><inkscape:path-effect
       effect="powerstroke"
       id="path-effect13"
       is_visible="true"
       lpeversion="1.3"
       scale_width="1"
       interpolator_type="CubicBezierJohan"
       interpolator_beta="0.2"
       start_linecap_type="zerowidth"
       end_linecap_type="zerowidth"
       offset_points="5,4.9921382"
       linejoin_type="extrp_arc"
       miter_limit="4"
       not_jump="false"
       sort_points="true"
       message="&lt;b&gt;Ctrl + click&lt;/b&gt; on existing node and move it" /></defs><g
     inkscape:label="Layer 1"
     inkscape:groupmode="layer"
     id="layer1"
     transform="translate(-84.724993,-165.64)"><path
       style="display:inline;fill:#fff29e;fill-opacity:1;fill-rule:evenodd;stroke:none;stroke-width:0.360263;stroke-linecap:round;stroke-linejoin:round;paint-order:stroke fill markers"
       d="m 104,170 9.06496,2.94538 L 117.34999,200 H 90.649996 l 4.285031,-27.05461 z"
       id="path13"
       sodipodi:nodetypes="cccccc" /><path
       style="display:inline;fill:#938e5e;fill-opacity:1;fill-rule:evenodd;stroke:none;stroke-width:0.372309;stroke-linecap:round;stroke-linejoin:round;stroke-dasharray:none;stroke-opacity:1;paint-order:stroke fill markers"
       d="m 90.649998,200 -3e-6,3.2 H 117.34999 V 200 Z"
       id="path45" /><path
       id="path1-8"
       style="fill:#000000;stroke-width:0.442164"
       d="m 99.55945,173.16069 c -0.53756,-0.0146 -0.624698,0.0145 -0.654416,0.21731 -0.217119,1.48236 -0.581538,2.03525 -2.089119,3.16989 -0.477197,0.35916 -0.867596,0.7272 -0.867596,0.81803 0,0.0909 0.04465,0.16519 0.0994,0.16519 1.218397,-0.25299 2.234436,-0.84895 3.127855,-1.69635 0.570823,-0.54692 1.055206,-0.9944 1.076446,-0.9944 0.0212,0 0.47363,0.21058 1.00537,0.46795 0.53173,0.25737 1.04198,0.46702 1.13379,0.46613 0.66443,-0.008 0.4685,-0.7955 -0.28882,-1.16212 -0.27252,-0.13193 -0.63578,-0.23992 -0.80727,-0.23992 -0.23121,0 -0.33,-0.0723 -0.38204,-0.27968 -0.0387,-0.1538 -0.21931,-0.42254 -0.4017,-0.59728 -0.26838,-0.25712 -0.44995,-0.32112 -0.9519,-0.33475 z m 8.01718,0.8315 c -0.15017,0 -0.49841,0.10555 -0.77391,0.23443 -0.61343,0.28697 -1.39872,0.43975 -2.02171,0.39324 l -0.46797,-0.0351 0.39553,0.41243 c 0.56442,0.58848 0.95042,0.72477 1.56541,0.55319 0.27266,-0.0761 0.57481,-0.15363 0.67133,-0.17252 0.0965,-0.0188 0.28077,-0.0737 0.40945,-0.12178 0.48259,-0.18025 0.53647,-0.1704 0.64573,0.11698 0.0616,0.16193 0.12654,0.9173 0.1444,1.67853 0.018,0.7691 0.0891,1.45603 0.15996,1.54599 0.24536,0.3118 0.25541,0.69137 -0.0481,1.15775 -0.30353,0.46639 -0.43819,0.6547 -0.54735,0.88475 -0.14622,0.30815 -0.24996,0.3985 -0.39347,0.34343 -0.28369,-0.10885 -1.21419,-0.30069 -1.60357,-0.33063 -0.40337,-0.031 -0.70523,-0.48216 -0.82533,-1.23318 l -0.0814,-0.50816 0.33863,0.17502 c 0.57552,0.29745 1.07003,0.26681 1.79323,-0.11059 0.16515,-0.0862 0.38227,-0.15704 0.48257,-0.15744 0.10031,-3.9e-4 0.2743,-0.0677 0.38661,-0.14989 0.26062,-0.19056 0.14803,-0.50674 -0.25591,-0.71838 -0.30474,-0.15967 -0.5285,-0.11008 -1.3328,0.29544 -0.11043,0.0557 -0.39998,0.14801 -0.64345,0.20519 -0.24345,0.0571 -0.52155,0.12378 -0.61807,0.14783 -0.13209,0.033 -0.18473,-0.0824 -0.21228,-0.46681 -0.0495,-0.69023 0.0305,-0.87773 0.31076,-0.72775 0.33911,0.18148 0.96058,0.16267 1.53937,-0.0466 0.75017,-0.27126 0.97281,-0.46186 0.88015,-0.7538 -0.0953,-0.30038 -0.68316,-0.32654 -1.53433,-0.0683 -0.89145,0.27044 -1.06962,0.23902 -1.1587,-0.20359 -0.14021,-0.69662 -0.17877,-0.75526 -0.61739,-0.94161 -0.78287,-0.33264 -0.96256,-0.35501 -0.95991,-0.11905 9e-4,0.11693 0.11342,0.44939 0.24907,0.73895 0.1973,0.4212 0.25221,0.78855 0.27418,1.83732 0.0208,0.99013 0.0801,1.4195 0.24244,1.75483 0.23322,0.48184 0.24552,0.77367 0.10899,2.55846 -0.0652,0.85164 -0.049,1.30321 0.0583,1.62802 0.16014,0.48522 0.96224,1.43205 1.34446,1.58713 0.32865,0.13334 0.36947,0.13081 0.80727,-0.0521 0.21395,-0.0893 0.59404,-0.38399 0.84451,-0.65464 0.40046,-0.43272 0.57304,-0.70098 0.99739,-1.55034 0.0558,-0.11172 0.10145,-0.30914 0.10145,-0.4387 0,-0.31 0.12579,-0.29713 0.53513,0.0547 0.18571,0.15957 0.71606,0.48225 1.17858,0.71701 0.64928,0.32956 0.91623,0.40806 1.17103,0.34411 0.4054,-0.10175 0.50391,-0.2461 0.50611,-0.7426 0.003,-0.65624 -0.95035,-1.29674 -2.58106,-1.73382 -0.41321,-0.11075 -0.79416,-0.23767 -0.84635,-0.28219 -0.0522,-0.0445 0.15839,-0.1999 0.46795,-0.34526 1.77975,-0.83571 2.00841,-1.49538 0.70468,-2.03382 l -0.44328,-0.18302 0.0749,-0.61831 c 0.0412,-0.34004 0.14344,-1.03126 0.22713,-1.53617 0.14075,-0.84913 0.12005,-1.15852 -0.11562,-1.73747 -0.0856,-0.21027 -1.07428,-0.59112 -1.53479,-0.59112 z m -6.12205,2.66195 c -0.31687,-0.0294 -0.75673,0.0505 -1.37942,0.23354 -0.564734,0.16598 -1.31618,0.38253 -1.670072,0.48143 -0.634499,0.1773 -1.033463,0.32419 -1.471289,0.47706 -0.437829,0.15289 -0.517521,0.23038 -0.517521,0.32495 0,0.2256 0.965683,0.50633 1.566553,0.45539 0.531747,-0.0451 0.773225,0.1075 0.773225,0.48898 0,0.28137 -0.05194,0.30273 -1.14064,0.46704 -0.303003,0.0458 -0.497205,0.13683 -0.497205,0.23329 0,0.22273 0.184591,0.31518 1.052902,0.52806 0.674455,0.16535 0.760426,0.21858 0.760426,0.46909 0,0.30178 0.03366,0.28906 -1.608597,0.60049 -0.369973,0.0701 -0.672688,0.17486 -0.672688,0.23261 0,0.10545 0.968681,0.56461 1.424977,0.69087 0.456295,0.12628 0.714456,0.22992 0.827058,0.26697 0.112608,0.0371 0.20898,0.1875 0.214334,0.33429 0.0054,0.1468 0.02322,0.39012 0.03978,0.54062 0.03888,0.35535 -0.191213,0.57572 -0.700792,0.67132 -0.319291,0.06 -0.592985,-0.006 -1.238443,-0.29362 -0.455697,-0.20377 -0.84705,-0.35185 -0.869646,-0.32926 -0.02259,0.0226 0.08762,0.35418 0.244947,0.7369 0.157325,0.3827 0.287719,0.79697 0.289046,0.92059 0.0015,0.12363 0.08978,0.32105 0.196277,0.43872 0.106484,0.11766 0.224931,0.21219 0.263222,0.20998 0.320068,-0.0184 2.005136,-0.5134 2.760436,-0.81093 0.51476,-0.20275 1.22048,-0.44602 1.5684,-0.54061 0.55185,-0.15004 1.06387,-0.50922 1.06387,-0.74627 0,-0.1412 -0.45704,-0.56984 -0.68458,-0.64206 -0.12346,-0.0392 -0.43585,-0.0238 -0.69416,0.0343 -0.61169,0.13744 -0.73253,0.0464 -0.76158,-0.57283 l -0.024,-0.51275 0.57742,-0.12521 c 0.35808,-0.0777 0.70642,-0.25224 0.91647,-0.45927 l 0.33887,-0.33383 -0.29932,-0.29933 c -0.28233,-0.28231 -0.33294,-0.29231 -0.89319,-0.17754 -0.52383,0.1073 -0.60708,0.0971 -0.7049,-0.0857 -0.14061,-0.26268 -0.14549,-0.84274 -0.006,-0.75677 0.10746,0.0664 0.91946,-0.18071 1.3872,-0.42226 0.64441,-0.3328 -0.004,-0.87064 -0.90577,-0.75106 -0.54745,0.0727 -0.58375,0.0608 -0.65234,-0.21249 -0.10227,-0.40747 -0.0101,-0.49867 0.5959,-0.58953 0.29281,-0.044 0.71538,-0.15626 0.93911,-0.24974 0.40096,-0.16753 0.40442,-0.17493 0.23376,-0.50497 -0.13071,-0.25277 -0.32475,-0.3911 -0.64162,-0.42043 z m 3.77816,4.46182 c 0.05,-0.0316 0.12946,0.008 0.2847,0.0861 0.17401,0.089 0.48798,0.19844 0.69759,0.24358 0.49779,0.10722 1.84166,0.824 1.84166,0.98231 0,0.0676 -0.1914,0.35184 -0.42521,0.63155 -0.34324,0.41062 -0.54212,0.53572 -1.03257,0.64893 -0.815,0.18812 -1.11553,0.17648 -1.30333,-0.0497 -0.17966,-0.21644 -0.28679,-1.59399 -0.17161,-2.20794 0.0378,-0.2014 0.0587,-0.30307 0.10877,-0.33475 z m -4.97593,4.82877 c -0.1331,-0.004 -0.278835,0.0106 -0.433914,0.0437 -0.297214,0.0634 -0.685167,0.11001 -0.862107,0.10374 -0.386493,-0.0136 -0.388173,0.002 -0.07334,0.65212 0.197963,0.40892 0.229724,0.61219 0.156519,1.00217 -0.116172,0.61816 -0.114561,1.7791 0.0036,2.80409 0.08468,0.73283 0.07128,0.81584 -0.175482,1.07849 -0.147041,0.15653 -0.312431,0.25679 -0.367423,0.22278 -0.05499,-0.034 -0.09985,-0.50276 -0.09985,-1.0417 0,-1.20706 -0.108573,-1.5096 -0.630184,-1.75712 -0.371913,-0.17648 -0.437415,-0.17741 -0.983396,0.0824 -0.545985,0.25982 -0.766301,0.95055 -0.683015,1.41833 0.03648,0.20493 0.0991,0.6359 0.139384,0.95763 0.04026,0.32172 0.202922,0.9125 0.361476,1.31292 l 0.288363,0.72799 -0.294301,0.50246 c -0.161898,0.27625 -0.390377,0.60652 -0.507714,0.73414 -0.731415,0.79551 -0.924697,1.62328 -0.476413,2.04092 0.322638,0.3006 0.402612,0.29831 0.873308,-0.0242 0.25011,-0.17139 0.50824,-0.53348 0.742603,-1.04194 0.513445,-1.11392 0.591535,-1.1506 1.107284,-0.5212 0.235761,0.28772 0.579698,0.88198 0.764314,1.3207 0.385748,0.91668 0.686149,1.08579 0.961268,0.54108 0.0912,-0.18057 0.22198,-0.43364 0.29066,-0.56232 0.27255,-0.51077 0.38899,-0.83201 0.40328,-1.1114 0.0201,-0.39222 -0.23951,-2.63143 -0.3729,-3.2172 -0.16432,-0.72161 -0.146,-0.78664 0.38502,-1.37349 0.27346,-0.30221 0.57618,-0.64929 1.13848,-1.24651 0.5623,-0.59721 0.77355,-0.78502 0.99657,-1.01467 0.22302,-0.22965 0.45529,-0.38686 0.51594,-0.34937 0.26832,0.16583 -0.54886,1.86539 -1.68583,2.38343 -0.31902,0.14535 -0.38841,0.42734 -0.12955,0.52668 0.26435,0.10144 1.42368,-0.50793 2.36324,-1.56528 0.60417,-0.67991 0.62293,-1.31781 0.86859,-1.61263 0.19837,-0.23805 0.3557,-0.28007 1.19593,-0.3208 1.13167,-0.0548 1.71073,0.15388 1.89422,0.68297 0.09,0.25965 0.0641,0.38418 -0.13435,0.64343 -0.13542,0.17683 -0.31446,0.30477 -0.39781,0.28426 -0.0834,-0.0206 -0.36475,-0.077 -0.62516,-0.12568 -0.91391,-0.17073 -2.2785,0.34689 -2.46522,0.93523 -0.15108,0.476 -0.0923,1.25883 0.11881,1.58096 0.20979,0.32019 0.20948,0.32192 -0.1588,0.65098 -0.23144,0.20679 -0.5105,0.33459 -0.74764,0.34228 -0.98019,0.0318 -2.1385,-0.0381 -2.33042,-0.14075 -0.17203,-0.0921 -0.21227,-0.0696 -0.21227,0.1179 0,0.26601 1.15486,1.25985 1.59124,1.36937 0.35431,0.0889 0.73678,0.0279 2.2694,-0.36216 1.31446,-0.33446 3.32245,-0.6423 3.64313,-0.55844 0.22158,0.058 0.39788,0.89244 0.51753,2.44808 l 0.0736,0.95625 -0.33314,-0.0408 c -1.13096,-0.13911 -1.91228,-0.19676 -1.91228,-0.14145 0,0.0877 1.76954,1.35603 2.4385,1.74777 0.29959,0.17544 0.57104,0.32041 0.60323,0.32218 0.0322,0.002 0.3032,-0.0841 0.60208,-0.19126 0.62411,-0.22364 0.68993,-0.40109 0.62677,-1.6872 -0.0309,-0.62756 -0.39341,-2.69128 -0.5982,-3.40526 -0.049,-0.17074 0.0412,-0.19455 0.68023,-0.18005 0.40511,0.009 1.06546,-0.0233 1.46761,-0.0722 0.62723,-0.0763 0.73119,-0.12261 0.73119,-0.32607 0,-0.13043 -0.15722,-0.39439 -0.34937,-0.58654 -0.32748,-0.32747 -0.39002,-0.34488 -1.00013,-0.27899 -1.28494,0.13876 -1.61679,0.10546 -2.07861,-0.20793 -0.46972,-0.31876 -1.26577,-0.71477 -1.68057,-0.83607 -0.23114,-0.0675 -0.24863,-0.04 -0.19513,0.31076 0.0323,0.21181 0.10709,0.43516 0.16611,0.49629 0.059,0.0611 0.10706,0.21906 0.10694,0.35098 -1.8e-4,0.18743 -0.0833,0.24535 -0.38023,0.26458 -0.20898,0.0136 -0.70192,0.0874 -1.09561,0.16452 -0.68602,0.13419 -1.10135,0.0971 -1.0945,-0.0978 0.002,-0.0503 0.18926,-0.22301 0.41655,-0.38386 1.53346,-1.0853 3.095,-2.48613 3.37486,-3.02732 0.17716,-0.34259 0.17418,-0.39202 -0.051,-0.83332 -0.35968,-0.70501 -1.0143,-0.96176 -2.86373,-1.12283 -0.61084,-0.0532 -0.93014,-0.034 -1.04719,0.0631 -0.13395,0.11118 -0.27851,0.0784 -0.70673,-0.16064 -0.29602,-0.16526 -0.63306,-0.30047 -0.74923,-0.30047 -0.11617,0 -0.4697,0.24186 -0.78556,0.53742 -1.42004,1.32872 -2.38318,2.30791 -2.63799,2.68207 -0.15193,0.22312 -0.34205,0.40582 -0.42248,0.40626 -0.324861,0.002 -0.0579,-1.31735 0.3905,-1.9294 0.28349,-0.38699 0.46069,-1.20197 0.34229,-1.57502 -0.0956,-0.30135 -0.38285,-0.47137 -0.78214,-0.4819 z m 5.85723,3.98723 c 0.53447,0 0.53821,0.18644 0.0136,0.70055 -0.46069,0.4516 -0.69323,0.55756 -0.85937,0.39143 -0.31802,-0.31803 0.28132,-1.09198 0.84567,-1.09198 z m -9.010226,0.46796 c 0.165117,0 0.346865,0.2748 0.409232,0.61875 0.03183,0.1755 0.08535,0.41075 0.118818,0.5228 0.09288,0.31089 -0.08224,0.97134 -0.231464,0.87285 -0.275645,-0.18194 -0.545455,-2.0144 -0.296586,-2.0144 z m 1.901075,2.37953 c 0.251459,-0.13249 0.328445,0.16868 0.406718,1.10729 0.054,0.64703 0.03969,0.95877 -0.04382,0.95877 -0.165411,0 -1.07964,-1.04562 -1.07964,-1.23479 0,-0.082 0.180345,-0.33466 0.400777,-0.56165 0.129129,-0.13296 0.232185,-0.22544 0.316011,-0.26962 z m 5.446171,1.33738 c -0.37442,0.009 -0.7816,0.0481 -0.90507,0.0873 -0.21905,0.0695 -0.21942,0.0819 -0.0112,0.50269 0.32157,0.64987 0.24996,1.25095 -0.19765,1.65979 -0.36412,0.33257 -0.43601,0.47934 -0.30093,0.61441 0.16047,0.16048 1.99957,-0.54981 2.79769,-1.08055 0.19303,-0.12835 0.41678,-0.26597 0.4972,-0.30572 0.23341,-0.1154 0.16948,-0.57025 -0.11698,-0.83218 -0.50641,-0.46303 -1.05176,-0.66265 -1.76307,-0.64572 z"
       sodipodi:nodetypes="scsssssscssssscscccsssssscsssccsssssssccsssssssssssssssssssscsssccsssccssscssssssssscsscsssscscssscccccccsscsssssssssccsssssccsssscssssscsccccsssssssscsscscsssscssssssscssssscccssscssssssssssssssssssssssssssssssssssssssssssssscsssscsss" /></g></svg>
