<svg xmlns="http://www.w3.org/2000/svg" width="120" height="120" viewBox="0 0 120 120">
    <path stroke="red" stroke-width=".015" d="m111.568 90.387.876 1.181.76 1.268.633 1.336.496 1.389.361 1.43.215 1.467.038.786.037.689-.075 1.475-.215 1.46-.36 1.43-.497 1.392-.633 1.34-.76 1.264-.876 1.185-.347.377-.647.718-.715.651-.376.339-1.189.88-1.272.76-1.332.633-1.392.496-1.28.324-.15.037-1.46.215-1.475.075-.689-.037-.79-.038-1.46-.215-1.433-.36-1.389-.497-1.336-.633-.895-.534-.376-.226-1.182-.876-1.091-.994-14.224-14.216-2.472-2.472H47.442l-16.688 16.688-.715.651-.376.339-1.19.88-1.271.76-1.332.633-1.392.496-1.43.361-.866.128-.602.087-1.467.075-1.479-.075-1.46-.215-1.434-.36-1.388-.497-1.336-.633-1.268-.76-1.185-.876-.377-.34-.714-.654-.655-.715-.343-.376-.876-1.189-.76-1.264-.068-.147-.565-1.193-.496-1.392-.361-1.43-.215-1.46-.075-1.475.037-.689.038-.79.215-1.46.36-1.433.497-1.389.633-1.336.76-1.268.876-1.185.343-.376.65-.715 14.217-14.224 2.472-2.472V47.442L9.468 30.754l-.651-.715-.343-.376-.876-1.19-.76-1.271-.068-.14-.565-1.192-.496-1.392-.361-1.43-.215-1.468-.075-1.467.075-1.479.215-1.46.36-1.434.497-1.388.565-1.193.068-.143.76-1.268.876-1.185.343-.377.65-.714.716-.655.38-.343 1.185-.876 1.268-.76.143-.068 1.193-.565 1.388-.496 1.43-.361 1.464-.215 1.475-.075 1.475.075 1.464.215 1.43.36 1.392.497 1.193.565.146.068.892.538.373.225 1.185.873 1.095.994 16.688 16.688h25.154l7.53-7.526 9.162-9.162 1.095-.994 1.185-.876.377-.222.891-.538.143-.068 1.193-.565 1.389-.496 1.43-.361 1.467-.215 1.475-.075 1.475.075 1.46.215 1.43.36 1.392.497 1.193.565.147.068 1.264.76 1.185.876.377.343.549.5.17.15.65.716.339.38.88 1.185.76 1.268.633 1.336.496 1.388.361 1.43.215 1.464.075 1.475-.075 1.475-.087.602-.128.862-.36 1.43-.497 1.392-.633 1.34-.534.891-.226.373-.876 1.185-.994 1.095-9.162 9.162-5.054 5.054-2.472 2.472v25.154l2.472 2.476 5.054 5.054 9.162 9.162.651.715.339.38m-80.81-17.057-.835.836v.91h-.911L12.136 91.941l-.008.004h-.007l-.742.816-.658.892-.572.948-.474 1.005-.377 1.042-.263 1.076-.166 1.095-.022.425-.03.685.052 1.107.166 1.09.263 1.08.377 1.047.474 1 .572.956.658.885.745.827.828.742.884.658.64.384.312.188 1.001.474 1.046.373 1.077.267 1.098.166 1.103.052 1.11-.052.96-.143.135-.023 1.076-.267 1.042-.373 1.005-.474.948-.572.892-.658.816-.745h.004l-.007-.008h.007L44.97 91.03v-.907h.91l.836-.835.835.835h24.936l.84-.835.01.015.825.82h.91v.911l16.873 16.876v.008l.816.745.892.658.948.572 1.005.474 1.042.373 1.076.267 1.095.166.425.018.685.038 1.107-.056 1.09-.166 1.08-.267 1.047-.373 1-.474.956-.572.885-.658.827-.745.742-.824.109-.143.55-.742.571-.955.474-1.001.373-1.046.267-1.077.166-1.094.052-1.107-.034-.685-.018-.425-.166-1.095-.267-1.076-.373-1.042-.474-1.005-.572-.948-.658-.892-.745-.82-.008.004-16.876-16.873h-.91v-.91l-.82-.828-.016-.008.835-.839V47.551l-.835-.835.835-.836v-.91h.911l.907-.907 15.965-15.962.004-.007.008.007.745-.82.658-.892.572-.948.474-1.005.373-1.042.267-1.076.023-.136.143-.96.048-1.11-.048-1.102-.166-1.098-.267-1.077-.373-1.046-.478-1-.188-.313-.38-.64-.662-.888-.741-.824-.824-.745-.892-.658-.948-.572-1.001-.474-1.046-.377-1.077-.263-1.094-.166-1.107-.052-.685.03-.425.022-1.095.166-1.076.263-1.042.377-1.005.474-.948.572-.892.658-.82.742v.003l.004.004v.008L75.072 29.008v.91h-.91l-.836.836-.839-.835H47.551l-.835.835-.836-.835h-.91v-.911l-14.216-14.22-2.66-2.66h.007v-.007l-.82-.742-.892-.658-.948-.572-1.005-.474-1.042-.377-1.076-.263-.136-.019-.96-.15-1.11-.05-1.102.053-1.098.166-1.077.263-1.046.377-1 .474-.953.572-.888.658-.824.745-.745.828-.658.884-.384.64-.188.312-.474 1.001-.377 1.046-.263 1.077-.166 1.098-.052 1.103.052 1.11.147.96.02.135.262 1.076.377 1.042.474 1.005.572.952.658.888.742.816.003.004.004-.007 2.66 2.66L29.016 44.97h.903v.91l.835.836-.835.835v24.936l.835.84m13.301 7.984-2.664 2.664-13.29 13.29-1.98 1.98-3.348 3.348-5.324-5.328 5.328-5.324 15.958-15.954 5.32 5.324m-7.984-39.923L25.43 30.754l-7.978-7.977.591-.595 4.14-4.139.59-.594 4.73 4.733.602.595 2.649 2.653 5.32 5.324 7.978 7.98-5.317 5.321-2.664-2.664m42.58-5.32 13.884-13.885 4.73-4.737 5.325 5.324-5.325 5.328-5.324 5.32-10.63 10.634-5.324-5.32 2.664-2.664M66.726 56.604l.727 2.24v2.355l-.727 2.239-1.384 1.904-1.904 1.384-2.24.727h-2.355l-2.239-.727-1.904-1.384-1.384-1.904-.727-2.24v-2.355l.727-2.239L54.7 54.7l1.904-1.384 2.24-.727h2.355l2.239.727 1.904 1.384 1.384 1.904m14.585 19.379 21.279 21.282-5.325 5.325-3.341-3.35-1.983-1.975-15.954-15.954Zm0 0"/>
    <path fill="#f9f9f9" d="M18.531 111.031c-4.597-.703-8.297-4.16-9.394-8.781-.282-1.191-.211-3.805.14-5.117.317-1.192.95-2.563 1.692-3.668.242-.367 4.402-4.637 9.242-9.488 8.055-8.079 8.836-8.82 9.277-8.82.45 0 .485-.036.485-.493 0-.348.125-.61.445-.914l.445-.426-.89-.914V47.598l.445-.426.445-.422-.445-.46c-.305-.317-.445-.606-.445-.93 0-.438-.04-.473-.485-.473-.441 0-1.222-.742-9.277-8.824-4.84-4.852-9-9.122-9.242-9.485-.742-1.105-1.375-2.48-1.692-3.672-.351-1.308-.422-3.926-.14-5.113 1.027-4.336 4.324-7.629 8.656-8.656 1.207-.285 3.809-.215 5.113.136 1.196.32 2.57.957 3.672 1.696.363.242 4.633 4.402 9.485 9.242 8.082 8.055 8.824 8.836 8.824 9.277 0 .45.035.485.488.485.352 0 .61.125.914.445l.426.445.457-.445.46-.445h24.81l.851.89.457-.445c.316-.305.605-.445.934-.445.433 0 .472-.04.472-.485 0-.441.742-1.222 8.82-9.277 4.852-4.84 9.122-9 9.489-9.242 1.097-.739 2.476-1.375 3.668-1.696 1.305-.351 3.91-.421 5.117-.136 4.332 1.027 7.625 4.32 8.652 8.656.282 1.187.211 3.805-.136 5.113-.32 1.192-.954 2.567-1.692 3.672-.246.363-4.406 4.633-9.242 9.485-8.059 8.082-8.836 8.824-9.281 8.824-.45 0-.485.035-.485.488 0 .352-.125.61-.441.914l-.445.426.445.457.441.46V72.41l-.441.457-.445.457.445.426c.316.305.441.566.441.914 0 .457.036.492.485.492.445 0 1.222.742 9.281 8.82 4.836 4.852 8.996 9.122 9.242 9.489.739 1.105 1.371 2.476 1.692 3.668.347 1.312.418 3.926.136 5.117-1.027 4.332-4.32 7.629-8.652 8.652-1.207.285-3.812.22-5.117-.132-1.192-.325-2.57-.957-3.668-1.696-.367-.246-4.637-4.406-9.488-9.242-8.079-8.059-8.82-8.836-8.82-9.281 0-.45-.036-.485-.493-.485-.348 0-.61-.125-.914-.441l-.426-.445-.457.445-.457.441H47.598l-.426-.441-.422-.445-.46.445c-.317.305-.606.441-.93.441-.438 0-.473.04-.473.485s-.742 1.222-8.824 9.281c-4.852 4.836-9.122 8.996-9.485 9.242-2.406 1.614-5.45 2.352-8.047 1.957m14.95-19.082 10.667-10.668-2.695-2.695-2.695-2.691L17.352 97.3l2.656 2.66c1.457 1.46 2.687 2.656 2.73 2.656.04 0 4.875-4.8 10.742-10.668m66.554 8.012 2.656-2.66-21.406-21.406-2.695 2.69-2.7 2.696L86.56 91.95c5.867 5.867 10.703 10.668 10.746 10.668.039 0 1.27-1.195 2.73-2.656m-37.55-32.824c2.062-.676 3.976-2.59 4.652-4.653.453-1.382.453-3.547 0-4.93-.676-2.062-2.59-3.972-4.653-4.652-1.347-.441-3.343-.457-4.8-.03-2.098.608-4.082 2.554-4.782 4.683-.453 1.383-.453 3.547 0 4.93.68 2.07 2.598 3.984 4.653 4.648 1.398.449 3.566.453 4.93.004m-29.04-39.082L22.738 17.352l-2.695 2.691-2.691 2.695 10.703 10.703 10.703 10.707 2.695-2.695 2.695-2.691Zm66.551-8.012-2.695-2.691-21.406 21.406 2.69 2.695 2.696 2.695 21.41-21.41Zm0 0"/>
</svg>
