<svg xmlns="http://www.w3.org/2000/svg" width="120" height="120" viewBox="0 0 120 120">
    <path stroke="red" stroke-width=".015" d="m78.108 42.12-.01-.01-1.476-1.634-1.32-1.78-.046-.075-.007-.011-.896-1.498-.192-.316-.139-.297-.805-1.705-.753-2.084-.538-2.145-.094-.647H48.578l-.094.64-.538 2.144-.753 2.088-.813 1.731-.127.267-1.092 1.814-.007.019-.038.071-.632.85-.692.93-.595.655-.086.098-.358.399-.451.493-.004.007-1.637 1.479-1.637 1.215-.143.106-.075.045-.011.007-1.814 1.088-2.002.94-2.084.757-2.145.538-.647.094v41.73h60.204v-41.73l-.636-.094-2.144-.538-2.089-.753-1.738-.816-.263-.124-1.814-1.088-.023-.011-.067-.038-.147-.113-.704-.519-.93-.692-.752-.681-.399-.358-.489-.448m-11.65 2.431.253.414.128.218.316.674.248.688.18.72.106.73.038.737v22.576l-.038.738-.105.73-.181.719-.248.692-.316.67-.38.632-.147.2-.294.394-.496.546-.546.497-.595.44-.632.376-.67.32-.692.248-.719.181-.73.105-.737.038-.738-.038-.73-.105-.127-.03-.591-.15-.693-.249-.67-.316-.225-.135-.406-.245-.595-.44-.546-.497-.496-.542-.437-.602-.384-.628-.316-.67-.248-.692-.184-.715-.102-.734-.038-.738V48.732l.038-.738.102-.73.188-.715.244-.692.316-.674.128-.214.256-.418.437-.594.496-.546.546-.497.595-.44.632-.38.67-.316.692-.248.59-.15.129-.031.73-.102.737-.041.738.03.73.11.714.18.697.248.67.316.225.136.406.244.595.44.546.497.496.546.294.395.147.2M52.679 26.154h22.577v.147l.087 1.693.207 1.41.064.415.451 1.787.617 1.742.79 1.675.952 1.584.177.24.196.264.726.978 1.242 1.374.963.873.403.365 1.49 1.102 1.58.952 1.675.79 1.738.621.82.204.971.244 1.374.203.455.068 1.637.083h.2v48.916H26.34V44.97h.15l1.686-.087.433-.064L30 44.611l1.795-.447 1.742-.621 1.67-.79 1.585-.952.24-.177 1.242-.922 1.374-1.242 1.238-1.366.726-.978.376-.512.952-1.584.256-.538.534-1.129.621-1.746.452-1.787.056-.414.113-.753.098-.662.083-1.64v-.196h7.525M62.086 71.3h-3.762V56.257h3.762v15.044m1.882-15.044v-7.514h.011v-.011l-.019-.362-.056-.368-.09-.358-.125-.35-.158-.335-.188-.32-.222-.297-.248-.274-.275-.249-.135-.101-.162-.12-.316-.189-.339-.162-.346-.124-.357-.094-.37-.053-.18-.007-.188-.008-.365.015-.369.06-.357.087-.35.124-.15.076-.185.082-.316.192-.297.226-.275.245-.248.274-.226.301-.185.316-.158.335-.124.35-.09.358-.057.368-.015.362v.01h.004v22.559h-.007v.007l.015.362.056.368.09.358.125.35.158.338.188.317.226.3.244.271.275.249.3.218.313.196.185.086.15.072.35.124.357.09.37.057.368.018.369-.018.369-.057.357-.09.35-.124.335-.158.316-.196.162-.113.135-.105.275-.249.248-.274.226-.297.184-.32.158-.339.125-.346.09-.358.056-.368.015-.362.004-.007h-.011V56.257"/>
    <path fill="#f9f9f9" d="M30.168 69.285V48.512l.406-.094c3.508-.797 5.774-1.746 8.488-3.559 4.633-3.093 7.922-7.859 9.29-13.472l.336-1.371 11.539.039 11.543.039.19.96c.306 1.505.9 3.184 1.759 4.954 2.191 4.508 5.394 7.824 9.851 10.195 1.598.852 2.914 1.348 4.934 1.86l1.629.414.035 20.789.039 20.793H30.168Zm32.457 9.207c2.246-.734 4.004-2.496 4.836-4.847l.34-.961V47.543l-.328-1.055c-.641-2.023-2.02-3.625-3.95-4.57-4.289-2.102-9.449.266-10.652 4.89-.34 1.305-.34 25.157 0 26.462.344 1.316 1.04 2.48 2.07 3.472 2.079 1.996 4.95 2.649 7.684 1.75m0 0"/>
    <path fill="#f9f9f9" d="M58.965 74.762c-.848-.301-1.477-.856-1.961-1.73l-.441-.794-.04-11.89c-.043-13.125-.062-12.836.875-13.97.918-1.108 2.88-1.612 4.172-1.073.766.32 1.59 1.136 1.965 1.941l.344.742.004 11.903c0 7.75-.055 12.097-.153 12.457-.394 1.41-2 2.632-3.449 2.62-.418-.003-1.011-.097-1.316-.206m3.144-10.953v-7.614h-3.843v15.23h3.843Zm0 0"/>
</svg>
