<svg xmlns="http://www.w3.org/2000/svg" width="120" height="120" viewBox="0 0 120 120">
    <path stroke="red" stroke-width=".015" d="m78.108 42.12-.01-.01-.464-.513-1.016-1.121-.684-.926-.633-.854-.045-.075-.007-.011-1.092-1.814-.94-2.002-.753-2.084-.538-2.145-.094-.647H48.578l-.094.64-.538 2.144-.753 2.088-.384.82-.556 1.178-.196.324-.892 1.49-.011.019-.038.071-.632.85-.692.93-.681.753-.358.399-.451.493-.004.007-1.637 1.479-1.558 1.155-.079.06-.143.106-.075.045-.011.007-1.814 1.088-2.002.94-2.084.757-2.145.538-.647.094v41.73h60.204v-41.73l-.636-.094-2.144-.538-2.089-.753-1.738-.816-.263-.124-1.814-1.088-.019-.011-.075-.038-.143-.113-.704-.519-.93-.692-.752-.681-.399-.358-.489-.448m-12.77 1.197 1.203 1.652.18.252.727 2.243v2.351l-.726 2.24-1.385 1.907-1.904 1.38-2.239.73h-2.355l-2.239-.73-1.904-1.38-1.385-1.908-.73-2.239v-2.351l.73-2.243.188-.252 1.197-1.656 1.904-1.38 2.239-.727h2.355l2.24.726 1.903 1.385M52.68 26.155h22.577v.143l.087 1.693.27 1.825.452 1.787.617 1.743.79 1.674.162.267.79 1.317.177.24.196.264.726.979 1.242 1.373 1.366 1.242 1.49 1.099 1.58.952 1.675.79 1.738.62 1.791.452 1.374.2.455.067 1.637.083h.2v48.916H26.34V44.97h.15l1.686-.087.433-.064L30 44.611l1.396-.346.399-.101 1.742-.621 1.67-.79 1.585-.952.24-.177 1.242-.922.828-.745.546-.497 1.238-1.366.726-.978.376-.512.952-1.584.79-1.67.621-1.743.452-1.787.056-.414.113-.753.098-.662.083-1.64v-.196h7.525m-10.562 48.39-.726-2.247v-2.355l.726-2.24 1.385-1.903 1.904-1.385 2.243-.73H50l2.24.73.345.252 1.562 1.133 1.38 1.904.73 2.239v2.355l-.73 2.239-1.38 1.904-1.562 1.132-.346.253-2.239.726h-2.35l-2.243-.726-1.904-1.385-1.385-1.904m28.108-10.852h2.352l2.239.73 1.908 1.385 1.38 1.904.73 2.239v2.355l-.73 2.239-1.38 1.904-1.908 1.385-2.239.726h-2.352l-2.242-.726-1.904-1.385-1.385-1.904-.726-2.239v-2.355l.726-2.24L66.08 65.8l1.904-1.385 2.242-.73"/>
    <path fill="#f9f9f9" d="M30.168 69.285V48.512l.406-.094c3.508-.797 5.774-1.746 8.488-3.559 4.633-3.093 7.922-7.859 9.29-13.472l.336-1.371 11.539.039 11.543.039.19.96c.306 1.505.9 3.184 1.759 4.954 2.191 4.508 5.394 7.824 9.851 10.195 1.598.852 2.914 1.348 4.934 1.86l1.629.414.035 20.789.039 20.793H30.168Zm20.906 9.012c4.957-1.586 6.867-7.465 3.797-11.676-1.348-1.844-3.68-3.023-5.996-3.031-3.281-.008-6.195 2.105-7.227 5.25-1.894 5.754 3.637 11.305 9.426 9.457m22.645-.016c2.32-.765 4.078-2.523 4.855-4.863 1.602-4.809-2.097-9.84-7.222-9.828-5.133.015-8.77 5.176-7.055 10.012 1.371 3.875 5.555 5.953 9.422 4.68M62.332 55.805c3.988-1.317 6.152-5.528 4.855-9.446-1.062-3.214-3.874-5.25-7.257-5.25-4.051 0-7.434 3.403-7.434 7.473 0 5.156 4.988 8.82 9.836 7.223m0 0"/>
</svg>
