<svg xmlns="http://www.w3.org/2000/svg" width="120" height="120" viewBox="0 0 120 118">
    <path stroke="red" stroke-width=".004" d="m81.168-81.172-.292.486-.011.02-.16.214-.191.258-.18.199-.215.238-.208.187-.229.208-.211.156-.261.195-.018.011-.487.292-.533.251-.348.125-.206.075-.57.142-.172.025V-67h16v-11.09l-.17-.025-.572-.142-.554-.2-.532-.251-.483-.29-.022-.013-.217-.16-.214-.16-.042-.03-.437-.396-.395-.437-.351-.473-.01-.019-.292-.486-.252-.532-.2-.554-.142-.57-.026-.172h-6.179l-.025.171-.143.571-.2.554-.25.532M75.88-66v-12.999h.038l.45-.023.485-.072.476-.119.463-.165.033-.015.41-.195.42-.253.396-.294.363-.328.33-.364.293-.395.251-.421.211-.444.165-.463.12-.476.072-.486.021-.43.003-.058h7.995l.002.037.022.451.072.486.12.476.165.463.209.444.253.421.292.395.103.114.228.25.363.328.394.294.42.253.445.21.462.165.476.12.486.071.488.023v13H75.88m9.905-7.218-.595.192h-.626l-.595-.192-.506-.369-.368-.506-.192-.595v-.626l.192-.596.368-.505.506-.368.595-.193h.626l.595.193.506.368.368.505.194.596v.626l-.194.595-.368.506-.506.369" transform="matrix(3.7298 0 0 3.7001 -256.893 336.708)"/>
    <path fill="#f9f9f9" d="M29.898 68.277c0-19.953.008-20.496.391-20.496.781 0 4.035-1.054 5.594-1.808 2.52-1.227 3.937-2.246 6.066-4.356 2.13-2.113 3.156-3.52 4.39-6.02.763-1.546 1.829-4.777 1.829-5.55 0-.375.363-.387 11.492-.387h11.496l.125.906c.313 2.262 2.051 6.114 3.832 8.489 2.992 3.98 7.145 6.879 11.782 8.21.992.286 1.98.516 2.195.516.383 0 .39.543.39 20.496V88.77H29.898Zm32.297-2.09c3-.996 4.864-3.667 4.864-6.976 0-1.856-.375-3.11-1.309-4.371-1.941-2.621-5.36-3.75-8.309-2.742-3.148 1.074-5.328 3.988-5.328 7.125 0 2.941 2.293 6.132 5.024 6.984 1.273.398 3.828.387 5.058-.02m0 0"/>
</svg>
