<svg xmlns="http://www.w3.org/2000/svg" width="120" height="120" viewBox="0 0 120 120">
    <path stroke="red" stroke-width=".015" d="M41.39 63.968H18.82v-7.526h22.57v7.526M17.338 45.229l1.475-.075h7.526V26.34h18.814v-7.526l.075-1.475.218-1.46.354-1.433.497-1.393.632-1.335.76-1.265.88-1.189.34-.376.496-.546.158-.169.722-.658.369-.335 1.19-.88 1.263-.761 1.336-.632 1.392-.497.967-.24.467-.117 1.46-.219 1.475-.071 1.475.075 1.46.218 1.434.358 1.392.497 1.336.632 1.264.76 1.189.88.365.339.726.655.655.715.339.376.376.508.504.681.76 1.264.632 1.336.497 1.392.357 1.434.219 1.46.071 1.471v7.526H94.07v18.814h7.526l1.467.075 1.468.218 1.43.354 1.392.497 1.336.632 1.264.76 1.189.88.365.34.59.533.136.12.012.016.647.707.335.369.88 1.19.76 1.263.632 1.336.497 1.392.358 1.43.218 1.468.075 1.467-.075 1.479-.218 1.46-.358 1.434-.15.417-.347.975-.632 1.336-.76 1.264-.88 1.189-.339.365-.655.726-.715.655-.376.339-1.189.88-1.264.76-1.336.632-1.392.497-1.43.357-1.468.219-1.467.075H94.07v18.814H75.255v7.526l-.075 1.467-.218 1.468-.358 1.43-.496 1.392-.633 1.335-.76 1.265-.504.677-.376.512-.339.376-.497.542-.158.173-.722.655-.369.338-1.189.88-1.264.761-1.336.632-1.392.497-1.43.357-1.468.219-1.467.071-1.475-.075-1.46-.218-.467-.113-.967-.245-1.392-.497-1.336-.632-1.264-.76-1.189-.88-.376-.339-.715-.655-.655-.715-.339-.376-.88-1.189-.76-1.264-.632-1.336-.497-1.392-.354-1.43-.222-1.468-.075-1.467V94.07h-18.81V75.256h-7.526l-1.475-.075-1.46-.218-1.433-.358-1.393-.496-1.335-.633-1.265-.76-1.189-.88-.376-.339-.546-.5-.169-.15-.658-.73-.335-.366-.88-1.189-.761-1.264-.632-1.336-.35-.974-.147-.414-.357-1.438-.219-1.46-.071-1.471.075-1.475.218-1.46.358-1.434.497-1.392.632-1.336.76-1.264.88-1.189.339-.369.64-.707.015-.015.722-.659.369-.335 1.189-.88 1.264-.76 1.336-.632 1.392-.497 1.434-.354 1.46-.222m1.482 26.265h11.278v18.817h18.814v11.278h-.008v.015l.053 1.095.162 1.098.27 1.076.373 1.043.474 1.004.572.952.659.892.745.82.82.745.892.663.952.572 1 .474.922.33.12.042 1.077.271 1.099.162 1.106.053 1.106-.053 1.099-.162 1.076-.27 1.024-.37h.018l.998-.477.955-.572.888-.663.82-.745.75-.82.658-.892.572-.952.474-1.004.376-1.043.264-1.076.165-1.098.053-1.095v-.015h-.008V90.307h18.814V71.493h11.281v.008h.012l1.095-.053 1.098-.162 1.076-.27 1.043-.373 1.004-.474.952-.572.892-.659.82-.748.745-.82.663-.889.572-.955.256-.535.218-.463.372-1.042.271-1.076.162-1.099.056-1.106-.056-1.106-.162-1.099-.18-.715-.09-.361-.373-1.042-.474-1.001-.572-.952-.663-.892-.745-.82-.82-.745-.892-.659-.952-.572-1.004-.474-.527-.188-.516-.185-1.076-.27-1.098-.162-1.095-.057h-.012v.012h-11.28V30.103H71.491V18.822h.008v-.008l-.053-1.099-.162-1.098-.27-1.076-.373-1.039-.474-1.008-.572-.952-.659-.892-.748-.82-.82-.745-.889-.663-.955-.572-.998-.474-.018-.004-1.024-.368-1.076-.271-1.099-.162-1.106-.056-1.106.056-1.099.162-1.076.27-.12.046-.922.327-1.001.474-.952.572-.892.663-.82.745-.745.82-.659.892-.572.952-.474 1.008-.373 1.039-.27 1.076-.162 1.098-.053 1.1v.007h.008v11.28H30.102v18.815H18.82v-.012h-.008l-1.099.057-1.098.162-1.076.27-.516.185-.527.188-1.004.474-.952.572-.892.659-.82.745-.745.82-.663.892-.572.952-.474 1-.372 1.043-.09.361-.181.715-.162 1.099-.056 1.106.056 1.106.162 1.099.27 1.076.373 1.042.218.463.256.535.572.955.663.888.745.82.82.75.892.658.952.572 1.008.474 1.039.376 1.076.264 1.098.165 1.1.053h.007v-.008m60.197-15.05h22.57v7.525h-22.57v-7.526M56.441 41.391v-22.57h7.526v22.57H56.44m10.47 15.397.727 2.24v2.355l-.727 2.239-1.384 1.904-1.904 1.384-2.24.727h-2.355l-2.239-.727-1.904-1.384-1.384-1.904-.727-2.24v-2.355l.727-2.239 1.384-1.904 1.904-1.384 2.24-.727h2.355l2.239.727 1.904 1.384 1.384 1.904M63.967 79.02v22.566H56.44V79.019Zm0 0"/>
    <path fill="#f9f9f9" d="M58.797 112.719c-4.34-.606-7.942-3.66-9.352-7.934-.332-1.012-.34-1.203-.39-7.812l-.047-6.778H30.215V71.402l-6.777-.047c-6.61-.05-6.801-.058-7.813-.394-3.793-1.246-6.648-4.227-7.648-7.973-.426-1.59-.426-3.976 0-5.566 1-3.746 3.855-6.727 7.648-7.977 1.012-.332 1.203-.34 7.813-.39l6.777-.047V30.215h18.793l.047-6.777c.05-6.61.058-6.801.39-7.813 1.25-3.79 4.164-6.59 7.953-7.645 1.637-.457 3.977-.457 5.614 0 3.789 1.055 6.703 3.856 7.949 7.645.336 1.012.344 1.203.394 7.813l.047 6.777h18.793v18.793l6.778.047 6.773.047 1.188.402c3.734 1.262 6.445 4.125 7.5 7.918.449 1.601.449 3.96 0 5.566-1.055 3.793-3.766 6.657-7.5 7.918l-1.188.403-6.773.046-6.778.047v18.793H71.402l-.047 6.778c-.05 6.609-.058 6.8-.394 7.812-1.504 4.574-5.45 7.684-10.106 7.969-.683.043-1.609.027-2.058-.035m5.183-22.45V78.942h-7.55v22.66h7.55ZM62.633 67.32c4.777-1.625 6.601-7.422 3.644-11.566-2.886-4.047-9.257-4.047-12.144 0-2.414 3.383-1.672 8.172 1.625 10.527 1.375.98 2.629 1.38 4.383 1.39 1.14.013 1.632-.058 2.492-.35m-21.164-7.117V56.43h-22.66v7.55h22.66Zm60.133 0V56.43h-22.66v7.55h22.66ZM63.98 30.141V18.809h-7.55v22.66h7.55Zm0 0"/>
</svg>
