<svg xmlns="http://www.w3.org/2000/svg" width="120" height="120" viewBox="0 0 120 120">
    <path stroke="red" stroke-width=".015" d="m75.301 38.696-.045-.075-.007-.011-1.092-1.814-.94-2.002-.753-2.084-.538-2.145-.094-.647H48.578l-.094.64-.538 2.144-.753 2.088-.384.82-.429.911-.127.267-1.092 1.814-.007.019-.038.071-.632.85-.692.93-.663.734-.018.019-.358.399-.451.493-.004.007-1.637 1.479-1.558 1.155-.222.166-.075.045-.011.007-1.814 1.088-2.002.94-2.084.757-1.498.376-.651.162-.643.094v41.73h60.204v-41.73l-.636-.094-2.144-.538-2.089-.753-.097-.045-1.641-.771-.263-.124-1.814-1.088-.023-.011-.067-.038-.85-.632-.93-.692-.753-.681-.399-.358-.489-.448-.015-.01-.463-.513-.353-.391-.659-.73-.688-.926-.633-.854M52.68 26.155h22.577v.147l.087 1.693.27 1.825.452 1.787.617 1.742.79 1.675.162.267.79 1.317.177.24.922 1.242 1.242 1.374 1.366 1.242.68.5.81.598 1.58.952.14.064 1.535.726 1.738.621 1.791.452 1.829.267.813.038.828.045h.195v48.916H26.34V44.97h.15l1.686-.087 1.829-.27 1.392-.347.399-.101 1.742-.621 1.67-.79 1.585-.952.24-.177.565-.414.677-.508.828-.745.546-.497 1.238-1.366 1.102-1.49.952-1.584.79-1.67.621-1.743.452-1.787.17-1.167.097-.662.083-1.64v-.196h7.525m1.874 18.814.027.545.079.55.135.538.188.523.237.504.286.482.331.44.166.18.207.234.41.369.444.335.478.286.5.237.328.116.195.072.538.135.55.075.553.038.553-.038.55-.075.538-.135.376-.136.147-.052.5-.237.478-.286.444-.335.41-.37.21-.232.163-.181.33-.44.287-.482.237-.504.188-.527.135-.534.08-.55.03-.545h9.395v9.403l-.545.023-.55.075-.542.14-.519.187-.504.237-.478.286-.44.331-.188.162-.226.21-.376.411-.14.184-.192.264-.286.474-.237.5-.188.523-.135.538-.08.55-.026.553.02.452.007.101.079.546.135.542.188.523.237.5.286.478.332.444.376.41.226.21.113.099.075.064.44.33.478.287.504.237.52.188.541.135.55.076.545.033v9.396H45.154v-9.396l.545-.03.55-.079.538-.135.523-.188.504-.237.478-.286.444-.331.075-.064.339-.309.376-.414.328-.44.286-.478.237-.5.188-.527.135-.538.075-.546.012-.101.022-.452-.03-.553-.079-.55-.135-.538-.188-.526-.237-.497-.286-.478-.192-.263-.14-.18-.376-.415-.414-.369-.44-.33-.478-.287-.504-.237-.527-.188-.534-.135-.55-.08-.545-.026v-9.4h9.4"/>
    <path fill="#f9f9f9" d="M30.168 69.285V48.512l.406-.094c4.602-1.043 8.133-2.844 11.188-5.703 3.465-3.242 5.578-6.977 6.738-11.922l.184-.777 23.086.078.19.96c.306 1.505.9 3.184 1.759 4.954 2.191 4.508 5.394 7.824 9.851 10.195 1.598.852 2.914 1.348 4.934 1.86l1.629.414.035 20.789.039 20.793H30.168Zm45.102 1.11v-4.73l-.407-.08c-1.808-.35-2.535-.694-3.488-1.651-.77-.77-1.223-1.579-1.508-2.696-.77-3.004 1.348-6.136 4.531-6.695l.872-.156v-9.43h-9.434l-.152.871c-.559 3.164-3.696 5.3-6.664 4.54-1.239-.317-1.891-.68-2.72-1.513-.85-.855-1.437-1.992-1.566-3.046l-.093-.782-9.54-.078v9.418l.903.168c1.262.235 2.148.703 3.062 1.613 2.82 2.813 1.856 7.48-1.867 9.008-.46.192-1.015.348-1.234.352-.91.008-.863-.258-.863 4.898v4.715H75.27Zm0 0"/>
</svg>
