<svg xmlns="http://www.w3.org/2000/svg" width="120" height="120" viewBox="0 0 120 120">
    <path stroke="red" stroke-width=".015" d="m114.517 24.48-.47 1.314-.026.075-.633 1.332-.538.903-.222.369-.876 1.185-.994 1.095L81.491 60.02l10.634 10.634 18.633 18.633.651.715.339.38.88 1.185.76 1.268.633 1.336.496 1.389.361 1.43.215 1.467.023.512.052.963-.075 1.475-.215 1.449v.011l-.36 1.43-.497 1.392-.633 1.34-.76 1.264-.876 1.185-.34.377-.654.718-.718.651-.377.339-1.185.88-1.268.76-1.336.633-1.392.496-1.43.361-1.46.215-1.475.075-.689-.037-.274-.012-.512-.026-1.464-.215-1.43-.36-1.392-.497-1.336-.633-.895-.534-.373-.226-1.185-.876-1.091-.994L67.73 88.832l-7.526-7.526-29.267 29.267-.719.651-.376.339-1.185.88-1.268.76-1.336.633-1.392.496-1.43.361-.866.128-.598.087-1.475.075-1.475-.075-1.46-.215-1.43-.36-1.392-.497-1.336-.633-1.268-.76-1.185-.876-.377-.34-.714-.654-.655-.715-.339-.376-.88-1.189-.76-1.264-.068-.147-.565-1.193-.5-1.392-.357-1.43v-.011l-.215-1.449-.075-1.475.075-1.475.215-1.467.357-1.43.5-1.389.633-1.336.76-1.268.873-1.185.346-.376.65-.715 18.634-18.637 3.293-3.293 7.337-7.341L9.652 30.753 9 30.038l-.339-.376-.88-1.19-.76-1.271-.068-.14-.565-1.192-.5-1.392-.357-1.43-.215-1.468-.026-.508-.05-.963.076-1.475.215-1.46.365-1.434.492-1.388.565-1.193.071-.143.753-1.268.884-1.185.158-.18.18-.2.652-.715.718-.651.377-.343 1.185-.876 1.268-.76 1.336-.633 1.392-.496 1.43-.361 1.46-.215 1.475-.075.963.049.512.026.602.087.862.128 1.43.36 1.392.497 1.336.633 1.268.76 1.185.876 1.091.994 29.271 29.267L80.31 18.629l9.162-9.162 1.091-.994 1.19-.876.376-.222.891-.538 1.336-.633 1.392-.496 1.43-.361 1.464-.215.79-.038.685-.037 1.475.075 1.46.215 1.43.36 1.392.497 1.336.633 1.268.76 1.185.876.377.343.549.5.17.15.65.716.177.2.166.18.876 1.185.76 1.268.633 1.336.496 1.388.361 1.43.215 1.464.075 1.475-.075 1.475-.215 1.464-.36 1.43m-96.885-1.705 4.688-4.685.045-.045.591-.594L33.61 28.1l10.63 10.634-5.321 5.32L22.965 28.1l-.599-.598-1.708-1.708-3.025-3.022m85.14 74.492-5.324 5.325-5.324-5.325L76.17 81.31l5.32-5.324 21.283 21.278m-10.645 10.649v.004l.116.113.7.632.892.658.948.572 1.005.474 1.042.373 1.072.267 1.1.166.424.018.685.038 1.107-.056 1.09-.166 1.08-.267 1.047-.373 1-.474.953-.572.888-.658.824-.745.745-.824.658-.885.572-.955.474-1.001.373-1.046.086-.35.18-.723.167-1.098.052-1.107-.052-1.11-.166-1.095-.267-1.076-.376-1.042-.47-1.005-.573-.948-.658-.892-.632-.7-.113-.12-.004.004h-.008L83.602 67.452l-4.771-4.772-2.66-2.66 31.927-31.927.004.007.745-.82.658-.892.358-.594.214-.354.474-1.005.373-1.042.267-1.076.166-1.091.052-1.114-.052-1.103-.14-.922-.026-.176-.267-1.077-.376-1.046-.47-1-.573-.953-.658-.888-.745-.824-.828-.745-.884-.658-.565-.339-.387-.233-1.001-.474-1.046-.377-1.08-.263-1.091-.166-1.107-.052-.685.03-.425.022-1.099.166-1.072.263-1.042.377-1.005.474-.387.233-.565.339-.888.658-.82.742v.003l.004.004v.008L70.846 33.409 60.205 44.054l-7.432-7.431-3.21-3.214-5.312-5.305-15.966-15.97-.004-.007h.004l-.004-.007-.12-.11-.696-.632-.892-.658-.564-.339-.384-.233-1.005-.474-1.042-.377-1.076-.263-.136-.019-.96-.15-1.11-.05-1.106.053-1.094.166-1.077.263-1.046.377-1 .474-.392.233-.564.339-.885.658-.824.745-.745.828-.658.884-.572.952-.474 1.001-.377 1.046-.263 1.077-.026.176-.14.922-.052 1.103.052 1.11.166 1.091.263 1.08.377 1.042.474 1.005.214.354.358.594.658.892.632.696.113.12v.004l.004-.007L44.24 60.02 33.6 70.665 12.318 91.94l-.007.004h-.007l-.742.816-.658.892-.572.948-.474 1.005-.377 1.042-.263 1.076-.166 1.095L9 99.928l.052 1.107.166 1.098.18.723.087.35.376 1.046.47 1 .573.956.658.885.745.827.828.742.884.658.64.384.312.188 1.001.474 1.046.373 1.077.267 1.094.166 1.107.052 1.11-.052.96-.143.135-.023 1.076-.267 1.042-.373 1.005-.474.948-.572.892-.658.816-.745h.004l-.004-.008 21.283-21.282 10.641-10.641 31.924 31.923m-69.172-5.32-5.324-5.325 5.328-5.324 15.954-15.954 5.324 5.324-15.954 15.954-5.328 5.325m74.492-85.141 1.98 1.979 3.345 3.349-3.018 3.018-.328.327-1.979 1.98-5.324 5.32L81.49 44.054l-5.32-5.32L92.125 22.78l5.324-5.332"/>
    <path fill="#f9f9f9" d="M19.078 111.05c-5.7-.648-9.93-5.37-9.93-11.085 0-2.926.934-5.317 2.97-7.63.64-.722 8.155-8.304 16.702-16.843l15.543-15.527L27.82 43.402C9.797 25.363 10.47 26.094 9.672 23.586c-1.969-6.203 1.574-12.617 7.933-14.36 1.305-.359 4.008-.355 5.317 0 1.367.376 2.582.915 3.613 1.602.574.383 6.758 6.453 17.274 16.953l16.379 16.356 16.3-16.278c8.969-8.953 16.637-16.511 17.047-16.8a12.5 12.5 0 0 1 3.727-1.77c1.62-.46 4.082-.46 5.734.004 3.809 1.066 6.867 4.129 7.938 7.934.46 1.656.464 4.117.004 5.738a12.6 12.6 0 0 1-1.77 3.726c-.29.407-7.852 8.079-16.805 17.043L76.086 60.04l16.363 16.379c16.98 16.996 17.125 17.148 17.977 19.187.625 1.489.836 2.594.836 4.36 0 1.168-.082 2-.262 2.656-1.75 6.379-8.27 9.953-14.418 7.906-2.52-.84-1.77-.152-19.762-18.12L60.258 75.862 44.73 91.406c-8.539 8.547-16.117 16.063-16.843 16.703-2.547 2.246-5.692 3.297-8.809 2.942M33.68 91.942l10.683-10.683-2.699-2.7-2.7-2.695-10.718 10.719-10.719 10.723 2.657 2.66c1.464 1.465 2.695 2.664 2.738 2.664.039 0 4.883-4.809 10.758-10.688m66.468 8.063c1.446-1.442 2.63-2.692 2.63-2.774s-4.794-4.94-10.65-10.793L81.48 75.79l-2.66 2.66c-1.465 1.461-2.664 2.727-2.664 2.809 0 .144 21.149 21.37 21.293 21.37.04 0 1.254-1.179 2.7-2.624m-58.37-58.598 2.66-2.664L33.79 28.099C27.935 22.243 23.08 17.45 22.993 17.45c-.082 0-1.344 1.2-2.808 2.664l-2.657 2.66 10.645 10.649c5.855 5.855 10.715 10.644 10.797 10.644s1.343-1.195 2.808-2.66m50.425-7.984 10.645-10.649-2.7-2.699-2.695-2.699-21.367 21.367 2.66 2.664c1.461 1.465 2.692 2.66 2.734 2.66.043 0 4.868-4.789 10.723-10.644m0 0"/>
</svg>
