<svg xmlns="http://www.w3.org/2000/svg" width="120" height="120" viewBox="0 0 120 120">
    <path stroke="red" stroke-width=".015" d="m69.988 112.997-1.19.88-1.263.76-1.336.633-1.392.496-1.43.358-1.464.218-1.475.075-1.475-.075-1.46-.218-.467-.113-.967-.245-1.392-.496-1.336-.633-1.264-.76-1.189-.88-.369-.331-.722-.659-.655-.722-.339-.373-.88-1.189-.76-1.264-.632-1.336-.497-1.392-.357-1.434-.219-1.46-.06-1.241-.011-.23v-41.39l.071-1.476.219-1.46.357-1.433.497-1.393.632-1.332.76-1.268.88-1.185.34-.376.496-.546.158-.173.718-.655.373-.338 1.19-.88 1.263-.761 1.336-.628 1.392-.5.967-.242.467-.113 1.46-.222 1.475-.071 1.475.075 1.46.215 1.434.357 1.392.5 1.336.629 1.264.76 1.189.88.373.34.714.654.659.719.339.376.376.508.504.677.76 1.268.632 1.332.497 1.393.357 1.43.219 1.463.071 1.475v41.391l-.011.23-.06 1.241-.219 1.464-.357 1.43-.497 1.396-.632 1.336-.76 1.264-.504.677-.376.512-.34.376-.5.546-.154.173-.718.65-.373.34M49.15 59.983v41.372h-.008v.007l.011.237.042.862.162 1.099.27 1.076.373 1.046.474 1 .572.953.659.892.745.82.82.752.892.655.952.572 1 .474.922.328.12.045 1.077.27 1.099.162 1.106.06 1.106-.06 1.099-.161 1.076-.271 1.024-.365.018-.008 1.001-.474.952-.572.892-.658.82-.75.745-.82.663-.891.568-.952.474-1.001.376-1.046.267-1.076.162-1.099.042-.865.01-.234v-.007h-.007V59.986h.008v-.01l-.053-1.1-.162-1.098-.27-1.076-.377-1.043-.47-1.004-.568-.952-.663-.892-.745-.82-.82-.746-.892-.662-.952-.572-1-.474-.02-.007-1.023-.365-1.076-.271-1.099-.162-1.106-.057-1.106.053-1.099.162-1.076.27-.12.042-.922.331-1.001.475-.952.571-.892.663-.82.745-.745.82-.659.892-.572.952L50 55.655l-.373 1.043-.27 1.076-.162 1.099-.05 1.098-.003.012h.008m7.292 41.372V79.019h7.526v22.336Zm0 0"/>
    <path fill="#f9f9f9" d="M58.14 112.324c-3.48-.777-6.367-3.097-7.85-6.308-1.11-2.399-1.028-.57-1.08-24.407-.03-13.007.009-21.894.095-22.66.18-1.594.734-3.355 1.453-4.594.312-.546 1.133-1.542 1.89-2.304 1.13-1.13 1.555-1.446 2.743-2.028 1.96-.96 2.976-1.203 5.035-1.207 2.062 0 3.5.352 5.222 1.286a11.54 11.54 0 0 1 5.622 6.992l.34 1.187v44.727l-.337 1.152c-1.132 3.906-3.953 6.828-7.66 7.93-1.55.457-4.004.562-5.472.234m5.84-22.129V78.941h-7.55v22.512h7.55Zm0 0"/>
</svg>
