<svg xmlns="http://www.w3.org/2000/svg" width="120" height="120" viewBox="0 0 120 120">
    <path stroke="red" stroke-width=".015" d="m30.75 87.19 2.273-1.745.846-.647 3.628-1.505 3.894-.512 1.806.237 1.957.26.131.015 3.632 1.505 3.115 2.393.339.436 1.407 1.837.647.842 1.1 2.653.405.979.512 3.894-.512 3.894-.541 1.314-.557 1.34-.407.978-1.75 2.276-.643.84-3.115 2.392-3.632 1.505-.131.02-1.957.255-.76.098-1.046.14-3.894-.513-3.628-1.505-3.12-2.393-2.392-3.115-.572-1.378-.392-.94-.541-1.317-.512-3.891.512-3.894.933-2.25.165-.4.407-.978 1.753-2.284.64-.835m58.91 0 1.746 2.273.647.842 1.1 2.653.405.979.512 3.894-.512 3.894-.541 1.314-.964 2.318-2.393 3.115-.226.173-2.047 1.577-.842.643-2.653 1.1-.979.405-3.894.512-3.894-.512-1.103-.459-2.529-1.046-3.115-2.393-2.393-3.115-.96-2.318-.14-.335-.405-.979-.377-2.848-.135-1.046.372-2.837.14-1.057 1.098-2.65.407-.978 2.393-3.123 3.115-2.39 2.529-1.05.124-.048.979-.406 2.848-.377 1.046-.135 2.837.376 1.057.136 2.65 1.098.978.407 2.893 2.22.226.173M74.744 56.31l.064.492.309 2.356.14 1.046-.377 2.837-.136 1.054-1.098 2.653-.407.982-1.75 2.28-.639.835-1.787 1.37-1.332 1.023-3.632 1.505-3.894.512-3.894-.512-3.632-1.505-1.332-1.023-1.783-1.37-2.393-3.115-1.505-3.632-.14-1.053-.372-2.841.451-3.402.064-.492 1.099-2.65.406-.978 1.75-2.284.64-.835 3.123-2.393 3.627-1.505 2.3-.301.549-.076 1.042-.135 2.837.376 1.054.136 2.653 1.098.982.407 3.115 2.393 2.393 3.115 1.505 3.632m-44.258 44.442.949 2.288.18.436 1.795 2.333 2.333 1.799 2.728 1.129 2.92.383 1.806-.237 1.114-.146.843-.35 1.881-.78 2.333-1.794 1.799-2.337.18-.436.949-2.288.383-2.92-.383-2.92-1.13-2.724-1.794-2.337-2.337-1.795L46 87.627l-.846-.35-.843-.35-1.114-.15-1.806-.233-2.92.383-2.724 1.13-2.333 1.794-1.799 2.333-1.129 2.728-.383 2.92.383 2.92M76.1 86.927l-2.077.862-.647.267-2.333 1.795-1.799 2.333-1.129 2.728-.383 2.92.383 2.92.949 2.288.18.436 1.795 2.333 2.337 1.799.647.263 2.077.866 2.92.383 2.92-.383 2.724-1.13L87 105.814l1.795-2.337.18-.436.46-1.107.489-1.181.383-2.92-.383-2.92-.49-1.178-.64-1.546L87 89.85l-2.333-1.795-2.728-1.129-2.92-.383-2.92.383m-15.894-38.01-1.595.207-1.325.176-2.724 1.13-2.337 1.794-1.795 2.337-1.129 2.724-.383 2.92.383 2.92 1.13 2.724 1.794 2.337 2.337 1.795 2.724 1.129 1.325.176 1.595.207 2.92-.383 2.724-1.13 2.337-1.794 1.795-2.337 1.129-2.724.383-2.92-.383-2.92-1.13-2.724-1.794-2.337-2.337-1.795-2.724-1.129Zm0 0"/>
    <path fill="#f9f9f9" d="M58.504 71.215c-1.832-.262-3.441-.957-5.047-2.176-.98-.742-1.328-1.09-2.082-2.074-.766-.996-.992-1.39-1.457-2.528-.477-1.164-.578-1.535-.746-2.78-.195-1.403-.195-1.473-.004-2.891.172-1.29.258-1.606.758-2.817.476-1.14.71-1.55 1.457-2.52.722-.937 1.11-1.324 2.047-2.046.968-.746 1.379-.98 2.52-1.457 1.21-.5 1.527-.586 2.823-.758 1.457-.195 1.461-.195 3 .031 1.336.196 1.707.297 2.782.75 1.812.77 3.277 1.914 4.496 3.512.746.98.984 1.398 1.453 2.535.496 1.203.582 1.52.746 2.793.176 1.36.176 1.504.008 2.824-.16 1.23-.246 1.547-.762 2.801-.496 1.203-.71 1.578-1.473 2.57-1.242 1.61-2.632 2.684-4.496 3.477-1.129.48-1.511.586-2.675.754-1.61.234-1.723.234-3.348 0M39.79 108.863c-1.048-.144-1.485-.265-2.618-.734-1.133-.465-1.547-.703-2.508-1.438-.93-.71-1.324-1.105-2.062-2.05-.77-.993-.997-1.383-1.485-2.547-.515-1.23-.594-1.524-.765-2.817-.184-1.394-.184-1.496 0-2.882.168-1.278.25-1.59.753-2.801.477-1.145.711-1.551 1.461-2.528.73-.949 1.11-1.328 2.059-2.058.973-.746 1.387-.985 2.516-1.453 1.191-.496 1.527-.586 2.797-.758 1.406-.188 1.484-.188 2.894 0 1.29.168 1.605.254 2.824.762 1.164.48 1.547.703 2.524 1.464 1.652 1.286 2.668 2.618 3.484 4.563.535 1.277.61 1.547.773 2.84.172 1.351.172 1.496 0 2.824-.16 1.219-.253 1.57-.746 2.781-.48 1.18-.695 1.555-1.464 2.559-1.243 1.62-2.622 2.687-4.516 3.5-1.172.5-1.488.586-2.781.77-1.657.23-1.48.23-3.14 0Zm37.589-.011c-1.102-.157-1.516-.274-2.637-.747-1.09-.457-1.539-.718-2.488-1.449-.969-.738-1.313-1.086-2.074-2.09-.754-.992-1.012-1.433-1.457-2.511-.477-1.145-.567-1.485-.739-2.762-.191-1.414-.191-1.496-.004-2.902.165-1.223.266-1.625.676-2.621.64-1.555.625-1.528 1.63-2.817 1.234-1.578 2.644-2.648 4.507-3.41 1.16-.477 1.52-.574 2.785-.746 1.41-.188 1.484-.192 2.899 0 1.265.168 1.617.262 2.757.73 1.079.446 1.516.696 2.5 1.442 1 .761 1.34 1.097 2.11 2.101.773 1.008 1.008 1.41 1.46 2.512.458 1.11.571 1.527.743 2.723.195 1.347.195 1.476.035 2.824-.156 1.27-.23 1.558-.758 2.86-.511 1.265-.699 1.593-1.484 2.613-.723.933-1.125 1.335-2.063 2.062-.976.754-1.375.984-2.504 1.453-1.171.485-1.53.582-2.757.746-1.653.227-1.473.227-3.137-.011m0 0"/>
</svg>
