<svg xmlns="http://www.w3.org/2000/svg" width="120" height="120" viewBox="0 0 120 120">
    <path stroke="red" stroke-width=".015" d="m116 55.835.24.967.114.467.222 1.46.071 1.475-.075 1.475-.218 1.46-.358 1.434-.497 1.392-.632 1.336-.76 1.264-.88 1.189-.339.365-.655.726-.715.655-.376.339-.508.376-.677.504-1.268.76-1.336.632-1.392.497-1.43.357-1.468.219-1.467.075h-26.34v26.34l-.075 1.467-.218 1.468-.358 1.43-.496 1.392-.633 1.335-.76 1.265-.88 1.189-.339.376-.007.004-.493.542-.15.169-.73.658-.366.335-1.189.88-1.264.761-1.336.632-1.392.497-.967.24-.467.114-1.46.222-1.471.071-1.475-.075-1.46-.218-1.434-.358-1.392-.497-1.336-.632-1.264-.76-1.189-.88-.369-.339-.722-.655-.647-.703-.008-.008-.339-.376-.376-.504-.504-.678-.76-1.268-.632-1.336-.497-1.392-.354-1.43-.222-1.467-.075-1.468V75.255H18.81l-1.467-.075-1.464-.218-1.433-.358-1.393-.496-1.335-.633-1.265-.76-.677-.504-.512-.376-.376-.339-.546-.5-.169-.15-.658-.73-.335-.366-.88-1.189-.761-1.264-.632-1.336-.497-1.392-.357-1.43-.219-1.468-.071-1.467.075-1.475.218-1.46.113-.467.245-.967.497-1.392.632-1.336.76-1.264.88-1.189.339-.369.655-.722.715-.655.376-.339 1.189-.88 1.264-.76 1.336-.632 1.392-.497 1.434-.354 1.46-.222 1.471-.071h26.34v-26.34l.075-1.467.218-1.464.354-1.434.497-1.392.632-1.336.76-1.264.504-.677.376-.512.34-.376.007-.004.489-.542.158-.17.722-.658.369-.335 1.19-.88 1.263-.76 1.336-.632 1.392-.497 1.43-.358 1.468-.218 1.467-.075 1.479.075 1.46.218.467.113.967.245 1.392.497 1.336.632 1.264.76 1.189.88.365.339.726.655.647.71.008.008.339.377.88 1.185.76 1.264.632 1.336.497 1.392.357 1.434.219 1.46.071 1.471v26.34h26.34l1.467.075 1.468.218 1.43.354 1.392.497 1.336.632 1.264.76 1.189.88.376.34.546.496.17.158.658.722.335.369.88 1.19.76 1.263.632 1.336.497 1.392M63.968 18.821V41.39h-7.526V18.82h7.526m0 82.767h-7.526V79.018h7.526v22.57m-15.051-22.57v22.57h-.008v.01l.008.147.045.949.162 1.098.27 1.076.373 1.043.474 1.004.572.952.659.892.745.82.82.745.892.663.952.572 1 .474.02.004 1.023.368 1.076.271 1.099.162 1.106.056 1.106-.056 1.099-.162 1.076-.27.12-.042.922-.331.998-.474.955-.572.888-.663.82-.745.75-.82.658-.892.572-.952.474-1.004.376-1.043.264-1.076.165-1.098.045-.949.008-.15v-.008h-.008V71.492h30.095v.008h.012l1.095-.053 1.098-.162 1.076-.27 1.043-.373 1.004-.474.952-.572.892-.659.82-.748.745-.82.663-.889.572-.955.474-.998.004-.018.368-1.024.271-1.076.162-1.099.056-1.106-.056-1.106-.162-1.099-.27-1.076-.042-.12-.331-.922-.474-1.001-.572-.952-.663-.892-.745-.82-.82-.745-.892-.659-.952-.572-1.004-.474-1.043-.373-1.076-.27-1.098-.162-1.095-.053h-.012v.008H71.493V18.82h.008v-.008l-.008-.15-.045-.949-.162-1.098-.27-1.076-.373-1.039-.474-1.008-.572-.952-.659-.892-.748-.82-.82-.745-.889-.663-.955-.572-.998-.474-.921-.327-.12-.045-1.077-.271-1.099-.162-1.106-.056-1.106.056L58 7.732l-1.076.27-1.024.37h-.018l-1.001.477-.952.572-.892.663-.82.745-.745.82-.659.892-.572.952-.474 1.008-.373 1.039-.27 1.076-.162 1.098-.045.949-.008.15v.008h.008v30.095H18.822v-.008h-.008l-1.099.053-1.098.162-1.076.27-1.039.373-1.008.474-.952.572-.892.659-.82.745-.745.82-.663.892-.572.952-.474 1-.327.922-.045.12L7.733 58l-.162 1.099-.056 1.106.056 1.106.162 1.099.27 1.076.37 1.024v.018l.477.998.572.955.663.888.745.82.82.75.892.658.952.572 1.008.474 1.039.376 1.076.264 1.098.165 1.1.053h.007v-.008h30.095v7.526M18.822 63.967V56.44H41.39v7.526H18.82m82.767-7.526v7.526H79.02V56.44Zm0 0"/>
    <path fill="#f9f9f9" d="M58.797 112.719c-4.34-.606-7.922-3.645-9.356-7.934l-.343-1.039-.043-16.176-.04-16.175-16.175-.04-16.18-.043-1.035-.343c-3-1.004-5.328-2.961-6.738-5.672-.875-1.68-1.219-3.117-1.219-5.094 0-4.953 3.094-9.137 7.957-10.762l1.035-.343 16.18-.043 16.176-.04.039-16.175.043-16.18.343-1.035c1.27-3.805 4.168-6.59 7.957-7.645 1.637-.457 3.977-.457 5.614 0 3.789 1.055 6.687 3.84 7.957 7.645l.344 1.035.042 16.18.04 16.176 16.175.039 16.176.043 1.188.402c3.742 1.277 6.445 4.129 7.5 7.922.449 1.601.449 3.96 0 5.566-1.055 3.79-3.758 6.645-7.5 7.922l-1.188.403-16.176.042-16.175.04-.04 16.175-.043 16.176-.343 1.04c-1.531 4.589-5.457 7.683-10.114 7.968-.683.043-1.609.027-2.058-.035m5.183-22.45V78.942h-7.55v22.66h7.55ZM41.47 60.204V56.43H18.81v7.55h22.66Zm60.133 0V56.43h-22.66v7.55h22.66ZM63.98 30.141V18.809h-7.55v22.66h7.55Zm0 0"/>
</svg>
