<svg xmlns="http://www.w3.org/2000/svg" width="120" height="120" viewBox="0 0 120 118">
    <path stroke="red" stroke-width=".004" d="m81.048-82.84-.04-.16h-4.132v4.132l.16.04.371.132.355.168.336.202.316.234.098.089.157.142.036.033.003.004.17.188.09.099.234.315.202.336.168.355.132.37.095.381.058.388.019.392-.019.392-.058.388-.095.38-.04.112-.092.26-.168.354-.202.336-.234.316-.09.099-.173.19-.192.175-.1.09-.315.234-.336.202-.355.169-.37.131-.16.04V-67h16v-4.131l-.162-.04-.37-.132-.354-.17-.337-.201-.315-.234-.099-.09-.146-.132-.046-.042-.174-.191-.09-.099-.234-.316-.149-.247-.053-.089-.167-.355-.093-.26-.04-.11-.095-.381-.058-.388-.02-.392.02-.392.058-.388.095-.38.133-.371.167-.355.202-.336.234-.315.09-.1.17-.187.004-.004.19-.172.1-.092.316-.234.337-.202.354-.168.37-.132.161-.04V-83h-4.132l-.04.16-.132.371-.168.355-.202.336-.234.316-.089.099-.142.156-.032.035-.192.174-.099.09-.316.234-.246.148-.09.054-.355.167-.37.133-.02.005-.361.09-.388.058-.392.019-.392-.02-.389-.058-.38-.094-.37-.133-.354-.167-.09-.054-.247-.148-.315-.234-.1-.09-.191-.174-.128-.14-.044-.05-.092-.1-.235-.316-.2-.336-.168-.355-.133-.37m.826-1.16.002.039.012.252.032.217.01.075.073.286.1.277.125.267.152.253.175.237.198.218.149.135.069.063.237.176.253.152.266.126.24.085.038.014.285.072.292.043.294.014.294-.014.292-.043.286-.072.268-.096.009-.003.267-.126.252-.152.237-.176.071-.065.147-.133.198-.218.177-.237.15-.253.126-.267.052-.147.048-.13.07-.286.044-.292.012-.236.002-.056h5.998v5.997L93.82-78l-.236.012-.292.043-.286.072-.137.05-.14.049-.267.126-.253.152-.237.175-.218.198-.199.218-.175.237-.152.253-.126.266-.1.277-.024.097-.047.19-.043.29-.014.295.014.294.043.292.071.286.1.277.059.123.067.143.152.253.175.237.064.07.135.149.218.197.237.175.253.152.268.126.276.1.286.07.292.044.292.014V-66h-18v-5.998l.292-.014.292-.043.287-.072.277-.1.266-.125.252-.152.238-.175.218-.197.199-.219.175-.237.152-.253.068-.143.057-.123.1-.277.072-.286.043-.292.015-.294-.015-.294-.043-.293-.048-.188-.024-.097-.1-.277-.125-.266-.152-.253-.175-.237-.199-.218-.218-.198-.238-.175-.252-.152-.266-.126-.14-.05-.137-.05-.287-.071-.292-.043-.292-.015V-84h5.998" transform="matrix(3.7298 0 0 3.7001 -256.893 336.708)"/>
    <path fill="#f9f9f9" d="M29.95 81.145v-7.543l.843-.266c3.852-1.2 7.488-4.508 9.09-8.273.887-2.086 1.14-3.38 1.14-5.86 0-1.75-.066-2.433-.316-3.426-.719-2.828-2.133-5.27-4.176-7.215-1.758-1.667-3.738-2.874-5.738-3.496l-.844-.261V29.71h15.219l.187.617c.274.926 1.227 2.89 1.864 3.852.867 1.297 2.773 3.183 4.117 4.07 1.394.922 3.441 1.793 5.121 2.184 1.7.394 4.973.37 6.668-.051 2.852-.707 5.316-2.113 7.273-4.145 1.684-1.742 2.899-3.707 3.528-5.691l.265-.836h15.215v15.098l-.625.183c-.93.274-2.914 1.219-3.883 1.852-1.308.86-3.207 2.75-4.105 4.082-1.676 2.5-2.473 5.168-2.473 8.277 0 3.106.797 5.774 2.473 8.274.898 1.332 2.797 3.226 4.105 4.082.97.632 2.954 1.578 3.883 1.851l.625.184V88.69H29.95Zm0 0"/>
</svg>
