<svg xmlns="http://www.w3.org/2000/svg" width="120" height="120" viewBox="0 0 120 120">
    <path stroke="red" stroke-width=".015" d="m111.568 90.387.876 1.181.76 1.268.633 1.336.496 1.389.361 1.43.215 1.467.038.786.037.689-.075 1.475-.215 1.46-.36 1.43-.497 1.392-.633 1.34-.76 1.264-.876 1.185-.347.377-.647.718-.715.651-.376.339-1.189.88-1.272.76-1.332.633-1.392.496-1.28.324-.15.037-1.46.215-1.475.075-.689-.037-.79-.038-1.46-.215-1.433-.36-1.389-.497-1.336-.633-.895-.534-.376-.226-1.182-.876-1.091-.994-14.224-14.216-2.472-2.472H47.442l-16.688 16.688-.715.651-.376.339-1.19.88-1.271.76-1.332.633-1.392.496-1.43.361-.866.128-.602.087-1.467.075-1.479-.075-1.46-.215-1.434-.36-1.388-.497-1.336-.633-1.268-.76-1.185-.876-.377-.34-.714-.654-.655-.715-.343-.376-.876-1.189-.76-1.264-.068-.147-.565-1.193-.496-1.392-.361-1.43-.215-1.46-.075-1.475.037-.689.038-.79.215-1.46.36-1.433.497-1.389.633-1.336.76-1.268.876-1.185.343-.376.65-.715 14.217-14.224 2.472-2.472V47.442L9.468 30.754l-.651-.715-.343-.376-.876-1.19-.76-1.271-.068-.14-.565-1.192-.496-1.392-.361-1.43-.215-1.468-.075-1.467.075-1.479.215-1.46.36-1.434.497-1.388.565-1.193.068-.143.76-1.268.876-1.185.343-.377.65-.714.716-.655.38-.343 1.185-.876 1.268-.76.143-.068 1.193-.565 1.388-.496 1.43-.361 1.464-.215 1.475-.075 1.475.075 1.464.215 1.43.36 1.392.497 1.193.565.146.068.892.538.373.225 1.185.873 1.095.994 16.688 16.688h25.154l7.53-7.526 9.162-9.162 1.095-.994 1.185-.876.377-.222.891-.538.143-.068 1.193-.565 1.389-.496 1.43-.361 1.467-.215 1.475-.075 1.475.075 1.46.215 1.43.36 1.392.497 1.193.565.147.068 1.264.76 1.185.876.377.343.549.5.17.15.65.716.339.38.88 1.185.76 1.268.633 1.336.496 1.388.361 1.43.215 1.464.075 1.475-.075 1.475-.087.602-.128.862-.36 1.43-.497 1.392-.633 1.34-.534.891-.226.373-.876 1.185-.994 1.095-9.162 9.162-5.054 5.054-2.472 2.472v25.154l2.472 2.476 5.054 5.054 9.162 9.162.651.715.339.38m-67.509-9.072-2.664 2.664-13.29 13.29-1.98 1.98-3.348 3.348-5.324-5.328 5.328-5.324 15.958-15.954 5.32 5.324m-7.984-39.923L25.43 30.754l-7.978-7.977.591-.595 4.14-4.139.59-.594 4.73 4.733.602.595 2.649 2.653 5.32 5.324 7.978 7.98-5.317 5.321-2.664-2.664m42.58-5.32 13.884-13.885 4.73-4.737 5.325 5.324-5.325 5.328-5.324 5.32-10.63 10.634-5.324-5.32 2.664-2.664M66.726 56.604l.727 2.24v2.355l-.727 2.239-1.384 1.904-1.904 1.384-2.24.727h-2.355l-2.239-.727-1.904-1.384-1.384-1.904-.727-2.24v-2.355l.727-2.239L54.7 54.7l1.904-1.384 2.24-.727h2.355l2.239.727 1.904 1.384 1.384 1.904m14.585 19.379 21.279 21.282-5.325 5.325-3.341-3.35-1.983-1.975-15.954-15.954Zm0 0"/>
    <path fill="#f9f9f9" d="m78.7 41.344-2.583-2.586 10.594-10.594L97.3 17.57l5.168 5.168L81.28 43.926Zm-20.993 25.64c-4.723-1.644-6.512-7.226-3.617-11.277 1.308-1.828 3.703-3.07 5.93-3.07 2.246 0 4.687 1.277 5.992 3.136 2.285 3.247 1.554 7.801-1.621 10.137-2.008 1.473-4.422 1.863-6.684 1.074M86.672 91.84 76.117 81.285l5.164-5.172 21.188 21.188-2.543 2.547c-1.403 1.402-2.582 2.55-2.621 2.55-.043 0-4.828-4.753-10.633-10.558m-66.555 8.008L17.57 97.3l10.598-10.594 10.594-10.594 5.164 5.172L33.367 91.84c-5.804 5.805-10.59 10.558-10.629 10.558-.043 0-1.222-1.148-2.62-2.55m8.046-66.516L17.57 22.738l2.586-2.582 2.582-2.582 10.594 10.59 10.594 10.594-5.168 5.168Zm0 0"/>
</svg>
