<svg xmlns="http://www.w3.org/2000/svg" width="120" height="120" viewBox="0 0 120 120">
    <path stroke="red" stroke-width=".015" d="M52.683 94.07h-7.714v-.15l-.087-1.686-.15-.993-.12-.836-.448-1.79-.621-1.743-.79-1.667-.952-1.588-.064-.083-.113-.158-.9-1.215-.022-.03-1.242-1.37-1.366-1.238-1.49-1.102-1.584-.952-1.67-.79-.332-.12-1.41-.501-.915-.23-.873-.218-1.167-.173-.662-.098-1.64-.083h-.196V26.34h67.73v48.916h-.15l-1.686.087-1.825.27-.862.215-.933.233-1.742.621-1.67.79-1.581.952-.245.177-1.245.922-1.37 1.242-1.238 1.366-.079.113-.96 1.29-.063.087-.952 1.58-.79 1.675-.621 1.738-.448 1.791-.124.836-.05.33-.097.663-.083 1.637v.2H52.683"/>
    <path fill="#f9f9f9" d="M58.504 78.8c-2.41-.558-4.281-2.073-5.285-4.288-.657-1.45-.63-.82-.598-14.567l.027-12.523.309-.879a7.66 7.66 0 0 1 5.547-4.93c.766-.172 2.398-.144 3.262.055.914.21 2.25.887 2.992 1.516a7.63 7.63 0 0 1 2.48 3.937c.2.777.207 1.219.207 13.098-.004 13.46.024 12.867-.625 14.293a7.57 7.57 0 0 1-4.574 4.09c-1.012.328-2.777.421-3.742.199m3.105-3.843c1.18-.55 1.97-1.586 2.176-2.863.14-.856.14-23.051 0-23.79-.25-1.312-1.004-2.292-2.195-2.859-.594-.28-.793-.324-1.57-.324-.774 0-.973.043-1.567.324-1.195.567-1.945 1.547-2.195 2.86-.14.734-.145 22.933-.004 23.78.23 1.411 1.016 2.38 2.394 2.962.829.348 2.106.308 2.961-.09m0 0"/>
    <path fill="#f9f9f9" d="M58.242 56.414v-7.477h3.555v14.954h-3.555Zm0 0"/>
</svg>
