<svg xmlns="http://www.w3.org/2000/svg" width="120" height="120" viewBox="0 0 120 120">
    <path stroke="red" stroke-width=".015" d="M52.683 26.34h41.202v48.916h-.15l-1.686.087-1.825.27-.862.215-.933.233-1.742.621-1.67.79-1.581.952-.087.06-.158.117-1.245.922-1.37 1.242-1.238 1.366-1.038 1.403-.064.087-.952 1.58-.79 1.675-.621 1.738-.226.918-.222.873-.173 1.167-.098.662-.083 1.637v.2H44.97v-.151l-.087-1.686-.064-.433-.082-.56-.125-.836-.447-1.79-.621-1.743-.79-1.667-.952-1.588-.064-.083-.113-.158-.922-1.245-1.242-1.37-1.366-1.238-.978-.726-.512-.376-1.584-.952-1.67-.79-1.743-.621-.914-.23-.873-.218-1.167-.173-.662-.098-1.64-.083h-.196V26.34h26.528"/>
    <path fill="#f9f9f9" d="M57.879 78.59c-1.504-.488-2.633-1.32-3.625-2.676-.621-.848-.777-1.156-1.086-2.133-.313-.984-.363-1.285-.363-2.183 0-.895.05-1.203.363-2.203.312-.989.469-1.31 1.05-2.106.958-1.324 2.16-2.203 3.708-2.719.996-.332 1.215-.367 2.254-.363 1.015 0 1.277.043 2.261.356 2.274.726 3.989 2.41 4.743 4.66.34 1.015.367 1.195.363 2.351 0 1.137-.031 1.36-.344 2.313-.73 2.246-2.414 3.933-4.683 4.699-1.004.336-1.16.36-2.336.352-1.118-.008-1.38-.051-2.305-.348M46.426 56.066c-2.293-.812-3.86-2.425-4.637-4.777-.336-1.016-.383-1.273-.383-2.195s.047-1.18.383-2.196c.781-2.37 2.45-4.05 4.766-4.808 1.004-.328 1.242-.367 2.258-.367 1 0 1.269.043 2.242.347 2.27.723 4.062 2.485 4.77 4.7.296.921.327 1.148.327 2.351 0 1.211-.03 1.422-.328 2.324a7.26 7.26 0 0 1-2.66 3.61c-.742.543-1.144.75-2.027 1.043-1.024.34-1.192.367-2.356.363-1.172-.008-1.328-.035-2.355-.395m22.66.039c-1.48-.492-2.66-1.351-3.602-2.62-.597-.801-.757-1.118-1.093-2.141-.352-1.067-.395-1.324-.395-2.25 0-.922.043-1.18.379-2.196.781-2.367 2.426-4.039 4.738-4.808.996-.332 1.215-.367 2.254-.367 1.012 0 1.281.043 2.262.351 2.3.723 4.082 2.489 4.781 4.742.29.93.328 1.2.328 2.282 0 1.078-.039 1.355-.324 2.285-.684 2.207-2.422 3.949-4.707 4.722-1 .336-1.16.36-2.336.352-1.129-.012-1.367-.047-2.285-.352m0 0"/>
</svg>
