<svg xmlns="http://www.w3.org/2000/svg" width="120" height="120" viewBox="0 0 120 118">
    <path stroke="red" stroke-width=".004" d="M76.003-84h17.995v12.997L93.94-71l-.065.004-.366.018-.486.071-.476.12-.462.164-.444.21-.42.254-.396.293-.363.329-.33.364-.02.028-.272.367-.253.421-.21.444-.165.463-.119.476-.072.486-.022.45-.002.038h-7.995L81-66.057l-.022-.431-.072-.486-.119-.476-.165-.463-.21-.444-.253-.421-.291-.395-.331-.364-.363-.329-.395-.293-.42-.253-.445-.21-.09-.032-.372-.133-.476-.118-.486-.073-.487-.025V-84m10.779 8.091.193.596v.626l-.193.595-.368.506-.506.369-.594.192h-.627l-.595-.192-.505-.369-.37-.506-.192-.595v-.626l.193-.596.369-.505.505-.368.595-.193h.627l.594.193.506.368.368.505" transform="matrix(3.7298 0 0 3.7001 -256.893 336.708)"/>
    <path fill="#f9f9f9" d="M57.77 66.074c-1.016-.344-1.106-.39-1.985-1.035-.855-.633-.96-.738-1.594-1.598-.652-.894-.683-.957-1.007-1.968l-.332-1.047v-2.45l.332-1.046c.324-1.012.355-1.075 1.007-1.965.633-.863.739-.969 1.594-1.602.89-.652.953-.687 2.02-1.039l1.101-.367h1.246l1.25.004 1.047.344c.996.328 1.09.375 1.992 1.023.907.652.977.719 1.633 1.621.664.914.696.973 1.031 2.012l.348 1.074v2.332l-.348 1.074c-.335 1.043-.367 1.102-1.03 2.012-.657.902-.727.969-1.634 1.621-.902.649-.996.696-1.992 1.024l-1.047.343-2.57-.007Zm0 0"/>
</svg>
