<svg xmlns="http://www.w3.org/2000/svg" width="120" height="120" viewBox="0 0 120 120">
    <path stroke="red" stroke-width=".015" d="M41.39 63.968H18.82v-7.526h22.57v7.526M17.338 45.229l1.475-.075h7.526V26.34h18.814v-7.526l.075-1.475.218-1.46.354-1.433.497-1.393.632-1.335.76-1.265.88-1.189.34-.376.496-.546.158-.169.722-.658.369-.335 1.19-.88 1.263-.761 1.336-.632 1.392-.497.967-.24.467-.117 1.46-.219 1.475-.071 1.475.075 1.46.218 1.434.358 1.392.497 1.336.632 1.264.76 1.189.88.365.339.726.655.655.715.339.376.376.508.504.681.76 1.264.632 1.336.497 1.392.357 1.434.219 1.46.071 1.471v7.526H94.07v18.814h7.526l1.467.075 1.468.218 1.43.354 1.392.497 1.336.632 1.264.76 1.189.88.365.34.59.533.136.12.012.016.647.707.335.369.88 1.19.76 1.263.632 1.336.497 1.392.358 1.43.218 1.468.075 1.467-.075 1.479-.218 1.46-.358 1.434-.15.417-.347.975-.632 1.336-.76 1.264-.88 1.189-.339.365-.655.726-.715.655-.376.339-1.189.88-1.264.76-1.336.632-1.392.497-1.43.357-1.468.219-1.467.075H94.07v18.814H75.255v7.526l-.075 1.467-.218 1.468-.358 1.43-.496 1.392-.633 1.335-.76 1.265-.504.677-.376.512-.339.376-.497.542-.158.173-.722.655-.369.338-1.189.88-1.264.761-1.336.632-1.392.497-1.43.357-1.468.219-1.467.071-1.475-.075-1.46-.218-.467-.113-.967-.245-1.392-.497-1.336-.632-1.264-.76-1.189-.88-.376-.339-.715-.655-.655-.715-.339-.376-.88-1.189-.76-1.264-.632-1.336-.497-1.392-.354-1.43-.222-1.468-.075-1.467V94.07h-18.81V75.256h-7.526l-1.475-.075-1.46-.218-1.433-.358-1.393-.496-1.335-.633-1.265-.76-1.189-.88-.376-.339-.546-.5-.169-.15-.658-.73-.335-.366-.88-1.189-.761-1.264-.632-1.336-.35-.974-.147-.414-.357-1.438-.219-1.46-.071-1.471.075-1.475.218-1.46.358-1.434.497-1.392.632-1.336.76-1.264.88-1.189.339-.369.64-.707.015-.015.722-.659.369-.335 1.189-.88 1.264-.76 1.336-.632 1.392-.497 1.434-.354 1.46-.222m61.676 11.217h22.57v7.526h-22.57v-7.526M56.441 41.391v-22.57h7.526v22.57H56.44m10.47 15.397.727 2.24v2.355l-.727 2.239-1.384 1.904-1.904 1.384-2.24.727h-2.355l-2.239-.727-1.904-1.384-1.384-1.904-.727-2.24v-2.355l.727-2.239 1.384-1.904 1.904-1.384 2.24-.727h2.355l2.239.727 1.904 1.384 1.384 1.904M63.967 79.02v22.566H56.44V79.019Zm0 0"/>
    <path fill="#f9f9f9" d="M18.883 60.203v-3.738H41.32v7.48H18.883Zm37.621-30.101V18.848h7.402v22.511h-7.402ZM79.09 60.203v-3.738h22.437v7.48H79.09Zm-21.219 7.02c-.996-.325-1.074-.364-1.992-1.032s-.988-.738-1.656-1.66c-.684-.941-.707-.984-1.059-2.09l-.363-1.125v-2.222l.363-1.125c.352-1.106.375-1.149 1.059-2.09.668-.922.738-.992 1.656-1.66.934-.68.98-.703 2.043-1.04l1.086-.343h2.398l1.086.344c1.059.336 1.106.36 2.04 1.039.917.668.988.738 1.66 1.664.683.945.706.988 1.058 2.09l.36 1.12v1.11l-.005 1.113-.359 1.125c-.355 1.106-.375 1.149-1.058 2.09-.668.922-.739.992-1.657 1.66-.933.68-.98.704-2.039 1.04l-1.086.343-1.25-.008-1.246-.007Zm-1.367 23.086V79.05h7.402v22.511h-7.402Zm0 0"/>
</svg>
