<svg xmlns="http://www.w3.org/2000/svg" width="120" height="120" viewBox="0 0 120 120">
    <path stroke="red" stroke-width=".015" d="M52.683 26.34h41.202v48.916h-.15l-1.686.087-1.825.27-.862.215-.113.026-.82.207-1.742.621-1.67.79-1.581.952-.245.177-1.245.922-.403.365-.967.877-1.238 1.366-1.038 1.403-.064.087-.952 1.58-.79 1.675-.621 1.738-.448 1.791-.124.836-.05.33-.097.663-.083 1.637v.2H44.97v-.151l-.087-1.686-.27-1.829-.448-1.79-.621-1.743-.53-1.121-.26-.546-.952-1.588-.064-.083-.113-.158-.922-1.245-1.242-1.37-1.366-1.238-1.49-1.102-1.584-.952-1.67-.79-1.743-.621-.914-.23-.873-.218-1.167-.173-.662-.098-1.64-.083h-.196V26.34h26.528"/>
    <path fill="#f9f9f9" d="M45.102 70.559v-4.567l.851-.168c3.676-.73 5.633-4.258 4.313-7.785-.59-1.574-2.434-3.121-4.055-3.398-1.223-.207-1.11.297-1.11-4.817V45.25h29.872v9.164l-.407.078c-2.476.485-3.773 1.399-4.656 3.29a5.687 5.687 0 0 0 4.192 8.05l.87.152v9.137h-9.16l-.085-.406c-.434-2.063-.715-2.61-1.915-3.703-2.23-2.04-5.675-1.95-7.828.203-.843.844-1.332 1.773-1.57 2.988l-.18.918h-9.132Zm0 0"/>
</svg>
