<svg xmlns="http://www.w3.org/2000/svg" width="120" height="120" viewBox="0 0 120 120">
    <path stroke="red" stroke-width=".015" d="m114.517 24.48-.47 1.314-.026.075-.633 1.332-.538.903-.222.369-.876 1.185-.994 1.095L81.491 60.02l10.634 10.634 18.633 18.633.651.715.339.38.88 1.185.76 1.268.633 1.336.496 1.389.361 1.43.215 1.467.023.512.052.963-.075 1.475-.215 1.449v.011l-.36 1.43-.497 1.392-.633 1.34-.76 1.264-.876 1.185-.34.377-.654.718-.718.651-.377.339-1.185.88-1.268.76-1.336.633-1.392.496-1.43.361-1.46.215-1.475.075-.689-.037-.274-.012-.512-.026-1.464-.215-1.43-.36-1.392-.497-1.336-.633-.895-.534-.373-.226-1.185-.876-1.091-.994L67.73 88.832l-7.526-7.526-29.267 29.267-.719.651-.376.339-1.185.88-1.268.76-1.336.633-1.392.496-1.43.361-.866.128-.598.087-1.475.075-1.475-.075-1.46-.215-1.43-.36-1.392-.497-1.336-.633-1.268-.76-1.185-.876-.377-.34-.714-.654-.655-.715-.339-.376-.88-1.189-.76-1.264-.068-.147-.565-1.193-.5-1.392-.357-1.43v-.011l-.215-1.449-.075-1.475.075-1.475.215-1.467.357-1.43.5-1.389.633-1.336.76-1.268.873-1.185.346-.376.65-.715 18.634-18.637 3.293-3.293 7.337-7.341L9.652 30.753 9 30.038l-.339-.376-.88-1.19-.76-1.271-.068-.14-.565-1.192-.5-1.392-.357-1.43-.215-1.468-.026-.508-.05-.963.076-1.475.215-1.46.365-1.434.492-1.388.565-1.193.071-.143.753-1.268.884-1.185.158-.18.18-.2.652-.715.718-.651.377-.343 1.185-.876 1.268-.76 1.336-.633 1.392-.496 1.43-.361 1.46-.215 1.475-.075.963.049.512.026.602.087.862.128 1.43.36 1.392.497 1.336.633 1.268.76 1.185.876 1.091.994 29.271 29.267L80.31 18.629l9.162-9.162 1.091-.994 1.19-.876.376-.222.891-.538 1.336-.633 1.392-.496 1.43-.361 1.464-.215.79-.038.685-.037 1.475.075 1.46.215 1.43.36 1.392.497 1.336.633 1.268.76 1.185.876.377.343.549.5.17.15.65.716.177.2.166.18.876 1.185.76 1.268.633 1.336.496 1.388.361 1.43.215 1.464.075 1.475-.075 1.475-.215 1.464-.36 1.43m-96.885-1.705 4.688-4.685.045-.045.591-.594L33.61 28.1l10.63 10.634-5.321 5.32L22.965 28.1l-.599-.598-1.708-1.708-3.025-3.022m85.14 74.492-5.324 5.325-5.324-5.325L76.17 81.31l5.32-5.324 21.283 21.278m-79.817 5.325-5.324-5.325 5.328-5.324 15.954-15.954 5.324 5.324-15.954 15.954-5.328 5.325m74.492-85.141 1.98 1.979 3.345 3.349-3.018 3.018-.328.327-1.979 1.98-5.324 5.32L81.49 44.054l-5.32-5.32L92.125 22.78l5.324-5.332"/>
    <path fill="#f9f9f9" d="m78.836 41.352-2.606-2.61 10.61-10.61 10.613-10.609 5.25 5.25-10.594 10.59C86.285 39.191 81.5 43.957 81.48 43.957s-1.21-1.172-2.644-2.605m-50.574-7.989-10.59-10.59 5.285-5.285 10.613 10.61 10.61 10.609-2.625 2.625c-1.446 1.445-2.64 2.625-2.664 2.625-.02 0-4.801-4.766-10.63-10.594M20.332 99.89l-2.625-2.624 10.613-10.61 10.61-10.61 5.25 5.25-10.614 10.61-10.609 10.61Zm66.492-7.964L76.23 81.332l2.645-2.64 2.645-2.645 21.218 21.219-2.625 2.625c-1.441 1.445-2.64 2.625-2.66 2.625s-4.805-4.766-10.629-10.59m0 0"/>
</svg>
