<svg xmlns="http://www.w3.org/2000/svg" width="120" height="120" viewBox="0 0 120 118">
    <path stroke="red" stroke-width=".004" d="M76.003-84h17.995v12.997L93.94-71l-.065.004-.366.018-.486.071-.476.12-.462.164-.444.21-.42.254-.396.293-.363.329-.33.364-.02.028-.272.367-.253.421-.21.444-.165.463-.119.476-.072.486-.022.45-.002.038h-7.995L81-66.057l-.022-.431-.072-.486-.119-.476-.165-.463-.21-.444-.253-.421-.291-.395-.331-.364-.363-.329-.395-.293-.42-.253-.445-.21-.09-.032-.372-.133-.476-.118-.486-.073-.487-.025V-84" transform="matrix(3.7298 0 0 3.7001 -256.893 336.708)"/>
</svg>
