<svg xmlns="http://www.w3.org/2000/svg" width="120" height="120" viewBox="0 0 120 120">
    <path stroke="red" stroke-width=".015" d="m74.952 17.576.06 1.238.011.233v41.391l-.071 1.475-.219 1.46-.357 1.434-.497 1.392-.632 1.336-.76 1.264-.5.681-.38.508-.34.373-.496.549-.158.17-.722.658-.369.338-1.19.877-1.263.76-1.34.632-1.392.497-1.43.357-1.46.219-1.475.071-1.475-.071-1.46-.219-.467-.116-.967-.241-1.392-.497-1.336-.632-1.264-.76-1.189-.88-.369-.335-.722-.659-.655-.718-.339-.373-.88-1.19-.76-1.263-.632-1.336-.497-1.392-.357-1.43-.219-1.464-.071-1.475v-41.39l.015-.234.056-1.242.219-1.46.357-1.43.497-1.396.632-1.335.76-1.265.88-1.189.34-.372.496-.546.158-.173.718-.655.377-.338 1.185-.88 1.264-.761 1.336-.632 1.392-.497.967-.24.467-.117 1.46-.219 1.475-.071 1.475.071 1.46.219 1.43.357 1.4.497 1.332.632 1.264.76 1.189.88.376.34.715.654.651.719.339.372.384.508.5.681.76 1.265.632 1.335.497 1.393.357 1.433.219 1.464m-18.513 1.482h7.53v22.333h-7.527Zm0 0"/>
    <path fill="#f9f9f9" d="M56.5 30.215V19.113h7.434v22.203H56.5Zm0 0"/>
</svg>
