<svg xmlns="http://www.w3.org/2000/svg" width="120" height="120" viewBox="0 0 120 120">
    <path stroke="red" stroke-width=".015" d="m28.172 14.866 1.75-2.28.643-.835 2.273-1.746.842-.647 2.653-1.1.979-.405 2.848-.373 1.046-.14 3.763.494.131.019 3.33 1.38.302.125 3.115 2.393 2.393 3.115 1.133 2.74.372.892.377 2.848.135 1.046-.372 2.837-.14 1.054-1.505 3.635-2.393 3.115-3.115 2.393-.301.125-2.352.978-.979.402-.131.02-2.72.353-1.043.14-2.837-.377-1.054-.136-3.635-1.505-.662-.508-1.618-1.241-.835-.64-1.75-2.28-.643-.84-1.1-2.652-.405-.979-.512-3.894.512-3.894.368-.892.73-1.758.407-.978m63.696 0 1.137 2.736.368.892.377 2.848.135 1.046-.376 2.837-.136 1.054-1.098 2.653-.407.982-2.382 3.1-.01.015-3.116 2.393-3.632 1.505-3.469.452-.425.06-3.763-.493-.131-.019-3.632-1.505-3.115-2.393-.011-.015-1.739-2.258-.64-.842-1.106-2.653-.402-.979-.512-3.894.512-3.894.368-.892.73-1.758.407-.978 1.75-2.284.639-.835 2.28-1.746.84-.647 3.63-1.505.132-.02 3.763-.492.425.056 3.47.452 3.63 1.509 3.116 2.393 2.393 3.115m-24.322 32.12 1.881 1.445 1.234.948 2.393 3.115 1.505 3.632.14 1.057.372 2.837-.5 3.823-.012.071-1.098 2.653-.407.979-2.393 3.115-3.115 2.393-3.632 1.505-.071.012-2.777.361-1.046.14-2.837-.373-1.057-.14-2.65-1.098-.978-.407-3.123-2.393-.944-1.234-1.445-1.881-1.505-3.632-.512-3.894.512-3.894 1.505-3.632 1.445-1.881.308-.399.64-.835 1.234-.948 1.881-1.445 3.632-1.505 3.894-.512 3.894.512 3.632 1.505"/>
</svg>
