<svg xmlns="http://www.w3.org/2000/svg" width="120" height="120" viewBox="0 0 120 120">
    <path stroke="red" stroke-width=".015" d="m116 55.835.24.967.114.467.222 1.46.071 1.475-.075 1.475-.218 1.46-.358 1.434-.497 1.392-.632 1.336-.76 1.264-.88 1.189-.339.365-.655.726-.715.655-.376.339-.508.376-.677.504-1.268.76-1.336.632-1.392.497-1.43.357-1.468.219-1.467.075h-26.34v26.34l-.075 1.467-.218 1.468-.358 1.43-.496 1.392-.633 1.335-.76 1.265-.88 1.189-.339.376-.007.004-.493.542-.15.169-.73.658-.366.335-1.189.88-1.264.761-1.336.632-1.392.497-.967.24-.467.114-1.46.222-1.471.071-1.475-.075-1.46-.218-1.434-.358-1.392-.497-1.336-.632-1.264-.76-1.189-.88-.369-.339-.722-.655-.647-.703-.008-.008-.339-.376-.376-.504-.504-.678-.76-1.268-.632-1.336-.497-1.392-.354-1.43-.222-1.467-.075-1.468V75.255H18.81l-1.467-.075-1.464-.218-1.433-.358-1.393-.496-1.335-.633-1.265-.76-.677-.504-.512-.376-.376-.339-.546-.5-.169-.15-.658-.73-.335-.366-.88-1.189-.761-1.264-.632-1.336-.497-1.392-.357-1.43-.219-1.468-.071-1.467.075-1.475.218-1.46.113-.467.245-.967.497-1.392.632-1.336.76-1.264.88-1.189.339-.369.655-.722.715-.655.376-.339 1.189-.88 1.264-.76 1.336-.632 1.392-.497 1.434-.354 1.46-.222 1.471-.071h26.34v-26.34l.075-1.467.218-1.464.354-1.434.497-1.392.632-1.336.76-1.264.504-.677.376-.512.34-.376.007-.004.489-.542.158-.17.722-.658.369-.335 1.19-.88 1.263-.76 1.336-.632 1.392-.497 1.43-.358 1.468-.218 1.467-.075 1.479.075 1.46.218.467.113.967.245 1.392.497 1.336.632 1.264.76 1.189.88.365.339.726.655.647.71.008.008.339.377.88 1.185.76 1.264.632 1.336.497 1.392.357 1.434.219 1.46.071 1.471v26.34h26.34l1.467.075 1.468.218 1.43.354 1.392.497 1.336.632 1.264.76 1.189.88.376.34.546.496.17.158.658.722.335.369.88 1.19.76 1.263.632 1.336.497 1.392M63.968 18.821V41.39h-7.526V18.82h7.526m0 82.767h-7.526V79.018h7.526v22.57M18.822 63.966V56.44H41.39v7.526H18.82m82.767-7.526v7.526H79.02V56.44Zm0 0"/>
    <path fill="#f9f9f9" d="M56.504 30.102V18.848h7.402v22.511h-7.402ZM79.09 60.203v-3.738h22.437v7.48H79.09ZM56.504 90.309V79.05h7.402v22.511h-7.402ZM18.883 60.203v-3.738H41.32v7.48H18.883Zm0 0"/>
</svg>
