<svg xmlns="http://www.w3.org/2000/svg" width="120" height="120" viewBox="0 0 120 118">
    <path stroke="red" stroke-width=".004" d="m76-71.998.04-.002.252-.012.292-.043.286-.072.277-.1.267-.125.253-.152.237-.175.218-.197.198-.219.176-.237.152-.253.067-.143.06-.123.098-.277.072-.286.043-.292.015-.294-.015-.294-.043-.291-.048-.19-.024-.097-.099-.277-.126-.266-.152-.253-.176-.237-.198-.218-.218-.198-.237-.175-.253-.152-.267-.126-.14-.05-.137-.05-.286-.071-.292-.043-.292-.015V-84h18v5.997l-.292.015-.293.043-.285.072-.138.05-.139.049-.267.126-.253.152-.237.175-.218.198-.198.218-.176.237-.152.253-.126.266-.099.277-.024.097-.048.19-.043.29-.014.295.014.294.043.292.072.286.099.277.058.123.068.143.152.253.176.237.064.07.134.149.218.197.237.175.253.152.267.126.277.1.285.07.293.044.168.008.124.006V-66h-5.997L88-66.057l-.012-.235-.043-.292-.072-.287-.1-.276-.125-.267-.152-.253-.175-.237-.198-.218-.218-.198-.237-.176-.253-.152-.266-.126-.133-.047-.144-.052-.286-.072-.292-.043-.294-.015-.294.015-.292.043-.286.072-.16.057-.117.042-.266.126-.253.152-.237.176-.07.063-.148.135-.199.218-.174.237-.152.253-.126.267-.052.147-.047.13-.072.286-.043.292-.012.252-.002.04H76v-5.998" transform="matrix(3.7298 0 0 3.7001 -256.893 336.708)"/>
</svg>
