<svg xmlns="http://www.w3.org/2000/svg" viewBox="0 0 60 60">
    <filter id="1UM_svg__a">
        <feGaussianBlur in="SourceAlpha" result="blur" stdDeviation="2"/>
        <feOffset dx="2" dy="2" result="offsetBlur"/>
        <feBlend in="SourceGraphic" in2="offsetBlur"/>
    </filter>
    <g filter="url(#1UM_svg__a)" transform="translate(8.64 5)">
        <path fill="#fcc8dc" fill-opacity=".992" d="M33.933 45.424 41.108.942H1.61l6.628 44.475 12.835 3.6z"/>
    </g>
    <path fill="#fff" d="m49.182 9.854.614-3.976-3.518-.03L16.5 48.359l.378 2.058 2.586.823z" opacity=".983"/>
    <path fill="#d35f8c" d="M14.827 37.197 12.639 21.89l5.858 8.967z"/>
    <path fill="#fff" d="m10.798 9.97-.547-4.028 2.991.003 29.71 42.421-.378 2.058-2.65.727z"/>
    <path fill="#fd0000" stroke="#fd0000" d="M20.065 31.336a3.2 3.2 0 0 1-1.786-.547q-.875-.51-1.313-1.312 0-.22.547-.839c2.52-4.83 3.738-9.003 7.438-12.359q1.057-.985 1.859-1.24.328.038.62.584.291.51.984 1.604a12.3 12.3 0 0 0 1.714 2.115v.182q-.292 0-.948-.182a11 11 0 0 1-1.24-.329q-.546-.145-.62-.182c-.704.097-1.93.353-2.955 1.486-1.99 2.356-3.148 5.396-3.899 8.212q0 .802.474 1.057.438.292 1.568.292.839 0 2.844-.183h.328q5.686-.51 11.703-2.37.766.402 1.166 1.022-.947 5.359-.947 8.932 0 2.625.364 3.937 0 .11.365.693.364.62.364.948a.6.6 0 0 1-.291.547q-.693 0-2.078-.839l-.438-.255q-3.682.183-7.73 1.057l-2.916.73-.656.072h-.146a.6.6 0 0 1-.146.037q-1.094 0-1.604-.693-.036-.401.328-.547.365-.145 1.531-.328a9 9 0 0 0 .584-.073l4.265-.875q-.729-.401-.729-1.531a1 1 0 0 1 .037-.219v-.218l.11-.948-1.897.437a1.98 1.98 0 0 1-1.349-.219q-.474-.218-.51-.474l.255-.255 3.5-.875q.183-1.275.182-2.807l-2.442.62h-.183a.6.6 0 0 1-.145.036q-.73 0-1.276-.474-.074-.474.546-.729t1.823-.437 1.677-.329l.11-2.88-5.031.656a13 13 0 0 1-1.094.037l-2.88.255zm15.932-1.422q-.182-.328-1.13-.328t-2.443.292q-1.53.291-1.786.291v2.698l2.297-.109.984.292q.183.11.255.4-.327.146-1.567.329-1.276.182-1.969.364v2.808q.839-.183 1.349-.183 1.53 0 1.786.766-.255.11-3.135.693.183 2.551.51 3.172 2.954-.255 4.047-.256.729-1.348.912-7.51v-.62q0-2.77-.11-3.099zm-7.51-2.37q-1.13-.765-1.531-1.093-.402-.292-.802-.839a2.46 2.46 0 0 1-.474-1.203q.29-1.167.802-1.167.291 0 .729.365.4.4.984 1.422.547 1.057.912 2.515zm2.661-3.645q0-1.021.584-1.24.802 0 1.495 1.422.656 1.423.656 2.224-.036.036-.182.036-.547 0-1.532-.765-1.02-.729-1.02-1.677zm5.178-2.37q.582.11 1.057 1.166.437 1.058.437 2.042 0 .474-.182.766-.839 0-1.422-1.167t-.583-2.187q.291-.438.693-.62zm5.104 4.885q-.365 0-.62-1.094a7.7 7.7 0 0 1-.292-2.041q0-1.422.401-2.552t1.35-1.13q.765.838.765 1.895 0 .657-.292 1.459l-.802 2.333q0 .036-.073.401-.072.401-.146.547-.11.182-.291.182z"/>
    <path fill="#d35f8c" d="m29.714 54.017 2.602-.73-2.63-4.708-2.534 4.747zM44.76 36.803l2.049-12.362-5.66 6.306zM32.776 5.926l-6.217-.043 3.319 5.405z" opacity=".983"/>
</svg>
