<svg xmlns="http://www.w3.org/2000/svg" viewBox="0 0 60 60">
    <filter id="1RY_svg__a">
        <feGaussianBlur in="SourceAlpha" result="blur" stdDeviation="2"/>
        <feOffset dx="2" dy="2" result="offsetBlur"/>
        <feBlend in="SourceGraphic" in2="offsetBlur"/>
    </filter>
    <g filter="url(#1RY_svg__a)" transform="translate(8.64 5)">
        <path fill="#fcc8dc" fill-opacity=".992" d="M33.933 45.424 41.108.942H1.61l6.628 44.475 12.835 3.6z"/>
    </g>
    <path fill="#fff" d="m29.714 54.017 2.533-.78V5.951h-4.98l.016 47.439z" opacity=".972"/>
    <path fill="#d35f8c" d="m10.862 9.94-.611-3.998 3.571.052 1.342 5.318zm38.201.292.686-4.29-3.921-.005-1.063 5.572zM16.879 50.417l-.448-2.92 3.788-.97-.84 4.64zm25.695.007.47-2.92-4.022-1.04 1.048 4.621z"/>
    <path fill="#fff" d="m45.531 32.27.756-4.765-32.837.045.72 4.854z"/>
    <path fill="#fd0000" stroke="#fd0000" d="M29.768 27.842q.068.88.237 1.388.17.507.169.61 0 .405-.406.405-.508 0-.982-.372-2.775.779-4.74 1.523l-.575 1.862a1.8 1.8 0 0 0-.034.407q0 .372.068.541.067.169.169.203l.102.068q2.843-.541 4.164-1.659.305 0 .71.373.373.372.373.541 0 .237-.102.474a10 10 0 0 1-.237.576q-.135.304-.237 1.252-.1.982-.101 2.506 0 1.929.135 2.37l.271.88.034.101-.305.102q-1.59-.204-2.234-.948 0-.203.203-1.05.203-.846.27-1.252-.404 0-2.132.474-1.726.474-2.505.474-.948 0-1.422-.474 0-.61 1.828-1.016t2.912-.406q.71 0 1.015.068l.339.067.169-.203.372-2.505-.067-.643-.034-.102h-.474l-3.724 1.456q-.779 0-2.404-1.219 0-.135.136-.27.135-.136.372-.34.203-.203.643-.981.407-.745.88-1.964a7 7 0 0 1-.372-.338q-.135-.102-.135-.136-.034-.033-.034-.101l-.068-.068q.237-.237 1.05-.406.779-.135 2.234-.44 1.455-.27 2.708-.677.237-.407.305-1.795-.508 0-2.539.373-2.066.372-2.708.372-.61-.202-.847-.474l.068-.27q2.675-.813 4.977-.813.474 0 .71.034.204.033.339.034.136-.305.237-1.795 0-.236.034-.338-1.862 0-3.69.474l-1.219.338h-.27q-.882 0-1.457-.575.069-.814 4.638-.982l1.998.034.034-2.302q-.576 0-3.115.372-2.573.406-3.385.406-.711-.372-.779-.473 0-.508.372-.576l5.045-.813h.169q.406 0 1.151.204l.406.135q0-.643-.203-1.253-.203-.575-.71-1.184-.543-.61-1.66-.982-1.116-.339-2.708-.339-1.355 0-2.234.203-.88.238-1.456.813-.576.576-.846 1.015-.272.474-.745 1.558a28 28 0 0 1-.813 1.726 1 1 0 0 1-.203-.541q-.068-.339-.135-1.118a9.7 9.7 0 0 0-.305-1.625l-.338-1.286-.034-.102q0-.203.067-.372a.6.6 0 0 1 .17-.27.9.9 0 0 1 .203-.204.9.9 0 0 1 .203-.203q.102-.102.135-.102 2.438-1.625 6.026-1.625h.136q6.6 0 6.838 5.993l.034 3.419zm7.346 13.744q-2.54-.44-3.487-1.388-.203-.609-.203-.981 0-.474.305-.677l.474-.136h.169q.948.711 2.844 2.607 0 .44-.102.575zm-5.89-4.705q.033-.27.541-.474t1.083-.339q.543-.101.61-.135a11 11 0 0 1-.711-.61q-.17-.135-.17-.44 0-.27.136-.44.135-.135.576-.71.44-.576.812-1.152l.406-.61-2.132.373h-.102q-.982 0-1.49-.61 0-.236.17-.338.168-.1.778-.203.61-.1 1.456-.203.813-.102 2.505-.474a68 68 0 0 0 3.656-.846c1.673-.182 3.075.208 3.123.42q0 .372-.237.507-.033 0-1.557.203c-1.038.158-.456.047-.479.047l-4.438.753q-1.253 2.573-1.253 4.13.339 0 2.032-.305 1.657-.27 2.37-.27 1.827 0 1.827.676-.236.135-.507.17-.305.067-.711.067-.406.034-1.558.203-1.15.204-2.742.576l-2.133.542a1 1 0 0 1-.304.033h-.203q-.948 0-1.355-.541zm8.361-2.64q-1.016-.204-1.557-.813-.576-.576-.575-1.185 0-.576.575-.576.135 0 .305.136.17.168.372.406.203.27.305.372l.61 1.185q.033.17-.035.474zm.17-10.563q0 2.268.71 4.198a1.05 1.05 0 0 1-.473.101q-.237 0-.474-.068a2.6 2.6 0 0 1-.44-.169 1.4 1.4 0 0 0-.237-.068l-.305-.304q-.474.237-3.453 1.286-1.388-.202-2.065-.982 0-.168.27-.914.271-.711.271-1.218v-.136l-.541-7.482q0-.744.61-2.065.609-1.32 1.15-1.32.576 0 2.302 2.471l-1.422-.203q-.541.068-.71.745-.204.676-.204 2.742 0 2.843.305 6.974.101.203.542.203.609 0 2.234-.541l.508-.203.203-1.998q-1.32.339-1.659.339a1.25 1.25 0 0 1-.948-.508l.237-.237 2.37-.508q.203-.643.203-2.099-1.692.508-1.997.508-.745 0-1.084-.508.102-.339 3.081-.846l.237-3.081q.339-2.674 1.422-2.674.677.778.677 1.997-1.32 3.487-1.32 6.568z"/>
</svg>
