<svg xmlns="http://www.w3.org/2000/svg" viewBox="0 0 60 60">
    <filter id="1KI_svg__a">
        <feGaussianBlur in="SourceAlpha" result="blur" stdDeviation="2"/>
        <feOffset dx="2" dy="2" result="offsetBlur"/>
        <feBlend in="SourceGraphic" in2="offsetBlur"/>
    </filter>
    <g fill="#fd5" filter="url(#1KI_svg__a)" transform="translate(9.104 5)">
        <path fill="#eec800" fill-opacity=".992" d="m21.136 49.223-13.51-3.76L.748.33l40.296.48-6.358 44.815z"/>
    </g>
    <path fill="#d38d5f" d="m14.054 33.681-.684-5.091 5.65 2.121zM30.24 54.223l2.698-.699-2.726-4.74-2.534 4.747zm13.515-3.563.448-2.92-4.566-1.535 1.617 5.08zm-27.06-.162-.449-2.92 4.567-1.535-1.643 5.155zM46.113 33.95l.684-5.092-5.651 2.122zM32.384 5.644l-5.137-.043 2.81 5.342z"/>
    <path stroke="#000" d="M28.474 38.3a.74.74 0 0 1 .305-.61 1.4 1.4 0 0 0 .474-.542l-4.605-4.4c-2.595-2.516-5.35-3.99-7.954-5.147l-.136-.203c1.767-.592 2.152-.508 4.096-.643q.27-.034.609.102.339.168.61.338.235.203.609.542.338.373.508.541.169.204.507.576.305.405.339.44a85 85 0 0 1 5.89 7.076q.136-.204.88-1.253.745-1.015 1.186-1.591.406-.542 1.252-1.625a25 25 0 0 1 1.591-1.862q.711-.744 1.625-1.693.915-.914 1.896-1.693.982-.744 1.998-1.354 1.827-1.117 2.471-1.388t1.32-.304l.068.033q-5.384 4.266-8.091 7.38-2.709 3.116-3.893 5.857-.474 1.22-.474 3.115a1.4 1.4 0 0 1-.542.102q-.644 0-1.591-.508-.948-.508-.948-1.287zm-3.995-15.777q-.745-.033-1.354-.575a3.36 3.36 0 0 1-.948-1.253.53.53 0 0 1 .27-.474q.271-.17.813-.338.542-.135.644-.17 2.945-1.455 4.57-1.794l.068.27q-3.42 2.676-3.826 3.42l-.17.847zm5.248-6.838a68 68 0 0 0-4.706.61q-2.268.405-2.844.405h-.068q-.846 0-1.692-.508-.88-.508-1.388-1.252.136-.542.778-.542l5.282.17h.033q4.842 0 8.972-.61l4.062-.745h.17q.609 0 1.218.339.61.338.745.812 0 .27-.372.271l-8.667.847-.068 7.075 2.709-.203a7.7 7.7 0 0 1 1.625.305l.406.44-.271.237-4.367.643q0 1.287.27 2.844.271-.034.813-.034 2.335 0 2.37.812-.305.135-.914.271-.644.136-1.388.237-.78.101-1.016.17l-3.927.981a7.4 7.4 0 0 1-1.456.136q-1.05-.407-1.049-.745 0-.204 1.727-.711a31 31 0 0 1 3.182-.711q-.576-.339-.576-1.287a3.5 3.5 0 0 1 .034-.541l.102-.914-2.709.677a4 4 0 0 1-.846.101q-1.15 0-1.523-.778 0-.373.948-.643.947-.272 3.419-.745.44-.102.677-.136.169-.372.305-7.143zm4.265 1.015q1.354 0 3.487 3.318 0 .339-.135.474-2.574-.508-3.656-1.794a8 8 0 0 1-.068-1.151q0-.61.372-.847z"/>
</svg>
