<svg xmlns="http://www.w3.org/2000/svg" viewBox="0 0 60 60">
    <filter id="1OU_svg__a">
        <feGaussianBlur in="SourceAlpha" result="blur" stdDeviation="2"/>
        <feOffset dx="2" dy="2" result="offsetBlur"/>
        <feBlend in="SourceGraphic" in2="offsetBlur"/>
    </filter>
    <g filter="url(#1OU_svg__a)" transform="translate(8.836 5)">
        <path fill="#fee572" d="M21.242 48.95c4.319-1 8.69-2.088 12.838-3.608L41.131.892H1.197l6.79 44.163z"/>
    </g>
    <path fill="#fff" d="m14.292 33.76-.734-5.091 4.944 2.122zm15.786 20.191 2.698-.698-2.726-4.74-2.534 4.747zm12.838-3.608.448-2.92-4-1.04 1.077 4.735zm-26.093-.287-.448-2.92 3.788-.97-.84 4.64zM45.6 33.529l.785-5.042-4.873 2.193zM32.569 5.923l-5.138-.042 2.811 5.341zm16.711 4.26.687-4.29-3.922-.005-1.062 5.572zM10.644 9.89l-.611-3.997 3.571.052 1.343 5.318z" opacity=".962"/>
    <path stroke="#000" d="M35.446 36.144c1.722 0 4.415.629 5.248 1.462 0 .195-1.498.121-1.665.205q-.29.124-1.25.208-1 .125-2.291.25-1.335.125-4 .583-2.667.459-5.75 1.167a5.7 5.7 0 0 1-1.459.167q-1.833 0-2.791-1.125-.042-.417.166-.667.21-.209.959-.417.75-.166 1.583-.291.792-.083 2.542-.375t3.416-.625q-1.041-.542-1.041-1.667l.208-2.25.125-4.042v-.041l-4.004.58c-.167.027-1.309.253-1.586.253q-1.625 0-2.375-1.042.04-.583 1.541-1c1-.277 3.243-.5 4.466-.666q1.832-.21 1.916-.25l.125-.209.25-8.208q-4.875.333-8.041.75l-3.584.625h-.291q-1.209 0-2.542-1.292-1.375-1.25-1.375-1.916.167-.292.833-.292.625 0 5.459.458l2.666.167q3.459 0 9.667-.583c4.139-.39 6.357-.784 7.857-1.257l1.875-.541a.7.7 0 0 0 .167-.042h.166q.834 0 1.792.625t1.417 1.417q0 .458-.25.666l-.19-.035c-1.612-.3-3.834.167-6.584.5q-4.125.5-6.75.5h-.167l-.125 8.25 3.75-.25c1.223.028 2.918.234 3.529.9q0 .459-.542.5l-2.653.267-4.042.541v6.084q0 1.208.792 2.125 1.5-.167 2.833-.167z"/>
</svg>
