<svg xmlns="http://www.w3.org/2000/svg" viewBox="0 0 60 60">
    <filter id="1FU_svg__a">
        <feGaussianBlur in="SourceAlpha" result="blur" stdDeviation="2"/>
        <feOffset dx="2" dy="2" result="offsetBlur"/>
        <feBlend in="SourceGraphic" in2="offsetBlur"/>
    </filter>
    <g filter="url(#1FU_svg__a)" transform="matrix(.86 0 0 .86 12.022 8)">
        <path fill="#fee572" d="M34.481 45.608 41.225.888.585.71l7.454 44.898 12.6 3.727z"/>
    </g>
    <path stroke="#000" d="M28.81 36.26q-2 .375-3.125.876-1.125.5-2.125-.125t.625-1.375q1.625-.626 4.625-.5l.125-3.875q-3.999.625-6 1-2.125.374-2.875-.25-.75-.625-.75-1-.125-.375 1.75-.375c1.875 0 2.667-.084 4.25-.25q2.25-.25 5.75-.75a4.2 4.2 0 0 1-1.5-.75q-.625-.5-.25-1.25c.375-.75.334-1.375.25-2.625q-.125-1.875 0-3.125t.5-1.75q.25-.375.875.5.625.874.375 1.875-.25 1.125-.125 3 0 1.875.25 2.625t.5 1.375q6.625-1.376 7.5-1.625.876-.25 2.125.5 1.126.875-.125.875-1.374 0-5.375.75.25 4 .875 4.75.626.75.375 1-.25.25-1.625-.125-1.5-.25-1.25-1.25t.125-4.125q-1.875.375-4.125.75 0 4.5.25 6.5.126 2.124.625 2.875.5.75-.25.625-.75 0-1.875-.5-1.125-.376-.75-1 .375-.5.375-3.25zm-6.088-9.516q-1-.875-.25-1.25c.416-.25 2.213-2.4 2.963-3.483q1-1.5 3.125-3.5c1.334-1.334 1.993-1.76 4.926-3.623 2.446-1.07 2.156-1.004 4.608-1.793.988-.146 1.64-.242 1.842-.225.258.022-.218.226-1.668.74-2.666.834-3.603 1.734-5.687 3.15-2.166 1.417-3.062 3.042-4.396 4.876-1.416 1.916-3.297 4.691-3.213 5.358.712.975.594 1.221-.625.875-.507-.144-1.042-.542-1.625-1.125zm.901-5.973q-2-.5-2.75-1.25c-.583-.5-.756-1.203-.625-2.125.119-.83.542-.917 1.375-.25q1.125 1 2.25 1.75 1.125.874 1.875 1.5.75.75.375.875-.5.124-2.5-.5zm12.687 4.74q-.624 1.25-.875 1.25-.375.125-.25-1.75 0-1.875 1.375-3.875 1.375-1.875 1.75-.375.25 1.5-.625 2.5a11 11 0 0 0-1.375 2.25z"/>
    <path fill="#d38d5f" d="M29.771 50.428 27.27 49.7l2.28-4.11 2.438 4.232z" opacity=".923"/>
</svg>
