<svg xmlns="http://www.w3.org/2000/svg" viewBox="0 0 60 60">
    <filter id="0UM_svg__a">
        <feGaussianBlur in="SourceAlpha" result="blur" stdDeviation="2"/>
        <feOffset dx="2" dy="2" result="offsetBlur"/>
        <feBlend in="SourceGraphic" in2="offsetBlur"/>
    </filter>
    <g fill="#ffd5f6" filter="url(#0UM_svg__a)" transform="translate(9.099 5)">
        <path fill="#fdd3e3" fill-opacity=".992" d="M18.495 1.628c-3.456.929-6.977 1.698-10.327 2.948L.946 49.122h39.91L33.863 4.583 21.028.983z"/>
    </g>
    <path fill="#fff" d="m10.658 50.146-.613 3.976 3.518.03L43.34 11.641l-.378-2.058-2.586-.823z"/>
    <path fill="#d35f8c" d="m45.014 22.803 2.441 15.339-6.111-8.999z"/>
    <path fill="#fff" d="m49.38 50.076.575 4.046-3.29.023L16.89 11.634l.378-2.058 2.586-.823z"/>
    <path fill="#fd0000" stroke="#fd0000" d="M39.935 28.98q.948 0 1.786.546.876.51 1.313 1.313 0 .219-.547.838c-2.52 4.83-3.738 9.004-7.438 12.36q-1.057.984-1.859 1.239-.328-.037-.62-.583-.291-.51-.984-1.605a12.3 12.3 0 0 0-1.714-2.114v-.183q.292 0 .948.183.693.145 1.24.328.545.146.62.182c.704-.097 1.93-.352 2.955-1.485 1.99-2.357 3.148-5.397 3.899-8.212q0-.803-.474-1.058-.437-.291-1.568-.291-.839 0-2.844.182h-.328q-5.687.51-11.703 2.37-.766-.402-1.166-1.021.947-5.36.947-8.932 0-2.625-.364-3.938 0-.11-.365-.693-.364-.62-.364-.948a.6.6 0 0 1 .291-.546q.693 0 2.078.838l.438.255q3.682-.182 7.73-1.057l2.916-.73.656-.072h.146a.6.6 0 0 1 .146-.037q1.094 0 1.604.693.036.402-.328.547-.365.146-1.531.328a9 9 0 0 0-.584.073l-4.265.875q.729.401.729 1.531a1 1 0 0 1-.037.22v.218l-.11.948 1.897-.438a1.98 1.98 0 0 1 1.349.219q.474.219.51.474l-.255.255-3.5.875q-.182 1.276-.182 2.807l2.442-.62h.183a.6.6 0 0 1 .145-.036q.73 0 1.276.474.074.474-.546.73-.62.255-1.823.437-1.203.181-1.677.328l-.11 2.88 5.031-.656a13 13 0 0 1 1.094-.037l2.88-.255zM24.003 30.4q.182.328 1.13.328t2.443-.291q1.53-.292 1.786-.292v-2.698l-2.297.11-.984-.292q-.183-.11-.255-.401.327-.147 1.567-.328 1.276-.182 1.969-.365v-2.807q-.839.182-1.349.182-1.53 0-1.786-.766.255-.109 3.135-.692-.183-2.553-.51-3.172-2.954.255-4.047.255-.729 1.35-.912 7.51v.62q0 2.77.11 3.1zm7.51 2.37q1.13.765 1.531 1.094.402.291.802.838.402.547.474 1.203-.29 1.167-.802 1.167-.291 0-.729-.365-.4-.4-.984-1.421-.547-1.058-.912-2.516zm-2.661 3.646q0 1.02-.584 1.24-.802 0-1.495-1.422-.656-1.423-.656-2.224.036-.037.182-.037.547 0 1.532.766 1.02.729 1.02 1.677zm-5.178 2.37q-.582-.11-1.057-1.167-.437-1.057-.437-2.042 0-.473.182-.765.839 0 1.422 1.166.583 1.167.583 2.188-.291.437-.693.62zM18.57 33.9q.365 0 .62 1.094.292 1.057.292 2.042 0 1.422-.401 2.552t-1.35 1.13q-.765-.84-.765-1.896 0-.656.292-1.458l.802-2.334q0-.037.073-.4.072-.401.146-.548.11-.182.291-.182z"/>
    <path fill="#d35f8c" d="m30.127 5.983-2.698.698 2.725 4.74 2.535-4.747zM15.143 23.26l-2.132 12.32 5.682-6.327zm11.921 30.814 6.218.043-3.32-5.405z"/>
</svg>
