<svg xmlns="http://www.w3.org/2000/svg" viewBox="0 0 60 60">
    <filter id="0RY_svg__a">
        <feGaussianBlur in="SourceAlpha" result="blur" stdDeviation="2"/>
        <feOffset dx="2" dy="2" result="offsetBlur"/>
        <feBlend in="SourceGraphic" in2="offsetBlur"/>
    </filter>
    <g fill="#ffcdf4" filter="url(#0RY_svg__a)" transform="translate(9.099 5)">
        <path fill="#fdd3e3" fill-opacity=".992" d="M18.495 1.628c-3.456.929-6.977 1.698-10.327 2.948L.946 49.122h39.91L33.863 4.583 21.028.983z"/>
    </g>
    <path fill="#fff" d="m30.127 5.983-2.533.645v47.556h4.98L32.556 6.61z" opacity=".979"/>
    <path fill="#d35f8c" d="m49.344 50.124.611 3.998-3.571-.053-1.342-5.318zm-38.613-.292-.686 4.29 3.921.005 1.063-5.572zM42.962 9.583l.448 2.92-3.788.97.84-4.64zm-25.695-.007-.47 2.92 4.022 1.04-1.144-4.78z"/>
    <path fill="#fff" d="m14.31 27.73-.757 4.765 33.017-.045-.719-4.854z"/>
    <path fill="#fd0000" stroke="#fd0000" d="M30.682 32.384q-.067-.88-.237-1.388t-.17-.61q0-.405.407-.406.507 0 .981.373 2.777-.78 4.74-1.524l.576-1.862a2 2 0 0 0 .033-.406q0-.372-.067-.542-.068-.169-.17-.203l-.101-.068q-2.844.542-4.164 1.66-.304 0-.711-.373-.373-.372-.373-.542 0-.237.102-.474.102-.27.237-.575.136-.305.237-1.253.102-.982.102-2.505 0-1.93-.136-2.37l-.27-.88-.035-.102.305-.101q1.59.203 2.235.948 0 .203-.204 1.05-.203.844-.27 1.252.405 0 2.132-.474 1.726-.474 2.506-.474.947 0 1.421.474 0 .61-1.828 1.015-1.827.407-2.911.407-.711 0-1.016-.068l-.338-.068-.17.203-.372 2.506.068.643.034.101h.474l3.724-1.455q.779 0 2.403 1.218 0 .136-.135.271-.136.135-.373.339-.203.202-.643.982-.406.744-.88 1.963.237.203.372.339.136.1.136.135.033.034.034.102l.067.067q-.237.237-1.05.407-.777.135-2.234.44-1.455.27-2.708.677-.237.406-.305 1.794.508 0 2.54-.372 2.064-.373 2.708-.373.609.204.846.474l-.068.271q-2.674.813-4.976.813a6 6 0 0 1-.711-.034 2 2 0 0 0-.339-.034q-.135.305-.237 1.794 0 .236-.033.339 1.86 0 3.69-.474l1.218-.339h.271q.88 0 1.456.576-.067.812-4.638.981l-1.997-.033-.034 2.302q.575 0 3.114-.373 2.574-.406 3.386-.406.71.372.778.474 0 .508-.372.576L33.695 40h-.17q-.406 0-1.15-.203l-.407-.136q0 .645.203 1.253.204.576.711 1.185.541.609 1.66.982 1.116.338 2.707.338 1.355 0 2.235-.203.88-.237 1.455-.812t.847-1.016q.27-.474.745-1.557c.475-1.083.586-1.298.812-1.727q.169.204.203.542.067.339.136 1.117.067.745.304 1.625l.339 1.286.034.102q0 .203-.068.372a.6.6 0 0 1-.17.271.9.9 0 0 1-.202.203.9.9 0 0 1-.203.204q-.102.1-.136.101-2.438 1.625-6.026 1.625h-.135q-6.601 0-6.839-5.992l-.034-3.42zm-7.347-13.745q2.54.44 3.487 1.388.203.61.203.982 0 .474-.304.677l-.474.135h-.17q-.948-.711-2.843-2.606 0-.441.101-.576zm5.891 4.706q-.034.27-.542.474a7.6 7.6 0 0 1-1.083.338q-.541.102-.61.136.543.44.712.609.168.135.169.44a.68.68 0 0 1-.136.44q-.135.136-.575.711-.44.576-.813 1.151l-.406.61 2.133-.373h.101q.983 0 1.49.61 0 .236-.17.338-.168.102-.778.203-.609.102-1.456.203-.812.102-2.505.474a68 68 0 0 0-3.656.847c-1.672.181-3.074-.209-3.123-.42q0-.373.237-.508.034 0 1.558-.203c1.038-.158.456-.046.478-.046l4.438-.753q1.253-2.573 1.253-4.13-.339 0-2.031.304-1.659.271-2.37.271-1.828 0-1.828-.677.237-.135.508-.169.305-.068.71-.068.407-.033 1.558-.203a52 52 0 0 0 2.742-.575l2.133-.542q.102-.034.305-.034h.203q.948 0 1.354.542zm-8.362 2.64q1.016.204 1.557.813.576.576.576 1.185 0 .575-.576.575-.135 0-.304-.135a7 7 0 0 1-.373-.406 4 4 0 0 0-.305-.373l-.609-1.185q-.033-.169.034-.474zm-.17 10.563q0-2.268-.71-4.198.203-.102.474-.102.237 0 .474.068.236.068.44.17.202.067.237.067l.304.305q.474-.237 3.454-1.287 1.387.204 2.065.982 0 .17-.271.914-.27.71-.271 1.219v.135l.542 7.482q0 .745-.61 2.065t-1.15 1.32q-.576 0-2.303-2.47l1.422.202q.541-.067.711-.745.203-.676.203-2.742 0-2.843-.305-6.974-.101-.203-.541-.203-.609 0-2.235.542l-.507.203-.204 1.997q1.32-.338 1.66-.338.575.033.947.508l-.237.237-2.37.507q-.203.644-.203 2.1 1.694-.509 1.998-.508.744 0 1.083.507-.102.339-3.08.847l-.238 3.08q-.338 2.675-1.422 2.675-.676-.78-.677-1.997 1.32-3.487 1.32-6.568z"/>
</svg>
