<svg xmlns="http://www.w3.org/2000/svg" viewBox="0 0 60 60">
    <filter id="0KI_svg__a">
        <feGaussianBlur in="SourceAlpha" result="blur" stdDeviation="2"/>
        <feOffset dx="2" dy="2" result="offsetBlur"/>
        <feBlend in="SourceGraphic" in2="offsetBlur"/>
    </filter>
    <g fill="#ffdc51" filter="url(#0KI_svg__a)" transform="translate(8.818 5)">
        <path fill="gold" fill-opacity=".992" d="m20.942.777 13.51 3.76L41.33 49.67l-40.296-.48L7.392 4.375z"/>
    </g>
    <path fill="#d38d5f" d="m45.92 26.34.684 5.091-5.65-2.122z"/>
    <path stroke="#000" d="M30.812 20.807a.74.74 0 0 1-.305.61 1.4 1.4 0 0 0-.474.541l4.605 4.401c2.595 2.515 5.35 3.99 7.954 5.146l.136.203c-1.767.592-2.152.508-4.096.643a1.24 1.24 0 0 1-.61-.101 7 7 0 0 1-.608-.339 29 29 0 0 1-.61-.541 17 17 0 0 0-.508-.542 19 19 0 0 0-.507-.576 10 10 0 0 0-.339-.44 85 85 0 0 1-5.89-7.075q-.136.203-.88 1.252a114 114 0 0 1-2.438 3.216 25 25 0 0 1-1.591 1.863 578 578 0 0 1-1.625 1.692q-.915.915-1.896 1.693-.982.745-1.998 1.354-1.827 1.118-2.471 1.388-.643.27-1.32.305l-.068-.034q5.383-4.266 8.091-7.38 2.709-3.115 3.893-5.857.474-1.218.474-3.115.237-.1.542-.101.644 0 1.591.508.948.507.948 1.286zm3.995 15.776q.745.035 1.354.576.643.54.948 1.252a.53.53 0 0 1-.27.474q-.272.17-.813.339-.543.135-.644.17-2.945 1.455-4.57 1.793l-.068-.27q3.42-2.675 3.826-3.42l.17-.846zm-5.248 6.839a68 68 0 0 0 4.706-.61q2.268-.406 2.844-.406h.068q.846 0 1.692.508.88.507 1.388 1.253-.136.54-.778.541l-5.282-.17h-.033q-4.842 0-8.972.61l-4.062.745h-.17a2.5 2.5 0 0 1-1.218-.338q-.61-.339-.745-.813 0-.27.372-.27l8.667-.847.068-7.076-2.709.203a7.7 7.7 0 0 1-1.625-.304l-.406-.44.27-.237 4.368-.644q0-1.286-.27-2.843a7 7 0 0 1-.813.034q-2.336 0-2.37-.813.305-.135.914-.27.644-.136 1.388-.238.78-.101 1.016-.169l3.927-.982a7.4 7.4 0 0 1 1.456-.135q1.05.405 1.049.745 0 .203-1.727.71a31 31 0 0 1-3.182.711q.576.339.576 1.287 0 .339-.034.542l-.102.914 2.709-.677a4 4 0 0 1 .846-.102q1.15 0 1.523.779 0 .372-.948.643-.947.27-3.419.745a9 9 0 0 1-.677.135q-.169.373-.305 7.143zm-4.265-1.016q-1.354 0-3.487-3.318 0-.337.135-.474 2.573.508 3.656 1.795.069.475.068 1.15 0 .611-.372.847z"/>
    <path fill="#d38d5f" d="m29.734 5.798-2.698.699 2.726 4.74 2.534-4.747zM16.22 9.36l-.449 2.92 4.567 1.536-1.618-5.08zm27.06.162.448 2.92-4.566 1.536 1.642-5.156zM13.861 26.07l-.684 5.093 5.651-2.122zM27.59 54.377l5.137.042-2.81-5.341z"/>
</svg>
