<svg xmlns="http://www.w3.org/2000/svg" viewBox="0 0 60 60">
    <filter id="0OU_svg__a">
        <feGaussianBlur in="SourceAlpha" result="blur" stdDeviation="2"/>
        <feOffset dx="2" dy="2" result="offsetBlur"/>
        <feBlend in="SourceGraphic" in2="offsetBlur"/>
    </filter>
    <g fill="#ffeda5" filter="url(#0OU_svg__a)" transform="translate(9.007 5)">
        <path d="M20.915 1.05c-4.162 1.262-8.667 2.126-12.838 3.608l-7.051 44.45H40.96L34.17 4.945 20.915 1.049z"/>
    </g>
    <path fill="#fff" d="m45.708 26.24.734 5.092-4.944-2.122zM29.922 6.05l-2.698.698 2.726 4.74 2.534-4.747zM17.084 9.658l-.448 2.92 4 1.04-1.077-4.735zm26.093.287.448 2.92-3.788.97.84-4.64zM14.4 26.472l-.785 5.042 4.873-2.193zm13.031 27.606 5.138.042-2.811-5.341zm-16.711-4.26-.687 4.29 3.922.005 1.062-5.572zm38.636.292.611 3.998-3.571-.052-1.343-5.318z"/>
    <path stroke="#000" d="M24.45 23.967c-1.723 0-4.416-.63-5.25-1.463 0-.194 1.5-.12 1.666-.204q.291-.125 1.25-.208 1-.126 2.292-.25 1.333-.125 4-.584t5.75-1.166a5.7 5.7 0 0 1 1.458-.167q1.833 0 2.792 1.125.041.417-.167.667-.208.207-.958.416-.75.167-1.584.292-.791.082-2.541.375-1.75.291-3.417.625 1.041.542 1.042 1.667l-.209 2.25-.125 4.041v.042l4.004-.58c.167-.027 1.309-.253 1.587-.253q1.625 0 2.375 1.041-.042.584-1.542 1c-1.5.416-3.243.5-4.465.667q-1.834.208-1.917.25l-.125.208-.25 8.209q4.874-.334 8.042-.75l3.583-.625h.292q1.208 0 2.541 1.291 1.375 1.25 1.375 1.917-.166.291-.833.292-.625 0-5.458-.459l-2.667-.166q-3.459 0-9.667.583c-4.139.389-6.357.784-7.857 1.256l-1.875.542a.7.7 0 0 0-.166.042h-.167q-.834 0-1.792-.625-.958-.626-1.416-1.417 0-.459.25-.667l.19.036c1.611.3 3.833-.167 6.583-.5q4.125-.5 6.75-.5h.167l.125-8.25-3.75.25c-1.222-.028-2.917-.234-3.528-.9q0-.46.541-.5l2.654-.267 4.041-.542v-6.083q0-1.209-.791-2.125-1.5.167-2.834.167z"/>
</svg>
