<svg xmlns="http://www.w3.org/2000/svg" viewBox="0 0 60 60">
    <filter id="0FU_svg__a">
        <feGaussianBlur in="SourceAlpha" result="blur" stdDeviation="2"/>
        <feOffset dx="2" dy="2" result="offsetBlur"/>
        <feBlend in="SourceGraphic" in2="offsetBlur"/>
    </filter>
    <g fill="#ffeda5" filter="url(#0FU_svg__a)" transform="matrix(.86 0 0 .86 11.869 8)">
        <path d="M7.507 4.392.763 49.112l40.64.178-7.454-44.898-12.6-3.727z"/>
    </g>
    <path stroke="#000" d="M31.347 22.32q2-.375 3.125-.875t2.125.125-.625 1.375q-1.625.624-4.625.5l-.125 3.875q4-.625 6-1 2.125-.375 2.875.25t.75 1q.125.375-1.75.375c-1.875 0-2.667.083-4.25.25q-2.25.249-5.75.75a4.2 4.2 0 0 1 1.5.75q.625.5.25 1.25c-.375.75-.333 1.375-.25 2.625q.124 1.875 0 3.125-.125 1.25-.5 1.75-.25.375-.875-.5-.626-.876-.375-1.875.25-1.125.125-3 0-1.875-.25-2.625a25 25 0 0 0-.5-1.375q-6.626 1.374-7.5 1.625-.875.25-2.125-.5-1.125-.875.125-.875 1.375 0 5.375-.75-.25-4-.875-4.75c-.625-.75-.542-.834-.375-1q.25-.25 1.625.125 1.5.25 1.25 1.25-.25.999-.125 4.125 1.875-.375 4.125-.75 0-4.5-.25-6.5-.125-2.125-.625-2.875c-.5-.75-.25-.709.25-.625q.75 0 1.875.5 1.125.375.75 1-.375.5-.375 3.25zm6.089 9.517q1 .875.25 1.25c-.417.25-2.214 2.4-2.964 3.483q-1 1.5-3.125 3.5c-1.333 1.333-1.992 1.76-4.926 3.623-2.445 1.07-2.155 1.003-4.608 1.793-.902.133-1.524.224-1.78.226-.38.003.06-.193 1.606-.742 2.667-.833 3.604-1.734 5.687-3.15 2.167-1.417 3.063-3.042 4.396-4.875 1.417-1.917 3.297-4.692 3.214-5.358-.713-.975-.595-1.222.625-.875.507.144 1.041.541 1.625 1.125zm-.902 5.973q2 .5 2.75 1.25c.583.5.757 1.203.625 2.125-.119.829-.542.917-1.375.25q-1.125-1-2.25-1.75a73 73 0 0 1-1.875-1.5q-.75-.75-.375-.875.5-.125 2.5.5zm-12.687-4.74q.625-1.25.875-1.25.375-.125.25 1.75 0 1.875-1.375 3.875-1.375 1.875-1.75.375-.25-1.5.625-2.5a11 11 0 0 0 1.375-2.25z"/>
    <path fill="#d38d5f" d="m30.229 8.572-2.502.639 2.28 4.2 2.438-4.187z" opacity=".944"/>
</svg>
