<svg xmlns="http://www.w3.org/2000/svg" viewBox="0 0 60 60">
    <defs>
        <filter id="1UM_svg__a" color-interpolation-filters="sRGB">
            <feFlood flood-color="#000" flood-opacity=".498" result="flood"/>
            <feComposite in="flood" in2="SourceGraphic" operator="in" result="composite1"/>
            <feGaussianBlur in="composite1" result="blur" stdDeviation="2.5"/>
            <feOffset dx="2" dy="2" result="offset"/>
            <feComposite in="SourceGraphic" in2="offset" result="composite2"/>
        </filter>
    </defs>
    <path fill="#fff" stroke="#000" stroke-width=".471" d="M52.961 30c0 12.68-10.28 22.96-22.962 22.96-12.68 0-22.96-10.28-22.96-22.96s10.28-22.96 22.96-22.96c12.682 0 22.962 10.278 22.962 22.96z" filter="url(#1UM_svg__a)" transform="translate(-4.762 -4.762)scale(1.15873)"/>
    <g stroke-width="1.918">
        <path fill="#86cfd0" d="M4.35 30.236c0-14.15 11.472-25.62 25.62-25.62 14.15 0 25.62 11.47 25.62 25.62 0 14.148-11.47 25.62-25.62 25.62-14.148 0-25.62-11.472-25.62-25.62"/>
        <path fill="#fff" d="M17.16 17.425c0-7.074 5.736-12.81 12.81-12.81s12.81 5.736 12.81 12.81-5.735 12.81-12.81 12.81c-7.074 0-12.81-5.735-12.81-12.81"/>
        <path fill="#fff" stroke="#273567" stroke-width="1.334" d="m39.243 34.093 8.065-3.924-8.065-3.932m-13.45 13.416 3.931 8.047 3.943-8.034M20.26 26.212l-8.049 3.924 8.033 3.943"/>
        <path fill="none" stroke="#273567" stroke-width="1.334" d="m33.682 20.674-3.931-8.045-3.933 8.037"/>
        <path fill="#273567" d="M22.481 37.43a10.27 10.27 0 0 1 .001-14.528 10.27 10.27 0 0 1 14.527 0A10.273 10.273 0 0 1 22.481 37.43"/>
        <path fill="#273567" d="m26.965 36.824-6.522 6.522 2.079 2.078-8.013.306.31-8.006 2.082 2.078 6.52-6.521zm5.685-12.772 6.52-6.52-2.079-2.08 8.007-.312-.305 8.014-2.078-2.08-6.522 6.521zm3.564 8.822 6.516 6.516 2.08-2.08.311 8.008-8.006-.31 2.077-2.082-6.514-6.514zm-12.907-5.833-6.515-6.515-2.08 2.078-.312-8.006 8.01.31-2.08 2.08 6.514 6.516z"/>
        <path fill="#fff" stroke="#273567" stroke-width="1.334" d="M22.76 37.485c-4.012-4.012-4.009-10.517 0-14.527a10.27 10.27 0 0 1 14.527 0 10.27 10.27 0 0 1 0 14.526c-4.011 4.01-10.515 4.012-14.527 0z"/>
        <path fill="#273567" d="M23.619 36.626v-12.81h12.81v12.81z"/>
        <path fill="#fff" d="M32.905 31.554h-.461V29.54q0-.526.12-.834a1.02 1.02 0 0 1 .428-.504q.31-.193.816-.193.488 0 .801.169a.96.96 0 0 1 .444.489q.134.32.133.873v2.017h-.46v-2.013q0-.452-.085-.669a.64.64 0 0 0-.29-.332 1 1 0 0 0-.504-.116q-.507-.001-.725.232-.216.23-.217.885zm-1.21-3.486v3.488h-.692l-.828-2.468a21 21 0 0 1-.167-.516q-.06.19-.185.56l-.838 2.422h-.62v-3.487h.445v2.917l1.015-2.916h.416l1.008 2.97v-2.97zm-5.072 2.454q-.12.33-.19.669a10 10 0 0 0-.253-.727l-.36-.967h1.182zm.893-2.454-.377 1.054h-1.463l-.404-1.054h-.525l1.422 3.488h.504l1.33-3.488z"/>
        <path fill="none" stroke="#2c2c2b" stroke-width=".346" d="M3.394 30c0-14.692 11.913-26.605 26.607-26.605s26.605 11.912 26.605 26.606c0 14.692-11.912 26.604-26.605 26.604-14.694 0-26.607-11.912-26.607-26.604z"/>
    </g>
</svg>
