<svg xmlns="http://www.w3.org/2000/svg" viewBox="0 0 60 60">
    <defs>
        <filter id="1NY_svg__a" color-interpolation-filters="sRGB">
            <feFlood flood-color="#000" flood-opacity=".498" result="flood"/>
            <feComposite in="flood" in2="SourceGraphic" operator="in" result="composite1"/>
            <feGaussianBlur in="composite1" result="blur" stdDeviation="2.5"/>
            <feOffset dx="2" dy="2" result="offset"/>
            <feComposite in="SourceGraphic" in2="offset" result="composite2"/>
        </filter>
    </defs>
    <path fill="#fff" stroke="#000" stroke-width=".471" d="M52.961 30c0 12.68-10.28 22.96-22.962 22.96-12.68 0-22.96-10.28-22.96-22.96s10.28-22.96 22.96-22.96c12.682 0 22.962 10.278 22.962 22.96z" filter="url(#1NY_svg__a)" transform="translate(-4.762 -4.762)scale(1.15873)"/>
    <g stroke-width="1.918">
        <path fill="#86cfd0" d="M4.38 30C4.38 15.852 15.851 4.382 30 4.382s25.62 11.47 25.62 25.62C55.62 44.149 44.149 55.62 30 55.62 15.852 55.62 4.382 44.149 4.382 30z"/>
        <path fill="#fff" d="M17.19 17.19c0-7.074 5.735-12.809 12.81-12.809s12.811 5.735 12.811 12.81S37.076 30 30.001 30 17.19 24.264 17.19 17.19"/>
        <path fill="none" stroke="#2c2c2b" stroke-width=".346" d="M3.395 30c0-14.692 11.912-26.605 26.606-26.605 14.693 0 26.604 11.912 26.604 26.606 0 14.692-11.91 26.604-26.604 26.604S3.395 44.693 3.395 30.001z"/>
        <path fill="#fff" stroke="#877ea6" stroke-width="1.334" d="M19.727 29.822a10.272 10.272 0 1 1 20.545 0 10.27 10.27 0 0 1-10.273 10.27 10.27 10.27 0 0 1-10.272-10.27z"/>
        <path fill="#273567" d="m33.021 22.506-3.03-6.187L26.98 22.5"/>
        <path fill="#877ea6" d="M32.502 36.407v9.214h2.94l-5.443 5.883-5.441-5.883h2.94v-9.214z"/>
        <path fill="#fff" stroke="#2c2c2b" stroke-width=".666" d="M37.788 29.935a7.69 7.69 0 0 1-7.69 7.69 7.692 7.692 0 1 1 7.69-7.69z"/>
        <path fill="#2c2c2b" d="M22.115 29.822A7.88 7.88 0 0 1 30 21.937a7.88 7.88 0 0 1 7.883 7.885A7.88 7.88 0 0 1 30 37.705a7.88 7.88 0 0 1-7.884-7.883z"/>
        <path fill="#273567" d="m22.692 26.77-6.187 3.036 6.176 3.015-2.239 6.514 6.513-2.224 3.036 6.217 3.03-6.215 6.52 2.251-2.249-6.523 6.202-3.027-6.2-3.024"/>
        <path fill="#fff" stroke="#273567" stroke-width="1.334" d="M22.089 29.81a7.9 7.9 0 0 1 7.902-7.902 7.902 7.902 0 1 1 0 15.804 7.9 7.9 0 0 1-7.902-7.903z"/>
        <path fill="#273567" d="M25.063 29.812a4.927 4.927 0 1 1 9.854-.003 4.927 4.927 0 0 1-9.854.003"/>
        <path fill="#fff" d="M34.057 28.096v2.987h-.396v-1.479l-1.483 1.479h-.538l1.255-1.211-1.31-1.776h.522l1.066 1.508.488-.471v-1.037zm-3.64 0v1.265l1.151 1.722h-.475l-.59-.904a8 8 0 0 1-.307-.504q-.137.234-.326.53l-.58.878h-.46l1.19-1.722v-1.265zm-2.531 2.41a1 1 0 0 1-.72.288.95.95 0 0 1-.892-.57 1.5 1.5 0 0 1-.123-.637q0-.577.289-.89a.95.95 0 0 1 .732-.314.95.95 0 0 1 .727.312q.29.31.29.849 0 .674-.302.963zm.539-1.7a1.3 1.3 0 0 0-.502-.556 1.4 1.4 0 0 0-.753-.203q-.388-.001-.723.185-.337.181-.52.541a1.8 1.8 0 0 0-.182.814q0 .448.173.8a1.3 1.3 0 0 0 .506.552 1.4 1.4 0 0 0 .745.197q.63 0 1.029-.42.397-.42.397-1.164 0-.393-.17-.746"/>
    </g>
</svg>
