<svg xmlns="http://www.w3.org/2000/svg" viewBox="0 0 60 60">
    <defs>
        <filter id="1RY_svg__a" color-interpolation-filters="sRGB">
            <feFlood flood-color="#000" flood-opacity=".498" result="flood"/>
            <feComposite in="flood" in2="SourceGraphic" operator="in" result="composite1"/>
            <feGaussianBlur in="composite1" result="blur" stdDeviation="2.5"/>
            <feOffset dx="2" dy="2" result="offset"/>
            <feComposite in="SourceGraphic" in2="offset" result="composite2"/>
        </filter>
    </defs>
    <path fill="#fff" stroke="#000" stroke-width=".471" d="M52.961 30c0 12.68-10.28 22.96-22.962 22.96-12.68 0-22.96-10.28-22.96-22.96s10.28-22.96 22.96-22.96c12.682 0 22.962 10.278 22.962 22.96z" filter="url(#1RY_svg__a)" transform="translate(-4.762 -4.762)scale(1.15873)"/>
    <g stroke-width="1.918">
        <path fill="#86cfd0" d="M4.351 30.236c0-14.15 11.471-25.62 25.62-25.62 14.148 0 25.619 11.47 25.619 25.62 0 14.148-11.471 25.62-25.62 25.62-14.148 0-25.619-11.472-25.619-25.62"/>
        <path fill="#fff" d="M17.16 17.425c0-7.074 5.736-12.81 12.81-12.81s12.81 5.736 12.81 12.81-5.736 12.81-12.81 12.81-12.81-5.735-12.81-12.81"/>
        <g stroke="#273567" stroke-width="1.334">
            <path fill="#fff" d="m33.806 39.728 8.478 2.927-2.922-8.482m-18.996-.024-2.912 8.47 8.47-2.894m.031-18.994-8.464-2.916 2.891 8.468m18.981.024 2.909-8.468-8.464 2.901"/>
            <path fill="none" d="M19.596 30.235a10.273 10.273 0 1 1 20.546 0 10.273 10.273 0 0 1-20.546 0z"/>
        </g>
        <path fill="#273567" d="M23.545 32.945h-9.222v2.94l-5.882-5.449 5.882-5.443v2.942h9.223zm12.852-5.01h9.22v-2.942l5.884 5.443-5.883 5.45v-2.941h-9.221zm-3.804 8.926v9.215h2.94l-5.442 5.882-5.443-5.882h2.941V36.86zM27.589 23.61v-9.214h-2.94l5.442-5.883 5.441 5.883h-2.94v9.214z"/>
        <path fill="#fff" stroke="#273567" stroke-width="1.334" d="M19.819 30.44a10.273 10.273 0 1 1 20.545 0 10.273 10.273 0 0 1-20.545 0z"/>
        <path fill="#273567" d="m30.09 39.498-9.058-9.058 9.059-9.06 9.057 9.06z"/>
        <path fill="#fff" d="M34.116 31.531h-1.102q-.387 0-.565-.158a.52.52 0 0 1-.178-.406.56.56 0 0 1 .092-.313.52.52 0 0 1 .269-.208 1.5 1.5 0 0 1 .494-.065h.99zm0-3.1v1.546h-.534q-.18.001-.257-.016a.7.7 0 0 1-.21-.093 1 1 0 0 1-.234-.231 7 7 0 0 1-.334-.481l-.46-.725h-.577l.603.947a2.4 2.4 0 0 0 .382.464 1.2 1.2 0 0 0 .278.174q-.501.07-.741.324a.88.88 0 0 0-.24.626 1 1 0 0 0 .145.526.78.78 0 0 0 .387.331q.243.094.709.093h1.546v-3.485zm-3.942 0v1.477l1.342 2.01h-.555l-.69-1.055a14 14 0 0 1-.354-.59q-.158.277-.383.615l-.675 1.03h-.537l1.39-2.01V28.43zm-4.55 1.476q0-.657.217-.888.218-.231.725-.232a1 1 0 0 1 .504.117.65.65 0 0 1 .29.333q.083.214.084.67v2.01h.462v-2.015q0-.554-.134-.874a.97.97 0 0 0-.443-.489q-.313-.168-.803-.169-.505 0-.815.194a1.02 1.02 0 0 0-.429.504q-.12.309-.12.834v2.015h.462z"/>
        <path fill="none" stroke="#2c2c2b" stroke-width=".346" d="M3.395 30c0-14.692 11.912-26.605 26.604-26.605 14.695 0 26.606 11.912 26.606 26.606 0 14.692-11.912 26.604-26.604 26.604-14.693 0-26.605-11.912-26.605-26.604z"/>
    </g>
</svg>
