<svg xmlns="http://www.w3.org/2000/svg" viewBox="0 0 60 60">
    <defs>
        <filter id="1OU_svg__a" color-interpolation-filters="sRGB">
            <feFlood flood-color="#000" flood-opacity=".498" result="flood"/>
            <feComposite in="flood" in2="SourceGraphic" operator="in" result="composite1"/>
            <feGaussianBlur in="composite1" result="blur" stdDeviation="2.5"/>
            <feOffset dx="2" dy="2" result="offset"/>
            <feComposite in="SourceGraphic" in2="offset" result="composite2"/>
        </filter>
    </defs>
    <path fill="#fff" stroke="#000" stroke-width=".471" d="M52.961 30c0 12.68-10.28 22.96-22.962 22.96-12.68 0-22.96-10.28-22.96-22.96s10.28-22.96 22.96-22.96c12.682 0 22.962 10.278 22.962 22.96z" filter="url(#1OU_svg__a)" transform="translate(-4.762 -4.762)scale(1.15873)"/>
    <path fill="#86cfd0" d="M17.19 17.19c0-7.075 5.736-12.81 12.811-12.81 7.074 0 12.81 5.736 12.81 12.81C42.81 24.265 37.075 30 30 30s-12.81-5.735-12.81-12.81"/>
    <path fill="#273567" d="m29.987 50.189 4.526-9.292 9.752 3.367-3.36-9.755 9.27-4.522-9.27-4.525 3.345-9.739-9.732 3.337-4.53-9.249-4.501 9.239-9.735-3.352 3.324 9.737-9.25 4.538 9.232 4.508-3.349 9.74 9.74-3.328z"/>
    <path fill="#fff" stroke="#2c2c2b" stroke-width=".997" d="M18.187 30c0-6.524 5.292-11.812 11.813-11.812 6.526 0 11.813 5.288 11.813 11.812 0 6.525-5.287 11.813-11.813 11.813-6.521 0-11.813-5.288-11.813-11.813z"/>
    <path fill="#ff8f00" d="M19.878 30.001A10.12 10.12 0 0 1 29.999 19.88 10.12 10.12 0 0 1 40.122 30 10.12 10.12 0 0 1 30 40.121a10.12 10.12 0 0 1-10.121-10.12z"/>
    <path fill="none" stroke="#2c2c2b" stroke-width=".346" d="M3.394 30c0-14.693 11.912-26.604 26.607-26.604 14.693 0 26.605 11.911 26.605 26.604 0 14.694-11.912 26.604-26.605 26.604C15.306 56.604 3.394 44.695 3.394 30z"/>
    <path fill="#fff" d="M34.701 31.2a2.02 2.02 0 0 1-1.442.576q-.589 0-1.062-.3a1.9 1.9 0 0 1-.72-.842q-.245-.544-.245-1.274-.001-1.152.574-1.78.575-.626 1.466-.626.874 0 1.453.62.58.621.58 1.7 0 1.35-.603 1.926zm1.078-3.402a2.63 2.63 0 0 0-1.006-1.11 2.8 2.8 0 0 0-1.505-.409q-.776 0-1.449.369a2.5 2.5 0 0 0-1.037 1.087q-.365.717-.365 1.624 0 .897.348 1.604a2.6 2.6 0 0 0 1.01 1.103 2.85 2.85 0 0 0 1.49.394q1.26 0 2.057-.841.798-.84.797-2.328 0-.787-.342-1.493zm-6.42-1.421v5.975h-.794v-2.455H25.47v2.455h-.792v-5.975h.792v2.814h3.096v-2.814z"/>
</svg>
