<svg xmlns="http://www.w3.org/2000/svg" viewBox="0 0 60 60">
    <defs>
        <filter id="1HI_svg__a" color-interpolation-filters="sRGB">
            <feFlood flood-color="#000" flood-opacity=".498" result="flood"/>
            <feComposite in="flood" in2="SourceGraphic" operator="in" result="composite1"/>
            <feGaussianBlur in="composite1" result="blur" stdDeviation="2.5"/>
            <feOffset dx="2" dy="2" result="offset"/>
            <feComposite in="SourceGraphic" in2="offset" result="composite2"/>
        </filter>
    </defs>
    <path fill="#fff" stroke="#000" stroke-width=".471" d="M52.961 30c0 12.68-10.28 22.96-22.962 22.96-12.68 0-22.96-10.28-22.96-22.96s10.28-22.96 22.96-22.96c12.682 0 22.962 10.278 22.962 22.96z" filter="url(#1HI_svg__a)" transform="translate(-4.762 -4.762)scale(1.15873)"/>
    <g stroke-width="1.918">
        <path fill="none" stroke="#2c2c2b" stroke-width=".346" d="M3.395 30c0-14.693 11.912-26.604 26.604-26.604 14.695 0 26.606 11.911 26.606 26.604 0 14.694-11.912 26.604-26.604 26.604-14.693 0-26.605-11.91-26.605-26.604z"/>
        <path fill="#86cfd0" d="M17.19 17.19c0-7.075 5.735-12.81 12.81-12.81s12.81 5.736 12.81 12.81S37.075 30 30 30s-12.81-5.736-12.81-12.81"/>
        <path fill="#273567" d="M23.574 32.195h-9.223v2.94l-5.88-5.45 5.881-5.443v2.941h9.223zm12.852-5.012h9.223v-2.94l5.882 5.442-5.883 5.45v-2.94h-9.223zm-3.804 8.927v9.215h2.94l-5.442 5.882-5.443-5.882h2.941V36.11zm-5.004-13.251v-9.214h-2.94l5.442-5.883 5.442 5.883h-2.94v9.214z"/>
        <path fill="#fff" stroke="#273567" stroke-width="1.334" d="M19.847 29.688a10.27 10.27 0 0 1 10.273-10.27 10.272 10.272 0 1 1 0 20.542 10.27 10.27 0 0 1-10.272-10.272z"/>
        <path fill="#273567" d="m30.12 38.747-9.059-9.059 9.059-9.057 9.059 9.057z"/>
        <path fill="#fff" d="M36.359 28.282v2.988h-.396v-1.228h-1.548v1.228h-.396v-2.988h.396v1.406h1.548v-1.406zm-3.066 0v2.988h-.397v-2.988zm-1.122.425a.94.94 0 0 0-.429-.356 1.7 1.7 0 0 0-.677-.118q-.318.001-.572.116a.9.9 0 0 0-.39.329.8.8 0 0 0-.136.448.74.74 0 0 0 .124.424.9.9 0 0 0 .386.304 4 4 0 0 0 .658.191q.476.109.59.212a.34.34 0 0 1 .116.266.4.4 0 0 1-.163.316q-.163.132-.519.132-.341-.001-.515-.143a.6.6 0 0 1-.205-.422l-.38.026a.9.9 0 0 0 .146.47.84.84 0 0 0 .388.315 1.5 1.5 0 0 0 .583.106q.298 0 .544-.102a.8.8 0 0 0 .373-.299.77.77 0 0 0 .128-.424.7.7 0 0 0-.105-.372.8.8 0 0 0-.317-.279 2.8 2.8 0 0 0-.572-.187 5 5 0 0 1-.528-.146.6.6 0 0 1-.27-.176.38.38 0 0 1-.083-.243q0-.139.086-.257a.54.54 0 0 1 .255-.186 1.1 1.1 0 0 1 .396-.066 1.1 1.1 0 0 1 .455.088.67.67 0 0 1 .3.232.84.84 0 0 1 .122.37l.374-.033a1 1 0 0 0-.163-.536m-2.765-.425v2.988h-.397v-1.228H27.46v1.228h-.397v-2.988h.397v1.406h1.548v-1.406zm-3.856 2.103q-.105.284-.166.574a11 11 0 0 0-.214-.623l-.313-.827h1.02zm.766-2.103-.327.907h-1.258l-.343-.907h-.45l1.221 2.988h.434l1.142-2.988z"/>
    </g>
</svg>
