<svg xmlns="http://www.w3.org/2000/svg" viewBox="0 0 60 60">
    <defs>
        <filter id="1GI_svg__a" color-interpolation-filters="sRGB">
            <feFlood flood-color="#000" flood-opacity=".498" result="flood"/>
            <feComposite in="flood" in2="SourceGraphic" operator="in" result="composite1"/>
            <feGaussianBlur in="composite1" result="blur" stdDeviation="2.5"/>
            <feOffset dx="2" dy="2" result="offset"/>
            <feComposite in="SourceGraphic" in2="offset" result="composite2"/>
        </filter>
    </defs>
    <path fill="#fff" stroke="#000" stroke-width=".471" d="M52.961 30c0 12.68-10.28 22.96-22.962 22.96-12.68 0-22.96-10.28-22.96-22.96s10.28-22.96 22.96-22.96c12.682 0 22.962 10.278 22.962 22.96z" filter="url(#1GI_svg__a)" transform="translate(-4.762 -4.762)scale(1.15873)"/>
    <g stroke-width="1.918">
        <path fill="none" stroke="#2c2c2b" stroke-width=".346" d="M3.394 30c0-14.693 11.913-26.604 26.607-26.604S56.606 15.307 56.606 30c0 14.694-11.912 26.604-26.605 26.604-14.694 0-26.607-11.91-26.607-26.604z"/>
        <path fill="#86cfd0" d="M17.19 17.19c0-7.075 5.736-12.81 12.811-12.81 7.074 0 12.81 5.736 12.81 12.81C42.81 24.265 37.075 30 30 30s-12.81-5.735-12.81-12.81"/>
        <path fill="#273567" d="m20.497 32.764-2.912 8.47 8.47-2.896 3.946 8.085 3.936-8.081 8.479 2.927-2.923-8.482M26.088 19.346l-8.466-2.916 2.891 8.467m18.982.023 2.908-8.468-8.463 2.903"/>
        <path fill="#fff" stroke="#273567" stroke-width="1.334" d="M19.728 28.848a10.273 10.273 0 1 1 20.546.003 10.273 10.273 0 0 1-20.546-.003z"/>
        <path fill="#273567" d="M22.117 28.848a7.88 7.88 0 0 1 7.884-7.884 7.88 7.88 0 0 1 7.882 7.884A7.88 7.88 0 0 1 30 36.731a7.88 7.88 0 0 1-7.884-7.883z"/>
        <path fill="#fff" d="M32.862 28.38v.467h-1.684v-1.475a3 3 0 0 1 .801-.465 2.4 2.4 0 0 1 1.913.095 1.66 1.66 0 0 1 .724.727 2.3 2.3 0 0 1 .245 1.061q0 .581-.243 1.086a1.6 1.6 0 0 1-.7.747 2.2 2.2 0 0 1-1.05.244 2.1 2.1 0 0 1-.78-.14 1.3 1.3 0 0 1-.547-.391 1.7 1.7 0 0 1-.301-.653l.489-.13a1.5 1.5 0 0 0 .22.476.9.9 0 0 0 .379.278 1.4 1.4 0 0 0 .544.104 1.6 1.6 0 0 0 .622-.11 1.2 1.2 0 0 0 .422-.29 1.4 1.4 0 0 0 .25-.393q.152-.37.151-.802 0-.533-.182-.891a1.17 1.17 0 0 0-.53-.533 1.6 1.6 0 0 0-.74-.174 1.8 1.8 0 0 0-.665.132 1.7 1.7 0 0 0-.49.284v.746zm-2.556-1.564v3.987h-.533v-3.987zm-1.447 0v3.987h-.545l-2.095-3.13v3.13h-.51v-3.987h.545l2.095 3.13v-3.13z"/>
    </g>
</svg>
