<svg xmlns="http://www.w3.org/2000/svg" viewBox="0 0 60 60">
    <defs>
        <filter id="0UM_svg__a" color-interpolation-filters="sRGB">
            <feFlood flood-color="#000" flood-opacity=".498" result="flood"/>
            <feComposite in="flood" in2="SourceGraphic" operator="in" result="composite1"/>
            <feGaussianBlur in="composite1" result="blur" stdDeviation="2.5"/>
            <feOffset dx="2" dy="2" result="offset"/>
            <feComposite in="SourceGraphic" in2="offset" result="composite2"/>
        </filter>
    </defs>
    <path fill="#fff" stroke="#000" stroke-width=".471" d="M52.961 30c0 12.68-10.28 22.96-22.962 22.96-12.68 0-22.96-10.28-22.96-22.96s10.28-22.96 22.96-22.96c12.682 0 22.962 10.278 22.962 22.96z" filter="url(#0UM_svg__a)" transform="translate(-4.762 -4.762)scale(1.15873)"/>
    <g stroke-width="1.918">
        <path fill="#86cfd0" d="M55.65 29.764c0 14.15-11.472 25.62-25.62 25.62-14.15 0-25.62-11.47-25.62-25.62 0-14.148 11.47-25.62 25.62-25.62 14.148 0 25.62 11.472 25.62 25.62"/>
        <path fill="#fff" d="M42.84 42.575c0 7.074-5.736 12.81-12.81 12.81s-12.81-5.736-12.81-12.81 5.735-12.81 12.81-12.81c7.074 0 12.81 5.735 12.81 12.81"/>
        <path fill="#fff" stroke="#273567" stroke-width="1.334" d="m20.757 25.907-8.065 3.924 8.065 3.932m13.45-13.416L30.275 12.3l-3.943 8.034M39.74 33.788l8.049-3.924-8.033-3.943"/>
        <path fill="none" stroke="#273567" stroke-width="1.334" d="m26.318 39.326 3.931 8.045 3.933-8.037"/>
        <path fill="#273567" d="M37.519 22.57a10.27 10.27 0 0 1-.001 14.528 10.27 10.27 0 0 1-14.527 0A10.273 10.273 0 0 1 37.519 22.57"/>
        <path fill="#273567" d="m33.035 23.176 6.522-6.522-2.079-2.078 8.013-.306-.31 8.007-2.082-2.08-6.52 6.522zM27.35 35.948l-6.52 6.52 2.079 2.08-8.007.312.305-8.014 2.078 2.08 6.522-6.521zm-3.564-8.822L17.27 20.61l-2.08 2.08-.311-8.008 8.006.31-2.077 2.082 6.514 6.514zm12.907 5.833 6.515 6.515 2.08-2.078.312 8.006-8.01-.31 2.08-2.08-6.514-6.516z"/>
        <path fill="#fff" stroke="#273567" stroke-width="1.334" d="M37.24 22.515c4.012 4.012 4.009 10.517 0 14.527a10.27 10.27 0 0 1-14.527 0 10.27 10.27 0 0 1 0-14.526c4.011-4.01 10.515-4.012 14.527 0z"/>
        <path fill="#273567" d="M36.381 23.374v12.81h-12.81v-12.81z"/>
        <path fill="#fff" d="M27.095 28.446h.461v2.015q0 .526-.12.834a1.02 1.02 0 0 1-.428.504q-.31.193-.816.193-.488 0-.801-.169a.96.96 0 0 1-.444-.489q-.134-.32-.133-.873v-2.017h.46v2.013q0 .452.085.669a.64.64 0 0 0 .29.332q.207.116.504.116.507.001.725-.232.216-.23.217-.885zm1.21 3.486v-3.488h.692l.828 2.468q.115.344.167.516.06-.19.185-.56l.838-2.422h.62v3.487h-.445v-2.917l-1.015 2.916h-.416l-1.008-2.97v2.97zm5.072-2.454q.12-.33.19-.669.084.289.253.727l.36.967h-1.182zm-.893 2.454.377-1.054h1.463l.404 1.054h.525l-1.422-3.488h-.504l-1.33 3.488z"/>
        <path fill="none" stroke="#2c2c2b" stroke-width=".346" d="M56.606 30c0 14.692-11.913 26.605-26.607 26.605S3.394 44.693 3.394 29.999C3.394 15.307 15.306 3.395 30 3.395s26.607 11.912 26.607 26.604z"/>
    </g>
</svg>
