<svg xmlns="http://www.w3.org/2000/svg" viewBox="0 0 60 60">
    <defs>
        <filter id="0NY_svg__a" color-interpolation-filters="sRGB">
            <feFlood flood-color="#000" flood-opacity=".498" result="flood"/>
            <feComposite in="flood" in2="SourceGraphic" operator="in" result="composite1"/>
            <feGaussianBlur in="composite1" result="blur" stdDeviation="2.5"/>
            <feOffset dx="2" dy="2" result="offset"/>
            <feComposite in="SourceGraphic" in2="offset" result="composite2"/>
        </filter>
    </defs>
    <path fill="#fff" stroke="#000" stroke-width=".471" d="M52.961 30c0 12.68-10.28 22.96-22.962 22.96-12.68 0-22.96-10.28-22.96-22.96s10.28-22.96 22.96-22.96c12.682 0 22.962 10.278 22.962 22.96z" filter="url(#0NY_svg__a)" transform="translate(-4.762 -4.762)scale(1.15873)"/>
    <g stroke-width="1.918">
        <path fill="#86cfd0" d="M55.62 30c0 14.149-11.471 25.619-25.62 25.619S4.38 44.149 4.38 29.999C4.38 15.851 15.851 4.38 30 4.38S55.619 15.851 55.619 30z"/>
        <path fill="#fff" d="M42.81 42.81c0 7.074-5.735 12.809-12.81 12.809s-12.811-5.735-12.811-12.81S22.924 30 29.999 30 42.81 35.736 42.81 42.81"/>
        <path fill="none" stroke="#2c2c2b" stroke-width=".346" d="M56.605 30c0 14.692-11.912 26.605-26.606 26.605-14.693 0-26.604-11.912-26.604-26.606 0-14.692 11.91-26.604 26.604-26.604s26.606 11.912 26.606 26.604z"/>
        <path fill="#fff" stroke="#877ea6" stroke-width="1.334" d="M40.273 30.178a10.272 10.272 0 1 1-20.545 0 10.27 10.27 0 0 1 10.273-10.27 10.27 10.27 0 0 1 10.272 10.27z"/>
        <path fill="#273567" d="m26.979 37.494 3.03 6.187L33.02 37.5"/>
        <path fill="#877ea6" d="M27.498 23.593v-9.214h-2.94l5.443-5.883 5.441 5.883h-2.94v9.214z"/>
        <path fill="#fff" stroke="#2c2c2b" stroke-width=".666" d="M22.212 30.065a7.69 7.69 0 0 1 7.69-7.69 7.692 7.692 0 1 1-7.69 7.69z"/>
        <path fill="#2c2c2b" d="M37.885 30.178A7.88 7.88 0 0 1 30 38.063a7.88 7.88 0 0 1-7.883-7.885A7.88 7.88 0 0 1 30 22.295a7.88 7.88 0 0 1 7.884 7.883z"/>
        <path fill="#273567" d="m37.308 33.23 6.187-3.036-6.176-3.015 2.239-6.514-6.513 2.224-3.036-6.217-3.03 6.215-6.52-2.251 2.249 6.523-6.202 3.027 6.2 3.024"/>
        <path fill="#fff" stroke="#273567" stroke-width="1.334" d="M37.911 30.19a7.9 7.9 0 0 1-7.902 7.902 7.902 7.902 0 1 1 0-15.804 7.9 7.9 0 0 1 7.902 7.903z"/>
        <path fill="#273567" d="M34.937 30.188a4.927 4.927 0 1 1-9.854.003 4.927 4.927 0 0 1 9.854-.003"/>
        <path fill="#fff" d="M25.943 31.904v-2.987h.396v1.479l1.483-1.479h.538l-1.255 1.211 1.31 1.776h-.522l-1.066-1.508-.488.471v1.037zm3.64 0V30.64l-1.151-1.722h.475l.59.904q.166.252.307.504.137-.234.326-.53l.58-.878h.46l-1.19 1.722v1.265zm2.531-2.41a1 1 0 0 1 .72-.288.95.95 0 0 1 .892.57q.122.273.123.637 0 .577-.289.89a.95.95 0 0 1-.732.314.95.95 0 0 1-.727-.312q-.29-.31-.29-.849 0-.674.302-.963zm-.539 1.7q.172.352.502.556.331.203.753.203.389.001.723-.185.337-.181.52-.541.182-.359.182-.814 0-.448-.173-.8a1.3 1.3 0 0 0-.506-.552 1.4 1.4 0 0 0-.745-.197q-.63 0-1.029.42-.397.42-.397 1.164 0 .393.17.746"/>
    </g>
</svg>
