<svg xmlns="http://www.w3.org/2000/svg" viewBox="0 0 60 60">
    <defs>
        <filter id="0TO_svg__a" color-interpolation-filters="sRGB">
            <feFlood flood-color="#000" flood-opacity=".498" result="flood"/>
            <feComposite in="flood" in2="SourceGraphic" operator="in" result="composite1"/>
            <feGaussianBlur in="composite1" result="blur" stdDeviation="2.5"/>
            <feOffset dx="2" dy="2" result="offset"/>
            <feComposite in="SourceGraphic" in2="offset" result="composite2"/>
        </filter>
    </defs>
    <path fill="#fff" stroke="#000" stroke-width=".471" d="M52.961 30c0 12.68-10.28 22.96-22.962 22.96-12.68 0-22.96-10.28-22.96-22.96s10.28-22.96 22.96-22.96c12.682 0 22.962 10.278 22.962 22.96z" filter="url(#0TO_svg__a)" transform="translate(-4.762 -4.762)scale(1.15873)"/>
    <g stroke-width="1.918">
        <path fill="#86cfd0" d="M55.588 29.756c0 14.15-11.471 25.62-25.62 25.62S4.349 43.906 4.349 29.756c0-14.148 11.47-25.62 25.62-25.62 14.148 0 25.62 11.472 25.62 25.62z"/>
        <path fill="#fff" d="M42.778 42.567c0 7.074-5.735 12.809-12.81 12.809-7.074 0-12.81-5.735-12.81-12.809 0-7.075 5.736-12.81 12.81-12.81s12.81 5.735 12.81 12.81"/>
        <path fill="#fff" stroke="#273567" stroke-width="1.334" d="m37.277 32.805 6.187-3.037-6.176-3.014 2.24-6.516-6.514 2.226-3.035-6.218-3.029 6.216-6.521-2.253 2.248 6.525-6.202 3.026 6.2 3.025m4.273 4.283 3.031 6.187 3.01-6.18"/>
        <path fill="#fff" stroke="#2c2c2b" stroke-width=".666" d="M37.88 29.764a7.901 7.901 0 1 1-15.802 0 7.901 7.901 0 1 1 15.803 0z"/>
        <path fill="#273567" d="m34.107 23.54-3.946-8.083-3.936 8.08"/>
        <path fill="#fff" stroke="#273567" stroke-width="1.334" d="M22.277 29.746a7.691 7.691 0 1 1 15.382 0 7.691 7.691 0 0 1-15.382 0z"/>
        <path fill="#273567" d="M25.042 29.746a4.926 4.926 0 0 1 4.927-4.927 4.927 4.927 0 1 1-4.927 4.927"/>
        <path fill="#fff" d="M28.077 31.508v-2.635h-.983v-.352h2.363v.352h-.984v2.635zm2.302-2.411a1 1 0 0 1 .72-.288 1 1 0 0 1 .532.149q.238.15.36.423.123.27.123.636 0 .575-.288.89a.95.95 0 0 1-.732.313.95.95 0 0 1-.727-.311q-.29-.31-.29-.85 0-.674.302-.962m-.538 1.7q.17.352.502.557.33.204.753.203.388.002.723-.186.336-.18.52-.54a1.76 1.76 0 0 0 .182-.814q0-.45-.173-.8a1.3 1.3 0 0 0-.507-.552 1.4 1.4 0 0 0-.744-.199q-.63.001-1.029.421t-.398 1.165q0 .393.171.746z"/>
        <path fill="none" stroke="#2c2c2b" stroke-width=".346" d="M56.604 30c0 14.692-11.911 26.605-26.604 26.605-14.694 0-26.604-11.912-26.604-26.606C3.396 15.307 15.306 3.395 30 3.395s26.604 11.912 26.604 26.604z"/>
    </g>
</svg>
