<svg xmlns="http://www.w3.org/2000/svg" viewBox="0 0 60 60">
    <defs>
        <filter id="0RY_svg__a" color-interpolation-filters="sRGB">
            <feFlood flood-color="#000" flood-opacity=".498" result="flood"/>
            <feComposite in="flood" in2="SourceGraphic" operator="in" result="composite1"/>
            <feGaussianBlur in="composite1" result="blur" stdDeviation="2.5"/>
            <feOffset dx="2" dy="2" result="offset"/>
            <feComposite in="SourceGraphic" in2="offset" result="composite2"/>
        </filter>
    </defs>
    <path fill="#fff" stroke="#000" stroke-width=".471" d="M52.961 30c0 12.68-10.28 22.96-22.962 22.96-12.68 0-22.96-10.28-22.96-22.96s10.28-22.96 22.96-22.96c12.682 0 22.962 10.278 22.962 22.96z" filter="url(#0RY_svg__a)" transform="translate(-4.762 -4.762)scale(1.15873)"/>
    <g stroke-width="1.918">
        <path fill="#86cfd0" d="M55.649 29.764c0 14.15-11.471 25.62-25.62 25.62-14.148 0-25.619-11.47-25.619-25.62 0-14.148 11.471-25.62 25.62-25.62 14.148 0 25.619 11.472 25.619 25.62"/>
        <path fill="#fff" d="M42.84 42.575c0 7.074-5.736 12.81-12.81 12.81s-12.81-5.736-12.81-12.81 5.736-12.81 12.81-12.81 12.81 5.735 12.81 12.81"/>
        <g stroke="#273567" stroke-width="1.334">
            <path fill="#fff" d="m26.194 20.272-8.478-2.927 2.922 8.482m18.996.024 2.912-8.47-8.47 2.894m-.031 18.994 8.464 2.916-2.891-8.468m-18.981-.024-2.909 8.468 8.464-2.901"/>
            <path fill="none" d="M40.404 29.765a10.273 10.273 0 1 1-20.546 0 10.273 10.273 0 0 1 20.546 0z"/>
        </g>
        <path fill="#273567" d="M36.455 27.055h9.222v-2.94l5.882 5.449-5.882 5.443v-2.942h-9.223zm-12.852 5.01h-9.22v2.942l-5.884-5.443 5.883-5.45v2.941h9.221zm3.804-8.926v-9.215h-2.94l5.442-5.882 5.443 5.882H32.41v9.215zm5.004 13.252v9.214h2.94l-5.442 5.883-5.441-5.883h2.94v-9.214z"/>
        <path fill="#fff" stroke="#273567" stroke-width="1.334" d="M40.181 29.56a10.273 10.273 0 1 1-20.545 0 10.273 10.273 0 0 1 20.545 0z"/>
        <path fill="#273567" d="m29.91 20.502 9.058 9.058-9.059 9.06-9.057-9.06z"/>
        <path fill="#fff" d="M25.884 28.469h1.102q.387 0 .565.158a.52.52 0 0 1 .178.406.56.56 0 0 1-.092.313.52.52 0 0 1-.269.208 1.5 1.5 0 0 1-.494.065h-.99zm0 3.1v-1.546h.534q.18-.001.257.016a.7.7 0 0 1 .21.093 1 1 0 0 1 .234.231q.131.17.334.481l.46.725h.577l-.603-.947a2.4 2.4 0 0 0-.382-.464 1.2 1.2 0 0 0-.278-.174q.501-.07.741-.324a.88.88 0 0 0 .24-.626 1 1 0 0 0-.145-.526.78.78 0 0 0-.387-.331q-.243-.094-.709-.093h-1.546v3.485zm3.942 0v-1.477l-1.342-2.01h.555l.69 1.055q.187.296.354.59.158-.277.383-.615l.675-1.03h.537l-1.39 2.01v1.477zm4.55-1.476q0 .657-.217.888-.218.231-.725.232a1 1 0 0 1-.504-.117.65.65 0 0 1-.29-.333q-.083-.214-.084-.67v-2.01h-.462v2.015q0 .554.134.874a.97.97 0 0 0 .443.489q.313.168.803.169.505 0 .815-.194a1.02 1.02 0 0 0 .429-.504q.12-.309.12-.834v-2.015h-.462z"/>
        <path fill="none" stroke="#2c2c2b" stroke-width=".346" d="M56.605 30c0 14.692-11.912 26.605-26.604 26.605-14.695 0-26.606-11.912-26.606-26.606 0-14.692 11.912-26.604 26.604-26.604 14.693 0 26.605 11.912 26.605 26.604z"/>
    </g>
</svg>
