<svg xmlns="http://www.w3.org/2000/svg" viewBox="0 0 60 60">
    <defs>
        <filter id="0NG_svg__a" color-interpolation-filters="sRGB">
            <feFlood flood-color="#000" flood-opacity=".498" result="flood"/>
            <feComposite in="flood" in2="SourceGraphic" operator="in" result="composite1"/>
            <feGaussianBlur in="composite1" result="blur" stdDeviation="2.5"/>
            <feOffset dx="2" dy="2" result="offset"/>
            <feComposite in="SourceGraphic" in2="offset" result="composite2"/>
        </filter>
    </defs>
    <path fill="#fff" stroke="#000" stroke-width=".471" d="M52.961 30c0 12.68-10.28 22.96-22.962 22.96-12.68 0-22.96-10.28-22.96-22.96s10.28-22.96 22.96-22.96c12.682 0 22.962 10.278 22.962 22.96z" filter="url(#0NG_svg__a)" transform="translate(-4.762 -4.762)scale(1.15873)"/>
    <g stroke-width="1.918">
        <path fill="#86cfd0" d="M55.516 30c0 14.149-11.471 25.619-25.62 25.619S4.277 44.149 4.277 29.999c0-14.148 11.47-25.619 25.62-25.619 14.148 0 25.62 11.471 25.62 25.62z"/>
        <path fill="#fff" d="M42.707 42.81c0 7.074-5.736 12.809-12.81 12.809s-12.811-5.735-12.811-12.81S22.822 30 29.896 30s12.81 5.736 12.81 12.81z"/>
        <path fill="#877ea6" d="m33.75 38.78 8.464 2.917-2.89-8.468m.015-7.867 2.912-8.469-8.47 2.893-3.946-8.083-3.936 8.08-8.478-2.927 2.922 8.482m-.001 7.866-2.908 8.468 8.463-2.9"/>
        <path fill="#fff" stroke="#877ea6" stroke-width="1.334" d="M40.11 29.276a10.273 10.273 0 1 1-20.547 0 10.273 10.273 0 0 1 20.547 0z"/>
        <path fill="#273567" d="m37.204 32.405 6.187-3.036-6.176-3.015 2.24-6.515-6.513 2.225-3.036-6.217-3.029 6.215-6.521-2.251 2.248 6.523-6.202 3.026 6.2 3.026m4.274 4.283 3.031 6.187 3.01-6.18"/>
        <path fill="#fff" stroke="#273567" stroke-width="1.334" d="M37.809 29.364a7.903 7.903 0 1 1-15.805 0 7.9 7.9 0 0 1 7.902-7.9 7.9 7.9 0 0 1 7.903 7.9z"/>
        <path fill="#273567" d="M34.833 29.363a4.928 4.928 0 1 1-9.854.003 4.928 4.928 0 0 1 9.854-.003"/>
        <path fill="#fff" d="M27.854 29.907v-.354h1.267v1.11a2.2 2.2 0 0 1-.6.347q-.31.119-.636.118a1.7 1.7 0 0 1-.8-.188 1.24 1.24 0 0 1-.54-.544 1.7 1.7 0 0 1-.183-.799q0-.435.182-.814a1.2 1.2 0 0 1 .523-.561q.342-.184.788-.184.323 0 .585.104a1 1 0 0 1 .41.293q.148.187.225.49l-.355.096a1.1 1.1 0 0 0-.167-.359.7.7 0 0 0-.285-.208 1.1 1.1 0 0 0-.41-.08q-.271 0-.469.084a.9.9 0 0 0-.318.217 1 1 0 0 0-.188.297 1.6 1.6 0 0 0-.115.602q.001.4.137.671a.9.9 0 0 0 .4.4q.263.13.558.13.258 0 .5-.099.244-.098.372-.212v-.557zm1.92 1.172v-2.987h.397v2.987zm1.09 0v-2.987h.405l1.57 2.345v-2.345h.381v2.987h-.407l-1.57-2.345v2.345z"/>
        <path fill="none" stroke="#2c2c2b" stroke-width=".346" d="M56.606 30c0 14.692-11.912 26.605-26.607 26.605-14.693 0-26.605-11.912-26.605-26.606C3.394 15.307 15.306 3.395 30 3.395s26.607 11.912 26.607 26.604z"/>
    </g>
</svg>
