<svg xmlns="http://www.w3.org/2000/svg" viewBox="0 0 60 60">
    <defs>
        <filter id="0KA_svg__a" color-interpolation-filters="sRGB">
            <feFlood flood-color="#000" flood-opacity=".498" result="flood"/>
            <feComposite in="flood" in2="SourceGraphic" operator="in" result="composite1"/>
            <feGaussianBlur in="composite1" result="blur" stdDeviation="2.5"/>
            <feOffset dx="2" dy="2" result="offset"/>
            <feComposite in="SourceGraphic" in2="offset" result="composite2"/>
        </filter>
    </defs>
    <path fill="#fff" stroke="#000" stroke-width=".471" d="M52.961 30c0 12.68-10.28 22.96-22.962 22.96-12.68 0-22.96-10.28-22.96-22.96s10.28-22.96 22.96-22.96c12.682 0 22.962 10.278 22.962 22.96z" filter="url(#0KA_svg__a)" transform="translate(-4.762 -4.762)scale(1.15873)"/>
    <g stroke-width="1.918">
        <path fill="none" stroke="#2c2c2b" stroke-width=".346" d="M56.606 30c0 14.693-11.913 26.604-26.607 26.604S3.394 44.693 3.394 30C3.394 15.306 15.306 3.396 30 3.396S56.607 15.306 56.607 30z"/>
        <path fill="#86cfd0" d="M42.81 42.81c0 7.075-5.736 12.81-12.811 12.81-7.074 0-12.81-5.736-12.81-12.81C17.19 35.735 22.925 30 30 30s12.81 5.735 12.81 12.81"/>
        <path fill="#273567" d="m32.795 23.243 6.522-6.522-2.08-2.079 8.014-.306-.312 8.007-2.08-2.079-6.52 6.522zm-5.686 12.772-6.52 6.521 2.079 2.079-8.007.312.305-8.014 2.078 2.08 6.523-6.523zm-3.564-8.823-6.515-6.515-2.08 2.08-.311-8.01 8.007.314-2.08 2.078 6.516 6.516zm12.908 5.833 6.515 6.516 2.08-2.08.31 8.008-8.007-.312 2.08-2.078-6.516-6.517z"/>
        <path fill="#fff" stroke="#273567" stroke-width="1.334" d="M37 22.582a10.27 10.27 0 0 1 0 14.526 10.27 10.27 0 0 1-14.528.002 10.27 10.27 0 0 1 0-14.527 10.27 10.27 0 0 1 14.527-.001z"/>
        <path fill="#273567" d="M36.141 23.44v12.81h-12.81V23.44z"/>
        <path fill="#fff" d="M24.296 31.396V28.41h.396v1.477l1.484-1.477h.537l-1.255 1.21 1.31 1.776h-.522l-1.066-1.507-.487.47v1.037zm2.472 0 1.143-2.987h.433l1.223 2.986h-.451l-.343-.906h-1.257l-.328.906zm.858-1.228h1.022l-.313-.827a11 11 0 0 1-.216-.623 4 4 0 0 1-.165.574zm2.235 1.228V28.41h.396v1.477l1.483-1.477h.538l-1.255 1.21 1.31 1.776h-.522l-1.066-1.507-.488.47v1.037zm4.759-1.266q0 .562-.186.759-.185.196-.62.197a.9.9 0 0 1-.432-.1.55.55 0 0 1-.249-.284q-.071-.184-.072-.572v-1.72h-.396v1.723q0 .476.114.749a.83.83 0 0 0 .382.418q.266.145.686.145.433 0 .7-.166a.88.88 0 0 0 .367-.432q.103-.263.102-.714V28.41h-.396z"/>
    </g>
</svg>
