<svg xmlns="http://www.w3.org/2000/svg" viewBox="0 0 60 60">
    <defs>
        <filter id="0OU_svg__a" color-interpolation-filters="sRGB">
            <feFlood flood-color="#000" flood-opacity=".498" result="flood"/>
            <feComposite in="flood" in2="SourceGraphic" operator="in" result="composite1"/>
            <feGaussianBlur in="composite1" result="blur" stdDeviation="2.5"/>
            <feOffset dx="2" dy="2" result="offset"/>
            <feComposite in="SourceGraphic" in2="offset" result="composite2"/>
        </filter>
    </defs>
    <path fill="#fff" stroke="#000" stroke-width=".471" d="M52.961 30c0 12.68-10.28 22.96-22.962 22.96-12.68 0-22.96-10.28-22.96-22.96s10.28-22.96 22.96-22.96c12.682 0 22.962 10.278 22.962 22.96z" filter="url(#0OU_svg__a)" transform="translate(-4.762 -4.762)scale(1.15873)"/>
    <path fill="#86cfd0" d="M42.81 42.81c0 7.075-5.736 12.81-12.811 12.81-7.074 0-12.81-5.736-12.81-12.81C17.19 35.735 22.925 30 30 30s12.81 5.735 12.81 12.81"/>
    <path fill="#273567" d="m30.013 9.811-4.526 9.292-9.752-3.367 3.36 9.755-9.27 4.522 9.27 4.525-3.345 9.739 9.732-3.337 4.53 9.249 4.501-9.239 9.735 3.352-3.324-9.737 9.25-4.538-9.232-4.508 3.349-9.74-9.74 3.328z"/>
    <path fill="#fff" stroke="#2c2c2b" stroke-width=".997" d="M41.813 30c0 6.524-5.292 11.812-11.813 11.812-6.526 0-11.813-5.288-11.813-11.812 0-6.525 5.287-11.813 11.813-11.813 6.521 0 11.813 5.288 11.813 11.813z"/>
    <path fill="#ff8f00" d="M40.122 29.999A10.12 10.12 0 0 1 30.001 40.12 10.12 10.12 0 0 1 19.878 30 10.12 10.12 0 0 1 30 19.879a10.12 10.12 0 0 1 10.121 10.12z"/>
    <path fill="none" stroke="#2c2c2b" stroke-width=".346" d="M56.606 30c0 14.693-11.912 26.604-26.607 26.604C15.306 56.604 3.394 44.693 3.394 30 3.394 15.306 15.306 3.396 30 3.396S56.607 15.305 56.607 30z"/>
    <path fill="#fff" d="M25.299 28.8a2.02 2.02 0 0 1 1.441-.576q.59 0 1.063.3.474.3.72.842.245.544.245 1.274.001 1.152-.574 1.78-.575.627-1.466.626-.873 0-1.453-.62-.58-.621-.58-1.7 0-1.35.603-1.926zm-1.078 3.402q.344.704 1.006 1.11.663.41 1.505.409.776 0 1.449-.369a2.5 2.5 0 0 0 1.037-1.087q.365-.717.365-1.624 0-.896-.348-1.604a2.6 2.6 0 0 0-1.01-1.103 2.85 2.85 0 0 0-1.49-.394q-1.26 0-2.057.841-.798.84-.797 2.328 0 .787.342 1.493zm6.42 1.421v-5.975h.794v2.455h3.096v-2.455h.792v5.975h-.792V30.81h-3.096v2.814z"/>
</svg>
