<svg xmlns="http://www.w3.org/2000/svg" viewBox="0 0 60 60">
    <defs>
        <filter id="0KY_svg__a" color-interpolation-filters="sRGB">
            <feFlood flood-color="#000" flood-opacity=".498" result="flood"/>
            <feComposite in="flood" in2="SourceGraphic" operator="in" result="composite1"/>
            <feGaussianBlur in="composite1" result="blur" stdDeviation="2.5"/>
            <feOffset dx="2" dy="2" result="offset"/>
            <feComposite in="SourceGraphic" in2="offset" result="composite2"/>
        </filter>
    </defs>
    <path fill="#fff" stroke="#000" stroke-width=".471" d="M52.961 30c0 12.68-10.28 22.96-22.962 22.96-12.68 0-22.96-10.28-22.96-22.96s10.28-22.96 22.96-22.96c12.682 0 22.962 10.278 22.962 22.96z" filter="url(#0KY_svg__a)" transform="translate(-4.762 -4.762)scale(1.15873)"/>
    <g stroke-width="1.918">
        <path fill="none" stroke="#2c2c2b" stroke-width=".346" d="M56.605 30c0 14.693-11.912 26.604-26.606 26.604C15.307 56.604 3.395 44.693 3.395 30c0-14.694 11.912-26.604 26.604-26.604 14.693 0 26.606 11.91 26.606 26.604z"/>
        <path fill="#86cfd0" d="M42.81 42.81c0 7.075-5.735 12.81-12.81 12.81s-12.81-5.736-12.81-12.81S22.925 30 30 30s12.81 5.735 12.81 12.81"/>
        <path fill="#273567" d="M27.498 24.35v-9.215h-2.941l5.442-5.882 5.443 5.882h-2.94v9.215z"/>
        <path fill="#fff" stroke="#273567" stroke-width="1.334" d="M40.273 30.935a10.273 10.273 0 0 1-20.546 0A10.27 10.27 0 0 1 30 20.665c5.672 0 10.274 4.597 10.274 10.27z"/>
        <path fill="#273567" d="M37.882 30.935a7.88 7.88 0 0 1-7.884 7.884 7.88 7.88 0 0 1-7.881-7.884 7.88 7.88 0 0 1 7.881-7.883 7.88 7.88 0 0 1 7.884 7.883"/>
        <path fill="#fff" d="M24.974 33.068v-3.986h.533v1.976l1.97-1.977h.712l-1.67 1.622 1.747 2.365h-.696l-1.416-2.008-.648.628v1.38zm4.85 0V31.38l-1.531-2.299h.637l.776 1.212q.225.332.415.673.187-.312.44-.704l.769-1.18h.613l-1.587 2.298v1.688zm3.372-3.213q.401-.382.957-.382a1.26 1.26 0 0 1 1.185.759q.161.36.162.846 0 .766-.382 1.183-.383.417-.974.417a1.26 1.26 0 0 1-.964-.414q-.385-.411-.385-1.13 0-.895.401-1.278zm-.717 2.267q.226.469.669.741.44.27 1 .27a2 2 0 0 0 .963-.245q.446-.245.689-.723t.243-1.083q0-.597-.23-1.068a1.7 1.7 0 0 0-.672-.734 1.9 1.9 0 0 0-.99-.263q-.839 0-1.37.56-.529.56-.528 1.552 0 .524.226.993"/>
    </g>
</svg>
