<svg xmlns="http://www.w3.org/2000/svg" viewBox="0 0 60 60">
    <defs>
        <filter id="0HI_svg__a" color-interpolation-filters="sRGB">
            <feFlood flood-color="#000" flood-opacity=".498" result="flood"/>
            <feComposite in="flood" in2="SourceGraphic" operator="in" result="composite1"/>
            <feGaussianBlur in="composite1" result="blur" stdDeviation="2.5"/>
            <feOffset dx="2" dy="2" result="offset"/>
            <feComposite in="SourceGraphic" in2="offset" result="composite2"/>
        </filter>
    </defs>
    <path fill="#fff" stroke="#000" stroke-width=".471" d="M52.961 30c0 12.68-10.28 22.96-22.962 22.96-12.68 0-22.96-10.28-22.96-22.96s10.28-22.96 22.96-22.96c12.682 0 22.962 10.278 22.962 22.96z" filter="url(#0HI_svg__a)" transform="translate(-4.762 -4.762)scale(1.15873)"/>
    <g stroke-width="1.918">
        <path fill="none" stroke="#2c2c2b" stroke-width=".346" d="M56.605 30c0 14.693-11.912 26.604-26.604 26.604C15.306 56.604 3.395 44.693 3.395 30c0-14.694 11.912-26.604 26.604-26.604 14.693 0 26.605 11.91 26.605 26.604z"/>
        <path fill="#86cfd0" d="M42.81 42.81c0 7.075-5.735 12.81-12.81 12.81s-12.81-5.736-12.81-12.81S22.925 30 30 30s12.81 5.736 12.81 12.81"/>
        <path fill="#273567" d="M36.426 27.805h9.223v-2.94l5.88 5.45-5.881 5.443v-2.941h-9.223zm-12.852 5.012h-9.223v2.94l-5.882-5.442 5.883-5.45v2.94h9.223zm3.804-8.927v-9.215h-2.94l5.442-5.882 5.443 5.882h-2.941v9.215zm5.004 13.251v9.214h2.94l-5.442 5.883-5.442-5.883h2.94v-9.214z"/>
        <path fill="#fff" stroke="#273567" stroke-width="1.334" d="M40.153 30.312a10.27 10.27 0 0 1-10.273 10.27 10.272 10.272 0 1 1 0-20.542 10.27 10.27 0 0 1 10.272 10.272z"/>
        <path fill="#273567" d="m29.88 21.253 9.059 9.059-9.059 9.057-9.059-9.057z"/>
        <path fill="#fff" d="M23.641 31.718V28.73h.396v1.228h1.548V28.73h.396v2.988h-.396v-1.406h-1.548v1.406zm3.066 0V28.73h.397v2.988zm1.122-.425a.94.94 0 0 0 .429.356q.27.118.677.118.318-.001.572-.116a.9.9 0 0 0 .39-.329.8.8 0 0 0 .136-.448.74.74 0 0 0-.124-.424.9.9 0 0 0-.386-.304 4 4 0 0 0-.658-.191q-.476-.109-.59-.212a.34.34 0 0 1-.116-.266.4.4 0 0 1 .163-.316q.163-.132.519-.132.341.001.515.143a.6.6 0 0 1 .205.422l.38-.026a.9.9 0 0 0-.146-.47.84.84 0 0 0-.388-.315 1.5 1.5 0 0 0-.583-.106q-.298 0-.544.102a.8.8 0 0 0-.373.299.77.77 0 0 0-.128.424q0 .207.105.372.105.166.317.279.165.087.572.187a5 5 0 0 1 .528.146.6.6 0 0 1 .27.176.38.38 0 0 1 .083.243.42.42 0 0 1-.086.257.54.54 0 0 1-.255.186 1.1 1.1 0 0 1-.396.066 1.1 1.1 0 0 1-.455-.088.67.67 0 0 1-.3-.232.84.84 0 0 1-.122-.37l-.374.033a1 1 0 0 0 .163.536m2.765.425V28.73h.397v1.228h1.548V28.73h.397v2.988h-.397v-1.406h-1.548v1.406zm3.856-2.103q.105-.284.166-.574.074.246.214.623l.313.827h-1.02zm-.766 2.103.327-.907h1.258l.343.907h.45L34.84 28.73h-.434l-1.142 2.988z"/>
    </g>
</svg>
