<?xml version="1.0" encoding="UTF-8" standalone="no"?>
<!-- Created with Inkscape (http://www.inkscape.org/) -->

<svg
   viewBox="0 0 38.549999 41.919998"
   version="1.1"
   id="svg1"
   inkscape:version="1.3.2 (091e20e, 2023-11-25, custom)"
   sodipodi:docname="Gyoku.svg"
   xml:space="preserve"
   xmlns:inkscape="http://www.inkscape.org/namespaces/inkscape"
   xmlns:sodipodi="http://sodipodi.sourceforge.net/DTD/sodipodi-0.dtd"
   xmlns="http://www.w3.org/2000/svg"
   xmlns:svg="http://www.w3.org/2000/svg"><sodipodi:namedview
     id="namedview1"
     pagecolor="#ffffff"
     bordercolor="#111111"
     borderopacity="1"
     inkscape:showpageshadow="false"
     inkscape:pageopacity="0"
     inkscape:pagecheckerboard="1"
     inkscape:deskcolor="#d1d1d1"
     inkscape:document-units="mm"
     showguides="true"
     inkscape:zoom="3.4650824"
     inkscape:cx="72.86984"
     inkscape:cy="78.930302"
     inkscape:window-width="1292"
     inkscape:window-height="745"
     inkscape:window-x="-8"
     inkscape:window-y="-8"
     inkscape:window-maximized="1"
     inkscape:current-layer="layer1"
     labelstyle="default"><inkscape:page
       x="0"
       y="0"
       width="38.549999"
       height="41.919998"
       id="page42"
       margin="0"
       bleed="0" /></sodipodi:namedview><defs
     id="defs1"><inkscape:path-effect
       effect="powerstroke"
       id="path-effect12"
       is_visible="true"
       lpeversion="1.3"
       scale_width="1"
       interpolator_type="CubicBezierJohan"
       interpolator_beta="0.2"
       start_linecap_type="zerowidth"
       end_linecap_type="zerowidth"
       offset_points="7,4.9921382"
       linejoin_type="extrp_arc"
       miter_limit="4"
       not_jump="false"
       sort_points="true"
       message="&lt;b&gt;Ctrl + click&lt;/b&gt; on existing node and move it" /><inkscape:path-effect
       effect="powerstroke"
       id="path-effect13"
       is_visible="true"
       lpeversion="1.3"
       scale_width="1"
       interpolator_type="CubicBezierJohan"
       interpolator_beta="0.2"
       start_linecap_type="zerowidth"
       end_linecap_type="zerowidth"
       offset_points="5,4.9921382"
       linejoin_type="extrp_arc"
       miter_limit="4"
       not_jump="false"
       sort_points="true"
       message="&lt;b&gt;Ctrl + click&lt;/b&gt; on existing node and move it" /><inkscape:path-effect
       effect="powerstroke"
       id="path-effect13-1"
       is_visible="true"
       lpeversion="1.3"
       scale_width="1"
       interpolator_type="CubicBezierJohan"
       interpolator_beta="0.2"
       start_linecap_type="zerowidth"
       end_linecap_type="zerowidth"
       offset_points="5,4.9921382"
       linejoin_type="extrp_arc"
       miter_limit="4"
       not_jump="false"
       sort_points="true"
       message="&lt;b&gt;Ctrl + click&lt;/b&gt; on existing node and move it" /></defs><g
     inkscape:label="Layer 1"
     inkscape:groupmode="layer"
     id="layer1"
     transform="rotate(180,62.137499,101.68)"><path
       style="fill:#938e5e;fill-opacity:1;fill-rule:evenodd;stroke:none;stroke-width:1;stroke-linecap:round;stroke-linejoin:round;stroke-dasharray:none;stroke-opacity:1;paint-order:stroke fill markers"
       d="m 119.35,200 v -6.4 L 114.78527,167.97943 105,164.8 95.21473,167.97943 90.649996,193.6 l 2e-6,6.4 z"
       id="path12"
       sodipodi:nodetypes="cccccccc" /><path
       style="display:inline;fill:#fff29e;fill-opacity:1;fill-rule:evenodd;stroke:none;stroke-width:0.385762;stroke-linecap:round;stroke-linejoin:round;paint-order:stroke fill markers"
       d="m 105,168 9.78527,3.17942 L 119.35,200 h -28.7 l 4.56473,-28.82058 z"
       id="path13" /><path
       id="path2"
       style="fill:#000000;stroke-width:0.489116"
       d="m 108.50341,171.45912 c -0.27735,-0.006 -0.56153,0.0493 -0.8935,0.16632 -0.27585,0.0973 -1.11294,0.24538 -1.86029,0.32935 -0.74736,0.084 -1.62089,0.18262 -1.94118,0.21913 -0.3203,0.0365 -0.92517,0.12529 -1.34417,0.19716 -0.41899,0.0719 -1.49635,0.11667 -2.39412,0.0998 -1.099956,-0.0206 -1.63231,0.0149 -1.63231,0.10894 0,0.17374 0.929345,0.9261 1.339108,1.08408 0.19098,0.0736 0.498752,0.0646 0.828802,-0.0243 0.28876,-0.0777 0.98724,-0.21493 1.55218,-0.30483 1.16265,-0.185 1.29237,-0.11141 0.95517,0.54065 -0.10799,0.20883 -0.2368,0.68379 -0.28612,1.05552 -0.0493,0.37172 -0.17294,0.75934 -0.275,0.8614 -0.18436,0.18435 -0.99343,0.26113 -2.0759,0.1969 -0.642342,-0.0381 -0.677902,0.0758 -0.20043,0.64326 l 0.34956,0.41553 1.07321,-0.0758 1.07296,-0.0758 0.0781,0.34957 c 0.043,0.19223 0.12949,0.55173 0.19234,0.79871 0.13901,0.5462 0.0357,0.66904 -0.61571,0.73325 -0.27188,0.0268 -0.78532,0.11691 -1.1412,0.20019 -0.95697,0.22391 -2.742734,0.19988 -3.397073,-0.0457 -0.373244,-0.14011 -0.548651,-0.15941 -0.546205,-0.0599 0.0044,0.17304 0.525442,0.75473 1.203376,1.34366 0.570534,0.49562 0.59767,0.49835 1.587312,0.15696 2.695,-0.92965 5.3762,-1.29235 7.77762,-1.05198 0.84028,0.0841 2.04327,0.26185 2.67341,0.39506 1.2918,0.2731 1.53942,0.24733 1.82668,-0.19108 0.18671,-0.28496 0.18264,-0.32743 -0.0528,-0.5629 -0.14008,-0.14007 -0.53394,-0.38835 -0.8753,-0.55176 -0.57859,-0.27698 -0.78371,-0.29725 -3.02728,-0.29725 h -2.40676 l 0.0126,-0.84117 0.0126,-0.84118 1.19099,-0.0647 c 1.33994,-0.0728 1.56354,-0.18546 1.25191,-0.63037 -0.19418,-0.27724 -0.28294,-0.2936 -1.38941,-0.25857 l -1.18214,0.0374 -0.15242,-1.03024 c -0.0838,-0.56654 -0.15694,-1.12781 -0.16227,-1.24735 -0.009,-0.19298 0.21663,-0.22202 2.00791,-0.25883 1.92936,-0.0397 2.02836,-0.0546 2.26041,-0.34148 0.31086,-0.38437 0.15108,-0.6704 -0.54242,-0.97084 -0.30434,-0.13185 -0.57494,-0.20029 -0.8523,-0.20676 z m 1.99249,2.83671 c -0.32455,-0.034 -0.6051,-0.003 -0.6051,0.11575 0,0.0639 0.30201,0.55885 0.67132,1.10001 0.47972,0.70295 0.74959,0.98398 0.94481,0.98398 0.83164,0 0.74023,-1.2352 -0.14281,-1.9298 -0.17516,-0.13779 -0.54367,-0.23599 -0.86822,-0.26994 z m 0.80251,7.92698 c -0.44097,-0.0164 -1.01795,0.051 -1.69626,0.20322 -2.13573,0.47943 -3.80303,0.65073 -4.59665,0.47265 -0.24504,-0.055 -0.42059,-0.0431 -0.42059,0.0283 0,0.15997 1.1536,0.73758 1.48824,0.74513 0.14235,0.003 0.25282,0.0786 0.24568,0.16758 -0.007,0.089 -0.0217,0.2731 -0.0323,0.40921 -0.0107,0.13611 -0.44142,0.69525 -0.95745,1.24256 -1.35223,1.43418 -1.83275,2.35195 -1.48217,2.83139 0.24183,0.33072 0.4885,0.16329 1.11087,-0.75448 0.30892,-0.45555 0.72531,-0.9852 0.92534,-1.17684 l 0.36372,-0.3483 0.47518,0.66147 c 0.32315,0.4498 0.56602,0.66146 0.75878,0.66146 0.15592,0 0.68915,-0.27677 1.18493,-0.61496 1.04311,-0.71152 1.36733,-0.87906 2.03066,-1.04995 1.00193,-0.25813 1.35541,0.22566 0.58564,0.80175 -0.23133,0.17311 -1.03206,0.63203 -1.77942,1.01987 -0.74735,0.38785 -1.47529,0.76717 -1.61764,0.84269 -0.14236,0.0755 -0.72034,0.3339 -1.28427,0.57427 -0.56392,0.24037 -1.05232,0.51799 -1.08534,0.61699 -0.0441,0.13217 0.005,0.15321 0.18426,0.0789 0.13427,-0.0557 0.50622,-0.15257 0.82652,-0.2151 0.32029,-0.0625 0.85498,-0.23007 1.49077,-0.43048 0.63579,-0.2004 1.09125,-0.36665 1.53044,-0.56994 0.43919,-0.20328 0.94366,-0.41476 1.12098,-0.46988 0.55781,-0.17338 1.75599,-0.81364 2.16209,-1.15535 0.4575,-0.38494 0.46671,-0.76617 0.0334,-1.37475 -0.37781,-0.53059 -0.71693,-0.64226 -1.94977,-0.64226 -1.07745,0 -1.34199,0.0961 -3.0432,1.10683 -0.45855,0.27241 -0.58773,0.29634 -0.93824,0.17415 -0.22357,-0.0779 -0.40644,-0.16328 -0.40644,-0.18982 0,-0.0266 0.18124,-0.30554 0.4029,-0.62002 0.37765,-0.53577 0.39313,-0.60165 0.24594,-1.04768 -0.0864,-0.26179 -0.13662,-0.49448 -0.11172,-0.51688 0.0249,-0.0224 0.77318,-0.0794 1.66289,-0.12689 1.72907,-0.0923 3.26075,-0.37497 3.483,-0.64276 0.0965,-0.11631 0.0874,-0.23067 -0.0314,-0.39304 -0.13345,-0.1825 -0.43838,-0.28259 -0.87935,-0.29901 z m -10.35625,0.35512 c -0.65717,0 -0.80584,0.15457 -0.37205,0.38672 0.47399,0.25367 0.537,0.56075 0.37105,1.80722 -0.0853,0.64079 -0.18846,1.21773 -0.22926,1.28224 -0.0408,0.0645 -0.53318,0.14016 -1.094185,0.16808 l -1.01988,0.0508 0.08316,-1.18341 c 0.06576,-0.93545 0.0449,-1.21501 -0.09883,-1.3343 -0.20849,-0.17304 -1.50315,-0.35591 -1.50315,-0.21232 0,0.0523 0.13076,0.27872 0.290671,0.50324 0.282211,0.39623 0.34715,1.13707 0.172125,1.96115 -0.03023,0.14235 -0.05928,0.29902 -0.06471,0.34805 -0.01878,0.16892 -1.135155,0.25747 -1.606276,0.12739 -0.263398,-0.0727 -0.503075,-0.0808 -0.541911,-0.0179 -0.116209,0.18802 1.222296,1.16015 1.597428,1.16015 0.18807,0 1.055365,-0.15621 1.927278,-0.34729 0.871908,-0.19108 1.61756,-0.31526 1.65708,-0.27576 0.2086,0.2086 -0.603642,5.93535 -0.907652,6.39932 -0.242176,0.3696 -0.355666,0.37421 -1.082311,0.0445 -0.825984,-0.3748 -0.870068,-0.31943 -0.236076,0.29674 0.31275,0.30396 0.671766,0.75528 0.797704,1.00294 0.125932,0.24766 0.286465,0.52238 0.356893,0.61066 0.149312,0.18718 0.707372,0.088 1.018112,-0.18097 0.3225,-0.2792 0.62721,-1.39231 0.77217,-2.81976 0.4022,-3.96044 0.69067,-6.10015 0.9807,-7.27614 0.17856,-0.72395 0.30556,-1.44979 0.28208,-1.6131 -0.0664,-0.46179 -0.81062,-0.88819 -1.55016,-0.88819 z m 10.57867,5.49344 c -0.1469,0.0485 -0.0911,0.27726 0.1787,0.52143 0.34094,0.30855 0.22114,0.45573 -0.37054,0.45573 -0.26813,0 -1.35641,0.16955 -2.41864,0.37686 -3.81323,0.74422 -4.21842,0.80304 -5.36983,0.77773 -0.63972,-0.0141 -1.20147,0.0127 -1.24838,0.0597 -0.0469,0.0469 0.17065,0.3462 0.48353,0.665 0.59466,0.60591 0.86368,0.68293 1.60577,0.46027 0.51548,-0.15466 3.51743,-0.79944 4.02112,-0.86367 0.94037,-0.11992 3.01534,-0.46837 3.42411,-0.57502 0.31156,-0.0813 0.4756,-0.0715 0.53964,0.0321 0.15939,0.2579 0.27493,2.49614 0.17844,3.45696 -0.11638,1.15882 -0.23384,1.23796 -1.68361,1.13565 -0.5785,-0.0408 -1.10623,-0.0923 -1.1728,-0.1145 -0.19901,-0.0663 -0.23533,0.20119 -0.0415,0.30533 0.0986,0.0529 0.96538,0.47542 1.92626,0.93899 1.66111,0.8014 2.21657,0.96602 2.53542,0.75145 0.26317,-0.1771 0.58119,-1.25707 0.619,-2.10168 0.0342,-0.76493 -0.0598,-1.74134 -0.24922,-2.58748 -0.0398,-0.17794 -0.10654,-0.65838 -0.14811,-1.06765 l -0.0756,-0.74412 h 1.10759 c 1.30882,0 1.5168,-0.0611 1.5168,-0.44662 0,-0.66299 -1.00961,-0.92755 -2.53516,-0.66424 -0.42173,0.0728 -0.62593,0.0342 -1.00522,-0.18957 -0.2618,-0.15447 -0.66421,-0.3237 -0.89426,-0.3761 -0.23004,-0.0524 -0.54934,-0.13719 -0.70949,-0.18856 -0.0936,-0.03 -0.16512,-0.0341 -0.21409,-0.018 z m -12.435929,0.54292 c -0.355885,0.0103 -1.447797,0.0298 -2.426474,0.043 -0.978677,0.0132 -1.779413,0.0493 -1.779413,0.0801 0,0.16401 0.903221,0.8421 1.294117,0.97161 0.249117,0.0825 0.494076,0.17338 0.54444,0.20195 0.05036,0.0286 -0.19659,0.4766 -0.548734,0.99561 -0.757303,1.11616 -0.886073,1.57943 -0.553537,1.99022 0.2806,0.34664 0.224983,0.34024 0.753972,0.0892 0.330407,-0.15679 0.539793,-0.42681 0.906894,-1.16976 0.429032,-0.8683 0.461285,-1.00372 0.321001,-1.3424 -0.08584,-0.2072 -0.132437,-0.44743 -0.103628,-0.53382 0.02881,-0.0864 0.544107,-0.27861 1.145245,-0.42716 1.007544,-0.24899 1.093174,-0.29549 1.093174,-0.59373 0,-0.30446 -0.0382,-0.32251 -0.647057,-0.30483 z m 8.898589,2.26597 c -0.10215,-0.0143 -0.14647,0.0399 -0.21434,0.15115 -0.0788,0.12921 -0.41149,0.59482 -0.73957,1.03479 -0.66125,0.88676 -0.81955,1.2574 -0.69887,1.63762 0.0705,0.22201 0.1603,0.2453 0.68826,0.17844 1.14605,-0.14512 2.20388,-0.79202 2.42268,-1.48141 0.12712,-0.40053 -0.22509,-0.89598 -0.89603,-1.2605 -0.3,-0.16299 -0.45998,-0.24574 -0.56213,-0.26009 z"
       inkscape:label="path1"
       sodipodi:nodetypes="csssscssssscccccccccsssccssssscsccccsccccscsccsscsssssssccscsscccsssssssccscssccsssscccsscssssssccccssccscssccssscscscscssssscsssccsccssscccsssssscccssssscsscssscsscsssss" /></g></svg>
