<?xml version="1.0" encoding="UTF-8" standalone="no"?>
<!-- Created with Inkscape (http://www.inkscape.org/) -->

<svg
   viewBox="0 0 38.549999 41.919998"
   version="1.1"
   id="svg1"
   inkscape:version="1.3.2 (091e20e, 2023-11-25, custom)"
   sodipodi:docname="Kyo.svg"
   xml:space="preserve"
   xmlns:inkscape="http://www.inkscape.org/namespaces/inkscape"
   xmlns:sodipodi="http://sodipodi.sourceforge.net/DTD/sodipodi-0.dtd"
   xmlns="http://www.w3.org/2000/svg"
   xmlns:svg="http://www.w3.org/2000/svg"><sodipodi:namedview
     id="namedview1"
     pagecolor="#ffffff"
     bordercolor="#111111"
     borderopacity="1"
     inkscape:showpageshadow="false"
     inkscape:pageopacity="0"
     inkscape:pagecheckerboard="1"
     inkscape:deskcolor="#d1d1d1"
     inkscape:document-units="mm"
     showguides="true"
     inkscape:zoom="13.096375"
     inkscape:cx="19.280144"
     inkscape:cy="20.959998"
     inkscape:window-width="1292"
     inkscape:window-height="745"
     inkscape:window-x="-8"
     inkscape:window-y="-8"
     inkscape:window-maximized="1"
     inkscape:current-layer="layer1"
     labelstyle="default"><inkscape:page
       x="0"
       y="0"
       width="38.549999"
       height="41.919998"
       id="page42"
       margin="0"
       bleed="0" /></sodipodi:namedview><defs
     id="defs1"><inkscape:path-effect
       effect="powerstroke"
       id="path-effect12"
       is_visible="true"
       lpeversion="1.3"
       scale_width="1"
       interpolator_type="CubicBezierJohan"
       interpolator_beta="0.2"
       start_linecap_type="zerowidth"
       end_linecap_type="zerowidth"
       offset_points="7,4.9921382"
       linejoin_type="extrp_arc"
       miter_limit="4"
       not_jump="false"
       sort_points="true"
       message="&lt;b&gt;Ctrl + click&lt;/b&gt; on existing node and move it" /><inkscape:path-effect
       effect="powerstroke"
       id="path-effect13"
       is_visible="true"
       lpeversion="1.3"
       scale_width="1"
       interpolator_type="CubicBezierJohan"
       interpolator_beta="0.2"
       start_linecap_type="zerowidth"
       end_linecap_type="zerowidth"
       offset_points="5,4.9921382"
       linejoin_type="extrp_arc"
       miter_limit="4"
       not_jump="false"
       sort_points="true"
       message="&lt;b&gt;Ctrl + click&lt;/b&gt; on existing node and move it" /><inkscape:path-effect
       effect="powerstroke"
       id="path-effect13-8"
       is_visible="true"
       lpeversion="1.3"
       scale_width="1"
       interpolator_type="CubicBezierJohan"
       interpolator_beta="0.2"
       start_linecap_type="zerowidth"
       end_linecap_type="zerowidth"
       offset_points="5,4.9921382"
       linejoin_type="extrp_arc"
       miter_limit="4"
       not_jump="false"
       sort_points="true"
       message="&lt;b&gt;Ctrl + click&lt;/b&gt; on existing node and move it" /><inkscape:path-effect
       effect="powerstroke"
       id="path-effect13-7"
       is_visible="true"
       lpeversion="1.3"
       scale_width="1"
       interpolator_type="CubicBezierJohan"
       interpolator_beta="0.2"
       start_linecap_type="zerowidth"
       end_linecap_type="zerowidth"
       offset_points="5,4.9921382"
       linejoin_type="extrp_arc"
       miter_limit="4"
       not_jump="false"
       sort_points="true"
       message="&lt;b&gt;Ctrl + click&lt;/b&gt; on existing node and move it" /></defs><g
     inkscape:label="Layer 1"
     inkscape:groupmode="layer"
     id="layer1"
     transform="matrix(-0.81881521,0,0,-1,105.2506,205.36)"><path
       style="fill:#938e5e;fill-opacity:1;fill-rule:evenodd;stroke:none;stroke-width:1;stroke-linecap:round;stroke-linejoin:round;stroke-dasharray:none;stroke-opacity:1;paint-order:stroke fill markers"
       d="m 119.35,200 v -6.4 l -4.93136,-22.29416 -9.41866,-2.50583 -9.418612,2.50581 -4.931372,22.29418 2e-6,6.4 z"
       id="path12"
       sodipodi:nodetypes="cccccccc" /><path
       style="display:inline;fill:#fff29e;fill-opacity:1;fill-rule:evenodd;stroke:none;stroke-width:0.360847;stroke-linecap:round;stroke-linejoin:round;paint-order:stroke fill markers"
       d="m 105,172 9.41864,2.50583 L 119.35,200 h -28.7 l 4.931368,-25.49419 z"
       id="path13"
       sodipodi:nodetypes="cccccc" /><path
       id="path1-3"
       style="display:inline;fill:#000000;stroke-width:0.511748"
       d="m 104.13217,173.24579 0.0289,0.54058 c 0.0207,0.38805 -0.0543,0.6168 -0.26537,0.81098 -0.38237,0.35183 -1.67289,0.84574 -2.21409,0.84713 -0.27283,9.3e-4 -0.40147,0.0558 -0.36064,0.15435 0.0691,0.16665 0.91161,0.17846 2.07908,0.0292 0.5987,-0.0765 0.7174,-0.056 0.84986,0.14669 0.2929,0.44813 0.0269,0.51798 -2.1121,0.5547 -1.50734,0.0259 -2.05205,0.0755 -2.05221,0.18689 -3.2e-4,0.23472 1.1156,0.75572 1.67141,0.78036 0.51029,0.0226 1.94692,-0.10294 2.39383,-0.20915 0.37069,-0.0881 0.47488,0.34822 0.20808,0.87105 -0.20939,0.41036 -0.26635,0.4412 -0.67977,0.36685 -0.6914,-0.12434 -0.55083,0.0931 0.52108,0.80525 0.53494,0.35538 0.97261,0.69171 0.97261,0.74733 0,0.0993 -0.70129,0.14375 -2.45608,0.15603 -0.48676,0.003 -0.90706,0.0613 -0.93403,0.12874 -0.027,0.0674 0.17818,0.24939 0.4562,0.40442 0.56585,0.31552 1.68953,0.37402 3.60726,0.18761 0.57608,-0.056 1.35044,-0.0744 1.72078,-0.0407 l 0.67334,0.0613 0.0485,0.61261 c 0.0266,0.33693 -0.0243,0.81306 -0.1131,1.05795 -0.15969,0.44029 -0.1728,0.44622 -1.17076,0.5401 -0.55507,0.0522 -1.31215,0.10752 -1.68249,0.12276 -0.37035,0.0152 -1.07621,0.0445 -1.56852,0.0653 l -0.89487,0.0378 -0.11193,-0.53674 c -0.12763,-0.61214 -0.0736,-0.71479 0.25805,-0.48938 0.21382,0.1453 2.41987,0.18474 3.66396,0.0656 0.20574,-0.0197 0.47509,-0.0435 0.59853,-0.0531 0.46581,-0.0363 0.63925,-0.21288 0.4676,-0.47549 -0.29492,-0.45123 -0.91175,-0.52281 -2.82607,-0.32808 -0.96607,0.0983 -1.93837,0.21194 -2.1609,0.25246 -0.34477,0.0628 -0.41899,0.0266 -0.50209,-0.24457 -0.11664,-0.38055 -0.96717,-1.02116 -1.50131,-1.13092 -0.61467,-0.12633 -0.745043,0.10591 -0.39893,0.71072 0.9481,1.65671 0.89777,2.94717 1.51037,3.08003 0.13696,0.0297 0.29489,0.0604 0.3507,0.0682 0.14067,0.0197 0.57165,-0.34568 0.57165,-0.48459 0,-0.18301 0.29665,-0.13213 0.74203,0.12755 0.38109,0.22219 0.61271,0.23769 2.8965,0.19383 2.10824,-0.0405 2.53964,-0.0814 2.86231,-0.27208 0.42383,-0.25042 0.80729,-1.10586 0.92439,-2.06229 0.0948,-0.77418 -0.26593,-1.28866 -1.16754,-1.66529 -0.57222,-0.23902 -0.78056,-0.25789 -2.04313,-0.18522 l -1.40602,0.0809 0.12362,-0.34029 c 0.068,-0.18722 0.13203,-0.79547 0.14232,-1.35156 0.0103,-0.5561 0.0682,-1.05153 0.1286,-1.10102 0.0604,-0.0495 0.75909,-0.1046 1.55273,-0.12229 1.68393,-0.0375 2.0354,-0.18377 1.6369,-0.68176 -0.29336,-0.3666 -1.02513,-0.47534 -2.32487,-0.34555 -0.87539,0.0874 -0.98217,0.0711 -1.45336,-0.22112 -0.27972,-0.17346 -0.51124,-0.35068 -0.51407,-0.39388 -0.003,-0.0432 0.27088,-0.16929 0.60876,-0.27998 1.48021,-0.48496 1.37615,-0.79197 -0.49858,-1.47002 z m 3.22616,4.19014 c -0.2628,-0.028 -0.44504,-0.0257 -0.4974,0.0172 -0.10636,0.0871 0.67417,0.67553 1.68935,1.25565 1.01518,0.58013 1.53011,0.87675 2.45827,1.3118 0.75573,0.35422 1.14966,0.39404 1.53374,0.1553 0.37398,-0.23245 0.32735,-0.44373 -0.21773,-0.9852 -0.32989,-0.3277 -0.87294,-0.62744 -1.73919,-0.95983 -0.92318,-0.35423 -2.43864,-0.71103 -3.22704,-0.79495 z m -6.2042,0.24265 c -0.0724,0.008 -0.12251,0.0372 -0.14438,0.0909 -0.16823,0.41324 -1.481452,1.3858 -2.262935,1.67582 -1.20557,0.44739 -1.370182,0.50164 -1.990818,0.65711 -0.308617,0.0773 -0.561125,0.21907 -0.561125,0.31492 0,0.24346 1.520661,0.23203 2.563927,-0.0192 1.010978,-0.2434 2.581921,-0.85543 2.833991,-1.10413 0.10538,-0.10397 0.38171,-0.26943 0.61402,-0.3678 0.52347,-0.22164 0.53328,-0.41695 0.0383,-0.76935 -0.45609,-0.3247 -0.87382,-0.50111 -1.09097,-0.47836 z m 2.91637,7.36207 c -0.19376,-0.0262 -0.34274,-0.0138 -0.49565,0.0304 -0.57559,0.16656 -0.5719,0.32458 0.0213,0.90599 0.32893,0.32237 0.52927,0.64862 0.52927,0.86172 0,0.32145 -0.0538,0.35062 -0.86039,0.46616 -0.47322,0.0678 -1.38224,0.0958 -2.02005,0.0625 -0.70093,-0.0366 -1.15967,-0.0135 -1.15967,0.0584 0,0.0654 0.26944,0.30659 0.59854,0.53579 l 0.59825,0.41662 1.30958,-0.0833 c 0.72021,-0.0459 1.35978,-0.058 1.42151,-0.0268 0.0617,0.0312 0.11223,0.1909 0.11223,0.35464 0,0.23287 -0.0733,0.2934 -0.33668,0.27807 -0.49161,-0.0286 -3.44141,0.28777 -3.697,0.39652 -0.172473,0.0734 -0.114383,0.17179 0.27735,0.47142 0.49423,0.37802 0.88044,0.4245 1.76755,0.21273 0.27142,-0.0648 1.06698,-0.17948 1.61469,-0.23283 0.26019,-0.0253 0.29927,0.0428 0.29927,0.52215 0,0.50093 -0.0342,0.55322 -0.37408,0.57193 -1.54451,0.085 -2.24442,0.20829 -2.24216,0.39508 0.006,0.47896 0.53127,0.66407 1.9274,0.67866 0.70564,0.007 0.81362,0.0415 0.85688,0.2704 0.0594,0.31433 -0.17856,0.36612 -1.63982,0.35704 l -1.02288,-0.006 -0.1961,-0.46448 c -0.10785,-0.25552 -0.24152,-0.66904 -0.29722,-0.91891 -0.10738,-0.48183 -1.03845,-1.38429 -1.725491,-1.67247 -0.385196,-0.16159 -1.645957,-0.36065 -1.645957,-0.25988 0,0.0311 0.202,0.30182 0.448898,0.60136 0.246893,0.29955 0.448899,0.57664 0.974027,1.54703 0.52513,0.97039 1.112103,2.49952 1.118213,2.94966 0.002,0.148 -0.329483,0.22503 -1.517672,0.35249 -0.836255,0.0897 -1.846278,0.15692 -2.244493,0.14956 -0.39822,-0.007 -0.724204,0.0307 -0.724204,0.0842 0,0.12395 0.675912,0.63357 1.320686,0.99597 l 0.497705,0.27974 1.223074,-0.25724 c 1.747524,-0.3675 4.307834,-0.75284 5.002504,-0.75284 h 0.59386 l 0.17856,1.29963 c 0.14403,1.04809 0.25542,1.39458 0.57574,1.79093 l 0.39717,0.49152 0.13823,-0.35153 c 0.076,-0.19324 0.19672,-0.41237 0.26829,-0.48698 0.0716,-0.0746 0.13462,-0.73927 0.14028,-1.4772 0.006,-0.73793 0.0655,-1.41487 0.13298,-1.50424 0.16914,-0.22411 4.38601,-0.42175 6.55401,0.0997 0.35396,0.0851 1.01833,0.18737 1.74388,0.26643 1.31811,0.14363 1.31943,0.14341 1.69945,-0.16775 0.36489,-0.29878 0.37029,-0.32393 0.13297,-0.6205 -0.58003,-0.72485 -0.72311,-0.76819 -2.83484,-0.85885 -2.33046,-0.10006 -2.49557,-0.16856 -2.13022,-0.8835 0.64481,-1.26184 0.99282,-2.27632 0.89984,-2.62296 -0.0561,-0.20907 -0.37644,-0.56249 -0.76073,-0.83947 -0.78411,-0.56514 -1.48399,-0.67554 -3.86415,-0.6095 -1.14102,0.0317 -1.50618,0.005 -1.49487,-0.11127 0.008,-0.0842 0.0254,-0.27058 0.0377,-0.41423 0.0217,-0.25181 0.0705,-0.25871 1.36949,-0.18713 1.66123,0.0915 2.15456,0.0178 2.40115,-0.35943 0.1649,-0.2523 0.15174,-0.32835 -0.095,-0.55159 -0.2645,-0.23931 -0.4107,-0.25562 -1.9312,-0.21561 l -1.64479,0.0433 -0.0868,-0.52526 c -0.10506,-0.63523 -0.26568,-0.76754 -1.37651,-1.135 -0.33166,-0.10971 -0.57018,-0.17436 -0.76394,-0.20054 z m 2.07499,4.55627 h 1.68892 c 1.33339,0 1.72134,0.0387 1.84236,0.18379 0.14091,0.16894 0.0567,3.60434 -0.0932,3.80295 -0.0315,0.0418 -0.79303,0.0874 -1.69213,0.10147 -1.3909,0.0218 -1.64854,-0.004 -1.72809,-0.17397 -0.14626,-0.3121 0.0266,-0.42237 0.66224,-0.42237 0.92317,0 1.9385,-0.26203 1.9385,-0.50037 0,-0.33967 -0.32476,-0.43616 -1.37913,-0.40921 -0.70374,0.018 -1.05626,-0.0249 -1.17631,-0.14334 -0.26841,-0.26481 -0.0656,-0.51792 0.36152,-0.45108 0.49015,0.0767 1.92628,-0.17866 2.07381,-0.36876 0.40246,-0.5186 -0.26298,-0.84785 -1.42239,-0.70378 -0.87675,0.10895 -1.1966,-0.0482 -1.12634,-0.55374 z m -4.5638,3.46363 0.39016,0.20939 c 0.28917,0.15516 0.62797,0.19844 1.30928,0.16727 0.906,-0.0414 0.91982,-0.0373 0.96648,0.29482 0.0401,0.28541 -0.008,0.33694 -0.31476,0.33694 -0.19914,0 -0.76536,0.0346 -1.25843,0.0768 -0.99117,0.0848 -1.09273,0.0184 -1.09273,-0.71359 z"
       sodipodi:nodetypes="cccccsssscssssscsscscccsssccsccssssssccsssssscccsscsssscccsscsssssscsssscsssccccssssscccssssssssccscccccsssccssssccscccccssscssssssssccssscccscccsssscssccsssscccssscsc" /></g></svg>
