<?xml version="1.0" encoding="UTF-8" standalone="no"?>
<!-- Created with Inkscape (http://www.inkscape.org/) -->

<svg
   viewBox="0 0 38.549999 41.919998"
   version="1.1"
   id="svg1"
   inkscape:version="1.3.2 (091e20e, 2023-11-25, custom)"
   sodipodi:docname="Kei.svg"
   xml:space="preserve"
   xmlns:inkscape="http://www.inkscape.org/namespaces/inkscape"
   xmlns:sodipodi="http://sodipodi.sourceforge.net/DTD/sodipodi-0.dtd"
   xmlns="http://www.w3.org/2000/svg"
   xmlns:svg="http://www.w3.org/2000/svg"><sodipodi:namedview
     id="namedview1"
     pagecolor="#ffffff"
     bordercolor="#111111"
     borderopacity="1"
     inkscape:showpageshadow="false"
     inkscape:pageopacity="0"
     inkscape:pagecheckerboard="1"
     inkscape:deskcolor="#d1d1d1"
     inkscape:document-units="mm"
     showguides="true"
     inkscape:zoom="13.096375"
     inkscape:cx="19.280144"
     inkscape:cy="20.883641"
     inkscape:window-width="1292"
     inkscape:window-height="745"
     inkscape:window-x="-8"
     inkscape:window-y="-8"
     inkscape:window-maximized="1"
     inkscape:current-layer="layer1"
     labelstyle="default"><inkscape:page
       x="0"
       y="0"
       width="38.549999"
       height="41.919998"
       id="page42"
       margin="0"
       bleed="0" /></sodipodi:namedview><defs
     id="defs1"><inkscape:path-effect
       effect="powerstroke"
       id="path-effect12"
       is_visible="true"
       lpeversion="1.3"
       scale_width="1"
       interpolator_type="CubicBezierJohan"
       interpolator_beta="0.2"
       start_linecap_type="zerowidth"
       end_linecap_type="zerowidth"
       offset_points="7,4.9921382"
       linejoin_type="extrp_arc"
       miter_limit="4"
       not_jump="false"
       sort_points="true"
       message="&lt;b&gt;Ctrl + click&lt;/b&gt; on existing node and move it" /><inkscape:path-effect
       effect="powerstroke"
       id="path-effect13"
       is_visible="true"
       lpeversion="1.3"
       scale_width="1"
       interpolator_type="CubicBezierJohan"
       interpolator_beta="0.2"
       start_linecap_type="zerowidth"
       end_linecap_type="zerowidth"
       offset_points="5,4.9921382"
       linejoin_type="extrp_arc"
       miter_limit="4"
       not_jump="false"
       sort_points="true"
       message="&lt;b&gt;Ctrl + click&lt;/b&gt; on existing node and move it" /><inkscape:path-effect
       effect="powerstroke"
       id="path-effect13-2"
       is_visible="true"
       lpeversion="1.3"
       scale_width="1"
       interpolator_type="CubicBezierJohan"
       interpolator_beta="0.2"
       start_linecap_type="zerowidth"
       end_linecap_type="zerowidth"
       offset_points="5,4.9921382"
       linejoin_type="extrp_arc"
       miter_limit="4"
       not_jump="false"
       sort_points="true"
       message="&lt;b&gt;Ctrl + click&lt;/b&gt; on existing node and move it" /><inkscape:path-effect
       effect="powerstroke"
       id="path-effect13-7"
       is_visible="true"
       lpeversion="1.3"
       scale_width="1"
       interpolator_type="CubicBezierJohan"
       interpolator_beta="0.2"
       start_linecap_type="zerowidth"
       end_linecap_type="zerowidth"
       offset_points="5,4.9921382"
       linejoin_type="extrp_arc"
       miter_limit="4"
       not_jump="false"
       sort_points="true"
       message="&lt;b&gt;Ctrl + click&lt;/b&gt; on existing node and move it" /><inkscape:path-effect
       effect="powerstroke"
       id="path-effect13-8"
       is_visible="true"
       lpeversion="1.3"
       scale_width="1"
       interpolator_type="CubicBezierJohan"
       interpolator_beta="0.2"
       start_linecap_type="zerowidth"
       end_linecap_type="zerowidth"
       offset_points="5,4.9921382"
       linejoin_type="extrp_arc"
       miter_limit="4"
       not_jump="false"
       sort_points="true"
       message="&lt;b&gt;Ctrl + click&lt;/b&gt; on existing node and move it" /><inkscape:path-effect
       effect="powerstroke"
       id="path-effect13-1"
       is_visible="true"
       lpeversion="1.3"
       scale_width="1"
       interpolator_type="CubicBezierJohan"
       interpolator_beta="0.2"
       start_linecap_type="zerowidth"
       end_linecap_type="zerowidth"
       offset_points="5,4.9921382"
       linejoin_type="extrp_arc"
       miter_limit="4"
       not_jump="false"
       sort_points="true"
       message="&lt;b&gt;Ctrl + click&lt;/b&gt; on existing node and move it" /></defs><g
     inkscape:label="Layer 1"
     inkscape:groupmode="layer"
     id="layer1"
     transform="matrix(-0.88850161,0,0,-1,112.56767,204.85999)"><path
       style="fill:#938e5e;fill-opacity:1;fill-rule:evenodd;stroke:none;stroke-width:1;stroke-linecap:round;stroke-linejoin:round;stroke-dasharray:none;stroke-opacity:1;paint-order:stroke fill markers"
       d="m 119.35,200 v -6.4 L 114.67855,170.59411 105,167.79999 95.321455,170.59411 90.649996,193.6 l 2e-6,6.4 z"
       id="path12"
       sodipodi:nodetypes="cccccccc" /><path
       style="display:inline;fill:#fff29e;fill-opacity:1;fill-rule:evenodd;stroke:none;stroke-width:0.367234;stroke-linecap:round;stroke-linejoin:round;paint-order:stroke fill markers"
       d="m 105,171 9.67855,2.79412 L 119.35,200 h -28.7 l 4.671455,-26.20588 z"
       id="path13"
       sodipodi:nodetypes="cccccc" /><path
       d="m 99.823173,173.81966 c -0.161653,0.007 -0.275831,0.0274 -0.303264,0.0668 -0.04294,0.0617 0.13533,0.29177 0.39633,0.51127 0.417311,0.35093 0.486561,0.49892 0.573531,1.22635 0.0544,0.45497 0.0642,0.87686 0.0219,0.93768 -0.0423,0.0608 -0.763815,0.15019 -1.603441,0.19853 -0.839628,0.0484 -1.52661,0.11932 -1.52661,0.15793 0,0.0386 0.246265,0.26936 0.547016,0.5127 0.962229,0.77856 0.914317,0.75821 1.346437,0.57544 0.215662,-0.0912 0.560467,-0.20034 0.766418,-0.24253 0.34263,-0.0702 0.38247,-0.0394 0.46748,0.3632 0.0886,0.41942 0.0549,0.46957 -0.720699,1.07541 -0.44749,0.3495 -1.164508,0.94962 -1.593431,1.33355 -1.235171,1.10561 -1.5813,2.28925 -0.784815,2.68468 0.356888,0.17718 0.395742,0.16855 0.813489,-0.18076 0.241228,-0.20172 0.633605,-0.7278 0.871922,-1.16915 0.521647,-0.96606 1.345454,-2.00737 1.484674,-1.87656 0.0553,0.0519 0.12169,0.9554 0.14771,2.00756 0.0394,1.59242 0.0896,1.96999 0.29866,2.25345 0.30628,0.41526 0.6503,0.38338 0.90223,-0.0836 0.17973,-0.3332 0.18825,-0.78534 0.1082,-5.61282 l -0.0152,-0.91461 1.02479,-0.15359 c 0.56355,-0.0845 1.07676,-0.2267 1.14055,-0.31608 0.42982,-0.6023 -0.29036,-1.15115 -1.22091,-0.93047 -0.87584,0.20771 -0.96976,0.11985 -1.08266,-1.01339 -0.083,-0.83242 -0.14901,-1.02729 -0.39607,-1.16554 -0.26829,-0.15014 -1.1793,-0.26426 -1.664293,-0.24542 z m 6.487877,0.19181 c -0.22762,0.022 -0.42452,0.0744 -0.55757,0.16177 -0.25854,0.16975 -0.24655,0.19572 0.31329,0.67591 0.5911,0.50702 0.71222,0.79571 0.7518,1.79362 0.0414,1.04538 0.0719,1.00874 -0.9244,1.10353 -0.49843,0.0474 -1.26198,0.1053 -1.69678,0.1286 -0.94763,0.0508 -1.06938,0.25043 -0.44015,0.72086 0.492,0.36783 0.85608,0.39298 2.24081,0.1548 0.7581,-0.13029 0.9415,-0.13052 0.99745,-9.3e-4 0.0636,0.14724 0.002,0.66199 -0.0868,0.72207 -0.1691,0.11478 -1.33257,0.27321 -2.18563,0.29781 -0.57011,0.0164 -1.06133,0.0518 -1.09132,0.0784 -0.10081,0.0895 0.39887,0.66618 0.75912,0.8759 0.32914,0.19162 0.44278,0.19327 1.46492,0.0202 1.21261,-0.20534 1.33737,-0.15819 1.16789,0.4418 -0.0974,0.34476 -0.53611,0.44031 -2.12774,0.46367 -0.65645,0.01 -1.00421,0.0639 -1.00421,0.15672 0,0.15888 0.88468,0.95947 0.97878,0.88575 0.0331,-0.0259 0.54789,-0.085 1.14408,-0.13124 1.07454,-0.0833 1.0836,-0.0817 1.03884,0.19879 -0.0405,0.25346 -0.16041,0.29814 -1.15327,0.42881 -0.60945,0.0802 -1.52883,0.14965 -2.04306,0.15383 -0.51423,0.004 -0.93496,0.051 -0.93496,0.10361 0,0.17142 0.60744,0.57423 1.36321,0.90402 0.81421,0.35529 1.01421,0.34532 2.55301,-0.1274 1.42337,-0.43725 2.02526,-0.44401 5.49666,-0.0618 0.33958,0.0374 0.66638,0.0948 0.72611,0.12763 0.11958,0.0656 0.80348,-0.49659 0.80348,-0.66052 0,-0.0564 -0.17264,-0.28626 -0.38361,-0.51079 -0.43943,-0.46767 -0.6015,-0.48331 -3.31916,-0.32089 -1.39338,0.0832 -1.56524,0.0712 -1.64592,-0.11561 -0.14579,-0.33759 0.0849,-0.4189 1.38865,-0.49059 0.87376,-0.048 1.30851,-0.12769 1.489,-0.27282 0.696,-0.55964 -0.0682,-0.92885 -1.6056,-0.77567 -0.59905,0.0596 -1.14215,0.0794 -1.20711,0.0438 -0.065,-0.0356 -0.11822,-0.24989 -0.11822,-0.47593 v -0.41103 l 0.93496,-0.075 c 0.51422,-0.0412 1.20025,-0.068 1.52444,-0.0593 0.93141,0.0246 1.32529,-0.43587 0.68958,-0.80596 -0.23218,-0.13517 -0.67361,-0.17708 -1.69677,-0.16081 l -1.38296,0.0221 -0.0419,-0.37882 -0.0419,-0.37858 1.2017,-0.13773 c 0.66097,-0.0758 1.28755,-0.20125 1.39243,-0.27859 0.56593,-0.41731 -0.17948,-0.79976 -1.47224,-0.75547 l -0.92656,0.0317 -0.0901,-1.31145 c -0.0517,-0.75205 -0.16415,-1.39033 -0.26349,-1.49677 -0.3367,-0.36073 -1.29579,-0.56809 -1.97867,-0.50188 z m -6.31095,10.97159 c -0.112033,-0.0176 -0.193877,-0.0133 -0.229952,0.0187 -0.08625,0.0766 0.295262,0.79367 0.790762,1.48643 0.2277,0.31834 0.26904,0.64894 0.30056,2.39983 0.0401,2.22846 0.15093,2.91483 0.5086,3.15362 0.24802,0.16559 0.26946,0.15249 0.78887,-0.48795 0.19533,-0.24085 0.23074,-0.23377 1.53445,0.30936 0.20752,0.0864 0.513,0.0517 1.1081,-0.12619 3.00133,-0.89706 5.98435,-0.74662 6.44839,0.32522 0.12294,0.28394 0.0692,0.46875 -0.3617,1.24535 -0.65878,1.18718 -1.13597,1.73047 -1.70489,1.94168 -0.49108,0.18231 -0.43908,0.19429 -1.61453,-0.37088 -0.22507,-0.1082 -0.43793,-0.17121 -0.4729,-0.14014 -0.035,0.031 0.36746,0.45189 0.89412,0.93527 0.52665,0.4834 1.11772,1.0315 1.31343,1.21819 0.28099,0.26805 0.44123,0.32558 0.76181,0.2733 0.93205,-0.15204 1.6523,-0.98392 2.53137,-2.92336 0.24544,-0.5415 0.50639,-1.0807 0.58002,-1.19823 0.36093,-0.57614 0.0391,-1.89308 -0.5811,-2.37748 -0.86062,-0.67219 -1.52371,-0.9408 -2.32144,-0.9408 -0.70288,0 -2.34567,0.16916 -3.36974,0.3471 -0.34918,0.0606 -0.3809,0.0347 -0.3809,-0.31272 0,-0.40921 -0.0937,-0.37871 1.35048,-0.44108 1.26291,-0.0546 1.72274,-0.30648 1.36132,-0.74562 -0.15489,-0.18822 -0.33227,-0.20626 -1.37538,-0.14086 -1.12432,0.0705 -1.19792,0.0603 -1.19792,-0.16513 0,-0.24765 0.26331,-0.29573 1.34076,-0.24398 0.68571,0.0329 1.32526,-0.67223 0.84757,-0.93455 -0.0916,-0.0502 -0.67993,-0.0886 -1.30747,-0.0848 -1.07965,0.006 -1.16129,-0.0126 -1.52147,-0.34661 l -0.38064,-0.3531 0.8914,-0.0257 c 0.49039,-0.0142 1.28347,-0.0279 1.76224,-0.0307 0.92197,-0.006 1.17279,-0.14556 1.10404,-0.61727 -0.0919,-0.63066 -1.58951,-0.71903 -4.07257,-0.24036 -3.34493,0.6448 -3.22985,0.63875 -3.90783,0.20238 -0.47244,-0.30407 -1.08176,-0.55594 -1.41786,-0.60885 z m 4.72781,1.50182 c 0.46427,-0.0446 0.57323,0.0963 0.51509,0.48818 -0.0285,0.19185 -0.2532,0.28178 -1.14355,0.45766 -0.60945,0.12039 -1.2795,0.2205 -1.489,0.22282 -0.35478,0.004 -0.38091,-0.031 -0.38091,-0.50452 v -0.50839 l 0.50968,0.0736 c 0.29284,0.0423 0.88783,-0.011 1.39892,-0.125 0.24068,-0.0537 0.435,-0.0894 0.58977,-0.10432 z m -2.25921,1.32562 c 0.0444,0.0235 0.10073,0.0735 0.17016,0.14783 0.21289,0.22792 1.58461,0.48308 2.1023,0.39108 0.34947,-0.0621 0.39715,-0.035 0.39715,0.22643 0,0.26155 -0.0787,0.30639 -0.65794,0.37401 -0.36187,0.0423 -0.92155,0.1217 -1.24391,0.17667 -0.71224,0.12146 -0.821,0.0285 -0.88923,-0.76149 -0.0396,-0.45837 -0.0119,-0.62518 0.12147,-0.55453 z m 2.20564,1.93905 c 0.26502,0 0.32544,0.0649 0.32544,0.34805 0,0.33031 -0.0446,0.35525 -0.88165,0.49228 -0.48492,0.0794 -1.08401,0.14422 -1.33129,0.14422 -0.44446,0 -0.44842,-0.006 -0.3525,-0.46151 0.0533,-0.25383 0.11253,-0.47554 0.13147,-0.49276 0.0189,-0.0171 0.23145,0.0297 0.47235,0.10433 0.31838,0.0985 0.55729,0.0987 0.87436,4.7e-4 0.23991,-0.0744 0.58274,-0.13509 0.76182,-0.13509 z m 1.848,2.47771 c -0.10392,0.0165 -0.13743,0.0591 -0.13743,0.13341 0,0.28197 0.92837,1.29902 1.55231,1.7006 0.43915,0.28264 0.61248,0.33226 0.81836,0.23435 0.32055,-0.15243 0.33242,-0.49875 0.0363,-1.05329 -0.30627,-0.57347 -0.87703,-0.90463 -1.70949,-0.99223 -0.28174,-0.0296 -0.45607,-0.0393 -0.56,-0.0229 z m -2.41774,0.0983 c -0.35952,-0.0478 -0.5403,0.0631 -0.33086,0.36104 0.10153,0.14444 0.23108,0.26272 0.63234,0.82809 0.40126,0.56539 0.7276,0.98074 0.8986,1.08716 0.36865,0.22941 0.33692,0.22634 0.6739,0.0661 0.51322,-0.24405 0.23494,-1.28076 -0.46992,-1.7506 -0.50618,-0.33741 -1.04454,-0.54401 -1.40406,-0.59179 z m -6.147279,0.032 c -0.135243,-0.007 -0.23972,0.006 -0.287574,0.0486 -0.03487,0.031 0.06479,0.29044 0.221293,0.57665 0.156503,0.28621 0.331528,0.71425 0.389025,0.95113 0.154714,0.63742 0.461999,1.10629 0.805642,1.22924 0.514922,0.18425 0.632972,0.13951 0.766416,-0.28988 0.193357,-0.62221 -0.07238,-1.62045 -0.542693,-2.03832 -0.263358,-0.234 -0.946383,-0.45379 -1.352109,-0.47737 z m 2.990989,0.14542 c -0.34287,-0.0884 -0.31236,0.27347 0.0455,0.53987 0.15821,0.11779 0.53346,0.58593 0.83404,1.04031 0.30059,0.45438 0.65429,0.88179 0.7859,0.94993 0.31765,0.16448 0.31899,0.16433 0.53105,-0.0839 0.59463,-0.69597 -0.1838,-1.97747 -1.36618,-2.24887 -0.32329,-0.0743 -0.69695,-0.16298 -0.83026,-0.19735 z"
       stroke-width="0.493463"
       id="path3"
       inkscape:label="path1"
       style="display:inline" /></g></svg>
