<?xml version="1.0" encoding="UTF-8" standalone="no"?>
<!-- Created with Inkscape (http://www.inkscape.org/) -->

<svg
   viewBox="0 0 38.549999 41.919998"
   version="1.1"
   id="svg1"
   inkscape:version="1.3.2 (091e20e, 2023-11-25, custom)"
   sodipodi:docname="Fu.svg"
   xml:space="preserve"
   xmlns:inkscape="http://www.inkscape.org/namespaces/inkscape"
   xmlns:sodipodi="http://sodipodi.sourceforge.net/DTD/sodipodi-0.dtd"
   xmlns="http://www.w3.org/2000/svg"
   xmlns:svg="http://www.w3.org/2000/svg"><sodipodi:namedview
     id="namedview1"
     pagecolor="#ffffff"
     bordercolor="#111111"
     borderopacity="1"
     inkscape:showpageshadow="false"
     inkscape:pageopacity="0"
     inkscape:pagecheckerboard="1"
     inkscape:deskcolor="#d1d1d1"
     inkscape:document-units="mm"
     showguides="true"
     inkscape:zoom="13.096375"
     inkscape:cx="19.280144"
     inkscape:cy="20.959998"
     inkscape:window-width="1292"
     inkscape:window-height="745"
     inkscape:window-x="-8"
     inkscape:window-y="-8"
     inkscape:window-maximized="1"
     inkscape:current-layer="layer1"
     labelstyle="default"><inkscape:page
       x="0"
       y="0"
       width="38.549999"
       height="41.919998"
       id="page42"
       margin="0"
       bleed="0" /></sodipodi:namedview><defs
     id="defs1"><inkscape:path-effect
       effect="powerstroke"
       id="path-effect12"
       is_visible="true"
       lpeversion="1.3"
       scale_width="1"
       interpolator_type="CubicBezierJohan"
       interpolator_beta="0.2"
       start_linecap_type="zerowidth"
       end_linecap_type="zerowidth"
       offset_points="7,4.9921382"
       linejoin_type="extrp_arc"
       miter_limit="4"
       not_jump="false"
       sort_points="true"
       message="&lt;b&gt;Ctrl + click&lt;/b&gt; on existing node and move it" /><inkscape:path-effect
       effect="powerstroke"
       id="path-effect13"
       is_visible="true"
       lpeversion="1.3"
       scale_width="1"
       interpolator_type="CubicBezierJohan"
       interpolator_beta="0.2"
       start_linecap_type="zerowidth"
       end_linecap_type="zerowidth"
       offset_points="5,4.9921382"
       linejoin_type="extrp_arc"
       miter_limit="4"
       not_jump="false"
       sort_points="true"
       message="&lt;b&gt;Ctrl + click&lt;/b&gt; on existing node and move it" /><inkscape:path-effect
       effect="powerstroke"
       id="path-effect13-7"
       is_visible="true"
       lpeversion="1.3"
       scale_width="1"
       interpolator_type="CubicBezierJohan"
       interpolator_beta="0.2"
       start_linecap_type="zerowidth"
       end_linecap_type="zerowidth"
       offset_points="5,4.9921382"
       linejoin_type="extrp_arc"
       miter_limit="4"
       not_jump="false"
       sort_points="true"
       message="&lt;b&gt;Ctrl + click&lt;/b&gt; on existing node and move it" /><inkscape:path-effect
       effect="powerstroke"
       id="path-effect13-2"
       is_visible="true"
       lpeversion="1.3"
       scale_width="1"
       interpolator_type="CubicBezierJohan"
       interpolator_beta="0.2"
       start_linecap_type="zerowidth"
       end_linecap_type="zerowidth"
       offset_points="5,4.9921382"
       linejoin_type="extrp_arc"
       miter_limit="4"
       not_jump="false"
       sort_points="true"
       message="&lt;b&gt;Ctrl + click&lt;/b&gt; on existing node and move it" /><inkscape:path-effect
       effect="powerstroke"
       id="path-effect13-3"
       is_visible="true"
       lpeversion="1.3"
       scale_width="1"
       interpolator_type="CubicBezierJohan"
       interpolator_beta="0.2"
       start_linecap_type="zerowidth"
       end_linecap_type="zerowidth"
       offset_points="5,4.9921382"
       linejoin_type="extrp_arc"
       miter_limit="4"
       not_jump="false"
       sort_points="true"
       message="&lt;b&gt;Ctrl + click&lt;/b&gt; on existing node and move it" /><inkscape:path-effect
       effect="powerstroke"
       id="path-effect13-8"
       is_visible="true"
       lpeversion="1.3"
       scale_width="1"
       interpolator_type="CubicBezierJohan"
       interpolator_beta="0.2"
       start_linecap_type="zerowidth"
       end_linecap_type="zerowidth"
       offset_points="5,4.9921382"
       linejoin_type="extrp_arc"
       miter_limit="4"
       not_jump="false"
       sort_points="true"
       message="&lt;b&gt;Ctrl + click&lt;/b&gt; on existing node and move it" /></defs><g
     inkscape:label="Layer 1"
     inkscape:groupmode="layer"
     id="layer1"
     transform="matrix(-0.78397201,0,0,-1,101.59206,205.86)"><path
       style="fill:#938e5e;fill-opacity:1;fill-rule:evenodd;stroke:none;stroke-width:1;stroke-linecap:round;stroke-linejoin:round;stroke-dasharray:none;stroke-opacity:1;paint-order:stroke fill markers"
       d="m 119.35,200 v -6.4 L 114.37784,172.1888 105,169.8 l -9.377862,2.3888 -4.972142,21.4112 2e-6,6.4 z"
       id="path12"
       sodipodi:nodetypes="cccccccc" /><path
       style="display:inline;fill:#fff29e;fill-opacity:1;fill-rule:evenodd;stroke:none;stroke-width:0.354345;stroke-linecap:round;stroke-linejoin:round;paint-order:stroke fill markers"
       d="m 105,173 9.37784,2.38879 L 119.35,200 h -28.7 l 4.972138,-24.61119 z"
       id="path13"
       sodipodi:nodetypes="cccccc" /><path
       id="path1-5"
       style="fill:#000000;stroke-width:0.554862"
       d="m 104.43652,175.22594 c -0.55721,-0.0133 -1.06964,0.024 -1.06964,0.12288 0,0.0683 0.18653,0.33984 0.41451,0.60321 0.37579,0.43413 0.41451,0.60382 0.41451,1.81778 0,0.7813 -0.0713,1.37379 -0.17131,1.42223 -0.0942,0.0456 -0.73691,0.11643 -1.42812,0.1574 l -1.2568,0.0746 0.0929,-0.37752 c 0.32786,-1.3336 0.31988,-1.4539 -0.1127,-1.67611 -0.49519,-0.25436 -2.263943,-0.43006 -2.263943,-0.22493 0,0.0755 0.205182,0.2545 0.455959,0.39783 0.438983,0.25089 0.455966,0.30424 0.455966,1.42984 0,1.0727 0.03308,1.19144 0.398648,1.44 0.49959,0.33969 0.52511,0.33902 2.10493,-0.0541 1.63374,-0.40652 1.71805,-0.40494 1.75358,0.0325 0.0491,0.60538 -0.0489,1.3917 -0.18751,1.50448 -0.0725,0.059 -0.53284,-0.058 -1.02299,-0.25997 -1.11006,-0.45739 -2.57945,-0.50055 -3.395759,-0.0998 -0.889553,0.43673 -1.723458,1.40949 -1.723458,2.01021 0,0.25564 0.750622,0.64713 1.240621,0.64713 0.144126,0 1.227416,-0.29907 2.407396,-0.66465 l 2.14543,-0.66466 0.51489,0.33969 c 0.28326,0.18686 0.65589,0.33969 0.82773,0.33969 0.48625,0 0.96435,-0.50089 1.08615,-1.13763 0.10387,-0.54305 0.16449,-0.59942 0.95985,-0.88984 1.04299,-0.38083 1.89591,-0.51854 2.12048,-0.34248 0.32289,0.25314 -0.1554,1.50832 -0.79956,2.09831 -1.00201,0.91773 -3.82867,2.23245 -5.44595,2.53319 -1.43087,0.26608 -1.74095,0.36208 -1.74095,0.53823 0,0.26899 1.00522,0.24619 2.96732,-0.0673 2.8026,-0.44775 4.52125,-0.95397 5.29343,-1.55932 0.56645,-0.44409 0.90193,-1.40367 0.82319,-2.35422 -0.0366,-0.44147 0.007,-0.56446 0.18847,-0.53365 0.31295,0.0531 1.83648,-0.23654 1.83648,-0.34908 0,-0.22144 -0.53736,-0.65118 -1.05538,-0.8439 -0.93866,-0.3492 -2.39898,-0.27843 -3.67004,0.17797 -0.59732,0.21448 -1.14018,0.38835 -1.20629,0.38589 -0.21181,-0.007 -1.24823,-1.16974 -1.12727,-1.26457 0.0641,-0.0502 1.17495,-0.10914 2.4686,-0.13125 1.29364,-0.0221 2.5199,-0.0683 2.72508,-0.10257 0.53444,-0.0892 0.46543,-0.47477 -0.14864,-0.83069 -0.48143,-0.27904 -0.58465,-0.29113 -1.33906,-0.15461 -0.44959,0.0814 -1.29516,0.14801 -1.87923,0.14801 -0.98948,0 -1.06891,-0.0218 -1.16418,-0.31938 -0.18853,-0.58885 -0.054,-0.65372 1.26943,-0.61235 1.34098,0.0419 1.91501,-0.13445 1.72184,-0.52909 -0.14982,-0.30608 -0.65449,-0.4081 -1.86173,-0.37675 l -1.0392,0.0269 0.0392,-0.73295 c 0.0317,-0.59381 -0.0209,-0.76736 -0.27753,-0.91447 -0.17997,-0.10317 -0.78218,-0.16699 -1.33938,-0.18026 z m -3.34912,6.758 c 0.6629,0 1.61627,0.23425 1.61627,0.39706 0,0.0614 -0.61556,0.26258 -1.36789,0.44708 -0.75234,0.18451 -1.498452,0.36656 -1.658044,0.40443 -0.489361,0.11621 -0.339307,-0.32604 0.273638,-0.80657 0.423296,-0.33185 0.706406,-0.442 1.136026,-0.442 z m 1.78952,5.58939 c -0.0931,0 -0.2176,0.23776 -0.27688,0.52832 -0.1662,0.81485 -1.50618,1.80012 -3.340382,2.45602 -0.480837,0.17195 -0.84694,0.37502 -0.813476,0.4514 0.07756,0.17688 1.09894,0.11139 2.242898,-0.14395 0.52815,-0.1179 0.94774,-0.15065 1.03692,-0.0807 0.23112,0.18118 0.52486,2.26568 0.33971,2.41083 -0.39194,0.30727 -4.697486,0.49038 -5.550561,0.23611 -0.255809,-0.0762 -0.548924,-0.13862 -0.651239,-0.13862 -0.273563,0 0.677578,0.7405 1.500334,1.1681 0.621098,0.32278 0.780345,0.35318 1.243536,0.23813 3.2976,-0.81901 6.48921,-0.98365 13.21965,-0.68242 1.77188,0.0793 2.1554,0.061 2.61142,-0.12389 0.61734,-0.25028 0.65527,-0.37512 0.21891,-0.71721 -0.4089,-0.32058 -2.54806,-0.47049 -4.9275,-0.34553 -1.05507,0.0554 -1.72086,0.0425 -1.72086,-0.033 0,-0.0678 0.26115,-0.27933 0.58032,-0.47018 0.71124,-0.4253 0.73538,-0.74952 0.0829,-1.11376 -0.27358,-0.15272 -0.49742,-0.3247 -0.49742,-0.38209 0,-0.0574 0.54094,-0.14455 1.20209,-0.19371 1.39132,-0.10346 2.14197,-0.31708 2.07515,-0.59078 -0.14175,-0.58053 -1.96159,-0.64754 -3.92167,-0.14445 -0.58251,0.14951 -1.84376,0.36315 -2.80248,0.47475 -1.47306,0.17149 -1.77793,0.17537 -1.96925,0.0254 -0.19132,-0.14999 -0.10782,-0.24679 0.53919,-0.62555 0.8414,-0.49255 1.39509,-1.0259 1.39509,-1.34353 0,-0.18873 -1.41757,-0.85963 -1.8164,-0.85963 z m 3.89931,3.29357 c 0.37266,-0.11211 0.29673,0.49549 -0.16418,1.31255 -0.28866,0.51171 -0.51166,0.73119 -0.78757,0.7756 -0.84874,0.1366 -2.07358,0.20535 -2.17942,0.12237 -0.17627,-0.13819 -0.1315,-1.13262 0.0716,-1.58928 0.1408,-0.31661 0.2556,-0.39589 0.48964,-0.33766 0.28473,0.0708 2.03304,-0.12205 2.56997,-0.28358 z m -5.09977,3.72567 c -0.0733,0 -0.13342,0.11236 -0.13342,0.24981 0,0.38398 -2.421949,1.91555 -3.626976,2.29354 -0.374938,0.11762 -0.644804,0.26075 -0.599746,0.31786 0.09144,0.11599 1.066922,0.0511 2.319964,-0.15411 1.764218,-0.28894 4.123968,-1.40354 3.811238,-1.80025 -0.13689,-0.17365 -1.56884,-0.90685 -1.77106,-0.90685 z m 5.69239,0.4156 -0.60298,0.0393 0.52073,0.25997 c 0.28642,0.14299 0.84602,0.47779 1.24353,0.74412 0.39752,0.26632 1.20779,0.77625 1.80053,1.13306 0.89911,0.54122 1.16017,0.63673 1.57514,0.57605 0.51878,-0.0758 0.91192,-0.3624 0.91192,-0.66465 0,-0.4358 -0.55305,-0.96133 -1.34133,-1.27448 -1.05101,-0.41753 -3.31281,-0.86543 -4.10754,-0.81342 z"
       transform="translate(6.5956948e-7)" /></g></svg>
