<?xml version="1.0" encoding="UTF-8" standalone="no"?>
<!-- Created with Inkscape (http://www.inkscape.org/) -->

<svg
   viewBox="0 0 38.549999 41.919998"
   version="1.1"
   id="svg1"
   inkscape:version="1.3.2 (091e20e, 2023-11-25, custom)"
   sodipodi:docname="Uma.svg"
   xml:space="preserve"
   xmlns:inkscape="http://www.inkscape.org/namespaces/inkscape"
   xmlns:sodipodi="http://sodipodi.sourceforge.net/DTD/sodipodi-0.dtd"
   xmlns="http://www.w3.org/2000/svg"
   xmlns:svg="http://www.w3.org/2000/svg"><sodipodi:namedview
     id="namedview1"
     pagecolor="#ffffff"
     bordercolor="#111111"
     borderopacity="1"
     inkscape:showpageshadow="0"
     inkscape:pageopacity="0"
     inkscape:pagecheckerboard="1"
     inkscape:deskcolor="#d1d1d1"
     inkscape:document-units="mm"
     showguides="true"
     inkscape:zoom="13.096375"
     inkscape:cx="19.280144"
     inkscape:cy="20.959998"
     inkscape:window-width="1292"
     inkscape:window-height="745"
     inkscape:window-x="-8"
     inkscape:window-y="-8"
     inkscape:window-maximized="1"
     inkscape:current-layer="layer1"><inkscape:page
       x="0"
       y="0"
       width="38.549999"
       height="41.919998"
       id="page42"
       margin="0"
       bleed="0" /></sodipodi:namedview><defs
     id="defs1"><inkscape:path-effect
       effect="powerstroke"
       id="path-effect13"
       is_visible="true"
       lpeversion="1.3"
       scale_width="1"
       interpolator_type="CubicBezierJohan"
       interpolator_beta="0.2"
       start_linecap_type="zerowidth"
       end_linecap_type="zerowidth"
       offset_points="5,4.9921382"
       linejoin_type="extrp_arc"
       miter_limit="4"
       not_jump="false"
       sort_points="true"
       message="&lt;b&gt;Ctrl + click&lt;/b&gt; on existing node and move it" /></defs><g
     inkscape:label="Layer 1"
     inkscape:groupmode="layer"
     id="layer1"
     transform="translate(-85.737497,-165.14)"><path
       style="fill:#fff29e;fill-opacity:1;fill-rule:evenodd;stroke:none;stroke-width:0.373013;stroke-linecap:round;stroke-linejoin:round;paint-order:stroke fill markers"
       d="m 105.02501,169 9.42512,3.06241 L 118.87501,200 H 91.175001 l 4.42488,-27.93759 z"
       id="path13"
       sodipodi:nodetypes="cccccc" /><path
       style="display:inline;fill:#938e5e;fill-opacity:1;fill-rule:evenodd;stroke:none;stroke-width:0.379217;stroke-linecap:round;stroke-linejoin:round;stroke-dasharray:none;stroke-opacity:1;paint-order:stroke fill markers"
       d="m 91.175004,200 -3e-6,3.2 H 118.875 V 200 Z"
       id="path45" /><path
       id="path5"
       style="fill:#000000;stroke-width:0.542219"
       d="m 106.69552,172.03082 c -0.14299,0.003 -0.25833,0.0241 -0.32784,0.0669 -0.0947,0.0585 -0.0159,0.3607 0.2166,0.83052 0.35989,0.72721 0.36267,0.75915 0.18689,2.07572 -0.16152,1.20974 -0.22104,1.37426 -0.62316,1.72771 -1.34209,0.82854 -2.44287,1.96886 -3.33859,3.28927 -0.28489,0.46155 -0.55199,0.83919 -0.59373,0.83919 -0.0418,0 -0.18998,-0.10318 -0.32924,-0.2292 -0.13926,-0.12603 -0.48318,-0.23552 -0.76438,-0.24349 -0.55764,-0.0158 -0.60221,-0.091 -0.33205,-0.55984 0.39006,-0.67691 0.8826,-1.10609 1.67897,-1.46348 0.8992,-0.40354 1.28012,-0.7385 1.06952,-0.94063 -0.27079,-0.25991 -0.74965,-0.20607 -1.75153,0.19725 -0.5689,0.22903 -1.07729,0.37359 -1.12977,0.32111 -0.16665,-0.16665 0.49393,-0.73885 1.42257,-1.23232 1.08011,-0.57395 1.2567,-0.70681 1.2567,-0.94427 0,-0.3392 -0.69419,-0.36739 -1.59265,-0.0647 -0.48377,0.16297 -0.91495,0.26106 -0.95801,0.218 -0.15086,-0.15086 0.25163,-0.79695 0.50325,-0.80782 0.31626,-0.0137 0.52907,-0.057 1.27742,-0.26031 0.72986,-0.19827 1.07795,-0.80841 0.73805,-1.29368 -0.39977,-0.57075 -1.28989,-1.16994 -1.76412,-1.03544 -0.47422,0.1345 -0.78084,0.61346 -1.03732,1.16574 l -0.46625,1.00423 c -0.639425,0.0369 -1.267091,0.0462 -1.90088,-0.0608 -0.29589,-0.0526 -0.537983,-0.0402 -0.537983,0.0274 0,0.24799 0.907344,0.78435 1.450033,0.85713 0.332282,0.0446 0.558438,0.15235 0.558438,0.26619 0,0.10523 0.200956,0.41988 0.446362,0.69938 0.42351,0.48234 0.43477,0.52568 0.22164,0.85097 -0.338913,0.51723 -1.4398,1.37002 -1.981298,1.53493 -1.151176,0.35058 -2.024941,0.559 -2.343591,0.559 -0.756796,0 -0.500186,0.35256 0.756259,1.03926 0.534675,0.29222 0.579311,0.27744 1.913765,-0.63269 0.741435,-0.50568 1.130325,-0.66839 1.130325,-0.4727 0,0.24209 -0.711809,1.4024 -1.358127,2.21358 -1.171294,1.47004 -1.514302,2.08914 -1.544742,2.78854 -0.02735,0.62856 0.197537,1.08942 0.531539,1.08942 0.430357,0 0.870588,-0.62734 1.71146,-2.43885 0.834473,-1.79774 1.14522,-2.15194 1.88911,-2.15194 0.86259,0 0.88067,0.27715 0.11573,1.77703 -0.59104,1.15889 -0.67092,1.41241 -0.55172,1.74704 0.22387,0.62851 0.53167,0.73407 1.05495,0.36146 0.64611,-0.46006 1.0327,-1.34234 1.04263,-2.37918 0.0239,-2.49267 3.60315,-4.80428 3.60617,-4.80598 0.0476,0 0.10624,0.30665 0.13029,0.68145 0.0392,0.61118 0.0919,0.70363 0.50996,0.89663 0.25636,0.11836 0.45003,0.30658 0.43039,0.41834 -0.0196,0.11176 -0.32638,0.40722 -0.68145,0.65651 -0.50044,0.35136 -0.6555,0.55576 -0.69041,0.90953 -0.0599,0.60697 0.28684,0.7384 0.85013,0.32195 0.41465,-0.30656 0.44625,-0.30885 1.21466,-0.0855 1.28372,0.37319 1.34284,1.06914 0.1869,2.19929 -0.41342,0.40417 -0.5617,0.45756 -1.27127,0.45756 -0.51793,0 -1.00162,-0.10106 -1.36177,-0.28468 -0.30719,-0.15664 -0.59514,-0.24781 -0.63997,-0.20259 -0.0449,0.0452 0.38616,0.52835 0.95772,1.07373 0.95621,0.91242 1.08865,0.99163 1.65766,0.99163 1.46126,0 3.19106,-1.85113 3.08724,-3.30383 l -0.0457,-0.63774 -1.10482,-0.57553 c -0.60775,-0.31662 -1.15094,-0.62387 -1.20682,-0.68256 -0.0559,-0.0587 0.0164,-0.2369 0.16055,-0.39621 0.53318,-0.58915 0.20688,-1.58358 -0.58506,-1.78235 -0.28024,-0.0703 -0.34829,-0.17931 -0.34829,-0.55928 0,-0.76641 0.25234,-0.95851 1.62796,-1.2396 1.3738,-0.28072 1.45919,-0.32138 1.33768,-0.63802 -0.13974,-0.36417 -0.95265,-0.49196 -1.64645,-0.2589 -0.33962,0.11408 -0.65501,0.16962 -0.70107,0.12356 -0.10127,-0.10127 0.21223,-1.30391 0.48027,-1.84231 0.34169,-0.68636 0.24844,-1.03485 -0.37015,-1.3825 -0.42411,-0.23839 -1.10064,-0.39659 -1.5296,-0.38836 z m -4.86455,1.08242 c 0.21024,0 0.64474,0.46545 0.64474,0.69069 0,0.0914 -0.23369,0.2639 -0.51949,0.38331 -0.64845,0.27094 -0.62821,0.273 -0.62821,-0.0631 0,-0.4015 0.30323,-1.01096 0.50296,-1.01096 z m 9.81736,0.87758 c -0.26573,-0.034 -0.42142,0.007 -0.42142,0.12973 0,0.0807 0.25823,0.42703 0.57384,0.76943 0.31562,0.34241 0.57386,0.74659 0.57386,0.89832 0,0.15174 -0.25824,0.48962 -0.57386,0.75066 -0.31561,0.26104 -0.57384,0.53312 -0.57384,0.60467 0,0.0716 0.0331,0.13002 0.0734,0.13002 0.15977,0 2.87897,-1.06179 3.0469,-1.18973 0.53462,-0.40733 -0.17425,-1.18349 -1.61732,-1.77058 -0.43993,-0.17899 -0.81584,-0.28844 -1.08157,-0.32252 z m -3.27946,12.75358 c -1.41341,-0.002 -3.16538,0.26212 -4.74546,0.71648 -1.85807,0.53427 -3.15592,0.59557 -4.411473,0.20818 -0.672583,-0.20752 -0.191516,0.5721 0.803613,1.30236 0.85647,0.62851 1.24902,0.6252 2.83675,-0.0244 2.03076,-0.83082 4.64458,-1.44354 4.64458,-1.08858 0,0.15312 -0.68592,0.77993 -1.11827,1.02189 -0.46442,0.25991 -0.0251,0.34538 0.79465,0.15467 0.90541,-0.21061 2.37071,-0.86227 2.78826,-1.24016 0.27539,-0.24922 0.23353,-0.73569 -0.081,-0.94287 -0.088,-0.058 -0.76824,-0.10652 -1.51168,-0.1076 z m -2.45511,3.05502 c -0.42625,-0.004 -1.01124,0.093 -1.88967,0.28804 -0.69932,0.15525 -1.12682,0.17662 -1.56491,0.0782 -0.83287,-0.18714 -0.97799,0.0364 -0.31018,0.4783 0.55969,0.37039 1.04069,0.56329 1.54614,0.62008 0.1578,0.0177 0.33534,0.0406 0.39452,0.0507 0.69741,0.11868 -1.11737,1.40968 -0.82211,1.88743 0.30898,0.4999 0.6082,-0.2383 2.56271,-0.40966 1.59442,-0.1398 2.20823,0.0953 2.65434,1.01684 0.32224,0.51355 0.21773,0.90235 0.0967,1.4366 -0.12291,0.56019 -1.01815,1.50162 -1.79243,1.88489 -0.94066,0.46563 -2.47887,0.70977 -3.89758,0.61869 -1.45831,-0.0936 -2.13205,-0.28471 -2.70646,-0.76803 -0.48707,-0.40985 -0.539724,-0.70075 -0.21155,-1.16927 0.38382,-0.54799 0.84682,-0.40928 1.49347,0.4472 0.59564,0.78891 1.03775,1.0853 1.47525,0.98938 0.35439,-0.0777 0.32496,-0.7959 -0.0608,-1.48226 -0.3635,-0.64676 -1.1578,-1.21719 -1.88519,-1.35365 -0.71111,-0.1334 -1.999957,0.4581 -2.311645,1.06084 -0.62982,1.21794 0.216656,2.14358 2.715425,2.96928 1.11591,0.36875 1.79127,0.40573 3.81828,0.20846 3.84465,-0.37414 5.06585,-1.81809 5.34201,-3.69834 0.28232,-1.92217 -2.13209,-3.51291 -4.4619,-2.93986 -0.33534,0.0824 -0.60971,0.099 -0.60971,0.0367 0,-0.11966 0.64541,-0.71365 1.36429,-1.25557 l 0.42898,-0.32336 -0.43038,-0.36061 c -0.24384,-0.2042 -0.5113,-0.30753 -0.93756,-0.31102 z"
       inkscape:label="path1"
       sodipodi:nodetypes="cscssssscsssssssssssssscssssssssssssssssssssssssssssssscssscccsssssssssscsssssscssssssssccssscssssscsssssszsssssssssssssssssscccs" /></g></svg>
