<?xml version="1.0" encoding="UTF-8" standalone="no"?>
<!-- Created with Inkscape (http://www.inkscape.org/) -->

<svg
   viewBox="0 0 38.549999 41.919998"
   version="1.1"
   id="svg1"
   inkscape:version="1.3.2 (091e20e, 2023-11-25, custom)"
   sodipodi:docname="Narikyo.svg"
   xml:space="preserve"
   xmlns:inkscape="http://www.inkscape.org/namespaces/inkscape"
   xmlns:sodipodi="http://sodipodi.sourceforge.net/DTD/sodipodi-0.dtd"
   xmlns="http://www.w3.org/2000/svg"
   xmlns:svg="http://www.w3.org/2000/svg"><sodipodi:namedview
     id="namedview1"
     pagecolor="#ffffff"
     bordercolor="#111111"
     borderopacity="1"
     inkscape:showpageshadow="0"
     inkscape:pageopacity="0"
     inkscape:pagecheckerboard="1"
     inkscape:deskcolor="#d1d1d1"
     inkscape:document-units="mm"
     showguides="true"
     inkscape:zoom="13.096375"
     inkscape:cx="19.280144"
     inkscape:cy="20.883641"
     inkscape:window-width="1292"
     inkscape:window-height="745"
     inkscape:window-x="-8"
     inkscape:window-y="-8"
     inkscape:window-maximized="1"
     inkscape:current-layer="layer1"><inkscape:page
       x="0"
       y="0"
       width="38.549999"
       height="41.919998"
       id="page42"
       margin="0"
       bleed="0" /></sodipodi:namedview><defs
     id="defs1"><inkscape:path-effect
       effect="powerstroke"
       id="path-effect13"
       is_visible="true"
       lpeversion="1.3"
       scale_width="1"
       interpolator_type="CubicBezierJohan"
       interpolator_beta="0.2"
       start_linecap_type="zerowidth"
       end_linecap_type="zerowidth"
       offset_points="5,4.9921382"
       linejoin_type="extrp_arc"
       miter_limit="4"
       not_jump="false"
       sort_points="true"
       message="&lt;b&gt;Ctrl + click&lt;/b&gt; on existing node and move it" /><inkscape:path-effect
       effect="powerstroke"
       id="path-effect13-9"
       is_visible="true"
       lpeversion="1.3"
       scale_width="1"
       interpolator_type="CubicBezierJohan"
       interpolator_beta="0.2"
       start_linecap_type="zerowidth"
       end_linecap_type="zerowidth"
       offset_points="5,4.9921382"
       linejoin_type="extrp_arc"
       miter_limit="4"
       not_jump="false"
       sort_points="true"
       message="&lt;b&gt;Ctrl + click&lt;/b&gt; on existing node and move it" /></defs><g
     inkscape:label="Layer 1"
     inkscape:groupmode="layer"
     id="layer1"
     transform="matrix(0.81881518,0,0,1,-66.700592,-166.64)"><path
       style="fill:#fff29e;fill-opacity:1;fill-rule:evenodd;stroke:none;stroke-width:0.360847;stroke-linecap:round;stroke-linejoin:round;paint-order:stroke fill markers"
       d="m 105,172 9.78527,2.78199 L 119.35,200 H 90.649995 l 4.56473,-25.21801 z"
       id="path13" /><path
       style="display:inline;fill:#938e5e;fill-opacity:1;fill-rule:evenodd;stroke:none;stroke-width:0.386001;stroke-linecap:round;stroke-linejoin:round;stroke-dasharray:none;stroke-opacity:1;paint-order:stroke fill markers"
       d="m 90.649998,200 -3e-6,3.2 H 119.35 V 200 Z"
       id="path45" /><path
       id="path4"
       style="fill:#000000;stroke-width:0.579083"
       d="m 103.08866,176.01258 c -0.0518,0.0422 0.0316,0.3343 0.18519,0.64881 0.26069,0.53344 0.26016,0.62209 -0.18956,1.34803 -0.44972,0.72591 -0.72484,1.58415 -0.72484,2.26642 0,0.66389 0.003,0.66797 0.69515,0.82049 0.38226,0.0844 0.79903,0.12063 0.92597,0.0806 0.96708,-0.30386 -0.40024,1.2121 -2.08707,2.31415 -1.49641,0.97762 -2.141024,1.6611 -2.000104,2.12079 0.0581,0.18959 0.210714,0.3778 0.338954,0.4181 0.30449,0.0956 1.30279,-0.44494 2.46575,-1.33497 0.95778,-0.733 2.12861,-1.29901 2.40159,-1.16088 0.0848,0.043 0.13663,0.18175 0.11472,0.30845 -0.0415,0.23965 0.13628,2.01566 0.30391,3.03794 0.0539,0.32845 0.0266,0.58924 -0.0613,0.58924 -0.0868,0 -0.45737,-0.37348 -0.82347,-0.82998 -0.36609,-0.45648 -0.7586,-0.85926 -0.8724,-0.89521 -0.40454,-0.12782 -1.24469,0.23344 -1.50636,0.64772 -0.4635,0.94738 -0.47914,2.0027 -0.3414,3.00331 0.1502,1.02447 0.65314,1.95544 1.53052,2.83213 l 0.61842,0.61768 -0.51294,0.80911 c -0.28195,0.44499 -0.51259,0.97157 -0.51259,1.17007 0,0.35359 0.42638,0.77237 1.10059,1.08098 0.37334,0.17087 1.52077,0.11206 3.80973,-0.19498 1.16697,-0.15656 1.51129,-0.26088 1.82021,-0.55077 0.51565,-0.48387 0.4793,-0.80411 -0.13991,-1.23072 -0.40166,-0.27677 -0.70647,-0.35906 -1.3314,-0.35906 -0.82675,0 -2.21314,0.17836 -2.78025,0.3577 -0.28993,0.0918 -0.29664,0.0715 -0.0846,-0.25346 0.25762,-0.39491 1.34024,-1.47582 2.05038,-2.04715 0.63225,-0.50866 0.58916,-0.94424 -0.16932,-1.71081 -0.62908,-0.63578 -0.63503,-0.65345 -0.64522,-1.9253 -0.014,-1.75088 -0.36043,-3.97035 -0.68256,-4.37293 -0.14595,-0.18237 -0.24039,-0.34171 -0.20968,-0.3542 0.0307,-0.0125 0.22628,-0.10063 0.43454,-0.19604 0.39749,-0.18192 1.52148,-0.23252 1.97797,-0.0891 0.31584,0.0993 0.34365,0.58744 0.0508,0.89495 -0.11351,0.11908 -0.454,0.33555 -0.75666,0.48064 -0.76931,0.36879 -0.71095,0.61983 0.14386,0.61983 1.3674,0 2.58645,-0.77503 2.48889,-1.58221 -0.0401,-0.33241 -0.2216,-0.50485 -0.88365,-0.83916 -1.13884,-0.57508 -2.43844,-0.57967 -3.95358,-0.0141 -0.58398,0.21799 -1.1112,0.35607 -1.17137,0.3068 -0.0601,-0.0494 -0.0156,-0.0915 0.18747,-0.24168 0.2031,-0.15036 0.43578,-0.20558 1.93866,-1.14827 0.52449,-0.32899 1.12484,-0.67217 1.33438,-0.7628 0.4702,-0.20338 0.48509,-0.48583 0.0446,-0.84649 -0.2739,-0.22428 -0.49216,-0.2625 -1.17795,-0.20662 -0.46308,0.0378 -1.04072,0.13052 -1.2835,0.20609 -0.24273,0.0757 -0.55901,0.13728 -0.70273,0.13728 -0.34442,0 -0.2002,-0.47984 0.49075,-1.63338 0.44819,-0.74821 0.49258,-0.91513 0.31552,-1.18604 -0.21756,-0.33284 -2.00339,-1.28274 -2.16414,-1.15113 z m 0.5331,11.17995 c 0.51431,0 1.48854,1.2948 1.88073,2.4999 0.28763,0.88382 0.28627,0.91646 -0.0605,1.55839 -0.19481,0.36062 -0.42449,0.65556 -0.5103,0.65556 -0.0858,0 -0.35225,-0.12614 -0.59196,-0.28052 -1.39752,-0.90014 -1.96971,-4.43333 -0.71794,-4.43333 z"
       sodipodi:nodetypes="sccsccsssssccsscsccccsssssssssssssssssssssszsscssssssssscsscs"
       inkscape:label="path1" /></g></svg>
