<?xml version="1.0" encoding="UTF-8" standalone="no"?>
<!-- Created with Inkscape (http://www.inkscape.org/) -->

<svg
   viewBox="0 0 38.549999 41.919998"
   version="1.1"
   id="svg1"
   inkscape:version="1.3.2 (091e20e, 2023-11-25, custom)"
   sodipodi:docname="Ryu.svg"
   xml:space="preserve"
   xmlns:inkscape="http://www.inkscape.org/namespaces/inkscape"
   xmlns:sodipodi="http://sodipodi.sourceforge.net/DTD/sodipodi-0.dtd"
   xmlns="http://www.w3.org/2000/svg"
   xmlns:svg="http://www.w3.org/2000/svg"><sodipodi:namedview
     id="namedview1"
     pagecolor="#ffffff"
     bordercolor="#111111"
     borderopacity="1"
     inkscape:showpageshadow="0"
     inkscape:pageopacity="0"
     inkscape:pagecheckerboard="1"
     inkscape:deskcolor="#d1d1d1"
     inkscape:document-units="mm"
     showguides="true"
     inkscape:zoom="13.096375"
     inkscape:cx="19.280145"
     inkscape:cy="20.959999"
     inkscape:window-width="1292"
     inkscape:window-height="745"
     inkscape:window-x="-8"
     inkscape:window-y="-8"
     inkscape:window-maximized="1"
     inkscape:current-layer="layer1"><inkscape:page
       x="0"
       y="0"
       width="38.549999"
       height="41.919998"
       id="page42"
       margin="0"
       bleed="0" /></sodipodi:namedview><defs
     id="defs1"><inkscape:path-effect
       effect="powerstroke"
       id="path-effect13"
       is_visible="true"
       lpeversion="1.3"
       scale_width="1"
       interpolator_type="CubicBezierJohan"
       interpolator_beta="0.2"
       start_linecap_type="zerowidth"
       end_linecap_type="zerowidth"
       offset_points="5,4.9921382"
       linejoin_type="extrp_arc"
       miter_limit="4"
       not_jump="false"
       sort_points="true"
       message="&lt;b&gt;Ctrl + click&lt;/b&gt; on existing node and move it" /></defs><g
     inkscape:label="Layer 1"
     inkscape:groupmode="layer"
     id="layer1"
     transform="translate(-85.737497,-165.14)"><path
       style="fill:#fff29e;fill-opacity:1;fill-rule:evenodd;stroke:none;stroke-width:0.373013;stroke-linecap:round;stroke-linejoin:round;paint-order:stroke fill markers"
       d="m 105.0125,169 9.42512,3.06241 L 118.8625,200 H 91.162494 l 4.42488,-27.93759 z"
       id="path13"
       sodipodi:nodetypes="cccccc" /><path
       style="display:inline;fill:#938e5e;fill-opacity:1;fill-rule:evenodd;stroke:none;stroke-width:0.379217;stroke-linecap:round;stroke-linejoin:round;stroke-dasharray:none;stroke-opacity:1;paint-order:stroke fill markers"
       d="m 91.175004,200 -3e-6,3.2 H 118.875 V 200 Z"
       id="path45" /><path
       id="path5"
       style="fill:#000000;stroke-width:0.53607"
       d="m 106.63338,171.16963 c -0.18402,-0.0241 -0.30916,-0.0219 -0.32467,0.0197 -0.0274,0.0733 0.1281,0.38972 0.34545,0.70336 0.36049,0.52016 0.39261,0.67002 0.3665,1.70672 -0.0158,0.6251 -0.0914,1.54622 -0.16815,2.04665 -0.0768,0.50042 -0.20472,1.3367 -0.2845,1.85854 -0.1044,0.68282 -0.24291,1.05061 -0.49394,1.31197 -0.32514,0.33854 -1.71742,2.14437 -2.19788,2.85084 -0.11702,0.17206 -0.29254,0.3962 -0.42994,0.72163 -0.13741,0.32541 -0.37361,0.30335 -0.7499,0.0568 -0.17541,-0.11493 -0.4588,-0.23047 -0.62967,-0.25652 -0.70405,-0.10744 -0.61622,-0.24576 0.96902,-1.52805 0.4348,-0.35172 1.05888,-0.72813 1.38678,-0.83633 0.32789,-0.10823 0.57523,-0.25971 0.54961,-0.33659 -0.12283,-0.36848 -0.9349,-0.33489 -3.06221,0.12632 -0.44832,0.0972 -0.46791,0.0859 -0.32246,-0.18587 0.0851,-0.15911 0.66144,-0.58633 1.28068,-0.94937 1.25151,-0.7337 1.50424,-0.96792 1.38318,-1.28344 -0.0952,-0.24804 -1.43427,-0.30978 -1.58071,-0.0729 -0.18797,0.30417 -0.49641,0.13879 -0.49641,-0.26622 0,-0.49562 0.19143,-0.66205 0.88286,-0.76818 0.79047,-0.12134 1.30981,-0.41691 1.36074,-0.774 0.0797,-0.55865 -0.4904,-0.68556 -1.80424,-0.40168 -0.8217,0.17752 -1.39967,0.21693 -2.13086,0.14488 -0.551846,-0.0543 -1.003376,-0.0611 -1.003376,-0.0146 0,0.24462 0.897826,0.94795 1.403676,1.0995 0.32008,0.0959 0.58202,0.2339 0.58202,0.30666 0,0.0728 -0.2234,0.39326 -0.49643,0.71223 -0.27304,0.31898 -0.49642,0.66733 -0.49642,0.77429 0,0.10695 0.22338,0.28786 0.49642,0.40194 0.56678,0.23683 0.56393,0.22942 0.29836,0.74299 -0.31077,0.60094 -0.66278,0.83409 -1.503956,0.99672 -0.429047,0.0829 -1.067311,0.21514 -1.41835,0.29392 -0.831503,0.1866 -2.370022,0.19522 -2.482113,0.0139 -0.123617,-0.20001 -0.355463,-0.17651 -0.349889,0.0354 0.0028,0.0975 0.390784,0.48048 0.862653,0.85101 1.13392,0.89044 1.247874,0.88657 3.480229,-0.11801 0.487136,-0.21921 0.901096,-0.2628 0.899486,-0.0947 -5.4e-4,0.0585 -0.42206,0.51946 -0.936608,1.02414 -1.953525,1.91606 -2.764708,3.70982 -2.103979,4.65314 0.489911,0.69944 1.025647,0.25102 1.693705,-1.4178 0.614042,-1.53384 1.105722,-2.20653 1.693162,-2.31674 0.667,-0.12512 1.17059,0.0143 1.36543,0.37841 0.12799,0.23912 0.0906,0.45187 -0.19307,1.09757 -0.19355,0.44051 -0.436,1.13991 -0.53853,1.55437 -0.22335,0.90273 -0.0775,1.24746 0.50916,1.20366 1.0052,-0.075 1.63195,-1.12262 1.63195,-2.72756 0,-0.97819 0.0198,-1.03192 0.94686,-2.59376 0.52067,-0.87715 1.0951,-1.75485 1.27652,-1.9505 l 0.32965,-0.3557 v 0.53963 c 0,0.76216 0.21164,1.08843 0.70584,1.08843 0.22668,0 0.44053,0.0479 0.47511,0.10637 0.0346,0.0585 -0.099,0.58507 -0.2967,1.17014 -0.49177,1.45535 -0.5006,2.84388 -0.023,3.57247 0.36374,0.55489 0.89258,0.93269 1.69177,1.20837 1.02492,0.35356 2.65006,0.0314 4.39579,-0.87151 1.44877,-0.74935 1.48951,-1.16267 0.23907,-2.4317 -0.49331,-0.50064 -0.94009,-0.91029 -0.99285,-0.91029 -0.0527,0 -0.0961,0.34808 -0.0961,0.77345 0,1.0508 -0.20441,1.42743 -0.97068,1.78761 -0.88744,0.41715 -2.41954,0.35225 -2.89488,-0.12272 -0.28469,-0.28445 -0.31819,-0.45663 -0.31443,-1.62639 0.003,-0.88688 0.0904,-1.57633 0.2726,-2.14026 0.33213,-1.02864 0.21881,-1.26827 -0.64575,-1.36655 -0.69006,-0.0785 -0.72044,-0.15992 -0.50446,-1.34743 0.0877,-0.48178 0.22548,-0.6536 0.9139,-1.13912 0.44589,-0.31447 1.33714,-0.87884 1.98071,-1.25436 0.64358,-0.37553 1.17014,-0.73893 1.17014,-0.80752 0,-0.17672 -0.81881,-0.57869 -1.1067,-0.54324 -0.1323,0.0162 -0.64473,-0.021 -1.13857,-0.0828 -0.82671,-0.10363 -0.8907,-0.13643 -0.80641,-0.41222 0.0503,-0.16473 0.1273,-0.87533 0.17093,-1.57929 0.0664,-1.07192 0.0422,-1.3111 -0.15015,-1.47072 -0.23731,-0.19694 -1.31892,-0.50656 -1.87101,-0.57898 z m -4.79913,0.28201 c -0.0535,0.0106 -0.0856,0.0377 -0.0856,0.084 0,0.0473 0.20007,0.33865 0.44461,0.6474 0.38401,0.48485 0.42208,0.60372 0.27814,0.87152 -0.0917,0.17052 -0.39007,0.45565 -0.66291,0.63382 -0.27285,0.17817 -0.45549,0.38935 -0.40612,0.46927 0.10006,0.16192 0.54568,0.0869 1.83777,-0.30943 1.15661,-0.35482 1.42696,-0.56228 1.22499,-0.93966 -0.16118,-0.30117 -1.04273,-0.88893 -1.58026,-1.13071 -0.53753,-0.24177 -0.89012,-0.35823 -1.05062,-0.32614 z m 6.80144,3.97388 c 0.15704,0.0581 0.37675,0.21542 0.48812,0.3496 0.17815,0.21466 0.16899,0.26801 -0.0759,0.44406 -0.15308,0.11006 -0.39087,0.29474 -0.52829,0.41028 -0.53597,0.45065 -0.67305,0.13601 -0.34766,-0.79782 0.14876,-0.42691 0.22545,-0.49427 0.46373,-0.40612 z m 2.24028,2.26494 c -0.40438,0 -0.41242,0.0676 -0.0603,0.51526 0.2702,0.34348 0.2701,0.35456 -0.0219,1.01528 -0.16236,0.36738 -0.3916,0.73846 -0.50916,0.82469 -0.33166,0.24326 -0.11268,0.55247 0.52688,0.74409 0.33234,0.0996 0.58202,0.2623 0.58202,0.37924 0,0.335 -0.72031,1.03063 -1.66544,1.60838 -0.48701,0.29771 -0.83805,0.58982 -0.7801,0.64906 0.21311,0.21788 1.68724,-0.0831 2.5655,-0.52384 1.04466,-0.52421 1.72391,-1.15967 1.72391,-1.61255 0,-0.33517 -0.65588,-0.90475 -1.04189,-0.90475 -0.42778,0 -0.38302,-0.28663 0.11276,-0.72192 0.27696,-0.24318 0.50345,-0.54722 0.50306,-0.67565 -0.002,-0.59215 -1.05374,-1.29729 -1.93527,-1.29729 z m -4.11045,10.86313 c -0.6693,-0.0277 -1.59591,0.22044 -2.88933,0.69726 -0.35105,0.12941 -0.97335,0.243 -1.38291,0.25265 -0.50576,0.012 -0.74463,0.0765 -0.74463,0.20112 0,0.10097 0.0696,0.18366 0.15485,0.18366 0.0852,0 0.3151,0.1261 0.51083,0.28007 0.59729,0.46982 1.19058,0.49944 1.98044,0.0992 0.38449,-0.19484 1.06803,-0.46148 1.51891,-0.59255 0.78432,-0.22801 0.82855,-0.22697 1.02165,0.023 0.1154,0.14937 0.18693,0.5042 0.16705,0.82857 l -0.035,0.56734 -0.78701,0.0978 c -0.43291,0.0538 -1.15194,0.2343 -1.59786,0.40114 -2.18229,0.8165 -2.54276,2.44624 -0.70447,3.1852 0.403,0.16199 0.77402,0.33577 0.82442,0.38616 0.0504,0.0504 -0.0737,0.37352 -0.27564,0.71804 -0.47331,0.80768 -0.47142,1.27889 0.007,1.65492 0.65053,0.51171 2.07527,0.38717 4.27444,-0.3734 0.87629,-0.30306 1.28549,-1.19193 0.83329,-1.81035 -0.23927,-0.32724 -1.13996,-0.33818 -2.19013,-0.0263 -0.40264,0.11958 -0.76199,0.16903 -0.79866,0.1097 -0.0367,-0.0594 0.30195,-0.5182 0.75268,-1.01972 0.45072,-0.50152 0.99771,-1.21781 1.21528,-1.59149 0.37916,-0.65118 0.38523,-0.69064 0.14683,-0.95407 -0.13681,-0.15117 -0.26801,-0.45193 -0.29143,-0.66817 -0.19396,-1.79219 -0.59483,-2.60363 -1.71034,-2.64972 z m -0.12549,3.48882 c 0.34451,0.0474 0.27559,0.30806 -0.37377,1.29878 -0.64937,0.99072 -0.87347,1.00649 -1.49225,0.73732 -1.32435,-0.57609 -0.48875,-1.79801 1.38124,-2.01948 0.20918,-0.0248 0.36994,-0.0325 0.48478,-0.0166 z"
       inkscape:label="path1"
       sodipodi:nodetypes="csscsssscscsssssssssscssssssssssscssscssssssccssccsssssssssssscssssssscssscccsssscssccsssssssssssssssssscssssssssssscccsssssssssssscssscssss" /></g></svg>
