<?xml version="1.0" encoding="UTF-8" standalone="no"?>
<!-- Created with Inkscape (http://www.inkscape.org/) -->

<svg
   viewBox="0 0 38.549999 41.919998"
   version="1.1"
   id="svg1"
   inkscape:version="1.3.2 (091e20e, 2023-11-25, custom)"
   sodipodi:docname="Kaku.svg"
   xml:space="preserve"
   xmlns:inkscape="http://www.inkscape.org/namespaces/inkscape"
   xmlns:sodipodi="http://sodipodi.sourceforge.net/DTD/sodipodi-0.dtd"
   xmlns="http://www.w3.org/2000/svg"
   xmlns:svg="http://www.w3.org/2000/svg"><sodipodi:namedview
     id="namedview1"
     pagecolor="#ffffff"
     bordercolor="#111111"
     borderopacity="1"
     inkscape:showpageshadow="0"
     inkscape:pageopacity="0"
     inkscape:pagecheckerboard="1"
     inkscape:deskcolor="#d1d1d1"
     inkscape:document-units="mm"
     showguides="true"
     inkscape:zoom="13.096375"
     inkscape:cx="19.280145"
     inkscape:cy="20.959999"
     inkscape:window-width="1292"
     inkscape:window-height="745"
     inkscape:window-x="-8"
     inkscape:window-y="-8"
     inkscape:window-maximized="1"
     inkscape:current-layer="layer1"><inkscape:page
       x="0"
       y="0"
       width="38.549999"
       height="41.919998"
       id="page42"
       margin="0"
       bleed="0" /></sodipodi:namedview><defs
     id="defs1"><inkscape:path-effect
       effect="powerstroke"
       id="path-effect13"
       is_visible="true"
       lpeversion="1.3"
       scale_width="1"
       interpolator_type="CubicBezierJohan"
       interpolator_beta="0.2"
       start_linecap_type="zerowidth"
       end_linecap_type="zerowidth"
       offset_points="5,4.9921382"
       linejoin_type="extrp_arc"
       miter_limit="4"
       not_jump="false"
       sort_points="true"
       message="&lt;b&gt;Ctrl + click&lt;/b&gt; on existing node and move it" /></defs><g
     inkscape:label="Layer 1"
     inkscape:groupmode="layer"
     id="layer1"
     transform="translate(-85.737497,-165.14)"><path
       style="fill:#fff29e;fill-opacity:1;fill-rule:evenodd;stroke:none;stroke-width:0.373013;stroke-linecap:round;stroke-linejoin:round;paint-order:stroke fill markers"
       d="m 105.0125,169 9.42512,3.06241 L 118.8625,200 H 91.162494 l 4.42488,-27.93759 z"
       id="path13"
       sodipodi:nodetypes="cccccc" /><path
       style="display:inline;fill:#938e5e;fill-opacity:1;fill-rule:evenodd;stroke:none;stroke-width:0.379217;stroke-linecap:round;stroke-linejoin:round;stroke-dasharray:none;stroke-opacity:1;paint-order:stroke fill markers"
       d="m 91.175004,200 -3e-6,3.2 H 118.875 V 200 Z"
       id="path45" /><path
       id="path2-2"
       style="fill:#000000;stroke-width:0.511687"
       d="m 103.98731,170.52417 c -0.12969,0.0498 -0.16915,0.17207 -0.11265,0.3501 0.12719,0.40071 -0.15933,1.13834 -0.68776,1.77083 -0.25491,0.30511 -0.46326,0.6165 -0.46326,0.69199 0,0.18772 0.6467,0.0142 1.15076,-0.30885 0.94239,-0.60391 1.56419,-1.35308 1.45855,-1.75708 -0.0838,-0.32057 -1.05373,-0.859 -1.34564,-0.74699 z m 2.19787,0.97281 c -0.14857,0.057 -0.19494,0.16397 -0.13327,0.30699 0.30402,0.70512 0.23432,0.89548 -0.61663,1.68331 -0.45742,0.42348 -0.88937,0.76999 -0.95959,0.76999 -0.0702,0 -0.12745,0.0609 -0.12745,0.13539 0,0.17088 0.47035,0.17579 0.78031,0.008 0.1293,-0.0699 0.58408,-0.27916 1.01088,-0.46512 0.88048,-0.38364 1.45802,-0.89358 1.45802,-1.28773 0,-0.3627 -1.10968,-1.26715 -1.41227,-1.15103 z m 1.81075,3.02604 c -1.08574,-0.0312 -2.2456,0.11713 -3.25634,0.41673 -0.49203,0.14584 -1.17741,0.26521 -1.52307,0.26521 -0.72528,0 -0.80919,0.18905 -0.29747,0.66978 0.28041,0.26343 0.42083,0.29741 0.91939,0.22265 0.54742,-0.0821 0.61017,-0.0587 0.9022,0.33634 0.28415,0.38432 0.29376,0.4445 0.10286,0.6354 -0.11934,0.11934 -0.53691,0.23788 -0.96223,0.27315 -0.88238,0.0732 -1.00648,0.34229 -0.29483,0.63964 0.36394,0.15205 0.54245,0.15843 0.87814,0.0317 0.54245,-0.20475 0.67223,-0.0559 0.59337,0.68035 -0.0761,0.71087 -0.32359,0.86784 -1.44665,0.91623 -0.45099,0.0194 -0.84274,0.0414 -0.87047,0.0489 -0.11643,0.0314 0.32877,0.45157 0.65973,0.62271 0.2471,0.12778 0.50839,0.15144 0.84218,0.0762 0.73178,-0.16504 0.83561,-0.034 0.72768,0.91992 -0.0941,0.83167 0.13797,1.64391 0.46988,1.64391 0.5114,0 0.92915,-0.98273 0.93526,-2.19999 l 0.004,-0.64307 h 0.93103 c 0.62429,0 0.98199,-0.0612 1.08545,-0.18589 0.41,-0.49403 -0.48908,-1.03753 -1.30307,-0.78771 -0.2681,0.0823 -0.53003,0.12334 -0.58199,0.0912 -0.052,-0.0321 -0.0871,-0.34934 -0.078,-0.70494 l 0.0167,-0.64651 0.81098,-0.0145 c 1.20925,-0.0217 1.17137,-0.005 1.12432,-0.49209 -0.0608,-0.629 -0.57923,-0.8578 -1.51328,-0.66767 -0.53977,0.10988 -0.72544,0.10275 -0.83055,-0.032 -0.0745,-0.0954 -0.33339,-0.27581 -0.57538,-0.40086 -0.242,-0.12505 -0.44,-0.28316 -0.44,-0.35115 0,-0.174 1.03823,-0.30923 2.41549,-0.31466 1.81897,-0.007 1.73869,-0.0815 1.85095,1.71504 0.14602,2.33703 0.0444,4.80123 -0.20493,4.96874 -0.11169,0.075 -0.52292,0.11371 -0.91384,0.0857 -0.68679,-0.0493 -0.95973,0.10088 -0.47384,0.26072 0.57771,0.19004 1.10123,0.47233 1.57595,0.84958 0.48345,0.3842 0.52486,0.39385 0.74725,0.17532 0.1295,-0.12725 0.38318,-0.47507 0.56375,-0.77291 0.30962,-0.51073 0.32799,-0.65705 0.32286,-2.57229 -0.006,-2.25007 -0.24257,-4.30302 -0.55053,-4.77703 -0.29777,-0.45835 -1.49776,-0.95697 -2.36234,-0.9818 z m -6.49075,0.4162 c -0.0372,-0.003 -0.0834,0.83518 -0.10259,1.86205 -0.0191,1.02687 -0.15146,2.58224 -0.29404,3.45625 -0.24326,1.49129 -0.23086,2.06148 0.0553,2.52444 0.18071,0.29238 0.49076,0.0997 0.79512,-0.49447 0.481,-0.93895 0.84125,-5.48281 0.5024,-6.33792 -0.13839,-0.34925 -0.75015,-0.99564 -0.95615,-1.01035 z m -1.36785,9.7426 c -0.099,0 -0.12684,0.14185 -0.0769,0.39134 0.1534,0.767 -1.664215,3.26031 -2.837239,3.89202 -0.463812,0.24978 -0.593925,0.45582 -0.287162,0.45428 0.561866,-0.003 2.024656,-0.55763 2.450128,-0.92971 0.23406,-0.20469 0.271692,-0.19239 0.578289,0.18668 0.468794,0.57961 0.374794,0.98261 -0.354589,1.51831 -0.335074,0.2461 -0.67015,0.49404 -0.74461,0.55106 -0.21232,0.16259 -1.446247,0.88683 -1.895372,1.11241 -1.332439,0.66926 -2.366708,1.58414 -2.370802,2.0974 -0.0012,0.14892 -0.03262,0.39261 -0.06981,0.54153 -0.03718,0.14892 -0.01034,0.35872 0.05976,0.46618 0.169983,0.26058 0.628429,0.0522 1.630951,-0.74171 1.146547,-0.90792 2.028672,-1.55215 2.125683,-1.55215 0.04813,0 0.04648,1.00691 -0.004,2.23754 l -0.09176,2.23753 0.3612,0.33475 c 0.198689,0.18415 0.433071,0.33476 0.52091,0.33476 0.6247,0 1.106903,-1.72406 0.983913,-3.51839 -0.0848,-1.23781 -0.223101,-1.54803 -0.774227,-1.74016 -0.224954,-0.0784 -0.408795,-0.19581 -0.408795,-0.26072 0,-0.0649 0.44169,-0.40514 0.981532,-0.75598 0.53984,-0.35084 1.14647,-0.7832 1.34829,-0.9609 0.67916,-0.59803 0.62206,-1.34849 -0.13407,-1.76263 -0.20256,-0.11095 -0.51404,-0.32647 -0.69225,-0.47887 l -0.32392,-0.27712 0.7113,-0.70389 c 0.86843,-0.85935 1.02771,-1.21387 0.74143,-1.65078 -0.22482,-0.34312 -1.17362,-1.02278 -1.42787,-1.02278 z m 10.71541,1.0717 c -0.49599,-0.0218 -1.13358,0.0578 -1.94984,0.23719 -2.77723,0.61042 -2.67582,0.59857 -3.47159,0.40059 -0.40953,-0.10189 -0.85122,-0.22993 -0.98153,-0.28477 -0.49696,-0.20918 -0.21815,0.29279 0.58834,1.05926 0.58146,0.55262 0.89142,0.75751 1.04922,0.69384 1.06297,-0.42887 1.69441,-0.52225 3.60856,-0.53412 1.11692,-0.007 2.13737,-0.0629 2.26768,-0.12428 0.3133,-0.14753 0.30715,-0.78916 -0.0103,-1.07646 -0.25,-0.22625 -0.60452,-0.34946 -1.10052,-0.37125 z m 1.9599,3.09003 c -0.89513,0.006 -1.90167,0.074 -2.23674,0.15019 -1.06951,0.24324 -3.94001,0.4942 -5.65228,0.4942 -1.01542,0 -1.65847,0.0525 -1.65845,0.13539 3e-5,0.0745 0.37055,0.45522 0.82367,0.84615 0.92587,0.79875 1.29776,0.87713 2.13441,0.45031 0.78164,-0.39877 1.97794,-0.65917 3.50596,-0.76313 l 1.38716,-0.0944 0.36755,0.7959 c 0.3414,0.73944 0.37107,0.95028 0.42069,2.97474 l 0.0534,2.1791 -0.36967,0.29086 c -0.32277,0.25389 -0.48603,0.28106 -1.28693,0.21524 -0.58216,-0.0478 -0.94989,-0.0227 -1.00639,0.0687 -0.049,0.0792 -0.0239,0.14411 0.0558,0.14411 0.26314,0 1.37526,0.57561 2.2653,1.17245 0.4819,0.32315 0.90414,0.58754 0.93817,0.58754 0.2083,0 0.77565,-0.50928 0.95614,-0.85831 0.38076,-0.73631 0.42622,-1.12664 0.30567,-2.61645 -0.17623,-2.17813 -0.54702,-3.47201 -1.22559,-4.27675 -0.51864,-0.61509 -0.62941,-0.94154 -0.23718,-0.69913 0.094,0.0581 0.53978,0.12866 0.99052,0.1568 0.45074,0.0281 1.01287,0.10249 1.24913,0.165 0.30851,0.0816 0.5088,0.0582 0.71049,-0.083 0.25889,-0.18133 0.26538,-0.22635 0.0849,-0.57538 -0.38309,-0.74083 -0.77866,-0.87301 -2.57572,-0.86016 z"
       inkscape:label="path1" /></g></svg>
