<?xml version="1.0" encoding="UTF-8" standalone="no"?>
<!-- Created with Inkscape (http://www.inkscape.org/) -->

<svg
   viewBox="0 0 38.549999 41.919998"
   version="1.1"
   id="svg1"
   inkscape:version="1.3.2 (091e20e, 2023-11-25, custom)"
   sodipodi:docname="Kin.svg"
   xml:space="preserve"
   xmlns:inkscape="http://www.inkscape.org/namespaces/inkscape"
   xmlns:sodipodi="http://sodipodi.sourceforge.net/DTD/sodipodi-0.dtd"
   xmlns="http://www.w3.org/2000/svg"
   xmlns:svg="http://www.w3.org/2000/svg"><sodipodi:namedview
     id="namedview1"
     pagecolor="#ffffff"
     bordercolor="#111111"
     borderopacity="1"
     inkscape:showpageshadow="0"
     inkscape:pageopacity="0"
     inkscape:pagecheckerboard="1"
     inkscape:deskcolor="#d1d1d1"
     inkscape:document-units="mm"
     showguides="true"
     inkscape:zoom="13.096375"
     inkscape:cx="19.280144"
     inkscape:cy="20.959998"
     inkscape:window-width="1292"
     inkscape:window-height="745"
     inkscape:window-x="-8"
     inkscape:window-y="-8"
     inkscape:window-maximized="1"
     inkscape:current-layer="layer1"><inkscape:page
       x="0"
       y="0"
       width="38.549999"
       height="41.919998"
       id="page42"
       margin="0"
       bleed="0" /></sodipodi:namedview><defs
     id="defs1"><inkscape:path-effect
       effect="powerstroke"
       id="path-effect13"
       is_visible="true"
       lpeversion="1.3"
       scale_width="1"
       interpolator_type="CubicBezierJohan"
       interpolator_beta="0.2"
       start_linecap_type="zerowidth"
       end_linecap_type="zerowidth"
       offset_points="5,4.9921382"
       linejoin_type="extrp_arc"
       miter_limit="4"
       not_jump="false"
       sort_points="true"
       message="&lt;b&gt;Ctrl + click&lt;/b&gt; on existing node and move it" /></defs><g
     inkscape:label="Layer 1"
     inkscape:groupmode="layer"
     id="layer1"
     transform="translate(-84.724993,-165.64)"><path
       style="display:inline;fill:#fff29e;fill-opacity:1;fill-rule:evenodd;stroke:none;stroke-width:0.360263;stroke-linecap:round;stroke-linejoin:round;paint-order:stroke fill markers"
       d="m 104,170 9.06496,2.94538 L 117.34999,200 H 90.649996 l 4.285031,-27.05461 z"
       id="path13"
       sodipodi:nodetypes="cccccc" /><path
       style="display:inline;fill:#938e5e;fill-opacity:1;fill-rule:evenodd;stroke:none;stroke-width:0.372309;stroke-linecap:round;stroke-linejoin:round;stroke-dasharray:none;stroke-opacity:1;paint-order:stroke fill markers"
       d="m 90.649998,200 -3e-6,3.2 H 117.34999 V 200 Z"
       id="path45" /><path
       id="path2-3"
       style="display:inline;fill:#000000;stroke-width:0.500573"
       d="m 102.25112,172.04018 c -0.0261,0.0261 0.0185,0.29533 0.0993,0.59807 0.21597,0.80912 -4.8e-4,1.35245 -1.1775,2.95721 -1.561449,2.12888 -2.535001,3.03685 -3.993481,3.72368 -1.576302,0.7423 -1.608544,0.96559 -0.127792,0.88571 1.58402,-0.0854 2.027578,-0.35493 3.823273,-2.32397 l 0.61152,-0.67049 0.71292,0.23074 c 0.51351,0.16619 0.76133,0.3294 0.88597,0.58358 0.0954,0.19409 0.13886,0.40788 0.0973,0.47519 -0.042,0.0679 -0.60972,0.0946 -1.27658,0.06 -1.0792,-0.056 -1.19626,-0.0393 -1.15681,0.16348 0.0241,0.1241 0.28238,0.36084 0.57375,0.52616 0.49276,0.27957 1.01967,0.31944 1.61261,0.12184 0.32697,-0.10904 0.44929,0.39491 0.32852,1.35598 -0.0252,0.20126 -0.50093,0.22061 -0.6216,0.0253 -0.12906,-0.20881 -1.38908,-0.75707 -1.88267,-0.81923 -0.61896,-0.0779 -0.836182,0.23322 -0.965651,1.38341 -0.1225,1.08832 -0.0048,1.33173 0.749131,1.54793 0.3312,0.095 0.51909,0.0486 1.0549,-0.26152 1.49804,-0.86699 1.27943,-0.83913 1.94914,-0.24963 0.32856,0.28922 0.65078,0.52589 0.71602,0.52589 0.15648,0 0.43691,-0.78726 0.43691,-1.22691 0,-0.20875 0.11745,-0.42964 0.29438,-0.55357 0.34737,-0.2433 1.03005,-0.27485 1.03005,-0.0476 0,0.0872 -0.24466,0.58624 -0.54374,1.10896 l -0.544,0.95038 -0.94624,0.0893 c -2.20682,0.20824 -3.14035,0.23213 -3.54727,0.0903 -0.23192,-0.0808 -0.455839,-0.11299 -0.497436,-0.0714 -0.09182,0.0918 0.874196,0.96082 1.244506,1.11955 0.37008,0.15867 0.91444,0.15598 1.07559,-0.005 0.18877,-0.18878 3.64141,-0.25891 4.68569,-0.0952 1.13918,0.17861 1.62187,0.14928 1.8118,-0.11046 0.33776,-0.46192 -0.30402,-0.95425 -1.3961,-1.07092 -0.33793,-0.0361 -0.65856,-0.10785 -0.71239,-0.1596 -0.0538,-0.0517 0.0654,-0.2774 0.26488,-0.50133 0.86093,-0.96619 0.89854,-1.36366 0.17409,-1.84308 -0.49423,-0.32708 -1.02459,-0.4068 -1.93026,-0.28997 -0.218,0.0281 -0.27217,-0.0538 -0.30601,-0.46252 l -0.0412,-0.49667 h 1.05127 c 0.78806,0 1.09401,-0.0515 1.22173,-0.20539 0.14092,-0.16978 0.13134,-0.24426 -0.0554,-0.43043 -0.17663,-0.17618 -0.4682,-0.22506 -1.33996,-0.22506 -0.95899,0 -1.14213,-0.0369 -1.31486,-0.26489 -0.33021,-0.4358 -0.24533,-0.5519 0.42009,-0.57478 0.62146,-0.0214 1.35948,-0.23989 1.35547,-0.40147 -0.0118,-0.48466 -0.56495,-0.5527 -2.9779,-0.36577 l -1.45688,0.11304 0.40768,-0.44518 c 0.5821,-0.63523 1.24787,-1.59309 1.24787,-1.7955 0,-0.24786 0.13982,-0.21573 0.77002,0.13698 0.63018,0.35271 2.48849,1.73568 3.33753,2.47724 2.20183,1.92305 4.32482,2.89433 4.38331,2.00526 0.0574,-0.87193 -0.44459,-1.55966 -1.67003,-2.28801 -0.36422,-0.21647 -0.75161,-0.44839 -0.86088,-0.51528 -0.10926,-0.0669 -1.37576,-0.69717 -2.81443,-1.40074 l -2.61575,-1.27917 v -0.56625 c 0,-0.44149 -0.0656,-0.60914 -0.298,-0.76025 -0.33321,-0.21672 -1.28303,-0.55125 -1.35651,-0.47778 z m -1.03549,8.8168 c 0.1064,0.025 0.22945,0.0802 0.36836,0.16607 0.25701,0.15885 0.46743,0.31301 0.46743,0.34249 0,0.0295 -0.216,0.14378 -0.47984,0.25403 -0.69471,0.29026 -0.8446,0.25829 -0.8446,-0.18056 0,-0.45974 0.16944,-0.65703 0.48865,-0.58203 z m 8.63495,4.53903 c -0.29459,0 -1.2311,0.12284 -2.08133,0.27291 -0.85023,0.15007 -1.99285,0.29352 -2.53919,0.31895 -0.54632,0.0254 -1.00966,0.0518 -1.02954,0.0585 -0.157,0.0521 0.46872,0.68356 0.78742,0.79466 l 0.40302,0.14047 -0.30214,0.49873 c -1.18243,1.95125 -1.34257,2.49826 -0.87743,3.00015 0.48529,0.52364 0.62848,0.48715 1.77918,-0.45502 0.0905,-0.0741 0.44784,-0.25613 0.79415,-0.40457 0.58495,-0.25074 0.65497,-0.25515 0.9853,-0.06 0.24739,0.14614 0.38289,0.16591 0.44545,0.0647 0.17178,-0.27793 1.27834,-0.65342 1.92586,-0.65342 0.59199,0 0.65136,0.0277 0.65136,0.30576 0,0.16819 -0.0745,0.39898 -0.16555,0.5127 -0.27649,0.34532 -2.07366,1.21799 -3.47665,1.6884 -1.50291,0.50391 -1.44577,0.47566 -1.33271,0.6586 v 2.6e-4 c 0.0848,0.13733 0.75571,0.0648 1.13404,-0.12262 0.10928,-0.0541 0.46688,-0.14152 0.79467,-0.194 0.3278,-0.0525 0.92379,-0.18358 1.32443,-0.29154 0.40064,-0.10796 0.9184,-0.24379 1.15061,-0.30162 0.2322,-0.0579 0.68294,-0.23131 1.00186,-0.38569 0.31891,-0.15438 0.61766,-0.28093 0.66376,-0.28093 0.0461,0 0.23579,-0.14074 0.42165,-0.313 0.70289,-0.65141 0.23859,-1.59639 -0.95736,-1.94837 -0.44399,-0.13065 -0.74875,-0.13324 -1.40593,-0.0122 -1.07161,0.1973 -2.22458,0.1976 -2.65714,4.9e-4 -0.37778,-0.17212 -0.60206,-0.0585 -0.36086,0.18263 0.20632,0.2063 0.20053,0.50106 -0.01,0.50106 -0.0917,0 -0.45614,0.15416 -0.80991,0.34249 -0.41359,0.22017 -0.68889,0.29668 -0.77112,0.21445 -0.26031,-0.2603 0.43414,-1.75264 1.16664,-2.50686 0.20507,-0.21114 0.79863,-0.2954 2.93342,-0.41673 0.96601,-0.0549 1.81706,-0.16074 1.89145,-0.23514 0.36881,-0.36881 -0.5494,-0.97418 -1.47757,-0.97418 z m -9.38849,0.61307 c 0,0.0367 0.16054,0.27721 0.35672,0.53443 0.26819,0.3516 0.37057,0.66172 0.41311,1.24968 0.0678,0.93665 -0.035,1.09108 -0.87174,1.30892 -0.34463,0.0897 -0.739164,0.19321 -0.876666,0.22995 -0.236421,0.0632 -0.244836,0.002 -0.156239,-1.13093 0.09054,-1.15739 0.08325,-1.20398 -0.21367,-1.3904 -0.346842,-0.21778 -1.212033,-0.39928 -1.331936,-0.27938 -0.04337,0.0434 0.04124,0.28251 0.18806,0.53133 0.176673,0.29945 0.284461,0.76445 0.318951,1.37539 0.04703,0.83305 0.02471,0.93779 -0.228412,1.07327 -0.168953,0.0904 -0.563541,0.11917 -0.992293,0.0725 -0.802599,-0.0875 -0.926837,0.0745 -0.413628,0.53882 0.619645,0.56066 1.078465,0.60277 2.537123,0.23334 0.735166,-0.1862 1.43452,-0.39137 1.55414,-0.45606 0.27977,-0.15127 0.3787,-0.0448 0.3787,0.40794 0,0.53419 -0.12902,0.78328 -0.40561,0.78328 -0.13466,0 -0.972635,0.18542 -1.861964,0.41208 -1.075363,0.27406 -1.805164,0.39079 -2.178847,0.34869 -0.907215,-0.10226 -1.008696,0.0914 -0.357755,0.68214 0.424622,0.38536 0.640584,0.49286 0.893994,0.4444 0.442488,-0.0846 0.438503,0.18444 -0.01681,1.14621 -0.45404,0.95908 -0.551667,1.74478 -0.248074,1.99674 0.298317,0.24758 0.56366,0.0737 1.0298,-0.6754 0.314931,-0.50611 0.369048,-0.74353 0.39733,-1.74194 0.02992,-1.0563 0.05566,-1.15582 0.297741,-1.15681 0.145688,-5e-4 0.417109,-0.0803 0.603236,-0.17746 0.553275,-0.28873 1.606339,-0.61711 1.731339,-0.53986 0.0639,0.0395 0.0876,0.29179 0.0528,0.56055 -0.0348,0.26877 -0.0921,0.90584 -0.12753,1.41575 -0.14833,2.13538 -0.28279,2.7307 -0.52745,2.33483 -0.0392,-0.0634 -0.23662,-0.1486 -0.438459,-0.18935 -0.201836,-0.0408 -0.486001,-0.11947 -0.631689,-0.17487 -0.245426,-0.0933 1.071448,1.54221 1.692538,2.10202 0.30536,0.27525 0.41469,0.2874 0.59599,0.0662 0.25806,-0.3148 0.4097,-1.23194 0.48735,-2.94687 0.0429,-0.94696 0.10576,-1.98997 0.1397,-2.31776 0.0668,-0.64579 0.15117,-1.92564 0.27031,-4.09902 0.0417,-0.76118 0.10222,-1.42667 0.13451,-1.47886 0.16091,-0.26036 -0.21479,-0.73814 -0.69169,-0.87951 -0.60818,-0.1803 -1.50294,-0.30768 -1.50294,-0.21393 z m 10.54245,5.6079 c -0.13054,0.004 -0.21185,0.0393 -0.21185,0.11589 0,0.0615 0.11953,0.22007 0.26566,0.35231 0.48494,0.43888 0.76233,0.4062 -4.35847,0.51296 -2.06892,0.0432 -3.79321,0.10989 -3.83181,0.14848 -0.0806,0.0806 0.73427,0.95807 1.04972,1.13017 0.12848,0.0701 0.48522,0.0426 0.91262,-0.0701 0.6478,-0.17089 2.76662,-0.31552 5.5903,-0.38181 1.06392,-0.0249 1.16306,-0.005 1.30684,0.2636 0.17744,0.33153 0.23252,2.64808 0.0807,3.39696 -0.0836,0.4123 -0.13973,0.47814 -0.32645,0.38284 -0.12404,-0.0633 -0.42406,-0.15266 -0.66662,-0.19866 -0.24255,-0.046 -0.64717,-0.18138 -0.8989,-0.30084 -0.25174,-0.11947 -0.48809,-0.18681 -0.52538,-0.14952 -0.0933,0.0933 0.25067,0.42058 1.12474,1.07041 0.40724,0.30277 0.77037,0.58278 0.80681,0.62212 0.0364,0.0393 0.23796,0.20367 0.44803,0.36499 h 2.6e-4 c 0.21963,0.1686 0.57072,0.29335 0.82597,0.29335 1.0684,0 1.40493,-1.05936 1.06342,-3.3473 -0.12207,-0.81784 -0.22116,-1.66569 -0.22066,-1.88421 l 0.002,-0.39734 h 0.82803 c 0.64772,0 0.82803,-0.0433 0.82803,-0.19866 0,-0.27004 -1.07713,-0.79466 -1.63149,-0.79466 -0.28434,0 -0.59171,-0.1197 -0.83682,-0.32594 -0.39924,-0.33593 -1.23261,-0.6155 -1.62424,-0.60505 z m -4.65337,2.25541 c -0.034,0 -0.0615,0.20956 -0.0615,0.46563 0,0.31375 -0.15653,0.70102 -0.4796,1.18759 -0.2736,0.41208 -0.44592,0.80916 -0.40146,0.92504 0.18936,0.49344 2.41232,-0.0547 2.74535,-0.67697 0.28736,-0.53693 0.0562,-0.91337 -0.8751,-1.42531 -0.47633,-0.26183 -0.89374,-0.47598 -0.92763,-0.47598 z"
       inkscape:label="path1"
       sodipodi:nodetypes="cssssccscscsscscssscssssscccsscsssssscsccsscscsccccscssssccsscccssssccssccccsssssssssccssssssssccsssssssccsscscsscsssssssssscscsssscssscsssssscscsscsssssssssssssscccssccssssccssscsss" /></g></svg>
