<?xml version="1.0" encoding="UTF-8" standalone="no"?>
<!-- Created with Inkscape (http://www.inkscape.org/) -->

<svg
   viewBox="0 0 38.549999 41.919998"
   version="1.1"
   id="svg1"
   inkscape:version="1.3.2 (091e20e, 2023-11-25, custom)"
   sodipodi:docname="Hi.svg"
   xml:space="preserve"
   xmlns:inkscape="http://www.inkscape.org/namespaces/inkscape"
   xmlns:sodipodi="http://sodipodi.sourceforge.net/DTD/sodipodi-0.dtd"
   xmlns="http://www.w3.org/2000/svg"
   xmlns:svg="http://www.w3.org/2000/svg"><sodipodi:namedview
     id="namedview1"
     pagecolor="#ffffff"
     bordercolor="#111111"
     borderopacity="1"
     inkscape:showpageshadow="0"
     inkscape:pageopacity="0"
     inkscape:pagecheckerboard="1"
     inkscape:deskcolor="#d1d1d1"
     inkscape:document-units="mm"
     showguides="true"
     inkscape:zoom="13.096375"
     inkscape:cx="19.318323"
     inkscape:cy="20.959998"
     inkscape:window-width="1292"
     inkscape:window-height="745"
     inkscape:window-x="-8"
     inkscape:window-y="-8"
     inkscape:window-maximized="1"
     inkscape:current-layer="layer1"><inkscape:page
       x="0"
       y="0"
       width="38.549999"
       height="41.919998"
       id="page42"
       margin="0"
       bleed="0" /></sodipodi:namedview><defs
     id="defs1"><inkscape:path-effect
       effect="powerstroke"
       id="path-effect13"
       is_visible="true"
       lpeversion="1.3"
       scale_width="1"
       interpolator_type="CubicBezierJohan"
       interpolator_beta="0.2"
       start_linecap_type="zerowidth"
       end_linecap_type="zerowidth"
       offset_points="5,4.9921382"
       linejoin_type="extrp_arc"
       miter_limit="4"
       not_jump="false"
       sort_points="true"
       message="&lt;b&gt;Ctrl + click&lt;/b&gt; on existing node and move it" /></defs><g
     inkscape:label="Layer 1"
     inkscape:groupmode="layer"
     id="layer1"
     transform="translate(-85.737497,-165.14)"><path
       style="fill:#fff29e;fill-opacity:1;fill-rule:evenodd;stroke:none;stroke-width:0.373013;stroke-linecap:round;stroke-linejoin:round;paint-order:stroke fill markers"
       d="m 105.0125,169 9.42512,3.06241 L 118.8625,200 H 91.162494 l 4.42488,-27.93759 z"
       id="path13"
       sodipodi:nodetypes="cccccc" /><path
       style="display:inline;fill:#938e5e;fill-opacity:1;fill-rule:evenodd;stroke:none;stroke-width:0.379217;stroke-linecap:round;stroke-linejoin:round;stroke-dasharray:none;stroke-opacity:1;paint-order:stroke fill markers"
       d="m 91.175004,200 -3e-6,3.2 H 118.875 V 200 Z"
       id="path45" /><path
       id="path2"
       style="fill:#000000;stroke-width:0.469921"
       d="m 105.72451,171.60449 c -0.40994,0.0788 -0.96236,0.23431 -1.71517,0.48301 -1.04236,0.34435 -1.25544,0.3821 -2.20692,0.39097 -0.46159,0.005 -0.83924,0.045 -0.83924,0.0905 0,0.0455 0.22873,0.28948 0.50825,0.54202 0.45377,0.40996 0.56102,0.4517 1.00219,0.39 0.27177,-0.038 0.54402,-0.0998 0.60491,-0.13745 0.21459,-0.13263 0.52394,1.25953 0.58719,2.64257 0.0675,1.47794 0.029,1.76709 -0.71322,1.9024 -0.0705,0.0128 -0.28257,-0.15216 -0.62773,-0.49734 -0.34518,-0.34517 -0.68719,-0.6275 -0.76009,-0.6275 -0.12621,0 -0.0547,0.90347 0.10418,1.31765 0.15245,0.39728 -2.933054,1.41769 -4.28682,1.41769 -1.255374,0 -1.222151,0.11363 0.334386,1.14862 0.350721,0.23321 0.505687,0.21149 1.38175,-0.19354 0.307723,-0.14227 0.596724,-0.26151 0.906774,-0.3602 0.31006,-0.0987 0.55835,-0.18225 0.75352,-0.28405 0.46506,-0.24256 0.57261,-0.15644 0.45508,0.36475 -0.0914,0.40539 -0.5766,1.31375 -0.70181,1.31375 -0.032,0 -0.20947,-0.0768 -0.39413,-0.17072 -1.143953,-0.58178 -1.171443,-0.28969 -0.0784,0.83051 l 0.81668,0.83706 c 0.87834,-0.50495 0.97642,-1.32689 1.21296,-2.19331 0.061,-0.19826 0.17902,-0.67111 0.2625,-1.05101 0.14756,-0.67143 0.16839,-0.6966 0.74503,-0.90141 0.32627,-0.11588 0.62789,-0.21079 0.67,-0.21079 0.0996,0 0.0967,1.74023 -0.005,2.58137 l -0.0785,0.65446 -0.54203,-0.31764 c -0.47676,-0.27941 -0.54201,-0.29167 -0.54201,-0.10102 0,0.1192 0.3336,0.54127 0.74139,0.93784 0.83383,0.81087 1.23697,0.91881 1.56437,0.41913 0.16533,-0.25233 0.19107,-0.64368 0.15809,-2.38782 l -0.0393,-2.08598 0.45604,-0.12991 c 0.25085,-0.0714 0.49788,-0.17189 0.54907,-0.22317 0.25208,-0.25259 0.30437,0.0328 0.2727,1.49199 -0.0335,1.54727 -0.0262,1.59787 0.3084,2.1127 0.66027,1.01571 1.8792,1.48847 3.51825,1.3645 0.97196,-0.0735 2.5489,-0.56586 2.93712,-0.91719 0.31323,-0.28346 0.22991,-0.78624 -0.20835,-1.25718 -0.17365,-0.1866 -0.52459,-0.62962 -0.77975,-0.98446 -0.41008,-0.57029 -0.73783,-0.86272 -0.84581,-0.75475 -0.0197,0.0197 0.0199,0.29633 0.0879,0.61511 0.0679,0.31879 0.10604,0.79153 0.0846,1.05052 -0.0367,0.44032 -0.0754,0.48148 -0.59861,0.63599 -0.30771,0.0909 -0.94908,0.18999 -1.42521,0.22026 -0.74534,0.0473 -0.92274,0.0163 -1.27562,-0.22268 -0.61054,-0.41359 -0.86576,-1.52192 -0.27806,-1.20739 0.23476,0.12562 1.58839,0.18827 2.01653,0.0933 0.41481,-0.0921 0.53823,-0.32476 0.29894,-0.56315 -0.17688,-0.17622 -0.44296,-0.21661 -1.42449,-0.21661 h -1.20691 v -0.373 -0.37299 l 0.89001,0.0401 c 1.24878,0.0563 1.98668,-0.34627 1.50948,-0.82346 -0.20478,-0.20479 -0.95507,-0.1871 -1.59131,0.0373 -0.70093,0.2473 -0.71353,0.24448 -0.80745,-0.1831 -0.096,-0.43701 -0.71519,-0.99871 -1.0981,-0.99612 -0.14863,9e-4 -0.51538,0.0871 -0.81474,0.19135 -0.29935,0.10425 -0.57185,0.16176 -0.60564,0.12798 -0.0337,-0.0338 -0.0541,-0.66541 -0.0451,-1.4036 0.0178,-1.47612 -0.0271,-1.59088 -0.83488,-2.14548 -0.22752,-0.1562 -0.3674,-0.32872 -0.31084,-0.3832 0.14779,-0.14237 1.55669,-0.4919 1.67874,-0.41646 0.0564,0.0349 0.10273,0.42276 0.10273,0.86183 0,1.15766 0.25129,1.6771 1.09665,2.26689 1.0206,0.71204 1.79953,0.91221 2.76594,0.71054 0.41882,-0.0874 0.82324,-0.22077 1.24243,-0.32712 0.41918,-0.10634 0.36914,-0.48085 -0.11714,-1.01261 -0.26327,-0.28791 -0.57409,-0.71046 -0.69087,-0.93906 -0.11676,-0.2286 -0.2425,-0.38571 -0.27926,-0.34896 -0.0368,0.0368 -0.0893,0.36377 -0.1168,0.72658 -0.0315,0.41436 -0.1247,0.71514 -0.25037,0.80889 -0.39202,0.29245 -2.00914,-0.18439 -2.46578,-0.72705 -0.52829,-0.62785 -0.4419,-0.713 0.64912,-0.63891 0.8451,0.0574 1.00179,0.0341 1.2744,-0.18942 0.48624,-0.39869 0.18984,-0.57765 -0.9019,-0.54469 -0.49548,0.0149 -1.01282,0.0406 -1.14959,0.0565 -0.19022,0.0223 -0.25822,-0.0548 -0.28947,-0.32832 l -0.0409,-0.35745 0.68309,0.0852 c 0.40012,0.0501 0.89662,0.0278 1.19866,-0.0534 0.42756,-0.11512 0.50912,-0.18533 0.47694,-0.41161 -0.0341,-0.23985 -0.11407,-0.27266 -0.66053,-0.27003 -0.34191,0.002 -0.84546,0.0454 -1.119,0.0971 -0.46586,0.0881 -0.51088,0.07 -0.70932,-0.2829 -0.13763,-0.24478 -0.29011,-0.36178 -0.43517,-0.33389 z m -4.65666,2.40556 c -0.0648,0.047 -0.0697,0.18216 -0.0239,0.4116 0.10221,0.51108 -0.22212,1.07199 -1.260576,2.18022 -0.897614,0.9579 -1.028468,1.16484 -0.849691,1.34361 0.110666,0.11067 0.496325,-0.0105 1.034732,-0.32565 0.476545,-0.27881 1.799115,-1.35083 2.144745,-1.73847 0.44455,-0.49857 0.16901,-1.22829 -0.6627,-1.75499 -0.19326,-0.12239 -0.31792,-0.1634 -0.38271,-0.11632 z m 3.31352,10.11688 c -0.24276,-0.005 -0.42177,0.0276 -0.53085,0.0969 -0.12001,0.0762 -0.0824,0.18311 0.15445,0.43857 0.34017,0.36705 0.42996,0.62756 0.47329,1.37204 l 0.0284,0.48543 -0.99467,0.22195 c -0.54707,0.12206 -1.55417,0.2603 -2.238,0.30719 -0.68383,0.0468 -1.2686,0.10823 -1.299428,0.13624 -0.03085,0.0279 0.175428,0.28251 0.458488,0.56557 l 0.51458,0.51456 1.22001,-0.22461 c 1.98197,-0.36498 2.24175,-0.3731 2.33658,-0.0743 0.18782,0.59175 0.01,0.71393 -1.27562,0.87348 -0.66473,0.0825 -1.51726,0.22112 -1.89438,0.30792 -0.60145,0.13843 -0.76949,0.13041 -1.36767,-0.0649 -0.375081,-0.12243 -0.853,-0.226 -1.062176,-0.2307 -0.437224,-0.01 -0.971997,0.33563 -0.695731,0.44901 0.343896,0.14115 1.006222,0.81357 1.299674,1.31958 0.422576,0.72864 1.371873,3.40167 1.267863,3.56997 -0.0301,0.0486 -0.47985,0.15706 -0.999529,0.2409 -0.852319,0.13748 -1.590264,0.11706 -2.574569,-0.0714 -0.560386,-0.1073 -0.416594,0.23814 0.390241,0.93711 0.857576,0.74294 1.201676,0.83614 2.127505,0.57674 1.174182,-0.32898 4.012082,-0.91291 4.653992,-0.95751 l 0.61317,-0.0426 0.21734,1.09593 c 0.11956,0.60274 0.28616,1.17838 0.37008,1.27951 0.084,0.10115 0.24036,0.16706 0.34751,0.14644 0.33391,-0.0643 0.50807,-0.61913 0.50996,-1.62435 0.002,-0.66381 0.0507,-0.98291 0.15735,-1.01628 0.41165,-0.12882 3.15142,-0.17268 4.08066,-0.0654 0.57634,0.0666 1.46444,0.15525 1.97355,0.19693 0.50909,0.0417 1.20016,0.14707 1.5357,0.23409 0.33554,0.087 0.7094,0.13226 0.83075,0.10054 0.27549,-0.072 0.55728,-0.57879 0.46115,-0.82929 -0.19861,-0.51756 -1.58315,-0.94091 -3.09302,-0.9456 -0.45755,-0.002 -0.86058,-0.0489 -0.8956,-0.10564 -0.035,-0.0566 0.10258,-0.30498 0.30598,-0.55174 0.20338,-0.24675 0.65114,-1.0174 0.99491,-1.71272 0.79342,-1.60481 0.76638,-1.7471 -0.4478,-2.357 l -0.8662,-0.43516 -2.58234,-0.0128 c -1.42025,-0.008 -2.61578,-0.0464 -2.65689,-0.0874 -0.0411,-0.041 -0.0409,-0.20914 2.4e-4,-0.37347 0.0716,-0.28551 0.13491,-0.30256 1.42474,-0.38417 1.84478,-0.11674 2.07358,-0.18731 2.07358,-0.6394 0,-0.25959 -0.0869,-0.40445 -0.31083,-0.51772 -0.3564,-0.18032 -1.34189,-0.20418 -2.01045,-0.0488 -0.25097,0.0583 -0.59943,0.0787 -0.77417,0.0451 -0.30067,-0.0575 -0.31701,-0.1011 -0.30695,-0.81545 0.0124,-0.87821 -0.0904,-0.99757 -1.03133,-1.19937 -0.3643,-0.0781 -0.67081,-0.11953 -0.91356,-0.12409 z m 4.6013,4.96604 c 0.54705,-0.003 1.16251,0.0434 1.36765,0.10175 l 0.373,0.10612 -0.024,1.54324 c -0.0132,0.84884 -0.0588,1.78126 -0.10101,2.0719 l -0.0768,0.5284 -1.63989,0.0195 v -2.5e-4 c -0.90188,0.0106 -1.79989,0.0265 -1.99564,0.0351 -0.25291,0.0112 -0.38319,-0.0575 -0.44998,-0.23701 -0.18874,-0.50748 -0.0511,-0.56086 1.36743,-0.53035 0.73967,0.0159 1.38442,-0.0104 1.43249,-0.0585 0.0481,-0.0481 0.0534,-0.22288 0.0119,-0.3883 -0.0976,-0.38892 -0.56317,-0.4844 -1.8407,-0.37786 -0.54793,0.0457 -0.9772,0.0327 -0.98205,-0.0298 -0.005,-0.0612 -0.0294,-0.27142 -0.0551,-0.46722 l -0.0466,-0.356 1.39171,0.0451 c 1.34096,0.0435 1.39326,0.0355 1.42958,-0.21903 0.0673,-0.47108 -0.25734,-0.62911 -1.49078,-0.7256 -1.18161,-0.0924 -1.33936,-0.16853 -1.34265,-0.64984 -0.002,-0.2269 0.0862,-0.28357 0.52671,-0.34094 0.29063,-0.0378 0.66829,-0.0682 0.83925,-0.0677 0.17097,9e-4 0.75845,-3.2e-4 1.3055,-0.003 z m -4.58576,0.407 c 0.19729,0.01 0.30696,0.20453 0.26591,0.52428 -0.0267,0.20776 -0.21207,0.28193 -1.15081,0.4614 -0.61546,0.11766 -1.30085,0.21621 -1.52309,0.21855 -0.58363,0.007 -0.52069,0.3378 0.11875,0.6241 0.2876,0.12876 0.5567,0.21338 0.59787,0.18795 0.0411,-0.0255 0.42947,-0.0794 0.86305,-0.11996 0.43356,-0.0406 0.84229,-0.10691 0.90821,-0.14765 0.15414,-0.0953 0.33641,0.19237 0.33876,0.53498 0.002,0.24759 -0.0799,0.27242 -1.14814,0.34847 -1.4617,0.10404 -1.83393,0.17702 -1.83393,0.35964 0,0.0807 0.12423,0.22449 0.27612,0.31933 0.25772,0.16095 0.51126,0.17097 2.33489,0.0925 0.39841,-0.0172 0.43824,0.013 0.47208,0.35818 l 0.037,0.37713 -1.46674,0.15274 c -0.80672,0.0841 -1.55629,0.15246 -1.66563,0.15153 -0.16305,-9e-4 -0.21295,-0.21942 -0.27756,-1.21371 -0.071,-1.09124 -0.25365,-2.02838 -0.52502,-2.69234 -0.0892,-0.21828 -0.0543,-0.23016 0.44488,-0.15032 0.5897,0.0943 2.24807,-0.10915 2.70935,-0.33245 0.0829,-0.0402 0.15837,-0.0577 0.22414,-0.0543 z"
       inkscape:label="path1"
       sodipodi:nodetypes="cscsssssssssssscssssccssssccsssscccsccssssssssscssssccccssscssssssssscssscsssscscccsscssccssssssssssscccsssccsssscssssssscccssccssscssssccccscsssscssssccccccccsscscccccssscscccscscsssscssssccccssscss" /></g></svg>
