<?xml version="1.0" encoding="UTF-8" standalone="no"?>
<!-- Created with Inkscape (http://www.inkscape.org/) -->

<svg
   viewBox="0 0 38.549999 41.919998"
   version="1.1"
   id="svg1"
   inkscape:version="1.3.2 (091e20e, 2023-11-25, custom)"
   sodipodi:docname="Gin.svg"
   xml:space="preserve"
   xmlns:inkscape="http://www.inkscape.org/namespaces/inkscape"
   xmlns:sodipodi="http://sodipodi.sourceforge.net/DTD/sodipodi-0.dtd"
   xmlns="http://www.w3.org/2000/svg"
   xmlns:svg="http://www.w3.org/2000/svg"><sodipodi:namedview
     id="namedview1"
     pagecolor="#ffffff"
     bordercolor="#111111"
     borderopacity="1"
     inkscape:showpageshadow="0"
     inkscape:pageopacity="0"
     inkscape:pagecheckerboard="1"
     inkscape:deskcolor="#d1d1d1"
     inkscape:document-units="mm"
     showguides="true"
     inkscape:zoom="13.096375"
     inkscape:cx="19.280144"
     inkscape:cy="20.959998"
     inkscape:window-width="1292"
     inkscape:window-height="745"
     inkscape:window-x="-8"
     inkscape:window-y="-8"
     inkscape:window-maximized="1"
     inkscape:current-layer="layer1"><inkscape:page
       x="0"
       y="0"
       width="38.549999"
       height="41.919998"
       id="page42"
       margin="0"
       bleed="0" /></sodipodi:namedview><defs
     id="defs1"><inkscape:path-effect
       effect="powerstroke"
       id="path-effect13"
       is_visible="true"
       lpeversion="1.3"
       scale_width="1"
       interpolator_type="CubicBezierJohan"
       interpolator_beta="0.2"
       start_linecap_type="zerowidth"
       end_linecap_type="zerowidth"
       offset_points="5,4.9921382"
       linejoin_type="extrp_arc"
       miter_limit="4"
       not_jump="false"
       sort_points="true"
       message="&lt;b&gt;Ctrl + click&lt;/b&gt; on existing node and move it" /></defs><g
     inkscape:label="Layer 1"
     inkscape:groupmode="layer"
     id="layer1"
     transform="translate(-84.724993,-165.64)"><path
       style="display:inline;fill:#fff29e;fill-opacity:1;fill-rule:evenodd;stroke:none;stroke-width:0.360263;stroke-linecap:round;stroke-linejoin:round;paint-order:stroke fill markers"
       d="m 104,170 9.06496,2.94538 L 117.34999,200 H 90.649996 l 4.285031,-27.05461 z"
       id="path13"
       sodipodi:nodetypes="cccccc" /><path
       style="display:inline;fill:#938e5e;fill-opacity:1;fill-rule:evenodd;stroke:none;stroke-width:0.372309;stroke-linecap:round;stroke-linejoin:round;stroke-dasharray:none;stroke-opacity:1;paint-order:stroke fill markers"
       d="m 90.649998,200 -3e-6,3.2 H 117.34999 V 200 Z"
       id="path45" /><path
       id="path2"
       style="fill:#000000;stroke-width:0.481511"
       d="m 99.386597,172.99712 c -0.355346,-4e-4 -0.41305,0.0372 -0.341392,0.22245 0.04743,0.12262 0.11629,0.37191 0.153029,0.55389 0.132146,0.65448 -1.033019,2.38157 -2.329276,3.45273 -0.793025,0.65533 -0.795485,0.81369 -0.0117,0.7639 0.459699,-0.0292 0.783356,0.046 1.312316,0.30482 0.692952,0.33904 0.701672,0.35027 0.663873,0.85547 -0.02927,0.39107 -0.09844,0.52474 -0.293119,0.56683 -0.207975,0.045 -1.666655,0.14272 -2.325044,0.15577 -0.291267,0.006 -0.164398,0.34215 0.191097,0.50661 0.192691,0.0891 0.608331,0.17936 0.923649,0.2003 0.683308,0.0454 0.749097,0.26862 0.164725,0.55862 -0.271548,0.13476 -0.436986,0.32874 -0.493424,0.57828 -0.07082,0.31314 -0.02412,0.42523 0.281174,0.67631 0.305885,0.25156 0.475824,0.29272 1.034873,0.25107 l 0.668848,-0.0498 v 0.6793 c 0,0.6016 -0.03019,0.6793 -0.527659,0.81279 -0.497464,0.13349 -1.542877,0.30512 -2.115885,0.29823 -0.261316,-0.003 -0.414052,0.0574 -0.414052,0.16397 0,0.0928 0.0493,0.16871 0.109737,0.16871 0.06042,0 0.323257,0.16979 0.583996,0.37698 h 2.5e-4 c 0.538185,0.42766 0.664153,0.42335 2.220537,-0.0757 0.51695,-0.16574 1.04393,-0.30133 1.73468,-0.42873 0.69074,-0.1274 1.33834,-0.46959 1.33834,-0.76066 0,-0.41717 -0.53224,-0.59427 -1.22746,-0.40833 -0.31575,0.0844 -0.62923,0.11968 -0.696472,0.0781 -0.100689,-0.0622 -0.03602,-0.91265 0.07987,-1.05055 0.0182,-0.0217 0.20819,-0.0615 0.42201,-0.0886 0.66434,-0.0841 1.18839,-0.42316 1.14337,-0.73951 -0.0414,-0.29066 -0.2773,-0.33142 -1.18641,-0.20503 -0.37283,0.0518 -0.3831,0.0389 -0.42028,-0.53399 l -0.03809,-0.58748 0.777832,-0.15303 c 1.23941,-0.24384 1.15076,-0.81957 -0.12815,-0.83233 -0.56935,-0.006 -0.57362,-0.009 -0.61286,-0.48347 -0.03491,-0.42161 -0.006,-0.47775 0.24559,-0.47775 0.48638,0 1.13167,-0.29278 1.13167,-0.51358 0,-0.31056 -0.54994,-0.5569 -0.97764,-0.43794 -0.1981,0.0551 -0.41739,0.1075 -0.487453,0.11645 -0.07007,0.009 -0.365616,0.0932 -0.656656,0.18737 -0.543944,0.17593 -1.445444,0.10186 -1.445444,-0.11869 0,-0.0648 0.157662,-0.23604 0.350353,-0.38071 0.192696,-0.14466 0.722994,-0.71714 1.178445,-1.272 0.455457,-0.55486 0.890715,-1.01135 0.967435,-1.01472 0.0767,-0.003 0.24276,0.10806 0.36902,0.24758 0.2102,0.23227 1.23438,0.89304 1.38423,0.89304 0.035,0 0.15342,-0.0897 0.26301,-0.19931 0.1743,-0.17428 0.17697,-0.24267 0.0202,-0.54593 -0.18189,-0.35173 -0.39427,-0.49335 -1.2521,-0.83506 -0.40679,-0.16205 -0.47775,-0.24821 -0.47775,-0.58077 0,-0.30392 -0.0919,-0.44677 -0.41405,-0.64322 -0.22772,-0.13884 -0.606555,-0.25254 -0.841778,-0.2528 z m 8.711953,1.58154 c -0.31431,0.0308 -0.61561,0.0819 -0.66959,0.11372 -0.054,0.0318 -0.396,0.0934 -0.76017,0.13661 -0.36417,0.0432 -1.00642,0.15866 -1.42703,0.25679 -0.4206,0.0981 -0.96826,0.16895 -1.21701,0.15725 -0.49544,-0.0233 -0.58239,0.14941 -0.22917,0.45486 0.41429,0.35831 0.94392,0.45236 1.81544,0.32248 0.45546,-0.0679 0.91409,-0.15398 1.0192,-0.19135 0.1051,-0.0374 0.48769,-0.0924 0.85025,-0.12217 0.56605,-0.0465 0.6789,-0.017 0.79923,0.20777 0.0771,0.14401 0.10397,0.40602 0.0597,0.58226 -0.0729,0.29063 -0.12515,0.31314 -0.5616,0.24335 -0.26467,-0.0423 -0.98945,-0.009 -1.61066,0.0744 -2.15868,0.28911 -2.09965,0.28827 -2.388,0.0351 -0.37427,-0.32861 -0.9456,-0.55731 -1.03413,-0.41405 -0.0397,0.0643 0.0731,0.46216 0.25081,0.88433 0.31061,0.73798 0.3201,0.83775 0.24585,2.58557 -0.0734,1.72844 0.009,2.82572 0.3282,4.35623 0.13715,0.65817 0.40402,1.05228 0.83084,1.22697 0.54274,0.22215 0.69517,0.0862 1.36482,-1.21726 0.17999,-0.35036 0.43264,-0.81964 0.5616,-1.04284 0.38898,-0.67322 0.11281,-0.61248 -0.66387,0.14581 -0.40348,0.39393 -0.8217,0.69906 -0.92937,0.67831 -0.28125,-0.0542 -0.39706,-0.73657 -0.38444,-2.26558 0.0162,-1.95929 0.0645,-2.1658 0.50512,-2.1658 0.19899,0 0.69424,-0.0908 1.10056,-0.20205 1.69739,-0.46455 1.70866,-0.46566 2.00755,-0.18487 0.35553,0.334 0.40225,0.32844 0.77286,-0.0908 0.46028,-0.52072 0.94488,-1.84417 1.1665,-3.18599 0.13909,-0.84204 -0.70407,-1.48667 -1.8035,-1.379 z m -0.17965,2.82246 c 0.13576,0.0839 0.14557,0.5749 0.0152,0.7624 -0.0515,0.074 -0.43753,0.14391 -0.85796,0.15528 -0.42041,0.0114 -1.14991,0.1291 -1.62111,0.26151 -0.47119,0.13242 -0.88686,0.21047 -0.92365,0.17369 -0.16103,-0.16104 -0.0511,-0.78824 0.15776,-0.90002 0.28705,-0.15362 3.08025,-0.54527 3.22978,-0.45286 z m 1.57981,1.73706 c -0.19078,0.0476 -1.90555,2.00225 -2.01277,2.29444 -0.075,0.20433 -0.11215,0.2051 -0.56359,0.0117 -0.66987,-0.28696 -2.10814,-0.67126 -2.23,-0.59594 -0.17802,0.11002 -0.10784,0.25769 0.18612,0.39191 0.15766,0.072 0.91728,0.63555 1.68805,1.25235 0.77077,0.61679 1.74293,1.34289 2.16032,1.61365 0.4174,0.27075 0.84608,0.47541 0.95276,0.45485 0.32093,-0.0618 0.45427,-0.65638 0.27869,-1.24239 -0.14442,-0.48205 -0.23534,-0.55977 -1.23244,-1.05429 -0.59211,-0.29366 -1.07592,-0.56424 -1.07543,-0.60117 9.6e-4,-0.07 2.41959,-1.12177 2.41959,-1.38696 0,-0.27351 -0.4493,-1.16857 -0.5713,-1.13814 z m -10.642117,1.62759 c 0.06121,-0.0483 0.106495,-0.0376 0.145811,0.0244 0.185367,0.29238 0.127533,0.96347 -0.09032,1.04707 -0.549712,0.21094 -0.674424,-0.10122 -0.296356,-0.742 0.102644,-0.17396 0.179652,-0.28117 0.240867,-0.32945 z m 0.03409,5.41399 c -0.446072,-0.0875 -0.541012,0.0574 -0.21474,0.32821 0.435604,0.36152 0.565087,0.85557 0.565087,2.15858 0,1.43705 -0.0056,1.44765 -1.177949,2.24417 -0.297825,0.20237 -0.633606,0.47838 -0.746237,0.61361 -0.196476,0.2359 -0.208504,0.22584 -0.297598,-0.24907 -0.164335,-0.87598 -0.92869,-1.21824 -1.588264,-0.71115 -0.296004,0.22757 -0.303675,0.2768 -0.233403,1.45465 0.07098,1.18964 0.0645,1.22796 -0.266993,1.58876 -0.580303,0.63159 -0.741248,0.86278 -0.867659,1.24787 -0.13907,0.42365 -0.03303,1.39127 0.175174,1.59947 0.195065,0.19506 0.890174,-0.54755 1.367058,-1.46037 0.207488,-0.39716 0.408148,-0.71978 0.445898,-0.71737 0.14313,0.01 1.303528,1.61524 1.525067,2.11006 0.199124,0.44475 0.805125,1.1976 0.963961,1.1976 0.168625,0 0.700945,-0.31499 0.94394,-0.76581 0.24299,-0.45082 0.309973,-0.75676 0.34026,-1.57168 0.02123,-0.57117 0.109375,-1.99624 0.195825,-3.16683 l 0.15726,-2.12847 0.58226,-0.41952 c 2.03818,-1.469 4.08699,-2.38202 4.08699,-1.82117 0,0.23228 -0.23268,0.44864 -1.14659,1.06548 -0.53165,0.35883 -0.7007,0.54848 -0.7007,0.78654 0,0.37708 0.47411,0.50243 0.86337,0.22792 0.38927,-0.2745 0.79058,-0.61702 1.19816,-1.00899 0.8402,-0.80801 1.65286,-1.09999 2.64629,-0.95102 0.75851,0.11375 0.93211,0.34019 0.62481,0.81491 -0.61898,0.95618 -1.57434,1.82302 -1.57434,1.42827 0,-0.10955 -1.0443,-0.89801 -1.1894,-0.89801 -0.0332,0 -0.23306,0.306 -0.44415,0.68004 -0.2111,0.37405 -0.79241,1.09789 -1.29192,1.60842 l -0.90822,0.92813 -1.07717,-0.0694 c -0.59237,-0.0383 -1.07693,-0.0288 -1.07693,0.0211 0,0.19697 1.11989,1.17607 1.34889,1.17944 0.38844,0.005 1.04426,-0.12028 1.29067,-0.24758 0.19383,-0.10014 0.95401,-0.29142 1.37353,-0.34563 0.0701,-0.009 0.35672,-0.081 0.637,-0.15974 0.56145,-0.15783 2.24134,-0.39478 3.45597,-0.48746 0.66463,-0.0507 0.79436,-0.0258 0.87239,0.16821 0.15073,0.37472 0.22267,3.39466 0.0856,3.59407 -0.10672,0.15524 -0.24488,0.14846 -0.96894,-0.0475 -0.46447,-0.12573 -0.88511,-0.18689 -0.93459,-0.13585 -0.14062,0.14503 1.45299,1.54732 2.15733,1.89831 0.55735,0.27773 0.67795,0.29655 1.00925,0.15725 0.20693,-0.087 0.55288,-0.39853 0.76887,-0.69224 l 0.39266,-0.53398 -0.15154,-0.92315 c -0.0833,-0.50771 -0.32067,-1.43011 -0.52751,-2.04984 -0.20685,-0.61974 -0.35621,-1.18634 -0.33194,-1.25907 0.0273,-0.082 0.53637,-0.12317 1.33994,-0.10824 l 1.29614,0.0241 0.0871,-0.34711 c 0.0681,-0.27146 0.0242,-0.3981 -0.20105,-0.58052 -0.30335,-0.24563 -0.74927,-0.3022 -1.93663,-0.24534 -0.45403,0.0218 -0.87894,-0.0393 -1.1466,-0.16448 -0.23389,-0.10941 -0.77963,-0.28033 -1.21253,-0.37996 -0.86083,-0.19811 -0.8903,-0.16372 -0.44988,0.52453 0.17137,0.2678 0.16381,0.28739 -0.1177,0.29586 -0.45423,0.0137 -1.98312,0.18758 -3.93223,0.44739 l -0.44589,0.0595 0.93194,-0.71655 c 0.42233,-0.37268 1.09493,-0.62947 1.86537,-0.70226 0.48751,-0.0461 0.90777,-0.14839 1.78879,-0.70572 0.88102,-0.55733 1.20076,-1.3244 1.09214,-1.62928 -0.0521,-0.1462 -0.43361,-0.45031 -0.848,-0.67607 -0.89176,-0.48583 -1.48261,-0.52572 -2.51739,-0.1697 l -0.72085,0.24808 -0.19409,-0.37548 c -0.19977,-0.38655 -0.46523,-0.45914 -1.39443,-0.3827 -0.64134,0.0528 -3.88918,1.85205 -4.054,1.95503 -0.16483,0.10298 -0.21872,-0.20795 -0.22161,-0.91246 -0.005,-1.22784 -0.23153,-1.51634 -1.365315,-1.73881 z m 0.260271,4.52543 c 0.152899,0 -0.026,2.25418 -0.316011,3.98125 -0.07943,0.47297 -0.17815,0.85711 -0.219463,0.85422 -0.198484,-0.0149 -1.152179,-0.58825 -1.635795,-0.98361 -0.335449,-0.27424 -0.541449,-0.54814 -0.541449,-0.71986 0,-0.1587 0.285887,-0.58269 0.668848,-0.99183 0.367864,-0.39301 0.953719,-1.03523 1.302116,-1.42727 0.348393,-0.39205 0.682191,-0.7129 0.741754,-0.7129 z m -3.190719,0.40559 c 0.281689,-0.0324 0.376156,0.0274 0.481732,0.30507 0.159183,0.41868 -0.103457,1.1621 -0.331544,1.31669 -0.228087,0.1546 -0.398123,0.16886 -0.468684,-0.0208 -0.0326,-0.0876 -0.0531,-0.47456 -0.04555,-0.85994 0.0131,-0.66572 0.03125,-0.70273 0.364032,-0.74101 z m 8.925205,2.13619 c -0.12281,0.0499 -0.16231,0.18529 -0.16448,0.42475 -0.002,0.28468 -0.28561,0.73685 -0.98112,1.56587 -0.36546,0.43561 -0.50076,0.68889 -0.41405,0.7756 0.14948,0.14948 0.54326,0.12026 1.52083,-0.11247 0.88306,-0.21023 1.682,-0.6311 2.02446,-1.06648 0.25587,-0.32526 0.25755,-0.35047 0.0441,-0.71911 -0.23346,-0.40311 -0.35028,-0.46981 -1.36532,-0.77983 -0.33542,-0.10245 -0.54156,-0.1382 -0.66437,-0.0883 z"
       inkscape:label="path1"
       sodipodi:nodetypes="ssssssscsscsssccscsssccscsssssssccssssssssssscsssssssssssssssssssssssssssssscssssssssssssssssssssscsscssssssssssssssssssscsssssccssssssscsscccscssssssssssccsscccsssssssccssscccccssscsccsssssssssssscssssssssssssss" /></g></svg>
