<?xml version="1.0" encoding="UTF-8" standalone="no"?>
<!-- Created with Inkscape (http://www.inkscape.org/) -->

<svg
   viewBox="0 0 35.349998 38.720001"
   id="svg5000"
   version="1.1"
   inkscape:version="1.3.2 (091e20e, 2023-11-25, custom)"
   sodipodi:docname="Narikyo.svg"
   xmlns:inkscape="http://www.inkscape.org/namespaces/inkscape"
   xmlns:sodipodi="http://sodipodi.sourceforge.net/DTD/sodipodi-0.dtd"
   xmlns="http://www.w3.org/2000/svg"
   xmlns:svg="http://www.w3.org/2000/svg"
   xmlns:rdf="http://www.w3.org/1999/02/22-rdf-syntax-ns#"
   xmlns:cc="http://creativecommons.org/ns#"
   xmlns:dc="http://purl.org/dc/elements/1.1/">
  <defs
     id="defs5002" />
  <sodipodi:namedview
     id="base"
     pagecolor="#ffffff"
     bordercolor="#666666"
     borderopacity="1.0"
     inkscape:pageopacity="0.0"
     inkscape:pageshadow="2"
     inkscape:zoom="14.178719"
     inkscape:cx="17.702587"
     inkscape:cy="19.36"
     inkscape:document-units="px"
     inkscape:current-layer="layer1"
     showgrid="false"
     fit-margin-top="0"
     fit-margin-left="0"
     fit-margin-right="0"
     fit-margin-bottom="0"
     inkscape:window-width="1292"
     inkscape:window-height="745"
     inkscape:window-x="-8"
     inkscape:window-y="-8"
     inkscape:window-maximized="1"
     inkscape:showpageshadow="0"
     inkscape:pagecheckerboard="1"
     inkscape:deskcolor="#d1d1d1" />
  <metadata
     id="metadata5005">
    <rdf:RDF>
      <cc:Work
         rdf:about="">
        <dc:format>image/svg+xml</dc:format>
        <dc:type
           rdf:resource="http://purl.org/dc/dcmitype/StillImage" />
      </cc:Work>
    </rdf:RDF>
  </metadata>
  <g
     inkscape:label="Layer 1"
     inkscape:groupmode="layer"
     id="layer1"
     transform="matrix(-0.54676851,0,0,-0.54676851,447.08346,450.09988)"
     style="display:inline">
    <path
       inkscape:connector-curvature="0"
       id="path5045"
       d="m 781.10046,714.71869 -15.15229,97.47972 86.87312,-0.75761 -15.15229,-95.96449 -27.52666,-8.08122 z"
       style="display:inline;fill:#ffffff;fill-opacity:1;stroke:none"
       transform="matrix(0.46753463,0,0,0.46753463,406.9747,432.78293)" />
    <path
       id="path5033"
       style="fill:#d1d1d1;fill-opacity:1"
       d="m 809.1504,705.84924 -14.41733,3.89657 c -7.93078,2.14648 -14.75593,4.27876 -15.15844,4.72937 -0.57717,0.64613 -15.04027,94.63772 -15.01327,97.56716 0.004,0.4125 20.1981,0.74875 44.87173,0.74875 h 44.86408 l -0.38202,-2.2539 c -0.21033,-1.23745 -3.52528,-23.35987 -7.36528,-49.16559 -3.84006,-25.80577 -7.15395,-47.09001 -7.36529,-47.30136 -0.21135,-0.21134 -7.05896,-2.15428 -15.21192,-4.30915 z m 0.28269,3.14782 13.60745,3.62916 c 11.22677,2.99324 13.6892,3.98134 14.05822,5.64621 0.50411,2.27429 13.46993,89.67527 13.46993,90.79782 0,0.39716 -18.62965,0.71819 -41.40301,0.71819 -38.91274,0 -41.38612,-0.10502 -41.02864,-1.74964 0.20922,-0.9625 3.36302,-22.00135 7.0062,-46.75125 3.64314,-24.74985 6.69338,-45.03351 6.77698,-45.07801 0.0836,-0.0444 6.30448,-1.68351 13.82902,-3.64444 z m -4.61477,9.06908 c -0.79797,0.0144 -1.51129,0.11626 -2.02469,0.31326 -2.34589,0.90018 -2.33107,1.06672 0.19101,2.94153 2.60274,1.93474 2.57382,2.17312 -1.13841,8.86279 -4.20791,7.58275 -3.44962,10.16166 2.98737,10.16166 3.36897,0 3.23764,0.28118 -2.75052,6.48665 -4.76247,4.93527 -5.42117,6.10154 -2.75052,4.83633 2.99639,-1.41954 2.81713,-1.02215 -1.1919,2.73525 -2.58643,2.42408 -5.57229,4.07979 -6.64709,3.66736 -1.07481,-0.41237 -2.59961,0.4432 -3.38467,1.91009 -3.20728,5.99265 -0.86183,5.70918 10.7958,-1.32178 5.09264,-3.07139 9.81037,-5.25468 10.47491,-4.84398 0.66453,0.4107 1.19953,4.79605 1.19953,9.74144 v 8.99268 l -3.4458,-3.4458 c -4.17428,-4.17429 -5.22931,-4.26423 -8.47313,-0.67999 -3.8573,4.26227 -2.22268,14.22134 3.49163,21.33184 4.68927,5.83516 4.37845,8.48065 -1.01616,8.87807 -4.39767,0.32398 -4.0591,2.64999 0.86336,5.96711 3.07355,2.07123 6.86428,3.22422 10.62007,3.22422 6.37342,0 9.20661,-1.87647 9.20661,-6.09699 0,-2.48176 -0.75541,-2.6578 -8.49606,-1.95593 -7.20936,0.65373 -8.25557,0.47313 -6.86102,-1.20717 0.90452,-1.08987 2.6686,-2.00801 3.92713,-2.03233 1.25855,-0.0243 3.47652,-1.65806 4.91274,-3.62916 2.32279,-3.18772 2.41133,-4.26951 0.85572,-9.82548 -1.63621,-5.84388 -1.38956,-13.40004 0.79459,-23.87607 0.64539,-3.09548 0.23993,-5.00901 -1.42874,-6.67766 -2.18144,-2.18141 -1.9935,-2.33794 2.6894,-2.33794 5.38774,0 6.54009,1.81842 2.56715,4.04174 -4.02137,2.25043 -1.30569,3.01609 4.43904,1.25301 6.63639,-2.03674 7.91783,-4.92328 3.71321,-8.32797 -4.21649,-3.41425 -12.71979,-3.3315 -20.18578,0.19865 l -5.90599,2.78873 4.92038,-4.23275 c 2.70645,-2.33108 6.64068,-5.16648 8.74055,-6.31093 5.8935,-3.21197 3.67885,-6.66136 -3.88893,-6.05879 -6.18792,0.4927 -6.6479,-0.65585 -1.69616,-4.2251 3.86799,-2.78804 2.74416,-8.9624 -1.933,-10.59716 -1.01801,-0.35581 -2.23198,-0.57276 -3.35411,-0.63415 -0.28054,-0.0154 -0.55153,-0.0201 -0.81752,-0.0153 z m -2.86513,54.61316 c 2.34965,0 8.62595,11.22744 8.62595,15.43349 0,2.33635 -0.5232,4.24803 -1.17661,4.24803 -1.48644,0 -4.98599,-3.94858 -7.07496,-7.99179 -1.86901,-3.61747 -2.12966,-11.68973 -0.37438,-11.68973 z"
       transform="matrix(0.46753463,0,0,0.46753463,406.9747,432.78293)" />
    <path
       id="path5031"
       style="fill:#b0b0b0;fill-opacity:1"
       d="m 809.39489,706.04789 -14.58542,3.84309 c -8.02123,2.11299 -14.87085,4.19431 -15.2272,4.6224 -0.35636,0.42809 -3.70271,21.47432 -7.43405,46.77417 -3.73129,25.2999 -7.01751,47.24052 -7.30416,48.75302 l -0.51955,2.75052 h 44.6196 c 43.30324,0 44.62723,-0.0588 44.62723,-1.91772 0,-1.87819 -14.01223,-96.43877 -14.33328,-96.72672 -0.0899,-0.0807 -6.84506,-1.94037 -15.00563,-4.12579 z m -0.16045,2.78872 13.8825,3.72849 13.89014,3.72848 6.73878,44.99397 c 3.70676,24.7499 6.76162,45.78875 6.78462,46.75125 0.0391,1.63928 -2.592,1.74964 -41.54053,1.74964 h -41.57874 l 0.57303,-2.75052 c 0.31563,-1.5125 3.50896,-22.51754 7.09787,-46.68249 3.58896,-24.16491 6.63509,-44.01599 6.76171,-44.10769 0.12661,-0.0917 6.33732,-1.79643 13.80609,-3.78961 z m -2.86513,9.0156 c -4.58753,0 -6.93867,2.39627 -3.60624,3.67501 3.07494,1.17997 2.7584,3.2817 -1.42874,9.44346 -4.16062,6.1228 -3.65821,9.3747 1.46694,9.3747 4.73698,0 4.51239,1.01628 -1.64267,7.31945 -2.86331,2.93231 -4.58044,5.33295 -3.80489,5.33295 0.77555,0 2.02804,-0.46678 2.77344,-1.04672 0.74541,-0.57995 -0.5498,0.65689 -2.88041,2.7658 -2.3306,2.10889 -4.98065,3.57789 -5.8907,3.25479 -2.19825,-0.78049 -5.02674,2.75836 -4.43904,5.55452 0.37297,1.77447 2.58977,0.95273 10.94861,-4.05702 5.76382,-3.45441 10.98238,-5.96558 11.59804,-5.58509 0.61566,0.3805 1.11549,4.84763 1.11549,9.93245 v 9.23717 l -2.91097,-3.70557 c -3.39072,-4.31045 -5.03868,-4.57323 -8.57246,-1.37526 -4.48226,4.05631 -3.44001,13.19812 2.38378,20.82757 5.49936,7.20443 5.32372,9.18369 -0.82515,9.18369 -6.1831,0 -5.15605,3.51839 2.19277,7.51046 2.63915,1.43364 6.848,2.16208 11.24659,1.95593 6.46992,-0.30325 7.06587,-0.62495 7.46461,-4.07231 0.53302,-4.60838 -2.67678,-5.96169 -9.50459,-4.00353 -2.63749,0.75641 -5.1047,1.06866 -5.47812,0.69527 -0.91796,-0.91794 0.51953,-2.23627 2.82693,-2.59008 3.36882,-0.51659 8.21336,-5.66405 8.21336,-8.73291 0,-1.6459 -0.70797,-5.01019 -1.56627,-7.47225 -1.15618,-3.31644 -1.12898,-7.44639 0.11461,-15.95304 1.53796,-10.51802 1.46887,-11.63761 -0.81752,-13.30947 -2.21194,-1.61739 -1.90182,-1.82604 2.69704,-1.82604 5.53626,0 6.75634,1.79574 2.74288,4.04174 -4.07632,2.28119 -0.89876,3.37588 4.56129,1.57391 6.17006,-2.03627 7.52362,-4.77685 4.17162,-8.48078 -2.80158,-3.09558 -11.78159,-3.74947 -18.49726,-1.3447 l -3.9577,1.41346 3.5604,-3.1631 c 1.95841,-1.74605 5.12889,-4.26805 7.03676,-5.60037 3.34837,-2.33827 3.3749,-2.49526 0.83279,-4.50016 -1.68412,-1.32805 -4.22566,-1.80005 -7.03675,-1.29122 l -4.3932,0.80988 3.87365,-3.73613 c 4.50128,-4.34758 4.57871,-4.7912 1.67324,-8.9392 -1.40148,-2.00085 -3.64549,-3.11726 -6.24216,-3.11726 z m -4.50016,56.23292 c 0.82179,0 2.84619,1.89016 4.49252,4.20218 2.07751,2.91756 2.84767,5.82803 2.54423,9.49695 l -0.42785,5.27947 -3.25479,-4.55364 c -3.5926,-5.03678 -5.77457,-14.42496 -3.35411,-14.42496 z"
       transform="matrix(0.46753463,0,0,0.46753463,406.9747,432.78293)" />
    <path
       id="path5029"
       style="fill:#909090;fill-opacity:1"
       d="m 809.265,706.17777 -14.59305,3.88894 c -8.02484,2.13636 -14.77299,4.06887 -14.99799,4.29387 -0.225,0.225 -3.47567,21.00155 -7.22012,46.17058 -3.7445,25.16908 -7.06776,47.22529 -7.38821,49.01279 l -0.58831,3.24714 h 44.55083 c 38.62557,0 44.54319,-0.19354 44.54319,-1.47458 0,-0.81255 -3.1486,-22.52398 -6.99855,-48.24112 -3.85,-25.71708 -6.99856,-47.25587 -6.99856,-47.86673 0,-0.61092 -6.82338,-2.8958 -15.15843,-5.07319 z m 0.25977,2.54424 13.27127,3.59096 c 7.29941,1.9757 13.56019,3.90487 13.90543,4.28623 0.66796,0.73785 13.86722,88.32005 13.86722,92.01263 v 2.1775 h -41.4947 c -22.8249,0 -41.50233,-0.21494 -41.50233,-0.48135 0,-0.64873 12.81763,-87.16641 13.50048,-91.12635 0.53106,-3.07963 0.6626,-3.14106 14.49373,-6.78462 z m -3.9577,9.1302 c -3.85438,0 -4.40033,1.64581 -1.37526,4.15635 1.7501,1.45243 1.45937,2.62336 -2.02469,8.22101 -4.51277,7.2503 -3.79209,10.11581 2.55188,10.11581 3.53499,0 3.45901,0.1784 -2.63592,6.57833 -5.01507,5.26616 -5.44215,6.07893 -2.1775,4.04938 2.24416,-1.39509 6.79083,-4.61158 10.10817,-7.14372 3.31726,-2.53213 6.82076,-4.86112 7.77787,-5.18015 1.05431,-0.35142 1.3434,-1.59056 0.74875,-3.14018 -0.79624,-2.0749 -2.02934,-2.41989 -6.57069,-1.81076 -6.41858,0.86089 -7.14816,-0.45737 -2.08581,-3.77433 6.06644,-3.97481 3.17058,-12.07174 -4.3168,-12.07174 z m 15.6627,26.87872 c -6.99117,-0.11641 -16.29353,3.58964 -22.8599,9.93245 -2.7375,2.64421 -5.32156,4.00321 -6.65473,3.49163 -1.32133,-0.50706 -2.7411,0.20955 -3.60624,1.82605 -3.23279,6.04035 -0.83451,5.71684 10.52839,-1.45931 4.98835,-3.15037 9.71324,-5.33359 10.50546,-4.84398 0.79223,0.48962 1.41384,5.4417 1.38291,11.0021 -0.0533,9.56749 -0.16828,9.91132 -2.07054,6.41024 -1.10559,-2.03476 -3.12273,-4.12733 -4.49252,-4.65297 -3.35934,-1.2891 -7.44169,3.88889 -7.44169,9.44347 0,4.96938 5.86718,15.73191 9.29066,17.0456 2.15161,0.82564 2.14215,1.12145 -0.17573,3.68264 -1.38501,1.53039 -4.08209,2.78109 -5.99003,2.78109 -3.06715,0 -3.24123,0.26767 -1.53571,2.32266 1.06097,1.27836 3.82273,3.16049 6.14284,4.17163 9.13299,3.98027 19.24324,1.27277 17.0074,-4.55365 -0.74222,-1.93416 -2.20199,-2.1662 -8.80168,-1.39054 -6.9863,0.82102 -7.69301,0.68062 -6.11991,-1.21481 0.97909,-1.17971 2.53829,-2.14694 3.46871,-2.14694 0.93043,0 3.14384,-1.54665 4.92802,-3.44579 3.0941,-3.29353 3.15186,-3.73647 1.24538,-9.52751 -1.66612,-5.06078 -1.70983,-7.9384 -0.26741,-17.26717 1.4856,-9.60817 1.44003,-11.52088 -0.35146,-13.50048 -1.87564,-2.07254 -1.73253,-2.366 1.39818,-2.96446 5.50705,-1.05265 7.57819,0.97525 4.48489,4.3932 -2.54537,2.81254 -2.52129,2.8383 1.46694,1.64267 10.01904,-3.00362 10.71553,-3.96936 6.15048,-8.53426 -1.75006,-1.75009 -4.45486,-2.59065 -7.63271,-2.64356 z m -19.27658,27.94837 c 2.4885,0 8.62595,10.80755 8.62595,15.189 0,2.47152 -0.5232,4.49252 -1.17661,4.49252 -1.48644,0 -4.98599,-3.94858 -7.07496,-7.99179 -1.8667,-3.61304 -2.12617,-11.68973 -0.37438,-11.68973 z"
       transform="matrix(0.46753463,0,0,0.46753463,406.9747,432.78293)" />
    <path
       id="path5027"
       style="fill:#707070;fill-opacity:1"
       d="m 809.20388,706.77372 c -1.7719,0.0176 -28.79357,6.91134 -29.43824,7.51045 -0.16739,0.15557 -3.41489,21.14512 -7.22012,46.64429 -3.80522,25.49913 -7.14264,47.59961 -7.41877,49.11211 l -0.50426,2.75052 h 44.47442 c 29.40004,0 44.47443,-0.34568 44.47443,-1.01616 0,-1.60781 -14.01221,-95.36098 -14.43261,-96.56627 -0.38487,-1.10359 -26.5225,-8.46874 -29.93485,-8.43494 z m -0.16045,1.83368 14.26452,3.72849 c 10.86139,2.84066 14.27258,4.11299 14.29508,5.3406 0.0163,0.88674 3.07933,21.98757 6.80754,46.88877 3.7282,24.90125 6.56443,45.48921 6.30328,45.75036 -0.26115,0.26115 -19.07471,0.47371 -41.80795,0.47371 -32.41092,0 -41.32762,-0.2652 -41.31132,-1.24538 0.0409,-2.44853 13.75257,-92.86067 14.14227,-93.25037 0.21835,-0.21835 6.45297,-2.03704 13.85194,-4.04174 z m -2.94153,9.34414 c -0.95924,-0.0156 -1.89691,0.19786 -2.6894,0.68763 -1.24027,0.76651 -1.01062,1.54226 0.84044,2.89569 2.40564,1.75903 2.34163,2.15099 -1.27594,7.61742 -4.63838,7.00896 -4.28543,10.23011 1.23009,11.18546 l 4.14107,0.71819 -5.42464,5.2642 c -6.99706,6.79558 -4.7458,6.79661 3.76669,0 3.63179,-2.89972 7.9988,-6.27216 9.70323,-7.48754 4.60188,-3.28142 2.14376,-6.0148 -4.59185,-5.11139 -6.36436,0.85365 -6.90263,-0.50484 -1.71143,-4.28623 2.99552,-2.18203 3.5384,-3.43862 2.78872,-6.42553 -0.72952,-2.90654 -3.89928,-5.01128 -6.77698,-5.0579 z m 15.14316,26.68771 c -0.45659,-0.0126 -0.91611,-0.009 -1.39055,0.0153 -6.32589,0.3034 -14.15617,3.72596 -20.97273,9.71087 -2.85129,2.50343 -6.01676,4.2345 -7.03676,3.8431 -1.89275,-0.7263 -5.97635,4.29231 -4.60712,5.66149 0.41465,0.41465 5.21065,-1.89806 10.65827,-5.13431 5.44761,-3.23632 10.53595,-5.49958 11.30007,-5.02734 0.7641,0.47223 1.34352,5.41113 1.29121,10.97153 -0.073,7.7479 -0.42502,9.43526 -1.4975,7.22776 -0.76969,-1.58419 -2.73431,-3.72586 -4.37792,-4.75229 -2.63575,-1.64607 -3.30055,-1.49041 -5.54689,1.28357 -4.5099,5.5694 -2.24038,15.72062 5.00443,22.40148 3.46445,3.19478 3.55559,3.58085 1.37526,5.99003 -1.2786,1.41281 -3.54385,2.56716 -5.03499,2.56716 -4.01775,0 -2.31646,3.15131 3.22423,5.9671 9.10575,4.62741 19.99436,2.13692 17.62627,-4.0341 -0.74222,-1.93416 -2.20199,-2.1662 -8.80168,-1.39054 -6.9863,0.82102 -7.69301,0.68062 -6.11991,-1.21481 0.97909,-1.17971 2.45565,-2.14694 3.27771,-2.14694 0.82207,0 2.9175,-1.34269 4.66824,-2.98737 2.47959,-2.32932 2.99974,-3.96035 2.35323,-7.38057 -0.45648,-2.41491 -1.35049,-5.06329 -1.99413,-5.89071 -0.64366,-0.82741 -0.31299,-6.8445 0.74111,-13.36295 1.65193,-10.21573 1.64166,-12.16704 -0.0993,-14.14227 -1.79795,-2.04012 -1.60329,-2.39417 1.76492,-3.23951 4.72578,-1.18601 7.3518,1.03227 4.82869,4.0723 -1.52027,1.83179 -1.35772,2.15458 1.03145,2.15458 1.5555,0 4.26413,-1.15252 6.02059,-2.5748 l 3.18602,-2.59007 -3.02557,-3.04086 c -1.91165,-1.91161 -4.6505,-2.86123 -7.84663,-2.94917 z m -19.1467,28.04005 c 2.59034,0 8.48078,10.48414 8.48078,15.08968 0,2.5269 -0.5232,4.59184 -1.17661,4.59184 -1.48644,0 -4.98599,-3.94858 -7.07496,-7.99179 -1.93883,-3.75263 -2.09372,-11.68973 -0.22921,-11.68973 z"
       transform="matrix(0.46753463,0,0,0.46753463,406.9747,432.78293)" />
    <path
       id="path5025"
       style="fill:#505050;fill-opacity:1"
       d="m 809.07399,706.43754 -14.50137,3.8431 c -7.97495,2.11296 -14.61136,3.91343 -14.74585,4.00353 -0.13455,0.0901 -3.38889,21.28041 -7.22777,47.08743 -3.83883,25.80697 -7.15249,47.92814 -7.36529,49.16559 l -0.38201,2.2539 h 44.4897 44.48971 l -0.60359,-3.72084 c -0.33178,-2.04451 -3.59533,-23.97749 -7.25832,-48.74538 -3.66299,-24.76783 -6.94156,-45.33461 -7.28125,-45.70452 -0.33969,-0.36991 -7.14528,-2.36605 -15.12023,-4.4314 z m 1.00089,2.07818 13.46228,3.69028 c 7.40747,2.02872 13.55781,3.77979 13.66093,3.88894 0.10312,0.1091 3.18522,20.44276 6.85338,45.19261 3.66822,24.7499 6.91157,46.01802 7.20485,47.25552 l 0.53482,2.24626 h -42.11356 c -39.44766,0 -42.10306,-0.11021 -42.07536,-1.74964 0.10206,-6.03531 13.80664,-92.52765 14.7535,-93.11284 0.6329,-0.39115 7.12679,-2.22295 14.4326,-4.06466 z m -3.69793,9.33649 c -3.6189,0 -4.4499,1.63829 -1.81076,3.56804 2.19141,1.60236 2.07826,2.18806 -1.42874,7.48754 -4.9237,7.43997 -4.80642,9.69022 0.58066,11.08613 l 4.3932,1.13841 -4.04174,4.87454 c -4.29782,5.19523 -3.78552,4.94755 8.06056,-4.00354 7.89227,-5.96342 7.95573,-8.06163 0.21393,-7.71674 -6.77309,0.30171 -7.59852,-1.24803 -2.46019,-4.61477 1.93317,-1.26663 3.51455,-3.28914 3.51455,-4.49252 0,-3.00115 -4.15002,-7.32709 -7.02147,-7.32709 z m 15.44113,26.703 c -6.34499,0 -16.28631,4.16447 -22.35564,9.35941 -3.20136,2.7402 -6.67892,4.65688 -7.72438,4.25567 -1.09872,-0.4216 -2.54955,0.70696 -3.4458,2.67412 -0.85293,1.87194 -1.09056,3.40039 -0.52718,3.39996 0.56338,-4.4e-4 5.13547,-2.53114 10.16165,-5.6233 5.02626,-3.09215 9.93618,-5.62285 10.90277,-5.62329 1.24819,-5.6e-4 1.74964,3.01692 1.74964,10.42907 v 10.44435 l -4.3932,-4.3932 -4.39319,-4.40084 -2.62828,3.25479 c -4.58864,5.66663 -2.31904,15.66124 5.16487,22.69181 3.21659,3.02185 3.29336,3.39254 1.11549,5.79902 -1.2786,1.41281 -3.49368,2.56716 -4.92038,2.56716 -4.51487,0 -2.81702,2.84993 3.37703,5.66149 8.00271,3.6325 14.57566,3.61136 16.54134,-0.0611 2.5221,-4.71248 0.40963,-5.97386 -8.20573,-4.89746 -7.08882,0.88567 -7.66582,0.76008 -5.98238,-1.2683 1.0251,-1.23516 2.4093,-2.24626 3.07905,-2.24626 0.66975,0 2.48639,-1.08262 4.04174,-2.41435 3.0415,-2.60416 3.71843,-8.75518 1.43639,-13.01914 -0.92831,-1.73454 -0.84491,-6.41628 0.24449,-14.11935 1.24129,-8.77713 1.24575,-12.15452 -0.008,-14.15755 -1.41906,-2.27222 -1.15789,-2.7617 1.96357,-3.54512 4.77781,-1.19914 7.35529,1.30367 4.68353,4.546 -1.811,2.19775 -1.61344,2.31653 2.24626,1.37526 2.31981,-0.56577 5.06784,-1.85164 6.10463,-2.86512 1.57155,-1.5362 1.3499,-2.34734 -1.32178,-4.83634 -1.76255,-1.64203 -4.87062,-2.98737 -6.90687,-2.98737 z m -19.68916,28.12409 c 2.69959,0 8.45022,9.92683 8.45022,14.58541 0,6.44242 -1.70284,7.29568 -5.15723,2.58244 -5.19347,-7.08598 -7.12671,-17.16785 -3.29299,-17.16785 z"
       transform="matrix(0.46753463,0,0,0.46753463,406.9747,432.78293)" />
    <path
       id="path5023"
       style="fill:#2f2f2f;fill-opacity:1"
       d="m 809.35668,706.55215 -14.14227,3.70556 c -7.77942,2.03838 -14.47133,4.02458 -14.87574,4.40848 -0.71907,0.6826 -14.76878,92.10246 -14.76878,96.10021 0,2.0027 0.4894,2.02469 44.11533,2.02469 h 44.10769 l -0.58831,-3.24714 c -0.3261,-1.7875 -3.52455,-23.05566 -7.10551,-47.25551 -3.581,-24.1999 -6.71972,-44.89486 -6.97564,-45.99486 -0.3837,-1.64913 -3.03431,-2.68518 -15.11259,-5.87542 z m -0.31325,1.87952 13.29419,3.39231 c 7.31322,1.8652 13.7258,3.6542 14.2416,3.97298 0.51579,0.31877 3.86803,20.35836 7.44933,44.53555 3.58135,24.17723 6.7579,45.42217 7.06732,47.20967 l 0.56538,3.24715 h -42.04479 c -39.37452,0 -42.04844,-0.11079 -42.05244,-1.74964 -0.003,-0.9625 2.98887,-22.0014 6.64709,-46.75125 4.26177,-28.83286 7.1255,-45.38486 7.96888,-46.0789 0.72394,-0.59576 7.06336,-2.59085 14.08879,-4.4314 z m -4.1105,10.19222 c -1.91285,0.0527 -2.6269,1.13789 -0.4737,2.71232 2.21945,1.62287 2.116,2.23081 -1.36763,8.17516 -4.39978,7.50746 -4.66203,9.42172 -1.29885,9.45111 1.35322,0.0112 3.39968,0.61225 4.546,1.33706 1.74118,1.10094 1.39428,2.0704 -2.10873,5.89834 -2.30623,2.52014 -3.23808,3.90303 -2.07818,3.07142 10.19139,-7.30761 16.15932,-12.36839 16.15932,-13.68385 0,-0.98956 -2.59448,-1.44789 -7.02147,-1.25302 l -7.03675,0.29797 4.70645,-4.02646 c 5.3403,-4.58548 5.45558,-8.297 0.35145,-10.84164 -1.65703,-0.82612 -3.23016,-1.17003 -4.37791,-1.13841 z m 15.17371,26.19873 c -5.97906,0.1105 -13.5064,3.49845 -20.88105,9.67267 -3.77032,3.1567 -7.47606,5.36258 -8.22865,4.89746 -0.7526,-0.46512 -2.04877,0.42596 -2.88804,1.99413 -2.1025,3.92846 -1.17372,3.66871 9.65739,-2.76581 5.20635,-3.09302 10.218,-5.62329 11.13961,-5.62329 1.15059,0 1.67324,3.36423 1.67324,10.73468 v 10.72704 l -2.91097,-3.70556 c -6.64723,-8.45053 -13.47592,-0.36656 -9.18369,10.8722 1.27903,3.34903 3.88652,7.5627 5.79902,9.35942 3.25835,3.061 3.33962,3.43029 1.16133,5.83722 -1.2786,1.41281 -3.49368,2.56716 -4.92038,2.56716 -5.88511,0 -1.31498,4.53195 7.16664,7.10551 8.17794,2.48148 12.72881,1.08156 12.72881,-3.90421 0,-3.46946 -0.12568,-3.50696 -8.01472,-2.52131 -7.2461,0.90532 -7.83481,0.78408 -6.15047,-1.24538 1.0251,-1.23516 2.41582,-2.24626 3.09433,-2.24626 0.6786,0 2.50284,-1.26513 4.04938,-2.81165 3.06942,-3.06936 3.6416,-8.47414 1.35235,-12.75172 -1.01955,-1.90493 -0.95073,-6.37918 0.23685,-14.86811 1.56599,-11.19403 1.50797,-12.27378 -0.81752,-13.97418 -2.34011,-1.71111 -2.25942,-1.91673 1.24537,-2.79637 2.07746,-0.5214 5.09462,-0.36936 6.69294,0.34382 2.73651,1.22102 2.75762,1.44454 0.50427,3.69792 -2.77507,2.77502 -1.05295,3.09923 4.0723,0.76404 4.40906,-2.00889 4.56732,-4.55619 0.45842,-7.43406 -1.91916,-1.34421 -4.31906,-1.97557 -7.03676,-1.92536 z m -17.93952,28.28454 c 0.87318,0.0571 2.04254,1.18375 4.23275,3.73613 3.22569,3.75906 4.17927,6.23973 4.17927,10.89513 0,3.31554 -0.62061,6.02822 -1.3829,6.02822 -1.84777,0 -8.08269,-9.64545 -9.09201,-14.06586 -0.4414,-1.93314 -0.14639,-4.45577 0.65707,-5.61565 0.4596,-0.66349 0.88191,-1.01223 1.40582,-0.97797 z m 11.2313,13.63037 c 0.77327,0 1.40583,0.59416 1.40583,1.32178 0,0.72762 -0.63256,1.71488 -1.40583,2.19278 -0.77327,0.4779 -1.41346,-0.11626 -1.41346,-1.32178 0,-1.20552 0.64019,-2.19278 1.41346,-2.19278 z"
       transform="matrix(0.46753463,0,0,0.46753463,406.9747,432.78293)" />
    <path
       id="path5021"
       style="fill:#050505;fill-opacity:1"
       d="m 809.25736,706.66675 -14.08879,3.71321 c -7.75155,2.04376 -14.39944,3.98815 -14.76878,4.31679 -0.55955,0.4979 -14.8299,92.94971 -14.8299,96.07729 0,0.67544 14.82144,1.01617 44.02364,1.01617 h 44.01601 L 853.09,809.54395 c -0.28459,-1.2375 -3.45708,-22.27635 -7.05204,-46.75125 -3.5949,-24.47485 -6.92465,-45.42796 -7.39585,-46.56024 -0.68507,-1.64617 -3.71391,-2.81191 -15.12023,-5.8143 z m 0.0382,1.49751 13.65329,3.66736 c 7.51017,2.01329 13.90025,3.90668 14.2034,4.20983 0.43765,0.43765 14.33924,91.17037 14.40204,93.99912 0.009,0.4125 -19.03846,0.74876 -42.32749,0.74876 h -42.34277 l 2.804,-18.7494 c 1.5436,-10.31245 4.69902,-31.57297 7.0062,-47.24787 2.30713,-15.67495 4.29128,-28.63843 4.41611,-28.80409 0.12484,-0.16565 6.51655,-1.98878 14.2034,-4.05702 z m -3.33119,11.13198 c -3.75117,0.0354 -4.10486,0.2929 -2.06289,1.48222 3.26871,1.90382 3.11335,3.28732 -1.05437,9.42055 -4.41862,6.50243 -4.43316,8.74055 -0.0764,8.74055 5.26581,0 5.71659,2.59093 1.29122,7.43405 l -4.02646,4.40083 4.92802,-3.86601 c 2.70637,-2.12866 6.96853,-5.1793 9.48166,-6.76934 2.51306,-1.59011 4.56893,-3.38939 4.56893,-4.00354 0,-1.93815 -3.8702,-2.70004 -9.4129,-1.8566 l -5.34824,0.81751 4.70645,-4.96622 c 4.03441,-4.25579 4.46306,-5.37231 3.10198,-7.91539 -1.11731,-2.08767 -2.91171,-2.9487 -6.097,-2.91861 z m 14.84519,25.63334 c -1.61541,0.0515 -3.58247,0.57459 -6.77699,1.58155 -4.04322,1.27451 -10.57948,4.87996 -14.51665,8.01472 -3.93709,3.13475 -7.77025,5.31435 -8.51898,4.85162 -0.7487,-0.46272 -2.07282,0.47693 -2.93389,2.08581 l -1.56627,2.93389 5.37116,-2.82692 c 2.94876,-1.54895 7.25354,-4.1048 9.57335,-5.68442 5.18026,-3.52752 9.08675,-3.70603 9.29066,-0.42786 0.52914,8.50648 0.44129,20.03237 -0.15281,20.02534 -0.38664,-0.004 -1.80533,-1.94463 -3.15546,-4.31679 -2.83986,-4.98976 -6.48815,-5.04599 -8.9392,-0.12989 -2.29709,4.60734 -0.33672,11.76249 5.27183,19.20782 2.59087,3.43929 5.18851,6.2641 5.76846,6.288 0.57995,0.0239 2.32711,-1.21929 3.87365,-2.76581 3.104,-3.10393 3.63363,-8.47633 1.27594,-12.88161 -1.11372,-2.08097 -1.06071,-6.1424 0.18337,-14.90631 1.53673,-10.82571 1.46655,-12.22978 -0.62651,-13.76025 -2.12742,-1.55553 -2.13014,-1.77333 -0.0611,-2.56716 6.48574,-2.4888 12.28768,0.15876 9.00796,4.11051 -2.05851,2.48041 -1.22558,2.57025 3.5604,0.38966 4.5849,-2.08902 4.04004,-5.45196 -1.29122,-8.00708 -1.77109,-0.84885 -3.02229,-1.26626 -4.63768,-1.21482 z m -18.82581,26.3439 c 2.80376,0 8.59539,11.34613 8.59539,16.83931 0,3.1096 -0.58171,5.65385 -1.29886,5.65385 -1.7885,0 -6.37169,-6.01554 -8.5037,-11.16253 -1.76826,-4.26881 -1.01719,-11.33063 1.20717,-11.33063 z m 11.41467,15.46405 c 0.77327,0 1.40583,0.94885 1.40583,2.10874 0,1.15988 -0.63256,2.11637 -1.40583,2.11637 -0.77327,0 -1.41346,-0.95649 -1.41346,-2.11637 0,-1.15989 0.64019,-2.10874 1.41346,-2.10874 z m -10.99445,13.17195 c -4.50037,0.0488 -4.01596,0.56828 -1.95592,2.62828 1.51965,1.51963 4.89644,3.26576 7.50281,3.88129 9.14316,2.15923 13.13593,0.96883 12.24747,-3.64444 -0.43265,-2.24654 -2.00495,-2.63055 -11.50636,-2.80401 -2.73505,-0.0499 -4.78784,-0.0776 -6.288,-0.0611 z"
       transform="matrix(0.46753463,0,0,0.46753463,406.9747,432.78293)" />
  </g>
</svg>
