<?xml version="1.0" encoding="UTF-8" standalone="no"?>
<!-- Created with Inkscape (http://www.inkscape.org/) -->

<svg
   viewBox="0 0 35.349998 38.720001"
   id="svg3821"
   version="1.1"
   inkscape:version="1.3.2 (091e20e, 2023-11-25, custom)"
   sodipodi:docname="Narikei.svg"
   xmlns:inkscape="http://www.inkscape.org/namespaces/inkscape"
   xmlns:sodipodi="http://sodipodi.sourceforge.net/DTD/sodipodi-0.dtd"
   xmlns="http://www.w3.org/2000/svg"
   xmlns:svg="http://www.w3.org/2000/svg"
   xmlns:rdf="http://www.w3.org/1999/02/22-rdf-syntax-ns#"
   xmlns:cc="http://creativecommons.org/ns#"
   xmlns:dc="http://purl.org/dc/elements/1.1/">
  <defs
     id="defs3823" />
  <sodipodi:namedview
     id="base"
     pagecolor="#ffffff"
     bordercolor="#666666"
     borderopacity="1.0"
     inkscape:pageopacity="0.0"
     inkscape:pageshadow="2"
     inkscape:zoom="14.178719"
     inkscape:cx="17.702587"
     inkscape:cy="19.360001"
     inkscape:document-units="px"
     inkscape:current-layer="layer1"
     showgrid="false"
     fit-margin-top="0"
     fit-margin-left="0"
     fit-margin-right="0"
     fit-margin-bottom="0"
     inkscape:window-width="1292"
     inkscape:window-height="745"
     inkscape:window-x="-8"
     inkscape:window-y="-8"
     inkscape:window-maximized="1"
     inkscape:showpageshadow="0"
     inkscape:pagecheckerboard="1"
     inkscape:deskcolor="#d1d1d1" />
  <metadata
     id="metadata3826">
    <rdf:RDF>
      <cc:Work
         rdf:about="">
        <dc:format>image/svg+xml</dc:format>
        <dc:type
           rdf:resource="http://purl.org/dc/dcmitype/StillImage" />
      </cc:Work>
    </rdf:RDF>
  </metadata>
  <g
     inkscape:label="Layer 1"
     inkscape:groupmode="layer"
     id="layer1"
     transform="matrix(-0.59281032,0,0,-0.59281032,398.58166,324.19327)"
     style="display:inline">
    <path
       inkscape:connector-curvature="0"
       id="path3866"
       d="m 637.91133,441.47243 -14.64721,96.21703 86.36804,0.25254 -14.14213,-96.21703 -28.53681,-8.33376 z"
       style="display:inline;fill:#ffffff;fill-opacity:1;stroke:none"
       transform="matrix(0.46741798,0,0,0.46741798,330.9759,287.17852)" />
    <path
       id="path3854"
       style="fill:#cfcfcf;fill-opacity:1"
       d="m 666.42876,432.24622 -14.619,3.94022 c -8.03904,2.16438 -14.85811,4.17227 -15.1547,4.46887 -0.36758,0.36758 -14.50491,91.82952 -15.19699,98.31524 -0.0147,0.1375 20.27896,0.2467 45.09757,0.2467 h 45.12576 l -0.52866,-2.74899 c -0.28774,-1.5125 -3.5706,-23.449 -7.2954,-48.74879 -3.72474,-25.29986 -7.06938,-46.35596 -7.43637,-46.78926 -0.367,-0.4333 -7.26679,-2.56559 -15.33092,-4.73672 z m 0,3.15077 13.75201,3.67237 13.74496,3.67942 6.71036,44.48433 c 3.68964,24.46766 6.72985,45.49536 6.75265,46.73286 l 0.0423,2.25558 H 666.42877 625.4265 l 0.0634,-2.25558 c 0.0318,-1.2375 3.08286,-22.26886 6.78085,-46.73991 l 6.71741,-44.49138 13.72381,-3.66532 z m -7.21082,20.37073 c -2.57738,-0.15484 -2.91842,1.06742 -1.21237,3.79925 0.92623,1.48316 1.68463,3.58533 1.68463,4.67329 0,2.80528 -10.14917,15.39989 -20.06059,24.896 l -8.43024,8.07075 8.78268,-4.49706 c 8.81121,-4.51456 23.66083,-18.7507 27.98332,-26.82735 2.56638,-4.79542 0.79648,-7.89771 -5.42044,-9.50869 -1.36254,-0.35306 -2.46786,-0.55456 -3.32699,-0.60619 z m 10.96073,13.88594 c -0.16377,0.004 -0.28431,0.0376 -0.34539,0.0987 -0.48869,0.48869 3.12388,4.47148 8.02847,8.84611 4.9046,4.37458 10.78996,10.00119 13.08238,12.51144 4.46157,4.88554 8.00062,5.38872 8.79677,1.25467 0.67832,-3.52228 -11.17377,-14.46807 -21.09675,-19.48965 -3.8154,-1.93083 -7.31909,-3.24943 -8.46548,-3.22125 z m -5.4557,10.90433 c -4.38943,0.0504 -4.85961,1.62005 -0.52865,3.55254 3.06589,1.36804 3.03671,1.42965 -1.39564,3.72172 -2.4786,1.28173 -4.50412,2.62619 -4.50412,2.98864 0,0.36246 2.4345,0.65553 5.40635,0.65553 12.28075,0 15.15957,-9.94964 3.13667,-10.84089 -0.78452,-0.0582 -1.48755,-0.0848 -2.11461,-0.0775 z m -11.24267,14.33705 c -1.52854,0.1049 -3.29869,2.48806 -2.53048,4.49002 0.69082,1.80026 2.52096,2.00789 11.14399,1.22648 9.40777,-0.85251 10.28653,-0.71595 9.85408,1.52956 -0.32362,1.68047 -2.33277,2.77512 -6.30859,3.45386 -9.31524,1.59024 -11.74499,3.43759 -11.24972,8.55007 0.34997,3.61264 1.26725,4.69858 4.98343,5.89976 5.44295,1.75929 4.4378,3.38338 -2.08641,3.38338 -5.58401,0 -4.92517,2.1422 1.52252,4.94818 5.20449,2.26493 15.2868,2.56425 19.02443,0.5639 5.64217,-3.01962 1.07216,-8.90487 -5.76583,-7.42228 -3.2872,0.71273 -3.28311,0.67961 0.48636,-2.27673 5.29115,-4.14973 7.2048,-7.97495 5.19489,-10.39683 -1.18391,-1.42645 -1.18056,-2.6597 0.0141,-4.89179 1.30303,-2.43475 1.1299,-3.49481 -0.94452,-5.78698 -2.25005,-2.48628 -3.60169,-2.71025 -11.79247,-1.90315 -6.15966,0.60697 -9.57761,0.40435 -10.20652,-0.61324 -0.35396,-0.57272 -0.82973,-0.78918 -1.33925,-0.75421 z m 13.31499,14.64015 c 2.37601,0 2.51263,0.39283 1.0714,3.12962 -0.90542,1.71927 -2.33113,3.58322 -3.17191,4.14463 -2.96073,1.97687 -5.00458,0.67771 -5.00458,-3.18601 0,-2.55224 2.6635,-4.08824 7.10509,-4.08824 z"
       transform="matrix(0.46741798,0,0,0.46741798,330.9759,287.17852)" />
    <path
       id="path3852"
       style="fill:#afafaf;fill-opacity:1"
       d="m 666.37942,432.44358 -14.72473,3.97547 c -8.09946,2.18956 -14.86987,4.11836 -15.04192,4.28561 -0.17206,0.16725 -3.41526,21.16796 -7.21082,46.66237 -3.79556,25.49447 -7.13409,47.58873 -7.41523,49.10123 l -0.5075,2.74899 h 45.02003 45.02003 l -0.58505,-3.24945 c -0.32156,-1.7875 -3.65337,-23.84328 -7.40113,-49.01664 -3.74769,-25.17343 -7.00949,-45.9747 -7.25311,-46.21831 -0.24362,-0.24362 -7.06891,-2.20396 -15.16879,-4.36314 z m -0.45112,2.81948 14.0974,3.67942 14.10444,3.68647 4.75787,32.04338 c 2.61689,17.62454 5.76103,38.68387 6.98526,46.7963 l 2.22034,14.75292 H 666.45695 624.8203 l 6.7456,-44.75218 c 3.71029,-24.61229 6.88604,-45.64696 7.05575,-46.74696 0.25594,-1.6589 2.61087,-2.63759 13.8084,-5.73059 z m -6.85133,20.30025 c -2.4091,0.003 -2.52505,1.39601 -0.78241,4.65214 2.62631,4.90733 0.49836,8.4216 -14.5908,24.12064 -11.67056,12.14237 -12.14566,12.86581 -7.16853,10.79156 7.07302,-2.94774 14.44592,-8.92624 23.84575,-19.31343 11.04292,-12.20283 11.57126,-17.68027 1.88905,-19.80684 -1.32891,-0.29188 -2.39003,-0.44513 -3.19306,-0.44407 z m 9.62852,12.78634 c -0.44049,0.0111 -0.6836,0.18373 -0.68373,0.5357 -3.2e-4,0.58336 6.08986,6.80595 13.54055,13.83659 7.45064,7.03059 14.35176,12.81917 15.33092,12.85683 2.77828,0.10698 3.6406,-3.94317 1.6353,-7.69013 -2.73285,-5.10638 -25.56504,-19.65081 -29.82304,-19.53899 z m -2.26263,12.04622 c -2.81031,-0.0797 -5.36406,0.32577 -5.36406,1.28286 0,0.72618 1.02687,1.90067 2.29082,2.60802 2.0114,1.12566 1.83884,1.58588 -1.38859,3.70057 -2.0281,1.32887 -3.68647,3.02762 -3.68647,3.77105 0,1.52487 10.35885,0.15543 14.23837,-1.882 2.80498,-1.47312 3.19365,-5.42684 0.76831,-7.85225 -0.98505,-0.98504 -4.04808,-1.54851 -6.85838,-1.62825 z m -12.94141,14.65424 c -0.71792,-0.0275 -1.44545,0.43216 -2.26263,1.41679 -2.71275,3.26866 2.06545,6.61551 7.75356,5.4275 12.60087,-2.63181 13.50213,-2.61954 12.97665,0.14802 -0.33556,1.7674 -1.86558,2.76745 -4.65214,3.03799 -11.01767,1.06958 -16.4233,6.30292 -12.56782,12.1872 1.21814,1.85912 3.14291,3.38337 4.27151,3.38337 1.12854,0 2.05822,0.62445 2.05822,1.3886 0,0.76414 -1.88041,1.38859 -4.17283,1.38859 -5.42383,0 -5.29398,1.7186 0.34538,4.52526 5.33581,2.65556 19.22654,3.13898 21.61131,0.75421 4.3826,-4.38261 -0.24549,-9.24444 -7.0205,-7.37998 -2.80234,0.77121 -2.73246,0.54475 0.71192,-2.12871 5.35155,-4.15383 7.02604,-7.63848 5.24423,-10.96777 -0.95896,-1.79178 -0.97598,-2.97998 -0.0493,-3.55255 2.44979,-1.5141 1.48412,-6.10197 -1.62825,-7.76766 -1.91323,-1.02394 -6.03545,-1.29881 -11.31316,-0.74716 -4.91246,0.51345 -9.00702,0.296 -10.00915,-0.5357 -0.44473,-0.36909 -0.86621,-0.56151 -1.29696,-0.578 z m 11.12989,14.48508 c 3.14828,0 3.76699,2.8387 1.22647,5.646 -2.9286,3.2361 -4.59924,3.41177 -5.68125,0.59209 -0.93478,-2.43595 1.7792,-6.23809 4.45478,-6.23809 z"
       transform="matrix(0.46741798,0,0,0.46741798,330.9759,287.17852)" />
    <path
       id="path3850"
       style="fill:#8f8f8f;fill-opacity:1"
       d="m 666.42876,432.71848 -14.73178,3.8204 c -8.10414,2.09998 -14.84833,3.92989 -14.98553,4.06709 -0.1372,0.1372 -3.39509,21.37144 -7.23901,47.18398 -3.84399,25.81262 -7.16666,47.94127 -7.37999,49.17877 l -0.38768,2.24853 h 44.83677 44.83676 l -0.5075,-2.74899 c -0.28114,-1.5125 -3.61974,-23.60676 -7.41523,-49.10123 -3.79556,-25.49441 -7.05163,-46.50318 -7.23197,-46.68352 -0.18034,-0.18034 -6.95892,-2.04465 -15.06306,-4.14463 z m 0.0352,2.4459 13.73086,3.63008 c 7.55254,1.99758 13.80994,3.6983 13.90004,3.7781 0.0901,0.0798 3.13209,20.17159 6.7597,44.64645 3.62754,24.47486 6.84797,45.73492 7.16147,47.24742 l 0.57095,2.75604 H 666.42876 624.2705 l 0.5639,-2.75604 c 0.79501,-3.85944 13.59693,-89.28965 13.59693,-90.73788 0,-0.6834 5.93858,-2.7454 14.01281,-4.87065 z m -6.14646,21.57606 c -3.60587,0 -3.66051,0.11067 -1.55776,3.31994 2.04673,3.12371 1.92526,3.69705 -2.10052,10.06554 -2.34959,3.71692 -8.66799,10.98354 -14.03395,16.14152 -5.36604,5.15791 -9.316,9.38181 -8.78973,9.38181 7.84041,0 35.57478,-26.38614 35.57478,-33.84079 0,-2.73628 -4.1847,-5.06802 -9.09282,-5.06802 z m 9.59328,12.52554 c -0.65718,0.008 4.74464,5.90411 12.00393,13.10353 7.25934,7.19936 14.13003,12.96295 15.26748,12.81453 4.32723,-0.56464 3.033,-5.34781 -3.0098,-11.12285 -5.44598,-5.20467 -21.2412,-14.83453 -24.26161,-14.79521 z m -2.39656,11.09465 c -5.84287,0 -7.35887,1.49486 -3.56664,3.52435 2.88844,1.54585 2.84835,1.65393 -1.69169,4.5605 l -4.65214,2.9816 5.74469,0.0282 c 3.51712,0.0143 6.96764,-0.96542 8.87431,-2.50934 2.6543,-2.14934 2.86926,-2.96506 1.48727,-5.54732 -1.16484,-2.17655 -2.90747,-3.03799 -6.1958,-3.03799 z M 653.008,494.71882 c -0.42811,0.077 -0.73345,0.53332 -1.06435,1.39565 -1.68699,4.39623 0.73082,5.38126 10.7986,4.37019 9.6137,-0.96548 9.67788,-0.95751 9.18445,2.29787 -0.3008,1.98464 -1.28432,3.10371 -2.49524,2.83358 -3.44519,-0.76856 -10.95161,1.15397 -13.17401,3.37633 -4.362,4.36205 -1.13981,11.50399 5.24423,11.61625 4.7988,0.0843 0.7713,2.81948 -4.15168,2.81948 -4.24907,0 -4.70259,0.30712 -3.21421,2.10051 0.9538,1.14926 3.68157,2.64186 6.06893,3.33403 10.10153,2.92879 20.32139,0.87821 20.32139,-4.08824 0,-2.20329 -4.78351,-3.88648 -9.05052,-3.17896 l -4.15169,0.69077 4.07415,-2.81243 c 5.3988,-3.73411 8.0182,-8.61145 5.9632,-11.0876 -1.133,-1.36519 -1.0689,-2.59068 0.21851,-4.65214 1.46682,-2.3487 1.34395,-3.24228 -0.76126,-5.56847 -2.20223,-2.43344 -3.58437,-2.65659 -11.27792,-1.83266 -6.01698,0.64436 -9.39458,0.41575 -10.77041,-0.72602 -0.79491,-0.65973 -1.33407,-0.96518 -1.76217,-0.88814 z m 13.02599,14.81637 c 3.98609,0 4.08483,0.41068 1.13484,4.91294 -2.79077,4.25927 -8.87431,4.60524 -8.87431,0.5075 0,-2.25348 4.52419,-5.42044 7.73947,-5.42044 z"
       transform="matrix(0.46741798,0,0,0.46741798,330.9759,287.17852)" />
    <path
       id="path3848"
       style="fill:#6f6f6f;fill-opacity:1"
       d="m 666.42876,433.21894 c -1.60413,0 -28.6117,6.73244 -29.66092,7.39408 -0.3118,0.19662 -14.33705,94.78791 -14.33705,96.69403 0,1.85877 1.31411,1.9102 44.35745,1.9102 h 44.3645 l -0.38767,-2.24853 c -0.21333,-1.2375 -3.536,-23.36615 -7.37999,-49.17877 -3.84399,-25.81254 -7.09601,-47.01244 -7.22492,-47.10644 -0.90651,-0.66075 -28.00595,-7.46457 -29.7314,-7.46457 z m 0.0282,1.78332 13.73791,3.69352 c 7.55393,2.03344 13.83349,3.79863 13.95643,3.91907 0.12293,0.12044 3.1515,19.99157 6.7315,44.16009 3.58007,24.16859 6.76747,45.40353 7.07689,47.19103 l 0.55685,3.2565 H 666.42877 624.341 l 0.56389,-3.2565 c 0.89771,-5.16364 13.52645,-89.83967 13.52645,-90.69559 0,-0.42459 6.30431,-2.45583 14.01281,-4.51821 z m -6.13941,21.73818 c -3.66247,0 -3.68942,0.0562 -1.43089,3.5032 2.2241,3.39442 2.13894,3.74812 -2.77014,11.144 -2.78829,4.20069 -9.21794,11.37486 -14.28066,15.94415 -9.50145,8.57545 -10.06461,10.46643 -1.60005,5.36406 12.01787,-7.24419 29.17456,-25.43538 29.17456,-30.93674 0,-2.68641 -4.22069,-5.01867 -9.09282,-5.01867 z m 9.59328,12.55373 c -0.65718,0.0254 5.03394,5.96831 12.65241,13.20221 7.61852,7.23385 14.27393,13.15287 14.78816,13.15287 1.66479,0 2.29391,-3.40393 1.17714,-6.40726 -0.5987,-1.6101 -3.44188,-4.85487 -6.30859,-7.21787 -5.27424,-4.34744 -20.11122,-12.81511 -22.30912,-12.72995 z m -2.55868,11.06646 c -5.58568,0 -7.59041,2.10357 -3.14372,3.29879 3.06855,0.82484 3.05468,0.88675 -1.05731,4.41953 l -4.15873,3.58074 6.09008,-0.68372 c 7.73822,-0.86203 10.77215,-3.56966 8.57826,-7.66899 -1.12983,-2.11111 -2.91179,-2.94635 -6.30858,-2.94635 z m -14.3441,14.35819 c -0.42995,0.0731 -0.73068,0.52608 -1.06435,1.39565 -1.68699,4.39623 0.73082,5.38126 10.7986,4.37019 9.60763,-0.96487 9.67297,-0.95545 9.21265,2.29787 -0.39755,2.80922 -1.36289,3.34124 -6.71741,3.72172 -6.50994,0.46258 -11.1158,3.34644 -11.1158,6.95706 0,3.39936 4.31723,7.19494 8.21174,7.21787 2.83795,0.0168 3.15592,0.30025 1.51547,1.3604 -1.14622,0.74074 -4.2362,1.35633 -6.87248,1.36744 -3.83018,0.017 -4.44737,0.38147 -3.06619,1.76923 0.95059,0.95518 3.73198,2.49458 6.18171,3.43271 5.58209,2.13758 17.54197,1.41434 19.17246,-1.16303 2.07196,-3.27522 0.58077,-4.68915 -5.40635,-5.13146 l -5.75879,-0.42997 4.82836,-4.22921 c 4.78481,-4.20114 6.18384,-8.49892 3.34108,-10.25586 -0.9744,-0.60221 -0.7027,-1.78248 0.80355,-3.44681 2.13493,-2.35914 2.08693,-2.72028 -0.72601,-5.53323 -2.67861,-2.67862 -3.93229,-2.90909 -11.26382,-2.05822 -5.69387,0.66085 -8.88158,0.43089 -10.28405,-0.73306 -0.81277,-0.67453 -1.36044,-0.98242 -1.79037,-0.90929 z m 12.27883,14.81637 c 4.68445,0 5.01688,0.8793 1.95954,5.24423 -2.22843,3.18155 -6.7477,4.13706 -8.23288,1.73398 -1.71154,-2.7693 2.06735,-6.97821 6.27334,-6.97821 z"
       transform="matrix(0.46741798,0,0,0.46741798,330.9759,287.17852)" />
    <path
       id="path3846"
       style="fill:#4e4e4e;fill-opacity:1"
       d="m 666.42876,432.9088 -14.53442,3.79924 c -7.99202,2.09026 -14.70925,4.09195 -14.92914,4.44773 -0.4527,0.73249 -14.53441,94.31318 -14.53441,96.5883 0,1.27453 5.91725,1.47318 43.99797,1.47318 42.68738,0 43.99797,-0.0517 43.99797,-1.9102 0,-1.91543 -14.02815,-96.50542 -14.33705,-96.67288 -0.0899,-0.0488 -6.79557,-1.80615 -14.908,-3.90498 z m -0.50046,2.04412 13.34319,3.38337 c 7.33833,1.86098 13.7775,3.64808 14.30885,3.97547 0.53136,0.3274 3.86035,20.13256 7.39408,44.00502 3.5338,23.8724 6.69527,45.09328 7.02756,47.15578 l 0.59914,3.74991 h -42.08778 c -23.14814,0 -42.08777,-0.25065 -42.08777,-0.55685 0,-1.635 14.11232,-93.88947 14.40754,-94.18469 0.19274,-0.19274 6.36902,-1.96611 13.72381,-3.94022 z m -4.26446,21.78752 c -3.78872,0 -3.97626,0.43837 -1.91725,4.28561 2.00803,3.75205 -5.83,15.35038 -17.76271,26.28459 -5.00242,4.58388 -8.64651,8.33861 -8.09896,8.33861 2.67815,0 14.37884,-8.1619 20.54696,-14.33 7.06164,-7.06173 14.97848,-17.16934 14.97848,-19.12312 0,-2.27359 -4.51626,-5.45569 -7.74652,-5.45569 z m 8.50073,12.55373 c -0.79928,0.024 4.80659,5.89463 12.448,13.05419 9.51169,8.91191 14.39522,12.6138 15.48599,11.72198 2.1356,-1.74607 0.90592,-5.89893 -2.76309,-9.31133 -3.87491,-3.60385 -23.27728,-15.5218 -25.1709,-15.46484 z m -3.08028,11.22858 c -1.01574,-0.0111 -2.01094,0.13626 -2.88292,0.47226 -2.26429,0.87239 -2.24741,1.0461 0.2467,2.4459 2.54993,1.4311 2.48943,1.68107 -1.38154,4.91294 l -4.07415,3.39747 6.09008,-0.72601 c 6.90425,-0.81839 10.41043,-3.50504 9.08577,-6.95707 -0.78919,-2.05662 -4.03671,-3.51379 -7.08394,-3.54549 z m -4.29971,15.83842 c -9.48695,-0.0146 -11.43075,0.34543 -11.08055,2.06527 0.34071,1.67328 2.40042,1.99519 10.45322,1.62825 9.97197,-0.4544 10.03734,-0.43993 10.03734,3.12257 0,3.29274 -0.4877,3.58779 -5.9491,3.58779 -6.75245,0 -12.12376,3.07221 -12.12376,6.94296 0,3.0028 4.95389,6.94297 8.72629,6.94297 1.40335,0 2.171,0.62445 1.69874,1.3886 -0.47227,0.76414 -3.44739,1.38859 -6.61168,1.38859 -6.76773,0 -5.74196,1.92701 2.61507,4.90589 7.49198,2.67052 13.55355,2.49565 17.26226,-0.5075 4.68997,-3.79776 2.34229,-6.25978 -5.1667,-5.4134 l -6.13237,0.69077 5.61781,-4.80721 c 5.55862,-4.758 7.24097,-9.32797 3.88384,-10.55895 -1.38935,-0.50942 -1.38935,-1.00138 0,-2.47409 0.95517,-1.0125 1.73398,-2.92706 1.73398,-4.25742 0,-3.80637 -2.64831,-4.62619 -14.96439,-4.64509 z m 2.62917,13.17402 c 4.5627,0 4.87608,0.89916 1.83266,5.24423 -2.47689,3.53625 -7.26567,4.10218 -8.45844,0.99386 -1.20259,-3.13385 2.09485,-6.23809 6.62578,-6.23809 z"
       transform="matrix(0.46741798,0,0,0.46741798,330.9759,287.17852)" />
    <path
       id="path3844"
       style="fill:#2f2f2f;fill-opacity:1"
       d="m 666.4781,432.95109 -14.65424,3.88383 c -8.0572,2.13457 -14.8017,4.33301 -14.99258,4.88475 -0.40074,1.15831 -14.40049,94.95581 -14.40049,96.48257 0,0.67031 14.91911,1.01501 43.99797,1.01501 38.08072,0 43.99797,-0.19865 43.99797,-1.47318 0,-3.47469 -14.19747,-96.08257 -14.81636,-96.64469 -0.37572,-0.34126 -7.08348,-2.31424 -14.908,-4.38429 z m -0.0423,2.26968 c 2.21884,0 26.88973,6.56128 27.69433,7.36589 0.47619,0.47619 14.23126,90.41913 14.28066,93.38114 0.0163,0.98049 -9.03779,1.25467 -41.98204,1.25467 -23.6479,0 -42.00319,-0.39058 -42.00319,-0.88814 0,-2.08782 13.93288,-93.37875 14.30886,-93.75472 0.73227,-0.73227 25.67756,-7.35884 27.70138,-7.35884 z m -7.00641,21.44214 c -0.69578,0.0558 -1.13484,0.3045 -1.13484,0.78945 0,0.39244 0.73431,1.87864 1.6212,3.29879 2.20059,3.52372 -2.06532,10.35135 -14.73882,23.60609 -8.5457,8.93764 -9.18271,9.93856 -4.94819,7.78176 5.94857,-3.02991 20.631,-16.94874 25.90396,-24.55766 l 3.87679,-5.60372 -3.22831,-2.61506 c -1.84152,-1.49124 -4.69559,-2.53978 -6.57643,-2.6926 -0.28214,-0.0229 -0.54343,-0.0258 -0.77536,-0.007 z m 11.85591,13.4912 c -0.71747,0.14966 3.82386,5.09233 10.62944,11.51758 7.25934,6.85352 13.98101,12.49232 14.93619,12.52553 3.09246,0.1074 1.83822,-5.6093 -2.08642,-9.51574 -3.81645,-3.79874 -18.01518,-12.63671 -23.26775,-14.48507 -0.0956,-0.0336 -0.16362,-0.0523 -0.21146,-0.0423 z m -3.96137,10.64354 c -0.55821,0.001 -1.11977,0.061 -1.66349,0.19736 -3.57473,0.89722 -3.65842,1.07928 -1.19123,2.46 2.51928,1.40986 2.44996,1.66808 -1.40269,4.75082 -3.68151,2.94575 -3.79547,3.24955 -1.15599,3.2565 4.43484,0.0111 11.35115,-2.72725 12.15196,-4.81426 1.0717,-2.79283 -2.8311,-5.85927 -6.73856,-5.85042 z m -14.42868,15.20404 c -0.1892,-0.0203 -0.36115,-0.0163 -0.51456,0.007 -1.02272,0.15539 -1.23237,1.27289 -0.47931,3.23535 0.74436,1.93977 1.991,2.15305 7.46457,1.29696 11.72286,-1.83355 12.09646,-1.75431 12.57488,2.4036 0.41989,3.64917 0.16049,3.8204 -5.60371,3.8204 -6.83486,0 -12.2154,3.0546 -12.2154,6.94296 0,3.0028 4.95389,6.94297 8.72629,6.94297 4.20665,0 1.40971,2.39292 -3.98251,3.40452 -5.78532,1.08534 -5.54791,1.67291 1.76217,4.37724 6.51155,2.40891 15.71644,1.57062 18.06581,-1.64234 2.74613,-3.75556 0.64995,-5.14922 -6.34383,-4.22922 l -6.41431,0.83879 5.90681,-4.96228 c 5.80683,-4.88128 7.58925,-9.44721 4.17283,-10.69992 -1.38935,-0.50942 -1.38935,-1.00138 0,-2.47409 2.59059,-2.7461 2.09092,-6.54046 -1.0714,-8.23288 -1.90948,-1.02193 -5.10463,-1.09073 -10.0585,-0.19032 -4.70444,0.85505 -8.15671,0.83999 -9.81883,-0.0493 -0.8748,-0.4682 -1.6034,-0.72853 -2.171,-0.78945 z m 12.51849,13.5335 c 4.5627,0 4.87608,0.89916 1.83266,5.24423 -2.47689,3.53625 -7.26567,4.10218 -8.45844,0.99386 -1.20259,-3.13385 2.09485,-6.23809 6.62578,-6.23809 z"
       transform="matrix(0.46741798,0,0,0.46741798,330.9759,287.17852)" />
    <path
       id="path3842"
       style="fill:#040404;fill-opacity:1"
       d="m 665.9283,433.16255 -14.47802,3.86269 -14.47803,3.86268 -6.71036,44.9143 c -3.68919,24.70286 -6.96491,46.60171 -7.2813,48.66421 l -0.578,3.74991 h 44.01207 c 24.20636,0 44.01207,-0.20601 44.01207,-0.46522 0,-1.17926 -14.09767,-95.14537 -14.40754,-96.03145 -0.19235,-0.55 -7.039,-2.70167 -15.21814,-4.77902 z m 0.50046,1.60005 13.63218,3.47501 c 10.73756,2.74097 13.80848,3.90847 14.46393,5.48389 0.76778,1.84541 13.90708,88.82507 13.90708,92.06304 0,1.22638 -6.15597,1.43793 -42.00319,1.43793 -32.92827,0 -42.00324,-0.27466 -42.01024,-1.25467 -0.0209,-2.87427 13.21719,-90.41577 13.94937,-92.2463 0.63283,-1.58215 3.64523,-2.73121 14.42869,-5.48389 z m -7.00641,21.90031 c -0.69257,0.0572 -1.12779,0.30736 -1.12779,0.78945 0,0.39244 0.69962,1.84011 1.55776,3.21421 2.31345,3.70453 -1.28122,9.64365 -13.80839,22.78844 -8.93929,9.38002 -9.89825,10.80467 -5.89272,8.74743 6.15812,-3.16284 18.33288,-14.68816 24.75503,-23.43692 l 5.02572,-6.85838 -3.19306,-2.57983 c -1.82186,-1.47525 -4.66564,-2.50932 -6.54119,-2.65735 -0.28133,-0.0222 -0.54449,-0.0262 -0.77536,-0.007 z m 9.29724,12.1731 13.19516,12.63831 c 13.42326,12.8609 16.67017,14.83779 16.67017,10.15717 0,-3.93325 -8.51922,-11.42385 -19.81389,-17.43847 z m 0.0352,12.10966 c -0.95354,-0.022 -2.00807,0.15022 -3.12257,0.55685 -2.40901,0.87892 -2.94538,1.46121 -1.43089,1.52956 3.46657,0.1564 3.00381,2.22833 -1.23352,5.56143 -4.06031,3.19386 -2.48541,3.61355 5.3993,1.42383 3.59612,-0.99869 5.20899,-2.24117 5.20899,-3.99661 0,-3.12018 -1.9607,-5.00932 -4.82131,-5.07506 z m 1.02911,15.52123 c -1.62383,-0.0235 -3.42362,0.15881 -5.35701,0.59209 -4.21021,0.94383 -7.10222,0.93779 -8.88136,-0.0141 -3.08638,-1.65178 -5.41343,0.71894 -3.03799,3.09438 1.0385,1.0385 3.99089,0.93884 10.00915,-0.33834 9.24948,-1.9629 11.43761,-1.01995 10.03735,4.33495 -0.54132,2.07003 -1.97123,2.62917 -6.7738,2.62917 -4.23757,0 -6.94084,0.83666 -8.87431,2.77014 -4.8093,4.80931 -3.13271,8.5416 4.73672,10.51665 3.77794,0.94822 3.88006,1.13001 1.47318,2.88997 -1.41285,1.03311 -3.82905,1.882 -5.36406,1.882 -4.81585,0 -0.46703,2.73979 6.20286,3.91203 8.55036,1.50275 14.48507,0.16229 14.48507,-3.27765 0,-2.34236 -0.86465,-2.68032 -6.24515,-2.4318 l -6.25924,0.289 5.90681,-4.91999 c 5.80394,-4.83541 7.59373,-9.40328 4.17283,-10.65763 -1.38935,-0.50944 -1.38935,-1.00138 0,-2.47409 4.41727,-4.68239 0.80576,-8.6952 -6.23105,-8.79678 z m -4.82131,13.08943 c 2.42513,-0.0407 4.4273,0.58312 4.39839,1.71988 -0.0243,0.95518 -0.87393,2.82853 -1.88905,4.16578 -1.83751,2.42065 -6.49009,3.26533 -8.25403,1.50138 -1.71741,-1.71742 -0.93867,-5.70552 1.27582,-6.55529 1.4116,-0.54168 3.01375,-0.8073 4.46887,-0.83175 z"
       transform="matrix(0.46741798,0,0,0.46741798,330.9759,287.17852)" />
  </g>
</svg>
