<?xml version="1.0" encoding="UTF-8" standalone="no"?>
<!-- Created with Inkscape (http://www.inkscape.org/) -->

<svg
   viewBox="0 0 35.349998 38.720001"
   id="svg6168"
   version="1.1"
   inkscape:version="1.3.2 (091e20e, 2023-11-25, custom)"
   sodipodi:docname="Tokin.svg"
   xmlns:inkscape="http://www.inkscape.org/namespaces/inkscape"
   xmlns:sodipodi="http://sodipodi.sourceforge.net/DTD/sodipodi-0.dtd"
   xmlns="http://www.w3.org/2000/svg"
   xmlns:svg="http://www.w3.org/2000/svg"
   xmlns:rdf="http://www.w3.org/1999/02/22-rdf-syntax-ns#"
   xmlns:cc="http://creativecommons.org/ns#"
   xmlns:dc="http://purl.org/dc/elements/1.1/">
  <defs
     id="defs6170" />
  <sodipodi:namedview
     id="base"
     pagecolor="#ffffff"
     bordercolor="#666666"
     borderopacity="1.0"
     inkscape:pageopacity="0.0"
     inkscape:pageshadow="2"
     inkscape:zoom="14.178719"
     inkscape:cx="17.702587"
     inkscape:cy="19.360001"
     inkscape:document-units="px"
     inkscape:current-layer="layer1"
     showgrid="false"
     fit-margin-top="0"
     fit-margin-left="0"
     fit-margin-right="0"
     fit-margin-bottom="0"
     inkscape:window-width="1292"
     inkscape:window-height="745"
     inkscape:window-x="-8"
     inkscape:window-y="-8"
     inkscape:window-maximized="1"
     inkscape:showpageshadow="0"
     inkscape:pagecheckerboard="1"
     inkscape:deskcolor="#d1d1d1" />
  <metadata
     id="metadata6173">
    <rdf:RDF>
      <cc:Work
         rdf:about="">
        <dc:format>image/svg+xml</dc:format>
        <dc:type
           rdf:resource="http://purl.org/dc/dcmitype/StillImage" />
      </cc:Work>
    </rdf:RDF>
  </metadata>
  <g
     inkscape:label="Layer 1"
     inkscape:groupmode="layer"
     id="layer1"
     transform="matrix(-0.5361147,0,0,-0.5361147,425.97339,410.72189)"
     style="display:inline">
    <path
       inkscape:connector-curvature="0"
       id="path6213"
       d="m 756.09918,663.70599 -14.14213,90.15612 81.31728,-0.50508 -13.38453,-89.90358 -27.02158,-8.33376 z"
       style="display:inline;fill:#ffffff;fill-opacity:1;stroke:none"
       transform="matrix(0.49653286,0,0,0.49653286,372.86803,380.1153)" />
    <path
       id="path6201"
       style="fill:#cfcfcf;fill-opacity:1"
       d="m 782.86515,654.29662 -14.11658,3.80062 c -7.76348,2.08883 -14.22351,3.92845 -14.35136,4.0941 -0.31115,0.40318 -13.55959,89.95641 -13.54429,91.55231 0.009,0.97997 9.08538,1.25464 42.01223,1.25464 32.92685,0 42.00322,-0.27467 42.01222,-1.25464 0.0153,-1.5959 -13.24047,-91.14913 -13.55162,-91.55231 -0.12785,-0.16565 -6.58788,-2.00527 -14.35136,-4.0941 z m 0.0367,3.6979 c 1.63019,0 25.00299,5.80489 25.61381,6.36126 0.0853,0.0777 2.90055,18.81312 6.25855,41.63803 3.35797,22.82494 6.33837,42.51362 6.61806,43.75112 l 0.50626,2.25249 h -39.08472 c -36.74532,0 -39.05445,-0.10838 -38.59314,-1.75357 0.26988,-0.9625 3.30358,-20.71098 6.7428,-43.88318 l 6.2512,-42.12962 11.81273,-3.11827 c 6.49868,-1.71521 12.74258,-3.11826 13.87445,-3.11826 z m -12.50241,10.12519 c -1.22612,-0.0449 -0.79963,1.88302 1.21796,5.84033 2.23526,4.38435 2.40027,6.38542 1.15926,13.88913 -1.089,6.58476 -0.98574,10.17095 0.41088,14.40272 1.59568,4.83491 1.52224,6.28079 -0.46958,10.13253 -1.35284,2.61609 -2.31407,7.98171 -2.31118,12.86194 0.007,10.22655 3.37322,16.43532 11.13037,20.5292 6.02084,3.17751 12.71766,3.87619 14.19729,1.48209 1.49839,-2.42453 -3.38533,-6.76296 -8.75316,-7.76998 -6.86817,-1.28848 -10.80755,-6.79015 -10.80755,-15.12176 0,-8.36624 2.44494,-11.91258 11.64398,-16.91935 4.65024,-2.53092 7.09316,-4.75214 6.81616,-6.20719 -0.6103,-3.20583 -6.40881,-3.65836 -10.72683,-0.82909 -2.00879,1.31625 -3.89717,2.13394 -4.2115,1.8196 -0.31433,-0.31433 0.10402,-4.4283 0.93181,-9.14202 1.83776,-10.46562 -0.34295,-18.40091 -6.23653,-22.77436 -1.93035,-1.43245 -3.25571,-2.16687 -3.99138,-2.19379 z"
       transform="matrix(0.49653286,0,0,0.49653286,372.86803,380.1153)" />
    <path
       id="path6199"
       style="fill:#b0b0b0;fill-opacity:1"
       d="m 782.86515,654.54608 -11.25511,2.86881 c -6.18747,1.58037 -12.60986,3.41696 -14.27066,4.07942 l -3.01554,1.20329 -6.34659,42.90001 c -3.49049,23.59344 -6.577,44.36285 -6.86019,46.15035 l -0.5136,3.25033 h 42.26169 42.26168 l -0.52093,-3.25033 c -0.28319,-1.7875 -3.3697,-22.55691 -6.86019,-46.15035 l -6.34659,-42.90001 -3.01554,-1.20329 c -1.6608,-0.66246 -8.08319,-2.49905 -14.27066,-4.07942 z m -0.044,2.75141 12.72252,3.3824 c 6.99564,1.86052 12.83933,3.50655 12.994,3.66122 0.15468,0.15467 3.00198,18.70481 6.32458,41.21981 3.32262,22.51503 6.29639,42.17259 6.60339,43.68509 l 0.55762,2.75141 h -39.15809 -39.16543 l 0.55762,-2.75141 c 0.30498,-1.5125 3.30466,-21.20118 6.66942,-43.75112 3.36477,-22.54994 6.19416,-41.06698 6.28056,-41.15378 0.0865,-0.0868 5.88271,-1.709 12.88394,-3.60252 z m -11.13772,12.341 c -1.12968,0.10832 -0.77719,2.00955 0.88779,5.99441 1.81989,4.35556 1.91235,6.44833 0.52093,11.97414 -1.29278,5.13435 -1.28986,8.27211 0.0294,13.41956 1.43148,5.58536 1.34879,7.60332 -0.49892,12.0255 -3.19323,7.64255 -2.86667,19.19006 0.70436,24.96815 1.60811,2.60195 5.6681,6.07918 9.02463,7.74063 7.15787,3.54308 10.17582,3.79237 12.49508,0.99785 1.3406,-1.61534 1.0088,-2.51451 -1.59215,-4.33623 -1.80324,-1.26308 -4.4774,-2.29651 -5.95039,-2.29651 -1.47304,0 -4.58229,-1.8969 -6.90421,-4.21883 -3.45358,-3.45362 -4.22617,-5.44694 -4.22617,-10.93227 0,-8.92655 1.51406,-11.32867 10.9763,-17.38159 4.40347,-2.81684 7.75055,-5.90871 7.43248,-6.87486 -0.91085,-2.76669 -6.66982,-2.93275 -10.67547,-0.30816 -2.00879,1.31625 -3.96069,2.07776 -4.34357,1.69487 -0.38288,-0.38289 -0.009,-4.43651 0.83643,-9.00996 1.91487,-10.35841 0.0509,-18.44043 -5.04058,-21.7765 -1.787,-1.17089 -2.99807,-1.74523 -3.67589,-1.6802 z"
       transform="matrix(0.49653286,0,0,0.49653286,372.86803,380.1153)" />
    <path
       id="path6197"
       style="fill:#8e8e8e;fill-opacity:1"
       d="m 782.35889,654.70016 -13.33885,3.57317 c -7.33967,1.96656 -13.61924,3.85356 -13.95516,4.18948 -0.49416,0.49415 -4.61056,26.99099 -13.69836,88.27996 l -0.62365,4.25552 h 42.12228 42.12228 l -0.63099,-4.25552 c -10.09442,-68.07771 -13.30577,-88.01379 -14.27066,-88.61013 -0.63545,-0.39273 -7.13355,-2.22464 -14.43941,-4.07209 z m 0.50626,2.47994 12.61981,3.36773 c 6.94395,1.85066 12.82342,3.55668 13.06003,3.79328 0.3648,0.36481 13.2924,85.74879 13.3095,87.90577 0.003,0.4125 -17.5394,0.74838 -38.98934,0.74838 -21.44994,0 -39.00502,-0.33588 -39.00402,-0.74838 0.005,-1.75033 13.10314,-87.68475 13.41222,-87.99382 0.18698,-0.18698 6.0207,-1.85457 12.96465,-3.70523 z m -11.26245,12.55377 c -0.0862,3e-5 -0.17133,0.0116 -0.24212,0.0294 -0.94384,0.23648 -0.50573,2.0414 1.27665,5.48815 2.15878,4.17461 2.22259,5.64148 0.55029,12.61247 -1.61759,6.74276 -1.57727,8.7659 0.28614,13.94783 1.90925,5.30923 1.91682,6.4501 0.0807,9.21539 -1.15278,1.73616 -2.41591,7.58707 -2.80277,12.994 -0.68156,9.52557 -0.55457,9.9972 4.13812,15.34187 2.6637,3.0338 6.81026,6.37965 9.20806,7.43982 5.95316,2.63218 10.13253,1.96922 10.13253,-1.61416 0,-2.08717 -1.59083,-3.39632 -5.77429,-4.75444 -9.28452,-3.01415 -12.83259,-7.5327 -12.83259,-16.33238 0,-6.71455 0.50464,-7.90277 5.07727,-11.95947 2.79383,-2.47858 7.1423,-5.61488 9.65563,-6.96291 3.10124,-1.66343 4.2893,-3.17369 3.70523,-4.69574 -1.08672,-2.832 -6.35499,-2.89142 -10.02248,-0.11739 -1.54193,1.16624 -3.28103,2.13917 -3.86665,2.16444 -0.58563,0.0253 -0.66159,-4.79508 -0.16141,-10.71216 1.0012,-11.84418 -0.53971,-17.72127 -5.4588,-20.79334 -1.3689,-0.85488 -2.34608,-1.2915 -2.94952,-1.29133 z"
       transform="matrix(0.49653286,0,0,0.49653286,372.86803,380.1153)" />
    <path
       id="path6195"
       style="fill:#707070;fill-opacity:1"
       d="m 782.86515,654.75886 -13.61766,3.56583 c -7.48991,1.96358 -13.85362,3.80914 -14.13858,4.0941 -0.28496,0.28495 -3.35251,19.54308 -6.81617,42.79729 -3.46364,23.25421 -6.55693,43.96312 -6.87486,46.02562 l -0.57963,3.75659 h 42.0269 42.01956 l -0.57963,-3.75659 c -0.31793,-2.0625 -3.41122,-22.77141 -6.87486,-46.02562 -3.46366,-23.25421 -6.53121,-42.51234 -6.81617,-42.79729 -0.28496,-0.28496 -6.64134,-2.13052 -14.13125,-4.0941 z m 0,2.24515 12.58312,3.41909 c 6.92373,1.87889 12.82642,3.6477 13.1114,3.93268 0.48473,0.48473 13.29915,84.6718 13.30215,87.39218 0.001,0.97866 -8.46265,1.2473 -38.99667,1.2473 -30.5343,0 -39.00602,-0.26863 -39.00402,-1.2473 0.004,-2.52201 12.91091,-86.99358 13.36086,-87.44354 0.25574,-0.25574 6.12894,-2.00243 13.0527,-3.88132 z m -11.32114,12.5978 c -0.85993,0.10597 -0.54544,1.9535 1.18861,5.42945 2.00935,4.02797 2.09575,5.84924 0.60897,12.86193 -1.40429,6.62362 -1.36054,9.27482 0.23479,13.95516 1.69025,4.95879 1.67054,6.39139 -0.15408,10.11052 -1.16912,2.38303 -2.3915,7.91343 -2.70739,12.28231 -0.71986,9.9561 3.19909,16.52261 12.70052,21.32894 7.41886,3.75287 10.81488,3.66004 10.81488,-0.29348 0,-1.93489 -1.75647,-3.33201 -5.93571,-4.7251 -8.98987,-2.99663 -12.83992,-7.88324 -12.83992,-16.31036 0,-7.99515 3.47381,-12.80496 12.64182,-17.50632 3.49932,-1.79446 5.41478,-3.78756 5.41478,-5.63489 0,-3.6895 -3.67467,-3.69142 -9.72899,0 l -4.68107,2.86147 0.9098,-12.72987 c 0.90017,-12.68163 0.87684,-12.73005 -3.52181,-17.65306 -2.2848,-2.55713 -3.91261,-3.87176 -4.75444,-3.9767 -0.0677,-0.008 -0.13344,-0.007 -0.19076,0 z"
       transform="matrix(0.49653286,0,0,0.49653286,372.86803,380.1153)" />
    <path
       id="path6193"
       style="fill:#4e4e4e;fill-opacity:1"
       d="m 782.86515,654.91294 -13.98451,3.68322 c -13.85111,3.64879 -13.9849,3.71481 -14.52012,6.79415 -0.29715,1.70955 -3.23195,21.32944 -6.52268,43.60438 -3.29072,22.27491 -6.24323,41.73969 -6.55936,43.25219 l -0.5723,2.75141 h 42.15897 42.15896 l -0.57963,-2.75141 c -0.31613,-1.5125 -3.26867,-20.97728 -6.55936,-43.25219 -3.29073,-22.27494 -6.22553,-41.89483 -6.52268,-43.60438 -0.53522,-3.07934 -0.66901,-3.14536 -14.52012,-6.79415 z m -0.50626,2.04705 12.88394,3.265 c 10.09081,2.55985 13.05699,3.7008 13.71304,5.26804 0.77334,1.84741 12.90595,82.72828 12.90595,86.03481 0,1.2693 -5.34058,1.46742 -38.99667,1.46742 -34.0207,0 -39.00402,-0.19404 -39.00402,-1.5041 0,-2.46003 11.90192,-81.7439 12.74454,-84.89756 0.73413,-2.74764 1.44472,-3.08274 13.26548,-6.26589 z m -10.72684,12.56844 c -0.65221,0.16644 -0.34947,1.6716 1.10057,4.47563 2.09482,4.05106 2.17722,5.79497 0.64566,13.50027 -1.49679,7.53021 -1.42026,9.64803 0.49892,14.2413 2.06607,4.94473 2.05827,5.77851 -0.16875,9.97112 -1.48613,2.79774 -2.472,8.03365 -2.51663,13.48559 -0.0879,10.75077 2.78482,15.50134 12.29698,20.36778 7.07286,3.6185 10.47615,3.67287 11.15239,0.16142 0.28696,-1.49007 -1.23337,-2.94391 -4.30688,-4.10144 -9.08334,-3.42083 -11.52629,-5.0352 -13.55895,-8.96594 -4.90628,-9.48765 -1.1566,-19.09291 9.77301,-25.04151 6.95971,-3.78796 8.87182,-7.29842 4.81314,-8.85588 -1.18481,-0.45465 -4.38249,0.48633 -7.10231,2.09107 l -4.94521,2.92017 0.24213,-13.46358 c 0.22074,-12.43057 -0.033,-13.75707 -3.26501,-17.21283 -2.39656,-2.5625 -4.00686,-3.7396 -4.65906,-3.57317 z"
       transform="matrix(0.49653286,0,0,0.49653286,372.86803,380.1153)" />
    <path
       id="path6191"
       style="fill:#2f2f2f;fill-opacity:1"
       d="m 782.86515,655.00098 -13.74972,3.60252 c -7.5625,1.98271 -13.85923,3.69531 -13.98451,3.80795 -0.12527,0.11264 -3.16166,19.98098 -6.75013,44.14732 -3.5885,24.1663 -6.75207,44.94953 -7.03628,46.18703 l -0.52093,2.25249 h 42.04157 42.03423 l -0.51359,-2.25249 c -0.28421,-1.2375 -3.45512,-22.02073 -7.04362,-46.18703 -3.58847,-24.16634 -6.62486,-44.03468 -6.75013,-44.14732 -0.12528,-0.11264 -6.4147,-1.82524 -13.97717,-3.80795 z m 0.0514,1.79759 12.2236,3.22099 c 6.72262,1.77391 12.71727,3.73254 13.32417,4.35089 0.94755,0.96547 13.45922,82.00449 13.41222,86.87125 -0.0158,1.63646 -2.54172,1.75356 -39.01135,1.75356 -38.27715,0 -39.00402,-0.0338 -39.00402,-1.98835 0,-3.57941 12.0553,-83.45625 12.90596,-85.51388 0.64403,-1.55783 3.64176,-2.74717 13.48559,-5.34874 z m -12.68584,12.0842 2.53129,5.3194 c 2.2346,4.68596 2.32264,6.35316 0.76306,13.9038 -1.49567,7.24137 -1.421,9.38899 0.42555,13.80842 1.92692,4.61185 1.92273,5.72103 0.0587,9.32545 -1.16318,2.24937 -2.48391,7.55201 -2.94218,11.79071 -1.01311,9.37053 1.98296,16.14996 9.29611,21.03546 4.91385,3.28264 14.58615,4.51739 14.58615,1.86363 0,-1.87801 -5.51634,-5.23909 -10.50673,-6.39795 -4.94366,-1.14801 -9.69242,-8.49074 -9.69964,-15.00437 -0.009,-7.37368 3.6025,-12.71659 11.52658,-17.0294 6.98052,-3.79931 8.88237,-6.6307 5.74495,-8.56973 -0.82359,-0.509 -4.13021,0.44865 -7.35177,2.12776 l -5.86234,3.05223 0.9098,-11.95213 c 0.99389,-13.03289 -0.20215,-17.17204 -6.14116,-21.07949 z"
       transform="matrix(0.49653286,0,0,0.49653286,372.86803,380.1153)" />
    <path
       id="path6189"
       style="fill:#050505;fill-opacity:1"
       d="m 782.86515,655.16973 -13.74972,3.58051 c -7.5625,1.97096 -13.8195,3.61671 -13.9038,3.66121 -0.26482,0.13956 -13.34619,88.37239 -13.34619,90.01886 0,1.39482 4.463,1.5628 40.99971,1.5628 36.53669,0 40.9997,-0.16798 40.9997,-1.5628 0,-1.64647 -13.08136,-89.8793 -13.34618,-90.01886 -0.0843,-0.0444 -6.34133,-1.69025 -13.9038,-3.66121 z m 0.49892,1.56281 12.98666,3.47778 12.98667,3.47045 6.19985,41.9095 c 3.41052,23.04839 6.43969,43.14108 6.73545,44.65358 l 0.54295,2.75141 H 782.9752 743.1421 l 0.37419,-2.25249 c 0.20705,-1.23747 3.07134,-20.47099 6.36126,-42.74593 3.28995,-22.27494 6.18794,-41.40578 6.44198,-42.51115 0.38163,-1.66049 2.76813,-2.59256 13.74972,-5.37809 z m -12.24562,13.09672 c -0.5433,0.009 0.0187,1.0895 1.50411,3.96203 1.87285,3.6217 2.15069,6.40142 1.29133,12.7372 -1.2273,9.04853 -0.95292,14.15721 0.94648,17.71909 0.83223,1.56062 0.46024,4.3346 -1.07121,7.94608 -1.29364,3.05063 -2.39872,9.11671 -2.45793,13.48559 -0.12247,9.04697 2.47858,14.09247 9.66296,18.69492 2.51282,1.60976 6.68514,2.93652 9.26675,2.94952 7.82235,0.0406 5.46137,-3.96175 -4.16013,-7.05829 -7.3093,-2.35242 -10.24194,-6.18728 -10.91027,-14.21196 -0.69458,-8.34018 1.4834,-12.90762 8.23223,-17.24218 10.16545,-6.529 10.9411,-7.30103 9.10534,-9.19339 -1.34338,-1.38485 -3.02274,-1.08769 -7.76999,1.38672 l -6.03843,3.15495 0.99051,-10.70483 c 1.13088,-12.06811 -1.03674,-19.76623 -6.38328,-22.62761 -1.15291,-0.61701 -1.8825,-1.00325 -2.20847,-0.99784 z"
       transform="matrix(0.49653286,0,0,0.49653286,372.86803,380.1153)" />
  </g>
</svg>
