<?xml version="1.0" encoding="UTF-8" standalone="no"?>
<!-- Created with Inkscape (http://www.inkscape.org/) -->

<svg
   viewBox="0 0 35.349998 38.720001"
   id="svg2"
   version="1.1"
   inkscape:version="1.3.2 (091e20e, 2023-11-25, custom)"
   sodipodi:docname="Ryu.svg"
   xmlns:inkscape="http://www.inkscape.org/namespaces/inkscape"
   xmlns:sodipodi="http://sodipodi.sourceforge.net/DTD/sodipodi-0.dtd"
   xmlns="http://www.w3.org/2000/svg"
   xmlns:svg="http://www.w3.org/2000/svg"
   xmlns:rdf="http://www.w3.org/1999/02/22-rdf-syntax-ns#"
   xmlns:cc="http://creativecommons.org/ns#"
   xmlns:dc="http://purl.org/dc/elements/1.1/">
  <defs
     id="defs4" />
  <sodipodi:namedview
     id="base"
     pagecolor="#ffffff"
     bordercolor="#666666"
     borderopacity="1.0"
     inkscape:pageopacity="0.0"
     inkscape:pageshadow="2"
     inkscape:zoom="14.178719"
     inkscape:cx="17.702587"
     inkscape:cy="19.360001"
     inkscape:document-units="px"
     inkscape:current-layer="layer1"
     showgrid="false"
     fit-margin-top="0"
     fit-margin-left="0"
     fit-margin-right="0"
     fit-margin-bottom="0"
     inkscape:window-width="1292"
     inkscape:window-height="745"
     inkscape:window-x="-8"
     inkscape:window-y="-8"
     inkscape:window-maximized="1"
     inkscape:showpageshadow="0"
     inkscape:pagecheckerboard="1"
     inkscape:deskcolor="#d1d1d1" />
  <metadata
     id="metadata7">
    <rdf:RDF>
      <cc:Work
         rdf:about="">
        <dc:format>image/svg+xml</dc:format>
        <dc:type
           rdf:resource="http://purl.org/dc/dcmitype/StillImage" />
      </cc:Work>
    </rdf:RDF>
  </metadata>
  <g
     inkscape:label="Layer 1"
     inkscape:groupmode="layer"
     id="layer1"
     transform="matrix(-0.63793093,0,0,-0.63793093,305.75607,519.47609)"
     style="display:inline">
    <path
       sodipodi:nodetypes="cccccc"
       inkscape:connector-curvature="0"
       id="path3034"
       d="m 434.10932,807.57139 14.81925,-104.31635 30.53572,-8.39285 31.51785,8.92856 15.71429,104.375 z"
       style="display:inline;fill:#ffffff;fill-opacity:1;stroke:none"
       transform="matrix(0.43154539,0,0,0.43154539,244.67538,459.85977)" />
    <path
       id="path3010"
       style="display:inline;fill:#cfcfcf;fill-opacity:1"
       d="m 479.54806,693.10351 -16.119,4.34191 c -8.86672,2.38738 -16.2538,4.48801 -16.41698,4.67537 -0.16318,0.18736 -3.73766,23.29409 -7.9389,51.34385 -4.20115,28.04976 -7.86537,52.01481 -8.14463,53.25231 l -0.50372,2.249 h 49.0381 49.0381 l -0.51082,-2.249 c -0.27787,-1.2375 -3.92628,-25.20255 -8.10916,-53.25231 -4.18296,-28.04976 -7.75886,-51.15932 -7.94599,-51.35095 -0.18713,-0.19163 -7.54777,-2.29225 -16.36022,-4.67536 z m -0.0355,3.36285 14.70717,3.81692 c 8.08915,2.09997 14.86728,3.97701 15.06191,4.17164 0.31538,0.31538 15.16531,98.91181 15.17541,100.75797 0.002,0.4125 -20.24439,0.75203 -44.99415,0.75203 -24.74984,0 -45.00326,-0.33953 -45.00126,-0.75203 0.009,-1.47782 14.9873,-100.56834 15.23927,-100.81473 0.14161,-0.13847 6.90613,-1.98213 15.03353,-4.0936 z m 4.63279,20.56734 c -2.8266,0 -2.95403,3.25238 -0.17027,4.32063 1.80429,0.69237 1.98903,2.58053 1.42602,14.45886 -0.63379,13.37176 -0.74657,13.80287 -5.29259,19.75856 -2.55515,3.34746 -5.46974,7.67169 -6.4774,9.62032 -1.37324,2.65552 -2.72123,3.52352 -5.37773,3.44799 -1.9493,-0.0554 -4.84571,0.59683 -6.43483,1.4473 -2.36109,1.26364 -1.99982,0.36122 1.95102,-4.93077 2.65911,-3.5618 6.11439,-6.79304 7.68349,-7.18686 3.22338,-0.80904 4.00384,-5.50543 0.9152,-5.50543 -1.0648,0 -5.31671,1.41739 -9.45005,3.15711 -4.28253,1.80254 -9.9794,3.1642 -13.24568,3.1642 -6.69041,0 -7.34583,1.63462 -1.79494,4.5051 3.80539,1.96789 5.38567,1.95012 10.43621,-0.12061 1.66901,-0.68439 0.81671,1.27539 -2.92299,6.75409 -5.7213,8.38174 -8.32585,15.26379 -6.4845,17.10516 1.77107,1.77108 3.59134,-0.004 6.30713,-6.14396 2.5773,-5.82655 7.20387,-9.13307 10.83351,-7.74024 1.83267,0.70326 1.84436,1.13088 0.0851,4.53347 -4.04081,7.8141 -1.12931,13.09512 3.95881,7.17977 1.78765,-2.0783 2.95136,-5.06659 2.95136,-7.55578 0,-2.46988 1.80444,-7.12441 4.51219,-11.6352 5.59427,-9.31947 6.8676,-10.69101 6.8676,-7.38551 0,1.39177 0.53429,3.07068 1.18481,3.73177 0.73438,0.74631 0.53039,4.02697 -0.55338,8.66255 -2.18426,9.34195 -1.2974,14.2255 3.02231,16.57306 6.30768,3.42797 19.34861,1.84091 26.36365,-3.21387 4.10368,-2.95691 3.94529,-4.02832 -1.40473,-9.47843 l -4.93077,-5.023 0.84426,5.43449 c 0.81493,5.29335 0.71597,5.48292 -3.58279,7.27909 -5.34568,2.2336 -13.55029,2.40557 -15.62948,0.32636 -2.09086,-2.09083 -1.90954,-5.64858 0.64562,-12.77744 1.7521,-4.88825 1.87564,-6.53962 0.63851,-8.52065 -0.84428,-1.35192 -1.53244,-4.44546 -1.53244,-6.88179 0,-3.74576 0.73979,-4.89956 4.76759,-7.44227 9.59975,-6.06006 10.04677,-9.97118 1.47569,-12.86967 -4.19566,-1.41883 -4.33434,-1.67064 -3.93043,-7.22233 0.35146,-4.83075 -0.0483,-6.07452 -2.49731,-7.78991 -1.60261,-1.12246 -3.92086,-2.03616 -5.1578,-2.03616 z m -15.18251,1.26285 c -2.63522,0 -2.88565,1.37062 -0.6669,3.64664 1.27263,1.30546 0.71133,2.36666 -2.85204,5.45577 l -4.41995,3.84529 5.53381,-0.81588 c 7.21017,-1.06832 10.28012,-2.794 10.28012,-5.77503 0,-2.73173 -4.49,-6.35679 -7.87504,-6.35679 z m 0.50372,16.05515 c -0.30189,0.006 -0.62966,0.022 -0.97906,0.0497 -2.01971,0.15984 -6.51693,0.30865 -9.99634,0.33345 -5.9588,0.0425 -6.17914,0.16443 -3.79563,2.00778 1.39177,1.07635 4.12046,2.28512 6.05882,2.68177 3.35287,0.68614 3.41828,0.83768 1.38345,3.08617 -3.2211,3.55931 -0.93639,2.83972 5.34936,-1.67434 5.44149,-3.90782 6.40465,-6.24428 2.81657,-6.4703 -0.25629,-0.0161 -0.53529,-0.0203 -0.83717,-0.0142 z m 22.29843,0.87264 c 0.40168,0.0817 0.98664,0.76479 1.95102,1.83042 1.96929,2.17614 1.90288,2.49505 -1.01453,5.23583 l -3.10745,2.92299 0.75203,-4.92367 c 0.53326,-3.44962 0.73501,-4.9223 1.25575,-5.05847 0.0506,-0.0132 0.1058,-0.0188 0.16318,-0.007 z m -21.23424,9.28687 c -1.6132,-0.055 -4.07145,0.21149 -7.37841,0.82298 -7.26192,1.34284 -9.53978,3.33448 -3.81692,3.33448 3.19722,0 2.90491,3.04597 -0.53209,5.59057 -1.56574,1.15922 0.004,0.62683 3.48346,-1.17771 10.31324,-5.34886 13.08356,-8.40538 8.24396,-8.57032 z m 30.49983,1.54663 c -1.50985,0.0197 -2.49968,1.45181 -2.49022,4.18584 0.008,2.26163 -0.36559,5.85422 -0.83007,7.98146 -0.6187,2.83355 -0.27153,4.34202 1.28413,5.63314 1.9455,1.61457 1.76121,2.0642 -2.1142,5.39901 l -4.2284,3.63955 3.78853,-0.80879 c 7.66484,-1.629 12.65683,-4.87895 12.65683,-8.24396 0,-2.31698 -0.75969,-3.26535 -2.84495,-3.56151 -3.38488,-0.48073 -3.55116,-1.77322 -0.78041,-6.00206 1.92396,-2.93629 1.90805,-3.31943 -0.19865,-5.64732 -1.58279,-1.749 -3.06826,-2.59073 -4.24259,-2.57536 z"
       transform="matrix(0.43154539,0,0,0.43154539,244.67538,459.85977)" />
    <path
       id="path3008"
       style="display:inline;fill:#b0b0b0;fill-opacity:1"
       d="m 479.54097,693.21702 -16.24671,4.41286 c -8.93464,2.4255 -16.29722,4.509 -16.36732,4.6257 -0.0701,0.1167 -2.95948,19.10613 -6.41355,42.20597 -3.45399,23.09984 -7.05516,47.06489 -8.00984,53.25231 l -1.73818,11.25209 h 48.69756 48.69755 l -0.74493,-4.7534 c -0.41011,-2.6125 -4.00634,-26.57046 -7.98856,-53.24522 -3.98222,-26.67476 -7.33197,-48.62248 -7.44936,-48.7685 -0.11739,-0.14602 -7.46392,-2.22243 -16.32475,-4.61861 z m -0.078,2.9088 14.70717,3.95881 c 8.08931,2.17782 14.92229,4.17391 15.18251,4.43414 0.48028,0.48028 14.98381,96.47983 15.06191,99.69378 0.0399,1.64129 -2.74531,1.75237 -44.95159,1.75237 -35.33556,0 -45.00526,-0.26711 -45.00126,-1.24866 0.008,-2.27741 14.80011,-99.88601 15.19671,-100.28262 0.21394,-0.21393 7.00097,-2.17119 15.09028,-4.34901 z m 5.50543,20.90788 c -3.5329,0 -4.25928,3.41495 -0.99325,4.66827 3.19148,1.22469 1.51734,26.2569 -2.05744,30.76233 -1.38038,1.73972 -4.35305,6.14113 -6.6122,9.79059 -2.91612,4.71084 -4.71544,6.44768 -6.18652,5.98077 -1.13964,-0.3617 -3.62387,-0.0681 -5.51962,0.65271 l -3.44799,1.31251 4.05103,-5.11523 c 2.22687,-2.81167 5.69218,-5.96165 7.70477,-7.0024 2.01257,-1.04076 3.66793,-2.47146 3.66793,-3.1713 0,-2.77522 -4.24001,-2.58381 -12.74196,0.56757 -4.9028,1.81731 -11.59055,3.32665 -14.85616,3.34866 l -5.93112,0.0355 3.54732,3.12163 c 3.7746,3.32078 8.30733,3.97517 12.39432,1.78785 1.81748,-0.9727 1.28711,0.35414 -1.96521,4.88111 -5.29504,7.37048 -8.71123,15.04331 -7.77572,17.48117 1.33127,3.46927 4.24955,1.63665 6.41355,-4.02975 1.62548,-4.25623 3.3293,-6.31701 6.4774,-7.81828 2.35122,-1.12123 4.61038,-1.71093 5.01591,-1.30542 0.40552,0.40553 -0.0858,3.19447 -1.09967,6.19362 -1.01382,2.99922 -1.56384,6.19223 -1.22028,7.08754 1.74022,4.53495 9.20883,-1.26613 9.20883,-7.15139 0,-4.98533 1.88003,-9.66848 6.70443,-16.69367 l 4.02266,-5.85308 1.29832,3.95881 c 0.94104,2.85716 0.85417,5.7069 -0.30507,10.24465 -2.2914,8.96954 -2.01287,11.75779 1.50406,15.27474 2.6326,2.63263 4.30794,3.10745 10.98958,3.10745 5.36025,0 9.6019,-0.8327 13.24568,-2.59663 8.89714,-4.30711 9.17319,-5.42639 3.05779,-12.06088 l -5.34226,-5.79631 0.43987,6.10138 0.43987,6.10138 -5.023,1.65305 c -6.34127,2.08653 -13.30466,1.53545 -15.01225,-1.1919 -0.95285,-1.52181 -0.65436,-4.24215 1.0642,-9.91829 1.8852,-6.2264 2.05225,-8.30467 0.85845,-10.21627 -0.82473,-1.32063 -1.49697,-4.35166 -1.49697,-6.73281 0,-3.73416 0.76237,-4.8112 5.52672,-7.82538 6.05763,-3.83237 9.20341,-7.81659 7.51322,-9.5068 -0.59586,-0.59586 -3.3191,-1.86096 -6.05882,-2.80948 -4.8991,-1.69613 -4.97901,-1.81938 -4.6328,-7.44936 0.40149,-6.5289 -1.92401,-9.86864 -6.8676,-9.86864 z m -17.77205,1.04291 c -0.33084,0.0114 -0.6603,0.0355 -0.99325,0.078 -0.62976,0.0801 -0.065,1.32958 1.24865,2.7811 2.36195,2.60996 2.33575,2.68024 -2.02197,6.29294 l -4.40576,3.65374 3.51893,0.0355 c 5.51584,0.0533 12.295,-3.27134 12.295,-6.03044 0,-3.54417 -4.07085,-6.55937 -8.65545,-6.80375 -0.32747,-0.0175 -0.65531,-0.019 -0.98615,-0.007 z m 4.27097,15.50178 c -0.19265,-0.008 -0.40421,-10e-4 -0.64562,0.0142 -0.64372,0.042 -1.46478,0.16518 -2.52569,0.34055 -2.60955,0.43133 -7.31183,0.80642 -10.44329,0.83716 l -5.6899,0.0639 2.98684,2.48312 c 1.64282,1.36862 4.3779,2.49021 6.07301,2.49021 3.04735,0 3.04942,0.0334 0.80169,3.12164 -1.28446,1.76482 -3.64013,3.18978 -5.42739,3.27063 -2.94062,0.13291 -2.86198,0.26933 1.10676,2.00068 l 4.26387,1.86589 -2.9088,3.10036 c -4.03666,4.29688 -2.21208,3.86712 6.51288,-1.51826 9.11326,-5.62507 9.99929,-8.69523 2.12129,-7.36422 l -5.34935,0.90101 3.94461,-3.32028 c 2.17189,-1.82754 4.57995,-3.32029 5.34936,-3.32029 0.76939,0 1.40473,-1.21314 1.40473,-2.69596 0,-1.58245 -0.22653,-2.22081 -1.575,-2.27028 z m 20.75889,2.5115 c 0.57134,0.0388 1.29545,0.57828 2.16386,1.62467 1.0801,1.30146 0.82046,2.25014 -1.10676,3.99427 -2.47375,2.23879 -2.53278,2.20658 -2.53278,-1.70271 0,-2.65386 0.52342,-3.98105 1.47568,-3.91623 z m 8.51356,10.34397 c -1.69118,0.0626 -2.90084,0.86037 -2.5186,2.26319 0.61715,2.26499 0.48707,4.35947 -0.61013,9.83316 -0.61263,3.05606 -0.30371,4.59438 1.15642,5.70408 1.74403,1.32544 1.44988,1.91121 -2.34123,4.67537 -2.38596,1.73971 -4.35119,3.53337 -4.37029,3.98718 -0.0853,2.02136 16.17778,-4.29991 17.90685,-6.95984 1.33936,-2.06039 -1.30245,-5.88854 -4.06522,-5.88854 -3.02199,0 -3.02601,-0.0472 -0.29798,-5.76794 2.11602,-4.43732 2.10063,-4.6563 -0.31216,-6.42064 -1.16966,-0.85527 -2.55168,-1.30899 -3.78854,-1.41183 -0.25767,-0.0214 -0.51752,-0.0232 -0.75912,-0.0142 z"
       transform="matrix(0.43154539,0,0,0.43154539,244.67538,459.85977)" />
    <path
       id="path3006"
       style="display:inline;fill:#8f8f8f;fill-opacity:1"
       d="m 479.46293,693.99743 c -3.13244,0 -31.01569,7.53966 -31.98261,8.64836 -0.64526,0.73988 -16.13635,102.12018 -16.05515,105.0715 0.027,0.98216 10.32297,1.24866 48.03776,1.24866 45.0468,0 47.99418,-0.1101 47.99518,-1.75237 0.003,-3.85422 -15.26219,-103.80706 -15.97001,-104.56779 -1.04179,-1.11968 -28.92094,-8.64836 -32.02517,-8.64836 z m 0,2.1142 14.62203,3.85239 c 8.04458,2.11912 14.94977,4.22244 15.3386,4.67536 0.63587,0.74068 15.1406,97.07094 15.069,100.07688 -0.0234,0.98104 -9.71247,1.24866 -45.02963,1.24866 h -45.00126 l 0.0355,-2.249 c 0.0684,-3.87458 14.59113,-98.71219 15.21089,-99.33195 0.32365,-0.32365 7.1487,-2.32158 15.16832,-4.43414 z m 5.23583,21.29809 c -0.41687,-0.0148 -0.77821,0.0322 -1.06419,0.14189 -1.90507,0.73105 -1.90033,1.00613 0.14899,3.27063 1.92765,2.13005 2.15815,4.30105 1.65305,15.65785 -0.54559,12.26769 -0.84372,13.51393 -4.3632,18.05584 -2.0799,2.68412 -5.0668,7.0179 -6.64058,9.62742 -2.2817,3.78354 -3.62979,4.74631 -6.64057,4.74631 -2.07664,0 -4.95455,0.63858 -6.39936,1.41183 -2.07575,1.11094 -1.73565,0.14693 1.64595,-4.56185 2.35361,-3.27746 5.85532,-6.77553 7.77572,-7.76862 3.32263,-1.71821 4.87879,-5.52672 2.25609,-5.52672 -0.68,0 -5.0197,1.41739 -9.6416,3.15711 -4.62197,1.73972 -11.04472,3.18476 -14.26731,3.20677 l -5.85307,0.0355 3.54732,3.12163 c 4.13646,3.63913 5.95823,3.83459 11.096,1.17771 l 3.76725,-1.94393 -4.30644,6.05882 c -5.84288,8.22298 -8.40714,13.53283 -8.40714,17.38185 0,4.93911 2.35153,3.84619 4.99462,-2.31995 2.62057,-6.11357 6.6752,-9.63451 11.09601,-9.63451 3.32844,0 3.47003,0.72033 0.98615,5.06557 -4.12018,7.20753 -0.43727,12.84849 4.38448,6.71862 1.41736,-1.80191 2.57535,-4.92411 2.57535,-6.94565 0,-3.84779 3.56989,-11.7858 7.99565,-17.77205 l 2.60373,-3.51894 1.69562,4.03685 c 1.25717,2.98983 1.3636,5.01091 0.3973,7.78281 -1.5538,4.45731 -1.69689,14.71424 -0.23412,17.02002 0.57057,0.89938 2.70379,2.13198 4.73212,2.73853 8.68202,2.59632 18.78988,0.62881 24.49776,-4.76759 l 3.59698,-3.39833 -5.12232,-4.93787 -5.12233,-4.93786 0.84426,5.30678 c 0.82467,5.15718 0.7244,5.36058 -3.5615,7.15139 -4.56824,1.90876 -11.65576,2.41542 -15.13995,1.07839 -2.55723,-0.98132 -2.56353,-5.99245 -0.0142,-13.47271 1.48442,-4.35657 1.64344,-6.47359 0.63143,-8.36457 -0.74538,-1.39275 -1.32196,-4.7089 -1.28413,-7.36423 0.0617,-4.34045 0.6606,-5.21449 6.00206,-8.62707 7.73148,-4.93954 7.93586,-8.16909 0.6598,-10.68452 l -5.2855,-1.83041 0.69527,-5.93821 c 0.63876,-5.3934 0.40225,-6.14661 -2.60373,-8.11626 -1.36689,-0.89562 -3.07709,-1.47368 -4.32773,-1.51825 z m -15.77846,0.88683 c -1.97081,0 -2.08873,0.39656 -0.80879,2.78819 1.31795,2.46263 1.00218,3.20483 -2.79528,6.46321 l -4.29225,3.67502 5.05847,-0.85845 c 5.99912,-1.02615 10.75546,-3.82383 10.75546,-6.32841 0,-2.23151 -4.83754,-5.73956 -7.91761,-5.73956 z m 0.55338,16.10481 c -0.30331,0.0105 -0.63448,0.0305 -0.98615,0.0639 -2.01971,0.1916 -6.08816,0.37594 -9.04566,0.41149 -2.95749,0.0356 -5.37773,0.49767 -5.37773,1.02873 0,1.24321 5.81515,3.90204 8.53484,3.90204 1.62663,0 1.74846,0.33736 0.56758,1.51825 -0.83506,0.83507 -1.51826,2.01087 -1.51826,2.61083 0,0.59994 2.586,-0.75553 5.73247,-3.01522 5.52801,-3.96996 6.5321,-6.34626 2.93008,-6.51997 -0.25729,-0.0124 -0.53385,-0.0105 -0.83717,0 z m 22.17782,1.25575 c 0.45216,-0.12718 1.08956,0.27177 2.21353,1.09967 2.43099,1.79057 2.41668,1.89682 -0.94359,5.25712 -3.07147,3.07144 -3.41895,3.16878 -3.3061,0.9294 0.0693,-1.37596 0.49815,-3.74728 0.95069,-5.26422 0.37256,-1.24884 0.63332,-1.8948 1.08547,-2.02197 z m -21.08524,8.81154 c -0.2497,0.0101 -0.53028,0.0331 -0.83008,0.0709 -14.49559,1.81986 -15.68654,2.55012 -8.08788,4.97334 1.50237,0.47911 1.27903,1.1149 -1.08547,3.0436 -4.4826,3.65652 -2.04144,2.93872 5.64732,-1.66015 5.84917,-3.49858 7.83684,-6.20226 5.0301,-6.42064 -0.20049,-0.0156 -0.4243,-0.0173 -0.67399,-0.007 z m 31.21638,1.93683 c -1.6377,-0.11362 -2.85732,1.35446 -3.01522,4.17164 -0.11653,2.07814 -0.63495,5.44116 -1.14224,7.46356 -0.71397,2.84613 -0.3744,4.0739 1.48278,5.46287 2.29498,1.71632 2.20641,1.96072 -2.02906,5.57638 l -4.42705,3.78144 3.78853,-0.84427 c 11.7323,-2.62569 17.81749,-9.86234 9.66289,-11.4933 l -3.81691,-0.75913 2.43346,-4.53347 c 2.27168,-4.23843 2.29184,-4.6808 0.31926,-6.86051 -1.13714,-1.25648 -2.27382,-1.897 -3.25644,-1.96521 z"
       transform="matrix(0.43154539,0,0,0.43154539,244.67538,459.85977)" />
    <path
       id="path3004"
       style="display:inline;fill:#6f6f6f;fill-opacity:1"
       d="m 479.3636,693.96196 c -2.06605,0 -31.06249,7.83467 -31.82652,8.59869 -0.48867,0.48867 -16.00026,101.6427 -16.04806,104.65293 -0.0261,1.64268 2.91599,1.75237 47.97391,1.75237 37.72889,0 47.99628,-0.26613 48.00228,-1.24866 0.0189,-3.02591 -15.38769,-104.32935 -15.97002,-105.00765 -0.80282,-0.93512 -29.49797,-8.74768 -32.13159,-8.74768 z m 0.28379,1.95812 15.11156,4.05813 c 8.31155,2.23332 15.16488,4.15421 15.23218,4.27097 0.54415,0.9448 14.95883,101.88977 14.60075,102.24784 -0.60817,0.60782 -89.65687,0.61577 -90.26501,0.007 -0.25523,-0.25523 2.94259,-23.24355 7.10173,-51.08135 5.66451,-37.91298 7.93315,-50.81811 9.04566,-51.42899 0.81686,-0.44854 7.71822,-2.45247 15.3315,-4.44834 z m 4.83854,21.86565 c -0.36548,0.003 -0.67877,0.0555 -0.92231,0.14899 -1.46372,0.56168 -1.41457,1.07812 0.31926,2.99394 1.75515,1.93944 2.00186,4.44272 1.52535,15.33859 l -0.56048,13.02575 -6.89598,10.13113 c -6.03811,8.86799 -7.30824,10.06511 -10.26593,9.71965 -1.85677,-0.21688 -4.62608,0.27642 -6.15105,1.09257 -2.32157,1.24249 -2.07912,0.51277 1.50406,-4.47671 2.35361,-3.27746 5.85532,-6.77553 7.77572,-7.76862 3.55392,-1.83783 4.4012,-3.55722 2.36251,-4.81726 -0.62322,-0.38518 -4.91631,0.72596 -9.52809,2.46184 -4.6117,1.73588 -11.02259,3.15001 -14.24602,3.15001 -5.75538,0 -5.81714,0.0511 -3.59698,2.50441 3.31267,3.66051 6.23312,4.17008 11.40817,2.00778 l 4.6186,-1.92974 -4.3561,5.98787 c -5.83121,8.01559 -8.47099,13.41157 -8.47099,17.30381 0,4.71735 2.36337,3.94616 4.61151,-1.51116 2.7813,-6.7515 6.5937,-10.4433 10.79094,-10.4433 4.03674,0 4.22955,0.59552 1.67433,5.06557 -2.64583,4.62838 -2.42013,8.84701 0.47534,8.84701 3.50263,0 5.48303,-3.09463 6.63348,-10.37236 0.64308,-4.06813 2.74339,-9.06352 5.64733,-13.43723 l 4.6257,-6.96693 1.75947,4.17165 c 1.31643,3.13087 1.43383,5.32969 0.48243,8.75477 -3.13987,11.30398 -0.94788,18.06728 6.31423,19.52443 5.15965,1.03522 15.54214,-0.40211 19.47476,-2.69596 6.36532,-3.71285 6.57597,-5.41162 1.36217,-10.93992 l -4.70374,-4.99462 0.89392,5.23583 c 0.83555,4.94565 0.66578,5.34621 -3.07197,7.2791 -2.55218,1.31982 -6.28714,1.90564 -10.53553,1.66014 -6.42803,-0.37145 -6.59708,-0.472 -6.98821,-4.54056 -0.22026,-2.29107 0.54353,-6.63198 1.69561,-9.6487 1.948,-5.10122 1.94447,-5.77483 0,-9.53519 -3.09803,-5.99095 -1.55863,-10.12285 5.44159,-14.61494 7.71243,-4.94903 7.8954,-8.17068 0.60304,-10.69161 l -5.31388,-1.83751 0.2625,-6.31423 c 0.22089,-5.5173 -0.14277,-6.51185 -2.78819,-7.86085 -1.24907,-0.63694 -2.77012,-1.01593 -3.86657,-1.00744 z m -15.53725,0.51082 c -1.92994,0 -2.02935,0.36539 -0.70237,2.49021 1.33535,2.13828 1.06214,3.00502 -1.97231,6.17233 l -3.54022,3.68212 5.13652,-0.9294 c 5.60941,-1.02578 8.96761,-3.20348 8.96761,-5.80341 0,-2.11659 -4.91505,-5.61185 -7.88923,-5.61185 z m 1.81623,16.14029 c -0.41882,-0.0242 -0.92288,0.009 -1.51825,0.0851 -1.73971,0.22137 -5.84975,0.46303 -9.13789,0.53919 -4.65081,0.10768 -5.68895,0.49269 -4.66117,1.73109 0.72667,0.87561 3.04236,1.97039 5.1507,2.43346 2.78536,0.6118 3.45077,1.21038 2.44055,2.22062 -0.76466,0.76467 -1.39055,1.8582 -1.39055,2.41927 0,0.56108 2.42031,-0.7309 5.37774,-2.87332 5.29937,-3.83889 6.67064,-6.38633 3.73887,-6.55544 z m 20.92207,1.17061 c 0.41464,0.0297 0.96205,0.30013 1.73109,0.78041 1.32067,0.82477 2.3844,2.07153 2.36251,2.774 -0.0219,0.70247 -1.45353,2.30412 -3.1713,3.55441 -3.00547,2.18744 -3.12402,2.18744 -3.10745,0 0.0101,-1.25029 0.35669,-3.52413 0.76622,-5.05138 0.39746,-1.48222 0.72785,-2.10709 1.41893,-2.05744 z m -20.29065,8.18721 c -0.4614,-0.008 -1.10912,0.13322 -1.96521,0.48243 -1.14735,0.46804 -4.92774,1.29012 -8.40714,1.81623 -6.2384,0.94329 -6.27562,0.9616 -2.22062,1.91555 4.75134,1.11777 4.88971,1.47183 1.90136,4.8882 -2.57089,2.93913 -1.26991,2.32883 6.98821,-3.26353 4.12714,-2.79495 5.70279,-5.80476 3.7034,-5.83888 z m 29.54914,2.87332 c -2.08596,-0.0516 -3.25815,1.5749 -1.63886,3.52603 0.98279,1.18417 0.88031,2.52027 -0.38311,4.80307 -2.38556,4.31049 -2.26182,7.20279 0.37602,8.79735 1.99664,1.20696 1.77267,1.72083 -2.22062,5.25002 -4.00234,3.5373 -4.1217,3.82531 -1.26285,3.01522 8.46501,-2.39865 13.91258,-5.60493 13.91258,-8.18011 0,-1.91367 -1.0301,-2.83245 -3.78854,-3.38414 -4.28566,-0.85716 -4.47369,-1.34582 -1.85879,-4.80307 2.61976,-3.46366 2.3067,-6.69719 -0.80879,-8.36457 -0.82687,-0.44253 -1.63173,-0.6426 -2.32704,-0.6598 z"
       transform="matrix(0.43154539,0,0,0.43154539,244.67538,459.85977)" />
    <path
       id="path3002"
       style="display:inline;fill:#505050;fill-opacity:1"
       d="m 479.46293,693.62142 -15.94874,4.29934 c -14.96038,4.03042 -15.9879,4.45557 -16.50211,6.91727 -0.68447,3.27676 -15.55144,101.94142 -15.55144,103.20562 0,0.55165 19.32523,0.9223 48.00229,0.9223 31.3794,0 47.99518,-0.34565 47.99518,-1.00034 0,-1.40333 -14.8859,-101.02672 -15.48048,-103.60292 -0.41315,-1.7901 -2.88513,-2.75926 -16.50212,-6.42774 z m 0.0284,2.24899 15.06191,3.95881 c 8.28335,2.17733 15.19099,4.1128 15.34569,4.29935 0.6017,0.72555 15.25645,101.37818 14.86325,102.08466 -0.22959,0.4125 -20.61435,0.75203 -45.29922,0.75203 -24.68494,0 -45.0722,-0.33953 -45.29923,-0.75203 -0.35824,-0.6509 14.29131,-101.23969 14.86325,-102.05628 0.11832,-0.16896 7.01926,-2.10443 15.3386,-4.29935 z m -10.54262,22.42614 c -1.92659,0 -2.02833,0.3713 -0.70946,2.48312 1.31183,2.10061 1.0871,2.9619 -1.47569,5.68989 l -3.02231,3.21387 h 3.73178 c 4.26825,0 9.36491,-3.09319 9.36491,-5.68989 0,-2.18526 -4.86334,-5.69699 -7.88923,-5.69699 z m 12.50074,0 2.5186,2.84495 c 2.27555,2.57936 2.44122,4.04499 1.73109,15.50886 l -0.78751,12.64264 -6.88888,10.13113 c -6.16282,9.06096 -7.25302,10.07755 -10.43621,9.71255 -1.95575,-0.22425 -4.38755,0.28272 -5.40611,1.12805 -1.01855,0.8453 -2.14257,1.24158 -2.49731,0.88683 -1.05872,-1.05874 9.46296,-13.63588 11.40817,-13.63588 2.41044,0 3.79703,-2.43914 2.25609,-3.98009 -0.81143,-0.81151 -4.02918,-0.0729 -9.30815,2.14967 -4.65726,1.9608 -10.59994,3.43818 -14.04028,3.49056 -4.99144,0.0759 -5.73314,0.38325 -4.4909,1.88008 2.76258,3.32875 7.16394,4.17936 11.08891,2.14967 2.01398,-1.04148 3.96637,-1.89427 4.33482,-1.89427 0.36845,0 -2.16069,4.34743 -5.62605,9.6558 -3.85396,5.90385 -6.30003,11.05864 -6.30003,13.28115 0,5.07944 2.28857,4.53923 4.61151,-1.09967 2.7813,-6.7515 6.5937,-10.4433 10.79094,-10.4433 4.08627,0 4.32333,0.80811 1.68852,5.86017 -2.59914,4.98361 -2.42882,8.05241 0.46115,8.05241 3.4627,0 5.20343,-2.73082 6.3497,-9.98215 0.64663,-4.09061 2.77579,-9.06882 5.86016,-13.71392 l 4.83854,-7.30038 1.79494,4.39158 c 1.39629,3.42158 1.48175,5.40718 0.4044,9.00308 -3.40663,11.3706 -1.00491,18.09003 6.84632,19.18389 8.76503,1.22117 21.08633,-2.24568 23.77411,-6.69024 0.88211,-1.45879 -0.006,-3.12722 -3.55441,-6.67605 l -4.73212,-4.73921 0.71656,3.59698 c 0.39578,1.97893 0.89639,4.40015 1.11386,5.38482 0.54177,2.45315 -12.11981,6.65454 -16.89942,5.60476 -5.71513,-1.25528 -6.56211,-4.4019 -3.57569,-13.26696 2.34797,-6.96996 2.40366,-7.92915 0.6527,-10.42911 -2.0368,-2.90791 -2.52046,-8.23973 -0.95777,-10.50715 0.51125,-0.74182 3.66469,-3.21501 7.00949,-5.49125 7.38149,-5.02333 7.3486,-7.62747 -0.14189,-10.22336 -5.32326,-1.84484 -5.40676,-1.96017 -4.63279,-6.54125 1.08939,-6.44819 -1.00939,-9.92539 -5.99497,-9.92539 z m -10.74127,16.1261 c -0.445,-0.0211 -0.97565,0.004 -1.5892,0.0851 -1.66928,0.21846 -5.69298,0.50194 -8.93923,0.63142 -6.59919,0.26323 -6.39762,2.58214 0.35473,4.06523 3.0655,0.67325 3.49584,1.15967 2.29156,2.61082 -2.24486,2.70492 -0.40619,2.15649 5.22165,-1.56791 4.78006,-3.16327 5.77545,-5.67708 2.66049,-5.82469 z m 20.4822,0.90811 c 1.71035,0.0374 4.6257,2.13642 4.6257,3.73887 0,0.93932 -1.4245,2.64154 -3.1642,3.78144 -3.15677,2.06874 -3.16421,2.06801 -3.16421,-2.17096 0,-2.3356 0.35517,-4.60483 0.7946,-5.04428 0.15051,-0.15052 0.35541,-0.24592 0.58885,-0.28379 0.10214,-0.0166 0.20524,-0.0238 0.31926,-0.0213 z m -20.77308,9.27978 c -0.18336,3.2e-4 -0.35813,0.0345 -0.5321,0.0993 -0.69588,0.2593 -4.40952,0.8816 -8.23687,1.39055 -6.64781,0.88399 -6.7732,0.96948 -2.84494,1.90136 4.74958,1.12681 4.89367,1.48344 1.90136,4.83854 -1.26901,1.42287 0.75092,0.58809 4.73921,-1.95812 3.82728,-2.44345 6.67635,-4.9411 6.32841,-5.548 -0.26095,-0.45513 -0.80498,-0.72457 -1.35507,-0.72365 z m 31.13125,2.78819 c -3.22559,0 -4.28153,1.71944 -1.94393,3.16421 0.79512,0.49136 0.56272,2.12497 -0.63142,4.43414 -2.47729,4.79061 -2.38525,7.15897 0.32635,8.77606 2.00002,1.19277 1.79016,1.70752 -2.08582,5.27131 -3.78348,3.47889 -3.93078,3.83893 -1.26285,3.03651 7.02812,-2.11385 13.77778,-5.67596 13.77778,-7.272 0,-2.44483 -2.6254,-4.7605 -5.41321,-4.7605 -1.31058,0 -2.17687,-0.42173 -1.92264,-0.94359 0.25429,-0.52191 1.22485,-2.47969 2.16386,-4.34901 2.215,-4.4095 1.01364,-7.35713 -3.00812,-7.35713 z"
       transform="matrix(0.43154539,0,0,0.43154539,244.67538,459.85977)" />
    <path
       id="path3000"
       style="display:inline;fill:#2f2f2f;fill-opacity:1"
       d="m 479.47002,693.7704 -15.75718,4.21421 c -8.66424,2.31603 -15.88161,4.32736 -16.04096,4.46962 -0.15935,0.14227 -3.64429,22.47695 -7.74025,49.63405 -4.09589,27.15711 -7.71477,51.06211 -8.04531,53.12461 l -0.60304,3.75306 h 48.08742 c 26.44814,0 48.08741,-0.22792 48.08741,-0.50372 0,-0.97872 -15.02012,-101.04278 -15.55143,-103.60292 -0.50611,-2.43867 -1.54718,-2.87148 -16.48793,-6.84632 z m -0.0922,1.95812 14.45177,3.75306 c 7.94636,2.06328 14.88944,4.03155 15.43082,4.3703 0.54137,0.33875 4.19977,22.44128 8.13045,49.11614 3.93067,26.67479 7.39329,49.73203 7.69058,51.24453 l 0.53919,2.75271 h -46.15767 -46.16478 l 0.55338,-2.75271 c 0.30183,-1.5125 3.77583,-24.56974 7.72606,-51.24453 3.95016,-26.67486 7.5356,-48.73806 7.96727,-49.02391 0.43167,-0.28584 7.32238,-2.247 15.31022,-4.3632 z m 5.27841,22.63188 -3.39124,0.0709 2.774,1.92974 c 2.64372,1.84664 2.73384,2.55276 2.00778,15.37406 l -0.75912,13.43724 -6.93146,10.16661 c -5.66921,8.32579 -7.45812,10.10893 -9.83316,9.79768 -1.59585,-0.20912 -4.78375,0.58604 -7.09463,1.78076 -4.62047,2.38879 -4.70098,2.57964 3.21387,-7.38552 2.62538,-3.30546 5.55671,-6.01624 6.51287,-6.01624 2.10911,0 3.56572,-2.09387 2.57535,-3.69631 -0.40051,-0.64805 -5.58011,0.54131 -11.65648,2.66049 -7.38949,2.57711 -12.17568,3.56409 -14.74264,3.05069 -3.73655,-0.74732 -3.76382,-0.72338 -1.50407,1.77366 2.52424,2.78927 8.18797,3.33777 12.22406,1.17771 1.40561,-0.75227 2.74988,-1.18056 2.98684,-0.94359 0.23696,0.23696 -2.06476,4.13176 -5.11523,8.64836 -5.79381,8.57856 -7.99059,14.60573 -6.02335,16.57306 0.70202,0.70202 2.26703,-1.2852 3.9659,-5.04428 1.90513,-4.2154 4.07875,-6.82074 6.76828,-8.12336 6.63114,-3.21157 9.02635,-0.8241 5.44868,5.43449 -2.802,4.90163 -2.42832,7.85022 0.94359,7.37132 2.79239,-0.39658 4.82013,-4.62649 6.59091,-13.78487 0.34602,-1.78957 2.7485,-6.48672 5.34935,-10.4362 3.81965,-5.80014 4.94635,-6.79779 5.86017,-5.16489 1.39561,2.49378 1.48558,8.89275 0.2554,18.85043 -1.0954,8.8667 0.68951,11.53388 8.2014,12.23825 8.97232,0.8413 20.94213,-2.55739 23.48323,-6.66896 0.48146,-0.77904 -1.21375,-3.47109 -3.78853,-6.01625 l -4.66117,-4.61151 0.87264,3.79563 c 0.47836,2.08766 0.93685,4.32546 1.02162,4.96624 0.27504,2.07967 -12.16358,6.0205 -16.45954,5.21456 -6.87885,-1.29051 -7.63319,-3.47104 -4.54057,-12.98318 2.40471,-7.39638 2.49692,-8.60066 0.85845,-10.93992 -1.01321,-1.44668 -1.8517,-4.41576 -1.8517,-6.59801 0,-3.41121 0.98623,-4.62312 7.03788,-8.64126 8.35621,-5.54822 8.54111,-7.99917 0.75912,-10.59229 l -5.50543,-1.83751 0.80879,-5.39901 c 0.95248,-6.35159 -1.29004,-9.53391 -6.66186,-9.42877 z m -16.57306,0.0284 c -0.88166,0.0598 -0.8042,0.85328 0.15608,2.39089 1.31395,2.10397 1.08033,2.98245 -1.56792,5.86726 l -3.11454,3.39123 5.05138,-0.78041 c 8.18839,-1.26835 10.21774,-6.53667 3.66792,-9.52099 -1.7162,-0.78198 -2.96109,-1.22468 -3.75306,-1.3267 -0.165,-0.0213 -0.31391,-0.0298 -0.43986,-0.0213 z m 2.1071,15.35988 c -0.79898,-0.003 -1.83237,0.31795 -3.37704,0.95777 -2.11074,0.87432 -5.81264,1.36058 -8.22978,1.07839 -3.36968,-0.39341 -4.09713,-0.1496 -3.10745,1.04291 0.7099,0.85538 2.92389,1.90908 4.92368,2.34832 2.74603,0.60313 3.44437,1.32185 2.83076,2.93008 -0.5606,1.4693 0.4249,1.08984 3.18549,-1.22737 2.20057,-1.84712 4.73047,-3.62419 5.62604,-3.95171 1.26507,-0.46264 1.29484,-0.95864 0.12061,-2.20643 -0.60824,-0.64645 -1.17331,-0.96951 -1.97231,-0.97196 z m 20.31903,0.99325 c 2.42249,0 5.66269,3.56409 4.94496,5.43448 -0.42171,1.09887 -1.9318,2.62534 -3.36286,3.39124 -2.42596,1.29834 -2.60373,1.04261 -2.60373,-3.71759 0,-2.80803 0.45875,-5.10813 1.02163,-5.10813 z m -19.72308,10.4362 c -1.20087,0.006 -3.11363,0.16099 -5.96659,0.43987 -10.3098,1.00778 -11.3743,1.46541 -5.89563,2.56116 4.37448,0.87489 4.80123,1.62893 2.41217,4.2284 -1.89342,2.06011 7.71454,-3.36754 10.4362,-5.89564 1.01893,-0.94646 1.01542,-1.3452 -0.98615,-1.33379 z m 30.59915,2.22062 c -2.76611,0 -3.08713,0.32051 -1.8517,1.80913 1.16935,1.40892 1.06649,2.64444 -0.47534,5.62604 -2.56003,4.9506 -2.50041,7.33483 0.22703,8.8612 2.03434,1.13847 1.96968,1.48093 -0.85136,4.48381 -3.73187,3.97243 -1.72788,4.23638 5.91693,0.76622 6.20419,-2.81622 6.91318,-5.75805 1.90136,-7.91052 -1.91367,-0.82187 -3.68157,-1.62898 -3.92333,-1.78784 -0.24178,-0.15886 0.56491,-1.97148 1.78075,-4.02976 2.77355,-4.69528 1.67738,-7.81828 -2.72434,-7.81828 z"
       transform="matrix(0.43154539,0,0,0.43154539,244.67538,459.85977)" />
    <path
       id="path2998"
       style="display:inline;fill:#030303;fill-opacity:1"
       d="m 479.58353,693.89101 -15.81393,4.20712 c -8.69647,2.31272 -15.90196,4.25673 -16.01259,4.32063 -0.11064,0.0639 -3.58228,22.60018 -7.71896,50.08101 -4.13662,27.48082 -7.74759,51.20062 -8.02403,52.71312 l -0.50371,2.75272 h 47.95262 47.94552 l -0.49662,-2.75272 c -0.27528,-1.5125 -3.85851,-25.20462 -7.96018,-52.64927 -4.10167,-27.44465 -7.57925,-49.98181 -7.72605,-50.08101 -0.1468,-0.0992 -7.32743,-2.07091 -15.95583,-4.38448 z m -0.1206,1.75947 14.74974,3.78853 c 8.11243,2.08308 15.07242,4.06977 15.4663,4.41996 0.53208,0.47312 15.77846,99.59604 15.77846,102.58129 0,0.28986 -20.74695,0.525 -46.10802,0.525 H 433.2343 l 0.56757,-3.24934 c 0.31171,-1.7875 3.77842,-24.85183 7.69768,-51.25162 3.91918,-26.39986 7.42216,-48.27821 7.7899,-48.61952 0.36774,-0.34131 7.31124,-2.32269 15.42374,-4.40577 z m -11.08182,22.58222 c -0.13629,-0.011 -0.25913,-0.006 -0.36892,0.007 -0.87833,0.10173 -0.87934,0.95896 0.5321,2.51859 2.13521,2.35942 2.09894,2.58348 -1.00744,5.6899 -2.87451,2.87452 -2.97501,3.23515 -0.85136,3.23515 8.00459,0 11.59516,-5.55872 6.0801,-9.42167 -1.84685,-1.29375 -3.43043,-1.95225 -4.38448,-2.02906 z m 17.21867,0.0639 c -2.96142,0 -3.12113,1.11846 -0.43986,3.07907 1.71238,1.25208 1.86906,3.42793 1.08547,15.12575 -0.76701,11.45043 -1.36717,14.2022 -3.72468,17.02003 -1.54698,1.84907 -4.642,6.35859 -6.88179,10.01052 -3.52742,5.75121 -4.482,6.53368 -7.1372,5.86726 -1.89177,-0.47481 -4.31433,0.0495 -6.32841,1.36927 -1.79501,1.17614 -3.52703,1.8791 -3.8382,1.56791 -1.03329,-1.0333 9.74752,-13.64707 12.88385,-15.07609 1.69598,-0.77275 3.08617,-1.95475 3.08617,-2.61792 0,-1.60048 -5.26235,-0.56985 -14.50143,2.83785 -4.37504,1.6137 -9.36455,2.57689 -11.86932,2.28447 l -4.32773,-0.50372 2.83786,2.28448 c 3.1981,2.58962 7.81275,2.96703 11.60682,0.93649 4.13046,-2.21058 4.17895,-0.36596 0.1277,4.78178 -4.43453,5.63483 -9.17336,14.6351 -9.17336,17.41023 0,3.82311 2.65866,1.8527 5.05847,-3.74597 1.75842,-4.10227 3.69114,-6.28354 6.92436,-7.82538 6.29874,-3.00372 8.03962,-1.06919 5.26422,5.86726 -2.65877,6.64506 -2.60311,7.64802 0.41858,7.64802 2.88411,0 5.10104,-3.50843 5.10104,-8.07369 0,-1.75265 0.69746,-4.77928 1.54663,-6.72572 2.20233,-5.04783 10.01821,-16.83556 11.16696,-16.83556 1.69977,0 2.60152,11.86371 1.24865,16.44536 -1.97125,6.67582 -1.58523,11.12122 1.22028,13.92676 4.83485,4.83496 26.0702,2.1347 29.72651,-3.78144 0.56648,-0.91657 -0.69718,-3.01268 -3.18549,-5.2855 l -4.11489,-3.76015 0.78751,3.95171 c 0.73849,3.69251 0.43485,4.11371 -4.56895,6.38517 -6.5265,2.96259 -12.07919,3.15083 -15.82812,0.525 -3.42956,-2.40218 -3.47528,-3.80582 -0.4044,-12.54331 2.06573,-5.87738 2.1626,-7.17451 0.67399,-9.13789 -0.95454,-1.25898 -1.75151,-4.34162 -1.77366,-6.85341 -0.0356,-4.04327 0.70976,-5.13454 6.51288,-9.49262 3.605,-2.70731 6.76698,-5.57182 7.02368,-6.37098 0.25669,-0.79916 -2.1789,-2.46387 -5.40611,-3.6963 l -5.86726,-2.249 0.7946,-5.32807 c 0.88295,-5.88797 -1.26249,-9.42167 -5.72537,-9.42167 z m -15.42373,16.119 c -0.29944,-0.005 -0.66372,0.043 -1.09257,0.15608 -0.95684,0.25246 -4.5801,0.85976 -8.0595,1.34798 l -6.32842,0.88683 5.34226,1.68853 c 2.93471,0.92837 4.97926,2.25033 4.55476,2.93717 -0.42449,0.68685 1.02955,-0.0773 3.22805,-1.70271 3.43077,-2.53645 4.4515,-5.27601 2.35542,-5.31388 z m 20.90079,0.5321 c 0.75599,0.0449 1.85051,0.75707 3.41252,2.02197 l 2.74562,2.22062 -3.88076,3.7034 -3.86658,3.71049 v -5.92402 c 0,-4.04058 0.32921,-5.80736 1.5892,-5.73246 z m -19.15551,10.36526 c -1.40081,10e-4 -4.4282,0.26012 -7.797,0.68818 -7.51628,0.95507 -7.83419,1.12101 -4.00847,2.02197 4.05241,0.95438 4.10364,1.03399 1.90136,3.49765 -1.51454,1.69429 -0.0546,1.17134 4.44124,-1.5821 3.68822,-2.25885 6.5119,-4.30032 6.27166,-4.54057 -0.0601,-0.0601 -0.34185,-0.0856 -0.80879,-0.0851 z m 29.46401,2.08582 c -2.83468,0 -3.10463,0.29191 -1.78075,1.88717 1.26272,1.52152 1.13783,2.80422 -0.64561,6.56254 -2.1937,4.62289 -2.18537,4.68739 0.7875,7.09463 l 3.00103,2.42636 -3.78144,3.02941 c -4.67728,3.74228 -3.55084,3.82958 4.57604,0.33345 6.56091,-2.82248 8.01305,-6.30571 3.00812,-7.20815 -4.18424,-0.75447 -4.79741,-2.32488 -2.46183,-6.27875 2.788,-4.71969 1.70666,-7.84666 -2.70306,-7.84666 z"
       transform="matrix(0.43154539,0,0,0.43154539,244.67538,459.85977)" />
  </g>
</svg>
