<?xml version="1.0" encoding="UTF-8" standalone="no"?>
<!-- Created with Inkscape (http://www.inkscape.org/) -->

<svg
   viewBox="0 0 35.349998 38.720001"
   id="svg2"
   version="1.1"
   inkscape:version="1.3.2 (091e20e, 2023-11-25, custom)"
   sodipodi:docname="Narigin.svg"
   xmlns:inkscape="http://www.inkscape.org/namespaces/inkscape"
   xmlns:sodipodi="http://sodipodi.sourceforge.net/DTD/sodipodi-0.dtd"
   xmlns="http://www.w3.org/2000/svg"
   xmlns:svg="http://www.w3.org/2000/svg"
   xmlns:rdf="http://www.w3.org/1999/02/22-rdf-syntax-ns#"
   xmlns:cc="http://creativecommons.org/ns#"
   xmlns:dc="http://purl.org/dc/elements/1.1/">
  <defs
     id="defs4" />
  <sodipodi:namedview
     id="base"
     pagecolor="#ffffff"
     bordercolor="#666666"
     borderopacity="1.0"
     inkscape:pageopacity="0.0"
     inkscape:pageshadow="2"
     inkscape:zoom="14.178719"
     inkscape:cx="17.737851"
     inkscape:cy="19.36"
     inkscape:document-units="px"
     inkscape:current-layer="layer1"
     showgrid="false"
     fit-margin-top="0"
     fit-margin-left="0"
     fit-margin-right="0"
     fit-margin-bottom="0"
     inkscape:window-width="1292"
     inkscape:window-height="745"
     inkscape:window-x="-8"
     inkscape:window-y="-8"
     inkscape:window-maximized="1"
     inkscape:showpageshadow="0"
     inkscape:pagecheckerboard="1"
     inkscape:deskcolor="#d1d1d1" />
  <metadata
     id="metadata7">
    <rdf:RDF>
      <cc:Work
         rdf:about="">
        <dc:format>image/svg+xml</dc:format>
        <dc:type
           rdf:resource="http://purl.org/dc/dcmitype/StillImage" />
      </cc:Work>
    </rdf:RDF>
  </metadata>
  <g
     inkscape:label="Layer 1"
     inkscape:groupmode="layer"
     id="layer1"
     transform="matrix(-0.6179018,0,0,-0.6179018,439.14079,477.59273)"
     style="display:inline">
    <path
       inkscape:connector-curvature="0"
       id="path3031"
       d="m 678.82251,762.4484 15.40483,-100.51018 30.05204,-8.83883 30.55711,9.84899 15.9099,100.25764 z"
       style="display:inline;fill:#ffffff;fill-opacity:1;stroke:none"
       transform="matrix(0.44526861,0,0,0.44526861,359.39028,426.05043)" />
    <path
       id="path3010"
       style="fill:#cecece;fill-opacity:1"
       d="m 724.7318,652.51803 -15.06377,3.87598 c -8.28212,2.13013 -15.46674,4.12153 -15.96534,4.42969 -0.74417,0.45996 -15.97243,98.3414 -15.97243,102.66369 0,1.07845 8.68606,1.32038 47.00154,1.32038 38.31554,0 46.99444,-0.24193 46.99444,-1.32038 0,-4.32229 -15.2282,-102.20373 -15.97243,-102.66369 -0.4986,-0.30816 -7.68327,-2.29956 -15.96533,-4.42969 z m 0,3.00992 14.24741,3.78369 c 7.83744,2.0799 14.36189,3.86608 14.49587,3.96826 0.13399,0.10218 3.39552,21.52239 7.25503,47.60495 3.85957,26.0825 7.20086,48.21129 7.41831,49.17379 0.3719,1.64611 -2.21275,1.75342 -43.5302,1.75342 h -43.92773 l 0.51821,-2.25034 c 0.28621,-1.2375 3.67783,-23.36495 7.53189,-49.17379 3.85412,-25.8089 7.11529,-47.00719 7.24794,-47.10803 0.13265,-0.10084 6.65127,-1.88836 14.48877,-3.96826 z m -5.84236,22.05615 c -0.84929,0.0138 -1.66461,0.15783 -2.42781,0.44013 l -3.17319,1.16421 3.02412,2.59109 c 1.66401,1.42477 3.01488,3.54066 2.99572,4.69944 -0.0685,4.13412 -10.67435,17.41062 -20.40922,25.54879 -9.72927,8.13361 -11.14691,11.10862 -3.37906,7.09176 7.29224,-3.77099 20.33622,-14.37739 24.45557,-19.8768 l 4.09604,-5.45192 15.90854,14.2971 c 8.75103,7.85939 16.84369,14.12479 17.98141,13.92796 1.13772,-0.19684 2.24938,-1.96228 2.4775,-3.91857 0.54193,-4.64778 -6.59077,-11.16331 -20.80675,-19.01075 -5.816,-3.21054 -11.04262,-6.57013 -11.62083,-7.47509 -0.57823,-0.90497 -1.05656,-3.80986 -1.06483,-6.44577 -0.0124,-3.81149 -0.7662,-5.15525 -3.67011,-6.55934 -1.17347,-0.56739 -2.37142,-0.89303 -3.52813,-0.99384 -0.28918,-0.0252 -0.57587,-0.0328 -0.85897,-0.0284 z m 13.73629,31.87388 c -0.28385,-0.016 -0.58493,-0.0108 -0.90865,0.007 -6.23399,0.35398 -20.65058,3.72355 -20.65058,4.82723 0,1.58865 4.88715,3.94696 8.18499,3.94696 1.9862,0 2.84664,0.87941 2.84664,2.92473 0,2.6892 -0.56487,2.87902 -6.8859,2.27164 -5.04281,-0.48455 -6.90718,-0.18231 -6.90718,1.11452 0,0.97528 1.24449,2.1664 2.76145,2.64787 2.97933,0.94561 3.59332,2.77337 1.38428,4.13864 -2.09878,1.29711 -1.65671,5.64495 0.78797,7.67386 1.91859,1.59221 1.60176,2.10623 -2.74726,4.3374 -5.41646,2.77882 -6.52417,6.86276 -2.52719,9.3421 2.41676,1.49918 23.00191,0.76861 27.55777,-0.97964 1.46032,-0.56038 1.86866,-0.31133 1.2068,0.75958 -1.40708,2.27664 2.217,2.03308 5.45193,-0.36914 4.55535,-3.38268 1.01162,-6.89236 -7.4609,-7.38991 -5.97243,-0.35074 -7.10596,-0.84208 -7.10596,-3.10221 0,-1.47733 0.58288,-2.68336 1.29199,-2.68336 0.70911,0 2.95538,-0.64163 4.9834,-1.41268 3.13121,-1.19048 3.41383,-1.72274 1.90959,-3.53523 -1.14524,-1.37998 -2.94548,-1.83729 -5.08988,-1.29909 -2.66877,0.66982 -3.21805,0.35278 -2.83954,-1.63274 0.26814,-1.40646 1.94727,-2.68128 3.90437,-2.95312 5.11512,-0.71048 7.28921,-2.87249 5.29575,-5.27445 -1.06385,-1.28185 -2.95084,-1.65263 -5.53001,-1.08613 -5.48388,1.20446 -5.27006,-2.72499 0.30525,-5.6081 4.81472,-2.48976 5.03872,-6.42649 0.78087,-6.66582 z m -13.53752,21.25398 c 1.20477,0.025 1.63274,0.82614 1.63274,2.54139 0,1.91987 -0.90982,2.56688 -3.44295,2.42071 -3.83919,-0.22152 -4.64338,-2.89139 -1.26359,-4.18833 1.35357,-0.51941 2.35093,-0.78869 3.0738,-0.77377 z m 0.94415,10.22945 c 0.64867,0.0716 0.68859,0.92146 0.68859,2.76856 0,2.39065 -0.75007,3.49442 -2.40651,3.50683 -1.32735,0.011 -3.96746,0.42953 -5.86366,0.92995 -3.14471,0.82991 -3.27881,0.69713 -1.48366,-1.49076 1.08248,-1.31927 3.71548,-3.3083 5.85656,-4.41549 1.4156,-0.73203 2.32264,-1.17778 2.89633,-1.27779 0.11956,-0.0208 0.21968,-0.0315 0.31235,-0.0213 z"
       transform="matrix(0.44526861,0,0,0.44526861,359.39028,426.05043)" />
    <path
       id="path3008"
       style="fill:#b0b0b0;fill-opacity:1"
       d="m 724.7318,652.54643 -15.69557,4.15993 c -8.63093,2.28753 -15.78624,4.25683 -15.90144,4.38 -0.22854,0.24434 -15.42063,101.75294 -15.41163,102.97603 0.003,0.4125 21.15882,0.74538 47.00864,0.74538 25.84988,0 46.99854,-0.33288 47.00154,-0.74538 0.009,-1.22309 -15.18308,-102.73169 -15.41162,-102.97603 -0.1152,-0.12317 -7.27051,-2.09247 -15.90144,-4.38 z m 0,3.22998 c 0.825,0 7.66462,1.63692 15.19866,3.64171 12.76128,3.39584 13.73415,3.8244 14.22611,6.2683 0.29045,1.44284 3.46803,22.64734 7.06336,47.12222 3.59539,24.47482 6.76403,45.51558 7.04207,46.75308 l 0.50402,2.25034 h -44.09811 -44.0981 l 0.56791,-2.75436 c 0.31388,-1.5125 3.51344,-22.54616 7.10595,-46.74598 3.59258,-24.19988 6.77272,-45.18246 7.06337,-46.6253 0.49229,-2.44383 1.46515,-2.87255 14.22611,-6.2683 7.53404,-2.00479 14.37365,-3.64171 15.19865,-3.64171 z m -5.74297,21.44565 c -0.58339,0.004 -1.15681,0.0614 -1.70373,0.19877 -4.27678,1.07339 -4.3832,2.77028 -0.36204,5.5868 l 3.0809,2.15805 -3.1022,5.84946 c -3.48015,6.54697 -12.72389,16.73053 -23.07129,25.42101 -3.79234,3.18515 -6.35979,5.82518 -5.70748,5.86366 3.72374,0.21926 19.3427,-10.20933 27.50808,-18.37184 l 9.47697,-9.49118 7.11306,6.8362 c 13.50183,12.96142 23.53527,21.09781 26.01022,21.09781 1.85544,0 2.4775,-1.07459 2.4775,-4.25932 0,-5.34429 -4.00936,-9.00153 -21.06232,-19.19531 -12.63997,-7.55582 -12.7007,-7.62842 -12.26682,-12.66436 0.35942,-4.17176 -0.18974,-5.46739 -3.1022,-7.37571 -1.67748,-1.09913 -3.53852,-1.66736 -5.28865,-1.65404 z m 14.02734,31.90227 c -5.32732,0.18197 -21.94967,3.88888 -21.94967,5.16087 0,1.59589 4.87928,3.95406 8.18499,3.95406 1.99056,0 2.84664,0.88621 2.84664,2.94603 0,2.76201 -0.47528,2.88677 -7.58158,2.05157 -8.34779,-0.98106 -9.74089,0.41877 -4.09604,4.11734 3.15277,2.06579 3.29507,2.50584 1.41267,4.58586 -1.86292,2.05858 -1.84801,2.65444 0.15617,5.51581 1.96531,2.8059 1.98816,3.33914 0.19167,4.3445 -1.12752,0.63099 -3.54589,2.40689 -5.37383,3.95407 l -3.32937,2.81824 3.26548,2.75436 c 3.51286,2.97601 10.07479,3.41778 23.24876,1.54045 5.87745,-0.83755 6.9167,-0.69469 5.68618,0.78798 -1.99013,2.39797 -0.56992,2.29205 4.50778,-0.33365 3.01924,-1.56131 4.0325,-2.97777 3.7198,-5.17507 -0.37756,-2.65306 -1.40393,-3.0729 -8.36246,-3.43584 -6.46284,-0.33709 -7.92942,-0.85883 -7.92942,-2.81825 0,-1.52229 1.64139,-2.8843 4.47938,-3.7198 2.47814,-0.72957 4.48648,-2.24951 4.48648,-3.39326 0,-1.45613 -1.33154,-2.01013 -4.48648,-1.867 -2.84617,0.12908 -4.47938,-0.44583 -4.47938,-1.57594 0,-1.96713 2.98332,-3.44295 6.92849,-3.44295 3.47966,0 4.72414,-2.43158 2.57688,-5.01889 -1.17198,-1.41214 -3.0603,-1.86261 -5.62939,-1.34879 -5.43238,1.0865 -5.21491,-2.96741 0.26265,-4.87691 4.09704,-1.42822 5.66975,-5.58432 2.78276,-7.36862 -0.21861,-0.13514 -0.7581,-0.18217 -1.51916,-0.15617 z m -13.53042,21.84319 c 0.81481,-0.0302 1.2352,0.51365 1.2352,1.60434 0,1.44451 -1.19573,2.20774 -3.44295,2.20774 -1.8962,0 -3.45004,-0.61869 -3.45004,-1.37718 0,-0.75848 0.56716,-1.37717 1.26359,-1.37717 0.69646,0 2.2432,-0.37728 3.44295,-0.83767 0.35787,-0.13735 0.67964,-0.20998 0.95125,-0.22006 z m 1.47656,8.90906 -0.45433,3.25838 c -0.34967,2.43629 -1.62274,3.49927 -5.01179,4.18833 -5.60316,1.13915 -5.25849,-0.65914 0.88736,-4.55037 z"
       transform="matrix(0.44526861,0,0,0.44526861,359.39028,426.05043)" />
    <path
       id="path3006"
       style="fill:#8e8e8e;fill-opacity:1"
       d="m 724.7318,652.7239 -15.80915,4.13154 -15.80206,4.12443 -7.31183,49.1667 c -4.02183,27.04049 -7.54277,50.40145 -7.82294,51.91395 l -0.50402,2.74725 h 47.25 47.25 l -0.51111,-2.74725 c -0.28017,-1.5125 -3.80106,-24.87346 -7.82295,-51.91395 l -7.31182,-49.1667 -15.80206,-4.12443 z m 0,2.62658 13.58722,3.47844 c 7.47584,1.91382 14.06838,3.77621 14.64494,4.13154 0.75709,0.46653 15.48866,93.2717 15.73107,99.10006 0.0172,0.41244 -19.76335,0.75247 -43.96323,0.75247 -34.55428,0 -43.99442,-0.26779 -43.96322,-1.24939 0.18329,-5.76971 14.89343,-98.09293 15.70977,-98.59605 0.58432,-0.36013 7.18329,-2.22481 14.65914,-4.13863 z m -5.48741,22.88672 c -4.45952,0 -5.28219,2.23599 -1.76762,4.80592 1.54246,1.12792 1.99939,2.73103 1.41267,4.9834 -1.3898,5.3354 -10.65191,16.49345 -20.4873,24.68273 -5.01636,4.17679 -8.90847,7.81838 -8.65351,8.0856 1.59439,1.67102 15.34426,-7.58991 24.2781,-16.34867 l 10.5418,-10.35013 6.69422,5.99853 c 3.68224,3.29706 10.93479,9.68655 16.12151,14.20482 5.18668,4.51821 10.1576,7.98416 11.03872,7.69516 0.88114,-0.289 1.787,-2.08965 2.01608,-4.00376 0.54041,-4.51601 -5.23126,-9.63485 -21.7438,-19.2663 -12.17773,-7.10298 -12.4553,-7.37859 -11.66343,-11.59953 1.00792,-5.37269 -2.07036,-8.88777 -7.78744,-8.88777 z m 13.36715,31.14269 c -1.81879,0.0313 -4.93356,0.54003 -7.97202,1.34878 -4.05129,1.07833 -8.91536,1.98188 -10.81156,2.01608 l -3.44295,0.071 3.24418,2.71176 c 1.79062,1.49173 4.43783,2.71176 5.87076,2.71176 1.68596,0 2.59818,0.96243 2.59818,2.74726 0,2.40158 -0.93668,2.76799 -7.24084,2.81115 l -7.23373,0.0497 3.91147,3.20159 c 3.20744,2.62399 3.52037,3.36449 1.72502,4.05344 -2.74444,1.05314 -2.82032,4.82305 -0.16327,7.75906 1.80982,1.99982 1.51769,2.50855 -2.76146,4.81302 -5.52463,2.97521 -6.2862,7.10614 -1.67533,9.07234 2.98395,1.27242 18.8625,0.64499 25.71916,-1.01513 2.28288,-0.5527 3.00226,-0.30943 2.32843,0.78087 -1.38663,2.24361 2.26964,1.9672 5.47322,-0.41173 4.55535,-3.38268 1.01162,-6.89236 -7.4609,-7.38991 -5.97244,-0.35074 -7.10596,-0.84208 -7.10596,-3.10221 0,-1.47733 0.58288,-2.68336 1.29199,-2.68336 0.70911,0 2.95538,-0.64163 4.9834,-1.41268 3.0476,-1.1587 3.38888,-1.74894 1.99478,-3.42874 -1.09057,-1.31405 -2.89586,-1.72733 -5.11118,-1.17132 -2.83243,0.71089 -3.33942,0.40772 -2.93183,-1.73922 0.31568,-1.66277 1.87896,-2.7539 4.3516,-3.03831 4.3329,-0.49838 6.48878,-4.03456 3.56363,-5.84236 -1.05233,-0.65036 -3.306,-0.83454 -5.01889,-0.40463 -4.99801,1.25442 -4.09824,-4.06135 1.01513,-5.99144 4.32796,-1.63362 5.52162,-5.11185 2.19355,-6.38897 -0.26712,-0.10247 -0.72832,-0.13826 -1.33458,-0.12778 z m -13.52333,21.33207 c 1.20477,0.025 1.63274,0.82614 1.63274,2.54139 0,1.91987 -0.90982,2.56688 -3.44295,2.42071 -3.83919,-0.22152 -4.64338,-2.89139 -1.26359,-4.18833 1.35357,-0.51941 2.35093,-0.78869 3.0738,-0.77377 z m 2.15805,9.78932 c 0.10288,0.0144 0.18804,0.046 0.24137,0.0994 1.31749,1.31749 -1.35259,6.59945 -3.34357,6.61613 -1.23887,0.011 -3.79708,0.42953 -5.69328,0.92995 -3.14471,0.82991 -3.27882,0.69713 -1.48366,-1.49076 1.95845,-2.38684 8.73628,-6.36963 10.27914,-6.15471 z"
       transform="matrix(0.44526861,0,0,0.44526861,359.39028,426.05043)" />
    <path
       id="path3004"
       style="fill:#6f6f6f;fill-opacity:1"
       d="m 724.7318,652.78069 -15.24834,4.06055 c -8.38638,2.23429 -15.52966,4.38431 -15.87305,4.77043 -0.34339,0.38612 -3.85035,22.52731 -7.78745,49.20219 -3.93704,26.67482 -7.40043,49.73416 -7.70226,51.24666 l -0.55371,2.74725 h 47.16481 47.15772 l -0.55371,-2.74725 c -0.30183,-1.5125 -3.76522,-24.57184 -7.70226,-51.24666 -3.93711,-26.67488 -7.44406,-48.81607 -7.78745,-49.20219 -0.34339,-0.38612 -7.47963,-2.53614 -15.86595,-4.77043 z m 0,2.33553 14.10543,3.75529 c 7.76129,2.06743 14.43831,4.13885 14.83662,4.60006 0.39831,0.46121 3.77291,21.53839 7.49639,46.83827 3.72354,25.29982 7.0088,47.46438 7.29763,49.25188 l 0.52531,3.25127 h -44.1336 c -24.27178,0 -44.1388,-0.34003 -44.1478,-0.75247 -0.0571,-2.72275 14.50203,-97.91776 15.07798,-98.58895 0.39577,-0.46121 7.06828,-2.53263 14.82951,-4.60006 z m -5.48741,23.12098 c -4.30689,0 -5.66941,3.22167 -1.96639,4.64265 1.13773,0.43658 2.05867,1.84585 2.05867,3.1306 0,5.68368 -13.4002,21.64055 -26.89047,32.02295 -2.80717,2.16046 -3.24863,2.911 -1.37718,2.32132 6.4944,-2.04633 18.08388,-10.30723 25.39261,-18.09499 l 7.87264,-8.39085 4.85562,4.25222 c 2.66788,2.33888 9.9667,8.78896 16.22089,14.33259 11.43284,10.1341 14.26445,11.32366 15.01408,6.28249 0.68466,-4.60426 -4.75167,-9.73445 -19.8768,-18.72678 -14.27555,-8.48715 -14.48748,-8.68406 -13.6795,-12.99091 1.01513,-5.41116 -1.90835,-8.78129 -7.62417,-8.78129 z m 13.43813,31.14269 c -1.69296,0.0345 -4.5211,0.55584 -7.22663,1.37008 -3.60732,1.08566 -8.46704,1.99084 -10.81156,2.01607 l -4.25932,0.0497 3.24418,2.71176 c 1.79062,1.49173 4.43783,2.71176 5.87076,2.71176 1.68596,0 2.59818,0.96243 2.59818,2.74726 0,2.39916 -0.9186,2.76146 -7.06337,2.76146 -6.12284,0 -6.8334,0.27286 -5.34544,2.06577 0.94423,1.13772 2.57558,2.07996 3.62042,2.07996 2.54242,0 2.41655,2.24876 -0.17747,3.24418 -2.7643,1.06076 -2.61518,4.27775 0.33365,7.22664 1.6449,1.6449 1.89179,2.57099 0.76667,2.94602 -3.08774,1.02926 -8.6748,6.08398 -8.6748,7.84424 0,0.96676 1.39567,2.46872 3.1022,3.33646 3.01339,1.53221 8.27923,1.3808 22.26912,-0.6247 4.9727,-0.71287 6.51054,-0.54832 5.78557,0.6247 -1.24027,2.00705 -0.47227,2.01034 3.93986,0 7.21716,-3.28829 1.88097,-8.71284 -7.67386,-7.80164 -4.79899,0.45767 -5.36674,0.18007 -5.36674,-2.60528 0,-2.25694 1.04843,-3.36786 3.79789,-4.02505 5.52095,-1.31963 6.17337,-1.92951 4.38709,-4.08185 -1.0137,-1.22143 -2.86034,-1.60837 -5.02599,-1.06483 -5.47063,1.37305 -3.52086,-3.93087 2.03028,-5.52291 2.45985,-0.70548 4.47228,-2.12389 4.47228,-3.15189 0,-1.94912 -1.35565,-2.3382 -6.55935,-1.91669 -4.81432,0.38998 -4.02279,-4.51482 1.03643,-6.42447 4.32355,-1.63195 5.52174,-5.1075 2.20065,-6.38187 -0.26602,-0.10205 -0.70637,-0.14633 -1.2707,-0.13488 z m -14.2403,21.43855 c 0.24403,-0.0124 0.46052,-0.0136 0.66019,0.007 1.19796,0.12315 1.61854,0.85665 1.61854,2.4704 0,2.19375 -0.78821,2.76464 -3.48554,2.54139 -4.36711,-0.36138 -4.04334,-4.30621 0.40463,-4.9408 0.29267,-0.0417 0.55815,-0.0662 0.80218,-0.0781 z m 2.39231,9.47698 c 1.52096,0 1.70695,5.07958 0.22007,5.99853 -0.57464,0.35515 -3.37081,1.08428 -6.2186,1.61854 -4.07846,0.76513 -5.02439,0.57967 -4.45099,-0.90155 0.74807,-1.93248 8.18682,-6.71552 10.44952,-6.71552 z"
       transform="matrix(0.44526861,0,0,0.44526861,359.39028,426.05043)" />
    <path
       id="path3002"
       style="fill:#4f4f4f;fill-opacity:1"
       d="m 724.7318,652.94397 -15.70267,4.18122 -15.70267,4.18833 -7.23374,48.4994 c -3.97791,26.67482 -7.46117,49.96318 -7.73776,51.75068 l -0.49692,3.24417 h 46.87376 46.87376 l -0.50401,-3.24417 c -0.27659,-1.7875 -3.75985,-25.07586 -7.73776,-51.75068 l -7.23374,-48.4994 -15.70267,-4.18833 z m 0,2.03027 14.06284,3.78369 c 7.73692,2.08173 14.43036,4.18553 14.87211,4.67105 0.631,0.69353 15.14587,95.64207 15.07797,98.63154 -0.009,0.41244 -19.81304,0.75247 -44.01292,0.75247 -34.5238,0 -44.00632,-0.26865 -44.02002,-1.24939 -0.0481,-3.45129 14.37611,-97.37617 15.07088,-98.13462 0.44476,-0.48552 7.14223,-2.58932 14.87921,-4.67105 z m -5.60809,23.26296 c -4.60336,0 -4.95261,1.39405 -1.21391,4.77753 2.68353,2.42854 2.68608,2.48197 -0.0568,7.85844 -3.46302,6.78803 -10.67068,14.84042 -20.99132,23.44752 -4.40065,3.67001 -7.50123,6.66563 -6.89299,6.65873 3.5136,-0.0411 17.56083,-9.97214 25.50619,-18.0311 l 9.22852,-9.37049 9.39179,8.57542 c 5.16111,4.71361 12.43886,11.20864 16.1712,14.43198 7.27307,6.28125 9.49377,6.66497 10.20815,1.79601 0.59767,-4.07359 -6.50789,-10.71399 -18.65579,-17.44189 -15.93721,-8.82661 -17.09049,-9.86757 -15.30514,-13.78599 2.0082,-4.40745 -1.73165,-8.91616 -7.38991,-8.91616 z m 12.47269,31.43374 c -1.37925,0.0636 -3.2583,0.43218 -5.82106,1.11452 -3.91632,1.04274 -8.98335,1.92509 -11.25879,1.95929 l -4.13154,0.071 3.24418,2.71176 c 1.79062,1.49173 4.43783,2.71176 5.87076,2.71176 1.68596,0 2.59818,0.96243 2.59818,2.74726 0,2.39916 -0.9186,2.76146 -7.06337,2.76146 -6.12284,0 -6.8334,0.27286 -5.34544,2.06577 0.94423,1.13772 2.57558,2.07996 3.62042,2.07996 2.54242,0 2.41655,2.24876 -0.17747,3.24418 -2.68148,1.029 -2.63667,4.25638 0.0923,6.98528 2.30186,2.30185 1.5897,4.9337 -1.33458,4.9337 -2.60701,0 -6.75914,5.09071 -5.63649,6.90719 0.5311,0.85943 2.29669,2.09711 3.92566,2.75436 4.03677,1.62876 4.94441,1.6102 16.11441,-0.30525 7.79058,-1.33593 9.97776,-1.32681 10.83286,0.0568 0.81381,1.31671 1.86503,1.06791 4.39419,-1.07193 3.30488,-2.79617 3.31993,-2.84298 0.58211,-5.00469 -1.8988,-1.49926 -4.59004,-1.98017 -8.62511,-1.54756 -5.36485,0.57517 -5.86366,0.36425 -5.86366,-2.51299 0,-2.27313 1.18466,-3.56124 4.26641,-4.63556 2.49104,-0.86839 3.99543,-2.20574 3.62042,-3.22998 -0.35283,-0.96366 -1.18203,-1.65278 -1.8457,-1.53335 -6.38322,1.14874 -6.72972,1.06707 -6.72972,-1.59724 0,-2.04068 1.34172,-3.08695 5.16797,-4.03215 6.65848,-1.64485 6.89126,-4.93371 0.34784,-4.93371 -6.38265,0 -6.84982,-4.53934 -0.68859,-6.68713 4.39744,-1.53294 5.06477,-2.86465 2.64078,-5.28864 -0.53934,-0.53933 -1.4177,-0.78768 -2.79695,-0.72409 z m -12.67856,20.97003 c 2.47393,0 3.26683,0.65425 2.93183,2.42071 -0.4643,2.4483 -6.57384,4.08863 -8.40505,2.25744 -1.64276,-1.64277 1.90325,-4.67815 5.47322,-4.67815 z m 3.18029,8.19208 v 3.40745 c 0,1.8741 -0.46889,3.6983 -1.04353,4.05345 -0.57464,0.35515 -3.37081,1.08428 -6.2186,1.61854 -6.76131,1.26843 -5.92572,-1.52673 1.77471,-5.93464 z"
       transform="matrix(0.44526861,0,0,0.44526861,359.39028,426.05043)" />
    <path
       id="path3000"
       style="fill:#2f2f2f;fill-opacity:1"
       d="m 724.7318,653.00786 -15.5394,4.13153 c -12.95688,3.44358 -15.61746,4.46158 -15.99372,6.14761 -0.24816,1.11205 -3.60103,23.39676 -7.45381,49.52164 -3.85273,26.12482 -7.24336,48.51845 -7.53188,49.75589 l -0.52532,2.24324 h 47.04413 47.03704 l -0.52532,-2.24324 c -0.28852,-1.23744 -3.6791,-23.63107 -7.53189,-49.75589 -3.85272,-26.12488 -7.20564,-48.40959 -7.4538,-49.52164 -0.37626,-1.68603 -3.03684,-2.70403 -15.99372,-6.14761 z m 0,1.8315 14.61655,3.93277 c 8.03905,2.16437 14.72103,4.07297 14.85081,4.23802 0.31211,0.39694 14.55377,96.93893 14.53847,98.55345 -0.009,0.98082 -9.47899,1.24939 -44.00583,1.24939 -41.23522,0 -44.00692,-0.11342 -44.01292,-1.75341 -0.008,-1.96025 14.17734,-97.57862 14.54556,-98.04943 0.12909,-0.16505 6.81176,-2.07365 14.85081,-4.23802 z m -5.42352,23.39784 c -4.79045,0 -5.17055,1.23846 -1.37718,4.48648 1.7454,1.49445 2.40966,3.21701 1.8386,4.78463 -2.01573,5.53329 -9.2386,14.44734 -19.35149,23.87346 l -10.71927,9.99519 7.57448,-3.98246 c 4.17165,-2.19235 12.17389,-8.54047 17.77554,-14.10543 l 10.18686,-10.12297 8.42635,8.15658 c 20.08837,19.42734 28.48135,24.47141 26.45034,15.88015 -1.09334,-4.62492 -5.38467,-8.39613 -18.0098,-15.79496 -16.32264,-9.56569 -17.44717,-10.54018 -15.75947,-13.6937 2.2241,-4.15573 -1.72681,-9.47697 -7.03496,-9.47697 z m 11.94737,32.70444 c -2.70968,-0.0474 -6.87032,0.33947 -12.96961,1.15711 -5.76151,0.77237 -6.95816,1.35268 -5.77137,2.78275 0.82273,0.99134 3.35566,2.19973 5.62229,2.69757 3.22474,0.70827 4.03032,1.56159 3.69851,3.89017 -0.3787,2.65775 -1.16085,2.93228 -7.31892,2.58399 -6.40981,-0.36254 -6.71224,-0.23999 -4.22382,1.72502 1.47231,1.1626 3.49372,2.11546 4.48647,2.11546 0.99276,0 1.81021,0.64224 1.81021,1.43397 0,0.79173 1.07917,1.2522 2.40652,1.02933 1.62905,-0.27353 2.42071,0.49505 2.42071,2.35683 0,2.10369 -1.06796,2.86487 -4.48648,3.19448 -4.7115,0.45428 -5.64164,-0.78992 -2.76146,-3.6914 1.38216,-1.39239 1.25354,-1.54594 -0.68149,-0.80927 -1.32734,0.50532 -2.42071,1.41503 -2.42071,2.03027 0,2.77905 1.86122,5.48742 3.7695,5.48742 1.7877,0 1.81776,0.32695 0.19876,2.27873 -1.74164,2.09959 -1.54029,2.09671 2.58399,-0.0355 l 4.47938,-2.32133 v 4.05345 c 0,3.66309 -0.53653,4.14076 -5.6081,4.99759 -6.5152,1.10075 -7.95945,0.28725 -5.27445,-2.96732 1.74598,-2.1163 1.64384,-2.17576 -1.10742,-0.70989 -1.66434,0.88674 -3.41758,2.25779 -3.90438,3.04541 -1.21126,1.9599 1.67101,5.15194 5.31705,5.89206 1.6515,0.33512 4.26531,0.39218 5.81396,0.12778 11.424,-1.95128 18.91181,-2.22798 19.84131,-0.72409 0.74046,1.19809 1.9191,0.90951 4.3445,-1.07192 4.61429,-3.76963 1.90642,-6.20441 -6.90719,-6.20441 -5.36078,0 -6.95138,-0.52785 -7.4538,-2.4491 -0.71318,-2.72717 1.20181,-4.74627 5.17507,-5.48742 1.45412,-0.27125 2.93251,-1.36395 3.28677,-2.42781 0.50439,-1.5147 -0.44122,-1.7656 -4.3658,-1.12872 -4.29136,0.69639 -5.01179,0.43566 -5.01179,-1.81021 0,-2.917 3.82717,-5.47322 8.18498,-5.47322 1.61288,0 2.84665,-0.8946 2.84665,-2.06576 0,-1.44468 -1.4562,-2.07287 -4.82723,-2.07287 -6.45641,0 -6.84075,-4.54299 -0.56791,-6.72972 2.44583,-0.85263 4.00618,-2.23143 3.66301,-3.23708 -0.31733,-0.92998 -1.57802,-1.41494 -4.28771,-1.46236 z"
       transform="matrix(0.44526861,0,0,0.44526861,359.39028,426.05043)" />
    <path
       id="path2998"
       style="fill:#040404;fill-opacity:1"
       d="m 724.7318,653.3273 -15.46841,3.96117 c -14.38397,3.68353 -15.50453,4.13445 -15.97953,6.48835 -0.86269,4.27518 -14.55266,96.99286 -14.55266,98.56055 0,1.27373 6.17758,1.47656 46.0006,1.47656 39.82302,0 46.0006,-0.20283 46.0006,-1.47656 0,-1.56769 -13.69002,-94.28537 -14.55265,-98.56055 -0.475,-2.3539 -1.59556,-2.80482 -15.97953,-6.48835 z m 0.49692,1.45527 14.44618,3.85468 c 7.94532,2.11864 14.57469,4.26197 14.73013,4.76333 0.54173,1.74734 14.3255,95.52198 14.3255,97.46023 0,1.90823 -1.02623,1.95218 -44.41046,1.95218 -41.77141,0 -44.38183,-0.1073 -44.02002,-1.75341 0.21155,-0.9625 3.58423,-23.34898 7.49639,-49.7488 3.91222,-26.39988 7.411,-48.26766 7.77325,-48.59169 0.36224,-0.32402 7.18107,-2.23835 15.15607,-4.25931 z m -7.16984,23.45463 c -3.72699,0 -3.61885,1.8978 0.25556,4.52197 l 3.1022,2.10836 -3.24418,6.2328 c -3.38344,6.51453 -14.01326,18.43728 -22.26912,24.96668 l -4.83432,3.81209 7.51769,-3.92567 c 4.13302,-2.15944 11.71355,-8.15941 16.84559,-13.33165 l 9.3279,-9.40599 15.48971,13.94216 c 8.51672,7.66458 16.39559,13.7544 17.51288,13.53752 7.01784,-1.3623 -1.44493,-11.0608 -17.81813,-20.43052 -6.75426,-3.86511 -12.72567,-7.75779 -13.27487,-8.6464 -0.54914,-0.88863 -0.81907,-3.59909 -0.6105,-6.01984 0.40666,-4.71999 -2.46453,-7.36151 -8.00041,-7.36151 z m 13.18968,32.56956 c -0.27282,-0.005 -0.56401,0.005 -0.87316,0.0213 -14.46643,0.7546 -23.39144,4.58068 -13.44524,5.76427 4.42982,0.52714 6.89392,3.28585 5.70038,6.39607 -0.74931,1.95284 -2.08958,2.20934 -7.95782,1.49786 -6.52667,-0.79131 -6.85721,-0.7009 -4.37999,1.27069 1.47231,1.17179 3.49372,2.13676 4.48647,2.13676 0.99276,0 1.81021,0.55483 1.81021,1.2423 0,0.68748 1.2303,0.922 2.74726,0.52532 2.23917,-0.58557 2.76146,-0.0403 2.76146,2.88923 0,3.20462 -0.53364,3.61332 -4.82013,3.61332 -2.65469,0 -4.82722,0.6187 -4.82722,1.37718 0,0.75848 0.99845,1.38428 2.22904,1.38428 1.93125,0 1.9886,0.32268 0.35494,2.38521 -1.79537,2.26669 -1.7057,2.26669 1.84571,0 4.94038,-3.15326 5.21766,-3.06487 5.21766,1.59015 0,4.12551 -2.45108,5.61614 -9.30661,5.65779 -3.48131,0.0211 -3.94241,-1.31157 -1.38427,-4.01796 1.42119,-1.5035 1.19568,-1.54489 -1.29909,-0.26265 -4.20211,2.15971 -5.09301,4.06519 -3.05251,6.52385 1.44882,1.74573 4.44864,1.97344 17.70455,1.34878 8.77663,-0.41359 16.41876,-0.76391 16.98757,-0.78088 0.56886,-0.017 1.03643,-1.27998 1.03643,-2.79695 0,-2.45166 -0.91525,-2.75435 -8.27017,-2.75435 -7.88107,0 -8.27017,-0.16122 -8.27017,-3.40745 0,-2.67262 0.94605,-3.65162 4.38709,-4.54327 6.5257,-1.69098 7.06012,-5.10722 0.61051,-3.89728 -4.40423,0.82624 -4.9976,0.60833 -4.9976,-1.8315 0,-3.07779 3.7526,-5.6294 8.29147,-5.6294 1.7617,0 2.73083,-0.70034 2.38521,-1.72502 -0.3198,-0.9481 -2.69623,-1.75698 -5.28155,-1.79601 -6.12962,-0.0927 -6.53532,-4.49037 -0.69569,-7.51059 4.39203,-2.27156 4.39748,-4.60175 0.30526,-4.67105 z"
       transform="matrix(0.44526861,0,0,0.44526861,359.39028,426.05043)" />
  </g>
</svg>
