<?xml version="1.0" encoding="UTF-8" standalone="no"?>
<!-- Created with Inkscape (http://www.inkscape.org/) -->

<svg
   viewBox="0 0 35.349998 38.720001"
   id="svg2992"
   version="1.1"
   inkscape:version="1.3.2 (091e20e, 2023-11-25, custom)"
   sodipodi:docname="Kin.svg"
   xmlns:inkscape="http://www.inkscape.org/namespaces/inkscape"
   xmlns:sodipodi="http://sodipodi.sourceforge.net/DTD/sodipodi-0.dtd"
   xmlns="http://www.w3.org/2000/svg"
   xmlns:svg="http://www.w3.org/2000/svg"
   xmlns:rdf="http://www.w3.org/1999/02/22-rdf-syntax-ns#"
   xmlns:cc="http://creativecommons.org/ns#"
   xmlns:dc="http://purl.org/dc/elements/1.1/">
  <defs
     id="defs2994" />
  <sodipodi:namedview
     id="base"
     pagecolor="#ffffff"
     bordercolor="#666666"
     borderopacity="1.0"
     inkscape:pageopacity="0.0"
     inkscape:pageshadow="2"
     inkscape:zoom="14.178719"
     inkscape:cx="17.702587"
     inkscape:cy="19.360001"
     inkscape:document-units="px"
     inkscape:current-layer="layer1"
     showgrid="false"
     fit-margin-top="0"
     fit-margin-left="0"
     fit-margin-right="0"
     fit-margin-bottom="0"
     inkscape:window-width="1292"
     inkscape:window-height="745"
     inkscape:window-x="-8"
     inkscape:window-y="-8"
     inkscape:window-maximized="1"
     inkscape:showpageshadow="0"
     inkscape:pagecheckerboard="1"
     inkscape:deskcolor="#d1d1d1" />
  <metadata
     id="metadata2997">
    <rdf:RDF>
      <cc:Work
         rdf:about="">
        <dc:format>image/svg+xml</dc:format>
        <dc:type
           rdf:resource="http://purl.org/dc/dcmitype/StillImage" />
      </cc:Work>
    </rdf:RDF>
  </metadata>
  <g
     inkscape:label="Layer 1"
     inkscape:groupmode="layer"
     id="layer1"
     transform="matrix(-0.6179018,0,0,-0.6179018,463.58218,425.36809)"
     style="display:inline">
    <path
       sodipodi:nodetypes="cccccc"
       inkscape:connector-curvature="0"
       id="path3064"
       d="m 747.63916,571.52957 30.3411,8.44362 15.44815,101.36188 -90.49966,-1.07668 14.27956,-100.6476 z"
       style="display:inline;fill:#ffffff;fill-opacity:1;stroke:none"
       transform="matrix(0.44526862,0,0,0.44526862,388.64875,378.36922)" />
    <path
       id="path3043"
       style="fill:#cfcfcf"
       d="m 705.71708,594.78337 -15.06378,3.87598 c -8.28191,2.13013 -15.46966,4.12606 -15.97243,4.43679 -0.75146,0.46443 -15.96533,98.2699 -15.96533,102.63529 0,1.10533 8.32823,1.34168 47.00154,1.34168 38.67331,0 46.99444,-0.23635 46.99444,-1.34168 0,-4.36539 -15.21408,-102.17086 -15.96533,-102.63529 -0.50277,-0.31073 -7.69052,-2.30666 -15.97243,-4.43679 z m 0,3.00992 14.24741,3.78369 c 7.83729,2.0799 14.36188,3.86608 14.49586,3.96826 0.13399,0.10218 3.39547,21.52269 7.25504,47.60495 3.85936,26.08205 7.20085,48.21149 7.4183,49.17378 0.3719,1.64611 -2.21355,1.75342 -43.53019,1.75342 h -43.92774 l 0.51822,-2.25034 c 0.28621,-1.23729 3.67777,-23.36539 7.53189,-49.17378 3.85391,-25.8086 7.11528,-47.00719 7.24793,-47.10803 0.13265,-0.10084 6.65148,-1.88836 14.48877,-3.96826 z m -4.94791,20.13236 c -3.32756,0 -4.60251,2.51972 -2.53429,5.0118 2.4134,2.9082 -3.08225,10.90327 -18.25826,26.52843 -11.39027,11.72756 -11.80826,12.35266 -6.72262,10.25075 7.37698,-3.04911 14.84722,-9.18553 24.32069,-19.97619 l 7.96492,-9.07234 5.24605,4.56457 c 2.88434,2.51 9.81741,8.53138 15.40452,13.38135 10.3985,9.0265 13.75604,10.49344 15.24125,6.62323 1.23739,-3.22457 -5.39134,-9.63462 -19.96909,-19.2876 -9.22919,-6.11135 -12.5862,-9.10639 -12.28102,-10.96773 0.46208,-2.8186 -4.58679,-7.05627 -8.41215,-7.05627 z m 11.50015,26.38646 c -1.30117,-0.0147 -2.91824,0.0231 -4.91951,0.0994 -12.50066,0.47697 -14.30815,1.05144 -11.97577,3.86178 0.95841,1.15481 2.92303,2.10836 4.38,2.10836 5.03431,0 2.63684,2.79328 -3.20159,3.7269 -5.33694,0.85321 -5.62764,1.1 -3.25837,2.83245 1.43039,1.04592 4.07198,1.90249 5.86365,1.90249 3.69467,0 4.43966,3.47598 1.02934,4.78463 -1.2202,0.46825 -3.47838,0.16817 -5.02599,-0.66019 -3.24222,-1.73499 -9.68285,1.57242 -9.68285,4.9692 0,1.08262 -0.36818,2.921 -0.81637,4.08894 -0.48573,1.26581 0.31047,2.7271 1.96639,3.61332 2.26181,1.21048 3.76093,0.70811 8.0643,-2.71177 2.90697,-2.31017 5.9942,-4.19961 6.8575,-4.18832 0.86328,0.0113 0.61028,0.62693 -0.55371,1.36298 -1.85936,1.17576 -1.83177,1.63192 0.24136,3.7056 3.36003,3.36093 6.8149,1.52162 6.8149,-3.62751 0,-3.33637 0.62432,-4.27352 2.82535,-4.27352 3.26576,0 3.77957,3.78942 1.02223,7.56029 -2.07333,2.83544 -10.32674,5.0483 -19.01074,5.09698 -6.22278,0.035 -7.24137,1.01704 -4.23802,4.10314 1.20127,1.23435 3.78963,1.53363 8.114,0.93705 3.49197,-0.48171 11.11101,-1.21588 16.93077,-1.63274 14.32016,-1.02568 15.10949,-1.34267 11.96868,-4.81303 -1.38989,-1.5358 -3.72314,-2.78985 -5.18217,-2.78985 -2.18551,0 -2.39589,-0.48471 -1.19261,-2.73306 3.51949,-6.57661 0.3049,-11.37947 -7.61707,-11.37947 -1.991,0 -3.62042,-0.63668 -3.62042,-1.41267 0,-0.7758 1.4274,-1.42268 3.17319,-1.43397 4.4923,-0.0306 7.26567,-2.13154 6.26119,-4.74914 -0.63317,-1.65004 -1.98101,-2.00322 -5.14667,-1.37008 -2.62125,0.52425 -4.28771,0.27709 -4.28771,-0.63889 0,-0.82383 2.06408,-1.70192 4.58586,-1.94509 2.93884,-0.28336 4.58587,-1.20631 4.58587,-2.56269 0,-1.28665 -1.05167,-1.7873 -4.95501,-1.8315 z m -18.54221,21.7225 c 0.17221,-0.0127 0.32678,-0.0113 0.46852,0 0.85041,0.0684 1.15511,0.58025 0.85186,1.49076 -0.34767,1.0441 -1.76174,2.11712 -3.14479,2.38522 -1.60845,0.31181 -2.28553,-0.19131 -1.8812,-1.40557 0.34768,-1.0441 1.76175,-2.12422 3.1448,-2.39232 0.20106,-0.0389 0.38859,-0.065 0.56081,-0.0781 z"
       transform="matrix(0.44526862,0,0,0.44526862,407.41364,367.2375)" />
    <path
       id="path3041"
       style="fill:#b0b0b0"
       d="m 705.71708,594.81177 -15.69558,4.15993 c -8.63078,2.28753 -15.78624,4.25683 -15.90144,4.38 -0.22854,0.24434 -15.42062,101.75294 -15.41162,102.97603 0.003,0.4125 21.15906,0.74538 47.00864,0.74538 25.84937,0 46.99854,-0.33288 47.00154,-0.74538 0.009,-1.22309 -15.18308,-102.73169 -15.41162,-102.97603 -0.1152,-0.12317 -7.27066,-2.09247 -15.90145,-4.38 z m 0,3.22998 c 0.825,0 7.66476,1.63707 15.19865,3.64171 12.76113,3.39584 13.73415,3.82441 14.22611,6.2683 0.29045,1.44284 3.46798,22.64764 7.06337,47.12222 3.59518,24.47437 6.76402,45.51578 7.04206,46.75307 l 0.50402,2.25034 h -44.0981 -44.09811 l 0.56791,-2.75435 c 0.31388,-1.5125 3.51339,-22.54661 7.10596,-46.74598 3.59237,-24.19958 6.77271,-45.18246 7.06336,-46.6253 0.49229,-2.44383 1.46551,-2.87255 14.22611,-6.2683 7.53389,-2.00464 14.37366,-3.64171 15.19866,-3.64171 z m -4.94791,19.8839 c -3.28721,0 -4.60201,2.51069 -2.59108,4.93371 2.26098,2.72432 -4.26602,12.13436 -18.84037,27.16733 -6.20664,6.40195 -10.83768,11.64212 -10.28624,11.64212 4.2699,0 16.18994,-8.61936 25.25063,-18.25116 5.88993,-6.26082 11.1386,-11.37947 11.65633,-11.37947 0.5175,0 7.23931,5.55519 14.95019,12.34492 14.0368,12.36016 19.73728,15.06184 20.74287,9.83901 0.64169,-3.332 -6.15189,-9.57222 -20.94163,-19.245 -8.30314,-5.43059 -11.8904,-8.59739 -11.56404,-10.20816 0.52897,-2.61084 -4.64812,-6.8433 -8.37666,-6.8433 z m 11.53565,25.59139 c -6.54955,-0.08 -17.65486,2.01308 -17.65486,4.03925 0,1.25991 1.56612,2.29691 3.87597,2.56268 5.68044,0.65362 4.73962,2.47542 -2.11546,4.09604 l -5.99853,1.41978 5.99853,2.52719 c 3.29798,1.38827 5.99854,2.98836 5.99854,3.56363 0,2.06678 -4.33622,2.65996 -7.83714,1.06482 -3.02143,-1.37652 -4.00102,-1.20242 -6.38187,1.17841 -3.62994,3.62994 -4.17787,10.21013 -1.02224,12.25973 1.9276,1.25198 3.4997,0.66099 8.0856,-3.02411 3.13077,-2.51621 5.35629,-3.69792 4.9479,-2.63368 -0.96667,2.51911 2.9679,5.75344 5.71459,4.69945 1.25565,-0.48184 2.13675,-2.57366 2.13675,-5.08988 0,-3.33637 0.62434,-4.27352 2.82535,-4.27352 3.86253,0 3.64545,4.36593 -0.40464,8.17079 -2.40286,2.25737 -5.81936,3.27077 -13.40264,3.97536 -10.47468,0.97355 -11.44348,1.50448 -8.41925,4.61426 1.22276,1.25735 3.93307,1.5442 8.82388,0.93705 3.87998,-0.48166 12.28957,-1.24582 18.6913,-1.70373 6.40195,-0.45789 11.63502,-1.18076 11.63502,-1.60434 0,-1.88405 -4.90002,-5.92755 -7.18404,-5.92755 -2.29857,0 -2.34345,-0.35038 -0.49692,-3.89017 1.1132,-2.13399 2.02604,-4.30776 2.03027,-4.83432 0.023,-2.53171 -4.93049,-5.38804 -9.34209,-5.38804 -2.92092,0 -4.56401,-0.57509 -4.04635,-1.41267 0.47936,-0.77577 2.33947,-1.41267 4.13863,-1.41267 1.79918,0 3.97468,-0.83266 4.82722,-1.8599 2.33858,-2.81782 -0.83681,-5.19375 -5.65069,-4.23092 -2.51959,0.50391 -4.02505,0.21224 -4.02505,-0.78088 0,-0.87299 1.87065,-1.59014 4.15283,-1.59014 4.59948,0 6.852,-2.25584 4.55037,-4.55747 -0.59117,-0.59117 -2.26773,-0.8678 -4.45098,-0.89445 z m -17.67616,22.38979 c 0.92331,-0.0288 0.68072,0.47334 -0.54661,1.95219 -2.23797,2.69659 -4.85597,3.02801 -4.01795,0.51112 0.32296,-0.97 1.7812,-1.99523 3.24417,-2.27874 0.57533,-0.11146 1.01262,-0.17496 1.32039,-0.18457 z"
       transform="matrix(0.44526862,0,0,0.44526862,407.41364,367.2375)" />
    <path
       id="path3039"
       style="fill:#909090"
       d="m 705.71708,594.98924 -15.80916,4.13154 -15.80206,4.12443 -7.31182,49.16669 c -4.02189,27.04025 -7.54277,50.40145 -7.82294,51.91395 l -0.50402,2.74726 h 47.25 47.25 l -0.51112,-2.74726 c -0.28017,-1.5125 -3.80126,-24.8737 -7.82294,-51.91395 l -7.31183,-49.16669 -15.80205,-4.12443 z m -0.10649,2.65497 13.63691,3.46425 c 7.50029,1.90649 14.11683,3.75931 14.70174,4.11734 0.76183,0.46624 15.37777,92.58309 15.72397,99.10005 0.0219,0.4125 -19.75676,0.75248 -43.95613,0.75248 -34.55389,0 -43.99443,-0.26774 -43.96323,-1.2494 0.18335,-5.7695 14.89343,-98.09291 15.70977,-98.59604 0.58432,-0.36013 7.16235,-2.21794 14.60945,-4.12443 z m -5.42352,20.58669 c -0.50859,0.01 -0.98946,0.0904 -1.41977,0.25556 -1.67625,0.6433 -1.74832,1.3038 -0.35495,3.53523 1.46827,2.35107 0.96338,3.87989 -3.54943,10.67669 -2.89839,4.36511 -9.82952,12.36019 -15.39742,17.75424 -5.5681,5.39425 -9.18919,9.80634 -8.0501,9.80352 3.93923,-0.0113 14.81023,-8.37489 24.64723,-18.96105 l 9.87451,-10.63409 15.38323,13.38845 c 8.45999,7.36224 16.16663,13.38135 17.12954,13.38135 3.43057,0 3.28935,-4.21522 -0.28395,-8.46184 -1.99668,-2.37291 -9.42328,-8.1464 -16.51195,-12.82054 -9.69335,-6.39129 -12.89152,-9.26169 -12.89152,-11.57114 0,-2.99345 -5.01529,-6.4195 -8.57542,-6.34638 z m 10.5489,25.74756 c -4.59657,0.0547 -10.81107,0.6978 -14.39648,1.69663 -2.0176,0.56207 -2.20259,1.12701 -0.88736,2.71176 0.91186,1.09873 2.84494,1.99478 4.30191,1.99478 5.03431,0 2.63685,2.79328 -3.20159,3.7269 -5.33694,0.85323 -5.62764,1.1 -3.25837,2.83245 1.43039,1.04592 4.07198,1.90249 5.86365,1.90249 1.9847,0 3.25128,0.84878 3.25128,2.16515 0,3.04149 -3.79083,4.13151 -7.87263,2.27164 -2.88411,-1.3141 -3.91797,-1.10803 -6.2541,1.2281 -1.54919,1.54919 -2.80405,4.69393 -2.80405,7.03497 0,5.7088 4.33498,5.66902 10.89675,-0.0923 2.70591,-2.37583 5.30754,-3.92097 5.78557,-3.44294 0.47804,0.47804 -0.0582,1.4452 -1.19971,2.15095 -1.79981,1.11283 -1.76961,1.6018 0.27686,3.64881 3.28396,3.28484 6.8149,1.51865 6.8149,-3.40035 0,-4.73853 0.93905,-6.00738 3.66301,-4.9621 2.7127,1.04096 2.48361,5.16823 -0.48982,8.80968 -1.98058,2.42576 -4.67957,3.22701 -13.6582,4.03925 -10.87126,0.9835 -11.11753,1.08386 -8.58962,3.60622 1.95395,1.9495 3.86586,2.39134 7.66677,1.78181 2.78432,-0.4465 10.61663,-1.22477 17.4064,-1.73212 8.38002,-0.62617 12.34491,-1.4756 12.34491,-2.66207 0,-3.04202 -4.01477,-5.28251 -7.78035,-4.3374 l -3.57072,0.90155 2.85374,-2.86084 c 5.82992,-5.82973 2.45206,-12.73535 -6.2257,-12.73535 -1.991,0 -3.62042,-0.63668 -3.62042,-1.41267 0,-0.77581 1.42739,-1.42268 3.17319,-1.43397 4.46128,-0.0303 7.26881,-2.12914 6.28249,-4.69944 -0.65632,-1.71018 -1.77733,-1.90545 -5.15377,-0.93705 -3.36983,0.96645 -4.30191,0.79806 -4.30191,-0.78088 0,-1.29247 1.49507,-2.02317 4.15283,-2.02317 4.70441,0 7.05657,-2.50371 4.13864,-4.40129 -0.68025,-0.44239 -2.85016,-0.62203 -5.6081,-0.58921 z m -17.00886,22.05615 c 0.17221,-0.0127 0.32678,-0.0113 0.46852,0 0.85041,0.0684 1.15511,0.58024 0.85186,1.49076 -0.34767,1.0441 -1.76174,2.11712 -3.14479,2.38522 -1.60845,0.31181 -2.28553,-0.19131 -1.8812,-1.40557 0.34768,-1.0441 1.76175,-2.12422 3.1448,-2.39232 0.20106,-0.0389 0.38859,-0.065 0.56081,-0.0781 z"
       transform="matrix(0.44526862,0,0,0.44526862,407.41364,367.2375)" />
    <path
       id="path3037"
       style="fill:#6f6f6f"
       d="m 705.71708,595.04603 -15.24835,4.06055 c -8.38617,2.23429 -15.53375,4.38431 -15.88015,4.77043 -0.34619,0.38612 -3.84588,22.52761 -7.78034,49.20219 -3.93467,26.67437 -7.40102,49.73415 -7.70226,51.24665 l -0.55372,2.74726 h 47.16482 47.15771 l -0.54661,-2.74726 c -0.30125,-1.5125 -3.76779,-24.57228 -7.70226,-51.24665 -3.93467,-26.67458 -7.44105,-48.81607 -7.78745,-49.20219 -0.3464,-0.38612 -7.48667,-2.53614 -15.87305,-4.77043 z m 0,2.33553 14.15512,3.80498 c 7.78838,2.09561 14.4656,4.16636 14.83661,4.60006 0.371,0.43391 3.72317,21.489 7.44671,46.78858 3.72333,25.29937 7.00879,47.46458 7.29762,49.25187 l 0.52532,3.25128 h -44.1336 c -24.27154,0 -44.1388,-0.33998 -44.1478,-0.75248 -0.0538,-2.56923 14.48519,-97.89969 15.02828,-98.53925 0.36846,-0.4337 7.04093,-2.50445 14.82952,-4.60006 z m -5.43773,21.26818 c -2.35044,-0.0646 -3.55177,1.06414 -1.93089,3.01701 3.18949,3.84309 -4.50298,15.42856 -19.73482,29.75131 -5.1504,4.84318 -8.85469,8.81683 -8.24178,8.82388 4.04863,0.0449 14.64214,-7.71512 24.29939,-17.80393 l 11.29429,-11.8125 15.38322,13.40264 c 8.45984,7.37078 16.23375,13.40265 17.27152,13.40265 1.05029,0 1.8812,-1.49701 1.8812,-3.37906 0,-4.1192 -5.34013,-8.99939 -20.95583,-19.14562 -9.03259,-5.86853 -11.37237,-8.05425 -10.74057,-10.04488 0.58256,-1.83546 -0.36843,-3.15631 -3.40745,-4.72784 -1.88273,-0.97361 -3.70801,-1.44489 -5.11828,-1.48366 z m 10.32884,25.08736 c -2.78215,0.1243 -6.82644,0.74643 -12.85603,1.90249 -3.29654,0.63204 -3.65457,1.10331 -2.20775,2.84665 0.95288,1.14795 2.92263,1.77248 4.38,1.39137 1.9102,-0.49953 2.51688,-0.0248 2.19355,1.67533 -0.29957,1.57512 -2.29502,2.58847 -6.02693,3.05961 l -5.58681,0.70279 3.90438,1.76761 c 2.1474,0.97 4.87804,1.76052 6.06242,1.76052 1.30274,0 1.94549,0.97668 1.63984,2.4704 -0.40961,2.00177 -1.74417,2.39486 -7.07047,2.05867 -7.2194,-0.45568 -9.56216,1.68782 -9.56216,8.78129 0,5.07486 4.66052,4.77251 10.89675,-0.70279 2.70591,-2.37583 5.32766,-3.87853 5.82816,-3.33646 0.50052,0.54208 0.11813,1.2792 -0.85186,1.62564 -2.64714,0.9454 -2.12468,2.91186 1.2423,4.71364 3.62209,1.93849 5.40457,-0.0837 5.43772,-6.18311 0.0282,-5.21637 4.76359,-4.7419 5.38094,0.53952 0.70161,6.00347 -3.85267,8.7058 -15.97953,9.48407 -10.4347,0.66966 -10.58734,0.72786 -8.14949,3.42165 1.84365,2.03721 3.58751,2.53359 6.75101,1.91669 2.34546,-0.45738 10.13635,-1.22432 17.31412,-1.71082 8.97618,-0.6084 13.0477,-1.42914 13.0477,-2.63368 0,-3.17486 -4.01155,-5.2848 -8.0998,-4.25931 l -3.89727,0.97964 3.17319,-3.38616 c 4.35703,-4.63924 4.13106,-9.24877 -0.53951,-11.02452 -2.04249,-0.77655 -4.89708,-1.04216 -6.34638,-0.58211 -1.74967,0.55533 -2.63368,0.14983 -2.63368,-1.2139 0,-1.23084 1.97535,-2.42651 4.93371,-2.98153 3.17772,-0.59614 4.9408,-1.72655 4.9408,-3.16609 0,-1.76863 -1.03661,-2.06753 -4.9408,-1.43397 -3.72441,0.60442 -4.93371,0.30835 -4.93371,-1.221 0,-1.15574 1.36392,-2.03887 3.17319,-2.05157 5.0574,-0.0344 7.28246,-1.97951 4.70654,-4.11734 -1.01377,-0.84134 -2.54217,-1.21753 -5.32414,-1.09322 z m -18.07369,22.16973 c 1.5518,0 2.82534,0.60737 2.82534,1.35589 0,0.74867 -1.27354,2.03734 -2.82534,2.86793 -2.39215,1.28024 -2.82535,1.07126 -2.82535,-1.36298 0,-1.93083 0.92789,-2.86084 2.82535,-2.86084 z"
       transform="matrix(0.44526862,0,0,0.44526862,407.41364,367.2375)" />
    <path
       id="path3035"
       style="fill:#4f4f4f"
       d="m 705.71708,595.20931 -15.70268,4.18122 -15.70267,4.18833 -7.23374,48.4994 c -3.97771,26.6744 -7.46116,49.96317 -7.73775,51.75067 l -0.49692,3.24418 h 46.87376 46.87376 l -0.50402,-3.24418 c -0.27659,-1.7875 -3.75985,-25.07627 -7.73776,-51.75067 l -7.23373,-48.4994 -15.70268,-4.18833 z m 0,2.03027 14.06283,3.78369 c 7.73698,2.08173 14.43035,4.18553 14.87211,4.67105 0.63099,0.69353 15.14588,95.64226 15.07798,98.63153 -0.009,0.4125 -19.81352,0.75248 -44.01292,0.75248 -34.52344,0 -44.00632,-0.2686 -44.02002,-1.2494 -0.0481,-3.45109 14.3761,-97.37616 15.07087,-98.13461 0.44476,-0.48552 7.14243,-2.58932 14.87921,-4.67105 z m -5.09698,22.09874 c -3.43302,0 -4.04263,0.3798 -2.72596,1.69663 0.93119,0.9312 1.69662,2.55745 1.69662,3.62042 0,3.4912 -8.75639,14.96055 -19.37278,25.37132 -5.73708,5.62596 -10.05049,10.22945 -9.58346,10.22945 3.80201,0 14.5384,-8.00525 23.99414,-17.89622 l 11.36527,-11.89059 15.47551,13.48074 c 8.51292,7.41699 16.28053,13.48073 17.25733,13.48073 0.97679,0 1.77471,-1.57837 1.77471,-3.50684 0,-3.99919 -10.2763,-12.79757 -24.20001,-20.71447 -6.08822,-3.46174 -8.11691,-5.3562 -7.68096,-7.19114 0.84901,-3.5736 -2.8672,-6.68003 -8.00041,-6.68003 z m 11.84799,24.56915 c -1.71835,-0.0372 -4.07718,0.21397 -7.4396,0.75958 -4.92874,0.79977 -9.60254,1.48854 -10.37853,1.51916 -0.776,0.0305 -0.24081,0.94426 1.19261,2.03027 1.43341,1.08598 3.49729,1.63163 4.58586,1.2139 1.31225,-0.50362 1.98058,0.23651 1.98058,2.20775 0,2.48643 -0.86303,2.97948 -5.28865,3.01701 -4.958,0.0421 -5.11484,0.17425 -2.54849,2.11546 1.5063,1.13932 3.88497,2.07287 5.28865,2.07287 1.40367,0 2.54849,0.93618 2.54849,2.07287 0,2.65615 -5.1292,5.54727 -6.34638,3.57782 -0.48089,-0.77808 -2.39953,-1.41267 -4.26641,-1.41267 -3.80764,0 -6.31799,3.59905 -6.31799,9.07234 0,4.96355 3.85439,4.73359 10.6057,-0.6318 2.94199,-2.33801 5.70741,-3.88316 6.14761,-3.44295 0.44021,0.44022 -0.0174,1.30274 -1.02224,1.92379 -1.44453,0.89278 -1.33423,1.62583 0.53952,3.49974 3.13343,3.13345 6.30378,0.64105 6.30378,-4.955 0,-4.28118 2.74472,-5.46748 5.30285,-2.29293 1.68913,2.09616 0.17816,6.72977 -3.08091,9.43438 -1.29912,1.07818 -6.98837,2.22599 -12.89862,2.60528 -10.36477,0.66518 -10.53449,0.73209 -8.1069,3.41455 1.75396,1.93818 3.52334,2.48629 6.04823,1.8741 1.96166,-0.47564 9.75544,-1.24208 17.32121,-1.70373 10.09115,-0.6157 13.75759,-1.33407 13.75759,-2.71176 0,-2.72587 -4.64634,-4.79502 -8.58962,-3.81919 l -3.40745,0.84477 3.29387,-3.59912 c 1.99457,-2.18091 3.10959,-4.89938 2.82535,-6.90719 -0.39614,-2.79821 -1.40156,-3.38169 -6.46706,-3.7482 -7.50123,-0.54274 -8.19099,-3.96593 -1.06483,-5.30285 6.94375,-1.30265 6.94375,-5.5423 0,-4.41549 -3.72442,0.60442 -4.93371,0.30835 -4.93371,-1.221 0,-1.15574 1.36391,-2.03887 3.17319,-2.05157 4.98342,-0.0339 7.28794,-1.97347 4.79883,-4.03925 -0.7654,-0.63521 -1.83817,-0.96363 -3.55653,-1.00094 z m -19.93359,21.99936 c 3.19793,0 3.60903,1.45247 1.12162,3.93987 -2.4874,2.4874 -3.94697,2.06938 -3.94697,-1.12872 0,-1.88119 0.94415,-2.81115 2.82535,-2.81115 z"
       transform="matrix(0.44526862,0,0,0.44526862,407.41364,367.2375)" />
    <path
       id="path3033"
       style="fill:#2f2f2f"
       d="m 705.71708,595.2732 -15.5394,4.13153 c -12.9568,3.44358 -15.61747,4.46158 -15.99373,6.14761 -0.24816,1.11205 -3.60102,23.39704 -7.4538,49.52164 -3.85279,26.1244 -7.24337,48.51839 -7.53189,49.75589 l -0.52531,2.24324 h 47.04413 47.03703 l -0.52532,-2.24324 c -0.28832,-1.2375 -3.67929,-23.63149 -7.53188,-49.75589 -3.85278,-26.1246 -7.20564,-48.40959 -7.4538,-49.52164 -0.37626,-1.68603 -3.03693,-2.70403 -15.99373,-6.14761 z m 0,1.8315 14.61655,3.93277 c 8.03891,2.16438 14.72103,4.07297 14.85081,4.23802 0.31211,0.39694 14.55376,96.93892 14.53846,98.55344 -0.009,0.98088 -9.4796,1.2494 -44.00582,1.2494 -41.23466,0 -44.00692,-0.11337 -44.01292,-1.75342 -0.008,-1.96005 14.17734,-97.57861 14.54556,-98.04942 0.12909,-0.16505 6.8119,-2.07364 14.85081,-4.23802 z m -5.16797,22.23362 c -3.3772,0 -3.97164,0.3798 -2.65497,1.69663 0.93119,0.9312 1.69662,2.55745 1.69662,3.62042 0,3.12239 -8.30048,14.41458 -18.13048,24.66143 -5.02489,5.23796 -8.50333,9.52667 -7.71646,9.52667 3.66597,0 21.92701,-16.36015 28.10438,-25.17965 1.16928,-1.66939 2.6377,-3.03831 3.25128,-3.03831 0.61358,0 6.06046,4.2887 12.10355,9.52667 13.63093,11.8145 20.64175,17.27862 22.14844,17.27862 0.63775,0 1.15001,-1.53349 1.15001,-3.40746 0,-3.95268 -9.28601,-11.92232 -24.2497,-20.82095 -6.41876,-3.81725 -9.18908,-6.26826 -8.6606,-7.64547 1.21012,-3.15355 -2.25941,-6.2186 -7.04207,-6.2186 z m 13.43104,24.61884 c -4.6636,-0.0789 -18.62031,2.58239 -18.62031,3.80499 0,0.66128 1.94544,1.20681 4.33031,1.20681 3.36805,0 4.22672,0.55258 3.86178,2.4704 -0.3244,1.70479 -2.21071,2.68611 -6.09792,3.17319 -6.15671,0.77148 -5.05422,2.56968 2.51299,4.11734 l 4.14574,0.85186 -2.86084,3.50684 c -2.30141,2.81783 -3.23211,3.1686 -4.67105,1.75341 -4.24932,-4.17933 -11.10262,0.58982 -11.10262,7.72356 0,4.59117 4.47575,4.14784 10.36434,-1.02223 5.7022,-5.00673 7.09805,-5.30338 5.80686,-1.2352 -0.59133,1.86312 -0.2447,3.4287 0.91575,4.14573 2.74821,1.69848 5.48742,-1.24799 5.48742,-5.90625 0,-4.47025 2.75435,-5.42516 5.63649,-1.95219 1.41162,1.70091 1.29729,2.80666 -0.6034,5.70748 -3.09609,4.72523 -7.56058,6.28214 -18.17307,6.33928 l -8.7245,0.0497 3.44294,2.86794 c 2.22619,1.85304 4.47826,2.5559 6.35348,1.98058 1.59653,-0.48983 8.78138,-1.25935 15.97953,-1.70373 7.19799,-0.44439 13.49132,-1.44213 13.97765,-2.22904 1.42871,-2.3117 -3.87603,-5.27471 -7.72355,-4.30901 l -3.48554,0.88026 3.14479,-4.26641 c 4.66289,-6.30696 3.45186,-9.44521 -3.84048,-9.9739 -7.49022,-0.54305 -8.17028,-3.96716 -1.05063,-5.30285 3.03713,-0.56976 4.9408,-1.73668 4.9408,-3.03831 0,-1.65454 -1.0802,-1.91685 -4.9408,-1.1926 -3.8189,0.71646 -4.93371,0.45656 -4.93371,-1.14292 0,-1.15079 1.88285,-2.47844 4.23802,-2.99572 4.13295,-0.90774 5.4156,-2.62848 3.05251,-4.08894 -0.21878,-0.13531 -0.69676,-0.20879 -1.36298,-0.22007 z m -21.45275,20.97713 c 0.60059,-0.006 1.28427,0.13155 2.05157,0.42593 2.11726,0.8125 2.10914,1.10289 -0.0923,3.53523 -3.07475,3.39763 -4.77753,3.37114 -4.77753,-0.0852 0,-2.50916 1.01646,-3.85799 2.81825,-3.87598 z"
       transform="matrix(0.44526862,0,0,0.44526862,407.41364,367.2375)" />
    <path
       id="path3031"
       style="fill:#030303"
       d="m 705.71708,595.59264 -15.46841,3.96117 c -14.38389,3.68339 -15.50453,4.13459 -15.97953,6.48835 -0.86269,4.27518 -14.55266,96.99286 -14.55266,98.56055 0,1.27373 6.17814,1.47656 46.0006,1.47656 39.82246,0 46.0006,-0.20283 46.0006,-1.47656 0,-1.56769 -13.68997,-94.28537 -14.55266,-98.56055 -0.475,-2.35376 -1.59584,-2.80496 -15.97953,-6.48835 z m 0.49692,1.45527 14.44617,3.85468 c 7.94538,2.11863 14.57469,4.26197 14.73013,4.76333 0.54173,1.74734 14.3255,95.52198 14.3255,97.46023 0,1.90803 -1.02679,1.95218 -44.41046,1.95218 -41.77065,0 -44.38163,-0.10725 -44.02002,-1.75342 0.21155,-0.9625 3.58418,-23.34939 7.4964,-49.74879 3.91222,-26.3996 7.411,-48.26766 7.77325,-48.59169 0.36224,-0.32402 7.18126,-2.23834 15.15606,-4.25931 z m -4.68525,22.29041 c -3.55709,0 -4.2646,1.3435 -1.93799,3.67011 2.09162,2.09162 -5.68746,13.55662 -17.3638,25.59849 -5.4609,5.63185 -9.48623,10.23655 -8.95166,10.23655 2.9366,0 12.93314,-8.09861 21.59472,-17.49869 5.43137,-5.89445 10.38748,-10.71927 11.01743,-10.71927 0.62994,0 5.22995,3.65203 10.22236,8.11399 20.62646,18.43482 24.39167,20.75369 24.39167,15.00699 0,-3.08224 -7.49799,-9.52412 -21.42435,-18.39314 -8.32708,-5.30287 -12.00286,-8.43796 -11.47886,-9.80352 1.10557,-2.88105 -2.14781,-6.21151 -6.06952,-6.21151 z m 11.67052,24.8744 c -4.91203,-0.0303 -17.83943,2.4103 -17.83943,3.61332 0,0.62826 1.94544,1.14292 4.33031,1.14292 3.36805,0 4.22672,0.55258 3.86178,2.4704 -0.32042,1.68382 -2.2585,2.72136 -6.09792,3.26548 l -5.6294,0.80217 3.97536,1.66113 c 2.1845,0.91917 4.88506,1.67533 5.99854,1.67533 2.65489,0 2.56622,2.06951 -0.19877,4.83432 -2.65765,2.65766 -2.36797,2.64392 -7.04917,0.51112 -3.34034,-1.52197 -4.05044,-1.35272 -6.41027,1.56175 -6.57096,8.11464 -1.11,12.64667 7.19825,5.97014 6.43786,-5.17374 7.67724,-5.44694 6.64453,-1.49786 -0.48129,1.84045 0.017,3.21205 1.37718,3.734 2.54142,0.97524 4.64085,-1.84759 4.67104,-6.28959 0.0152,-2.24317 0.85691,-3.17319 2.88214,-3.17319 4.08011,0 4.85339,3.38829 1.9025,8.38375 -2.84848,4.82195 -8.01047,6.43815 -19.57156,6.14761 l -7.05626,-0.17037 3.37196,2.72596 c 1.85261,1.50015 4.39376,2.43557 5.64359,2.07287 5.56259,-1.61424 19.57207,-3.64852 25.4565,-3.69141 6.44035,-0.047 6.44094,-0.0492 3.33647,-2.64077 -1.99496,-1.66534 -4.4392,-2.33806 -6.8291,-1.8812 l -3.71981,0.70989 3.65592,-3.64882 c 6.17708,-6.17708 3.98558,-10.83286 -5.09698,-10.83286 -2.94878,0 -5.36674,-0.61428 -5.36674,-1.36298 0,-1.86178 4.79904,-4.28061 8.49023,-4.28061 1.81522,0 2.78416,-0.71179 2.41361,-1.76761 -0.38715,-1.10311 -2.60372,-1.60061 -5.93464,-1.32749 -4.45171,0.365 -5.17961,0.0545 -4.43679,-1.8812 0.48872,-1.27362 0.88026,-2.57889 0.88026,-2.90343 0,-0.32452 1.91004,-0.5892 4.23802,-0.5892 4.2492,0 5.76038,-1.94893 2.4633,-3.17319 -0.31315,-0.11626 -0.85294,-0.16603 -1.55465,-0.17038 z m -19.8413,20.92034 c 0.35853,-0.0127 0.7146,0.037 1.04353,0.16327 2.34771,0.90092 2.34158,1.10567 0.0852,3.59912 -2.60926,2.8832 -4.19781,3.31654 -5.35254,1.44817 -1.19996,-1.94141 1.71403,-5.12182 4.22383,-5.21056 z"
       transform="matrix(0.44526862,0,0,0.44526862,407.41364,367.2375)" />
  </g>
</svg>
