<?xml version="1.0" encoding="UTF-8" standalone="no"?>
<!-- Created with Inkscape (http://www.inkscape.org/) -->

<svg
   viewBox="0 0 35.349998 38.720001"
   id="svg4405"
   version="1.1"
   inkscape:version="1.3.2 (091e20e, 2023-11-25, custom)"
   sodipodi:docname="Kyo.svg"
   xmlns:inkscape="http://www.inkscape.org/namespaces/inkscape"
   xmlns:sodipodi="http://sodipodi.sourceforge.net/DTD/sodipodi-0.dtd"
   xmlns="http://www.w3.org/2000/svg"
   xmlns:svg="http://www.w3.org/2000/svg"
   xmlns:rdf="http://www.w3.org/1999/02/22-rdf-syntax-ns#"
   xmlns:cc="http://creativecommons.org/ns#"
   xmlns:dc="http://purl.org/dc/elements/1.1/">
  <defs
     id="defs4407" />
  <sodipodi:namedview
     id="base"
     pagecolor="#ffffff"
     bordercolor="#666666"
     borderopacity="1.0"
     inkscape:pageopacity="0.0"
     inkscape:pageshadow="2"
     inkscape:zoom="14.178719"
     inkscape:cx="17.702587"
     inkscape:cy="19.360001"
     inkscape:document-units="px"
     inkscape:current-layer="layer1"
     showgrid="false"
     fit-margin-top="0"
     fit-margin-left="0"
     fit-margin-right="0"
     fit-margin-bottom="0"
     inkscape:window-width="1292"
     inkscape:window-height="745"
     inkscape:window-x="-8"
     inkscape:window-y="-8"
     inkscape:window-maximized="1"
     inkscape:showpageshadow="0"
     inkscape:pagecheckerboard="1"
     inkscape:deskcolor="#d1d1d1"
     showguides="true" />
  <metadata
     id="metadata4410">
    <rdf:RDF>
      <cc:Work
         rdf:about="">
        <dc:format>image/svg+xml</dc:format>
        <dc:type
           rdf:resource="http://purl.org/dc/dcmitype/StillImage" />
      </cc:Work>
    </rdf:RDF>
  </metadata>
  <g
     inkscape:label="Layer 1"
     inkscape:groupmode="layer"
     id="layer1"
     transform="matrix(-0.54538549,0,0,-0.54538549,406.02758,431.85685)"
     style="display:inline">
    <path
       inkscape:connector-curvature="0"
       id="path4461"
       d="m 707.8644,684.16158 -14.89975,95.71195 86.1155,0.25254 -14.39467,-96.21703 -28.03174,-8.08122 z"
       style="display:inline;fill:#ffffff;fill-opacity:1;stroke:none"
       transform="matrix(0.46741797,0,0,0.46741797,368.00482,416.12823)" />
    <path
       id="path4447"
       style="display:inline;fill:#b0b0b0"
       d="m 735.90566,674.56678 -14.72564,3.97638 c -8.09953,2.18956 -14.86773,4.1156 -15.03978,4.28285 -0.17206,0.16725 -3.41408,21.1648 -7.20959,46.65932 -3.79556,25.49446 -7.13532,47.59087 -7.41646,49.10337 l -0.50566,2.75052 h 45.01972 45.01973 l -0.58995,-3.24853 c -0.32156,-1.7875 -3.64571,-23.84567 -7.39347,-49.01909 -3.74776,-25.17347 -7.01194,-45.97133 -7.25556,-46.21494 -0.24362,-0.24362 -7.07012,-2.20788 -15.17002,-4.36713 z m -0.45203,2.81948 14.10506,3.67758 14.09739,3.68524 4.75787,32.04859 c 2.61689,17.62458 5.76318,38.68477 6.98741,46.79722 l 2.22187,14.74864 H 735.98228 694.349 l 6.06034,-40.20823 c 0.25793,1.1223 9.79228,-0.1617 14.47282,-1.9767 2.49633,-0.96802 4.2042,2.24299 7.01039,13.23163 0.93934,3.67838 2.37439,6.09866 3.63927,6.09866 1.15217,0 2.09929,-0.64088 2.09929,-1.40974 0,-0.88049 1.46249,-0.83007 3.94574,0.12259 2.16799,0.83155 6.3526,1.12511 9.30887,0.6589 3.22824,-0.50908 5.38613,-0.26576 5.38613,0.60527 0,0.79768 1.22035,1.44804 2.71988,1.44804 3.35302,0 5.87646,-6.52352 5.87646,-15.20833 0,-7.12571 -2.37852,-9.16331 -10.74926,-9.16331 -4.77114,0 -5.11552,-0.25548 -4.10663,-3.21022 0.60563,-1.77381 1.12586,-5.17395 1.16456,-7.53904 0.0682,-4.16647 0.30145,-4.3151 7.59268,-4.73488 7.78293,-0.4481 9.06175,-1.52219 5.39378,-4.56634 -1.4095,-1.16978 -4.25698,-1.45253 -8.37416,-0.83511 -4.72273,0.70821 -6.69099,0.39623 -8.07535,-1.27183 -1.50977,-1.81916 -1.4552,-2.20655 0.33711,-2.20655 4.38255,0 5.30065,-7.95931 1.07263,-9.30122 -0.26498,-0.0841 -0.53355,-0.14874 -0.80447,-0.16855 -1.89646,-0.13876 -4.03803,1.36299 -7.79954,5.31717 -3.16802,3.33027 -5.75388,6.35023 -5.75388,6.71924 0,0.36901 2.25909,0.30987 5.01836,-0.13791 2.75928,-0.44776 5.01071,-0.27137 5.01071,0.38309 0,1.86102 -3.96163,2.91908 -10.86419,2.91908 -3.48315,0 -6.33617,0.62612 -6.33617,1.38675 0,2.60358 6.14712,4.67204 11.67633,3.93042 5.08697,-0.68231 5.52403,-0.46048 5.52403,2.71221 0,2.51769 -0.79176,3.44773 -2.9344,3.44773 -2.85923,0 -2.8624,0.0834 -0.35244,3.53201 1.41645,1.94606 3.54468,3.62779 4.72722,3.73888 1.18255,0.11109 -0.75463,0.77719 -4.29817,1.47103 -3.5436,0.69383 -7.62685,0.87464 -9.07903,0.41373 -2.48963,-0.79018 -2.4682,-0.95109 0.35244,-2.92674 3.33143,-2.33336 3.88912,-6.19358 1.27183,-8.81087 -2.50304,-2.50304 -4.02236,-2.1114 -4.02236,1.04198 0,1.83468 -2.82286,4.48359 -8.42013,7.88381 -4.63622,2.81635 -9.15441,5.11797 -10.03673,5.11797 -0.7363,0 -1.35361,0.39264 -1.53999,0.9194 l 0.62826,-4.17559 c 3.71024,-24.6124 6.88665,-45.65126 7.05636,-46.75126 0.25594,-1.65885 2.6087,-2.63794 13.80625,-5.73089 z m 9.26291,42.568 c -0.0675,10e-4 -0.1221,0.0138 -0.16856,0.0307 -1.98794,0.66264 4.17376,7.94942 10.75693,12.7183 6.44952,4.67192 10.28936,5.25975 11.62269,1.78516 0.97484,-2.54039 -2.78778,-7.67695 -5.62364,-7.67695 -0.94294,0 -4.7914,-1.62887 -8.55804,-3.63161 -3.2958,-1.75232 -6.53618,-3.07401 -7.79187,-3.21023 -0.0897,-0.01 -0.16997,-0.0164 -0.23751,-0.0153 z m 1.36377,18.41089 c 1.35618,0.003 2.28138,0.0902 2.49769,0.30647 0.40956,0.40957 0.30664,3.02173 -0.21453,5.79985 l -0.94238,5.05667 -9.79156,0.46736 c -9.77906,0.46995 -9.7917,0.46895 -10.61135,-3.64693 -0.45138,-2.26655 -0.82746,-4.63333 -0.82746,-5.25588 0,-0.95862 11.94062,-2.48738 18.39557,-2.70455 0.53792,-0.0181 1.04196,-0.0238 1.49402,-0.023 z m -4.65061,1.9767 c -1.85168,-0.0176 -4.1875,0.31336 -6.91079,1.01134 -6.87582,1.76222 -8.48328,3.2144 -5.09498,4.58165 5.26364,2.12392 16.84792,0.30057 16.84792,-2.65092 0,-1.90781 -1.75603,-2.91276 -4.84215,-2.94207 z m -27.16813,19.88959 c -0.0751,0.0222 -0.30807,0.0711 -0.22985,0.0689 0.089,-0.002 0.17451,-0.0462 0.26049,-0.0689 -0.0102,0.002 -0.0204,-0.002 -0.0306,0 z"
       transform="matrix(0.46741797,0,0,0.46741797,368.00482,416.12823)" />
    <path
       id="path4449"
       style="display:inline;fill:#cfcfcf"
       d="m 735.9593,674.36757 -14.61839,3.93808 c -8.03905,2.16437 -14.85811,4.17779 -15.1547,4.47439 -0.36758,0.36758 -14.50859,91.82835 -15.20067,98.31401 -0.0147,0.1375 20.27777,0.24517 45.09634,0.24517 h 45.12699 l -0.52865,-2.75052 c -0.28774,-1.5125 -3.56913,-23.45106 -7.29387,-48.75094 -3.72481,-25.29982 -7.07245,-46.3486 -7.43944,-46.7819 -0.367,-0.4333 -7.26678,-2.56376 -15.33092,-4.73489 z m 0,3.1566 13.74496,3.66991 13.75262,3.66992 6.70392,44.49108 c 3.68971,24.46769 6.7271,45.49843 6.7499,46.73593 l 0.046,2.25252 h -40.9974 -41.00504 l 0.0613,-2.25252 c 0.0318,-1.2375 3.08255,-22.27251 6.78054,-46.74359 l 6.71925,-44.49108 13.72197,-3.66992 z m 1.99968,21.2227 c -1.23868,0.0532 -2.89165,1.4376 -6.53537,4.79618 -3.50648,3.23216 -5.97644,6.2745 -5.48572,6.76522 0.4907,0.49065 2.33627,0.52662 4.09897,0.0843 10.65133,-2.67333 14.15884,-6.32837 10.03673,-10.45046 -0.78227,-0.78229 -1.37141,-1.22709 -2.11461,-1.19522 z m -2.75052,11.30857 c -0.31621,0.0817 -0.41373,0.5908 -0.41373,1.53998 0,1.89332 -1.63599,2.31382 -8.81853,2.31382 h -8.81854 l 2.71988,3.01868 c 2.24731,2.48326 3.79458,2.8645 8.81853,2.1759 6.02155,-0.82536 6.09866,-0.77646 6.09866,3.53967 0,3.86929 -0.36186,4.249 -3.21788,3.37112 l -3.23321,-0.98835 3.48604,3.76186 c 1.91125,2.06873 3.87387,3.75419 4.36713,3.75419 2.49101,0 4.33648,-4.07632 4.33648,-9.59235 v -6.15995 h 7.87615 c 7.99253,0 9.55911,-1.13474 5.8305,-4.22922 -1.35733,-1.12647 -4.30301,-1.38279 -8.61933,-0.73552 -4.41053,0.66143 -7.24984,0.397 -8.68829,-0.79681 -0.87224,-0.72389 -1.40766,-1.0547 -1.72386,-0.97302 z m 9.86051,10.38916 c -1.32174,1.07774 3.43909,6.86002 9.3855,11.40051 7.37333,5.62987 10.91635,5.94656 11.61502,1.04964 0.39024,-2.73506 -1.08661,-3.9207 -10.02907,-8.02172 -5.77036,-2.64617 -10.71049,-4.64123 -10.97145,-4.42843 z m -23.27602,0.75851 c -0.80419,0.1022 -1.30477,1.11159 -1.58596,3.07231 -0.31576,2.2017 -3.35002,4.86908 -9.76858,8.59634 -9.29283,5.39635 -8.75232,6.90292 1.43273,3.96873 6.06624,-1.7476 8.01241,0.17305 9.37783,9.27823 1.17435,7.83111 2.83741,10.60875 5.03369,8.41247 1.07207,-1.07208 3.08897,-1.22078 5.82284,-0.43672 2.2975,0.65892 6.33256,0.84326 8.97943,0.41373 2.8112,-0.45619 5.22533,-0.1175 5.79985,0.81213 2.80787,4.54324 6.52877,-0.49866 7.53138,-10.21295 1.2801,-12.403 -2.08604,-14.20092 -20.5868,-10.97911 -4.99797,0.87035 -10.15689,1.17024 -11.46945,0.66656 -2.09946,-0.80563 -2.01181,-1.1763 0.72785,-3.09529 3.44119,-2.4103 4.043,-6.24657 1.39442,-8.89515 -0.95021,-0.95021 -1.71569,-1.48573 -2.32914,-1.59362 -0.12786,-0.0225 -0.24521,-0.02 -0.36009,-0.008 z m 23.2607,17.05478 c 2.00905,-0.0214 3.40253,0.0916 3.57798,0.37542 0.43364,0.70166 0.37367,3.43898 -0.12259,6.08333 l -0.89641,4.79618 -9.99842,0.48268 -9.99076,0.47502 -0.88875,-4.73488 c -0.48568,-2.59893 -0.64416,-4.94329 -0.35244,-5.21757 1.04817,-0.98538 12.64424,-2.19604 18.67139,-2.26018 z m -5.18692,2.00735 c -1.29956,0.0675 -2.82261,0.53882 -5.01837,1.4174 -3.0023,1.20133 -5.8527,1.77828 -6.33617,1.29481 -0.48346,-0.48347 -0.88108,-0.17217 -0.88108,0.68189 0,0.85405 0.80736,1.87786 1.79282,2.2755 3.64453,1.4706 12.07194,0.8899 14.67202,-1.01133 2.58611,-1.89102 2.56969,-2.03004 -0.55164,-3.70057 -1.30232,-0.69699 -2.37802,-1.02517 -3.67758,-0.9577 z m -25.60516,19.9662 c -0.0751,0.0222 -0.30807,0.0711 -0.22985,0.0689 0.089,-0.002 0.17451,-0.0462 0.26049,-0.0689 -0.0102,0.002 -0.0204,-0.002 -0.0306,0 z"
       transform="matrix(0.46741797,0,0,0.46741797,368.00482,416.12823)" />
    <path
       id="path4445"
       style="display:inline;fill:#8f8f8f"
       d="m 735.9593,674.8426 -14.74098,3.81549 c -8.10416,2.1 -14.84128,3.93112 -14.97848,4.06832 -0.1372,0.1372 -3.39625,21.3677 -7.24024,47.1803 -3.84394,25.81266 -7.16481,47.95016 -7.37814,49.18766 l -0.39075,2.24485 h 44.83585 44.83585 l -0.50567,-2.75052 c -0.28114,-1.5125 -3.6209,-23.60891 -7.41646,-49.10337 -3.79551,-25.49452 -7.04457,-46.50196 -7.22491,-46.6823 -0.18034,-0.18034 -6.9586,-2.04494 -15.06276,-4.14494 z m 0.0306,2.44405 13.7373,3.63162 c 7.55249,1.99753 13.80043,3.69738 13.89053,3.77718 0.0901,0.0798 3.12995,20.16945 6.75756,44.6443 3.62761,24.4749 6.85778,45.73681 7.17128,47.24926 l 0.56696,2.75053 H 735.9593 693.79736 l 0.56696,-2.75053 c 0.79508,-3.85939 13.59173,-89.28843 13.59173,-90.73666 0,-0.68335 5.94648,-2.74747 14.02078,-4.87279 z m 2.56665,22.28768 c -2.596,0 -12.49517,8.66264 -11.58438,10.13633 0.90637,1.46655 10.89818,-1.29276 13.40018,-3.70056 2.33407,-2.24618 1.14814,-6.43577 -1.8158,-6.43577 z m -3.34813,10.48111 c -0.31811,0.0788 -0.41373,0.58579 -0.41373,1.53998 0,1.86332 -1.55965,2.31382 -7.87615,2.31382 -8.05246,0 -9.55914,1.13627 -5.7309,4.31349 1.40032,1.16216 4.16811,1.4676 7.88381,0.87343 5.65053,-0.90357 5.72324,-0.85674 5.72324,3.55499 0,3.38476 -0.5173,4.27165 -2.14526,3.64694 -2.81743,-1.08115 -2.72852,0.37101 0.22219,3.63161 1.30473,1.44163 2.78599,2.61261 3.2945,2.61261 2.5177,0 4.36713,-4.0526 4.36713,-9.59235 v -6.15995 h 7.16362 c 5.17037,0 7.17128,-0.5592 7.17128,-1.99969 0,-2.8498 -3.66151,-3.88671 -10.14399,-2.85012 -3.60663,0.57672 -6.38209,0.26219 -7.76889,-0.88875 -0.88536,-0.7348 -1.42873,-1.07485 -1.74685,-0.99601 z m 9.86051,10.66498 c -0.13703,-3.8e-4 -0.20904,0.032 -0.20686,0.0996 0.0628,1.94177 5.08523,7.40361 10.71862,11.661 6.57906,4.97209 10.03673,5.07682 10.03673,0.29881 0,-2.72255 -1.87368,-4.19642 -10.39683,-8.14432 -5.00118,-2.31649 -9.19288,-3.91238 -10.15166,-3.91509 z m -24.31034,0.74318 c -0.32666,0.0773 -0.24296,0.55026 0.10726,1.46337 1.04398,2.7207 -1.98288,5.50301 -11.9598,11.0021 -8.14246,4.48792 -7.41552,5.42242 2.15292,2.76585 6.90406,-1.91683 8.12177,-0.67065 10.71861,10.93314 2.32757,10.40056 5.31342,9.84264 4.70424,-0.88109 l -0.44437,-7.7459 7.60033,-0.4597 c 4.18369,-0.25421 9.20138,-0.58015 11.14767,-0.72019 3.90753,-0.281 5.19819,2.6057 3.74654,8.38948 -0.76869,3.06272 -1.7431,3.44685 -9.79922,3.83081 -10.82092,0.51572 -11.33611,3.11231 -0.73552,3.73122 4.14915,0.24225 8.16153,1.04971 8.91047,1.79282 2.36343,2.34539 3.74602,1.49317 5.88413,-3.62395 2.75261,-6.58792 2.62669,-13.53869 -0.2988,-16.77131 -2.78953,-3.0825 -7.873,-3.24645 -19.99685,-0.64357 -6.79874,1.45951 -9.26151,1.49735 -11.07871,0.16855 -2.0871,-1.52611 -1.95875,-1.88529 1.2182,-3.33281 4.40511,-2.00713 4.66335,-6.72667 0.48268,-8.9641 -1.29052,-0.69068 -2.03313,-1.01201 -2.35978,-0.93472 z m 19.0085,18.88591 c -1.4799,0.0372 -3.14971,0.54531 -5.58533,1.56298 -4.26325,1.7813 -5.11872,2.65925 -3.57032,3.63927 3.09306,1.95766 10.45997,1.57597 13.56874,-0.69721 2.68607,-1.96411 2.66216,-2.07169 -0.81213,-3.6546 -1.06595,-0.48568 -1.98856,-0.76933 -2.97271,-0.83511 -0.20503,-0.0137 -0.41684,-0.0206 -0.62825,-0.0153 z"
       transform="matrix(0.46741797,0,0,0.46741797,368.00482,416.12823)" />
    <path
       id="path4443"
       style="display:inline;fill:#707070"
       d="m 735.9593,675.3406 c -1.60413,0 -28.61661,6.73949 -29.66583,7.40113 -0.3118,0.19662 -14.3349,94.7759 -14.3349,96.68209 0,1.85871 1.31743,1.9154 44.36082,1.9154 h 44.36083 l -0.39074,-2.24485 c -0.21333,-1.2375 -3.53422,-23.37502 -7.37815,-49.18766 -3.84399,-25.81257 -7.09601,-47.00968 -7.22492,-47.10368 -0.90658,-0.66075 -28.00172,-7.46243 -29.72711,-7.46243 z m 0.0306,1.78516 13.72964,3.69291 c 7.55387,2.03345 13.83655,3.79465 13.95949,3.91509 0.12293,0.12044 3.1545,19.99301 6.73457,44.16162 3.58001,24.16861 6.76226,45.40813 7.07168,47.19563 l 0.5593,3.24853 H 735.9593 693.86631 l 0.56696,-3.24853 c 0.89771,-5.16371 13.52278,-89.84244 13.52278,-90.69835 0,-0.42459 6.3046,-2.45797 14.01311,-4.52036 z m 3.17192,22.60946 c -1.76308,-0.11968 -4.36443,1.51921 -8.12133,5.03369 l -5.56234,5.20991 6.45109,-0.96536 c 7.23789,-1.08079 10.85738,-3.79484 9.56171,-7.17129 -0.51116,-1.33204 -1.27129,-2.03513 -2.32913,-2.10695 z m -3.9534,10.16698 c -0.35851,-0.006 -0.41373,0.53553 -0.41373,1.63193 0,1.91985 -1.49595,2.37511 -7.87615,2.37511 -4.33592,0 -7.88382,0.62612 -7.88382,1.38675 0,2.59082 5.74979,4.47423 10.77225,3.53201 4.83695,-0.90742 4.98772,-0.7927 4.98772,3.52435 0,3.19419 -0.67601,4.45907 -2.37511,4.45907 -2.13334,0 -2.10327,0.28737 0.22985,2.86545 1.42693,1.57672 3.00818,2.86544 3.51669,2.86544 2.5177,0 4.36713,-4.0526 4.36713,-9.59235 v -6.15995 h 7.16362 c 5.37404,0 7.17128,-0.5382 7.17128,-2.12993 0,-2.91182 -5.70036,-4.10363 -10.64966,-2.22188 -3.3257,1.26444 -4.58764,1.10574 -6.75755,-0.8581 -1.23232,-1.11513 -1.89402,-1.67243 -2.25252,-1.6779 z m -14.18934,11.27026 c -0.54079,-0.0586 -0.60729,0.54759 -0.11492,1.83113 1.21984,3.17884 -1.36906,5.37205 -15.53012,13.17034 l -4.25987,2.33679 5.7309,-1.03432 c 10.92472,-1.98363 11.27184,-1.85259 13.4385,5.11031 3.52654,11.33316 4.5481,13.39543 5.94542,11.99811 0.78476,-0.78477 0.85214,-4.39729 0.15323,-8.81854 l -1.18755,-7.48541 8.38182,-0.25283 c 4.61244,-0.14076 9.82902,-0.31143 11.59204,-0.36776 3.53643,-0.11295 4.75804,2.99392 3.36346,8.55038 -0.7687,3.06272 -1.74309,3.44685 -9.79922,3.83081 -11.59415,0.55257 -11.597,3.17113 0,3.72355 4.94753,0.23568 8.9641,1.08795 8.9641,1.90775 0,3.22773 3.68148,0.0306 5.29418,-4.59698 2.94084,-8.43869 2.34883,-13.85621 -1.83112,-16.59508 -3.44161,-2.25504 -4.57099,-2.26611 -15.4152,-0.19921 -9.30601,1.77372 -12.20586,1.86954 -14.197,0.47503 -2.30685,-1.61565 -2.21749,-1.88387 1.08029,-3.38644 4.09846,-1.86742 4.57209,-4.78285 1.3178,-8.03705 -1.37973,-1.37975 -2.38595,-2.10196 -2.92674,-2.16058 z m 25.20676,0.0153 c -0.33381,-0.0188 -0.56671,0.0305 -0.68189,0.14557 -1.08534,1.08534 7.30623,9.47332 12.8792,12.87154 5.08187,3.09871 7.03063,2.78767 7.62332,-1.21054 0.32297,-2.1787 -0.94514,-3.53625 -5.01837,-5.3708 -2.9969,-1.34978 -7.51334,-3.50928 -10.04439,-4.79618 -1.89829,-0.96517 -3.75644,-1.5835 -4.75787,-1.63959 z m -6.02204,19.70571 c -2.19425,0.0302 -4.81052,0.57199 -7.5084,1.62426 -3.3841,1.31995 -3.82563,1.9301 -2.15291,2.98804 4.48967,2.83957 17.75874,-0.0163 14.62604,-3.14893 -1.00125,-1.00125 -2.77047,-1.49364 -4.96473,-1.46337 z m -24.16478,1.32546 0.008,0.0153 c 9.7e-4,-0.005 -9.8e-4,-0.0104 0,-0.0153 z"
       transform="matrix(0.46741797,0,0,0.46741797,368.00482,416.12823)" />
    <path
       id="path4441"
       style="display:inline;fill:#4e4e4e"
       d="m 735.9593,675.03414 -14.53411,3.80016 c -7.99204,2.09026 -14.71262,4.08797 -14.93251,4.44375 -0.4527,0.73249 -14.53411,94.31495 -14.53411,96.59014 0,1.27453 5.91988,1.47103 44.00073,1.47103 43.46495,0 43.99306,-0.0214 43.99306,-2.01501 0,-1.96743 -14.0166,-96.39875 -14.3349,-96.57481 -0.0881,-0.0488 -6.79708,-1.80099 -14.90953,-3.89977 z m -0.50567,2.00734 13.34655,3.40177 c 7.3384,1.86916 13.76595,3.66181 14.28894,3.98404 0.523,0.32223 3.85066,20.12306 7.39347,44.00073 3.54281,23.87767 6.71706,45.10248 7.0487,47.16498 l 0.59761,3.74654 h -42.08533 c -23.1482,0 -42.08532,-0.24544 -42.08532,-0.55164 0,-1.31149 14.0766,-93.85714 14.31192,-94.09245 0.14291,-0.14291 6.31734,-1.92116 13.72198,-3.9534 z m 3.71589,22.60947 c -0.12138,-0.003 -0.2463,0.002 -0.37542,0.0153 -1.72161,0.17741 -4.1578,1.79576 -7.48541,4.93409 -4.30418,4.05944 -4.7881,5.01836 -2.55899,5.01836 7.4982,0 14.69788,-5.06001 12.42716,-8.73425 -0.49604,-0.80261 -1.15766,-1.21416 -2.00734,-1.23352 z m -3.91509,10.31255 c -0.38788,-0.0259 -0.4597,0.49884 -0.4597,1.57063 0,1.91985 -1.49595,2.37511 -7.87615,2.37511 -4.33592,0 -7.88382,0.62612 -7.88382,1.38675 0,2.59082 5.74979,4.47423 10.77225,3.53201 4.81301,-0.90292 4.98772,-0.77112 4.98772,3.40943 0,2.38712 -0.80737,4.61007 -1.79282,4.94175 -1.39677,0.47015 -1.35745,1.12243 0.17622,2.98037 1.08199,1.31075 2.50782,2.38276 3.17191,2.38276 2.08424,0 4.18325,-5.33 4.18325,-10.64966 v -5.10264 h 7.16362 c 5.26519,0 7.17128,-0.54472 7.17128,-2.05332 0,-3.03895 -5.35257,-4.19946 -10.1823,-2.19889 -3.62716,1.50241 -4.63014,1.39124 -7.05636,-0.80447 -1.27868,-1.1572 -1.98723,-1.74393 -2.3751,-1.76983 z m 10.16698,11.11702 c -1.81052,0 8.23255,10.07777 13.02476,13.07074 5.00985,3.12895 7.01107,2.84933 7.59268,-1.05731 0.33114,-2.22421 -1.66292,-3.76691 -9.52341,-7.40879 -5.46322,-2.53122 -10.45682,-4.60464 -11.09403,-4.60464 z m -22.21106,1.49402 c -0.72143,-0.0414 -1.31014,0.61994 -1.31014,2.00734 0,1.13886 -4.35519,4.76557 -9.67664,8.04471 -5.32136,3.27922 -8.59454,5.60165 -7.27088,5.1716 1.32365,-0.43003 4.63785,-1.205 7.36282,-1.7162 5.84,-1.09561 6.55807,-0.28509 9.5847,10.77225 1.18254,4.32028 2.76508,7.54209 3.51669,7.16362 1.35663,-0.68303 1.28774,-8.41437 -0.11493,-13.22397 -0.60883,-2.0874 0.21833,-2.51302 4.90344,-2.51302 3.09655,0 8.61627,-0.4104 12.27393,-0.91173 l 6.65796,-0.91173 v 5.97607 c 0,6.67346 -0.0672,6.7158 -11.85254,8.03704 -10.54125,1.18177 -9.26662,3.57798 1.90008,3.57798 4.72157,0 8.51207,0.64565 8.51207,1.44039 0,2.37356 2.67718,1.61224 4.17559,-1.18755 0.77084,-1.44036 1.82912,-5.89092 2.35978,-9.89116 0.8963,-6.7566 0.7023,-7.45017 -2.76585,-9.72261 -3.45385,-2.26303 -4.62266,-2.2902 -15.5531,-0.27582 -8.47011,1.56096 -12.59663,1.75926 -14.5954,0.68955 -2.64723,-1.41676 -2.6006,-1.59282 1.04198,-3.50137 3.99952,-2.09559 4.41221,-3.0476 2.96505,-6.81884 -0.54438,-1.41863 -1.39317,-2.16519 -2.11461,-2.20655 z m 16.60275,18.60243 c -2.24098,0.0625 -4.9291,0.57907 -7.42412,1.56297 -3.7492,1.47854 -3.84359,1.67428 -1.17989,2.76585 5.59825,2.29411 13.62237,0.89515 13.62237,-2.37511 0,-1.21417 -1.6843,-1.87823 -4.08365,-1.95371 -0.29991,-0.009 -0.61458,-0.009 -0.93471,0 z"
       transform="matrix(0.46741797,0,0,0.46741797,368.00482,416.12823)" />
    <path
       id="path4439"
       style="display:inline;fill:#2f2f2f"
       d="m 736.00527,675.07244 -14.64904,3.88445 c -8.05722,2.13457 -14.81058,4.32872 -15.00146,4.88046 -0.40074,1.15831 -14.3962,94.96378 -14.3962,96.49054 0,0.67031 14.92181,1.01133 44.00073,1.01133 38.0808,0 43.99306,-0.1965 43.99306,-1.47103 0,-3.47476 -14.19103,-96.08165 -14.80992,-96.64377 -0.37572,-0.34126 -7.08499,-2.32007 -14.90953,-4.39012 z m -0.0383,2.26785 c 2.21884,0 26.88452,6.56587 27.68912,7.37048 0.47619,0.47619 14.23188,90.41796 14.28128,93.37992 0.0163,0.98049 -9.0338,1.24885 -41.97806,1.24885 -23.64794,0 -42.00105,-0.38353 -42.00105,-0.88109 0,-2.08789 13.92828,-93.37937 14.30426,-93.75534 0.73227,-0.73227 25.68063,-7.36282 27.70445,-7.36282 z m 2.40575,22.23404 c -1.01935,0 -4.11321,2.26676 -6.87248,5.02603 -3.99922,3.99922 -4.4794,5.01836 -2.38277,5.01836 3.61832,0 10.42836,-2.71995 11.60737,-4.62762 1.32846,-2.14949 -0.0882,-5.41677 -2.35212,-5.41677 z m -3.44773,10.12867 c -0.28506,-0.0191 -0.11283,0.55109 0.30646,1.70088 0.80628,2.21098 -0.10541,2.50536 -7.6463,2.50536 -4.70534,0 -8.55038,0.62612 -8.55038,1.38675 0,2.63405 5.20616,4.156 11.4005,3.32515 l 6.21358,-0.83512 -1.03432,4.1526 c -0.56786,2.28727 -1.62068,4.3746 -2.34446,4.63529 -0.76987,0.27729 -0.70047,1.61605 0.1609,3.22554 0.80981,1.51304 2.07126,2.74286 2.80415,2.74286 2.1974,0 4.29818,-5.20433 4.29818,-10.64966 0,-5.4545 0.37904,-5.65765 9.67663,-5.14861 3.25814,0.17838 4.65827,-0.37312 4.65827,-1.84645 0,-3.14182 -4.12033,-4.13241 -9.63066,-2.31382 -4.17308,1.37725 -5.32861,1.22747 -7.9068,-1.03432 -1.38425,-1.21429 -2.1207,-1.8274 -2.40575,-1.84645 z m 10.61901,11.53075 c -0.78836,-0.0222 1.99671,3.16001 6.1906,7.07168 7.94839,7.41369 15.29745,9.77281 14.34257,4.60464 -0.41541,-2.24848 -16.80984,-11.57111 -20.53317,-11.67632 z m -22.7014,2.0763 c -0.59573,-0.0639 -0.95414,0.51307 -1.29482,1.81581 -0.38348,1.46651 -4.16658,4.74182 -8.41246,7.28621 l -7.72292,4.62762 5.48572,-0.90407 c 7.12045,-1.16517 9.00215,0.54913 11.14767,10.13633 2.29173,10.24042 4.79955,10.1695 3.73887,-0.10726 l -0.81213,-7.88382 h 5.42443 c 2.98647,0 8.42473,-0.4104 12.08239,-0.91173 l 6.65796,-0.91173 v 6.49706 6.50472 l -10.21295,1.019 c -11.6827,1.17325 -10.8614,3.51207 1.24884,3.54733 4.13882,0.0115 7.52372,0.64622 7.52372,1.40974 0,0.76362 0.91212,1.04204 2.03033,0.61293 2.5468,-0.97728 5.72008,-13.69766 4.42842,-17.76732 -1.60628,-5.06081 -7.07557,-6.10998 -18.98551,-3.64693 -8.08739,1.6725 -11.35026,1.81058 -13.64536,0.58228 -2.92014,-1.56286 -2.92792,-1.6702 -0.32945,-3.57032 1.4753,-1.07878 3.20845,-1.96903 3.84614,-1.96903 1.88122,0 1.32836,-3.80888 -0.81214,-5.58533 -0.57896,-0.4805 -1.02932,-0.74311 -1.38675,-0.78149 z m 19.82829,17.96652 c -0.9994,-0.0287 -2.41717,0.11052 -4.40543,0.38308 -8.23992,1.12943 -10.64799,2.48489 -6.95676,3.93042 3.6442,1.42708 3.82165,1.44224 9.04072,0.3984 2.64514,-0.52895 4.48205,-1.78574 4.48205,-3.06465 0,-1.0925 -0.49492,-1.59953 -2.16058,-1.64725 z"
       transform="matrix(0.46741797,0,0,0.46741797,368.00482,416.12823)" />
    <path
       id="path4437"
       style="display:inline;fill:#030303"
       d="m 735.45363,675.28697 -14.48048,3.86146 -14.47281,3.86146 -6.71159,44.92012 c -3.68926,24.7029 -6.96216,46.59655 -7.27855,48.659 l -0.57462,3.7542 h 44.00839 c 24.2064,0 44.00839,-0.21581 44.00839,-0.47502 0,-1.17926 -14.09399,-95.14476 -14.40386,-96.03084 -0.19235,-0.55 -7.04449,-2.69585 -15.22365,-4.7732 z m 0.50567,1.59362 13.63003,3.47838 c 10.73758,2.74092 13.80971,3.9103 14.46516,5.48572 0.76773,1.84541 13.89819,88.8242 13.89819,92.06212 0,1.22645 -6.14608,1.43273 -41.99338,1.43273 -32.92833,0 -42.00937,-0.26884 -42.01637,-1.24885 -0.0209,-2.87422 13.21964,-90.41547 13.95182,-92.246 0.63283,-1.58215 3.64337,-2.73309 14.42685,-5.48572 z m 2.80415,22.83931 c -0.15605,-0.0111 -0.3181,-0.004 -0.49034,0.0153 -1.77171,0.19701 -4.36525,1.98966 -6.99507,5.14862 l -4.23688,5.09498 4.94941,-1.06497 c 6.16007,-1.31931 8.54272,-3.1726 8.54272,-6.64263 0,-1.64545 -0.67747,-2.4733 -1.76984,-2.55132 z m -2.62027,11.32389 c -0.83494,0 -1.14091,0.59515 -0.68955,1.32546 0.45134,0.7303 -2.75186,1.78366 -7.11765,2.32913 -6.14472,0.76774 -7.60081,1.39428 -6.44343,2.78884 0.97775,1.17808 3.71367,1.55378 7.91446,1.08029 6.18127,-0.69673 6.4281,-0.58345 6.4281,3.08763 0,2.09818 -0.94617,4.18042 -2.09162,4.61996 -1.67642,0.64331 -1.73715,1.33465 -0.3601,3.53968 0.94091,1.50661 2.11719,2.72753 2.62028,2.72753 1.77111,0 4.45788,-8.60759 3.78484,-12.12835 -0.82213,-4.30071 2.47016,-5.79283 9.7839,-4.42076 5.4461,1.02169 6.64224,-1.04081 2.03033,-3.50903 -1.99024,-1.06518 -3.72179,-1.08386 -5.64661,-0.0536 -3.53237,1.89054 -8.68829,1.92375 -8.68829,0.0536 0,-0.78836 -0.68977,-1.44038 -1.52466,-1.44038 z m 10.71861,10.79523 c -0.20585,-0.006 -0.35138,0.0229 -0.43671,0.0996 -0.9556,0.86196 3.1604,5.15328 9.01774,9.40848 6.39931,4.64886 11.35866,5.39452 10.62667,1.59362 -0.404,-2.09781 -16.11997,-11.00955 -19.2077,-11.1017 z m -24.02686,1.47103 c -0.59894,-0.0507 -0.95499,0.56501 -1.31014,1.92307 -0.39881,1.52504 -4.18954,4.7936 -8.42013,7.27855 -7.16765,4.21012 -7.3517,4.45126 -2.71222,3.52435 5.38663,-1.07618 15.79828,-7.04139 15.79828,-9.05605 0,-0.68195 -0.87513,-1.98692 -1.96138,-2.88843 -0.58037,-0.48169 -1.03505,-0.75103 -1.39441,-0.78149 z m 23.31433,10.38917 c -2.64949,0.01 -6.20593,0.45628 -11.06339,1.27183 -6.84556,1.14936 -11.6832,1.28607 -13.99779,0.40607 -3.47251,-1.32025 -3.49165,-1.26918 -1.52467,2.5743 1.10196,2.1533 2.44666,6.65555 3.00336,10.00609 1.50481,9.0568 4.20325,7.73084 3.24087,-1.59362 l -0.79681,-7.69227 11.41583,-0.95004 c 6.27885,-0.52364 11.90963,-0.64483 12.5191,-0.26816 0.60946,0.37666 0.74354,3.43379 0.29114,6.79586 -0.71202,5.29142 -1.30346,6.14237 -4.40544,6.26721 -15.91983,0.64074 -16.5193,0.72581 -13.86755,2.26785 1.43851,0.83649 5.78555,1.30352 9.66898,1.03432 3.88336,-0.26921 7.06451,0.0556 7.06402,0.71253 -4.9e-4,0.65695 0.80069,0.92321 1.7775,0.5976 2.89368,-0.96458 5.92982,-13.80226 4.17558,-17.65239 -1.19091,-2.61386 -3.08489,-3.79384 -7.50073,-3.77718 z m -5.97607,7.76123 c -0.3123,-0.006 -0.63258,0.002 -0.96536,0.023 -1.59728,0.0988 -3.40705,0.50195 -5.21757,1.23353 l -4.20624,1.70088 3.56266,0.93472 c 4.86496,1.27482 11.73145,0.1152 11.07872,-1.86944 -0.42501,-1.29219 -2.06613,-1.98133 -4.25221,-2.02267 z"
       transform="matrix(0.46741797,0,0,0.46741797,368.00482,416.12823)" />
  </g>
</svg>
