<?xml version="1.0" encoding="UTF-8" standalone="no"?>
<!-- Created with Inkscape (http://www.inkscape.org/) -->

<svg
   viewBox="0 0 35.349998 38.720001"
   id="svg5584"
   version="1.1"
   inkscape:version="1.3.2 (091e20e, 2023-11-25, custom)"
   sodipodi:docname="Fu.svg"
   xmlns:inkscape="http://www.inkscape.org/namespaces/inkscape"
   xmlns:sodipodi="http://sodipodi.sourceforge.net/DTD/sodipodi-0.dtd"
   xmlns="http://www.w3.org/2000/svg"
   xmlns:svg="http://www.w3.org/2000/svg"
   xmlns:rdf="http://www.w3.org/1999/02/22-rdf-syntax-ns#"
   xmlns:cc="http://creativecommons.org/ns#"
   xmlns:dc="http://purl.org/dc/elements/1.1/">
  <defs
     id="defs5586" />
  <sodipodi:namedview
     id="base"
     pagecolor="#ffffff"
     bordercolor="#666666"
     borderopacity="1.0"
     inkscape:pageopacity="0.0"
     inkscape:pageshadow="2"
     inkscape:zoom="14.178719"
     inkscape:cx="17.702587"
     inkscape:cy="19.360001"
     inkscape:document-units="px"
     inkscape:current-layer="layer1"
     showgrid="false"
     fit-margin-top="0"
     fit-margin-left="0"
     fit-margin-right="0"
     fit-margin-bottom="0"
     inkscape:window-width="1292"
     inkscape:window-height="745"
     inkscape:window-x="-8"
     inkscape:window-y="-8"
     inkscape:window-maximized="1"
     inkscape:showpageshadow="0"
     inkscape:pagecheckerboard="1"
     inkscape:deskcolor="#d1d1d1" />
  <metadata
     id="metadata5589">
    <rdf:RDF>
      <cc:Work
         rdf:about="">
        <dc:format>image/svg+xml</dc:format>
        <dc:type
           rdf:resource="http://purl.org/dc/dcmitype/StillImage" />
      </cc:Work>
    </rdf:RDF>
  </metadata>
  <g
     inkscape:label="Layer 1"
     inkscape:groupmode="layer"
     id="layer1"
     transform="matrix(-0.53586654,0,0,-0.53586654,352.68566,344.0583)"
     style="display:inline">
    <path
       inkscape:connector-curvature="0"
       id="path5629"
       d="m 619.28572,539.1479 -13.57143,90 81.78571,0.35714 -15,-90.35714 -25.35714,-7.5 z"
       style="display:inline;fill:#ffffff;fill-opacity:1;stroke:none"
       transform="matrix(0.4969002,0,0,0.4969002,303.96214,317.42257)" />
    <path
       id="path5617"
       style="display:inline;fill:#d0d0d0"
       d="m 646.74694,530.30809 -14.12001,3.60885 c -7.76709,1.98389 -14.2847,3.81347 -14.47942,4.06363 -0.33179,0.42624 -13.75765,90.57764 -13.73125,92.20182 0.007,0.4125 18.91545,0.74818 42.01527,0.74818 40.21326,0 42.00061,-0.0753 42.00061,-1.84844 0,-1.86551 -12.80282,-88.85685 -13.32782,-90.55876 -0.15502,-0.50256 -6.59877,-2.55593 -14.31805,-4.56242 z m -0.0587,3.62352 c 3.12258,0.005 25.73876,6.30214 25.73876,7.16636 0,1.24789 11.92199,80.89471 12.58698,84.08924 l 0.57214,2.74332 H 646.6589 607.73169 l 1.72374,-11.24467 c 0.94613,-6.18744 3.87751,-25.94479 6.52088,-43.90039 l 4.8118,-32.64839 12.06619,-3.10273 c 6.63922,-1.70853 12.86719,-3.10474 13.83394,-3.10274 z m -4.88515,19.34991 v 0.007 c -0.40957,-0.007 -0.8026,-0.005 -1.17362,0.007 -5.19396,0.18042 -6.55761,2.39042 -1.66506,4.19565 4.02237,1.48415 5.30342,3.81122 5.3326,9.65296 0.0201,4.02065 -0.89427,5.35746 -4.51107,6.63823 -4.1565,1.4719 -4.67201,1.18836 -6.18346,-3.37413 -1.67234,-5.04818 -5.46686,-6.93684 -10.23976,-5.10521 -2.33699,0.89683 -2.30465,1.25142 0.33741,3.18342 1.63512,1.19566 3.82042,4.70334 4.84115,7.78985 1.85436,5.60751 3.11823,6.09111 10.26176,3.91692 2.71995,-0.82784 3.81199,-0.25501 4.67978,2.47926 1.40695,4.43293 -3.44332,8.71798 -8.23729,7.27639 -9.69518,-2.91546 -13.58958,-2.62618 -16.27652,1.21028 -3.16312,4.51603 -3.45846,9.89126 -0.69683,12.653 3.37761,3.37772 9.19685,2.18618 15.22027,-3.10274 5.70216,-5.00675 9.18351,-5.23568 9.18351,-0.60147 0,3.22094 5.98838,3.03366 7.23971,-0.22739 0.55037,-1.4343 0.99024,-4.32979 0.99024,-6.42552 0,-3.45239 2.74358,-5.80204 6.74093,-5.80204 0.83256,0 1.51102,2.50661 1.51102,5.57465 0,6.59728 -7.60679,14.32682 -22.22526,22.57735 -5.00281,2.82358 -9.09549,5.50255 -9.09549,5.9414 0,0.43888 2.40773,0.26887 5.3546,-0.36675 20.47107,-4.41546 33.43761,-14.37332 33.00048,-25.33533 -0.22149,-5.55439 0.16366,-6.27522 2.92669,-5.55265 4.60097,1.20323 8.28068,-0.64465 7.1517,-3.58685 -1.38168,-3.60071 -11.83588,-5.98556 -19.03451,-4.34236 -5.18872,1.18443 -6.16246,0.94457 -6.85829,-1.7164 -0.96989,-3.70896 4.64068,-5.64414 12.06619,-4.15899 5.56147,1.11234 7.83479,-1.22771 4.77513,-4.9145 -1.4641,-1.76421 -4.28411,-2.36513 -9.21285,-1.97313 -4.90216,0.38991 -7.10034,-0.08 -7.10034,-1.51102 0,-1.23416 2.17164,-2.08299 5.36193,-2.09783 6.49982,-0.0307 10.34319,-2.19708 8.67739,-4.89249 -0.73204,-1.18453 -3.79425,-1.73175 -7.56979,-1.37166 -5.34458,0.5097 -6.404,0.0768 -6.80695,-2.73598 -0.37975,-2.65093 -1.91179,-3.44056 -7.48177,-3.84358 -0.44556,-0.0322 -0.87409,-0.0588 -1.28363,-0.066 z m -14.80217,39.31598 c 4.90859,0 5.39986,2.50149 0.94622,4.88515 -4.64233,2.48458 -7.21145,2.10908 -6.05877,-0.89488 0.55037,-1.4343 1.00491,-2.92155 1.00491,-3.30078 0,-0.37921 1.84081,-0.68949 4.10764,-0.68949 z"
       transform="matrix(0.4969002,0,0,0.4969002,303.96214,317.42257)" />
    <path
       id="path5615"
       style="display:inline;fill:#b0b0b0"
       d="m 646.46821,530.48413 -13.26914,3.37413 c -7.29906,1.85448 -13.75971,3.86803 -14.35473,4.47439 -0.59502,0.60637 -3.90882,20.44856 -7.36441,44.09844 -3.45558,23.64988 -6.51163,44.24372 -6.79228,45.75616 l -0.50612,2.74332 h 42.12531 c 33.03081,0 42.1223,-0.26681 42.1253,-1.24696 0.0127,-3.60679 -13.44497,-91.32298 -14.076,-91.74705 -0.40921,-0.275 -6.84643,-2.06477 -14.31072,-3.97561 z m 0.18338,2.81667 12.58698,3.35212 c 6.92392,1.84146 12.70913,3.46695 12.85837,3.61619 0.14925,0.14924 2.99565,18.47157 6.32283,40.71697 3.32724,22.2454 6.31292,41.90751 6.63824,43.69501 l 0.59414,3.24944 h -39.13259 -39.1326 l 0.51346,-2.24454 c 0.27963,-1.23744 3.25095,-20.92886 6.60889,-43.75368 3.358,-22.82488 6.19313,-41.58581 6.29349,-41.69254 0.10036,-0.10673 5.95456,-1.71034 13.01242,-3.56484 z m -6.62357,19.98072 v 0.007 c -4.61394,0.1949 -5.67573,2.50121 -1.06359,4.20299 4.02237,1.48415 5.30342,3.81122 5.3326,9.65296 0.0201,4.02065 -0.89427,5.35746 -4.51107,6.63823 -4.15933,1.4729 -4.67097,1.19534 -6.18346,-3.3888 -1.22531,-3.71374 -2.80654,-5.13557 -6.17613,-5.52331 -2.49351,-0.28691 -4.53307,0.27996 -4.53307,1.24697 0,0.96699 0.67985,1.75308 1.51102,1.75308 0.83116,0 2.5737,3.14391 3.88025,6.99765 1.81267,5.3464 3.10612,6.89523 5.48663,6.49888 8.39582,-1.39792 9.72754,-1.0819 10.23243,2.46458 0.76874,5.40006 -4.71286,7.72188 -12.63833,5.34726 -7.63259,-2.28679 -12.87948,-0.17832 -14.37673,5.78737 -1.18909,4.73784 1.75727,10.82657 5.23724,10.82657 3.34967,0 8.83154,-2.90933 13.61388,-7.21771 l 3.89493,-3.50616 2.49392,3.71154 c 3.81048,5.66651 6.68496,4.51005 8.22261,-3.30078 1.07474,-5.45939 2.18491,-7.12263 5.0392,-7.53312 3.20885,-0.46146 3.66753,0.21399 3.66753,5.44996 0,6.98392 -5.05296,12.4159 -20.19345,21.67513 -5.21358,3.18846 -9.48424,6.06467 -9.48424,6.40352 0,0.33886 3.90238,-0.5325 8.66272,-1.9438 19.41228,-5.75519 28.16161,-13.30596 27.32313,-23.56758 -0.46313,-5.66793 -0.32313,-5.82787 4.84848,-5.32526 3.77868,0.36724 5.32526,-0.17704 5.32526,-1.8631 0,-4.67472 -4.64694,-6.47936 -14.72148,-5.7507 -8.40167,0.60775 -9.89329,0.28533 -10.5625,-2.27387 -1.0539,-4.03028 0.95751,-4.96242 9.60894,-4.43038 8.47507,0.52119 10.45595,-0.69613 7.3204,-4.47439 -1.69897,-2.04718 -3.91837,-2.4542 -9.30087,-1.71641 -6.20751,0.85086 -7.07834,0.59033 -7.07834,-2.18585 0,-2.62853 0.90814,-3.03265 5.36193,-2.3839 2.94688,0.42925 6.46667,0.0436 7.81919,-0.8582 3.81901,-2.54647 -0.234,-5.41539 -6.77761,-4.7898 -4.23946,0.40529 -5.97752,-0.24724 -7.26172,-2.75799 -1.13634,-2.22167 -3.69392,-3.46213 -7.83385,-3.8069 -0.79758,-0.0664 -1.52672,-0.0939 -2.18585,-0.066 z m -8.97813,39.34532 c 2.26154,-0.0656 1.6951,0.57719 -0.62348,3.13941 -3.87404,4.28093 -9.65036,4.6336 -8.87543,0.54279 0.36919,-1.94949 2.39929,-3.06481 6.26415,-3.43281 1.42434,-0.13569 2.48093,-0.22755 3.23476,-0.24939 z"
       transform="matrix(0.4969002,0,0,0.4969002,303.96214,317.42257)" />
    <path
       id="path5613"
       style="display:inline;fill:#8e8e8e"
       d="m 646.34351,530.68218 -12.91705,3.28611 c -7.10343,1.81053 -13.44833,3.62543 -14.09801,4.02695 -0.69868,0.43181 -3.75207,18.03354 -7.47443,43.0862 -3.46127,23.29503 -6.55433,44.03841 -6.87296,46.10091 l -0.57947,3.74822 h 42.01527 c 23.10638,0 42.01662,-0.33568 42.02262,-0.74818 0.0619,-4.12801 -13.5516,-91.03295 -14.39141,-91.87174 -0.61735,-0.61661 -7.10247,-2.58105 -14.41341,-4.3717 z m 0.15404,2.42057 12.56497,3.34479 c 6.90979,1.84159 12.76985,3.557 13.01975,3.8069 0.44286,0.44286 13.33849,84.94249 13.34249,87.42669 0.002,0.97867 -8.45902,1.2543 -38.99323,1.2543 -21.44982,0 -39.00056,-0.15148 -39.00056,-0.33741 0,-1.5193 13.12246,-88.12355 13.39384,-88.39492 0.19454,-0.19454 6.04869,-1.87024 13.01241,-3.72622 z m -4.88516,20.11276 c -4.57311,0.12348 -6.68975,2.52055 -2.4059,3.88025 1.95719,0.62122 3.8766,3.02038 4.42305,5.52331 0.53121,2.43316 1.25261,5.34333 1.59904,6.46953 0.5308,1.72572 -8.95146,8.30775 -9.71163,6.74093 -3.90339,-8.04558 -5.93341,-10.51964 -8.97812,-10.9586 -3.98456,-0.57444 -5.04331,2.11748 -1.38633,3.52084 1.24548,0.47801 2.7566,3.49746 3.35946,6.71159 1.39031,7.41122 2.99667,8.34185 9.00013,5.23724 4.34167,-2.24535 4.93189,-2.23979 5.81671,0.066 3.06903,7.99823 -2.64886,12.04584 -12.45495,8.80942 -5.91953,-1.95373 -6.66454,-1.82629 -10.47448,1.75308 -4.71633,4.43093 -5.22078,8.51768 -1.51102,12.22756 3.73225,3.73239 6.45125,3.23986 12.81437,-2.34722 6.65218,-5.84091 8.57521,-6.12545 11.01727,-1.56237 2.57284,4.80756 5.38983,3.16706 7.48911,-4.35703 1.44048,-5.1629 2.67615,-6.55093 6.11744,-6.96098 4.1084,-0.48951 4.2711,-0.22749 3.42548,5.76536 -1.02601,7.27116 -7.92812,14.34294 -21.60178,22.16658 -4.7679,2.72803 -8.67005,5.2367 -8.67005,5.57466 0,1.46476 17.93336,-4.78878 24.33042,-8.48668 8.8014,-5.08798 12.35661,-10.40228 11.65543,-17.41345 -0.52417,-5.2412 -0.3454,-5.43485 4.81181,-4.93651 3.93326,0.38007 5.36193,-0.14453 5.36193,-1.99514 0,-4.07215 -6.4107,-6.36546 -15.68238,-5.59665 -6.87006,0.56974 -8.97257,0.14723 -10.37912,-2.10517 -2.53382,-4.05732 -0.95617,-4.82647 9.85833,-4.82647 5.28914,0 9.60894,-0.71685 9.60894,-1.59171 0,-2.93033 -6.06491,-4.87837 -12.12487,-3.89493 -5.33027,0.86504 -6.01475,0.57473 -6.01475,-2.54527 0,-3.07382 0.95089,-3.51349 7.56245,-3.51349 5.32798,0 7.34889,-0.60803 6.84362,-2.06116 -0.42237,-1.21471 -3.41656,-2.00133 -7.29106,-1.92912 -5.1388,0.0958 -6.9011,-0.6271 -8.07591,-3.30078 -0.90836,-2.06729 -3.38024,-3.64121 -6.24214,-3.96827 -0.74217,-0.0847 -1.4373,-0.113 -2.0905,-0.0954 z m 1.98047,37.73893 c 0.39985,0 0.72617,0.73629 0.72617,1.64306 0,0.90676 -0.77816,1.65039 -1.73841,1.65039 -0.96024,0 -1.30123,-0.74363 -0.74084,-1.65039 0.56039,-0.90677 1.35323,-1.64306 1.75308,-1.64306 z m -14.15668,1.82643 c 4.09295,-0.0935 4.22532,1.25262 0.45477,4.11498 -4.2566,3.23144 -9.00024,2.89868 -8.33997,-0.58681 0.35984,-1.90016 2.363,-3.06322 5.88272,-3.40347 0.74614,-0.072 1.41777,-0.11118 2.00248,-0.1247 z"
       transform="matrix(0.4969002,0,0,0.4969002,303.96214,317.42257)" />
    <path
       id="path5611"
       style="display:inline;fill:#6f6f6f"
       d="m 645.92541,530.68951 -13.37183,3.57952 c -7.35777,1.97078 -13.57707,3.78474 -13.81927,4.02695 -0.2422,0.2422 -3.33987,19.94891 -6.88029,43.79036 -3.54049,23.8415 -6.69665,44.58847 -7.01233,46.10091 l -0.57213,2.74332 h 42.20599 42.20598 l -0.51345,-2.74332 c -0.28064,-1.51244 -3.33623,-22.10628 -6.79227,-45.75616 -3.59991,-24.63392 -6.79552,-43.4301 -7.48178,-44.01042 -0.65878,-0.55713 -7.22151,-2.52417 -14.58211,-4.3717 z m 0.69684,2.33989 12.41827,3.30078 c 6.83001,1.81648 12.68578,3.56829 13.01241,3.89492 0.58311,0.58312 13.32436,83.53061 13.35716,86.95725 0.0157,1.63704 -2.49616,1.75308 -38.97856,1.75308 -21.44982,0 -39.00356,-0.33568 -39.00056,-0.74818 0.0194,-2.43926 12.97884,-87.56914 13.39384,-87.98415 0.27809,-0.27809 6.19555,-2.00106 13.15178,-3.83625 z m -5.28125,20.08342 c -1.6722,0.0288 -3.18473,0.4854 -4.14432,1.44501 -1.2708,1.27097 -1.03804,1.77508 0.82153,1.77508 3.59665,0 5.81515,3.09425 7.08568,9.89501 1.00731,5.39198 0.7136,5.92547 -4.28368,7.81185 -2.94648,1.11222 -5.40479,1.83932 -5.46463,1.62839 -1.32843,-4.68642 -5.98606,-10.38913 -8.81675,-10.79723 -4.01512,-0.57886 -5.03987,2.10924 -1.34232,3.52817 1.2746,0.48913 2.83778,3.21593 3.46215,6.05877 1.32436,6.02986 4.45016,7.72659 9.78498,5.29592 3.28161,-1.49532 4.07122,-1.19126 5.63334,2.2372 1.57906,3.46579 1.27101,4.34068 -2.34722,6.71159 -3.62053,2.37234 -4.99246,2.45152 -10.6872,0.57213 -6.11329,-2.01768 -6.80638,-1.91023 -10.64319,1.6944 -4.71633,4.43093 -5.22078,8.51768 -1.51102,12.22756 3.73225,3.73239 6.45125,3.23986 12.81437,-2.34722 6.65218,-5.84091 8.57521,-6.12543 11.01727,-1.56237 2.56578,4.7944 5.17871,3.2465 7.29106,-4.32036 1.47759,-5.29287 2.64337,-6.58738 6.30082,-7.01232 4.0289,-0.46811 4.48907,0.004 4.48907,4.56241 0,6.48019 -7.29478,14.42443 -20.60421,22.44531 -8.9542,5.39632 -9.34554,5.84885 -4.12231,4.79714 9.13397,-1.8393 22.67896,-8.82543 26.49427,-13.66524 2.66961,-3.38651 3.29388,-5.93179 2.64796,-10.77521 l -0.85087,-6.3375 5.64067,1.05625 c 4.39274,0.82411 5.63333,0.51068 5.63333,-1.43034 0,-4.12952 -6.46224,-6.37354 -15.6237,-5.42795 -7.13085,0.73601 -8.81436,0.37125 -10.45247,-2.25187 -1.07319,-1.71853 -1.94379,-3.49526 -1.94379,-3.96094 0,-0.46556 4.82279,-0.85086 10.71653,-0.85086 5.89363,0 10.7092,-0.708 10.7092,-1.56971 0,-2.89867 -5.44146,-4.65372 -11.80946,-3.79956 -5.56956,0.74707 -6.33016,0.45325 -6.33016,-2.55994 0,-2.84432 1.19171,-3.50992 7.01966,-3.9316 8.60609,-0.6227 8.45527,-3.92409 -0.16137,-3.5355 -4.91765,0.22179 -6.50516,-0.44335 -7.75317,-3.28612 -1.09042,-2.48377 -4.68964,-4.13386 -7.94388,-4.30568 -0.24408,-0.0132 -0.48727,-0.0196 -0.72617,-0.0147 z m 1.95112,38.47977 c 0.60082,0.0203 1.02691,0.67084 1.02691,1.73108 0,2.89592 -0.99265,3.32834 -2.4059,1.04158 -0.52166,-0.84412 -0.19534,-2.00505 0.72617,-2.57461 0.23038,-0.14245 0.45255,-0.20479 0.65282,-0.19805 z m -15.38164,0.33008 c 0.54645,0.002 1.09584,0.0769 1.64306,0.22005 1.77131,0.46324 3.22743,1.4816 3.22743,2.2592 0,0.77773 -2.24415,2.56047 -4.98051,3.97561 -4.56918,2.3629 -5.06097,2.35225 -6.03676,-0.19071 -1.17511,-3.06237 2.32167,-6.27655 6.14678,-6.26415 z"
       transform="matrix(0.4969002,0,0,0.4969002,303.96214,317.42257)" />
    <path
       id="path5609"
       style="display:inline;fill:#4f4f4f"
       d="m 646.2775,530.86555 -13.65057,3.59419 c -7.50642,1.9747 -13.77215,3.70843 -13.92196,3.85824 -0.14981,0.1498 -3.19356,20.03796 -6.77027,44.1938 -3.57665,24.15577 -6.74143,44.93676 -7.02699,46.17426 l -0.52079,2.24453 h 42.03728 42.02995 l -0.57947,-3.74822 c -0.31863,-2.0625 -3.40455,-22.7679 -6.85829,-46.01289 -3.4538,-23.24499 -6.53968,-42.52553 -6.85829,-42.84414 -0.3186,-0.31861 -6.72271,-2.12781 -14.23004,-4.01962 z m 0.65282,2.04649 12.49896,3.35946 c 10.88216,2.92179 12.59715,3.66521 13.27647,5.75803 0.87316,2.69 12.72635,81.76521 12.72635,84.90343 0,1.96814 -0.65572,2.00247 -39.00057,2.00247 -30.53387,0 -39.00156,-0.27564 -39.00056,-1.2543 0.005,-3.94682 12.93835,-87.07173 13.64323,-87.68342 0.46802,-0.40615 6.48222,-2.16467 13.35716,-3.90959 z m -3.84358,20.06875 c -1.66977,-0.0378 -3.43766,0.44124 -5.09054,1.48902 -1.6744,1.06142 -1.38266,1.61587 1.21763,2.29587 3.40582,0.89068 6.74826,7.10048 6.74826,12.5283 0,1.7413 -2.12979,3.63522 -5.46463,4.84115 -7.36603,2.66369 -7.71649,2.56503 -7.71649,-1.95113 0,-4.87629 -3.95683,-8.35089 -7.81185,-6.86563 -2.68827,1.03574 -2.70318,1.23834 -0.15403,2.66997 1.51592,0.85119 3.25586,3.81806 3.86558,6.59423 1.30605,5.94653 4.12844,7.45736 9.04414,4.82647 2.94443,-1.57587 3.96381,-1.38567 5.85338,1.1076 3.30192,4.35672 2.9253,6.29185 -1.72374,8.78008 -3.24118,1.73458 -5.43115,1.81047 -10.25443,0.33007 -4.94871,-1.51886 -6.83249,-1.43354 -9.77031,0.49145 -5.06684,3.32006 -6.43937,8.63531 -3.16875,12.24957 3.40131,3.75844 9.37142,2.71069 14.28138,-2.51593 4.59618,-4.89258 6.99772,-4.98819 10.05638,-0.38142 3.15608,4.75348 5.59905,2.91129 6.89497,-5.19323 0.96364,-6.02637 1.50833,-6.62357 5.98541,-6.62357 4.37986,0 4.92184,0.55422 4.92184,4.97318 0,6.34993 -7.36999,14.35145 -20.60421,22.37196 -7.49334,4.5413 -8.6979,5.72424 -4.95118,4.89249 2.72019,-0.60387 9.54308,-3.22287 15.14692,-5.81671 11.74775,-5.43761 16.29751,-11.79341 14.45742,-20.17144 -1.1056,-5.03396 -1.09737,-5.03093 4.84115,-3.91693 4.78045,0.89687 5.94874,0.60574 5.94874,-1.47435 0,-3.67374 -7.82255,-6.23237 -16.25451,-5.31059 -5.56688,0.60857 -7.89335,0.0947 -10.30578,-2.31788 -1.71337,-1.71344 -3.1174,-3.49288 -3.1174,-3.94627 0,-0.45328 5.2621,-0.82152 11.68477,-0.82152 8.60546,0 11.48877,-0.54981 10.98793,-2.06849 -0.40742,-1.23515 -4.35221,-2.25938 -9.851,-2.55261 -8.17938,-0.43615 -9.08336,-0.82596 -8.33264,-3.69687 0.65301,-2.49716 2.27515,-3.22743 7.23972,-3.22743 4.74912,0 6.41085,-0.66928 6.41085,-2.61129 0,-2.1194 -1.19577,-2.42242 -6.28616,-1.56237 -5.63247,0.95163 -6.49513,0.62152 -8.21528,-3.15408 -1.22858,-2.69651 -3.73057,-4.19866 -6.51354,-4.26167 z m 1.2543,37.93698 c 0.0922,-0.003 0.18351,0.004 0.2714,0.022 0.20091,0.0409 0.38637,0.14441 0.55013,0.30807 0.34373,0.34377 0.0179,1.61267 -0.72617,2.81667 -0.87599,1.4174 -1.72868,1.57713 -2.41324,0.46945 -0.82562,-1.3359 0.93574,-3.57725 2.31788,-3.61619 z m -16.89266,0.9829 c 0.87858,0.0239 1.83121,0.1613 2.846,0.43276 l 4.72379,1.26897 -5.07587,3.61619 c -6.22896,4.43556 -8.70673,4.59438 -8.70673,0.53546 0,-3.51344 2.04791,-5.62505 5.3546,-5.84605 0.27557,-0.0185 0.56533,-0.0159 0.85821,-0.007 z"
       transform="matrix(0.4969002,0,0,0.4969002,303.96214,317.42257)" />
    <path
       id="path5607"
       style="display:inline;fill:#2f2f2f"
       d="m 646.59291,530.89489 -13.83394,3.62353 c -7.60709,1.99447 -13.90582,3.69122 -13.99532,3.77022 -0.35004,0.30922 -13.33515,88.38423 -13.33515,90.44874 v 2.19319 h 41.58251 41.57517 l -0.57214,-2.74332 c -0.31486,-1.51244 -3.26042,-20.98002 -6.55021,-43.2549 -3.28985,-22.27488 -6.22893,-41.89744 -6.52822,-43.60699 -0.53882,-3.07771 -0.6793,-3.14453 -14.44275,-6.77027 z m 0.33741,1.90712 12.00017,3.19809 c 6.6,1.75846 12.48917,3.69746 13.0931,4.31302 0.99771,1.01692 13.43504,81.08531 13.41584,86.37044 l -0.007,2.25187 h -39.00057 c -33.65597,0 -39.00056,-0.20505 -39.00056,-1.47435 0,-3.27716 12.13289,-84.17167 12.90239,-86.02569 0.64921,-1.56419 3.63256,-2.7242 13.70924,-5.31793 z m -2.77999,20.8536 c -0.41189,-0.0268 -0.83293,-0.0235 -1.26897,0.007 -1.16277,0.0823 -2.39569,0.3685 -3.67487,0.88021 -2.70781,1.0832 -3.08079,1.60801 -1.16627,1.67973 3.71767,0.13914 7.92187,6.38664 7.92187,11.76545 0,3.50952 -1.2201,4.80949 -6.49154,6.88029 l -6.5062,2.55261 -0.50612,-5.01719 c -0.27721,-2.76263 -1.77217,-5.81881 -3.31545,-6.78494 -4.07556,-2.55142 -5.35954,-0.21506 -2.29588,4.15899 1.45248,2.07391 2.63329,5.10804 2.63329,6.74826 0,3.92544 3.80288,5.25992 8.24462,2.88268 2.94443,-1.57587 3.96381,-1.38567 5.85338,1.1076 3.33163,4.3959 2.93063,6.10933 -2.14917,9.11015 -3.99764,2.36155 -5.20182,2.40612 -10.03438,0.37409 -6.39193,-2.68774 -11.17865,-0.98611 -13.34982,4.76046 -3.54619,9.38609 6.1885,12.40239 15.08823,4.67244 2.97843,-2.58681 6.4422,-4.34723 7.70183,-3.90959 1.3228,0.45958 1.83446,0.0564 1.21028,-0.95356 -0.59437,-0.96175 -0.27767,-2.2465 0.70417,-2.85334 2.70608,-1.67252 3.94351,0.49719 1.77509,3.11007 -2.22345,2.67917 -0.67876,8.09406 2.05382,7.1957 1.02168,-0.3359 2.23127,-3.52216 2.68463,-7.07834 0.75051,-5.88682 1.30527,-6.51994 6.18346,-6.99032 4.9642,-0.47866 5.35461,-0.1463 5.35461,4.41571 0,6.14362 -5.85384,13.28642 -16.59193,20.24479 -4.47633,2.90066 -8.13459,5.51605 -8.13459,5.81671 0,1.67277 5.57057,-0.0261 14.17869,-4.32769 11.55851,-5.77603 16.32475,-12.3487 14.61145,-20.14944 l -1.13693,-5.14188 6.05877,0.9829 c 5.06098,0.82135 5.97869,0.53552 5.53797,-1.75308 -0.78773,-4.09048 -10.29501,-6.26126 -18.1983,-4.15165 -5.92285,1.58097 -6.69168,1.43276 -7.42309,-1.36432 -0.44898,-1.71695 -2.00447,-3.11741 -3.44015,-3.11741 -1.90395,0 -2.11221,-0.49171 -0.78485,-1.8191 1.00091,-1.00095 6.33326,-1.86969 11.8608,-1.92178 7.24911,-0.0683 10.06372,-0.7039 10.06372,-2.29588 0,-1.57615 -2.59097,-2.20052 -9.06615,-2.20052 -4.98701,0 -9.07348,-0.31029 -9.07348,-0.6895 0,-4.02324 2.73033,-5.91206 8.56003,-5.91206 4.5214,0 6.33248,-0.63976 5.84605,-2.06116 -0.43619,-1.27458 -2.94299,-1.85734 -6.57956,-1.53303 -4.71015,0.42005 -6.09356,-0.1382 -6.93898,-2.80199 -0.87168,-2.74659 -3.11685,-4.33103 -6.00008,-4.51841 z m -16.40855,37.93698 c 0.25571,-2.4e-4 0.51774,0.0153 0.78485,0.0367 0.61053,0.0493 1.25053,0.16529 1.90712,0.33008 l 4.56241,1.13693 -4.4964,3.86558 c -5.42444,4.66609 -9.26419,5.00409 -9.26419,0.79219 0,-3.54244 2.30995,-5.83795 5.7507,-6.12478 0.24575,-0.0206 0.49979,-0.0363 0.75551,-0.0367 z"
       transform="matrix(0.4969002,0,0,0.4969002,303.96214,317.42257)" />
    <path
       id="path5605"
       style="display:inline;fill:#040404"
       d="m 646.32884,531.14429 -13.78993,3.57951 -13.78993,3.57218 -6.68958,45.06666 c -3.67864,24.78795 -6.67574,45.40968 -6.66024,45.82218 0.0155,0.4125 18.6182,0.74818 41.33311,0.74818 h 41.29644 l -6.22747,-41.75121 c -3.42719,-22.96238 -6.5137,-43.61301 -6.85096,-45.8882 l -0.60881,-4.13698 -14.00998,-3.50616 z m 0.60148,1.52569 12.97574,3.47682 12.97573,3.46949 6.19814,41.40647 c 3.40998,22.7747 6.43069,42.87579 6.71159,44.66323 l 0.51345,3.24944 H 646.8643 c -38.64206,0 -39.43333,-0.0397 -39.43333,-1.98047 0,-2.06206 11.64113,-82.00727 12.45495,-85.53424 0.38307,-1.66017 2.774,-2.59167 13.75325,-5.37661 z m -2.08316,22.17391 c -0.52643,-0.003 -1.10676,10e-4 -1.76042,0.022 -3.40019,0.10518 -4.99595,0.5192 -3.5355,0.90955 3.11262,0.83196 6.41085,7.35963 6.41085,12.68967 0,2.65644 -1.68464,4.53947 -5.82404,6.51354 -7.50504,3.579 -7.35708,3.62423 -7.35708,-2.10516 0,-3.08598 -1.13591,-5.50202 -3.08073,-6.54289 -3.99883,-2.14019 -5.69128,-0.40281 -2.61128,2.6773 1.31692,1.31697 2.39123,4.21694 2.39123,6.44753 0,4.94946 3.42295,6.52467 8.39132,3.86558 3.12172,-1.67075 4.05978,-1.50365 5.90473,1.01958 3.24717,4.44089 2.68835,6.94333 -2.10517,9.4549 -3.23313,1.69407 -5.81603,1.84105 -10.4598,0.60148 -7.71038,-2.05809 -11.23208,-0.77011 -12.57965,4.59908 -2.54278,10.13168 5.44288,12.34475 14.82418,4.10764 l 5.73602,-5.03919 3.3888,3.38147 c 4.85162,4.85179 6.41659,4.23367 6.99766,-2.78733 0.47918,-5.78991 0.88444,-6.21098 6.41819,-6.67491 5.81227,-0.4873 5.89433,-0.40862 5.16388,4.94384 -0.87811,6.43437 -6.35032,12.78305 -17.64084,20.4575 -9.53328,6.48003 -9.14005,6.79526 2.90469,2.28855 12.28854,-4.59791 18.49808,-11.40393 18.27166,-20.03941 l -0.18338,-6.69692 5.67001,0.91688 c 6.89433,1.11883 6.73399,-1.89161 -0.28607,-5.31059 -3.60043,-1.75351 -6.37465,-1.88257 -12.03685,-0.5868 -6.61067,1.51269 -7.43922,1.36905 -8.17126,-1.43034 -0.44798,-1.71318 -1.8264,-3.11741 -3.08073,-3.11741 -1.25434,0 -2.28855,-0.64681 -2.28855,-1.43034 0,-1.9468 14.18446,-3.75006 19.33525,-2.45724 3.12899,0.78538 3.99269,0.47963 3.42548,-1.23963 -0.48763,-1.47801 -3.84766,-2.47035 -9.4329,-2.79466 -6.97597,-0.40505 -8.47914,-0.99634 -7.70183,-3.02205 0.53115,-1.38423 0.9609,-3.023 0.9609,-3.65287 0,-0.62982 3.06185,-0.86992 6.79961,-0.51345 5.21132,0.49699 6.62234,0.13614 6.03676,-1.59171 -0.52538,-1.55024 -2.90385,-2.09018 -7.62114,-1.70907 -6.02875,0.48705 -6.85829,0.14853 -6.85829,-2.87535 0,-2.54533 -0.73068,-3.25053 -4.41571,-3.27878 z m -1.34965,36.11055 c 1.36009,0 2.46458,1.10454 2.46458,2.46458 0,2.5745 -1.94665,3.27601 -3.84358,1.379 -1.89694,-1.897 -1.19541,-3.84358 1.379,-3.84358 z m -16.96602,0.20538 c 1.47073,0.0302 3.20138,0.44509 5.24458,1.24697 2.88496,1.13223 2.77275,1.49712 -1.45968,4.82647 -7.26392,5.714 -12.77627,3.9218 -9.09549,-2.95603 1.14759,-2.1443 2.85947,-3.16762 5.31059,-3.11741 z"
       transform="matrix(0.4969002,0,0,0.4969002,303.96214,317.42257)" />
  </g>
</svg>
