<?xml version="1.0" encoding="UTF-8" standalone="no"?>
<!-- Created with Inkscape (http://www.inkscape.org/) -->

<svg
   viewBox="0 0 35.349998 38.720001"
   id="svg2"
   version="1.1"
   inkscape:version="1.3.2 (091e20e, 2023-11-25, custom)"
   sodipodi:docname="Hi.svg"
   xmlns:inkscape="http://www.inkscape.org/namespaces/inkscape"
   xmlns:sodipodi="http://sodipodi.sourceforge.net/DTD/sodipodi-0.dtd"
   xmlns="http://www.w3.org/2000/svg"
   xmlns:svg="http://www.w3.org/2000/svg"
   xmlns:rdf="http://www.w3.org/1999/02/22-rdf-syntax-ns#"
   xmlns:cc="http://creativecommons.org/ns#"
   xmlns:dc="http://purl.org/dc/elements/1.1/">
  <defs
     id="defs4" />
  <sodipodi:namedview
     id="base"
     pagecolor="#ffffff"
     bordercolor="#666666"
     borderopacity="1.0"
     inkscape:pageopacity="0.0"
     inkscape:pageshadow="2"
     inkscape:zoom="14.178719"
     inkscape:cx="17.702587"
     inkscape:cy="19.360001"
     inkscape:document-units="px"
     inkscape:current-layer="layer1"
     showgrid="false"
     fit-margin-top="0"
     fit-margin-left="0"
     fit-margin-right="0"
     fit-margin-bottom="0"
     inkscape:window-width="1292"
     inkscape:window-height="745"
     inkscape:window-x="-8"
     inkscape:window-y="-8"
     inkscape:window-maximized="1"
     inkscape:showpageshadow="0"
     inkscape:pagecheckerboard="1"
     inkscape:deskcolor="#d1d1d1" />
  <metadata
     id="metadata7">
    <rdf:RDF>
      <cc:Work
         rdf:about="">
        <dc:format>image/svg+xml</dc:format>
        <dc:type
           rdf:resource="http://purl.org/dc/dcmitype/StillImage" />
      </cc:Work>
    </rdf:RDF>
  </metadata>
  <g
     inkscape:label="Layer 1"
     inkscape:groupmode="layer"
     id="layer1"
     transform="matrix(-0.6413123,0,0,-0.6413123,450.61258,532.26986)"
     style="display:inline">
    <path
       sodipodi:nodetypes="cccccccccccccc"
       inkscape:connector-curvature="0"
       id="path3022"
       d="m 696.85542,712.77682 c -8.0021,2.15083 -16.15596,3.93141 -23.91221,6.82642 -1.41033,0.59863 -0.88901,2.59943 -1.38107,3.78808 -5.59174,32.70098 -10.02622,65.63941 -15.34169,98.37938 -0.47746,1.29025 1.42361,1.0467 2.16995,1.10937 20.07722,0.27002 40.15949,0.0469 60.23849,0.0272 9.71727,-0.12238 19.44689,0.081 29.15626,-0.30819 1.8744,0.0419 0.23817,-2.53151 0.43367,-3.64122 -4.65441,-30.65938 -9.01052,-61.38387 -14.04635,-91.97253 -0.58627,-2.42934 -0.61485,-5.13082 -1.73285,-7.36634 -4.52038,-1.96014 -9.47828,-2.81948 -14.20071,-4.26062 -5.16637,-1.37973 -10.32687,-2.82773 -15.51987,-4.07314 -1.95454,0.49718 -3.90908,0.99437 -5.86362,1.49155 z"
       style="display:inline;fill:#ffffff;fill-opacity:1;stroke:none"
       transform="matrix(0.43187989,0,0,0.43187989,371.56774,468.57446)" />
    <path
       id="path3010"
       style="fill:#cfcfcf"
       d="m 702.45752,709.01105 -16.10622,4.33684 c -8.85948,2.38529 -16.23042,4.46838 -16.37418,4.633 -0.14376,0.16461 -3.69281,23.47753 -7.89092,51.80223 -4.19825,28.32455 -7.81502,52.28533 -8.03196,53.24783 -0.37148,1.6482 2.45877,1.74884 48.53726,1.74884 h 48.92511 l -0.50773,-2.24951 c -0.27786,-1.2375 -3.92656,-25.19829 -8.10952,-53.24784 -4.18296,-28.04955 -7.76072,-51.15981 -7.94733,-51.35091 -0.1866,-0.19111 -7.57366,-2.27406 -16.4165,-4.63301 z m 0.29617,3.15214 14.61125,3.91373 c 8.03628,2.15191 14.76466,4.05698 14.95678,4.2381 0.30426,0.28683 15.10453,98.73869 15.14013,100.71323 0.007,0.4125 -20.23348,0.75454 -44.98318,0.75454 -24.74955,0 -45.00432,-0.26069 -45.00432,-0.57824 0,-1.0574 15.13006,-100.88659 15.31642,-101.05877 0.1008,-0.0931 6.88824,-1.92719 15.07666,-4.07592 z m 6.9883,21.54312 c -1.17777,0.0631 -2.8046,0.73564 -5.79655,2.05912 -3.48897,1.54339 -9.12323,2.85801 -12.53098,2.92648 -7.12148,0.14294 -7.64225,1.17915 -2.58799,5.15483 4.46175,3.50975 5.42644,3.51031 11.80464,0.0917 2.81062,-1.50639 5.73874,-2.72903 6.49467,-2.72903 0.75592,0 1.36805,2.80148 1.36805,6.2267 0,4.97567 0.7296,6.90033 3.6246,9.58334 2.87356,2.66312 5.09084,3.35664 10.69752,3.35664 4.00436,0 8.21882,-0.85199 9.72437,-1.96744 2.4903,-1.84504 2.50667,-2.08269 0.31028,-3.76564 -1.28951,-0.98807 -2.89505,-3.34249 -3.57524,-5.22536 -1.23101,-3.40784 -1.23874,-3.40242 -2.22836,1.10008 -0.94838,4.31473 -1.26169,4.50692 -6.60749,4.11118 -4.8497,-0.35914 -5.74371,-0.93533 -6.63571,-4.29453 -1.54628,-5.82299 -0.21408,-7.56404 6.09977,-8.0249 4.12661,-0.30121 5.81239,-1.08259 6.14208,-2.8207 0.56068,-2.95586 -3.04772,-3.16146 -8.2153,-0.46542 -2.65407,1.38475 -3.495,1.45977 -3.03225,0.25386 0.35223,-0.91794 -0.51025,-2.7179 -1.92513,-3.99834 -1.21328,-1.098 -1.95322,-1.63569 -3.13098,-1.57255 z m 13.2573,11.69182 c -1.393,0.0823 -3.12213,0.95687 -5.10547,2.60915 l -3.23676,2.69378 4.11118,0.0212 c 4.95578,0.0297 8.22705,-1.80143 6.93893,-3.88552 -0.52569,-0.85058 -1.24283,-1.32494 -2.12963,-1.42445 -0.18475,-0.0207 -0.37922,-0.0259 -0.57825,-0.0141 z m -24.30741,1.28342 c -2.6693,0 -3.47216,3.35968 -1.14944,4.7952 1.93226,1.1942 1.70576,14.00505 -0.26796,15.22475 -0.89705,0.5544 -1.8835,0.24478 -2.1931,-0.68402 -0.30961,-0.92882 -1.77914,-2.8186 -3.26497,-4.20285 -2.34257,-2.18243 -2.46011,-2.90349 -0.89557,-5.4087 2.35779,-3.77542 0.14306,-7.51126 -4.80225,-8.10247 -3.32007,-0.39691 -3.55275,-0.11323 -2.8207,3.54703 0.68753,3.43766 0.004,4.66595 -5.04906,8.991 -5.07536,4.34431 -5.44769,5.0138 -2.79955,5.0138 1.67937,0 4.94823,-0.98524 7.27036,-2.18605 3.48866,-1.80412 4.43753,-1.85971 5.40165,-0.33848 3.46446,5.46636 -0.0213,8.19683 -13.75093,10.75393 -8.91347,1.66013 -9.82043,2.35377 -6.34658,4.89392 3.52873,2.58028 7.1527,2.38916 13.75798,-0.73338 3.00843,-1.4223 5.70144,-2.36577 5.97989,-2.08732 0.27845,0.27843 -0.7816,2.59426 -2.35529,5.14073 -3.04936,4.93398 -8.52026,8.23833 -11.6495,7.03766 -2.43304,-0.93369 -4.37039,6.05211 -2.26362,8.15888 1.07165,1.07165 3.21667,0.56552 7.67232,-1.7982 7.17691,-3.80728 12.57404,-9.6872 13.66631,-14.90742 1.01214,-4.83732 2.47671,-7.48948 4.52723,-8.17299 1.24463,-0.41488 1.57002,2.04243 1.26931,9.51283 -0.37883,9.41118 -0.6078,10.05582 -3.46241,9.95708 -3.22265,-0.11161 -3.10582,0.23809 2.2213,6.65686 1.11706,1.34599 2.99852,2.27022 4.17465,2.04501 1.75886,-0.33679 2.2131,-3.15182 2.53158,-15.81004 0.31294,-12.4382 0.76659,-15.37989 2.39054,-15.37989 1.48505,0 2.00976,1.69949 2.00976,6.52288 0,12.14503 6.59546,19.17819 18.19353,19.41349 6.15311,0.12476 13.30667,-3.47646 13.30667,-6.69917 0,-1.54471 -0.60193,-2.8066 -1.33983,-2.8066 -0.73789,0 -2.60237,-2.46643 -4.13938,-5.47922 -1.53701,-3.01266 -2.96707,-5.47921 -3.1874,-5.47921 -0.2203,0 -0.37176,2.93121 -0.32438,6.50877 0.0859,6.48985 0.0784,6.50779 -4.8093,6.91778 -8.05781,0.6759 -11.49507,-3.18184 -11.76233,-13.2291 -0.27474,-10.32811 -1.05082,-11.64669 -6.29017,-10.5988 l -4.12528,0.82506 0.87442,-6.39595 c 0.96268,-7.02352 -1.42509,-11.4168 -6.1985,-11.4168 z m 27.0576,18.49677 c -3.12657,0.0833 -9.0333,3.06011 -9.0333,4.88687 0,1.28103 8.61666,0.48472 11.29692,-1.04366 1.71171,-0.97608 1.14771,-2.83151 -1.12123,-3.70218 -0.30753,-0.11804 -0.69574,-0.15293 -1.14239,-0.14103 z m -1.42445,9.38589 c -0.92234,-0.0138 -1.92186,0.0864 -2.92649,0.33848 -3.88105,0.97412 -4.32929,2.80434 -0.91672,3.73038 3.72925,1.01204 7.60724,0.39412 8.16593,-1.30457 0.5219,-1.58685 -1.55585,-2.72263 -4.32272,-2.76429 z"
       transform="matrix(0.43187989,0,0,0.43187989,371.56774,468.57446)" />
    <path
       id="path3008"
       style="fill:#b0b0b0"
       d="m 702.44342,709.32133 -8.73008,2.23541 c -4.80391,1.23091 -12.11598,3.15705 -16.24726,4.28042 l -7.51012,2.04501 -7.76399,52.19712 c -4.27022,28.70961 -7.75693,52.76484 -7.74283,53.45234 0.0202,0.98241 10.37553,1.24816 48.37507,1.24816 h 48.35391 l -0.74748,-4.74584 c -0.41011,-2.61235 -4.00791,-26.58033 -7.9967,-53.25488 -3.98864,-26.6747 -7.60174,-48.72063 -8.0249,-48.99563 -0.42316,-0.275 -7.78788,-2.29557 -16.36713,-4.48492 z m 0.11988,2.64441 14.6606,3.94899 c 8.06578,2.1714 14.87991,4.16122 15.14013,4.42145 0.48028,0.48028 14.99151,96.48397 15.06961,99.69777 0.0399,1.64137 -2.7489,1.74884 -44.95497,1.74884 -35.34015,0 -45.00112,-0.27352 -44.99022,-1.25521 0.0217,-1.95235 14.88218,-99.97147 15.20359,-100.28307 0.15731,-0.1525 6.94069,-2.08096 15.07666,-4.28042 z m 7.94733,21.90277 c -0.21453,-10e-4 -0.43323,0.006 -0.65582,0.0212 -1.33551,0.0901 -2.8098,0.49077 -4.30157,1.26227 -2.38852,1.23514 -7.95071,2.57007 -12.34763,2.96879 -4.39705,0.39871 -7.99669,1.21133 -7.99669,1.80525 0,1.4711 6.8596,6.75558 8.76533,6.75558 2.67234,0 5.30627,8.1121 4.52723,13.92018 -0.79954,5.96103 -2.31303,8.40244 -3.37074,5.4228 -0.36764,-1.03565 -1.75839,-2.96413 -3.08162,-4.28747 -1.56766,-1.56766 -1.98617,-3.05272 -1.2129,-4.27337 3.24772,-5.1266 0.62405,-9.40704 -5.76129,-9.40704 -2.15725,0 -2.48702,0.6478 -1.77704,3.47651 0.98462,3.92306 -1.6444,7.62774 -8.34928,11.76939 l -4.11823,2.53863 h 4.11823 c 2.25958,-10e-4 5.90839,-0.94653 8.10952,-2.09437 3.20409,-1.67088 4.2219,-1.72791 5.11252,-0.32438 2.6896,4.23834 1.15716,6.43769 -5.94463,8.54673 -3.90269,1.15898 -8.41118,2.10143 -10.0135,2.10143 -1.60233,0 -4.10884,0.8798 -5.57089,1.95333 -2.5639,1.88258 -2.51936,2.00764 1.1988,3.42716 5.55363,2.12016 8.5467,1.83451 14.89332,-1.4033 l 5.6273,-2.86302 -2.59505,4.42851 c -3.67525,6.2762 -9.65532,10.54796 -11.78349,8.4198 -2.62683,-2.62696 -3.38105,-1.94977 -3.57524,3.2156 -0.22835,6.07414 2.56628,7.41871 8.44801,4.06182 7.20362,-4.11144 11.6722,-9.0702 14.08942,-15.64786 3.66076,-9.96174 4.59774,-9.61171 4.59774,1.75589 0,10.0137 -0.16471,10.59209 -2.74313,9.77374 -3.70519,-1.17599 -3.43726,0.63472 0.74748,5.14778 1.91348,2.06359 4.68733,3.74449 6.16324,3.74449 3.06506,0 3.32808,-1.99916 2.73609,-20.18919 -0.31325,-9.62862 -0.0329,-11.29692 1.84756,-11.29692 1.73784,0 2.20015,1.46452 2.20015,6.91072 0,8.84665 3.05648,14.69906 8.95573,17.16399 8.85781,3.7009 21.24875,1.51162 22.29766,-3.93488 0.25238,-1.31052 -1.13428,-4.26622 -3.07456,-6.57224 -1.9404,-2.30604 -3.52588,-5.03697 -3.52588,-6.06452 0,-1.02755 -0.6427,-2.25999 -1.42446,-2.74313 -0.9315,-0.57568 -1.28089,1.63865 -1.0225,6.42415 0.36494,6.75877 0.14598,7.32796 -2.83481,7.74988 -9.27961,1.31352 -14.48086,-5.32461 -13.64516,-17.41079 l 0.43721,-6.32543 -5.2183,0.16219 -5.2042,0.16925 0.91673,-7.35499 c 0.90773,-7.26526 0.86666,-7.37742 -3.35664,-9.15318 l -4.26631,-1.79115 4.84456,-2.31298 c 2.6659,-1.27134 5.09701,-2.30592 5.4087,-2.30592 0.31167,0 0.75959,3.17387 0.98724,7.05176 0.33857,5.76733 1.07304,7.53557 4.03361,9.73848 4.61654,3.43517 16.81934,3.74358 20.0552,0.50772 1.99899,-1.99898 1.94939,-2.44988 -0.6135,-5.29587 -1.54004,-1.7102 -3.12473,-4.04595 -3.52588,-5.19715 -1.09117,-3.13143 -8.38947,-3.20121 -11.19114,-0.10577 -2.95423,3.26438 -0.92558,4.74722 3.95604,2.89122 4.78871,-1.82067 4.81635,-1.8107 4.81635,1.36099 0,2.26987 -0.91988,2.74313 -5.33818,2.74313 -5.78152,0 -6.9883,-1.45008 -6.9883,-8.33518 0,-3.7013 0.37739,-4.00005 5.13368,-4.0195 5.89614,-0.0241 9.33557,-1.71584 7.96849,-3.92783 -1.3325,-2.15603 -6.49667,-1.88923 -9.92888,0.51478 -2.68263,1.87899 -2.85645,1.83772 -2.22835,-0.56414 0.69791,-2.66883 -1.06397,-4.41585 -3.77975,-4.67532 -0.20367,-0.0194 -0.41308,-0.0268 -0.6276,-0.0282 z m 14.76638,30.61168 c -2.97978,0 -8.56083,3.70907 -8.56083,5.68372 0,1.25499 10.64303,0.39577 12.14313,-0.98019 1.30033,-1.19275 -1.37071,-4.70353 -3.5823,-4.70353 z m -1.63601,9.90067 c -0.95453,-0.0225 -1.93217,0.0918 -2.8207,0.37375 -3.3783,1.07223 -3.54508,3.0083 -0.33848,3.87846 3.76903,1.02283 7.60596,0.37667 8.18004,-1.36804 0.50604,-1.53794 -2.15723,-2.81669 -5.02086,-2.88417 z"
       transform="matrix(0.43187989,0,0,0.43187989,371.56774,468.57446)" />
    <path
       id="path3006"
       style="fill:#8f8f8f"
       d="m 702.47867,709.7797 c -2.67542,0 -31.18486,7.7636 -32.00793,8.71597 -0.60336,0.69815 -16.02004,101.90247 -16.00044,105.03596 0.006,0.98253 10.27981,1.24816 48.00837,1.24816 44.08755,0 47.99428,-0.13698 47.99428,-1.66422 0,-3.70011 -15.26871,-103.88958 -15.94403,-104.6199 -0.88868,-0.96105 -29.40312,-8.71597 -32.05025,-8.71597 z m 0.25387,2.10142 14.53367,3.91373 c 7.99294,2.1518 14.83812,4.26317 15.21065,4.69647 0.66202,0.77001 15.04369,97.07848 15.01319,100.53693 -0.0145,1.64051 -2.82739,1.75589 -45.01138,1.75589 h -45.00432 l 0.0141,-2.25656 c 0.0211,-3.33102 14.7012,-99.79493 15.27411,-100.36769 0.26952,-0.26953 7.12375,-2.24318 15.2318,-4.3862 z m 6.6216,22.26946 c -1.11114,0.0961 -2.48145,0.66348 -4.68942,1.75588 -2.82388,1.39721 -8.35467,2.69771 -12.28417,2.89123 -7.76889,0.38256 -8.25918,1.46368 -2.6162,5.67666 l 3.67397,2.75019 6.1985,-3.0111 c 3.40707,-1.65528 6.79117,-3.00405 7.52422,-3.00405 0.73305,0 1.33279,2.65702 1.33279,5.90232 0,6.17922 1.58623,9.18139 6.16323,11.68476 3.94034,2.1552 14.76777,1.9205 17.88326,-0.38784 2.43216,-1.80196 2.47412,-2.12198 0.43721,-3.76564 -1.22445,-0.98807 -2.83381,-2.95233 -3.57524,-4.36504 -1.24435,-2.37099 -1.41885,-2.30174 -2.21425,0.86737 -0.58773,2.3417 -2.0503,3.66243 -4.6189,4.15348 -7.69497,1.47098 -11.3524,-4.03397 -8.80765,-13.25025 1.17968,-4.27236 0.99307,-5.20971 -1.30458,-6.81906 -1.14525,-0.80215 -1.99163,-1.17509 -3.10277,-1.07891 z m 13.82145,3.26496 c -0.89221,0.0167 -2.03921,0.35426 -3.65281,1.02251 -2.3015,0.95331 -4.1817,2.27171 -4.1817,2.93353 0,1.59921 6.99838,1.49998 9.58334,-0.13399 1.5754,-0.99587 1.66865,-1.66682 0.41606,-2.91942 -0.6263,-0.62628 -1.2727,-0.91939 -2.16489,-0.90263 z m -0.27502,8.53263 c -1.27849,0.0168 -2.85329,0.46164 -4.32273,1.42445 -1.77687,1.16424 -3.23676,2.41211 -3.23676,2.77135 0,1.53736 8.02449,0.4772 9.45641,-1.24817 1.52102,-1.83271 0.2339,-2.9757 -1.89692,-2.94763 z m -25.35813,0.93788 c -1.41444,0.14385 -1.56515,1.66881 -0.14103,4.32978 2.30635,4.30945 1.4438,15.18214 -1.24111,15.69017 -1.13121,0.21403 -2.66127,-1.00817 -3.41305,-2.72198 -1.75383,-3.99842 -4.22695,-2.82689 -3.70923,1.76294 0.47543,4.21472 -2.32493,5.78422 -14.68176,8.2153 -9.00286,1.77123 -10.17337,3.8686 -3.27907,5.84591 3.19704,0.9169 5.43424,0.51609 9.94298,-1.7841 3.20316,-1.63419 6.12142,-2.67918 6.48057,-2.32003 1.2626,1.26259 -3.55062,8.74528 -7.14343,11.09947 -1.99837,1.30939 -4.74934,2.08452 -6.11388,1.72768 -3.17775,-0.83099 -4.77461,4.42089 -2.14374,7.05176 1.57338,1.57337 2.84183,1.28668 8.16594,-1.83345 7.47217,-4.37906 11.998,-10.25214 13.09512,-17.0018 0.51154,-3.14782 1.63946,-5.0653 3.16624,-5.35933 2.08422,-0.40139 2.37644,0.80801 2.37644,9.8231 0,9.38697 -0.23619,10.31186 -2.86301,10.71162 l -2.87712,0.43016 3.03226,3.84321 c 1.66679,2.11011 4.03478,3.64918 5.26766,3.41305 1.88765,-0.36155 2.30526,-2.847 2.63031,-15.69722 0.30092,-11.89662 0.82313,-15.42719 2.39054,-16.02865 1.59916,-0.61372 2.00976,0.59601 2.00976,5.93758 0,12.21288 4.39932,18.34013 14.2375,19.81545 6.94089,1.04087 16.3532,-1.67223 16.97358,-4.89392 0.23814,-1.23663 -1.13794,-3.94777 -3.06046,-6.02221 -1.92253,-2.07443 -3.59611,-4.76474 -3.70923,-5.97284 -0.11311,-1.20811 -0.57074,0.58089 -1.0225,3.97014 -0.78638,5.89975 -1.02897,6.18588 -5.71898,6.5793 -8.05781,0.6759 -11.49507,-3.18184 -11.76233,-13.2291 -0.27359,-10.28504 -1.05946,-11.64071 -6.1985,-10.6129 l -4.03361,0.79685 0.43016,-7.08702 c 0.40102,-6.47994 0.12666,-7.27538 -3.24381,-9.1955 -1.68634,-0.96068 -2.99455,-1.36972 -3.84321,-1.28342 z m -11.91747,1.1706 c -3.2266,0 -4.22372,1.91232 -1.7841,3.4201 2.18168,1.34836 -2.11055,8.23384 -7.13638,11.45206 -2.8994,1.85658 -3.67916,2.89039 -2.19309,2.90532 6.41939,0.0642 17.54477,-7.72669 17.54477,-12.28416 0,-3.13776 -2.75632,-5.49332 -6.4312,-5.49332 z m 40.01168,17.79864 c -4.25976,0 -9.29044,2.40167 -8.32107,3.97014 0.3715,0.60109 2.9513,0.72128 5.74013,0.26796 6.01569,-0.97784 8.00117,-4.2381 2.58094,-4.2381 z m -2.60915,8.78649 c -0.4669,0.0227 -0.92851,0.0889 -1.3892,0.2045 -4.37271,1.09747 -4.60534,2.9414 -0.47246,3.73743 5.35327,1.03109 6.31758,0.99817 7.08702,-0.24681 1.16965,-1.89244 -1.95704,-3.85431 -5.22536,-3.69512 z"
       transform="matrix(0.43187989,0,0,0.43187989,371.56774,468.57446)" />
    <path
       id="path3004"
       style="fill:#6f6f6f"
       d="m 701.978,709.50468 -15.45746,4.17464 c -8.49975,2.29713 -15.6769,4.40112 -15.95108,4.67531 -0.44917,0.44916 -15.98795,102.18679 -16.0639,105.177 -0.025,0.98308 10.22342,1.24816 47.97311,1.24816 37.72871,0 47.99533,-0.26563 48.00133,-1.24816 0.0324,-5.18051 -15.55102,-104.44903 -16.52227,-105.24751 -0.669,-0.55 -8.13967,-2.75518 -16.59984,-4.89392 z m 0.56414,2.20015 15.17539,4.07591 c 8.34312,2.24191 15.22101,4.17071 15.28821,4.28747 0.54415,0.94487 14.96227,101.88539 14.60419,102.24346 -0.25652,0.25653 -20.64246,0.47247 -45.3005,0.47247 h -44.83508 l 0.0282,-2.75019 c 0.035,-4.0856 14.51741,-99.13146 15.21065,-99.8247 0.32717,-0.32717 7.16991,-2.37212 15.21064,-4.54839 z m 8.24351,23.12977 c -1.83049,-0.0451 -4.66869,0.75605 -8.91343,2.18604 -4.59613,1.54822 -10.32129,2.81365 -12.72137,2.81365 -4.20074,0 -4.27687,0.0969 -2.00975,2.6021 3.50662,3.87478 6.7638,4.20287 13.15858,1.33984 3.16581,-1.41738 6.31031,-2.56684 6.98124,-2.56684 0.67095,0 1.2383,2.60956 1.26227,5.81065 0.0459,6.13123 1.598,9.11601 6.11387,11.70592 4.06447,2.33097 15.15269,2.04654 17.65056,-0.45132 1.89113,-1.89115 1.84052,-2.36937 -0.57825,-4.78814 -1.47949,-1.4795 -2.75271,-3.46585 -2.82775,-4.40735 -0.0751,-0.94149 -0.56687,-0.18487 -1.08597,1.67832 -0.64185,2.30375 -2.40686,3.80822 -5.52858,4.70352 -4.02846,1.15539 -4.91211,0.92292 -7.2069,-1.91102 -2.1593,-2.66662 -2.45748,-4.49682 -1.70653,-10.50713 0.7137,-5.71211 0.46282,-8.1331 -2.58799,-8.20824 z m 12.16428,2.84186 c -3.0386,0.12242 -7.60885,2.09035 -7.60885,3.87141 0,0.82418 2.006,1.05835 4.96444,0.57825 5.92383,-0.96131 7.02197,-1.81377 4.95739,-3.87847 -0.44526,-0.44526 -1.30012,-0.612 -2.31298,-0.57119 z m -1.14943,8.60314 c -2.05382,-0.044 -4.58648,1.20996 -5.78245,3.14509 -1.08748,1.75956 4.85581,1.73787 7.54539,-0.0282 1.7826,-1.17019 1.79623,-1.51073 0.0776,-2.6162 -0.51048,-0.32837 -1.1559,-0.48604 -1.8405,-0.50068 z m -24.13113,0.54299 c -1.37033,0.0375 -1.53306,1.34907 -0.23976,3.76564 0.81422,1.52138 1.47382,5.55745 1.47382,8.96983 0,4.72857 -0.61523,6.53747 -2.6303,7.61591 -2.21584,1.18595 -2.72925,0.91842 -3.09573,-1.65012 -0.24048,-1.68555 -1.40286,-3.24954 -2.59504,-3.47651 -1.69081,-0.32189 -2.03954,0.50054 -1.56549,3.73038 0.70219,4.7843 -1.6159,6.10487 -15.13308,8.65956 -8.46869,1.60059 -9.49621,3.65229 -2.8066,5.57089 3.19704,0.9169 5.43424,0.51609 9.94298,-1.7841 3.20316,-1.63419 6.12142,-2.67918 6.48057,-2.32003 1.41524,1.41524 -4.0304,9.39187 -8.10247,11.86811 -3.17396,1.9302 -4.77921,2.23251 -6.09272,1.14239 -1.40013,-1.162 -1.7841,-0.57694 -1.7841,2.71493 0,6.21242 2.17617,6.52607 9.78784,1.4174 6.82969,-4.5838 12.12198,-12.23133 12.12198,-17.50952 0,-1.50977 1.23674,-3.40371 2.74313,-4.2099 2.63235,-1.40879 2.72903,-1.03466 2.72903,9.44936 0,10.04124 -0.22135,10.94346 -2.87712,11.34628 -2.80836,0.42584 -2.78561,0.53472 0.71928,4.30157 5.84719,6.28424 6.91815,4.48088 7.34794,-12.40404 0.30067,-11.81284 0.8244,-15.336 2.39054,-15.93698 1.58408,-0.60792 2.00976,0.53095 2.00976,5.38755 0,7.88837 2.90581,14.81891 7.47486,17.81274 4.20368,2.75436 16.44029,3.18457 21.00719,0.74044 3.47226,-1.8583 4.00813,-6.31838 0.90263,-7.51013 -1.16129,-0.44563 -2.98595,-2.8295 -4.05477,-5.28882 l -1.93923,-4.47081 -0.0564,6.50877 -0.0494,6.50172 h -5.95168 c -8.21011,0 -10.83473,-3.18278 -11.6072,-14.08941 -0.65059,-9.1844 -1.86965,-10.89791 -6.88251,-9.63976 -3.13815,0.78763 -3.22021,0.59644 -2.75019,-6.48762 0.44663,-6.73165 0.19848,-7.46014 -3.2015,-9.38589 -1.63278,-0.92483 -2.89407,-1.36236 -3.71628,-1.33983 z m -11.93862,1.23406 c -3.51421,0 -4.13473,1.3091 -1.75589,3.68807 2.16196,2.16195 -0.48922,6.44468 -6.67097,10.80329 l -5.09842,3.60345 4.78815,-0.84621 c 9.14771,-1.61743 17.4507,-10.67964 13.80734,-15.06961 -0.99729,-1.20154 -3.27958,-2.17899 -5.07021,-2.17899 z m 38.91866,18.12302 c -2.0317,-0.01 -4.42763,0.55092 -5.88822,1.68537 -2.57964,2.0035 -2.37966,2.11295 3.42715,1.77704 3.38926,-0.19608 6.16324,-0.98154 6.16324,-1.73473 0,-1.14105 -1.6706,-1.71837 -3.70217,-1.72768 z m -0.78275,8.6243 c -0.45412,-0.005 -0.90599,0.0417 -1.33983,0.15514 -3.95217,1.03355 -3.94845,2.88567 0.007,3.52588 1.69469,0.27423 3.90104,0.24059 4.90097,-0.0846 2.84929,-0.92572 -0.38929,-3.56045 -3.56819,-3.5964 z"
       transform="matrix(0.43187989,0,0,0.43187989,371.56774,468.57446)" />
    <path
       id="path3002"
       style="fill:#4f4f4f"
       d="m 702.49983,709.58225 -15.96518,4.24516 c -14.95592,3.97875 -16.00203,4.40852 -16.50817,6.84725 -0.53131,2.56014 -15.54913,102.62573 -15.54913,103.60445 0,0.2758 21.60177,0.50068 48.00132,0.50068 37.74984,0 47.99107,-0.26508 47.96607,-1.24816 -0.0723,-2.84342 -15.60261,-104.7157 -16.02865,-105.14174 -0.2551,-0.2551 -7.54116,-2.34502 -16.19084,-4.64005 z m 0.47247,2.05911 14.87216,4.0195 c 8.17646,2.2115 14.97761,4.15768 15.11192,4.32273 0.13431,0.16506 3.46315,22.3493 7.40435,49.29885 3.94104,26.94955 7.38735,50.00764 7.65821,51.24514 l 0.49362,2.25656 h -46.08325 c -43.40561,0 -46.05873,-0.10766 -45.61078,-1.75589 0.26158,-0.9625 3.73547,-23.79491 7.72168,-50.74446 3.98606,-26.94955 7.74046,-49.50193 8.34223,-50.1098 0.60176,-0.60788 7.61659,-2.77282 15.59144,-4.81635 z m 7.75693,23.20029 c -1.82394,-0.0251 -4.65271,0.76263 -8.85701,2.17899 -4.59613,1.54822 -10.37678,2.83796 -12.8483,2.86302 l -4.49903,0.0423 3.23676,2.69377 c 3.78126,3.14997 9.06698,3.38892 13.88492,0.63466 5.67853,-3.24614 6.84726,-2.58389 6.84726,3.87141 0,5.92198 2.97747,10.36687 8.22235,12.28417 5.139,1.87847 16.4306,0.47005 16.4306,-2.05206 0,-0.73485 -1.2297,-2.90835 -2.73609,-4.82341 -1.97215,-2.50722 -2.74313,-2.86798 -2.74313,-1.29047 0,1.20487 -1.19459,2.83079 -2.65146,3.6105 -7.91172,4.23417 -13.23544,-1.31819 -11.73413,-12.2348 0.74707,-5.4318 0.48716,-7.73634 -2.55274,-7.77809 z m 12.74253,2.96174 c -2.50348,-0.02 -6.29726,1.54931 -7.51012,3.51177 -0.76048,1.23049 0.32248,1.39479 4.31568,0.64877 6.261,-1.16973 7.00601,-1.69598 5.12662,-3.57525 -0.40424,-0.40426 -1.09768,-0.57861 -1.93218,-0.58529 z m -0.83211,8.91342 c -1.5972,0.0676 -3.71867,0.76023 -5.32407,1.97449 -2.60119,1.96749 -2.58816,2.01653 0.31733,2.05912 3.84268,0.0564 7.29857,-1.28984 7.29857,-2.84186 0,-0.71873 -0.66614,-1.10609 -1.64306,-1.1847 -0.20353,-0.0164 -0.42059,-0.0177 -0.64877,-0.007 z m -23.60929,0.69107 c -2.11348,-0.20139 -3.42624,1.50621 -1.51612,2.68672 0.76548,0.47309 1.38919,4.44877 1.38919,8.84291 0,6.02194 -0.52509,8.20227 -2.15784,8.8288 -3.05893,1.17382 -3.0689,1.15819 -3.55408,-2.24246 -0.24068,-1.687 -1.41697,-3.24954 -2.60915,-3.47651 -1.68931,-0.32162 -2.03742,0.49384 -1.56549,3.70922 0.71602,4.8786 -1.53258,6.27731 -14.17404,8.77239 -8.89509,1.75566 -10.31257,3.54893 -4.09707,5.21125 2.88923,0.7727 5.74758,0.32131 10.14043,-1.6219 3.36434,-1.48809 6.37638,-2.45243 6.69212,-2.13669 0.31574,0.31562 -0.42117,2.50988 -1.64306,4.87277 -2.84376,5.49919 -10.11999,10.14303 -12.6297,8.06016 -1.40137,-1.16304 -1.7841,-0.56576 -1.7841,2.7925 0,2.94885 0.65908,4.27336 2.12258,4.27336 7.42739,0 19.78724,-12.74269 19.78724,-20.40074 0,-1.5294 1.23674,-3.44602 2.74313,-4.25221 2.63235,-1.40879 2.72903,-1.03466 2.72903,9.44936 0,10.04124 -0.22135,10.94346 -2.87712,11.34628 -2.80836,0.42584 -2.78561,0.53472 0.71928,4.30157 5.81762,6.25246 6.88403,4.47353 7.64411,-12.76368 0.47165,-10.69623 1.21846,-15.70889 2.3976,-16.09917 1.16948,-0.38707 1.71515,1.09606 1.72063,4.68237 0.0208,14.2797 5.45205,21.00966 16.94538,20.97898 12.84559,-0.0342 17.1002,-3.12988 12.02325,-8.75123 -1.42483,-1.5776 -3.27097,-4.10681 -4.10413,-5.6132 -1.30687,-2.36313 -1.52256,-1.95724 -1.55844,2.92648 -0.0456,6.19556 -2.04863,7.637 -8.83585,6.33953 -5.91557,-1.13085 -9.0051,-6.4431 -9.0051,-15.46451 0,-8.63756 -1.93249,-10.80994 -7.13638,-8.0249 -2.72047,1.45596 -2.80554,1.24748 -2.15784,-5.49332 0.69435,-7.22624 -0.45995,-10.05024 -4.70352,-11.52257 -0.3276,-0.11367 -0.64301,-0.18278 -0.94494,-0.21156 z m -14.87921,0.71223 c -0.54687,0.029 -0.98883,0.1568 -1.24816,0.41605 -0.44885,0.44885 -0.04,1.75405 0.90968,2.89828 2.2386,2.69751 -0.98976,7.9332 -7.23511,11.74118 -5.58416,3.40484 -2.02945,3.41753 5.45101,0.0212 6.19285,-2.81175 10.79642,-8.42891 9.55514,-11.66361 -0.61639,-1.6063 -4.40982,-3.2692 -6.85431,-3.41305 -0.20371,-0.0123 -0.39596,-0.01 -0.57825,0 z m 40.59698,17.8198 c -1.95454,0.079 -4.27324,0.77759 -5.90232,2.00975 -2.52091,1.90668 -2.43025,2.0168 1.6078,2.0168 5.33595,0 8.79663,-1.28179 7.8063,-2.88417 -0.43347,-0.70136 -1.44593,-1.07318 -2.70083,-1.14238 -0.26144,-0.0144 -0.53172,-0.011 -0.81095,0 z m -0.8039,8.90637 c -2.1609,0.0712 -4.49902,1.01801 -4.49902,2.12258 0,0.66534 1.85864,1.20585 4.11823,1.20585 4.0968,0 5.63888,-1.98868 2.39054,-3.08162 -0.58916,-0.19823 -1.28945,-0.27053 -2.00975,-0.24681 z"
       transform="matrix(0.43187989,0,0,0.43187989,371.56774,468.57446)" />
    <path
       id="path3000"
       style="fill:#2e2e2e"
       d="m 702.52804,709.73033 -15.77479,4.13233 c -8.67661,2.27251 -15.90478,4.24619 -16.06391,4.39325 -0.15912,0.14706 -3.63906,22.71297 -7.72873,50.14506 -4.08952,27.43209 -7.69011,51.34046 -8.00374,53.12796 l -0.57119,3.25086 h 48.04363 c 26.42462,0 48.04364,-0.22488 48.04364,-0.50068 0,-0.97951 -15.01746,-101.0427 -15.54913,-103.60445 -0.50762,-2.44571 -1.526,-2.86261 -16.47291,-6.77674 z m -0.0141,1.7841 14.37854,3.75859 c 7.90875,2.06835 14.82585,4.04413 15.37284,4.38619 0.54698,0.34205 4.20634,22.44786 8.13067,49.12256 3.92449,26.67455 7.38321,49.73983 7.68642,51.25218 l 0.55004,2.75019 h -46.18902 -46.18198 l 0.50773,-2.25656 c 0.28224,-1.2375 3.79498,-24.29559 7.8063,-51.24514 4.01117,-26.94955 7.62585,-49.23866 8.03195,-49.52451 0.4061,-0.28569 7.30353,-2.25442 15.32347,-4.37914 z m 7.91913,23.03104 c -1.2832,0.047 -3.03573,0.66767 -5.37344,1.77705 -2.6305,1.24826 -7.86292,2.63564 -11.62835,3.08162 -7.27385,0.86147 -8.51387,2.18471 -4.20285,4.49197 3.62425,1.93964 6.92559,1.76893 11.46616,-0.5994 7.1694,-3.73952 8.46053,-3.3464 7.99669,2.43285 -0.47374,5.90303 2.46184,11.40701 7.07292,13.26436 4.59145,1.84951 12.45493,1.60065 15.30937,-0.48657 2.48174,-1.81479 2.46896,-1.9859 -0.42311,-5.66256 -2.06636,-2.62696 -2.98289,-3.1187 -2.98289,-1.60075 0,4.73726 -9.15588,6.62596 -13.08101,2.70082 -1.87305,-1.87304 -2.16324,-3.8486 -1.48793,-10.30967 0.67873,-6.49356 0.15735,-9.19305 -2.66556,-9.08972 z m 12.97524,3.94899 c -1.97505,0.0797 -4.50931,0.78389 -6.09272,1.98154 -2.93344,2.21862 -1.75376,2.53821 4.69647,1.24817 2.35361,-0.47075 4.28747,-1.40007 4.28747,-2.05912 0,-0.72304 -0.85767,-1.10041 -2.08027,-1.17059 -0.25472,-0.0146 -0.52881,-0.011 -0.81095,0 z m -0.69108,8.26466 c -1.5512,0.0879 -3.62607,0.80356 -5.23945,2.02386 -1.88654,1.42691 -2.08463,2.00229 -0.68402,1.98859 3.57517,-0.0338 8.13773,-1.64549 8.13773,-2.87712 0,-0.70493 -0.63987,-1.07192 -1.58665,-1.13533 -0.19725,-0.0137 -0.406,-0.0123 -0.62761,0 z m -23.4471,1.29753 c -2.83837,0 -3.28084,0.36491 -2.0027,1.64306 2.55931,2.5593 2.14124,17.04469 -0.52183,18.0666 -3.05893,1.17382 -3.0689,1.15819 -3.55408,-2.24246 -0.24068,-1.687 -1.41697,-3.24954 -2.60915,-3.47651 -1.69348,-0.32241 -2.03652,0.50127 -1.55844,3.75858 0.53983,3.67893 0.0666,4.39126 -3.99835,6.06452 -2.53375,1.04284 -7.3716,2.33642 -10.76099,2.88417 -7.54128,1.21875 -9.07352,2.04396 -6.65686,3.57524 3.06265,1.94059 10.26522,1.37722 14.66766,-1.14944 2.27189,-1.30412 4.61074,-1.88393 5.2042,-1.29047 3.27913,3.27911 -10.50694,16.06591 -14.10352,13.08101 -1.48901,-1.23577 -1.85461,-0.70199 -1.85461,2.73609 0,4.86385 2.0069,5.44008 8.08132,2.29887 6.07742,-3.14283 12.34344,-11.22325 13.28551,-17.11462 0.57852,-3.61787 1.68581,-5.53493 3.44126,-5.994 2.3685,-0.61941 2.57389,0.22116 2.57389,10.06286 0,9.86187 -0.22592,10.76082 -2.87712,11.16294 -2.80555,0.42542 -2.78736,0.53873 0.73339,4.32273 3.09722,3.32881 3.93556,3.63764 5.8036,2.08732 1.83003,-1.5188 2.07147,-4.07887 1.47381,-15.78889 -0.58679,-11.49711 -0.3597,-14.1093 1.29753,-14.74523 3.60839,-1.38472 3.8837,-0.87891 4.07591,7.48192 0.30614,13.31728 4.86031,17.76338 18.19354,17.76338 4.47026,0 7.65664,-0.84867 9.84426,-2.62325 l 3.23676,-2.62326 -2.89828,-3.19445 c -1.59183,-1.75867 -3.58124,-4.43824 -4.4144,-5.94463 -1.30455,-2.35893 -1.52256,-1.93611 -1.55844,2.997 -0.0492,6.75658 -2.82174,8.38103 -10.18274,5.95168 -5.65836,-1.86747 -8.41775,-7.5921 -8.039,-16.69151 0.28999,-6.9672 -1.81511,-9.11849 -6.48057,-6.6216 -3.43474,1.83821 -4.16292,0.2015 -2.72903,-6.15619 1.51702,-6.72613 -0.25222,-10.28146 -5.11253,-10.28146 z m -13.86376,0.26796 c -2.0854,0.076 -3.00219,1.4223 -1.53728,3.1874 2.01181,2.42425 0.0321,6.13887 -5.8318,10.91612 -4.10882,3.34738 -4.19825,3.55937 -1.04366,2.70082 12.01193,-3.26903 18.99381,-13.83737 10.8456,-16.42354 -0.91076,-0.28894 -1.73783,-0.40613 -2.43286,-0.3808 z m 39.78603,17.58709 c -1.51551,0.0763 -3.53145,0.75862 -5.14073,2.0168 -2.50886,1.9615 -2.39322,2.06654 2.03091,1.72063 2.57817,-0.20158 4.94449,-1.14582 5.25356,-2.08732 0.39293,-1.19694 -0.6281,-1.72643 -2.14374,-1.65011 z m -1.62895,9.53398 c -2.25959,0 -4.11823,0.61484 -4.11823,1.36804 0,0.7532 1.85864,1.36099 4.11823,1.36099 2.25958,0 4.10412,-0.60779 4.10412,-1.36099 0,-0.7532 -1.84454,-1.36804 -4.10412,-1.36804 z"
       transform="matrix(0.43187989,0,0,0.43187989,371.56774,468.57446)" />
    <path
       id="path2998"
       style="fill:#010101"
       d="m 702.47867,709.82906 -15.75363,4.15348 c -8.66235,2.28453 -15.83951,4.20762 -15.95108,4.26632 -0.11158,0.0587 -3.60819,23.03919 -7.77103,51.06884 -4.16299,28.02964 -7.7938,51.97508 -8.06722,53.21258 l -0.50067,2.24951 h 48.06479 48.06479 l -0.56414,-3.25086 c -0.31111,-1.7875 -3.92055,-25.7047 -8.0249,-53.14911 -4.10451,-27.44456 -7.58898,-49.9736 -7.73578,-50.0675 -0.14681,-0.0939 -7.3522,-2.04525 -16.01455,-4.32978 z m 0.49363,1.60075 14.50547,3.8291 c 7.97485,2.10535 14.8297,4.11097 15.2318,4.45671 0.5395,0.46389 15.76773,99.50879 15.76773,102.55374 0,0.27939 -20.75069,0.51478 -46.11145,0.51478 h -46.11146 l 0.57119,-3.25086 c 0.3138,-1.7875 3.7556,-24.62696 7.65116,-50.75151 3.89572,-26.1247 7.23547,-47.95201 7.41845,-48.50201 0.18298,-0.54985 7.2482,-2.76328 15.70427,-4.92212 z m 7.15753,23.55993 c -1.58565,0.0687 -3.84966,0.68235 -5.74718,1.62895 -2.53004,1.26214 -7.59856,2.58928 -11.25461,2.94059 -6.39255,0.61425 -6.55047,0.7327 -4.32273,3.19444 2.75076,3.03954 6.15102,3.24383 11.1982,0.67697 2.03378,-1.03437 5.15908,-2.33694 6.95303,-2.89122 3.10404,-0.95905 3.22164,-0.77007 2.36939,3.77269 -1.23951,6.6072 1.0601,11.7071 6.34659,14.08942 2.52768,1.13909 6.75594,1.7543 9.75963,1.4174 5.83887,-0.6549 9.35511,-3.01629 6.89662,-4.63301 -0.81127,-0.53353 -2.17097,-2.20283 -3.0252,-3.70922 -1.52739,-2.69351 -1.55275,-2.69571 -1.5937,0.1904 -0.0696,4.90541 -8.95374,6.4473 -13.12332,2.27771 -1.86501,-1.865 -2.15631,-3.86255 -1.49498,-10.18979 0.71117,-6.80401 0.4907,-7.97527 -1.64306,-8.65251 -0.33929,-0.10764 -0.79012,-0.13597 -1.31868,-0.11282 z m 13.30667,3.50472 c -1.96665,0.062 -4.50613,0.81302 -6.12092,2.12258 -2.56566,2.0807 -2.5357,2.13717 0.76864,1.39625 1.88299,-0.42222 4.49256,-0.77316 5.81065,-0.78275 1.31809,-0.0109 2.40465,-0.64305 2.40465,-1.39625 0,-0.80104 -0.85063,-1.22484 -2.06617,-1.31868 -0.25324,-0.0196 -0.51588,-0.0301 -0.79685,-0.0212 z m -0.83916,8.22235 c -1.57785,0.0933 -3.57362,0.89617 -4.68942,2.25656 -1.68752,2.05761 -1.53667,2.20043 1.53729,1.3892 1.88299,-0.49693 3.88476,-0.91419 4.44966,-0.92378 0.56489,-0.011 1.03661,-0.62895 1.03661,-1.38214 0,-0.83244 -0.70916,-1.26086 -1.69243,-1.33984 -0.20484,-0.0164 -0.4163,-0.0137 -0.64171,0 z m -24.30036,1.36099 c -2.07689,-0.0163 -2.3077,0.34376 -1.02956,1.62191 2.55932,2.55931 2.14124,17.04469 -0.52183,18.0666 -3.05266,1.17143 -3.0682,1.15817 -3.55408,-2.14373 -0.24068,-1.6357 -1.30045,-3.25795 -2.34824,-3.60345 -1.40605,-0.46363 -1.68487,0.2301 -1.07892,2.64441 1.25702,5.00837 -0.43831,6.39715 -10.76803,8.88522 -14.7143,3.54414 -13.87529,3.2078 -11.54373,4.68236 3.3108,2.09368 9.304,1.49722 15.21064,-1.51612 3.05566,-1.55894 5.85345,-2.53815 6.2126,-2.179 1.22642,1.22642 -3.55724,8.78976 -7.82745,12.38289 -4.82351,4.0587 -5.58813,4.24908 -7.89092,1.94629 -1.27804,-1.27815 -1.63601,-0.67232 -1.63601,2.73608 0,5.70417 3.13006,5.78629 10.71867,0.28912 5.78141,-4.188 11.19115,-12.77891 11.19115,-17.76338 0,-1.5364 0.2562,-2.79955 0.57119,-2.79955 0.315,0 1.57618,-0.37676 2.79955,-0.84621 1.96205,-0.75291 2.17967,0.49805 1.8264,10.6129 -0.28911,8.2783 -0.87968,11.36779 -2.11552,11.12062 -2.35082,-0.47016 -2.14204,1.01586 0.55708,3.99835 5.73492,6.33702 7.7445,1.74201 7.07997,-16.16263 -0.43448,-11.70692 -0.33333,-12.1515 2.63736,-12.57329 2.89205,-0.41074 3.07614,0.0511 3.08162,7.53128 0.007,10.5033 3.4298,16.35548 10.29557,17.6435 6.75347,1.26699 15.63422,-0.0993 18.30636,-2.81365 2.03176,-2.06376 2.01612,-2.37392 -0.16219,-3.9913 -1.30205,-0.96678 -3.30142,-3.55196 -4.4426,-5.74013 l -2.08027,-3.97719 v 5.79655 c -0.007,5.09757 -0.44302,5.89021 -3.5823,6.67801 -2.17327,0.54545 -5.36156,0.0471 -8.15183,-1.28342 -5.28478,-2.52014 -8.15147,-10.17238 -6.70622,-17.87621 0.72723,-3.87697 0.42625,-4.69964 -1.9886,-5.33113 -1.56984,-0.41052 -3.2028,-0.18181 -3.6246,0.50068 -0.42181,0.68249 -1.70233,1.24111 -2.84186,1.24111 -1.71747,0 -1.90297,-1.31681 -1.10713,-7.68642 1.02142,-8.175 0.002,-10.04793 -5.48627,-10.09107 z m -13.25731,0.10578 c -0.79852,0.13694 -0.8961,1.24734 -0.35964,3.38484 0.70334,2.80233 -0.0467,4.48728 -3.66691,8.22235 -5.35826,5.52845 -2.87925,6.42152 4.34388,1.56549 5.39143,-3.62468 6.81089,-8.83502 3.14509,-11.51552 -1.37869,-1.00813 -2.38841,-1.55971 -3.07457,-1.65716 -0.14296,-0.0203 -0.27377,-0.0196 -0.38785,0 z m 40.34312,17.70696 c -1.59913,0.0689 -3.7308,0.76404 -5.33113,1.9745 -2.01776,1.52603 -2.16566,2.01906 -0.60645,2.03796 3.53568,0.0427 8.22235,-1.57855 8.22235,-2.84186 0,-0.71457 -0.65794,-1.08075 -1.63601,-1.15649 -0.20377,-0.0157 -0.42031,-0.024 -0.64876,-0.0141 z m -1.13533,9.55514 c -1.88299,0 -3.42716,0.61484 -3.42716,1.36804 0,0.7532 1.54417,1.36099 3.42716,1.36099 1.88299,0 3.4201,-0.60779 3.4201,-1.36099 0,-0.7532 -1.53711,-1.36804 -3.4201,-1.36804 z"
       transform="matrix(0.43187989,0,0,0.43187989,371.56774,468.57446)" />
  </g>
</svg>
