<?xml version="1.0" encoding="UTF-8" standalone="no"?>
<!-- Created with Inkscape (http://www.inkscape.org/) -->

<svg
   viewBox="0 0 35.349998 38.720001"
   id="svg3864"
   version="1.1"
   inkscape:version="1.3.2 (091e20e, 2023-11-25, custom)"
   sodipodi:docname="Gin.svg"
   xmlns:inkscape="http://www.inkscape.org/namespaces/inkscape"
   xmlns:sodipodi="http://sodipodi.sourceforge.net/DTD/sodipodi-0.dtd"
   xmlns="http://www.w3.org/2000/svg"
   xmlns:svg="http://www.w3.org/2000/svg"
   xmlns:rdf="http://www.w3.org/1999/02/22-rdf-syntax-ns#"
   xmlns:cc="http://creativecommons.org/ns#"
   xmlns:dc="http://purl.org/dc/elements/1.1/">
  <defs
     id="defs3866" />
  <sodipodi:namedview
     id="base"
     pagecolor="#ffffff"
     bordercolor="#666666"
     borderopacity="1.0"
     inkscape:pageopacity="0.0"
     inkscape:pageshadow="2"
     inkscape:zoom="14.178719"
     inkscape:cx="17.702587"
     inkscape:cy="19.360001"
     inkscape:document-units="px"
     inkscape:current-layer="layer1"
     showgrid="false"
     fit-margin-top="0"
     fit-margin-left="0"
     fit-margin-right="0"
     fit-margin-bottom="0"
     inkscape:window-width="1292"
     inkscape:window-height="745"
     inkscape:window-x="-8"
     inkscape:window-y="-8"
     inkscape:window-maximized="1"
     inkscape:showpageshadow="0"
     inkscape:pagecheckerboard="1"
     inkscape:deskcolor="#d1d1d1" />
  <metadata
     id="metadata3869">
    <rdf:RDF>
      <cc:Work
         rdf:about="">
        <dc:format>image/svg+xml</dc:format>
        <dc:type
           rdf:resource="http://purl.org/dc/dcmitype/StillImage" />
      </cc:Work>
    </rdf:RDF>
  </metadata>
  <g
     inkscape:label="Layer 1"
     inkscape:groupmode="layer"
     id="layer1"
     transform="matrix(-0.6179018,0,0,-0.6179018,315.27897,310.9042)"
     style="display:inline">
    <path
       sodipodi:nodetypes="cccccc"
       inkscape:connector-curvature="0"
       id="path3918"
       d="m 436.13336,390.9648 -16.16244,101.01526 92.49209,0.37881 -15.97303,-102.15168 -30.55712,-8.5863 z"
       style="display:inline;fill:#ffffff;fill-opacity:1;stroke:none"
       transform="matrix(0.44526862,0,0,0.44526862,273.94779,277.40711)" />
    <path
       id="path3897"
       style="fill:#cfcfcf"
       d="m 466.43145,380.49772 -15.06378,3.87598 c -8.2821,2.13013 -15.46966,4.12606 -15.97243,4.43679 -0.75146,0.46443 -15.96533,98.26991 -15.96533,102.63528 0,1.10533 8.32747,1.34169 47.00154,1.34169 38.67407,0 46.99444,-0.23636 46.99444,-1.34169 0,-4.36537 -15.21387,-102.17085 -15.96533,-102.63528 -0.50277,-0.31073 -7.69033,-2.30666 -15.97243,-4.43679 z m 0,3.00992 14.24741,3.78369 c 7.83748,2.0799 14.36188,3.86608 14.49586,3.96826 0.13399,0.10218 3.39547,21.52232 7.25504,47.60494 3.85955,26.08264 7.20085,48.21129 7.4183,49.17379 0.3719,1.64611 -2.21258,1.75342 -43.53019,1.75342 h -43.92774 l 0.51822,-2.25034 c 0.28621,-1.2375 3.67777,-23.36481 7.53189,-49.17379 3.8541,-25.80896 7.11528,-47.00718 7.24793,-47.10802 0.13265,-0.10084 6.65129,-1.88836 14.48877,-3.96826 z m -13.0335,28.20376 c -1.59027,0 -2.47041,1.01502 -2.47041,2.86794 0,1.68364 -3.77962,6.78942 -9.12913,12.33072 -5.01977,5.19972 -8.36805,9.44858 -7.4538,9.44858 2.70272,0 8.87643,-3.59389 15.12767,-8.81678 l 5.84236,-4.89112 4.13863,3.48554 c 2.27917,1.91784 4.83944,3.26377 5.68619,2.98152 2.95417,-0.98476 1.559,-5.72669 -2.22195,-7.53899 -2.07146,-0.99285 -3.77659,-2.87352 -3.77659,-4.18832 0,-3.08792 -2.6145,-5.67909 -5.74297,-5.67909 z m 36.22547,6.26829 c -2.11355,-0.073 -4.55774,0.33606 -7.22664,1.2778 -3.18684,1.12441 -6.94354,2.03737 -8.35536,2.03737 -3.11769,0 -3.30873,1.79213 -0.44722,4.16703 1.68713,1.40018 3.54638,1.42649 9.14333,0.13488 4.79021,-1.10579 7.46384,-1.1826 8.41924,-0.22717 0.95541,0.95544 0.68157,1.40558 -0.87316,1.40558 -1.25422,0 -5.05602,0.94264 -8.44764,2.09416 -4.99125,1.69469 -6.6852,1.76601 -8.88777,0.39044 -3.49936,-2.18528 -4.87946,-0.7793 -2.69047,2.72596 1.36676,2.18835 1.34488,5.04628 -0.10648,14.37519 -1.86878,12.01329 -1.37046,20.304 1.42687,23.67469 2.29122,2.76065 2.88169,2.45675 7.07046,-3.59912 2.0643,-2.98454 4.56202,-5.42353 5.55131,-5.42353 0.9891,0 3.89046,2.15525 6.44576,4.79173 5.00134,5.16041 7.84128,6.01524 9.10074,2.73306 1.13023,-2.94545 -2.99768,-8.62097 -8.7316,-12.00417 l -4.91241,-2.89633 5.99854,-2.54139 c 7.64263,-3.24601 7.52923,-3.08852 4.9621,-7.00658 l -2.17225,-3.31516 -5.68619,5.40223 c -4.94222,4.70139 -6.24664,5.28957 -9.99519,4.49357 l -4.3161,-0.91575 3.91857,4.15283 3.91857,4.14574 -4.18833,2.16515 c -2.30422,1.19159 -4.53387,2.16515 -4.9479,2.16515 -1.266,0 -0.8275,-11.33391 0.64599,-16.63972 1.08999,-3.92436 1.94979,-4.85816 3.96826,-4.33031 2.9896,0.78181 8.33406,-1.72107 8.33406,-3.90437 0,-0.97881 -1.90419,-1.1906 -5.48741,-0.6176 -4.6501,0.74364 -5.47459,0.50784 -5.47322,-1.54045 10e-4,-1.97538 1.35384,-2.45714 7.4325,-2.66917 l 7.42541,-0.26266 -1.97349,4.70654 c -1.71204,4.09843 -1.70814,4.71365 0.007,4.71365 2.74233,0 7.34042,-6.19547 8.96586,-12.08226 1.94795,-7.05513 -1.47537,-11.55816 -7.81584,-11.77701 z m -29.70162,13.12579 c -1.18244,0.0484 -2.53877,0.30472 -4.02506,0.80927 -2.35319,0.79884 -6.63954,1.85002 -9.51957,2.34262 -4.36144,0.74599 -4.96325,1.22422 -3.59912,2.86794 0.90078,1.08543 3.10021,1.97349 4.89112,1.97349 1.98119,0 3.25837,0.80149 3.25837,2.05157 0,1.42811 -1.43786,2.06576 -4.71364,2.06576 -5.43542,0 -7.38483,1.95258 -3.89727,3.90438 2.26974,1.27034 2.26523,1.49376 -0.13488,4.14573 -3.90866,4.31915 -1.92406,7.51707 3.97536,6.41027 4.38955,-0.82352 4.77043,-0.61693 4.77043,2.42781 0,2.61696 -0.89487,3.49124 -4.27351,4.16703 -2.35393,0.4708 -5.75,0.85896 -7.53899,0.85896 -3.84137,0 -4.36681,3.31941 -0.85186,5.36673 3.38859,1.97374 4.82418,1.82689 12.66436,-1.26359 3.82206,-1.50656 8.36486,-2.73306 10.09458,-2.73306 3.84308,0 5.02316,-1.03649 4.05345,-3.56363 -0.40532,-1.05626 -2.52736,-1.92379 -4.70655,-1.92379 -3.04893,0 -3.95406,-0.63218 -3.95406,-2.74016 0,-1.50656 0.65045,-2.73306 1.44817,-2.73306 0.79771,0 1.06894,0.6097 0.6034,1.36298 -1.2527,2.02697 2.4961,1.66535 5.50161,-0.53241 2.27028,-1.66012 2.36017,-2.20963 0.68859,-4.22382 -1.15562,-1.39248 -3.17729,-2.068 -5.08278,-1.70373 -2.40202,0.45919 -3.15899,-0.0198 -3.15899,-1.98058 0,-1.77489 1.28045,-2.8358 4.10314,-3.40035 5.64273,-1.12862 5.64273,-5.13014 0,-4.30191 -5.38154,0.78986 -5.38154,-1.944 0,-3.97536 6.2694,-2.36656 4.52741,-5.88836 -0.5963,-5.67909 z m -10.18687,17.58387 c 0.66104,0 1.19261,0.92875 1.19261,2.05867 0,1.18084 -1.23263,2.05157 -2.90343,2.05157 -2.42838,0 -2.62415,-0.33518 -1.19971,-2.05157 0.93755,-1.12992 2.24952,-2.05867 2.91053,-2.05867 z"
       transform="matrix(0.44526862,0,0,0.44526862,273.94779,277.40711)" />
    <path
       id="path3895"
       style="fill:#afafaf"
       d="m 466.43145,380.52612 -15.69558,4.15993 c -8.63098,2.28753 -15.78624,4.25682 -15.90144,4.37999 -0.22854,0.24434 -15.42062,101.75295 -15.41162,102.97604 0.003,0.4125 21.15868,0.74538 47.00864,0.74538 25.84994,0 46.99854,-0.33288 47.00154,-0.74538 0.009,-1.22309 -15.18308,-102.7317 -15.41162,-102.97604 -0.1152,-0.12317 -7.27046,-2.09246 -15.90145,-4.37999 z m 0,3.22998 c 0.825,0 7.66457,1.63688 15.19865,3.64171 12.76131,3.39584 13.73417,3.82442 14.22611,6.26829 0.29045,1.44284 3.46798,22.64728 7.06337,47.12222 3.59537,24.47496 6.76403,45.51558 7.04207,46.75308 l 0.50401,2.25034 h -44.0981 -44.09811 l 0.56791,-2.75436 c 0.31388,-1.51248 3.51339,-22.54602 7.10596,-46.74598 3.59256,-24.19994 6.77271,-45.18246 7.06336,-46.6253 0.49229,-2.44381 1.46513,-2.87254 14.22611,-6.26829 7.5341,-2.00483 14.37366,-3.64171 15.19866,-3.64171 z m -11.93318,28.11858 c -1.77219,0.0137 -3.49061,1.1824 -3.99666,3.7127 -0.48621,2.43112 -4.23462,7.11586 -10.05198,12.55788 l -9.27821,8.6677 4.9976,-0.80217 c 3.47055,-0.56325 5.50461,-0.22063 6.63033,1.13582 0.89213,1.07499 3.13681,1.95219 4.9905,1.95219 5.35486,0 2.9206,3.37267 -2.78276,3.85468 -5.26411,0.44486 -6.89255,3.36253 -2.76145,4.9479 2.00683,0.77011 1.91419,1.19323 -0.75958,3.68431 -4.18802,3.90202 -1.51409,7.27918 4.93371,6.23279 4.01596,-0.65172 4.50777,-0.38911 4.50777,2.42781 0,3.24758 -3.94896,4.88402 -11.8125,4.88402 -3.84137,0 -4.36681,3.31941 -0.85186,5.36673 3.0973,1.80344 4.79291,1.8013 9.49827,0 2.12031,-0.81176 6.93879,-2.26803 10.70508,-3.23707 7.92235,-2.03841 9.2275,-5.33168 2.38522,-5.99144 -3.34176,-0.32221 -4.43679,-1.08952 -4.43679,-3.0809 0,-1.45884 0.65045,-2.64788 1.44817,-2.64788 0.79771,0 1.00906,0.70571 0.47562,1.56885 -0.69201,1.11974 0.1718,1.27847 3.00282,0.56791 2.18226,-0.54773 4.24853,-1.28119 4.60006,-1.63274 1.45462,-1.45467 -2.53878,-5.33365 -5.90625,-5.73588 -4.97217,-0.59393 -4.6377,-4.22193 0.48272,-5.24605 6.72732,-1.34554 5.24355,-5.36502 -1.71792,-4.65685 -1.31821,0.13408 -2.38522,-0.42038 -2.38522,-1.22101 0,-0.80063 1.1484,-1.45526 2.56269,-1.45526 3.17546,0 6.22441,-3.43988 4.91951,-5.55131 -0.59861,-0.9686 -2.59946,-1.2145 -5.26026,-0.6531 -2.35889,0.4977 -7.06003,1.2465 -10.44952,1.66114 l -6.15471,0.75248 6.8433,-5.53001 6.8433,-5.53711 3.68431,3.49973 c 2.18797,2.07792 4.5597,3.16304 5.82816,2.67627 3.42682,-1.31502 2.46906,-4.94403 -1.96638,-7.468 -2.25483,-1.2832 -4.10613,-3.29759 -4.11024,-4.46518 -0.0137,-3.37092 -2.37809,-5.2564 -4.65685,-5.23895 z m 34.93348,5.65069 c -0.24686,0.008 -0.48417,0.0468 -0.70989,0.0994 -10.92356,2.54313 -17.25022,4.4431 -17.25022,5.19636 0,0.48278 0.95766,1.67398 2.12256,2.64078 1.68713,1.40018 3.54638,1.42649 9.14333,0.13488 4.79021,-1.10579 7.46384,-1.1826 8.41924,-0.22717 0.95541,0.95544 0.50286,1.40558 -1.43397,1.40558 -1.56246,0 -5.41986,0.9052 -8.56832,2.01607 -4.50206,1.58854 -6.27279,1.68309 -8.31986,0.40464 -3.40537,-2.12676 -4.74299,-0.67575 -2.56979,2.80405 1.36369,2.18364 1.38775,4.59927 0.0994,11.59243 -2.06055,11.18351 -2.07913,20.41838 -0.0426,24.8886 2.14161,4.70068 3.98008,4.37916 7.70936,-1.37718 4.54605,-7.01687 6.54,-7.23085 12.61467,-1.29909 5.48779,5.359 9.58346,5.78621 9.58346,0.99384 0,-3.33746 -2.29888,-6.0573 -8.7174,-10.29334 l -5.30284,-3.49974 5.78557,-1.73212 c 6.7088,-2.01013 8.15024,-4.37548 4.86981,-8.00042 -2.2627,-2.50034 -2.49827,-2.41738 -7.92232,2.84665 -4.83442,4.69177 -6.16519,5.30415 -9.81772,4.52907 l -4.23092,-0.89446 3.80499,4.02505 3.79788,4.02506 -3.79788,1.90959 c -2.08894,1.04631 -4.35678,2.15565 -5.04019,2.4704 -1.5687,0.72249 0.0392,-17.6443 1.68952,-19.29469 0.65854,-0.65856 4.53165,-1.25342 8.59672,-1.32039 4.0649,-0.067 8.05165,-0.6376 8.86647,-1.2707 0.81482,-0.63311 2.65894,-4.61027 4.09605,-8.83808 l 2.61238,-7.68096 -3.96827,-3.41455 c -2.18564,-1.88007 -4.39117,-2.8973 -6.11921,-2.83954 z m -2.00898,14.99278 c 3.08225,0.0286 2.86097,0.62211 1.69663,2.86084 -2.12422,4.08416 -2.57689,4.50259 -2.57689,2.39942 0,-1.2838 -1.53179,-1.5741 -5.48741,-1.04353 -4.48291,0.60132 -5.46861,0.3214 -5.45903,-1.53336 0.01,-1.79612 1.57728,-2.32719 7.56029,-2.56978 1.85003,-0.0751 3.23894,-0.12317 4.26641,-0.11359 z m -37.16252,16.77461 c 0.50785,0.0334 0.66729,0.48781 0.66729,1.40557 0,1.18951 -1.1907,2.10126 -2.74016,2.10126 -3.47715,0 -3.47715,-0.87918 0,-2.74016 0.81967,-0.43876 1.40698,-0.69926 1.82441,-0.75958 0.087,-0.0123 0.17591,-0.0124 0.24846,-0.007 z"
       transform="matrix(0.44526862,0,0,0.44526862,273.94779,277.40711)" />
    <path
       id="path3893"
       style="fill:#8f8f8f"
       d="m 466.43145,380.70359 -15.80916,4.12444 -15.80206,4.13153 -7.31182,49.16669 c -4.02189,27.04063 -7.54276,50.40145 -7.82294,51.91395 l -0.50402,2.74726 h 47.25 47.25 l -0.51112,-2.74726 c -0.28017,-1.5125 -3.80107,-24.87332 -7.82294,-51.91395 l -7.31183,-49.16669 -15.80205,-4.13153 z m 0,2.62658 13.58721,3.47844 c 7.4759,1.91382 14.06839,3.7762 14.64495,4.13153 0.75709,0.46659 15.48866,93.27172 15.73107,99.10006 0.0172,0.4125 -19.76329,0.75248 -43.96323,0.75248 -34.55446,0 -43.99443,-0.26774 -43.96323,-1.2494 0.18335,-5.76969 14.89344,-98.09291 15.70977,-98.59604 0.58433,-0.36013 7.18324,-2.22481 14.65915,-4.13863 z m -14.04154,28.38123 c -0.80278,0 -1.46237,1.44202 -1.46237,3.20869 0,2.1525 -3.04797,6.2243 -9.24271,12.33071 -5.54728,5.4682 -8.36557,9.10691 -7.04207,9.10784 2.54518,0.001 11.14717,-5.51188 16.61843,-10.65539 l 3.76239,-3.52813 3.18029,2.98152 c 3.63955,3.41911 9.16463,4.00769 9.16463,0.97254 0,-1.11058 -1.85064,-2.98422 -4.11024,-4.15283 -2.42221,-1.25261 -4.11734,-3.20472 -4.11734,-4.77043 0,-2.53175 -3.63543,-5.49452 -6.75101,-5.49452 z m 36.31775,6.60904 c -1.07665,0.0267 -2.21922,0.22271 -3.53523,0.56791 -2.6364,0.69155 -6.80172,1.58141 -9.24981,1.98058 -5.08507,0.82913 -5.67032,2.41655 -1.69663,4.54327 1.96135,1.04969 4.33526,1.03094 8.34826,-0.0497 5.84419,-1.57377 9.44148,-1.05012 9.44148,1.37008 0,0.77692 -1.75007,1.41267 -3.89727,1.41267 -2.14736,0 -5.86805,0.6796 -8.25597,1.51205 -3.25638,1.13527 -4.82935,1.11031 -6.30379,-0.11358 -2.71503,-2.25348 -5.49699,-0.43256 -3.32936,2.17935 1.16212,1.40031 1.30121,4.3961 0.47562,10.48502 -1.79073,13.2073 -1.54454,24.93267 0.58921,27.50097 2.62676,3.16193 3.31943,2.90102 6.15471,-2.36392 1.37208,-2.54787 3.91412,-5.28149 5.64359,-6.06952 2.77441,-1.26405 3.65995,-0.80061 7.4751,3.94696 4.62059,5.75011 7.47471,6.75759 8.86647,3.1306 1.17086,-3.05113 -2.15991,-7.77889 -8.04301,-11.41496 -4.9659,-3.06902 -5.32766,-5.50872 -0.81637,-5.50872 1.37862,0 3.84183,-1.08117 5.46613,-2.39941 2.6779,-2.17308 2.75844,-2.65624 0.91575,-5.13957 -1.84084,-2.48101 -2.19919,-2.53224 -3.82629,-0.55372 -3.43088,4.17144 -10.83034,8.37441 -13.50912,7.67387 -3.60177,-0.94196 -3.38029,1.13255 0.40463,3.78369 l 3.07381,2.15805 -4.10314,3.27258 c -2.2563,1.79916 -4.56005,2.98307 -5.12538,2.63367 -1.26171,-0.77981 -1.11212,-13.57794 0.21297,-18.27246 0.70749,-2.50656 1.75758,-3.31691 3.91857,-3.00991 3.46763,0.49264 8.53992,-1.92335 8.53992,-4.06765 0,-0.97881 -1.90419,-1.1906 -5.48741,-0.6176 -4.88035,0.78045 -5.47322,0.5755 -5.47322,-1.90249 0,-2.21466 0.6345,-2.62839 3.13059,-2.00188 1.72424,0.43277 4.89554,0.12048 7.04207,-0.69569 5.19877,-1.97662 5.83506,-0.95121 3.05251,4.88402 -2.15948,4.52887 -2.16446,4.85262 -0.0497,4.43678 3.70233,-0.72778 7.61951,-7.22382 8.36955,-13.87827 0.64939,-5.76146 0.41603,-6.33387 -3.23708,-8.14948 -1.79864,-0.89388 -3.38792,-1.308 -5.18217,-1.2636 z m -28.53031,12.80634 c -0.1338,-0.007 -0.27069,-0.003 -0.41173,0.007 -0.67706,0.0536 -1.45001,0.30757 -2.44201,0.75958 -1.81282,0.82581 -6.16192,1.93741 -9.66864,2.4633 -5.21921,0.78268 -6.09242,1.29644 -4.80593,2.84664 0.8644,1.04156 3.02922,1.8954 4.82013,1.8954 5.70705,0 3.76567,3.78539 -2.4846,4.84142 -5.26516,0.88957 -5.52737,1.12846 -3.18739,2.83954 2.39088,1.74831 2.4035,2.02851 0.26266,4.39419 -4.25301,4.69986 -2.00524,7.45657 4.99049,6.11922 3.22114,-0.61581 3.67721,-0.26485 3.67721,2.81825 0,2.98063 -0.78575,3.67122 -5.13247,4.50777 -2.82472,0.54361 -6.21369,0.91658 -7.53189,0.83057 -2.79038,-0.18209 -3.08181,1.17743 -0.75248,3.50683 2.22198,2.22204 7.76125,2.07431 14.78692,-0.40463 3.20245,-1.12992 7.2839,-2.05157 9.07234,-2.05157 2.39687,0 3.25838,-0.76265 3.25838,-2.89634 0,-2.43722 -0.65102,-2.80778 -4.11024,-2.30003 -3.56078,0.52263 -4.10314,0.17785 -4.10314,-2.58398 0,-1.75257 0.65045,-3.18029 1.44817,-3.18029 0.79771,0 1.02652,0.68518 0.51111,1.51916 -1.11191,1.79917 4.77193,0.29874 6.93559,-1.76762 1.87901,-1.79438 -3.36338,-5.55611 -6.58064,-4.72074 -1.89645,0.49241 -2.37579,-0.038 -2.05157,-2.27163 0.26153,-1.80187 1.72658,-3.23133 3.84048,-3.7269 4.09688,-0.96052 3.34453,-3.44142 -1.02224,-3.36486 -4.57132,0.0801 -3.73774,-2.98152 1.292,-4.73494 4.08052,-1.42259 4.22757,-1.67861 2.10836,-3.79789 -0.99818,-0.99819 -1.7825,-1.49894 -2.71887,-1.54755 z m -9.64734,16.49065 c 0.38976,0.0452 0.39753,0.77081 0.39753,2.22904 0,2.28437 -0.81503,2.95312 -3.64171,2.95312 -2.00868,0 -3.40185,-0.16569 -3.088,-0.36204 0.31386,-0.19635 1.95398,-1.51907 3.64881,-2.94603 1.52229,-1.28185 2.2936,-1.91925 2.68337,-1.87409 z"
       transform="matrix(0.44526862,0,0,0.44526862,273.94779,277.40711)" />
    <path
       id="path3891"
       style="fill:#707070"
       d="m 466.43145,380.76038 -15.24835,4.06055 c -8.38636,2.23429 -15.53374,4.38431 -15.88014,4.77043 -0.3464,0.38612 -3.8457,22.52723 -7.78035,49.20219 -3.93468,26.67494 -7.40102,49.73415 -7.70226,51.24665 l -0.55371,2.74726 h 47.16481 47.15771 l -0.54661,-2.74726 c -0.30125,-1.5125 -3.76758,-24.57171 -7.70226,-51.24665 -3.93467,-26.67496 -7.44105,-48.81607 -7.78745,-49.20219 -0.3464,-0.38612 -7.48668,-2.53614 -15.87304,-4.77043 z m 0,2.33553 14.15512,3.80498 c 7.78857,2.09561 14.4656,4.16615 14.83661,4.60006 0.371,0.43391 3.72317,21.48862 7.44671,46.78858 3.72352,25.29994 7.00879,47.46437 7.29762,49.25187 l 0.52532,3.25128 h -44.1336 c -24.27192,0 -44.1388,-0.33998 -44.1478,-0.75248 -0.0538,-2.56944 14.48519,-97.89969 15.02828,-98.53925 0.36846,-0.43391 7.04093,-2.50445 14.82952,-4.60006 z m -14.04154,28.61549 c -0.80278,0 -1.46237,1.60948 -1.46237,3.58493 0,2.64233 -2.44254,5.94554 -9.24271,12.49399 -6.79065,6.53892 -8.32903,8.62959 -5.81397,7.86553 3.97191,-1.20665 13.71055,-7.6567 16.33448,-10.81866 2.35893,-2.84224 3.62882,-2.73185 6.93558,0.57501 2.64453,2.6446 8.24205,3.81185 8.19918,1.71082 -0.0379,-1.85955 -1.98158,-4.02374 -5.11118,-5.67199 -1.69483,-0.89255 -3.088,-2.81285 -3.088,-4.26641 0,-2.52075 -3.64137,-5.47322 -6.75101,-5.47322 z m 37.269,7.14855 c -0.33894,10e-4 -0.68494,0.0139 -1.04353,0.0355 -0.81966,0.0505 -1.69549,0.15553 -2.61948,0.31235 -3.09258,0.52491 -7.62519,1.27992 -10.07328,1.67533 -5.09041,0.82218 -5.67771,2.40168 -1.68953,4.53617 1.9374,1.03705 4.27996,1.04729 7.87264,0.0497 7.07968,-1.96623 9.91,-1.78327 9.91,0.6247 0,1.3457 -1.33999,2.05157 -3.89727,2.05157 -2.14736,0 -5.89772,0.69376 -8.32696,1.54045 -3.26976,1.13993 -4.81604,1.13993 -5.95594,0 -2.74955,-2.74945 -3.96551,-1.63577 -3.00282,2.74726 0.51805,2.35871 0.17445,9.9129 -0.75958,16.7817 -1.47963,10.88266 -1.41788,13.15099 0.46853,17.62646 2.6248,6.22731 4.1558,6.45289 6.43156,0.95835 0.95075,-2.29537 3.4534,-5.05562 5.55131,-6.14051 3.70658,-1.91682 3.93943,-1.82837 8.14239,3.47844 4.70281,5.93819 7.49943,6.89659 8.53993,2.91763 0.98114,-3.752 -1.23232,-6.80012 -8.1282,-11.1736 l -6.14761,-3.89728 5.6081,-1.68243 c 7.07048,-2.11843 8.6469,-3.92391 6.26829,-7.17694 -1.77274,-2.42447 -1.91141,-2.42846 -4.44388,0 -7.84053,7.51782 -9.9804,8.74648 -12.71406,7.28343 -3.9517,-2.11476 -3.29421,0.12862 1.06483,3.62751 l 3.76949,3.02412 -3.62751,1.39137 c -1.99829,0.76736 -4.04191,2.04707 -4.53617,2.84664 -2.13546,3.45536 -3.47039,0.89983 -3.34356,-6.41736 0.20105,-11.59771 1.37196,-14.70319 5.5939,-14.86501 4.81567,-0.18458 7.97201,-1.51604 7.97201,-3.36486 0,-1.02967 -1.80782,-1.22509 -5.48741,-0.6034 -5.01434,0.84722 -5.47322,0.67649 -5.47322,-2.08707 0,-2.37816 0.60139,-2.86928 2.83244,-2.28583 1.55771,0.4074 4.67453,0.10181 6.92139,-0.68149 5.22219,-1.82034 6.09933,-0.84762 3.93986,4.3658 -2.00053,4.82987 -1.03724,6.68543 2.10836,4.07474 2.91229,-2.41707 6.11212,-10.35479 6.11212,-15.14896 0,-3.9547 -2.40401,-6.1462 -6.8504,-6.39607 -0.3176,-0.0179 -0.6478,-0.0299 -0.98674,-0.0284 z m -29.46736,12.47979 c -1.16521,0.003 -2.80711,0.49178 -5.70748,1.47657 -3.51418,1.19314 -8.06364,2.19797 -10.10877,2.22194 -3.56519,0.0418 -3.6068,0.1235 -1.05773,2.05157 1.46217,1.10579 3.7701,2.00898 5.13247,2.00898 5.01162,0 2.57045,4.06122 -2.97442,4.9479 -5.61762,0.89835 -6.30434,3.23806 -0.97254,3.31517 2.84735,0.0412 2.8141,0.18744 -0.75958,2.85374 -6.40196,4.77652 -4.7709,7.46275 4.10314,6.74391 2.44024,-0.19769 3.0809,0.4617 3.0809,3.17319 0,3.03204 -0.85701,3.62051 -7.51769,5.11118 -6.04325,1.35245 -7.22474,2.04351 -5.99853,3.52103 1.86587,2.24815 7.90183,2.38087 13.09029,0.28396 2.12049,-0.85698 6.00291,-1.94665 8.63931,-2.42071 5.89859,-1.06065 6.78823,-5.06484 1.03643,-4.67105 -3.10538,0.2126 -3.76239,-0.30631 -3.76239,-2.93893 0,-1.7561 0.98689,-3.56638 2.20065,-4.03215 1.52215,-0.58413 1.97628,-0.26307 1.46946,1.05773 -0.85758,2.23489 4.0193,1.44934 5.45902,-0.88026 1.27446,-2.06218 -3.7634,-5.25918 -6.77941,-4.30191 -2.08728,0.66252 -2.4972,0.22216 -2.12966,-2.32842 0.29428,-2.04219 1.66565,-3.44132 3.88308,-3.96116 4.13872,-0.97033 3.3139,-3.52183 -1.02224,-3.159 -4.67184,0.39093 -3.7377,-3.1874 1.292,-4.9408 3.97571,-1.38605 4.18473,-1.72144 2.23614,-3.67011 -0.97431,-0.97434 -1.66742,-1.4655 -2.83245,-1.46237 z m -9.66154,16.27769 c 0.38976,0.0452 0.39753,0.77081 0.39753,2.22904 0,2.28437 -0.81503,2.95312 -3.64171,2.95312 -2.00868,0 -3.40185,-0.16569 -3.088,-0.36204 0.31386,-0.19635 1.95398,-1.51907 3.64881,-2.94603 1.52229,-1.28185 2.2936,-1.91925 2.68337,-1.87409 z"
       transform="matrix(0.44526862,0,0,0.44526862,273.94779,277.40711)" />
    <path
       id="path3889"
       style="fill:#4f4f4f"
       d="m 466.43145,380.92365 -15.70268,4.18123 -15.70267,4.18833 -7.23374,48.4994 c -3.97789,26.67494 -7.46116,49.96317 -7.73775,51.75067 l -0.49692,3.24418 h 46.87376 46.87376 l -0.50402,-3.24418 c -0.27659,-1.7875 -3.75985,-25.07573 -7.73776,-51.75067 l -7.23373,-48.4994 -15.70268,-4.18833 z m 0,2.03028 14.06284,3.78369 c 7.73696,2.08173 14.43035,4.18553 14.8721,4.67105 0.631,0.69353 15.14588,95.64206 15.07798,98.63153 -0.009,0.4125 -19.81298,0.75248 -44.01292,0.75248 -34.52398,0 -44.00632,-0.2686 -44.02002,-1.2494 -0.0481,-3.45129 14.37611,-97.37616 15.07088,-98.13461 0.44476,-0.48552 7.14224,-2.58932 14.8792,-4.67105 z m -13.55172,28.75747 c -1.19937,0 -1.95219,1.39264 -1.95219,3.59912 0,2.64862 -2.43832,5.95512 -9.23561,12.52239 -6.77971,6.55031 -8.3292,8.65208 -5.82107,7.88683 3.64947,-1.11347 10.78266,-5.95918 16.51905,-11.22329 l 3.50683,-3.21579 2.98152,3.42875 c 2.8273,3.25176 8.49024,4.77145 8.49024,2.27873 0,-1.50826 -4.15398,-5.04791 -7.17695,-6.11921 -1.33047,-0.47147 -2.04778,-1.68694 -1.63274,-2.76856 0.86112,-2.24407 -2.82448,-6.38897 -5.67908,-6.38897 z m 36.694,7.20534 c -1.02502,-0.0286 -2.14185,0.0604 -3.34357,0.26266 -3.21825,0.54173 -7.81314,1.3003 -10.20815,1.68953 -3.17732,0.51632 -4.13673,1.27093 -3.55653,2.78275 0.65276,1.70113 2.46589,1.90166 10.16556,1.14292 7.98146,-0.78651 9.38469,-0.61184 9.38469,1.2068 0,1.44285 -1.27947,2.14386 -3.94696,2.14386 -2.1733,0 -6.03376,0.96223 -8.56832,2.12966 l -4.60716,2.11546 8.02171,-0.6673 c 7.06348,-0.58909 7.91526,-0.3984 7.26923,1.63984 -0.40305,1.27162 -1.14741,3.70025 -1.66114,5.39513 -1.9991,6.59521 4.13897,1.96616 7.34022,-5.53711 3.5978,-8.43318 0.88557,-14.10376 -6.28958,-14.3042 z m -17.36381,10.15137 c -0.0661,-0.003 -0.1294,0.009 -0.19167,0.0284 -0.87125,0.26813 -1.29009,2.87076 -1.38428,8.46894 -0.0839,4.98941 -0.37773,13.38284 -0.65309,18.6558 -0.31718,6.06929 0.13348,10.72056 1.2281,12.67146 2.28103,4.06561 3.34883,3.88355 5.47322,-0.91575 0.97206,-2.19609 3.38565,-5.0483 5.36674,-6.34638 3.58893,-2.35163 3.62072,-2.34643 8.49733,3.32227 5.98576,6.95823 8.65161,7.35933 8.0572,1.2068 -0.34787,-3.60064 -1.68391,-5.27221 -7.09176,-8.80258 l -6.67292,-4.3516 5.78557,-1.73212 c 6.22958,-1.8665 8.08877,-4.24917 5.62939,-7.21244 -1.25678,-1.51437 -2.60751,-0.88496 -7.31892,3.42165 -4.18554,3.82608 -6.55569,5.06071 -8.54703,4.45098 -2.5101,-0.76863 -2.45933,-0.53433 0.53242,2.70467 l 3.27967,3.55652 -3.49264,1.32039 c -1.91963,0.72986 -3.89283,1.98318 -4.38709,2.78275 -3.0633,4.95667 -4.80653,-6.60589 -2.63368,-17.47029 0.75826,-3.79137 1.40788,-4.256 6.50965,-4.62845 3.20219,-0.23379 5.36349,-1.00741 4.9763,-1.78181 -0.37663,-0.75329 -2.63603,-1.19243 -5.01889,-0.97965 -3.80967,0.3402 -4.43764,-0.10444 -5.21766,-3.65591 -0.48788,-2.2212 -1.62455,-4.31962 -2.52009,-4.66395 -0.0718,-0.0277 -0.13971,-0.0469 -0.20587,-0.0497 z m -11.8338,2.31423 c -1.40454,0.074 -3.63695,0.6469 -5.70748,1.51205 -2.76053,1.15354 -7.04019,2.11989 -9.51247,2.14386 -4.24901,0.0412 -4.35158,0.15079 -1.8386,2.05157 1.46217,1.10579 3.7701,2.00898 5.13247,2.00898 4.54423,0 2.67359,3.95551 -2.31423,4.89111 -5.33645,1.00115 -6.50553,3.30444 -1.71082,3.37196 2.98033,0.0419 2.96096,0.13596 -0.68149,2.85374 -5.54527,4.13734 -4.89312,6.68712 1.71082,6.68712 4.90225,0 5.47322,0.35853 5.47322,3.36486 0,2.71559 -0.98132,3.63171 -5.13247,4.78463 -2.82472,0.78448 -6.29183,1.42986 -7.70226,1.43397 -2.12403,0.007 -2.26401,0.36419 -0.85187,2.06577 1.97906,2.38469 8.54941,2.70314 12.4727,0.6034 1.49205,-0.79855 5.30263,-1.90145 8.46894,-2.44201 6.66459,-1.13775 8.36567,-5.19239 1.99477,-4.75623 -3.12561,0.21399 -3.76239,-0.29851 -3.76239,-3.00282 0,-3.50922 2.90553,-6.31176 3.79079,-3.65591 0.63764,1.913 3.9264,2.13839 5.03309,0.34784 1.43561,-2.32294 -3.35379,-5.6392 -6.87169,-4.75623 -2.30215,0.57782 -3.32259,0.25869 -3.30807,-1.02934 0.0353,-3.13714 1.87524,-4.97741 5.45902,-5.48031 4.66031,-0.65402 3.02886,-3.31297 -1.76052,-2.86794 -3.43796,0.31947 -3.68188,0.0766 -2.35682,-2.39942 0.80999,-1.51353 2.67992,-2.75435 4.15993,-2.75435 3.00302,0 3.71164,-3.79411 0.90866,-4.86982 -0.24536,-0.0941 -0.62504,-0.13114 -1.09323,-0.10648 z m -10.65538,16.98047 c 0.0945,-0.0123 0.18419,-0.0148 0.26265,0 0.37667,0.0711 0.58112,0.45588 0.72409,1.12162 0.2549,1.187 0.2549,2.33677 0,2.54849 -0.2549,0.21171 -2.31207,0.77885 -4.57167,1.27069 l -4.10314,0.89446 4.10314,-3.42875 c 1.84823,-1.54632 2.92303,-2.31763 3.58493,-2.40651 z"
       transform="matrix(0.44526862,0,0,0.44526862,273.94779,277.40711)" />
    <path
       id="path3887"
       style="fill:#2f2f2f"
       d="m 466.43145,380.98754 -15.5394,4.13154 c -12.95697,3.44358 -15.61747,4.46158 -15.99373,6.14761 -0.24816,1.11205 -3.60102,23.39669 -7.4538,49.52163 -3.85279,26.12496 -7.24337,48.5184 -7.53189,49.7559 l -0.52531,2.24324 h 47.04413 47.03703 l -0.52531,-2.24324 c -0.28852,-1.2375 -3.67912,-23.63094 -7.53189,-49.7559 -3.85278,-26.12494 -7.20564,-48.40958 -7.4538,-49.52163 -0.37626,-1.68603 -3.03675,-2.70403 -15.99373,-6.14761 z m 0,1.83151 14.61655,3.93277 c 8.03909,2.16436 14.72103,4.07297 14.85081,4.23802 0.31211,0.39692 14.55376,96.93892 14.53846,98.55344 -0.009,0.98088 -9.47888,1.2494 -44.00582,1.2494 -41.23539,0 -44.00692,-0.11337 -44.01292,-1.75342 -0.008,-1.96025 14.17734,-97.57863 14.54556,-98.04942 0.12908,-0.16505 6.81172,-2.07366 14.85081,-4.23802 z m -12.58628,28.89235 c -0.54814,0 -1.74344,2.08102 -2.66207,4.62136 -0.91862,2.5405 -5.01696,7.77264 -9.10073,11.63503 -10.68117,10.1021 -4.97295,9.10867 7.58158,-1.32039 l 6.26829,-5.20346 3.54233,3.54233 c 2.30915,2.30923 4.35401,3.22992 5.87075,2.64787 1.96299,-0.75329 2.0446,-1.22748 0.51822,-3.06671 -0.99545,-1.19948 -3.20811,-2.71417 -4.91951,-3.36486 -1.87702,-0.71367 -2.81582,-1.9572 -2.37102,-3.11639 0.70718,-1.84291 -2.65773,-6.37478 -4.72784,-6.37478 z m 35.81374,6.8433 c -4.74433,0 -16.81719,4.17446 -16.81719,5.81397 0,0.89651 3.40256,1.05701 9.59055,0.44722 8.17757,-0.80582 9.58346,-0.63762 9.58346,1.18551 0,1.4036 -1.28906,2.16721 -3.76239,2.20775 -2.07146,0.034 -5.61286,0.96639 -7.87264,2.06577 -4.02481,1.95796 -3.96182,1.97993 3.24418,1.2352 7.26907,-0.75123 7.35154,-0.72087 6.51675,2.60528 -0.46462,1.8511 -1.25934,4.42012 -1.75341,5.70748 -0.76414,1.99139 -0.47834,2.11848 1.88829,0.85186 2.78898,-1.49248 7.21954,-10.60311 7.21954,-14.84371 0,-3.43391 -4.13904,-7.27633 -7.83714,-7.27633 z m -17.54838,10.96064 c -1.6312,0 -1.79001,0.57111 -0.72408,2.56269 0.90946,1.69947 0.92003,5.29294 0.0355,10.61989 -1.86984,11.2605 -1.89599,22.90814 -0.0497,26.35806 2.10617,3.93553 3.20485,3.67563 5.38804,-1.2565 1.01524,-2.29366 3.41392,-5.19654 5.33124,-6.45286 3.44632,-2.25817 3.54719,-2.2136 8.7245,3.79789 3.95679,4.59445 5.62792,5.69479 6.822,4.50067 2.99728,-2.99737 0.10642,-8.37257 -6.62324,-12.31652 l -6.45996,-3.78369 6.46706,-2.68337 c 6.46842,-2.68085 7.73735,-4.4726 5.04729,-7.16274 -0.99364,-0.99368 -3.19134,0.16922 -7.18404,3.81918 -4.15322,3.79654 -6.50771,5.02469 -8.49734,4.41549 -2.5624,-0.78464 -2.53784,-0.61052 0.39754,2.56979 l 3.15899,3.42165 -4.9479,2.91763 c -2.71898,1.6041 -5.14323,2.91053 -5.39513,2.91053 -1.62585,0 -1.97611,-8.28812 -0.6389,-15.08507 l 1.58304,-8.05011 5.65779,-0.41883 c 3.19761,-0.23355 5.35632,-1.00756 4.9692,-1.78181 -0.37663,-0.75329 -2.93557,-1.1687 -5.68618,-0.92286 -3.49413,0.3123 -4.97607,-0.10081 -4.91951,-1.37008 0.20758,-4.65509 -0.5213,-6.60903 -2.45621,-6.60903 z m -11.68472,1.94508 c -1.32921,0.0248 -3.01353,0.49248 -4.79172,1.41978 -2.21026,1.15261 -6.47046,2.10425 -9.46278,2.10836 -5.37865,0.008 -5.40771,0.0266 -2.31423,2.19354 1.72106,1.20551 4.29005,1.89322 5.69328,1.52626 1.91397,-0.5004 2.33674,-0.10595 1.71793,1.57595 -1.09954,2.98852 -3.11738,4.24817 -6.8433,4.27351 -4.02606,0.0274 -4.02606,2.73968 0,2.80405 2.9316,0.0468 2.88094,0.21396 -1.00094,3.38615 -4.74015,3.87337 -3.74329,5.75448 3.40035,6.41027 3.63205,0.33346 4.88819,1.12348 5.19637,3.27967 0.32269,2.25771 -0.70319,3.16993 -4.95501,4.44389 -2.94748,0.88312 -6.74797,1.61854 -8.44764,1.61854 -2.59166,0 -2.80701,0.32866 -1.37718,2.05157 2.00925,2.42107 6.51948,2.64187 11.89059,0.57501 2.12049,-0.81597 6.32197,-1.91888 9.335,-2.44201 6.3148,-1.09641 7.99783,-5.2478 1.8741,-4.62136 -2.87917,0.29452 -3.7355,-0.30696 -4.25222,-3.00991 -0.71899,-3.7613 2.76171,-6.20459 4.60006,-3.22998 0.81608,1.3203 1.46689,1.35831 2.66207,0.16327 2.37078,-2.37085 0.26971,-4.55747 -4.37999,-4.55747 -3.46299,0 -4.05189,-0.48258 -3.68431,-3.00281 0.30376,-2.08251 1.81045,-3.36193 4.93371,-4.16703 5.64014,-1.45389 4.358,-4.29646 -1.37008,-3.03832 -5.22025,1.14662 -4.72541,-1.92945 0.73828,-4.59296 2.01566,-0.9827 3.67011,-2.38058 3.67011,-3.1164 0,-1.22647 -0.88822,-1.92273 -2.28583,-2.03737 -0.1747,-0.0143 -0.35673,-0.0177 -0.54662,-0.0142 z m -9.08653,16.00083 c 0.69983,0.0123 0.95834,0.67434 0.95834,1.94509 0,1.14856 -1.57466,2.68701 -3.50683,3.42165 -5.91481,2.24894 -6.96897,1.4064 -2.65498,-2.12966 2.38112,-1.95198 3.9244,-2.9961 4.86982,-3.19449 0.11819,-0.0248 0.23365,-0.0442 0.33365,-0.0426 z"
       transform="matrix(0.44526862,0,0,0.44526862,273.94779,277.40711)" />
    <path
       id="path3885"
       style="fill:#030303"
       d="m 466.43145,381.30699 -15.46841,3.96117 c -14.38407,3.68357 -15.50452,4.13439 -15.97953,6.48835 -0.86268,4.27518 -14.55266,96.99286 -14.55266,98.56055 0,1.27373 6.17742,1.47656 46.0006,1.47656 39.82318,0 46.0006,-0.20283 46.0006,-1.47656 0,-1.56769 -13.68997,-94.28536 -14.55266,-98.56055 -0.475,-2.35395 -1.59546,-2.80478 -15.97953,-6.48835 z m 0.49692,1.45527 14.44617,3.85468 c 7.94538,2.11863 14.57471,4.26197 14.73013,4.76333 0.54173,1.74734 14.3255,95.52199 14.3255,97.46022 0,1.90813 -1.02607,1.95219 -44.41046,1.95219 -41.77155,0 -44.38182,-0.10725 -44.02001,-1.75342 0.21155,-0.9625 3.58417,-23.34885 7.49639,-49.74879 3.91222,-26.39996 7.411,-48.26766 7.77325,-48.59169 0.36224,-0.32402 7.18108,-2.23834 15.15606,-4.25931 z m -12.62887,30.31922 c -1.10338,0 -2.00188,0.97714 -2.00188,2.17225 0,1.19511 -3.78738,6.12262 -8.42634,10.95354 -4.63875,4.83113 -7.76319,8.78839 -6.93559,8.78839 0.82764,0 5.47562,-3.04532 10.32884,-6.76522 l 8.82388,-6.76521 3.1448,3.34356 c 3.51592,3.74264 6.76521,4.3771 6.76521,1.32039 0,-1.11058 -1.90825,-3.00479 -4.23802,-4.20962 -2.32977,-1.2048 -3.8915,-2.53296 -3.47134,-2.95313 1.27735,-1.27717 -1.8476,-5.88495 -3.98956,-5.88495 z m 35.09675,5.69329 c -0.19277,-0.007 -0.38885,-0.002 -0.5963,0.007 -1.65977,0.0729 -3.85431,0.65476 -7.62417,1.79602 -5.77262,1.74788 -7.98132,2.99351 -7.01368,3.96116 0.96762,0.96765 3.66943,0.94372 8.60382,-0.0781 7.6754,-1.58901 9.24981,-1.32682 9.24981,1.55465 0,1.08776 -2.3315,2.17088 -5.81396,2.69757 -9.20648,1.39236 -11.46413,3.9299 -2.56979,2.88923 7.15107,-0.8367 7.34213,-0.76796 6.68003,2.29293 -0.37494,1.73349 -1.13926,4.23872 -1.69663,5.56551 -0.76575,1.82284 -0.49878,2.21527 1.09322,1.60434 2.75882,-1.05869 8.05356,-12.39883 7.51769,-16.10021 -0.23007,-1.58895 -2.03801,-3.80081 -4.02505,-4.91241 -1.41623,-0.7923 -2.45553,-1.22974 -3.80499,-1.27779 z m -17.84652,10.74057 c -0.90202,0 -0.87088,1.13618 0.0994,3.26547 1.0737,2.35651 1.06496,5.23065 -0.0284,10.33594 -1.90761,8.89538 -1.95729,21.36667 -0.0994,24.8389 1.89027,3.53212 3.31253,3.33139 5.15377,-0.70988 0.83988,-1.84333 3.12245,-4.40169 5.08278,-5.68619 3.53125,-2.31384 3.621,-2.28266 9.49118,3.47844 3.88203,3.81027 6.26207,5.27039 6.90009,4.23802 1.96907,-3.18592 -0.71595,-7.7513 -6.81491,-11.60663 -6.80833,-4.30365 -6.70355,-5.08444 1.02224,-7.55319 5.13623,-1.64145 6.37144,-3.75163 3.734,-6.38897 -0.9571,-0.95713 -3.22683,0.28446 -7.15565,3.91147 -3.80444,3.51219 -6.63406,5.08199 -8.34116,4.63556 -2.37689,-0.62158 -2.35195,-0.42253 0.31235,2.41361 3.36014,3.57675 3.64943,4.955 1.02933,4.955 -1.0283,0 -3.47036,1.25194 -5.41642,2.78275 l -3.52814,2.78985 -0.88735,-4.69944 c -0.48469,-2.58357 -0.16623,-8.15345 0.70988,-12.37331 1.52932,-7.36702 1.76855,-7.66792 5.94884,-7.68806 2.39468,-0.0123 5.28041,-0.66257 6.41027,-1.43397 1.5193,-1.03664 0.47563,-1.30299 -3.98955,-1.03643 -4.93006,0.29436 -6.10031,-0.0861 -6.39608,-2.10127 -0.59464,-4.05179 -1.76856,-6.36767 -3.23707,-6.36767 z m -11.14521,2.4491 c -0.18486,-0.002 -0.38,0.002 -0.58211,0.0142 -1.21267,0.0815 -2.70577,0.46008 -4.23802,1.10032 -2.51044,1.04895 -6.58587,1.93533 -9.05814,1.95929 -4.25563,0.0412 -4.35668,0.14881 -1.8315,2.05867 1.46682,1.10951 3.77478,1.66613 5.13247,1.2352 1.83189,-0.58144 2.4704,-0.059 2.4704,2.03027 0,2.23261 -1.14653,3.00006 -5.5584,3.70561 -6.33361,1.01264 -5.50069,3.35709 1.26359,3.54943 8.02466,0.22823 4.41273,6.45125 -3.79079,6.53094 -1.44895,0.0123 -1.27577,-0.73908 0.68149,-3.0596 2.39704,-2.84195 2.30382,-2.83382 -1.12162,0.19167 -4.63727,4.09608 -3.78738,5.62229 3.1306,5.62229 4.81641,0 5.39513,0.36693 5.39513,3.36486 0,2.71559 -0.98133,3.62459 -5.13247,4.77753 -2.8247,0.78448 -6.21369,1.43695 -7.53189,1.44107 -2.43312,0.006 -3.1512,1.54112 -1.49076,3.20159 1.60437,1.6046 6.50982,0.983 14.51716,-1.83151 4.28633,-1.50655 8.78373,-2.73306 9.9952,-2.73306 1.21146,0 1.94263,-0.76923 1.62563,-1.71083 -0.31702,-0.94159 -2.37781,-1.71792 -4.57166,-1.71792 -3.34168,0 -3.98956,-0.55316 -3.98956,-3.42165 0,-2.55626 0.82306,-3.54146 3.23708,-3.88307 2.25841,-0.31962 2.92533,0.0455 2.20775,1.2068 -0.65893,1.06617 -0.33992,1.43603 0.88025,1.02934 3.68199,-1.22741 1.99171,-4.51011 -2.54849,-4.94791 -3.61425,-0.3485 -4.45808,-1.01408 -4.45808,-3.58492 0,-2.42212 0.95985,-3.36797 4.10314,-3.99666 2.25977,-0.45197 4.11734,-1.43316 4.11734,-2.18645 0,-0.80127 -1.76733,-1.02228 -4.25222,-0.52531 -3.64563,0.72917 -4.17465,0.48246 -3.74819,-1.73212 0.27313,-1.41882 1.72502,-2.78955 3.22288,-3.05961 4.03011,-0.72674 5.80409,-2.85874 3.54943,-4.25222 -0.28144,-0.17379 -0.65572,-0.28864 -1.10033,-0.34074 -0.16671,-0.0185 -0.34043,-0.0321 -0.52531,-0.0355 z"
       transform="matrix(0.44526862,0,0,0.44526862,273.94779,277.40711)" />
  </g>
</svg>
