<?xml version="1.0" encoding="UTF-8" standalone="no"?>
<!-- Created with Inkscape (http://www.inkscape.org/) -->

<svg
   viewBox="0 0 35.349998 38.720001"
   id="svg3831"
   version="1.1"
   inkscape:version="1.3.2 (091e20e, 2023-11-25, custom)"
   sodipodi:docname="Uma.svg"
   xmlns:inkscape="http://www.inkscape.org/namespaces/inkscape"
   xmlns:sodipodi="http://sodipodi.sourceforge.net/DTD/sodipodi-0.dtd"
   xmlns="http://www.w3.org/2000/svg"
   xmlns:svg="http://www.w3.org/2000/svg"
   xmlns:rdf="http://www.w3.org/1999/02/22-rdf-syntax-ns#"
   xmlns:cc="http://creativecommons.org/ns#"
   xmlns:dc="http://purl.org/dc/elements/1.1/">
  <defs
     id="defs3833" />
  <sodipodi:namedview
     id="base"
     pagecolor="#ffffff"
     bordercolor="#666666"
     borderopacity="1.0"
     inkscape:pageopacity="0.0"
     inkscape:pageshadow="2"
     inkscape:zoom="14.178719"
     inkscape:cx="17.667323"
     inkscape:cy="19.360001"
     inkscape:document-units="px"
     inkscape:current-layer="layer1"
     showgrid="false"
     inkscape:window-width="1292"
     inkscape:window-height="745"
     inkscape:window-x="-8"
     inkscape:window-y="-8"
     inkscape:window-maximized="1"
     fit-margin-top="0"
     fit-margin-left="0"
     fit-margin-right="0"
     fit-margin-bottom="0"
     inkscape:showpageshadow="0"
     inkscape:pagecheckerboard="1"
     inkscape:deskcolor="#d1d1d1" />
  <metadata
     id="metadata3836">
    <rdf:RDF>
      <cc:Work
         rdf:about="">
        <dc:format>image/svg+xml</dc:format>
        <dc:type
           rdf:resource="http://purl.org/dc/dcmitype/StillImage" />
      </cc:Work>
    </rdf:RDF>
  </metadata>
  <g
     inkscape:label="Layer 1"
     inkscape:groupmode="layer"
     id="layer1"
     transform="matrix(0.64723544,0,0,0.64723544,-259.66237,-404.00352)"
     style="display:inline">
    <path
       sodipodi:nodetypes="cccccc"
       inkscape:connector-curvature="0"
       id="path3885"
       d="m 425.27422,573.0448 30.43085,-9.21764 31.441,8.83884 16.41498,104.0457 -94.07047,-0.50507 z"
       style="display:inline;fill:#ffffff;fill-opacity:1;stroke:none"
       transform="matrix(0.4286765,0,0,0.4286765,232.89282,387.99181)" />
    <path
       id="path3864"
       style="display:inline;fill:#d5d5d5;fill-opacity:1"
       d="m 676.57344,577.62681 -14.50124,3.79426 c -7.9749,2.08618 -15.40975,4.19303 -16.52157,4.68827 -1.83579,0.81775 -2.73321,5.70838 -9.78482,53.27448 -4.27039,28.80625 -7.7491,52.93895 -7.7293,53.62645 0.0283,0.98222 10.42321,1.25302 48.53693,1.25302 38.14333,0 48.49582,-0.27004 48.48062,-1.25302 -0.0413,-2.67561 -15.86109,-105.96592 -16.2963,-106.40113 -0.2541,-0.2541 -7.60158,-2.37928 -16.32446,-4.72346 z m -0.33789,3.62532 c 0.73437,-0.007 7.76689,1.68292 15.62756,3.75202 11.77841,3.10027 14.37623,4.11 14.75466,5.75826 0.81358,3.54345 14.45197,95.66594 14.45197,97.6159 0,1.81642 -1.59588,1.88657 -45.01721,1.88657 h -45.01722 l 0.50684,-2.25262 c 0.27804,-1.2375 3.71182,-23.84781 7.63075,-50.24751 3.91904,-26.3998 7.41359,-48.27626 7.7645,-48.61437 0.74318,-0.71608 27.31832,-7.88045 29.29815,-7.89825 z m 23.10344,28.17887 c -4.03349,0.11516 -10.32383,1.32048 -21.73075,3.98432 -18.04482,4.21402 -22.79597,4.77779 -26.96809,3.20295 -2.78507,-1.05123 -5.58743,-1.38161 -6.2299,-0.73914 -1.549,1.54884 2.60191,6.41803 6.98312,8.19391 4.71633,1.91156 3.53866,2.02739 17.11288,-1.63315 6.66748,-1.79805 14.43601,-3.74192 17.26774,-4.31518 l 5.14583,-1.0348 -5.12471,4.25886 -5.11767,4.2659 6.83529,-1.08407 c 10.09351,-1.60406 21.4351,-6.86401 21.4351,-9.95377 0,-1.47276 -2.12771,-3.49632 -4.72347,-4.48412 -0.93643,-0.35635 -1.97413,-0.58183 -3.28742,-0.65467 -0.49248,-0.0273 -1.02173,-0.0235 -1.59795,-0.007 z m -17.99985,21.93489 c -1.72761,0.002 -3.60053,0.0564 -5.53299,0.14783 -12.33442,0.58366 -14.0648,1.05492 -14.0648,3.86466 0,2.43325 1.62266,3.40957 6.7297,4.06175 5.98363,0.76413 6.40262,1.11255 3.85761,3.20999 -5.65166,4.6578 -3.42919,7.08167 6.47629,7.08167 12.2526,0 17.76917,2.246 19.16135,7.79266 1.68157,6.69987 -1.59983,11.94 -10.01712,16.01473 -11.53542,5.58414 -27.81696,4.04146 -30.09361,-2.85802 -0.57001,-1.72745 1.22947,-1.97755 8.01793,-1.07703 8.10713,1.07544 8.75002,0.89995 8.75002,-2.42861 0,-4.32752 -4.73427,-7.13799 -11.98817,-7.13799 -6.64513,0 -14.24582,6.92044 -12.62171,11.48837 1.57511,4.43061 6.02618,9.27064 10.01712,10.90409 6.49751,2.65934 27.08576,1.81841 33.43734,-1.37269 8.46896,-4.25498 14.28759,-13.47595 13.12151,-20.78043 -1.46527,-9.17905 -5.47012,-13.7399 -13.94513,-15.87393 l -7.66595,-1.92177 3.37894,-4.3011 c 1.85844,-2.36277 2.95921,-4.97179 2.44268,-5.80754 -0.38738,-0.62685 -4.27816,-1.01364 -9.46101,-1.00664 z m -6.34957,42.46894 c -0.0478,0.11929 -0.0911,0.24018 -0.14079,0.35901 0.0634,7e-5 0.12666,-8e-5 0.19007,0 -0.009,-0.12266 -0.0272,-0.24092 -0.0493,-0.35901 z"
       transform="matrix(0.4286765,0,0,0.4286765,138.49257,381.49638)" />
    <path
       id="path3862"
       style="display:inline;fill:#b0b0b0;fill-opacity:1"
       d="m 676.77055,577.85208 -15.44453,3.95616 c -8.49448,2.17487 -15.91721,4.25062 -16.50045,4.61083 -0.82212,0.50772 -16.60708,100.15903 -16.72571,105.5916 -0.0215,0.98311 10.33208,1.25302 48.51582,1.25302 h 48.55101 l -0.57019,-3.25223 c -0.31196,-1.7874 -3.94723,-25.72913 -8.08128,-53.20408 -4.13394,-27.47495 -7.6374,-50.07818 -7.78562,-50.2264 -0.14821,-0.14822 -7.40016,-2.1718 -16.11327,-4.4982 z m -0.0352,3.01288 14.91657,3.94912 14.91658,3.95617 4.71642,31.49445 c 2.59516,17.32283 6.01382,40.15992 7.59555,50.74732 l 2.8721,19.25286 H 676.3341 630.91564 l 0.55612,-2.75242 c 0.73943,-3.66446 14.59979,-96.50507 14.59979,-97.79189 0,-0.55285 6.90034,-2.76836 15.3319,-4.92761 z m 25.0956,29.094 c -0.80593,-0.0235 -1.68183,-0.0168 -2.62571,0.0211 -6.29239,0.25252 -15.56242,1.84257 -26.58796,4.63899 -13.41878,3.40348 -18.45475,4.0526 -20.71003,2.64683 -7.11344,-4.43398 -11.13432,-0.69891 -4.35741,4.04768 5.08481,3.56148 11.78035,3.36762 26.21487,-0.76026 6.60137,-1.8878 13.54666,-3.40193 15.43749,-3.3719 3.12227,0.0496 3.17697,0.24123 0.58427,2.13999 -1.57008,1.14986 -4.27103,2.98319 -6.00464,4.06176 -2.45206,1.52555 -1.32263,1.6235 5.09655,0.45756 15.18783,-2.75862 24.18652,-9.11379 18.1688,-12.83289 -1.01859,-0.6295 -2.79842,-0.9781 -5.21623,-1.04888 z m -15.95841,21.32246 c -0.53866,-0.012 -1.13903,-10e-4 -1.82321,0.0141 -1.82451,0.0417 -4.20543,0.16786 -7.28582,0.35901 -7.31523,0.45403 -13.87779,0.85007 -14.58572,0.87289 -0.70793,0.0228 -1.28822,1.12783 -1.28822,2.44269 0,2.78183 3.65558,4.47004 9.67219,4.47004 4.04645,0 4.12907,0.18165 1.58388,3.81538 -1.46938,2.09772 -2.66795,4.41194 -2.66795,5.14583 0,0.73387 5.01513,1.33045 11.15047,1.33045 12.7915,0 18.02097,3.41713 18.02097,11.75587 0,11.85334 -25.0039,21.07992 -36.56989,13.50164 -7.04193,-4.6139 -5.81423,-6.76871 3.08327,-5.43445 6.28699,0.9427 7.90009,0.63547 8.79226,-1.68946 1.4487,-3.77512 -3.87157,-7.7156 -10.531,-7.78562 -15.6777,-0.16476 -17.5183,16.06914 -2.499,22.0616 2.34037,0.93378 9.28103,1.7367 15.41637,1.78098 20.29386,0.14656 33.31721,-11.90365 29.24183,-27.03849 -2.06203,-7.65764 -6.48284,-11.21831 -16.16255,-13.01592 -6.46064,-1.19978 -6.5343,-1.313 -2.99176,-3.79426 2.00523,-1.40456 3.63235,-4.05288 3.63235,-5.89201 0,-2.0329 -0.41775,-2.82048 -4.18847,-2.90025 z"
       transform="matrix(0.4286765,0,0,0.4286765,138.49257,381.49638)" />
    <path
       id="path3860"
       style="display:inline;fill:#8f8f8f;fill-opacity:1"
       d="m 676.43266,578.26036 c -0.8305,0 -8.42401,1.86598 -16.88058,4.13919 -14.39115,3.86865 -15.41481,4.29464 -15.91617,6.74379 -0.29461,1.43919 -3.70558,23.99601 -7.58148,50.12081 -3.8759,26.1247 -7.30542,48.95991 -7.62371,50.74731 l -0.57724,3.25223 h 48.62845 48.62845 l -0.49276,-2.25263 c -0.27021,-1.2374 -3.9231,-25.19661 -8.11648,-53.24631 -4.19329,-28.0498 -7.68714,-51.06827 -7.77154,-51.14857 -0.47048,-0.44781 -31.03657,-8.35582 -32.29694,-8.35582 z m -0.40829,2.73835 c 2.82083,-0.19325 30.23297,7.57521 30.6286,8.67962 0.21358,0.59626 3.53728,22.23662 7.38437,48.08642 3.84708,25.8497 7.24838,48.46011 7.56036,50.24751 l 0.56315,3.25222 h -45.54517 c -25.04962,0 -45.54417,-0.34072 -45.54517,-0.75322 -0.003,-1.21611 15.10386,-101.69522 15.31078,-101.83253 0.60315,-0.40025 28.363,-7.59232 29.64308,-7.68002 z m 23.94113,29.34742 c -5.93782,0.062 -14.77546,1.53491 -26.34862,4.43485 -14.64922,3.67063 -18.86323,4.16586 -22.33614,2.58347 -6.89703,-3.14245 -8.44285,-2.27342 -4.11807,2.33005 4.97589,5.29662 10.25115,5.44548 25.7925,0.72507 6.45747,-1.96138 13.53481,-3.28963 15.71907,-2.95657 3.85344,0.58759 3.81298,0.70066 -1.18263,3.66051 l -5.14583,3.04104 7.27175,-0.9644 c 8.82061,-1.17015 19.3303,-5.94517 19.3303,-8.78523 0,-2.77908 -3.04458,-4.13075 -8.98233,-4.06879 z m -21.01273,21.62516 c -0.80082,0.002 -1.64468,0.0139 -2.54123,0.0352 -12.86619,0.30557 -18.60974,2.71392 -13.78323,5.7653 1.40798,0.89014 4.72103,1.62646 7.3703,1.64019 4.63383,0.0252 4.71713,0.17426 2.14703,3.84354 -1.46938,2.09772 -2.66795,4.41194 -2.66795,5.14583 0,0.73387 4.83799,1.33045 10.7633,1.33045 14.08833,0 18.7975,3.04582 18.07024,11.69251 -0.40924,4.86574 -1.79909,7.07566 -6.37773,10.15087 -10.28495,6.90788 -17.78921,8.26744 -26.70059,4.86426 -10.63842,-4.06284 -10.76971,-8.66606 -0.20415,-7.08168 9.31018,1.39615 12.04369,-1.47388 6.03984,-6.3355 -4.40237,-3.5648 -13.41924,-3.28516 -18.05616,0.56316 -5.79569,4.80994 -0.77928,15.9205 8.38397,18.57004 8.77304,2.53676 22.86365,2.12978 30.36814,-0.87289 20.7717,-8.31102 17.91327,-36.6966 -3.6957,-36.6966 h -7.08168 l 4.66715,-4.32925 c 6.31734,-5.85457 5.48328,-8.03835 -4.43485,-8.26431 -0.70844,-0.0161 -1.46587,-0.0228 -2.2667,-0.0211 z"
       transform="matrix(0.4286765,0,0,0.4286765,138.49257,381.49638)" />
    <path
       id="path3858"
       style="display:inline;fill:#6f6f6f;fill-opacity:1"
       d="m 676.69311,578.06326 -16.2259,4.22366 -16.21887,4.23071 -0.56316,3.11847 c -0.31133,1.71816 -3.71768,24.27805 -7.56739,50.12785 -3.8498,25.8497 -7.25542,48.46011 -7.5674,50.24751 l -0.5702,3.25223 h 48.61437 c 45.82446,0 48.5869,-0.10319 48.10753,-1.75283 -0.27969,-0.9624 -3.94605,-24.69681 -8.14463,-52.74651 -4.19859,-28.0498 -7.93522,-51.31966 -8.30654,-51.70469 -0.37132,-0.38503 -7.62791,-2.56112 -16.12031,-4.84313 z m -0.36605,2.43565 15.12072,3.98432 c 8.31789,2.18952 15.19174,4.04985 15.26854,4.13215 0.0768,0.0823 3.35069,21.75006 7.27878,48.14976 3.92819,26.3998 7.40353,49.45972 7.72227,51.24712 l 0.57723,3.25222 h -45.60852 c -35.82255,0 -45.60924,-0.27128 -45.60853,-1.25302 10e-4,-1.70935 14.96427,-101.0535 15.2615,-101.32569 0.13061,-0.11961 6.93177,-2.01138 15.11368,-4.20254 z m 23.25831,29.88242 c -5.77276,0.0242 -14.28515,1.4721 -25.96849,4.39965 -14.64922,3.67063 -18.86323,4.16586 -22.33614,2.58347 -6.89703,-3.14245 -8.44285,-2.27342 -4.11807,2.33005 4.88748,5.20252 9.17556,5.35111 24.88441,0.85882 6.60138,-1.8878 13.93352,-3.4033 16.29631,-3.3719 l 4.29405,0.0634 -4.04767,3.37189 c -4.99855,4.16406 -2.0989,4.38672 8.79226,0.67579 9.49594,-3.2355 13.45256,-7.07375 9.73554,-9.42581 -1.59351,-1.00831 -4.06863,-1.49983 -7.5322,-1.48532 z m -20.40733,21.58292 c -0.78261,0.002 -1.61423,0.008 -2.49196,0.0281 -6.72376,0.15755 -13.02777,0.78769 -14.00849,1.39381 -3.57931,2.21211 -1.62989,4.31352 4.98392,5.3711 6.52669,1.04366 6.67652,1.22782 4.27998,4.88537 -1.3673,2.08677 -1.96304,4.3091 -1.33045,4.94168 0.63259,0.63257 5.78536,1.14743 11.45317,1.14743 12.24593,0 16.58492,2.94826 16.58492,11.27014 0,6.68869 -6.98564,13.3907 -16.78907,16.11328 -8.97215,2.49179 -11.59423,2.26402 -19.31622,-1.67539 -10.31628,-5.26287 -8.11688,-9.68084 3.10439,-6.23694 4.15996,1.27672 6.17541,1.17221 7.72931,-0.40829 1.66494,-1.6934 1.2648,-2.82752 -1.94289,-5.44852 -4.88676,-3.99289 -9.04725,-4.18678 -15.78242,-0.70395 -8.73195,4.51538 -5.25192,16.33381 5.74418,19.51333 8.77304,2.53676 22.86365,2.12978 30.36814,-0.87289 20.4492,-8.18198 17.57818,-36.6966 -3.6957,-36.6966 h -7.40549 l 4.79386,-4.44892 c 6.30116,-5.84269 5.61053,-7.93782 -4.0688,-8.15167 -0.69139,-0.0153 -1.42778,-0.0228 -2.21038,-0.0211 z m -4.30814,42.17328 c -0.008,0.0185 -0.0134,0.0378 -0.0211,0.0563 0.009,10e-6 0.0188,-1e-5 0.0282,0 -0.003,-0.0183 -0.003,-0.0378 -0.007,-0.0563 z"
       transform="matrix(0.4286765,0,0,0.4286765,138.49257,381.49638)" />
    <path
       id="path3856"
       style="display:inline;fill:#4e4e4e;fill-opacity:1"
       d="m 676.36226,578.14773 -15.89505,4.22367 c -8.74213,2.32491 -15.98763,4.27853 -16.0992,4.34333 -0.11158,0.0648 -3.60864,23.05538 -7.77154,51.08521 -4.16299,28.02982 -7.79378,51.97371 -8.0672,53.21112 l -0.49276,2.25263 h 48.32575 48.33279 l -7.84897,-52.25376 c -4.31473,-28.73723 -8.00887,-52.7248 -8.20799,-53.30968 -0.19912,-0.58487 -7.54059,-2.97282 -16.31742,-5.30773 z m 0.11263,2.16815 15.05032,4.06176 c 8.27621,2.23511 15.12741,4.14304 15.22631,4.23774 0.22103,0.21153 15.32486,100.49167 15.32486,101.74806 0,0.52017 -19.20592,0.90104 -45.50294,0.90104 -42.66661,0 -45.49687,-0.11178 -45.49589,-1.75282 10e-4,-2.50343 14.76892,-100.35442 15.21223,-100.79773 0.20274,-0.20274 7.07508,-2.17772 15.27558,-4.38557 z m 23.73699,30.07952 c -5.24971,0.0154 -13.12338,1.44553 -24.99705,4.42077 -15.87153,3.97691 -18.93789,4.28225 -24.10304,2.41453 -7.60044,-2.74834 -8.80262,-1.47143 -2.94952,3.13255 5.68873,4.47471 8.9506,4.49544 22.75146,0.16895 5.98348,-1.87563 13.31271,-3.38218 16.29631,-3.35078 l 5.4274,0.0634 -4.04767,3.37189 c -4.86443,4.05234 -3.57841,4.18275 7.82785,0.79546 10.06062,-2.98763 14.62228,-7.06352 10.69995,-9.54548 -1.5552,-0.98408 -3.75594,-1.48005 -6.90569,-1.47125 z m -20.17503,21.51253 c -7.03348,-0.059 -15.91381,0.58803 -17.66196,1.66835 -3.04478,1.88176 3.34709,5.86385 9.41174,5.86385 4.81899,0 4.9365,0.1662 2.24558,3.13959 -5.14938,5.68983 -3.50091,7.15207 8.04608,7.15207 11.56592,0 14.92096,1.92118 17.35925,9.91857 2.70292,8.86539 -17.32656,21.03999 -30.53005,18.563 -8.03531,-1.5074 -14.748,-6.8913 -12.0304,-9.65811 1.52571,-1.55331 3.45928,-1.54292 8.34878,0.0704 5.18178,1.71012 6.64206,1.67863 7.79266,-0.18303 3.54818,-5.741 -7.40725,-9.71641 -16.40894,-5.95536 -10.28589,4.29771 -7.55864,14.37674 5.15991,19.07688 8.65725,3.19929 23.6718,2.40719 32.2336,-1.70355 18.27479,-8.77436 13.89248,-35.27463 -5.8357,-35.27463 h -7.32102 l 5.01208,-5.23734 c 3.58484,-3.74172 4.41615,-5.59036 2.91433,-6.51852 -0.95716,-0.59155 -4.51582,-0.88676 -8.73594,-0.92217 z"
       transform="matrix(0.4286765,0,0,0.4286765,138.49257,381.49638)" />
    <path
       id="path3854"
       style="display:inline;fill:#2e2e2e;fill-opacity:1"
       d="m 676.62272,578.31668 -16.02176,4.14623 c -8.81345,2.28138 -16.09424,4.18166 -16.17664,4.22366 -0.0824,0.042 -3.58162,23.25316 -7.77858,51.57798 -4.19687,28.32473 -7.80419,52.2839 -8.01088,53.24631 -0.35379,1.64754 2.42904,1.75283 47.5303,1.75283 h 47.91042 l -0.0493,-2.25263 c -0.0242,-1.23741 -3.52755,-25.17539 -7.78562,-53.19704 l -7.73634,-50.95146 -15.94433,-4.27294 z m -0.33085,1.91473 15.00104,3.95616 c 8.25004,2.17664 15.18713,4.1493 15.41637,4.37853 0.41651,0.41651 15.35506,99.08141 15.36006,101.44536 0.002,0.98172 -9.76156,1.25302 -45.4959,1.25302 h -45.50293 l 0.0211,-2.25262 c 0.03,-3.53432 14.61578,-99.72252 15.21222,-100.31905 0.29333,-0.29333 7.16242,-2.31766 15.26151,-4.4982 z m 24.5606,30.64268 c -5.49993,0.0235 -13.61617,1.1941 -23.34278,3.48452 -20.76944,4.89067 -26.13788,5.41963 -27.77763,2.7665 -0.58337,-0.9439 -2.36003,-1.68413 -3.95616,-1.65427 -2.22878,0.0417 -1.79032,1.03362 1.90768,4.28702 5.82198,5.12179 7.36329,5.16788 22.65292,0.79546 12.61842,-3.6085 21.44213,-4.41583 21.44213,-1.97105 0,0.79966 -1.73389,2.30117 -3.85761,3.3367 -3.34855,1.63262 -3.06887,1.74981 2.13999,0.87289 7.63412,-1.28537 17.57352,-5.90386 18.43629,-8.567 0.72959,-2.25211 -2.14498,-3.3742 -7.64483,-3.35077 z m -16.95097,20.77338 c -0.54045,0.0232 -1.07475,0.0861 -1.54868,0.20415 -1.89558,0.47177 -7.25832,1.02094 -11.93185,1.21782 -10.53177,0.44365 -11.13036,3.20424 -1.21078,5.59635 6.51567,1.57125 7.10193,2.08313 4.70939,4.0688 -5.47205,4.54134 -3.23686,6.89671 6.28621,6.66635 12.15937,-0.29416 15.96144,1.22437 18.49261,7.33509 3.0942,7.47018 0.21481,12.30009 -10.54508,17.66196 -10.8464,5.40491 -19.24347,5.71461 -26.95401,1.01368 -9.01844,-5.49819 -4.78679,-9.71989 6.13839,-6.12432 4.45713,1.46688 7.36211,-2.99998 4.08287,-6.27918 -5.14917,-5.14911 -20.8297,0.33493 -20.8297,7.28582 0,4.12545 7.42047,10.49631 14.05072,12.0656 21.4435,5.07541 40.87099,-4.79138 40.87099,-20.75226 0,-9.56338 -5.64662,-15.39359 -16.0288,-16.5638 l -8.19391,-0.92921 4.78682,-4.99096 c 3.98255,-4.15682 4.36475,-5.25976 2.25966,-6.56076 -1.04359,-0.64491 -2.81348,-0.9845 -4.43485,-0.91513 z"
       transform="matrix(0.4286765,0,0,0.4286765,138.49257,381.49638)" />
    <path
       id="path3852"
       style="display:inline;fill:#010101;fill-opacity:1"
       d="m 676.15108,578.47155 -15.73315,4.22366 c -8.65253,2.32323 -15.86221,4.63901 -16.02176,5.14583 -0.53729,1.70674 -15.32486,101.59924 -15.32486,103.522 0,1.84371 1.47719,1.90065 47.50213,1.90065 36.27481,0 47.50214,-0.28742 47.50214,-1.20375 0,-1.39639 -14.82447,-100.31915 -15.47973,-103.29673 -0.36722,-1.66877 -3.09127,-2.68653 -16.44413,-6.14543 z m 0.51388,1.62611 14.78986,3.9984 c 8.13387,2.20145 15.0262,4.24179 15.31782,4.5334 0.55526,0.55527 15.30374,97.74228 15.30374,100.84701 0,1.68823 -2.51717,1.78801 -46.07313,1.78801 -43.3996,0 -46.03628,-0.10415 -45.55925,-1.75282 0.27848,-0.96242 3.76229,-23.79755 7.73634,-50.74731 4.59383,-31.1522 7.69601,-49.39456 8.52476,-50.08562 0.71695,-0.59776 7.75437,-2.77507 15.6346,-4.83609 z m 22.0968,30.38222 c -4.20945,0.0848 -10.37328,1.39225 -20.71003,4.06879 -17.93782,4.64466 -24.284,5.18901 -29.28407,2.51308 -4.67648,-2.50279 -4.27463,0.90781 0.4998,4.25183 4.88306,3.42017 6.75564,3.34787 19.92865,-0.78138 5.98347,-1.87563 14.08641,-3.38081 18.01393,-3.35078 6.65154,0.0508 6.91842,0.22944 3.81537,2.57644 -3.2977,2.49394 -3.2977,2.51512 0,2.47788 1.83226,-0.0208 6.81136,-1.62116 11.05896,-3.55491 7.31097,-3.32859 7.5392,-3.6474 4.38557,-5.96945 -1.71922,-1.26584 -3.48339,-2.01599 -6.01872,-2.1963 -0.52812,-0.0376 -1.08811,-0.0474 -1.68946,-0.0352 z m -17.0988,22.49101 c -1.72115,0.005 -3.65815,0.061 -5.75826,0.1619 -7.78719,0.37413 -14.16335,1.30559 -14.16335,2.07664 0,1.80884 9.64208,4.46146 12.44572,3.42117 2.97094,-1.10234 2.69898,1.64728 -0.42236,4.23774 -5.16205,4.28414 -2.7807,6.00464 8.31358,6.00464 12.21715,0 15.78214,1.96875 17.46484,9.62995 1.50033,6.83073 -2.23876,12.22237 -11.64323,16.77499 -9.38725,4.54422 -19.34824,4.62802 -26.58092,0.21822 -9.10864,-5.55363 -5.62872,-10.74986 4.77274,-7.12391 4.31604,1.50457 5.43871,1.34972 6.28622,-0.85881 2.18514,-5.69435 -11.00967,-7.96163 -17.96465,-3.09032 -4.85967,3.40381 -4.81936,6.26299 0.19006,12.08672 2.67881,3.11427 6.5284,5.10241 11.58692,5.9624 9.42915,1.60295 21.4514,0.3255 27.78467,-2.94952 5.64335,-2.9183 11.51498,-11.8076 11.52356,-17.43669 0.0172,-10.3509 -8.62248,-17.48307 -21.25911,-17.52821 l -5.32885,-0.0141 5.58227,-4.39261 c 3.06763,-2.41769 5.5682,-5.14522 5.5682,-6.05392 0,-0.7354 -3.23468,-1.13951 -8.39805,-1.12631 z"
       transform="matrix(0.4286765,0,0,0.4286765,138.49257,381.49638)" />
  </g>
</svg>
