<?xml version="1.0" encoding="UTF-8" standalone="no"?>
<!-- Created with Inkscape (http://www.inkscape.org/) -->

<svg
   viewBox="0 0 35.349998 38.720001"
   id="svg5000"
   version="1.1"
   inkscape:version="1.3.2 (091e20e, 2023-11-25, custom)"
   sodipodi:docname="Narikyo.svg"
   xmlns:inkscape="http://www.inkscape.org/namespaces/inkscape"
   xmlns:sodipodi="http://sodipodi.sourceforge.net/DTD/sodipodi-0.dtd"
   xmlns="http://www.w3.org/2000/svg"
   xmlns:svg="http://www.w3.org/2000/svg"
   xmlns:rdf="http://www.w3.org/1999/02/22-rdf-syntax-ns#"
   xmlns:cc="http://creativecommons.org/ns#"
   xmlns:dc="http://purl.org/dc/elements/1.1/">
  <defs
     id="defs5002" />
  <sodipodi:namedview
     id="base"
     pagecolor="#ffffff"
     bordercolor="#666666"
     borderopacity="1.0"
     inkscape:pageopacity="0.0"
     inkscape:pageshadow="2"
     inkscape:zoom="14.178719"
     inkscape:cx="17.702587"
     inkscape:cy="19.36"
     inkscape:document-units="px"
     inkscape:current-layer="layer1"
     showgrid="false"
     fit-margin-top="0"
     fit-margin-left="0"
     fit-margin-right="0"
     fit-margin-bottom="0"
     inkscape:window-width="1292"
     inkscape:window-height="745"
     inkscape:window-x="-8"
     inkscape:window-y="-8"
     inkscape:window-maximized="1"
     inkscape:showpageshadow="0"
     inkscape:pagecheckerboard="1"
     inkscape:deskcolor="#d1d1d1" />
  <metadata
     id="metadata5005">
    <rdf:RDF>
      <cc:Work
         rdf:about="">
        <dc:format>image/svg+xml</dc:format>
        <dc:type
           rdf:resource="http://purl.org/dc/dcmitype/StillImage" />
      </cc:Work>
    </rdf:RDF>
  </metadata>
  <g
     inkscape:label="Layer 1"
     inkscape:groupmode="layer"
     id="layer1"
     transform="matrix(0.54676851,0,0,0.54676851,-411.7319,-411.37918)"
     style="display:inline">
    <path
       inkscape:connector-curvature="0"
       id="path5045"
       d="m 781.10046,714.71869 -15.15229,97.47972 86.87312,-0.75761 -15.15229,-95.96449 -27.52666,-8.08122 z"
       style="display:inline;fill:#ffffff;fill-opacity:1;stroke:none"
       transform="matrix(0.46753463,0,0,0.46753463,406.9747,432.78293)" />
    <path
       id="path5033"
       style="fill:#d1d1d1;fill-opacity:1"
       d="M 809.1504 705.84924 L 794.73307 709.74581 C 786.80229 711.89229 779.97714 714.02457 779.57463 714.47518 C 778.99746 715.12131 764.53436 809.1129 764.56136 812.04234 C 764.56536 812.45484 784.75946 812.79109 809.43309 812.79109 L 854.29717 812.79109 L 853.91515 810.53719 C 853.70482 809.29974 850.38987 787.17732 846.54987 761.3716 C 842.70981 735.56583 839.39592 714.28159 839.18458 714.07024 C 838.97323 713.8589 832.12562 711.91596 823.97266 709.76109 L 809.1504 705.84924 z M 809.43309 708.99706 L 823.04054 712.62622 C 834.26731 715.61946 836.72974 716.60756 837.09876 718.27243 C 837.60287 720.54672 850.56869 807.9477 850.56869 809.07025 C 850.56869 809.46741 831.93904 809.78844 809.16568 809.78844 C 770.25294 809.78844 767.77956 809.68342 768.13704 808.0388 C 768.34626 807.0763 771.50006 786.03745 775.14324 761.28755 C 778.78638 736.5377 781.83662 716.25404 781.92022 716.20954 C 782.00382 716.16514 788.2247 714.52603 795.74924 712.5651 L 809.43309 708.99706 z M 804.81832 718.06614 C 804.02035 718.08053 803.30703 718.1824 802.79363 718.3794 C 800.44774 719.27958 800.46256 719.44612 802.98464 721.32093 C 805.58738 723.25567 805.55846 723.49405 801.84623 730.18372 C 797.63832 737.76647 798.39661 740.34538 804.8336 740.34538 C 808.20257 740.34538 808.07124 740.62656 802.08308 746.83203 C 797.32061 751.7673 796.66191 752.93357 799.33256 751.66836 C 802.32895 750.24882 802.14969 750.64621 798.14066 754.40361 C 795.55423 756.82769 792.56837 758.4834 791.49357 758.07097 C 790.41876 757.6586 788.89396 758.51417 788.1089 759.98106 C 784.90162 765.97371 787.24707 765.69024 798.9047 758.65928 C 803.99734 755.58789 808.71507 753.4046 809.37961 753.8153 C 810.04414 754.226 810.57914 758.61135 810.57914 763.55674 L 810.57914 772.54942 L 807.13334 769.10362 C 802.95906 764.92933 801.90403 764.83939 798.66021 768.42363 C 794.80291 772.6859 796.43753 782.64497 802.15184 789.75547 C 806.84111 795.59063 806.53029 798.23612 801.13568 798.63354 C 796.73801 798.95752 797.07658 801.28353 801.99904 804.60065 C 805.07259 806.67188 808.86332 807.82487 812.61911 807.82487 C 818.99253 807.82487 821.82572 805.9484 821.82572 801.72788 C 821.82572 799.24612 821.07031 799.07008 813.32966 799.77195 C 806.1203 800.42568 805.07409 800.24508 806.46864 798.56478 C 807.37316 797.47491 809.13724 796.55677 810.39577 796.53245 C 811.65432 796.50813 813.87229 794.87439 815.30851 792.90329 C 817.6313 789.71557 817.71984 788.63378 816.16423 783.07781 C 814.52802 777.23393 814.77467 769.67777 816.95882 759.20174 C 817.60421 756.10626 817.19875 754.19273 815.53008 752.52408 C 813.34864 750.34267 813.53658 750.18614 818.21948 750.18614 C 823.60722 750.18614 824.75957 752.00456 820.78663 754.22788 C 816.76526 756.47831 819.48094 757.24397 825.22567 755.48089 C 831.86206 753.44415 833.1435 750.55761 828.93888 747.15292 C 824.72239 743.73867 816.21909 743.82142 808.7531 747.35157 L 802.84711 750.1403 L 807.76749 745.90755 C 810.47394 743.57647 814.40817 740.74107 816.50804 739.59662 C 822.40154 736.38465 820.18689 732.93526 812.61911 733.53783 C 806.43119 734.03053 805.97121 732.88198 810.92295 729.31273 C 814.79094 726.52469 813.66711 720.35033 808.98995 718.71557 C 807.97194 718.35976 806.75797 718.14281 805.63584 718.08142 C 805.3553 718.06606 805.08431 718.06135 804.81832 718.06614 z M 801.95319 772.6793 C 804.30284 772.6793 810.57914 783.90674 810.57914 788.11279 C 810.57914 790.44914 810.05594 792.36082 809.40253 792.36082 C 807.91609 792.36082 804.41654 788.41224 802.32757 784.36903 C 800.45856 780.75156 800.19791 772.6793 801.95319 772.6793 z "
       transform="matrix(0.46753463,0,0,0.46753463,406.9747,432.78293)" />
    <path
       id="path5031"
       style="fill:#b0b0b0;fill-opacity:1"
       d="M 809.39489 706.04789 L 794.80947 709.89098 C 786.78824 712.00397 779.93862 714.08529 779.58227 714.51338 C 779.22591 714.94147 775.87956 735.9877 772.14822 761.28755 C 768.41693 786.58745 765.13071 808.52807 764.84406 810.04057 L 764.32451 812.79109 L 808.94411 812.79109 C 852.24735 812.79109 853.57134 812.73229 853.57134 810.87337 C 853.57134 808.99518 839.55911 714.4346 839.23806 714.14665 C 839.14816 714.06595 832.393 712.20628 824.23243 710.02086 L 809.39489 706.04789 z M 809.23444 708.83661 L 823.11694 712.5651 L 837.00708 716.29358 L 843.74586 761.28755 C 847.45262 786.03745 850.50748 807.0763 850.53048 808.0388 C 850.56958 809.67808 847.93848 809.78844 808.98995 809.78844 L 767.41121 809.78844 L 767.98424 807.03792 C 768.29987 805.52542 771.4932 784.52038 775.08211 760.35543 C 778.67107 736.19052 781.7172 716.33944 781.84382 716.24774 C 781.97043 716.15604 788.18114 714.45131 795.64991 712.45813 L 809.23444 708.83661 z M 806.36931 717.85221 C 801.78178 717.85221 799.43064 720.24848 802.76307 721.52722 C 805.83801 722.70719 805.52147 724.80892 801.33433 730.97068 C 797.17371 737.09348 797.67612 740.34538 802.80127 740.34538 C 807.53825 740.34538 807.31366 741.36166 801.1586 747.66483 C 798.29529 750.59714 796.57816 752.99778 797.35371 752.99778 C 798.12926 752.99778 799.38175 752.531 800.12715 751.95106 C 800.87256 751.37111 799.57735 752.60795 797.24674 754.71686 C 794.91614 756.82575 792.26609 758.29475 791.35604 757.97165 C 789.15779 757.19116 786.3293 760.73001 786.917 763.52617 C 787.28997 765.30064 789.50677 764.4789 797.86561 759.46915 C 803.62943 756.01474 808.84799 753.50357 809.46365 753.88406 C 810.07931 754.26456 810.57914 758.73169 810.57914 763.81651 L 810.57914 773.05368 L 807.66817 769.34811 C 804.27745 765.03766 802.62949 764.77488 799.09571 767.97285 C 794.61345 772.02916 795.6557 781.17097 801.47949 788.80042 C 806.97885 796.00485 806.80321 797.98411 800.65434 797.98411 C 794.47124 797.98411 795.49829 801.5025 802.84711 805.49457 C 805.48626 806.92821 809.69511 807.65665 814.0937 807.4505 C 820.56362 807.14725 821.15957 806.82555 821.55831 803.37819 C 822.09133 798.76981 818.88153 797.4165 812.05372 799.37466 C 809.41623 800.13107 806.94902 800.44332 806.5756 800.06993 C 805.65764 799.15199 807.09513 797.83366 809.40253 797.47985 C 812.77135 796.96326 817.61589 791.8158 817.61589 788.74694 C 817.61589 787.10104 816.90792 783.73675 816.04962 781.27469 C 814.89344 777.95825 814.92064 773.8283 816.16423 765.32165 C 817.70219 754.80363 817.6331 753.68404 815.34671 752.01218 C 813.13477 750.39479 813.44489 750.18614 818.04375 750.18614 C 823.58001 750.18614 824.80009 751.98188 820.78663 754.22788 C 816.71031 756.50907 819.88787 757.60376 825.34792 755.80179 C 831.51798 753.76552 832.87154 751.02494 829.51954 747.32101 C 826.71796 744.22543 817.73795 743.57154 811.02228 745.97631 L 807.06458 747.38977 L 810.62498 744.22667 C 812.58339 742.48062 815.75387 739.95862 817.66174 738.6263 C 821.01011 736.28803 821.03664 736.13104 818.49453 734.12614 C 816.81041 732.79809 814.26887 732.32609 811.45778 732.83492 L 807.06458 733.6448 L 810.93823 729.90867 C 815.43951 725.56109 815.51694 725.11747 812.61147 720.96947 C 811.20999 718.96862 808.96598 717.85221 806.36931 717.85221 z M 801.86915 774.08513 C 802.69094 774.08513 804.71534 775.97529 806.36167 778.28731 C 808.43918 781.20487 809.20934 784.11534 808.9059 787.78426 L 808.47805 793.06373 L 805.22326 788.51009 C 801.63066 783.47331 799.44869 774.08513 801.86915 774.08513 z "
       transform="matrix(0.46753463,0,0,0.46753463,406.9747,432.78293)" />
    <path
       id="path5029"
       style="fill:#909090;fill-opacity:1"
       d="M 809.265 706.17777 L 794.67195 710.06671 C 786.64711 712.20307 779.89896 714.13558 779.67396 714.36058 C 779.44896 714.58558 776.19829 735.36213 772.45384 760.53116 C 768.70934 785.70024 765.38608 807.75645 765.06563 809.54395 L 764.47732 812.79109 L 809.02815 812.79109 C 847.65372 812.79109 853.57134 812.59755 853.57134 811.31651 C 853.57134 810.50396 850.42274 788.79253 846.57279 763.07539 C 842.72279 737.35831 839.57423 715.81952 839.57423 715.20866 C 839.57423 714.59774 832.75085 712.31286 824.4158 710.13547 L 809.265 706.17777 z M 809.52477 708.72201 L 822.79604 712.31297 C 830.09545 714.28867 836.35623 716.21784 836.70147 716.5992 C 837.36943 717.33705 850.56869 804.91925 850.56869 808.61183 L 850.56869 810.78933 L 809.07399 810.78933 C 786.24909 810.78933 767.57166 810.57439 767.57166 810.30798 C 767.57166 809.65925 780.38929 723.14157 781.07214 719.18163 C 781.6032 716.102 781.73474 716.04057 795.56587 712.39701 L 809.52477 708.72201 z M 805.56707 717.85221 C 801.71269 717.85221 801.16674 719.49802 804.19181 722.00856 C 805.94191 723.46099 805.65118 724.63192 802.16712 730.22957 C 797.65435 737.47987 798.37503 740.34538 804.719 740.34538 C 808.25399 740.34538 808.17801 740.52378 802.08308 746.92371 C 797.06801 752.18987 796.64093 753.00264 799.90558 750.97309 C 802.14974 749.578 806.69641 746.36151 810.01375 743.82937 C 813.33101 741.29724 816.83451 738.96825 817.79162 738.64922 C 818.84593 738.2978 819.13502 737.05866 818.54037 735.50904 C 817.74413 733.43414 816.51103 733.08915 811.96968 733.69828 C 805.5511 734.55917 804.82152 733.24091 809.88387 729.92395 C 815.95031 725.94914 813.05445 717.85221 805.56707 717.85221 z M 821.22977 744.73093 C 814.2386 744.61452 804.93624 748.32057 798.36987 754.66338 C 795.63237 757.30759 793.04831 758.66659 791.71514 758.15501 C 790.39381 757.64795 788.97404 758.36456 788.1089 759.98106 C 784.87611 766.02141 787.27439 765.6979 798.63729 758.52175 C 803.62564 755.37138 808.35053 753.18816 809.14275 753.67777 C 809.93498 754.16739 810.55659 759.11947 810.52566 764.67987 C 810.47237 774.24736 810.35738 774.59119 808.45512 771.09011 C 807.34953 769.05535 805.33239 766.96278 803.9626 766.43714 C 800.60326 765.14804 796.52091 770.32603 796.52091 775.88061 C 796.52091 780.84999 802.38809 791.61252 805.81157 792.92621 C 807.96318 793.75185 807.95372 794.04766 805.63584 796.60885 C 804.25083 798.13924 801.55375 799.38994 799.64581 799.38994 C 796.57866 799.38994 796.40458 799.65761 798.1101 801.7126 C 799.17107 802.99096 801.93283 804.87309 804.25294 805.88423 C 813.38593 809.8645 823.49618 807.157 821.26034 801.33058 C 820.51812 799.39642 819.05835 799.16438 812.45866 799.94004 C 805.47236 800.76106 804.76565 800.62066 806.33875 798.72523 C 807.31784 797.54552 808.87704 796.57829 809.80746 796.57829 C 810.73789 796.57829 812.9513 795.03164 814.73548 793.1325 C 817.82958 789.83897 817.88734 789.39603 815.98086 783.60499 C 814.31474 778.54421 814.27103 775.66659 815.71345 766.33782 C 817.19905 756.72965 817.15348 754.81694 815.36199 752.83734 C 813.48635 750.7648 813.62946 750.47134 816.76017 749.87288 C 822.26722 748.82023 824.33836 750.84813 821.24506 754.26608 C 818.69969 757.07862 818.72377 757.10438 822.712 755.90875 C 832.73104 752.90513 833.42753 751.93939 828.86248 747.37449 C 827.11242 745.6244 824.40762 744.78384 821.22977 744.73093 z M 801.95319 772.6793 C 804.44169 772.6793 810.57914 783.48685 810.57914 787.8683 C 810.57914 790.33982 810.05594 792.36082 809.40253 792.36082 C 807.91609 792.36082 804.41654 788.41224 802.32757 784.36903 C 800.46087 780.75599 800.2014 772.6793 801.95319 772.6793 z "
       transform="matrix(0.46753463,0,0,0.46753463,406.9747,432.78293)" />
    <path
       id="path5027"
       style="fill:#707070;fill-opacity:1"
       d="M 809.20388 706.77372 C 807.43198 706.79132 780.41031 713.68506 779.76564 714.28417 C 779.59825 714.43974 776.35075 735.42929 772.54552 760.92846 C 768.7403 786.42759 765.40288 808.52807 765.12675 810.04057 L 764.62249 812.79109 L 809.09691 812.79109 C 838.49695 812.79109 853.57134 812.44541 853.57134 811.77493 C 853.57134 810.16712 839.55913 716.41395 839.13873 715.20866 C 838.75386 714.10507 812.61623 706.73992 809.20388 706.77372 z M 809.04343 708.6074 L 823.30795 712.33589 C 834.16934 715.17655 837.58053 716.44888 837.60303 717.67649 C 837.61933 718.56323 840.68236 739.66406 844.41057 764.56526 C 848.13877 789.46651 850.975 810.05447 850.71385 810.31562 C 850.4527 810.57677 831.63914 810.78933 808.9059 810.78933 C 776.49498 810.78933 767.57828 810.52413 767.59458 809.54395 C 767.63548 807.09542 781.34715 716.68328 781.73685 716.29358 C 781.9552 716.07523 788.18982 714.25654 795.58879 712.25184 L 809.04343 708.6074 z M 806.1019 717.95154 C 805.14266 717.93593 804.20499 718.1494 803.4125 718.63917 C 802.17223 719.40568 802.40188 720.18143 804.25294 721.53486 C 806.65858 723.29389 806.59457 723.68585 802.977 729.15228 C 798.33862 736.16124 798.69157 739.38239 804.20709 740.33774 L 808.34816 741.05593 L 802.92352 746.32013 C 795.92646 753.11571 798.17772 753.11674 806.69021 746.32013 C 810.322 743.42041 814.68901 740.04797 816.39344 738.83259 C 820.99532 735.55117 818.5372 732.81779 811.80159 733.7212 C 805.43723 734.57485 804.89896 733.21636 810.09016 729.43497 C 813.08568 727.25294 813.62856 725.99635 812.87888 723.00944 C 812.14936 720.1029 808.9796 717.99816 806.1019 717.95154 z M 821.24506 744.63925 C 820.78847 744.6266 820.32895 744.63063 819.85451 744.65453 C 813.52862 744.95793 805.69834 748.38049 798.88178 754.3654 C 796.03049 756.86883 792.86502 758.5999 791.84502 758.2085 C 789.95227 757.4822 785.86867 762.50081 787.2379 763.86999 C 787.65255 764.28464 792.44855 761.97193 797.89617 758.73568 C 803.34378 755.49936 808.43212 753.2361 809.19624 753.70834 C 809.96034 754.18057 810.53976 759.11947 810.48745 764.67987 C 810.41449 772.42777 810.06243 774.11513 808.98995 771.90763 C 808.22026 770.32344 806.25564 768.18177 804.61203 767.15534 C 801.97628 765.50927 801.31148 765.66493 799.06514 768.43891 C 794.55524 774.00831 796.82476 784.15953 804.06957 790.84039 C 807.53402 794.03517 807.62516 794.42124 805.44483 796.83042 C 804.16623 798.24323 801.90098 799.39758 800.40984 799.39758 C 796.39209 799.39758 798.09338 802.54889 803.63407 805.36468 C 812.73982 809.99209 823.62843 807.5016 821.26034 801.33058 C 820.51812 799.39642 819.05835 799.16438 812.45866 799.94004 C 805.47236 800.76106 804.76565 800.62066 806.33875 798.72523 C 807.31784 797.54552 808.7944 796.57829 809.61646 796.57829 C 810.43853 796.57829 812.53396 795.2356 814.2847 793.59092 C 816.76429 791.2616 817.28444 789.63057 816.63793 786.21035 C 816.18145 783.79544 815.28744 781.14706 814.6438 780.31964 C 814.00014 779.49223 814.33081 773.47514 815.38491 766.95669 C 817.03684 756.74096 817.02657 754.78965 815.28559 752.81442 C 813.48764 750.7743 813.6823 750.42025 817.05051 749.57491 C 821.77629 748.3889 824.40231 750.60718 821.8792 753.64721 C 820.35893 755.479 820.52148 755.80179 822.91065 755.80179 C 824.46615 755.80179 827.17478 754.64927 828.93124 753.22699 L 832.11726 750.63692 L 829.09169 747.59606 C 827.18004 745.68445 824.44119 744.73483 821.24506 744.64689 L 821.24506 744.63925 z M 802.09836 772.6793 C 804.6887 772.6793 810.57914 783.16344 810.57914 787.76898 C 810.57914 790.29588 810.05594 792.36082 809.40253 792.36082 C 807.91609 792.36082 804.41654 788.41224 802.32757 784.36903 C 800.38874 780.6164 800.23385 772.6793 802.09836 772.6793 z "
       transform="matrix(0.46753463,0,0,0.46753463,406.9747,432.78293)" />
    <path
       id="path5025"
       style="fill:#505050;fill-opacity:1"
       d="M 809.07399 706.43754 L 794.57262 710.28064 C 786.59767 712.3936 779.96126 714.19407 779.82677 714.28417 C 779.69222 714.37427 776.43788 735.56458 772.599 761.3716 C 768.76017 787.17857 765.44651 809.29974 765.23371 810.53719 L 764.8517 812.79109 L 809.3414 812.79109 L 853.83111 812.79109 L 853.22752 809.07025 C 852.89574 807.02574 849.63219 785.09276 845.9692 760.32487 C 842.30621 735.55704 839.02764 714.99026 838.68795 714.62035 C 838.34826 714.25044 831.54267 712.2543 823.56772 710.18895 L 809.07399 706.43754 z M 810.07488 708.51572 L 823.53716 712.206 C 830.94463 714.23472 837.09497 715.98579 837.19809 716.09494 C 837.30121 716.20404 840.38331 736.5377 844.05147 761.28755 C 847.71969 786.03745 850.96304 807.30557 851.25632 808.54307 L 851.79114 810.78933 L 809.67758 810.78933 C 770.22992 810.78933 767.57452 810.67912 767.60222 809.03969 C 767.70428 803.00438 781.40886 716.51204 782.35572 715.92685 C 782.98862 715.5357 789.48251 713.7039 796.78832 711.86219 L 810.07488 708.51572 z M 806.37695 717.85221 C 802.75805 717.85221 801.92705 719.4905 804.56619 721.42025 C 806.7576 723.02261 806.64445 723.60831 803.13745 728.90779 C 798.21375 736.34776 798.33103 738.59801 803.71811 739.99392 L 808.11131 741.13233 L 804.06957 746.00687 C 799.77175 751.2021 800.28405 750.95442 812.13013 742.00333 C 820.0224 736.03991 820.08586 733.9417 812.34406 734.28659 C 805.57097 734.5883 804.74554 733.03856 809.88387 729.67182 C 811.81704 728.40519 813.39842 726.38268 813.39842 725.1793 C 813.39842 722.17815 809.2484 717.85221 806.37695 717.85221 z M 821.81808 744.55521 C 815.47309 744.55521 805.53177 748.71968 799.46244 753.91462 C 796.26108 756.65482 792.78352 758.5715 791.73806 758.17029 C 790.63934 757.74869 789.18851 758.87725 788.29226 760.84441 C 787.43933 762.71635 787.2017 764.2448 787.76508 764.24437 C 788.32846 764.24393 792.90055 761.71323 797.92673 758.62107 C 802.95299 755.52892 807.86291 752.99822 808.8295 752.99778 C 810.07769 752.99722 810.57914 756.0147 810.57914 763.42685 L 810.57914 773.8712 L 806.18594 769.478 L 801.79275 765.07716 L 799.16447 768.33195 C 794.57583 773.99858 796.84543 783.99319 804.32934 791.02376 C 807.54593 794.04561 807.6227 794.4163 805.44483 796.82278 C 804.16623 798.23559 801.95115 799.38994 800.52445 799.38994 C 796.00958 799.38994 797.70743 802.23987 803.90148 805.05143 C 811.90419 808.68393 818.47714 808.66279 820.44282 804.99031 C 822.96492 800.27783 820.85245 799.01645 812.23709 800.09285 C 805.14827 800.97852 804.57127 800.85293 806.25471 798.82455 C 807.27981 797.58939 808.66401 796.57829 809.33376 796.57829 C 810.00351 796.57829 811.82015 795.49567 813.3755 794.16394 C 816.417 791.55978 817.09393 785.40876 814.81189 781.1448 C 813.88358 779.41026 813.96698 774.72852 815.05638 767.02545 C 816.29767 758.24832 816.30213 754.87093 815.04874 752.8679 C 813.62968 750.59568 813.89085 750.1062 817.01231 749.32278 C 821.79012 748.12364 824.3676 750.62645 821.69584 753.86878 C 819.88484 756.06653 820.0824 756.18531 823.9421 755.24404 C 826.26191 754.67827 829.00994 753.3924 830.04673 752.37892 C 831.61828 750.84272 831.39663 750.03158 828.72495 747.54258 C 826.9624 745.90055 823.85433 744.55521 821.81808 744.55521 z M 802.12892 772.6793 C 804.82851 772.6793 810.57914 782.60613 810.57914 787.26471 C 810.57914 793.70713 808.8763 794.56039 805.42191 789.84715 C 800.22844 782.76117 798.2952 772.6793 802.12892 772.6793 z "
       transform="matrix(0.46753463,0,0,0.46753463,406.9747,432.78293)" />
    <path
       id="path5023"
       style="fill:#2f2f2f;fill-opacity:1"
       d="M 809.35668 706.55215 L 795.21441 710.25771 C 787.43499 712.29609 780.74308 714.28229 780.33867 714.66619 C 779.6196 715.34879 765.56989 806.76865 765.56989 810.7664 C 765.56989 812.7691 766.05929 812.79109 809.68522 812.79109 L 853.79291 812.79109 L 853.2046 809.54395 C 852.8785 807.75645 849.68005 786.48829 846.09909 762.28844 C 842.51809 738.08854 839.37937 717.39358 839.12345 716.29358 C 838.73975 714.64445 836.08914 713.6084 824.01086 710.41816 L 809.35668 706.55215 z M 809.04343 708.43167 L 822.33762 711.82398 C 829.65084 713.68918 836.06342 715.47818 836.57922 715.79696 C 837.09501 716.11573 840.44725 736.15532 844.02855 760.33251 C 847.6099 784.50974 850.78645 805.75468 851.09587 807.54218 L 851.66125 810.78933 L 809.61646 810.78933 C 770.24194 810.78933 767.56802 810.67854 767.56402 809.03969 C 767.56102 808.07719 770.55289 787.03829 774.21111 762.28844 C 778.47288 733.45558 781.33661 716.90358 782.17999 716.20954 C 782.90393 715.61378 789.24335 713.61869 796.26878 711.77814 L 809.04343 708.43167 z M 804.93293 718.62389 C 803.02008 718.67661 802.30603 719.76178 804.45923 721.33621 C 806.67868 722.95908 806.57523 723.56702 803.0916 729.51137 C 798.69182 737.01883 798.42957 738.93309 801.79275 738.96248 C 803.14597 738.97372 805.19243 739.57473 806.33875 740.29954 C 808.07993 741.40048 807.73303 742.36994 804.23002 746.19788 C 801.92379 748.71802 800.99194 750.10091 802.15184 749.2693 C 812.34323 741.96169 818.31116 736.90091 818.31116 735.58545 C 818.31116 734.59589 815.71668 734.13756 811.28969 734.33243 L 804.25294 734.6304 L 808.95939 730.60394 C 814.29969 726.01846 814.41497 722.30694 809.31084 719.7623 C 807.65381 718.93618 806.08068 718.59227 804.93293 718.62389 z M 820.10664 744.82262 C 814.12758 744.93312 806.60024 748.32107 799.22559 754.49529 C 795.45527 757.65199 791.74953 759.85787 790.99694 759.39275 C 790.24434 758.92763 788.94817 759.81871 788.1089 761.38688 C 786.0064 765.31534 786.93518 765.05559 797.76629 758.62107 C 802.97264 755.52805 807.98429 752.99778 808.9059 752.99778 C 810.05649 752.99778 810.57914 756.36201 810.57914 763.73246 L 810.57914 774.4595 L 807.66817 770.75394 C 801.02094 762.30341 794.19225 770.38738 798.48448 781.62614 C 799.76351 784.97517 802.371 789.18884 804.2835 790.98556 C 807.54185 794.04656 807.62312 794.41585 805.44483 796.82278 C 804.16623 798.23559 801.95115 799.38994 800.52445 799.38994 C 794.63934 799.38994 799.20947 803.92189 807.69109 806.49545 C 815.86903 808.97693 820.4199 807.57701 820.4199 802.59124 C 820.4199 799.12178 820.29422 799.08428 812.40518 800.06993 C 805.15908 800.97525 804.57037 800.85401 806.25471 798.82455 C 807.27981 797.58939 808.67053 796.57829 809.34904 796.57829 C 810.02764 796.57829 811.85188 795.31316 813.39842 793.76664 C 816.46784 790.69728 817.04002 785.2925 814.75077 781.01492 C 813.73122 779.10999 813.80004 774.63574 814.98762 766.14681 C 816.55361 754.95278 816.49559 753.87303 814.1701 752.17263 C 811.82999 750.46152 811.91068 750.2559 815.41547 749.37626 C 817.49293 748.85486 820.51009 749.0069 822.10841 749.72008 C 824.84492 750.9411 824.86603 751.16462 822.61268 753.418 C 819.83761 756.19302 821.55973 756.51723 826.68498 754.18204 C 831.09404 752.17315 831.2523 749.62585 827.1434 746.74798 C 825.22424 745.40377 822.82434 744.77241 820.10664 744.82262 z M 802.16712 773.10716 C 803.0403 773.16424 804.20966 774.29091 806.39987 776.84329 C 809.62556 780.60235 810.57914 783.08302 810.57914 787.73842 C 810.57914 791.05396 809.95853 793.76664 809.19624 793.76664 C 807.34847 793.76664 801.11355 784.12119 800.10423 779.70078 C 799.66283 777.76764 799.95784 775.24501 800.7613 774.08513 C 801.2209 773.42164 801.64321 773.0729 802.16712 773.10716 z M 813.39842 786.73753 C 814.17169 786.73753 814.80425 787.33169 814.80425 788.05931 C 814.80425 788.78693 814.17169 789.77419 813.39842 790.25209 C 812.62515 790.72999 811.98496 790.13583 811.98496 788.93031 C 811.98496 787.72479 812.62515 786.73753 813.39842 786.73753 z "
       transform="matrix(0.46753463,0,0,0.46753463,406.9747,432.78293)" />
    <path
       id="path5021"
       style="fill:#050505;fill-opacity:1"
       d="M 809.25736 706.66675 L 795.16857 710.37996 C 787.41702 712.42372 780.76913 714.36811 780.39979 714.69675 C 779.84024 715.19465 765.56989 807.64646 765.56989 810.77404 C 765.56989 811.44948 780.39133 811.79021 809.59353 811.79021 L 853.60954 811.79021 L 853.09 809.54395 C 852.80541 808.30645 849.63292 787.2676 846.03796 762.7927 C 842.44306 738.31785 839.11331 717.36474 838.64211 716.23246 C 837.95704 714.58629 834.9282 713.42055 823.52188 710.41816 L 809.25736 706.66675 z M 809.29556 708.16426 L 822.94885 711.83162 C 830.45902 713.84491 836.8491 715.7383 837.15225 716.04145 C 837.5899 716.4791 851.49149 807.21182 851.55429 810.04057 C 851.56329 810.45307 832.51583 810.78933 809.2268 810.78933 L 766.88403 810.78933 L 769.68803 792.03993 C 771.23163 781.72748 774.38705 760.46696 776.69423 744.79206 C 779.00136 729.11711 780.98551 716.15363 781.11034 715.98797 C 781.23518 715.82232 787.62689 713.99919 795.31374 711.93095 L 809.29556 708.16426 z M 805.96437 719.29624 C 802.2132 719.33167 801.85951 719.58914 803.90148 720.77846 C 807.17019 722.68228 807.01483 724.06578 802.84711 730.19901 C 798.42849 736.70144 798.41395 738.93956 802.77071 738.93956 C 808.03652 738.93956 808.4873 741.53049 804.06193 746.37361 L 800.03547 750.77444 L 804.96349 746.90843 C 807.66986 744.77977 811.93202 741.72913 814.44515 740.13909 C 816.95821 738.54898 819.01408 736.7497 819.01408 736.13555 C 819.01408 734.1974 815.14388 733.43551 809.60118 734.27895 L 804.25294 735.09646 L 808.95939 730.13024 C 812.9938 725.87445 813.42245 724.75793 812.06137 722.21485 C 810.94406 720.12718 809.14966 719.26615 805.96437 719.29624 z M 820.80956 744.92958 C 819.19415 744.98104 817.22709 745.50417 814.03257 746.51113 C 809.98935 747.78564 803.45309 751.39109 799.51592 754.52585 C 795.57883 757.6606 791.74567 759.8402 790.99694 759.37747 C 790.24824 758.91475 788.92412 759.8544 788.06305 761.46328 L 786.49678 764.39717 L 791.86794 761.57025 C 794.8167 760.0213 799.12148 757.46545 801.44129 755.88583 C 806.62155 752.35831 810.52804 752.1798 810.73195 755.45797 C 811.26109 763.96445 811.17324 775.49034 810.57914 775.48331 C 810.1925 775.47909 808.77381 773.53868 807.42368 771.16652 C 804.58382 766.17676 800.93553 766.12053 798.48448 771.03663 C 796.18739 775.64397 798.14776 782.79912 803.75631 790.24445 C 806.34718 793.68374 808.94482 796.50855 809.52477 796.53245 C 810.10472 796.55635 811.85188 795.31316 813.39842 793.76664 C 816.50242 790.66271 817.03205 785.29031 814.67436 780.88503 C 813.56064 778.80406 813.61365 774.74263 814.85773 765.97872 C 816.39446 755.15301 816.32428 753.74894 814.23122 752.21847 C 812.1038 750.66294 812.10108 750.44514 814.1701 749.65131 C 820.65584 747.16251 826.45778 749.81007 823.17806 753.76182 C 821.11955 756.24223 821.95248 756.33207 826.73846 754.15148 C 831.32336 752.06246 830.7785 748.69952 825.44724 746.1444 C 823.67615 745.29555 822.42495 744.87814 820.80956 744.92958 z M 801.98375 771.27348 C 804.78751 771.27348 810.57914 782.61961 810.57914 788.11279 C 810.57914 791.22239 809.99743 793.76664 809.28028 793.76664 C 807.49178 793.76664 802.90859 787.7511 800.77658 782.60411 C 799.00832 778.3353 799.75939 771.27348 801.98375 771.27348 z M 813.39842 786.73753 C 814.17169 786.73753 814.80425 787.68638 814.80425 788.84627 C 814.80425 790.00615 814.17169 790.96264 813.39842 790.96264 C 812.62515 790.96264 811.98496 790.00615 811.98496 788.84627 C 811.98496 787.68638 812.62515 786.73753 813.39842 786.73753 z M 802.40397 799.90948 C 797.9036 799.95826 798.38801 800.47776 800.44805 802.53776 C 801.9677 804.05739 805.34449 805.80352 807.95086 806.41905 C 817.09402 808.57828 821.08679 807.38788 820.19833 802.77461 C 819.76568 800.52807 818.19338 800.14406 808.69197 799.9706 C 805.95692 799.92069 803.90413 799.89303 802.40397 799.90948 z "
       transform="matrix(0.46753463,0,0,0.46753463,406.9747,432.78293)" />
  </g>
</svg>
