<?xml version="1.0" encoding="UTF-8" standalone="no"?>
<!-- Created with Inkscape (http://www.inkscape.org/) -->

<svg
   viewBox="0 0 35.349998 38.720001"
   id="svg3821"
   version="1.1"
   inkscape:version="1.3.2 (091e20e, 2023-11-25, custom)"
   sodipodi:docname="Narikei.svg"
   xmlns:inkscape="http://www.inkscape.org/namespaces/inkscape"
   xmlns:sodipodi="http://sodipodi.sourceforge.net/DTD/sodipodi-0.dtd"
   xmlns="http://www.w3.org/2000/svg"
   xmlns:svg="http://www.w3.org/2000/svg"
   xmlns:rdf="http://www.w3.org/1999/02/22-rdf-syntax-ns#"
   xmlns:cc="http://creativecommons.org/ns#"
   xmlns:dc="http://purl.org/dc/elements/1.1/">
  <defs
     id="defs3823" />
  <sodipodi:namedview
     id="base"
     pagecolor="#ffffff"
     bordercolor="#666666"
     borderopacity="1.0"
     inkscape:pageopacity="0.0"
     inkscape:pageshadow="2"
     inkscape:zoom="14.178719"
     inkscape:cx="17.702587"
     inkscape:cy="19.360001"
     inkscape:document-units="px"
     inkscape:current-layer="layer1"
     showgrid="false"
     fit-margin-top="0"
     fit-margin-left="0"
     fit-margin-right="0"
     fit-margin-bottom="0"
     inkscape:window-width="1292"
     inkscape:window-height="745"
     inkscape:window-x="-8"
     inkscape:window-y="-8"
     inkscape:window-maximized="1"
     inkscape:showpageshadow="0"
     inkscape:pagecheckerboard="1"
     inkscape:deskcolor="#d1d1d1" />
  <metadata
     id="metadata3826">
    <rdf:RDF>
      <cc:Work
         rdf:about="">
        <dc:format>image/svg+xml</dc:format>
        <dc:type
           rdf:resource="http://purl.org/dc/dcmitype/StillImage" />
      </cc:Work>
    </rdf:RDF>
  </metadata>
  <g
     inkscape:label="Layer 1"
     inkscape:groupmode="layer"
     id="layer1"
     transform="matrix(0.59281032,0,0,0.59281032,-363.23009,-285.47452)"
     style="display:inline">
    <path
       inkscape:connector-curvature="0"
       id="path3866"
       d="m 637.91133,441.47243 -14.64721,96.21703 86.36804,0.25254 -14.14213,-96.21703 -28.53681,-8.33376 z"
       style="display:inline;fill:#ffffff;fill-opacity:1;stroke:none"
       transform="matrix(0.46741798,0,0,0.46741798,330.9759,287.17852)" />
    <path
       id="path3854"
       style="fill:#cfcfcf;fill-opacity:1"
       d="M 666.42876 432.24622 L 651.80976 436.18644 C 643.77072 438.35082 636.95165 440.35871 636.65506 440.65531 C 636.28748 441.02289 622.15015 532.48483 621.45807 538.97055 C 621.44337 539.10805 641.73703 539.21725 666.55564 539.21725 L 711.6814 539.21725 L 711.15274 536.46826 C 710.865 534.95576 707.58214 513.01926 703.85734 487.71947 C 700.1326 462.41961 696.78796 441.36351 696.42097 440.93021 C 696.05397 440.49691 689.15418 438.36462 681.09005 436.19349 L 666.42876 432.24622 z M 666.42876 435.39699 L 680.18077 439.06936 L 693.92573 442.74878 L 700.63609 487.23311 C 704.32573 511.70077 707.36594 532.72847 707.38874 533.96597 L 707.43103 536.22155 L 666.42876 536.22155 L 625.42649 536.22155 L 625.48992 533.96597 C 625.52172 532.72847 628.57278 511.69711 632.27077 487.22606 L 638.98818 442.73468 L 652.71199 439.06936 L 666.42876 435.39699 z M 659.21794 455.76772 C 656.64056 455.61288 656.29952 456.83514 658.00557 459.56697 C 658.9318 461.05013 659.6902 463.1523 659.6902 464.24026 C 659.6902 467.04554 649.54103 479.64015 639.62961 489.13626 L 631.19937 497.20701 L 639.98205 492.70995 C 648.79326 488.19539 663.64288 473.95925 667.96537 465.8826 C 670.53175 461.08718 668.76185 457.98489 662.54493 456.37391 C 661.18239 456.02085 660.07707 455.81935 659.21794 455.76772 z M 670.17867 469.65366 C 670.0149 469.65782 669.89436 469.69121 669.83328 469.75234 C 669.34459 470.24103 672.95716 474.22382 677.86175 478.59845 C 682.76635 482.97303 688.65171 488.59964 690.94413 491.10989 C 695.4057 495.99543 698.94475 496.49861 699.7409 492.36456 C 700.41922 488.84228 688.56713 477.89649 678.64415 472.87491 C 674.82875 470.94408 671.32506 469.62548 670.17867 469.65366 z M 664.72297 480.55799 C 660.33354 480.60842 659.86336 482.17804 664.19432 484.11053 C 667.26021 485.47857 667.23103 485.54018 662.79868 487.83225 C 660.32008 489.11398 658.29456 490.45844 658.29456 490.82089 C 658.29456 491.18335 660.72906 491.47642 663.70091 491.47642 C 675.98166 491.47642 678.86048 481.52678 666.83758 480.63553 C 666.05306 480.57731 665.35003 480.55077 664.72297 480.55799 z M 653.4803 494.89504 C 651.95176 494.99994 650.18161 497.3831 650.94982 499.38506 C 651.64064 501.18532 653.47078 501.39295 662.09381 500.61154 C 671.50158 499.75903 672.38034 499.89559 671.94789 502.1411 C 671.62427 503.82157 669.61512 504.91622 665.6393 505.59496 C 656.32406 507.1852 653.89431 509.03255 654.38958 514.14503 C 654.73955 517.75767 655.65683 518.84361 659.37301 520.04479 C 664.81596 521.80408 663.81081 523.42817 657.2866 523.42817 C 651.70259 523.42817 652.36143 525.57037 658.80912 528.37635 C 664.01361 530.64128 674.09592 530.9406 677.83355 528.94025 C 683.47572 525.92063 678.90571 520.03538 672.06772 521.51797 C 668.78052 522.2307 668.78461 522.19758 672.55408 519.24124 C 677.84523 515.09151 679.75888 511.26629 677.74897 508.84441 C 676.56506 507.41796 676.56841 506.18471 677.76306 503.95262 C 679.06609 501.51787 678.89296 500.45781 676.81854 498.16564 C 674.56849 495.67936 673.21685 495.45539 665.02607 496.26249 C 658.86641 496.86946 655.44846 496.66684 654.81955 495.64925 C 654.46559 495.07653 653.98982 494.86007 653.4803 494.89504 z M 666.79529 509.53519 C 669.1713 509.53519 669.30792 509.92802 667.86669 512.66481 C 666.96127 514.38408 665.53556 516.24803 664.69478 516.80944 C 661.73405 518.78631 659.6902 517.48715 659.6902 513.62343 C 659.6902 511.07119 662.3537 509.53519 666.79529 509.53519 z "
       transform="matrix(0.46741798,0,0,0.46741798,330.9759,287.17852)" />
    <path
       id="path3852"
       style="fill:#afafaf;fill-opacity:1"
       d="M 666.37942 432.44358 L 651.65469 436.41905 C 643.55523 438.60861 636.78482 440.53741 636.61277 440.70466 C 636.44071 440.87191 633.19751 461.87262 629.40195 487.36703 C 625.60639 512.8615 622.26786 534.95576 621.98672 536.46826 L 621.47922 539.21725 L 666.49925 539.21725 L 711.51928 539.21725 L 710.93423 535.9678 C 710.61267 534.1803 707.28086 512.12452 703.5331 486.95116 C 699.78541 461.77773 696.52361 440.97646 696.27999 440.73285 C 696.03637 440.48923 689.21108 438.52889 681.1112 436.36971 L 666.37942 432.44358 z M 665.9283 435.26306 L 680.0257 438.94248 L 694.13014 442.62895 L 698.88801 474.67233 C 701.5049 492.29687 704.64904 513.3562 705.87327 521.46863 L 708.09361 536.22155 L 666.45695 536.22155 L 624.8203 536.22155 L 631.5659 491.46937 C 635.27619 466.85708 638.45194 445.82241 638.62165 444.72241 C 638.87759 443.06351 641.23252 442.08482 652.43005 438.99182 L 665.9283 435.26306 z M 659.07697 455.56331 C 656.66787 455.56609 656.55192 456.95932 658.29456 460.21545 C 660.92087 465.12278 658.79292 468.63705 643.70376 484.33609 C 632.0332 496.47846 631.5581 497.2019 636.53523 495.12765 C 643.60825 492.17991 650.98115 486.20141 660.38098 475.81422 C 671.4239 463.61139 671.95224 458.13395 662.27003 456.00738 C 660.94112 455.7155 659.88 455.56225 659.07697 455.56331 z M 668.70549 468.34965 C 668.265 468.36076 668.02189 468.53338 668.02176 468.88535 C 668.02144 469.46871 674.11162 475.6913 681.56231 482.72194 C 689.01295 489.75253 695.91407 495.54111 696.89323 495.57877 C 699.67151 495.68575 700.53383 491.6356 698.52853 487.88864 C 695.79568 482.78226 672.96349 468.23783 668.70549 468.34965 z M 666.44286 480.39587 C 663.63255 480.31612 661.0788 480.72164 661.0788 481.67873 C 661.0788 482.40491 662.10567 483.5794 663.36962 484.28675 C 665.38102 485.41241 665.20846 485.87263 661.98103 487.98732 C 659.95293 489.31619 658.29456 491.01494 658.29456 491.75837 C 658.29456 493.28324 668.65341 491.9138 672.53293 489.87637 C 675.33791 488.40325 675.72658 484.44953 673.30124 482.02412 C 672.31619 481.03908 669.25316 480.47561 666.44286 480.39587 z M 653.50145 495.05011 C 652.78353 495.0226 652.056 495.48227 651.23882 496.4669 C 648.52607 499.73556 653.30427 503.08241 658.99238 501.8944 C 671.59325 499.26259 672.49451 499.27486 671.96903 502.04242 C 671.63347 503.80982 670.10345 504.80987 667.31689 505.08041 C 656.29922 506.14999 650.89359 511.38333 654.74907 517.26761 C 655.96721 519.12673 657.89198 520.65098 659.02058 520.65098 C 660.14912 520.65098 661.0788 521.27543 661.0788 522.03958 C 661.0788 522.80372 659.19839 523.42817 656.90597 523.42817 C 651.48214 523.42817 651.61199 525.14677 657.25135 527.95343 C 662.58716 530.60899 676.47789 531.09241 678.86266 528.70764 C 683.24526 524.32503 678.61717 519.4632 671.84216 521.32766 C 669.03982 522.09887 669.1097 521.87241 672.55408 519.19895 C 677.90563 515.04512 679.58012 511.56047 677.79831 508.23118 C 676.83935 506.4394 676.82233 505.2512 677.74897 504.67863 C 680.19876 503.16453 679.23309 498.57666 676.12072 496.91097 C 674.20749 495.88703 670.08527 495.61216 664.80756 496.16381 C 659.8951 496.67726 655.80054 496.45981 654.79841 495.62811 C 654.35368 495.25902 653.9322 495.0666 653.50145 495.05011 z M 664.63134 509.53519 C 667.77962 509.53519 668.39833 512.37389 665.85781 515.18119 C 662.92921 518.41729 661.25857 518.59296 660.17656 515.77328 C 659.24178 513.33733 661.95576 509.53519 664.63134 509.53519 z "
       transform="matrix(0.46741798,0,0,0.46741798,330.9759,287.17852)" />
    <path
       id="path3850"
       style="fill:#8f8f8f;fill-opacity:1"
       d="M 666.42876 432.71848 L 651.69698 436.53888 C 643.59284 438.63886 636.84865 440.46877 636.71145 440.60597 C 636.57425 440.74317 633.31636 461.97741 629.47244 487.78995 C 625.62845 513.60257 622.30578 535.73122 622.09245 536.96872 L 621.70477 539.21725 L 666.54154 539.21725 L 711.3783 539.21725 L 710.8708 536.46826 C 710.58966 534.95576 707.25106 512.8615 703.45557 487.36703 C 699.66001 461.87262 696.40394 440.86385 696.2236 440.68351 C 696.04326 440.50317 689.26468 438.63886 681.16054 436.53888 L 666.42876 432.71848 z M 666.464 435.16438 L 680.19486 438.79446 C 687.7474 440.79204 694.0048 442.49276 694.0949 442.57256 C 694.185 442.65236 697.22699 462.74415 700.8546 487.21901 C 704.48214 511.69387 707.70257 532.95393 708.01607 534.46643 L 708.58702 537.22247 L 666.42876 537.22247 L 624.2705 537.22247 L 624.8344 534.46643 C 625.62941 530.60699 638.43133 445.17678 638.43133 443.72855 C 638.43133 443.04515 644.36991 440.98315 652.44414 438.8579 L 666.464 435.16438 z M 660.31754 456.74044 C 656.71167 456.74044 656.65703 456.85111 658.75978 460.06038 C 660.80651 463.18409 660.68504 463.75743 656.65926 470.12592 C 654.30967 473.84284 647.99127 481.10946 642.62531 486.26744 C 637.25927 491.42535 633.30931 495.64925 633.83558 495.64925 C 641.67599 495.64925 669.41036 469.26311 669.41036 461.80846 C 669.41036 459.07218 665.22566 456.74044 660.31754 456.74044 z M 669.91082 469.26598 C 669.25364 469.27431 674.65546 475.17009 681.91475 482.36951 C 689.17409 489.56887 696.04478 495.33246 697.18223 495.18404 C 701.50946 494.6194 700.21523 489.83623 694.17243 484.06119 C 688.72645 478.85652 672.93123 469.22666 669.91082 469.26598 z M 667.51426 480.36063 C 661.67139 480.36063 660.15539 481.85549 663.94762 483.88498 C 666.83606 485.43083 666.79597 485.53891 662.25593 488.44548 L 657.60379 491.42708 L 663.34848 491.45528 C 666.8656 491.46959 670.31612 490.48986 672.22279 488.94594 C 674.87709 486.7966 675.09205 485.98088 673.71006 483.39862 C 672.54522 481.22207 670.80259 480.36063 667.51426 480.36063 z M 653.00804 494.71882 C 652.57993 494.79579 652.27459 495.25214 651.94369 496.11447 C 650.2567 500.5107 652.67451 501.49573 662.74229 500.48466 C 672.35599 499.51918 672.42017 499.52715 671.92674 502.78253 C 671.62594 504.76717 670.64242 505.88624 669.4315 505.61611 C 665.98631 504.84755 658.47989 506.77008 656.25749 508.99244 C 651.89549 513.35449 655.11768 520.49643 661.50172 520.60869 C 666.30052 520.69302 662.27302 523.42817 657.35004 523.42817 C 653.10097 523.42817 652.64745 523.73529 654.13583 525.52868 C 655.08963 526.67794 657.8174 528.17054 660.20476 528.86271 C 670.30629 531.7915 680.52615 529.74092 680.52615 524.77447 C 680.52615 522.57118 675.74264 520.88799 671.47563 521.59551 L 667.32394 522.28628 L 671.39809 519.47385 C 676.79689 515.73974 679.41629 510.8624 677.36129 508.38625 C 676.22829 507.02106 676.29239 505.79557 677.5798 503.73411 C 679.04662 501.38541 678.92375 500.49183 676.81854 498.16564 C 674.61631 495.7322 673.23417 495.50905 665.54062 496.33298 C 659.52364 496.97734 656.14604 496.74873 654.77021 495.60696 C 653.9753 494.94723 653.43614 494.64178 653.00804 494.71882 z M 666.03403 509.53519 C 670.02012 509.53519 670.11886 509.94587 667.16887 514.44813 C 664.3781 518.7074 658.29456 519.05337 658.29456 514.95563 C 658.29456 512.70215 662.81875 509.53519 666.03403 509.53519 z "
       transform="matrix(0.46741798,0,0,0.46741798,330.9759,287.17852)" />
    <path
       id="path3848"
       style="fill:#6f6f6f;fill-opacity:1"
       d="M 666.42876 433.21894 C 664.82463 433.21894 637.81706 439.95138 636.76784 440.61302 C 636.45604 440.80964 622.43079 535.40093 622.43079 537.30705 C 622.43079 539.16582 623.7449 539.21725 666.78824 539.21725 L 711.15274 539.21725 L 710.76507 536.96872 C 710.55174 535.73122 707.22907 513.60257 703.38508 487.78995 C 699.54109 461.97741 696.28907 440.77751 696.16016 440.68351 C 695.25365 440.02276 668.15421 433.21894 666.42876 433.21894 z M 666.45695 435.00226 L 680.19486 438.69578 C 687.74879 440.72922 694.02835 442.49441 694.15129 442.61485 C 694.27422 442.73529 697.30279 462.60642 700.88279 486.77494 C 704.46286 510.94353 707.65026 532.17847 707.95968 533.96597 L 708.51653 537.22247 L 666.42876 537.22247 L 624.34099 537.22247 L 624.90488 533.96597 C 625.80259 528.80233 638.43133 444.1263 638.43133 443.27038 C 638.43133 442.84579 644.73564 440.81455 652.44414 438.75217 L 666.45695 435.00226 z M 660.31754 456.74044 C 656.65507 456.74044 656.62812 456.79662 658.88665 460.24364 C 661.11075 463.63806 661.02559 463.99176 656.11651 471.38764 C 653.32822 475.58833 646.89857 482.7625 641.83585 487.33179 C 632.3344 495.90724 631.77124 497.79822 640.2358 492.69585 C 652.25367 485.45166 669.41036 467.26047 669.41036 461.75911 C 669.41036 459.0727 665.18967 456.74044 660.31754 456.74044 z M 669.91082 469.29417 C 669.25364 469.3196 674.94476 475.26248 682.56323 482.49638 C 690.18175 489.73023 696.83716 495.64925 697.35139 495.64925 C 699.01618 495.64925 699.6453 492.24532 698.52853 489.24199 C 697.92983 487.63189 695.08665 484.38712 692.21994 482.02412 C 686.9457 477.67668 672.10872 469.20901 669.91082 469.29417 z M 667.35214 480.36063 C 661.76646 480.36063 659.76173 482.4642 664.20842 483.65942 C 667.27697 484.48426 667.2631 484.54617 663.15111 488.07895 L 658.99238 491.65969 L 665.08246 490.97597 C 672.82068 490.11394 675.85461 487.40631 673.66072 483.30698 C 672.53089 481.19587 670.74893 480.36063 667.35214 480.36063 z M 653.00804 494.71882 C 652.57809 494.7919 652.27736 495.2449 651.94369 496.11447 C 650.2567 500.5107 652.67451 501.49573 662.74229 500.48466 C 672.34992 499.51979 672.41526 499.52921 671.95494 502.78253 C 671.55739 505.59175 670.59205 506.12377 665.23753 506.50425 C 658.72759 506.96683 654.12173 509.85069 654.12173 513.46131 C 654.12173 516.86067 658.43896 520.65625 662.33347 520.67918 C 665.17142 520.69599 665.48939 520.97943 663.84894 522.03958 C 662.70272 522.78032 659.61274 523.39591 656.97646 523.40702 C 653.14628 523.42397 652.52909 523.78849 653.91027 525.17625 C 654.86086 526.13143 657.64225 527.67083 660.09198 528.60896 C 665.67407 530.74654 677.63395 530.0233 679.26444 527.44593 C 681.3364 524.17071 679.84521 522.75678 673.85809 522.31447 L 668.0993 521.8845 L 672.92766 517.65529 C 677.71247 513.45415 679.1115 509.15637 676.26874 507.39943 C 675.29434 506.79722 675.56604 505.61695 677.07229 503.95262 C 679.20722 501.59348 679.15922 501.23234 676.34628 498.41939 C 673.66767 495.74077 672.41399 495.5103 665.08246 496.36117 C 659.38859 497.02202 656.20088 496.79206 654.79841 495.62811 C 653.98564 494.95358 653.43797 494.64569 653.00804 494.71882 z M 665.28687 509.53519 C 669.97132 509.53519 670.30375 510.41449 667.24641 514.77942 C 665.01798 517.96097 660.49871 518.91648 659.01353 516.5134 C 657.30199 513.7441 661.08088 509.53519 665.28687 509.53519 z "
       transform="matrix(0.46741798,0,0,0.46741798,330.9759,287.17852)" />
    <path
       id="path3846"
       style="fill:#4e4e4e;fill-opacity:1"
       d="M 666.42876 432.9088 L 651.89434 436.70804 C 643.90232 438.7983 637.18509 440.79999 636.9652 441.15577 C 636.5125 441.88826 622.43079 535.46895 622.43079 537.74407 C 622.43079 539.0186 628.34804 539.21725 666.42876 539.21725 C 709.11614 539.21725 710.42673 539.16555 710.42673 537.30705 C 710.42673 535.39162 696.39858 440.80163 696.08968 440.63417 C 695.99978 440.58537 689.29411 438.82802 681.18168 436.72919 L 666.42876 432.9088 z M 665.9283 434.95292 L 679.27149 438.33629 C 686.60982 440.19727 693.04899 441.98437 693.58034 442.31176 C 694.1117 442.63916 697.44069 462.44432 700.97442 486.31678 C 704.50822 510.18918 707.66969 531.41006 708.00198 533.47256 L 708.60112 537.22247 L 666.51334 537.22247 C 643.3652 537.22247 624.42557 536.97182 624.42557 536.66562 C 624.42557 535.03062 638.53789 442.77615 638.83311 442.48093 C 639.02585 442.28819 645.20213 440.51482 652.55692 438.54071 L 665.9283 434.95292 z M 661.66384 456.74044 C 657.87512 456.74044 657.68758 457.17881 659.74659 461.02605 C 661.75462 464.7781 653.91659 476.37643 641.98388 487.31064 C 636.98146 491.89452 633.33737 495.64925 633.88492 495.64925 C 636.56307 495.64925 648.26376 487.48735 654.43188 481.31925 C 661.49352 474.25752 669.41036 464.14991 669.41036 462.19613 C 669.41036 459.92254 664.8941 456.74044 661.66384 456.74044 z M 670.16457 469.29417 C 669.36529 469.31821 674.97116 475.1888 682.61257 482.34836 C 692.12426 491.26027 697.00779 494.96216 698.09856 494.07034 C 700.23416 492.32427 699.00448 488.17141 695.33547 484.75901 C 691.46056 481.15516 672.05819 469.23721 670.16457 469.29417 z M 667.08429 480.52275 C 666.06855 480.51163 665.07335 480.65901 664.20137 480.99501 C 661.93708 481.8674 661.95396 482.04111 664.44807 483.44091 C 666.998 484.87201 666.9375 485.12198 663.06653 488.35385 L 658.99238 491.75132 L 665.08246 491.02531 C 671.98671 490.20692 675.49289 487.52027 674.16823 484.06824 C 673.37904 482.01162 670.13152 480.55445 667.08429 480.52275 z M 662.78458 496.36117 C 653.29763 496.34658 651.35383 496.7066 651.70403 498.42644 C 652.04474 500.09972 654.10445 500.42163 662.15725 500.05469 C 672.12922 499.60029 672.19459 499.61476 672.19459 503.17726 C 672.19459 506.47 671.70689 506.76505 666.24549 506.76505 C 659.49304 506.76505 654.12173 509.83726 654.12173 513.70801 C 654.12173 516.71081 659.07562 520.65098 662.84802 520.65098 C 664.25137 520.65098 665.01902 521.27543 664.54676 522.03958 C 664.07449 522.80372 661.09937 523.42817 657.93508 523.42817 C 651.16735 523.42817 652.19312 525.35518 660.55015 528.33406 C 668.04213 531.00458 674.1037 530.82971 677.81241 527.82656 C 682.50238 524.0288 680.1547 521.56678 672.64571 522.41316 L 666.51334 523.10393 L 672.13115 518.29672 C 677.68977 513.53872 679.37212 508.96875 676.01499 507.73777 C 674.62564 507.22835 674.62564 506.73639 676.01499 505.26368 C 676.97016 504.25118 677.74897 502.33662 677.74897 501.00626 C 677.74897 497.19989 675.10066 496.38007 662.78458 496.36117 z M 665.41375 509.53519 C 669.97645 509.53519 670.28983 510.43435 667.24641 514.77942 C 664.76952 518.31567 659.98074 518.8816 658.78797 515.77328 C 657.58538 512.63943 660.88282 509.53519 665.41375 509.53519 z "
       transform="matrix(0.46741798,0,0,0.46741798,330.9759,287.17852)" />
    <path
       id="path3844"
       style="fill:#2f2f2f;fill-opacity:1"
       d="M 666.4781 432.95109 L 651.82386 436.83492 C 643.76666 438.96949 637.02216 441.16793 636.83128 441.71967 C 636.43054 442.87798 622.43079 536.67548 622.43079 538.20224 C 622.43079 538.87255 637.3499 539.21725 666.42876 539.21725 C 704.50948 539.21725 710.42673 539.0186 710.42673 537.74407 C 710.42673 534.26938 696.22926 441.6615 695.61037 441.09938 C 695.23465 440.75812 688.52689 438.78514 680.70237 436.71509 L 666.4781 432.95109 z M 666.43581 435.22077 C 668.65465 435.22077 693.32554 441.78205 694.13014 442.58666 C 694.60633 443.06285 708.3614 533.00579 708.4108 535.9678 C 708.4271 536.94829 699.37301 537.22247 666.42876 537.22247 C 642.78086 537.22247 624.42557 536.83189 624.42557 536.33433 C 624.42557 534.24651 638.35845 442.95558 638.73443 442.57961 C 639.4667 441.84734 664.41199 435.22077 666.43581 435.22077 z M 659.4294 456.66291 C 658.73362 456.71876 658.29456 456.96741 658.29456 457.45236 C 658.29456 457.8448 659.02887 459.331 659.91576 460.75115 C 662.11635 464.27487 657.85044 471.1025 645.17694 484.35724 C 636.63124 493.29488 635.99423 494.2958 640.22875 492.139 C 646.17732 489.10909 660.85975 475.19026 666.13271 467.58134 L 670.0095 461.97762 L 666.78119 459.36256 C 664.93967 457.87132 662.0856 456.82278 660.20476 456.66996 C 659.92262 456.64703 659.66133 456.64415 659.4294 456.66291 z M 671.28531 470.15411 C 670.56784 470.30377 675.10917 475.24644 681.91475 481.67169 C 689.17409 488.52521 695.89576 494.16401 696.85094 494.19722 C 699.9434 494.30462 698.68916 488.58792 694.76452 484.68148 C 690.94807 480.88274 676.74934 472.04477 671.49677 470.19641 C 671.40119 470.16278 671.33315 470.14411 671.28531 470.15411 z M 667.32394 480.79765 C 666.76573 480.79892 666.20417 480.8586 665.66045 480.99501 C 662.08572 481.89223 662.00203 482.07429 664.46922 483.45501 C 666.9885 484.86487 666.91918 485.12309 663.06653 488.20583 C 659.38502 491.15158 659.27106 491.45538 661.91054 491.46233 C 666.34538 491.47344 673.26169 488.73508 674.0625 486.64807 C 675.1342 483.85524 671.2314 480.7888 667.32394 480.79765 z M 652.89526 496.00169 C 652.70606 495.98138 652.53411 495.98543 652.3807 496.00874 C 651.35798 496.16413 651.14833 497.28163 651.90139 499.24409 C 652.64575 501.18386 653.89239 501.39714 659.36596 500.54105 C 671.08882 498.7075 671.46242 498.78674 671.94084 502.94465 C 672.36073 506.59382 672.10133 506.76505 666.33713 506.76505 C 659.50227 506.76505 654.12173 509.81965 654.12173 513.70801 C 654.12173 516.71081 659.07562 520.65098 662.84802 520.65098 C 667.05467 520.65098 664.25773 523.0439 658.86551 524.0555 C 653.08019 525.14084 653.3176 525.72841 660.62768 528.43274 C 667.13923 530.84165 676.34412 530.00336 678.69349 526.7904 C 681.43962 523.03484 679.34344 521.64118 672.34966 522.56118 L 665.93535 523.39997 L 671.84216 518.43769 C 677.64899 513.55641 679.43141 508.99048 676.01499 507.73777 C 674.62564 507.22835 674.62564 506.73639 676.01499 505.26368 C 678.60558 502.51758 678.10591 498.72322 674.94359 497.0308 C 673.03411 496.00887 669.83896 495.94007 664.88509 496.84048 C 660.18065 497.69553 656.72838 497.68047 655.06626 496.79114 C 654.19146 496.32294 653.46286 496.06261 652.89526 496.00169 z M 665.41375 509.53519 C 669.97645 509.53519 670.28983 510.43435 667.24641 514.77942 C 664.76952 518.31567 659.98074 518.8816 658.78797 515.77328 C 657.58538 512.63943 660.88282 509.53519 665.41375 509.53519 z "
       transform="matrix(0.46741798,0,0,0.46741798,330.9759,287.17852)" />
    <path
       id="path3842"
       style="fill:#040404;fill-opacity:1"
       d="M 665.9283 433.16255 L 651.45028 437.02524 L 636.97225 440.88792 L 630.26189 485.80222 C 626.5727 510.50508 623.29698 532.40393 622.98059 534.46643 L 622.40259 538.21634 L 666.41466 538.21634 C 690.62102 538.21634 710.42673 538.01033 710.42673 537.75112 C 710.42673 536.57186 696.32906 442.60575 696.01919 441.71967 C 695.82684 441.16967 688.98019 439.018 680.80105 436.94065 L 665.9283 433.16255 z M 666.42876 434.7626 L 680.06094 438.23761 C 690.7985 440.97858 693.86942 442.14608 694.52487 443.7215 C 695.29265 445.56691 708.43195 532.54657 708.43195 535.78454 C 708.43195 537.01092 702.27598 537.22247 666.42876 537.22247 C 633.50049 537.22247 624.42552 536.94781 624.41852 535.9678 C 624.39762 533.09353 637.63571 445.55203 638.36789 443.7215 C 639.00072 442.13935 642.01312 440.99029 652.79658 438.23761 L 666.42876 434.7626 z M 659.42235 456.66291 C 658.72978 456.72015 658.29456 456.97027 658.29456 457.45236 C 658.29456 457.8448 658.99418 459.29247 659.85232 460.66657 C 662.16577 464.3711 658.5711 470.31022 646.04393 483.45501 C 637.10464 492.83503 636.14568 494.25968 640.15121 492.20244 C 646.30933 489.0396 658.48409 477.51428 664.90624 468.76552 L 669.93196 461.90714 L 666.7389 459.32731 C 664.91704 457.85206 662.07326 456.81799 660.19771 456.66996 C 659.91638 456.64773 659.65322 456.64373 659.42235 456.66291 z M 668.71959 468.83601 L 681.91475 481.47432 C 695.33801 494.33522 698.58492 496.31211 698.58492 491.63149 C 698.58492 487.69824 690.0657 480.20764 678.77103 474.19302 L 668.71959 468.83601 z M 668.75483 480.94567 C 667.80129 480.92372 666.74676 481.09589 665.63226 481.50252 C 663.22325 482.38144 662.68688 482.96373 664.20137 483.03208 C 667.66794 483.18848 667.20518 485.26041 662.96785 488.59351 C 658.90754 491.78737 660.48244 492.20706 668.36715 490.01734 C 671.96327 489.01865 673.57614 487.77617 673.57614 486.02073 C 673.57614 482.90055 671.61544 481.01141 668.75483 480.94567 z M 669.78394 496.4669 C 668.16011 496.44342 666.36032 496.62571 664.42693 497.05899 C 660.21672 498.00282 657.32471 497.99678 655.54557 497.04489 C 652.45919 495.39311 650.13214 497.76383 652.50758 500.13927 C 653.54608 501.17777 656.49847 501.07811 662.51673 499.80093 C 671.76621 497.83803 673.95434 498.78098 672.55408 504.13588 C 672.01276 506.20591 670.58285 506.76505 665.78028 506.76505 C 661.54271 506.76505 658.83944 507.60171 656.90597 509.53519 C 652.09667 514.3445 653.77326 518.07679 661.64269 520.05184 C 665.42063 521.00006 665.52275 521.18185 663.11587 522.94181 C 661.70302 523.97492 659.28682 524.82381 657.75181 524.82381 C 652.93596 524.82381 657.28478 527.5636 663.95467 528.73584 C 672.50503 530.23859 678.43974 528.89813 678.43974 525.45819 C 678.43974 523.11583 677.57509 522.77787 672.19459 523.02639 L 665.93535 523.31539 L 671.84216 518.3954 C 677.6461 513.55999 679.43589 508.99212 676.01499 507.73777 C 674.62564 507.22833 674.62564 506.73639 676.01499 505.26368 C 680.43226 500.58129 676.82075 496.56848 669.78394 496.4669 z M 664.96263 509.55633 C 667.38776 509.51562 669.38993 510.13945 669.36102 511.27621 C 669.3367 512.23139 668.48709 514.10474 667.47197 515.44199 C 665.63446 517.86264 660.98188 518.70732 659.21794 516.94337 C 657.50053 515.22595 658.27927 511.23785 660.49376 510.38808 C 661.90536 509.8464 663.50751 509.58078 664.96263 509.55633 z "
       transform="matrix(0.46741798,0,0,0.46741798,330.9759,287.17852)" />
  </g>
</svg>
