<?xml version="1.0" encoding="UTF-8" standalone="no"?>
<!-- Created with Inkscape (http://www.inkscape.org/) -->

<svg
   viewBox="0 0 35.349998 38.720001"
   id="svg6168"
   version="1.1"
   inkscape:version="1.3.2 (091e20e, 2023-11-25, custom)"
   sodipodi:docname="Tokin.svg"
   xmlns:inkscape="http://www.inkscape.org/namespaces/inkscape"
   xmlns:sodipodi="http://sodipodi.sourceforge.net/DTD/sodipodi-0.dtd"
   xmlns="http://www.w3.org/2000/svg"
   xmlns:svg="http://www.w3.org/2000/svg"
   xmlns:rdf="http://www.w3.org/1999/02/22-rdf-syntax-ns#"
   xmlns:cc="http://creativecommons.org/ns#"
   xmlns:dc="http://purl.org/dc/elements/1.1/">
  <defs
     id="defs6170" />
  <sodipodi:namedview
     id="base"
     pagecolor="#ffffff"
     bordercolor="#666666"
     borderopacity="1.0"
     inkscape:pageopacity="0.0"
     inkscape:pageshadow="2"
     inkscape:zoom="14.178719"
     inkscape:cx="17.702587"
     inkscape:cy="19.360001"
     inkscape:document-units="px"
     inkscape:current-layer="layer1"
     showgrid="false"
     fit-margin-top="0"
     fit-margin-left="0"
     fit-margin-right="0"
     fit-margin-bottom="0"
     inkscape:window-width="1292"
     inkscape:window-height="745"
     inkscape:window-x="-8"
     inkscape:window-y="-8"
     inkscape:window-maximized="1"
     inkscape:showpageshadow="0"
     inkscape:pagecheckerboard="1"
     inkscape:deskcolor="#d1d1d1" />
  <metadata
     id="metadata6173">
    <rdf:RDF>
      <cc:Work
         rdf:about="">
        <dc:format>image/svg+xml</dc:format>
        <dc:type
           rdf:resource="http://purl.org/dc/dcmitype/StillImage" />
      </cc:Work>
    </rdf:RDF>
  </metadata>
  <g
     inkscape:label="Layer 1"
     inkscape:groupmode="layer"
     id="layer1"
     transform="matrix(0.5361147,0,0,0.5361147,-390.62183,-372.00119)"
     style="display:inline">
    <path
       inkscape:connector-curvature="0"
       id="path6213"
       d="m 756.09918,663.70599 -14.14213,90.15612 81.31728,-0.50508 -13.38453,-89.90358 -27.02158,-8.33376 z"
       style="display:inline;fill:#ffffff;fill-opacity:1;stroke:none"
       transform="matrix(0.49653286,0,0,0.49653286,372.86803,380.1153)" />
    <path
       id="path6201"
       style="fill:#cfcfcf;fill-opacity:1"
       d="M 782.86515 654.29662 L 768.74857 658.09724 C 760.98509 660.18607 754.52506 662.02569 754.39721 662.19134 C 754.08606 662.59452 740.83762 752.14775 740.85292 753.74365 C 740.86192 754.72362 749.9383 754.99829 782.86515 754.99829 C 815.792 754.99829 824.86837 754.72362 824.87737 753.74365 C 824.89267 752.14775 811.6369 662.59452 811.32575 662.19134 C 811.1979 662.02569 804.73787 660.18607 796.97439 658.09724 L 782.86515 654.29662 z M 782.90183 657.99452 C 784.53202 657.99452 807.90482 663.79941 808.51564 664.35578 C 808.60094 664.43348 811.41619 683.1689 814.77419 705.99381 C 818.13216 728.81875 821.11256 748.50743 821.39225 749.74493 L 821.89851 751.99742 L 782.81379 751.99742 C 746.06847 751.99742 743.75934 751.88904 744.22065 750.24385 C 744.49053 749.28135 747.52423 729.53287 750.96345 706.36067 L 757.21465 664.23105 L 769.02738 661.11278 C 775.52606 659.39757 781.76996 657.99452 782.90183 657.99452 z M 770.39942 668.11971 C 769.1733 668.0748 769.59979 670.00273 771.61738 673.96004 C 773.85264 678.34439 774.01765 680.34546 772.77664 687.84917 C 771.68764 694.43393 771.7909 698.02012 773.18752 702.25189 C 774.7832 707.0868 774.70976 708.53268 772.71794 712.38442 C 771.3651 715.00051 770.40387 720.36613 770.40676 725.24636 C 770.41398 735.47291 773.77998 741.68168 781.53713 745.77556 C 787.55797 748.95307 794.25479 749.65175 795.73442 747.25765 C 797.23281 744.83312 792.34909 740.49469 786.98126 739.48767 C 780.11309 738.19919 776.17371 732.69752 776.17371 724.36591 C 776.17371 715.99967 778.61865 712.45333 787.81769 707.44656 C 792.46793 704.91564 794.91085 702.69442 794.63385 701.23937 C 794.02355 698.03354 788.22504 697.58101 783.90702 700.41028 C 781.89823 701.72653 780.00985 702.54422 779.69552 702.22988 C 779.38119 701.91555 779.79954 697.80158 780.62733 693.08786 C 782.46509 682.62224 780.28438 674.68695 774.3908 670.3135 C 772.46045 668.88105 771.13509 668.14663 770.39942 668.11971 z "
       transform="matrix(0.49653286,0,0,0.49653286,372.86803,380.1153)" />
    <path
       id="path6199"
       style="fill:#b0b0b0;fill-opacity:1"
       d="M 782.86515 654.54608 L 771.61004 657.41489 C 765.42257 658.99526 759.00018 660.83185 757.33938 661.49431 L 754.32384 662.6976 L 747.97725 705.59761 C 744.48676 729.19105 741.40025 749.96046 741.11706 751.74796 L 740.60346 754.99829 L 782.86515 754.99829 L 825.12683 754.99829 L 824.6059 751.74796 C 824.32271 749.96046 821.2362 729.19105 817.74571 705.59761 L 811.39912 662.6976 L 808.38358 661.49431 C 806.72278 660.83185 800.30039 658.99526 794.11292 657.41489 L 782.86515 654.54608 z M 782.82113 657.29749 L 795.54365 660.67989 C 802.53929 662.54041 808.38298 664.18644 808.53765 664.34111 C 808.69233 664.49578 811.53963 683.04592 814.86223 705.56092 C 818.18485 728.07595 821.15862 747.73351 821.46562 749.24601 L 822.02324 751.99742 L 782.86515 751.99742 L 743.69972 751.99742 L 744.25734 749.24601 C 744.56232 747.73351 747.562 728.04483 750.92676 705.49489 C 754.29153 682.94495 757.12092 664.42791 757.20732 664.34111 C 757.29382 664.25431 763.09003 662.63211 770.09126 660.73859 L 782.82113 657.29749 z M 771.68341 669.63849 C 770.55373 669.74681 770.90622 671.64804 772.5712 675.6329 C 774.39109 679.98846 774.48355 682.08123 773.09213 687.60704 C 771.79935 692.74139 771.80227 695.87915 773.12148 701.0266 C 774.55296 706.61196 774.47027 708.62992 772.62256 713.0521 C 769.42933 720.69465 769.75589 732.24216 773.32692 738.02025 C 774.93503 740.6222 778.99502 744.09943 782.35155 745.76088 C 789.50942 749.30396 792.52737 749.55325 794.84663 746.75873 C 796.18723 745.14339 795.85543 744.24422 793.25448 742.4225 C 791.45124 741.15942 788.77708 740.12599 787.30409 740.12599 C 785.83105 740.12599 782.7218 738.22909 780.39988 735.90716 C 776.9463 732.45354 776.17371 730.46022 776.17371 724.97489 C 776.17371 716.04834 777.68777 713.64622 787.15001 707.5933 C 791.55348 704.77646 794.90056 701.68459 794.58249 700.71844 C 793.67164 697.95175 787.91267 697.78569 783.90702 700.41028 C 781.89823 701.72653 779.94633 702.48804 779.56345 702.10515 C 779.18057 701.72226 779.55408 697.66864 780.39988 693.09519 C 782.31475 682.73678 780.45081 674.65476 775.3593 671.31869 C 773.5723 670.1478 772.36123 669.57346 771.68341 669.63849 z "
       transform="matrix(0.49653286,0,0,0.49653286,372.86803,380.1153)" />
    <path
       id="path6197"
       style="fill:#8e8e8e;fill-opacity:1"
       d="M 782.35889 654.70016 L 769.02004 658.27333 C 761.68037 660.23989 755.4008 662.12689 755.06488 662.46281 C 754.57072 662.95696 750.45432 689.4538 741.36652 750.74277 L 740.74287 754.99829 L 782.86515 754.99829 L 824.98743 754.99829 L 824.35644 750.74277 C 814.26202 682.66506 811.05067 662.72898 810.08578 662.13264 C 809.45033 661.73991 802.95223 659.908 795.64637 658.06055 L 782.35889 654.70016 z M 782.86515 657.1801 L 795.48496 660.54783 C 802.42891 662.39849 808.30838 664.10451 808.54499 664.34111 C 808.90979 664.70592 821.83739 750.0899 821.85449 752.24688 C 821.85749 752.65938 804.31509 752.99526 782.86515 752.99526 C 761.41521 752.99526 743.86013 752.65938 743.86113 752.24688 C 743.86613 750.49655 756.96427 664.56213 757.27335 664.25306 C 757.46033 664.06608 763.29405 662.39849 770.238 660.54783 L 782.86515 657.1801 z M 771.6027 669.73387 C 771.5165 669.7339 771.43137 669.74549 771.36058 669.76322 C 770.41674 669.9997 770.85485 671.80462 772.63723 675.25137 C 774.79601 679.42598 774.85982 680.89285 773.18752 687.86384 C 771.56993 694.6066 771.61025 696.62974 773.47366 701.81167 C 775.38291 707.1209 775.39048 708.26177 773.55437 711.02706 C 772.40159 712.76322 771.13846 718.61413 770.7516 724.02106 C 770.07004 733.54663 770.19703 734.01826 774.88972 739.36293 C 777.55342 742.39673 781.69998 745.74258 784.09778 746.80275 C 790.05094 749.43493 794.23031 748.77197 794.23031 745.18859 C 794.23031 743.10142 792.63948 741.79227 788.45602 740.43415 C 779.1715 737.42 775.62343 732.90145 775.62343 724.10177 C 775.62343 717.38722 776.12807 716.199 780.7007 712.1423 C 783.49453 709.66372 787.843 706.52742 790.35633 705.17939 C 793.45757 703.51596 794.64563 702.0057 794.06156 700.48365 C 792.97484 697.65165 787.70657 697.59223 784.03908 700.36626 C 782.49715 701.5325 780.75805 702.50543 780.17243 702.5307 C 779.5868 702.55598 779.51084 697.73562 780.01102 691.81854 C 781.01222 679.97436 779.47131 674.09727 774.55222 671.0252 C 773.18332 670.17032 772.20614 669.7337 771.6027 669.73387 z "
       transform="matrix(0.49653286,0,0,0.49653286,372.86803,380.1153)" />
    <path
       id="path6195"
       style="fill:#707070;fill-opacity:1"
       d="M 782.86515 654.75886 L 769.24749 658.32469 C 761.75758 660.28827 755.39387 662.13383 755.10891 662.41879 C 754.82395 662.70374 751.7564 681.96187 748.29274 705.21608 C 744.8291 728.47029 741.73581 749.1792 741.41788 751.2417 L 740.83825 754.99829 L 782.86515 754.99829 L 824.88471 754.99829 L 824.30508 751.2417 C 823.98715 749.1792 820.89386 728.47029 817.43022 705.21608 C 813.96656 681.96187 810.89901 662.70374 810.61405 662.41879 C 810.32909 662.13383 803.97271 660.28827 796.4828 658.32469 L 782.86515 654.75886 z M 782.86515 657.00401 L 795.44827 660.4231 C 802.372 662.30199 808.27469 664.0708 808.55967 664.35578 C 809.0444 664.84051 821.85882 749.02758 821.86182 751.74796 C 821.86282 752.72662 813.39917 752.99526 782.86515 752.99526 C 752.33085 752.99526 743.85913 752.72663 743.86113 751.74796 C 743.86513 749.22595 756.77204 664.75438 757.22199 664.30442 C 757.47773 664.04868 763.35093 662.30199 770.27469 660.4231 L 782.86515 657.00401 z M 771.54401 669.60181 C 770.68408 669.70778 770.99857 671.55531 772.73262 675.03126 C 774.74197 679.05923 774.82837 680.8805 773.34159 687.89319 C 771.9373 694.51681 771.98105 697.16801 773.57638 701.84835 C 775.26663 706.80714 775.24692 708.23974 773.4223 711.95887 C 772.25318 714.3419 771.0308 719.8723 770.71491 724.24118 C 769.99505 734.19728 773.914 740.76379 783.41543 745.57012 C 790.83429 749.32299 794.23031 749.23016 794.23031 745.27664 C 794.23031 743.34175 792.47384 741.94463 788.2946 740.55154 C 779.30473 737.55491 775.45468 732.6683 775.45468 724.24118 C 775.45468 716.24603 778.92849 711.43622 788.0965 706.73486 C 791.59582 704.9404 793.51128 702.9473 793.51128 701.09997 C 793.51128 697.41047 789.83661 697.40855 783.78229 701.09997 L 779.10122 703.96144 L 780.01102 691.23157 C 780.91119 678.54994 780.88786 678.50152 776.48921 673.57851 C 774.20441 671.02138 772.5766 669.70675 771.73477 669.60181 C 771.66712 669.59337 771.60133 669.59474 771.54401 669.60181 z "
       transform="matrix(0.49653286,0,0,0.49653286,372.86803,380.1153)" />
    <path
       id="path6193"
       style="fill:#4e4e4e;fill-opacity:1"
       d="M 782.86515 654.91294 L 768.88064 658.59616 C 755.02953 662.24495 754.89574 662.31097 754.36052 665.39031 C 754.06337 667.09986 751.12857 686.71975 747.83784 708.99469 C 744.54712 731.2696 741.59461 750.73438 741.27848 752.24688 L 740.70618 754.99829 L 782.86515 754.99829 L 825.02411 754.99829 L 824.44448 752.24688 C 824.12835 750.73438 821.17581 731.2696 817.88512 708.99469 C 814.59439 686.71975 811.65959 667.09986 811.36244 665.39031 C 810.82722 662.31097 810.69343 662.24495 796.84232 658.59616 L 782.86515 654.91294 z M 782.35889 656.95999 L 795.24283 660.22499 C 805.33364 662.78484 808.29982 663.92579 808.95587 665.49303 C 809.72921 667.34044 821.86182 748.22131 821.86182 751.52784 C 821.86182 752.79714 816.52124 752.99526 782.86515 752.99526 C 748.84445 752.99526 743.86113 752.80122 743.86113 751.49116 C 743.86113 749.03113 755.76305 669.74726 756.60567 666.5936 C 757.3398 663.84596 758.05039 663.51086 769.87115 660.32771 L 782.35889 656.95999 z M 771.63205 669.52843 C 770.97984 669.69487 771.28258 671.20003 772.73262 674.00406 C 774.82744 678.05512 774.90984 679.79903 773.37828 687.50433 C 771.88149 695.03454 771.95802 697.15236 773.8772 701.74563 C 775.94327 706.69036 775.93547 707.52414 773.70845 711.71675 C 772.22232 714.51449 771.23645 719.7504 771.19182 725.20234 C 771.10387 735.95311 773.97664 740.70368 783.4888 745.57012 C 790.56166 749.18862 793.96495 749.24299 794.64119 745.73154 C 794.92815 744.24147 793.40782 742.78763 790.33431 741.6301 C 781.25097 738.20927 778.80802 736.5949 776.77536 732.66416 C 771.86908 723.17651 775.61876 713.57125 786.54837 707.62265 C 793.50808 703.83469 795.42019 700.32423 791.36151 698.76677 C 790.1767 698.31212 786.97902 699.2531 784.2592 700.85784 L 779.31399 703.77801 L 779.55612 690.31443 C 779.77686 677.88386 779.52311 676.55736 776.29111 673.1016 C 773.89455 670.5391 772.28425 669.362 771.63205 669.52843 z "
       transform="matrix(0.49653286,0,0,0.49653286,372.86803,380.1153)" />
    <path
       id="path6191"
       style="fill:#2f2f2f;fill-opacity:1"
       d="M 782.86515 655.00098 L 769.11543 658.6035 C 761.55293 660.58621 755.2562 662.29881 755.13092 662.41145 C 755.00565 662.52409 751.96926 682.39243 748.38079 706.55877 C 744.79229 730.72507 741.62872 751.5083 741.34451 752.7458 L 740.82358 754.99829 L 782.86515 754.99829 L 824.89938 754.99829 L 824.38579 752.7458 C 824.10158 751.5083 820.93067 730.72507 817.34217 706.55877 C 813.7537 682.39243 810.71731 662.52409 810.59204 662.41145 C 810.46676 662.29881 804.17734 660.58621 796.61487 658.6035 L 782.86515 655.00098 z M 782.91651 656.79857 L 795.14011 660.01956 C 801.86273 661.79347 807.85738 663.7521 808.46428 664.37045 C 809.41183 665.33592 821.9235 746.37494 821.8765 751.2417 C 821.8607 752.87816 819.33478 752.99526 782.86515 752.99526 C 744.588 752.99526 743.86113 752.96146 743.86113 751.00691 C 743.86113 747.4275 755.91643 667.55066 756.76709 665.49303 C 757.41112 663.9352 760.40885 662.74586 770.25268 660.14429 L 782.91651 656.79857 z M 770.23067 668.88277 L 772.76196 674.20217 C 774.99656 678.88813 775.0846 680.55533 773.52502 688.10597 C 772.02935 695.34734 772.10402 697.49496 773.95057 701.91439 C 775.87749 706.52624 775.8733 707.63542 774.00927 711.23984 C 772.84609 713.48921 771.52536 718.79185 771.06709 723.03055 C 770.05398 732.40108 773.05005 739.18051 780.3632 744.06601 C 785.27705 747.34865 794.94935 748.5834 794.94935 745.92964 C 794.94935 744.05163 789.43301 740.69055 784.44262 739.53169 C 779.49896 738.38368 774.7502 731.04095 774.74298 724.52732 C 774.73431 717.15364 778.34548 711.81073 786.26956 707.49792 C 793.25008 703.69861 795.15193 700.86722 792.01451 698.92819 C 791.19092 698.41919 787.8843 699.37684 784.66274 701.05595 L 778.8004 704.10818 L 779.7102 692.15605 C 780.70409 679.12316 779.50805 674.98401 773.56904 671.07656 L 770.23067 668.88277 z "
       transform="matrix(0.49653286,0,0,0.49653286,372.86803,380.1153)" />
    <path
       id="path6189"
       style="fill:#050505;fill-opacity:1"
       d="M 782.86515 655.16973 L 769.11543 658.75024 C 761.55293 660.7212 755.29593 662.36695 755.21163 662.41145 C 754.94681 662.55101 741.86544 750.78384 741.86544 752.43031 C 741.86544 753.82513 746.32844 753.99311 782.86515 753.99311 C 819.40184 753.99311 823.86485 753.82513 823.86485 752.43031 C 823.86485 750.78384 810.78349 662.55101 810.51867 662.41145 C 810.43437 662.36705 804.17734 660.7212 796.61487 658.75024 L 782.86515 655.16973 z M 783.36407 656.73254 L 796.35073 660.21032 L 809.3374 663.68077 L 815.53725 705.59027 C 818.94777 728.63866 821.97694 748.73135 822.2727 750.24385 L 822.81565 752.99526 L 782.9752 752.99526 L 743.1421 752.99526 L 743.51629 750.74277 C 743.72334 749.5053 746.58763 730.27178 749.87755 707.99684 C 753.1675 685.7219 756.06549 666.59106 756.31953 665.48569 C 756.70116 663.8252 759.08766 662.89313 770.06925 660.1076 L 783.36407 656.73254 z M 771.11845 669.82926 C 770.57515 669.83792 771.1372 670.91876 772.62256 673.79129 C 774.49541 677.41299 774.77325 680.19271 773.91389 686.52849 C 772.68659 695.57702 772.96097 700.6857 774.86037 704.24758 C 775.6926 705.8082 775.32061 708.58218 773.78916 712.19366 C 772.49552 715.24429 771.39044 721.31037 771.33123 725.67925 C 771.20876 734.72622 773.80981 739.77172 780.99419 744.37417 C 783.50701 745.98393 787.67933 747.31069 790.26094 747.32369 C 798.08329 747.36427 795.72231 743.36194 786.10081 740.2654 C 778.79151 737.91298 775.85887 734.07812 775.19054 726.05344 C 774.49596 717.71326 776.67394 713.14582 783.42277 708.81126 C 793.58822 702.28226 794.36387 701.51023 792.52811 699.61787 C 791.18473 698.23302 789.50537 698.53018 784.75812 701.00459 L 778.71969 704.15954 L 779.7102 693.45471 C 780.84108 681.3866 778.67346 673.68848 773.32692 670.8271 C 772.17401 670.21009 771.44442 669.82385 771.11845 669.82926 z "
       transform="matrix(0.49653286,0,0,0.49653286,372.86803,380.1153)" />
  </g>
</svg>
