<?xml version="1.0" encoding="UTF-8" standalone="no"?>
<!-- Created with Inkscape (http://www.inkscape.org/) -->

<svg
   viewBox="0 0 35.349998 38.720001"
   id="svg2"
   version="1.1"
   inkscape:version="1.3.2 (091e20e, 2023-11-25, custom)"
   sodipodi:docname="Narigin.svg"
   xmlns:inkscape="http://www.inkscape.org/namespaces/inkscape"
   xmlns:sodipodi="http://sodipodi.sourceforge.net/DTD/sodipodi-0.dtd"
   xmlns="http://www.w3.org/2000/svg"
   xmlns:svg="http://www.w3.org/2000/svg"
   xmlns:rdf="http://www.w3.org/1999/02/22-rdf-syntax-ns#"
   xmlns:cc="http://creativecommons.org/ns#"
   xmlns:dc="http://purl.org/dc/elements/1.1/">
  <defs
     id="defs4" />
  <sodipodi:namedview
     id="base"
     pagecolor="#ffffff"
     bordercolor="#666666"
     borderopacity="1.0"
     inkscape:pageopacity="0.0"
     inkscape:pageshadow="2"
     inkscape:zoom="14.178719"
     inkscape:cx="17.737851"
     inkscape:cy="19.36"
     inkscape:document-units="px"
     inkscape:current-layer="layer1"
     showgrid="false"
     fit-margin-top="0"
     fit-margin-left="0"
     fit-margin-right="0"
     fit-margin-bottom="0"
     inkscape:window-width="1292"
     inkscape:window-height="745"
     inkscape:window-x="-8"
     inkscape:window-y="-8"
     inkscape:window-maximized="1"
     inkscape:showpageshadow="0"
     inkscape:pagecheckerboard="1"
     inkscape:deskcolor="#d1d1d1" />
  <metadata
     id="metadata7">
    <rdf:RDF>
      <cc:Work
         rdf:about="">
        <dc:format>image/svg+xml</dc:format>
        <dc:type
           rdf:resource="http://purl.org/dc/dcmitype/StillImage" />
      </cc:Work>
    </rdf:RDF>
  </metadata>
  <g
     inkscape:label="Layer 1"
     inkscape:groupmode="layer"
     id="layer1"
     transform="matrix(0.6179018,0,0,0.6179018,-403.78923,-438.87399)"
     style="display:inline">
    <path
       inkscape:connector-curvature="0"
       id="path3031"
       d="m 678.82251,762.4484 15.40483,-100.51018 30.05204,-8.83883 30.55711,9.84899 15.9099,100.25764 z"
       style="display:inline;fill:#ffffff;fill-opacity:1;stroke:none"
       transform="matrix(0.44526861,0,0,0.44526861,359.39028,426.05043)" />
    <path
       id="path3010"
       style="fill:#cecece;fill-opacity:1"
       d="M 724.7318 652.51803 L 709.66803 656.39401 C 701.38591 658.52414 694.20129 660.51554 693.70269 660.8237 C 692.95852 661.28366 677.73026 759.1651 677.73026 763.48739 C 677.73026 764.56584 686.41632 764.80777 724.7318 764.80777 C 763.04734 764.80777 771.72624 764.56584 771.72624 763.48739 C 771.72624 759.1651 756.49804 661.28366 755.75381 660.8237 C 755.25521 660.51554 748.07054 658.52414 739.78848 656.39401 L 724.7318 652.51803 z M 724.7318 655.52795 L 738.97921 659.31164 C 746.81665 661.39154 753.3411 663.17772 753.47508 663.2799 C 753.60907 663.38208 756.8706 684.80229 760.73011 710.88485 C 764.58968 736.96735 767.93097 759.09614 768.14842 760.05864 C 768.52032 761.70475 765.93567 761.81206 724.61822 761.81206 L 680.69049 761.81206 L 681.2087 759.56172 C 681.49491 758.32422 684.88653 736.19677 688.74059 710.38793 C 692.59471 684.57903 695.85588 663.38074 695.98853 663.2799 C 696.12118 663.17906 702.6398 661.39154 710.4773 659.31164 L 724.7318 655.52795 z M 718.88944 677.5841 C 718.04015 677.59789 717.22483 677.74193 716.46163 678.02423 L 713.28844 679.18844 L 716.31256 681.77953 C 717.97657 683.2043 719.32744 685.32019 719.30828 686.47897 C 719.23974 690.61309 708.63393 703.88959 698.89906 712.02776 C 689.16979 720.16137 687.75215 723.13638 695.52 719.11952 C 702.81224 715.34853 715.85622 704.74213 719.97557 699.24272 L 724.07161 693.7908 L 739.98015 708.0879 C 748.73118 715.94729 756.82384 722.21269 757.96156 722.01586 C 759.09928 721.81902 760.21094 720.05358 760.43906 718.09729 C 760.98099 713.44951 753.84829 706.93398 739.63231 699.08654 C 733.81631 695.876 728.58969 692.51641 728.01148 691.61145 C 727.43325 690.70648 726.95492 687.80159 726.94665 685.16568 C 726.93424 681.35419 726.18045 680.01043 723.27654 678.60634 C 722.10307 678.03895 720.90512 677.71331 719.74841 677.6125 C 719.45923 677.58726 719.17254 677.57969 718.88944 677.5841 z M 732.62573 709.45798 C 732.34188 709.44198 732.0408 709.44715 731.71708 709.46507 C 725.48309 709.81905 711.0665 713.18862 711.0665 714.2923 C 711.0665 715.88095 715.95365 718.23926 719.25149 718.23926 C 721.23769 718.23926 722.09813 719.11867 722.09813 721.16399 C 722.09813 723.85319 721.53326 724.04301 715.21223 723.43563 C 710.16942 722.95108 708.30505 723.25332 708.30505 724.55015 C 708.30505 725.52543 709.54954 726.71655 711.0665 727.19802 C 714.04583 728.14363 714.65982 729.97139 712.45078 731.33666 C 710.352 732.63377 710.79407 736.98161 713.23875 739.01052 C 715.15734 740.60273 714.84051 741.11675 710.49149 743.34792 C 705.07503 746.12674 703.96732 750.21068 707.9643 752.69002 C 710.38106 754.1892 730.96621 753.45863 735.52207 751.71038 C 736.98239 751.15 737.39073 751.39905 736.72887 752.46996 C 735.32179 754.7466 738.94587 754.50304 742.1808 752.10082 C 746.73615 748.71814 743.19242 745.20846 734.7199 744.71091 C 728.74747 744.36017 727.61394 743.86883 727.61394 741.6087 C 727.61394 740.13137 728.19682 738.92534 728.90593 738.92534 C 729.61504 738.92534 731.86131 738.28371 733.88933 737.51266 C 737.02054 736.32218 737.30316 735.78992 735.79892 733.97743 C 734.65368 732.59745 732.85344 732.14014 730.70904 732.67834 C 728.04027 733.34816 727.49099 733.03112 727.8695 731.0456 C 728.13764 729.63914 729.81677 728.36432 731.77387 728.09248 C 736.88899 727.382 739.06308 725.21999 737.06962 722.81803 C 736.00577 721.53618 734.11878 721.1654 731.53961 721.7319 C 726.05573 722.93636 726.26955 719.00691 731.84486 716.1238 C 736.65958 713.63404 736.88358 709.69731 732.62573 709.45798 z M 719.08821 730.71196 C 720.29298 730.73692 720.72095 731.5381 720.72095 733.25335 C 720.72095 735.17322 719.81113 735.82023 717.278 735.67406 C 713.43881 735.45254 712.63462 732.78267 716.01441 731.48573 C 717.36798 730.96632 718.36534 730.69704 719.08821 730.71196 z M 720.03236 740.94141 C 720.68103 741.01299 720.72095 741.86287 720.72095 743.70997 C 720.72095 746.10062 719.97088 747.20439 718.31444 747.2168 C 716.98709 747.22784 714.34698 747.64633 712.45078 748.14675 C 709.30607 748.97666 709.17197 748.84388 710.96712 746.65599 C 712.0496 745.33672 714.6826 743.34769 716.82368 742.2405 C 718.23928 741.50847 719.14632 741.06272 719.72001 740.96271 C 719.83957 740.94188 719.93969 740.93121 720.03236 740.94141 z "
       transform="matrix(0.44526861,0,0,0.44526861,359.39028,426.05043)" />
    <path
       id="path3008"
       style="fill:#b0b0b0;fill-opacity:1"
       d="M 724.7318 652.54643 L 709.03623 656.70636 C 700.4053 658.99389 693.24999 660.96319 693.13479 661.08636 C 692.90625 661.3307 677.71416 762.8393 677.72316 764.06239 C 677.72616 764.47489 698.88198 764.80777 724.7318 764.80777 C 750.58168 764.80777 771.73034 764.47489 771.73334 764.06239 C 771.74234 762.8393 756.55026 661.3307 756.32172 661.08636 C 756.20652 660.96319 749.05121 658.99389 740.42028 656.70636 L 724.7318 652.54643 z M 724.7318 655.77641 C 725.5568 655.77641 732.39642 657.41333 739.93046 659.41812 C 752.69174 662.81396 753.66461 663.24252 754.15657 665.68642 C 754.44702 667.12926 757.6246 688.33376 761.21993 712.80864 C 764.81532 737.28346 767.98396 758.32422 768.262 759.56172 L 768.76602 761.81206 L 724.66791 761.81206 L 680.56981 761.81206 L 681.13772 759.0577 C 681.4516 757.5452 684.65116 736.51154 688.24367 712.31172 C 691.83625 688.11184 695.01639 667.12926 695.30704 665.68642 C 695.79933 663.24259 696.77219 662.81387 709.53315 659.41812 C 717.06719 657.41333 723.9068 655.77641 724.7318 655.77641 z M 718.98883 677.22206 C 718.40544 677.2262 717.83202 677.2835 717.2851 677.42083 C 713.00832 678.49422 712.9019 680.19111 716.92306 683.00763 L 720.00396 685.16568 L 716.90176 691.01514 C 713.42161 697.56211 704.17787 707.74567 693.83047 716.43615 C 690.03813 719.6213 687.47068 722.26133 688.12299 722.29981 C 691.84673 722.51907 707.46569 712.09048 715.63107 703.92797 L 725.10804 694.43679 L 732.2211 701.27299 C 745.72293 714.23441 755.75637 722.3708 758.23132 722.3708 C 760.08676 722.3708 760.70882 721.29621 760.70882 718.11148 C 760.70882 712.76719 756.69946 709.10995 739.6465 698.91617 C 727.00653 691.36035 726.9458 691.28775 727.37968 686.25181 C 727.7391 682.08005 727.18994 680.78442 724.27748 678.8761 C 722.6 677.77697 720.73896 677.20874 718.98883 677.22206 z M 733.01617 709.12433 C 727.68885 709.3063 711.0665 713.01321 711.0665 714.2852 C 711.0665 715.88109 715.94578 718.23926 719.25149 718.23926 C 721.24205 718.23926 722.09813 719.12547 722.09813 721.18529 C 722.09813 723.9473 721.62285 724.07206 714.51655 723.23686 C 706.16876 722.2558 704.77566 723.65563 710.42051 727.3542 C 713.57328 729.41999 713.71558 729.86004 711.83318 731.94006 C 709.97026 733.99864 709.98517 734.5945 711.98935 737.45587 C 713.95466 740.26177 713.97751 740.79501 712.18102 741.80037 C 711.0535 742.43136 708.63513 744.20726 706.80719 745.75444 L 703.47782 748.57268 L 706.7433 751.32704 C 710.25616 754.30305 716.81809 754.74482 729.99206 752.86749 C 735.86951 752.02994 736.90876 752.1728 735.67824 753.65547 C 733.68811 756.05344 735.10832 755.94752 740.18602 753.32182 C 743.20526 751.76051 744.21852 750.34405 743.90582 748.14675 C 743.52826 745.49369 742.50189 745.07385 735.54336 744.71091 C 729.08052 744.37382 727.61394 743.85208 727.61394 741.89266 C 727.61394 740.37037 729.25533 739.00836 732.09332 738.17286 C 734.57146 737.44329 736.5798 735.92335 736.5798 734.7796 C 736.5798 733.32347 735.24826 732.76947 732.09332 732.9126 C 729.24715 733.04168 727.61394 732.46677 727.61394 731.33666 C 727.61394 729.36953 730.59726 727.89371 734.54243 727.89371 C 738.02209 727.89371 739.26657 725.46213 737.11931 722.87482 C 735.94733 721.46268 734.05901 721.01221 731.48992 721.52603 C 726.05754 722.61253 726.27501 718.55862 731.75257 716.64912 C 735.84961 715.2209 737.42232 711.0648 734.53533 709.2805 C 734.31672 709.14536 733.77723 709.09833 733.01617 709.12433 z M 719.48575 730.96752 C 720.30056 730.93731 720.72095 731.48117 720.72095 732.57186 C 720.72095 734.01637 719.52522 734.7796 717.278 734.7796 C 715.3818 734.7796 713.82796 734.16091 713.82796 733.40242 C 713.82796 732.64394 714.39512 732.02525 715.09155 732.02525 C 715.78801 732.02525 717.33475 731.64797 718.5345 731.18758 C 718.89237 731.05023 719.21414 730.9776 719.48575 730.96752 z M 720.96231 739.87658 L 720.50798 743.13496 C 720.15831 745.57125 718.88524 746.63423 715.49619 747.32329 C 709.89303 748.46244 710.2377 746.66415 716.38355 742.77292 L 720.96231 739.87658 z "
       transform="matrix(0.44526861,0,0,0.44526861,359.39028,426.05043)" />
    <path
       id="path3006"
       style="fill:#8e8e8e;fill-opacity:1"
       d="M 724.7318 652.7239 L 708.92265 656.85544 L 693.12059 660.97987 L 685.80876 710.14657 C 681.78693 737.18706 678.26599 760.54802 677.98582 762.06052 L 677.4818 764.80777 L 724.7318 764.80777 L 771.9818 764.80777 L 771.47069 762.06052 C 771.19052 760.54802 767.66963 737.18706 763.64774 710.14657 L 756.33592 660.97987 L 740.53386 656.85544 L 724.7318 652.7239 z M 724.7318 655.35048 L 738.31902 658.82892 C 745.79486 660.74274 752.3874 662.60513 752.96396 662.96046 C 753.72105 663.42699 768.45262 756.23216 768.69503 762.06052 C 768.71223 762.47296 748.93168 762.81299 724.7318 762.81299 C 690.17752 762.81299 680.73738 762.5452 680.76858 761.5636 C 680.95187 755.79389 695.66201 663.47067 696.47835 662.96755 C 697.06267 662.60742 703.66164 660.74274 711.13749 658.82892 L 724.7318 655.35048 z M 719.24439 678.2372 C 714.78487 678.2372 713.9622 680.47319 717.47677 683.04312 C 719.01923 684.17104 719.47616 685.77415 718.88944 688.02652 C 717.49964 693.36192 708.23753 704.51997 698.40214 712.70925 C 693.38578 716.88604 689.49367 720.52763 689.74863 720.79485 C 691.34302 722.46587 705.09289 713.20494 714.02673 704.44618 L 724.56853 694.09605 L 731.26275 700.09458 C 734.94499 703.39164 742.19754 709.78113 747.38426 714.2994 C 752.57094 718.81761 757.54186 722.28356 758.42298 721.99456 C 759.30412 721.70556 760.20998 719.90491 760.43906 717.9908 C 760.97947 713.47479 755.2078 708.35595 738.69526 698.7245 C 726.51753 691.62152 726.23996 691.34591 727.03183 687.12497 C 728.03975 681.75228 724.96147 678.2372 719.24439 678.2372 z M 732.61154 709.37989 C 730.79275 709.41119 727.67798 709.91992 724.63952 710.72867 C 720.58823 711.807 715.72416 712.71055 713.82796 712.74475 L 710.38501 712.81574 L 713.62919 715.5275 C 715.41981 717.01923 718.06702 718.23926 719.49995 718.23926 C 721.18591 718.23926 722.09813 719.20169 722.09813 720.98652 C 722.09813 723.3881 721.16145 723.75451 714.85729 723.79767 L 707.62356 723.84736 L 711.53503 727.04895 C 714.74247 729.67294 715.0554 730.41344 713.26005 731.10239 C 710.51561 732.15553 710.43973 735.92544 713.09678 738.86145 C 714.9066 740.86127 714.61447 741.37 710.33532 743.67447 C 704.81069 746.64968 704.04912 750.78061 708.65999 752.74681 C 711.64394 754.01923 727.52249 753.3918 734.37915 751.73168 C 736.66203 751.17898 737.38141 751.42225 736.70758 752.51255 C 735.32095 754.75616 738.97722 754.47975 742.1808 752.10082 C 746.73615 748.71814 743.19242 745.20846 734.7199 744.71091 C 728.74746 744.36017 727.61394 743.86883 727.61394 741.6087 C 727.61394 740.13137 728.19682 738.92534 728.90593 738.92534 C 729.61504 738.92534 731.86131 738.28371 733.88933 737.51266 C 736.93693 736.35396 737.27821 735.76372 735.88411 734.08392 C 734.79354 732.76987 732.98825 732.35659 730.77293 732.9126 C 727.9405 733.62349 727.43351 733.32032 727.8411 731.17338 C 728.15678 729.51061 729.72006 728.41948 732.1927 728.13507 C 736.5256 727.63669 738.68148 724.10051 735.75633 722.29271 C 734.704 721.64235 732.45033 721.45817 730.73744 721.88808 C 725.73943 723.1425 726.6392 717.82673 731.75257 715.89664 C 736.08053 714.26302 737.27419 710.78479 733.94612 709.50767 C 733.679 709.4052 733.2178 709.36941 732.61154 709.37989 z M 719.08821 730.71196 C 720.29298 730.73692 720.72095 731.5381 720.72095 733.25335 C 720.72095 735.17322 719.81113 735.82023 717.278 735.67406 C 713.43881 735.45254 712.63462 732.78267 716.01441 731.48573 C 717.36798 730.96632 718.36534 730.69704 719.08821 730.71196 z M 721.24626 740.50128 C 721.34914 740.51563 721.4343 740.5473 721.48763 740.60067 C 722.80512 741.91816 720.13504 747.20012 718.14406 747.2168 C 716.90519 747.22784 714.34698 747.64633 712.45078 748.14675 C 709.30607 748.97666 709.17196 748.84388 710.96712 746.65599 C 712.92557 744.26915 719.7034 740.28636 721.24626 740.50128 z "
       transform="matrix(0.44526861,0,0,0.44526861,359.39028,426.05043)" />
    <path
       id="path3004"
       style="fill:#6f6f6f;fill-opacity:1"
       d="M 724.7318 652.78069 L 709.48346 656.84124 C 701.09708 659.07553 693.9538 661.22555 693.61041 661.61167 C 693.26702 661.99779 689.76006 684.13898 685.82296 710.81386 C 681.88592 737.48868 678.42253 760.54802 678.1207 762.06052 L 677.56699 764.80777 L 724.7318 764.80777 L 771.88952 764.80777 L 771.33581 762.06052 C 771.03398 760.54802 767.57059 737.48868 763.63355 710.81386 C 759.69644 684.13898 756.18949 661.99779 755.8461 661.61167 C 755.50271 661.22555 748.36647 659.07553 739.98015 656.84124 L 724.7318 652.78069 z M 724.7318 655.11622 L 738.83723 658.87151 C 746.59852 660.93894 753.27554 663.01036 753.67385 663.47157 C 754.07216 663.93278 757.44676 685.00996 761.17024 710.30984 C 764.89378 735.60966 768.17904 757.77422 768.46787 759.56172 L 768.99318 762.81299 L 724.85958 762.81299 C 700.5878 762.81299 680.72078 762.47296 680.71178 762.06052 C 680.65468 759.33777 695.21381 664.14276 695.78976 663.47157 C 696.18553 663.01036 702.85804 660.93894 710.61927 658.87151 L 724.7318 655.11622 z M 719.24439 678.2372 C 714.9375 678.2372 713.57498 681.45887 717.278 682.87985 C 718.41573 683.31643 719.33667 684.7257 719.33667 686.01045 C 719.33667 691.69413 705.93647 707.651 692.4462 718.0334 C 689.63903 720.19386 689.19757 720.9444 691.06902 720.35472 C 697.56342 718.30839 709.1529 710.04749 716.46163 702.25973 L 724.33427 693.86888 L 729.18989 698.1211 C 731.85777 700.45998 739.15659 706.91006 745.41078 712.45369 C 756.84362 722.58779 759.67523 723.77735 760.42486 718.73618 C 761.10952 714.13192 755.67319 709.00173 740.54806 700.0094 C 726.27251 691.52225 726.06058 691.32534 726.86856 687.01849 C 727.88369 681.60733 724.96021 678.2372 719.24439 678.2372 z M 732.68252 709.37989 C 730.98956 709.41437 728.16142 709.93573 725.45589 710.74997 C 721.84857 711.83563 716.98885 712.74081 714.64433 712.76604 L 710.38501 712.81574 L 713.62919 715.5275 C 715.41981 717.01923 718.06702 718.23926 719.49995 718.23926 C 721.18591 718.23926 722.09813 719.20169 722.09813 720.98652 C 722.09813 723.38568 721.17953 723.74798 715.03476 723.74798 C 708.91192 723.74798 708.20136 724.02084 709.68932 725.81375 C 710.63355 726.95147 712.2649 727.89371 713.30974 727.89371 C 715.85216 727.89371 715.72629 730.14247 713.13227 731.13789 C 710.36797 732.19865 710.51709 735.41564 713.46592 738.36453 C 715.11082 740.00943 715.35771 740.93552 714.23259 741.31055 C 711.14485 742.33981 705.55779 747.39453 705.55779 749.15479 C 705.55779 750.12155 706.95346 751.62351 708.65999 752.49125 C 711.67338 754.02346 716.93922 753.87205 730.92911 751.86655 C 735.90181 751.15368 737.43965 751.31823 736.71468 752.49125 C 735.47441 754.4983 736.24241 754.50159 740.65454 752.49125 C 747.8717 749.20296 742.53551 743.77841 732.98068 744.68961 C 728.18169 745.14728 727.61394 744.86968 727.61394 742.08433 C 727.61394 739.82739 728.66237 738.71647 731.41183 738.05928 C 736.93278 736.73965 737.5852 736.12977 735.79892 733.97743 C 734.78522 732.756 732.93858 732.36906 730.77293 732.9126 C 725.3023 734.28565 727.25207 728.98173 732.80321 727.38969 C 735.26306 726.68421 737.27549 725.2658 737.27549 724.2378 C 737.27549 722.28868 735.91984 721.8996 730.71614 722.32111 C 725.90182 722.71109 726.69335 717.80629 731.75257 715.89664 C 736.07612 714.26469 737.27431 710.78914 733.95322 709.51477 C 733.6872 709.41272 733.24685 709.36844 732.68252 709.37989 z M 718.44222 730.81844 C 718.68625 730.80603 718.90274 730.80485 719.10241 730.82554 C 720.30037 730.94869 720.72095 731.68219 720.72095 733.29594 C 720.72095 735.48969 719.93274 736.06058 717.23541 735.83733 C 712.8683 735.47595 713.19207 731.53112 717.64004 730.89653 C 717.93271 730.85488 718.19819 730.8303 718.44222 730.81844 z M 720.83453 740.29542 C 722.35549 740.29542 722.54148 745.375 721.0546 746.29395 C 720.47996 746.6491 717.68379 747.37823 714.836 747.91249 C 710.75754 748.67762 709.81161 748.49216 710.38501 747.01094 C 711.13308 745.07846 718.57183 740.29542 720.83453 740.29542 z "
       transform="matrix(0.44526861,0,0,0.44526861,359.39028,426.05043)" />
    <path
       id="path3002"
       style="fill:#4f4f4f;fill-opacity:1"
       d="M 724.7318 652.94397 L 709.02913 657.12519 L 693.32646 661.31352 L 686.09272 709.81292 C 682.11481 736.48774 678.63155 759.7761 678.35496 761.5636 L 677.85804 764.80777 L 724.7318 764.80777 L 771.60556 764.80777 L 771.10155 761.5636 C 770.82496 759.7761 767.3417 736.48774 763.36379 709.81292 L 756.13005 661.31352 L 740.42738 657.12519 L 724.7318 652.94397 z M 724.7318 654.97424 L 738.79464 658.75793 C 746.53156 660.83966 753.225 662.94346 753.66675 663.42898 C 754.29775 664.12251 768.81262 759.07105 768.74472 762.06052 C 768.73572 762.47296 748.93168 762.81299 724.7318 762.81299 C 690.208 762.81299 680.72548 762.54434 680.71178 761.5636 C 680.66368 758.11231 695.08789 664.18743 695.78266 663.42898 C 696.22742 662.94346 702.92489 660.83966 710.66187 658.75793 L 724.7318 654.97424 z M 719.12371 678.2372 C 714.52035 678.2372 714.1711 679.63125 717.9098 683.01473 C 720.59333 685.44327 720.59588 685.4967 717.85301 690.87317 C 714.38999 697.6612 707.18233 705.71359 696.86169 714.32069 C 692.46104 717.9907 689.36046 720.98632 689.9687 720.97942 C 693.4823 720.93833 707.52953 711.00728 715.47489 702.94832 L 724.70341 693.57783 L 734.0952 702.15325 C 739.25631 706.86686 746.53406 713.36189 750.2664 716.58523 C 757.53947 722.86648 759.76017 723.2502 760.47455 718.38124 C 761.07222 714.30765 753.96666 707.66725 741.81876 700.93935 C 725.88155 692.11274 724.72827 691.07178 726.51362 687.15336 C 728.52182 682.74591 724.78197 678.2372 719.12371 678.2372 z M 731.5964 709.67094 C 730.21715 709.73452 728.3381 710.10312 725.77534 710.78546 C 721.85902 711.8282 716.79199 712.71055 714.51655 712.74475 L 710.38501 712.81574 L 713.62919 715.5275 C 715.41981 717.01923 718.06702 718.23926 719.49995 718.23926 C 721.18591 718.23926 722.09813 719.20169 722.09813 720.98652 C 722.09813 723.38568 721.17953 723.74798 715.03476 723.74798 C 708.91192 723.74798 708.20136 724.02084 709.68932 725.81375 C 710.63355 726.95147 712.2649 727.89371 713.30974 727.89371 C 715.85216 727.89371 715.72629 730.14247 713.13227 731.13789 C 710.45079 732.16689 710.4956 735.39427 713.22455 738.12317 C 715.52641 740.42502 714.81425 743.05687 711.88997 743.05687 C 709.28296 743.05687 705.13083 748.14758 706.25348 749.96406 C 706.78458 750.82349 708.55017 752.06117 710.17914 752.71842 C 714.21591 754.34718 715.12355 754.32862 726.29355 752.41317 C 734.08413 751.07724 736.27131 751.08636 737.12641 752.46996 C 737.94022 753.78667 738.99144 753.53787 741.5206 751.39803 C 744.82548 748.60186 744.84053 748.55505 742.10271 746.39334 C 740.20391 744.89408 737.51267 744.41317 733.4776 744.84578 C 728.11275 745.42095 727.61394 745.21003 727.61394 742.33279 C 727.61394 740.05966 728.7986 738.77155 731.88035 737.69723 C 734.37139 736.82884 735.87578 735.49149 735.50077 734.46725 C 735.14794 733.50359 734.31874 732.81447 733.65507 732.9339 C 727.27185 734.08264 726.92535 734.00097 726.92535 731.33666 C 726.92535 729.29598 728.26707 728.24971 732.09332 727.30451 C 738.7518 725.65966 738.98458 722.3708 732.44116 722.3708 C 726.05851 722.3708 725.59134 717.83146 731.75257 715.68367 C 736.15001 714.15073 736.81734 712.81902 734.39335 710.39503 C 733.85401 709.8557 732.97565 709.60735 731.5964 709.67094 z M 718.91784 730.64097 C 721.39177 730.64097 722.18467 731.29522 721.84967 733.06168 C 721.38537 735.50998 715.27583 737.15031 713.44462 735.31912 C 711.80186 733.67635 715.34787 730.64097 718.91784 730.64097 z M 722.09813 738.83305 L 722.09813 742.2405 C 722.09813 744.1146 721.62924 745.9388 721.0546 746.29395 C 720.47996 746.6491 717.68379 747.37823 714.836 747.91249 C 708.07469 749.18092 708.91028 746.38576 716.61071 741.97785 L 722.09813 738.83305 z "
       transform="matrix(0.44526861,0,0,0.44526861,359.39028,426.05043)" />
    <path
       id="path3000"
       style="fill:#2f2f2f;fill-opacity:1"
       d="M 724.7318 653.00786 L 709.1924 657.13939 C 696.23552 660.58297 693.57494 661.60097 693.19868 663.287 C 692.95052 664.39905 689.59765 686.68376 685.74487 712.80864 C 681.89214 738.93346 678.50151 761.32709 678.21299 762.56453 L 677.68767 764.80777 L 724.7318 764.80777 L 771.76884 764.80777 L 771.24352 762.56453 C 770.955 761.32709 767.56442 738.93346 763.71163 712.80864 C 759.85891 686.68376 756.50599 664.39905 756.25783 663.287 C 755.88157 661.60097 753.22099 660.58297 740.26411 657.13939 L 724.7318 653.00786 z M 724.7318 654.83936 L 739.34835 658.77213 C 747.3874 660.9365 754.06938 662.8451 754.19916 663.01015 C 754.51127 663.40709 768.75293 759.94908 768.73763 761.5636 C 768.72863 762.54442 759.25864 762.81299 724.7318 762.81299 C 683.49658 762.81299 680.72488 762.69957 680.71888 761.05958 C 680.71088 759.09933 694.89622 663.48096 695.26444 663.01015 C 695.39353 662.8451 702.0762 660.9365 710.11525 658.77213 L 724.7318 654.83936 z M 719.30828 678.2372 C 714.51783 678.2372 714.13773 679.47566 717.9311 682.72368 C 719.6765 684.21813 720.34076 685.94069 719.7697 687.50831 C 717.75397 693.0416 710.5311 701.95565 700.41821 711.38177 L 689.69894 721.37696 L 697.27342 717.3945 C 701.44507 715.20215 709.44731 708.85403 715.04896 703.28907 L 725.23582 693.1661 L 733.66217 701.32268 C 753.75054 720.75002 762.14352 725.79409 760.11251 717.20283 C 759.01917 712.57791 754.72784 708.8067 742.10271 701.40787 C 725.78007 691.84218 724.65554 690.86769 726.34324 687.71417 C 728.56734 683.55844 724.61643 678.2372 719.30828 678.2372 z M 731.25565 710.94164 C 728.54597 710.8942 724.38533 711.28111 718.28604 712.09875 C 712.52453 712.87112 711.32788 713.45143 712.51467 714.8815 C 713.3374 715.87284 715.87033 717.08123 718.13696 717.57907 C 721.3617 718.28734 722.16728 719.14066 721.83547 721.46924 C 721.45677 724.12699 720.67462 724.40152 714.51655 724.05323 C 708.10674 723.69069 707.80431 723.81324 710.29273 725.77825 C 711.76504 726.94085 713.78645 727.89371 714.7792 727.89371 C 715.77196 727.89371 716.58941 728.53595 716.58941 729.32768 C 716.58941 730.11941 717.66858 730.57988 718.99593 730.35701 C 720.62498 730.08348 721.41664 730.85206 721.41664 732.71384 C 721.41664 734.81753 720.34868 735.57871 716.93016 735.90832 C 712.21866 736.3626 711.28852 735.1184 714.1687 732.21692 C 715.55086 730.82453 715.42224 730.67098 713.48721 731.40765 C 712.15987 731.91297 711.0665 732.82268 711.0665 733.43792 C 711.0665 736.21697 712.92772 738.92534 714.836 738.92534 C 716.6237 738.92534 716.65376 739.25229 715.03476 741.20407 C 713.29312 743.30366 713.49447 743.30078 717.61875 741.16858 L 722.09813 738.84725 L 722.09813 742.9007 C 722.09813 746.56379 721.5616 747.04146 716.49003 747.89829 C 709.97483 748.99904 708.53058 748.18554 711.21558 744.93097 C 712.96156 742.81467 712.85942 742.75521 710.10816 744.22108 C 708.44382 745.10782 706.69058 746.47887 706.20378 747.26649 C 704.99252 749.22639 707.87479 752.41843 711.52083 753.15855 C 713.17233 753.49367 715.78614 753.55073 717.33479 753.28633 C 728.75879 751.33505 736.2466 751.05835 737.1761 752.56224 C 737.91656 753.76033 739.0952 753.47175 741.5206 751.49032 C 746.13489 747.72069 743.42702 745.28591 734.61341 745.28591 C 729.25263 745.28591 727.66203 744.75806 727.15961 742.83681 C 726.44643 740.10964 728.36142 738.09054 732.33468 737.34939 C 733.7888 737.07814 735.26719 735.98544 735.62145 734.92158 C 736.12584 733.40688 735.18023 733.15598 731.25565 733.79286 C 726.96429 734.48925 726.24386 734.22852 726.24386 731.98265 C 726.24386 729.06565 730.07103 726.50943 734.42884 726.50943 C 736.04172 726.50943 737.27549 725.61483 737.27549 724.44367 C 737.27549 722.99899 735.81929 722.3708 732.44826 722.3708 C 725.99185 722.3708 725.60751 717.82781 731.88035 715.64108 C 734.32618 714.78845 735.88653 713.40965 735.54336 712.404 C 735.22603 711.47402 733.96534 710.98906 731.25565 710.94164 z "
       transform="matrix(0.44526861,0,0,0.44526861,359.39028,426.05043)" />
    <path
       id="path2998"
       style="fill:#040404;fill-opacity:1"
       d="M 724.7318 653.3273 L 709.26339 657.28847 C 694.87942 660.972 693.75886 661.42292 693.28386 663.77682 C 692.42117 668.052 678.7312 760.76968 678.7312 762.33737 C 678.7312 763.6111 684.90878 763.81393 724.7318 763.81393 C 764.55482 763.81393 770.7324 763.6111 770.7324 762.33737 C 770.7324 760.76968 757.04238 668.052 756.17975 663.77682 C 755.70475 661.42292 754.58419 660.972 740.20022 657.28847 L 724.7318 653.3273 z M 725.22872 654.78257 L 739.6749 658.63725 C 747.62022 660.75589 754.24959 662.89922 754.40503 663.40058 C 754.94676 665.14792 768.73053 758.92256 768.73053 760.86081 C 768.73053 762.76904 767.7043 762.81299 724.32007 762.81299 C 682.54866 762.81299 679.93824 762.70569 680.30005 761.05958 C 680.5116 760.09708 683.88428 737.7106 687.79644 711.31078 C 691.70866 684.9109 695.20744 663.04312 695.56969 662.71909 C 695.93193 662.39507 702.75076 660.48074 710.72576 658.45978 L 725.22872 654.78257 z M 718.05888 678.2372 C 714.33189 678.2372 714.44003 680.135 718.31444 682.75917 L 721.41664 684.86753 L 718.17246 691.10033 C 714.78902 697.61486 704.1592 709.53761 695.90334 716.06701 L 691.06902 719.8791 L 698.58671 715.95343 C 702.71973 713.79399 710.30026 707.79402 715.4323 702.62178 L 724.7602 693.21579 L 740.24991 707.15795 C 748.76663 714.82253 756.6455 720.91235 757.76279 720.69547 C 764.78063 719.33317 756.31786 709.63467 739.94466 700.26495 C 733.1904 696.39984 727.21899 692.50716 726.66979 691.61855 C 726.12065 690.72992 725.85072 688.01946 726.05929 685.59871 C 726.46595 680.87872 723.59476 678.2372 718.05888 678.2372 z M 731.24856 710.80676 C 730.97574 710.80214 730.68455 710.81193 730.3754 710.82806 C 715.90897 711.58266 706.98396 715.40874 716.93016 716.59233 C 721.35998 717.11947 723.82408 719.87818 722.63054 722.9884 C 721.88123 724.94124 720.54096 725.19774 714.67272 724.48626 C 708.14605 723.69495 707.81551 723.78536 710.29273 725.75695 C 711.76504 726.92874 713.78645 727.89371 714.7792 727.89371 C 715.77196 727.89371 716.58941 728.44854 716.58941 729.13601 C 716.58941 729.82349 717.81971 730.05801 719.33667 729.66133 C 721.57584 729.07576 722.09813 729.62108 722.09813 732.55056 C 722.09813 735.75518 721.56449 736.16388 717.278 736.16388 C 714.62331 736.16388 712.45078 736.78258 712.45078 737.54106 C 712.45078 738.29954 713.44923 738.92534 714.67982 738.92534 C 716.61107 738.92534 716.66842 739.24802 715.03476 741.31055 C 713.23939 743.57724 713.32906 743.57724 716.88047 741.31055 C 721.82085 738.15729 722.09813 738.24568 722.09813 742.9007 C 722.09813 747.02621 719.64705 748.51684 712.79152 748.55849 C 709.31021 748.57959 708.84911 747.24692 711.40725 744.54053 C 712.82844 743.03703 712.60293 742.99564 710.10816 744.27788 C 705.90605 746.43759 705.01515 748.34307 707.05565 750.80173 C 708.50447 752.54746 711.50429 752.77517 724.7602 752.15051 C 733.53683 751.73692 741.17896 751.3866 741.74777 751.36963 C 742.31663 751.35267 742.7842 750.08965 742.7842 748.57268 C 742.7842 746.12102 741.86895 745.81833 734.51403 745.81833 C 726.63296 745.81833 726.24386 745.65711 726.24386 742.41088 C 726.24386 739.73826 727.18991 738.75926 730.63095 737.86761 C 737.15665 736.17663 737.69107 732.76039 731.24146 733.97033 C 726.83723 734.79657 726.24386 734.57866 726.24386 732.13883 C 726.24386 729.06104 729.99646 726.50943 734.53533 726.50943 C 736.29703 726.50943 737.26616 725.80909 736.92054 724.78441 C 736.60074 723.83631 734.22431 723.02743 731.63899 722.9884 C 725.50937 722.89573 725.10367 718.49803 730.9433 715.47781 C 735.33533 713.20625 735.34078 710.87606 731.24856 710.80676 z "
       transform="matrix(0.44526861,0,0,0.44526861,359.39028,426.05043)" />
  </g>
</svg>
