<?xml version="1.0" encoding="UTF-8" standalone="no"?>
<!-- Created with Inkscape (http://www.inkscape.org/) -->

<svg
   viewBox="0 0 35.349998 38.720001"
   id="svg2"
   version="1.1"
   inkscape:version="1.3.2 (091e20e, 2023-11-25, custom)"
   sodipodi:docname="Kaku.svg"
   xmlns:inkscape="http://www.inkscape.org/namespaces/inkscape"
   xmlns:sodipodi="http://sodipodi.sourceforge.net/DTD/sodipodi-0.dtd"
   xmlns="http://www.w3.org/2000/svg"
   xmlns:svg="http://www.w3.org/2000/svg"
   xmlns:rdf="http://www.w3.org/1999/02/22-rdf-syntax-ns#"
   xmlns:cc="http://creativecommons.org/ns#"
   xmlns:dc="http://purl.org/dc/elements/1.1/">
  <defs
     id="defs4" />
  <sodipodi:namedview
     id="base"
     pagecolor="#ffffff"
     bordercolor="#666666"
     borderopacity="1.0"
     inkscape:pageopacity="0.0"
     inkscape:pageshadow="2"
     inkscape:zoom="14.178719"
     inkscape:cx="17.702587"
     inkscape:cy="19.360001"
     inkscape:document-units="px"
     inkscape:current-layer="layer1"
     showgrid="false"
     fit-margin-top="0"
     fit-margin-left="0"
     fit-margin-right="0"
     fit-margin-bottom="0"
     inkscape:window-width="1292"
     inkscape:window-height="745"
     inkscape:window-x="-8"
     inkscape:window-y="-8"
     inkscape:window-maximized="1"
     inkscape:showpageshadow="0"
     inkscape:pagecheckerboard="1"
     inkscape:deskcolor="#d1d1d1" />
  <metadata
     id="metadata7">
    <rdf:RDF>
      <cc:Work
         rdf:about="">
        <dc:format>image/svg+xml</dc:format>
        <dc:type
           rdf:resource="http://purl.org/dc/dcmitype/StillImage" />
      </cc:Work>
    </rdf:RDF>
  </metadata>
  <g
     inkscape:label="Layer 1"
     inkscape:groupmode="layer"
     id="layer1"
     transform="matrix(0.63793093,0,0,0.63793093,-381.02064,-442.27773)"
     style="display:inline">
    <path
       sodipodi:nodetypes="cccccc"
       inkscape:connector-curvature="0"
       id="path3031"
       d="m 605.89286,747.71932 15.71428,-103.75 30.71429,-9.82143 31.60715,9.28572 15.71428,103.39285 z"
       style="display:inline;fill:#ffffff;fill-opacity:1;stroke:none"
       transform="matrix(0.43154539,0,0,0.43154539,343.24374,425.57236)" />
    <path
       id="path3010"
       style="fill:#cfcfcf"
       d="m 680.08799,654.21518 -16.119,4.34191 c -8.86657,2.38737 -16.2538,4.488 -16.41698,4.67536 -0.16318,0.18736 -3.73788,23.29455 -7.93889,51.34386 -4.20123,28.04931 -7.86538,52.01481 -8.14464,53.25231 l -0.50372,2.249 h 49.0381 49.0381 l -0.51082,-2.249 c -0.27786,-1.2375 -3.9262,-25.203 -8.10916,-53.25231 -4.18296,-28.04931 -7.75887,-51.15932 -7.94599,-51.35095 -0.18712,-0.19163 -7.54792,-2.29248 -16.36022,-4.67536 z m -0.0355,3.36285 14.70717,3.81691 c 8.08923,2.10005 14.86728,3.97702 15.06191,4.17165 0.31538,0.31538 15.16532,98.91181 15.17542,100.75797 0.002,0.4125 -20.24485,0.75203 -44.99416,0.75203 -24.74954,0 -45.00325,-0.33953 -45.00125,-0.75203 0.009,-1.47782 14.9873,-100.56834 15.23927,-100.81473 0.14161,-0.13847 6.90627,-1.98213 15.03352,-4.0936 z m -6.05172,20.83694 c -3.34969,0 -3.82117,0.5528 -3.80982,4.51218 0.0113,3.6378 -1.13507,5.40901 -5.92402,9.08113 -3.26876,2.50664 -5.50564,4.99442 -4.97333,5.52672 1.35791,1.35793 8.72194,-0.29896 12.58587,-2.83076 4.26521,-2.7948 7.92739,-10.04201 6.82504,-13.51527 -0.58417,-1.84057 -2.16269,-2.774 -4.70374,-2.774 z m 12.62135,4.39867 c -0.86695,0.043 -1.73945,0.22425 -2.58245,0.56757 -2.2267,0.9069 -2.14988,1.16667 0.70947,2.49731 4.92432,2.29164 3.84769,5.02009 -3.89496,9.83316 -3.90166,2.42549 -7.09463,4.64313 -7.09463,4.91658 0,0.27353 1.93431,0.48953 4.30644,0.48953 4.77803,0 13.99492,-4.21471 16.9207,-7.74024 3.67919,-4.43312 -2.29595,-10.86528 -8.36457,-10.56391 z m 10.20208,17.43151 c -1.94604,0.0288 -4.48212,0.61078 -7.81828,1.44731 -4.97526,1.24778 -12.66826,2.26318 -17.10516,2.26318 -4.43716,0 -8.07369,0.43396 -8.07369,0.95778 0,2.50751 5.11018,6.13686 8.64126,6.13686 4.595,0 6.74856,2.31686 3.07907,3.31319 -9.51205,2.58242 -10.3085,2.51538 -10.3085,-0.84426 0,-3.81521 -3.66346,-9.56215 -6.10139,-9.56357 -1.1432,-7.1e-4 -1.70129,3.10296 -1.7098,9.57066 -0.007,5.26794 -0.5495,13.46128 -1.21318,18.19773 -1.03007,7.35132 -0.84434,8.98163 1.27703,11.1031 2.15816,2.1581 2.75267,2.2136 4.51928,0.44697 1.11883,-1.11891 2.3906,-4.6818 2.82366,-7.91052 0.84277,-6.28337 1.86776,-7.11044 4.65408,-3.75306 1.11051,1.33811 2.99466,1.80753 5.13652,1.26994 3.14968,-0.79053 3.39123,-0.45819 3.39123,4.8882 0,3.15999 0.60678,6.12573 1.34798,6.58382 1.89984,1.1741 4.32773,-3.9257 4.32773,-9.08822 0,-3.86765 0.46146,-4.34901 4.17164,-4.34901 4.94938,0 6.6993,-2.12085 4.21421,-5.11523 -1.12281,-1.35293 -3.0189,-1.84576 -5.08685,-1.3267 -2.63538,0.66144 -3.299,0.24617 -3.299,-2.04325 0,-2.23703 0.92571,-2.85914 4.24968,-2.85914 2.54651,0 4.25678,-0.74816 4.25678,-1.8517 0,-2.58112 -2.95541,-5.24293 -5.8105,-5.24293 -1.32115,0 -2.73826,-0.89494 -3.15711,-1.9865 -0.8929,-2.32661 8.79316,-4.13635 11.05343,-2.06454 1.66449,1.52578 2.84578,19.62527 1.60339,24.57581 -0.55429,2.20853 -2.23594,3.89127 -4.45543,4.44833 -2.84209,0.71335 -3.23031,1.2922 -1.92974,2.85914 0.89688,1.0806 2.43309,1.95812 3.41252,1.95812 0.97943,0 2.56877,0.95785 3.54022,2.12839 2.3671,2.85206 6.56838,2.69587 7.71187,-0.28379 0.50827,-1.32488 0.48849,-10.88018 -0.0497,-21.24133 -0.92475,-17.8293 -1.4552,-22.7111 -7.29328,-22.62478 z m -29.49238,18.51699 c 0.34313,-0.0424 0.86196,0.30348 1.62467,0.93649 1.26009,1.0458 3.64775,1.91868 5.31388,1.94393 1.71099,0.0258 3.0294,0.96843 3.0294,2.15677 0,1.33187 -1.94626,2.41814 -5.31388,2.96556 -5.29091,0.85994 -5.32097,0.83053 -5.32097,-4.05813 0,-2.72782 0.0951,-3.874 0.6669,-3.94462 z"
       transform="matrix(0.43154539,0,0,0.43154539,331.53036,416.32496)" />
    <path
       id="path3008"
       style="fill:#afafaf"
       d="m 680.0809,654.32869 -16.24671,4.41286 c -8.93449,2.4255 -16.29722,4.509 -16.36732,4.6257 -0.0701,0.11671 -2.9597,19.10643 -6.41354,42.20597 -3.45407,23.09954 -7.05516,47.06504 -8.00984,53.25231 l -1.73819,11.25209 h 48.69756 48.69756 l -0.74494,-4.75341 c -0.41011,-2.61227 -4.00634,-26.5709 -7.98856,-53.24521 -3.98199,-26.67454 -7.33197,-48.62249 -7.44936,-48.76851 -0.11738,-0.14602 -7.46408,-2.22242 -16.32475,-4.6186 z m -0.078,2.9088 14.70717,3.9588 c 8.08916,2.1779 14.9223,4.17392 15.18252,4.43415 0.48005,0.48028 14.9838,96.48005 15.0619,99.69377 0.0399,1.64137 -2.74584,1.75238 -44.95159,1.75238 -35.33512,0 -45.00525,-0.26711 -45.00125,-1.24866 0.008,-2.27726 14.8001,-99.88602 15.1967,-100.28263 0.21394,-0.21393 7.00112,-2.17111 15.09028,-4.34901 z m -6.76119,20.60281 c -2.53108,-0.17801 -3.62931,1.25813 -2.91589,4.1007 0.61561,2.45263 -0.45682,4.45354 -4.48381,8.36457 -2.91129,2.82727 -5.83094,5.13651 -6.49159,5.13651 -0.66056,0 -1.20608,0.72737 -1.20608,1.61049 0,1.06778 2.02038,1.33767 6.03043,0.80878 4.66759,-0.61559 7.07988,-1.98944 10.64905,-6.09428 5.46654,-6.28719 6.02563,-11.4906 1.41892,-13.20312 -1.14836,-0.42688 -2.15734,-0.66433 -3.00103,-0.72365 z m 12.96899,4.83854 c -4.58518,0 -5.1565,2.08756 -1.15642,4.2284 3.90441,2.08953 2.32452,4.86093 -5.00172,8.74768 -3.45892,1.83484 -6.29294,3.90214 -6.29294,4.59023 0,0.68811 2.86439,0.91307 6.37098,0.51791 7.3229,-0.82544 16.32475,-6.88392 16.32475,-10.98959 0,-3.4772 -5.22767,-7.09463 -10.24465,-7.09463 z m 11.24499,17.41732 c -2.03642,-0.0596 -5.44707,0.72974 -12.35175,2.29157 -3.51141,0.79439 -9.8032,1.47711 -13.98352,1.51116 -6.54672,0.0532 -7.46335,0.3919 -6.66896,2.46183 0.86672,2.25867 0.75031,2.25867 -1.74527,0 -4.41429,-3.99474 -5.40242,-2.80825 -5.37774,6.46321 0.0128,4.87701 -0.51837,13.43244 -1.1848,19.00652 -1.14213,9.55335 -1.03634,10.22091 1.8446,11.7629 4.07443,2.1806 5.53864,1.02728 6.67605,-5.2784 1.24904,-6.92481 1.88687,-7.84308 4.12199,-5.98787 1.02641,0.85185 3.52248,1.12562 5.548,0.61723 3.56516,-0.89487 3.68211,-0.71106 3.68211,5.61895 0,3.59623 0.50377,6.54835 1.12805,6.54835 2.60542,0 4.54766,-3.74952 4.54766,-8.79735 0,-5.23584 0.14731,-5.39901 5.06557,-5.39901 4.4404,0 5.00903,-0.39352 4.61151,-3.19259 -0.37156,-2.61608 -1.28677,-3.15111 -5.06557,-2.97974 -3.65563,0.16585 -4.61151,-0.35588 -4.61151,-2.49022 0,-2.04541 1.01578,-2.68177 4.24968,-2.68177 2.54651,0 4.25678,-0.74816 4.25678,-1.8517 0,-2.63195 -2.97191,-5.24293 -5.95949,-5.24293 -1.40463,0 -2.54697,-0.96495 -2.54697,-2.13549 0,-1.52517 1.5529,-2.12839 5.49124,-2.12839 h 5.49125 l 0.68108,7.10173 c 0.37491,3.90181 0.37491,10.28044 0,14.18217 -0.60806,6.32821 -1.04095,7.09463 -4.04394,7.09463 -5.00099,0 -4.07972,3.14127 1.95103,6.61929 2.92413,1.68641 6.59103,2.96357 8.15173,2.83786 2.69083,-0.2167 2.84495,-1.25268 2.84495,-19.98558 0,-17.23729 -0.34271,-20.19817 -2.68887,-23.19236 -1.41438,-1.80517 -2.07838,-2.71445 -4.11489,-2.774 z m -29.72651,10.24465 c 0.18804,-0.008 0.39102,-0.006 0.59595,0 0.46844,0.0128 0.97428,0.0608 1.52535,0.15608 8.09686,1.39905 9.11432,1.92394 6.70443,3.448 -2.42575,1.53408 -8.9848,1.79898 -10.36526,0.41858 -2.15955,-2.15967 -1.28114,-3.89151 1.53953,-4.02266 z m -0.38311,8.41424 c 0.35076,-0.0264 0.8709,0.3454 1.66015,1.00034 1.29042,1.07078 3.52544,1.73397 4.96624,1.48987 1.80445,-0.3057 2.62502,0.41793 2.62502,2.32704 0,2.11109 -1.19064,2.91415 -4.97334,3.35576 -4.82061,0.5628 -4.95915,0.43479 -4.95915,-4.27806 0,-2.72173 0.0965,-3.85094 0.68108,-3.89495 z"
       transform="matrix(0.43154539,0,0,0.43154539,331.53036,416.32496)" />
    <path
       id="path3006"
       style="fill:#8f8f8f"
       d="m 680.00286,655.1091 c -3.13244,0 -31.0159,7.53966 -31.9826,8.64836 -0.64526,0.73988 -16.13636,102.12033 -16.05516,105.0715 0.027,0.98216 10.32364,1.24866 48.03776,1.24866 45.04604,0 47.99419,-0.11004 47.99519,-1.75238 0.003,-3.854 -15.2622,-103.80705 -15.97002,-104.56778 -1.04179,-1.11968 -28.92087,-8.64836 -32.02517,-8.64836 z m 0,2.1142 14.62204,3.85239 c 8.04436,2.1189 14.94976,4.22244 15.33859,4.67536 0.63586,0.74068 15.1406,97.07109 15.069,100.07688 -0.0234,0.98104 -9.71307,1.24866 -45.02963,1.24866 h -45.00125 l 0.0355,-2.249 c 0.0684,-3.87465 14.59113,-98.71219 15.21089,-99.33195 0.32365,-0.32365 7.14885,-2.3218 15.16832,-4.43414 z m -6.88179,21.19167 c -2.6381,0 -3.038,0.63717 -2.53279,4.07941 0.49967,3.40451 -0.35288,4.85225 -5.16489,8.7193 -3.17264,2.54964 -5.47808,5.11697 -5.11523,5.70409 0.82839,1.34039 10.05853,-0.66921 12.54331,-2.73144 1.01925,-0.84591 3.03891,-3.73049 4.48381,-6.41354 2.19062,-4.06772 2.32146,-5.25051 0.77331,-7.11592 -1.02111,-1.2304 -3.26735,-2.2419 -4.98752,-2.2419 z m 13.30243,4.26387 c -3.73542,0 -4.67773,2.48124 -1.34088,3.54022 1.57203,0.49895 2.85913,1.76952 2.85913,2.83076 0,2.18693 -5.95242,7.26391 -10.046,8.56322 -1.49627,0.47493 -2.71724,1.45737 -2.71724,2.18515 0,0.72776 1.7919,1.3196 3.98009,1.3196 4.77594,0 17.29671,-7.607 17.29671,-10.50715 0,-2.63978 -6.69301,-7.9318 -10.03181,-7.9318 z m 9.67708,17.73658 c -0.23557,-0.005 -0.47826,-0.004 -0.72365,0.007 -1.30877,0.0623 -2.74818,0.35758 -4.30644,0.88683 -2.88811,0.98088 -10.36599,2.13559 -16.60854,2.56825 l -11.34432,0.7946 3.33448,3.32738 c 2.24702,2.24706 4.43384,3.12126 6.73281,2.68178 1.8745,-0.35835 3.41252,-0.11163 3.41252,0.56047 0,0.67215 0.12587,1.71339 0.27669,2.29866 0.15085,0.58527 -1.61234,1.38291 -3.90915,1.78075 -5.80118,1.00488 -5.48827,4.8203 0.43987,5.39193 3.46187,0.33379 4.61151,1.1296 4.61151,3.19258 0,1.96022 -0.9861,2.75272 -3.4338,2.75272 -1.88697,0 -4.35545,0.36147 -5.48415,0.7946 -1.59993,0.61395 -2.27502,-1.19162 -3.05069,-8.16593 -1.01975,-9.17015 -3.78069,-15.33433 -6.86761,-15.3244 -1.22025,0.004 -1.86115,3.92937 -2.14258,13.12507 -0.22081,7.21513 -0.53301,15.58979 -0.70236,18.61631 -0.21824,3.89988 0.40352,5.96114 2.13548,7.06626 3.39206,2.16453 5.39056,-0.1715 6.36388,-7.42808 0.76494,-5.70286 2.1878,-7.29257 3.95881,-4.42705 0.48228,0.78036 2.75638,1.41892 5.05138,1.41892 3.9118,0 4.17164,0.35583 4.17164,5.59767 0,3.07538 0.63712,5.98001 1.41893,6.46321 1.64494,1.01657 4.25678,-5.04036 4.25678,-9.87573 0,-3.37526 2.36575,-5.023 7.20814,-5.023 1.49687,0 2.71725,-0.55674 2.71725,-1.24156 0,-2.39489 -3.72632,-4.31319 -6.81794,-3.50475 -2.48668,0.65031 -3.10745,0.21674 -3.10745,-2.17805 0,-2.23804 0.88831,-3.00103 3.46927,-3.00103 1.90482,0 3.86689,-0.67532 4.3703,-1.48987 1.25417,-2.02933 -1.95881,-5.60476 -5.0301,-5.60476 -1.38157,0 -2.84908,-0.88495 -3.26353,-1.96522 -0.53504,-1.3943 0.88903,-2.23159 4.90239,-2.87332 3.10961,-0.49729 6.25521,-0.53193 6.98822,-0.078 0.733,0.45302 1.32669,6.77563 1.32669,14.04737 0,13.59385 -0.74255,15.56793 -6.22199,16.60853 -2.16386,0.41097 -1.62424,1.21796 2.83785,4.26388 6.54302,4.46597 9.83176,4.93219 11.11729,1.5821 0.93175,-2.42814 -0.18649,-32.18493 -1.44021,-38.28973 -0.70483,-3.43206 -3.11428,-5.29142 -6.64767,-5.35645 z"
       transform="matrix(0.43154539,0,0,0.43154539,331.53036,416.32496)" />
    <path
       id="path3004"
       style="fill:#6f6f6f"
       d="m 679.90353,655.07363 c -2.06583,0 -31.06249,7.83467 -31.82652,8.59869 -0.48866,0.48867 -16.00026,101.64291 -16.04806,104.65292 -0.0261,1.64275 2.91659,1.75238 47.97391,1.75238 37.72828,0 47.99628,-0.26613 48.00228,-1.24866 0.0189,-3.02576 -15.38769,-104.32935 -15.97002,-105.00765 -0.80282,-0.93512 -29.49797,-8.74768 -32.13159,-8.74768 z m 0.28379,1.95811 15.11157,4.05813 c 8.31134,2.23339 15.16487,4.15421 15.23217,4.27097 0.54415,0.94487 14.95884,101.88978 14.60076,102.24785 -0.60817,0.6076 -89.65687,0.61712 -90.26501,0.007 -0.25523,-0.25523 2.94274,-23.244 7.10172,-51.08135 5.66452,-37.9126 7.93315,-50.81811 9.04566,-51.42899 0.81686,-0.44854 7.71837,-2.45247 15.3315,-4.44834 z m -6.77537,21.38323 c -2.22002,0 -2.65081,0.67685 -2.00779,3.13582 0.63336,2.42174 -0.61624,4.51774 -5.52671,9.22303 l -6.36389,6.08719 h 4.78888 c 5.41795,0 11.46336,-4.73118 13.75649,-10.76256 1.69129,-4.44848 -0.26984,-7.68348 -4.64698,-7.68348 z m 12.85547,4.72502 c -0.80512,0.0128 -1.43252,0.24971 -1.77366,0.8017 -0.47225,0.76414 0.26393,2.02992 1.64596,2.81656 3.37081,1.91849 1.15377,5.57051 -5.78922,9.50681 -2.85724,1.61993 -4.72185,3.4228 -4.13617,4.00847 2.85671,2.85683 20.24098,-5.38112 20.24098,-9.59194 0,-3.2229 -6.69904,-7.59461 -10.18789,-7.5416 z m 9.83316,16.87104 c -0.15893,-0.0113 -0.32218,-0.009 -0.48953,0.007 -0.80329,0.0725 -1.7221,0.4497 -3.0365,1.07129 -2.15368,1.01842 -9.6706,2.24125 -16.69367,2.71725 l -12.76325,0.86554 3.33448,3.32738 c 2.21396,2.214 4.44404,3.11285 6.66186,2.68887 2.06061,-0.39393 3.64004,0.1488 4.12198,1.40474 1.15417,3.00766 1.15715,2.99539 -3.8311,3.47637 -6.10138,0.58832 -6.41435,4.68799 -0.36183,4.7534 3.21042,0.0348 4.36667,0.77359 4.68956,3.00103 0.35782,2.46909 -0.53896,3.10755 -5.46287,3.89495 -4.97991,0.79634 -5.62304,1.26322 -4.15746,3.02941 0.95351,1.14891 3.57211,2.08582 5.8176,2.08582 3.81724,0 4.08651,0.3694 4.08651,5.67571 0,9.0091 4.02807,7.0049 5.60476,-2.78819 0.71069,-4.41426 1.36097,-5.06435 5.40611,-5.45577 2.52716,-0.24454 4.59023,-0.96803 4.59023,-1.60339 0,-2.31541 -3.77716,-4.20767 -6.81794,-3.41252 -2.48668,0.65031 -3.10745,0.21674 -3.10745,-2.17805 0,-2.23804 0.88831,-3.00103 3.46927,-3.00103 1.90482,0 3.86689,-0.67532 4.3703,-1.48987 1.25417,-2.02933 -1.95881,-5.60476 -5.0301,-5.60476 -1.38157,0 -2.84908,-0.88495 -3.26353,-1.96522 -0.53504,-1.3943 0.88903,-2.23159 4.90239,-2.87332 3.10961,-0.49729 6.25521,-0.53193 6.98822,-0.078 0.733,0.45302 1.32669,6.77563 1.32669,14.04737 0,13.59385 -0.74255,15.56793 -6.22199,16.60853 -2.16386,0.41097 -1.62424,1.21796 2.83785,4.26388 10.7531,7.33984 12.17326,4.87054 10.95411,-19.18389 -0.82277,-16.23356 -1.2087,-18.11355 -4.2284,-20.95045 -1.62346,-1.52519 -2.58392,-2.25663 -3.6963,-2.33413 z m -37.51642,4.16455 c -0.0674,-3.9e-4 -0.12686,0.004 -0.18446,0.0213 -0.8068,0.2418 -0.78776,2.19314 -0.44696,7.11592 0.28032,4.04934 -0.29652,12.03165 -1.26994,17.72239 -1.42074,8.30583 -1.41487,10.77065 0.0213,12.50074 5.02179,6.05113 8.53672,-0.8376 8.74768,-17.13354 0.14231,-10.99342 -1.39706,-16.9281 -5.0301,-19.35415 -0.68745,-0.45903 -1.22361,-0.76749 -1.62467,-0.85136 -0.0752,-0.0158 -0.14539,-0.0208 -0.21284,-0.0213 z"
       transform="matrix(0.43154539,0,0,0.43154539,331.53036,416.32496)" />
    <path
       id="path3002"
       style="fill:#4f4f4f"
       d="m 680.00286,654.73308 -15.94873,4.29935 c -14.96031,4.03042 -15.98791,4.45557 -16.50212,6.91727 -0.68446,3.27654 -15.55143,101.94142 -15.55143,103.20562 0,0.55143 19.32574,0.9223 48.00228,0.9223 31.37902,0 47.99519,-0.34566 47.99519,-1.00035 0,-1.40311 -14.88591,-101.02693 -15.48049,-103.60291 -0.41316,-1.7901 -2.88528,-2.75926 -16.50212,-6.42774 z m 0.0284,2.249 15.0619,3.95881 c 8.2832,2.17733 15.19099,4.11279 15.34569,4.29934 0.6017,0.72555 15.25647,101.37819 14.86326,102.08467 -0.22958,0.4125 -20.61481,0.75203 -45.29923,0.75203 -24.68464,0 -45.0722,-0.33953 -45.29923,-0.75203 -0.35824,-0.6509 14.29132,-101.23963 14.86326,-102.05629 0.11832,-0.16896 7.0194,-2.10464 15.33859,-4.29934 z m -6.51288,21.43289 c -2.32649,0 -2.76434,0.64962 -2.1142,3.13582 0.63336,2.42175 -0.61623,4.51773 -5.52671,9.22303 l -6.36389,6.08719 h 4.1007 c 7.6031,0 17.13604,-10.75268 14.19636,-16.00549 -0.75067,-1.34145 -2.67939,-2.44055 -4.29226,-2.44055 z m 13.84873,5.71827 c -4.09948,0.0422 -4.21519,0.19055 -1.73109,2.07163 3.45389,2.61525 2.24802,5.49794 -3.99428,9.54228 -2.75796,1.78678 -5.02725,3.72125 -5.03719,4.30645 -0.0576,3.49011 17.40203,-4.138 18.99943,-8.30072 1.35989,-3.54416 -3.10311,-7.67242 -8.23687,-7.61964 z m 8.40714,15.94164 c -1.11679,0.064 -2.57474,0.61664 -5.09395,1.62467 -3.25624,1.30291 -10.32033,2.50532 -15.68623,2.66758 -6.80831,0.20589 -9.75512,0.84423 -9.75512,2.10711 0,2.07526 5.38886,4.44705 9.30816,4.1007 1.51124,-0.13351 2.86479,0.8344 3.15711,2.24899 0.37099,1.79531 -0.39055,2.49575 -2.774,2.5115 -1.81293,0.0113 -4.12415,0.54261 -5.13652,1.18481 -2.7897,1.76968 1.66369,4.93279 5.31388,3.77434 2.39512,-0.76019 2.9088,-0.30316 2.9088,2.59664 0,3.00486 -0.83227,3.66301 -5.73246,4.4909 -4.87618,0.82388 -5.48556,1.28234 -3.99428,3.07907 1.06242,1.28015 3.32788,1.8864 5.73956,1.53244 3.84051,-0.56367 3.98718,-0.36513 3.98718,5.5551 0,3.37624 0.64765,6.13686 1.44731,6.13686 1.81136,0 4.2284,-6.1355 4.2284,-10.74128 0,-3.0176 0.64619,-3.44799 5.08685,-3.44799 6.45904,0 5.88593,-3.3558 -0.68109,-4.00137 -3.79876,-0.37347 -4.50822,-0.97656 -4.14326,-3.54022 0.31092,-2.18401 1.59705,-3.23776 4.34901,-3.55441 3.44018,-0.39571 3.71331,-0.78327 2.35542,-3.32029 -0.97778,-1.82703 -2.49804,-2.63517 -4.16455,-2.19934 -1.5437,0.40369 -2.9643,-0.19684 -3.45509,-1.47568 -1.1429,-2.97842 -0.59196,-3.28418 6.51287,-3.61117 l 6.20071,-0.29088 0.4044,14.49433 0.3973,14.48724 -4.61861,1.199 -4.60442,1.19189 6.33551,3.68921 c 3.486,2.02493 6.79223,3.74597 7.35004,3.82401 2.76393,0.38672 3.62284,-6.33979 2.9088,-22.87309 -0.71077,-16.45807 -1.06928,-18.29152 -4.05813,-21.09944 -1.5919,-1.49553 -2.45176,-2.25052 -3.63245,-2.34123 -0.14758,-0.0113 -0.30161,-0.008 -0.46115,0 z m -37.19007,4.11489 c -0.99406,0.0551 -0.99762,2.09368 -0.63142,7.9247 0.28186,4.48807 -0.25661,12.48747 -1.19899,17.77915 -1.34455,7.55032 -1.34141,10.07804 0.0142,11.71324 4.98998,6.01255 8.47099,-1.43203 8.47099,-18.09131 0,-10.73677 -1.42186,-16.19996 -4.81726,-18.46733 -0.69238,-0.46233 -1.22992,-0.77965 -1.63176,-0.85136 -0.0753,-0.0128 -0.13947,-0.0118 -0.20575,-0.007 z"
       transform="matrix(0.43154539,0,0,0.43154539,331.53036,416.32496)" />
    <path
       id="path3000"
       style="fill:#2f2f2f"
       d="m 680.00995,654.88207 -15.75718,4.21421 c -8.66409,2.31603 -15.88161,4.32736 -16.04096,4.46962 -0.15935,0.14227 -3.6445,22.4774 -7.74024,49.63405 -4.09595,27.15666 -7.71478,51.06211 -8.04532,53.12461 l -0.60304,3.75306 h 48.08742 c 26.44769,0 48.08742,-0.22792 48.08742,-0.50372 0,-0.97872 -15.02013,-101.04278 -15.55144,-103.60292 -0.50611,-2.43874 -1.54754,-2.87148 -16.48792,-6.84632 z m -0.0922,1.95812 14.45177,3.75306 c 7.94621,2.06328 14.88966,4.03154 15.43082,4.37029 0.54137,0.33875 4.19999,22.4418 8.13045,49.11614 3.93067,26.67456 7.3933,49.73225 7.69059,51.24453 l 0.53919,2.75272 h -46.15768 -46.16477 l 0.55338,-2.75272 c 0.30183,-1.51228 3.77604,-24.56997 7.72605,-51.24453 3.95023,-26.67434 7.5356,-48.73806 7.96727,-49.02391 0.43167,-0.28584 7.32253,-2.24721 15.31022,-4.36319 z m -7.50612,21.70957 c -1.23684,0.0861 -1.29302,0.86672 -0.74493,3.0507 0.68819,2.74205 -0.38225,4.52851 -5.59057,9.32944 l -6.44193,5.93111 h 4.3632 c 6.12519,0 14.38884,-8.28646 13.75649,-13.79196 -0.32842,-2.85922 -1.34374,-4.06505 -3.6963,-4.39868 -0.69689,-0.0989 -1.23367,-0.14978 -1.64596,-0.12061 z m 15.17542,5.54801 c -4.20058,0 -4.28996,0.11149 -1.68852,2.04325 3.39422,2.52055 1.84089,5.78604 -4.7605,10.01053 -2.43891,1.56072 -4.46082,3.31685 -4.4909,3.90205 -0.16701,3.25178 12.75392,-1.98529 17.30381,-7.0166 2.22727,-2.46324 2.24819,-3.0069 0.26959,-5.83178 -1.45567,-2.07832 -3.66386,-3.10745 -6.63348,-3.10745 z m 8.4568,16.28218 c -1.17603,0.0414 -2.7337,0.5635 -5.37773,1.50406 -3.44854,1.22666 -10.57803,2.35344 -15.84231,2.50441 -6.69001,0.19184 -9.56641,0.82213 -9.57066,2.09291 -0.007,2.13354 3.08412,3.5203 8.29362,3.71759 6.03702,0.22863 5.63344,4.57577 -0.53209,5.73246 -4.25471,0.79822 -4.84979,1.31331 -3.45509,2.99394 1.0472,1.26156 2.96244,1.70556 5.06557,1.17771 2.91615,-0.73193 3.39123,-0.33614 3.39123,2.83785 0,3.20317 -0.7447,3.79832 -5.69699,4.59023 -4.77993,0.76437 -5.42497,1.24721 -3.98718,2.97974 1.02357,1.23327 3.31782,1.83198 5.69699,1.48278 3.62433,-0.53195 3.98874,-0.19141 4.00847,3.78144 0.0113,2.40103 0.60736,5.30036 1.33379,6.44902 1.55908,2.46529 2.10866,1.34203 3.5615,-7.3997 0.82097,-4.93987 1.23004,-5.32807 5.73956,-5.32807 3.73438,0 4.66476,-0.48493 4.03685,-2.12129 -0.46554,-1.21315 -2.57691,-2.13549 -4.91658,-2.13549 -3.40396,0 -4.1007,-0.58805 -4.1007,-3.45509 0,-2.78867 0.81174,-3.55049 4.21421,-3.90914 3.17952,-0.33517 3.91705,-0.92768 2.99393,-2.40508 -0.67348,-1.07787 -2.72368,-2.02864 -4.55475,-2.12129 -1.90913,-0.0966 -3.52351,-1.1908 -3.78853,-2.56826 -0.34005,-1.76743 0.87206,-2.65261 4.58313,-3.34867 9.05568,-1.69886 9.47003,-0.9994 9.01728,15.28894 l -0.4044,14.55818 -4.26387,0.86555 -4.24969,0.85135 5.22165,2.32704 c 2.87289,1.27806 5.61889,2.97506 6.10848,3.76725 1.16454,1.88412 3.14732,1.83169 4.34901,-0.11351 0.52671,-0.85301 0.76647,-7.08618 0.5321,-13.84163 -0.23441,-6.75529 -0.31982,-15.20896 -0.19156,-18.79368 0.18465,-5.16208 -0.43946,-7.1593 -3.0365,-9.59904 -1.58055,-1.4848 -2.45958,-2.23818 -3.6963,-2.34832 -0.15458,-0.0142 -0.31444,-0.0207 -0.48244,-0.0142 z m -38.09817,2.87332 0.80878,5.88855 c 0.44503,3.24338 -0.17182,11.06238 -1.36926,17.37475 -1.59948,8.43169 -1.77793,12.23452 -0.6598,14.32407 4.36969,8.16486 8.51356,-0.52776 8.51356,-17.85719 0,-10.66608 -0.33758,-12.1494 -3.64664,-15.75718 z"
       transform="matrix(0.43154539,0,0,0.43154539,331.53036,416.32496)" />
    <path
       id="path2998"
       style="fill:#030303"
       d="m 680.12347,655.00268 -15.81394,4.20712 c -8.69635,2.31253 -15.90195,4.25673 -16.01258,4.32063 -0.11064,0.0639 -3.58247,22.60054 -7.71896,50.08101 -4.13669,27.48046 -7.7476,51.20062 -8.02403,52.71312 l -0.50372,2.75271 h 47.95262 47.94552 l -0.49662,-2.75271 c -0.27528,-1.5125 -3.85851,-25.20498 -7.96018,-52.64927 -4.10148,-27.44429 -7.57925,-49.98181 -7.72605,-50.08101 -0.14681,-0.0992 -7.32756,-2.0711 -15.95583,-4.38448 z m -0.12061,1.75947 14.74974,3.78853 c 8.11231,2.08308 15.07242,4.06977 15.4663,4.41996 0.53215,0.47312 15.77846,99.59604 15.77846,102.58129 0,0.28986 -20.74719,0.525 -46.10802,0.525 h -46.11511 l 0.56757,-3.24934 c 0.31172,-1.7875 3.77842,-24.85219 7.69768,-51.25162 3.91925,-26.39962 7.42217,-48.27821 7.78991,-48.61952 0.36774,-0.34131 7.31142,-2.32269 15.42373,-4.40577 z m -7.61254,21.78761 c -1.24057,0.0885 -1.27326,0.88989 -0.69528,3.19259 0.72183,2.87601 -0.22819,4.61422 -5.08685,9.32944 -5.96441,5.78832 -5.9563,5.78922 -2.10001,5.78922 5.61671,0 13.84536,-8.5709 13.24568,-13.79196 -0.32842,-2.85925 -1.34374,-4.06505 -3.6963,-4.39868 -0.70504,-0.10003 -1.25368,-0.15051 -1.66724,-0.12061 z m 10.67033,5.54801 3.15711,2.21352 c 4.00269,2.80347 2.50571,6.07989 -4.47672,9.84026 -2.73723,1.47416 -4.65945,3.2025 -4.27096,3.8311 0.94325,1.52624 1.23667,1.47467 7.27909,-1.05001 6.65993,-2.78269 10.28721,-6.06987 10.28721,-9.32944 0,-2.96276 -4.03257,-5.50543 -8.73349,-5.50543 z m 12.86966,16.40988 c -1.01538,0.0239 -2.29935,0.52217 -4.46253,1.42602 -2.85205,1.19172 -9.91633,2.29135 -15.69332,2.44765 -6.75698,0.1828 -10.50574,0.86519 -10.51425,1.90846 -0.0179,2.05494 3.29442,3.34866 8.60579,3.34866 3.11321,0 4.15036,0.6598 4.15036,2.67468 0,1.94974 -1.3839,2.94042 -5.07266,3.63245 -4.19405,0.78682 -4.7782,1.29988 -3.38414,2.97975 1.0472,1.26158 2.96244,1.70556 5.06557,1.17771 2.89139,-0.72571 3.39123,-0.32858 3.39123,2.70305 0,3.62814 -2.2851,5.27131 -7.32875,5.27131 -1.65886,0 -2.57809,0.73766 -2.21353,1.77366 0.34327,0.97545 2.59106,1.68625 5.00881,1.57501 4.15925,-0.19136 4.44991,0.13179 5.34935,6.12976 1.10648,7.37854 3.04885,6.49381 3.69631,-1.68143 0.43057,-5.43592 0.68859,-5.69858 6.00915,-6.37807 4.9383,-0.63066 5.29323,-0.9279 3.19968,-2.65339 -1.29533,-1.06749 -3.6426,-1.60114 -5.20746,-1.1919 -2.36575,0.61866 -2.83785,0.0446 -2.83785,-3.38414 0,-3.6808 0.47389,-4.11489 4.46962,-4.11489 4.33433,0 4.39634,-0.0977 1.99359,-2.75271 -1.36479,-1.50796 -3.32584,-2.40585 -4.3632,-2.00779 -1.0373,0.39809 -2.5555,-0.54362 -3.37705,-2.07872 -1.24842,-2.33261 -0.97952,-2.92483 1.66015,-3.63245 1.73714,-0.46566 5.25574,-0.8542 7.81828,-0.86555 l 4.66118,-0.0142 -0.3973,15.18251 c -0.38822,14.64459 -0.52633,15.23211 -3.75306,15.99131 -3.21058,0.75537 -3.13766,0.92975 2.1142,4.51218 3.01148,2.05421 6.11563,3.5872 6.89598,3.40543 0.86205,-0.20079 1.42602,-8.07863 1.42602,-20.07072 0,-18.37477 -0.21123,-19.94517 -3.09326,-22.88728 -1.47588,-1.50652 -2.30789,-2.27512 -3.39123,-2.40508 -0.13536,-0.0162 -0.28064,-0.0247 -0.42568,-0.0213 z m -36.49479,5.11523 c -0.9431,-0.006 -1.06702,1.39899 -0.525,4.95206 0.45738,2.99823 -0.15145,10.47131 -1.34798,16.60853 -1.52426,7.81813 -1.74792,11.95334 -0.74494,13.82744 4.03574,7.54112 8.43467,-1.91543 8.40004,-18.05584 -0.021,-9.8175 -1.97231,-16.13756 -5.33516,-17.24705 -0.16864,-0.0556 -0.31221,-0.0844 -0.44696,-0.0851 z"
       transform="matrix(0.43154539,0,0,0.43154539,331.53036,416.32496)" />
  </g>
</svg>
