<?xml version="1.0" encoding="UTF-8" standalone="no"?>
<!-- Created with Inkscape (http://www.inkscape.org/) -->

<svg
   viewBox="0 0 35.349998 38.720001"
   id="svg2"
   version="1.1"
   inkscape:version="1.3.2 (091e20e, 2023-11-25, custom)"
   sodipodi:docname="Gyoku.svg"
   xmlns:inkscape="http://www.inkscape.org/namespaces/inkscape"
   xmlns:sodipodi="http://sodipodi.sourceforge.net/DTD/sodipodi-0.dtd"
   xmlns="http://www.w3.org/2000/svg"
   xmlns:svg="http://www.w3.org/2000/svg"
   xmlns:rdf="http://www.w3.org/1999/02/22-rdf-syntax-ns#"
   xmlns:cc="http://creativecommons.org/ns#"
   xmlns:dc="http://purl.org/dc/elements/1.1/">
  <defs
     id="defs4" />
  <sodipodi:namedview
     id="base"
     pagecolor="#ffffff"
     bordercolor="#666666"
     borderopacity="1.0"
     inkscape:pageopacity="0.0"
     inkscape:pageshadow="2"
     inkscape:zoom="14.178719"
     inkscape:cx="14.740401"
     inkscape:cy="18.866303"
     inkscape:document-units="px"
     inkscape:current-layer="layer1"
     showgrid="false"
     fit-margin-top="0"
     fit-margin-left="0"
     fit-margin-right="0"
     fit-margin-bottom="0"
     inkscape:window-width="1292"
     inkscape:window-height="745"
     inkscape:window-x="-8"
     inkscape:window-y="-8"
     inkscape:window-maximized="1"
     inkscape:showpageshadow="0"
     inkscape:pagecheckerboard="1"
     inkscape:deskcolor="#d1d1d1" />
  <metadata
     id="metadata7">
    <rdf:RDF>
      <cc:Work
         rdf:about="">
        <dc:format>image/svg+xml</dc:format>
        <dc:type
           rdf:resource="http://purl.org/dc/dcmitype/StillImage" />
      </cc:Work>
    </rdf:RDF>
  </metadata>
  <g
     inkscape:label="Layer 1"
     inkscape:groupmode="layer"
     id="layer1"
     transform="matrix(0.66418335,0,0,0.66418335,-414.28053,-493.91476)"
     style="display:inline">
    <path
       sodipodi:nodetypes="cccccccccc"
       inkscape:connector-curvature="0"
       id="path3022"
       d="m 679.6057,679.99766 c -10.39196,2.40995 -20.90855,5.02646 -30.89286,8.68304 -3.58886,15.23626 -5.05989,30.99595 -7.67838,46.45458 -3.0916,20.04977 -5.86811,40.15996 -9.28591,60.15256 11.66136,0.83366 24.05976,0.11881 36.00447,0.35714 20.02976,0 40.05952,0 60.08928,0 -1.40818,-13.61368 -4.1343,-27.72903 -6.02163,-41.53472 -3.51635,-21.55897 -5.98246,-43.34298 -10.31765,-64.7376 -2.12982,-2.62994 -6.73433,-2.30255 -9.71526,-3.76323 -7.34688,-1.94978 -14.67481,-4.51323 -22.18206,-5.61177 z"
       style="display:inline;fill:#ffffff;fill-opacity:1;stroke:none"
       transform="matrix(0.41556411,0,0,0.41556411,367.77226,466.25756)" />
    <path
       id="path3010"
       style="fill:#d0d0d0"
       d="M 680.00283 677.79242 C 678.09964 677.79242 647.12396 685.57967 646.22782 686.28393 C 646.07854 686.40124 642.37186 710.52686 637.99105 739.89371 C 633.61024 769.26056 629.86136 794.30395 629.65521 795.54145 L 629.28017 797.7917 L 680.00283 797.7917 L 730.72549 797.7917 L 730.35045 795.54145 C 730.14431 794.30395 726.38834 769.26056 722.00753 739.89371 C 717.6269 710.52686 713.92004 686.40124 713.77076 686.28393 C 712.87462 685.57967 681.90602 677.79242 680.00283 677.79242 z M 680.00283 680.48847 L 695.16726 684.60686 C 703.51015 686.87325 710.64622 689.08128 711.01809 689.51071 C 711.38997 689.94014 714.96152 712.5631 718.95766 739.78756 C 722.95397 767.0122 726.452 790.5262 726.73448 792.0387 L 727.25104 794.79136 L 680.00283 794.79136 L 632.74754 794.79136 L 633.26411 792.0387 C 633.54659 790.5262 637.0446 767.0122 641.04092 739.78756 C 645.03723 712.5631 648.61568 689.94014 648.98756 689.51071 C 649.35943 689.08128 656.48843 686.87325 664.83132 684.60686 L 680.00283 680.48847 z M 696.55421 711.82925 C 694.23077 711.74746 691.3813 712.15738 688.19714 713.10297 C 679.48765 715.68945 658.83929 716.21714 654.62027 713.9592 C 650.29468 711.64422 649.91338 714.6798 654.01171 718.77814 C 657.69091 722.45733 667.71918 725.30105 670.64801 723.49093 C 671.58477 722.91199 672.15525 724.52789 672.15525 727.74376 L 672.15525 732.94482 L 662.65891 732.94482 C 652.02379 732.94482 650.82107 734.44661 657.91781 738.8535 C 661.26885 740.93444 664.06312 741.55837 667.41416 740.96222 L 672.15525 740.12015 L 672.15525 746.75061 L 672.15525 753.38814 L 663.75573 753.38814 C 659.13715 753.38376 652.81761 752.66617 649.70934 751.80306 C 646.31972 750.86189 643.52815 750.77354 642.73215 751.56954 C 641.06699 753.2347 646.57679 760.47222 650.81324 762.18394 C 655.3883 764.03253 657.97046 763.85694 665.03653 761.24987 C 669.94502 759.43888 676.42083 758.93924 692.96654 759.07038 C 713.51674 759.23326 714.50669 759.1109 714.50669 756.3531 C 714.50669 750.70922 708.67567 748.7338 695.18849 749.82878 L 682.92533 750.82654 L 683.54804 745.51934 C 684.02345 741.4471 684.95117 740.01961 687.56736 739.36299 C 689.44109 738.8927 691.66016 738.93368 692.49244 739.4479 C 694.28269 740.55435 699.90128 737.82031 699.90128 735.84609 C 699.90128 733.27113 691.96774 730.1762 689.25858 731.69232 C 685.85732 733.59576 684.29599 732.36313 683.53388 727.17059 C 682.91927 722.98309 683.14778 722.78502 689.57701 721.9483 C 698.47003 720.79099 702.83086 718.89135 702.83086 716.15284 C 702.83086 713.47158 700.4266 711.96543 696.55421 711.82925 z M 699.66777 726.99368 L 703.43942 731.93291 C 705.51248 734.65084 707.21106 737.5887 707.21106 738.47138 C 707.21106 739.35404 708.59071 741.05322 710.28924 742.24303 C 716.58865 746.65529 721.00272 740.50604 715.64597 734.77757 C 711.78955 730.65369 709.51302 729.34485 703.8003 727.97728 L 699.66777 726.99368 z M 642.50571 758.8864 C 642.23349 758.9338 642.14351 759.13329 642.17312 759.50204 C 642.3012 759.31615 642.42976 759.12834 642.56939 758.95009 C 642.58329 758.93109 642.59785 758.91238 642.61185 758.89348 C 642.58295 758.89548 642.53145 758.8817 642.50571 758.8864 z M 718.27126 760.83945 C 718.27124 760.84845 718.27127 760.85835 718.27126 760.86775 C 718.28026 760.88215 718.29047 760.89581 718.29957 760.91021 C 718.29057 760.88661 718.28106 760.86305 718.27126 760.83945 z "
       transform="matrix(0.41556411,0,0,0.41556411,367.77226,466.25756)" />
    <path
       id="path3008"
       style="fill:#b0b0b0"
       d="M 680.00283 677.79242 C 677.52107 677.79242 647.71905 685.77398 646.73731 686.70143 C 645.9991 687.39882 630.00195 791.65391 630.00195 795.76789 C 630.00195 797.77216 630.47706 797.7917 680.00283 797.7917 C 729.5286 797.7917 729.99663 797.7722 729.99663 795.76789 C 729.99663 791.65391 714.00656 687.39882 713.26835 686.70143 C 712.28661 685.77398 682.48459 677.79242 680.00283 677.79242 z M 680.11605 680.84229 C 681.77976 680.77079 682.81433 681.11668 684.751 681.62775 C 687.3635 682.31717 694.46178 684.24316 700.52399 685.90181 L 711.54174 688.9163 L 718.89398 738.60583 C 722.93665 765.93362 726.47666 789.75586 726.7557 791.54336 L 727.2652 794.79136 L 680.00283 794.79136 L 632.74046 794.79136 L 633.24288 791.54336 C 633.5221 789.75586 637.06176 765.93362 641.10461 738.60583 L 648.45684 688.9163 L 659.47459 685.90181 C 672.81989 682.25028 677.34321 680.96146 680.11605 680.84229 z M 696.16502 712.15475 C 693.87294 712.13212 691.23093 712.48047 688.64295 713.26573 C 680.448 715.75231 658.65973 716.11815 654.40091 713.8389 C 651.92805 712.51512 651.53068 712.66917 651.94544 714.78005 C 652.78445 719.05054 659.74562 723.11589 666.20411 723.11589 C 671.99235 723.11589 672.15525 723.26065 672.15525 728.03389 L 672.15525 732.94482 L 662.29802 732.98727 L 652.44078 733.03681 L 656.53794 736.6457 C 660.6119 740.2299 662.58958 740.81302 668.87187 740.30413 C 671.83915 740.06378 672.15525 740.67923 672.15525 746.70815 L 672.15525 753.38814 L 665.94229 753.62166 C 659.22985 753.87047 658.84403 753.84534 648.25163 752.43285 C 641.26576 751.50126 641.17149 751.54409 642.8666 754.71141 C 643.81518 756.48389 646.6832 759.20114 649.24231 760.76161 C 654.94021 764.23588 657.08767 764.2934 664.31475 761.15788 C 668.88606 759.17444 674.2336 758.75261 692.23769 758.93593 C 713.42091 759.15162 714.50669 759.0188 714.50669 756.31064 C 714.50669 751.1641 707.45113 748.97658 694.19781 749.99861 L 682.3663 750.90438 L 683.32867 745.94391 C 684.50494 739.90486 685.92622 738.83273 692.87455 738.80396 C 699.42004 738.7768 700.77679 737.11362 697.00709 733.70198 C 694.91936 731.8126 692.86914 731.38115 689.17367 732.07444 C 684.32202 732.98461 684.15397 732.86115 683.57634 727.91359 C 682.90592 722.17097 684.08639 721.25483 692.24477 721.25483 C 697.16714 721.25483 702.83086 718.00114 702.83086 715.16217 C 702.83086 713.2792 699.98515 712.19258 696.16502 712.15475 z M 702.41336 728.27448 C 700.70743 728.30793 700.45625 729.28467 702.85209 730.76533 C 703.6668 731.26885 705.64929 734.27286 707.2606 737.43117 C 709.48064 741.7828 711.06207 743.16294 713.80614 743.16294 C 716.6315 743.16294 717.42919 742.41702 717.42919 739.74511 C 717.42919 735.63915 714.10915 732.38844 706.78649 729.32885 C 704.98107 728.5745 703.43692 728.25445 702.41336 728.27448 z M 649.94286 740.79239 L 649.96409 740.8207 C 649.96348 740.8117 649.96468 740.80179 649.96409 740.79239 L 649.94286 740.79239 z M 718.27126 760.83945 C 718.27124 760.84845 718.27127 760.85835 718.27126 760.86775 C 718.28026 760.88215 718.29047 760.89581 718.29957 760.91021 C 718.29057 760.88661 718.28106 760.86305 718.27126 760.83945 z "
       transform="matrix(0.41556411,0,0,0.41556411,367.77226,466.25756)" />
    <path
       id="path3006"
       style="fill:#909090"
       d="M 680.00283 677.47398 L 663.74865 681.75512 C 654.81133 684.11099 647.17933 686.32854 646.78685 686.6802 C 646.15179 687.24921 630.00195 792.76845 630.00195 796.34814 C 630.00195 797.58914 637.06842 797.7917 680.00283 797.7917 C 722.93724 797.7917 729.99663 797.58914 729.99663 796.34814 C 729.99663 792.76845 713.8468 687.24921 713.21174 686.6802 C 712.81926 686.32854 705.18725 684.11099 696.24993 681.75512 L 680.00283 677.47398 z M 680.00283 680.82106 C 682.19901 680.82106 710.913 688.28338 711.50636 689.00829 C 711.86697 689.44897 727.01037 792.08807 727.00337 794.04128 C 726.99737 795.68303 724.09487 795.78912 680.00283 795.78912 C 635.91079 795.78912 633.00121 795.68303 632.99521 794.04128 C 632.98821 792.08807 648.13869 689.44897 648.4993 689.00829 C 649.09266 688.28338 677.80665 680.82106 680.00283 680.82106 z M 697.87747 712.69255 C 696.9092 712.71621 695.70777 712.82888 694.21197 713.01806 C 670.58896 716.00469 664.10742 716.40472 658.70327 715.19047 C 651.10509 713.4834 649.93133 714.76299 655.07315 719.18856 C 658.07649 721.77365 660.90894 722.72669 665.66632 722.72669 C 672.06449 722.72669 672.15525 722.79284 672.15525 727.65177 C 672.15525 731.92046 671.59292 732.6865 667.93072 733.41893 C 665.605 733.88406 661.16958 733.91575 658.07349 733.48969 L 652.44078 732.72545 L 656.53794 736.49003 C 659.49365 739.20349 662.24705 740.2546 666.40225 740.2546 L 672.15525 740.2546 L 672.15525 746.61616 L 672.15525 752.9848 L 664.78886 753.8481 C 660.73681 754.32801 655.76716 754.10118 653.74281 753.33153 C 651.71847 752.56201 648.10399 751.93043 645.71833 751.93043 C 641.79563 751.93043 641.54247 752.21155 642.99397 754.92369 C 643.87672 756.57314 646.6832 759.20114 649.24231 760.76161 C 654.91045 764.21773 655.5541 764.23722 663.57882 761.16496 C 668.59928 759.24291 674.57933 758.75964 691.48053 758.8864 C 703.31291 758.97519 713.33004 758.48955 713.74953 757.81081 C 715.06623 755.68033 713.02515 752.38485 709.34102 750.70624 C 707.10202 749.68609 701.45158 749.43104 693.99968 750.00569 L 682.21062 750.91853 L 683.15177 746.67985 C 684.86043 738.94064 685.02319 738.78274 691.74235 738.78274 C 699.3722 738.78274 700.94682 737.26751 697.00709 733.70198 C 694.91936 731.8126 692.86914 731.38115 689.17367 732.07444 C 684.30937 732.987 684.15112 732.86623 683.56219 727.8216 C 683.22881 724.96626 683.26336 722.32537 683.64003 721.9483 C 684.01709 721.57124 687.03224 721.25483 690.33417 721.25483 C 697.38507 721.25483 703.12077 717.88239 701.81895 714.48992 C 701.37929 713.34421 700.59345 712.78605 698.76908 712.69963 C 698.49543 712.68648 698.20022 712.68423 697.87747 712.69255 z M 703.84276 728.56461 C 701.17108 728.56461 701.10683 728.7897 703.14929 731.11914 C 704.38177 732.5248 706.49278 735.85355 707.84085 738.51384 C 710.87943 744.51013 716.70033 744.72853 716.70033 738.84642 C 716.70033 734.83354 708.86067 728.56461 703.84276 728.56461 z M 649.65273 740.79239 L 649.99239 741.16744 C 649.98239 741.04245 649.97199 740.91752 649.96409 740.79239 L 649.65273 740.79239 z M 718.27126 760.83945 C 718.27124 760.84845 718.27127 760.85835 718.27126 760.86775 C 718.28026 760.88215 718.29047 760.89581 718.29957 760.91021 C 718.29057 760.88661 718.28106 760.86305 718.27126 760.83945 z "
       transform="matrix(0.41556411,0,0,0.41556411,367.77226,466.25756)" />
    <path
       id="path3004"
       style="fill:#6f6f6f"
       d="M 680.00283 677.59428 L 663.74865 681.86127 C 654.81133 684.2053 647.20141 686.38645 646.83638 686.70851 C 646.27614 687.20282 630.00195 793.5429 630.00195 796.70903 C 630.00195 797.47091 644.8039 797.7917 680.00283 797.7917 C 715.20158 797.7917 729.99663 797.47091 729.99663 796.70903 C 729.99663 793.5429 713.72244 687.20282 713.1622 686.70851 C 712.79717 686.38645 705.18725 684.2053 696.24993 681.86127 L 680.00283 677.59428 z M 680.00283 679.9436 L 695.59891 684.30258 C 704.1798 686.699 711.34104 688.79964 711.50636 688.97291 C 711.96505 689.45371 727.00937 790.96779 727.00337 793.53887 L 726.9963 795.78912 L 680.00283 795.78912 L 633.00228 795.78912 L 632.99521 793.53887 C 632.98921 790.96779 648.04061 689.45371 648.4993 688.97291 C 648.66462 688.79964 655.81896 686.699 664.39967 684.30258 L 680.00283 679.9436 z M 696.56836 712.78454 C 695.84189 712.78892 695.03658 712.84965 694.14828 712.9756 C 670.25338 716.36281 664.37653 716.78681 658.68912 715.5089 C 650.87212 713.75254 649.90009 714.73609 655.07315 719.18856 C 658.07649 721.77365 660.90894 722.72669 665.66632 722.72669 C 672.08596 722.72669 672.15525 722.77828 672.15525 727.73669 C 672.15525 733.78119 669.27273 735.12912 659.24107 733.77274 L 652.44078 732.85283 L 656.53794 736.55371 C 659.42103 739.15371 662.30139 740.2546 666.24657 740.2546 C 671.76733 740.2546 671.85594 740.34175 672.49491 746.45341 C 672.8518 749.86714 673.04625 752.81718 672.91949 753.00603 C 672.29761 753.93287 654.59723 753.70105 649.15032 752.69467 C 640.37984 751.07426 641.53348 756.51459 650.98307 761.35602 C 656.44062 764.15209 656.47666 764.14885 663.06933 761.12958 C 667.41366 759.14003 673.02935 758.6304 691.14087 758.57505 C 709.47528 758.51911 713.78491 758.11299 713.78491 756.46632 C 713.78491 755.34816 712.07919 753.165 709.99911 751.612 C 706.53905 749.02869 705.24176 748.92833 694.7993 750.38073 C 688.52177 751.25387 683.08725 751.66778 682.72011 751.30065 C 682.35299 750.93353 682.63812 748.13647 683.35698 745.08061 C 684.62032 739.70987 684.89186 739.50313 691.55129 739.07286 C 696.06672 738.7811 698.44357 737.96144 698.44357 736.69524 C 698.44357 733.11779 694.50495 731.27238 689.06045 732.2938 C 684.59442 733.13163 683.8411 732.87065 683.82401 730.54596 C 683.81233 729.05092 683.39551 726.35256 682.91117 724.54529 C 682.08577 721.46543 682.48845 721.25483 689.18782 721.25483 C 697.90024 721.25483 703.95447 717.80793 701.15378 714.43331 C 700.223 713.31185 698.74765 712.77086 696.56836 712.78454 z M 703.80738 728.56461 C 700.85361 728.56461 700.8602 728.56899 703.75077 731.848 C 705.34396 733.65527 707.43559 736.98604 708.39988 739.24977 C 710.69986 744.64899 716.70033 744.3585 716.70033 738.84642 C 716.70033 734.82333 708.84909 728.56461 703.80738 728.56461 z M 649.65273 740.79239 L 649.99239 741.16744 C 649.98239 741.04245 649.97199 740.91752 649.96409 740.79239 L 649.65273 740.79239 z M 718.27126 760.83945 C 718.27124 760.84845 718.27127 760.85835 718.27126 760.86775 C 718.28026 760.88215 718.29047 760.89581 718.29957 760.91021 C 718.29057 760.88661 718.28106 760.86305 718.27126 760.83945 z "
       transform="matrix(0.41556411,0,0,0.41556411,367.77226,466.25756)" />
    <path
       id="path3002"
       style="fill:#4f4f4f"
       d="M 680.00283 677.69335 L 663.43022 682.1514 C 654.31536 684.60147 646.72696 686.75998 646.56748 686.9491 C 646.408 687.13822 642.79726 710.64104 638.55008 739.17901 C 634.30273 767.71679 630.58508 792.58147 630.285 794.43047 L 629.74013 797.7917 L 680.00283 797.7917 L 730.25846 797.7917 L 729.71358 794.43047 C 729.4135 792.58147 725.69568 767.71679 721.44851 739.17901 C 717.20115 710.64104 713.59766 687.13822 713.43818 686.9491 C 713.2787 686.75998 705.6903 684.60147 696.57544 682.1514 L 680.00283 677.69335 z M 680.00283 679.95068 L 695.42908 684.13275 C 703.91443 686.4326 711.09895 688.55843 711.40021 688.85969 C 711.70147 689.16096 715.34357 712.32958 719.48838 740.34659 C 723.63338 768.3636 727.25522 792.30137 727.53409 793.53887 L 728.03651 795.78912 L 680.00283 795.78912 L 631.96207 795.78912 L 632.47156 793.53887 C 632.75043 792.30137 636.3652 768.3636 640.5102 740.34659 C 644.65519 712.32958 648.29711 689.16096 648.59837 688.85969 C 648.89963 688.55843 656.08432 686.4326 664.5695 684.13275 L 680.00283 679.95068 z M 695.66968 713.44263 C 692.00595 713.39167 686.1202 714.07186 676.93173 715.45229 C 668.08672 716.78114 663.27918 716.83488 658.7245 715.67873 C 655.32045 714.81469 652.33378 714.31387 652.08697 714.56068 C 651.84016 714.80749 652.8392 716.50148 654.31599 718.32526 C 656.28175 720.75285 659.03846 721.83298 664.58365 722.3658 L 672.15525 723.09466 L 672.15525 728.94673 L 672.15525 734.80587 L 662.31925 734.02041 L 652.46909 733.22079 L 656.55209 736.73769 C 659.37047 739.16198 662.42481 740.2546 666.40225 740.2546 C 671.79304 740.2546 672.15525 740.51897 672.15525 744.50743 C 672.15525 746.85131 672.51871 749.72101 672.96195 750.87607 C 674.12951 753.91868 659.62875 755.39286 651.07506 753.10509 C 647.46011 752.13818 644.10685 751.74456 643.62376 752.22764 C 642.09099 753.76041 646.39131 759.12103 650.96184 761.37725 C 656.38389 764.05374 654.59203 764.1569 665.26297 760.52809 C 673.42639 757.75219 676.29206 757.53963 693.56803 758.41229 C 714.28167 759.45859 717.38461 758.53757 711.8814 753.03433 C 708.56156 749.7146 704.93257 749.38354 691.30362 751.14497 L 681.97711 752.35501 L 683.03855 746.67985 C 684.49803 738.90024 684.62036 738.78274 691.95464 738.78274 C 696.67685 738.78274 698.44357 738.20329 698.44357 736.6457 C 698.44357 733.52294 693.48015 731.37729 688.54388 732.36456 C 684.63006 733.1472 684.17284 732.81358 683.31452 728.52215 C 681.886 721.3796 681.9698 721.25483 688.12638 721.25483 C 696.1826 721.25483 701.68974 718.9252 701.06887 715.7778 C 700.77053 714.2654 699.33341 713.49359 695.66968 713.44263 z M 700.7009 728.07635 L 704.58577 732.69715 C 706.72174 735.23548 708.89276 738.66774 709.41886 740.32536 C 710.70591 744.3805 716.52528 743.6185 717.13906 739.31345 C 717.64773 735.74593 711.81134 730.87132 704.96081 729.15194 L 700.7009 728.07635 z M 718.27126 760.83945 C 718.27124 760.84845 718.27127 760.85835 718.27126 760.86775 C 718.28026 760.88215 718.29047 760.89581 718.29957 760.91021 C 718.29057 760.88661 718.28106 760.86305 718.27126 760.83945 z "
       transform="matrix(0.41556411,0,0,0.41556411,367.77226,466.25756)" />
    <path
       id="path3000"
       style="fill:#2f2f2f"
       d="M 680.00283 677.84195 L 663.36653 682.27877 C 654.21956 684.7198 646.65189 686.8487 646.54625 687.00571 C 646.44061 687.16272 642.85407 710.9131 638.57838 739.78756 C 634.30269 768.6622 630.56819 793.52653 630.27792 795.03903 L 629.7472 797.7917 L 680.00283 797.7917 L 730.25138 797.7917 L 729.72066 795.03903 C 729.43039 793.52653 725.69589 768.6622 721.4202 739.78756 C 717.14469 710.9131 713.55797 687.16272 713.45233 687.00571 C 713.34669 686.8487 705.77902 684.7198 696.63205 682.27877 L 680.00283 677.84195 z M 680.00283 679.80208 L 695.25218 683.94169 C 703.6395 686.21737 710.85943 688.3984 711.30114 688.78893 C 711.74303 689.17945 715.45892 712.17614 719.55914 739.89371 C 723.65954 767.61128 727.27679 791.53103 727.5907 793.04353 L 728.15681 795.78912 L 680.00283 795.78912 L 631.84178 795.78912 L 632.41495 793.04353 C 632.72886 791.53103 636.33904 767.61128 640.43944 739.89371 C 644.53966 712.17614 648.25555 689.17945 648.69744 688.78893 C 649.13933 688.3984 656.36616 686.21737 664.75348 683.94169 L 680.00283 679.80208 z M 697.52366 712.76331 C 694.96661 712.86277 690.0853 713.72046 680.27173 715.43106 C 670.3677 717.15743 659.40687 716.84865 654.24523 714.70221 C 652.25256 713.8736 651.88794 714.17483 652.60354 716.03962 C 653.90544 719.43233 660.88758 722.72669 666.79144 722.72669 C 671.24564 722.72669 671.8922 723.23006 672.72135 727.3758 C 673.23327 729.93609 673.03611 732.64421 672.28263 733.3977 C 671.52912 734.15111 666.91523 734.48657 662.0362 734.13363 C 657.15702 733.7807 653.16964 733.70701 653.16964 733.97088 C 653.16964 735.76338 663.58557 740.23168 667.77505 740.24045 C 672.83517 740.25067 672.88546 740.32145 672.91949 746.67985 L 672.95487 753.09802 L 665.77246 754.06039 C 661.54316 754.62144 655.67332 754.26132 651.52087 753.19708 C 647.63873 752.20213 644.01295 751.83843 643.46808 752.38331 C 642.01219 753.83921 647.40065 759.35225 652.33464 761.45508 C 655.96848 763.00386 657.83269 762.85036 664.7464 760.41487 C 671.67011 757.97564 675.93652 757.61542 693.33451 758.0231 C 710.74769 758.43112 713.78491 758.17637 713.78491 756.31064 C 713.78491 752.40559 705.09932 749.2387 698.09684 750.59302 C 694.67395 751.25512 689.49152 751.8317 686.59083 751.86675 L 681.32609 751.93043 L 682.83333 745.35658 C 684.32733 738.82777 684.37616 738.78274 690.57477 738.78274 C 694.00658 738.78274 697.27743 738.02366 697.84917 737.09858 C 699.55888 734.33233 693.97889 731.36356 688.86939 732.32211 C 684.49207 733.1433 684.18457 732.89466 682.79088 727.4041 L 681.32609 721.62987 L 690.0582 720.84441 C 699.55599 719.98317 702.26531 718.41304 700.81412 714.63145 C 700.31178 713.32235 700.08069 712.6638 697.52366 712.76331 z M 703.61632 728.90427 C 703.50153 728.91449 703.41542 728.94953 703.36865 728.99626 C 702.99455 729.37036 704.73505 732.70857 707.23937 736.41926 C 711.8205 743.2074 715.3871 744.93595 716.86309 741.0896 C 718.13951 737.7633 715.02217 733.51733 709.32687 730.81486 C 706.7856 729.60895 704.42006 728.82973 703.61632 728.90427 z M 718.27126 760.83945 C 718.27124 760.84845 718.27127 760.85835 718.27126 760.86775 C 718.28026 760.88215 718.29047 760.89581 718.29957 760.91021 C 718.29057 760.88661 718.28106 760.86305 718.27126 760.83945 z "
       transform="matrix(0.41556411,0,0,0.41556411,367.77226,466.25756)" />
    <path
       id="path2998"
       style="fill:#020202"
       d="M 680.00283 677.95517 L 663.87602 682.29292 C 655.0093 684.68031 647.43369 687.01006 647.04159 687.46567 C 646.64948 687.92128 642.85257 711.91793 638.59961 740.79239 C 634.34648 769.66703 630.63777 794.07653 630.36284 795.03903 C 629.89152 796.68903 632.73256 796.79395 680.00283 796.79395 C 727.2731 796.79395 730.10706 796.68907 729.63574 795.03903 C 729.36081 794.07653 725.6521 769.66703 721.39897 740.79239 C 717.14601 711.91793 713.3491 687.92128 712.95699 687.46567 C 712.56489 687.01006 704.98927 684.68031 696.12256 682.29292 L 680.00283 677.95517 z M 680.00283 679.68178 L 695.74752 683.90631 C 704.40984 686.22911 711.63553 688.22981 711.80356 688.3502 C 712.02901 688.51173 727.97425 794.07947 727.99405 795.54145 C 727.99605 795.67895 706.40229 795.78912 680.00283 795.78912 C 653.60337 795.78912 632.00253 795.67895 632.00453 795.54145 C 632.02433 794.07947 647.96957 688.51173 648.19502 688.3502 C 648.36305 688.22981 655.58857 686.22911 664.25107 683.90631 L 680.00283 679.68178 z M 697.29014 712.90484 C 696.88568 712.88834 696.44433 712.89854 695.97396 712.91899 C 693.71612 713.01815 690.68802 713.53298 686.78189 714.47577 C 675.45643 717.20934 661.14205 717.6083 655.09438 715.34615 L 650.98307 713.80352 L 655.02362 717.88653 C 658.31963 721.21868 660.33678 721.96785 666.02721 721.97661 L 673.0044 721.99076 L 673.2733 728.12588 L 673.54928 734.27516 L 663.72035 734.69973 L 653.90557 735.13846 L 658.75281 737.77791 C 661.42008 739.23359 665.03397 740.31565 666.78437 740.17676 C 673.15186 739.67132 673.61296 740.11114 673.61296 746.70815 L 673.61296 753.17586 L 665.53187 754.19484 C 660.42193 754.83329 655.03733 754.52779 650.89108 753.36692 C 647.28273 752.35668 643.93741 751.92115 643.461 752.39747 C 642.98458 752.87387 644.59585 755.25903 647.04159 757.70466 C 652.16367 762.82674 655.92236 763.22383 666.54378 759.74971 C 672.46745 757.81228 677.51291 757.5058 692.48536 758.1717 C 713.43023 759.10321 716.53179 758.33564 711.63373 753.43768 C 708.59768 750.40162 707.61919 750.27528 694.50917 751.25819 C 681.34143 752.24532 680.65036 752.15586 681.42516 749.55989 C 681.87513 748.05223 682.67447 745.01094 683.2013 742.80205 C 684.06372 739.18617 684.77894 738.78274 690.4757 738.78274 C 693.95566 738.78274 697.24896 738.08961 697.7784 737.23303 C 699.39734 734.61355 693.78266 731.71546 688.69248 732.54147 C 684.44285 733.23111 683.89423 732.89424 683.05978 729.10948 C 682.55102 726.802 681.88308 724.09162 681.57376 723.08758 C 681.20476 721.88982 682.62927 721.26067 685.71337 721.25483 C 693.03924 721.24169 701.35899 718.46887 701.35899 716.03962 C 701.35899 714.05795 700.12139 713.02055 697.29014 712.90484 z M 703.82153 728.74859 C 703.11765 728.86601 703.69659 730.08455 705.22971 732.58393 C 706.58456 734.79281 708.57473 738.07229 709.66653 739.87956 C 711.95292 743.66429 715.6696 744.19588 716.92677 740.91977 C 717.93809 738.28434 713.9642 733.4981 708.37865 730.60965 C 706.30342 729.5365 704.94121 728.90116 704.20365 728.76982 C 704.04997 728.74251 703.9221 728.7318 703.82153 728.74859 z M 718.27126 760.83945 C 718.27124 760.84845 718.27127 760.85835 718.27126 760.86775 C 718.28026 760.88215 718.29047 760.89581 718.29957 760.91021 C 718.29057 760.88661 718.28106 760.86305 718.27126 760.83945 z "
       transform="matrix(0.41556411,0,0,0.41556411,367.77226,466.25756)" />
  </g>
</svg>
