<?xml version="1.0" encoding="UTF-8" standalone="no"?>
<!-- Created with Inkscape (http://www.inkscape.org/) -->

<svg
   viewBox="0 0 35.349998 38.720001"
   id="svg2"
   version="1.1"
   inkscape:version="1.3.2 (091e20e, 2023-11-25, custom)"
   sodipodi:docname="Kei.svg"
   xmlns:inkscape="http://www.inkscape.org/namespaces/inkscape"
   xmlns:sodipodi="http://sodipodi.sourceforge.net/DTD/sodipodi-0.dtd"
   xmlns="http://www.w3.org/2000/svg"
   xmlns:svg="http://www.w3.org/2000/svg"
   xmlns:rdf="http://www.w3.org/1999/02/22-rdf-syntax-ns#"
   xmlns:cc="http://creativecommons.org/ns#"
   xmlns:dc="http://purl.org/dc/elements/1.1/">
  <defs
     id="defs4" />
  <sodipodi:namedview
     id="base"
     pagecolor="#ffffff"
     bordercolor="#666666"
     borderopacity="1.0"
     inkscape:pageopacity="0.0"
     inkscape:pageshadow="2"
     inkscape:zoom="14.178719"
     inkscape:cx="17.702587"
     inkscape:cy="19.360001"
     inkscape:document-units="px"
     inkscape:current-layer="layer1"
     showgrid="false"
     inkscape:window-width="1292"
     inkscape:window-height="745"
     inkscape:window-x="-8"
     inkscape:window-y="-8"
     inkscape:window-maximized="1"
     fit-margin-top="0"
     fit-margin-left="0"
     fit-margin-right="0"
     fit-margin-bottom="0"
     inkscape:showpageshadow="0"
     inkscape:pagecheckerboard="1"
     inkscape:deskcolor="#d1d1d1" />
  <metadata
     id="metadata7">
    <rdf:RDF>
      <cc:Work
         rdf:about="">
        <dc:format>image/svg+xml</dc:format>
        <dc:type
           rdf:resource="http://purl.org/dc/dcmitype/StillImage" />
      </cc:Work>
    </rdf:RDF>
  </metadata>
  <g
     inkscape:label="Layer 1"
     inkscape:groupmode="layer"
     id="layer1"
     transform="matrix(0.59281032,0,0,0.59281032,-402.82621,-401.55918)"
     style="display:inline">
    <path
       inkscape:connector-curvature="0"
       id="path3022"
       d="m 704.5814,637.69456 -14.39467,95.96449 86.62058,-0.50507 -14.64721,-95.20688 -30.05204,-8.33376 z"
       style="display:inline;fill:#ffffff;fill-opacity:1;stroke:none"
       transform="matrix(0.46741798,0,0,0.46741798,366.54843,391.46978)" />
    <path
       id="path3010"
       style="fill:#d0d0d0"
       d="m 733.22137,628.06821 -14.619,3.94022 c -8.03898,2.16437 -14.85811,4.17227 -15.1547,4.46887 -0.36758,0.36758 -14.50491,91.82952 -15.19699,98.31524 -0.0147,0.1375 20.2792,0.2467 45.09756,0.2467 H 778.474 l -0.52865,-2.74899 c -0.28774,-1.5125 -3.5706,-23.44918 -7.2954,-48.74879 -3.72481,-25.29974 -7.06939,-46.35596 -7.43638,-46.78926 -0.367,-0.4333 -7.26684,-2.56559 -15.33091,-4.73672 z m 0,3.15077 13.752,3.67237 13.74496,3.67237 6.71036,44.49138 c 3.68971,24.46748 6.72986,45.49536 6.75266,46.73286 l 0.0423,2.25558 H 733.22138 692.2191 l 0.0634,-2.25558 c 0.0318,-1.2375 3.08286,-22.26904 6.78085,-46.73991 l 6.71741,-44.49138 13.72381,-3.66532 z m -17.20587,21.99193 c -3.76831,0 -4.2203,1.71787 -1.13484,4.27856 2.79831,2.32263 2.73085,6.58928 -0.11983,7.68308 -1.23937,0.47559 -4.14254,0.86699 -6.45661,0.86699 -3.84228,0 -4.07366,0.25808 -2.60097,3.0098 1.31217,2.45181 2.51876,2.86755 6.46366,2.22738 2.66649,-0.4327 4.84245,-0.53245 4.84245,-0.22555 0,0.55836 -1.03265,1.7199 -12.60307,14.07624 -9.68234,10.34027 -5.25434,15.05843 5.86452,6.2522 l 5.77288,-4.56756 -0.99387,9.69901 c -0.68904,6.72553 -0.48248,10.32945 0.69078,11.74313 3.43345,4.13679 4.83993,1.00573 5.21603,-11.70084 0.2507,-8.46953 1.1625,-14.20129 2.74195,-17.19882 2.24537,-4.26178 2.54405,-4.38671 5.62486,-2.36836 2.13898,1.40151 4.72738,1.79603 7.57735,1.17008 3.38164,-0.74274 4.3279,-0.45958 4.3279,1.27582 0,2.51275 -5.72907,4.39844 -9.98801,3.28469 -1.5537,-0.40629 -3.161,-0.20525 -3.56664,0.45112 -1.16465,1.88442 5.24092,5.66715 9.60033,5.66715 2.17623,0 3.95432,0.57019 3.95432,1.26876 0,1.77653 -6.80776,3.2986 -10.09374,2.25559 -1.50042,-0.47622 -2.72784,-0.19592 -2.72784,0.62028 0,2.25901 8.05323,5.93071 10.74221,4.89885 1.78063,-0.68331 2.23692,-0.23756 1.83971,1.79037 -0.43872,2.2399 -1.80506,2.69965 -7.98617,2.69965 -8.29646,0 -9.13902,0.95507 -3.88384,4.39839 2.72408,1.78488 5.15189,2.09217 10.33339,1.304 3.72318,-0.56634 11.36299,-0.94684 16.98737,-0.84584 11.12112,0.19979 13.44012,-1.13658 9.24789,-5.32881 -2.20398,-2.20425 -4.10798,-2.57373 -10.20652,-1.98774 -5.9829,0.57488 -7.36493,0.32489 -6.84428,-1.25467 0.35891,-1.08887 3.02503,-2.30788 5.92795,-2.69965 2.90292,-0.39176 5.25606,-1.19567 5.23014,-1.78332 -0.0259,-0.58764 -0.0423,-1.77038 -0.0423,-2.63621 0,-0.97737 -2.16426,-1.37357 -5.70239,-1.03616 -4.71325,0.4495 -5.6883,0.10562 -5.6883,-1.98773 0,-1.94678 1.15571,-2.53048 5.02572,-2.53048 3.29859,0 5.33298,-0.78134 5.90681,-2.27673 1.17973,-3.07435 -2.22617,-5.02489 -7.0205,-4.01776 -6.23331,1.30946 -4.90339,-2.92624 1.40973,-4.49002 3.42048,-0.84735 5.5037,-2.27033 5.82928,-3.97547 0.44094,-2.30949 -0.24832,-2.58436 -5.32177,-2.10051 -5.70193,0.54377 -5.82927,0.4619 -5.82927,-3.88383 0,-6.13095 -4.53678,-9.93208 -11.15104,-9.33952 -1.33254,0.11938 -1.02383,1.27142 1.06435,3.92612 3.88138,4.93439 3.9182,11.41745 0.0705,12.63831 -1.58466,0.50299 -4.83227,0.48873 -7.21787,-0.0352 -3.13644,-0.68887 -5.09992,-0.26528 -7.09099,1.53662 -2.65592,2.4033 -2.74899,2.35831 -2.74899,-1.28991 0,-3.27286 0.58871,-3.78515 4.37724,-3.78515 3.40078,0 4.27408,-0.55159 3.90498,-2.48819 -0.26134,-1.37118 -1.91065,-2.70304 -3.66532,-2.95341 -2.21487,-0.316 -3.19306,-1.43149 -3.19306,-3.63713 0,-4.08225 -2.55269,-6.59758 -6.69626,-6.59758 z m -1.0855,26.21411 c 0.14471,-0.0343 0.27098,-0.003 0.38063,0.10573 0.43861,0.43862 8.7e-4,1.59937 -0.97272,2.56572 -1.40696,1.39648 -1.56256,1.22678 -0.78946,-0.80355 0.40124,-1.05346 0.94739,-1.76472 1.38155,-1.8679 z"
       transform="matrix(0.46741798,0,0,0.46741798,366.54843,391.46978)" />
    <path
       id="path3008"
       style="fill:#afafaf"
       d="m 733.17203,628.26557 -14.72473,3.97547 c -8.09953,2.18956 -14.86987,4.11836 -15.04192,4.28561 -0.17205,0.16725 -3.41539,21.16814 -7.21082,46.66237 -3.79556,25.49435 -7.13409,47.58873 -7.41523,49.10123 l -0.50751,2.74899 h 45.02003 45.02003 l -0.58504,-3.24945 c -0.32156,-1.7875 -3.65337,-23.84346 -7.40113,-49.01664 -3.74776,-25.17331 -7.00949,-45.9747 -7.25311,-46.21831 -0.24362,-0.24362 -7.06898,-2.20402 -15.1688,-4.36314 z m -0.45112,2.81948 14.09739,3.67942 14.10445,3.68647 4.75787,32.04338 c 2.61689,17.62442 5.76103,38.68393 6.98526,46.7963 l 2.22034,14.75292 h -41.63666 -41.63665 l 6.7456,-44.75218 c 3.71016,-24.61211 6.88603,-45.64696 7.05574,-46.74696 0.25594,-1.6589 2.61093,-2.63759 13.8084,-5.73059 z m -16.63493,22.12586 c -3.11991,0 -3.14511,0.11861 -0.89518,4.03891 3.25392,5.67012 1.63682,8.78972 -4.54641,8.78972 -2.76695,0 -5.03277,0.56709 -5.03277,1.25467 0,2.60153 4.11164,4.53176 7.70422,3.63008 2.03377,-0.51045 3.68399,-0.36949 3.66533,0.30309 -0.0187,0.6726 -4.13664,5.63184 -9.14921,11.01712 -8.46225,9.09144 -10.42661,13.70971 -5.82223,13.70971 0.98346,0 4.21072,-1.92093 7.16853,-4.27151 2.95754,-2.35058 5.70455,-4.27856 6.09712,-4.27856 0.39286,0 0.3486,3.98247 -0.0916,8.84612 -0.44104,4.86391 -0.16539,10.0345 0.61324,11.48938 1.12625,2.10443 1.83287,2.29687 3.45386,0.95157 1.47979,-1.22811 2.03707,-5.05829 2.03707,-14.01281 0,-11.57136 0.55099,-13.70763 5.10326,-19.84208 0.19183,-0.2585 1.94,0.559 3.88383,1.83266 2.33626,1.53078 4.83982,1.9997 7.38704,1.3604 3.25704,-0.81748 3.77882,-0.55489 3.34813,1.71283 -0.39395,2.07398 -2.1172,2.84677 -7.5844,3.39747 l -7.07689,0.71192 4.0389,2.62212 c 2.26252,1.47387 5.52802,2.33843 7.43638,1.97363 2.12566,-0.40635 3.40452,0.0331 3.40452,1.14894 0,2.14069 -3.17302,3.51025 -8.1201,3.51025 -3.05573,0 -3.34402,0.33898 -1.84676,2.1428 0.9754,1.17529 3.61693,2.12871 5.87156,2.12871 3.14962,0 4.0953,0.65859 4.0953,2.84767 0,2.51518 -0.95947,2.855 -8.19059,2.88292 l -8.18354,0.0352 3.55255,2.86882 c 3.00409,2.41929 4.67764,2.70108 10.68582,1.80447 3.91736,-0.58469 11.77228,-0.88669 17.45258,-0.67667 9.64782,0.35669 10.33339,0.17988 10.33339,-2.60097 0,-4.06048 -4.79138,-5.55056 -12.32113,-3.82745 -6.68266,1.52895 -8.45825,0.89413 -7.13328,-2.55867 0.56443,-1.47087 2.71255,-2.1992 6.4989,-2.1992 6.31934,0 8.28749,-1.64058 5.11735,-4.27151 -1.34718,-1.11806 -3.94718,-1.3973 -7.22491,-0.7824 -4.43205,0.83152 -5.05732,0.60661 -4.63099,-1.60711 0.32939,-1.71181 2.26197,-2.84467 5.83632,-3.42566 2.93843,-0.47764 5.76773,-1.29886 6.29448,-1.82562 1.91686,-1.91686 -2.54498,-4.3307 -7.40113,-4.00366 -7.50286,0.50532 -6.64844,-3.52719 1.0714,-5.05391 8.35708,-1.65269 8.39123,-5.49199 0.0493,-5.1244 -5.93196,0.26132 -5.99411,0.21808 -5.15964,-3.95432 1.09739,-5.48828 -2.67363,-9.83999 -8.53597,-9.83999 h -4.30676 l 3.20716,3.40453 c 2.29661,2.44464 3.07077,4.75481 2.74194,8.19058 -0.45416,4.74535 -0.52752,4.79312 -7.72537,4.79312 -4.05837,0 -8.28985,0.85239 -9.60738,1.94544 -2.09046,1.7343 -2.36131,1.5376 -2.36131,-1.77627 0,-3.22109 0.60234,-3.73581 4.37724,-3.73581 3.40078,0 4.27408,-0.55159 3.90498,-2.48819 -0.26134,-1.37118 -1.91065,-2.70304 -3.66532,-2.95341 -2.21487,-0.316 -3.19306,-1.43149 -3.19306,-3.63713 0,-4.06154 -2.54402,-6.59758 -6.62578,-6.59758 z m -1.03616,26.17182 c 0.0792,0.0114 0.15177,0.039 0.21147,0.0987 0.47752,0.47752 -0.28973,1.98151 -1.70579,3.33403 -2.46134,2.35089 -2.49831,2.30688 -0.86699,-0.87404 0.82124,-1.60127 1.80682,-2.64174 2.36131,-2.55867 z"
       transform="matrix(0.46741798,0,0,0.46741798,366.54843,391.46978)" />
    <path
       id="path3006"
       style="fill:#8f8f8f"
       d="m 733.22137,628.54047 -14.73178,3.8204 c -8.10408,2.09992 -14.84833,3.92989 -14.98553,4.06709 -0.1372,0.1372 -3.39515,21.37162 -7.23901,47.18398 -3.84399,25.8125 -7.16666,47.94127 -7.37999,49.17877 l -0.38768,2.24853 h 44.83677 44.83676 l -0.50751,-2.74899 c -0.28114,-1.5125 -3.61967,-23.60688 -7.41523,-49.10123 -3.79543,-25.49423 -7.05162,-46.50318 -7.23196,-46.68352 -0.18034,-0.18034 -6.95886,-2.04471 -15.06307,-4.14463 z m 0.0352,2.4459 13.73086,3.63008 c 7.55241,1.99758 13.80993,3.6983 13.90003,3.7781 0.0901,0.0798 3.13222,20.17171 6.7597,44.64645 3.62761,24.47474 6.84798,45.73492 7.16148,47.24742 l 0.57095,2.75604 h -42.15826 -42.15826 l 0.56389,-2.75604 c 0.79508,-3.85944 13.59694,-89.28965 13.59694,-90.73788 0,-0.6834 5.93864,-2.74546 14.01281,-4.87065 z M 716.812,653.21091 c -2.2735,0 -2.70155,0.58194 -1.86791,2.50229 0.59523,1.37117 1.14321,4.09602 1.21943,6.05483 0.12137,3.1168 -0.5334,3.60965 -5.20899,3.99661 -2.93797,0.24319 -5.34291,0.92186 -5.34291,1.50137 0,2.54527 3.5774,4.25387 7.33064,3.50321 2.23633,-0.44727 4.0671,-0.34107 4.0671,0.23965 0,0.58072 -3.91431,5.48001 -8.69809,10.87614 -5.43575,6.13098 -8.39182,10.60792 -7.88044,11.9405 1.25062,3.25907 3.22505,2.61414 9.62147,-3.16487 l 5.86451,-5.30062 -0.36653,9.93162 c -0.2031,5.46213 -0.28128,10.76972 -0.16917,11.80656 0.11212,1.03687 1.32848,1.67833 2.69965,1.41679 2.10347,-0.40122 2.60617,-2.59278 3.20716,-13.99871 0.85813,-16.28622 3.41967,-21.68371 8.58531,-18.06581 2.05836,1.44171 4.80153,1.90846 8.09191,1.37449 4.33112,-0.70282 4.91558,-0.45584 4.46887,1.8961 -0.40875,2.15215 -2.10278,2.85148 -8.33156,3.41862 l -7.82405,0.71192 4.70148,2.55868 c 2.76877,1.51155 5.8923,2.19316 7.60554,1.64939 2.29688,-0.72899 2.80463,-0.37133 2.41066,1.70579 -0.36166,1.90653 -2.00035,2.74851 -5.935,3.07323 -4.53276,0.37407 -5.13887,0.79473 -3.72172,2.50229 0.93348,1.12477 3.5394,2.03707 5.79403,2.03707 3.14962,0 4.0953,0.65859 4.0953,2.84767 0,2.48546 -0.95362,2.85473 -7.44343,2.85473 h -7.43637 l 3.09437,3.09437 c 2.91617,2.91642 3.54038,2.98744 11.03122,1.31106 5.00295,-1.11966 11.35904,-1.41181 17.17062,-0.78945 7.6754,0.82199 9.2338,0.63593 9.2338,-1.13484 0,-4.16872 -3.7756,-5.6009 -12.04623,-4.56756 -7.41574,0.92657 -7.90159,0.80197 -7.90159,-2.02297 0,-2.6157 0.838,-3.01685 6.32973,-3.01685 6.86502,0 9.04727,-1.56521 5.87157,-4.20102 -1.26906,-1.05323 -3.94689,-1.3027 -7.24606,-0.68372 -4.6059,0.86407 -5.17277,0.65976 -4.72263,-1.67759 0.35059,-1.82051 2.19575,-2.92916 5.85747,-3.52435 6.17641,-1.004 7.41669,-1.88177 5.97024,-4.22217 -0.64928,-1.05063 -3.10478,-1.40638 -6.54824,-0.94453 -4.71382,0.63229 -5.51208,0.3444 -5.51208,-1.95249 0,-2.55043 1.60442,-3.31747 9.26199,-4.47592 1.56705,-0.23712 2.84767,-1.38707 2.84767,-2.55163 0,-1.59205 -1.54104,-2.05267 -6.1958,-1.83971 -5.9751,0.27337 -6.15381,0.16456 -5.27243,-3.34813 1.36787,-5.44999 -2.49015,-10.46732 -8.04961,-10.46732 h -4.49002 l 3.20716,3.40453 c 2.29663,2.44465 3.07077,4.75481 2.74194,8.19058 -0.4539,4.74263 -0.52428,4.79394 -7.80291,4.8636 -4.03936,0.0386 -8.37229,0.90871 -9.62147,1.94544 -1.97783,1.64145 -2.26968,1.41578 -2.26968,-1.75512 0,-2.91332 0.77762,-3.7276 3.91203,-4.08825 4.80115,-0.55245 5.46088,-4.77718 0.71897,-4.60984 -2.23603,0.0789 -3.20716,-0.70329 -3.20716,-2.58688 0,-4.39924 -2.73842,-8.21878 -5.89976,-8.21878 z m -1.76218,26.17182 c 0.0792,0.0114 0.15177,0.039 0.21147,0.0987 0.47752,0.47752 -0.28973,1.98151 -1.70579,3.33403 -2.46134,2.35089 -2.49831,2.30688 -0.86699,-0.87404 0.82124,-1.60127 1.80682,-2.64174 2.36131,-2.55867 z"
       transform="matrix(0.46741798,0,0,0.46741798,366.54843,391.46978)" />
    <path
       id="path3004"
       style="fill:#6e6e6e"
       d="m 733.22137,629.04093 c -1.60413,0 -28.61169,6.73244 -29.66092,7.39408 -0.3118,0.19662 -14.33705,94.78797 -14.33705,96.69403 0,1.85877 1.31428,1.9102 44.35745,1.9102 h 44.3645 l -0.38768,-2.24853 c -0.21333,-1.2375 -3.53612,-23.36627 -7.37998,-49.17877 -3.84399,-25.81236 -7.09601,-47.01244 -7.22492,-47.10644 -0.90658,-0.66075 -28.00608,-7.46457 -29.7314,-7.46457 z m 0.0282,1.78332 13.73791,3.69352 c 7.5538,2.03338 13.83686,3.802 13.96347,3.92612 0.12662,0.12411 3.17076,19.99529 6.76675,44.16009 3.596,24.16479 6.80718,45.39648 7.13328,47.18398 l 0.59209,3.2565 h -42.22169 -42.2217 l 0.59914,-3.2565 c 0.8022,-4.35826 13.62513,-89.7137 13.62513,-90.69559 0,-0.42459 6.30437,-2.45589 14.01281,-4.51821 z m -16.28954,22.38666 c -2.96314,0 -3.75994,2.08826 -1.36745,3.56664 0.78353,0.48425 1.41679,2.77073 1.41679,5.07507 0,3.938 -0.33922,4.18692 -5.69535,4.18692 -5.61644,0 -7.3556,1.65486 -3.95431,3.75696 0.95698,0.59145 3.51822,0.9342 5.69534,0.76831 2.17712,-0.16588 3.95432,0.14407 3.95432,0.67667 0,0.53257 -3.90666,5.36684 -8.68399,10.74222 -5.34714,6.01649 -8.36988,10.5762 -7.8734,11.87 1.19384,3.11084 2.59554,2.63898 9.31838,-3.11552 l 6.09712,-5.20899 -0.29604,9.83998 c -0.16312,5.41479 -0.22762,10.69219 -0.14098,11.72903 0.0869,1.03687 1.27914,1.67833 2.65031,1.41679 2.10347,-0.40122 2.60617,-2.59278 3.20716,-13.99871 0.50901,-9.66035 1.42095,-14.519 3.19306,-17.02261 1.93931,-2.73983 2.84675,-3.12349 4.19398,-1.77627 0.94749,0.9475 4.53163,1.71989 7.95798,1.71989 5.16436,0 6.15164,0.42166 5.75878,2.48819 -0.36796,1.93553 -2.17661,2.59357 -8.09895,2.93225 -6.91374,0.39537 -7.37628,0.62314 -4.96933,2.4459 1.46067,1.10631 5.09624,2.04034 8.0919,2.06527 4.40517,0.0366 5.35921,0.52122 4.97638,2.53753 -0.34063,1.79406 -2.26835,2.69477 -6.87248,3.21421 -5.94433,0.67064 -6.1755,0.84254 -3.28469,2.48819 1.71142,0.97418 4.43626,1.76922 6.05483,1.76922 1.61856,0 2.93931,0.27147 2.93931,0.59914 0,0.32768 0.37193,1.57895 0.83174,2.77719 0.68113,1.775 -0.69725,2.25692 -7.47162,2.60801 l -8.31041,0.42998 3.88383,2.64326 c 3.46834,2.35267 4.68769,2.44411 11.1158,0.90223 4.51302,-1.08266 10.66142,-1.35569 16.40936,-0.74011 7.5503,0.80857 9.19151,0.60567 9.19151,-1.0996 0,-4.03225 -3.64223,-5.37346 -11.9405,-4.39839 -7.46093,0.8769 -8.00732,0.74539 -8.00732,-2.01592 0,-2.46793 1.0129,-3.03972 6.05483,-3.40453 4.23738,-0.30658 6.05483,-1.07723 6.05483,-2.57277 0,-1.63518 -1.42175,-2.03073 -6.05483,-1.68464 -5.19338,0.38797 -6.05483,0.0537 -6.05483,-2.31197 0,-2.14956 1.28207,-2.92335 5.81518,-3.5314 6.63656,-0.89016 7.70857,-1.56529 6.24514,-3.93317 -0.65324,-1.05689 -3.10934,-1.40913 -6.62577,-0.93748 -5.10855,0.68522 -5.56031,0.48632 -5.15965,-2.32607 0.31894,-2.23873 1.60298,-3.21649 4.70853,-3.56664 2.35058,-0.2652 5.06996,-1.13542 6.04074,-1.93839 3.07739,-2.54545 0.25216,-4.33276 -5.42045,-3.42567 l -5.4416,0.87404 -0.44407,-6.03369 c -0.371,-5.10628 -1.03516,-6.24265 -4.3279,-7.39408 -4.88153,-1.70687 -6.5418,-0.21389 -3.5032,3.14372 1.27615,1.41015 2.50002,4.77754 2.7208,7.48572 l 0.40177,4.92704 -7.11918,0.0705 c -3.91763,0.04 -8.57046,0.8589 -10.33339,1.82562 -2.94349,1.61452 -3.20011,1.46982 -3.20011,-1.84676 0,-2.8791 0.70289,-3.61598 3.47501,-3.61598 1.91257,0 3.82804,-0.56698 4.25741,-1.26172 1.23611,-2.00006 -2.84567,-4.5888 -5.58257,-3.53845 -2.02158,0.77575 -2.30796,0.39428 -1.52956,-2.05822 1.26495,-3.98527 -1.4456,-8.81792 -4.94819,-8.81792 z m -0.63438,24.14884 c 0.41861,0.0233 0.68372,0.42895 0.68372,1.28286 0,0.6621 -1.32784,2.40659 -2.96045,3.88383 -2.96069,2.67962 -2.9663,2.6821 -1.19828,-1.19827 1.04957,-2.30357 2.40907,-3.79608 3.28469,-3.95432 0.0657,-0.0119 0.13052,-0.0174 0.19032,-0.0141 z"
       transform="matrix(0.46741798,0,0,0.46741798,366.54843,391.46978)" />
    <path
       id="path3002"
       style="fill:#4e4e4e"
       d="m 733.22137,628.73079 -14.53442,3.79924 c -7.99196,2.09026 -14.70925,4.09195 -14.92914,4.44773 -0.4527,0.73249 -14.53441,94.31324 -14.53441,96.5883 0,1.27453 5.91736,1.47318 43.99797,1.47318 42.68701,0 43.99797,-0.0517 43.99797,-1.9102 0,-1.91537 -14.02816,-96.50542 -14.33706,-96.67288 -0.0899,-0.0488 -6.79562,-1.80615 -14.90799,-3.90498 z m -0.50046,2.04412 13.34318,3.38337 c 7.3384,1.86098 13.77751,3.64808 14.30886,3.97547 0.53136,0.3274 3.86041,20.13268 7.39408,44.00502 3.5338,23.87222 6.69526,45.09328 7.02755,47.15578 l 0.59914,3.74991 h -42.08777 c -23.14809,0 -42.08777,-0.25065 -42.08777,-0.55685 0,-1.635 14.11232,-93.88947 14.40754,-94.18469 0.19274,-0.19274 6.36908,-1.96617 13.72381,-3.94022 z m -16.46576,22.64041 c -2.35854,0.12437 -2.95459,1.94592 -0.66258,3.36223 0.78353,0.48425 1.41679,2.77073 1.41679,5.07507 0,3.57968 -0.57161,4.21186 -3.91907,4.35609 -2.1547,0.0929 -4.78111,0.0476 -5.84337,-0.0987 -1.06252,-0.14626 -1.6506,0.58155 -1.31106,1.61415 0.33955,1.03283 2.96571,2.07584 5.84337,2.31902 2.87766,0.24319 5.23013,0.83119 5.23013,1.30401 0,0.47282 -3.90666,5.26108 -8.68399,10.63649 -5.48205,6.16827 -8.37308,10.56146 -7.85225,11.91934 0.72462,1.88826 1.30129,1.90462 4.76492,0.11278 2.17038,-1.12224 5.17025,-3.3855 6.66102,-5.03277 1.49075,-1.64727 3.08633,-3.00132 3.55254,-3.00274 0.46621,-10e-4 0.63617,5.12769 0.38063,11.39774 -0.38386,9.41815 -0.084,11.39774 1.69169,11.39774 3.14164,0 4.14981,-4.77175 3.03799,-14.35114 -0.8152,-7.02343 -0.48394,-9.40213 1.95248,-14.07625 2.21862,-4.257 2.42633,-5.43215 0.8529,-4.82836 -1.49772,0.57482 -2.07937,-0.25229 -2.07937,-2.9534 0,-3.03088 0.82656,-3.91522 4.29971,-4.60985 3.47586,-0.69498 3.98405,-1.23356 2.65031,-2.84063 -0.90673,-1.09246 -2.80115,-1.62367 -4.20808,-1.17713 -2.11015,0.66974 -2.6347,-0.14025 -3.00274,-4.6028 -0.35958,-4.35954 -1.075,-5.49059 -3.65827,-5.85747 -0.40546,-0.0575 -0.77677,-0.0812 -1.1137,-0.0634 z m 22.31618,2.78424 c -1.62854,0.15642 -1.71403,1.39467 0.23965,3.34813 2.53411,2.53412 4.47184,10.01444 3.15077,12.15196 -0.49606,0.80264 -4.14597,1.46612 -8.11305,1.46612 -6.46249,0 -7.01595,0.23364 -5.31472,2.28378 1.40488,1.69273 3.50743,2.10895 8.08486,1.59301 5.6788,-0.64011 6.15657,-0.449 5.75878,2.34017 -0.36344,2.54821 -1.53985,3.1073 -7.30245,3.475 -5.80058,0.37013 -6.61281,0.76833 -5.17374,2.50229 0.95874,1.15522 4.16587,2.04412 7.33064,2.04412 4.59073,0 5.54576,0.46877 5.15965,2.50229 -0.34063,1.79406 -2.26835,2.69477 -6.87248,3.21421 -5.94433,0.67064 -6.17552,0.84254 -3.28469,2.48819 1.71142,0.97418 4.75642,1.76922 6.76675,1.76922 2.70516,0 3.65122,0.73881 3.65122,2.84767 0,2.51336 -0.96495,2.86218 -8.19058,2.90407 l -8.18354,0.0423 3.46091,2.88997 c 2.60391,2.16737 4.39425,2.60132 7.13328,1.75512 2.00836,-0.62045 9.21012,-1.14074 16.01464,-1.17008 13.25907,-0.0573 15.44658,-0.80699 12.55373,-4.29266 -1.46438,-1.76449 -3.54107,-2.01891 -10.17127,-1.26876 -7.78424,0.88068 -8.33861,0.74758 -8.33861,-2.00888 0,-2.45365 1.02143,-3.03328 6.05483,-3.39748 4.23738,-0.30658 6.05483,-1.07723 6.05483,-2.57277 0,-1.63518 -1.42175,-2.03073 -6.05483,-1.68464 -5.21129,0.38931 -6.05483,0.0699 -6.05483,-2.32607 0,-2.21231 1.33603,-2.98275 6.4989,-3.75695 8.29694,-1.24424 7.75699,-4.45254 -0.68372,-4.06005 -5.42082,0.25208 -5.95715,-0.0171 -5.55438,-2.84768 0.32575,-2.28926 1.59454,-3.26328 4.72263,-3.61598 2.35058,-0.2652 5.10883,-1.16821 6.12532,-2.00888 2.80954,-2.32425 -0.82826,-4.0617 -6.38612,-3.04504 -4.4861,0.82057 -4.55086,0.76645 -4.99048,-5.32881 -0.37898,-5.25451 -1.02938,-6.37668 -4.342,-7.53506 -1.18329,-0.41374 -2.17608,-0.63604 -2.96045,-0.69782 -0.29413,-0.0232 -0.5568,-0.0224 -0.78945,0 z m -22.24569,21.18838 c 0.0621,-0.002 0.11481,-5e-4 0.16917,0.0141 0.3261,0.0873 0.51455,0.47466 0.51455,1.20533 0,0.64694 -1.69681,2.73147 -3.7781,4.63099 l -3.78515,3.45387 2.66441,-4.631 c 1.57376,-2.73252 3.09821,-4.40312 4.01775,-4.64509 0.069,-0.0182 0.13531,-0.0266 0.19737,-0.0282 z"
       transform="matrix(0.46741798,0,0,0.46741798,366.54843,391.46978)" />
    <path
       id="path3000"
       style="fill:#2f2f2f"
       d="m 733.27071,628.77308 -14.65424,3.88383 c -8.05727,2.13457 -14.8017,4.33301 -14.99258,4.88475 -0.40074,1.15831 -14.40049,94.95581 -14.40049,96.48257 0,0.67031 14.91929,1.01501 43.99797,1.01501 38.08048,0 43.99797,-0.19865 43.99797,-1.47318 0,-3.47463 -14.19748,-96.08257 -14.81637,-96.64469 -0.37572,-0.34126 -7.08353,-2.31424 -14.90799,-4.38429 z m -0.0423,2.26968 c 2.21884,0 26.88974,6.56128 27.69434,7.36589 0.47619,0.47619 14.23126,90.41913 14.28066,93.38114 0.0163,0.98049 -9.0381,1.25467 -41.98204,1.25467 -23.64778,0 -42.00319,-0.39058 -42.00319,-0.88814 0,-2.08776 13.93287,-93.37875 14.30885,-93.75472 0.73227,-0.73227 25.67769,-7.35884 27.70138,-7.35884 z m -17.52306,22.10471 c -1.29082,0.0524 -1.0625,2.01839 0.75421,5.66011 2.78739,5.58744 1.52195,7.29664 -5.65305,7.66898 -6.71347,0.34841 -5.82407,3.12257 1.00091,3.12257 3.0346,0 5.2025,0.69813 5.20194,1.67055 -5.1e-4,0.91849 -3.82597,5.72787 -8.50778,10.68582 -4.68158,4.95797 -8.53069,9.81215 -8.55007,10.79156 -0.0617,3.1258 4.8969,1.91986 9.98801,-2.4318 2.71251,-2.3185 5.34594,-4.2468 5.84337,-4.27856 0.49741,-0.0318 0.56687,4.07157 0.16212,9.11396 -0.40471,5.04216 -0.35104,10.17194 0.11983,11.39775 1.02146,2.66186 3.72806,2.96852 3.98956,0.45111 0.10172,-0.97941 0.0362,-7.0002 -0.14097,-13.37138 -0.19946,-7.169 0.27162,-11.94515 1.23352,-12.53963 0.85481,-0.52831 2.24733,-2.25177 3.09438,-3.83449 1.40507,-2.62541 1.27353,-2.74205 -1.46613,-1.27581 -2.79447,1.49555 -2.94002,1.32568 -2.05117,-2.38951 1.37017,-5.72678 1.75367,-6.12532 5.80812,-6.12532 2.96461,0 3.34246,-0.37237 2.00183,-1.98773 -0.90828,-1.0944 -2.85912,-1.67064 -4.342,-1.28287 -2.1791,0.56985 -2.78859,-0.18715 -3.15781,-3.92612 -0.25126,-2.54435 -1.54933,-5.30459 -2.88292,-6.13942 -0.90826,-0.56858 -1.63327,-0.89329 -2.16395,-0.96567 -0.0994,-0.0142 -0.19589,-0.0175 -0.28195,-0.0141 z m 22.67566,2.96751 c -1.71914,0.0278 -1.47031,0.39772 0.67668,2.77013 1.40331,1.55064 2.62976,5.22348 2.72079,8.18354 l 0.16212,5.38521 -7.8311,0.71191 c -7.45012,0.67731 -7.67435,0.80291 -4.44068,2.64327 2.00016,1.13835 5.38021,1.62027 8.19764,1.16303 4.34005,-0.70405 4.78606,-0.45273 4.78606,2.6926 0,3.2274 -0.51169,3.47501 -7.2954,3.47501 -6.32506,0 -7.06333,0.27655 -5.52618,2.12871 1.01844,1.22714 4.13023,2.13575 7.30245,2.13575 4.57421,0 5.51913,0.4954 5.51913,2.85473 0,2.44428 -0.94214,2.84767 -6.67511,2.84767 -6.182,0 -6.48416,0.15867 -3.92613,2.09346 1.52093,1.15036 4.53452,2.11083 6.68922,2.13576 2.95279,0.0342 3.91202,0.74248 3.91202,2.88996 0,2.87966 -2.81434,3.53469 -12.82158,2.96751 l -3.55254,-0.20442 3.47501,2.9957 c 2.32708,1.99828 4.45429,2.66703 6.41431,2.03002 1.61203,-0.52385 9.17906,-1.28895 16.81819,-1.69168 7.63938,-0.40273 13.89299,-1.16305 13.89299,-1.69874 0,-3.09615 -3.89264,-4.24294 -11.64445,-3.43271 -7.81384,0.81673 -8.30337,0.68508 -8.30337,-2.1851 0,-2.48923 0.85497,-3.05543 4.631,-3.07323 5.49947,-0.0259 8.93547,-1.89306 7.5703,-4.10234 -0.61457,-0.99441 -3.06669,-1.23904 -6.58349,-0.67668 -4.97054,0.79482 -5.61781,0.56381 -5.61781,-1.97363 0,-2.94609 3.42499,-4.56591 9.73425,-4.6028 2.03882,-0.0114 3.08471,-0.70507 2.69965,-1.79742 -0.38828,-1.10086 -2.88594,-1.67517 -6.53414,-1.50842 -5.34025,0.24407 -5.89976,-0.0556 -5.89976,-3.12258 0,-2.8879 0.7909,-3.45066 5.34292,-3.82744 3.60241,-0.29814 5.34291,-1.13886 5.34291,-2.57982 0,-1.59387 -1.35831,-2.03856 -5.34291,-1.72693 -5.28158,0.41309 -5.34292,0.36624 -5.34292,-4.82131 0,-5.58837 -2.88862,-8.99838 -7.69717,-9.07872 -0.32664,-0.006 -0.60731,-0.004 -0.8529,0 z m -22.1752,21.39279 c 0.51166,0.0496 0.80355,0.67317 0.80355,1.90315 0,1.08517 -1.68027,3.07026 -3.72876,4.41249 l -3.71466,2.43884 2.60097,-4.41248 c 1.72431,-2.91902 3.18615,-4.4247 4.0389,-4.342 z"
       transform="matrix(0.46741798,0,0,0.46741798,366.54843,391.46978)" />
    <path
       id="path2998"
       style="fill:#030303"
       d="m 732.72091,628.98454 -14.47803,3.86269 -14.47802,3.86268 -6.71036,44.9143 c -3.68926,24.70274 -6.96504,46.60171 -7.2813,48.66421 l -0.578,3.74991 h 44.01207 c 24.20611,0 44.01207,-0.20601 44.01207,-0.46522 0,-1.17926 -14.09767,-95.14537 -14.40754,-96.03145 -0.19235,-0.55 -7.03906,-2.70167 -15.21814,-4.77902 z m 0.50046,1.60005 13.63218,3.47501 c 10.7375,2.74097 13.80847,3.90847 14.46392,5.48389 0.76778,1.84541 13.90708,88.82507 13.90708,92.06304 0,1.22632 -6.1562,1.43793 -42.00318,1.43793 -32.92809,0 -42.00324,-0.27466 -42.01024,-1.25467 -0.0209,-2.87427 13.21719,-90.41577 13.94937,-92.2463 0.63283,-1.58215 3.64529,-2.73121 14.42869,-5.48389 z m -16.63493,22.97876 c -0.32266,0.0348 -0.64413,0.14123 -0.95157,0.33129 -0.99975,0.61788 -0.78378,1.96587 0.64848,4.0107 3.72583,5.31915 2.74439,7.78464 -3.53845,8.84612 -7.03034,1.18781 -7.66805,4.103 -0.71897,3.29174 3.25719,-0.38029 4.98343,0.0154 4.98343,1.13484 0,1.79314 -6.48769,9.86616 -13.17401,16.39527 -8.35882,8.16175 -2.47008,9.62006 7.11918,1.76218 l 6.34383,-5.20194 -1.01501,10.78451 c -0.55554,5.92798 -0.58019,11.47321 -0.0564,12.32112 2.49319,4.03409 3.63712,0.44757 3.63712,-11.41889 0,-10.94518 0.47879,-13.65669 3.08029,-17.45258 1.69385,-2.47128 2.20187,-3.69315 1.13484,-2.71375 -2.76176,2.53471 -4.21513,2.20645 -4.21513,-0.95157 0,-4.89442 1.66475,-7.23901 5.1385,-7.23901 1.87498,0 3.40453,-0.64031 3.40453,-1.42384 0,-0.78352 -1.59373,-1.43088 -3.55255,-1.43088 -2.97379,0 -3.56664,-0.67239 -3.56664,-4.0953 0,-3.84891 -2.44286,-7.19321 -4.70148,-6.95001 z m 22.27388,2.4459 c -1.18517,0.0544 -1.06455,1.38467 0.84585,3.81334 1.65824,2.10843 2.94635,5.85021 2.94635,8.54302 v 4.80016 l -8.19058,0.0423 c -7.66045,0.0423 -8.00742,0.19236 -5.34292,2.24148 1.96108,1.50816 4.52061,1.92375 8.19764,1.35335 4.91952,-0.76315 5.33586,-0.56246 5.33586,2.58687 0,2.75444 -0.92409,3.6034 -4.78606,4.3279 -2.63692,0.49481 -6.00232,0.51355 -7.47867,0.0423 -2.55494,-0.8158 -2.5548,-0.74919 0.0775,1.39564 1.52092,1.23925 4.88632,2.24853 7.47866,2.24853 3.76406,0 4.70853,0.57959 4.70853,2.85473 0,2.38843 -0.9485,2.84767 -5.87156,2.84767 -5.05852,0 -5.62293,0.30236 -4.09529,2.1428 0.9754,1.17529 3.61717,2.12871 5.87156,2.12871 3.11795,0 4.09529,0.6733 4.09529,2.79128 0,3.17519 -7.3764,5.2579 -13.05418,3.68647 -3.15902,-0.87427 -3.19143,-0.8178 -0.66963,1.20533 2.17094,1.74147 5.82181,1.9821 19.94076,1.30401 9.50728,-0.45661 17.61889,-1.11834 18.00943,-1.46613 0.39052,-0.34779 -0.46983,-1.48241 -1.90315,-2.53048 -1.78886,-1.30805 -5.03442,-1.66061 -10.33339,-1.1137 -7.18675,0.7415 -7.71128,0.58939 -7.71128,-2.24853 0,-2.35162 0.89699,-3.0806 3.91908,-3.15782 2.1547,-0.055 5.15327,-0.57679 6.66807,-1.17008 4.01497,-1.57228 0.0545,-3.69499 -5.93501,-3.17896 -3.81218,0.32845 -4.65214,-0.10333 -4.65214,-2.40361 0,-3.0434 2.58681,-4.53231 7.86635,-4.53231 1.84849,0 3.72345,-0.59804 4.17283,-1.32516 1.17202,-1.89637 -4.02865,-3.23688 -8.35976,-2.14985 -3.25545,0.81708 -3.67942,0.4936 -3.67942,-2.79128 0,-3.09848 0.65216,-3.71758 3.91908,-3.73581 2.1547,-0.0114 4.87978,-0.65232 6.05483,-1.42384 3.35379,-2.20164 -0.90248,-4.20133 -5.89271,-2.77014 -3.99311,1.1452 -4.0812,1.04734 -4.0812,-4.34904 0,-4.08736 -0.82669,-6.08977 -3.17191,-7.73243 -2.2722,-1.59149 -3.97728,-2.31905 -4.89885,-2.27672 z m -22.58402,20.50466 c 0.52097,0.0235 0.73796,0.77845 0.50045,2.37541 -0.26178,1.75987 -2.00794,4.2206 -3.87678,5.45569 l -3.39042,2.23444 2.31902,-4.47593 c 1.86986,-3.61588 3.57968,-5.62878 4.44773,-5.58961 z"
       transform="matrix(0.46741798,0,0,0.46741798,366.54843,391.46978)" />
  </g>
</svg>
