<?xml version="1.0" encoding="UTF-8" standalone="no"?>
<!-- Created with Inkscape (http://www.inkscape.org/) -->

<svg
   viewBox="0 0 35.349998 38.720001"
   id="svg2"
   version="1.1"
   inkscape:version="1.3.2 (091e20e, 2023-11-25, custom)"
   sodipodi:docname="Hi.svg"
   xmlns:inkscape="http://www.inkscape.org/namespaces/inkscape"
   xmlns:sodipodi="http://sodipodi.sourceforge.net/DTD/sodipodi-0.dtd"
   xmlns="http://www.w3.org/2000/svg"
   xmlns:svg="http://www.w3.org/2000/svg"
   xmlns:rdf="http://www.w3.org/1999/02/22-rdf-syntax-ns#"
   xmlns:cc="http://creativecommons.org/ns#"
   xmlns:dc="http://purl.org/dc/elements/1.1/">
  <defs
     id="defs4" />
  <sodipodi:namedview
     id="base"
     pagecolor="#ffffff"
     bordercolor="#666666"
     borderopacity="1.0"
     inkscape:pageopacity="0.0"
     inkscape:pageshadow="2"
     inkscape:zoom="14.178719"
     inkscape:cx="17.702587"
     inkscape:cy="19.360001"
     inkscape:document-units="px"
     inkscape:current-layer="layer1"
     showgrid="false"
     fit-margin-top="0"
     fit-margin-left="0"
     fit-margin-right="0"
     fit-margin-bottom="0"
     inkscape:window-width="1292"
     inkscape:window-height="745"
     inkscape:window-x="-8"
     inkscape:window-y="-8"
     inkscape:window-maximized="1"
     inkscape:showpageshadow="0"
     inkscape:pagecheckerboard="1"
     inkscape:deskcolor="#d1d1d1" />
  <metadata
     id="metadata7">
    <rdf:RDF>
      <cc:Work
         rdf:about="">
        <dc:format>image/svg+xml</dc:format>
        <dc:type
           rdf:resource="http://purl.org/dc/dcmitype/StillImage" />
      </cc:Work>
    </rdf:RDF>
  </metadata>
  <g
     inkscape:label="Layer 1"
     inkscape:groupmode="layer"
     id="layer1"
     transform="matrix(0.6413123,0,0,0.6413123,-415.26265,-493.54915)"
     style="display:inline">
    <path
       sodipodi:nodetypes="cccccccccccccc"
       inkscape:connector-curvature="0"
       id="path3022"
       d="m 696.85542,712.77682 c -8.0021,2.15083 -16.15596,3.93141 -23.91221,6.82642 -1.41033,0.59863 -0.88901,2.59943 -1.38107,3.78808 -5.59174,32.70098 -10.02622,65.63941 -15.34169,98.37938 -0.47746,1.29025 1.42361,1.0467 2.16995,1.10937 20.07722,0.27002 40.15949,0.0469 60.23849,0.0272 9.71727,-0.12238 19.44689,0.081 29.15626,-0.30819 1.8744,0.0419 0.23817,-2.53151 0.43367,-3.64122 -4.65441,-30.65938 -9.01052,-61.38387 -14.04635,-91.97253 -0.58627,-2.42934 -0.61485,-5.13082 -1.73285,-7.36634 -4.52038,-1.96014 -9.47828,-2.81948 -14.20071,-4.26062 -5.16637,-1.37973 -10.32687,-2.82773 -15.51987,-4.07314 -1.95454,0.49718 -3.90908,0.99437 -5.86362,1.49155 z"
       style="display:inline;fill:#ffffff;fill-opacity:1;stroke:none"
       transform="matrix(0.43187989,0,0,0.43187989,371.56774,468.57446)" />
    <path
       id="path3010"
       style="fill:#cfcfcf"
       d="M 702.45752 709.01105 L 686.3513 713.34789 C 677.49182 715.73318 670.12088 717.81627 669.97712 717.98089 C 669.83336 718.1455 666.28431 741.45842 662.0862 769.78312 C 657.88795 798.10767 654.27118 822.06845 654.05424 823.03095 C 653.68276 824.67915 656.51301 824.77979 702.5915 824.77979 L 751.51661 824.77979 L 751.00888 822.53028 C 750.73102 821.29278 747.08232 797.33199 742.89936 769.28244 C 738.7164 741.23289 735.13864 718.12263 734.95203 717.93153 C 734.76543 717.74042 727.37837 715.65747 718.53553 713.29852 L 702.45752 709.01105 z M 702.75369 712.16319 L 717.36494 716.07692 C 725.40122 718.22883 732.1296 720.1339 732.32172 720.31502 C 732.62598 720.60185 747.42625 819.05371 747.46185 821.02825 C 747.46885 821.44075 727.22837 821.78279 702.47867 821.78279 C 677.72912 821.78279 657.47435 821.5221 657.47435 821.20455 C 657.47435 820.14715 672.60441 720.31796 672.79077 720.14578 C 672.89157 720.05268 679.67901 718.21859 687.86743 716.06986 L 702.75369 712.16319 z M 709.74199 733.70631 C 708.56422 733.76945 706.93739 734.44195 703.94544 735.76543 C 700.45647 737.30882 694.82221 738.62344 691.41446 738.69191 C 684.29298 738.83485 683.77221 739.87106 688.82647 743.84674 C 693.28822 747.35649 694.25291 747.35705 700.63111 743.93842 C 703.44173 742.43203 706.36985 741.20939 707.12578 741.20939 C 707.8817 741.20939 708.49383 744.01087 708.49383 747.43609 C 708.49383 752.41176 709.22343 754.33642 712.11843 757.01943 C 714.99199 759.68255 717.20927 760.37607 722.81595 760.37607 C 726.82031 760.37607 731.03477 759.52408 732.54032 758.40863 C 735.03062 756.56359 735.04699 756.32594 732.8506 754.64299 C 731.56109 753.65492 729.95555 751.3005 729.27536 749.41763 C 728.04435 746.00979 728.03662 746.01521 727.047 750.51771 C 726.09862 754.83244 725.78531 755.02463 720.43951 754.62889 C 715.58981 754.26975 714.6958 753.69356 713.8038 750.33436 C 712.25752 744.51137 713.58972 742.77032 719.90357 742.30946 C 724.03018 742.00825 725.71596 741.22687 726.04565 739.48876 C 726.60633 736.5329 722.99793 736.3273 717.83035 739.02334 C 715.17628 740.40809 714.33535 740.48311 714.7981 739.2772 C 715.15033 738.35926 714.28785 736.5593 712.87297 735.27886 C 711.65969 734.18086 710.91975 733.64317 709.74199 733.70631 z M 722.99929 745.39813 C 721.60629 745.48044 719.87716 746.355 717.89382 748.00728 L 714.65706 750.70106 L 718.76824 750.72221 C 723.72402 750.75193 726.99529 748.92078 725.70717 746.83669 C 725.18148 745.98611 724.46434 745.51175 723.57754 745.41224 C 723.39279 745.39156 723.19832 745.38635 722.99929 745.39813 z M 698.69188 746.68155 C 696.02258 746.68155 695.21972 750.04123 697.54244 751.47675 C 699.4747 752.67095 699.2482 765.4818 697.27448 766.7015 C 696.37743 767.2559 695.39098 766.94628 695.08138 766.01748 C 694.77177 765.08866 693.30224 763.19888 691.81641 761.81463 C 689.47384 759.6322 689.3563 758.91114 690.92084 756.40593 C 693.27863 752.63051 691.0639 748.89467 686.11859 748.30346 C 682.79852 747.90655 682.56584 748.19023 683.29789 751.85049 C 683.98542 755.28815 683.30218 756.51644 678.24883 760.84149 C 673.17347 765.1858 672.80114 765.85529 675.44928 765.85529 C 677.12865 765.85529 680.39751 764.87005 682.71964 763.66924 C 686.2083 761.86512 687.15717 761.80953 688.12129 763.33076 C 691.58575 768.79712 688.10004 771.52759 674.37036 774.08469 C 665.45689 775.74482 664.54993 776.43846 668.02378 778.97861 C 671.55251 781.55889 675.17648 781.36777 681.78176 778.24523 C 684.79019 776.82293 687.4832 775.87946 687.76165 776.15791 C 688.0401 776.43634 686.98005 778.75217 685.40636 781.29864 C 682.357 786.23262 676.8861 789.53697 673.75686 788.3363 C 671.32382 787.40261 669.38647 794.38841 671.49324 796.49518 C 672.56489 797.56683 674.70991 797.0607 679.16556 794.69698 C 686.34247 790.8897 691.7396 785.00978 692.83187 779.78956 C 693.84401 774.95224 695.30858 772.30008 697.3591 771.61657 C 698.60373 771.20169 698.92912 773.659 698.62841 781.1294 C 698.24958 790.54058 698.02061 791.18522 695.166 791.08648 C 691.94335 790.97487 692.06018 791.32457 697.3873 797.74334 C 698.50436 799.08933 700.38582 800.01356 701.56195 799.78835 C 703.32081 799.45156 703.77505 796.63653 704.09353 783.97831 C 704.40647 771.54011 704.86012 768.59842 706.48407 768.59842 C 707.96912 768.59842 708.49383 770.29791 708.49383 775.1213 C 708.49383 787.26633 715.08929 794.29949 726.68736 794.53479 C 732.84047 794.65955 739.99403 791.05833 739.99403 787.83562 C 739.99403 786.29091 739.3921 785.02902 738.6542 785.02902 C 737.91631 785.02902 736.05183 782.56259 734.51482 779.5498 C 732.97781 776.53714 731.54775 774.07059 731.32742 774.07059 C 731.10712 774.07059 730.95566 777.0018 731.00304 780.57936 C 731.08891 787.06921 731.08139 787.08715 726.19374 787.49714 C 718.13593 788.17304 714.69867 784.3153 714.43141 774.26804 C 714.15667 763.93993 713.38059 762.62135 708.14124 763.66924 L 704.01596 764.4943 L 704.89038 758.09835 C 705.85306 751.07483 703.46529 746.68155 698.69188 746.68155 z M 725.74948 765.17832 C 722.62291 765.26158 716.71618 768.23843 716.71618 770.06519 C 716.71618 771.34622 725.33284 770.54991 728.0131 769.02153 C 729.72481 768.04545 729.16081 766.19002 726.89187 765.31935 C 726.58434 765.20131 726.19613 765.16642 725.74948 765.17832 z M 724.32503 774.56421 C 723.40269 774.55038 722.40317 774.65056 721.39854 774.90269 C 717.51749 775.87681 717.06925 777.70703 720.48182 778.63307 C 724.21107 779.64511 728.08906 779.02719 728.64775 777.3285 C 729.16965 775.74165 727.0919 774.60587 724.32503 774.56421 z "
       transform="matrix(0.43187989,0,0,0.43187989,371.56774,468.57446)" />
    <path
       id="path3008"
       style="fill:#b0b0b0"
       d="M 702.44342 709.32133 L 693.71334 711.55674 C 688.90943 712.78765 681.59736 714.71379 677.46608 715.83716 L 669.95596 717.88217 L 662.19197 770.07929 C 657.92175 798.7889 654.43504 822.84413 654.44914 823.53163 C 654.46934 824.51404 664.82467 824.77979 702.82421 824.77979 L 751.17812 824.77979 L 750.43064 820.03395 C 750.02053 817.4216 746.42273 793.45362 742.43394 766.77907 C 738.4453 740.10437 734.8322 718.05844 734.40904 717.78344 C 733.98588 717.50844 726.62116 715.48787 718.04191 713.29852 L 702.44342 709.32133 z M 702.5633 711.96574 L 717.2239 715.91473 C 725.28968 718.08613 732.10381 720.07595 732.36403 720.33618 C 732.84431 720.81646 747.35554 816.82015 747.43364 820.03395 C 747.47354 821.67532 744.68474 821.78279 702.47867 821.78279 C 667.13852 821.78279 657.47755 821.50927 657.48845 820.52758 C 657.51015 818.57523 672.37063 720.55611 672.69204 720.24451 C 672.84935 720.09201 679.63273 718.16355 687.7687 715.96409 L 702.5633 711.96574 z M 710.51063 733.86851 C 710.2961 733.8672 710.0774 733.87446 709.85481 733.88966 C 708.5193 733.97977 707.04501 734.38043 705.55324 735.15193 C 703.16472 736.38707 697.60253 737.722 693.20561 738.12072 C 688.80856 738.51943 685.20892 739.33205 685.20892 739.92597 C 685.20892 741.39707 692.06852 746.68155 693.97425 746.68155 C 696.64659 746.68155 699.28052 754.79365 698.50148 760.60173 C 697.70194 766.56276 696.18845 769.00417 695.13074 766.02453 C 694.7631 764.98888 693.37235 763.0604 692.04912 761.73706 C 690.48146 760.1694 690.06295 758.68434 690.83622 757.46369 C 694.08394 752.33709 691.46027 748.05665 685.07493 748.05665 C 682.91768 748.05665 682.58791 748.70445 683.29789 751.53316 C 684.28251 755.45622 681.65349 759.1609 674.94861 763.30255 L 670.83038 765.84118 L 674.94861 765.84118 C 677.20819 765.83981 680.857 764.89465 683.05813 763.74681 C 686.26222 762.07593 687.28003 762.0189 688.17065 763.42243 C 690.86025 767.66077 689.32781 769.86012 682.22602 771.96916 C 678.32333 773.12814 673.81484 774.07059 672.21252 774.07059 C 670.61019 774.07059 668.10368 774.95039 666.64163 776.02392 C 664.07773 777.9065 664.12227 778.03156 667.84043 779.45108 C 673.39406 781.57124 676.38713 781.28559 682.73375 778.04778 L 688.36105 775.18476 L 685.766 779.61327 C 682.09075 785.88947 676.11068 790.16123 673.98251 788.03307 C 671.35568 785.40611 670.60146 786.0833 670.40727 791.24867 C 670.17892 797.32281 672.97355 798.66738 678.85528 795.31049 C 686.0589 791.19905 690.52748 786.24029 692.9447 779.66263 C 696.60546 769.70089 697.54244 770.05092 697.54244 781.41852 C 697.54244 791.43222 697.37773 792.01061 694.79931 791.19226 C 691.09412 790.01627 691.36205 791.82698 695.54679 796.34004 C 697.46027 798.40363 700.23412 800.08453 701.71003 800.08453 C 704.77509 800.08453 705.03811 798.08537 704.44612 779.89534 C 704.13287 770.26672 704.41317 768.59842 706.29368 768.59842 C 708.03152 768.59842 708.49383 770.06294 708.49383 775.50914 C 708.49383 784.35579 711.55031 790.2082 717.44956 792.67313 C 726.30737 796.37403 738.69831 794.18475 739.74722 788.73825 C 739.9996 787.42773 738.61294 784.47203 736.67266 782.16601 C 734.73226 779.85997 733.14678 777.12904 733.14678 776.10149 C 733.14678 775.07394 732.50408 773.8415 731.72232 773.35836 C 730.79082 772.78268 730.44143 774.99701 730.69982 779.78251 C 731.06476 786.54128 730.8458 787.11047 727.86501 787.53239 C 718.5854 788.84591 713.38415 782.20778 714.21985 770.1216 L 714.65706 763.79617 L 709.43876 763.95836 L 704.23456 764.12761 L 705.15129 756.77262 C 706.05902 749.50736 706.01795 749.3952 701.79465 747.61944 L 697.52834 745.82829 L 702.3729 743.51531 C 705.0388 742.24397 707.46991 741.20939 707.7816 741.20939 C 708.09327 741.20939 708.54119 744.38326 708.76884 748.26115 C 709.10741 754.02848 709.84188 755.79672 712.80245 757.99963 C 717.41899 761.4348 729.62179 761.74321 732.85765 758.50735 C 734.85664 756.50837 734.80704 756.05747 732.24415 753.21148 C 730.70411 751.50128 729.11942 749.16553 728.71827 748.01433 C 727.6271 744.8829 720.3288 744.81312 717.52713 747.90856 C 714.5729 751.17294 716.60155 752.65578 721.48317 750.79978 C 726.27188 748.97911 726.29952 748.98908 726.29952 752.16077 C 726.29952 754.43064 725.37964 754.9039 720.96134 754.9039 C 715.17982 754.9039 713.97304 753.45382 713.97304 746.56872 C 713.97304 742.86742 714.35043 742.56867 719.10672 742.54922 C 725.00286 742.52512 728.44229 740.83338 727.07521 738.62139 C 725.74271 736.46536 720.57854 736.73216 717.14633 739.13617 C 714.4637 741.01516 714.28988 740.97389 714.91798 738.57203 C 715.61589 735.9032 713.85401 734.15618 711.13823 733.89671 C 710.93456 733.87727 710.72515 733.86987 710.51063 733.86851 z M 725.27701 764.48019 C 722.29723 764.48019 716.71618 768.18926 716.71618 770.16391 C 716.71618 771.4189 727.35921 770.55968 728.85931 769.18372 C 730.15964 767.99097 727.4886 764.48019 725.27701 764.48019 z M 723.641 774.38086 C 722.68647 774.3584 721.70883 774.47261 720.8203 774.75461 C 717.442 775.82684 717.27522 777.76291 720.48182 778.63307 C 724.25085 779.6559 728.08778 779.00974 728.66186 777.26503 C 729.1679 775.72709 726.50463 774.44834 723.641 774.38086 z "
       transform="matrix(0.43187989,0,0,0.43187989,371.56774,468.57446)" />
    <path
       id="path3006"
       style="fill:#8f8f8f"
       d="M 702.47867 709.7797 C 699.80325 709.7797 671.29381 717.5433 670.47074 718.49567 C 669.86738 719.19382 654.4507 820.39814 654.4703 823.53163 C 654.4763 824.51416 664.75011 824.77979 702.47867 824.77979 C 746.56622 824.77979 750.47295 824.64281 750.47295 823.11557 C 750.47295 819.41546 735.20424 719.22599 734.52892 718.49567 C 733.64024 717.53462 705.1258 709.7797 702.47867 709.7797 z M 702.73254 711.88112 L 717.26621 715.79485 C 725.25915 717.94665 732.10433 720.05802 732.47686 720.49132 C 733.13888 721.26133 747.52055 817.5698 747.49005 821.02825 C 747.47555 822.66876 744.66266 822.78414 702.47867 822.78414 L 657.47435 822.78414 L 657.48845 820.52758 C 657.50955 817.19656 672.18965 720.73265 672.76256 720.15989 C 673.03208 719.89036 679.88631 717.91671 687.99436 715.77369 L 702.73254 711.88112 z M 709.35414 734.15058 C 708.243 734.24671 706.87269 734.81406 704.66472 735.90646 C 701.84084 737.30367 696.31005 738.60417 692.38055 738.79769 C 684.61166 739.18025 684.12137 740.26137 689.76435 744.47435 L 693.43832 747.22454 L 699.63682 744.21344 C 703.04389 742.55816 706.42799 741.20939 707.16104 741.20939 C 707.89409 741.20939 708.49383 743.86641 708.49383 747.11171 C 708.49383 753.29093 710.08006 756.2931 714.65706 758.79647 C 718.5974 760.95167 729.42483 760.71697 732.54032 758.40863 C 734.97248 756.60667 735.01444 756.28665 732.97753 754.64299 C 731.75308 753.65492 730.14372 751.69066 729.40229 750.27795 C 728.15794 747.90696 727.98344 747.97621 727.18804 751.14532 C 726.60031 753.48702 725.13774 754.80775 722.56914 755.2988 C 714.87417 756.76978 711.21674 751.26483 713.76149 742.04855 C 714.94117 737.77619 714.75456 736.83884 712.45691 735.22949 C 711.31166 734.42734 710.46528 734.0544 709.35414 734.15058 z M 723.17559 737.41554 C 722.28338 737.43225 721.13638 737.7698 719.52278 738.43805 C 717.22128 739.39136 715.34108 740.70976 715.34108 741.37158 C 715.34108 742.97079 722.33946 742.87156 724.92442 741.23759 C 726.49982 740.24172 726.59307 739.57077 725.34048 738.31817 C 724.71418 737.69189 724.06778 737.39878 723.17559 737.41554 z M 722.90057 745.94817 C 721.62208 745.96501 720.04728 746.40981 718.57784 747.37262 C 716.80097 748.53686 715.34108 749.78473 715.34108 750.14397 C 715.34108 751.68133 723.36557 750.62117 724.79749 748.8958 C 726.31851 747.06309 725.03139 745.9201 722.90057 745.94817 z M 697.54244 746.88605 C 696.128 747.0299 695.97729 748.55486 697.40141 751.21583 C 699.70776 755.52528 698.84521 766.39797 696.1603 766.906 C 695.02909 767.12003 693.49903 765.89783 692.74725 764.18402 C 690.99342 760.1856 688.5203 761.35713 689.03802 765.94696 C 689.51345 770.16168 686.71309 771.73118 674.35626 774.16226 C 665.3534 775.93349 664.18289 778.03086 671.07719 780.00817 C 674.27423 780.92507 676.51143 780.52426 681.02017 778.22407 C 684.22333 776.58988 687.14159 775.54489 687.50074 775.90404 C 688.76334 777.16663 683.95012 784.64932 680.35731 787.00351 C 678.35894 788.3129 675.60797 789.08803 674.24343 788.73119 C 671.06568 787.9002 669.46882 793.15208 672.09969 795.78295 C 673.67307 797.35632 674.94152 797.06963 680.26563 793.9495 C 687.7378 789.57044 692.26363 783.69736 693.36075 776.9477 C 693.87229 773.79988 695.00021 771.8824 696.52699 771.58837 C 698.61121 771.18698 698.90343 772.39638 698.90343 781.41147 C 698.90343 790.79844 698.66724 791.72333 696.04042 792.12309 L 693.1633 792.55325 L 696.19556 796.39646 C 697.86235 798.50657 700.23034 800.04564 701.46322 799.80951 C 703.35087 799.44796 703.76848 796.96251 704.09353 784.11229 C 704.39445 772.21567 704.91666 768.6851 706.48407 768.08364 C 708.08323 767.46992 708.49383 768.67965 708.49383 774.02122 C 708.49383 786.2341 712.89315 792.36135 722.73133 793.83667 C 729.67222 794.87754 739.08453 792.16444 739.70491 788.94275 C 739.94305 787.70612 738.56697 784.99498 736.64445 782.92054 C 734.72192 780.84611 733.04834 778.1558 732.93522 776.9477 C 732.82211 775.73959 732.36448 777.52859 731.91272 780.91784 C 731.12634 786.81759 730.88375 787.10372 726.19374 787.49714 C 718.13593 788.17304 714.69867 784.3153 714.43141 774.26804 C 714.15782 763.983 713.37195 762.62733 708.23291 763.65514 L 704.1993 764.45199 L 704.62946 757.36497 C 705.03048 750.88503 704.75612 750.08959 701.38565 748.16947 C 699.69931 747.20879 698.3911 746.79975 697.54244 746.88605 z M 685.62497 748.05665 C 682.39837 748.05665 681.40125 749.96897 683.84087 751.47675 C 686.02255 752.82511 681.73032 759.71059 676.70449 762.92881 C 673.80509 764.78539 673.02533 765.8192 674.5114 765.83413 C 680.93079 765.89836 692.05617 758.10744 692.05617 753.54997 C 692.05617 750.41221 689.29985 748.05665 685.62497 748.05665 z M 725.63665 765.85529 C 721.37689 765.85529 716.34621 768.25696 717.31558 769.82543 C 717.68708 770.42652 720.26688 770.54671 723.05571 770.09339 C 729.0714 769.11555 731.05688 765.85529 725.63665 765.85529 z M 723.0275 774.64178 C 722.5606 774.66451 722.09899 774.73071 721.6383 774.84628 C 717.26559 775.94375 717.03296 777.78768 721.16584 778.58371 C 726.51911 779.6148 727.48342 779.58188 728.25286 778.3369 C 729.42251 776.44446 726.29582 774.48259 723.0275 774.64178 z "
       transform="matrix(0.43187989,0,0,0.43187989,371.56774,468.57446)" />
    <path
       id="path3004"
       style="fill:#6f6f6f"
       d="M 701.978 709.50468 L 686.52054 713.67932 C 678.02079 715.97645 670.84364 718.08044 670.56946 718.35463 C 670.12029 718.80379 654.58151 820.54142 654.50556 823.53163 C 654.48056 824.51471 664.72898 824.77979 702.47867 824.77979 C 740.20738 824.77979 750.474 824.51416 750.48 823.53163 C 750.5124 818.35112 734.92898 719.0826 733.95773 718.28412 C 733.28873 717.73412 725.81806 715.52894 717.35789 713.3902 L 701.978 709.50468 z M 702.54214 711.70483 L 717.71753 715.78074 C 726.06065 718.02265 732.93854 719.95145 733.00574 720.06821 C 733.54989 721.01308 747.96801 821.9536 747.60993 822.31167 C 747.35341 822.5682 726.96747 822.78414 702.30943 822.78414 L 657.47435 822.78414 L 657.50255 820.03395 C 657.53755 815.94835 672.01996 720.90249 672.7132 720.20925 C 673.04037 719.88208 679.88311 717.83713 687.92384 715.66086 L 702.54214 711.70483 z M 710.78565 734.8346 C 708.95516 734.78954 706.11696 735.59065 701.87222 737.02064 C 697.27609 738.56886 691.55093 739.83429 689.15085 739.83429 C 684.95011 739.83429 684.87398 739.93124 687.1411 742.43639 C 690.64772 746.31117 693.9049 746.63926 700.29968 743.77623 C 703.46549 742.35885 706.60999 741.20939 707.28092 741.20939 C 707.95187 741.20939 708.51922 743.81895 708.54319 747.02004 C 708.58906 753.15127 710.14119 756.13605 714.65706 758.72596 C 718.72153 761.05693 729.80975 760.7725 732.30762 758.27464 C 734.19875 756.38349 734.14814 755.90527 731.72937 753.4865 C 730.24988 752.007 728.97666 750.02065 728.90162 749.07915 C 728.82657 748.13766 728.33475 748.89428 727.81565 750.75747 C 727.1738 753.06122 725.40879 754.56569 722.28707 755.46099 C 718.25861 756.61638 717.37496 756.38391 715.08017 753.54997 C 712.92087 750.88335 712.62269 749.05315 713.37364 743.04284 C 714.08734 737.33073 713.83646 734.90974 710.78565 734.8346 z M 722.94993 737.67646 C 719.91133 737.79888 715.34108 739.76681 715.34108 741.54787 C 715.34108 742.37205 717.34708 742.60622 720.30552 742.12612 C 726.22935 741.16481 727.32749 740.31235 725.26291 738.24765 C 724.81765 737.80239 723.96279 737.63565 722.94993 737.67646 z M 721.8005 746.2796 C 719.74668 746.23564 717.21402 747.48956 716.01805 749.42469 C 714.93057 751.18425 720.87386 751.16256 723.56344 749.39648 C 725.34604 748.22629 725.35967 747.88575 723.641 746.78028 C 723.13052 746.45191 722.4851 746.29424 721.8005 746.2796 z M 697.66937 746.82259 C 696.29904 746.86011 696.13631 748.17166 697.42961 750.58823 C 698.24383 752.10961 698.90343 756.14568 698.90343 759.55806 C 698.90343 764.28663 698.2882 766.09553 696.27313 767.17397 C 694.05729 768.35992 693.54388 768.09239 693.1774 765.52385 C 692.93692 763.8383 691.77454 762.27431 690.58236 762.04734 C 688.89155 761.72545 688.54282 762.54788 689.01687 765.77772 C 689.71906 770.56202 687.40097 771.88259 673.88379 774.43728 C 665.4151 776.03787 664.38758 778.08957 671.07719 780.00817 C 674.27423 780.92507 676.51143 780.52426 681.02017 778.22407 C 684.22333 776.58988 687.14159 775.54489 687.50074 775.90404 C 688.91598 777.31928 683.47034 785.29591 679.39827 787.77215 C 676.22431 789.70235 674.61906 790.00466 673.30555 788.91454 C 671.90542 787.75254 671.52145 788.3376 671.52145 791.62947 C 671.52145 797.84189 673.69762 798.15554 681.30929 793.04687 C 688.13898 788.46307 693.43127 780.81554 693.43127 775.53735 C 693.43127 774.02758 694.66801 772.13364 696.1744 771.32745 C 698.80675 769.91866 698.90343 770.29279 698.90343 780.77681 C 698.90343 790.81805 698.68208 791.72027 696.02631 792.12309 C 693.21795 792.54893 693.2407 792.65781 696.74559 796.42466 C 702.59278 802.7089 703.66374 800.90554 704.09353 784.02062 C 704.3942 772.20778 704.91793 768.68462 706.48407 768.08364 C 708.06815 767.47572 708.49383 768.61459 708.49383 773.47119 C 708.49383 781.35956 711.39964 788.2901 715.96869 791.28393 C 720.17237 794.03829 732.40898 794.4685 736.97588 792.02437 C 740.44814 790.16607 740.98401 785.70599 737.87851 784.51424 C 736.71722 784.06861 734.89256 781.68474 733.82374 779.22542 L 731.88451 774.75461 L 731.8281 781.26338 L 731.77873 787.7651 L 725.82705 787.7651 C 717.61694 787.7651 714.99232 784.58232 714.21985 773.67569 C 713.56926 764.49129 712.3502 762.77778 707.33734 764.03593 C 704.19919 764.82356 704.11713 764.63237 704.58715 757.54831 C 705.03378 750.81666 704.78563 750.08817 701.38565 748.16242 C 699.75287 747.23759 698.49158 746.80006 697.66937 746.82259 z M 685.73075 748.05665 C 682.21654 748.05665 681.59602 749.36575 683.97486 751.74472 C 686.13682 753.90667 683.48564 758.1894 677.30389 762.54801 L 672.20547 766.15146 L 676.99362 765.30525 C 686.14133 763.68782 694.44432 754.62561 690.80096 750.23564 C 689.80367 749.0341 687.52138 748.05665 685.73075 748.05665 z M 724.64941 766.17967 C 722.61771 766.17008 720.22178 766.73059 718.76119 767.86504 C 716.18155 769.86854 716.38153 769.97799 722.18834 769.64208 C 725.5776 769.446 728.35158 768.66054 728.35158 767.90735 C 728.35158 766.7663 726.68098 766.18898 724.64941 766.17967 z M 723.86666 774.80397 C 723.41254 774.79849 722.96067 774.84568 722.52683 774.95911 C 718.57466 775.99266 718.57838 777.84478 722.53388 778.48499 C 724.22857 778.75922 726.43492 778.72558 727.43485 778.40037 C 730.28414 777.47465 727.04556 774.83992 723.86666 774.80397 z "
       transform="matrix(0.43187989,0,0,0.43187989,371.56774,468.57446)" />
    <path
       id="path3002"
       style="fill:#4f4f4f"
       d="M 702.49983 709.58225 L 686.53465 713.82741 C 671.57873 717.80616 670.53262 718.23593 670.02648 720.67466 C 669.49517 723.2348 654.47735 823.30039 654.47735 824.27911 C 654.47735 824.55491 676.07912 824.77979 702.47867 824.77979 C 740.22851 824.77979 750.46974 824.51471 750.44474 823.53163 C 750.37244 820.68821 734.84213 718.81593 734.41609 718.38989 C 734.16099 718.13479 726.87493 716.04487 718.22525 713.74984 L 702.49983 709.58225 z M 702.9723 711.64136 L 717.84446 715.66086 C 726.02092 717.87236 732.82207 719.81854 732.95638 719.98359 C 733.09069 720.14865 736.41953 742.33289 740.36073 769.28244 C 744.30177 796.23199 747.74808 819.29008 748.01894 820.52758 L 748.51256 822.78414 L 702.42931 822.78414 C 659.0237 822.78414 656.37058 822.67648 656.81853 821.02825 C 657.08011 820.06575 660.554 797.23334 664.54021 770.28379 C 668.52627 743.33424 672.28067 720.78186 672.88244 720.17399 C 673.4842 719.56611 680.49903 717.40117 688.47388 715.35764 L 702.9723 711.64136 z M 710.72923 734.84165 C 708.90529 734.81659 706.07652 735.60428 701.87222 737.02064 C 697.27609 738.56886 691.49544 739.8586 689.02392 739.88366 L 684.52489 739.92597 L 687.76165 742.61974 C 691.54291 745.76971 696.82863 746.00866 701.64657 743.2544 C 707.3251 740.00826 708.49383 740.67051 708.49383 747.12581 C 708.49383 753.04779 711.4713 757.49268 716.71618 759.40998 C 721.85518 761.28845 733.14678 759.88003 733.14678 757.35792 C 733.14678 756.62307 731.91708 754.44957 730.41069 752.53451 C 728.43854 750.02729 727.66756 749.66653 727.66756 751.24404 C 727.66756 752.44891 726.47297 754.07483 725.0161 754.85454 C 717.10438 759.08871 711.78066 753.53635 713.28197 742.61974 C 714.02904 737.18794 713.76913 734.8834 710.72923 734.84165 z M 723.47176 737.80339 C 720.96828 737.78339 717.1745 739.3527 715.96164 741.31516 C 715.20116 742.54565 716.28412 742.70995 720.27732 741.96393 C 726.53832 740.7942 727.28333 740.26795 725.40394 738.38868 C 724.9997 737.98442 724.30626 737.81007 723.47176 737.80339 z M 722.63965 746.71681 C 721.04245 746.78446 718.92098 747.47704 717.31558 748.6913 C 714.71439 750.65879 714.72742 750.70783 717.63291 750.75042 C 721.47559 750.80684 724.93148 749.46058 724.93148 747.90856 C 724.93148 747.18983 724.26534 746.80247 723.28842 746.72386 C 723.08489 746.70743 722.86783 746.70613 722.63965 746.71681 z M 699.03036 747.40788 C 696.91688 747.20649 695.60412 748.91409 697.51424 750.0946 C 698.27972 750.56769 698.90343 754.54337 698.90343 758.93751 C 698.90343 764.95945 698.37834 767.13978 696.74559 767.76631 C 693.68666 768.94013 693.67669 768.9245 693.19151 765.52385 C 692.95083 763.83685 691.77454 762.27431 690.58236 762.04734 C 688.89305 761.72572 688.54494 762.54118 689.01687 765.75656 C 689.73289 770.63516 687.48429 772.03387 674.84283 774.52895 C 665.94774 776.28461 664.53026 778.07788 670.74576 779.7402 C 673.63499 780.5129 676.49334 780.06151 680.88619 778.1183 C 684.25053 776.63021 687.26257 775.66587 687.57831 775.98161 C 687.89405 776.29723 687.15714 778.49149 685.93525 780.85438 C 683.09149 786.35357 675.81526 790.99741 673.30555 788.91454 C 671.90418 787.7515 671.52145 788.34878 671.52145 791.70704 C 671.52145 794.65589 672.18053 795.9804 673.64403 795.9804 C 681.07142 795.9804 693.43127 783.23771 693.43127 775.57966 C 693.43127 774.05026 694.66801 772.13364 696.1744 771.32745 C 698.80675 769.91866 698.90343 770.29279 698.90343 780.77681 C 698.90343 790.81805 698.68208 791.72027 696.02631 792.12309 C 693.21795 792.54893 693.2407 792.65781 696.74559 796.42466 C 702.56321 802.67712 703.62962 800.89819 704.3897 783.66098 C 704.86135 772.96475 705.60816 767.95209 706.7873 767.56181 C 707.95678 767.17474 708.50245 768.65787 708.50793 772.24418 C 708.52874 786.52388 713.95998 793.25384 725.45331 793.22316 C 738.2989 793.18893 742.55351 790.09328 737.47656 784.47193 C 736.05173 782.89433 734.20559 780.36512 733.37243 778.85873 C 732.06556 776.4956 731.84987 776.90149 731.81399 781.78521 C 731.76839 787.98077 729.76536 789.42221 722.97814 788.12474 C 717.06257 786.99389 713.97304 781.68164 713.97304 772.66023 C 713.97304 764.02267 712.04055 761.85029 706.83666 764.63533 C 704.11619 766.09129 704.03112 765.88281 704.67882 759.14201 C 705.37317 751.91577 704.21887 749.09177 699.9753 747.61944 C 699.6477 747.50577 699.33229 747.43666 699.03036 747.40788 z M 684.15115 748.12011 C 683.60428 748.14914 683.16232 748.27691 682.90299 748.53616 C 682.45414 748.98501 682.863 750.29021 683.81267 751.43444 C 686.05127 754.13195 682.82291 759.36764 676.57756 763.17562 C 670.9934 766.58046 674.54811 766.59315 682.02857 763.19677 C 688.22142 760.38502 692.82499 754.76786 691.58371 751.53316 C 690.96732 749.92686 687.17389 748.26396 684.7294 748.12011 C 684.52569 748.10779 684.33344 748.11053 684.15115 748.12011 z M 724.74813 765.93991 C 722.79359 766.01892 720.47489 766.7175 718.84581 767.94966 C 716.3249 769.85634 716.41556 769.96646 720.45361 769.96646 C 725.78956 769.96646 729.25024 768.68467 728.25991 767.08229 C 727.82644 766.38093 726.81398 766.00911 725.55908 765.93991 C 725.29764 765.92553 725.02736 765.92895 724.74813 765.93991 z M 723.94423 774.84628 C 721.78333 774.91749 719.44521 775.86429 719.44521 776.96886 C 719.44521 777.6342 721.30385 778.17471 723.56344 778.17471 C 727.66024 778.17471 729.20232 776.18603 725.95398 775.09309 C 725.36482 774.89486 724.66453 774.82256 723.94423 774.84628 z "
       transform="matrix(0.43187989,0,0,0.43187989,371.56774,468.57446)" />
    <path
       id="path3000"
       style="fill:#2e2e2e"
       d="M 702.52804 709.73033 L 686.75325 713.86266 C 678.07664 716.13517 670.84847 718.10885 670.68934 718.25591 C 670.53022 718.40297 667.05028 740.96888 662.96061 768.40097 C 658.87109 795.83306 655.2705 819.74143 654.95687 821.52893 L 654.38568 824.77979 L 702.42931 824.77979 C 728.85393 824.77979 750.47295 824.55491 750.47295 824.27911 C 750.47295 823.2996 735.45549 723.23641 734.92382 720.67466 C 734.4162 718.22895 733.39782 717.81205 718.45091 713.89792 L 702.52804 709.73033 z M 702.51393 711.51443 L 716.89247 715.27302 C 724.80122 717.34137 731.71832 719.31715 732.26531 719.65921 C 732.81229 720.00126 736.47165 742.10707 740.39598 768.78177 C 744.32047 795.45632 747.77919 818.5216 748.0824 820.03395 L 748.63244 822.78414 L 702.44342 822.78414 L 656.26144 822.78414 L 656.76917 820.52758 C 657.05141 819.29008 660.56415 796.23199 664.57547 769.28244 C 668.58664 742.33289 672.20132 720.04378 672.60742 719.75793 C 673.01352 719.47224 679.91095 717.50351 687.93089 715.37879 L 702.51393 711.51443 z M 710.43306 734.54547 C 709.14986 734.59245 707.39733 735.21314 705.05962 736.32252 C 702.42912 737.57078 697.1967 738.95816 693.43127 739.40414 C 686.15742 740.26561 684.9174 741.58885 689.22842 743.89611 C 692.85267 745.83575 696.15401 745.66504 700.69458 743.29671 C 707.86398 739.55719 709.15511 739.95031 708.69127 745.72956 C 708.21753 751.63259 711.15311 757.13657 715.76419 758.99392 C 720.35564 760.84343 728.21912 760.59457 731.07356 758.50735 C 733.5553 756.69256 733.54252 756.52145 730.65045 752.84479 C 728.58409 750.21783 727.66756 749.72609 727.66756 751.24404 C 727.66756 755.9813 718.51168 757.87 714.58655 753.94486 C 712.7135 752.07182 712.42331 750.09626 713.09862 743.63519 C 713.77735 737.14163 713.25597 734.44214 710.43306 734.54547 z M 723.4083 738.49446 C 721.43325 738.57416 718.89899 739.27835 717.31558 740.476 C 714.38214 742.69462 715.56182 743.01421 722.01205 741.72417 C 724.36566 741.25342 726.29952 740.3241 726.29952 739.66505 C 726.29952 738.94201 725.44185 738.56464 724.21925 738.49446 C 723.96453 738.47981 723.69044 738.4835 723.4083 738.49446 z M 722.71722 746.75912 C 721.16602 746.84704 719.09115 747.56268 717.47777 748.78298 C 715.59123 750.20989 715.39314 750.78527 716.79375 750.77157 C 720.36892 750.73775 724.93148 749.12608 724.93148 747.89445 C 724.93148 747.18952 724.29161 746.82253 723.34483 746.75912 C 723.14758 746.74543 722.93883 746.7468 722.71722 746.75912 z M 699.27012 748.05665 C 696.43175 748.05665 695.98928 748.42156 697.26742 749.69971 C 699.82673 752.25901 699.40866 766.7444 696.74559 767.76631 C 693.68666 768.94013 693.67669 768.9245 693.19151 765.52385 C 692.95083 763.83685 691.77454 762.27431 690.58236 762.04734 C 688.88888 761.72493 688.54584 762.54861 689.02392 765.80592 C 689.56375 769.48485 689.09054 770.19718 685.02557 771.87044 C 682.49182 772.91328 677.65397 774.20686 674.26458 774.75461 C 666.7233 775.97336 665.19106 776.79857 667.60772 778.32985 C 670.67037 780.27044 677.87294 779.70707 682.27538 777.18041 C 684.54727 775.87629 686.88612 775.29648 687.47958 775.88994 C 690.75871 779.16905 676.97264 791.95585 673.37606 788.97095 C 671.88705 787.73518 671.52145 788.26896 671.52145 791.70704 C 671.52145 796.57089 673.52835 797.14712 679.60277 794.00591 C 685.68019 790.86308 691.94621 782.78266 692.88828 776.89129 C 693.4668 773.27342 694.57409 771.35636 696.32954 770.89729 C 698.69804 770.27788 698.90343 771.11845 698.90343 780.96015 C 698.90343 790.82202 698.67751 791.72097 696.02631 792.12309 C 693.22076 792.54851 693.23895 792.66182 696.7597 796.44582 C 699.85692 799.77463 700.69526 800.08346 702.5633 798.53314 C 704.39333 797.01434 704.63477 794.45427 704.03711 782.74425 C 703.45032 771.24714 703.67741 768.63495 705.33464 767.99902 C 708.94303 766.6143 709.21834 767.12011 709.41055 775.48094 C 709.71669 788.79822 714.27086 793.24432 727.60409 793.24432 C 732.07435 793.24432 735.26073 792.39565 737.44835 790.62107 L 740.68511 787.99781 L 737.78683 784.80336 C 736.195 783.04469 734.20559 780.36512 733.37243 778.85873 C 732.06788 776.4998 731.84987 776.92262 731.81399 781.85573 C 731.76483 788.61231 728.99225 790.23676 721.63125 787.80741 C 715.97289 785.93994 713.2135 780.21531 713.59225 771.1159 C 713.88224 764.1487 711.77714 761.99741 707.11168 764.4943 C 703.67694 766.33251 702.94876 764.6958 704.38265 758.33811 C 705.89967 751.61198 704.13043 748.05665 699.27012 748.05665 z M 685.40636 748.32461 C 683.32096 748.40062 682.40417 749.74691 683.86908 751.51201 C 685.88089 753.93626 683.90121 757.65088 678.03728 762.42813 C 673.92846 765.77551 673.83903 765.9875 676.99362 765.12895 C 689.00555 761.85992 695.98743 751.29158 687.83922 748.70541 C 686.92846 748.41647 686.10139 748.29928 685.40636 748.32461 z M 725.19239 765.9117 C 723.67688 765.98798 721.66094 766.67032 720.05166 767.9285 C 717.5428 769.89 717.65844 769.99504 722.08257 769.64913 C 724.66074 769.44755 727.02706 768.50331 727.33613 767.56181 C 727.72906 766.36487 726.70803 765.83538 725.19239 765.9117 z M 723.56344 775.44568 C 721.30385 775.44568 719.44521 776.06052 719.44521 776.81372 C 719.44521 777.56692 721.30385 778.17471 723.56344 778.17471 C 725.82302 778.17471 727.66756 777.56692 727.66756 776.81372 C 727.66756 776.06052 725.82302 775.44568 723.56344 775.44568 z "
       transform="matrix(0.43187989,0,0,0.43187989,371.56774,468.57446)" />
    <path
       id="path2998"
       style="fill:#010101"
       d="M 702.47867 709.82906 L 686.72504 713.98254 C 678.06269 716.26707 670.88553 718.19016 670.77396 718.24886 C 670.66238 718.30756 667.16577 741.28805 663.00293 769.3177 C 658.83994 797.34734 655.20913 821.29278 654.93571 822.53028 L 654.43504 824.77979 L 702.49983 824.77979 L 750.56462 824.77979 L 750.00048 821.52893 C 749.68937 819.74143 746.07993 795.82423 741.97558 768.37982 C 737.87107 740.93526 734.3866 718.40622 734.2398 718.31232 C 734.09299 718.21842 726.8876 716.26707 718.22525 713.98254 L 702.47867 709.82906 z M 702.9723 711.42981 L 717.47777 715.25891 C 725.45262 717.36426 732.30747 719.36988 732.70957 719.71562 C 733.24907 720.17951 748.4773 819.22441 748.4773 822.26936 C 748.4773 822.54875 727.72661 822.78414 702.36585 822.78414 L 656.25439 822.78414 L 656.82558 819.53328 C 657.13938 817.74578 660.58118 794.90632 664.47674 768.78177 C 668.37246 742.65707 671.71221 720.82976 671.89519 720.27976 C 672.07817 719.72991 679.14339 717.51648 687.59946 715.35764 L 702.9723 711.42981 z M 710.12983 734.98974 C 708.54418 735.05848 706.28017 735.67209 704.38265 736.61869 C 701.85261 737.88083 696.78409 739.20797 693.12804 739.55928 C 686.73549 740.17353 686.57757 740.29198 688.80531 742.75372 C 691.55607 745.79326 694.95633 745.99755 700.00351 743.43069 C 702.03729 742.39632 705.16259 741.09375 706.95654 740.53947 C 710.06058 739.58042 710.17818 739.7694 709.32593 744.31216 C 708.08642 750.91936 710.38603 756.01926 715.67252 758.40158 C 718.2002 759.54067 722.42846 760.15588 725.43215 759.81898 C 731.27102 759.16408 734.78726 756.80269 732.32877 755.18597 C 731.5175 754.65244 730.1578 752.98314 729.30357 751.47675 C 727.77618 748.78324 727.75082 748.78104 727.70987 751.66715 C 727.6403 756.57256 718.75613 758.11445 714.58655 753.94486 C 712.72154 752.07986 712.43024 750.08231 713.09157 743.75507 C 713.80274 736.95106 713.58227 735.7798 711.44851 735.10256 C 711.10922 734.99492 710.65839 734.96659 710.12983 734.98974 z M 723.4365 738.49446 C 721.46985 738.5565 718.93037 739.30748 717.31558 740.61704 C 714.74992 742.69774 714.77988 742.75421 718.08422 742.01329 C 719.96721 741.59107 722.57678 741.24013 723.89487 741.23054 C 725.21296 741.21959 726.29952 740.58749 726.29952 739.83429 C 726.29952 739.03325 725.44889 738.60945 724.23335 738.51561 C 723.98011 738.49603 723.71747 738.48556 723.4365 738.49446 z M 722.59734 746.71681 C 721.01949 746.81007 719.02372 747.61298 717.90792 748.97337 C 716.2204 751.03098 716.37125 751.1738 719.44521 750.36257 C 721.3282 749.86564 723.32997 749.44838 723.89487 749.43879 C 724.45976 749.42783 724.93148 748.80984 724.93148 748.05665 C 724.93148 747.22421 724.22232 746.79579 723.23905 746.71681 C 723.03421 746.70038 722.82275 746.70312 722.59734 746.71681 z M 698.29698 748.0778 C 696.22009 748.0615 695.98928 748.42156 697.26742 749.69971 C 699.82674 752.25902 699.40866 766.7444 696.74559 767.76631 C 693.69293 768.93774 693.67739 768.92448 693.19151 765.62258 C 692.95083 763.98688 691.89106 762.36463 690.84327 762.01913 C 689.43722 761.5555 689.1584 762.24923 689.76435 764.66354 C 691.02137 769.67191 689.32604 771.06069 678.99632 773.54876 C 664.28202 777.0929 665.12103 776.75656 667.45259 778.23112 C 670.76339 780.3248 676.75659 779.72834 682.66323 776.715 C 685.71889 775.15606 688.51668 774.17685 688.87583 774.536 C 690.10225 775.76242 685.31859 783.32576 681.04838 786.91889 C 676.22487 790.97759 675.46025 791.16797 673.15746 788.86518 C 671.87942 787.58703 671.52145 788.19286 671.52145 791.60126 C 671.52145 797.30543 674.65151 797.38755 682.24012 791.89038 C 688.02153 787.70238 693.43127 779.11147 693.43127 774.127 C 693.43127 772.5906 693.68747 771.32745 694.00246 771.32745 C 694.31746 771.32745 695.57864 770.95069 696.80201 770.48124 C 698.76406 769.72833 698.98168 770.97929 698.62841 781.09414 C 698.3393 789.37244 697.74873 792.46193 696.51289 792.21476 C 694.16207 791.7446 694.37085 793.23062 697.06997 796.21311 C 702.80489 802.55013 704.81447 797.95512 704.14994 780.05048 C 703.71546 768.34356 703.81661 767.89898 706.7873 767.47719 C 709.67935 767.06645 709.86344 767.52832 709.86892 775.00847 C 709.87577 785.51177 713.29872 791.36395 720.16449 792.65197 C 726.91796 793.91896 735.79871 792.55265 738.47085 789.83832 C 740.50261 787.77456 740.48697 787.4644 738.30866 785.84702 C 737.00661 784.88024 735.00724 782.29506 733.86606 780.10689 L 731.78579 776.1297 L 731.78579 781.92625 C 731.77894 787.02382 731.34277 787.81646 728.20349 788.60426 C 726.03022 789.14971 722.84193 788.65137 720.05166 787.32084 C 714.76688 784.8007 711.90019 777.14846 713.34544 769.44463 C 714.07267 765.56766 713.77169 764.74499 711.35684 764.1135 C 709.787 763.70298 708.15404 763.93169 707.73224 764.61418 C 707.31043 765.29667 706.02991 765.85529 704.89038 765.85529 C 703.17291 765.85529 702.98741 764.53848 703.78325 758.16887 C 704.80467 749.99387 703.7849 748.12094 698.29698 748.0778 z M 685.03967 748.18358 C 684.24115 748.32052 684.14357 749.43092 684.68003 751.56842 C 685.38337 754.37075 684.63335 756.0557 681.01312 759.79077 C 675.65486 765.31922 678.13387 766.21229 685.357 761.35626 C 690.74843 757.73158 692.16789 752.52124 688.50209 749.84074 C 687.1234 748.83261 686.11368 748.28103 685.42752 748.18358 C 685.28456 748.16331 685.15375 748.16399 685.03967 748.18358 z M 725.38279 765.89054 C 723.78366 765.95943 721.65199 766.65458 720.05166 767.86504 C 718.0339 769.39107 717.886 769.8841 719.44521 769.903 C 722.98089 769.94572 727.66756 768.32445 727.66756 767.06114 C 727.66756 766.34657 727.00962 765.98039 726.03155 765.90465 C 725.82778 765.8889 725.61124 765.88068 725.38279 765.89054 z M 724.24746 775.44568 C 722.36447 775.44568 720.8203 776.06052 720.8203 776.81372 C 720.8203 777.56692 722.36447 778.17471 724.24746 778.17471 C 726.13045 778.17471 727.66756 777.56692 727.66756 776.81372 C 727.66756 776.06052 726.13045 775.44568 724.24746 775.44568 z "
       transform="matrix(0.43187989,0,0,0.43187989,371.56774,468.57446)" />
  </g>
</svg>
