<?xml version="1.0" encoding="UTF-8" standalone="no"?>
<!-- Created with Inkscape (http://www.inkscape.org/) -->

<svg
   viewBox="0 0 35.349998 38.720001"
   id="svg3864"
   version="1.1"
   inkscape:version="1.3.2 (091e20e, 2023-11-25, custom)"
   sodipodi:docname="Gin.svg"
   xmlns:inkscape="http://www.inkscape.org/namespaces/inkscape"
   xmlns:sodipodi="http://sodipodi.sourceforge.net/DTD/sodipodi-0.dtd"
   xmlns="http://www.w3.org/2000/svg"
   xmlns:svg="http://www.w3.org/2000/svg"
   xmlns:rdf="http://www.w3.org/1999/02/22-rdf-syntax-ns#"
   xmlns:cc="http://creativecommons.org/ns#"
   xmlns:dc="http://purl.org/dc/elements/1.1/">
  <defs
     id="defs3866" />
  <sodipodi:namedview
     id="base"
     pagecolor="#ffffff"
     bordercolor="#666666"
     borderopacity="1.0"
     inkscape:pageopacity="0.0"
     inkscape:pageshadow="2"
     inkscape:zoom="14.178719"
     inkscape:cx="17.702587"
     inkscape:cy="19.360001"
     inkscape:document-units="px"
     inkscape:current-layer="layer1"
     showgrid="false"
     fit-margin-top="0"
     fit-margin-left="0"
     fit-margin-right="0"
     fit-margin-bottom="0"
     inkscape:window-width="1292"
     inkscape:window-height="745"
     inkscape:window-x="-8"
     inkscape:window-y="-8"
     inkscape:window-maximized="1"
     inkscape:showpageshadow="0"
     inkscape:pagecheckerboard="1"
     inkscape:deskcolor="#d1d1d1" />
  <metadata
     id="metadata3869">
    <rdf:RDF>
      <cc:Work
         rdf:about="">
        <dc:format>image/svg+xml</dc:format>
        <dc:type
           rdf:resource="http://purl.org/dc/dcmitype/StillImage" />
      </cc:Work>
    </rdf:RDF>
  </metadata>
  <g
     inkscape:label="Layer 1"
     inkscape:groupmode="layer"
     id="layer1"
     transform="matrix(0.6179018,0,0,0.6179018,-279.9274,-272.18545)"
     style="display:inline">
    <path
       sodipodi:nodetypes="cccccc"
       inkscape:connector-curvature="0"
       id="path3918"
       d="m 436.13336,390.9648 -16.16244,101.01526 92.49209,0.37881 -15.97303,-102.15168 -30.55712,-8.5863 z"
       style="display:inline;fill:#ffffff;fill-opacity:1;stroke:none"
       transform="matrix(0.44526862,0,0,0.44526862,273.94779,277.40711)" />
    <path
       id="path3897"
       style="fill:#cfcfcf"
       d="M 466.43145 380.49772 L 451.36767 384.3737 C 443.08557 386.50383 435.89801 388.49976 435.39524 388.81049 C 434.64378 389.27492 419.42991 487.0804 419.42991 491.44577 C 419.42991 492.5511 427.75738 492.78746 466.43145 492.78746 C 505.10552 492.78746 513.42589 492.5511 513.42589 491.44577 C 513.42589 487.0804 498.21202 389.27492 497.46056 388.81049 C 496.95779 388.49976 489.77023 386.50383 481.48813 384.3737 L 466.43145 380.49772 z M 466.43145 383.50764 L 480.67886 387.29133 C 488.51634 389.37123 495.04074 391.15741 495.17472 391.25959 C 495.30871 391.36177 498.57019 412.78191 502.42976 438.86453 C 506.28931 464.94717 509.63061 487.07582 509.84806 488.03832 C 510.21996 489.68443 507.63548 489.79174 466.31787 489.79174 L 422.39013 489.79174 L 422.90835 487.5414 C 423.19456 486.3039 426.58612 464.17659 430.44024 438.36761 C 434.29434 412.55865 437.55552 391.36043 437.68817 391.25959 C 437.82082 391.15875 444.33946 389.37123 452.17694 387.29133 L 466.43145 383.50764 z M 453.39795 411.7114 C 451.80768 411.7114 450.92754 412.72642 450.92754 414.57934 C 450.92754 416.26298 447.14792 421.36876 441.79841 426.91006 C 436.77864 432.10978 433.43036 436.35864 434.34461 436.35864 C 437.04733 436.35864 443.22104 432.76475 449.47228 427.54186 L 455.31464 422.65074 L 459.45327 426.13628 C 461.73244 428.05412 464.29271 429.40005 465.13946 429.1178 C 468.09363 428.13304 466.69846 423.39111 462.91751 421.57881 C 460.84605 420.58596 459.14092 418.70529 459.14092 417.39049 C 459.14092 414.30257 456.52642 411.7114 453.39795 411.7114 z M 489.62342 417.97969 C 487.50987 417.90669 485.06568 418.31575 482.39678 419.25749 C 479.20994 420.3819 475.45324 421.29486 474.04142 421.29486 C 470.92373 421.29486 470.73269 423.08699 473.5942 425.46189 C 475.28133 426.86207 477.14058 426.88838 482.73753 425.59677 C 487.52774 424.49098 490.20137 424.41417 491.15677 425.3696 C 492.11218 426.32504 491.83834 426.77518 490.28361 426.77518 C 489.02939 426.77518 485.22759 427.71782 481.83597 428.86934 C 476.84472 430.56403 475.15077 430.63535 472.9482 429.25978 C 469.44884 427.0745 468.06874 428.48048 470.25773 431.98574 C 471.62449 434.17409 471.60261 437.03202 470.15125 446.36093 C 468.28247 458.37422 468.78079 466.66493 471.57812 470.03562 C 473.86934 472.79627 474.45981 472.49237 478.64858 466.4365 C 480.71288 463.45196 483.2106 461.01297 484.19989 461.01297 C 485.18899 461.01297 488.09035 463.16822 490.64565 465.8047 C 495.64699 470.96511 498.48693 471.81994 499.74639 468.53776 C 500.87662 465.59231 496.74871 459.91679 491.01479 456.53359 L 486.10238 453.63726 L 492.10092 451.09587 C 499.74355 447.84986 499.63015 448.00735 497.06302 444.08929 L 494.89077 440.77413 L 489.20458 446.17636 C 484.26236 450.87775 482.95794 451.46593 479.20939 450.66993 L 474.89329 449.75418 L 478.81186 453.90701 L 482.73043 458.05275 L 478.5421 460.2179 C 476.23788 461.40949 474.00823 462.38305 473.5942 462.38305 C 472.3282 462.38305 472.7667 451.04914 474.24019 445.74333 C 475.33018 441.81897 476.18998 440.88517 478.20845 441.41302 C 481.19805 442.19483 486.54251 439.69195 486.54251 437.50865 C 486.54251 436.52984 484.63832 436.31805 481.0551 436.89105 C 476.405 437.63469 475.58051 437.39889 475.58188 435.3506 C 475.58325 433.37522 476.93572 432.89346 483.01438 432.68143 L 490.43979 432.41877 L 488.4663 437.12531 C 486.75426 441.22374 486.75816 441.83896 488.4734 441.83896 C 491.21573 441.83896 495.81382 435.64349 497.43926 429.7567 C 499.38721 422.70157 495.96389 418.19854 489.62342 417.97969 z M 459.9218 431.10548 C 458.73936 431.15383 457.38303 431.4102 455.89674 431.91475 C 453.54355 432.71359 449.2572 433.76477 446.37717 434.25737 C 442.01573 435.00336 441.41392 435.48159 442.77805 437.12531 C 443.67883 438.21074 445.87826 439.0988 447.66917 439.0988 C 449.65036 439.0988 450.92754 439.90029 450.92754 441.15037 C 450.92754 442.57848 449.48968 443.21613 446.2139 443.21613 C 440.77848 443.21613 438.82907 445.16871 442.31663 447.12051 C 444.58637 448.39085 444.58186 448.61427 442.18175 451.26624 C 438.27309 455.58539 440.25769 458.78331 446.15711 457.67651 C 450.54666 456.85299 450.92754 457.05958 450.92754 460.10432 C 450.92754 462.72128 450.03267 463.59556 446.65403 464.27135 C 444.3001 464.74215 440.90403 465.13031 439.11504 465.13031 C 435.27367 465.13031 434.74823 468.44972 438.26318 470.49704 C 441.65177 472.47078 443.08736 472.32393 450.92754 469.23345 C 454.7496 467.72689 459.2924 466.50039 461.02212 466.50039 C 464.8652 466.50039 466.04528 465.4639 465.07557 462.93676 C 464.67025 461.8805 462.54821 461.01297 460.36902 461.01297 C 457.32009 461.01297 456.41496 460.38079 456.41496 458.27281 C 456.41496 456.76625 457.06541 455.53975 457.86313 455.53975 C 458.66084 455.53975 458.93207 456.14945 458.46653 456.90273 C 457.21383 458.9297 460.96263 458.56808 463.96814 456.37032 C 466.23842 454.7102 466.32831 454.16069 464.65673 452.1465 C 463.50111 450.75402 461.47944 450.0785 459.57395 450.44277 C 457.17193 450.90196 456.41496 450.42301 456.41496 448.46219 C 456.41496 446.6873 457.69541 445.62639 460.5181 445.06184 C 466.16083 443.93322 466.16083 439.9317 460.5181 440.75993 C 455.13656 441.54979 455.13656 438.81593 460.5181 436.78457 C 466.7875 434.41801 465.04551 430.89621 459.9218 431.10548 z M 449.73493 448.68935 C 450.39597 448.68935 450.92754 449.6181 450.92754 450.74802 C 450.92754 451.92886 449.69491 452.79959 448.02411 452.79959 C 445.59573 452.79959 445.39996 452.46441 446.8244 450.74802 C 447.76195 449.6181 449.07392 448.68935 449.73493 448.68935 z "
       transform="matrix(0.44526862,0,0,0.44526862,273.94779,277.40711)" />
    <path
       id="path3895"
       style="fill:#afafaf"
       d="M 466.43145 380.52612 L 450.73587 384.68605 C 442.10489 386.97358 434.94963 388.94287 434.83443 389.06604 C 434.60589 389.31038 419.41381 490.81899 419.42281 492.04208 C 419.42582 492.45458 440.58149 492.78746 466.43145 492.78746 C 492.28139 492.78746 513.42999 492.45458 513.43299 492.04208 C 513.44192 490.81899 498.24991 389.31038 498.02137 389.06604 C 497.90617 388.94287 490.75091 386.97358 482.11992 384.68605 L 466.43145 380.52612 z M 466.43145 383.7561 C 467.25645 383.7561 474.09602 385.39298 481.6301 387.39781 C 494.39141 390.79365 495.36427 391.22223 495.85621 393.6661 C 496.14666 395.10894 499.32419 416.31338 502.91958 440.78832 C 506.51495 465.26328 509.68361 486.3039 509.96165 487.5414 L 510.46566 489.79174 L 466.36756 489.79174 L 422.26945 489.79174 L 422.83736 487.03738 C 423.15124 485.5249 426.35075 464.49136 429.94332 440.2914 C 433.53588 416.09146 436.71603 395.10894 437.00668 393.6661 C 437.49897 391.22229 438.47181 390.79356 451.23279 387.39781 C 458.76689 385.39298 465.60645 383.7561 466.43145 383.7561 z M 454.49827 411.87468 C 452.72608 411.88837 451.00766 413.05708 450.50161 415.58738 C 450.0154 418.0185 446.26699 422.70324 440.44963 428.14526 L 431.17142 436.81296 L 436.16902 436.01079 C 439.63957 435.44754 441.67363 435.79016 442.79935 437.14661 C 443.69148 438.2216 445.93616 439.0988 447.78985 439.0988 C 453.14471 439.0988 450.71045 442.47147 445.00709 442.95348 C 439.74298 443.39834 438.11454 446.31601 442.24564 447.90138 C 444.25247 448.67149 444.15983 449.09461 441.48606 451.58569 C 437.29804 455.48771 439.97197 458.86487 446.41977 457.81848 C 450.43573 457.16676 450.92754 457.42937 450.92754 460.24629 C 450.92754 463.49387 446.97858 465.13031 439.11504 465.13031 C 435.27367 465.13031 434.74823 468.44972 438.26318 470.49704 C 441.36048 472.30048 443.05609 472.29834 447.76145 470.49704 C 449.88176 469.68528 454.70024 468.22901 458.46653 467.25997 C 466.38888 465.22156 467.69403 461.92829 460.85175 461.26853 C 457.50999 460.94632 456.41496 460.17901 456.41496 458.18763 C 456.41496 456.72879 457.06541 455.53975 457.86313 455.53975 C 458.66084 455.53975 458.87219 456.24546 458.33875 457.1086 C 457.64674 458.22834 458.51055 458.38707 461.34157 457.67651 C 463.52383 457.12878 465.5901 456.39532 465.94163 456.04377 C 467.39625 454.5891 463.40285 450.71012 460.03538 450.30789 C 455.06321 449.71396 455.39768 446.08596 460.5181 445.06184 C 467.24542 443.7163 465.76165 439.69682 458.80018 440.40499 C 457.48197 440.53907 456.41496 439.98461 456.41496 439.18398 C 456.41496 438.38335 457.56336 437.72872 458.97765 437.72872 C 462.15311 437.72872 465.20206 434.28884 463.89716 432.17741 C 463.29855 431.20881 461.2977 430.96291 458.6369 431.52431 C 456.27801 432.02201 451.57687 432.77081 448.18738 433.18545 L 442.03267 433.93793 L 448.87597 428.40792 L 455.71927 422.87081 L 459.40358 426.37054 C 461.59155 428.44846 463.96328 429.53358 465.23174 429.04681 C 468.65856 427.73179 467.7008 424.10278 463.26536 421.57881 C 461.01053 420.29561 459.15923 418.28122 459.15512 417.11363 C 459.14142 413.74271 456.77703 411.85723 454.49827 411.87468 z M 489.43175 417.52537 C 489.18489 417.53358 488.94758 417.57216 488.72186 417.62475 C 477.7983 420.16788 471.47164 422.06785 471.47164 422.82111 C 471.47164 423.30389 472.4293 424.49509 473.5942 425.46189 C 475.28133 426.86207 477.14058 426.88838 482.73753 425.59677 C 487.52774 424.49098 490.20137 424.41417 491.15677 425.3696 C 492.11218 426.32504 491.65963 426.77518 489.7228 426.77518 C 488.16034 426.77518 484.30294 427.68038 481.15448 428.79125 C 476.65242 430.37979 474.88169 430.47434 472.83462 429.19589 C 469.42925 427.06913 468.09163 428.52014 470.26483 431.99994 C 471.62852 434.18358 471.65258 436.59921 470.36422 443.59237 C 468.30367 454.77588 468.28509 464.01075 470.32162 468.48097 C 472.46323 473.18165 474.3017 472.86013 478.03098 467.10379 C 482.57703 460.08692 484.57098 459.87294 490.64565 465.8047 C 496.13344 471.1637 500.22911 471.59091 500.22911 466.79854 C 500.22911 463.46108 497.93023 460.74124 491.51171 456.5052 L 486.20887 453.00546 L 491.99444 451.27334 C 498.70324 449.26321 500.14468 446.89786 496.86425 443.27292 C 494.60155 440.77258 494.36598 440.85554 488.94193 446.11957 C 484.10751 450.81134 482.77674 451.42372 479.12421 450.64864 L 474.89329 449.75418 L 478.69828 453.77923 L 482.49616 457.80429 L 478.69828 459.71388 C 476.60934 460.76019 474.3415 461.86953 473.65809 462.18428 C 472.08939 462.90677 473.69729 444.53998 475.34761 442.88959 C 476.00615 442.23103 479.87926 441.63617 483.94433 441.5692 C 488.00923 441.50222 491.99598 440.9316 492.8108 440.2985 C 493.62562 439.66539 495.46974 435.68823 496.90685 431.46042 L 499.51923 423.77946 L 495.55096 420.36491 C 493.36532 418.48484 491.15979 417.46761 489.43175 417.52537 z M 487.42277 432.51815 C 490.50502 432.54678 490.28374 433.14026 489.1194 435.37899 C 486.99518 439.46315 486.54251 439.88158 486.54251 437.77841 C 486.54251 436.49461 485.01072 436.20431 481.0551 436.73488 C 476.57219 437.3362 475.58649 437.05628 475.59607 435.20152 C 475.60566 433.4054 477.17335 432.87433 483.15636 432.63174 C 485.00639 432.55668 486.3953 432.50857 487.42277 432.51815 z M 450.26025 449.29276 C 450.7681 449.32617 450.92754 449.78057 450.92754 450.69833 C 450.92754 451.88784 449.73684 452.79959 448.18738 452.79959 C 444.71023 452.79959 444.71023 451.92041 448.18738 450.05943 C 449.00705 449.62067 449.59436 449.36017 450.01179 449.29985 C 450.09876 449.28753 450.1877 449.28741 450.26025 449.29276 z "
       transform="matrix(0.44526862,0,0,0.44526862,273.94779,277.40711)" />
    <path
       id="path3893"
       style="fill:#8f8f8f"
       d="M 466.43145 380.70359 L 450.62229 384.82803 L 434.82023 388.95956 L 427.50841 438.12625 C 423.48652 465.16688 419.96565 488.5277 419.68547 490.0402 L 419.18145 492.78746 L 466.43145 492.78746 L 513.68145 492.78746 L 513.17033 490.0402 C 512.89016 488.5277 509.36926 465.16688 505.34739 438.12625 L 498.03556 388.95956 L 482.23351 384.82803 L 466.43145 380.70359 z M 466.43145 383.33017 L 480.01866 386.80861 C 487.49456 388.72243 494.08705 390.58481 494.66361 390.94014 C 495.4207 391.40673 510.15227 484.21186 510.39468 490.0402 C 510.41183 490.4527 490.63139 490.79268 466.43145 490.79268 C 431.87699 490.79268 422.43702 490.52494 422.46822 489.54328 C 422.65157 483.77359 437.36166 391.45037 438.17799 390.94724 C 438.76232 390.58711 445.36123 388.72243 452.83714 386.80861 L 466.43145 383.33017 z M 452.38991 411.7114 C 451.58713 411.7114 450.92754 413.15342 450.92754 414.92009 C 450.92754 417.07259 447.87957 421.14439 441.68483 427.2508 C 436.13755 432.719 433.31926 436.35771 434.64276 436.35864 C 437.18794 436.36001 445.78993 430.84676 451.26119 425.70325 L 455.02358 422.17512 L 458.20387 425.15664 C 461.84342 428.57575 467.3685 429.16433 467.3685 426.12918 C 467.3685 425.0186 465.51786 423.14496 463.25826 421.97635 C 460.83605 420.72374 459.14092 418.77163 459.14092 417.20592 C 459.14092 414.67417 455.50549 411.7114 452.38991 411.7114 z M 488.70766 418.32044 C 487.63101 418.34715 486.48844 418.54315 485.17243 418.88835 C 482.53603 419.5799 478.37071 420.46976 475.92262 420.86893 C 470.83755 421.69806 470.2523 423.28548 474.22599 425.4122 C 476.18734 426.46189 478.56125 426.44314 482.57425 425.36251 C 488.41844 423.78874 492.01573 424.31239 492.01573 426.73259 C 492.01573 427.50951 490.26566 428.14526 488.11846 428.14526 C 485.9711 428.14526 482.25041 428.82486 479.86249 429.65731 C 476.60611 430.79258 475.03314 430.76762 473.5587 429.54373 C 470.84367 427.29025 468.06171 429.11117 470.22934 431.72308 C 471.39146 433.12339 471.53055 436.11918 470.70496 442.2081 C 468.91423 455.4154 469.16042 467.14077 471.29417 469.70907 C 473.92093 472.871 474.6136 472.61009 477.44888 467.34515 C 478.82096 464.79728 481.363 462.06366 483.09247 461.27563 C 485.86688 460.01158 486.75242 460.47502 490.56757 465.22259 C 495.18816 470.9727 498.04228 471.98018 499.43404 468.35319 C 500.6049 465.30206 497.27413 460.5743 491.39103 456.93823 C 486.42513 453.86921 486.06337 451.42951 490.57466 451.42951 C 491.95328 451.42951 494.41649 450.34834 496.04079 449.0301 C 498.71869 446.85702 498.79923 446.37386 496.95654 443.89053 C 495.1157 441.40952 494.75735 441.35829 493.13025 443.33681 C 489.69937 447.50825 482.29991 451.71122 479.62113 451.01068 C 476.01936 450.06872 476.24084 452.14323 480.02576 454.79437 L 483.09957 456.95242 L 478.99643 460.225 C 476.74013 462.02416 474.43638 463.20807 473.87105 462.85867 C 472.60934 462.07886 472.75893 449.28073 474.08402 444.58621 C 474.79151 442.07965 475.8416 441.2693 478.00259 441.5763 C 481.47022 442.06894 486.54251 439.65295 486.54251 437.50865 C 486.54251 436.52984 484.63832 436.31805 481.0551 436.89105 C 476.17475 437.6715 475.58188 437.46655 475.58188 434.98856 C 475.58188 432.7739 476.21638 432.36017 478.71247 432.98668 C 480.43671 433.41945 483.60801 433.10716 485.75454 432.29099 C 490.95331 430.31437 491.5896 431.33978 488.80705 437.17501 C 486.64757 441.70388 486.64259 442.02763 488.75736 441.61179 C 492.45969 440.88401 496.37687 434.38797 497.12691 427.73352 C 497.7763 421.97206 497.54294 421.39965 493.88983 419.58404 C 492.09119 418.69016 490.50191 418.27604 488.70766 418.32044 z M 460.17735 431.12678 C 460.04355 431.11993 459.90666 431.12329 459.76562 431.13388 C 459.08856 431.18743 458.31561 431.44145 457.32361 431.89346 C 455.51079 432.71927 451.16169 433.83087 447.65497 434.35676 C 442.43576 435.13944 441.56255 435.6532 442.84904 437.2034 C 443.71344 438.24496 445.87826 439.0988 447.66917 439.0988 C 453.37622 439.0988 451.43484 442.88419 445.18457 443.94022 C 439.91941 444.82979 439.6572 445.06868 441.99718 446.77976 C 444.38806 448.52807 444.40068 448.80827 442.25984 451.17395 C 438.00683 455.87381 440.2546 458.63052 447.25033 457.29317 C 450.47147 456.67736 450.92754 457.02832 450.92754 460.11142 C 450.92754 463.09205 450.14179 463.78264 445.79507 464.61919 C 442.97035 465.1628 439.58138 465.53577 438.26318 465.44976 C 435.4728 465.26767 435.18137 466.62719 437.5107 468.95659 C 439.73268 471.17863 445.27195 471.0309 452.29762 468.55196 C 455.50007 467.42204 459.58152 466.50039 461.36996 466.50039 C 463.76683 466.50039 464.62834 465.73774 464.62834 463.60405 C 464.62834 461.16683 463.97732 460.79627 460.5181 461.30402 C 456.95732 461.82665 456.41496 461.48187 456.41496 458.72004 C 456.41496 456.96747 457.06541 455.53975 457.86313 455.53975 C 458.66084 455.53975 458.88965 456.22493 458.37424 457.05891 C 457.26233 458.85808 463.14617 457.35765 465.30983 455.29129 C 467.18884 453.49691 461.94645 449.73518 458.72919 450.57055 C 456.83274 451.06296 456.3534 450.5325 456.67762 448.29892 C 456.93915 446.49705 458.4042 445.06759 460.5181 444.57202 C 464.61498 443.6115 463.86263 441.1306 459.49586 441.20716 C 454.92454 441.28728 455.75812 438.22564 460.78786 436.47222 C 464.86838 435.04963 465.01543 434.79361 462.89622 432.67433 C 461.89804 431.67614 461.11372 431.17539 460.17735 431.12678 z M 450.53001 447.61743 C 450.91977 447.66262 450.92754 448.38824 450.92754 449.84647 C 450.92754 452.13084 450.11251 452.79959 447.28583 452.79959 C 445.27715 452.79959 443.88398 452.6339 444.19783 452.43755 C 444.51169 452.2412 446.15181 450.91848 447.84664 449.49152 C 449.36893 448.20967 450.14024 447.57227 450.53001 447.61743 z "
       transform="matrix(0.44526862,0,0,0.44526862,273.94779,277.40711)" />
    <path
       id="path3891"
       style="fill:#707070"
       d="M 466.43145 380.76038 L 451.1831 384.82093 C 442.79674 387.05522 435.64936 389.20524 435.30296 389.59136 C 434.95656 389.97748 431.45726 412.11859 427.52261 438.79355 C 423.58793 465.46849 420.12159 488.5277 419.82035 490.0402 L 419.26664 492.78746 L 466.43145 492.78746 L 513.58916 492.78746 L 513.04255 490.0402 C 512.7413 488.5277 509.27497 465.46849 505.34029 438.79355 C 501.40562 412.11859 497.89924 389.97748 497.55284 389.59136 C 497.20644 389.20524 490.06616 387.05522 481.6798 384.82093 L 466.43145 380.76038 z M 466.43145 383.09591 L 480.58657 386.90089 C 488.37514 388.9965 495.05217 391.06704 495.42318 391.50095 C 495.79418 391.93486 499.14635 412.98957 502.86989 438.28953 C 506.59341 463.58947 509.87868 485.7539 510.16751 487.5414 L 510.69283 490.79268 L 466.55923 490.79268 C 442.28731 490.79268 422.42043 490.4527 422.41143 490.0402 C 422.35759 487.47076 436.89662 392.14051 437.43971 391.50095 C 437.80817 391.06704 444.48064 388.9965 452.26923 386.90089 L 466.43145 383.09591 z M 452.38991 411.7114 C 451.58713 411.7114 450.92754 413.32088 450.92754 415.29633 C 450.92754 417.93866 448.485 421.24187 441.68483 427.79032 C 434.89418 434.32924 433.3558 436.41991 435.87086 435.65585 C 439.84277 434.4492 449.58141 427.99915 452.20534 424.83719 C 454.56427 421.99495 455.83416 422.10534 459.14092 425.4122 C 461.78545 428.0568 467.38297 429.22405 467.3401 427.12302 C 467.30217 425.26347 465.35852 423.09928 462.22892 421.45103 C 460.53409 420.55848 459.14092 418.63818 459.14092 417.18462 C 459.14092 414.66387 455.49955 411.7114 452.38991 411.7114 z M 489.65891 418.85995 C 489.31997 418.86132 488.97397 418.87381 488.61538 418.89545 C 487.79572 418.94598 486.91989 419.05098 485.9959 419.2078 C 482.90332 419.73271 478.37071 420.48772 475.92262 420.88313 C 470.83221 421.70531 470.24491 423.28481 474.23309 425.4193 C 476.17049 426.45635 478.51305 426.46659 482.10573 425.46899 C 489.18541 423.50276 492.01573 423.68572 492.01573 426.09369 C 492.01573 427.43939 490.67574 428.14526 488.11846 428.14526 C 485.9711 428.14526 482.22074 428.83902 479.7915 429.68571 C 476.52174 430.82564 474.97546 430.82564 473.83556 429.68571 C 471.08601 426.93626 469.87005 428.04994 470.83274 432.43297 C 471.35079 434.79168 471.00719 442.34587 470.07316 449.21467 C 468.59353 460.09733 468.65528 462.36566 470.54169 466.84113 C 473.16649 473.06844 474.69749 473.29402 476.97325 467.79948 C 477.924 465.50411 480.42665 462.74386 482.52456 461.65897 C 486.23114 459.74215 486.46399 459.8306 490.66695 465.13741 C 495.36976 471.0756 498.16638 472.034 499.20688 468.05504 C 500.18802 464.30304 497.97456 461.25492 491.07868 456.88144 L 484.93107 452.98416 L 490.53917 451.30173 C 497.60965 449.1833 499.18607 447.37782 496.80746 444.12479 C 495.03472 441.70032 494.89605 441.69633 492.36358 444.12479 C 484.52305 451.64261 482.38318 452.87127 479.64952 451.40822 C 475.69782 449.29346 476.35531 451.53684 480.71435 455.03573 L 484.48384 458.05985 L 480.85633 459.45122 C 478.85804 460.21858 476.81442 461.49829 476.32016 462.29786 C 474.1847 465.75322 472.84977 463.19769 472.9766 455.8805 C 473.17765 444.28279 474.34856 441.17731 478.5705 441.01549 C 483.38617 440.83091 486.54251 439.49945 486.54251 437.65063 C 486.54251 436.62096 484.73469 436.42554 481.0551 437.04723 C 476.04076 437.89445 475.58188 437.72372 475.58188 434.96016 C 475.58188 432.582 476.18327 432.09088 478.41432 432.67433 C 479.97203 433.08173 483.08885 432.77614 485.33571 431.99284 C 490.5579 430.1725 491.43504 431.14522 489.27557 436.35864 C 487.27504 441.18851 488.23833 443.04407 491.38393 440.43338 C 494.29622 438.01631 497.49605 430.07859 497.49605 425.28442 C 497.49605 421.32972 495.09204 419.13822 490.64565 418.88835 C 490.32805 418.87041 489.99785 418.85845 489.65891 418.85995 z M 460.19155 431.33974 C 459.02634 431.34248 457.38444 431.83152 454.48407 432.81631 C 450.96989 434.00945 446.42043 435.01428 444.3753 435.03825 C 440.81011 435.08002 440.7685 435.16175 443.31757 437.08982 C 444.77974 438.19561 447.08767 439.0988 448.45004 439.0988 C 453.46166 439.0988 451.02049 443.16002 445.47562 444.0467 C 439.858 444.94505 439.17128 447.28476 444.50308 447.36187 C 447.35043 447.40309 447.31718 447.54931 443.7435 450.21561 C 437.34154 454.99213 438.9726 457.67836 447.84664 456.95952 C 450.28688 456.76183 450.92754 457.42122 450.92754 460.13271 C 450.92754 463.16475 450.07053 463.75322 443.40985 465.24389 C 437.3666 466.59634 436.18511 467.2874 437.41132 468.76492 C 439.27719 471.01307 445.31315 471.14579 450.50161 469.04888 C 452.6221 468.1919 456.50452 467.10223 459.14092 466.62817 C 465.03951 465.56752 465.92915 461.56333 460.17735 461.95712 C 457.07197 462.16972 456.41496 461.65081 456.41496 459.01819 C 456.41496 457.26209 457.40185 455.45181 458.61561 454.98604 C 460.13776 454.40191 460.59189 454.72297 460.08507 456.04377 C 459.22749 458.27866 464.10437 457.49311 465.54409 455.16351 C 466.81855 453.10133 461.78069 449.90433 458.76468 450.8616 C 456.6774 451.52412 456.26748 451.08376 456.63502 448.53318 C 456.9293 446.49099 458.30067 445.09186 460.5181 444.57202 C 464.65682 443.60169 463.832 441.05019 459.49586 441.41302 C 454.82402 441.80395 455.75816 438.22562 460.78786 436.47222 C 464.76357 435.08617 464.97259 434.75078 463.024 432.80211 C 462.04969 431.82777 461.35658 431.33661 460.19155 431.33974 z M 450.53001 447.61743 C 450.91977 447.66262 450.92754 448.38824 450.92754 449.84647 C 450.92754 452.13084 450.11251 452.79959 447.28583 452.79959 C 445.27715 452.79959 443.88398 452.6339 444.19783 452.43755 C 444.51169 452.2412 446.15181 450.91848 447.84664 449.49152 C 449.36893 448.20967 450.14024 447.57227 450.53001 447.61743 z "
       transform="matrix(0.44526862,0,0,0.44526862,273.94779,277.40711)" />
    <path
       id="path3889"
       style="fill:#4f4f4f"
       d="M 466.43145 380.92365 L 450.72877 385.10488 L 435.0261 389.29321 L 427.79236 437.79261 C 423.81447 464.46755 420.3312 487.75578 420.05461 489.54328 L 419.55769 492.78746 L 466.43145 492.78746 L 513.30521 492.78746 L 512.80119 489.54328 C 512.5246 487.75578 509.04134 464.46755 505.06343 437.79261 L 497.8297 389.29321 L 482.12702 385.10488 L 466.43145 380.92365 z M 466.43145 382.95393 L 480.49429 386.73762 C 488.23125 388.81935 494.92464 390.92315 495.36639 391.40867 C 495.99739 392.1022 510.51227 487.05073 510.44437 490.0402 C 510.435 490.4527 490.63139 490.79268 466.43145 490.79268 C 431.90747 490.79268 422.42513 490.52408 422.41143 489.54328 C 422.36332 486.09199 436.78754 392.16712 437.48231 391.40867 C 437.92707 390.92315 444.62455 388.81935 452.36151 386.73762 L 466.43145 382.95393 z M 452.87973 411.7114 C 451.68036 411.7114 450.92754 413.10404 450.92754 415.31052 C 450.92754 417.95914 448.48922 421.26564 441.69193 427.83291 C 434.91222 434.38322 433.36273 436.48499 435.87086 435.71974 C 439.52033 434.60627 446.65352 429.76056 452.38991 424.49645 L 455.89674 421.28066 L 458.87826 424.70941 C 461.70556 427.96117 467.3685 429.48086 467.3685 426.98814 C 467.3685 425.47988 463.21452 421.94023 460.19155 420.86893 C 458.86108 420.39746 458.14377 419.18199 458.55881 418.10037 C 459.41993 415.8563 455.73433 411.7114 452.87973 411.7114 z M 489.57373 418.91674 C 488.54871 418.88812 487.43188 418.97715 486.23016 419.1794 C 483.01191 419.72113 478.41702 420.4797 476.02201 420.86893 C 472.84469 421.38525 471.88528 422.13986 472.46548 423.65168 C 473.11824 425.35281 474.93137 425.55334 482.63104 424.7946 C 490.6125 424.00809 492.01573 424.18276 492.01573 426.0014 C 492.01573 427.44425 490.73626 428.14526 488.06877 428.14526 C 485.89547 428.14526 482.03501 429.10749 479.50045 430.27492 L 474.89329 432.39038 L 482.915 431.72308 C 489.97848 431.13399 490.83026 431.32468 490.18423 433.36292 C 489.78118 434.63454 489.03682 437.06317 488.52309 438.75805 C 486.52399 445.35326 492.66206 440.72421 495.86331 433.22094 C 499.46111 424.78776 496.74888 419.11718 489.57373 418.91674 z M 472.20992 429.06811 C 472.14377 429.06537 472.08052 429.07692 472.01825 429.0965 C 471.147 429.36463 470.72816 431.96726 470.63397 437.56544 C 470.55002 442.55485 470.25624 450.94828 469.98088 456.22124 C 469.6637 462.29053 470.11436 466.9418 471.20898 468.8927 C 473.49001 472.95831 474.55781 472.77625 476.6822 467.97695 C 477.65426 465.78086 480.06785 462.92865 482.04894 461.63057 C 485.63787 459.27894 485.66966 459.28414 490.54627 464.95284 C 496.53203 471.91107 499.19788 472.31217 498.60347 466.15964 C 498.2556 462.559 496.91956 460.88743 491.51171 457.35706 L 484.83879 453.00546 L 490.62436 451.27334 C 496.85394 449.40684 498.71313 447.02417 496.25375 444.0609 C 494.99697 442.54653 493.64624 443.17594 488.93483 447.48255 C 484.74929 451.30863 482.37914 452.54326 480.3878 451.93353 C 477.8777 451.1649 477.92847 451.3992 480.92022 454.6382 L 484.19989 458.19472 L 480.70725 459.51511 C 478.78762 460.24497 476.81442 461.49829 476.32016 462.29786 C 473.25686 467.25453 471.51363 455.69197 473.68648 444.82757 C 474.44474 441.0362 475.09436 440.57157 480.19613 440.19912 C 483.39832 439.96533 485.55962 439.19171 485.17243 438.41731 C 484.7958 437.66402 482.5364 437.22488 480.15354 437.43766 C 476.34387 437.77786 475.7159 437.33322 474.93588 433.78175 C 474.448 431.56055 473.31133 429.46213 472.41579 429.1178 C 472.34402 429.09014 472.27608 429.07085 472.20992 429.06811 z M 460.37612 431.38234 C 458.97158 431.4563 456.73917 432.02924 454.66864 432.89439 C 451.90811 434.04793 447.62845 435.01428 445.15617 435.03825 C 440.90716 435.07947 440.80459 435.18904 443.31757 437.08982 C 444.77974 438.19561 447.08767 439.0988 448.45004 439.0988 C 452.99427 439.0988 451.12363 443.05431 446.13581 443.98991 C 440.79936 444.99106 439.63028 447.29435 444.42499 447.36187 C 447.40532 447.40378 447.38595 447.49783 443.7435 450.21561 C 438.19823 454.35295 438.85038 456.90273 445.45432 456.90273 C 450.35657 456.90273 450.92754 457.26126 450.92754 460.26759 C 450.92754 462.98318 449.94622 463.8993 445.79507 465.05222 C 442.97035 465.8367 439.50324 466.48208 438.09281 466.48619 C 435.96878 466.49304 435.8288 466.85038 437.24094 468.55196 C 439.22 470.93665 445.79035 471.2551 449.71364 469.15536 C 451.20569 468.35681 455.01627 467.25391 458.18258 466.71335 C 464.84717 465.5756 466.54825 461.52096 460.17735 461.95712 C 457.05174 462.17111 456.41496 461.65861 456.41496 458.9543 C 456.41496 455.44508 459.32049 452.64254 460.20575 455.29839 C 460.84339 457.21139 464.13215 457.43678 465.23884 455.64623 C 466.67445 453.32329 461.88505 450.00703 458.36715 450.89 C 456.065 451.46782 455.04456 451.14869 455.05908 449.86066 C 455.09441 446.72352 456.93432 444.88325 460.5181 444.38035 C 465.17841 443.72633 463.54696 441.06738 458.75758 441.51241 C 455.31962 441.83188 455.0757 441.58899 456.40076 439.11299 C 457.21075 437.59946 459.08068 436.35864 460.56069 436.35864 C 463.56371 436.35864 464.27233 432.56453 461.46935 431.48882 C 461.22399 431.39473 460.84431 431.35768 460.37612 431.38234 z M 449.72074 448.36281 C 449.81524 448.35048 449.90493 448.34801 449.98339 448.36281 C 450.36006 448.43389 450.56451 448.81869 450.70748 449.48443 C 450.96238 450.67143 450.96238 451.8212 450.70748 452.03292 C 450.45258 452.24463 448.39541 452.81177 446.13581 453.30361 L 442.03267 454.19807 L 446.13581 450.76932 C 447.98404 449.223 449.05884 448.45169 449.72074 448.36281 z "
       transform="matrix(0.44526862,0,0,0.44526862,273.94779,277.40711)" />
    <path
       id="path3887"
       style="fill:#2f2f2f"
       d="M 466.43145 380.98754 L 450.89205 385.11908 C 437.93508 388.56266 435.27458 389.58066 434.89832 391.26669 C 434.65016 392.37874 431.2973 414.66338 427.44452 440.78832 C 423.59173 466.91328 420.20115 489.30672 419.91263 490.54422 L 419.38732 492.78746 L 466.43145 492.78746 L 513.46848 492.78746 L 512.94317 490.54422 C 512.65465 489.30672 509.26405 466.91328 505.41128 440.78832 C 501.5585 414.66338 498.20564 392.37874 497.95748 391.26669 C 497.58122 389.58066 494.92073 388.56266 481.96375 385.11908 L 466.43145 380.98754 z M 466.43145 382.81905 L 481.048 386.75182 C 489.08709 388.91618 495.76903 390.82479 495.89881 390.98984 C 496.21092 391.38676 510.45257 487.92876 510.43727 489.54328 C 510.42799 490.52416 500.95839 490.79268 466.43145 490.79268 C 425.19606 490.79268 422.42453 490.67931 422.41853 489.03926 C 422.41079 487.07901 436.59587 391.46063 436.96409 390.98984 C 437.09317 390.82479 443.77581 388.91618 451.8149 386.75182 L 466.43145 382.81905 z M 453.84517 411.7114 C 453.29703 411.7114 452.10173 413.79242 451.1831 416.33276 C 450.26448 418.87326 446.16614 424.1054 442.08237 427.96779 C 431.4012 438.06989 437.10942 437.07646 449.66395 426.6474 L 455.93224 421.44394 L 459.47457 424.98627 C 461.78372 427.2955 463.82858 428.21619 465.34532 427.63414 C 467.30831 426.88085 467.38992 426.40666 465.86354 424.56743 C 464.86809 423.36795 462.65543 421.85326 460.94403 421.20257 C 459.06701 420.4889 458.12821 419.24537 458.57301 418.08618 C 459.28019 416.24327 455.91528 411.7114 453.84517 411.7114 z M 489.65891 418.5547 C 484.91458 418.5547 472.84172 422.72916 472.84172 424.36867 C 472.84172 425.26518 476.24428 425.42568 482.43227 424.81589 C 490.60984 424.01007 492.01573 424.17827 492.01573 426.0014 C 492.01573 427.405 490.72667 428.16861 488.25334 428.20915 C 486.18188 428.24311 482.64048 429.17554 480.3807 430.27492 C 476.35589 432.23288 476.41888 432.25485 483.62488 431.51012 C 490.89395 430.75889 490.97642 430.78925 490.14163 434.1154 C 489.67701 435.9665 488.88229 438.53552 488.38822 439.82288 C 487.62408 441.81427 487.90988 441.94136 490.27651 440.67474 C 493.06549 439.18226 497.49605 430.07163 497.49605 425.83103 C 497.49605 422.39712 493.35701 418.5547 489.65891 418.5547 z M 472.11053 429.51534 C 470.47933 429.51534 470.32052 430.08645 471.38645 432.07803 C 472.29591 433.7775 472.30648 437.37097 471.42195 442.69792 C 469.55211 453.95842 469.52596 465.60606 471.37225 469.05598 C 473.47842 472.99151 474.5771 472.73161 476.76029 467.79948 C 477.77553 465.50582 480.17421 462.60294 482.09153 461.34662 C 485.53785 459.08845 485.63872 459.13302 490.81603 465.14451 C 494.77282 469.73896 496.44395 470.8393 497.63803 469.64518 C 500.63531 466.64781 497.74445 461.27261 491.01479 457.32866 L 484.55483 453.54497 L 491.02189 450.8616 C 497.49031 448.18075 498.75924 446.389 496.06918 443.69886 C 495.07554 442.70518 492.87784 443.86808 488.88514 447.51804 C 484.73192 451.31458 482.37743 452.54273 480.3878 451.93353 C 477.8254 451.14889 477.84996 451.32301 480.78534 454.50332 L 483.94433 457.92497 L 478.99643 460.8426 C 476.27745 462.4467 473.8532 463.75313 473.6013 463.75313 C 471.97545 463.75313 471.62519 455.46501 472.9624 448.66806 L 474.54544 440.61795 L 480.20323 440.19912 C 483.40084 439.96557 485.55955 439.19156 485.17243 438.41731 C 484.7958 437.66402 482.23686 437.24861 479.48625 437.49445 C 475.99212 437.80675 474.51018 437.39364 474.56674 436.12437 C 474.77432 431.46928 474.04544 429.51534 472.11053 429.51534 z M 460.42581 431.46042 C 459.0966 431.48519 457.41228 431.9529 455.63409 432.8802 C 453.42383 434.03281 449.16363 434.98445 446.17131 434.98856 C 440.79266 434.99677 440.7636 435.0152 443.85708 437.1821 C 445.57814 438.38761 448.14713 439.07532 449.55036 438.70836 C 451.46433 438.20796 451.8871 438.60241 451.26829 440.28431 C 450.16875 443.27283 448.15091 444.53248 444.42499 444.55782 C 440.39893 444.58521 440.39893 447.2975 444.42499 447.36187 C 447.35659 447.40871 447.30593 447.57583 443.42405 450.74802 C 438.6839 454.62139 439.68076 456.5025 446.8244 457.15829 C 450.45645 457.49175 451.71259 458.28177 452.02077 460.43796 C 452.34346 462.69567 451.31758 463.60789 447.06576 464.88185 C 444.11828 465.76497 440.31779 466.50039 438.61812 466.50039 C 436.02646 466.50039 435.81111 466.82905 437.24094 468.55196 C 439.25019 470.97303 443.76042 471.19383 449.13153 469.12697 C 451.25202 468.311 455.4535 467.20809 458.46653 466.68496 C 464.78133 465.58855 466.46436 461.43716 460.34063 462.0636 C 457.46146 462.35812 456.60513 461.75664 456.08841 459.05369 C 455.36942 455.29239 458.85012 452.8491 460.68847 455.82371 C 461.50455 457.14401 462.15536 457.18202 463.35054 455.98698 C 465.72132 453.61613 463.62025 451.42951 458.97055 451.42951 C 455.50756 451.42951 454.91866 450.94693 455.28624 448.4267 C 455.59 446.34419 457.09669 445.06477 460.21995 444.25967 C 465.86009 442.80578 464.57795 439.96321 458.84987 441.22135 C 453.62962 442.36797 454.12446 439.2919 459.58815 436.62839 C 461.60381 435.64569 463.25826 434.24781 463.25826 433.51199 C 463.25826 432.28552 462.37004 431.58926 460.97243 431.47462 C 460.79773 431.46029 460.6157 431.45689 460.42581 431.46042 z M 451.33928 447.46125 C 452.03911 447.47358 452.29762 448.13559 452.29762 449.40634 C 452.29762 450.5549 450.72296 452.09335 448.79079 452.82799 C 442.87598 455.07693 441.82182 454.23439 446.13581 450.69833 C 448.51693 448.74635 450.06021 447.70223 451.00563 447.50384 C 451.12382 447.47905 451.23928 447.45961 451.33928 447.46125 z "
       transform="matrix(0.44526862,0,0,0.44526862,273.94779,277.40711)" />
    <path
       id="path3885"
       style="fill:#030303"
       d="M 466.43145 381.30699 L 450.96304 385.26816 C 436.57897 388.95173 435.45852 389.40255 434.98351 391.75651 C 434.12083 396.03169 420.43085 488.74937 420.43085 490.31706 C 420.43085 491.59079 426.60827 491.79362 466.43145 491.79362 C 506.25463 491.79362 512.43205 491.59079 512.43205 490.31706 C 512.43205 488.74937 498.74208 396.0317 497.87939 391.75651 C 497.40439 389.40256 496.28393 388.95173 481.89986 385.26816 L 466.43145 381.30699 z M 466.92837 382.76226 L 481.37454 386.61694 C 489.31992 388.73557 495.94925 390.87891 496.10467 391.38027 C 496.6464 393.12761 510.43017 486.90226 510.43017 488.84049 C 510.43017 490.74862 509.4041 490.79268 466.01971 490.79268 C 424.24816 490.79268 421.63789 490.68543 421.9997 489.03926 C 422.21125 488.07676 425.58387 465.69041 429.49609 439.29047 C 433.40831 412.89051 436.90709 391.02281 437.26934 390.69878 C 437.63158 390.37476 444.45042 388.46044 452.4254 386.43947 L 466.92837 382.76226 z M 454.2995 413.08148 C 453.19612 413.08148 452.29762 414.05862 452.29762 415.25373 C 452.29762 416.44884 448.51024 421.37635 443.87128 426.20727 C 439.23253 431.0384 436.10809 434.99566 436.93569 434.99566 C 437.76333 434.99566 442.41131 431.95034 447.26453 428.23044 L 456.08841 421.46523 L 459.23321 424.80879 C 462.74913 428.55143 465.99842 429.18589 465.99842 426.12918 C 465.99842 425.0186 464.09017 423.12439 461.7604 421.91956 C 459.43063 420.71476 457.8689 419.3866 458.28906 418.96643 C 459.56641 417.68926 456.44146 413.08148 454.2995 413.08148 z M 489.39625 418.77477 C 489.20348 418.7679 489.0074 418.77278 488.79995 418.78186 C 487.14018 418.85476 484.94564 419.43662 481.17578 420.57788 C 475.40316 422.32576 473.19446 423.57139 474.1621 424.53904 C 475.12972 425.50669 477.83153 425.48276 482.76592 424.46095 C 490.44132 422.87194 492.01573 423.13413 492.01573 426.0156 C 492.01573 427.10336 489.68423 428.18648 486.20177 428.71317 C 476.99529 430.10553 474.73764 432.64307 483.63198 431.6024 C 490.78305 430.7657 490.97411 430.83444 490.31201 433.89533 C 489.93707 435.62882 489.17275 438.13405 488.61538 439.46084 C 487.84963 441.28368 488.1166 441.67611 489.7086 441.06518 C 492.46742 440.00649 497.76216 428.66635 497.22629 424.96497 C 496.99622 423.37602 495.18828 421.16416 493.20124 420.05256 C 491.78501 419.26026 490.74571 418.82282 489.39625 418.77477 z M 471.54973 429.51534 C 470.64771 429.51534 470.67885 430.65152 471.64911 432.78081 C 472.72281 435.13732 472.71407 438.01146 471.62071 443.11675 C 469.7131 452.01213 469.66342 464.48342 471.52133 467.95565 C 473.4116 471.48777 474.83386 471.28704 476.6751 467.24577 C 477.51498 465.40244 479.79755 462.84408 481.75788 461.55958 C 485.28913 459.24574 485.37888 459.27692 491.24906 465.03802 C 495.13109 468.84829 497.51113 470.30841 498.14915 469.27604 C 500.11822 466.09012 497.4332 461.52474 491.33424 457.66941 C 484.52591 453.36576 484.63069 452.58497 492.35648 450.11622 C 497.49271 448.47477 498.72792 446.36459 496.09048 443.72725 C 495.13338 442.77012 492.86365 444.01171 488.93483 447.63872 C 485.13039 451.15091 482.30077 452.72071 480.59367 452.27428 C 478.21678 451.6527 478.24172 451.85175 480.90602 454.68789 C 484.26616 458.26464 484.55545 459.64289 481.93535 459.64289 C 480.90705 459.64289 478.46499 460.89483 476.51893 462.42564 L 472.99079 465.21549 L 472.10344 460.51605 C 471.61875 457.93248 471.93721 452.3626 472.81332 448.14274 C 474.34264 440.77572 474.58187 440.47482 478.76216 440.45468 C 481.15684 440.44237 484.04257 439.79211 485.17243 439.02071 C 486.69173 437.98407 485.64806 437.71772 481.18288 437.98428 C 476.25282 438.27864 475.08257 437.89822 474.7868 435.88301 C 474.19216 431.83122 473.01824 429.51534 471.54973 429.51534 z M 460.40452 431.96444 C 460.21966 431.96251 460.02452 431.96634 459.82241 431.97864 C 458.60974 432.06015 457.11664 432.43872 455.58439 433.07896 C 453.07395 434.12791 448.99852 435.01429 446.52625 435.03825 C 442.27062 435.07947 442.16957 435.18706 444.69475 437.09692 C 446.16157 438.20643 448.46953 438.76305 449.82722 438.33212 C 451.65911 437.75068 452.29762 438.27315 452.29762 440.36239 C 452.29762 442.595 451.15109 443.36245 446.73922 444.068 C 440.40561 445.08064 441.23853 447.42509 448.00281 447.61743 C 456.02747 447.84566 452.41554 454.06868 444.21202 454.14837 C 442.76307 454.16068 442.93625 453.40929 444.89351 451.08877 C 447.29055 448.24682 447.19733 448.25495 443.77189 451.28044 C 439.13462 455.37652 439.98451 456.90273 446.90249 456.90273 C 451.7189 456.90273 452.29762 457.26966 452.29762 460.26759 C 452.29762 462.98318 451.31629 463.89218 447.16515 465.04512 C 444.34045 465.8296 440.95146 466.48207 439.63326 466.48619 C 437.20014 466.49234 436.48206 468.02731 438.1425 469.68778 C 439.74687 471.29238 444.65232 470.67078 452.65966 467.85627 C 456.94599 466.34972 461.44339 465.12321 462.65486 465.12321 C 463.86632 465.12321 464.59749 464.35398 464.28049 463.41238 C 463.96347 462.47079 461.90268 461.69446 459.70883 461.69446 C 456.36715 461.69446 455.71927 461.1413 455.71927 458.27281 C 455.71927 455.71655 456.54233 454.73135 458.95635 454.38974 C 461.21476 454.07012 461.88168 454.43524 461.1641 455.59654 C 460.50517 456.66271 460.82418 457.03257 462.04435 456.62588 C 465.72634 455.39847 464.03606 452.11577 459.49586 451.67797 C 455.88161 451.32947 455.03778 450.66389 455.03778 448.09305 C 455.03778 445.67093 455.99763 444.72508 459.14092 444.09639 C 461.40069 443.64442 463.25826 442.66323 463.25826 441.90994 C 463.25826 441.10867 461.49093 440.88766 459.00604 441.38463 C 455.36041 442.1138 454.83139 441.86709 455.25785 439.65251 C 455.53098 438.23369 456.98287 436.86296 458.48073 436.5929 C 462.51084 435.86616 464.28482 433.73416 462.03016 432.34068 C 461.74872 432.16689 461.37444 432.05204 460.92983 431.99994 C 460.76312 431.98148 460.5894 431.96783 460.40452 431.96444 z "
       transform="matrix(0.44526862,0,0,0.44526862,273.94779,277.40711)" />
  </g>
</svg>
