<?xml version="1.0" encoding="UTF-8" standalone="no"?>
<!-- Created with Inkscape (http://www.inkscape.org/) -->

<svg
   viewBox="0 0 38.549999 41.919998"
   version="1.1"
   id="svg1"
   inkscape:version="1.3.2 (091e20e, 2023-11-25, custom)"
   sodipodi:docname="Ryu.svg"
   xml:space="preserve"
   xmlns:inkscape="http://www.inkscape.org/namespaces/inkscape"
   xmlns:sodipodi="http://sodipodi.sourceforge.net/DTD/sodipodi-0.dtd"
   xmlns="http://www.w3.org/2000/svg"
   xmlns:svg="http://www.w3.org/2000/svg"><sodipodi:namedview
     id="namedview1"
     pagecolor="#ffffff"
     bordercolor="#111111"
     borderopacity="1"
     inkscape:showpageshadow="false"
     inkscape:pageopacity="0"
     inkscape:pagecheckerboard="1"
     inkscape:deskcolor="#d1d1d1"
     inkscape:document-units="mm"
     showguides="true"
     inkscape:zoom="11.569391"
     inkscape:cx="19.231782"
     inkscape:cy="20.960482"
     inkscape:window-width="1292"
     inkscape:window-height="745"
     inkscape:window-x="-8"
     inkscape:window-y="-8"
     inkscape:window-maximized="1"
     inkscape:current-layer="layer1"
     labelstyle="default"><inkscape:page
       x="0"
       y="0"
       width="38.549999"
       height="41.919998"
       id="page42"
       margin="0"
       bleed="0" /></sodipodi:namedview><defs
     id="defs1"><inkscape:path-effect
       effect="powerstroke"
       id="path-effect12"
       is_visible="true"
       lpeversion="1.3"
       scale_width="1"
       interpolator_type="CubicBezierJohan"
       interpolator_beta="0.2"
       start_linecap_type="zerowidth"
       end_linecap_type="zerowidth"
       offset_points="7,4.9921382"
       linejoin_type="extrp_arc"
       miter_limit="4"
       not_jump="false"
       sort_points="true"
       message="&lt;b&gt;Ctrl + click&lt;/b&gt; on existing node and move it" /><inkscape:path-effect
       effect="powerstroke"
       id="path-effect13"
       is_visible="true"
       lpeversion="1.3"
       scale_width="1"
       interpolator_type="CubicBezierJohan"
       interpolator_beta="0.2"
       start_linecap_type="zerowidth"
       end_linecap_type="zerowidth"
       offset_points="5,4.9921382"
       linejoin_type="extrp_arc"
       miter_limit="4"
       not_jump="false"
       sort_points="true"
       message="&lt;b&gt;Ctrl + click&lt;/b&gt; on existing node and move it" /><inkscape:path-effect
       effect="powerstroke"
       id="path-effect13-8"
       is_visible="true"
       lpeversion="1.3"
       scale_width="1"
       interpolator_type="CubicBezierJohan"
       interpolator_beta="0.2"
       start_linecap_type="zerowidth"
       end_linecap_type="zerowidth"
       offset_points="5,4.9921382"
       linejoin_type="extrp_arc"
       miter_limit="4"
       not_jump="false"
       sort_points="true"
       message="&lt;b&gt;Ctrl + click&lt;/b&gt; on existing node and move it" /><inkscape:path-effect
       effect="powerstroke"
       id="path-effect13-5"
       is_visible="true"
       lpeversion="1.3"
       scale_width="1"
       interpolator_type="CubicBezierJohan"
       interpolator_beta="0.2"
       start_linecap_type="zerowidth"
       end_linecap_type="zerowidth"
       offset_points="5,4.9921382"
       linejoin_type="extrp_arc"
       miter_limit="4"
       not_jump="false"
       sort_points="true"
       message="&lt;b&gt;Ctrl + click&lt;/b&gt; on existing node and move it" /><inkscape:path-effect
       effect="powerstroke"
       id="path-effect13-3"
       is_visible="true"
       lpeversion="1.3"
       scale_width="1"
       interpolator_type="CubicBezierJohan"
       interpolator_beta="0.2"
       start_linecap_type="zerowidth"
       end_linecap_type="zerowidth"
       offset_points="5,4.9921382"
       linejoin_type="extrp_arc"
       miter_limit="4"
       not_jump="false"
       sort_points="true"
       message="&lt;b&gt;Ctrl + click&lt;/b&gt; on existing node and move it" /><inkscape:path-effect
       effect="powerstroke"
       id="path-effect13-53"
       is_visible="true"
       lpeversion="1.3"
       scale_width="1"
       interpolator_type="CubicBezierJohan"
       interpolator_beta="0.2"
       start_linecap_type="zerowidth"
       end_linecap_type="zerowidth"
       offset_points="5,4.9921382"
       linejoin_type="extrp_arc"
       miter_limit="4"
       not_jump="false"
       sort_points="true"
       message="&lt;b&gt;Ctrl + click&lt;/b&gt; on existing node and move it" /><inkscape:path-effect
       effect="powerstroke"
       id="path-effect13-7"
       is_visible="true"
       lpeversion="1.3"
       scale_width="1"
       interpolator_type="CubicBezierJohan"
       interpolator_beta="0.2"
       start_linecap_type="zerowidth"
       end_linecap_type="zerowidth"
       offset_points="5,4.9921382"
       linejoin_type="extrp_arc"
       miter_limit="4"
       not_jump="false"
       sort_points="true"
       message="&lt;b&gt;Ctrl + click&lt;/b&gt; on existing node and move it" /><inkscape:path-effect
       effect="powerstroke"
       id="path-effect13-4"
       is_visible="true"
       lpeversion="1.3"
       scale_width="1"
       interpolator_type="CubicBezierJohan"
       interpolator_beta="0.2"
       start_linecap_type="zerowidth"
       end_linecap_type="zerowidth"
       offset_points="5,4.9921382"
       linejoin_type="extrp_arc"
       miter_limit="4"
       not_jump="false"
       sort_points="true"
       message="&lt;b&gt;Ctrl + click&lt;/b&gt; on existing node and move it" /></defs><g
     inkscape:label="Layer 1"
     inkscape:groupmode="layer"
     id="layer1"
     transform="rotate(180,62.1375,101.93)"><path
       style="fill:#938e5e;fill-opacity:1;fill-rule:evenodd;stroke:none;stroke-width:0.982424;stroke-linecap:round;stroke-linejoin:round;stroke-dasharray:none;stroke-opacity:1;paint-order:stroke fill markers"
       d="m 118.85,200 v -6.4 L 114.42512,168.86241 105,165.8 95.574879,168.86241 91.149996,193.6 l 2e-6,6.4 z"
       id="path12"
       sodipodi:nodetypes="cccccccc" /><path
       style="display:inline;fill:#fff29e;fill-opacity:1;fill-rule:evenodd;stroke:none;stroke-width:0.373013;stroke-linecap:round;stroke-linejoin:round;paint-order:stroke fill markers"
       d="m 105,169 9.42512,3.06241 L 118.85,200 H 91.149999 l 4.42488,-27.93759 z"
       id="path13"
       sodipodi:nodetypes="cccccc" /><path
       id="path7"
       style="fill:#000000;stroke-width:0.535212"
       inkscape:label="path1"
       d="m 106.83008,174.49994 c -0.15471,5.4e-4 -0.33447,0.009 -0.55273,0.024 -0.58063,0.0396 -1.1122,0.13689 -1.17969,0.21616 -0.0771,0.0905 0.0202,0.30378 0.25977,0.57404 0.67259,0.75867 1.07048,2.61729 1.09375,5.1015 l 0.0156,1.68849 -0.64648,0.82383 c -0.83091,1.05767 -1.46251,2.10436 -2.36524,3.91979 -0.18216,0.36633 -0.293,0.42532 -0.78711,0.41312 -0.90087,-0.0223 -0.75117,-0.42661 0.47852,-1.28979 0.68996,-0.48432 0.74317,-0.65628 0.28125,-0.9151 -0.3692,-0.20687 -1.00761,0.004 -1.62305,0.53561 -0.19466,0.1682 -0.35156,0.22403 -0.35156,0.1273 0,-0.28032 1.24916,-1.6223 1.83008,-1.9671 0.40366,-0.23959 0.5332,-0.40881 0.5332,-0.69173 0,-0.80367 -0.52694,-0.8014 -1.90625,0.005 -0.27557,0.16112 -0.53373,0.25199 -0.57422,0.20175 -0.0963,-0.11953 1.04441,-1.37131 1.77735,-1.95029 0.98747,-0.78005 1.15039,-0.94807 1.15039,-1.18651 0,-0.3692 -0.55836,-0.58822 -1.19531,-0.47076 -0.54778,0.10108 -0.88425,0.28118 -2.29102,1.22973 -1.137332,0.76689 -1.953393,1.05682 -2.966797,1.05682 -0.524113,0 -0.953125,0.0567 -0.953125,0.12489 0,0.0681 0.330529,0.35991 0.734375,0.6485 0.992018,0.70893 1.559913,0.72224 2.408203,0.0529 0.355734,-0.28067 0.683944,-0.51158 0.730464,-0.51158 0.46215,0 -0.980198,1.75847 -1.816402,2.21449 -0.388038,0.21161 -0.487869,0.37347 -0.625,1.00397 -0.08968,0.41286 -0.12826,0.7934 -0.08594,0.84544 0.04232,0.052 0.37451,-0.10871 0.738281,-0.35548 1.133041,-0.76861 1.641891,-1.06246 1.703131,-0.98715 0.13593,0.16716 -0.71168,2.09341 -1.054694,2.39704 -1.061446,0.93954 -2.749218,2.27893 -3.070312,2.43785 -0.201003,0.0995 -0.736565,0.22541 -1.191406,0.27861 l -0.828125,0.0961 0.699218,0.62687 c 0.945764,0.85143 1.170693,1.00948 1.453125,1.01598 0.23156,0.005 1.018496,-0.74087 2.248047,-2.13043 1.02492,-1.15832 1.499627,-1.63324 1.632817,-1.63324 0.0718,0 -0.0672,0.61812 -0.30859,1.37385 -0.414439,1.29785 -1.068163,3.98268 -1.068367,4.38574 -4.8e-5,0.10182 0.08885,0.2966 0.199218,0.43232 0.277743,0.34156 0.898549,0.30974 1.201179,-0.0625 0.28672,-0.35259 0.31529,-0.49238 0.49804,-2.43785 0.20578,-2.19073 0.33803,-2.77871 0.71289,-3.17523 0.33206,-0.35123 0.91886,-0.62338 1.03516,-0.48036 0.0509,0.0626 -0.40435,1.49712 -0.53125,1.67407 -0.0243,0.0339 -0.12969,-0.0252 -0.23437,-0.1321 -0.42211,-0.4308 -0.42933,-0.0402 -0.0117,0.68213 0.56763,0.98178 0.51437,0.93468 0.81054,0.73976 0.18913,-0.12448 0.29396,-0.45192 0.40625,-1.27057 0.1598,-1.16504 0.36963,-1.40591 0.6543,-0.75177 0.35272,0.81047 -0.0751,3.42134 -0.56055,3.42021 -0.0864,-2.1e-4 -0.49682,-0.28401 -0.91015,-0.62929 -1.12541,-0.94012 -1.25616,-0.85784 -0.45508,0.28582 0.28387,0.40527 0.64378,1.02007 0.80078,1.36425 0.36769,0.80609 0.62937,0.85342 1.11719,0.20656 0.59993,-0.79552 1.13676,-2.2962 1.14062,-3.19205 9.6e-4,-0.17369 0.17961,-0.49116 0.39844,-0.70613 0.21884,-0.21498 0.54135,-0.78114 0.7168,-1.25616 0.37784,-1.023 1.18359,-3.95452 1.18359,-4.30649 0,-0.13548 0.0645,-0.24738 0.14453,-0.24738 0.15155,0 0.10108,1.00567 -0.13086,2.59157 -0.0632,0.43184 -0.1313,1.70418 -0.15234,2.82696 -0.021,1.1228 -0.0805,2.15329 -0.13281,2.28894 -0.0524,0.13567 -0.34372,0.37154 -0.64649,0.52601 -1.20118,0.61288 -1.19847,0.61087 -0.98437,0.67251 0.1124,0.0323 0.62507,-0.0478 1.14062,-0.18014 0.8756,-0.22451 0.96327,-0.22116 1.32813,0.0408 0.96372,0.69191 1.80114,0.86523 3.63672,0.75659 2.11166,-0.12498 2.85615,-0.29898 3.48632,-0.81183 0.37479,-0.30499 0.48243,-0.49412 0.48243,-0.84784 0,-0.70845 -0.0912,-0.88092 -0.98633,-1.82059 -0.70949,-0.74482 -1.86068,-2.39417 -2.42188,-3.47305 -0.31691,-0.60923 -0.17559,0.22677 0.19531,1.15527 0.62316,1.55998 0.86269,2.63976 0.67774,3.06475 -0.25218,0.57945 -1.28392,0.95146 -2.73633,0.98475 -0.68743,0.0157 -1.27674,-0.0231 -1.30859,-0.0865 -0.0728,-0.14478 0.39343,-0.52733 1.53711,-1.26335 1.34957,-0.86853 1.61938,-1.68031 0.90039,-2.70928 -0.16323,-0.2336 -0.66249,-0.60616 -1.10938,-0.82863 -0.44689,-0.22246 -0.8292,-0.42548 -0.84961,-0.44914 -0.0204,-0.0237 0.2587,-0.23293 0.6211,-0.46596 0.68733,-0.44196 0.83605,-0.56612 1.34375,-1.13847 0.38892,-0.43846 0.38369,-0.52727 -0.0488,-1.05921 -0.29976,-0.36861 -1.40173,-1.02995 -1.71875,-1.03039 -0.17272,-2.3e-4 -0.10193,0.3355 0.1582,0.74218 0.14046,0.2196 0.25586,0.53439 0.25586,0.69893 0,0.45198 -0.4621,1.47322 -0.82617,1.82539 -0.17754,0.17173 -0.32323,0.40887 -0.32227,0.52601 9.7e-4,0.11707 0.23032,0.56491 0.50977,0.99675 0.52006,0.80371 0.63084,1.37739 0.34766,1.80618 -0.32631,0.49412 -1.37341,1.42867 -1.4961,1.33542 -0.18675,-0.14192 -0.15019,-3.14363 0.0508,-4.16238 0.0937,-0.47501 0.32115,-1.31634 0.50586,-1.87103 0.40867,-1.22726 0.41318,-1.37802 0.0508,-1.73892 -0.26341,-0.26229 -0.32244,-0.2642 -0.77148,-0.0433 -0.55744,0.27428 -0.62177,0.24254 -0.51758,-0.24738 0.0935,-0.43984 0.96772,-1.00276 2.21875,-1.42909 1.11851,-0.38116 1.49543,-0.6666 1.60742,-1.21533 0.1049,-0.51397 -0.30633,-0.99196 -0.85351,-0.99196 -0.55255,0 -0.5741,-0.28526 -0.0293,-0.3891 1.40139,-0.2671 1.50443,-0.31082 1.54492,-0.6605 0.081,-0.69931 -0.61581,-1.13261 -2.53125,-1.578 -0.38628,-0.0898 -0.73048,-0.13038 -0.76562,-0.0889 -0.0351,0.0416 0.10532,0.24314 0.3125,0.44675 0.28654,0.28157 0.37695,0.49946 0.37695,0.91268 0,0.69086 -0.2383,1.0424 -0.70508,1.0424 -0.54998,0 -0.4844,0.49207 0.10742,0.80702 l 0.47461,0.2522 -0.67968,0.42512 c -0.37339,0.23266 -0.69775,0.39811 -0.72266,0.36748 -0.0429,-0.0528 -0.008,-0.38727 0.31445,-3.02871 0.0739,-0.60458 0.13527,-1.39289 0.13672,-1.75094 0.002,-0.60367 -0.0342,-0.67376 -0.50586,-0.96073 -0.31545,-0.19193 -0.54757,-0.261 -1.01172,-0.2594 z m -7.333981,3.07195 c -0.162658,-0.001 -0.285692,0.0146 -0.335937,0.0529 -0.254827,0.19368 0.607363,1.65247 0.976558,1.65247 0.19565,0 0.22861,0.56357 0.041,0.70614 -0.0702,0.0534 -0.12891,0.19254 -0.12891,0.30743 0,0.13706 0.39639,-0.0343 1.15039,-0.49718 0.6321,-0.38803 1.14844,-0.76468 1.14844,-0.83584 0,-0.19438 -0.64468,-0.77893 -1.13867,-1.03279 -0.24843,-0.12767 -0.70986,-0.24018 -1.13477,-0.30264 -0.212447,-0.0312 -0.415462,-0.0493 -0.578121,-0.0504 z m 6.673831,6.10305 c 0.0881,0 0.11441,0.21569 0.0703,0.58846 -0.32404,2.73975 -0.36035,2.94059 -0.79492,4.39775 -0.1353,0.4537 -0.28349,0.86981 -0.32813,0.9247 -0.2309,0.28394 0.0137,-0.56631 -0.73437,-1.4459 -0.30063,-0.35349 -0.37684,-0.55607 -0.32617,-0.86946 0.15796,-0.97714 1.69656,-3.59555 2.11328,-3.59555 z"
       transform="translate(6.3253582e-7)" /></g></svg>
