<?xml version="1.0" encoding="UTF-8" standalone="no"?>
<!-- Created with Inkscape (http://www.inkscape.org/) -->

<svg
   viewBox="0 0 38.549999 41.919998"
   version="1.1"
   id="svg1"
   inkscape:version="1.3.2 (091e20e, 2023-11-25, custom)"
   sodipodi:docname="Kaku.svg"
   xml:space="preserve"
   xmlns:inkscape="http://www.inkscape.org/namespaces/inkscape"
   xmlns:sodipodi="http://sodipodi.sourceforge.net/DTD/sodipodi-0.dtd"
   xmlns="http://www.w3.org/2000/svg"
   xmlns:svg="http://www.w3.org/2000/svg"><sodipodi:namedview
     id="namedview1"
     pagecolor="#ffffff"
     bordercolor="#111111"
     borderopacity="1"
     inkscape:showpageshadow="false"
     inkscape:pageopacity="0"
     inkscape:pagecheckerboard="1"
     inkscape:deskcolor="#d1d1d1"
     inkscape:document-units="mm"
     showguides="true"
     inkscape:zoom="11.569391"
     inkscape:cx="19.231782"
     inkscape:cy="20.960482"
     inkscape:window-width="1292"
     inkscape:window-height="745"
     inkscape:window-x="-8"
     inkscape:window-y="-8"
     inkscape:window-maximized="1"
     inkscape:current-layer="layer1"
     labelstyle="default"><inkscape:page
       x="0"
       y="0"
       width="38.549999"
       height="41.919998"
       id="page42"
       margin="0"
       bleed="0" /></sodipodi:namedview><defs
     id="defs1"><inkscape:path-effect
       effect="powerstroke"
       id="path-effect12"
       is_visible="true"
       lpeversion="1.3"
       scale_width="1"
       interpolator_type="CubicBezierJohan"
       interpolator_beta="0.2"
       start_linecap_type="zerowidth"
       end_linecap_type="zerowidth"
       offset_points="7,4.9921382"
       linejoin_type="extrp_arc"
       miter_limit="4"
       not_jump="false"
       sort_points="true"
       message="&lt;b&gt;Ctrl + click&lt;/b&gt; on existing node and move it" /><inkscape:path-effect
       effect="powerstroke"
       id="path-effect13"
       is_visible="true"
       lpeversion="1.3"
       scale_width="1"
       interpolator_type="CubicBezierJohan"
       interpolator_beta="0.2"
       start_linecap_type="zerowidth"
       end_linecap_type="zerowidth"
       offset_points="5,4.9921382"
       linejoin_type="extrp_arc"
       miter_limit="4"
       not_jump="false"
       sort_points="true"
       message="&lt;b&gt;Ctrl + click&lt;/b&gt; on existing node and move it" /><inkscape:path-effect
       effect="powerstroke"
       id="path-effect13-8"
       is_visible="true"
       lpeversion="1.3"
       scale_width="1"
       interpolator_type="CubicBezierJohan"
       interpolator_beta="0.2"
       start_linecap_type="zerowidth"
       end_linecap_type="zerowidth"
       offset_points="5,4.9921382"
       linejoin_type="extrp_arc"
       miter_limit="4"
       not_jump="false"
       sort_points="true"
       message="&lt;b&gt;Ctrl + click&lt;/b&gt; on existing node and move it" /><inkscape:path-effect
       effect="powerstroke"
       id="path-effect13-5"
       is_visible="true"
       lpeversion="1.3"
       scale_width="1"
       interpolator_type="CubicBezierJohan"
       interpolator_beta="0.2"
       start_linecap_type="zerowidth"
       end_linecap_type="zerowidth"
       offset_points="5,4.9921382"
       linejoin_type="extrp_arc"
       miter_limit="4"
       not_jump="false"
       sort_points="true"
       message="&lt;b&gt;Ctrl + click&lt;/b&gt; on existing node and move it" /><inkscape:path-effect
       effect="powerstroke"
       id="path-effect13-3"
       is_visible="true"
       lpeversion="1.3"
       scale_width="1"
       interpolator_type="CubicBezierJohan"
       interpolator_beta="0.2"
       start_linecap_type="zerowidth"
       end_linecap_type="zerowidth"
       offset_points="5,4.9921382"
       linejoin_type="extrp_arc"
       miter_limit="4"
       not_jump="false"
       sort_points="true"
       message="&lt;b&gt;Ctrl + click&lt;/b&gt; on existing node and move it" /><inkscape:path-effect
       effect="powerstroke"
       id="path-effect13-53"
       is_visible="true"
       lpeversion="1.3"
       scale_width="1"
       interpolator_type="CubicBezierJohan"
       interpolator_beta="0.2"
       start_linecap_type="zerowidth"
       end_linecap_type="zerowidth"
       offset_points="5,4.9921382"
       linejoin_type="extrp_arc"
       miter_limit="4"
       not_jump="false"
       sort_points="true"
       message="&lt;b&gt;Ctrl + click&lt;/b&gt; on existing node and move it" /><inkscape:path-effect
       effect="powerstroke"
       id="path-effect13-7"
       is_visible="true"
       lpeversion="1.3"
       scale_width="1"
       interpolator_type="CubicBezierJohan"
       interpolator_beta="0.2"
       start_linecap_type="zerowidth"
       end_linecap_type="zerowidth"
       offset_points="5,4.9921382"
       linejoin_type="extrp_arc"
       miter_limit="4"
       not_jump="false"
       sort_points="true"
       message="&lt;b&gt;Ctrl + click&lt;/b&gt; on existing node and move it" /></defs><g
     inkscape:label="Layer 1"
     inkscape:groupmode="layer"
     id="layer1"
     transform="rotate(180,62.1375,101.93)"><path
       style="fill:#938e5e;fill-opacity:1;fill-rule:evenodd;stroke:none;stroke-width:0.982424;stroke-linecap:round;stroke-linejoin:round;stroke-dasharray:none;stroke-opacity:1;paint-order:stroke fill markers"
       d="m 118.85,200 v -6.4 L 114.42512,168.86241 105,165.8 95.574879,168.86241 91.149996,193.6 l 2e-6,6.4 z"
       id="path12"
       sodipodi:nodetypes="cccccccc" /><path
       style="display:inline;fill:#fff29e;fill-opacity:1;fill-rule:evenodd;stroke:none;stroke-width:0.373013;stroke-linecap:round;stroke-linejoin:round;paint-order:stroke fill markers"
       d="m 105,169 9.42512,3.06241 L 118.85,200 H 91.149999 l 4.42488,-27.93759 z"
       id="path13"
       sodipodi:nodetypes="cccccc" /><path
       id="path3"
       style="fill:#000000;stroke-width:0.743008"
       inkscape:label="path1"
       d="m 103.06024,174.00002 c -0.20963,-4.9e-4 -0.44034,8.2e-4 -0.69337,0.01 v 0.004 c -1.59133,0.0495 -1.75353,0.0835 -1.29693,0.28786 0.71923,0.32216 0.82237,0.56492 0.47051,1.10195 -0.77283,1.17944 -6.335023,5.00764 -6.64824,5.89392 -0.313215,0.88629 1.425443,0.12407 3.39506,-1.10549 1.47368,-0.91998 4.518,-3.09326 5.46631,-3.90319 0.51478,-0.43964 0.72356,-0.51373 1.01835,-0.35597 0.20411,0.10927 0.58206,0.2012 0.83883,0.2012 0.25673,0 0.63823,0.13062 0.84811,0.29095 0.36664,0.28016 0.34129,0.32851 -0.60976,1.22886 -1.02808,0.97324 -1.71935,1.55069 -2.36482,1.96859 -1.47982,0.95812 -2.41978,1.42341 -3.03959,1.63121 -0.61979,0.20786 -1.56309,0.13061 -2.25029,-0.13312 -0.503355,-0.19316 -0.508067,0.64748 -0.01,1.71787 0.39002,0.83786 0.49371,1.37036 0.49218,2.53504 -0.003,1.78227 -0.38266,4.03624 -0.990522,5.89038 -0.371263,1.13254 -0.408615,1.45816 -0.219773,1.87265 0.293532,0.64427 0.727965,0.80515 1.318605,0.48905 0.80415,-0.43033 1.12281,-1.44813 1.29385,-4.11985 0.23053,-3.60064 0.54532,-6.54722 0.715,-6.7075 0.17878,-0.16883 3.58753,-0.32494 3.58748,-0.16405 -2e-5,0.0619 -0.5348,0.33409 -1.19171,0.60356 -0.65691,0.26947 -1.1945,0.5738 -1.19168,0.67479 0.004,0.10114 0.27454,0.23604 0.60357,0.30334 0.59888,0.12246 1.19169,0.49468 1.19169,0.74906 0,0.0743 -0.55305,0.2979 -1.22883,0.49526 -1.52314,0.44482 -1.7467,0.6299 -1.22883,1.02145 0.2692,0.20353 0.6885,0.27181 1.32788,0.21357 l 0.93167,-0.0836 v 0.95647 c 0,0.8634 -0.0527,0.98022 -0.53547,1.16383 -0.295,0.11206 -0.9748,0.18019 -1.51051,0.15166 -0.54989,-0.0293 -1.00439,0.0389 -1.04312,0.15479 -0.0378,0.11312 0.30089,0.4504 0.75217,0.74905 0.6373,0.42172 0.97111,0.51786 1.49194,0.43334 0.73123,-0.11874 0.78923,-0.051 0.91621,1.0493 0.10616,0.92004 0.28925,1.32159 0.66858,1.46718 0.46891,0.17995 1.18422,-0.82039 1.33098,-1.86025 0.2076,-1.47089 0.2516,-1.52734 1.43003,-1.9191 0.81531,-0.27106 1.1367,-0.48047 1.17932,-0.76768 0.0928,-0.626 -0.34088,-0.83868 -1.33717,-0.65618 -0.97095,0.17783 -1.25595,-0.006 -1.05553,-0.68714 0.17466,-0.59236 0.39828,-0.75906 1.30624,-0.97813 0.69998,-0.16891 0.82954,-0.2784 0.82954,-0.69335 0,-0.43765 -0.0918,-0.49714 -0.83575,-0.55094 -0.80575,-0.0583 -0.83262,-0.0851 -0.83262,-0.72432 0,-0.36451 -0.13491,-0.79429 -0.29716,-0.95646 -0.16212,-0.16213 -0.29404,-0.37075 -0.29404,-0.46427 0,-0.21149 1.89068,-0.61955 2.55672,-0.55097 0.27032,0.0279 0.59142,0.0638 0.715,0.0772 0.12367,0.0134 0.28523,0.17915 0.35906,0.36834 0.16489,0.42244 0.15124,5.05931 -0.0217,7.28944 -0.15868,2.04683 -0.34649,2.27318 -1.72097,2.0924 l -1.00287,-0.12993 0.98119,0.9843 c 0.54062,0.54215 1.24803,1.30168 1.57241,1.68694 0.32439,0.38527 0.64539,0.70044 0.71192,0.70264 0.29815,0.01 1.1343,-0.83014 1.41454,-1.42074 0.26059,-0.54915 0.29174,-1.25535 0.19813,-4.57485 -0.0867,-3.06797 -0.0436,-4.30826 0.195,-5.6675 0.1679,-0.95676 0.26318,-1.8455 0.21356,-1.9748 -0.0497,-0.12928 -0.45894,-0.47204 -0.91002,-0.76455 -0.62619,-0.40602 -1.06438,-0.5324 -1.851,-0.5324 -0.56662,0 -1.08416,0.0887 -1.31859,0.15787 -0.76759,0.25007 -1.51918,0.48972 -2.32147,0.62214 -0.68431,0.10659 -1.37927,0.21835 -1.54147,0.24764 -0.16212,0.0295 -0.32623,-0.0343 -0.36525,-0.14237 -0.0692,-0.19207 1.32524,-1.08065 4.03318,-2.56603 1.88389,-1.03331 2.6253,-1.63263 2.62174,-2.12646 -0.009,-1.23465 -1.20551,-1.56533 -3.63081,-1.00286 -1.44788,0.33575 -1.67455,0.27971 -1.67455,-0.4055 0,-0.62481 -0.44551,-0.84472 -1.9129,-0.84811 z"
       sodipodi:nodetypes="cccccccccsccccccccscccscccscsccscccccccccccccscscsccsccccscsccccscccccccscc"
       transform="translate(6.3253582e-7)" /></g></svg>
