<?xml version="1.0" encoding="UTF-8" standalone="no"?>
<!-- Created with Inkscape (http://www.inkscape.org/) -->

<svg
   viewBox="0 0 38.549999 41.919998"
   version="1.1"
   id="svg1"
   inkscape:version="1.3.2 (091e20e, 2023-11-25, custom)"
   sodipodi:docname="Kin.svg"
   xml:space="preserve"
   xmlns:inkscape="http://www.inkscape.org/namespaces/inkscape"
   xmlns:sodipodi="http://sodipodi.sourceforge.net/DTD/sodipodi-0.dtd"
   xmlns="http://www.w3.org/2000/svg"
   xmlns:svg="http://www.w3.org/2000/svg"><sodipodi:namedview
     id="namedview1"
     pagecolor="#ffffff"
     bordercolor="#111111"
     borderopacity="1"
     inkscape:showpageshadow="0"
     inkscape:pageopacity="0"
     inkscape:pagecheckerboard="1"
     inkscape:deskcolor="#d1d1d1"
     inkscape:document-units="mm"
     showguides="true"
     inkscape:zoom="13.096375"
     inkscape:cx="19.280145"
     inkscape:cy="20.959999"
     inkscape:window-width="1292"
     inkscape:window-height="745"
     inkscape:window-x="-8"
     inkscape:window-y="-8"
     inkscape:window-maximized="1"
     inkscape:current-layer="layer1"><inkscape:page
       x="0"
       y="0"
       width="38.549999"
       height="41.919998"
       id="page42"
       margin="0"
       bleed="0" /></sodipodi:namedview><defs
     id="defs1"><inkscape:path-effect
       effect="powerstroke"
       id="path-effect13"
       is_visible="true"
       lpeversion="1.3"
       scale_width="1"
       interpolator_type="CubicBezierJohan"
       interpolator_beta="0.2"
       start_linecap_type="zerowidth"
       end_linecap_type="zerowidth"
       offset_points="5,4.9921382"
       linejoin_type="extrp_arc"
       miter_limit="4"
       not_jump="false"
       sort_points="true"
       message="&lt;b&gt;Ctrl + click&lt;/b&gt; on existing node and move it" /><inkscape:path-effect
       effect="powerstroke"
       id="path-effect12"
       is_visible="true"
       lpeversion="1.3"
       scale_width="1"
       interpolator_type="CubicBezierJohan"
       interpolator_beta="0.2"
       start_linecap_type="zerowidth"
       end_linecap_type="zerowidth"
       offset_points="7,4.9921382"
       linejoin_type="extrp_arc"
       miter_limit="4"
       not_jump="false"
       sort_points="true"
       message="&lt;b&gt;Ctrl + click&lt;/b&gt; on existing node and move it" /><inkscape:path-effect
       effect="powerstroke"
       id="path-effect13-0"
       is_visible="true"
       lpeversion="1.3"
       scale_width="1"
       interpolator_type="CubicBezierJohan"
       interpolator_beta="0.2"
       start_linecap_type="zerowidth"
       end_linecap_type="zerowidth"
       offset_points="5,4.9921382"
       linejoin_type="extrp_arc"
       miter_limit="4"
       not_jump="false"
       sort_points="true"
       message="&lt;b&gt;Ctrl + click&lt;/b&gt; on existing node and move it" /><inkscape:path-effect
       effect="powerstroke"
       id="path-effect13-9"
       is_visible="true"
       lpeversion="1.3"
       scale_width="1"
       interpolator_type="CubicBezierJohan"
       interpolator_beta="0.2"
       start_linecap_type="zerowidth"
       end_linecap_type="zerowidth"
       offset_points="5,4.9921382"
       linejoin_type="extrp_arc"
       miter_limit="4"
       not_jump="false"
       sort_points="true"
       message="&lt;b&gt;Ctrl + click&lt;/b&gt; on existing node and move it" /><inkscape:path-effect
       effect="powerstroke"
       id="path-effect13-6"
       is_visible="true"
       lpeversion="1.3"
       scale_width="1"
       interpolator_type="CubicBezierJohan"
       interpolator_beta="0.2"
       start_linecap_type="zerowidth"
       end_linecap_type="zerowidth"
       offset_points="5,4.9921382"
       linejoin_type="extrp_arc"
       miter_limit="4"
       not_jump="false"
       sort_points="true"
       message="&lt;b&gt;Ctrl + click&lt;/b&gt; on existing node and move it" /><inkscape:path-effect
       effect="powerstroke"
       id="path-effect13-5"
       is_visible="true"
       lpeversion="1.3"
       scale_width="1"
       interpolator_type="CubicBezierJohan"
       interpolator_beta="0.2"
       start_linecap_type="zerowidth"
       end_linecap_type="zerowidth"
       offset_points="5,4.9921382"
       linejoin_type="extrp_arc"
       miter_limit="4"
       not_jump="false"
       sort_points="true"
       message="&lt;b&gt;Ctrl + click&lt;/b&gt; on existing node and move it" /><inkscape:path-effect
       effect="powerstroke"
       id="path-effect13-97"
       is_visible="true"
       lpeversion="1.3"
       scale_width="1"
       interpolator_type="CubicBezierJohan"
       interpolator_beta="0.2"
       start_linecap_type="zerowidth"
       end_linecap_type="zerowidth"
       offset_points="5,4.9921382"
       linejoin_type="extrp_arc"
       miter_limit="4"
       not_jump="false"
       sort_points="true"
       message="&lt;b&gt;Ctrl + click&lt;/b&gt; on existing node and move it" /></defs><g
     inkscape:label="Layer 1"
     inkscape:groupmode="layer"
     id="layer1"
     transform="translate(-84.724992,-164.64)"><path
       style="fill:#938e5e;fill-opacity:1;fill-rule:evenodd;stroke:none;stroke-width:0.964528;stroke-linecap:round;stroke-linejoin:round;stroke-dasharray:none;stroke-opacity:1;paint-order:stroke fill markers"
       d="m 90.649993,169 v 6.4 l 4.285044,23.85462 9.064953,2.94538 9.06497,-2.94539 L 117.34999,175.4 V 169 Z"
       id="path12"
       sodipodi:nodetypes="cccccccc" /><path
       style="display:inline;fill:#fff29e;fill-opacity:1;fill-rule:evenodd;stroke:none;stroke-width:0.360263;stroke-linecap:round;stroke-linejoin:round;paint-order:stroke fill markers"
       d="M 103.99999,199 94.935037,196.05462 90.649995,169 h 26.699995 l -4.28503,27.05461 z"
       id="path13-6"
       sodipodi:nodetypes="cccccc" /><path
       id="path2"
       style="display:inline;fill:#000000;stroke-width:0.521596"
       inkscape:label="path1"
       d="m 102.56152,177.41494 c -0.30782,0.001 -0.33603,0.0607 -0.30384,0.24983 0.23812,1.39891 0.25304,1.35365 -0.8575,2.8201 -1.37656,2.20092 -5.55238,5.25307 -7.208915,5.25307 -0.105219,0 -0.191306,0.0675 -0.191306,0.14854 0,0.14514 1.553914,0.10285 2.597276,-0.0698 1.428815,-0.23641 3.618445,-1.82757 3.747375,-1.92208 0.21358,-0.15659 0.30493,-0.15623 0.73147,0.12605 0.42493,0.2812 0.72509,0.37433 1.16135,0.35785 0.55462,-0.021 0.60447,0.009 0.8665,0.52216 0.15292,0.29977 0.24576,0.62829 0.20707,0.72921 -0.0387,0.10095 -0.63045,0.3627 -1.31665,0.58068 -1.09878,0.34907 -1.38013,0.38501 -2.345194,0.31059 -0.62045,-0.0478 -1.096085,-0.0298 -1.096085,0.0405 0,0.28937 1.723299,1.24775 2.237169,1.24462 0.32231,-0.002 0.87981,-0.1869 1.79603,-0.59643 0.70885,-0.31681 0.79453,-0.2947 0.81925,0.21832 0.0342,0.70934 0.0717,1.08691 0.18006,1.86131 0.0971,0.69423 0.086,0.72919 -0.26333,0.86201 -0.82503,0.31369 -1.04206,0.32297 -1.04206,0.045 0,-0.14486 0.0523,-0.32177 0.11478,-0.39387 0.17972,-0.20739 0.6378,-1.70064 0.54917,-1.78928 -0.044,-0.044 -0.31352,0.0766 -0.59868,0.27007 -0.59583,0.40434 -0.84801,0.42752 -1.76002,0.1508 -0.58167,-0.1765 -1.064584,-0.16739 -1.064584,0.0203 0,0.21767 1.268994,1.50936 1.773534,1.80504 l 0.60543,0.3556 -0.74047,0.19356 c -0.9018,0.23596 -2.031234,0.29909 -2.378962,0.13279 -0.151675,-0.0726 -0.307551,-0.0711 -0.382614,0.004 -0.14831,0.14831 1.214722,1.46229 1.633996,1.60924 0.41928,0.14695 1.09015,-0.26075 1.52145,-0.48165 0.43816,-0.2358 0.85813,-0.47687 0.93403,-0.53566 0.22375,-0.1733 2.26822,-0.8294 3.31299,-1.06232 1.11641,-0.2491 2.56043,-0.24732 3.40977,0.002 1.36049,0.39984 1.71591,0.0328 0.81474,-0.84175 -0.86559,-0.84004 -1.45135,-0.93115 -3.29724,-0.51315 -0.65054,0.14731 -0.47046,-0.1929 0.3241,-0.61443 1.14936,-0.60973 1.59228,-1.51758 0.83951,-1.71952 -0.47886,-0.12846 -1.65876,-0.092 -1.88382,0.0585 -0.18057,0.12073 -0.17683,0.15719 0.0338,0.28133 0.375,0.22101 0.31078,0.99109 -0.12603,1.51021 -0.30052,0.35714 -0.33282,0.45944 -0.1733,0.56042 0.17653,0.11177 0.14559,0.14754 -0.099,0.11478 -0.0485,-0.007 -0.14165,0.0719 -0.20707,0.1733 -0.36711,0.5689 -0.62707,-1.45385 -0.31959,-2.48925 0.19363,-0.65206 0.24671,-0.70954 0.78998,-0.8485 0.32033,-0.0819 0.76348,-0.2069 0.98355,-0.27909 0.22005,-0.0722 0.6955,-0.13278 1.05557,-0.13278 1.01176,0 0.96611,-0.46986 -0.10354,-1.06682 -0.3177,-0.17729 -1.22639,-0.0707 -2.23942,0.26107 -0.44235,0.14489 -0.49676,0.12899 -0.79448,-0.24307 -0.42952,-0.53678 -0.40291,-0.69979 0.12829,-0.78773 0.24668,-0.0408 0.63655,-0.11411 0.86425,-0.16206 0.22772,-0.0479 0.55393,-0.11599 0.72471,-0.15078 0.5156,-0.10498 0.41521,-0.7027 -0.16429,-0.97905 -0.45159,-0.21535 -0.51935,-0.21042 -1.40892,0.09 -1.7276,0.58362 -3.46078,0.84605 -3.87116,0.58517 -0.28757,-0.18282 1.37353,-1.73102 2.40372,-3.04515 l 0.25432,-0.32185 0.77199,0.36686 c 0.42536,0.20139 1.38804,0.87304 2.13814,1.49444 0.7501,0.6214 1.73588,1.40632 2.1899,1.74427 0.45402,0.33795 0.90848,0.69649 1.01055,0.79674 0.29833,0.29304 0.95572,0.59338 1.15235,0.52666 0.0997,-0.0339 0.39828,-0.0955 0.66394,-0.13729 2.8604,-0.44907 2.86411,-0.45229 1.24012,-0.88001 -1.371,-0.36111 -3.80534,-1.56194 -5.93276,-2.92588 -0.9488,-0.60828 -1.95782,-1.21289 -2.24168,-1.34365 -0.49863,-0.22972 -0.67144,-0.50916 -0.37586,-0.60768 0.0787,-0.0263 0.15713,-0.2608 0.1733,-0.5199 0.0244,-0.39237 -0.04,-0.51228 -0.38486,-0.71573 -0.22772,-0.13435 -0.75513,-0.26278 -1.1726,-0.28582 -0.17343,-0.01 -0.30702,-0.0162 -0.40963,-0.0158 z"
       transform="rotate(180,103.99999,184.5)" /></g></svg>
