<?xml version="1.0" encoding="UTF-8" standalone="no"?>
<!-- Created with Inkscape (http://www.inkscape.org/) -->

<svg
   viewBox="0 0 38.549999 41.919998"
   version="1.1"
   id="svg1"
   inkscape:version="1.3.2 (091e20e, 2023-11-25, custom)"
   sodipodi:docname="Gyoku.svg"
   xml:space="preserve"
   xmlns:inkscape="http://www.inkscape.org/namespaces/inkscape"
   xmlns:sodipodi="http://sodipodi.sourceforge.net/DTD/sodipodi-0.dtd"
   xmlns="http://www.w3.org/2000/svg"
   xmlns:svg="http://www.w3.org/2000/svg"><sodipodi:namedview
     id="namedview1"
     pagecolor="#ffffff"
     bordercolor="#111111"
     borderopacity="1"
     inkscape:showpageshadow="false"
     inkscape:pageopacity="0"
     inkscape:pagecheckerboard="1"
     inkscape:deskcolor="#d1d1d1"
     inkscape:document-units="mm"
     showguides="true"
     inkscape:zoom="11.569391"
     inkscape:cx="19.275"
     inkscape:cy="20.960482"
     inkscape:window-width="1292"
     inkscape:window-height="745"
     inkscape:window-x="-8"
     inkscape:window-y="-8"
     inkscape:window-maximized="1"
     inkscape:current-layer="layer1"
     labelstyle="default"><inkscape:page
       x="0"
       y="0"
       width="38.549999"
       height="41.919998"
       id="page42"
       margin="0"
       bleed="0" /></sodipodi:namedview><defs
     id="defs1"><inkscape:path-effect
       effect="powerstroke"
       id="path-effect12"
       is_visible="true"
       lpeversion="1.3"
       scale_width="1"
       interpolator_type="CubicBezierJohan"
       interpolator_beta="0.2"
       start_linecap_type="zerowidth"
       end_linecap_type="zerowidth"
       offset_points="7,4.9921382"
       linejoin_type="extrp_arc"
       miter_limit="4"
       not_jump="false"
       sort_points="true"
       message="&lt;b&gt;Ctrl + click&lt;/b&gt; on existing node and move it" /><inkscape:path-effect
       effect="powerstroke"
       id="path-effect13"
       is_visible="true"
       lpeversion="1.3"
       scale_width="1"
       interpolator_type="CubicBezierJohan"
       interpolator_beta="0.2"
       start_linecap_type="zerowidth"
       end_linecap_type="zerowidth"
       offset_points="5,4.9921382"
       linejoin_type="extrp_arc"
       miter_limit="4"
       not_jump="false"
       sort_points="true"
       message="&lt;b&gt;Ctrl + click&lt;/b&gt; on existing node and move it" /><inkscape:path-effect
       effect="powerstroke"
       id="path-effect13-6"
       is_visible="true"
       lpeversion="1.3"
       scale_width="1"
       interpolator_type="CubicBezierJohan"
       interpolator_beta="0.2"
       start_linecap_type="zerowidth"
       end_linecap_type="zerowidth"
       offset_points="5,4.9921382"
       linejoin_type="extrp_arc"
       miter_limit="4"
       not_jump="false"
       sort_points="true"
       message="&lt;b&gt;Ctrl + click&lt;/b&gt; on existing node and move it" /></defs><g
     inkscape:label="Layer 1"
     inkscape:groupmode="layer"
     id="layer1"
     transform="rotate(180,62.137499,101.68)"><path
       style="fill:#938e5e;fill-opacity:1;fill-rule:evenodd;stroke:none;stroke-width:1;stroke-linecap:round;stroke-linejoin:round;stroke-dasharray:none;stroke-opacity:1;paint-order:stroke fill markers"
       d="m 119.35,200 v -6.4 L 114.78527,167.97943 105,164.8 95.21473,167.97943 90.649996,193.6 l 2e-6,6.4 z"
       id="path12"
       sodipodi:nodetypes="cccccccc" /><path
       style="display:inline;fill:#fff29e;fill-opacity:1;fill-rule:evenodd;stroke:none;stroke-width:0.385762;stroke-linecap:round;stroke-linejoin:round;paint-order:stroke fill markers"
       d="m 105,168 9.78527,3.17942 L 119.35,200 h -28.7 l 4.56473,-28.82058 z"
       id="path13" /><path
       id="path5"
       style="fill:#000000;stroke:none;stroke-width:0.1;stroke-dasharray:none;stroke-opacity:1"
       inkscape:label="path1"
       d="m 108.41619,175.60981 v 7.4e-4 c -0.49893,-0.0235 -1.06101,0.0809 -1.68708,0.31253 -3.69822,1.3678 -7.765808,2.03257 -8.858098,1.44799 -0.19409,-0.10399 -0.353,-0.11453 -0.353,-0.0255 0,0.2569 1.71572,1.79612 2.15851,1.93666 0.419598,0.13314 2.360058,-0.19677 2.680868,-0.45568 0.28812,-0.23268 0.54229,0.0158 1.03878,1.01254 0.602,1.20978 0.74042,1.8294 0.45868,2.05357 -0.12429,0.0991 -0.85043,0.36249 -1.61288,0.58609 -1.37363,0.40282 -2.924028,0.44955 -3.674688,0.11018 -0.52876,-0.23891 -0.37855,0.31167 0.18287,0.67003 0.27525,0.17562 0.7796,0.52427 1.12048,0.77497 0.758058,0.55749 1.210618,0.56845 2.704858,0.0637 0.68335,-0.23085 1.22572,-0.32457 1.31758,-0.22783 0.086,0.0904 0.18495,0.77955 0.21959,1.53192 l 0.063,1.36854 -2.18847,0.75848 c -3.267618,1.13244 -4.295608,1.53428 -5.172898,2.02359 -0.93647,0.52235 -1.09468,0.42743 -1.26887,-0.75846 -0.0687,-0.46898 -0.20698,-0.84516 -0.30728,-0.83643 -0.10036,0.007 -0.42019,0.54739 -0.71051,1.19692 l -0.52763,1.18118 0.72849,0.8619 c 0.40054,0.47417 0.9195,0.95916 1.15345,1.07775 0.34244,0.17353 0.53404,0.15955 0.98481,-0.0734 0.3079,-0.15919 0.64239,-0.38904 0.74274,-0.5104 0.52233,-0.63197 2.36938,-1.73705 3.739148,-2.23719 2.46311,-0.89932 4.02812,-1.23081 6.65762,-1.40978 0.70222,-0.0477 1.91242,-0.17999 2.68986,-0.29305 1.67784,-0.24439 1.81799,-0.52613 0.67604,-1.3573 -0.40545,-0.29513 -1.00023,-0.75951 -1.32208,-1.03204 l -0.58459,-0.4954 -0.057,0.63256 c -0.0396,0.44302 -0.14897,0.63622 -0.36498,0.64531 -0.49445,0.0209 -1.72547,0.15826 -2.26193,0.25257 -0.67136,0.11806 -0.77702,-0.11794 -0.79819,-1.78751 -0.0209,-1.616 -0.1123,-1.51097 1.7875,-2.04008 0.57321,-0.15971 1.22989,-0.4493 1.45923,-0.6438 0.41468,-0.35171 0.41526,-0.35564 0.0525,-0.6408 -0.27202,-0.21365 -0.68803,-0.27165 -1.63462,-0.22785 l -1.26886,0.0585 -0.16113,-0.80494 c -0.19881,-0.9949 -0.68368,-1.41185 -1.8265,-1.57165 -0.48293,-0.0674 -0.82631,-0.17501 -0.76295,-0.23833 0.19721,-0.19723 2.13936,-0.55134 3.19128,-0.58235 0.55173,-0.0157 1.53717,-0.16551 2.18922,-0.33127 1.04477,-0.26554 1.18567,-0.35302 1.18567,-0.7375 0,-0.2569 -0.19453,-0.58105 -0.47217,-0.78844 -0.37209,-0.2778 -0.80744,-0.42807 -1.30633,-0.45118 z m 3.8051,9.13613 c -0.0714,0.007 -0.11168,0.0308 -0.11168,0.075 0,0.0847 0.20179,0.34335 0.4482,0.57485 0.24647,0.23163 0.67534,0.75846 0.95333,1.17143 0.27794,0.41296 0.70146,1.01778 0.94135,1.34381 0.51198,0.69584 1.006,0.75847 1.38802,0.17539 0.346,-0.52809 0.10532,-1.53916 -0.49316,-2.07381 -0.50541,-0.45137 -2.07357,-1.09527 -2.82628,-1.23964 -0.12545,-0.0241 -0.22838,-0.0339 -0.29978,-0.027 z" /></g></svg>
