<?xml version="1.0" encoding="UTF-8" standalone="no"?>
<!-- Created with Inkscape (http://www.inkscape.org/) -->

<svg
   viewBox="0 0 38.549999 41.919998"
   version="1.1"
   id="svg1"
   inkscape:version="1.3.2 (091e20e, 2023-11-25, custom)"
   sodipodi:docname="Hi.svg"
   xml:space="preserve"
   xmlns:inkscape="http://www.inkscape.org/namespaces/inkscape"
   xmlns:sodipodi="http://sodipodi.sourceforge.net/DTD/sodipodi-0.dtd"
   xmlns="http://www.w3.org/2000/svg"
   xmlns:svg="http://www.w3.org/2000/svg"><sodipodi:namedview
     id="namedview1"
     pagecolor="#ffffff"
     bordercolor="#111111"
     borderopacity="1"
     inkscape:showpageshadow="false"
     inkscape:pageopacity="0"
     inkscape:pagecheckerboard="1"
     inkscape:deskcolor="#d1d1d1"
     inkscape:document-units="mm"
     showguides="true"
     inkscape:zoom="11.569391"
     inkscape:cx="19.231782"
     inkscape:cy="20.960482"
     inkscape:window-width="1292"
     inkscape:window-height="745"
     inkscape:window-x="-8"
     inkscape:window-y="-8"
     inkscape:window-maximized="1"
     inkscape:current-layer="layer1"
     labelstyle="default"><inkscape:page
       x="0"
       y="0"
       width="38.549999"
       height="41.919998"
       id="page42"
       margin="0"
       bleed="0" /></sodipodi:namedview><defs
     id="defs1"><inkscape:path-effect
       effect="powerstroke"
       id="path-effect12"
       is_visible="true"
       lpeversion="1.3"
       scale_width="1"
       interpolator_type="CubicBezierJohan"
       interpolator_beta="0.2"
       start_linecap_type="zerowidth"
       end_linecap_type="zerowidth"
       offset_points="7,4.9921382"
       linejoin_type="extrp_arc"
       miter_limit="4"
       not_jump="false"
       sort_points="true"
       message="&lt;b&gt;Ctrl + click&lt;/b&gt; on existing node and move it" /><inkscape:path-effect
       effect="powerstroke"
       id="path-effect13"
       is_visible="true"
       lpeversion="1.3"
       scale_width="1"
       interpolator_type="CubicBezierJohan"
       interpolator_beta="0.2"
       start_linecap_type="zerowidth"
       end_linecap_type="zerowidth"
       offset_points="5,4.9921382"
       linejoin_type="extrp_arc"
       miter_limit="4"
       not_jump="false"
       sort_points="true"
       message="&lt;b&gt;Ctrl + click&lt;/b&gt; on existing node and move it" /><inkscape:path-effect
       effect="powerstroke"
       id="path-effect13-8"
       is_visible="true"
       lpeversion="1.3"
       scale_width="1"
       interpolator_type="CubicBezierJohan"
       interpolator_beta="0.2"
       start_linecap_type="zerowidth"
       end_linecap_type="zerowidth"
       offset_points="5,4.9921382"
       linejoin_type="extrp_arc"
       miter_limit="4"
       not_jump="false"
       sort_points="true"
       message="&lt;b&gt;Ctrl + click&lt;/b&gt; on existing node and move it" /><inkscape:path-effect
       effect="powerstroke"
       id="path-effect13-5"
       is_visible="true"
       lpeversion="1.3"
       scale_width="1"
       interpolator_type="CubicBezierJohan"
       interpolator_beta="0.2"
       start_linecap_type="zerowidth"
       end_linecap_type="zerowidth"
       offset_points="5,4.9921382"
       linejoin_type="extrp_arc"
       miter_limit="4"
       not_jump="false"
       sort_points="true"
       message="&lt;b&gt;Ctrl + click&lt;/b&gt; on existing node and move it" /><inkscape:path-effect
       effect="powerstroke"
       id="path-effect13-3"
       is_visible="true"
       lpeversion="1.3"
       scale_width="1"
       interpolator_type="CubicBezierJohan"
       interpolator_beta="0.2"
       start_linecap_type="zerowidth"
       end_linecap_type="zerowidth"
       offset_points="5,4.9921382"
       linejoin_type="extrp_arc"
       miter_limit="4"
       not_jump="false"
       sort_points="true"
       message="&lt;b&gt;Ctrl + click&lt;/b&gt; on existing node and move it" /><inkscape:path-effect
       effect="powerstroke"
       id="path-effect13-53"
       is_visible="true"
       lpeversion="1.3"
       scale_width="1"
       interpolator_type="CubicBezierJohan"
       interpolator_beta="0.2"
       start_linecap_type="zerowidth"
       end_linecap_type="zerowidth"
       offset_points="5,4.9921382"
       linejoin_type="extrp_arc"
       miter_limit="4"
       not_jump="false"
       sort_points="true"
       message="&lt;b&gt;Ctrl + click&lt;/b&gt; on existing node and move it" /></defs><g
     inkscape:label="Layer 1"
     inkscape:groupmode="layer"
     id="layer1"
     transform="rotate(180,62.1375,101.93)"><path
       style="fill:#938e5e;fill-opacity:1;fill-rule:evenodd;stroke:none;stroke-width:0.982424;stroke-linecap:round;stroke-linejoin:round;stroke-dasharray:none;stroke-opacity:1;paint-order:stroke fill markers"
       d="m 118.85,200 v -6.4 L 114.42512,168.86241 105,165.8 95.574879,168.86241 91.149996,193.6 l 2e-6,6.4 z"
       id="path12"
       sodipodi:nodetypes="cccccccc" /><path
       style="display:inline;fill:#fff29e;fill-opacity:1;fill-rule:evenodd;stroke:none;stroke-width:0.373013;stroke-linecap:round;stroke-linejoin:round;paint-order:stroke fill markers"
       d="m 105,169 9.42512,3.06241 L 118.85,200 H 91.149999 l 4.42488,-27.93759 z"
       id="path13"
       sodipodi:nodetypes="cccccc" /><path
       id="path4"
       style="fill:#000000;stroke-width:0.621712"
       inkscape:label="path1"
       d="m 107.65566,174.50344 c -0.16405,0.009 -0.26709,0.0347 -0.26709,0.0706 0,0.0722 0.16418,0.32921 0.36342,0.57055 0.33772,0.40932 0.49878,1.11938 0.25396,1.12135 -0.27233,0.001 -1.05087,1.17529 -1.05087,1.58458 0,0.56733 0.48763,1.26988 1.22822,1.76536 0.63825,0.42701 1.10712,0.48585 1.53252,0.19207 0.25534,-0.17643 0.26429,-0.24006 0.0788,-0.7005 -0.22293,-0.55379 -0.89018,-1.25301 -1.46247,-1.53373 -0.51124,-0.25089 -0.45266,-0.49546 0.14887,-0.6214 0.76498,-0.16015 1.5401,-0.83773 1.48655,-1.2993 -0.0722,-0.6225 -0.68708,-1.03568 -1.67264,-1.127 -0.24891,-0.0231 -0.47523,-0.0314 -0.63929,-0.0226 z m -2.20027,0.37284 c -0.39493,0.003 -0.82876,0.13795 -1.25228,0.40109 -0.35843,0.22286 -1.72672,0.94703 -3.04099,1.61001 -2.227482,1.12367 -2.441668,1.19801 -3.150422,1.07333 -1.027235,-0.18069 -0.998602,0.14869 0.07225,0.82759 1.387708,0.87993 1.972932,1.0498 2.375402,0.69484 0.18785,-0.16575 0.37394,-0.34862 0.41379,-0.40674 0.24953,-0.36415 3.90709,-2.4376 4.29983,-2.4376 0.0418,0 0.0331,0.31512 -0.0175,0.70051 -0.0511,0.38534 -0.1288,1.26659 -0.17514,1.9574 -0.0747,1.11575 -0.0431,1.34343 0.28023,2.05347 0.20025,0.43958 0.66676,1.09136 1.03775,1.44899 0.69936,0.6742 0.68655,0.98061 -0.0197,0.50279 -0.36455,-0.24636 -0.47867,-0.2377 -1.17567,0.0988 -0.42512,0.20524 -0.81272,0.32415 -0.8604,0.2627 -0.1837,-0.23727 -0.20748,-2.15834 -0.035,-2.83304 0.17811,-0.69647 0.17305,-0.72106 -0.35905,-1.35013 -0.53558,-0.63322 -0.55347,-0.63864 -1.50625,-0.50843 -0.52963,0.0722 -0.99378,0.17079 -1.03117,0.2175 -0.0374,0.0467 0.14994,0.30474 0.41596,0.57338 0.64639,0.65264 0.85167,1.35842 0.96768,3.34146 l 0.0963,1.66366 -0.52982,0.32483 c -0.29145,0.17937 -0.5908,0.32765 -0.66774,0.32765 -0.0811,0 -0.14012,-0.81779 -0.14012,-1.94048 0,-1.57725 -0.0457,-1.98611 -0.24082,-2.19469 -0.25979,-0.27766 -1.975414,-0.35776 -2.174004,-0.10166 -0.0631,0.0814 0.13129,0.41502 0.42911,0.74286 0.44561,0.49038 0.565874,0.77862 0.680874,1.62412 0.0768,0.56519 0.0909,1.4312 0.0328,1.92352 l -0.10509,0.89539 -0.648034,-0.75981 -0.650222,-0.75981 0.453182,0.1187 c 0.37811,0.0977 0.47052,0.0503 0.55172,-0.27963 0.13653,-0.55538 -0.39471,-1.59584 -0.974252,-1.90658 -0.511806,-0.27446 -1.892245,-0.33382 -2.351334,-0.10167 -0.243702,0.12334 -0.143477,0.24694 0.652419,0.81064 0.516627,0.36597 1.084641,0.75958 1.26324,0.87561 0.178531,0.11612 0.325671,0.28435 0.326209,0.37286 0.001,0.14652 -0.380923,0.10076 -1.482173,-0.18078 -0.278395,-0.0713 -0.398457,-0.0244 -0.398457,0.15252 0,0.14014 0.179348,0.39714 0.398457,0.5734 0.697883,0.5616 1.669859,1.76952 1.578503,1.96024 -0.04842,0.10128 -0.464357,0.4185 -0.923894,0.70614 -0.459549,0.2876 -1.063269,0.70619 -1.342056,0.92928 -0.632721,0.50628 -0.835985,0.42275 -0.954546,-0.39262 -0.05134,-0.35333 -0.146745,-0.68487 -0.212364,-0.7372 -0.217606,-0.17349 -0.862594,1.77508 -0.862594,2.60706 0,0.82211 -0.0072,0.80814 1.278566,2.24269 0.321381,0.35873 0.324286,0.35838 0.567034,-0.0931 0.629393,-1.17093 2.630529,-3.53635 2.990612,-3.53635 0.32455,0 -0.29806,1.82767 -0.851641,2.49972 -0.159285,0.1935 -0.794829,0.89274 -1.412115,1.55634 -0.617298,0.66361 -1.123123,1.28572 -1.123123,1.38121 0,0.21486 0.514847,0.0581 1.738323,-0.531 1.375066,-0.66208 1.897356,-1.09885 2.43671,-2.03652 0.61534,-1.06986 0.88305,-1.90769 1.05744,-3.30473 0.0768,-0.61539 0.19825,-1.26122 0.27148,-1.4377 0.15619,-0.37641 1.13756,-1.02049 1.27857,-0.83889 0.0531,0.0685 0.11895,0.87433 0.14667,1.79077 0.0555,1.82788 0.0623,1.81619 -0.8385,1.48288 -0.27297,-0.10089 -0.51946,-0.15474 -0.54733,-0.11856 -0.08,0.10321 1.82401,2.43204 2.14554,2.62401 0.22073,0.13189 0.36377,0.0787 0.60206,-0.22878 0.30574,-0.39447 0.30816,-0.44891 0.13793,-2.64662 -0.0956,-1.2342 -0.18076,-2.30881 -0.19048,-2.38675 -0.10256,-0.82886 0.0491,-1.36843 0.46195,-1.6439 0.69486,-0.46356 0.80072,-0.19488 0.91076,2.29072 0.14066,3.17688 0.57074,4.17952 2.26376,5.27911 1.27898,0.83071 2.60275,1.12558 5.02451,1.11851 2.22398,-0.005 2.65126,-0.13763 2.65126,-0.81629 -0.2658,-1.76218 -1.72245,-2.7903 -2.61186,-4.04194 -0.57153,-0.81794 -1.0868,-1.44632 -1.14721,-1.39816 -0.0604,0.0482 0.0535,0.51393 0.25397,1.03662 0.31748,0.82766 0.3464,1.06412 0.23207,1.82749 l -0.12918,0.87842 -1.13844,-0.0368 c -2.25118,-0.0702 -3.46621,-0.64087 -3.86854,-1.81901 -0.33148,-0.97058 -0.39232,-3.00624 -0.13793,-4.62662 l 0.19704,-1.24845 0.42254,0.27962 c 0.66101,0.441 2.14342,0.77644 3.31026,0.74851 1.40925,-0.0337 1.4797,-0.3456 0.38314,-1.68344 -0.43257,-0.52774 -0.95779,-1.30971 -1.16692,-1.7371 -0.58329,-1.19248 -0.69101,-1.17131 -0.58674,0.11586 0.0859,1.06084 0.0721,1.13265 -0.21236,1.13265 -1.11839,0 -2.90287,-0.93043 -3.21174,-1.67497 -0.29936,-0.7217 -0.16528,-1.87217 0.37219,-3.19175 0.28569,-0.70146 0.49754,-1.41969 0.4707,-1.59588 -0.0269,-0.17615 -0.23269,-0.49538 -0.45757,-0.71178 -0.26707,-0.25702 -0.62309,-0.38495 -1.01804,-0.38133 z m 2.14773,9.66282 c -0.3811,-0.027 -0.38428,0.25098 -0.004,0.83325 0.44446,0.68151 0.47463,1.26737 0.081,1.58458 -0.1593,0.12837 -0.29118,0.37109 -0.29118,0.53949 0,0.44648 0.99755,1.6885 1.74489,2.17209 0.75974,0.49165 0.66854,0.47011 1.01804,0.22878 0.16033,-0.11083 0.28023,-0.38954 0.28023,-0.65247 0,-0.43001 -0.39963,-0.91777 -1.39679,-1.70321 -0.24219,-0.19083 -0.20823,-0.24411 0.33497,-0.5282 0.33239,-0.17375 0.63545,-0.4229 0.67431,-0.5536 0.13425,-0.45164 -0.56089,-1.18944 -1.53252,-1.62695 -0.29528,-0.13291 -0.53625,-0.22173 -0.72249,-0.26551 -0.0698,-0.0164 -0.13164,-0.0244 -0.18609,-0.0282 z"
       transform="translate(2.6325358e-6,-4.7896239e-4)" /></g></svg>
