<?xml version="1.0" encoding="UTF-8" standalone="no"?>
<!-- Created with Inkscape (http://www.inkscape.org/) -->

<svg
   viewBox="0 0 38.549999 41.919998"
   version="1.1"
   id="svg1"
   inkscape:version="1.3.2 (091e20e, 2023-11-25, custom)"
   sodipodi:docname="Uma.svg"
   xml:space="preserve"
   xmlns:inkscape="http://www.inkscape.org/namespaces/inkscape"
   xmlns:sodipodi="http://sodipodi.sourceforge.net/DTD/sodipodi-0.dtd"
   xmlns="http://www.w3.org/2000/svg"
   xmlns:svg="http://www.w3.org/2000/svg"><sodipodi:namedview
     id="namedview1"
     pagecolor="#ffffff"
     bordercolor="#111111"
     borderopacity="1"
     inkscape:showpageshadow="0"
     inkscape:pageopacity="0"
     inkscape:pagecheckerboard="1"
     inkscape:deskcolor="#d1d1d1"
     inkscape:document-units="mm"
     showguides="true"
     inkscape:zoom="13.096375"
     inkscape:cx="19.280145"
     inkscape:cy="20.959999"
     inkscape:window-width="1292"
     inkscape:window-height="745"
     inkscape:window-x="-8"
     inkscape:window-y="-8"
     inkscape:window-maximized="1"
     inkscape:current-layer="layer1"><inkscape:page
       x="0"
       y="0"
       width="38.549999"
       height="41.919998"
       id="page42"
       margin="0"
       bleed="0" /></sodipodi:namedview><defs
     id="defs1"><inkscape:path-effect
       effect="powerstroke"
       id="path-effect13"
       is_visible="true"
       lpeversion="1.3"
       scale_width="1"
       interpolator_type="CubicBezierJohan"
       interpolator_beta="0.2"
       start_linecap_type="zerowidth"
       end_linecap_type="zerowidth"
       offset_points="5,4.9921382"
       linejoin_type="extrp_arc"
       miter_limit="4"
       not_jump="false"
       sort_points="true"
       message="&lt;b&gt;Ctrl + click&lt;/b&gt; on existing node and move it" /></defs><g
     inkscape:label="Layer 1"
     inkscape:groupmode="layer"
     id="layer1"
     transform="translate(-85.737497,-165.14)"><path
       style="fill:#fff29e;fill-opacity:1;fill-rule:evenodd;stroke:none;stroke-width:0.373013;stroke-linecap:round;stroke-linejoin:round;paint-order:stroke fill markers"
       d="m 105,169 9.42512,3.06241 L 118.85,200 H 91.149995 l 4.42488,-27.93759 z"
       id="path13"
       sodipodi:nodetypes="cccccc" /><path
       style="display:inline;fill:#938e5e;fill-opacity:1;fill-rule:evenodd;stroke:none;stroke-width:0.379217;stroke-linecap:round;stroke-linejoin:round;stroke-dasharray:none;stroke-opacity:1;paint-order:stroke fill markers"
       d="m 91.175004,200 -3e-6,3.2 H 118.875 V 200 Z"
       id="path45" /><path
       id="path7"
       style="fill:#000000;stroke-width:0.784241"
       inkscape:label="path1"
       d="m 98.459606,178.0943 c -0.934057,0.54724 -1.796505,0.99399 -1.918105,0.99399 -0.12959,0 -0.222295,-0.47081 -0.222295,-1.14006 0,-1.19967 -0.317743,-1.54323 -0.530333,-0.57164 -0.06876,0.31384 -0.218571,0.85169 -0.333448,1.19406 -0.573681,1.70974 -0.579667,1.77351 -0.16196,2.1912 0.515113,0.51507 1.643989,0.52358 2.295998,0.019 2.210276,-1.71022 3.858437,-2.58088 6.329107,-3.34397 0.73042,-0.22562 1.51073,-0.50786 1.73072,-0.6256 0.72004,-0.38532 0.63029,0.12104 -0.1556,0.88284 -0.74863,0.72575 -3.21347,2.01654 -3.8489,2.01654 -0.17381,0 -0.56869,0.0958 -0.87648,0.21277 -0.53297,0.20262 -0.54321,0.23124 -0.20642,0.60337 0.62634,0.69209 1.47649,0.93168 2.24201,0.62879 0.3709,-0.14699 0.83803,-0.40727 1.03844,-0.57798 0.20043,-0.17071 0.42368,-0.25272 0.49541,-0.181 0.23215,0.23217 -0.39497,1.43298 -1.41634,2.70566 -0.54848,0.6834 -0.99715,1.40879 -0.99715,1.61005 0,0.32956 0.90382,1.2336 1.21945,1.21946 0.0701,-0.003 0.35829,-0.31474 0.6383,-0.6923 0.74948,-1.01062 1.8776,-1.74299 3.25187,-2.10863 1.11939,-0.29783 1.3017,-0.29538 2.27377,0.0286 2.04225,0.68044 2.7803,3.02151 1.65136,5.24937 -1.40138,2.76547 -5.9379,4.7892 -9.29834,4.1474 -1.842122,-0.3518 -2.249436,-0.81267 -1.47033,-1.67357 0.751,-0.82986 2.99164,0.0569 2.93432,0.39061 -0.0455,0.26528 0.13457,0.38501 0.71451,0.4827 1.376,0.23183 1.85821,-0.89173 0.87967,-2.05465 -0.71504,-0.8498 -2.20358,-1.04825 -4.02676,-0.53669 -1.621398,0.45494 -2.20796,1.12972 -2.114989,2.43257 0.03448,0.48162 0.165819,0.99717 0.289,1.14642 0.308343,0.37357 1.539559,0.89826 2.537349,1.07971 2.49924,0.4545 6.34992,-0.2008 8.96807,-1.5275 2.02952,-1.02842 3.71232,-2.95584 4.29349,-4.91275 0.6182,-2.08173 0.3949,-3.39682 -0.78756,-4.64281 -1.84798,-1.94729 -5.51616,-2.5448 -7.98996,-1.29885 -1.22115,0.61506 -1.42006,0.60562 -1.06702,-0.054 0.24019,-0.44877 2.1976,-2.08959 2.49289,-2.08959 0.27691,0 0.44684,-0.67734 0.22547,-0.89871 -0.11366,-0.11364 -0.54992,-0.1936 -0.96857,-0.17784 -0.72104,0.0269 -0.74002,0.01 -0.41919,-0.34615 0.37291,-0.41205 1.98238,-1.1782 2.87715,-1.36869 1.53734,-0.32726 -0.15466,-1.63054 -1.89271,-1.45764 -0.47009,0.0469 -0.75753,0.0184 -2.73737,0.51323 -1.97985,0.49485 -3.93099,1.35604 -5.938524,2.53226 z"
       sodipodi:nodetypes="csscccccccsccccccsccccscccccscccccccssccccccc" /></g></svg>
