<?xml version="1.0" encoding="UTF-8" standalone="no"?>
<!-- Created with Inkscape (http://www.inkscape.org/) -->

<svg
   viewBox="0 0 38.5 41.919998"
   version="1.1"
   id="svg1"
   inkscape:version="1.3.2 (091e20e, 2023-11-25, custom)"
   sodipodi:docname="Gyoku.svg"
   xml:space="preserve"
   xmlns:inkscape="http://www.inkscape.org/namespaces/inkscape"
   xmlns:sodipodi="http://sodipodi.sourceforge.net/DTD/sodipodi-0.dtd"
   xmlns="http://www.w3.org/2000/svg"
   xmlns:svg="http://www.w3.org/2000/svg"><sodipodi:namedview
     id="namedview1"
     pagecolor="#ffffff"
     bordercolor="#111111"
     borderopacity="1"
     inkscape:showpageshadow="0"
     inkscape:pageopacity="0"
     inkscape:pagecheckerboard="1"
     inkscape:deskcolor="#d1d1d1"
     inkscape:document-units="mm"
     showguides="true"
     inkscape:zoom="13.096375"
     inkscape:cx="19.280145"
     inkscape:cy="20.959999"
     inkscape:window-width="1292"
     inkscape:window-height="745"
     inkscape:window-x="-8"
     inkscape:window-y="-8"
     inkscape:window-maximized="1"
     inkscape:current-layer="layer1"><inkscape:page
       x="0"
       y="0"
       width="38.5"
       height="41.919998"
       id="page42"
       margin="0"
       bleed="0" /></sodipodi:namedview><defs
     id="defs1"><inkscape:path-effect
       effect="powerstroke"
       id="path-effect13"
       is_visible="true"
       lpeversion="1.3"
       scale_width="1"
       interpolator_type="CubicBezierJohan"
       interpolator_beta="0.2"
       start_linecap_type="zerowidth"
       end_linecap_type="zerowidth"
       offset_points="5,4.9921382"
       linejoin_type="extrp_arc"
       miter_limit="4"
       not_jump="false"
       sort_points="true"
       message="&lt;b&gt;Ctrl + click&lt;/b&gt; on existing node and move it" /></defs><g
     inkscape:label="Layer 1"
     inkscape:groupmode="layer"
     id="layer1"
     transform="translate(-85.749998,-164.64)"><path
       style="fill:#fff29e;fill-opacity:1;fill-rule:evenodd;stroke:none;stroke-width:0.385762;stroke-linecap:round;stroke-linejoin:round;paint-order:stroke fill markers"
       d="m 105,168 9.78527,3.17942 L 119.35,200 H 90.649995 l 4.56473,-28.82058 z"
       id="path13" /><path
       style="display:inline;fill:#938e5e;fill-opacity:1;fill-rule:evenodd;stroke:none;stroke-width:0.386001;stroke-linecap:round;stroke-linejoin:round;stroke-dasharray:none;stroke-opacity:1;paint-order:stroke fill markers"
       d="m 90.649998,200 -3e-6,3.2 H 119.35 V 200 Z"
       id="path45" /><path
       id="path5"
       style="fill:#000000;stroke-width:0.1;stroke:none;stroke-opacity:1;stroke-dasharray:none"
       inkscape:label="path1"
       d="m 108.41618,175.60983 v 7.4e-4 c -0.49893,-0.0235 -1.06101,0.0809 -1.68708,0.31253 -3.69821,1.3678 -7.765787,2.03256 -8.858077,1.44799 -0.19409,-0.10399 -0.352999,-0.11453 -0.352999,-0.0255 0,0.25689 1.715709,1.79611 2.158499,1.93665 0.419607,0.13314 2.360057,-0.19677 2.680867,-0.45568 0.28812,-0.23268 0.54229,0.0158 1.03878,1.01254 0.602,1.20978 0.74042,1.8294 0.45868,2.05357 -0.12429,0.0991 -0.85043,0.36249 -1.61288,0.58609 -1.37363,0.40281 -2.924027,0.44954 -3.674677,0.11018 -0.52876,-0.23891 -0.37855,0.31166 0.18287,0.67002 0.27524,0.17562 0.77959,0.52427 1.12047,0.77497 0.758057,0.55749 1.210617,0.56845 2.704857,0.0637 0.68335,-0.23085 1.22572,-0.32457 1.31758,-0.22783 0.086,0.0904 0.18495,0.77955 0.21959,1.53192 l 0.063,1.36854 -2.18847,0.75848 c -3.267607,1.13243 -4.295597,1.53427 -5.172886,2.02358 -0.936475,0.52235 -1.094681,0.42743 -1.268865,-0.75846 -0.06874,-0.46898 -0.206982,-0.84515 -0.307285,-0.83642 -0.100363,0.007 -0.420193,0.54738 -0.710505,1.19691 l -0.527632,1.18118 0.728492,0.8619 c 0.400537,0.47417 0.919493,0.95916 1.153445,1.07775 0.342437,0.17353 0.534038,0.15955 0.984813,-0.0734 0.30789,-0.15919 0.642384,-0.38904 0.742733,-0.5104 0.522333,-0.63197 2.369373,-1.73705 3.73914,-2.23719 2.46311,-0.89932 4.02812,-1.23081 6.65761,-1.40978 0.70222,-0.0477 1.91242,-0.17998 2.68986,-0.29304 1.67783,-0.24439 1.81798,-0.52613 0.67603,-1.3573 -0.40544,-0.29513 -1.00022,-0.75951 -1.32207,-1.03204 l -0.58459,-0.4954 -0.057,0.63256 c -0.0396,0.44302 -0.14897,0.63622 -0.36498,0.64531 -0.49445,0.0209 -1.72547,0.15826 -2.26193,0.25257 -0.67136,0.11806 -0.77702,-0.11794 -0.79819,-1.78751 -0.0209,-1.616 -0.1123,-1.51097 1.7875,-2.04007 0.57321,-0.15971 1.22989,-0.4493 1.45923,-0.6438 0.41468,-0.35171 0.41526,-0.35564 0.0525,-0.6408 -0.27202,-0.21365 -0.68803,-0.27165 -1.63462,-0.22785 l -1.26886,0.0585 -0.16113,-0.80494 c -0.19881,-0.9949 -0.68367,-1.41185 -1.82649,-1.57165 -0.48293,-0.0674 -0.82631,-0.17501 -0.76295,-0.23833 0.19721,-0.19723 2.13936,-0.55134 3.19127,-0.58235 0.55173,-0.0157 1.53717,-0.16551 2.18922,-0.33127 1.04477,-0.26553 1.18567,-0.35301 1.18567,-0.73749 0,-0.2569 -0.19453,-0.58105 -0.47217,-0.78844 -0.37209,-0.2778 -0.80744,-0.42807 -1.30633,-0.45118 z m 3.80509,9.13611 c -0.0714,0.007 -0.11168,0.0308 -0.11168,0.075 0,0.0847 0.20179,0.34335 0.4482,0.57485 0.24647,0.23163 0.67534,0.75846 0.95333,1.17143 0.27794,0.41296 0.70146,1.01778 0.94135,1.34381 0.51198,0.69583 1.006,0.75846 1.38802,0.17538 0.346,-0.52808 0.10532,-1.53915 -0.49316,-2.0738 -0.50541,-0.45137 -2.07357,-1.09527 -2.82628,-1.23964 -0.12545,-0.0241 -0.22838,-0.0339 -0.29978,-0.027 z" /><path
       id="path1"
       style="fill:#000000;stroke-width:0.0291405"
       d="m 99.807435,201.8393 c -0.002,0.0233 0.005,0.0458 0.0198,0.0779 0.0196,0.0422 0.0486,0.0786 0.0646,0.0793 0.016,7.8e-4 0.0877,0.005 0.158975,0.009 0.11803,0.008 0.14514,0.0255 0.30142,0.19542 0.0943,0.10247 0.15757,0.19147 0.14076,0.19706 -0.0374,0.0124 -0.0742,0.19221 -0.0513,0.25175 0.014,0.0363 0.0335,0.0331 0.12254,-0.0216 0.16872,-0.10341 0.29696,-0.23292 0.31633,-0.31963 0.0176,-0.0784 0.0152,-0.0806 -0.12091,-0.0828 -0.0764,-10e-4 -0.17342,-0.005 -0.21531,-0.009 -0.0994,-0.008 -0.27554,-0.12918 -0.3163,-0.2186 l -0.0332,-0.0713 0.22192,0.0182 c 0.18008,0.0155 0.23545,0.0331 0.29977,0.0927 0.0434,0.0402 0.0862,0.0728 0.0961,0.0728 0.0171,0 0.2302,0.30676 0.2302,0.33123 0,0.006 0.0215,0.0598 0.0464,0.11924 0.0389,0.0928 0.0504,0.10201 0.0894,0.0696 0.0344,-0.0286 0.0416,-0.068 0.0282,-0.16561 -0.01,-0.0711 -0.0321,-0.14781 -0.0497,-0.16893 -0.0176,-0.0211 -0.0264,-0.0536 -0.0199,-0.0728 0.0137,-0.041 0.43016,0.50234 0.54321,0.70883 0.0746,0.13617 0.16715,0.19769 0.23516,0.15565 0.0654,-0.0404 0.0312,-0.21686 -0.0779,-0.39579 -0.24335,-0.39983 -0.30285,-0.52334 -0.25172,-0.52334 0.0861,0 0.60015,0.18199 0.67856,0.23531 0.0784,0.0532 0.16123,0.10247 0.24228,0.15716 0.12856,0.1225 0.2374,0.23998 0.3114,0.3577 0.0284,0.0623 0.0416,0.0686 0.0629,0.0348 0.0422,-0.0668 0.0334,-0.11769 -0.0514,-0.28485 -0.13989,-0.27672 -0.45821,-0.49285 -0.8827,-0.60118 -0.17628,-0.0452 -0.2619,-0.0868 -0.23186,-0.11257 0.007,-0.006 0.0557,-0.0199 0.14679,-0.0109 0.0911,0.009 0.1652,-0.005 0.2507,-0.005 0.19755,0.001 0.2561,-0.0191 0.29644,-0.1076 0.0433,-0.095 0.0433,-0.33862 0,-0.43392 -0.0621,-0.13679 -0.10683,-0.0764 -0.13741,0.18716 -0.0155,0.12778 -0.0334,0.16499 -0.0877,0.19211 -0.0893,0.0444 -0.19276,0.0216 -0.14735,-0.0332 0.0491,-0.059 -0.0544,-0.2127 -0.1623,-0.24179 -0.18754,-0.0506 -0.30893,0.0565 -0.30142,0.26664 0.003,0.0765 -0.01,0.15169 -0.0264,0.16893 -0.0501,0.0502 -0.13701,0.0166 -0.1474,-0.0564 -0.0106,-0.0752 0.0485,-0.15918 0.36601,-0.52335 0.36952,-0.4238 0.55109,-0.90639 0.44549,-1.18413 -0.0753,-0.19817 -0.22295,0.0124 -0.3395,0.4869 -0.0402,0.16362 -0.11873,0.38962 -0.1739,0.5018 -0.11999,0.24403 -0.357,0.55719 -0.39415,0.52002 -0.0412,-0.0412 -0.17224,-0.50647 -0.17224,-0.6111 0,-0.0523 -0.0235,-0.1177 -0.0514,-0.1458 -0.0486,-0.0486 -0.052,-0.0464 -0.0696,0.0348 -0.0498,0.23091 -0.0275,0.40348 0.0761,0.5962 0.061,0.11334 0.0955,0.21162 0.11423,0.2858 0.0187,0.0741 0.005,0.0919 -0.0412,0.0919 -0.14192,0 -0.2453,-0.13197 -0.31797,-0.40742 -0.0591,-0.22405 -0.17556,-0.35019 -0.17556,-0.19043 0,0.039 -0.0154,0.0801 -0.0332,0.0911 -0.0197,0.0109 -0.0258,0.0663 -0.0165,0.13896 l 0.0149,0.1208 -0.26664,-0.28487 c -0.29552,-0.31455 -0.369585,-0.34807 -0.423965,-0.19208 -0.0464,0.13307 -0.0403,0.3312 0.0117,0.37427 0.05881,0.0488 0.05371,0.0877 -0.01,0.0877 -0.0286,0 -0.0739,0.0369 -0.10103,0.0828 -0.0205,0.0348 -0.0311,0.0596 -0.0332,0.0829 z m 0.221915,-0.23023 c 3.2e-4,-0.006 0.002,-0.0124 0.005,-0.0182 0.01,-0.0158 0.059,-0.006 0.11594,0.0231 0.0544,0.0276 0.13662,0.0778 0.18217,0.11086 l 0.0829,0.0598 -0.0795,-0.0155 c -0.044,-0.009 -0.0873,-0.0272 -0.0961,-0.0413 -0.009,-0.014 -0.0457,-0.0247 -0.0828,-0.0247 -0.0555,0 -0.11124,-0.0385 -0.12419,-0.0761 -0.002,-0.006 -0.004,-0.0124 -0.004,-0.0182 z m 1.10132,0.47368 0.0944,0.0124 c 0.0521,0.006 0.10403,0.0109 0.11594,0.0124 0.0119,0.001 0.0996,0.1578 0.19374,0.34612 0.0942,0.18831 0.18096,0.37562 0.19212,0.41568 l 0.0199,0.0728 -0.0613,-0.0728 c -0.0336,-0.0401 -0.0874,-0.1222 -0.11924,-0.18216 -0.0319,-0.0599 -0.14291,-0.21997 -0.24677,-0.35607 z m 0.52996,-0.28982 c -0.002,-0.008 -0.002,-0.0155 0,-0.0248 0.006,-0.0321 0.0374,-0.0497 0.0828,-0.0497 0.0454,0 0.075,0.0175 0.0811,0.0497 0.008,0.0399 -0.01,0.0514 -0.0811,0.0514 -0.0537,0 -0.0777,-0.008 -0.0828,-0.0264 z m 1.75051,-0.20703 c 3.9e-4,0.0158 0.003,0.0328 0.008,0.0546 0.0109,0.0582 0.037,0.12422 0.0579,0.1458 0.0317,0.0325 0.0357,0.0234 0.0266,-0.0547 l -0.0109,-0.0944 0.15403,0.0155 c 0.24203,0.025 0.29698,0.0644 0.41734,0.29479 0.0596,0.11397 0.16145,0.28328 0.22523,0.37429 0.0638,0.091 0.12422,0.21529 0.13431,0.27656 l 0.0182,0.11086 0.0794,-0.14238 c 0.0436,-0.0782 0.0795,-0.17148 0.0795,-0.207 0,-0.0356 -0.0675,-0.1589 -0.14905,-0.27492 -0.0815,-0.11598 -0.14285,-0.21521 -0.13742,-0.22028 0.0224,-0.0211 0.31484,0.10823 0.33218,0.12096 0.0174,0.0124 0.0728,0.0234 0.11816,0.0463 0.0455,0.023 0.14688,0.0514 0.22359,0.0613 0.1615,0.0211 0.19896,-0.02 0.12421,-0.13431 -0.0453,-0.0693 -0.045,-0.0707 0.0413,-0.0579 0.048,0.008 0.0877,0.0262 0.10853,0.0297 0.0207,0.003 0.2706,0.35193 0.36848,0.54499 0.0393,0.0778 0.0644,0.15924 0.0564,0.18053 -0.0185,0.0481 0.0261,0.0505 0.0728,0.005 0.0674,-0.0672 0.0351,-0.19216 -0.1076,-0.41072 -0.0784,-0.12048 -0.15793,-0.2276 -0.17554,-0.23847 -0.0576,-0.0357 -0.0334,-0.0745 0.0464,-0.0745 0.0599,0 0.13773,0.062 0.33454,0.26332 0.14099,0.14424 0.27015,0.26169 0.29324,0.28459 0.0231,0.0228 0.0368,0.0351 0.0528,0.0351 0.0686,0 0.0175,-0.10558 -0.14579,-0.30305 -0.0963,-0.1163 -0.17555,-0.2196 -0.17555,-0.23022 0,-0.0109 0.0199,-0.02 0.0447,-0.02 0.0497,0 0.46831,0.38087 0.48682,0.40055 0.21749,0.19751 0.37771,0.38486 0.65596,0.46732 0.0199,-0.0161 0.0365,-0.0456 0.0365,-0.0646 0,-0.0739 -0.15465,-0.23813 -0.29975,-0.31797 -0.0838,-0.0461 -0.17323,-0.10434 -0.19874,-0.13089 -0.0256,-0.0264 -0.11598,-0.10667 -0.20203,-0.17887 -0.3104,-0.26046 -0.41539,-0.37506 -0.41705,-0.42461 -10e-4,-0.0495 -0.021,-0.0786 -0.0318,-0.12188 -0.014,-0.0578 -0.006,-0.0883 0.0315,-0.11583 0.0618,-0.0452 0.0815,-0.0464 0.2186,-0.009 0.15948,0.0443 0.17333,0.0756 0.12421,0.28814 -0.0236,0.10186 -0.0385,0.18845 -0.0332,0.19379 0.005,0.005 0.0399,-0.0668 0.0779,-0.1623 0.038,-0.0953 0.0787,-0.1739 0.0911,-0.1739 0.0399,0 0.17648,0.18209 0.24843,0.33122 0.0781,0.16183 0.0916,0.23781 0.0837,0.25807 -0.008,0.0202 -0.008,0.0303 -0.0441,0.0533 -0.0321,0.0205 -0.0264,0.0262 0.0247,0.0264 0.0902,7.6e-4 0.12685,-0.11024 0.11257,-0.33288 -0.0124,-0.20206 -0.0444,-0.27095 -0.20702,-0.4455 l -0.11427,-0.12251 0.0497,-0.0961 c 0.0278,-0.0523 0.0852,-0.15371 0.12748,-0.22523 l 0.0779,-0.12918 0.0382,0.0944 c 0.0213,0.0523 0.0325,0.10744 0.0396,0.12903 0.008,0.0217 0.0474,0.11055 0.0817,0.21874 0.0669,0.21015 0.13539,0.34284 0.1076,0.21034 -0.009,-0.0402 -0.0304,-0.13167 -0.0497,-0.20371 -0.0388,-0.14564 -0.0483,-0.48587 -0.0164,-0.63761 0.0205,-0.0978 0.0202,-0.0978 -0.0711,-0.0795 -0.14145,0.0284 -0.14207,0.029 -0.41071,0.5134 -0.0312,0.056 -0.0668,0.11241 -0.0795,0.12592 -0.0255,0.0269 -0.34356,-0.0349 -0.36599,-0.0713 -0.0155,-0.0242 -0.18836,0.0582 -0.22359,0.10604 -0.0306,0.0416 -0.0267,0.20211 0.008,0.28982 0.0155,0.041 0.0213,0.0745 0.0124,0.0745 -0.0194,0 -0.16997,-0.0947 -0.18881,-0.11924 -0.009,-0.0109 -0.0439,-0.008 -0.0811,0.008 -0.0508,0.0189 -0.0637,0.039 -0.0497,0.0829 0.0109,0.0321 0.008,0.0579 -0.009,0.0579 -0.0312,0 -0.23818,-0.22137 -0.23847,-0.25506 -3.9e-4,-0.0428 -0.19719,-0.15294 -0.2418,-0.13586 -0.0848,0.0325 -0.0868,0.15418 -0.008,0.29149 l 0.0745,0.12747 -0.0961,-0.0182 c -0.11955,-0.0227 -0.18861,-0.0565 -0.29975,-0.14905 l -0.0862,-0.0728 -0.0332,0.11427 c -0.0306,0.10605 -0.0284,0.11739 0.0432,0.17889 l 0.0761,0.0663 -0.0862,-0.0348 c -0.0481,-0.0196 -0.12049,-0.0576 -0.16066,-0.0845 -0.0401,-0.0267 -0.12344,-0.0672 -0.18548,-0.0894 -0.12359,-0.0441 -0.21399,-0.1399 -0.2418,-0.25671 -0.0311,-0.12996 -0.0644,-0.15262 -0.14238,-0.0961 -0.038,0.0275 -0.0708,0.0745 -0.0713,0.10434 -7.7e-4,0.0427 -0.0155,0.0502 -0.0663,0.0348 -0.18275,-0.0543 -0.26938,-0.0497 -0.33787,0.0155 -0.0282,0.0267 -0.0441,0.0464 -0.0512,0.0713 -0.005,0.0109 -0.005,0.027 -0.005,0.043 z m 0.16727,0.30803 c 10e-4,0.0168 0.0247,0.0509 0.0696,0.10108 0.12561,0.13912 0.13695,0.23998 0.0332,0.30804 -0.1017,0.0666 -0.0907,0.0994 0.0332,0.0994 0.0837,0 0.12623,-0.0222 0.20371,-0.10434 0.054,-0.0573 0.0977,-0.1208 0.0977,-0.14238 0,-0.077 -0.0365,-0.13244 -0.0877,-0.13244 -0.0287,0 -0.10899,-0.0314 -0.17886,-0.0713 -0.0925,-0.0528 -0.14844,-0.0753 -0.16561,-0.0678 -0.005,0.001 -0.005,0.005 -0.005,0.0109 z m 1.64122,-0.25668 c -10e-4,-0.006 1.7e-4,-0.0109 0.005,-0.0155 0.008,-0.008 0.0564,0.0281 0.10931,0.0779 0.0702,0.0658 0.0837,0.091 0.048,0.0911 -0.0426,1e-4 -0.15123,-0.10978 -0.16064,-0.15403 z m 2.53058,1.00029 c -0.005,0.005 0.005,0.014 0.0216,0.0363 0.0221,0.0269 0.0579,0.0497 0.0793,0.0497 0.0216,0 0.0348,0.0165 0.0298,0.0363 -0.005,0.02 -0.005,0.0269 0.005,0.0155 0.008,-0.0109 0.03,-0.0231 0.053,-0.0231 0.0228,0 0.0647,-0.0109 0.0927,-0.0265 0.0278,-0.0155 0.0731,-0.0343 0.10108,-0.043 0.0391,-0.0109 0.0456,-0.0295 0.0266,-0.0811 -0.0124,-0.0366 -0.0186,-0.0843 -0.0124,-0.10434 0.0155,-0.0435 -0.0383,-0.0491 -0.0646,-0.008 -0.0109,0.0163 -0.0304,0.0236 -0.0447,0.0155 -0.014,-0.009 -0.0554,0.023 -0.0911,0.0713 -0.0526,0.0711 -0.0781,0.0848 -0.13927,0.0696 -0.0337,-0.009 -0.0514,-0.0124 -0.0564,-0.009 z m 0.0862,-1.66771 c 0.001,0.0363 0.0241,0.0745 0.0663,0.13089 0.11723,0.15637 0.19199,0.32751 0.17721,0.40907 -0.0157,0.0862 0.005,0.0952 0.0862,0.0332 0.109,-0.0826 0.94227,-0.0109 1.04104,0.0396 0.0988,0.0505 0.46543,0.20133 0.48255,0.26679 0.0183,0.0699 0.0464,0.0731 0.0961,0.0124 0.0298,-0.0362 0.029,-0.0529 -0.0109,-0.0961 -0.0536,-0.0966 -0.15716,-0.118 -0.25495,-0.1638 -0.2288,-0.12096 -0.4894,-0.18986 -0.71544,-0.19045 -0.24637,-7.8e-4 -0.27895,-0.0345 -0.13089,-0.13245 0.16546,-0.10946 0.15699,-0.15545 -0.0266,-0.15402 -0.17573,0.001 -0.23978,0.0515 -0.22689,0.18051 0.008,0.0752 -3.7e-4,0.0919 -0.0514,0.0944 -0.034,0.001 -0.0969,0.0124 -0.13912,0.0231 -0.0638,0.016 -0.0761,0.009 -0.0761,-0.0397 0,-0.0317 -0.0222,-0.10465 -0.0497,-0.16228 -0.0686,-0.14378 -0.038,-0.15894 0.35441,-0.16064 0.26655,-7.8e-4 0.5276,-0.0253 0.99204,-0.0927 0.0512,-0.008 0.0568,0.008 0.0547,0.12251 -0.001,0.072 -0.0109,0.17741 -0.0216,0.2335 -0.0163,0.082 -0.0155,0.0898 0.009,0.0363 0.0161,-0.0363 0.0502,-0.0751 0.0838,-0.11956 0.0337,-0.0444 0.25734,-0.26634 0.28717,-0.26634 0.008,0 0.0442,-0.0233 0.0827,-0.0514 0.0969,-0.0706 0.0986,-0.16509 -0.0183,-0.17874 -0.11691,-0.0124 -0.19456,-0.009 -0.53284,0.0463 -0.44165,0.0717 -1.00528,0.0894 -1.14437,0.0363 -0.096,-0.0366 -0.33982,-0.0848 -0.31797,-0.0629 0.009,0.009 -0.0109,0.0478 -0.0413,0.0877 -0.0371,0.0474 -0.0565,0.0812 -0.0547,0.1177 z m 0.25835,1.07482 c 0,0.0325 0.0214,0.0377 0.0877,0.0231 0.0781,-0.0172 0.1076,-10e-4 0.26994,0.15231 0.19704,0.18671 0.37779,0.31701 0.56144,0.40409 l 0.11582,0.0548 -0.19541,0.0155 c -0.16779,0.0124 -0.20747,0.0275 -0.27657,0.0994 l -0.0811,0.0829 0.0728,-0.0216 c 0.0402,-0.0109 0.28871,-0.0314 0.55314,-0.043 0.26445,-0.0124 0.52215,-0.0343 0.57303,-0.0514 0.0508,-0.0171 0.1,-0.0242 0.14223,-0.0452 0.0421,-0.0211 0.10775,-0.0533 0.16748,-0.0939 0.0598,-0.0407 0.1076,-0.0941 0.1076,-0.11769 0,-0.0523 0.006,-0.0517 -0.14905,0.005 -0.22075,0.0787 -0.66285,0.10822 -0.92911,0.0613 -0.0722,-0.0124 -0.17574,-0.054 -0.23182,-0.0911 -0.16585,-0.10947 -0.37926,-0.30979 -0.37926,-0.35608 0,-0.0236 0.0109,-0.0346 0.0281,-0.0247 0.016,0.0109 0.18004,0.0236 0.36434,0.0298 0.28154,0.0109 0.3362,0.005 0.38641,-0.0547 0.0503,-0.0585 0.0497,-0.12328 -0.009,-0.14579 -0.0253,-0.0109 -0.1402,-0.0193 -0.25502,-0.0199 -0.1149,-3.9e-4 -0.28538,-0.0194 -0.37761,-0.0413 -0.18912,-0.0452 -0.19836,-0.0227 -0.0231,0.0564 0.16931,0.0764 0.14906,0.11273 -0.0497,0.0894 -0.12282,-0.014 -0.18069,-0.0362 -0.21694,-0.0829 -0.10248,-0.13228 -0.1416,-0.16691 -0.17058,-0.14905 -0.0166,0.0109 -0.022,0.0553 -0.0124,0.10263 0.0124,0.0624 0.006,0.0897 -0.0281,0.10263 -0.0253,0.0109 -0.0464,0.0362 -0.0464,0.0596 z"
       sodipodi:nodetypes="cccccccccccccccssccccccccsccccccccccccccccccccccssccccscsccccccscccccccccscccccsccccccscccsscccccccccccscccccccssccccscssscscccccccccccssscsccccccccccscccccccccscccsscccccccccccccccccccscccsssccsscccsccscsccccccccccccccsccscccccccscccccccsscscccccccccccscsscsscsccccscccccccccssccccccsc" /></g></svg>
