<?xml version="1.0" encoding="UTF-8" standalone="no"?>
<!-- Created with Inkscape (http://www.inkscape.org/) -->

<svg
   viewBox="0 0 38.549999 41.919998"
   version="1.1"
   id="svg1"
   inkscape:version="1.3.2 (091e20e, 2023-11-25, custom)"
   sodipodi:docname="Kyo.svg"
   xml:space="preserve"
   xmlns:inkscape="http://www.inkscape.org/namespaces/inkscape"
   xmlns:sodipodi="http://sodipodi.sourceforge.net/DTD/sodipodi-0.dtd"
   xmlns="http://www.w3.org/2000/svg"
   xmlns:svg="http://www.w3.org/2000/svg"><sodipodi:namedview
     id="namedview1"
     pagecolor="#ffffff"
     bordercolor="#111111"
     borderopacity="1"
     inkscape:showpageshadow="0"
     inkscape:pageopacity="0"
     inkscape:pagecheckerboard="1"
     inkscape:deskcolor="#d1d1d1"
     inkscape:document-units="mm"
     showguides="true"
     inkscape:zoom="13.096375"
     inkscape:cx="19.241966"
     inkscape:cy="20.959999"
     inkscape:window-width="1292"
     inkscape:window-height="745"
     inkscape:window-x="-8"
     inkscape:window-y="-8"
     inkscape:window-maximized="1"
     inkscape:current-layer="layer1"><inkscape:page
       x="0"
       y="0"
       width="38.549999"
       height="41.919998"
       id="page42"
       margin="0"
       bleed="0" /></sodipodi:namedview><defs
     id="defs1"><inkscape:path-effect
       effect="powerstroke"
       id="path-effect13"
       is_visible="true"
       lpeversion="1.3"
       scale_width="1"
       interpolator_type="CubicBezierJohan"
       interpolator_beta="0.2"
       start_linecap_type="zerowidth"
       end_linecap_type="zerowidth"
       offset_points="5,4.9921382"
       linejoin_type="extrp_arc"
       miter_limit="4"
       not_jump="false"
       sort_points="true"
       message="&lt;b&gt;Ctrl + click&lt;/b&gt; on existing node and move it" /></defs><g
     inkscape:label="Layer 1"
     inkscape:groupmode="layer"
     id="layer1"
     transform="matrix(0.81881518,0,0,1,-66.700592,-166.64)"><path
       style="fill:#fff29e;fill-opacity:1;fill-rule:evenodd;stroke:none;stroke-width:0.360847;stroke-linecap:round;stroke-linejoin:round;paint-order:stroke fill markers"
       d="m 105,172 9.78527,2.78199 L 119.35,200 H 90.649995 l 4.56473,-25.21801 z"
       id="path13" /><path
       style="display:inline;fill:#938e5e;fill-opacity:1;fill-rule:evenodd;stroke:none;stroke-width:0.386001;stroke-linecap:round;stroke-linejoin:round;stroke-dasharray:none;stroke-opacity:1;paint-order:stroke fill markers"
       d="m 90.649998,200 -3e-6,3.2 H 119.35 V 200 Z"
       id="path45" /><path
       id="path1"
       style="fill:#000000;stroke-width:0.583534"
       d="m 106.46584,178.57271 c -0.0418,-0.002 -0.0798,-4.1e-4 -0.11087,0.006 -0.12308,0.0307 -0.16039,0.14214 -0.16039,0.34857 0,0.38285 -0.73904,1.11657 -1.39691,1.38741 -1.47348,0.60654 -3.60838,1.37541 -3.82316,1.37541 -0.1316,0 -0.23912,0.10133 -0.23912,0.22681 0,0.19292 0.13598,0.21285 0.89527,0.13613 2.01263,-0.20353 3.78069,-0.55908 5.28128,-1.06502 1.43503,-0.48374 1.59033,-0.5743 1.63604,-0.9336 0.0583,-0.45858 -0.51535,-0.9581 -1.5252,-1.33004 -0.25173,-0.0929 -0.43109,-0.14521 -0.55702,-0.15287 z m -1.50478,3.42424 c -0.49601,0.005 -0.87182,0.0477 -0.9857,0.11704 -0.20178,0.12297 -0.20784,0.17364 -0.0324,0.23162 0.36525,0.12039 0.88656,0.63738 0.88656,0.88109 0,0.22486 -1.31242,0.59132 -3.49945,0.97422 -1.09743,0.19219 -3.784691,0.24832 -4.391891,0.0932 -0.738031,-0.18862 -0.569183,0.0952 0.440352,0.73307 1.025728,0.64796 1.482439,0.70229 3.015399,0.36542 0.51615,-0.11348 0.94893,-0.20671 0.96237,-0.20782 0.0137,-9.9e-4 0.0703,0.0965 0.1254,0.21491 0.34395,0.73394 -4.559231,3.35585 -7.255623,3.8803 -0.455182,0.0889 -0.828213,0.20878 -0.828213,0.26746 0,0.1045 1.399133,0.15703 2.889994,0.10764 1.11373,-0.0372 2.446959,-0.4956 4.275212,-1.46855 0.89146,-0.47441 1.81258,-0.94391 2.04721,-1.04587 0.23457,-0.10154 0.5115,-0.28109 0.61534,-0.39641 0.1324,-0.14704 0.45888,-0.20215 1.09067,-0.18387 0.49514,0.0146 0.96551,0.0612 1.0469,0.10229 0.0812,0.0411 0.1487,0.31424 0.1487,0.60893 0,0.46258 -0.0536,0.53748 -0.38491,0.53727 -1.06517,-5.5e-4 -3.36827,0.22412 -3.36827,0.3295 0,0.0662 0.42109,0.28989 0.9361,0.49673 0.88982,0.3573 0.98377,0.3697 1.92767,0.21006 0.54637,-0.0926 1.54491,-0.16952 2.21636,-0.16952 1.11237,0 1.27251,0.0371 1.80221,0.41788 0.55962,0.40237 0.57557,0.44206 0.43452,1.06019 -0.14601,0.63995 -0.50785,1.75597 -0.60366,1.86016 -0.0277,0.0306 -0.154,-0.0149 -0.27997,-0.1 -0.32476,-0.22068 -1.00862,-0.24827 -2.73544,-0.1099 -0.85736,0.069 -1.56675,0.067 -1.64477,-0.002 -0.0755,-0.0678 -0.18604,-0.35478 -0.24781,-0.63994 l -0.11377,-0.5182 0.53656,0.15284 c 0.62537,0.17848 2.87508,0.0768 3.70073,-0.16714 0.40492,-0.11969 0.55406,-0.24981 0.55406,-0.48237 0,-0.64105 -0.34704,-0.70484 -2.59541,-0.47519 -1.73385,0.17714 -2.08786,0.17955 -2.24847,0.0191 -0.55626,-0.556 -0.92182,-0.73791 -1.76431,-0.88111 -0.50996,-0.0868 -0.96718,-0.12264 -1.01773,-0.0809 -0.051,0.0413 0.18661,0.34216 0.52781,0.6686 0.57327,0.54842 1.02923,1.49573 1.36773,2.84155 0.0579,0.23048 0.13693,0.51513 0.17497,0.63038 0.038,0.1153 0.0746,0.25518 0.0814,0.31281 0.0312,0.24756 0.48795,0.0754 0.67076,-0.25313 0.1635,-0.29384 0.26661,-0.3369 0.58028,-0.24352 0.46616,0.1387 2.70366,0.14876 3.58408,0.0168 0.58843,-0.0887 0.6631,-0.0613 0.9011,0.3152 0.14259,0.22577 0.36271,0.41072 0.48993,0.41072 0.3982,0 1.27714,-0.85822 1.56311,-1.52585 0.15064,-0.35173 0.34175,-0.74728 0.42577,-0.87874 0.0835,-0.13145 0.24429,-0.69353 0.35581,-1.24645 l 0.20413,-1.0029 -0.4987,-0.32714 c -0.27423,-0.1797 -0.58501,-0.32857 -1.12275,-0.48953 -0.53772,-0.16098 -1.18156,-0.30332 -1.69141,-0.36295 -0.89765,-0.10513 -0.92929,-0.12336 -0.98276,-0.58028 -0.0511,-0.43342 -0.0227,-0.46384 0.34116,-0.38443 0.21807,0.0476 1.31775,0.21809 2.44386,0.37969 1.12609,0.16159 2.58592,0.39112 3.24285,0.50861 1.92507,0.34433 2.72664,0.37257 3.04745,0.10991 0.15361,-0.12582 0.27997,-0.27813 0.27997,-0.3391 0,-0.21474 -0.71763,-0.85559 -1.1665,-1.0411 -0.43056,-0.17797 -4.34368,-0.48619 -6.93775,-0.54682 l -1.19562,-0.0282 -0.05,-0.7832 -0.0528,-0.78324 0.80196,-0.0887 c 0.43967,-0.0497 1.66438,-0.091 2.72377,-0.091 1.52252,0 1.98426,-0.0458 2.19593,-0.21969 0.38031,-0.31139 0.0653,-0.72483 -0.62992,-0.82858 -1.20462,-0.1796 -3.02828,-0.11003 -4.10605,0.1576 -0.21547,0.0536 -0.48128,-0.0861 -0.87196,-0.45607 -0.54497,-0.51626 -0.60107,-0.53253 -1.82266,-0.57548 -0.1869,-0.006 -0.36539,-0.008 -0.53073,-0.006 z m 0.0814,2.50491 c 0.12097,0.0168 0.13129,0.15309 0.0962,0.54682 -0.03,0.33083 -0.13073,0.61446 -0.22458,0.63035 -0.58002,0.0978 -1.96264,-0.34069 -1.96264,-0.62327 0,-0.0517 0.36499,-0.17797 0.81071,-0.27936 0.4458,-0.10102 0.94964,-0.21535 1.11988,-0.25546 0.0675,-0.0162 0.12008,-0.0244 0.16037,-0.0191 z" /></g></svg>
