<?xml version="1.0" encoding="UTF-8" standalone="no"?>
<!-- Created with Inkscape (http://www.inkscape.org/) -->

<svg
   viewBox="0 0 38.549999 41.919998"
   version="1.1"
   id="svg1"
   inkscape:version="1.3.2 (091e20e, 2023-11-25, custom)"
   sodipodi:docname="Kei.svg"
   xml:space="preserve"
   xmlns:inkscape="http://www.inkscape.org/namespaces/inkscape"
   xmlns:sodipodi="http://sodipodi.sourceforge.net/DTD/sodipodi-0.dtd"
   xmlns="http://www.w3.org/2000/svg"
   xmlns:svg="http://www.w3.org/2000/svg"><sodipodi:namedview
     id="namedview1"
     pagecolor="#ffffff"
     bordercolor="#111111"
     borderopacity="1"
     inkscape:showpageshadow="0"
     inkscape:pageopacity="0"
     inkscape:pagecheckerboard="1"
     inkscape:deskcolor="#d1d1d1"
     inkscape:document-units="mm"
     showguides="true"
     inkscape:zoom="13.096375"
     inkscape:cx="19.280145"
     inkscape:cy="20.959999"
     inkscape:window-width="1292"
     inkscape:window-height="745"
     inkscape:window-x="-8"
     inkscape:window-y="-8"
     inkscape:window-maximized="1"
     inkscape:current-layer="layer1"><inkscape:page
       x="0"
       y="0"
       width="38.549999"
       height="41.919998"
       id="page42"
       margin="0"
       bleed="0" /></sodipodi:namedview><defs
     id="defs1"><inkscape:path-effect
       effect="powerstroke"
       id="path-effect13"
       is_visible="true"
       lpeversion="1.3"
       scale_width="1"
       interpolator_type="CubicBezierJohan"
       interpolator_beta="0.2"
       start_linecap_type="zerowidth"
       end_linecap_type="zerowidth"
       offset_points="5,4.9921382"
       linejoin_type="extrp_arc"
       miter_limit="4"
       not_jump="false"
       sort_points="true"
       message="&lt;b&gt;Ctrl + click&lt;/b&gt; on existing node and move it" /></defs><g
     inkscape:label="Layer 1"
     inkscape:groupmode="layer"
     id="layer1"
     transform="matrix(0.88850158,0,0,1,-74.017663,-166.14)"><path
       style="fill:#fff29e;fill-opacity:1;fill-rule:evenodd;stroke:none;stroke-width:0.367234;stroke-linecap:round;stroke-linejoin:round;paint-order:stroke fill markers"
       d="m 105,171 9.78527,2.88135 L 119.35,200 H 90.649994 l 4.56473,-26.11865 z"
       id="path13" /><path
       style="display:inline;fill:#938e5e;fill-opacity:1;fill-rule:evenodd;stroke:none;stroke-width:0.386001;stroke-linecap:round;stroke-linejoin:round;stroke-dasharray:none;stroke-opacity:1;paint-order:stroke fill markers"
       d="m 90.649998,200 -3e-6,3.2 H 119.35 V 200 Z"
       id="path45" /><path
       id="path2"
       style="fill:#000000;stroke-width:0.596817"
       inkscape:label="path1"
       d="m 108.76922,178.24924 c -0.25528,-7e-5 -0.56109,0.007 -0.93386,0.019 -0.79889,0.0245 -0.96319,0.0744 -0.96319,0.29396 0,0.14554 0.14641,0.3758 0.32551,0.51207 0.58389,0.4442 1.08414,2.54942 0.7204,3.03445 -0.17873,0.23831 -1.76835,0.389 -2.28127,0.21572 -0.37567,-0.1269 -0.44025,-0.10824 -0.44025,0.13039 0,0.3759 0.89355,1.20193 1.2994,1.20193 0.17963,0 0.56998,-0.0764 0.86715,-0.16833 0.60055,-0.18601 0.77367,-0.0955 0.93385,0.48125 0.10366,0.37261 0.0658,0.39505 -1.03524,0.62823 -0.6284,0.13309 -1.4995,0.25949 -1.93708,0.28211 -0.83759,0.0435 -0.98944,0.22087 -0.53364,0.62584 0.52206,0.46386 1.42834,0.46327 3.38056,-0.007 0.34058,-0.0821 0.37621,-0.0392 0.37621,0.45043 0,0.45322 -0.0764,0.56773 -0.46159,0.70171 -0.25339,0.0882 -0.85586,0.17041 -1.33942,0.18254 -1.00232,0.0252 -1.11289,0.21044 -0.4189,0.69698 0.36972,0.25923 0.60176,0.30593 1.17132,0.23706 0.64488,-0.0779 0.71761,-0.0536 0.80845,0.2679 0.0551,0.19459 0.0759,0.51157 0.0454,0.70408 -0.0506,0.31816 -0.18664,0.36602 -1.48082,0.53815 -1.82592,0.24284 -2.36003,0.26693 -2.72152,0.12089 -0.5851,-0.23639 -0.32429,0.52714 0.38421,1.12607 0.76928,0.65019 1.08004,0.69481 1.99578,0.27974 1.40448,-0.63663 4.93717,-1.15792 7.32142,-1.08103 1.00846,0.0324 1.74029,-0.006 1.80101,-0.0925 0.16838,-0.24209 -0.23169,-0.84931 -0.73641,-1.11422 -0.5858,-0.30745 -2.25077,-0.3246 -3.46328,-0.0379 -1.01052,0.23907 -1.23002,0.12902 -1.23002,-0.61162 0,-0.45132 0.044,-0.49112 0.54431,-0.50732 0.29945,-0.01 0.60487,-0.01 0.67771,0.002 0.30228,0.0449 0.78711,-0.31385 0.78711,-0.58082 0,-0.35643 -0.47742,-0.59503 -1.19,-0.59503 -0.56376,0 -1.15531,-0.35021 -1.15531,-0.68512 0,-0.21872 0.55067,-0.31695 2.30261,-0.40539 1.31172,-0.0663 1.7183,-0.24698 1.7183,-0.76809 0,-0.48977 -1.25961,-0.79166 -2.28661,-0.54762 -1.26677,0.30105 -1.42575,0.25637 -1.3661,-0.38405 0.0285,-0.307 0.12667,-0.56265 0.2188,-0.56658 0.44445,-0.0202 2.0718,-0.53173 2.23057,-0.70172 0.3737,-0.40006 -0.0675,-0.63258 -1.13663,-0.59741 -1.15197,0.0377 -1.06031,0.18869 -1.0139,-1.67606 0.0281,-1.1266 0.007,-1.20761 -0.37622,-1.38921 -0.32864,-0.15628 -0.64292,-0.21551 -1.40878,-0.21572 z m -5.41902,0.81077 c -0.29154,-0.0131 -0.70598,0.0449 -1.42479,0.16595 -1.09146,0.18393 -1.36641,0.37352 -0.74975,0.5168 0.61874,0.14377 1.01424,0.96683 1.12329,2.33983 l 0.10138,1.27305 -0.75508,0.29633 c -1.735443,0.68207 -4.059992,0.93132 -5.032146,0.53814 -0.504108,-0.20389 -0.33133,0.17995 0.330852,0.73491 0.919699,0.77077 1.974381,0.99096 3.305844,0.43383 1.33149,-0.55716 1.90618,-0.65423 1.98244,-0.45754 0.11324,0.29193 -0.19166,1.01919 -0.58966,1.4058 -0.78693,0.76445 -3.133616,2.16122 -5.197569,3.09372 -1.174887,0.53081 -2.137193,1.02822 -2.137193,1.1071 0,0.26172 1.332135,0.15041 2.476048,-0.20863 1.331306,-0.41784 2.981701,-1.20149 4.124974,-1.9558 0.51332,-0.33864 0.86179,-0.48144 0.93119,-0.38167 0.12268,0.1764 -0.0779,2.15513 -0.24281,2.39199 -0.16547,0.2379 -0.56048,0.17601 -1.46482,-0.22758 -0.463793,-0.20697 -0.887593,-0.33744 -0.939193,-0.29159 -0.0516,0.0458 0.61742,0.71606 1.486173,1.49116 1.52806,1.36336 1.83779,1.57616 2.12918,1.34416 0.29141,-0.23197 0.52275,-1.38773 0.53364,-3.18144 0.006,-0.84517 0.0496,-1.59704 0.10139,-1.67131 0.0516,-0.0744 0.50056,0.0684 0.99788,0.31767 0.75058,0.37637 0.96431,0.42353 1.25671,0.28448 0.59969,-0.28516 0.15994,-1.04507 -0.96321,-1.66184 -0.41887,-0.22998 -0.54624,-0.3894 -0.48293,-0.60451 0.11324,-0.38489 -0.0371,-0.7112 -0.32818,-0.7112 -0.0335,0 -0.89068,-0.54605 0.17609,-1.52197 0.69551,-0.63631 0.71678,-0.74586 0.23746,-1.14265 -0.34896,-0.28884 -0.35085,-0.33038 -0.1334,-1.73769 0.22202,-1.43675 0.2198,-1.44159 -0.16543,-1.71873 -0.22772,-0.16385 -0.39683,-0.24764 -0.68838,-0.26077 z" /></g></svg>
