<?xml version="1.0" encoding="UTF-8" standalone="no"?>
<!-- Created with Inkscape (http://www.inkscape.org/) -->

<svg
   viewBox="0 0 38.549999 41.919998"
   version="1.1"
   id="svg1"
   inkscape:version="1.3.2 (091e20e, 2023-11-25, custom)"
   sodipodi:docname="Fu.svg"
   xml:space="preserve"
   xmlns:inkscape="http://www.inkscape.org/namespaces/inkscape"
   xmlns:sodipodi="http://sodipodi.sourceforge.net/DTD/sodipodi-0.dtd"
   xmlns="http://www.w3.org/2000/svg"
   xmlns:svg="http://www.w3.org/2000/svg"><sodipodi:namedview
     id="namedview1"
     pagecolor="#ffffff"
     bordercolor="#111111"
     borderopacity="1"
     inkscape:showpageshadow="0"
     inkscape:pageopacity="0"
     inkscape:pagecheckerboard="1"
     inkscape:deskcolor="#d1d1d1"
     inkscape:document-units="mm"
     showguides="true"
     inkscape:zoom="13.096375"
     inkscape:cx="19.280145"
     inkscape:cy="20.959999"
     inkscape:window-width="1292"
     inkscape:window-height="745"
     inkscape:window-x="-8"
     inkscape:window-y="-8"
     inkscape:window-maximized="1"
     inkscape:current-layer="layer1"><inkscape:page
       x="0"
       y="0"
       width="38.549999"
       height="41.919998"
       id="page42"
       margin="0"
       bleed="0" /></sodipodi:namedview><defs
     id="defs1"><inkscape:path-effect
       effect="powerstroke"
       id="path-effect13"
       is_visible="true"
       lpeversion="1.3"
       scale_width="1"
       interpolator_type="CubicBezierJohan"
       interpolator_beta="0.2"
       start_linecap_type="zerowidth"
       end_linecap_type="zerowidth"
       offset_points="5,4.9921382"
       linejoin_type="extrp_arc"
       miter_limit="4"
       not_jump="false"
       sort_points="true"
       message="&lt;b&gt;Ctrl + click&lt;/b&gt; on existing node and move it" /></defs><g
     inkscape:label="Layer 1"
     inkscape:groupmode="layer"
     id="layer1"
     transform="matrix(0.78397198,0,0,1,-63.042056,-167.14)"><path
       style="fill:#fff29e;fill-opacity:1;fill-rule:evenodd;stroke:none;stroke-width:0.354345;stroke-linecap:round;stroke-linejoin:round;paint-order:stroke fill markers"
       d="m 105,173 9.78527,2.68264 L 119.35,200 H 90.649995 l 4.56473,-24.31736 z"
       id="path13" /><path
       style="display:inline;fill:#938e5e;fill-opacity:1;fill-rule:evenodd;stroke:none;stroke-width:0.386001;stroke-linecap:round;stroke-linejoin:round;stroke-dasharray:none;stroke-opacity:1;paint-order:stroke fill markers"
       d="m 90.649998,200 -3e-6,3.2 H 119.35 V 200 Z"
       id="path45" /><path
       id="path1"
       style="display:inline;fill:#000000;stroke-width:0.669505"
       d="m 106.12153,177.46099 v 0.002 c -0.10573,-0.006 -0.22388,-0.003 -0.35578,0.01 -0.35176,0.0352 -0.79882,0.13735 -1.35763,0.29605 -0.70922,0.20144 -1.329,0.39597 -1.37634,0.43307 -0.0473,0.0371 0.1881,0.24761 0.5212,0.46734 0.74971,0.49455 1.00755,1.31677 1.0861,3.44745 l 0.0593,1.55858 -0.60235,0.115 c -0.33011,0.063 -0.78893,0.16127 -1.02055,0.21776 -0.39569,0.0965 -0.43009,0.0285 -0.56178,-1.11082 -0.2363,-2.04437 -0.26559,-2.10665 -1.05175,-2.10665 -0.37684,0 -0.9591,0.11213 -1.29208,0.24713 l -0.605459,0.24467 0.502469,0.36456 c 0.6235,0.45302 0.98105,1.36122 0.89571,2.27547 -0.0729,0.78137 0.23146,0.63743 -3.536043,1.66378 -1.340176,0.3651 -1.501483,0.38002 -1.816398,0.15659 -0.421877,-0.29927 -0.814569,-0.31849 -0.814569,-0.0391 0,0.30538 1.241507,1.51944 1.554236,1.51944 0.148002,0 1.013197,-0.28377 1.922515,-0.62883 1.71168,-0.64952 2.125369,-0.74044 2.125369,-0.46732 0,0.0881 -0.36802,0.77605 -0.814579,1.52677 -0.66753,1.12221 -0.77288,1.4266 -0.60234,1.72005 0.11413,0.19632 0.34834,0.35723 0.5212,0.35723 0.561889,0 1.711359,-1.0378 2.009899,-1.81548 0.39425,-1.02699 0.36124,-1.27537 -0.22783,-1.73719 -0.28177,-0.22089 -0.48361,-0.4129 -0.44942,-0.42818 0.62368,-0.27875 3.08114,-1.03742 3.36127,-1.03742 0.10134,0 0.41302,0.30586 0.69286,0.6802 0.36855,0.49304 0.51775,0.92627 0.53679,1.57326 0.0144,0.49122 -0.0119,0.92494 -0.0593,0.96157 -0.0467,0.0367 -0.53127,-0.10621 -1.07673,-0.31564 -1.479,-0.56784 -1.52014,-0.47043 -0.1935,0.47467 0.4878,0.40476 1.24171,0.77866 1.78519,0.98848 -0.0862,0.0677 -0.35438,0.27488 -0.62732,0.4918 -1.50648,1.19731 -0.72086,0.56733 -2.24708,1.70293 -1.66687,1.24024 -2.98071,2.07663 -3.071029,1.95251 -0.0472,-0.0649 -0.14936,-0.4012 -0.2247,-0.74627 -0.19838,-0.90858 -0.31703,-1.17688 -0.52745,-1.17688 -0.1026,0 -0.18725,0.26562 -0.18725,0.58966 0,0.32406 -0.0964,0.83639 -0.21222,1.13775 -0.31376,0.81667 -0.55516,2.07851 -0.44318,2.30727 0.30492,0.62294 1.14036,0.0893 8.248689,-5.26539 2.64588,-1.99312 2.5822,-1.98563 3.83565,-0.41838 0.85431,1.06821 1.38341,1.30592 1.99117,0.89794 0.46111,-0.30951 0.48671,-0.67651 0.0905,-1.2772 -0.30893,-0.46836 -1.70935,-1.42155 -2.08791,-1.42155 -0.50569,0 -0.14125,-0.47009 1.17972,-1.52432 1.4001,-1.11742 1.55267,-1.33729 1.21405,-1.75677 -0.15443,-0.19129 -0.38329,-0.1941 -1.57921,-0.0171 -0.769,0.11388 -1.75117,0.16204 -2.18466,0.10766 -0.43349,-0.0544 -0.84074,-0.0573 -0.90509,-0.007 -0.20663,0.16201 0.0878,0.53052 0.42757,0.53585 0.18079,0.004 0.49741,0.10665 0.70534,0.22998 0.34867,0.20696 0.35402,0.2514 0.0655,0.58232 -0.17203,0.19735 -0.7749,0.74648 -1.3389,1.22093 l -1.02367,0.86371 0.0593,-1.56837 0.0593,-1.56836 -0.8489,-0.14681 c -0.46763,-0.0813 -0.85202,-0.1916 -0.85202,-0.24467 0,-0.13526 2.49879,-0.61465 3.70146,-0.70956 0.55017,-0.0433 2.06785,-0.11302 3.37375,-0.15659 1.30588,-0.0436 2.45591,-0.11937 2.55294,-0.16638 0.34157,-0.16548 0.16887,-0.68836 -0.30584,-0.9322 -1.04283,-0.5357 -3.45458,-0.41293 -6.68198,0.34009 -0.58385,0.13617 -1.08885,0.22198 -1.12355,0.19085 -0.0347,-0.0311 -0.10813,-0.43594 -0.16228,-0.89796 l -0.0999,-0.83923 0.7428,0.093 c 0.42044,0.0527 1.24917,-0.009 1.91626,-0.14681 1.85624,-0.37904 2.43921,-0.98611 1.25775,-1.309 -0.87377,-0.2388 -1.10511,-0.21822 -2.46556,0.2202 -0.76243,0.24571 -1.26324,0.33089 -1.38571,0.23489 -0.12239,-0.096 -0.1111,-0.56074 0.0312,-1.2821 0.2312,-1.17094 0.11268,-1.69306 -0.62731,-1.73473 z" /></g></svg>
