<?xml version="1.0" encoding="UTF-8" standalone="no"?>
<!-- Created with Inkscape (http://www.inkscape.org/) -->

<svg
   viewBox="0 0 38.549999 41.919998"
   version="1.1"
   id="svg1"
   inkscape:version="1.3.2 (091e20e, 2023-11-25, custom)"
   sodipodi:docname="Gin.svg"
   xml:space="preserve"
   xmlns:inkscape="http://www.inkscape.org/namespaces/inkscape"
   xmlns:sodipodi="http://sodipodi.sourceforge.net/DTD/sodipodi-0.dtd"
   xmlns="http://www.w3.org/2000/svg"
   xmlns:svg="http://www.w3.org/2000/svg"><sodipodi:namedview
     id="namedview1"
     pagecolor="#ffffff"
     bordercolor="#111111"
     borderopacity="1"
     inkscape:showpageshadow="0"
     inkscape:pageopacity="0"
     inkscape:pagecheckerboard="1"
     inkscape:deskcolor="#d1d1d1"
     inkscape:document-units="mm"
     showguides="true"
     inkscape:zoom="13.096375"
     inkscape:cx="19.280145"
     inkscape:cy="20.959999"
     inkscape:window-width="1292"
     inkscape:window-height="745"
     inkscape:window-x="-8"
     inkscape:window-y="-8"
     inkscape:window-maximized="1"
     inkscape:current-layer="layer1"><inkscape:page
       x="0"
       y="0"
       width="38.549999"
       height="41.919998"
       id="page42"
       margin="0"
       bleed="0" /></sodipodi:namedview><defs
     id="defs1"><inkscape:path-effect
       effect="powerstroke"
       id="path-effect13"
       is_visible="true"
       lpeversion="1.3"
       scale_width="1"
       interpolator_type="CubicBezierJohan"
       interpolator_beta="0.2"
       start_linecap_type="zerowidth"
       end_linecap_type="zerowidth"
       offset_points="5,4.9921382"
       linejoin_type="extrp_arc"
       miter_limit="4"
       not_jump="false"
       sort_points="true"
       message="&lt;b&gt;Ctrl + click&lt;/b&gt; on existing node and move it" /></defs><g
     inkscape:label="Layer 1"
     inkscape:groupmode="layer"
     id="layer1"
     transform="translate(-84.724993,-165.64)"><path
       style="fill:#fff29e;fill-opacity:1;fill-rule:evenodd;stroke:none;stroke-width:0.360263;stroke-linecap:round;stroke-linejoin:round;paint-order:stroke fill markers"
       d="m 104,170 9.06496,2.94538 L 117.34999,200 H 90.649996 l 4.285031,-27.05461 z"
       id="path13"
       sodipodi:nodetypes="cccccc" /><path
       style="display:inline;fill:#938e5e;fill-opacity:1;fill-rule:evenodd;stroke:none;stroke-width:0.372309;stroke-linecap:round;stroke-linejoin:round;stroke-dasharray:none;stroke-opacity:1;paint-order:stroke fill markers"
       d="m 90.649998,200 -3e-6,3.2 H 117.34999 V 200 Z"
       id="path45" /><path
       id="path1"
       style="fill:#000000;stroke-width:0.504126"
       d="m 101.35103,177.74501 c -0.84494,0.0212 -0.93365,0.0748 -0.64149,0.39763 0.25769,0.28473 0.13111,0.91707 -0.34711,1.73334 -0.30117,0.51404 -2.056336,2.90142 -2.381419,3.23821 -0.102222,0.10584 -0.324202,0.37087 -0.494299,0.59096 -0.512049,0.66253 -1.745895,1.63442 -2.642849,2.08044 -0.464489,0.23099 -0.843602,0.46499 -0.843602,0.52067 0,0.20797 0.808729,0.25266 1.392823,0.0769 0.898996,-0.27055 1.78657,-0.83536 2.579138,-1.63668 l 0.707396,-0.71399 0.841409,0.0879 c 0.735303,0.0754 0.869773,0.13307 1.061093,0.45695 0.12052,0.20399 0.21969,0.42244 0.21969,0.48551 0,0.14695 -0.64553,0.42153 -2.427559,1.03473 -1.218066,0.41913 -1.499274,0.47381 -1.902498,0.36248 -0.259992,-0.0718 -0.471142,-0.0909 -0.470133,-0.0417 0.0093,0.40747 1.508305,1.22264 2.080446,1.13139 0.349707,-0.0558 0.428141,-0.0175 0.498693,0.24604 0.04603,0.17188 0.08467,0.45084 0.08568,0.61953 0.001,0.16871 0.100133,0.49378 0.219687,0.72497 0.716181,1.38495 1.505384,0.87754 1.467514,-0.94466 -0.0193,-0.92951 -0.26442,-1.25886 -0.417403,-0.56241 -0.12625,0.57481 -0.26718,0.60722 -0.79967,0.18235 -0.762654,-0.52172 -0.05321,-0.79225 0.63271,-1.09404 0.385123,-0.16456 0.808323,-0.35779 0.942463,-0.4306 0.40806,-0.22149 0.59432,0.0874 0.69421,1.15336 0.10922,1.16569 3.1e-4,1.92982 -0.23507,2.00796 -0.50277,0.16697 -1.13526,0.74659 -1.933253,1.0501 -0.719664,0.27373 -1.702898,0.42388 -1.84538,0.19333 -0.04109,-0.0665 -0.130887,-0.12082 -0.199916,-0.12082 -0.252603,0 -0.113752,0.36008 0.300973,0.78427 0.43331,0.4432 1.173914,0.90137 1.304947,0.89634 0.131032,-0.005 0.242439,-0.005 0.452556,-0.12083 1.084933,-1.02132 2.421383,-1.64404 3.655613,-2.44513 0.24049,-0.16162 0.70925,-0.42583 1.04132,-0.58658 0.54633,-0.26446 0.5992,-0.3313 0.5624,-0.70959 -0.0986,-1.01454 -1.7469,0.0483 -1.98598,0.0483 -0.0674,0 -0.12083,-0.17975 -0.12083,-0.39984 0,-0.32517 0.0549,-0.40169 0.29878,-0.40422 0.40049,-0.005 1.43546,-0.48008 1.73114,-0.79746 0.13034,-0.13991 0.23726,-0.39635 0.23726,-0.56899 0,-0.31719 -0.3736,-0.81921 -0.69421,-0.93368 -0.11747,-0.042 -0.054,-0.15727 0.19333,-0.35589 0.41142,-0.33039 0.46031,-0.56465 0.16916,-0.80626 -0.15587,-0.1295 -0.34509,-0.13011 -0.90072,0 -0.3867,0.0907 -0.76329,0.21497 -0.83921,0.27461 -0.16763,0.13169 -1.03128,-0.51193 -0.9227,-0.68762 0.0417,-0.0675 0.24728,-0.12304 0.45695,-0.12304 0.50136,0 1.58718,-0.4709 1.68721,-0.73156 0.11321,-0.29504 -0.19159,-0.60363 -0.59975,-0.60414 -0.19275,-2.9e-4 -0.80087,0.15299 -1.35107,0.34053 -1.86522,0.6357 -2.111633,0.70691 -2.060683,0.44596 0.0982,-0.50281 2.003473,-2.52237 2.082653,-3.06465 0.0414,-0.28345 0.0909,-0.26452 0.83261,0.34052 0.8257,0.67355 1.36546,1.00244 1.64546,1.00396 0.0914,3e-4 0.24773,-0.19436 0.34711,-0.43278 l 0.18014,-0.43278 0.16696,0.78648 c 0.0953,0.44942 0.13266,1.13607 0.0879,1.60153 -0.043,0.44787 -0.11506,1.62392 -0.16038,2.61429 -0.12487,2.72998 0.41037,6.06518 1.03474,6.45004 0.29853,0.18403 1.04863,-0.47749 1.92226,-1.6938 1.12084,-1.5604 1.14546,-1.61155 0.98641,-2.02991 l -0.14061,-0.37127 c -0.49976,0.63663 -1.15454,1.09718 -1.7575,1.61031 -0.24317,0.22009 -0.26548,0.22102 -0.43059,-0.004 -0.0956,-0.13072 -0.2203,-0.52042 -0.27681,-0.86558 -0.0565,-0.34515 -0.11418,-0.68675 -0.12961,-0.76012 -0.14711,-0.69935 -0.19659,-1.78642 -0.0835,-1.85636 0.21149,-0.13071 1.0792,0.36813 3.84234,2.20786 1.40461,0.93521 2.76537,1.78959 3.02512,1.89811 0.92847,0.38795 1.25839,-0.0267 0.83261,-1.04572 -0.261,-0.62465 -1.23223,-1.23591 -3.41175,-2.14855 -0.99037,-0.41469 -1.84939,-0.7998 -1.9091,-0.85458 -0.0597,-0.0548 0.1807,-0.194 0.53385,-0.30976 1.46936,-0.48164 2.4292,-1.0342 3.28433,-1.88932 0.49525,-0.49525 0.61474,-0.69561 0.54702,-0.91829 -0.17621,-0.57953 -0.70475,-0.95722 -1.68939,-1.2017 l -0.36908,-0.0901 0.0857,0.71838 0.0835,0.72058 -0.65686,0.65027 c -0.6406,0.63454 -0.77711,0.75406 -1.89151,1.63668 l -0.54043,0.42619 -0.83921,-0.24604 c -0.7246,-0.21272 -0.84596,-0.29289 -0.88096,-0.58877 -0.0494,-0.41739 0.13419,-0.48282 1.66964,-0.59976 1.07298,-0.0816 1.09851,-0.0927 1.30055,-0.51845 0.38468,-1.14136 0.89681,-2.22318 1.28078,-3.36343 0.37411,-1.13019 0.31127,-1.3372 -0.4877,-1.60592 -0.44164,-0.14853 -0.72017,-0.14313 -1.84318,0.0439 -0.72801,0.1213 -1.46785,0.27601 -1.64327,0.34271 -0.17545,0.0667 -0.5111,0.12202 -0.74474,0.12303 -0.23365,8.9e-4 -0.50239,0.0516 -0.59756,0.11203 -0.21455,0.13609 -0.0754,0.2623 0.74254,0.67445 0.45096,0.22723 0.62454,0.25667 0.84141,0.1406 0.37546,-0.20093 0.77319,-0.29615 1.32472,-0.31415 l 0.46574,-0.0154 v 0.73377 c 0,0.47382 -0.054,0.72334 -0.15158,0.70519 -0.38978,-0.0726 -1.08926,-0.0579 -1.4829,0.0308 -0.40036,0.0902 -0.44642,0.0671 -0.57778,-0.30976 -0.16362,-0.46937 -0.94656,-1.12336 -1.28956,-1.07647 -0.12745,0.0173 -0.50251,-0.0938 -0.83263,-0.24606 -0.33012,-0.15233 -0.76487,-0.34044 -0.96662,-0.41959 -0.38122,-0.14957 -0.48461,-0.51497 -0.21969,-0.77989 0.36961,-0.36961 -0.59186,-0.88865 -1.59933,-0.86338 z m 6.51595,4.6486 c 0.33758,0.002 0.33832,0.0748 0.33832,0.36029 0,0.34549 -0.079,0.4087 -0.8502,0.69861 -0.46743,0.17571 -0.90218,0.32074 -0.96661,0.32074 -0.1869,0 -0.14116,-1.20105 0.0483,-1.2676 0.0917,-0.0322 0.52646,-0.0762 0.96663,-0.0967 0.19998,-0.009 0.35101,-0.0161 0.46354,-0.0154 z m -5.03525,3.15252 c 0.0127,-0.003 0.0251,-3.9e-4 0.0395,0.007 0.0385,0.0186 0.0842,0.0685 0.1406,0.145 0.24797,0.33693 0.24131,0.74428 -0.0176,1.11381 -0.33903,0.48402 -0.48206,0.35778 -0.38886,-0.33831 0.0865,-0.64605 0.13738,-0.90868 0.22629,-0.92709 z" /></g></svg>
