<svg xmlns="http://www.w3.org/2000/svg" viewBox="0 0 60 60">
    <defs>
        <filter id="1NY_svg__a">
            <feGaussianBlur in="SourceAlpha" result="blur" stdDeviation="2"/>
            <feOffset dx="2" dy="2" result="offsetBlur"/>
            <feBlend in="SourceGraphic" in2="offsetBlur"/>
        </filter>
    </defs>
    <g filter="url(#1NY_svg__a)" transform="translate(-90.59 -20.912)scale(.9389)">
        <path fill="#feec99" d="m128.456 78.635 13.41-4.26 6.836-44.558h-40.527l6.872 44.862 13.138 3.935c.094.026.193.015.271.021"/>
    </g>
    <path fill="red" stroke="red" stroke-width="4.938" d="M372.14 1666.57v-346.55h15v346.55z" transform="matrix(.07554 0 0 -.05517 1.274 111.562)"/>
    <g stroke="red" stroke-width="4.938">
        <path fill="#fdeb98" stroke-width="7.713" d="m373.444 1325.142-13.45-8.57 2.65-111.341 16.688-28.568 17.542 27.755 2.373 111.247-13.382 9.224z" transform="matrix(.0533 0 0 -.03892 9.718 89.363)"/>
        <path fill="none" stroke-width="4.516" d="M379.551 1181.017v105.099l16.535 13.127m-16.535-13.127-16.317 14.496" transform="matrix(.0533 0 0 -.03892 9.718 89.363)"/>
    </g>
    <path fill="red" d="M29.95 37.02a8.864 8.864 0 0 1-8.865-8.865 8.864 8.864 0 0 1 8.865-8.865 8.864 8.864 0 0 1 8.864 8.865 8.864 8.864 0 0 1-8.864 8.864zm0-1.933a6.93 6.93 0 0 0 6.93-6.932 6.93 6.93 0 0 0-6.93-6.93 6.93 6.93 0 0 0-6.932 6.93 6.93 6.93 0 0 0 6.932 6.932"/>
    <path fill="red" stroke="red" stroke-width="4.938" d="M372.14 1666.57v-346.55h15v346.55z" transform="matrix(.07554 0 0 .05517 1.274 -55.313)"/>
    <g stroke="red" stroke-width="4.938">
        <path fill="#fdeb98" stroke-width="7.713" d="m373.444 1325.142-13.45-8.57 2.65-111.341 16.688-28.568 17.542 27.755 2.373 111.247-13.382 9.224z" transform="matrix(.0533 0 0 .03892 9.72 -33.115)"/>
        <path fill="none" stroke-width="4.516" d="M379.551 1181.017v105.099l16.535 13.127m-16.535-13.127-16.317 14.496" transform="matrix(.0533 0 0 .03892 9.72 -33.115)"/>
    </g>
    <path fill="red" stroke="red" stroke-width="4.938" d="M372.14 1666.57v-346.55h15v346.55z" transform="rotate(135 11.942 67.867)scale(-.07553 .05515)"/>
    <path fill="red" stroke="red" stroke-width="4.938" d="M372.14 1666.57v-346.55h15v346.55z" transform="rotate(225 17.863 55.521)scale(.07553 .05515)"/>
    <path fill="red" stroke="red" stroke-width="4.938" d="M372.14 1666.57v-346.55h15v346.55z" transform="matrix(0 .07554 .05517 0 -52.905 -.52)"/>
    <g stroke="red" stroke-width="4.938">
        <path fill="#fdeb98" stroke-width="7.713" d="m373.444 1325.142-13.45-8.57 2.65-111.341 16.688-28.568 17.542 27.755 2.373 111.247-13.382 9.224z" transform="matrix(0 .0533 .03892 0 -31.316 7.923)"/>
        <path fill="none" stroke-width="4.516" d="M379.551 1181.017v105.099l16.535 13.127m-16.535-13.127-16.317 14.496" transform="matrix(0 .0533 .03892 0 -31.316 7.923)"/>
    </g>
    <path fill="red" stroke="red" stroke-width="4.938" d="M372.14 1666.57v-346.55h15v346.55z" transform="matrix(0 .07554 -.05517 0 112.845 -.52)"/>
    <g stroke="red" stroke-width="4.938">
        <path fill="#fdeb98" stroke-width="7.713" d="m373.444 1325.142-13.45-8.57 2.65-111.341 16.688-28.568 17.542 27.755 2.373 111.247-13.382 9.224z" transform="matrix(0 .0533 -.03892 0 91.316 7.923)"/>
        <path fill="none" stroke-width="4.516" d="M379.551 1181.017v105.099l16.535 13.127m-16.535-13.127-16.317 14.496" transform="matrix(0 .0533 -.03892 0 91.316 7.923)"/>
    </g>
    <g stroke="red" stroke-width="4.938">
        <path fill="#fdeb98" stroke-width="7.713" d="m373.444 1325.142-13.45-8.57 2.65-111.341 16.688-28.568 17.542 27.755 2.373 111.247-13.382 9.224z" transform="rotate(135.005 31.894 46.859)scale(.05329 .03893)"/>
        <path fill="none" stroke-width="4.516" d="M379.551 1181.017v105.099l16.535 13.127m-16.535-13.127-16.317 14.496" transform="rotate(135.005 31.894 46.859)scale(.05329 .03893)"/>
    </g>
    <g stroke="red" stroke-width="4.938">
        <path fill="#fdeb98" stroke-width="7.713" d="m373.444 1325.142-13.45-8.57 2.65-111.341 16.688-28.568 17.542 27.755 2.373 111.247-13.382 9.224z" transform="matrix(.03769 .03768 .02753 -.02753 -27.984 57.433)"/>
        <path fill="none" stroke-width="4.516" d="M379.551 1181.017v105.099l16.535 13.127m-16.535-13.127-16.317 14.496" transform="matrix(.03769 .03768 .02753 -.02753 -27.984 57.433)"/>
    </g>
</svg>
