<svg xmlns="http://www.w3.org/2000/svg" width="60" height="60">
    <defs>
        <filter id="1OU_svg__a">
            <feGaussianBlur in="SourceAlpha" result="blur" stdDeviation="2"/>
            <feOffset dx="2" dy="2" result="offsetBlur"/>
            <feBlend in="SourceGraphic" in2="offsetBlur"/>
        </filter>
    </defs>
    <g fill="#fecb00" filter="url(#1OU_svg__a)" transform="translate(-102.587 -25.906)scale(1.03094)">
        <path fill="#fdeb98" d="m128.456 78.636 13.408-4.26 6.837-44.558h-40.19l6.535 44.862 13.138 3.935a.9.9 0 0 0 .271.021z"/>
    </g>
    <path d="M40.785 41.889a.764.687 0 0 0 .733-.88l-.966-2.981a.764.687 0 0 0-.733-.496h-7.482v-7.03h5.476a.764.687 0 0 0 .724-.466l.966-2.576a.764.687 0 0 0-.725-.908h-6.441v-8.113H43.07a.764.687 0 0 0 .733-.496l.968-2.982a.764.687 0 0 0-.733-.878H15.962a.764.687 0 0 0-.733.878l.966 2.982a.764.687 0 0 0 .733.496h10.864v8.113h-6.259a.764.687 0 0 0-.722.908l.966 2.576a.764.687 0 0 0 .724.467h5.291v7.03h-7.527a.764.687 0 0 0-.733.495l-.966 2.982a.764.687 0 0 0 .733.879zm-1.018-1.375h-19.45l.521-1.607h7.72a.764.687 0 0 0 .762-.686v-8.404a.764.687 0 0 0-.763-.689h-5.508l-.45-1.201h5.958a.764.687 0 0 0 .763-.686v-9.49a.764.687 0 0 0-.763-.686H17.501l-.521-1.608h26.038l-.521 1.608H31.574a.764.687 0 0 0-.765.686v9.49a.764.687 0 0 0 .765.686h6.141l-.452 1.201h-5.69a.764.687 0 0 0-.765.689v8.404a.764.687 0 0 0 .765.686h7.672z" enable-background="accumulate" opacity=".99" overflow="visible"/>
</svg>
