<svg xmlns="http://www.w3.org/2000/svg" viewBox="0 0 60 60">
    <defs>
        <filter id="1KY_svg__a">
            <feGaussianBlur in="SourceAlpha" result="blur" stdDeviation="2"/>
            <feOffset dx="2" dy="2" result="offsetBlur"/>
            <feBlend in="SourceGraphic" in2="offsetBlur"/>
        </filter>
    </defs>
    <g filter="url(#1KY_svg__a)" transform="translate(-90.59 -20.912)scale(.9389)">
        <path fill="#feec99" d="m128.456 78.635 13.41-4.26 6.836-44.558h-40.527l6.872 44.862 13.138 3.935c.094.026.193.015.271.021"/>
    </g>
    <g stroke="#000" stroke-width="4.938">
        <path stroke-width=".5" d="M30.733 9.071v26.873h-1.519V9.07z"/>
        <path fill="#fdeb98" stroke-width=".88" d="m30.6 35.425 1.363.868-.269 11.272-1.69 2.892-1.775-2.81-.24-11.262 1.354-.934z"/>
        <path fill="none" stroke-width=".457" d="M29.983 50.016v-10.64l-1.674-1.329m1.674 1.329 1.652-1.467"/>
    </g>
    <path stroke="#000" stroke-width=".499" d="M38.308 19.017H21.64V17.5h16.67z"/>
    <path d="M29.974 27.863a9.605 9.605 0 0 0 9.605-9.605 9.605 9.605 0 0 0-9.605-9.605 9.605 9.605 0 0 0-9.605 9.605 9.605 9.605 0 0 0 9.605 9.605m0-2.094a7.51 7.51 0 0 1-7.51-7.51 7.51 7.51 0 0 1 7.51-7.51 7.51 7.51 0 0 1 7.51 7.51 7.51 7.51 0 0 1-7.51 7.51"/>
    <path stroke="#000" stroke-width=".499" d="M36.404 12.902 24.617 24.688l-1.073-1.073L35.33 11.828z"/>
    <path stroke="#000" stroke-width=".499" d="M35.33 24.688 23.544 12.902l1.073-1.074 11.787 11.787z"/>
</svg>
