<svg xmlns="http://www.w3.org/2000/svg" width="60" height="60">
    <defs>
        <filter id="1GI_svg__a">
            <feGaussianBlur in="SourceAlpha" result="blur" stdDeviation="2"/>
            <feOffset dx="2" dy="2" result="offsetBlur"/>
            <feBlend in="SourceGraphic" in2="offsetBlur"/>
        </filter>
    </defs>
    <g fill="#ececec" filter="url(#1GI_svg__a)">
        <path fill="#fdeb98" d="m29.853 53.657 12.995-4.129 6.627-43.187H10.521l6.334 43.482c3.986 1.752 8.965 2.87 12.734 3.814a1 1 0 0 0 .263.02z"/>
    </g>
    <path d="m30.007 47.304-.302-.422c-.881-1.231-1.746-2.732-3.104-3.324l-.568-.246.482-.393c.913-.738 1.493-2.047 1.81-3.75.073-.388.128-.8.175-1.224-1.322-.534-2.516-1.368-3.635-2.377.389-.246.951-.582 1.687-.977 1.2-.642 2.681-.86 3.457-.861.79 0 2.274.219 3.473.861.746.4 1.279.735 1.664.98-1.117 1.008-2.308 1.84-3.627 2.374.047.423.1.836.172 1.224.318 1.703.896 3.012 1.809 3.75l.484.393-.568.246c-1.358.592-2.225 2.093-3.106 3.324zm-10.025-2.21-.621-.024c-.08-4.185.191-8.092 1.703-10.961a8 8 0 0 1 2.12-2.58c.39-.142 1.18-.421 2.333-.764 1.506-.447 3.341-.884 4.48-.885 1.144 0 2.984.438 4.495.885 1.126.334 1.897.604 2.308.752a8 8 0 0 1 2.133 2.592c1.512 2.87 1.784 6.776 1.703 10.96l-.62.024c-.32-4.498-1.06-7.262-2.56-8.967-.368-.418-.806-.761-1.285-1.068l.006-.01s-.975-.67-2.224-1.34-2.719-.982-3.943-.98c-1.215.002-2.68.313-3.93.982a32 32 0 0 0-2.258 1.336l.008.012c-.48.307-.92.649-1.289 1.068-1.5 1.705-2.24 4.469-2.559 8.967zm2.85-14.54c-2.324-4.954-6.477-10.71-8.36-13.316l-.195-.268.17-.29c.872-1.491 2.601-3.547 4.418-3.987l.289-.07.135.31c.339.778 1.224 4.756 2.197 7.47l.008-.003 3.01 9.594c-.931.295-1.416.47-1.672.56m14.34-.006c-.263-.092-.735-.26-1.659-.553l3.06-9.755c.948-2.642 1.804-6.546 2.136-7.307l.136-.31.29.07c1.816.44 3.543 2.496 4.415 3.986l.172.291-.195.268c-1.882 2.605-6.032 8.359-8.356 13.31zm-2.614-.85c-1.5-.436-3.235-.863-4.56-.863-1.32 0-3.046.426-4.54.862l-.609-1.944c.342-.122.901-.318 1.711-.558 1.156-.344 2.565-.68 3.44-.68.877 0 2.291.336 3.45.68.813.24 1.375.435 1.718.558zm-9.949-2.71-2.19-6.983c2.074-.887 5.395-2.16 7.58-2.164 2.176-.003 5.487 1.241 7.608 2.135l-2.2 7.012c-.362-.13-.923-.325-1.728-.563-1.188-.352-2.61-.711-3.68-.71-1.065 0-2.482.36-3.667.712-.8.238-1.36.431-1.723.56z" enable-background="accumulate" overflow="visible"/>
</svg>
