<svg xmlns="http://www.w3.org/2000/svg" width="60" height="60">
    <defs>
        <filter id="0OU_svg__a">
            <feGaussianBlur in="SourceAlpha" result="blur" stdDeviation="2"/>
            <feOffset dx="2" dy="2" result="offsetBlur"/>
            <feBlend in="SourceGraphic" in2="offsetBlur"/>
        </filter>
    </defs>
    <g fill="#f9f9f9" filter="url(#0OU_svg__a)">
        <path fill="#cdbc68" d="m29.918 4.769-13.48 3.788L9.035 55.23h41.93l-7.13-46.371z"/>
    </g>
    <path d="M19.216 18.494a.764.687 0 0 0-.733.88l.966 2.981a.764.687 0 0 0 .733.496h7.482v7.03h-5.476a.764.687 0 0 0-.724.466l-.966 2.576a.764.687 0 0 0 .724.908h6.442v8.113H16.931a.764.687 0 0 0-.734.496l-.968 2.982a.764.687 0 0 0 .734.879h28.075a.764.687 0 0 0 .734-.88l-.966-2.981a.764.687 0 0 0-.733-.496H32.208v-8.113h6.26a.764.687 0 0 0 .721-.908l-.965-2.576a.764.687 0 0 0-.725-.467h-5.29v-7.03h7.527a.764.687 0 0 0 .733-.495l.966-2.982a.764.687 0 0 0-.734-.879zm1.018 1.375h19.45l-.522 1.607h-7.719a.764.687 0 0 0-.762.687v8.404a.764.687 0 0 0 .762.688h5.508l.451 1.201h-5.959a.764.687 0 0 0-.762.687v9.49a.764.687 0 0 0 .762.686H42.5l.52 1.607H16.983l.522-1.607h10.923a.764.687 0 0 0 .765-.686v-9.49a.764.687 0 0 0-.765-.687h-6.142l.451-1.201h5.69a.764.687 0 0 0 .766-.688v-8.404a.764.687 0 0 0-.765-.687h-7.672z" enable-background="accumulate" opacity=".99" overflow="visible"/>
</svg>
