<?xml version="1.0" encoding="UTF-8" standalone="no"?>
<!-- Created with Inkscape (http://www.inkscape.org/) -->

<svg
   viewBox="0 0 38.549999 41.919998"
   version="1.1"
   id="svg1"
   inkscape:version="1.3.2 (091e20e, 2023-11-25, custom)"
   sodipodi:docname="Uma.svg"
   xml:space="preserve"
   xmlns:inkscape="http://www.inkscape.org/namespaces/inkscape"
   xmlns:sodipodi="http://sodipodi.sourceforge.net/DTD/sodipodi-0.dtd"
   xmlns="http://www.w3.org/2000/svg"
   xmlns:svg="http://www.w3.org/2000/svg"><sodipodi:namedview
     id="namedview1"
     pagecolor="#ffffff"
     bordercolor="#111111"
     borderopacity="1"
     inkscape:showpageshadow="false"
     inkscape:pageopacity="0"
     inkscape:pagecheckerboard="1"
     inkscape:deskcolor="#d1d1d1"
     inkscape:document-units="mm"
     showguides="true"
     inkscape:zoom="13.096375"
     inkscape:cx="19.280144"
     inkscape:cy="20.959998"
     inkscape:window-width="1292"
     inkscape:window-height="745"
     inkscape:window-x="-8"
     inkscape:window-y="-8"
     inkscape:window-maximized="1"
     inkscape:current-layer="layer1"
     labelstyle="default"><inkscape:page
       x="0"
       y="0"
       width="38.549999"
       height="41.919998"
       id="page42"
       margin="0"
       bleed="0" /></sodipodi:namedview><defs
     id="defs1"><inkscape:path-effect
       effect="powerstroke"
       id="path-effect12"
       is_visible="true"
       lpeversion="1.3"
       scale_width="1"
       interpolator_type="CubicBezierJohan"
       interpolator_beta="0.2"
       start_linecap_type="zerowidth"
       end_linecap_type="zerowidth"
       offset_points="7,4.9921382"
       linejoin_type="extrp_arc"
       miter_limit="4"
       not_jump="false"
       sort_points="true"
       message="&lt;b&gt;Ctrl + click&lt;/b&gt; on existing node and move it" /><inkscape:path-effect
       effect="powerstroke"
       id="path-effect13"
       is_visible="true"
       lpeversion="1.3"
       scale_width="1"
       interpolator_type="CubicBezierJohan"
       interpolator_beta="0.2"
       start_linecap_type="zerowidth"
       end_linecap_type="zerowidth"
       offset_points="5,4.9921382"
       linejoin_type="extrp_arc"
       miter_limit="4"
       not_jump="false"
       sort_points="true"
       message="&lt;b&gt;Ctrl + click&lt;/b&gt; on existing node and move it" /><inkscape:path-effect
       effect="powerstroke"
       id="path-effect13-8"
       is_visible="true"
       lpeversion="1.3"
       scale_width="1"
       interpolator_type="CubicBezierJohan"
       interpolator_beta="0.2"
       start_linecap_type="zerowidth"
       end_linecap_type="zerowidth"
       offset_points="5,4.9921382"
       linejoin_type="extrp_arc"
       miter_limit="4"
       not_jump="false"
       sort_points="true"
       message="&lt;b&gt;Ctrl + click&lt;/b&gt; on existing node and move it" /><inkscape:path-effect
       effect="powerstroke"
       id="path-effect13-3"
       is_visible="true"
       lpeversion="1.3"
       scale_width="1"
       interpolator_type="CubicBezierJohan"
       interpolator_beta="0.2"
       start_linecap_type="zerowidth"
       end_linecap_type="zerowidth"
       offset_points="5,4.9921382"
       linejoin_type="extrp_arc"
       miter_limit="4"
       not_jump="false"
       sort_points="true"
       message="&lt;b&gt;Ctrl + click&lt;/b&gt; on existing node and move it" /><inkscape:path-effect
       effect="powerstroke"
       id="path-effect13-0"
       is_visible="true"
       lpeversion="1.3"
       scale_width="1"
       interpolator_type="CubicBezierJohan"
       interpolator_beta="0.2"
       start_linecap_type="zerowidth"
       end_linecap_type="zerowidth"
       offset_points="5,4.9921382"
       linejoin_type="extrp_arc"
       miter_limit="4"
       not_jump="false"
       sort_points="true"
       message="&lt;b&gt;Ctrl + click&lt;/b&gt; on existing node and move it" /><inkscape:path-effect
       effect="powerstroke"
       id="path-effect13-2"
       is_visible="true"
       lpeversion="1.3"
       scale_width="1"
       interpolator_type="CubicBezierJohan"
       interpolator_beta="0.2"
       start_linecap_type="zerowidth"
       end_linecap_type="zerowidth"
       offset_points="5,4.9921382"
       linejoin_type="extrp_arc"
       miter_limit="4"
       not_jump="false"
       sort_points="true"
       message="&lt;b&gt;Ctrl + click&lt;/b&gt; on existing node and move it" /><inkscape:path-effect
       effect="powerstroke"
       id="path-effect13-89"
       is_visible="true"
       lpeversion="1.3"
       scale_width="1"
       interpolator_type="CubicBezierJohan"
       interpolator_beta="0.2"
       start_linecap_type="zerowidth"
       end_linecap_type="zerowidth"
       offset_points="5,4.9921382"
       linejoin_type="extrp_arc"
       miter_limit="4"
       not_jump="false"
       sort_points="true"
       message="&lt;b&gt;Ctrl + click&lt;/b&gt; on existing node and move it" /><inkscape:path-effect
       effect="powerstroke"
       id="path-effect13-1"
       is_visible="true"
       lpeversion="1.3"
       scale_width="1"
       interpolator_type="CubicBezierJohan"
       interpolator_beta="0.2"
       start_linecap_type="zerowidth"
       end_linecap_type="zerowidth"
       offset_points="5,4.9921382"
       linejoin_type="extrp_arc"
       miter_limit="4"
       not_jump="false"
       sort_points="true"
       message="&lt;b&gt;Ctrl + click&lt;/b&gt; on existing node and move it" /></defs><g
     inkscape:label="Layer 1"
     inkscape:groupmode="layer"
     id="layer1"
     transform="rotate(180,62.137499,101.93)"><path
       style="fill:#938e5e;fill-opacity:1;fill-rule:evenodd;stroke:none;stroke-width:0.982424;stroke-linecap:round;stroke-linejoin:round;stroke-dasharray:none;stroke-opacity:1;paint-order:stroke fill markers"
       d="m 118.85,200 v -6.4 L 114.42512,168.86241 105,165.8 95.574879,168.86241 91.149996,193.6 l 2e-6,6.4 z"
       id="path12"
       sodipodi:nodetypes="cccccccc" /><path
       style="display:inline;fill:#fff29e;fill-opacity:1;fill-rule:evenodd;stroke:none;stroke-width:0.373013;stroke-linecap:round;stroke-linejoin:round;paint-order:stroke fill markers"
       d="m 105,169 9.42512,3.06241 L 118.85,200 H 91.149999 l 4.42488,-27.93759 z"
       id="path13"
       sodipodi:nodetypes="cccccc" /><path
       id="path5-0"
       style="fill:#000000;stroke-width:0.811556"
       inkscape:label="path1"
       d="m 110.7659,177.14001 c -2.1155,-0.002 -4.73869,0.39279 -7.10363,1.07285 -2.78102,0.79966 -4.721588,0.89261 -6.600806,0.3128 -1.006675,-0.31061 -0.287958,0.85683 1.201476,1.94983 1.281902,0.94071 1.86823,0.93427 4.24463,-0.038 3.0395,-1.24351 6.95162,-2.15955 6.95162,-1.62827 0,0.22917 -1.02503,1.16673 -1.67214,1.52888 -0.69512,0.38901 -0.0372,0.51639 1.1898,0.23094 1.35513,-0.31521 3.54657,-1.29069 4.17153,-1.85629 0.41218,-0.37301 0.35092,-1.09894 -0.11985,-1.40904 -0.13171,-0.0868 -1.1499,-0.16208 -2.26263,-0.16369 z m -3.67459,4.57497 c -0.63798,-0.006 -1.515,0.13781 -2.82977,0.42972 -1.04667,0.23237 -1.68585,0.26424 -2.34155,0.11693 -1.24658,-0.2801 -1.46433,0.0548 -0.46482,0.71622 0.83772,0.55437 1.55874,0.8446 2.31526,0.9296 0.23619,0.0265 0.50193,0.0579 0.59052,0.0732 1.04382,0.17762 -1.67263,2.11175 -1.23072,2.82682 0.46245,0.74822 0.91001,-0.35742 3.83539,-0.61391 2.3864,-0.20923 3.30505,0.14376 3.97275,1.52306 0.4823,0.76864 0.32732,1.349 0.14617,2.14862 -0.18397,0.83845 -1.5247,2.24733 -2.68359,2.82099 -1.40792,0.69692 -3.71149,1.06301 -5.83492,0.92668 -2.18269,-0.14009 -3.189035,-0.42544 -4.048768,-1.14885 -0.729001,-0.61343 -0.80982,-1.04981 -0.318636,-1.75107 0.574468,-0.82018 1.268458,-0.61247 2.236324,0.66945 0.8915,1.18079 1.55226,1.62566 2.20708,1.48211 0.53044,-0.1163 0.48677,-1.1915 -0.0906,-2.21879 -0.54406,-0.96802 -1.73228,-1.82159 -2.820986,-2.02584 -1.064341,-0.19966 -2.994674,0.68521 -3.461186,1.58734 -0.942671,1.82292 0.326336,3.20759 4.066312,4.44342 1.67021,0.55193 2.68117,0.60807 5.71505,0.3128 5.75439,-0.55999 7.58188,-2.72251 7.99522,-5.53673 0.42256,-2.87698 -3.19264,-5.25726 -6.67974,-4.39956 -0.50192,0.12333 -0.91207,0.14878 -0.91207,0.0555 0,-0.1791 0.96742,-1.06858 2.04338,-1.87969 l 0.64022,-0.48528 -0.64313,-0.53788 c -0.36496,-0.30563 -0.76519,-0.45958 -1.40318,-0.4648 z"
       transform="translate(-0.02500773)" /></g></svg>
