<?xml version="1.0" encoding="UTF-8" standalone="no"?>
<!-- Created with Inkscape (http://www.inkscape.org/) -->

<svg
   viewBox="0 0 38.549999 41.919998"
   version="1.1"
   id="svg1"
   inkscape:version="1.3.2 (091e20e, 2023-11-25, custom)"
   sodipodi:docname="Kaku.svg"
   xml:space="preserve"
   xmlns:inkscape="http://www.inkscape.org/namespaces/inkscape"
   xmlns:sodipodi="http://sodipodi.sourceforge.net/DTD/sodipodi-0.dtd"
   xmlns="http://www.w3.org/2000/svg"
   xmlns:svg="http://www.w3.org/2000/svg"><sodipodi:namedview
     id="namedview1"
     pagecolor="#ffffff"
     bordercolor="#111111"
     borderopacity="1"
     inkscape:showpageshadow="false"
     inkscape:pageopacity="0"
     inkscape:pagecheckerboard="1"
     inkscape:deskcolor="#d1d1d1"
     inkscape:document-units="mm"
     showguides="true"
     inkscape:zoom="13.096375"
     inkscape:cx="19.280144"
     inkscape:cy="20.959998"
     inkscape:window-width="1292"
     inkscape:window-height="745"
     inkscape:window-x="-8"
     inkscape:window-y="-8"
     inkscape:window-maximized="1"
     inkscape:current-layer="layer1"
     labelstyle="default"><inkscape:page
       x="0"
       y="0"
       width="38.549999"
       height="41.919998"
       id="page42"
       margin="0"
       bleed="0" /></sodipodi:namedview><defs
     id="defs1"><inkscape:path-effect
       effect="powerstroke"
       id="path-effect12"
       is_visible="true"
       lpeversion="1.3"
       scale_width="1"
       interpolator_type="CubicBezierJohan"
       interpolator_beta="0.2"
       start_linecap_type="zerowidth"
       end_linecap_type="zerowidth"
       offset_points="7,4.9921382"
       linejoin_type="extrp_arc"
       miter_limit="4"
       not_jump="false"
       sort_points="true"
       message="&lt;b&gt;Ctrl + click&lt;/b&gt; on existing node and move it" /><inkscape:path-effect
       effect="powerstroke"
       id="path-effect13"
       is_visible="true"
       lpeversion="1.3"
       scale_width="1"
       interpolator_type="CubicBezierJohan"
       interpolator_beta="0.2"
       start_linecap_type="zerowidth"
       end_linecap_type="zerowidth"
       offset_points="5,4.9921382"
       linejoin_type="extrp_arc"
       miter_limit="4"
       not_jump="false"
       sort_points="true"
       message="&lt;b&gt;Ctrl + click&lt;/b&gt; on existing node and move it" /><inkscape:path-effect
       effect="powerstroke"
       id="path-effect13-8"
       is_visible="true"
       lpeversion="1.3"
       scale_width="1"
       interpolator_type="CubicBezierJohan"
       interpolator_beta="0.2"
       start_linecap_type="zerowidth"
       end_linecap_type="zerowidth"
       offset_points="5,4.9921382"
       linejoin_type="extrp_arc"
       miter_limit="4"
       not_jump="false"
       sort_points="true"
       message="&lt;b&gt;Ctrl + click&lt;/b&gt; on existing node and move it" /><inkscape:path-effect
       effect="powerstroke"
       id="path-effect13-3"
       is_visible="true"
       lpeversion="1.3"
       scale_width="1"
       interpolator_type="CubicBezierJohan"
       interpolator_beta="0.2"
       start_linecap_type="zerowidth"
       end_linecap_type="zerowidth"
       offset_points="5,4.9921382"
       linejoin_type="extrp_arc"
       miter_limit="4"
       not_jump="false"
       sort_points="true"
       message="&lt;b&gt;Ctrl + click&lt;/b&gt; on existing node and move it" /><inkscape:path-effect
       effect="powerstroke"
       id="path-effect13-0"
       is_visible="true"
       lpeversion="1.3"
       scale_width="1"
       interpolator_type="CubicBezierJohan"
       interpolator_beta="0.2"
       start_linecap_type="zerowidth"
       end_linecap_type="zerowidth"
       offset_points="5,4.9921382"
       linejoin_type="extrp_arc"
       miter_limit="4"
       not_jump="false"
       sort_points="true"
       message="&lt;b&gt;Ctrl + click&lt;/b&gt; on existing node and move it" /><inkscape:path-effect
       effect="powerstroke"
       id="path-effect13-2"
       is_visible="true"
       lpeversion="1.3"
       scale_width="1"
       interpolator_type="CubicBezierJohan"
       interpolator_beta="0.2"
       start_linecap_type="zerowidth"
       end_linecap_type="zerowidth"
       offset_points="5,4.9921382"
       linejoin_type="extrp_arc"
       miter_limit="4"
       not_jump="false"
       sort_points="true"
       message="&lt;b&gt;Ctrl + click&lt;/b&gt; on existing node and move it" /></defs><g
     inkscape:label="Layer 1"
     inkscape:groupmode="layer"
     id="layer1"
     transform="rotate(180,62.137499,101.93)"><path
       style="fill:#938e5e;fill-opacity:1;fill-rule:evenodd;stroke:none;stroke-width:0.982424;stroke-linecap:round;stroke-linejoin:round;stroke-dasharray:none;stroke-opacity:1;paint-order:stroke fill markers"
       d="m 118.85,200 v -6.4 L 114.42512,168.86241 105,165.8 95.574879,168.86241 91.149996,193.6 l 2e-6,6.4 z"
       id="path12"
       sodipodi:nodetypes="cccccccc" /><path
       style="display:inline;fill:#fff29e;fill-opacity:1;fill-rule:evenodd;stroke:none;stroke-width:0.373013;stroke-linecap:round;stroke-linejoin:round;paint-order:stroke fill markers"
       d="m 105,169 9.42512,3.06241 L 118.85,200 H 91.149999 l 4.42488,-27.93759 z"
       id="path13"
       sodipodi:nodetypes="cccccc" /><path
       id="path2-2"
       style="fill:#000000;stroke-width:0.771698"
       inkscape:label="path1"
       d="m 102.30255,174.50262 c -0.0823,-0.007 -0.15411,-5e-4 -0.20914,0.0206 -0.19559,0.0751 -0.25605,0.25875 -0.17084,0.52722 0.19181,0.60432 -0.23991,1.71778 -1.03685,2.67166 -0.38444,0.46016 -0.6981,0.9289 -0.6981,1.04276 0,0.28309 0.97476,0.0218 1.73495,-0.46544 1.42124,-0.91076 2.35967,-2.04172 2.20036,-2.65099 -0.11056,-0.42306 -1.24375,-1.09698 -1.82038,-1.14586 z m 3.20478,1.46984 c -0.0372,-5e-4 -0.0716,0.007 -0.10005,0.0177 -0.22409,0.0859 -0.29331,0.24676 -0.20031,0.46245 0.45851,1.06343 0.35255,1.35094 -0.93081,2.53911 -0.68985,0.63866 -1.34036,1.16055 -1.44627,1.16055 -0.10591,0 -0.19146,0.0909 -0.19146,0.20324 0,0.25771 0.70783,0.26485 1.17528,0.0119 0.19502,-0.10539 0.88216,-0.42061 1.52583,-0.70107 1.32788,-0.57857 2.1974,-1.34671 2.1974,-1.94114 0,-0.51281 -1.46963,-1.74505 -2.0295,-1.75262 z m 2.63043,4.5804 c -1.63746,-0.047 -3.38598,0.17558 -4.91031,0.62742 -0.74204,0.21995 -1.77626,0.40058 -2.29756,0.40058 -1.093823,0 -1.219464,0.28534 -0.44774,1.01035 0.42292,0.39728 0.63548,0.44855 1.3874,0.33581 0.82558,-0.12376 0.92042,-0.0892 1.36082,0.50662 0.42857,0.57963 0.44111,0.67236 0.15321,0.96027 -0.17998,0.18 -0.8078,0.35919 -1.44924,0.41238 -1.33075,0.11041 -1.51805,0.51477 -0.44478,0.96321 0.54887,0.22932 0.8163,0.23826 1.32256,0.0471 0.81809,-0.30881 1.0144,-0.0824 0.89547,1.02799 -0.11478,1.0721 -0.48897,1.30849 -2.18268,1.38148 -0.68018,0.0292 -1.26897,0.0624 -1.31078,0.0737 -0.17561,0.0473 0.49352,0.68156 0.99264,0.93964 0.37268,0.19271 0.7691,0.22836 1.27251,0.11491 1.10363,-0.24891 1.25853,-0.0512 1.09575,1.38736 -0.14191,1.25428 0.20932,2.47726 0.70989,2.47726 0.77125,0 1.40172,-1.48095 1.41095,-3.31676 l 0.005,-0.96909 h 1.40208 c 0.94152,0 1.48172,-0.0947 1.63776,-0.28279 0.61835,-0.74504 -0.7371,-1.56382 -1.96471,-1.18707 -0.40434,0.12416 -0.79942,0.18694 -0.87778,0.13846 -0.0784,-0.0484 -0.13156,-0.52707 -0.11783,-1.06336 l 0.0266,-0.97499 1.2224,-0.0205 c 1.82372,-0.0328 1.76762,-0.008 1.69666,-0.74228 -0.0916,-0.94863 -0.87415,-1.29414 -2.28283,-1.00739 -0.81404,0.1657 -1.0963,0.15314 -1.25482,-0.05 -0.11238,-0.14389 -0.50103,-0.41526 -0.86598,-0.60384 -0.365,-0.18861 -0.66276,-0.42769 -0.66276,-0.53023 0,-0.26241 1.56363,-0.46605 3.64074,-0.47425 2.74326,-0.0105 2.62309,-0.1232 2.79241,2.58624 0.22022,3.52459 0.0667,7.24095 -0.30928,7.49358 -0.16844,0.11306 -0.78899,0.17186 -1.37854,0.12957 -1.03576,-0.0744 -1.44563,0.15365 -0.71283,0.3947 0.87127,0.2866 1.65819,0.71239 2.37414,1.28134 0.7291,0.57942 0.79275,0.59172 1.12815,0.26214 0.19531,-0.1919 0.57896,-0.71433 0.85128,-1.16352 0.46698,-0.77023 0.49377,-0.99087 0.48603,-3.87933 -0.009,-3.39342 -0.36621,-6.49005 -0.83065,-7.2049 -0.44907,-0.69128 -2.25733,-1.44419 -3.56123,-1.48165 z m -9.788191,0.62742 c -0.05604,-0.004 -0.124247,1.2614 -0.153186,2.81009 -0.0288,1.54867 -0.229748,3.89262 -0.44478,5.21076 -0.366871,2.24906 -0.349089,3.11042 0.08248,3.80863 0.272534,0.44095 0.739819,0.15086 1.198855,-0.74523 0.725405,-1.41606 1.270992,-8.27177 0.759947,-9.5614 -0.208695,-0.52672 -1.132668,-1.50067 -1.44333,-1.52285 z"
       transform="translate(-0.01249773)" /></g></svg>
