<?xml version="1.0" encoding="UTF-8" standalone="no"?>
<!-- Created with Inkscape (http://www.inkscape.org/) -->

<svg
   viewBox="0 0 38.549999 41.919998"
   version="1.1"
   id="svg1"
   inkscape:version="1.3.2 (091e20e, 2023-11-25, custom)"
   sodipodi:docname="Gyoku.svg"
   xml:space="preserve"
   xmlns:inkscape="http://www.inkscape.org/namespaces/inkscape"
   xmlns:sodipodi="http://sodipodi.sourceforge.net/DTD/sodipodi-0.dtd"
   xmlns="http://www.w3.org/2000/svg"
   xmlns:svg="http://www.w3.org/2000/svg"><sodipodi:namedview
     id="namedview1"
     pagecolor="#ffffff"
     bordercolor="#111111"
     borderopacity="1"
     inkscape:showpageshadow="false"
     inkscape:pageopacity="0"
     inkscape:pagecheckerboard="1"
     inkscape:deskcolor="#d1d1d1"
     inkscape:document-units="mm"
     showguides="true"
     inkscape:zoom="13.096375"
     inkscape:cx="19.280145"
     inkscape:cy="20.959999"
     inkscape:window-width="1292"
     inkscape:window-height="745"
     inkscape:window-x="-8"
     inkscape:window-y="-8"
     inkscape:window-maximized="1"
     inkscape:current-layer="layer1"
     labelstyle="default"><inkscape:page
       x="0"
       y="0"
       width="38.549999"
       height="41.919998"
       id="page42"
       margin="0"
       bleed="0" /></sodipodi:namedview><defs
     id="defs1"><inkscape:path-effect
       effect="powerstroke"
       id="path-effect12"
       is_visible="true"
       lpeversion="1.3"
       scale_width="1"
       interpolator_type="CubicBezierJohan"
       interpolator_beta="0.2"
       start_linecap_type="zerowidth"
       end_linecap_type="zerowidth"
       offset_points="7,4.9921382"
       linejoin_type="extrp_arc"
       miter_limit="4"
       not_jump="false"
       sort_points="true"
       message="&lt;b&gt;Ctrl + click&lt;/b&gt; on existing node and move it" /><inkscape:path-effect
       effect="powerstroke"
       id="path-effect13"
       is_visible="true"
       lpeversion="1.3"
       scale_width="1"
       interpolator_type="CubicBezierJohan"
       interpolator_beta="0.2"
       start_linecap_type="zerowidth"
       end_linecap_type="zerowidth"
       offset_points="5,4.9921382"
       linejoin_type="extrp_arc"
       miter_limit="4"
       not_jump="false"
       sort_points="true"
       message="&lt;b&gt;Ctrl + click&lt;/b&gt; on existing node and move it" /><inkscape:path-effect
       effect="powerstroke"
       id="path-effect13-1"
       is_visible="true"
       lpeversion="1.3"
       scale_width="1"
       interpolator_type="CubicBezierJohan"
       interpolator_beta="0.2"
       start_linecap_type="zerowidth"
       end_linecap_type="zerowidth"
       offset_points="5,4.9921382"
       linejoin_type="extrp_arc"
       miter_limit="4"
       not_jump="false"
       sort_points="true"
       message="&lt;b&gt;Ctrl + click&lt;/b&gt; on existing node and move it" /><inkscape:path-effect
       effect="powerstroke"
       id="path-effect13-0"
       is_visible="true"
       lpeversion="1.3"
       scale_width="1"
       interpolator_type="CubicBezierJohan"
       interpolator_beta="0.2"
       start_linecap_type="zerowidth"
       end_linecap_type="zerowidth"
       offset_points="5,4.9921382"
       linejoin_type="extrp_arc"
       miter_limit="4"
       not_jump="false"
       sort_points="true"
       message="&lt;b&gt;Ctrl + click&lt;/b&gt; on existing node and move it" /></defs><g
     inkscape:label="Layer 1"
     inkscape:groupmode="layer"
     id="layer1"
     transform="rotate(180,62.137499,101.68)"><path
       style="fill:#938e5e;fill-opacity:1;fill-rule:evenodd;stroke:none;stroke-width:1;stroke-linecap:round;stroke-linejoin:round;stroke-dasharray:none;stroke-opacity:1;paint-order:stroke fill markers"
       d="m 119.35,200 v -6.4 L 114.78527,167.97943 105,164.8 95.21473,167.97943 90.649996,193.6 l 2e-6,6.4 z"
       id="path12"
       sodipodi:nodetypes="cccccccc" /><path
       style="display:inline;fill:#fff29e;fill-opacity:1;fill-rule:evenodd;stroke:none;stroke-width:0.385762;stroke-linecap:round;stroke-linejoin:round;paint-order:stroke fill markers"
       d="m 105,168 9.78527,3.17942 L 119.35,200 h -28.7 l 4.56473,-28.82058 z"
       id="path13" /><path
       id="path2-2"
       style="fill:#000000;stroke-width:0.707883"
       inkscape:label="path1"
       d="m 110.15461,177.37775 c -0.4014,-0.009 -0.81418,0.0709 -1.29463,0.24027 -0.39923,0.14082 -1.6094,0.35335 -2.69102,0.47488 -1.08163,0.12157 -2.34618,0.26659 -2.80973,0.31943 -0.46356,0.0528 -1.33836,0.18147 -1.94477,0.28549 -0.60639,0.10406 -2.166226,0.16857 -3.465526,0.14416 -1.591939,-0.0298 -2.36312,0.0194 -2.36312,0.15546 0,0.25145 1.34607,1.34019 1.93911,1.56883 0.2764,0.10652 0.72085,0.0947 1.19852,-0.0339 0.41791,-0.11246 1.429606,-0.31086 2.247226,-0.44097 1.68267,-0.26775 1.87028,-0.16071 1.38226,0.783 -0.15629,0.30223 -0.34415,0.98843 -0.41552,1.52641 -0.0714,0.53797 -0.25086,1.09886 -0.39857,1.24657 -0.26682,0.26681 -1.43533,0.37846 -3.001946,0.2855 -0.92965,-0.0551 -0.98219,0.10872 -0.29116,0.92999 l 0.50598,0.60208 1.551856,-0.11024 1.55468,-0.11024 0.11306,0.50598 c 0.0622,0.27821 0.18607,0.79868 0.27703,1.15612 0.20118,0.7905 0.0523,0.96991 -0.89041,1.06283 -0.39348,0.0388 -1.13574,0.1678 -1.650796,0.28833 -1.38499,0.32406 -3.971446,0.29041 -4.918449,-0.065 -0.540184,-0.20278 -0.792189,-0.23165 -0.788649,-0.0876 0.0064,0.25043 0.760095,1.09242 1.741246,1.94476 0.825715,0.7173 0.865822,0.72305 2.298102,0.22896 3.900376,-1.34544 7.780406,-1.87146 11.255906,-1.52358 1.21611,0.12171 2.95777,0.3782 3.86975,0.57099 1.86959,0.39525 2.22722,0.35748 2.64296,-0.27702 0.27022,-0.4124 0.26443,-0.4733 -0.0763,-0.81409 -0.20273,-0.20271 -0.77232,-0.56063 -1.26636,-0.79713 -0.83738,-0.40086 -1.13434,-0.42965 -4.38139,-0.42965 h -3.48531 l 0.0198,-1.21831 0.017,-1.21831 1.72429,-0.0933 c 1.93924,-0.10536 2.26292,-0.26912 1.81191,-0.91302 -0.28103,-0.40124 -0.40842,-0.42382 -2.00978,-0.37312 l -1.71299,0.0537 -0.22047,-1.48968 c -0.12128,-0.81993 -0.22691,-1.63324 -0.23462,-1.80625 -0.013,-0.27929 0.31338,-0.32268 2.90584,-0.37596 2.7923,-0.0575 2.93748,-0.0766 3.27332,-0.49184 0.4499,-0.55628 0.21786,-0.97288 -0.78582,-1.4077 -0.44047,-0.19082 -0.83103,-0.28744 -1.23244,-0.2968 z m 2.54686,4.08458 c -0.31236,-8e-5 -0.5399,0.0577 -0.5399,0.18656 0,0.0925 0.43788,0.80822 0.97237,1.59143 0.69429,1.01735 1.08276,1.42466 1.3653,1.42466 1.20361,0 1.07164,-1.78751 -0.20634,-2.79278 -0.2535,-0.19942 -0.78534,-0.34095 -1.25506,-0.39008 -0.11743,-0.0123 -0.23225,-0.0198 -0.33637,-0.0198 z"
       transform="translate(6.3253582e-7)" /></g></svg>
