<?xml version="1.0" encoding="UTF-8" standalone="no"?>
<!-- Created with Inkscape (http://www.inkscape.org/) -->

<svg
   viewBox="0 0 38.549999 41.919998"
   version="1.1"
   id="svg1"
   inkscape:version="1.3.2 (091e20e, 2023-11-25, custom)"
   sodipodi:docname="Gin.svg"
   xml:space="preserve"
   xmlns:inkscape="http://www.inkscape.org/namespaces/inkscape"
   xmlns:sodipodi="http://sodipodi.sourceforge.net/DTD/sodipodi-0.dtd"
   xmlns="http://www.w3.org/2000/svg"
   xmlns:svg="http://www.w3.org/2000/svg"><sodipodi:namedview
     id="namedview1"
     pagecolor="#ffffff"
     bordercolor="#111111"
     borderopacity="1"
     inkscape:showpageshadow="0"
     inkscape:pageopacity="0"
     inkscape:pagecheckerboard="1"
     inkscape:deskcolor="#d1d1d1"
     inkscape:document-units="mm"
     showguides="true"
     inkscape:zoom="13.096375"
     inkscape:cx="19.280144"
     inkscape:cy="20.959998"
     inkscape:window-width="1292"
     inkscape:window-height="745"
     inkscape:window-x="-8"
     inkscape:window-y="-8"
     inkscape:window-maximized="1"
     inkscape:current-layer="layer1"><inkscape:page
       x="0"
       y="0"
       width="38.549999"
       height="41.919998"
       id="page42"
       margin="0"
       bleed="0" /></sodipodi:namedview><defs
     id="defs1"><inkscape:path-effect
       effect="powerstroke"
       id="path-effect13"
       is_visible="true"
       lpeversion="1.3"
       scale_width="1"
       interpolator_type="CubicBezierJohan"
       interpolator_beta="0.2"
       start_linecap_type="zerowidth"
       end_linecap_type="zerowidth"
       offset_points="5,4.9921382"
       linejoin_type="extrp_arc"
       miter_limit="4"
       not_jump="false"
       sort_points="true"
       message="&lt;b&gt;Ctrl + click&lt;/b&gt; on existing node and move it" /><inkscape:path-effect
       effect="powerstroke"
       id="path-effect12"
       is_visible="true"
       lpeversion="1.3"
       scale_width="1"
       interpolator_type="CubicBezierJohan"
       interpolator_beta="0.2"
       start_linecap_type="zerowidth"
       end_linecap_type="zerowidth"
       offset_points="7,4.9921382"
       linejoin_type="extrp_arc"
       miter_limit="4"
       not_jump="false"
       sort_points="true"
       message="&lt;b&gt;Ctrl + click&lt;/b&gt; on existing node and move it" /><inkscape:path-effect
       effect="powerstroke"
       id="path-effect13-0"
       is_visible="true"
       lpeversion="1.3"
       scale_width="1"
       interpolator_type="CubicBezierJohan"
       interpolator_beta="0.2"
       start_linecap_type="zerowidth"
       end_linecap_type="zerowidth"
       offset_points="5,4.9921382"
       linejoin_type="extrp_arc"
       miter_limit="4"
       not_jump="false"
       sort_points="true"
       message="&lt;b&gt;Ctrl + click&lt;/b&gt; on existing node and move it" /><inkscape:path-effect
       effect="powerstroke"
       id="path-effect13-9"
       is_visible="true"
       lpeversion="1.3"
       scale_width="1"
       interpolator_type="CubicBezierJohan"
       interpolator_beta="0.2"
       start_linecap_type="zerowidth"
       end_linecap_type="zerowidth"
       offset_points="5,4.9921382"
       linejoin_type="extrp_arc"
       miter_limit="4"
       not_jump="false"
       sort_points="true"
       message="&lt;b&gt;Ctrl + click&lt;/b&gt; on existing node and move it" /><inkscape:path-effect
       effect="powerstroke"
       id="path-effect13-93"
       is_visible="true"
       lpeversion="1.3"
       scale_width="1"
       interpolator_type="CubicBezierJohan"
       interpolator_beta="0.2"
       start_linecap_type="zerowidth"
       end_linecap_type="zerowidth"
       offset_points="5,4.9921382"
       linejoin_type="extrp_arc"
       miter_limit="4"
       not_jump="false"
       sort_points="true"
       message="&lt;b&gt;Ctrl + click&lt;/b&gt; on existing node and move it" /><inkscape:path-effect
       effect="powerstroke"
       id="path-effect13-09"
       is_visible="true"
       lpeversion="1.3"
       scale_width="1"
       interpolator_type="CubicBezierJohan"
       interpolator_beta="0.2"
       start_linecap_type="zerowidth"
       end_linecap_type="zerowidth"
       offset_points="5,4.9921382"
       linejoin_type="extrp_arc"
       miter_limit="4"
       not_jump="false"
       sort_points="true"
       message="&lt;b&gt;Ctrl + click&lt;/b&gt; on existing node and move it" /><inkscape:path-effect
       effect="powerstroke"
       id="path-effect13-1"
       is_visible="true"
       lpeversion="1.3"
       scale_width="1"
       interpolator_type="CubicBezierJohan"
       interpolator_beta="0.2"
       start_linecap_type="zerowidth"
       end_linecap_type="zerowidth"
       offset_points="5,4.9921382"
       linejoin_type="extrp_arc"
       miter_limit="4"
       not_jump="false"
       sort_points="true"
       message="&lt;b&gt;Ctrl + click&lt;/b&gt; on existing node and move it" /><inkscape:path-effect
       effect="powerstroke"
       id="path-effect13-5"
       is_visible="true"
       lpeversion="1.3"
       scale_width="1"
       interpolator_type="CubicBezierJohan"
       interpolator_beta="0.2"
       start_linecap_type="zerowidth"
       end_linecap_type="zerowidth"
       offset_points="5,4.9921382"
       linejoin_type="extrp_arc"
       miter_limit="4"
       not_jump="false"
       sort_points="true"
       message="&lt;b&gt;Ctrl + click&lt;/b&gt; on existing node and move it" /><inkscape:path-effect
       effect="powerstroke"
       id="path-effect13-98"
       is_visible="true"
       lpeversion="1.3"
       scale_width="1"
       interpolator_type="CubicBezierJohan"
       interpolator_beta="0.2"
       start_linecap_type="zerowidth"
       end_linecap_type="zerowidth"
       offset_points="5,4.9921382"
       linejoin_type="extrp_arc"
       miter_limit="4"
       not_jump="false"
       sort_points="true"
       message="&lt;b&gt;Ctrl + click&lt;/b&gt; on existing node and move it" /></defs><g
     inkscape:label="Layer 1"
     inkscape:groupmode="layer"
     id="layer1"
     transform="translate(-84.724992,-164.64)"><path
       style="fill:#938e5e;fill-opacity:1;fill-rule:evenodd;stroke:none;stroke-width:0.964528;stroke-linecap:round;stroke-linejoin:round;stroke-dasharray:none;stroke-opacity:1;paint-order:stroke fill markers"
       d="m 90.649993,169 v 6.4 l 4.285044,23.85462 9.064953,2.94538 9.06497,-2.94539 L 117.34999,175.4 V 169 Z"
       id="path12"
       sodipodi:nodetypes="cccccccc" /><path
       style="display:inline;fill:#fff29e;fill-opacity:1;fill-rule:evenodd;stroke:none;stroke-width:0.360263;stroke-linecap:round;stroke-linejoin:round;paint-order:stroke fill markers"
       d="M 103.99999,199 94.935035,196.05462 90.649993,169 h 26.699997 l -4.28503,27.05461 z"
       id="path13-6"
       sodipodi:nodetypes="cccccc" /><path
       id="path2"
       style="fill:#000000;stroke-width:0.59819"
       inkscape:label="path1"
       d="m 99.512361,177.18652 c -0.441453,-5e-4 -0.513647,0.0465 -0.424622,0.27661 0.05895,0.15234 0.143614,0.46059 0.189261,0.68666 0.16416,0.81308 -1.281914,2.95917 -2.892275,4.28989 -0.985188,0.81413 -0.988269,1.01058 -0.01456,0.94872 0.571091,-0.0363 0.973406,0.057 1.630542,0.37852 0.860864,0.4212 0.871933,0.43516 0.824979,1.06277 -0.03637,0.48583 -0.124535,0.65378 -0.366388,0.70608 -0.25837,0.0559 -2.069491,0.17547 -2.887419,0.19168 -0.361846,0.007 -0.20385,0.42656 0.237788,0.63086 0.239383,0.11069 0.755962,0.22149 1.147688,0.2475 0.848885,0.0564 0.929793,0.33369 0.203818,0.69396 -0.337349,0.16741 -0.543766,0.4082 -0.61388,0.71821 -0.08798,0.38902 -0.02987,0.53005 0.349402,0.84197 0.380006,0.31251 0.591477,0.36232 1.285994,0.31058 l 0.832256,-0.0607 v 0.84197 c 0,0.74737 -0.03707,0.84598 -0.655129,1.01181 -0.618009,0.16584 -1.918363,0.37737 -2.630221,0.36881 -0.324637,-0.004 -0.514397,0.0714 -0.514397,0.20382 0,0.11528 0.0608,0.21109 0.135879,0.21109 0.07506,0 0.401574,0.2109 0.725494,0.46831 h 0.0025 c 0.668598,0.53128 0.822873,0.52535 2.756389,-0.0946 0.642222,-0.20591 1.29895,-0.37554 2.15708,-0.53382 0.85812,-0.15827 1.66208,-0.58227 1.66208,-0.94387 0,-0.51826 -0.66253,-0.73811 -1.52621,-0.50711 -0.39227,0.10484 -0.78026,0.1487 -0.8638,0.097 -0.12508,-0.0773 -0.0444,-1.13408 0.0995,-1.3054 0.0226,-0.027 0.25846,-0.0756 0.52409,-0.10919 0.82533,-0.10447 1.47539,-0.52659 1.41945,-0.9196 -0.0514,-0.36109 -0.34342,-0.41179 -1.47281,-0.25477 -0.46318,0.0644 -0.4755,0.0493 -0.52169,-0.6624 l -0.0485,-0.73035 0.9657,-0.19169 c 1.53974,-0.30293 1.43111,-1.0178 -0.15771,-1.03365 -0.70731,-0.007 -0.71314,-0.01 -0.76188,-0.59932 -0.0434,-0.52377 -0.007,-0.59447 0.30571,-0.59447 0.60425,0 1.40489,-0.36384 1.40489,-0.63814 0,-0.38582 -0.68185,-0.6913 -1.21319,-0.54352 -0.24611,0.0684 -0.51957,0.13447 -0.6066,0.14559 -0.0871,0.0112 -0.453709,0.11595 -0.815273,0.23293 -0.675751,0.21857 -1.795538,0.12599 -1.795538,-0.148 0,-0.0805 0.194943,-0.29343 0.434327,-0.47315 0.239389,-0.17972 0.897304,-0.89029 1.463123,-1.5796 0.565821,-0.68931 1.108181,-1.25754 1.203491,-1.26172 0.0953,-0.004 0.30173,0.13481 0.45859,0.30814 0.26113,0.28856 1.53173,1.10887 1.71788,1.10887 0.0435,0 0.19143,-0.11133 0.32758,-0.24749 0.21654,-0.21652 0.21902,-0.30265 0.0242,-0.67939 -0.22597,-0.43696 -0.48964,-0.61157 -1.55533,-1.03608 -0.50537,-0.20132 -0.59205,-0.30748 -0.59205,-0.72063 0,-0.37756 -0.11418,-0.55668 -0.51439,-0.80073 -0.28289,-0.17247 -0.753557,-0.31267 -1.045775,-0.313 z m 11.074089,1.95082 c -0.0827,8.8e-4 -0.16698,0.006 -0.25234,0.0146 -0.39047,0.0383 -0.76519,0.1012 -0.83225,0.14073 -0.0671,0.0395 -0.49146,0.11616 -0.94388,0.16985 -0.45241,0.0537 -1.24874,0.19595 -1.77127,0.31786 -0.52252,0.12187 -1.20505,0.21108 -1.51407,0.19655 -0.6155,-0.0289 -0.7227,0.18587 -0.28388,0.56533 0.51466,0.44514 1.17384,0.56172 2.25654,0.40037 0.56583,-0.0843 1.13358,-0.19137 1.26416,-0.23779 0.13056,-0.0465 0.60749,-0.11588 1.0579,-0.15286 0.70322,-0.0578 0.84292,-0.0196 0.99241,0.25962 0.0958,0.17891 0.13022,0.50412 0.0752,0.72307 -0.0906,0.36105 -0.15659,0.38757 -0.6988,0.30087 -0.32881,-0.0525 -1.23005,-0.0114 -2.00178,0.0922 -2.68177,0.35917 -2.60685,0.35818 -2.96507,0.0437 -0.46496,-0.40824 -1.17601,-0.69237 -1.286,-0.51439 -0.0493,0.0798 0.0922,0.57469 0.31302,1.09916 0.38587,0.91681 0.39796,1.04121 0.30572,3.21254 -0.0912,2.14728 0.0111,3.50952 0.40764,5.41088 0.17038,0.81767 0.50096,1.3092 1.03121,1.52622 0.67426,0.27598 0.86414,0.10523 1.69606,-1.51408 0.22361,-0.43526 0.53618,-1.01841 0.69638,-1.2957 0.48324,-0.83635 0.1399,-0.76004 -0.82498,0.18198 -0.50125,0.48939 -1.01878,0.86774 -1.15253,0.84197 -0.34941,-0.0674 -0.49369,-0.91512 -0.47801,-2.81463 0.0201,-2.43406 0.0786,-2.69088 0.62601,-2.69088 0.24721,0 0.86371,-0.11171 1.36849,-0.24992 2.1087,-0.57712 2.12302,-0.57934 2.49434,-0.23051 0.44169,0.41494 0.49802,0.40922 0.95843,-0.11161 0.57182,-0.6469 1.17567,-2.2905 1.451,-3.95747 0.16198,-0.9807 -0.74979,-1.746 -1.98966,-1.7276 z m -0.68666,3.50373 c 0.11336,-0.003 0.18787,0.003 0.21109,0.017 0.16866,0.10422 0.18138,0.71336 0.0194,0.94629 -0.0639,0.0919 -0.54289,0.17999 -1.06518,0.19411 -0.52228,0.0142 -1.42854,0.15821 -2.01392,0.3227 -0.58537,0.16452 -1.10199,0.26165 -1.14769,0.21596 -0.20006,-0.20006 -0.0629,-0.97728 0.19654,-1.11615 0.31204,-0.16697 3.00624,-0.56108 3.79975,-0.5799 z m 2.17405,2.17406 c -0.237,0.0591 -2.36599,2.48803 -2.49919,2.85102 -0.0932,0.25384 -0.1404,0.25483 -0.70123,0.0146 -0.83219,-0.35649 -2.61957,-0.83363 -2.77095,-0.74006 -0.22116,0.13668 -0.13226,0.31854 0.23293,0.48529 0.19587,0.0894 1.13887,0.79149 2.09642,1.55775 0.95754,0.76624 2.16507,1.66784 2.6836,2.00421 0.51854,0.33636 1.05155,0.59088 1.18408,0.56534 0.39869,-0.0768 0.56267,-0.81517 0.34455,-1.54319 -0.17943,-0.59886 -0.29235,-0.6959 -1.53106,-1.31026 -0.7356,-0.36481 -1.33513,-0.70145 -1.33453,-0.74732 8.8e-4,-0.087 3.00633,-1.3933 3.00633,-1.72275 0,-0.33979 -0.55938,-1.45239 -0.71095,-1.41459 z m -13.119551,1.98479 c 0.02969,0.005 0.05561,0.0294 0.08003,0.0679 0.230284,0.36323 0.159031,1.1967 -0.111611,1.30055 -0.682919,0.26206 -0.838496,-0.12598 -0.368815,-0.92203 0.127517,-0.21611 0.222399,-0.35008 0.298449,-0.41006 0.03804,-0.03 0.07221,-0.0418 0.101912,-0.0364 z"
       transform="rotate(180,103.99999,184.5)" /></g></svg>
