<?xml version="1.0" encoding="UTF-8" standalone="no"?>
<!-- Created with Inkscape (http://www.inkscape.org/) -->

<svg
   viewBox="0 0 38.549999 41.919998"
   version="1.1"
   id="svg1"
   inkscape:version="1.3.2 (091e20e, 2023-11-25, custom)"
   sodipodi:docname="Narikei.svg"
   xml:space="preserve"
   xmlns:inkscape="http://www.inkscape.org/namespaces/inkscape"
   xmlns:sodipodi="http://sodipodi.sourceforge.net/DTD/sodipodi-0.dtd"
   xmlns="http://www.w3.org/2000/svg"
   xmlns:svg="http://www.w3.org/2000/svg"><sodipodi:namedview
     id="namedview1"
     pagecolor="#ffffff"
     bordercolor="#111111"
     borderopacity="1"
     inkscape:showpageshadow="0"
     inkscape:pageopacity="0"
     inkscape:pagecheckerboard="1"
     inkscape:deskcolor="#d1d1d1"
     inkscape:document-units="mm"
     showguides="true"
     inkscape:zoom="13.096375"
     inkscape:cx="19.280145"
     inkscape:cy="20.959999"
     inkscape:window-width="1292"
     inkscape:window-height="745"
     inkscape:window-x="-8"
     inkscape:window-y="-8"
     inkscape:window-maximized="1"
     inkscape:current-layer="layer1"><inkscape:page
       x="0"
       y="0"
       width="38.549999"
       height="41.919998"
       id="page42"
       margin="0"
       bleed="0" /></sodipodi:namedview><defs
     id="defs1"><inkscape:path-effect
       effect="powerstroke"
       id="path-effect13"
       is_visible="true"
       lpeversion="1.3"
       scale_width="1"
       interpolator_type="CubicBezierJohan"
       interpolator_beta="0.2"
       start_linecap_type="zerowidth"
       end_linecap_type="zerowidth"
       offset_points="5,4.9921382"
       linejoin_type="extrp_arc"
       miter_limit="4"
       not_jump="false"
       sort_points="true"
       message="&lt;b&gt;Ctrl + click&lt;/b&gt; on existing node and move it" /></defs><g
     inkscape:label="Layer 1"
     inkscape:groupmode="layer"
     id="layer1"
     transform="matrix(0.88850158,0,0,1,-74.017663,-166.14)"><path
       style="fill:#fff29e;fill-opacity:1;fill-rule:evenodd;stroke:none;stroke-width:0.367234;stroke-linecap:round;stroke-linejoin:round;paint-order:stroke fill markers"
       d="m 105,171 9.78527,2.88135 L 119.35,200 H 90.649994 l 4.56473,-26.11865 z"
       id="path13" /><path
       style="display:inline;fill:#938e5e;fill-opacity:1;fill-rule:evenodd;stroke:none;stroke-width:0.386001;stroke-linecap:round;stroke-linejoin:round;stroke-dasharray:none;stroke-opacity:1;paint-order:stroke fill markers"
       d="m 90.649998,200 -3e-6,3.2 H 119.35 V 200 Z"
       id="path45" /><path
       id="path4"
       style="fill:#000000;stroke-width:0.51549"
       d="m 103.03081,177.21908 c -0.18427,0 -0.20255,0.21447 -0.0266,0.31111 0.22714,0.12473 0.3014,0.82467 0.1334,1.25749 -0.15641,0.40296 -1.00935,1.60252 -2.28573,3.2143 -1.165739,1.47206 -3.434062,3.37662 -4.529078,3.80262 -0.22334,0.0869 -0.366086,0.21559 -0.317085,0.28599 0.203171,0.29209 1.374842,-0.002 2.369949,-0.59359 1.969264,-1.17174 2.862294,-1.82522 4.563834,-3.33934 3.12655,-2.78218 3.21722,-3.14475 1.10273,-4.42057 -0.47221,-0.28492 -0.9275,-0.51801 -1.01146,-0.51801 z m 2.73509,2.95692 c -0.44286,0 -0.3354,0.14143 0.68305,0.89993 0.52218,0.3889 1.67083,1.38908 2.55252,2.22247 1.56203,1.47643 2.53007,2.14662 3.5682,2.46979 0.53275,0.16584 1.12507,0.0626 1.33645,-0.23277 0.46818,-0.65419 -0.78337,-1.90992 -2.92499,-2.93482 -0.35812,-0.17139 -0.94414,-0.47884 -1.30225,-0.68325 -1.07427,-0.61313 -3.60953,-1.74135 -3.91298,-1.74135 z m -2.3773,2.31914 0.60309,0.47959 c 0.88842,0.70675 0.92047,0.96877 0.19414,1.58266 -0.32965,0.27863 -0.55946,0.56413 -0.51067,0.63428 0.13932,0.20029 1.20982,0.009 2.20548,-0.39372 0.73274,-0.29646 0.90434,-0.4227 0.90434,-0.66541 0,-0.71002 -1.17517,-1.41319 -2.60253,-1.5573 z m -2.66275,3.9598 c -0.37735,-0.0827 -0.31328,0.23392 0.13056,0.64657 0.6666,0.61976 1.00614,0.6907 1.98221,0.41406 1.40876,-0.39926 2.90874,-0.69038 3.14401,-0.61016 0.14092,0.0481 0.22355,0.23788 0.22355,0.51324 v 0.43666 l -0.98207,-0.0622 c -1.16848,-0.0743 -2.27145,0.26972 -3.02701,0.94412 -0.87444,0.7805 -0.73967,1.4522 0.45132,2.24958 0.36025,0.24119 0.65688,0.51771 0.65961,0.61444 0.003,0.0967 -0.1911,0.37333 -0.42984,0.61494 -0.23875,0.24159 -0.43409,0.49798 -0.43409,0.56973 0,0.2231 0.41881,0.86244 0.61213,0.9346 0.29621,0.11055 2.57942,0.0598 3.36698,-0.0749 0.39792,-0.068 0.81174,-0.12778 0.91961,-0.13283 0.31501,-0.0147 1.17848,-0.80895 1.17848,-1.08399 0,-0.13842 -0.15819,-0.38371 -0.35157,-0.54513 -0.29236,-0.24404 -0.50317,-0.29156 -1.2511,-0.28224 -0.4947,0.006 -1.01447,0.0437 -1.1553,0.0834 -0.14082,0.0397 -0.30114,0.008 -0.35609,-0.0713 -0.10931,-0.15714 0.13232,-0.38458 1.01597,-0.95592 1.48818,-0.96223 1.81225,-1.47484 1.30706,-2.06829 -0.13221,-0.15533 -0.2143,-0.55055 -0.21703,-1.04658 -0.004,-0.74719 -0.0342,-0.8165 -0.47507,-1.10985 -0.28437,-0.18921 -0.64186,-0.30503 -0.90435,-0.29303 -0.31573,0.0145 -4.37273,0.54201 -5.40797,0.31513 z m 4.82922,2.15968 c 0.30208,0.103 0.27112,0.44655 -0.0955,1.05687 -0.17199,0.28631 -0.54962,0.72616 -0.83905,0.97728 l -0.52622,0.45649 -0.44596,-0.41858 c -0.65866,-0.61826 -0.83267,-0.96786 -0.60364,-1.21305 0.29125,-0.31181 1.68234,-0.85011 1.98785,-0.86627 0.30551,-0.0162 0.40317,-0.0334 0.52255,0.008 z"
       inkscape:label="path1"
       sodipodi:nodetypes="cssssccssccsssssscsccscssccsssssccssssssscssssssscssssscccscss" /></g></svg>
