<?xml version="1.0" encoding="UTF-8" standalone="no"?>
<!-- Created with Inkscape (http://www.inkscape.org/) -->

<svg
   viewBox="0 0 38.549999 41.919998"
   version="1.1"
   id="svg1"
   inkscape:version="1.3.2 (091e20e, 2023-11-25, custom)"
   sodipodi:docname="Ryu.svg"
   xml:space="preserve"
   xmlns:inkscape="http://www.inkscape.org/namespaces/inkscape"
   xmlns:sodipodi="http://sodipodi.sourceforge.net/DTD/sodipodi-0.dtd"
   xmlns="http://www.w3.org/2000/svg"
   xmlns:svg="http://www.w3.org/2000/svg"><sodipodi:namedview
     id="namedview1"
     pagecolor="#ffffff"
     bordercolor="#111111"
     borderopacity="1"
     inkscape:showpageshadow="0"
     inkscape:pageopacity="0"
     inkscape:pagecheckerboard="1"
     inkscape:deskcolor="#d1d1d1"
     inkscape:document-units="mm"
     showguides="true"
     inkscape:zoom="13.096375"
     inkscape:cx="19.280145"
     inkscape:cy="20.959999"
     inkscape:window-width="1292"
     inkscape:window-height="745"
     inkscape:window-x="-8"
     inkscape:window-y="-8"
     inkscape:window-maximized="1"
     inkscape:current-layer="layer1"><inkscape:page
       x="0"
       y="0"
       width="38.549999"
       height="41.919998"
       id="page42"
       margin="0"
       bleed="0" /></sodipodi:namedview><defs
     id="defs1"><inkscape:path-effect
       effect="powerstroke"
       id="path-effect13"
       is_visible="true"
       lpeversion="1.3"
       scale_width="1"
       interpolator_type="CubicBezierJohan"
       interpolator_beta="0.2"
       start_linecap_type="zerowidth"
       end_linecap_type="zerowidth"
       offset_points="5,4.9921382"
       linejoin_type="extrp_arc"
       miter_limit="4"
       not_jump="false"
       sort_points="true"
       message="&lt;b&gt;Ctrl + click&lt;/b&gt; on existing node and move it" /></defs><g
     inkscape:label="Layer 1"
     inkscape:groupmode="layer"
     id="layer1"
     transform="translate(-85.737497,-165.14)"><path
       style="fill:#fff29e;fill-opacity:1;fill-rule:evenodd;stroke:none;stroke-width:0.373013;stroke-linecap:round;stroke-linejoin:round;paint-order:stroke fill markers"
       d="m 105.0125,169 9.42512,3.06241 L 118.8625,200 H 91.162494 l 4.42488,-27.93759 z"
       id="path13"
       sodipodi:nodetypes="cccccc" /><path
       style="display:inline;fill:#938e5e;fill-opacity:1;fill-rule:evenodd;stroke:none;stroke-width:0.379217;stroke-linecap:round;stroke-linejoin:round;stroke-dasharray:none;stroke-opacity:1;paint-order:stroke fill markers"
       d="m 91.175004,200 -3e-6,3.2 H 118.875 V 200 Z"
       id="path45" /><path
       id="path5"
       style="fill:#000000;fill-opacity:1;stroke-width:0.592518"
       inkscape:label="path1"
       d="m 106.55434,175.50365 c -0.0622,0.003 -0.10154,0.0137 -0.1101,0.0367 -0.0303,0.081 0.14186,0.43049 0.3821,0.77716 0.39845,0.57493 0.43471,0.74093 0.40585,1.88678 -0.0175,0.69092 -0.10082,1.70929 -0.18565,2.26242 -0.0849,0.55311 -0.22701,1.47837 -0.31518,2.05516 -0.11539,0.75472 -0.26872,1.15967 -0.54618,1.44855 -0.35938,0.37419 -1.89758,2.37097 -2.42864,3.15183 -0.12934,0.19018 -0.32306,0.43906 -0.47493,0.79875 -0.15188,0.35968 -0.41306,0.33512 -0.82898,0.0626 -0.19388,-0.12703 -0.50627,-0.25617 -0.69512,-0.28496 -0.77819,-0.11875 -0.68141,-0.27086 1.07076,-1.68818 0.48057,-0.38876 1.1703,-0.80436 1.53273,-0.92395 0.36242,-0.11963 0.63494,-0.2885 0.60662,-0.37347 -0.13576,-0.40728 -1.03366,-0.36946 -3.38498,0.14031 -0.49553,0.10744 -0.51696,0.0953 -0.35619,-0.20508 0.0941,-0.17587 0.73172,-0.64791 1.41616,-1.04918 1.3833,-0.81096 1.66223,-1.06957 1.52842,-1.41832 -0.10522,-0.27416 -1.5846,-0.34386 -1.74646,-0.082 -0.20776,0.3362 -0.54833,0.15406 -0.54833,-0.29359 0,-0.54781 0.21153,-0.7311 0.97577,-0.84841 0.87371,-0.13412 1.44622,-0.46235 1.50251,-0.85704 0.0881,-0.61747 -0.54037,-0.75632 -1.99255,-0.44255 -0.90823,0.19621 -1.54706,0.23939 -2.35524,0.15975 -0.609962,-0.06 -1.109624,-0.0687 -1.109624,-0.0173 0,0.27038 0.990902,1.0479 1.550014,1.2154 0.35379,0.106 0.64332,0.25851 0.64332,0.33893 0,0.0805 -0.24655,0.4354 -0.54833,0.78796 -0.30179,0.35257 -0.548342,0.73883 -0.548342,0.85704 0,0.11821 0.246552,0.31647 0.548342,0.44256 0.62646,0.26177 0.62382,0.25485 0.33029,0.8225 -0.3435,0.66422 -0.73252,0.92122 -1.662272,1.10098 -0.474222,0.0916 -1.179275,0.2389 -1.567278,0.32597 -0.919059,0.20625 -2.619927,0.21552 -2.743821,0.0151 -0.136634,-0.22107 -0.392584,-0.19536 -0.386423,0.0389 0.0031,0.10777 0.432628,0.53169 0.954185,0.94123 1.253321,0.98421 1.377384,0.97868 3.844807,-0.13168 0.53843,-0.24229 0.996982,-0.28942 0.995202,-0.10362 -5.9e-4,0.0647 -0.467492,0.57338 -1.036222,1.1312 -2.15923,2.11783 -3.05532,4.09958 -2.325017,5.14224 0.541499,0.77309 1.133266,0.27726 1.871671,-1.56729 0.678696,-1.69534 1.222378,-2.4385 1.871678,-2.56031 0.73723,-0.1383 1.29363,0.0163 1.50898,0.41879 0.14147,0.2643 0.0998,0.49956 -0.21372,1.21325 -0.21393,0.48689 -0.48034,1.26029 -0.59366,1.7184 -0.24687,0.99779 -0.0871,1.37822 0.56129,1.32981 1.11105,-0.0829 1.80474,-1.23973 1.80474,-3.01367 0,-1.08119 0.0223,-1.14057 1.04701,-2.86687 0.5755,-0.96952 1.20918,-1.94038 1.4097,-2.15663 l 0.36483,-0.3929 v 0.59582 c 0,0.84242 0.23524,1.20245 0.78148,1.20245 0.25055,0 0.48636,0.0541 0.52458,0.11873 0.0383,0.0647 -0.10961,0.64644 -0.32813,1.29312 -0.54355,1.6086 -0.5538,3.14311 -0.0259,3.94842 0.40204,0.61332 0.98617,1.03159 1.86951,1.3363 1.13285,0.39079 2.92988,0.0352 4.85943,-0.96283 1.60133,-0.82826 1.64548,-1.28719 0.26337,-2.68985 -0.54525,-0.55335 -1.03834,-1.006 -1.09666,-1.006 -0.0582,0 -0.10578,0.38472 -0.10578,0.85489 0,1.16145 -0.22596,1.57934 -1.07292,1.97744 -0.98089,0.46108 -2.67393,0.38899 -3.19932,-0.13599 -0.31467,-0.3144 -0.35172,-0.50535 -0.34756,-1.79828 0.003,-0.98027 0.0987,-1.74272 0.30006,-2.36603 0.36711,-1.13695 0.2432,-1.40037 -0.7124,-1.509 -0.76272,-0.0868 -0.79785,-0.177 -0.55912,-1.48956 0.0969,-0.53251 0.2494,-0.72192 1.01031,-1.25857 0.49284,-0.34758 1.47767,-0.97304 2.18901,-1.3881 0.71135,-0.41507 1.29311,-0.81577 1.29311,-0.89158 0,-0.19533 -0.90367,-0.63933 -1.22187,-0.60014 -0.14623,0.0179 -0.71273,-0.0245 -1.25857,-0.0928 -0.91377,-0.11454 -0.98475,-0.15067 -0.89158,-0.4555 0.0556,-0.18208 0.14175,-0.96621 0.18998,-1.7443 0.0734,-1.18479 0.0464,-1.44915 -0.16623,-1.62558 -0.2623,-0.21766 -1.4579,-0.5611 -2.06813,-0.64115 -0.1017,-0.0133 -0.18827,-0.0181 -0.25041,-0.0151 z m -5.05373,0.32814 c -0.0591,0.0117 -0.095,0.0417 -0.095,0.0928 0,0.0523 0.21975,0.3733 0.49004,0.71456 0.42444,0.53591 0.4678,0.66682 0.3087,0.96282 -0.10135,0.18847 -0.43241,0.50468 -0.73398,0.70161 -0.30158,0.19693 -0.5036,0.42977 -0.44903,0.51811 0.11059,0.17897 0.60327,0.097 2.03142,-0.3411 1.2784,-0.39218 1.57895,-0.62125 1.35571,-1.03837 -0.17815,-0.33288 -1.15448,-0.9827 -1.74861,-1.24994 -0.59414,-0.26723 -0.98187,-0.39599 -1.15927,-0.36052 z m 7.34852,4.35428 c 0.0476,-6.5e-4 0.10253,0.0123 0.16838,0.0367 0.17357,0.0642 0.41661,0.23811 0.5397,0.38642 0.19691,0.23726 0.18648,0.29761 -0.0842,0.4922 -0.1692,0.12165 -0.43313,0.32563 -0.58502,0.45334 -0.59241,0.4981 -0.74392,0.14923 -0.38427,-0.88294 0.12332,-0.3539 0.20275,-0.48378 0.34541,-0.48573 z m 2.64452,2.5409 c -0.44697,0 -0.45613,0.0751 -0.0669,0.56992 0.29865,0.37965 0.29901,0.39012 -0.0237,1.12041 -0.17946,0.40607 -0.43351,0.81786 -0.56345,0.91317 -0.36659,0.26887 -0.12403,0.6107 0.58288,0.82249 0.36733,0.11009 0.64332,0.28956 0.64332,0.41881 0,0.37028 -0.7968,1.1381 -1.84146,1.77669 -0.53829,0.32905 -0.92541,0.65339 -0.86136,0.71887 0.23555,0.24082 1.86376,-0.0936 2.8345,-0.58071 1.15466,-0.57941 1.90621,-1.28044 1.90621,-1.78101 0,-0.37046 -0.72613,-0.99952 -1.15279,-0.99952 -0.47283,0 -0.42278,-0.31762 0.12521,-0.79874 0.30612,-0.26879 0.5574,-0.60499 0.55697,-0.74694 -0.002,-0.65451 -1.16501,-1.43344 -2.13936,-1.43344 z" /></g></svg>
