<?xml version="1.0" encoding="UTF-8" standalone="no"?>
<!-- Created with Inkscape (http://www.inkscape.org/) -->

<svg
   viewBox="0 0 38.549999 41.919998"
   version="1.1"
   id="svg1"
   inkscape:version="1.3.2 (091e20e, 2023-11-25, custom)"
   sodipodi:docname="Narigin.svg"
   xml:space="preserve"
   xmlns:inkscape="http://www.inkscape.org/namespaces/inkscape"
   xmlns:sodipodi="http://sodipodi.sourceforge.net/DTD/sodipodi-0.dtd"
   xmlns="http://www.w3.org/2000/svg"
   xmlns:svg="http://www.w3.org/2000/svg"><sodipodi:namedview
     id="namedview1"
     pagecolor="#ffffff"
     bordercolor="#111111"
     borderopacity="1"
     inkscape:showpageshadow="0"
     inkscape:pageopacity="0"
     inkscape:pagecheckerboard="1"
     inkscape:deskcolor="#d1d1d1"
     inkscape:document-units="mm"
     showguides="true"
     inkscape:zoom="13.096375"
     inkscape:cx="19.280144"
     inkscape:cy="20.959998"
     inkscape:window-width="1292"
     inkscape:window-height="745"
     inkscape:window-x="-8"
     inkscape:window-y="-8"
     inkscape:window-maximized="1"
     inkscape:current-layer="layer1"><inkscape:page
       x="0"
       y="0"
       width="38.549999"
       height="41.919998"
       id="page42"
       margin="0"
       bleed="0" /></sodipodi:namedview><defs
     id="defs1"><inkscape:path-effect
       effect="powerstroke"
       id="path-effect13"
       is_visible="true"
       lpeversion="1.3"
       scale_width="1"
       interpolator_type="CubicBezierJohan"
       interpolator_beta="0.2"
       start_linecap_type="zerowidth"
       end_linecap_type="zerowidth"
       offset_points="5,4.9921382"
       linejoin_type="extrp_arc"
       miter_limit="4"
       not_jump="false"
       sort_points="true"
       message="&lt;b&gt;Ctrl + click&lt;/b&gt; on existing node and move it" /></defs><g
     inkscape:label="Layer 1"
     inkscape:groupmode="layer"
     id="layer1"
     transform="translate(-84.724993,-165.64)"><path
       style="display:inline;fill:#fff29e;fill-opacity:1;fill-rule:evenodd;stroke:none;stroke-width:0.360263;stroke-linecap:round;stroke-linejoin:round;paint-order:stroke fill markers"
       d="m 104,170 9.06496,2.94538 L 117.34999,200 H 90.649996 l 4.285031,-27.05461 z"
       id="path13"
       sodipodi:nodetypes="cccccc" /><path
       style="display:inline;fill:#938e5e;fill-opacity:1;fill-rule:evenodd;stroke:none;stroke-width:0.372309;stroke-linecap:round;stroke-linejoin:round;stroke-dasharray:none;stroke-opacity:1;paint-order:stroke fill markers"
       d="m 90.649998,200 -3e-6,3.2 H 117.34999 V 200 Z"
       id="path45" /><path
       id="path5"
       style="fill:#000000;stroke-width:0.476587"
       d="m 102.90429,176.55323 c -0.18137,0.0472 -0.23271,0.25214 -0.11009,0.60388 0.32573,0.93442 -0.10276,1.59042 -3.230005,4.94487 -2.106156,2.25919 -2.585539,2.73528 -3.480469,3.45609 -0.450799,0.36309 -0.893456,0.72043 -0.983655,0.79402 -0.132115,0.10776 -0.133058,0.17074 -0.0051,0.32485 0.35682,0.42993 1.995358,-0.16568 2.737282,-0.8829 0.741924,-0.71721 1.473374,-1.38394 2.289107,-2.19884 0.81573,-0.8149 1.58864,-1.57356 1.71758,-1.68581 0.12894,-0.11226 0.51817,-0.53248 0.86494,-0.93391 0.34676,-0.40142 0.77918,-0.89971 0.96075,-1.10728 l 0.33002,-0.37731 0.89155,0.72013 c 1.32084,1.06719 0.38209,0.45263 2.29412,2.02839 0.72822,0.60013 1.75862,1.52669 2.2897,2.05893 1.01814,1.02033 1.63845,1.53508 1.86791,1.71624 0.22945,0.18116 1.39559,0.26633 1.52784,0.0575 0.40358,-0.63733 -0.13221,-1.75594 -1.21319,-2.53252 -0.31948,-0.22952 -0.76112,-0.56304 -0.98168,-0.74132 -0.22056,-0.17827 -0.90068,-0.59151 -1.5112,-0.91839 -1.38099,-0.73941 -3.55664,-2.20242 -4.05998,-2.73004 -0.35134,-0.3683 -0.36257,-0.40796 -0.15761,-0.55857 0.40551,-0.29799 0.26312,-0.69931 -0.46154,-1.30086 -0.10444,-0.0867 -0.22594,-0.15763 -0.27017,-0.15763 -0.0442,0 -0.23115,-0.10609 -0.41524,-0.23569 -0.39798,-0.28021 -0.70943,-0.39093 -0.8908,-0.34382 z m 2.80737,7.08877 c -0.24756,0.016 -0.55311,0.0524 -0.92725,0.10712 -0.17339,0.0254 -0.31524,0.058 -0.31524,0.0724 0,0.0145 -0.11349,0.0457 -0.25219,0.0695 -0.13871,0.0237 -0.56429,0.10731 -0.94573,0.18571 -0.38145,0.0784 -1.19004,0.1163 -1.79688,0.0842 -0.62016,-0.0328 -1.10335,-0.008 -1.10335,0.0562 0,0.063 0.13935,0.25387 0.30957,0.4241 0.26438,0.26438 0.42759,0.30958 1.11937,0.30958 0.91718,0 1.02236,0.0774 1.13832,0.83834 l 0.0798,0.52311 -0.89376,0.0899 c -0.49151,0.0495 -1.38166,0.0492 -1.97816,-4.8e-4 l -1.084625,-0.0904 0.194566,0.29283 c 0.314543,0.47373 0.816879,0.78056 1.329679,0.81249 0.26341,0.0164 0.57808,0.0358 0.69945,0.0431 0.31351,0.0187 0.27566,0.17031 -0.16452,0.65807 -0.21189,0.2348 -0.44191,0.56645 -0.51128,0.73712 -0.32925,0.79436 0.31889,0.98223 0.82529,1.37155 l -0.34258,0.34258 c -0.18849,0.18849 -0.35823,0.36869 -0.5006,0.47617 -0.14236,0.10748 -1.09666,1.13604 -1.099995,1.3574 -0.0039,0.25018 0.290555,0.51389 0.938835,0.84106 0.2753,0.13894 0.55902,0.23339 0.63049,0.21009 0.75649,-0.2467 3.20686,-0.42609 4.919,-0.36032 2.30367,0.0885 2.49033,0.0789 2.70715,-0.13791 0.13812,-0.13813 0.15271,-0.26789 0.0601,-0.53123 -0.19943,-0.56708 -0.69193,-0.72022 -2.32344,-0.7226 -1.08774,-0.002 -1.48406,-0.0461 -1.58656,-0.17782 -0.1096,-0.14085 -0.13372,-0.70478 -0.0608,-1.42204 0.005,-0.0451 0.52094,-0.10183 1.14769,-0.12609 1.21609,-0.0471 1.48428,-0.18591 1.24003,-0.64231 -0.20083,-0.37523 -0.72473,-0.50419 -1.70033,-0.41868 l -0.89721,0.0786 -0.0788,-0.47656 c -0.0433,-0.2621 -0.0791,-0.65349 -0.08,-0.86962 l -0.002,-0.39282 1.23067,-0.0593 c 1.74068,-0.0838 2.19812,-0.39528 1.44888,-0.98636 -0.35064,-0.27663 -0.84572,-0.28711 -2.23822,-0.0478 -0.52655,0.0905 -0.82272,-0.17212 -0.90755,-0.80461 l -0.0715,-0.53147 0.48961,-0.0163 c 0.26921,-0.009 0.60285,-0.0301 0.74155,-0.0475 0.13871,-0.0174 0.50755,-0.0527 0.81964,-0.0786 0.61832,-0.0511 0.75175,-0.15325 0.7546,-0.57827 0.003,-0.37464 -0.21953,-0.51013 -0.96222,-0.46203 z m -2.9182,3.70532 c 0.14843,-0.002 0.36867,0.9928 0.32731,1.47745 l -0.0386,0.45242 -0.76594,0.0515 c -0.8918,0.0599 -1.1458,-0.10716 -0.94918,-0.62433 0.11099,-0.29191 1.22871,-1.35512 1.42647,-1.35702 z m 0.0946,2.73053 c 0.0898,-0.027 0.15154,-0.0252 0.17412,0.0118 0.12039,0.19751 0.23004,1.76844 0.12758,1.82792 -0.0592,0.0344 -0.57592,0.10191 -1.14842,0.15023 -0.86719,0.0732 -1.05313,0.0562 -1.11394,-0.10221 -0.0966,-0.25165 0.0264,-0.43448 0.70462,-1.04671 0.4659,-0.42055 0.98671,-0.76009 1.25604,-0.84104 z"
       inkscape:label="path1"
       sodipodi:nodetypes="sssssscssscccsscsssssssssscssscssssccccccscsscszcssssscsccsccccccsscccsccccccccsccscssssss" /></g></svg>
