<?xml version="1.0" encoding="UTF-8" standalone="no"?>
<!-- Created with Inkscape (http://www.inkscape.org/) -->

<svg
   viewBox="0 0 38.549999 41.919998"
   version="1.1"
   id="svg1"
   inkscape:version="1.3.2 (091e20e, 2023-11-25, custom)"
   sodipodi:docname="Kin.svg"
   xml:space="preserve"
   xmlns:inkscape="http://www.inkscape.org/namespaces/inkscape"
   xmlns:sodipodi="http://sodipodi.sourceforge.net/DTD/sodipodi-0.dtd"
   xmlns="http://www.w3.org/2000/svg"
   xmlns:svg="http://www.w3.org/2000/svg"><sodipodi:namedview
     id="namedview1"
     pagecolor="#ffffff"
     bordercolor="#111111"
     borderopacity="1"
     inkscape:showpageshadow="0"
     inkscape:pageopacity="0"
     inkscape:pagecheckerboard="1"
     inkscape:deskcolor="#d1d1d1"
     inkscape:document-units="mm"
     showguides="true"
     inkscape:zoom="13.096375"
     inkscape:cx="19.280144"
     inkscape:cy="20.883641"
     inkscape:window-width="1292"
     inkscape:window-height="745"
     inkscape:window-x="-8"
     inkscape:window-y="-8"
     inkscape:window-maximized="1"
     inkscape:current-layer="layer1"><inkscape:page
       x="0"
       y="0"
       width="38.549999"
       height="41.919998"
       id="page42"
       margin="0"
       bleed="0" /></sodipodi:namedview><defs
     id="defs1"><inkscape:path-effect
       effect="powerstroke"
       id="path-effect13"
       is_visible="true"
       lpeversion="1.3"
       scale_width="1"
       interpolator_type="CubicBezierJohan"
       interpolator_beta="0.2"
       start_linecap_type="zerowidth"
       end_linecap_type="zerowidth"
       offset_points="5,4.9921382"
       linejoin_type="extrp_arc"
       miter_limit="4"
       not_jump="false"
       sort_points="true"
       message="&lt;b&gt;Ctrl + click&lt;/b&gt; on existing node and move it" /></defs><g
     inkscape:label="Layer 1"
     inkscape:groupmode="layer"
     id="layer1"
     transform="translate(-84.724993,-165.64)"><path
       style="display:inline;fill:#fff29e;fill-opacity:1;fill-rule:evenodd;stroke:none;stroke-width:0.360263;stroke-linecap:round;stroke-linejoin:round;paint-order:stroke fill markers"
       d="m 104,170 9.06496,2.94538 L 117.34999,200 H 90.649996 l 4.285031,-27.05461 z"
       id="path13"
       sodipodi:nodetypes="cccccc" /><path
       style="display:inline;fill:#938e5e;fill-opacity:1;fill-rule:evenodd;stroke:none;stroke-width:0.372309;stroke-linecap:round;stroke-linejoin:round;stroke-dasharray:none;stroke-opacity:1;paint-order:stroke fill markers"
       d="m 90.649998,200 -3e-6,3.2 H 117.34999 V 200 Z"
       id="path45" /><path
       id="path2-3"
       style="display:inline;fill:#000000;stroke-width:0.664675"
       inkscape:label="path1"
       d="m 101.87098,176.751 c -0.0447,-0.003 -0.0761,8.3e-4 -0.0882,0.013 -0.0346,0.0346 0.0251,0.3916 0.13227,0.79359 0.28678,1.07437 -8.3e-4,1.79557 -1.56381,3.92642 -2.073328,2.82678 -3.364324,4.03365 -5.300929,4.94562 -2.09305,0.98566 -2.137342,1.28088 -0.171166,1.17482 2.103299,-0.11341 2.693527,-0.47163 5.077887,-3.08616 l 0.811718,-0.88955 0.94661,0.30603 c 0.68184,0.22068 1.00932,0.43792 1.17481,0.77543 0.12668,0.25773 0.18486,0.54083 0.12966,0.6302 -0.0558,0.0901 -0.80801,0.12632 -1.69348,0.0804 -1.432999,-0.0743 -1.590267,-0.0515 -1.537884,0.21785 0.03199,0.16477 0.375574,0.47811 0.762454,0.69763 0.6543,0.37121 1.35484,0.42319 2.14215,0.16079 0.43416,-0.14477 0.59605,0.52628 0.4357,1.80242 -0.0335,0.26725 -0.66447,0.29305 -0.82471,0.0337 -0.17137,-0.27726 -1.84464,-1.00669 -2.500047,-1.08923 -0.821857,-0.10347 -1.111814,0.31148 -1.283721,1.83872 -0.162663,1.44511 -0.0049,1.76691 0.995865,2.05399 0.439766,0.12614 0.688973,0.0643 1.400423,-0.34751 1.98916,-1.15122 1.69897,-1.11472 2.58823,-0.33196 0.43628,0.38404 0.86516,0.70021 0.9518,0.70021 0.20777,0 0.57831,-1.04746 0.57831,-1.63125 0,-0.27718 0.15667,-0.56938 0.3916,-0.73394 0.46125,-0.32305 1.36673,-0.36398 1.36673,-0.0622 0,0.11578 -0.32384,0.77638 -0.72097,1.47046 l -0.72097,1.26298 -1.25778,0.11931 c -2.93028,0.27649 -4.169324,0.30762 -4.709635,0.11929 -0.307953,-0.10729 -0.606085,-0.15118 -0.66132,-0.096 -0.121919,0.12191 1.160298,1.27786 1.652015,1.48863 0.49138,0.21067 1.21497,0.20598 1.42895,-0.008 0.25065,-0.25068 4.83496,-0.34445 6.2216,-0.12708 1.5126,0.23718 2.15448,0.19965 2.40666,-0.14522 0.44849,-0.61336 -0.4042,-1.26887 -1.85429,-1.42378 -0.44871,-0.048 -0.87512,-0.14136 -0.94658,-0.21009 -0.0715,-0.0686 0.0879,-0.36916 0.3527,-0.66648 1.14315,-1.28295 1.19276,-1.8116 0.2308,-2.44819 -0.65625,-0.4343 -1.3597,-0.53895 -2.56227,-0.38382 -0.28947,0.0372 -0.36223,-0.0719 -0.40717,-0.61464 l -0.0545,-0.65872 h 1.39524 c 1.04642,0 1.4539,-0.068 1.6235,-0.27232 0.18712,-0.22543 0.17274,-0.32593 -0.0752,-0.57314 -0.23453,-0.23394 -0.62152,-0.29825 -1.77908,-0.29825 -1.27336,0 -1.516,-0.0499 -1.74535,-0.35269 -0.43846,-0.57867 -0.32598,-0.73209 0.55757,-0.76247 0.82519,-0.0284 1.80516,-0.31708 1.79985,-0.53165 -0.0156,-0.64354 -0.75099,-0.73577 -3.95497,-0.48755 l -1.9321,0.15041 0.53946,-0.5913 c 0.77293,-0.84347 1.65717,-2.11456 1.65717,-2.38333 0,-0.32912 0.18502,-0.28679 1.0218,0.18153 0.83676,0.46835 3.30477,2.30378 4.43214,3.28845 2.92363,2.55347 5.74454,3.84396 5.8222,2.66342 0.0762,-1.15776 -0.59279,-2.06975 -2.21996,-3.03687 -0.48361,-0.28744 -0.99601,-0.59583 -1.1411,-0.68465 -0.14508,-0.0888 -1.82679,-0.92529 -3.73709,-1.85949 l -3.47517,-1.69866 v -0.75209 c 0,-0.58622 -0.0856,-0.80817 -0.3942,-1.00881 -0.38713,-0.2518 -1.40143,-0.62477 -1.71424,-0.64838 z m -1.61049,11.69888 c 0.0467,8.2e-4 0.0948,0.008 0.14782,0.0207 0.14127,0.0332 0.30569,0.10641 0.49014,0.22043 0.34127,0.21092 0.61982,0.4147 0.61982,0.45384 0,0.0392 -0.28764,0.19335 -0.63797,0.33975 -0.922453,0.38542 -1.120342,0.34153 -1.120342,-0.24119 0,-0.53414 0.173497,-0.8018 0.500532,-0.7936 z" /></g></svg>
