<?xml version="1.0" encoding="UTF-8" standalone="no"?>
<!-- Created with Inkscape (http://www.inkscape.org/) -->

<svg
   viewBox="0 0 38.549999 41.919998"
   version="1.1"
   id="svg1"
   inkscape:version="1.3.2 (091e20e, 2023-11-25, custom)"
   sodipodi:docname="Gyoku.svg"
   xml:space="preserve"
   xmlns:inkscape="http://www.inkscape.org/namespaces/inkscape"
   xmlns:sodipodi="http://sodipodi.sourceforge.net/DTD/sodipodi-0.dtd"
   xmlns="http://www.w3.org/2000/svg"
   xmlns:svg="http://www.w3.org/2000/svg"><sodipodi:namedview
     id="namedview1"
     pagecolor="#ffffff"
     bordercolor="#111111"
     borderopacity="1"
     inkscape:showpageshadow="0"
     inkscape:pageopacity="0"
     inkscape:pagecheckerboard="1"
     inkscape:deskcolor="#d1d1d1"
     inkscape:document-units="mm"
     showguides="true"
     inkscape:zoom="13.096375"
     inkscape:cx="19.280145"
     inkscape:cy="20.959999"
     inkscape:window-width="1292"
     inkscape:window-height="745"
     inkscape:window-x="-8"
     inkscape:window-y="-8"
     inkscape:window-maximized="1"
     inkscape:current-layer="layer1"><inkscape:page
       x="0"
       y="0"
       width="38.549999"
       height="41.919998"
       id="page42"
       margin="0"
       bleed="0" /></sodipodi:namedview><defs
     id="defs1"><inkscape:path-effect
       effect="powerstroke"
       id="path-effect13"
       is_visible="true"
       lpeversion="1.3"
       scale_width="1"
       interpolator_type="CubicBezierJohan"
       interpolator_beta="0.2"
       start_linecap_type="zerowidth"
       end_linecap_type="zerowidth"
       offset_points="5,4.9921382"
       linejoin_type="extrp_arc"
       miter_limit="4"
       not_jump="false"
       sort_points="true"
       message="&lt;b&gt;Ctrl + click&lt;/b&gt; on existing node and move it" /></defs><g
     inkscape:label="Layer 1"
     inkscape:groupmode="layer"
     id="layer1"
     transform="translate(-85.724998,-164.64)"><path
       style="fill:#fff29e;fill-opacity:1;fill-rule:evenodd;stroke:none;stroke-width:0.385762;stroke-linecap:round;stroke-linejoin:round;paint-order:stroke fill markers"
       d="m 105,168 9.78527,3.17942 L 119.35,200 H 90.649996 l 4.56473,-28.82058 z"
       id="path13" /><path
       style="display:inline;fill:#938e5e;fill-opacity:1;fill-rule:evenodd;stroke:none;stroke-width:0.386001;stroke-linecap:round;stroke-linejoin:round;stroke-dasharray:none;stroke-opacity:1;paint-order:stroke fill markers"
       d="m 90.649998,200 -3e-6,3.2 H 119.35 V 200 Z"
       id="path45" /><path
       id="path2"
       style="fill:#000000;stroke-width:0.707883"
       inkscape:label="path1"
       d="m 110.15461,177.37775 c -0.4014,-0.009 -0.81418,0.0709 -1.29463,0.24027 -0.39923,0.14082 -1.6094,0.35335 -2.69102,0.47488 -1.08163,0.12157 -2.34618,0.26659 -2.80973,0.31943 -0.46356,0.0528 -1.33836,0.18147 -1.94477,0.28549 -0.60639,0.10406 -2.166226,0.16857 -3.465526,0.14416 -1.591939,-0.0298 -2.36312,0.0194 -2.36312,0.15546 0,0.25145 1.34607,1.34019 1.93911,1.56883 0.2764,0.10652 0.72085,0.0947 1.19852,-0.0339 0.41791,-0.11246 1.429606,-0.31086 2.247226,-0.44097 1.68267,-0.26775 1.87028,-0.16071 1.38226,0.783 -0.15629,0.30223 -0.34415,0.98843 -0.41552,1.52641 -0.0714,0.53797 -0.25086,1.09886 -0.39857,1.24657 -0.26682,0.26681 -1.43533,0.37846 -3.001946,0.2855 -0.92965,-0.0551 -0.98219,0.10872 -0.29116,0.92999 l 0.50598,0.60208 1.551856,-0.11024 1.55468,-0.11024 0.11306,0.50598 c 0.0622,0.27821 0.18607,0.79868 0.27703,1.15612 0.20118,0.7905 0.0523,0.96991 -0.89041,1.06283 -0.39348,0.0388 -1.13574,0.1678 -1.650796,0.28833 -1.38499,0.32406 -3.971446,0.29041 -4.918449,-0.065 -0.540184,-0.20278 -0.792189,-0.23165 -0.788649,-0.0876 0.0064,0.25043 0.760095,1.09242 1.741246,1.94476 0.825715,0.7173 0.865822,0.72305 2.298102,0.22896 3.900376,-1.34544 7.780406,-1.87146 11.255906,-1.52358 1.21611,0.12171 2.95777,0.3782 3.86975,0.57099 1.86959,0.39525 2.22722,0.35748 2.64296,-0.27702 0.27022,-0.4124 0.26443,-0.4733 -0.0763,-0.81409 -0.20273,-0.20271 -0.77232,-0.56063 -1.26636,-0.79713 -0.83738,-0.40086 -1.13434,-0.42965 -4.38139,-0.42965 h -3.48531 l 0.0198,-1.21831 0.017,-1.21831 1.72429,-0.0933 c 1.93924,-0.10536 2.26292,-0.26912 1.81191,-0.91302 -0.28103,-0.40124 -0.40842,-0.42382 -2.00978,-0.37312 l -1.71299,0.0537 -0.22047,-1.48968 c -0.12128,-0.81993 -0.22691,-1.63324 -0.23462,-1.80625 -0.013,-0.27929 0.31338,-0.32268 2.90584,-0.37596 2.7923,-0.0575 2.93748,-0.0766 3.27332,-0.49184 0.4499,-0.55628 0.21786,-0.97288 -0.78582,-1.4077 -0.44047,-0.19082 -0.83103,-0.28744 -1.23244,-0.2968 z m 2.54686,4.08458 c -0.31236,-8e-5 -0.5399,0.0577 -0.5399,0.18656 0,0.0925 0.43788,0.80822 0.97237,1.59143 0.69429,1.01735 1.08276,1.42466 1.3653,1.42466 1.20361,0 1.07164,-1.78751 -0.20634,-2.79278 -0.2535,-0.19942 -0.78534,-0.34095 -1.25506,-0.39008 -0.11743,-0.0123 -0.23225,-0.0198 -0.33637,-0.0198 z" /><path
       d="m -200.85811,99.592881 q -0.0518,0.02592 -0.15874,0.05507 -0.0713,0.02916 -0.20411,0.113391 -0.0356,0.03564 -0.11339,0.09395 -0.0194,0.01296 -0.13931,0.03888 -0.0227,0.0065 -0.11663,0.0486 0.081,-0.09071 0.22679,-0.262419 0.11663,-0.149027 0.10691,-0.210582 l 0.11015,-0.103672 0.32397,0.106911 z m -0.57667,0.949239 q 0.26242,-0.10691 0.55724,-0.28185 l 0.10043,0.0292 0.0583,-0.0227 q 0.003,-0.0324 0.0324,-0.13607 0.0259,-0.0842 0.0227,-0.139312 -0.081,-0.03564 -0.21058,-0.03564 -0.12959,0 -0.31102,0.05508 -0.17818,0.0551 -0.29481,0.12959 0.0486,0.32397 0.0486,0.34017 0,0.0259 -0.003,0.0615 z m 1.17927,0.49568 0.006,0.0162 q 0.003,0.0194 0.003,0.0259 0,0.01 -0.013,0.0907 l 0.01,0.0324 q 0.006,0.0259 0.006,0.0356 0,0.0324 -0.006,0.10367 -0.006,0.068 -0.006,0.10367 0,0.0583 -0.068,0.16199 -0.0583,0.0842 -0.11015,0.13283 -0.16847,0.1555 -0.31425,0.1555 -0.0745,0 -0.22355,-0.0972 -0.006,0.43737 -0.14254,0.59287 -0.081,-0.30453 -0.10044,-0.90064 l -0.23326,-0.29158 0.22678,0.12959 q 0.006,-0.094 0.0356,-0.28186 l -0.01,-0.0745 q -0.20734,0.11339 -0.27214,0.18466 -0.10043,0.10691 -0.12311,0.30778 -0.0129,0.14255 -0.0875,0.24946 l -0.0842,-0.19763 q 0.0194,-0.10691 0.0778,-0.28833 0.068,-0.21706 0.11339,-0.2689 l 0.0324,0.0227 q -0.0292,0.0421 -0.0292,0.10043 0,0.013 0.003,0.0259 0.15875,-0.16199 0.17819,-0.18143 0.11015,-0.10043 0.2041,-0.14579 0.006,-0.0453 0.006,-0.0551 0,-0.0551 -0.0259,-0.0713 l -0.094,0.0194 q -0.01,-0.0453 -0.0486,-0.0518 -0.0356,-0.01 -0.0745,-0.013 -0.0259,-0.006 -0.0486,-0.0324 l -0.0518,0.0583 q -0.0842,-0.0648 -0.10691,-0.13607 -0.01,-0.0389 -0.01,-0.16847 0,-0.01 -0.003,-0.0356 -0.003,-0.0259 -0.003,-0.0389 0,-0.0907 0.0518,-0.21707 l 0.0713,0.0356 q 0.0778,-0.0356 0.21706,-0.132828 0.14255,-0.09719 0.2203,-0.129589 0.094,-0.03888 0.25594,-0.06479 0.19439,-0.0324 0.25918,-0.05184 l 0.18467,0.113391 0.0745,0.0032 q 0.0518,0.11987 0.0518,0.139308 0,0.05508 -0.0778,0.132828 -0.0486,0.0454 -0.0778,0.12959 -0.0389,0.11987 -0.0518,0.14255 -0.0324,0.0486 -0.0713,0.16522 -0.0486,0.003 -0.0778,0.003 -0.0648,0 -0.0907,-0.013 -0.19114,0.0162 -0.30777,0.081 l 0.0648,0.0324 -0.006,0.0324 q 0.24946,-0.0615 0.40173,-0.0615 0.0454,0 0.12635,0.0486 0.081,0.0454 0.094,0.094 0.0292,0.013 0.0583,0.0227 0.0194,0.01 0.0421,0.0551 l -0.013,0.0486 0.0324,0.0583 z m -0.51836,-0.21382 q -0.0389,0 -0.16847,0.0551 -0.0324,0.22354 -0.0324,0.38552 0,0.0162 0.0162,0.21059 0.0616,0.0389 0.19763,0.10691 0.14902,-0.0389 0.20086,-0.23002 0.0259,-0.10367 0.0259,-0.32722 0,-0.0875 -0.0713,-0.14254 -0.0713,-0.0583 -0.16846,-0.0583 z m -0.0356,-0.64147 -0.46328,0.11987 -0.13607,-0.0745 q 0.0518,-0.0518 0.17819,-0.11339 0.12958,-0.0616 0.18466,-0.11339 0.0194,0 0.0486,0 0.0292,0 0.0421,0 0.10043,0 0.17171,0.0551 z m -1.31533,-0.265656 q 0.0162,0 0.0551,-0.01944 0.0389,-0.01944 0.0518,-0.01944 0.21382,0 0.33369,0.123116 l 0.01,0.0648 q -0.0259,0.11987 -0.11015,0.11987 -0.0259,0 -0.068,-0.0194 -0.0389,-0.0194 -0.0583,-0.0194 -0.01,0 -0.0259,0.01 -0.0875,-0.0291 -0.2203,-0.165225 -0.12311,0.136075 -0.21058,0.382295 0.12635,-0.0518 0.19762,-0.15227 0.0227,0 0.0551,-0.003 0.0324,-0.003 0.0453,-0.003 0.0842,0 0.14903,0.0551 0.006,0.0291 0.006,0.0486 0,0.0583 -0.0648,0.0907 -0.0616,0.0292 -0.11987,0.0518 l 0.094,0.0648 -0.0259,0.068 q -0.01,0.003 -0.01,0.006 0,0.0194 0.0227,0.0194 0.003,0 0.0907,-0.013 l 0.10691,0.0292 0.013,0.0777 q -0.0389,0.0615 -0.18466,0.0939 -0.11339,0.0259 -0.11339,0.16199 0,0.0324 0.006,0.0648 l 0.0907,0.0292 0.0939,-0.0875 q -0.0324,0.19438 -0.11987,0.36285 -0.0518,0.0875 -0.14903,0.27862 -0.0454,0.10367 -0.0972,0.21382 -0.0486,0.11015 -0.12635,0.19438 -0.10367,-0.10367 -0.11339,-0.20086 l 0.0324,-0.11339 q -0.0616,-0.0454 -0.12311,-0.0907 -0.0745,-0.0486 -0.14903,-0.0421 -0.006,-0.14255 -0.006,-0.12311 0,-0.10043 0.24622,-0.23326 0.24946,-0.13607 0.24946,-0.20411 0,-0.0162 -0.006,-0.0551 -0.0842,0.013 -0.33693,0.15227 -0.068,0.0356 -0.14579,0.0648 0,-0.0356 -0.006,-0.0583 -0.003,-0.0259 -0.003,-0.0421 0,-0.0713 0.0713,-0.15551 l 0.0745,-0.0324 q 0.0162,0.01 0.0227,0.01 0.0551,0 0.31101,-0.14902 0.0518,-0.0292 0.0518,-0.0972 0,-0.10367 -0.0616,-0.13606 -0.0713,-0.0292 -0.14255,-0.0616 -0.0421,0.0292 -0.24946,0.33045 -0.22678,0.32398 -0.31749,0.34342 l -0.0421,-0.17495 q 0.013,-0.12959 0.13283,-0.24946 0,0.0713 0.0194,0.0842 0.19439,-0.21706 0.37257,-0.53455 0.10043,-0.18467 0.28834,-0.586399 l -0.0745,-0.06479 0.16523,-0.100432 q 0.081,0.03564 0.13283,0.01944 l 0.11339,0.05508 -0.0648,0.106911 q -0.0551,0.02592 -0.0907,0.09719 -0.0356,0.06803 -0.068,0.132829 z m -0.19115,1.389846 q -0.0713,0.0162 -0.10043,0.0292 -0.0616,0.0259 -0.0745,0.068 l 0.0615,0.0356 q 0.0421,-0.01 0.0778,-0.0486 0.0356,-0.0421 0.0356,-0.0842 z m 1.4676,7.76889 q 0,-0.0227 -0.0259,-0.13283 l -0.003,-0.0162 q -0.11987,0.0292 -0.2365,0.0616 -0.13931,0.0583 -0.13931,0.1717 v 0.006 l 0.2527,-0.14579 z m -0.0259,0.25594 q 0.01,-0.10691 0.0259,-0.24298 l -0.0583,0.0583 q -0.0713,0.003 -0.18467,0.081 -0.11015,0.0745 -0.16846,0.0777 -0.0324,0.0421 -0.0324,0.0842 0,0.013 0.003,0.0227 l 0.3013,-0.13283 q 0.0324,0.006 0.0615,0.013 0.0292,0.006 0.0518,0.0389 z m 0.27213,-0.64147 q 0.013,0 0.0778,-0.0292 0.26242,0 0.35637,0.14903 -0.0583,0.006 -0.11987,0.0356 -0.0583,0.0292 -0.0875,0.0292 -0.013,0 -0.1134,-0.013 l -0.12634,0.0356 q -0.0194,0.17495 -0.0194,0.37257 0,0.0162 0.003,0.0486 0.006,0.0292 0.006,0.0454 0,0.01 -0.01,0.12959 l 0.013,0.0324 0.0518,0.01 0.12959,-0.0453 0.34017,0.16846 -0.013,0.0292 q 0,0.0194 -0.006,0.0454 l -0.0259,0.0324 q -0.0551,-0.003 -0.10367,0.0162 -0.0713,0.0356 -0.19763,0.0939 -0.068,0.0194 -0.13607,0.0389 -0.081,0.0259 -0.11987,0.0713 0.0227,0.0162 0.16523,0.0842 0.12311,0.0583 0.17494,0.23002 0.013,0.0421 0.01,0.0972 l -0.12311,0.12635 h -0.10691 q -0.16846,-0.16199 -0.39525,-0.1717 l 0.21383,-0.12635 0.0162,-0.0551 q -0.0259,-0.0842 -0.15227,-0.16199 l -0.17495,0.0778 q 0.0421,-0.0745 0.0778,-0.10367 0.013,-0.013 0.11015,-0.0713 0.0972,-0.0615 0.13607,-0.11987 -0.12311,0.003 -0.23003,0.0356 -0.14902,0.0486 -0.36609,0.14255 -0.25269,0.11015 -0.34989,0.18466 -0.0518,-0.0162 -0.081,-0.0486 -0.0292,-0.0356 -0.0583,-0.068 0.006,-0.0777 0.0648,-0.10043 0.0324,-0.013 0.12311,-0.013 l 0.7581,-0.31749 q 0.006,-0.14579 0.013,-0.25594 -0.0713,0.0583 -0.25594,0.17818 -0.16199,0.10367 -0.26566,0.20735 l -0.0518,-0.17495 0.0194,-0.0745 -0.003,-0.0194 q -0.003,-0.0162 -0.003,-0.0259 0,-0.0486 0.013,-0.14255 0.0162,-0.094 0.0162,-0.14255 0,-0.01 0,-0.0194 -0.13283,0.0486 -0.27538,0.16199 -0.0616,-0.0907 -0.0616,-0.12635 0,-0.0227 0.013,-0.0486 0.0907,-0.0292 0.22678,-0.17171 0.10367,-0.11015 0.20734,-0.2203 l 0.31102,-0.29482 -0.40173,0.17495 -0.10043,-0.15875 0.013,-0.0907 q 0.2041,-0.23326 0.26889,-0.48272 l -0.14255,-0.12959 0.19115,-0.0907 0.21382,0.0972 0.0356,0.0648 q -0.0454,0.15551 -0.16523,0.38229 0.12311,-0.0454 0.38553,-0.14255 l 0.26242,0.11339 -0.3013,0.27862 0.10368,0.0583 z m -0.29481,-0.11339 q -0.20087,0.0972 -0.33046,0.23974 l 0.003,0.0486 q 0.0616,-0.0292 0.19115,-0.068 0.13283,-0.0389 0.19438,-0.0713 0.006,-0.13931 -0.0583,-0.14903 z m -0.52484,0.40173 q 0.0389,-0.0227 0.0648,-0.0583 h -0.003 z m 0.29158,0.46328 q -0.0194,0 -0.0713,0.0259 -0.0518,0.0259 -0.081,0.0292 l -0.01,0.0875 q 0.0356,-0.0162 0.0907,-0.068 0.0583,-0.0518 0.081,-0.0713 -0.003,-0.003 -0.01,-0.003 z m -0.87473,-1.06587 q -0.0421,0.0162 -0.11987,0.0551 -0.16523,0.0875 -0.32722,0.11663 l 0.18143,-0.2527 q -0.006,-0.0292 -0.0648,-0.0939 -0.0486,-0.0551 -0.0486,-0.10043 0,-0.0194 0.01,-0.0454 0.0227,-0.013 0.0389,-0.013 0.0194,0 0.0486,0.0292 l 0.10043,-0.0292 q 0.0356,0.0292 0.19115,0.0972 0.0324,0.013 0.12311,0.0842 l 0.0194,0.11015 q -0.0842,0.013 -0.15227,0.0421 z m 0.0875,0.39524 q -0.013,0.0194 -0.12635,0.11987 -0.0875,0.0778 -0.0875,0.12959 0,0.013 0.013,0.0292 l 0.0551,-0.013 q 0.013,0.006 0.12959,0.068 0.0778,0.0356 0.11987,0.0875 0.0324,0.19762 0.0324,0.2689 0,0.0227 -0.0227,0.0972 -0.0194,0.0713 -0.0194,0.11663 0,0.0616 -0.0939,0.25918 -0.24298,0.51188 -0.55399,0.51188 -0.0227,0 -0.0616,-0.006 l -0.0875,-0.21706 0.0194,-0.10368 q 0,-0.0389 -0.013,-0.10367 -0.068,0.0551 -0.20087,0.16523 -0.0421,0.0324 -0.10367,0.0648 l -0.0356,-0.14902 q 0.0486,-0.12311 0.1555,-0.28186 0.0875,-0.12959 0.17819,-0.26242 0.13931,-0.22678 0.22354,-0.51188 l 0.15227,0.0907 q 0,0.14255 -0.0518,0.26566 -0.0616,0.11663 -0.12311,0.23326 -0.0389,0.0778 -0.0551,0.14255 0.0194,0.081 0.0421,0.16523 0.0292,0.094 0.0713,0.14903 0.27213,-0.20411 0.33693,-0.73866 -0.006,-0.0454 -0.0162,-0.0875 -0.006,-0.0421 -0.0616,-0.0745 -0.0648,-0.0356 -0.0842,-0.0551 -0.0324,-0.0292 -0.0324,-0.094 0,-0.003 0.003,-0.0259 l 0.1555,-0.26241 q -0.006,0 -0.013,0 -0.0583,0 -0.13283,0.0356 -0.18142,0.068 -0.53455,0.2203 -0.0713,0.0259 -0.20087,0.0875 -0.0616,0.0324 -0.0972,0.10367 -0.0615,-0.0356 -0.0615,-0.0875 0,-0.006 0.003,-0.0162 l 0.003,-0.006 q -0.0162,-0.11015 0.13607,-0.15227 l 0.0291,0.0421 q 0.27214,-0.12959 0.54104,-0.26242 0.32397,-0.15551 0.55399,-0.23326 l 0.2527,0.0648 v 0.0778 z m 0.56372,1.48056 q -0.013,0.0259 -0.013,0.0389 0,0.01 0.0194,0.0421 -0.0518,0.0194 -0.0518,0.0486 0,0.0227 0.0227,0.0583 -0.0194,0.0194 -0.0907,0.13931 -0.0162,0.0259 -0.0421,0.0551 -0.16199,-0.0615 -0.18467,-0.25918 l 0.0389,-0.0842 v -0.0972 l 0.15227,0.094 0.0518,-0.0162 0.20735,-0.18466 z"
       id="text1"
       style="font-size:3.31749px;line-height:0;font-family:HakusyuGyosyoBold;-inkscape-font-specification:HakusyuGyosyoBold;text-align:center;writing-mode:vertical-lr;text-anchor:middle;stroke-width:0.235098;stroke-linecap:round;stroke-linejoin:round"
       transform="rotate(-90)"
       aria-label="錦   旗"
       inkscape:label="path2" /></g></svg>
