<?xml version="1.0" encoding="UTF-8" standalone="no"?>
<!-- Created with Inkscape (http://www.inkscape.org/) -->

<svg
   viewBox="0 0 38.549999 41.919998"
   version="1.1"
   id="svg1"
   inkscape:version="1.3.2 (091e20e, 2023-11-25, custom)"
   sodipodi:docname="Kyo.svg"
   xml:space="preserve"
   xmlns:inkscape="http://www.inkscape.org/namespaces/inkscape"
   xmlns:sodipodi="http://sodipodi.sourceforge.net/DTD/sodipodi-0.dtd"
   xmlns="http://www.w3.org/2000/svg"
   xmlns:svg="http://www.w3.org/2000/svg"><sodipodi:namedview
     id="namedview1"
     pagecolor="#ffffff"
     bordercolor="#111111"
     borderopacity="1"
     inkscape:showpageshadow="0"
     inkscape:pageopacity="0"
     inkscape:pagecheckerboard="1"
     inkscape:deskcolor="#d1d1d1"
     inkscape:document-units="mm"
     showguides="true"
     inkscape:zoom="13.096375"
     inkscape:cx="19.280144"
     inkscape:cy="20.883641"
     inkscape:window-width="1292"
     inkscape:window-height="745"
     inkscape:window-x="-8"
     inkscape:window-y="-8"
     inkscape:window-maximized="1"
     inkscape:current-layer="layer1"><inkscape:page
       x="0"
       y="0"
       width="38.549999"
       height="41.919998"
       id="page42"
       margin="0"
       bleed="0" /></sodipodi:namedview><defs
     id="defs1"><inkscape:path-effect
       effect="powerstroke"
       id="path-effect13"
       is_visible="true"
       lpeversion="1.3"
       scale_width="1"
       interpolator_type="CubicBezierJohan"
       interpolator_beta="0.2"
       start_linecap_type="zerowidth"
       end_linecap_type="zerowidth"
       offset_points="5,4.9921382"
       linejoin_type="extrp_arc"
       miter_limit="4"
       not_jump="false"
       sort_points="true"
       message="&lt;b&gt;Ctrl + click&lt;/b&gt; on existing node and move it" /></defs><g
     inkscape:label="Layer 1"
     inkscape:groupmode="layer"
     id="layer1"
     transform="matrix(0.81881518,0,0,1,-66.700592,-166.64)"><path
       style="fill:#fff29e;fill-opacity:1;fill-rule:evenodd;stroke:none;stroke-width:0.360847;stroke-linecap:round;stroke-linejoin:round;paint-order:stroke fill markers"
       d="m 105,172 9.78527,2.78199 L 119.35,200 H 90.649995 l 4.56473,-25.21801 z"
       id="path13" /><path
       style="display:inline;fill:#938e5e;fill-opacity:1;fill-rule:evenodd;stroke:none;stroke-width:0.386001;stroke-linecap:round;stroke-linejoin:round;stroke-dasharray:none;stroke-opacity:1;paint-order:stroke fill markers"
       d="m 90.649998,200 -3e-6,3.2 H 119.35 V 200 Z"
       id="path45" /><path
       id="path1-3"
       style="display:inline;fill:#000000;stroke-width:0.715687"
       d="m 104.49969,178.38815 0.04,0.75661 c 0.0289,0.54268 -0.0751,0.862 -0.37029,1.13356 -0.53474,0.49204 -2.33882,1.18352 -3.0957,1.18548 -0.38155,0.001 -0.56414,0.0779 -0.50703,0.21576 0.0967,0.23307 1.27616,0.24973 2.90887,0.0411 0.83728,-0.10696 1.00233,-0.0785 1.18758,0.20488 0.40962,0.62671 0.0392,0.72437 -2.95225,0.77572 -2.108029,0.0362 -2.868645,0.1064 -2.868868,0.26223 -4.47e-4,0.32825 1.557808,1.05539 2.335118,1.08986 0.71366,0.0317 2.72423,-0.14373 3.34923,-0.29227 0.51843,-0.1232 0.66334,0.48706 0.29023,1.21824 -0.29285,0.57389 -0.37256,0.6175 -0.95074,0.51352 -0.96691,-0.1739 -0.76851,0.12942 0.73057,1.12536 0.74811,0.497 1.35771,0.96837 1.35771,1.04615 0,0.13888 -0.97856,0.20134 -3.43264,0.21852 -0.68074,0.004 -1.26994,0.0859 -1.30765,0.18029 -0.0378,0.0943 0.24833,0.34859 0.63714,0.56539 0.79135,0.44127 2.36523,0.52293 5.04719,0.26223 0.80567,-0.0783 1.88724,-0.1045 2.40517,-0.0573 l 0.94072,0.0848 0.0701,0.85769 c 0.0373,0.4712 -0.0359,1.13797 -0.16011,1.48045 -0.22333,0.61575 -0.24226,0.62259 -1.63792,0.75388 -0.77628,0.0729 -1.83387,0.15078 -2.3518,0.17209 -0.51794,0.0212 -1.5065,0.061 -2.19501,0.09 l -1.25096,0.0547 -0.15678,-0.75116 c -0.17849,-0.85609 -0.10028,-1.00084 0.36362,-0.6856 0.29903,0.2032 3.38403,0.25949 5.12391,0.0929 0.28772,-0.0277 0.66134,-0.0604 0.83397,-0.0738 0.65145,-0.0508 0.89721,-0.29921 0.65717,-0.66648 -0.41246,-0.63104 -1.27583,-0.73121 -3.95303,-0.45888 -1.35105,0.13748 -2.71108,0.29842 -3.02229,0.35509 -0.48217,0.0878 -0.58766,0.0351 -0.70388,-0.34416 -0.16312,-0.53221 -1.35128,-1.42803 -2.098289,-1.58153 -0.859604,-0.17667 -1.041122,0.14843 -0.557084,0.99426 1.325933,2.31693 1.254883,4.12173 2.111613,4.30753 0.19154,0.0416 0.41232,0.0848 0.49038,0.0955 0.19673,0.0277 0.80061,-0.48314 0.80061,-0.67741 0,-0.25594 0.4146,-0.18562 1.03745,0.17755 0.53296,0.31073 0.85587,0.33448 4.04978,0.27314 2.94838,-0.0567 3.55179,-0.11573 4.00305,-0.3824 0.59273,-0.35022 1.12722,-1.54685 1.29099,-2.88444 0.13258,-1.0827 -0.37034,-1.8005 -1.63124,-2.32722 -0.80026,-0.33425 -1.09315,-0.36111 -2.85885,-0.25947 l -1.96484,0.11199 0.17347,-0.4753 c 0.0951,-0.26182 0.18242,-1.11247 0.19682,-1.89016 0.0144,-0.77771 0.0956,-1.47134 0.18014,-1.54055 0.0844,-0.0691 1.06173,-0.14462 2.17164,-0.16936 2.355,-0.0525 2.84907,-0.25683 2.29176,-0.95329 -0.41027,-0.51268 -1.43479,-0.66498 -3.25249,-0.48346 -1.22424,0.12223 -1.37258,0.10006 -2.03154,-0.30865 -0.3912,-0.2426 -0.71661,-0.49134 -0.72057,-0.55176 -0.004,-0.0605 0.37812,-0.2358 0.85065,-0.39061 2.07011,-0.67821 1.92464,-1.10854 -0.69719,-2.05679 z m 4.05309,5.83443 c -0.11879,0.003 -0.20024,0.0191 -0.23686,0.0492 -0.14874,0.12182 0.94208,0.94504 2.36182,1.75634 1.41974,0.81133 2.14126,1.22714 3.4393,1.83556 1.05689,0.49537 1.60783,0.54967 2.14497,0.21579 0.52301,-0.32508 0.45873,-0.61941 -0.30357,-1.37667 -0.46135,-0.4583 -1.22372,-0.8763 -2.43519,-1.34115 -1.29108,-0.4954 -3.41087,-0.99436 -4.51345,-1.11173 -0.18376,-0.0195 -0.3382,-0.0307 -0.45702,-0.0272 z m -8.2196,0.36601 c -0.10123,0.0112 -0.16958,0.0506 -0.20017,0.12565 -0.235259,0.57792 -2.072836,1.938 -3.165747,2.3436 -1.686004,0.62568 -1.914159,0.70307 -2.782127,0.92051 -0.431605,0.10808 -0.787268,0.30571 -0.787268,0.43975 0,0.34048 2.127054,0.32405 3.586074,-0.0272 1.413862,-0.3404 3.610508,-1.19546 3.963018,-1.54327 0.14738,-0.14541 0.53578,-0.37595 0.86067,-0.51352 0.73207,-0.30997 0.74561,-0.58337 0.0534,-1.0762 -0.63785,-0.4541 -1.22415,-0.70103 -1.52783,-0.66922 z" /></g></svg>
