<?xml version="1.0" encoding="UTF-8" standalone="no"?>
<!-- Created with Inkscape (http://www.inkscape.org/) -->

<svg
   viewBox="0 0 38.549999 41.919998"
   version="1.1"
   id="svg1"
   inkscape:version="1.3.2 (091e20e, 2023-11-25, custom)"
   sodipodi:docname="Narikei.svg"
   xml:space="preserve"
   xmlns:inkscape="http://www.inkscape.org/namespaces/inkscape"
   xmlns:sodipodi="http://sodipodi.sourceforge.net/DTD/sodipodi-0.dtd"
   xmlns="http://www.w3.org/2000/svg"
   xmlns:svg="http://www.w3.org/2000/svg"><sodipodi:namedview
     id="namedview1"
     pagecolor="#ffffff"
     bordercolor="#111111"
     borderopacity="1"
     inkscape:showpageshadow="0"
     inkscape:pageopacity="0"
     inkscape:pagecheckerboard="1"
     inkscape:deskcolor="#d1d1d1"
     inkscape:document-units="mm"
     showguides="true"
     inkscape:zoom="13.096375"
     inkscape:cx="19.280145"
     inkscape:cy="20.959999"
     inkscape:window-width="1292"
     inkscape:window-height="745"
     inkscape:window-x="-8"
     inkscape:window-y="-8"
     inkscape:window-maximized="1"
     inkscape:current-layer="layer1"><inkscape:page
       x="0"
       y="0"
       width="38.549999"
       height="41.919998"
       id="page42"
       margin="0"
       bleed="0" /></sodipodi:namedview><defs
     id="defs1"><inkscape:path-effect
       effect="powerstroke"
       id="path-effect13"
       is_visible="true"
       lpeversion="1.3"
       scale_width="1"
       interpolator_type="CubicBezierJohan"
       interpolator_beta="0.2"
       start_linecap_type="zerowidth"
       end_linecap_type="zerowidth"
       offset_points="5,4.9921382"
       linejoin_type="extrp_arc"
       miter_limit="4"
       not_jump="false"
       sort_points="true"
       message="&lt;b&gt;Ctrl + click&lt;/b&gt; on existing node and move it" /></defs><g
     inkscape:label="Layer 1"
     inkscape:groupmode="layer"
     id="layer1"
     transform="matrix(0.88850158,0,0,1,-74.017663,-166.14)"><path
       style="fill:#fff29e;fill-opacity:1;fill-rule:evenodd;stroke:none;stroke-width:0.367234;stroke-linecap:round;stroke-linejoin:round;paint-order:stroke fill markers"
       d="m 105,171 9.78527,2.88135 L 119.35,200 H 90.649994 l 4.56473,-26.11865 z"
       id="path13" /><path
       style="display:inline;fill:#938e5e;fill-opacity:1;fill-rule:evenodd;stroke:none;stroke-width:0.386001;stroke-linecap:round;stroke-linejoin:round;stroke-dasharray:none;stroke-opacity:1;paint-order:stroke fill markers"
       d="m 90.649998,200 -3e-6,3.2 H 119.35 V 200 Z"
       id="path45" /><path
       id="path1"
       style="display:inline;fill:#000000;stroke-width:0.625064"
       d="m 97.904612,178.67495 c -0.203127,0.008 -0.349159,0.0338 -0.383733,0.0835 -0.05439,0.0781 0.173209,0.36907 0.503813,0.64711 0.52861,0.44452 0.61554,0.63254 0.72571,1.55398 0.0689,0.5763 0.0823,1.11048 0.0287,1.18752 -0.0536,0.0771 -0.967378,0.19157 -2.030924,0.25281 -1.063546,0.0613 -1.934335,0.15057 -1.934335,0.19947 0,0.0489 0.310808,0.3412 0.691766,0.64943 1.218845,0.98619 1.159867,0.95979 1.707228,0.72829 0.273178,-0.11555 0.707595,-0.25273 0.968475,-0.30617 0.43401,-0.089 0.4849,-0.0507 0.59257,0.45924 0.11222,0.53127 0.0714,0.59408 -0.911045,1.36148 -0.566831,0.44271 -1.47717,1.2045 -2.020481,1.69083 -1.564578,1.40045 -2.000866,2.89933 -0.991967,3.40021 0.452065,0.22444 0.499358,0.21285 1.028513,-0.22962 0.305561,-0.25551 0.802342,-0.92071 1.104216,-1.47977 0.660765,-1.2237 1.705774,-2.54306 1.882134,-2.37736 0.0701,0.0658 0.15237,1.20929 0.18533,2.54205 0.0499,2.0171 0.11373,2.4961 0.37851,2.85514 0.38796,0.52602 0.824268,0.48487 1.143388,-0.10668 0.22767,-0.42206 0.23973,-0.99398 0.13834,-7.10891 l -0.0209,-1.15968 1.29999,-0.19483 c 0.71384,-0.10699 1.36278,-0.28572 1.44358,-0.39893 0.54444,-0.76293 -0.36668,-1.45778 -1.54539,-1.17825 -1.10942,0.2631 -1.23007,0.15053 -1.37308,-1.28494 -0.1051,-1.05441 -0.18826,-1.30001 -0.50121,-1.47513 -0.339438,-0.18995 -1.491738,-0.33423 -2.106628,-0.3108 z m 8.557028,0.22731 c -0.11684,-5e-5 -0.22862,0.003 -0.33675,0.0139 -0.28833,0.0279 -0.53891,0.0958 -0.70743,0.20642 -0.32749,0.21503 -0.31235,0.24759 0.39679,0.85585 0.74874,0.64224 0.90267,1.00663 0.95281,2.27067 0.0525,1.32418 0.0899,1.27852 -1.17209,1.39859 -0.63135,0.0601 -1.59764,0.13284 -2.14839,0.16235 -1.20036,0.0644 -1.35568,0.31795 -0.55864,0.91384 0.62321,0.46592 1.08613,0.49885 2.84016,0.19715 0.96028,-0.16504 1.19259,-0.16647 1.26346,-0.002 0.0805,0.1865 0.003,0.83773 -0.10965,0.91383 -0.2142,0.14539 -1.68911,0.3469 -2.76967,0.37806 -0.72215,0.0208 -1.34293,0.066 -1.38092,0.0997 -0.1277,0.11341 0.50432,0.84301 0.96063,1.10866 0.41693,0.24273 0.5613,0.24481 1.85603,0.0255 1.536,-0.26011 1.69219,-0.20104 1.4775,0.55896 -0.12337,0.43672 -0.67787,0.55955 -2.69396,0.58913 -0.83153,0.0122 -1.27129,0.0796 -1.27129,0.19714 0,0.20125 1.12077,1.21596 1.23996,1.12258 0.0419,-0.0328 0.69361,-0.10845 1.44879,-0.16699 1.36112,-0.10557 1.37236,-0.10242 1.31567,0.25281 -0.0513,0.32106 -0.20421,0.37722 -1.46185,0.54274 -0.77199,0.10153 -1.93558,0.18953 -2.58695,0.19482 -0.65137,0.005 -1.18514,0.0656 -1.18514,0.13221 0,0.21714 0.77078,0.72571 1.72811,1.14345 1.03135,0.45005 1.28515,0.43876 3.23434,-0.16003 1.80297,-0.55386 2.56486,-0.56303 6.96204,-0.0789 0.43014,0.0474 0.84321,0.12083 0.91888,0.16236 0.15147,0.0831 1.01808,-0.62965 1.01808,-0.8373 0,-0.0715 -0.21832,-0.36269 -0.48555,-0.64711 -0.55662,-0.59239 -0.76298,-0.61163 -4.20542,-0.40589 -1.76498,0.10545 -1.98094,0.0904 -2.08313,-0.14613 -0.18467,-0.4276 0.10531,-0.53077 1.75682,-0.62158 1.10679,-0.0608 1.65874,-0.16177 1.88736,-0.34559 0.88162,-0.7089 -0.0861,-1.17746 -2.03354,-0.98342 -0.75881,0.0755 -1.44744,0.10079 -1.52972,0.0557 -0.0823,-0.0451 -0.1488,-0.31671 -0.1488,-0.60303 v -0.51954 l 1.18254,-0.0951 c 0.65136,-0.0522 1.52107,-0.0875 1.93172,-0.0765 1.17982,0.0311 1.67975,-0.55174 0.8745,-1.02053 -0.2941,-0.17122 -0.85498,-0.22471 -2.151,-0.2041 l -1.75161,0.0278 -0.0522,-0.4778 -0.0522,-0.48012 1.52188,-0.17395 c 0.83724,-0.0961 1.6292,-0.25691 1.76205,-0.35486 0.71686,-0.52861 -0.22633,-1.01169 -1.86385,-0.95559 l -1.1747,0.0394 -0.11226,-1.66068 c -0.0656,-0.95262 -0.2083,-1.76243 -0.33413,-1.89726 -0.37318,-0.39982 -1.35143,-0.64908 -2.16927,-0.64942 z" /></g></svg>
