<?xml version="1.0" encoding="UTF-8" standalone="no"?>
<!-- Created with Inkscape (http://www.inkscape.org/) -->

<svg
   viewBox="0 0 38.549999 41.919998"
   version="1.1"
   id="svg1"
   inkscape:version="1.3.2 (091e20e, 2023-11-25, custom)"
   sodipodi:docname="Fu.svg"
   xml:space="preserve"
   xmlns:inkscape="http://www.inkscape.org/namespaces/inkscape"
   xmlns:sodipodi="http://sodipodi.sourceforge.net/DTD/sodipodi-0.dtd"
   xmlns="http://www.w3.org/2000/svg"
   xmlns:svg="http://www.w3.org/2000/svg"><sodipodi:namedview
     id="namedview1"
     pagecolor="#ffffff"
     bordercolor="#111111"
     borderopacity="1"
     inkscape:showpageshadow="0"
     inkscape:pageopacity="0"
     inkscape:pagecheckerboard="1"
     inkscape:deskcolor="#d1d1d1"
     inkscape:document-units="mm"
     showguides="true"
     inkscape:zoom="13.096375"
     inkscape:cx="19.280144"
     inkscape:cy="20.883641"
     inkscape:window-width="1292"
     inkscape:window-height="745"
     inkscape:window-x="-8"
     inkscape:window-y="-8"
     inkscape:window-maximized="1"
     inkscape:current-layer="layer1"><inkscape:page
       x="0"
       y="0"
       width="38.549999"
       height="41.919998"
       id="page42"
       margin="0"
       bleed="0" /></sodipodi:namedview><defs
     id="defs1"><inkscape:path-effect
       effect="powerstroke"
       id="path-effect13"
       is_visible="true"
       lpeversion="1.3"
       scale_width="1"
       interpolator_type="CubicBezierJohan"
       interpolator_beta="0.2"
       start_linecap_type="zerowidth"
       end_linecap_type="zerowidth"
       offset_points="5,4.9921382"
       linejoin_type="extrp_arc"
       miter_limit="4"
       not_jump="false"
       sort_points="true"
       message="&lt;b&gt;Ctrl + click&lt;/b&gt; on existing node and move it" /></defs><g
     inkscape:label="Layer 1"
     inkscape:groupmode="layer"
     id="layer1"
     transform="matrix(0.78397198,0,0,1,-63.042056,-167.14)"><path
       style="fill:#fff29e;fill-opacity:1;fill-rule:evenodd;stroke:none;stroke-width:0.354345;stroke-linecap:round;stroke-linejoin:round;paint-order:stroke fill markers"
       d="m 105,173 9.78527,2.68264 L 119.35,200 H 90.649995 l 4.56473,-24.31736 z"
       id="path13" /><path
       style="display:inline;fill:#938e5e;fill-opacity:1;fill-rule:evenodd;stroke:none;stroke-width:0.386001;stroke-linecap:round;stroke-linejoin:round;stroke-dasharray:none;stroke-opacity:1;paint-order:stroke fill markers"
       d="m 90.649998,200 -3e-6,3.2 H 119.35 V 200 Z"
       id="path45" /><path
       id="path1-5"
       style="fill:#000000;stroke-width:0.785048"
       d="m 103.48078,178.50515 c -0.53649,0.0135 -0.94465,0.0692 -0.94465,0.17408 0,0.0966 0.26609,0.48127 0.58865,0.8539 0.53169,0.61423 0.58512,0.85238 0.58512,2.56995 0,1.10543 -0.10171,1.94596 -0.24321,2.0145 -0.13328,0.0645 -1.04178,0.1631 -2.01974,0.22107 l -1.776518,0.10501 0.13042,-0.53333 c 0.463868,-1.88685 0.453418,-2.05659 -0.15862,-2.37098 -0.70062,-0.35988 -3.204098,-0.60802 -3.204098,-0.31779 0,0.10682 0.290236,0.35817 0.645048,0.56096 0.6211,0.35497 0.64505,0.43301 0.64505,2.02556 0,1.51771 0.0468,1.68495 0.56397,2.03662 0.70685,0.48062 0.7433,0.47883 2.978508,-0.0774 2.31149,-0.57517 2.43123,-0.57194 2.4815,0.047 0.0695,0.85652 -0.0718,1.96824 -0.2679,2.12781 -0.10258,0.0835 -0.7517,-0.0818 -1.44519,-0.36754 -1.57057,-0.64714 -3.649418,-0.70793 -4.804368,-0.14093 -1.258586,0.61791 -2.439199,1.9936 -2.439199,2.84353 0,0.36169 1.062101,0.91468 1.755378,0.91468 0.203917,0 1.735501,-0.42231 3.405001,-0.93955 l 3.034898,-0.93955 0.72964,0.48082 c 0.40078,0.26438 0.92713,0.48084 1.17026,0.48084 0.68797,0 1.36451,-0.71017 1.53684,-1.61106 0.14696,-0.76833 0.23528,-0.84644 1.36059,-1.25734 1.47568,-0.53882 2.68191,-0.73546 2.99965,-0.48636 0.45684,0.35816 -0.22008,2.13589 -1.13147,2.97064 -1.4177,1.29846 -5.41712,3.15862 -7.70534,3.58412 -2.024468,0.37647 -2.463868,0.51071 -2.463868,0.75992 0,0.38058 1.422018,0.3496 4.198098,-0.0939 3.96527,-0.6335 6.3978,-1.35147 7.49031,-2.20795 0.80144,-0.62833 1.27461,-1.98499 1.1632,-3.32988 -0.0518,-0.62461 0.0111,-0.798 0.26789,-0.75441 0.44278,0.0751 2.59781,-0.33542 2.59781,-0.49465 0,-0.3133 -0.76161,-0.92111 -1.49453,-1.19378 -1.32807,-0.49407 -3.39374,-0.39426 -5.19211,0.25148 -0.84512,0.30345 -1.61249,0.55063 -1.70603,0.54715 -0.29968,-0.01 -1.76438,-1.65651 -1.59324,-1.79068 0.0907,-0.071 1.66281,-0.15387 3.49314,-0.18515 1.83031,-0.0313 3.56237,-0.098 3.85266,-0.14645 0.75615,-0.12621 0.66086,-0.67087 -0.20796,-1.17444 -0.68115,-0.3948 -0.82899,-0.41147 -1.89637,-0.21831 -0.6361,0.11516 -1.83137,0.21002 -2.65774,0.21002 -1.39997,0 -1.51131,-0.0322 -1.6461,-0.4532 -0.26674,-0.83313 -0.0783,-0.92347 1.79415,-0.86494 1.89729,0.0593 2.70897,-0.19052 2.43567,-0.74888 -0.21198,-0.43306 -0.92501,-0.57768 -2.63307,-0.53333 l -1.46987,0.0387 0.0564,-1.03902 c 0.0449,-0.84016 -0.0317,-1.08514 -0.39477,-1.29328 -0.25464,-0.14595 -1.1045,-0.23544 -1.89285,-0.25422 -0.19709,-0.005 -0.3922,-0.004 -0.57104,0 z m -4.169898,9.56131 c 0.937908,0 2.287638,0.33061 2.287638,0.56096 0,0.0869 -0.87072,0.37178 -1.935148,0.63283 -1.06445,0.26105 -2.12175,0.51844 -2.34755,0.57202 -0.692372,0.16442 -0.479491,-0.4614 0.38773,-1.14128 0.59891,-0.46952 0.99949,-0.62453 1.60733,-0.62453 z" /></g></svg>
