<?xml version="1.0" encoding="UTF-8" standalone="no"?>
<!-- Created with Inkscape (http://www.inkscape.org/) -->

<svg
   viewBox="0 0 38.549999 41.919998"
   version="1.1"
   id="svg1"
   inkscape:version="1.3.2 (091e20e, 2023-11-25, custom)"
   sodipodi:docname="Hi.svg"
   xml:space="preserve"
   xmlns:inkscape="http://www.inkscape.org/namespaces/inkscape"
   xmlns:sodipodi="http://sodipodi.sourceforge.net/DTD/sodipodi-0.dtd"
   xmlns="http://www.w3.org/2000/svg"
   xmlns:svg="http://www.w3.org/2000/svg"><sodipodi:namedview
     id="namedview1"
     pagecolor="#ffffff"
     bordercolor="#111111"
     borderopacity="1"
     inkscape:showpageshadow="0"
     inkscape:pageopacity="0"
     inkscape:pagecheckerboard="1"
     inkscape:deskcolor="#d1d1d1"
     inkscape:document-units="mm"
     showguides="true"
     inkscape:zoom="13.096375"
     inkscape:cx="19.241966"
     inkscape:cy="20.959999"
     inkscape:window-width="1292"
     inkscape:window-height="745"
     inkscape:window-x="-8"
     inkscape:window-y="-8"
     inkscape:window-maximized="1"
     inkscape:current-layer="layer1"><inkscape:page
       x="0"
       y="0"
       width="38.549999"
       height="41.919998"
       id="page42"
       margin="0"
       bleed="0" /></sodipodi:namedview><defs
     id="defs1"><inkscape:path-effect
       effect="powerstroke"
       id="path-effect13"
       is_visible="true"
       lpeversion="1.3"
       scale_width="1"
       interpolator_type="CubicBezierJohan"
       interpolator_beta="0.2"
       start_linecap_type="zerowidth"
       end_linecap_type="zerowidth"
       offset_points="5,4.9921382"
       linejoin_type="extrp_arc"
       miter_limit="4"
       not_jump="false"
       sort_points="true"
       message="&lt;b&gt;Ctrl + click&lt;/b&gt; on existing node and move it" /></defs><g
     inkscape:label="Layer 1"
     inkscape:groupmode="layer"
     id="layer1"
     transform="translate(-85.737497,-165.14)"><path
       style="fill:#fff29e;fill-opacity:1;fill-rule:evenodd;stroke:none;stroke-width:0.373013;stroke-linecap:round;stroke-linejoin:round;paint-order:stroke fill markers"
       d="m 105.0125,169 9.42512,3.06241 L 118.8625,200 H 91.162494 l 4.42488,-27.93759 z"
       id="path13"
       sodipodi:nodetypes="cccccc" /><path
       style="display:inline;fill:#938e5e;fill-opacity:1;fill-rule:evenodd;stroke:none;stroke-width:0.379217;stroke-linecap:round;stroke-linejoin:round;stroke-dasharray:none;stroke-opacity:1;paint-order:stroke fill markers"
       d="m 91.175004,200 -3e-6,3.2 H 118.875 V 200 Z"
       id="path45" /><path
       id="path2"
       style="fill:#000000;stroke-width:0.645548"
       inkscape:label="path1"
       d="m 106.19812,176.59011 c -0.56314,0.10819 -1.32104,0.32107 -2.35521,0.66271 -1.43193,0.47305 -1.72615,0.52565 -3.03323,0.53783 -0.6341,0.006 -1.152112,0.0624 -1.152112,0.1249 0,0.0625 0.31442,0.39736 0.698412,0.74428 0.62337,0.56317 0.77036,0.62004 1.37641,0.53527 0.37333,-0.0522 0.7473,-0.13691 0.83095,-0.18861 0.29478,-0.1822 0.71857,1.72975 0.80546,3.62968 0.0928,2.03029 0.0408,2.42933 -0.97878,2.61519 -0.0968,0.0177 -0.38737,-0.20893 -0.86155,-0.68311 -0.47417,-0.47417 -0.94491,-0.86408 -1.04506,-0.86408 -0.17336,0 -0.0755,1.24331 0.14275,1.81229 0.20944,0.54575 -4.028309,1.94738 -5.888027,1.94738 -1.724551,0 -1.679462,0.15596 0.458808,1.57778 0.4818,0.32036 0.695473,0.28877 1.898954,-0.26764 0.422726,-0.19545 0.817943,-0.35891 1.243883,-0.49448 0.42593,-0.13559 0.76929,-0.25015 1.03741,-0.38999 0.638882,-0.33321 0.785942,-0.21384 0.624492,0.50213 -0.125552,0.5569 -0.791512,1.80465 -0.963502,1.80465 -0.044,0 -0.28925,-0.10544 -0.54293,-0.23451 -1.571491,-0.79921 -1.608548,-0.39949 -0.10705,1.13938 l 1.12153,1.14957 c 1.206622,-0.69367 1.342052,-1.82262 1.667002,-3.01285 0.0838,-0.27236 0.2447,-0.9208 0.3594,-1.44269 0.2027,-0.92236 0.23251,-0.95743 1.02467,-1.23878 0.44821,-0.15918 0.86233,-0.28802 0.92017,-0.28802 0.13686,0 0.13167,2.39006 -0.008,3.54556 l -0.10706,0.89722 -0.74428,-0.43587 c -0.65495,-0.38382 -0.7443,-0.39954 -0.7443,-0.13763 0,0.16374 0.45684,0.74241 1.01702,1.2872 1.14547,1.11391 1.69899,1.26247 2.14875,0.57606 0.22711,-0.34664 0.26452,-0.88448 0.21921,-3.28048 l -0.056,-2.86498 0.62704,-0.17843 c 0.3446,-0.0981 0.68417,-0.23543 0.75449,-0.30588 0.34629,-0.34698 0.41819,0.0448 0.37469,2.04934 -0.0461,2.12553 -0.0366,2.19344 0.42313,2.90068 0.90702,1.39532 2.58114,2.04631 4.83276,1.87601 1.33523,-0.10101 3.50163,-0.77653 4.03496,-1.25916 0.43029,-0.3894 0.31657,-1.08123 -0.28548,-1.72818 -0.23855,-0.25634 -0.72005,-0.86602 -1.07057,-1.35347 -0.56332,-0.78343 -1.01396,-1.18319 -1.1623,-1.03488 -0.027,0.027 0.0264,0.40577 0.11981,0.8437 0.0933,0.43792 0.14675,1.0869 0.11725,1.44268 -0.0503,0.6049 -0.10461,0.66205 -0.82331,0.87428 -0.42272,0.1249 -1.3035,0.26177 -1.95757,0.30335 -1.02391,0.065 -1.26636,0.0225 -1.75113,-0.30589 -0.8387,-0.56816 -1.18968,-2.09142 -0.38232,-1.65935 0.32249,0.17258 2.18251,0.25792 2.77067,0.12744 0.56983,-0.12646 0.73911,-0.44483 0.41039,-0.77231 -0.24299,-0.24208 -0.60923,-0.29823 -1.95758,-0.29823 h -1.65682 v -0.51234 -0.51234 l 1.22095,0.056 c 1.71549,0.0774 2.73036,-0.47617 2.07484,-1.13171 -0.28133,-0.28131 -1.31297,-0.25732 -2.187,0.051 -0.96289,0.33972 -0.97976,0.33504 -1.10879,-0.25234 -0.13186,-0.60034 -0.98294,-1.37233 -1.50896,-1.36878 -0.20418,0.002 -0.70773,0.12189 -1.11898,0.26509 -0.41121,0.1432 -0.78452,0.22228 -0.83095,0.17587 -0.0463,-0.0465 -0.076,-0.91546 -0.0637,-1.92953 0.0244,-2.0278 -0.0373,-2.1847 -1.14702,-2.94657 -0.31255,-0.21457 -0.50336,-0.45278 -0.42567,-0.52761 0.20302,-0.19558 2.1391,-0.6746 2.30678,-0.57097 0.0775,0.0479 0.14019,0.57954 0.14019,1.1827 0,1.59032 0.34512,2.30458 1.50641,3.11479 1.40202,0.97816 2.47286,1.25327 3.80045,0.97624 0.57536,-0.12007 1.12938,-0.30252 1.70523,-0.44861 0.57585,-0.14609 0.50745,-0.66122 -0.16058,-1.39171 -0.36166,-0.39553 -0.78779,-0.97574 -0.94818,-1.28976 -0.16042,-0.31403 -0.33442,-0.5297 -0.3849,-0.4792 -0.0505,0.0505 -0.1228,0.49822 -0.16059,0.99662 -0.0432,0.56923 -0.17147,0.98255 -0.3441,1.11134 -0.53855,0.40175 -2.75768,-0.25369 -3.38498,-0.99917 -0.72574,-0.8625 -0.60919,-0.97863 0.88958,-0.87685 1.16093,0.0788 1.37661,0.0471 1.75111,-0.25999 0.66796,-0.54769 0.26098,-0.79465 -1.23879,-0.74938 -0.68065,0.0205 -1.38988,0.0571 -1.57777,0.079 -0.26131,0.0306 -0.35471,-0.0754 -0.39764,-0.45116 l -0.056,-0.49195 0.938,0.11726 c 0.54966,0.0688 1.23169,0.0377 1.64662,-0.0739 0.58734,-0.15816 0.69928,-0.25249 0.65506,-0.56332 -0.0469,-0.3295 -0.15673,-0.37576 -0.90742,-0.37215 -0.4697,0.002 -1.16123,0.0615 -1.537,0.13254 -0.63996,0.12099 -0.70362,0.0974 -0.97623,-0.38743 -0.18907,-0.33627 -0.39717,-0.49712 -0.59646,-0.4588 z m -6.313702,3.27791 c -0.0327,7.9e-4 -0.0618,0.0119 -0.0841,0.028 -0.089,0.0646 -0.0962,0.24811 -0.0332,0.56331 0.1404,0.70207 -0.30416,1.47258 -1.73071,2.99499 -1.233097,1.3159 -1.413013,1.6024 -1.167421,1.84797 0.152024,0.15204 0.682669,-0.0157 1.422311,-0.44861 0.65463,-0.38302 2.471752,-1.85583 2.946562,-2.38835 0.61069,-0.6849 0.23257,-1.68773 -0.90998,-2.41129 -0.19911,-0.12609 -0.345352,-0.18962 -0.443512,-0.18607 z" /></g></svg>
