<svg xmlns="http://www.w3.org/2000/svg" width="120" height="120" viewBox="0 0 120 120">
    <path fill="red" stroke="red" stroke-width=".004" d="m5 71.751-.288.321-.249.37-.21.413-.157.412-.013.034-.122.427-.013.044-.1.489-.258-.076-.884-.253.043-.204.072-.341.142-.532.175-.509.22-.471.27-.426.33-.365.138.088.645.413.119.076.088.056.051.034m-3.053-.313.018.335.039.376.045.32.011.08.07.41.084.406.056.225.033.138.004.019-1.088.176-.055-.195-.053-.184-.096-.397-.081-.405-.065-.397-.047-.372-.026-.335 1.11-.193.024-.004.017-.003m-2.099.281.047.288.073.332.095.357.112.37.126.367.115.295.02.05-.435.111-.568.145-.116-.275-.013-.03-.01-.027-.135-.355-.124-.362-.085-.282-.023-.073-.085-.332v-.003l-.058-.293 1.022-.272.027-.008.015-.003m-1.73.515-.163-.013h-.002l-.049-.005-.202-.014-.186-.01-.095-.002-.073-.001h-.14l-.109.005h-.083l-.071.006-.062.012-.057.021-.051.033-.05.048-.073.129-.067.209-.011.051-.052.252-.059.407-.038.366-.017.159-.052.655H3.59V81h-7.799v-1.134h3.273v-.7h-2.89V78.12h2.89v-.7h-2.89V76.4h2.89v-.709H-5l.002-.027v-.071l.003-.101.003-.116.004-.115.004-.101.072-1.056.034-.377.044-.479.087-.67.101-.507.12-.362.145-.24.119-.126.121-.1.045-.026.084-.049.136-.056.148-.041.161-.029.167-.018.194-.013.216-.009.235-.003.25.003.17.005.048.001.027.001.016.001.023.199.038.21.054.217.015.043.055.171.01.025.073.176.067.131.027.051m-.672 1.538-.024-.044-.128-.23-.136-.27-.114-.255-.086-.233.097-.037.897-.333.078.232.04.101.063.161.125.28.14.285.15.28.01.02.146.242-.933.322-.164-.252-.161-.27m7.553 8.838-.21.434-.143.471-.092.49-.05.496-.023.482-.004.458v2.1H.43V83.31l.008-.24.03-.208.052-.176.083-.148.117-.124.156-.102.147-.066.032-.015.201-.059.222-.037.198-.018.045-.004.05-.002.216-.008.06-.001h.165l.026-.002h.039l.036.18.055.192.067.196.075.19.08.18.07.14.002.006.004.008.003.004-.172-.01-.169-.006-.158-.002h-.147l-.103.004-.075.006-.056.004-.042.008-.033.018-.023.028-.01.036-.005.05v.861l.26-.147.111-.06.029-.017.118-.066.256-.14.25-.135.245-.133.127-.07.112-.062.076.213.076.205.055.156.013.032.072.202.022-.202.021-.187.063-.386.083-.376.108-.362.134-.34.161-.317.027.023.09.075.154.114.137.094.035.024.087.056.09.057.142.082.025.014.076.037.067.033m-2.83 2.504.165.086.194.1.216.106.229.107.227.105.212.092.007.003.002.001h.002v-.296l.001-.155.002-.164.003-.106v-.066l.007-.175.009-.18.009-.181h-.001l-.247.084-.274.095-.294.107-.31.115-.28.105-.371.14v.693l.371-.464.103-.129.005-.006.007-.01.005-.006h.002M5 89.023h-.991l.014.064.019.082.04.149.014.046.03.101.045.145.047.14.044.133-.166.039-.742.174h1.477v1.043H3.054l.029.1.03.1.029.084.005.019.034.097.033.096.032.09L2.108 92l-.06-.135-.001-.002-.059-.143-.055-.147-.052-.147-.047-.145-.043-.14h-1.6v-1.044h1.563L.715 89.87l.385-.845H.053V87.98H5v1.043M2.278 86.04l-.06-.025-.165-.072-.005-.003-.198-.093-.173-.088v.875h1.746v-.89l-.23.271-.247.291-.211-.08-.226-.09-.231-.096m.67 3.143-.02-.096-.013-.064h-.738l-.022.064-.037.113-.06.183-.01.031L2 89.57l-.055.185-.046.177-.038.166h1.385l-.07-.177-.064-.187-.063-.19-.055-.185-.045-.174m-3.318-5.61v4.522h-2.769v.586h2.769v3.242h-1.255v-.708h-3.153v-1.012h3.153v-.594h-2.738v-2.45h2.738v-.42H-4.37v-.723h2.746v-.44h-2.69v-.716h2.69v-.433h-2.8v-.73l-.1-.038-.102-.033-.1-.032-.097-.029-.092-.024-.085-.02.079-.473.128-.362.188-.26.26-.173.249-.07.092-.025.336-.023.1-.006h1.615l.536.027.41.094.298.173.197.268.109.38.022.33.012.173M13 68 9.2 90.803 9 92l-7.52 5.013L0 98l-7.225-4.815L-9 92l-.199-1.197-3.8-22.802h26m-24.004 1.997L-9 82.291l1.383 8.481v.031h.008L-5 92.588l5 3.415L5.859 92l1.752-1.197h.007v-.031L9 82.291l2.003-12.293h-22.007M.348 75.692v.708h1.966v-.708H.348m0 1.73v.7h1.966v-.7H.348m0 2.444h1.966v-.7H.348v.7m-2.396 3.262-.074-.002h-1.34l-.133.01-.104.037-.078.066-.059.107-.04.15-.032.201h2.284v-.122l-.007-.167-.028-.122-.055-.08-.091-.05-.134-.023Zm0 0" transform="matrix(3.78963 0 0 3.7628 60.114 -252.108)"/>
    <path fill="#f9f9f9" d="M45.766 99.285A8288 8288 0 0 1 31.39 89.52c-.051-.047-12.832-77.7-12.844-78.004 0-.063 18.691-.11 41.539-.11 38.309 0 41.539.016 41.539.239 0 .273-12.652 77.507-12.738 77.742-.043.117-28.38 19.441-28.715 19.582-.047.015-6.531-4.336-14.406-9.684m24.687-5.695c1.106-.258 2.027-.48 2.043-.496.024-.012-.125-.489-.324-1.055l-.363-1.027 3.351-.04 3.348-.042v-4.137l-2.274-.02-2.273-.011 1.082-.262c.598-.148 1.129-.305 1.18-.355.078-.079-.18-1.055-.782-3.02-.046-.14.383-.187 1.801-.187h1.863V78.94H60.31v3.996h3.867l-.742 1.579c-.41.867-.723 1.59-.704 1.605.024.02.68.172 1.458.336l1.417.305-4.847.031v4.144h6.09l.336 1c.535 1.602.851 2.262 1.062 2.188a93 93 0 0 1 2.207-.535m-11.637-5.914V81.46h-10.59v-2.078H58.84l-.059-9.516c-.066-10.398-.054-10.285-.953-11.449-.484-.637-1.219-1.027-2.473-1.32-1.363-.32-9.675-.32-10.91-.004-1.48.383-2.28 1.12-2.82 2.593-.316.876-.59 2.403-.45 2.524.063.055.45.184.86.293 1.305.332 1.27.289 1.27 1.781v1.324h10.59v1.485H43.754v2.812h10.14v1.63H43.458v2.812h10.438v1.484H43.457v9.328h10.438v2.074h-11.93v4h11.93v2.664h4.921Zm18.395-16.621c.059-4.946.125-6.524.32-7.52.297-1.55.676-2.762 1.211-3.914.387-.836.395-.89.14-1.039-.886-.512-2.894-1.852-2.976-1.992-.234-.375-.52-.094-1.031 1.012-.625 1.359-1.2 3.433-1.457 5.285l-.184 1.289-.484-1.32c-.312-.856-.55-1.301-.684-1.27-.105.023-1.351.676-2.765 1.445-1.406.766-2.602 1.395-2.649 1.395s-.07-.75-.047-1.664l.043-1.668 1.829-.043c1.003-.02 1.824-.063 1.824-.09s-.188-.477-.426-.996c-.422-.93-.8-2.031-.98-2.832-.086-.395-.122-.406-1.043-.406-2.27 0-4.536.593-5.29 1.382-.164.176-.417.586-.566.91-.25.547-.273 1.297-.312 9.442l-.047 8.852h15.496Zm-3.477-30.551V28.285H46.398l.106-1.367c.293-3.852.824-6.461 1.441-7.012.29-.258.528-.281 2.688-.246 1.3.02 2.367.012 2.367-.02 0-.027-.164-.43-.371-.886-.36-.809-.707-2.07-.902-3.262l-.09-.574-2.492.074c-6.438.203-6.973 1.188-7.93 14.555-.078 1.14-.149 2.324-.149 2.629v.554h15.368v2.52H45.543v3.996h10.89v2.52h-10.89v4.148h10.89v2.367H44.052v4.442h29.683ZM53.563 26.89c.917-.305 1.675-.602 1.675-.66 0-.063-.3-.641-.672-1.286-.652-1.136-2.015-4.164-2.015-4.48a.3.3 0 0 0-.133-.238c-.18-.114-3.89 1.253-3.89 1.425 0 .653 2.902 5.957 3.199 5.844.086-.031.91-.3 1.836-.605m21.363-.344c.617-3.106 2.074-6.274 3.707-8.074.305-.328.46-.618.383-.692-.075-.07-.977-.664-2-1.324l-1.864-1.191-.574.55c-.996.954-2.074 2.79-2.875 4.907-.351.925-1.129 3.785-1.328 4.902l-.094.523 2.063.61c1.133.328 2.14.613 2.234.62.102.013.254-.347.348-.831m-14.973-.496c.973-.254 1.79-.477 1.817-.496.023-.024-.325-1.133-.774-2.465-.445-1.336-.945-3.086-1.11-3.887-.163-.8-.324-1.476-.347-1.496-.027-.027-.957.203-2.062.5l-2.016.535.05.516c.141 1.41 2.157 7.254 2.5 7.254.09 0 .966-.207 1.942-.461m7.067-.281c.945-.16 1.777-.297 1.843-.297.07 0 .086-.11.035-.243-.382-.988-1.28-6.562-1.28-7.945 0-.683-.02-.723-.337-.648-.183.047-1.207.226-2.273.402a67 67 0 0 0-1.969.348c-.012.011.07.824.184 1.812.215 1.82.777 4.719 1.191 6.098.273.91.172.89 2.606.473m0 0"/>
    <path fill="#f9f9f9" d="M67.383 86.383c.05-.227.305-1.09.562-1.926l.47-1.52h1.323c.93 0 1.336.055 1.371.188.164.617.961 3.191 1.055 3.402.102.243-.066.266-2.383.266h-2.496Zm3.953-16.856c-.773-.37-1.762-.851-2.2-1.074l-.788-.398-.328.379c-.18.207-.575.675-.88 1.039l-.554.652-.008-1.117-.004-1.125.485-.16a195 195 0 0 0 3.21-1.153c1.5-.55 2.754-.972 2.782-.941.094.105-.106 4.574-.203 4.574-.059 0-.735-.305-1.512-.676m-4.762 2.75c0-.816.035-1.48.078-1.48s.465.187.934.422 1.488.676 2.266.984l1.414.555.859-.942.86-.949.003 1.445v1.442h-6.414Zm-21.101-9.961c.16-.765.414-1.199.816-1.402.484-.246 6.152-.266 6.848-.023.531.18.758.605.758 1.398v.508h-8.528Zm16.031-15.218v-1.184h7.309v2.367h-7.31Zm0-6.594v-1.258h7.309v2.52h-7.31Zm0-6.512V32.73h7.309v2.52h-7.31Zm0 0"/>
</svg>
