<svg xmlns="http://www.w3.org/2000/svg" width="120" height="120" viewBox="0 0 120 136">
    <path fill="none" stroke="red" stroke-width=".004" d="m-20.677 21.98.453-.108.474-.097.49-.089.505-.08.517-.072.527-.065v-.88h-4.09v-1.144h2.553l-.29-.165-.236-.135-.517-.308-.493-.31-.458-.302-.41-.29-.06-.045-.288-.222.288-.378.044-.058.399-.522.018-.024.436.366.24.18.135.102.156.117.134.092.468.326.647.42.666.407.658.378v-1.53h1.315v1.53l.35-.343.373-.327.394-.308.413-.29.429-.265.442-.244h-6.445v-4.282h1.33v.317h3.998V13h1.269v4.227l.165-.08.158-.073.003-.001.162-.07.163-.067.166-.062.152-.05.011-.004.007-.002.11.166.136.19.044.058.106.141.131.162.027.034.156.18.146.15-.329.104-.237.074-.56.216-.394.18-.151.069-.524.276-.493.304-.222.158-.232.165h2.813v1.144h-4.067v.748l.125-.01.36-.028.483-.035.48-.03.477-.024.473-.02.469-.015.009.063.013.09.003.019.041.186.052.197.06.193.06.168.005.014.031.079.022.056.01.025-1.183.057-1.197.084-1.175.11-.838.103-.095.012-.181.022-1.014.162-.877.185-.894-1.02m-1.223 9.134h3.287l-.02-.209-.031-.312-.06-.507-.068-.49-.012-.076-.063-.398-.081-.454-.086-.433-.205.359-.191.37-.178.382-.073.174-.092.219-.151.406-.137.42-.018-.005-1.247-.298.234-.67.03-.072.235-.57.293-.615.32-.587.174-.276.174-.28.202-.284.17-.24-.06-.134-.096-.216-.014-.026-.148-.268-.165-.234-.168-.172-.17-.105-.168-.036-.119.045-.098.138-.079.24-.06.35-.02.198-.028.27-.025.439-.002.055-.003.042-.002.035-.001.019-.157-.144-.175-.138-.188-.128-.191-.114-.081-.042-.108-.056-.18-.079.123-.847.09-.336.08-.295.223-.444.291-.28.366-.15.452-.044.358.043.333.125.31.202.284.273.264.338.143.232.101.165.147-.141.024-.024.105-.102.286-.256.295-.241.11-.082.195-.147.315-.217.232-.149.038-.024.019-.012.017-.01.01-.006.007-.006.116.155.148.179.166.19.173.187.165.17.125.119.019.019-.399.23-.004.003-.382.25-.038.028-.085.062-.194.144-.054.04-.151.125-.204.169-.222.206-.013.012-.103.095-.319.33.162.587.008.03.15.656.102.541.028.147.001.007.102.667.01.06.095.756.077.778h3.088V29.99h-2.628v-.003l.001-.02v-.017l.001-.05.002-.094.002-.077V29.6l.002-.081v-.005l.012-.67.007-.326.029-.805.017-.242.027-.386.061-.47.042-.168.041-.162.11-.206.1-.122.106-.096.113-.076.123-.056.135-.042.15-.03.152-.016.042-.002.137-.008.2-.006.22-.003.233.002.083.001.069.001h.045l.028.001h.017l.02.191.039.203.054.206.068.2.008.02.072.17.09.167v.003l-.188-.013-.171-.01h-.01l-.167-.008-.15-.003-.13-.003h-.17l-.06.006-.053.014-.047.022-.044.033-.043.045-.048.107-.04.179-.032.263-.004.052-.022.309-.02.471-.018.594h1.387l.037-.803.054-.571.026-.28.062-.394.001-.004.055-.346.019-.121.207-.846.021-.057.213-.58.055-.15.3-.54.042-.076.018-.033.013-.024.007-.013.005-.008.14.136.177.157.2.167.205.157.193.136.165.1-.3.57-.048.094-.243.735-.158.773-.09.782-.04.763-.01.713v3.06h-4.337l.008.255.007.205.002.052.008.258.007.258.004.244v.017l.002.262h-1.324l.001-.262v-.261l-.001-.258-.004-.14-.003-.118-.002-.052-.005-.205-.01-.256h-1.633l.21.159.224.16.071.048.141.094.022.015.237.153.234.146.225.137-.371.361-.395.385-.305-.161-.32-.184-.065-.04-.256-.157-.303-.2-.267-.199-.216-.182.07-.074.436-.46H-21.9v-1.23m12.517 1.659L-8 24.29l1.15-7.059.853-5.234h-22.006L-27.84 13l.689 4.232 1.15 7.059 1.382 8.48v.032h.007L-22 34.586l5 3.417 5-3.417 2.61-1.783h.008v-.031M-26 34l-.2-1.197-2.594-15.571-.873-5.234L-30 9.999h26l-1.206 7.233-2.594 15.57L-8 34l-1.775 1.183-5.745 3.83h-.001L-17 40l-9-6m6.89-17.662h3.998v-.587h-3.998v.587m0-2.047v.595h3.998v-.595Zm0 0" transform="matrix(4.29492 0 0 4.26451 133.142 -38.38)"/>
    <path fill="red" d="M115.797 4.473c0 .07-3.848 23.058-8.55 51.093l-8.552 50.97-38.554 25.523-19.16-12.684c-10.54-6.977-19.227-12.75-19.305-12.824C21.55 106.426 4.488 5.219 4.488 4.598c0-.22 6.192-.246 55.653-.246 30.609 0 55.652.054 55.656.12M12.824 13.176c.055.25 3.34 20.219 7.301 44.383 4.035 24.59 7.293 44.007 7.402 44.109.192.18 31.618 21.492 32.297 21.906.317.192 1.711-.719 16.746-10.918 9.02-6.12 16.399-11.199 16.399-11.285 0-.21 14.36-87.793 14.472-88.277l.09-.367h-94.8Zm0 0"/>
    <path fill="red" d="M77.855 64.934c.797.73 2.32 1.914 3.192 2.48l.383.254-.703 1.39c-1.25 2.465-2.047 5.223-2.59 8.942-.207 1.434-.278 3.836-.336 11.621l-.074 9.813H59.055l.113 3.28.113 3.286h-5.508l-.003-1.684c0-.925-.047-2.402-.106-3.28l-.105-1.602h-3.532c-2.218 0-3.53.058-3.53.16 0 .09 1.26.996 2.808 2.011l2.812 1.848-1.523 1.516-1.52 1.515-1.25-.664c-1.511-.804-5.265-3.265-5.68-3.726-.292-.32-.28-.352.704-1.395.55-.582 1-1.11 1-1.164 0-.058-1.04-.101-2.313-.101H39.22V94.34h7.027c5.516 0 7.031-.043 7.027-.203-.007-1.11-.925-7.746-1.414-10.223-.34-1.727-.398-1.91-.574-1.8-.504.308-3.055 5.769-3.894 8.331-.258.793-.547 1.41-.641 1.375s-1.215-.304-2.488-.597c-1.274-.297-2.367-.582-2.434-.641-.121-.105.758-2.629 1.602-4.617 1.285-3.024 3.425-6.856 5.25-9.403.433-.609.793-1.187.793-1.285s-.352-.855-.782-1.683c-1.543-2.977-3.632-4.266-4.433-2.73-.352.675-.7 2.323-.817 3.855a86 86 0 0 1-.187 2.172l-.09.855-1.023-.773a18 18 0 0 0-2.227-1.407c-.906-.472-1.187-.695-1.125-.902.043-.152.168-.902.273-1.672.43-3.07 1.383-5.625 2.497-6.68 1.671-1.578 5.355-1.73 7.52-.308 1.25.824 2.804 2.523 3.741 4.101l.453.766 1.657-1.473c1.578-1.406 4.422-3.554 5.59-4.218l.542-.313.45.574c.246.317 1.07 1.258 1.832 2.098.761.84 1.355 1.547 1.324 1.57-.035.024-.598.356-1.254.735-1.875 1.09-4.453 3.07-6.227 4.785l-1.628 1.578.504 1.883c1.035 3.875 1.726 7.742 2.332 13.05.187 1.626.34 3.012.34 3.079 0 .066 3.011.12 6.699.12h6.695v-4.925H60.883l.004-1.11c.008-3.23.355-10.574.57-12.093.137-.957.406-2.113.605-2.57.41-.954 1.551-2.032 2.442-2.309.328-.105 1.828-.223 3.336-.266l2.738-.074.203 1.09c.172.918.617 2.316 1.082 3.379.094.219-.164.242-2.086.187-3.297-.093-3.3-.082-3.597 5.309-.09 1.625-.164 3.121-.164 3.324l-.004.371h6.078l.101-.511c.059-.286.106-1.004.106-1.602.008-1.336.398-5.144.746-7.238.605-3.66 1.773-7.262 3.144-9.723.418-.75.774-1.375.79-1.39.02-.016.414.32.878.746M73.617 26.18v9.023l1.117-.504a43 43 0 0 1 2.141-.886l1.023-.387.38.613c.206.336.995 1.367 1.75 2.293.835 1.027 1.269 1.684 1.117 1.684-.567 0-4.614 1.574-6.832 2.66-1.301.633-3.274 1.754-4.383 2.488L67.914 44.5l12.156.086v4.762H62.703v3.28h.453c.25 0 2.055-.105 4.012-.233a337 337 0 0 1 5.648-.329l2.09-.097.285 1.277c.157.7.45 1.723.649 2.274l.367 1.003-2.742.11c-8.02.316-18.27 1.445-23.36 2.574-.8.176-1.558.32-1.687.32-.324 0-3.813-3.937-3.637-4.109.239-.234 4.852-1.121 8.551-1.645 1.926-.273 3.594-.527 3.707-.566.148-.055.207-.602.207-1.969v-1.89h-17.7V44.59l5.532-.047 5.527-.043-2.171-1.23c-2.282-1.293-8.07-5.055-9.04-5.872l-.566-.476 3.063-3.992 1.187.992c2.344 1.96 7.617 5.484 11.961 7.996 1.106.637 2.055 1.117 2.11 1.066.054-.054.097-1.527.097-3.273v-3.176h5.457v6.61l1.492-1.41c2.254-2.133 5.164-4.239 7.89-5.708.567-.308 1.036-.613 1.036-.68 0-.07-6.215-.124-13.808-.124h-13.81V17.16h5.458v1.477h17.367V17.16h5.29Zm-22.656-2.371v1.398h17.367v-2.793H50.961Zm0 6.242v1.394h17.367v-2.789H50.961Zm0 0"/>
    <path fill="#f8f8f8" d="M107.191 13.137c0 .527-14.39 88.031-14.511 88.222-.184.301-32.301 22.047-32.555 22.047-.121 0-7.492-4.933-16.387-10.969-15.273-10.363-16.175-11.003-16.285-11.535-.066-.312-3.254-19.668-7.082-43.015a55314 55314 0 0 0-7.183-43.723l-.22-1.273h47.114c41.79 0 47.11.027 47.11.246m-39.03 4.515v.657H51.124v-1.313h-5.79V35.41l-1.296-1c-.715-.55-1.434-1.144-1.598-1.324s-.386-.324-.496-.324-.922.941-1.804 2.09l-1.61 2.093.633.543c.98.836 6 4.121 8.559 5.602l2.304 1.328H39.383v5.094h17.531v1.804c0 1.145-.062 1.805-.172 1.805-.547 0-6.492.906-8.554 1.305-2.84.547-3.844.797-3.844.965 0 .066.855 1.09 1.898 2.277l1.899 2.152 1.453-.32c5.535-1.23 15.62-2.363 23.984-2.7 1.567-.062 2.852-.152 2.852-.195 0-.042-.176-.566-.395-1.164a23 23 0 0 1-.68-2.375l-.289-1.285-2.171.106c-2.887.14-7.157.394-8.747.523l-1.28.102v-3h17.366v-5.09l-11.648-.086.82-.582c2.844-2.02 6.989-4.031 10.946-5.32l1.359-.442-1.027-1.199a37 37 0 0 1-1.856-2.367c-.965-1.364-.797-1.352-3.308-.285l-1.653.699-.086-17.844h-5.62ZM76 65.48c-1.988 3.582-3.266 8.665-3.707 14.739a202 202 0 0 1-.27 3.406l-.082.863h-5.78l.085-1.355c.05-.746.133-2.203.188-3.242.12-2.407.32-3.313.824-3.782.387-.363.465-.37 2.734-.277 1.781.078 2.313.055 2.246-.098-.64-1.43-1.02-2.53-1.242-3.605l-.27-1.3-2.894.058c-2.586.054-2.984.101-3.723.437-1.75.79-2.421 1.918-2.82 4.735-.234 1.664-.559 8.468-.566 11.918l-.004 1.601h11.246v4.598H58.93l-.106-1.024c-.601-5.656-1.426-10.62-2.402-14.445l-.613-2.418 1.586-1.531c2.16-2.086 4.66-3.973 6.921-5.215.782-.43.825-.516.43-.84-.348-.285-2.644-2.832-3.23-3.582l-.446-.566-1.62 1.078c-1.755 1.164-3.16 2.254-4.97 3.86l-1.144 1.019-.816-1.242c-.997-1.516-2.704-3.145-3.895-3.727a7.5 7.5 0 0 0-3.945-.676c-2.77.293-4.235 1.684-5.13 4.871-.26.922-.995 4.836-.995 5.297 0 .043.586.38 1.297.746.71.367 1.761 1.04 2.332 1.496.57.457 1.066.801 1.101.766.035-.04.14-1.023.235-2.188.261-3.277.695-4.992 1.351-5.34.906-.484 2.547.989 3.73 3.352l.696 1.387-1.54 2.3c-.843 1.266-2.1 3.4-2.788 4.743-1.864 3.625-3.649 8.144-3.328 8.418.164.144 5.351 1.39 5.418 1.305.023-.032.316-.856.652-1.832a51 51 0 0 1 1.324-3.383c.73-1.649 2.246-4.516 2.336-4.422.027.027.281 1.422.563 3.09.445 2.632.722 4.64 1.097 7.925l.09.778h-14.07v5.422h4.5l-1.016 1.136-1.02 1.141.88.695c1.214.961 3.964 2.727 5.472 3.512l1.262.656 1.66-1.636c.91-.899 1.602-1.688 1.535-1.754-.07-.063-.988-.664-2.043-1.336-1.054-.668-2.277-1.485-2.71-1.817l-.794-.597h6.614l.105 1.847c.063 1.016.11 2.493.11 3.282v1.437h5.843l-.105-3.285-.102-3.281h18.649l.074-9.813c.082-10.129.16-11.472.863-14.656.445-2.012 1.395-4.707 2.176-6.16l.726-1.36-1.312-.914c-.723-.504-1.746-1.32-2.277-1.816-.532-.5-1.04-.91-1.133-.91-.09-.004-.543.676-1.008 1.511m0 0"/>
    <path fill="#f8f8f8" d="M72.074 35.766c-3.074 1.757-5.71 3.644-7.84 5.613l-1.367 1.262v-6.27h-5.945l-.047 3.184-.043 3.183-3.059-1.828c-3.062-1.832-6.921-4.34-7.855-5.105l-.496-.407 13.644.004h13.645ZM68.16 30.05v1.231H51.125v-2.46H68.16Zm0-6.241v1.234H51.125v-2.465H68.16Zm0 0"/>
</svg>
