<svg xmlns="http://www.w3.org/2000/svg" width="120" height="120" viewBox="0 0 120 136">
    <path fill="none" stroke="red" stroke-width=".004" d="M8.129 18.304h5.922v1.17h-2.269v1.1h1.952v1.147h-1.952v1.21H10.49v-1.21H8.56v-1.147h1.93v-1.1H8.13v-1.17m2.36-.324v-.993H8.408v-1.17h2.08v-1.262H8v-1.201h6.543v1.2h-2.76v1.264h2.08v1.17h-2.08v.992h-1.294M15.292 23v-1.994H14.15V19.82h1.142v-.348l-.134-.194-.047-.068-.23-.349-.246-.385-.237-.376-.196-.318-.128-.21.285-.341.204-.245.23-.275.004-.006.003-.003.06.16.07.18.08.189.002.005.089.203.094.209.097.209V13h1.135v4.134l.144-.429.155-.411.162-.39.17-.363.177-.332.016-.025.16-.257.007-.01.068.194.029.073.06.147.103.234.109.232.02.042.089.175.104.188-.192.287-.119.178-.292.554-.005.011-.266.605-.241.656-.21.67-.032.117-.05.193-.09.348h1.172v1.177h-1.248V23h-1.135m-6.384 6.592.03-.072.235-.57.293-.615.15-.274.17-.313.174-.276.174-.28.372-.524-.06-.134-.096-.216-.162-.294-.165-.234-.168-.172-.17-.105-.07-.015-.097-.021-.12.045-.098.138-.079.24-.06.35-.048.467-.02.37-.005.07-.002.055-.003.042-.002.035-.001.019-.156-.144-.176-.138-.188-.128-.191-.114-.188-.098-.18-.079.122-.847.09-.336.08-.295.223-.444.291-.28.366-.15.443-.043.009-.001.358.043.333.125.31.202.284.273.264.338.143.232.101.165.171-.165.075-.073.03-.029.286-.256.295-.241.305-.23.315-.216.29-.185.016-.01.01-.007.007-.005.116.154.148.18.166.19.064.07.11.116.164.17.125.12.02.019-.4.23-.004.003-.015.009-.367.24-.37.275-.356.294-.337.313-.32.33.125.453.037.134.008.03.15.656.131.695.103.667.01.06.094.756.077.778h3.088V29.99h-2.628v-.003l.001-.02v-.017l.001-.05.002-.094.002-.077V29.6l.003-.081v-.005l.018-.996.029-.805.017-.242.027-.386.061-.47.083-.33.11-.206.1-.122.101-.092.005-.004.113-.076.123-.056.135-.042.15-.03.152-.016.179-.01.167-.005h.034l.22-.003.232.001.084.001.068.001h.045l.028.001h.017l.02.191.039.203.055.206.067.2.008.02.036.084.036.086.023.042.012.023.027.05.029.055-.048-.003-.008-.001-.132-.01-.18-.01-.169-.006-.15-.004-.13-.003h-.17l-.06.007-.033.008-.02.005-.047.022-.044.033-.042.045-.049.107-.04.179-.032.263-.003.052-.023.309-.02.471-.018.594h1.387l.037-.802.054-.572.026-.28.138-.865.206-.845.022-.058.267-.73.342-.616.018-.033.013-.024.007-.013.005-.008.14.136.177.158.2.166.205.157.167.117.026.02.165.098-.191.367-.108.205-.049.093-.243.735-.158.773-.05.447-.04.335-.04.763-.01.713v3.06h-4.337l.008.255.007.205.002.052.008.258.007.258.004.245v.016l.002.262h-1.324l.001-.262v-.261l-.001-.258-.004-.14-.003-.118v-.052l-.007-.205-.01-.256H9.83l.21.159.224.16.212.142.022.015.237.153.234.146.226.137-.372.362-.395.384-.305-.161-.32-.184-.065-.039-.122-.077-.134-.081-.303-.2-.266-.198-.217-.183.07-.074.436-.46H8.1v-1.23h3.286l-.02-.209-.03-.311-.06-.507-.069-.49-.012-.076-.063-.398-.081-.455-.086-.432-.205.359-.191.37-.178.382-.073.174-.092.219-.151.406-.136.418-.018-.003-.305-.074-.943-.224.234-.67m11.71 3.18L22 24.29l1.15-7.059.853-5.234H1.997L2.16 13l.689 4.232L4 24.291l1.382 8.48v.032h.007L8 34.586l5 3.417 5-3.417 2.61-1.783h.008v-.031M4 34l-.2-1.197-2.594-15.571-.873-5.234L0 9.999h26l-1.206 7.233-2.594 15.57L22 34l-1.775 1.183-5.745 3.83h-.001L13 40Zm0 0" transform="matrix(4.29492 0 0 4.26451 4.295 -38.38)"/>
    <path fill="red" d="M115.797 4.473c0 .07-3.848 23.058-8.55 51.093l-8.552 50.97-38.554 25.523-19.16-12.684c-10.54-6.977-19.227-12.75-19.305-12.824C21.55 106.426 4.488 5.219 4.488 4.598c0-.22 6.192-.246 55.653-.246 30.609 0 55.652.054 55.656.12M12.824 13.176c.055.25 3.34 20.219 7.301 44.383 4.035 24.59 7.293 44.007 7.402 44.109.192.18 31.618 21.492 32.297 21.906.317.192 1.711-.719 16.746-10.918 9.02-6.12 16.399-11.199 16.399-11.285 0-.21 14.36-87.793 14.472-88.277l.09-.367h-94.8Zm0 0"/>
    <path fill="red" d="M77.855 64.934c.797.73 2.32 1.914 3.192 2.48l.383.254-.703 1.39c-1.25 2.465-2.051 5.223-2.59 8.942-.207 1.434-.278 3.836-.336 11.621l-.074 9.813H59.055l.113 3.28.113 3.286h-5.508l-.003-1.684c0-.925-.047-2.402-.106-3.285l-.105-1.597h-3.532c-2.218 0-3.53.058-3.53.16 0 .09 1.26.996 2.808 2.011l2.812 1.848-1.523 1.516-1.52 1.515-1.25-.664c-1.511-.804-5.265-3.265-5.68-3.726-.292-.32-.28-.352.704-1.395.55-.582 1-1.11 1-1.164 0-.058-1.04-.101-2.313-.101H39.22V94.34h7.027c5.516 0 7.031-.043 7.027-.203-.007-1.11-.925-7.746-1.414-10.223-.34-1.727-.398-1.91-.574-1.8-.504.308-3.055 5.769-3.894 8.331-.258.793-.547 1.41-.641 1.375s-1.215-.304-2.488-.597c-1.274-.297-2.367-.582-2.434-.641-.121-.105.758-2.629 1.602-4.617 1.285-3.024 3.425-6.856 5.25-9.403.433-.609.793-1.187.793-1.285s-.352-.855-.782-1.683c-1.543-2.977-3.632-4.266-4.433-2.73-.352.675-.7 2.323-.817 3.855a86 86 0 0 1-.187 2.172l-.09.855-1.023-.773a18 18 0 0 0-2.227-1.407c-.906-.472-1.187-.695-1.125-.902.043-.152.168-.902.273-1.672.43-3.07 1.383-5.625 2.497-6.68 1.671-1.578 5.355-1.73 7.52-.308 1.25.824 2.804 2.523 3.741 4.101l.453.766 1.657-1.473c1.578-1.406 4.422-3.554 5.59-4.218l.542-.313.45.574c.246.317 1.07 1.258 1.832 2.098.761.84 1.355 1.547 1.324 1.57-.035.024-.598.356-1.254.735-1.875 1.09-4.453 3.07-6.227 4.785l-1.628 1.578.504 1.883c1.035 3.875 1.726 7.742 2.332 13.05.187 1.626.34 3.012.34 3.079 0 .066 3.011.12 6.699.12h6.695v-4.925H60.883l.004-1.11c.008-3.23.355-10.574.57-12.093.137-.957.406-2.113.605-2.57.41-.954 1.551-2.032 2.438-2.309.332-.105 1.832-.223 3.34-.266l2.738-.074.203 1.09c.172.918.617 2.316 1.082 3.379.094.219-.164.242-2.086.187-3.297-.093-3.3-.082-3.597 5.309-.09 1.625-.164 3.121-.164 3.324l-.004.371h6.078l.101-.511c.059-.286.106-1.004.106-1.602.004-1.336.398-5.144.746-7.242.605-3.656 1.773-7.258 3.144-9.719.418-.75.774-1.375.79-1.39.02-.016.414.32.878.746m-3.074-38.95c.004 4.961.067 8.72.145 8.582.078-.136.418-1.015.758-1.957 1.03-2.855 3.164-7.222 3.402-6.949.059.067.234.453.39.86.157.406.66 1.527 1.122 2.492l.836 1.754-.774 1.156c-1.855 2.77-4.57 9.61-5.465 13.77l-.113.535h4.988v4.925h-5.293v8.54H69.98v-8.54h-4.796v-4.925h4.796v-.848c0-.79-.101-1.004-1.468-3.078-.805-1.23-1.953-3.02-2.551-3.977l-1.086-1.746 1.477-1.762c1.199-1.43 1.496-1.703 1.585-1.457.223.61 1.696 3.996 1.86 4.282.121.203.176-2.844.18-10.094l.003-10.387h4.797ZM64.523 42.203v2.379h-9.757v4.93h8.433v4.597h-8.433v5.254h-5.293V54.11h-8.27v-4.597h8.27v-4.93H39.219V39.82h25.304Zm2.149-21.101v2.46H54.766v5.586h8.93v4.762h-8.93v4.27h-5.293v-4.27h-8.934v-4.762h8.934v-5.585h-10.75v-4.926h27.949Zm0 0"/>
    <path fill="#f8f8f8" d="M107.191 13.137c0 .527-14.39 88.031-14.511 88.222-.184.301-32.301 22.047-32.555 22.047-.121 0-7.496-4.933-16.387-10.969-15.273-10.363-16.175-11.003-16.285-11.535-.066-.312-3.254-19.668-7.082-43.015a55314 55314 0 0 0-7.183-43.723l-.22-1.273h47.114c41.79 0 47.11.027 47.11.246M69.773 27.055l-.043 10.058-.902-2.175c-.496-1.2-.941-2.172-.992-2.168-.11.007-3.043 3.554-3.117 3.761-.047.14 2.75 4.657 4.375 7.067.57.84.722 1.21.722 1.765v.7H65.02v5.253h4.789l.043 4.23.046 4.227 2.52.047 2.523.043v-8.547h5.293v-5.254h-4.93l.325-1.273c1.168-4.586 3.48-10.207 5.308-12.918l.766-1.129-.793-1.578c-.433-.867-1-2.113-1.254-2.766-.258-.656-.511-1.191-.566-1.191-.434 0-2.758 4.875-3.95 8.293-.124.352-.175-1.906-.187-8.008l-.012-8.496h-5.125Zm-31.218-5.953v2.625h10.75v5.257h-8.93v5.09h8.93v4.27h5.625v-4.27h8.93v-5.09h-8.93v-5.257h11.906v-5.254H38.555Zm.496 21.101v2.543h10.254v4.602h-8.266v4.925h8.266v5.254h5.625v-5.254h8.433v-4.925H54.93v-4.602h9.758v-5.09H39.05ZM76 65.48c-1.988 3.582-3.266 8.665-3.707 14.739a202 202 0 0 1-.27 3.406l-.082.863h-5.78l.085-1.355c.05-.746.133-2.203.188-3.242.12-2.407.32-3.313.824-3.782.387-.363.465-.37 2.734-.277 1.781.078 2.313.055 2.246-.098-.64-1.43-1.02-2.53-1.242-3.605l-.27-1.3-2.894.058c-2.586.054-2.984.101-3.723.437-1.75.79-2.421 1.918-2.82 4.735-.234 1.664-.559 8.468-.566 11.918l-.004 1.601h11.246v4.598H58.93l-.106-1.024c-.601-5.656-1.426-10.62-2.402-14.445l-.613-2.418 1.586-1.531c2.16-2.086 4.66-3.973 6.921-5.215.782-.43.825-.516.426-.84-.347-.285-2.64-2.832-3.226-3.582l-.446-.566-1.62 1.078c-1.755 1.16-3.16 2.254-4.97 3.86l-1.144 1.019-.816-1.242c-.997-1.516-2.704-3.145-3.895-3.727a7.5 7.5 0 0 0-3.945-.676c-2.77.293-4.235 1.684-5.13 4.871-.26.922-.995 4.836-.995 5.297 0 .043.586.38 1.297.746.71.367 1.761 1.04 2.332 1.496.566.457 1.066.801 1.101.766.035-.04.14-1.023.235-2.188.261-3.277.695-4.992 1.347-5.34.91-.484 2.551.989 3.735 3.352l.695 1.387-1.54 2.3c-.843 1.266-2.1 3.4-2.788 4.743-1.864 3.625-3.649 8.144-3.328 8.418.164.144 5.351 1.39 5.418 1.305.023-.036.316-.856.652-1.832a51 51 0 0 1 1.324-3.383c.73-1.649 2.246-4.52 2.336-4.422.027.027.281 1.418.563 3.09.445 2.632.722 4.64 1.097 7.925l.09.778h-14.07v5.422h4.5l-1.016 1.136-1.02 1.141.88.695c1.214.961 3.964 2.727 5.472 3.512l1.262.656 1.66-1.636c.91-.899 1.602-1.688 1.535-1.754-.07-.063-.988-.664-2.043-1.336-1.058-.668-2.277-1.485-2.71-1.817l-.794-.597h6.614l.105 1.847c.063 1.016.11 2.493.11 3.282v1.437h5.843l-.105-3.285-.102-3.281h18.649l.074-9.813c.082-10.129.16-11.472.863-14.656.445-2.012 1.395-4.707 2.176-6.16l.726-1.36-1.312-.914c-.723-.504-1.746-1.32-2.277-1.816-.532-.5-1.04-.91-1.133-.91-.09-.004-.543.676-1.008 1.511m0 0"/>
</svg>
