<svg xmlns="http://www.w3.org/2000/svg" width="120" height="120" viewBox="0 0 120 120">
    <path fill="red" stroke="red" stroke-width=".004" d="m-59.456-17.788.57-.071.614-.06.658-.043.704-.028.75-.01 1.13.058 1.002.188.837.337.639.509.122.21.1.17.084.144.102.175.144.908-.068.633-.19.582-.3.533-.395.495-.295.287-.18.174-.386.31-.158.126.047.09.013.025.007.014.007.011v.002l.204.388.28.562.166.35.113.241.28.61.278.623.02.048.254.584-.945.384-.089.037-.47.192-.075-.192-.16-.421-.244-.584-.003-.01-.253-.567-.22-.466-.034-.074-.253-.509-.236-.453v-.001l-.004-.007-.003-.005-.003-.007-.492.278-.484.266-.42.227-.044.023-.43.232-.059.03-.12.064-.202.11-.318.171-.216.13-.201.122-.188.118-.174.117-.164.119-.118.092-.038.03-.016-.03-.62-1.043-.185-.312.18-.107.187-.108.152-.084.04-.021.2-.105.205-.108.212-.107.429-.21.521-.257.314-.158.267-.134.608-.319.033-.017.572-.322.569-.348.468-.328.404-.336.33-.35.25-.363.154-.382.053-.403-.069-.395-.206-.327-.344-.257-.48-.186-.553-.1-.066-.012-.754-.039-.643.017-.523.034-.07.004-.084.007-.691.067-.676.088-.636.103-.568.113.003-.382.013-1.321.527-.083M-51.466-29v1.177h-2.06l.098.262.123.29.057.118.09.186.16.31.165.302.17.287-.585.255-.233.103h1.511v1.153h-3.323v1.13h2.12v.53l.222-.107.222-.104.223-.1.225-.095.227-.091.111-.043.046-.019.033-.01.022-.01.014-.005.1.198.124.206.14.212.15.206.107.13.007.01.045.054.09.103.064.072-.97.335-.934.42-.343.197-.533.309-.741.549-.054.04-.692.677-.345.463-.112.15-.11.15-1.18-.546.096-.145.096-.146.05-.071.051-.074-.563-.47-.04-.028-.02-.013-.593-.409-.72-.421-.765-.378-.788-.326-.778-.259-.011-.004.147-.156.07-.082.088-.102.156-.2.152-.204.135-.198.11-.18.233.09.236.096.237.103.237.109.235.11.234.116v-.64h2.106v-1.129h-3.331v-1.153h1.647l-1.045-.398.186-.304.132-.212.058-.093.19-.3.185-.29.179-.27.168-.246h-2.249V-29h9.038m-3.158 1.567.857-.39h-1.526v2.113h1.578l-.184-.282-.18-.3-.172-.304-.014-.028-.137-.27-.128-.284-.094-.255m-2.609-.094-.111.177-.055.089-.169.298-.167.315-.01.024-.146.3-.14.315-.12.299h1.527v-2.113h-1.308l.588.25.111.046M-43-31.999l-3.8 22.802L-47-8l-7.52 5.013L-56-2l-7.225-4.815L-65-8l-.199-1.197-3.8-22.802h26m-11.331 9.757h-3.474l.325.214.136.096.18.128.307.23.297.24.287.243.165.153.04.036.033.03.023.022.012.01.258-.262.267-.25.279-.239.287-.226.296-.217.304-.208h-.022m-12.673-7.76L-65-17.709l1.383 8.481v.031h.008L-60-6.73l4 2.733L-50.141-8l1.752-1.197h.007v-.031L-47-17.709l.21-1.29 1.793-11.003Zm0 0" transform="matrix(3.78963 0 0 3.7628 272.333 124.173)"/>
    <path fill="#f9f9f9" d="M45.766 99.285A8288 8288 0 0 1 31.39 89.52c-.051-.047-12.832-77.7-12.844-78.004 0-.063 18.691-.11 41.539-.11 38.133 0 41.539.016 41.539.239 0 .27-12.656 77.507-12.738 77.742-.043.117-28.38 19.441-28.715 19.582-.047.015-6.531-4.336-14.406-9.684M71.5 92.938c1.348-.547 2.516-1.047 2.586-1.114.168-.156-1.988-4.992-4.281-9.625-.985-1.996-1.797-3.668-1.805-3.722-.004-.051.395-.41.887-.797 3.836-3.04 5.93-6.29 6.336-9.828.117-1.028.09-1.567-.149-3.012-.265-1.63-.347-1.86-1.074-3.074-1.508-2.516-4.055-4.008-8.246-4.832-4.082-.805-14.055-.606-19.875.402l-.934.16v3.242c0 2.719.035 3.242.215 3.242.117 0 .676-.097 1.246-.214 5.207-1.086 14.082-1.633 17.11-1.051 2.53.488 4.172 1.387 4.953 2.71.37.626.418.84.406 1.962-.012 1.843-.598 3.05-2.402 4.98-2.032 2.176-6.774 5.035-14.34 8.656-2.762 1.325-6.223 3.168-6.36 3.391-.043.063.63 1.293 1.497 2.73 1.074 1.79 1.625 2.579 1.75 2.5.097-.066.949-.624 1.89-1.242.945-.617 3.496-2.078 5.672-3.238a394 394 0 0 0 4.95-2.687c.542-.317 1.062-.575 1.144-.575.383 0 4.394 8.637 5.586 12.032.074.203.164.23.433.125zM61.797 51.43c3.226-4.403 9.066-8.317 15.629-10.47.926-.304 1.68-.581 1.68-.616s-.41-.574-.91-1.2a23 23 0 0 1-1.583-2.285l-.672-1.148-.722.281c-1.395.547-2.614 1.074-3.461 1.496l-.86.434v-1.93h-8.054v-4.148h12.68v-4.438l-2.723-.039-2.723-.043 1.383-.574c.758-.316 1.379-.602 1.379-.637s-.403-.777-.895-1.648c-.933-1.656-2.234-4.41-2.238-4.73 0-.145.86-.184 3.805-.184h3.8v-4.594H43.009v4.59l4.164.039 4.168.039-.594.887c-1.254 1.875-3.45 5.418-3.394 5.476.035.032.863.36 1.847.727l1.79.668-2.95.008-2.941.007v4.446h12.527v4.148H49.72v1.11c0 .609-.028 1.109-.059 1.109-.035 0-.656-.273-1.383-.61a65 65 0 0 0-2.586-1.113l-1.265-.515-.227.34c-.562.847-2.015 2.726-2.566 3.32-.336.363-.582.68-.547.707.031.031.625.238 1.324.46 3.274 1.055 7.653 3.13 10.543 4.993 1.555 1.004 4.223 3.035 4.223 3.219 0 .047-.239.441-.528.867l-.53.781 1.316.602c.718.332 1.71.789 2.203 1.02.496.23.965.425 1.05.433.09.004.586-.574 1.11-1.285m0 0"/>
    <path fill="#f9f9f9" d="M59.945 45.48c-.187-.296-3.03-2.585-4.484-3.605a86 86 0 0 1-1.633-1.172c-.078-.066 2.672-.121 6.102-.121h6.246l-.883.621a42 42 0 0 0-4.188 3.422c-.59.55-1.109.938-1.16.855m2.899-22.003V19.55l5.297.015-.82.375c-.45.207-1.11.504-1.466.66-.554.243-.628.329-.543.614.211.715 1.723 3.656 2.504 4.89l.825 1.297h-5.797ZM52.105 27.34c0-.406 2.286-4.977 3.106-6.203.203-.305.344-.578.309-.602-.032-.027-.512-.234-1.067-.465-.55-.226-1.004-.441-1.004-.468s.942-.051 2.086-.051h2.09v7.851h-2.762c-1.515 0-2.758-.027-2.758-.062m0 0"/>
</svg>
