<svg xmlns="http://www.w3.org/2000/svg" width="120" height="120" viewBox="0 0 120 120">
    <path fill="red" stroke="red" stroke-width=".004" d="M-23 72.403h-4.277v3.065h3.236v1.41h-3.236v2.702h3.751V81h-8.91v-1.42h3.776v-2.701h-3.347v-1.411h3.347v-3.065H-33V71h10v1.403m0 10.206-.21.434-.144.471-.085.454-.007.036-.05.496-.023.482-.004.458v2.1h-4.046v-4.23l.008-.24.03-.208.052-.176.083-.148.117-.124.156-.102.18-.08.2-.06.119-.02.103-.017.243-.022.266-.01.25-.003h.04l.036.18.055.192.032.093.035.103.075.19.08.18.076.154.003.004-.172-.01-.097-.003-.072-.003-.158-.002h-.147l-.103.004-.075.006-.056.004-.042.008-.033.018-.023.028-.01.036-.005.05v.861l.26-.147.14-.077.118-.066.206-.111.05-.028.25-.136.245-.133.239-.132.22.606.02.055.052.147.022-.202.021-.187.063-.386.083-.376.108-.362.134-.34.126-.25.017-.03.014-.03.004-.007.118.098.153.114.172.118.178.113.141.082.025.014.076.037.067.033m0 6.415h-.99l.033.146.04.149.044.147.045.145.047.14.044.133-.838.197-.07.016h1.477v1.043h-1.777l.029.1.03.1.029.084.005.019.034.097.033.096.032.09-1.138.274-.061-.137-.059-.143-.055-.147-.052-.147-.047-.145-.043-.14h-1.6v-1.044h1.563l-.378-.083-.66-.145.384-.845h-1.047V87.98H-23v1.043m-1.576-3.607.001-.155.002-.164.003-.172.007-.175.009-.18.009-.181h-.001l-.029.01-.218.074-.274.095-.295.107-.31.115-.32.12-.211.08-.119.045v.693l.49-.615h.003l.164.085.067.035.127.065.216.106.229.107.227.105.221.096h.002v-.296m-1.145.624-.06-.025-.165-.072-.203-.096-.173-.088v.875h1.746v-.89l-.23.271-.247.291-.211-.08-.226-.09-.231-.096m.67 3.143-.02-.096-.013-.064h-.738l-.022.064-.037.113-.06.183-.058.185-.055.185-.046.177-.038.166h1.385l-.07-.177-.064-.187-.063-.19-.055-.185-.045-.174m-3.318-1.088h-2.769v.586h2.769v3.242h-1.255v-.708h-3.153v-1.012h3.153v-.594h-2.738v-2.45h2.738v-.42h-2.746v-.723h2.746v-.44h-2.69v-.716h2.69v-.433h-2.8v-.73l-.1-.038-.102-.033-.1-.032-.041-.012-.056-.017-.092-.024-.085-.02.079-.473.128-.362.026-.034.162-.227.26-.172.341-.095.26-.018.175-.011h1.616l.536.027.41.094.298.173.055.075.135.186.007.007.065.227.044.153.005.066.029.43v4.528M-15 68l-3.8 22.802L-19 92l-7.52 5.013L-28 98l-7.225-4.815L-37 92l-.199-1.197-3.8-22.802h26m-15.122 15.125h-1.34l-.133.01-.104.037-.046.04-.032.026-.059.107-.04.15-.032.201h2.284v-.122l-.007-.167-.028-.122-.055-.08-.091-.05-.134-.023-.183-.007m-8.882-13.128L-37 82.291l1.383 8.481v.031h.008l2.61 1.785 5 3.415L-22.141 92l1.752-1.197h.007v-.031L-19 82.291l2.003-12.293Zm0 0" transform="matrix(3.78963 0 0 3.7628 166.223 -252.108)"/>
    <path fill="#f9f9f9" d="M45.766 99.285a5552 5552 0 0 1-14.375-9.77c-.032-.027-2.899-17.363-6.371-38.523-3.473-21.164-6.356-38.73-6.407-39.031l-.093-.555h41.554c38.32 0 41.551.016 41.551.239 0 .273-12.652 77.507-12.738 77.742-.043.117-28.38 19.441-28.715 19.582-.047.015-6.531-4.336-14.406-9.684m24.687-5.695c1.106-.258 2.027-.48 2.043-.496.024-.012-.125-.489-.324-1.055l-.363-1.027 3.351-.04 3.348-.042v-4.137l-2.274-.02-2.273-.011 1.082-.262c.598-.148 1.129-.305 1.18-.355.078-.079-.18-1.055-.782-3.02-.046-.14.383-.187 1.801-.187h1.863V78.94H60.31v3.996h3.867l-.742 1.579c-.41.867-.723 1.59-.704 1.605.024.02.68.172 1.458.336l1.417.305-4.847.031v4.144h6.09l.336 1c.535 1.602.851 2.262 1.062 2.188a93 93 0 0 1 2.207-.535m-11.637-5.914V81.46h-10.59v-2.078H58.84l-.059-9.516c-.066-10.398-.054-10.285-.953-11.449-.484-.637-1.219-1.027-2.473-1.32-1.363-.32-9.675-.32-10.91-.004-1.48.383-2.28 1.12-2.82 2.593-.316.876-.59 2.403-.45 2.524.063.055.45.184.86.293 1.305.332 1.27.289 1.27 1.781v1.324h10.59v1.485H43.754v2.812h10.14v1.63H43.458v2.812h10.438v1.484H43.457v9.328h10.438v2.074h-11.93v4h11.93v2.664h4.921Zm18.395-16.621c.059-4.946.125-6.524.32-7.52.297-1.55.676-2.762 1.211-3.914.387-.836.395-.89.14-1.039-.886-.512-2.894-1.852-2.976-1.992-.234-.375-.52-.094-1.031 1.012-.625 1.359-1.2 3.433-1.457 5.285l-.184 1.289-.484-1.32c-.312-.856-.55-1.301-.684-1.27-.105.023-1.351.676-2.765 1.445-1.406.766-2.602 1.395-2.649 1.395s-.07-.75-.047-1.664l.043-1.668 1.829-.043c1.003-.02 1.824-.063 1.824-.09s-.188-.477-.426-.996c-.422-.934-.797-2.028-.984-2.856l-.094-.43-1.598.087c-2.066.113-2.949.316-3.93.894-.609.363-.882.645-1.171 1.211l-.371.742-.043 8.848-.047 8.852h15.496Zm-.047-21.07v-2.739H62.996v-9.922h12.227v-5.48H62.996V20.437h16.11v-5.48h-38.04v5.48h16.41v11.407H44.79l.082 5.406 6.3.035 6.306.04v9.921h-14.32v5.477h34.007Zm0 0"/>
    <path fill="#f9f9f9" d="M67.383 86.383c.05-.227.305-1.09.562-1.926l.47-1.52h1.323c.93 0 1.336.055 1.371.188.164.617.961 3.191 1.055 3.402.102.243-.066.266-2.383.266h-2.496Zm-.809-14.106c0-.816.035-1.48.078-1.48s.465.187.934.422 1.488.676 2.266.984l1.414.555.859-.942.86-.949.003 1.445v1.442h-6.414Zm4.762-2.75c-.773-.37-1.762-.851-2.2-1.074l-.788-.398-.328.379c-.18.207-.575.675-.88 1.039l-.554.652-.008-1.117-.004-1.125.485-.16a195 195 0 0 0 3.21-1.153c1.5-.55 2.754-.972 2.782-.941.094.105-.106 4.574-.203 4.574-.059 0-.735-.305-1.512-.676m-25.863-7.211c.16-.765.414-1.199.816-1.402.484-.246 6.152-.266 6.848-.023.531.18.758.605.758 1.398v.508h-8.528Zm0 0"/>
</svg>
