<svg xmlns="http://www.w3.org/2000/svg" width="120" height="120" viewBox="0 0 120 136">
    <path fill="none" stroke="red" stroke-width=".004" d="m38.976 17.552-.007-.008-.285-.313-.525-.576.224-.177.233-.176.236-.173.044-.03.193-.137.234-.16.228-.152-.212-.295-.144-.171-.085-.102-.214-.217-.033-.034-.266-.225-.287-.203-.155-.088-.059-.035-.04-.022-.025-.015-.02-.01-.011-.007.148-.141.158-.172.16-.19.151-.2.135-.196.11-.181.034.025.619.47.473.522.083.091.47.72.1.21.265.555.025.051v.003l.013.034.307.865.144.54.035.136.08.298h.544v-2.943l-1.11.292-.173.046-.04.01-.016.005-.012.003-.012.003-.006.001-.004-.177-.011-.196-.018-.2-.022-.197-.024-.18-.027-.153.365-.112.54-.166.666-.216.469-.165.315-.129.058-.029.056-.027.092-.046.14-.09.03.136.007.033.056.19.07.198.08.194.085.173.08.127.008.014-.106.056-.052.039-.048.034-.089.093-.024.04-.048.082-.047.15-.017.188v7.809H38.46v-4.89h1.975l-.055-.189-.058-.185-.02-.06-.042-.122-.065-.178-.068-.177-.071-.176-.2.157-.199.164-.192.167-.178.164-.003.004-.165.162-.144.155m5.234 1.67h.923v-.752h-1.384v-1.102h1.384v-2.345l-.093.02-.61.133.027.008.583.172.04.011-.04.15-.03.117-.075.298-.063.276-.01.041-.068.32-.057.31-.043.282-.915-.239.096-.304.097-.31.032-.1.064-.204.096-.293.093-.272.09-.24-.598.122-.012-.137-.021-.22-.065-.707.377-.097.306-.08.687-.175.019-.004.66-.165.66-.166.627-.16.101-.025.481-.125.287 1.219-.233.046-.234.047-.019.004-.269.05h-.002l-.01.003-.236.045-.036.006-.296.055-.306.058v2.575h1.452v1.102h-1.452v.752h.885v.46l.068-.057.068-.056.068-.055.153-.121.02-.017.016-.012.01-.008.005-.004.049.164.071.208.089.233.097.235.05.111.047.107.037.072.035.07.017.033-.422.314-.419.359-.07.07h-.002l-.332.326-.377.428-.338.452-.287.465-.713-.27-.3-.113.024-.053.026-.051.028-.052.03-.053.032-.052.002-.002.018-.028.014-.022-.306-.247-.3-.253-.285-.254-.237-.222-.027-.024-.235-.235-.2-.214.75-.897.136.161v-.896m-4.271 11.341-.018-.003-1.248-.298.235-.67.03-.073.235-.57.293-.614.32-.587.174-.276.174-.28.372-.524-.098-.22-.058-.13-.162-.294-.165-.235-.168-.171-.17-.105-.168-.036-.119.045-.098.137-.079.242-.06.35-.02.197-.028.268-.032.572-.001.02-.157-.145-.027-.02-.148-.117-.188-.128-.191-.114-.19-.098-.18-.08.124-.846.09-.336.079-.295.224-.444.291-.282.366-.148.452-.044.358.043.333.125.31.202.284.273.034.043.23.295.123.201.02.03.1.166.148-.141.023-.024.106-.103.286-.255.295-.241.305-.23.314-.216.098-.063.135-.086.038-.024.019-.012.017-.01.01-.007.007-.005.116.154.148.18.166.19.173.186.165.17.125.12.019.018-.399.231-.004.003-.296.193-.032.021-.045.03-.01.006-.037.028-.085.062-.194.143-.036.027-.018.014-.355.294-.338.313-.319.33.162.587.008.028.15.658.13.688v.006l.103.667.01.061.095.755.077.779h3.088V29.99h-2.628v-.023l.001-.003v-.014l.001-.052.002-.092.002-.078V29.6l.002-.082v-.004l.012-.67.007-.326.029-.805.017-.242.026-.387.062-.47.042-.167.041-.162.11-.206.1-.122.106-.096.112-.076.124-.056.135-.042.15-.03.152-.016.179-.01.2-.007.22-.002h.051l.182.001.083.001.069.001.045.001h.045l.02.192.039.203.054.206.068.2.008.02.072.17.08.151.003.002.003.008.004.006v.003l-.188-.013-.18-.01-.168-.008-.15-.003-.089-.002-.04-.002h-.103l-.068.002-.06.005-.053.013-.047.022-.044.033-.043.046-.048.106-.04.18-.032.263-.004.052-.022.309-.02.47-.018.595h1.387l.037-.803.054-.571.026-.28.062-.394.001-.005v-.007l.003-.01v-.003l.052-.325.019-.121.207-.846.021-.057.268-.73.3-.542.041-.075.019-.033.013-.024.007-.012.005-.009.14.137.176.157.2.166.206.158.193.135.165.1-.3.572-.048.092-.244.736-.157.773-.052.447-.038.334-.04.763-.01.714v3.058h-4.337l.008.257.009.256.008.259.006.258.005.244v.017l.002.262h-1.325l.001-.262v-.261l-.001-.258-.003-.14-.003-.119-.002-.051-.005-.205-.01-.257H39.83l.209.16.225.16.211.142.023.015.237.153.208.13.026.015.225.138-.251.244-.12.117-.395.384-.305-.16-.32-.184-.065-.04-.256-.157-.303-.202-.267-.197-.216-.183.07-.073.436-.462H38.1v-1.227h3.287l-.051-.521-.06-.508-.068-.49-.012-.075-.063-.398-.081-.455-.087-.432-.021.038-.183.32-.191.371-.178.382-.073.174-.092.219-.151.406-.137.418m10.679 2.209L52 24.29l1.15-7.059.853-5.235H31.997L32.16 13l.689 4.233L34 24.291l1.382 8.48v.032h.007L38 34.586l5 3.417 5-3.417 2.61-1.783h.008v-.031M34 33.999l-.2-1.196-2.594-15.571-.873-5.235L30 10h26l-1.206 7.233-2.594 15.57L52 34l-1.775 1.184-5.745 3.83h-.001L43 40l-9-6m12.614-17.3-.088-.325-.08-.33-.07-.322-.058-.3-.038-.24-.005-.03.813-.233.028-.008.014-.005.03.271.001.006.05.298.066.326.078.332.086.329.09.309-.008.002-.435.121-.38.107-.094-.308m-6.935 4.76h2.375v-.829H39.68v.828m5.435-.438.2.183.143.123.062.055.042-.055.103-.134.148-.185.15-.183.154-.177.157-.175.161-.17h-2.057l.17.172.18.178.19.183.123.116.074.069m-4.17-1.417h1.11v-.85H39.68v.85Zm0 0" transform="matrix(4.29492 0 0 4.26451 -124.553 -38.38)"/>
    <path fill="red" d="M115.797 4.473c0 .066-3.848 23.058-8.55 51.09l-8.552 50.968-38.554 25.524-19.16-12.684c-10.54-6.973-19.227-12.746-19.305-12.824C21.55 106.426 4.484 5.215 4.484 4.597c0-.218 6.196-.245 55.657-.245 30.609 0 55.652.054 55.656.12M12.824 13.176c.055.25 3.34 20.219 7.301 44.379 4.031 24.578 7.29 44.011 7.402 44.113.192.18 31.618 21.492 32.297 21.902.317.196 1.711-.715 16.746-10.914 9.02-6.12 16.399-11.199 16.399-11.289 0-.207 14.36-87.789 14.472-88.273l.086-.367H12.73Zm0 0"/>
    <path fill="red" d="M77.855 64.934c.797.726 2.32 1.914 3.192 2.48l.383.254-.703 1.39c-1.25 2.465-2.051 5.223-2.59 8.942-.207 1.434-.278 3.836-.336 11.621l-.074 9.809H59.055l.226 6.57h-5.508l-.003-1.684c0-.925-.047-2.402-.106-3.285l-.11-1.601h-3.527c-2.218 0-3.53.062-3.53.164 0 .09 1.26.992 2.808 2.011l2.808 1.848-3.039 3.031-1.25-.664c-1.511-.808-5.265-3.265-5.68-3.726-.292-.324-.28-.352.704-1.395.55-.586 1-1.11 1-1.164 0-.058-1.043-.105-2.317-.105H39.22v-5.09h7.027c5.516 0 7.027-.043 7.027-.203-.007-1.114-.925-7.746-1.414-10.223-.34-1.727-.398-1.91-.574-1.805-.504.309-3.055 5.774-3.894 8.336-.258.793-.547 1.41-.641 1.375s-1.215-.304-2.488-.597c-1.274-.297-2.367-.586-2.434-.641-.121-.105.758-2.629 1.602-4.617 1.285-3.024 3.425-6.856 5.246-9.403.437-.609.797-1.187.797-1.285 0-.101-.352-.855-.782-1.683-1.543-2.977-3.632-4.266-4.433-2.73-.352.675-.7 2.323-.817 3.85-.054.724-.14 1.704-.187 2.173l-.09.86-1.023-.778a19 19 0 0 0-2.227-1.403c-.906-.472-1.187-.695-1.125-.902.043-.152.168-.902.273-1.672.426-3.07 1.383-5.625 2.497-6.68 1.671-1.582 5.355-1.73 7.52-.308 1.25.82 2.804 2.523 3.741 4.101l.453.766 1.657-1.476c1.578-1.403 4.422-3.551 5.59-4.215l.542-.313.446.574c.25.313 1.074 1.258 1.836 2.098.761.84 1.355 1.547 1.32 1.57a60 60 0 0 1-1.25.735c-1.875 1.086-4.453 3.07-6.227 4.785l-1.628 1.578.504 1.883c1.035 3.875 1.726 7.738 2.332 13.047.187 1.629.34 3.011.34 3.082 0 .066 3.011.12 6.699.12h6.695v-4.925H60.883l.004-1.11c.008-3.234.355-10.574.57-12.093.137-.961.406-2.117.602-2.57.414-.954 1.554-2.032 2.441-2.313.332-.101 1.832-.223 3.34-.262l2.738-.078.203 1.094c.168.918.617 2.316 1.082 3.379.094.219-.164.242-2.086.187-3.297-.093-3.304-.082-3.597 5.309-.09 1.625-.164 3.121-.164 3.324l-.004.371h6.078l.101-.515c.059-.282.106-1 .106-1.598.004-1.34.398-5.148.746-7.242.605-3.656 1.773-7.258 3.144-9.719.415-.75.774-1.375.79-1.39.02-.02.414.316.878.746m2.024-45.86c.094.438.355 1.551.574 2.48.223.926.356 1.712.3 1.747-.058.031-1.651.344-3.538.695l-3.43.633v11.086h6.285v4.597h-6.285v3.286h3.8v.984c0 .543.063.984.142.984.074 0 .484-.27.91-.597.43-.328.793-.57.816-.535.024.039.215.586.434 1.214.215.633.64 1.7.949 2.364.305.668.555 1.265.555 1.324 0 .062-.5.477-1.114.922-2.46 1.789-5.828 5.344-7.453 7.87-.41.634-.797 1.216-.867 1.294-.117.129-3.691-1.11-4.027-1.39-.078-.071.011-.391.21-.727l.356-.598-.457-.355c-1.219-.946-3.902-3.332-5.066-4.508l-1.301-1.313 1.543-1.832 1.539-1.836.293.38c.285.366.293.323.297-1.634l.004-2.011h3.968v-3.285h-5.953v-4.598h5.953V25.57l-1.363.305c-.75.168-1.46.309-1.582.313-.523.007.063.312 1.266.652l1.304.367-.46 1.816c-.254 1-.626 2.684-.825 3.743l-.363 1.925-1.734-.464c-.957-.258-1.778-.508-1.829-.559-.093-.094 1.208-4.324 1.891-6.148.215-.579.36-1.082.32-1.125-.039-.04-.609.05-1.261.199-.657.144-1.207.246-1.227.218-.066-.085-.441-4.269-.387-4.316.028-.027 3.621-.941 7.989-2.039a4875 4875 0 0 0 8.293-2.082c.312-.086.375-.004.53.7M67.172 49.441a75 75 0 0 0 2.5 2.38l1.262 1.136.96-1.187a69 69 0 0 1 2.024-2.383l1.062-1.192h-9.043Zm0 0"/>
    <path fill="red" d="M77.82 25.738c.04.203.16.926.27 1.602.105.676.445 2.226.754 3.441.304 1.211.511 2.246.46 2.297-.1.106-3.097.969-3.167.914-.211-.168-1.617-6-1.723-7.133l-.05-.566 1.57-.457c.863-.254 1.625-.461 1.691-.465.066 0 .152.164.195.367m-16.304-7.586c.105.457.457 1.399.777 2.09l.586 1.258-.582.496c-1.145.98-1.082-.11-1.082 18.723v17H40.707V37.027h4.215c3.488 0 4.219-.039 4.219-.226 0-.125-.293-1.067-.649-2.094-.847-2.434-.851-2.441-1.02-2.441-.202 0-2.163 1.64-3.511 2.937l-1.125 1.086-1.152-1.23a68 68 0 0 1-1.649-1.836l-.5-.606 1.621-1.215a79 79 0 0 1 2.899-2.066c.707-.473 1.28-.922 1.28-1 0-.297-1.507-2.113-2.753-3.313-1.125-1.085-2.96-2.445-3.578-2.656-.113-.035.23-.523.793-1.12a23 23 0 0 0 1.8-2.235l.81-1.176 1.277.965c4.254 3.219 7.41 8.644 9.43 16.215l.534 2.011h2.438v-6.32c0-4.953-.043-6.32-.207-6.32-.113.004-1.395.324-2.852.71l-2.644.704-.2-1.817c-.105-1-.234-2.011-.277-2.246-.082-.414-.035-.441 1.684-.965 3.586-1.09 7.258-2.347 8.45-2.89a32 32 0 0 1 1.253-.559c.016 0 .117.371.223.828m-15.684 25.2v1.886h10.254v-3.777H45.832Zm0 8.046v1.887h10.254v-3.777H45.832Zm0 0"/>
    <path fill="#f8f8f8" d="M107.191 13.137c0 .527-14.39 88.031-14.511 88.222-.184.297-32.301 22.047-32.555 22.047-.121 0-7.496-4.937-16.387-10.969-15.273-10.363-16.175-11.003-16.285-11.539-.066-.308-3.254-19.668-7.082-43.015-3.832-23.348-7.062-43.02-7.183-43.723l-.22-1.27h47.114c41.79 0 47.11.028 47.11.247m-46.886 4.375c-1.102.574-4.313 1.718-7.828 2.785l-2.868.871.094.469c.05.258.18 1.332.281 2.386s.203 1.942.227 1.965c.031.035 4.348-1.058 5.422-1.375.273-.082.289.285.289 6.082v6.168H53.81l-.352-1.351q-3.065-11.83-9.55-16.797c-.762-.586-1.458-1.063-1.544-1.063s-.242.164-.347.368c-.34.656-1.907 2.644-2.715 3.457-.434.43-.762.804-.727.832s.696.457 1.469.953c1.57 1.008 3.184 2.5 4.352 4.023l.773 1.012-2.023 1.406c-1.114.77-2.458 1.742-2.985 2.156l-.96.754.831.934c.453.516 1.274 1.418 1.813 2.004l.988 1.066 1.293-1.246c1.887-1.812 3.188-2.851 3.355-2.68.122.125 1.497 3.903 1.497 4.11 0 .035-1.899.062-4.22.062H40.54v21.02h20.84v-7.301l1.695 1.656c1.543 1.508 3.442 3.192 4.64 4.117l.466.36-.352.683c-.195.375-.328.707-.3.735.03.027 1.042.418 2.25.867l2.195.82.761-1.172c1.852-2.855 5.391-6.62 7.871-8.378.614-.434 1.118-.82 1.118-.864 0-.039-.215-.492-.477-1.011-.262-.516-.754-1.676-1.09-2.583-.34-.902-.644-1.671-.683-1.707-.035-.039-.438.243-.891.625l-.828.692v-1.988H73.95v-2.957h6.285V35.55H73.95V24.78l3.48-.636c1.915-.352 3.516-.692 3.56-.758.124-.207-1.137-5.242-1.317-5.242-.207 0-16.7 4.125-16.781 4.199-.032.027.035 1.09.148 2.36.23 2.597.11 2.444 1.691 2.07.52-.126.95-.16.95-.079 0 .078-.114.426-.254.774-.32.8-2.07 6.32-2.02 6.37.078.071 3.98 1.056 4.02 1.016.02-.023.23-1.042.469-2.261.242-1.219.613-2.88.832-3.696l.394-1.476.016 4.066.015 4.063H63.2v4.926h5.953v2.957h-3.968l-.012 1.847c-.008 1.016-.05 1.754-.098 1.64-.176-.433-.539-.14-2.047 1.677l-1.566 1.882-.047-12.68c-.027-6.972-.004-13.144.055-13.71.09-.899.183-1.117.71-1.66.333-.344.704-.657.825-.696.16-.05.086-.32-.29-1.027a13.5 13.5 0 0 1-.85-2.129c-.192-.644-.376-1.273-.415-1.39-.039-.122-.125-.196-.195-.165-.066.032-.496.25-.95.489m13.89 8.71c-.207.204 1.457 7.626 1.782 7.95.066.066 1.675-.332 3.453-.852.238-.07.215-.265-.207-1.84-.422-1.562-.957-4.105-1.22-5.8l-.093-.594-1.805.512c-.992.285-1.851.566-1.91.625M76 65.48c-1.988 3.579-3.266 8.665-3.707 14.739a202 202 0 0 1-.27 3.406l-.082.863h-5.78l.085-1.355c.047-.746.133-2.203.184-3.242.125-2.407.324-3.313.828-3.786.387-.363.465-.37 2.734-.273 1.781.074 2.313.055 2.242-.098-.636-1.43-1.015-2.53-1.238-3.605l-.27-1.3-2.894.058c-2.586.054-2.984.101-3.723.433-1.75.793-2.421 1.922-2.82 4.739-.234 1.664-.559 8.464-.566 11.918l-.004 1.601h11.246v4.598H58.93l-.106-1.028c-.601-5.656-1.426-10.617-2.402-14.445l-.613-2.414 1.586-1.531c2.16-2.086 4.66-3.973 6.921-5.215.782-.43.825-.516.426-.84-.347-.285-2.64-2.836-3.226-3.586l-.446-.566-1.62 1.082c-1.755 1.16-3.16 2.254-4.97 3.86l-1.144 1.019-.816-1.242c-.997-1.516-2.704-3.149-3.895-3.727a7.4 7.4 0 0 0-3.945-.676c-2.774.293-4.235 1.68-5.13 4.867-.26.926-.995 4.836-.995 5.301 0 .043.582.375 1.297.742.71.371 1.761 1.043 2.328 1.5.57.457 1.07.801 1.105.762.035-.035.14-1.02.235-2.187.261-3.274.69-4.989 1.347-5.336.91-.485 2.551.988 3.735 3.351l.695 1.387-1.54 2.3c-.843 1.266-2.1 3.4-2.788 4.743-1.864 3.621-3.649 8.144-3.328 8.418.164.144 5.351 1.387 5.418 1.3.023-.03.316-.855.652-1.828a50 50 0 0 1 1.324-3.382c.73-1.649 2.246-4.52 2.336-4.422.027.027.281 1.418.563 3.09.445 2.629.722 4.636 1.097 7.922l.09.78h-14.07v5.419h4.5l-1.016 1.14-1.02 1.141.88.695c1.214.961 3.964 2.727 5.472 3.512l1.262.656 1.656-1.636c.914-.899 1.606-1.688 1.535-1.754-.066-.067-.984-.664-2.039-1.336-1.058-.668-2.277-1.489-2.71-1.817l-.794-.601h6.614l.105 1.847c.059 1.02.11 2.496.11 3.286v1.437h5.84l-.204-6.57h18.649l.074-9.809c.078-10.133.16-11.472.863-14.656.442-2.012 1.395-4.707 2.176-6.16l.726-1.364-1.312-.91c-.723-.504-1.746-1.32-2.277-1.82-.532-.496-1.04-.906-1.133-.91-.09 0-.543.68-1.008 1.515m0 0"/>
    <path fill="#f8f8f8" d="M74.168 48.75c-.164.215-.75.902-1.293 1.531a58 58 0 0 0-1.492 1.77l-.504.629-4.453-4.305 8.047-.016Zm-18.246 2.648v1.723H46v-3.45h9.922Zm0-8.046v1.722H46v-3.449h9.922Zm13.23-16.934c0 .324-.039.594-.086.594-.293 0-2.062-.567-2.062-.664 0-.063.242-.157.535-.207.297-.051.781-.145 1.078-.207.528-.11.535-.102.535.484m0 0"/>
</svg>
