<svg xmlns="http://www.w3.org/2000/svg" width="120" height="120" viewBox="0 0 120 120">
    <path stroke="red" stroke-width=".004" d="M87.262 71v4.176l.149-.144.147-.14.146-.133.145-.13.143-.125.062-.052.048-.043.019-.015.008-.008.005-.003.11.15.139.19.156.207.162.208.157.19.141.156-.384.292-.162.123-.544.483-.297.3-.23.233-.49.573-.25.337-.192.259-.375.605-.057-.022h-.002l-1.159-.448.167-.275.077-.12.1-.156.187-.275.196-.275.203-.272.212-.268V71h1.263m-4.135.038.035.202.051.219.06.22.002.01.072.227.045.117.035.096.044.106.01.024.019.04.004.014.004.007.002.005-.308-.013-.307-.008-.29-.004h-.255l-.093.002h-.113l-.135.008-.086.003-.003.001-.064.012-.054.023-.034.037-.02.053-.008.07v3.73h3.141v1.209H79v-1.21h1.455V72.48l.011-.313.04-.263.073-.218.002-.005.11-.174.155-.142.206-.11.242-.083.283-.058.323-.038.02-.002.345-.02.41-.012.425-.002h.027m5.054 6.641.082.145.007.01.11.184.123.192.13.192.126.173.094.114.023.03-.447.31-.366.294-.085.07-.44.395-.084.084-.326.325-.36.41-.295.392-.036-.015-.42-.176-.76-.318.41-.506.35-.383.113-.127.495-.5.519-.474.522-.437.322-.24.193-.144m-3.745 2.71h-5.168v-1.209h5.168v1.21M88.018 82l.116.138.158.16.18.17.188.162.17.133.011.007.158.108-.714.571-.411.52-.09.112-.324.67-.185.69-.07.575-.015.11-.02.66v1.58l.098-.08.1-.075.102-.076.102-.07.003-.003.209-.146.117.149.008.008.154.17.177.173.183.164.152.122.027.02.095.064.068.046-.702.48-.622.516-.286.285-.258.254-.367.436-.096.114-.387.55-.03.052-.28.481-1.485-.237.038-.065.038-.066.077-.132.04-.064.041-.062h-2.305l-.22.047-.041-.025-.907-.533.039-.06.097-.151.147-.216.158-.222.075-.101.088-.12.17-.224.133-.167.041-.052H79v-6.084l.016-.314.052-.261.09-.215.138-.178.186-.142.24-.112.15-.042.14-.04.339-.058.025-.002.121-.012.24-.024.124-.006.035-.002.28-.014.491-.01.253-.002.11-.001h.183l.051.189.075.21.091.219.102.216.105.202.1.17.005.008-.415-.02-.407-.01h-.01l-.391-.003h-.345l-.278.001-.184.001-.11.008-.086.022-.064.033-.042.05-.026.07-.008.091v.84h5.823l.14-.36.032-.077.221-.424.271-.406.326-.383.384-.355.36-.26.034-.026.027-.02.014-.01.01-.007m-2.162 4.087.004-.07.008-.098.015-.168.02-.17.026-.169h-2.097v1.008h2.005l.009-.165.01-.168M97 68l-3.8 22.802L93 92l-7.52 5.013L84 98l-7.225-4.815L75 92l-.199-1.197L71 68.001h26M82.515 87.48h-2.14v.962h2.14v-.962m-.595-1.06h.595v-1.009h-2.14v1.008h1.545m3.831 3.257.12-.127h-2.4l-.093.122-.095.13-.094.132-.092.138-.026.04-.063.096-.082.136H85.2l.105-.135.078-.096.03-.039.11-.133.113-.132.115-.132M72.996 69.998 75 82.291l1.383 8.481v.031h.008L79 92.588l5 3.415L89.859 92l1.752-1.197h.007v-.031L93 82.291l2.003-12.293H72.996M85.83 87.481h-1.998v.962h1.998Zm0 0" transform="matrix(3.78963 0 0 3.7628 -258.215 -252.108)"/>
    <path fill="#f9f9f9" d="M46.066 99.484c-7.714-5.23-14.18-9.62-14.379-9.761-.34-.235-.609-1.797-6.667-38.73-3.473-21.161-6.356-38.731-6.407-39.032l-.093-.555h41.554c38.32 0 41.551.016 41.551.239 0 .273-12.652 77.507-12.738 77.742-.043.12-28.387 19.445-28.715 19.582-.047.015-6.399-4.246-14.106-9.485m20.922-5.754c.668-1.214 2.57-3.87 3.723-5.203 1.457-1.675 4.078-3.968 6.113-5.332.754-.507 1.38-.968 1.38-1.023.003-.05-.317-.332-.716-.621-.394-.29-1.242-1.067-1.883-1.73l-1.164-1.212-1.097.758-1.102.762.004-4.04c.008-4.296.172-6.128.742-8.109.805-2.8 2.446-5.234 4.782-7.09.73-.581 1.332-1.109 1.332-1.167-.004-.059-.329-.325-.72-.59-.398-.266-1.218-.985-1.823-1.59-.61-.61-1.164-1.11-1.23-1.11-.071-.003-.548.294-1.06.657-1.148.816-2.957 2.676-3.796 3.902-.614.899-1.625 2.848-1.934 3.727l-.16.449H46.437v-1.754c0-2.508-.374-2.328 4.79-2.285 2.289.016 4.16.012 4.16-.008 0-.023-.293-.61-.653-1.305-.359-.691-.812-1.734-1-2.32l-.343-1.066-.907.004c-2.058.007-6.23.296-7.207.496-2.117.437-3.324 1.25-3.867 2.61-.25.62-.27 1.546-.308 12.995l-.043 12.328h11.164l-1.461 1.95C49.96 87.879 49.164 89 48.996 89.3l-.309.539 1.727 1.008 1.73 1.007 4.754-.023c2.618-.012 4.754.02 4.754.066 0 .051-.148.348-.332.665-.187.32-.304.609-.261.644.05.05 3.808.703 5.558.969.067.011.235-.188.371-.446m3.684-42.402c1.808-2.23 6.043-6.05 7.785-7.016.258-.148.25-.18-.102-.644-.543-.723-2.207-3.227-2.277-3.43-.164-.496-5.418 3.922-8.133 6.84-1.816 1.95-3.183 3.598-3.074 3.711.117.125 4.285 1.906 4.488 1.922.102.008.692-.613 1.313-1.383M61.8 48.133v-2.367H42.113v4.738h19.688Zm7.515-6.043c2.211-3.293 5.825-7.149 8.614-9.176.64-.469 1.164-.902 1.168-.965.004-.058-.38-.566-.852-1.125a36 36 0 0 1-1.601-2.066c-.41-.578-.793-1.055-.848-1.059-.055 0-.813.633-1.68 1.41l-1.578 1.414V14.957h-4.922v20.988l-.945 1.246c-1.54 2.024-3.488 4.98-3.352 5.082.157.13 4.266 1.688 4.473 1.7.16.011.695-.657 1.523-1.883m-5.726-5.063v-2.37H51.66V20.284l.41-.164c.266-.101 1.446-.133 3.364-.094 2.66.063 2.941.047 2.847-.168-.386-.879-.96-2.636-1.18-3.625l-.261-1.172-2.406.086c-4.094.149-5.93.625-6.899 1.793-.863 1.04-.851.954-.91 9.68l-.055 8.035h-5.504v4.739H63.59Zm0 0"/>
    <path fill="#f9f9f9" d="M59.563 71.164v-1.852h7.789l-.086.485c-.047.266-.133 1.094-.188 1.848l-.098 1.37h-7.418Zm-13.125 0v-1.852h7.906v3.704h-7.907Zm0 7.703v-1.703h7.906v3.406h-7.907Zm13.125 0v-1.703h7.457v3.406h-7.457Zm-3.282 8.836c0-.133 1.383-2.164 1.754-2.582.211-.234.63-.258 4.606-.258h4.375l-2.457 2.953-4.137.004c-2.277.004-4.14-.047-4.14-.117m0 0"/>
</svg>
