<svg xmlns="http://www.w3.org/2000/svg" width="120" height="120" viewBox="0 0 120 120">
    <path stroke="red" stroke-width=".004" d="M53.89 16.015v.317h3.998V16h1.27v4.227l.163-.079.163-.076.162-.07.163-.066.165-.062.13-.044.022-.007.01-.003.008-.002.11.166.136.19.15.2.087.106.044.055.026.035.157.18.145.15-.328.104-.237.073-.56.216-.545.25-.524.276-.493.303-.454.324h2.813v1.144h-4.067v.748l.484-.038.256-.02.228-.016.48-.03.477-.024.474-.02.44-.013h.027l.026.17.041.186.01.043.042.153.023.074.038.12.065.182.03.08.021.055.012.026-1.184.056-1.197.083-.053.006-1.122.106-1.114.136-1.014.162-.877.185-.894-1.02.453-.106.342-.07.132-.028.49-.09.504-.08.223-.03.295-.04.527-.065v-.881h-4.09v-1.144h2.553l-.504-.288-.022-.014-.516-.307-.494-.31-.458-.302-.41-.289-.348-.268.143-.188.56-.733.027-.037.019-.024.436.366.375.282.156.117.042.03.56.388.647.42.666.407.658.378v-1.53h1.315v1.53l.35-.344.372-.327.018-.012.377-.295.413-.289.43-.266.109-.06.286-.16.046-.023H52.56v-4.283h1.33M51 6.441h4.394V5h1.34v1.44h4.265v1.15h-4.265v.577h3.173v4.292h-3.173v.524h4.003v1.147h-4.003V15h-1.34v-.87h-4.077v-1.148h4.077v-.524h-3.252V8.166h3.252V7.59H51V6.441M69 2l-3.8 22.802L65 26l-7.52 5.013L56 32l-7.225-4.815L47 26l-.199-1.197L43 2.001h26m-12.266 9.447h1.92v-.654h-1.92v.654m-11.738-7.45L47 16.291l1.383 8.481v.031h.008L51 26.588l5 3.415L61.859 26l1.752-1.197h.007v-.031L65 16.291l.21-1.29 1.793-11.003H44.996m12.892 13.293H53.89v.595h3.998v-.595m0 2.047v-.587H53.89v.587h3.998m.765-10.154h-1.92v.655h1.92v-.655m-5.187 0v.655h1.928v-.655h-1.928m0 2.264h1.928v-.654h-1.928Zm0 0" transform="matrix(3.78963 0 0 3.7628 -152.106 -3.763)"/>
    <path fill="#f9f9f9" d="M46.066 99.484c-7.714-5.23-14.18-9.62-14.379-9.761-.34-.235-.609-1.797-6.667-38.73-3.473-21.161-6.356-38.731-6.407-39.032l-.093-.555h41.554c38.145 0 41.551.016 41.551.239 0 .27-12.656 77.507-12.738 77.742-.043.12-28.387 19.445-28.715 19.582-.047.015-6.399-4.246-14.106-9.485m5.02-5.652c4.703-1.039 11.89-1.824 21.789-2.387.883-.054 1.605-.125 1.605-.168 0-.039-.168-.55-.375-1.132a19 19 0 0 1-.578-2.024l-.195-.96-1.773.042c-1.793.047-5.512.246-7.782.422l-1.23.094v-2.707H77.91v-4.438l-5.18-.039-5.18-.043 1.415-.93c2.418-1.597 6.59-3.566 9.031-4.253.484-.141.945-.309 1.02-.38.074-.066-.2-.48-.641-.96a27 27 0 0 1-1.625-2.008c-.469-.64-.934-1.164-1.031-1.164-.278 0-1.957.644-2.848 1.09l-.777.394V56.43h-4.922v1.183H52.254V56.43h-5.219l-.074 16.152-1.246-1.004a66 66 0 0 0-1.5-1.191c-.23-.164-.426.027-1.703 1.703l-1.446 1.89.559.485c.828.722 4.875 3.383 7.344 4.832l2.168 1.273h-9.324v4.442h15.511v3.203l-2.883.402c-3.132.438-8 1.367-8.199 1.567-.066.066.637.992 1.563 2.05 1.289 1.473 1.761 1.914 1.988 1.875.164-.03.746-.156 1.293-.277m11.91-42.734v-1.63h15.211v-4.445h-15.21v-1.777h11.929V26.957h-11.93v-2.074h16.11v-4.445h-16.11v-5.481h-5.223v5.48H41.066v4.446h16.707v2.074H45.395v16.29h12.378v1.776H42.262v4.446h15.511v3.254h5.223Zm0 0"/>
    <path fill="#f9f9f9" d="M50.613 38.063v-1.184h7.16v2.367h-7.16Zm12.383 0v-1.184h7.156v2.367h-7.156Zm0-6.071v-1.187h7.156v2.37h-7.156Zm-12.383 0v-1.187h7.16v2.37h-7.16Zm1.641 30.363v-1.039h14.918v2.07H52.254Zm0 5.551v-.96h14.918v1.921H52.254Zm3.133 10.106a99 99 0 0 1-6.489-4.094l-1.64-1.125 5.93-.035c3.257-.028 8.597-.028 11.859 0l5.926.035-1.016.57c-2.09 1.168-3.996 2.555-6.105 4.434l-1.305 1.172V73.46h-5.215l-.043 2.816-.035 2.82Zm0 0"/>
</svg>
