<svg xmlns="http://www.w3.org/2000/svg" width="120" height="120" viewBox="0 0 120 136">
    <path fill="none" stroke="red" stroke-width=".004" d="m-51.998 17.594.003-.1.003-.117.004-.116.001-.029.003-.071.042-.62.03-.437.077-.854.008-.066.08-.605.101-.506.121-.363.144-.24.118-.126.122-.1.13-.075.08-.033.055-.023.148-.041.16-.03.168-.017.194-.013.216-.01.235-.002.25.003.261.008.014.125.008.074.04.21.054.218.07.213.082.2.032.063.036.07.025.05-.06-.006-.152-.012h-.005l-.023-.002-.176-.012-.187-.01-.094-.002-.073-.003h-.14l-.108.007h-.084l-.07.006-.064.012-.056.021-.052.033-.05.048-.072.129-.067.209-.051.246-.012.057-.033.229-.026.178-.055.524-.052.655h7.235V23h-7.8v-1.134h3.274v-.7h-2.89V20.12h2.89v-.7h-2.89V18.4h2.89v-.708H-52l.001-.028v-.037l.001-.033m.127 12.88v-1.17h5.922v1.17h-2.269v1.1h1.952v1.147h-1.952v1.21h-1.293v-1.21h-1.93v-1.146h1.93v-1.101h-2.36m6.02.347h1.143v-.347l-.14-.204-.041-.06-.23-.347-.218-.343-.028-.043-.237-.376-.196-.317-.128-.211.706-.846.005-.007.008-.01.004-.005.003-.002.06.16.07.18.082.194.089.203.05.113.044.096.097.209v-4.859h1.135v4.134l.144-.428.088-.233.067-.179.162-.39.17-.363.177-.33.114-.184.028-.044.016-.025.01-.016.008-.014.007-.01.068.195.089.22.104.233.108.232.109.217.104.188-.18.27-.13.195-.293.553-.27.618-.242.655-.01.027-.2.643-.173.658h1.173v1.177h-1.248v2.001h-1.135v-1.993h-1.142v-1.185m-5.742-2.833v-1.17h2.08v-1.263H-52v-1.201h6.543v1.2h-2.76v1.264h2.08v1.17h-2.08v.992h-1.294v-.992h-2.081m12.21 4.784L-38 24.29l1.15-7.059.853-5.234h-22.006l.164 1.001.689 4.233L-56 24.29l1.382 8.48v.032h.007L-52 34.586l5 3.417 5-3.417 2.61-1.783h.008v-.031M-56 33.999l-.2-1.196-2.594-15.571-.873-5.234L-60 9.999h26l-1.206 7.233-2.594 15.57L-38 34l-1.775 1.184-5.745 3.83h-.001L-47 40l-9-6m6.158-18.771-.02-.045-.094-.212-.012-.032-.074-.2.074-.028.909-.338.01-.004.079.231.026.067.077.195.125.28.02.04.12.245.15.28.156.263-.648.223-.284.098-.165-.253-.16-.267-.153-.274-.136-.27m3.277.55-.015.003-.988.254-.14-.334-.134-.354-.056-.163-.068-.199-.108-.355-.085-.334v-.002l-.059-.294.99-.262.033-.009.027-.006.015-.005.047.289.073.331.095.359.042.139.07.23.04.118.086.249.135.344m.675-.232-.087-.361-.009-.039-.08-.404-.066-.396-.047-.372-.026-.334 1.022-.179.055-.01.033-.006.025-.003.016-.003.018.334.039.377.056.4.07.41.023.111.024.114.037.18.093.381-.013.002-.141.024-.934.151-.108-.377m2.48.64-.884-.255.115-.545.054-.201.088-.33.175-.507.219-.472.271-.425.283-.314.047-.053.081.053.702.449.118.076.089.056.052.033-.289.322-.248.37-.21.412-.125.33-.045.116-.135.472-.099.487-.26-.074m-3.24 5.68h1.965v-.7h-1.966v.7m0-3.465h1.966v-.708h-1.966v.708m0 1.72h1.966v-.7h-1.966Zm0 0" transform="matrix(4.29492 0 0 4.26451 261.99 -38.38)"/>
    <path d="M115.797 4.473c0 .07-3.848 23.058-8.55 51.093l-8.552 50.97-38.554 25.523-19.16-12.684c-10.54-6.977-19.227-12.75-19.305-12.824C21.55 106.426 4.484 5.219 4.484 4.598c0-.22 6.196-.246 55.657-.246 30.609 0 55.652.054 55.656.12M12.824 13.176c.055.25 3.34 20.219 7.301 44.379 4.02 24.52 7.293 44.011 7.402 44.113.192.18 31.614 21.492 32.297 21.906.317.192 1.711-.719 16.746-10.918 9.02-6.12 16.399-11.199 16.399-11.285 0-.21 14.36-87.793 14.472-88.277l.086-.367H12.73Zm0 0"/>
    <path d="m74.816 72.953.043 8.824.633-1.77c1.172-3.277 3.27-7.616 3.586-7.425.063.04.25.426.41.856.164.433.66 1.53 1.102 2.437.441.906.8 1.707.8 1.773 0 .07-.285.547-.636 1.059-1.3 1.898-3.067 5.758-4.188 9.148-.52 1.57-1.46 4.907-1.46 5.176 0 .098.964.16 2.48.16h2.484v4.762h-5.293v8.54H69.98v-8.54h-4.796v-4.762h4.796v-.93c0-.714-.09-1.042-.386-1.437-.469-.617-2.485-3.722-3.774-5.82l-.945-1.535 1.43-1.703c.789-.938 1.48-1.653 1.539-1.586.062.066.547 1.148 1.082 2.402l.972 2.281.043-10.367.04-10.371h4.792ZM64.523 89.086v2.465h-9.757v4.761h8.433v4.762h-8.433v5.09h-5.293v-5.09h-8.27v-4.761h8.27V91.55H39.219v-4.926h25.304Zm2.149-21.02v2.465H54.766v5.582h8.93v4.762h-8.93v4.27h-5.293v-4.27h-8.934v-4.762h8.934v-5.582h-10.75v-4.93h27.949ZM50.527 18.082c.09.793.668 2.715 1.157 3.84.093.215-.211.238-2.305.187q-2.408-.053-2.883.141c-1.012.414-1.465 2.402-2.055 8.992l-.09 1.024h31.087V59.69H42.195v-4.76h14.059v-3.121H43.848v-4.27h12.406v-3.121H43.848v-4.27h12.406v-3.117H38.723v-.535c.011-2.676.777-10.793 1.261-13.344.461-2.46.844-3.347 1.864-4.355 1.316-1.297 1.996-1.488 5.656-1.594l2.914-.086Zm11.02 20.508v1.558h8.598v-3.117h-8.598Zm0 7.39v1.56h8.598v-3.122h-8.598Zm0 7.387v1.563h8.598v-3.121h-8.598Zm17.75-34.457 2.125 1.38-.563.616c-1.746 1.918-3.191 4.996-3.937 8.38-.164.753-.336 1.401-.375 1.444-.102.102-4.29-1.085-4.492-1.273-.203-.187.414-2.969 1.152-5.184.856-2.554 1.844-4.367 3.223-5.91l.746-.832Zm0 0"/>
    <path d="M68.496 19.992c.004 1.192.383 3.906.899 6.426.238 1.164.386 2.16.332 2.219-.055.054-1.055.25-2.223.437l-2.121.34-.508-2.062c-.59-2.395-.969-4.528-1.117-6.266l-.106-1.234 2.067-.36c2.91-.512 2.773-.535 2.777.5m-8.933 1.231c.437 2.175 1.812 6.757 2.218 7.414.055.086-.144.23-.441.324-.774.246-3.207.844-3.426.844-.539 0-3.14-7.973-2.727-8.364.126-.117 3.817-1.16 4.106-1.16.043 0 .164.422.27.942M51.7 24.262c.253.656.945 2.133 1.538 3.289.594 1.152 1.047 2.117 1.012 2.144s-.875.332-1.863.672c-1.461.504-1.825.582-1.946.399-.808-1.235-2.246-3.836-2.707-4.903l-.57-1.324.367-.137 1.985-.734c.89-.328 1.64-.598 1.672-.598.027 0 .257.535.511 1.192m0 0"/>
    <path fill="#f8f8f8" d="M107.191 13.137c0 .527-14.39 88.031-14.511 88.222-.184.301-32.301 22.047-32.555 22.047-.195 0-31.965-21.445-32.434-21.898-.113-.106-3.336-19.309-7.324-43.621-3.914-23.89-7.183-43.79-7.262-44.219l-.14-.777h47.113c41.692 0 47.113.027 47.113.246m-62.375 4.039c-1.441.222-2.105.488-2.882 1.168-1.559 1.355-2.164 3.453-2.793 9.652-.168 1.645-.582 7.625-.582 8.418l-.004.781h17.53v2.79h-12.4v4.597h12.402v2.793H43.684v4.598h12.402v2.793H42.027v5.09h33.575V32.101H44.543l.062-.614c.04-.34.188-1.797.333-3.242.406-4 .937-5.71 1.84-5.937.226-.055 1.519-.067 2.874-.024s2.465.063 2.465.043c0-.023-.183-.441-.414-.933-.469-1.02-1.074-3.235-1.074-3.934v-.465h-2.324c-1.278 0-2.848.078-3.489.18m31.407 1.082c-1.649 1.855-2.891 4.508-3.836 8.18-.301 1.175-.59 2.37-.645 2.66-.11.586-.433.441 3.363 1.523l1.575.45.449-1.825c.918-3.707 2.246-6.457 3.988-8.266.367-.382.633-.722.594-.757-.277-.254-4.555-2.891-4.633-2.86-.055.024-.441.426-.855.895m-10.524 1.058-2.215.372.102 1.406c.168 2.308 1.352 8.058 1.73 8.406.114.102 4.594-.559 4.735-.695.035-.04-.074-.66-.246-1.38-.485-2.01-.957-4.956-1.07-6.667-.126-1.871-.165-2-.532-1.895-.16.043-1.285.25-2.504.453m-8.715 1.36c-1.144.308-2.113.59-2.148.625-.094.097.539 2.656 1.027 4.152.403 1.235 1.703 4.68 1.766 4.68.176-.004 4.3-1.149 4.363-1.211.047-.047-.117-.61-.363-1.254-.738-1.914-1.676-5.203-1.977-6.938-.066-.375-.199-.617-.343-.617-.13 0-1.176.254-2.325.563m-9.043 3.375c-.523.195-.949.445-.949.55.004.704 3.246 6.516 3.637 6.516.234 0 3.691-1.172 3.844-1.305.07-.058-.422-1.175-1.09-2.48s-1.39-2.863-1.606-3.465l-.39-1.09-1.246.457c-.688.254-1.676.621-2.2.817m21.832 49.93L69.73 84l-.906-2.137c-.5-1.175-.965-2.12-1.031-2.097-.172.062-3.106 3.582-3.106 3.73 0 .156 2.793 4.594 4.149 6.594.836 1.238.98 1.555.98 2.191v.746H65.02v5.09h4.793v8.54h5.128v-8.54h5.293v-5.09h-2.48c-1.367 0-2.48-.023-2.48-.054 0-.235 1.57-5.403 1.964-6.461 1.215-3.278 2.625-6.18 3.848-7.938l.629-.906-.82-1.625a40 40 0 0 1-1.305-2.863l-.48-1.239-.516.813c-.801 1.25-1.926 3.617-2.824 5.937l-.817 2.102-.008-8.414-.004-8.418h-5.125Zm-31.218-5.915v2.63h10.75v5.253h-8.93v5.09h8.93v4.27h5.625v-4.27h8.93v-5.09h-8.93v-5.254h11.906v-5.257H38.555Zm.496 21.02v2.629h10.254v4.433h-8.27v5.09h8.27v5.09h5.625v-5.09h8.433v-5.09H54.93v-4.433h9.758v-5.258H39.05Zm0 0"/>
    <path fill="#f8f8f8" d="M69.98 53.367v1.399h-8.27v-2.793h8.27Zm0-7.387v1.395h-8.27v-2.793h8.27Zm0-7.39v1.394h-8.27v-2.789h8.27Zm0 0"/>
</svg>
