<svg xmlns="http://www.w3.org/2000/svg" width="120" height="120" viewBox="0 0 120 120">
    <path stroke="red" stroke-width=".004" d="m4.968 5.949-.56.238-.312.155-.267.133-.57.319-.537.335-.478.333-.394.316-.029-.02-1.12-.798.483-.353.54-.358.577-.35.594-.332.591-.304L4.055 5l.041.047.084.097.147.164.162.173.166.17.163.16.121.112.03.026m-5.733.957-.006.006-.955.835-.535-.254-.582-.29-.597-.308-.577-.313-.525-.302-.435-.277.958-.883.024-.021.022-.021.02-.018.014-.014.403.274.498.31.557.33.586.331.582.322.548.293m3.921 7.446-1.133.057-.197.013-.951.065-.876.076-.259.023-1.09.12-1.012.137-.907.157-.67-1.18.868-.138.928-.12.972-.103.997-.089.173-.012.832-.06.995-.056v-1.105h-6.221v-1.189h1.74v-1.89H-5V7.857H5V9.06H3.156v5.293M3.862 16l.076.208.075.176.018.044.065.132.043.088.119.216.127.2.13.18-.419.043-.541.057-.908.137-.85.177-.79.222-.725.272-.282.141-.28.14-.094.046H.732v3.165h4.236v1.205H3.482v2.433H2.146v-2.433H.668V26H-.684v-1.012h-3.178v-1.142h3.178v-.997h-4.26v-1.205H-.58v-3.043l-.263.184-.246.195-.23.207-.213.222-.196.237-.18.254-.14-.052-1.06-.39.213.244.222.239.228.235.23.229.078.075.15.145.221.21-1.072.648-.398-.35-.41-.383-.271-.27-.13-.128-.05-.054-.323-.35-.324-.39-.256-.36.904-.576.02-.013.03-.02.038-.024.036-.023.04-.025.042-.026.005-.004.01-.006.01-.006.01-.008.008-.004.083.138.096.146.109.148.117.153.125.159.129.16.751-.935.008-.011.933-.76 1.101-.597L0 16.92l.868-.317.9-.22.521-.127 1.562-.254.011-.002M5 19.26l-.398.282-.39.324-.115.112-.254.246-.23.256-.112.125-.303.393-.255.4-.042-.011-1.326-.399.311-.479.022-.029.33-.44.381-.451.4-.422.405-.38.393-.325.008-.006.155.129.117.086.076.058.216.152.22.145.21.13.08.045.067.038.034.02m8-17.257L9.2 24.803 9 26l-7.52 5.013L0 32l-7.225-4.815L-9 26l-.199-1.197L-13 2.001h26m-24.004 1.997L-9 16.291l1.383 8.481v.031h.008L-5 26.588l5 3.415L5.859 26l1.752-1.197h.007v-.031L9 16.291l2.003-12.293h-22.007m12.831 6.95v-1.89h-3.142v1.89Zm0 0" transform="matrix(3.78963 0 0 3.7628 60.114 -3.763)"/>
    <path fill="#f9f9f9" d="M45.766 99.285a5552 5552 0 0 1-14.375-9.77c-.032-.027-2.899-17.363-6.371-38.523-3.473-21.164-6.356-38.73-6.407-39.031l-.093-.555h41.554c38.32 0 41.551.016 41.551.239 0 .273-12.652 77.507-12.738 77.742-.043.117-28.38 19.441-28.715 19.582-.047.015-6.531-4.336-14.406-9.684m16.93-11.015v-5.922h5.519v9.035h5.219v-9.035h5.52v-4.743H62.995V65.758l-1.98-.004-1.973-.008 1.148-.586c3.524-1.789 9.66-3.297 15.41-3.785 1.782-.152 1.786-.156 1.243-.95-.54-.784-1.918-3.515-1.918-3.8 0-.273-.2-.258-3.348.254C60.77 58.617 53.54 62 49.422 67.242c-.7.887-1.32 1.617-1.383 1.621-.125.004-2.277-2.82-2.379-3.125-.039-.125-.781.262-2.14 1.121-1.141.72-2.168 1.387-2.27 1.48-.324.302 1.406 2.427 4.352 5.349 1.488 1.472 2.945 2.855 3.25 3.082l.543.41 1.988-1.207a82 82 0 0 0 2.054-1.27c.036-.035-1-1.125-2.296-2.433-1.297-1.301-2.328-2.403-2.29-2.442.04-.039.97.262 2.067.668 1.094.402 2 .719 2.008.703.152-.297 1.226-1.578 1.93-2.308.785-.813 2.14-1.957 2.73-2.301.148-.086.187 1.043.187 5.457v5.558H41.367v4.743h16.11v3.554H45.395v4.442h12.082v3.851h5.218Zm9.117-12.18c1.355-2.133 3.882-4.82 5.949-6.324.695-.512 1.289-.977 1.308-1.04.024-.058-.379-.355-.894-.656-.52-.297-1.531-.976-2.254-1.511l-1.317-.965-.55.41c-1.043.777-4.09 3.836-5.25 5.266-1.203 1.484-2.637 3.507-2.711 3.828-.028.117.867.46 2.496.96 1.39.426 2.578.782 2.629.794.054.007.32-.336.594-.762M49.656 52.434c4.485-.797 13.203-1.66 20.387-2.016l2.05-.102V30.363h7.012V25.77H41.066v4.593h8.954v6.961h-6.563v4.59h23.574l-.043 2.035-.039 2.035-1.867.11c-4.922.273-11.496.867-15.363 1.383-1.875.25-4.528.671-4.59.73-.113.094 2.543 4.516 2.707 4.516.105 0 .926-.13 1.82-.29m18.41-27.547c1.985-1.594 4.868-3.336 8.13-4.918 1.312-.637 2.472-1.157 2.57-1.157.105-.003.187-.05.183-.113 0-.062-.793-.93-1.758-1.933l-1.754-1.825-2.53 1.246c-1.391.688-3.302 1.7-4.247 2.254-1.847 1.086-5.555 3.54-5.812 3.848-.125.145.347.547 2.043 1.75 1.214.856 2.273 1.52 2.355 1.469.082-.047.45-.328.82-.621m-12.625-.992c.996-.868 1.825-1.614 1.848-1.665.02-.046-.52-.37-1.195-.71-1.965-1-6.832-3.79-8.88-5.09-1.034-.657-1.929-1.211-1.98-1.223-.129-.035-4.02 3.461-4.02 3.61 0 .144 1.68 1.175 4.102 2.519 1.692.937 8.07 4.137 8.246 4.137.036 0 .88-.707 1.88-1.578m0 0"/>
    <path fill="#f9f9f9" d="M55.238 33.844v-3.48H67.02v6.96H55.238Zm0 0"/>
</svg>
