<svg xmlns="http://www.w3.org/2000/svg" width="120" height="120" viewBox="0 0 120 120">
    <path stroke="red" stroke-width=".004" d="M61-26.411h-4.266v.577h3.173v4.292h-3.173v.524h4.003v1.147h-4.003V-19h-1.34v-.87h-4.077v-1.148h4.077v-.524h-3.252v-4.292h3.252v-.577H51v-1.148h4.394V-29h1.34v1.44h4.265v1.149m0 9.393-.51.536-.068.098-.323.471-.284.597-.194.61-.12.62-.066.615h1.34v1.198h-1.37v1.078l.15-.035.147-.03.015-.004.133-.027.147-.026.146-.025.147-.021.028.1.013.049.059.16.073.17.082.163.088.159.077.126.012.016-.54.119-.242.06-.29.074-.52.152-.494.163-.462.173-.418.177-.411-.459-.25-.28-.103-.114v.75h-1.218v-2.668h-2.239v-.014l-.007-.232-.007-.242-.01-.24-.01-.238-.014-.236-.02-.236-.174-.064-.044.04-.009.008-.113.103-.17.156-.162.156-.005.005-.16.159-.147.153-.056.06-.072.08-.888-.457-.186-.094.189-.14.188-.134.185-.131.182-.125.18-.118.169-.11.004-.002-.218-.105-.211-.106-.202-.106-.188-.103-.172-.1-.151-.095.433-.58.18-.241.006-.008.015-.02.016-.022.05.034.131.094.182.113.03.019.057.032.18.104.259.138.27.14.278.141-.074-.337-.04-.184-.002-.002-.148-.457-.192-.385-.143-.182-.092-.117-.288-.202-.345-.09-.06.024-.054.092-.046.156-.03.137-.013.07-.037.256-.02.178-.006.053-.003.037-.003.02v.006l-.111-.146-.119-.149-.123-.143-.128-.132-.045-.042-.01-.008-.069-.064-.121-.09.11-.52.09-.238.06-.162.191-.288.234-.178.275-.076.172.013.147.01.3.101.492.163.177.152.414.355.42.715.036.107.25.779.175 1.02.024.25.078.864h1.128v-4.361h1.218v4.361h1.256l.068-.774.135-.779.222-.77.26-.59.066-.153.456-.71.484-.53.048-.052.03-.033.017-.02.015-.014.006-.008.12.146.151.163.168.164.176.159.173.14.06.044.097.07m-.755 7.715v1.183h-6.521l-.004-.072-.004-.078-.01-.15-.014-.145-.029-.29L53.648-9l-.25-.079-.166.168-.168.182-.166.188-.156.19-.13.158-.017.023-.129.17-.373-.193-.684-.35h-.001l.054-.046.135-.11.188-.157.186-.154.183-.152.045-.036.023-.02.11-.089.119-.096.025-.02.018-.015.008-.007.003-.002-.23-.1-.22-.1-.21-.098-.193-.099-.176-.097-.158-.097.146-.203.342-.473.007-.009.01-.013.02-.028.098-.136.005-.009.181.113.097.054.119.068.242.128.262.133.276.135.076.037.049.024.157.075-.037-.1-.108-.287-.012-.024-.163-.316-.21-.289-.118-.107-.128-.116-.288-.15-.334-.071-.058.017-.052.072-.047.116-.035.132-.007.03-.04.198-.001.018-.004.017-.02.14-.005.033-.002.014-.001.01-.106-.135-.117-.136-.123-.134-.054-.055-.07-.07-.065-.056-.058-.052-.119-.089.109-.439.068-.156.072-.161.009-.022.19-.245.229-.152.268-.061.303.023.666.187.088.025.223.15.139.095.221.15.44.548.318.674.194.675.028.096.15.841h5.506m-3.056-1.328.156-.05.047-.014.207-.062.208-.06.211-.059.215-.055v-1.342h-1.24v1.709l.196-.067M69-31.999 65.2-9.197 65-8l-7.52 5.013L56-2l-7.225-4.815L47-8l-.2-1.197L43-31.999h26m-11.656 7.838h1.31v-.655h-1.92v.655h.61m-12.348-5.84L47-17.71l1.383 8.481v.031h.008L51-7.412l5 3.415L61.859-8l1.752-1.197h.007v-.031L65-17.709l2.003-12.293H44.996m8.47 5.186v.655h1.928v-.655h-1.928m5.187 2.264v-.654h-1.92v.654h1.92m-5.187 0h1.928v-.654h-1.928Zm0 0" transform="matrix(3.78963 0 0 3.7628 -152.106 124.173)"/>
    <path fill="#f9f9f9" d="M46.066 99.484c-7.714-5.23-14.18-9.62-14.379-9.761-.34-.235-.609-1.797-6.667-38.73-3.473-21.161-6.356-38.731-6.407-39.032l-.093-.555h41.554c38.32 0 41.551.016 41.551.239 0 .273-12.652 77.507-12.738 77.742-.043.12-28.387 19.445-28.715 19.582-.047.015-6.399-4.246-14.106-9.485m1.907-6.804c.699-.84 1.507-1.75 1.804-2.032.473-.449.59-.492.95-.367.402.14.41.172.546 1.809l.133 1.66H76.27v-4.59H55.414l-.25-1.445q-1.277-7.417-5.133-10c-1.75-1.176-4.324-1.82-5.953-1.5-1.098.219-2.266 1.828-2.71 3.734l-.188.79 1.324 1.359c.726.746 1.363 1.379 1.41 1.402.047.02.195-.508.328-1.176.309-1.562.528-1.789 1.461-1.547 1.633.426 2.883 1.598 3.817 3.598.273.582.5 1.129.5 1.215 0 .238-.649-.043-3.047-1.32-1.22-.649-2.235-1.184-2.258-1.184-.043 0-2.184 2.914-2.356 3.21-.12.208 1.02.88 2.97 1.755l1.362.61-1.996 1.612c-1.093.883-1.972 1.668-1.949 1.735.031.09 3.73 2.137 3.938 2.183.015 0 .597-.68 1.289-1.511m21.043-5.063a57 57 0 0 1 7.406-2.215c.86-.191 1.562-.406 1.558-.48 0-.07-.273-.664-.613-1.317-.332-.652-.691-1.437-.793-1.742-.203-.633-.043-.62-2.293-.168a18 18 0 0 1-1.082.207c-.031 0-.058-.867-.058-1.925V78.05h5.066v-4.59h-4.96l.1-1.137c.298-3.265 1.485-6.754 3.032-8.922.383-.539 1.164-1.5 1.742-2.136l1.05-1.164-.44-.309c-.247-.168-1.083-.934-1.868-1.7l-1.414-1.39-1.02 1.086c-3.206 3.422-5.245 8.32-5.687 13.672a27 27 0 0 1-.172 1.59l-.082.41h-4.601V57.023h-4.77v16.438h-4.012l-.082-.629a84 84 0 0 1-.242-2.262c-.394-4.148-1.316-7.593-2.629-9.808-.632-1.078-1.058-1.586-1.976-2.371-1.09-.93-1.278-1.036-2.817-1.5-1.316-.399-1.82-.485-2.539-.438-1.82.133-2.816 1.395-3.527 4.465l-.234 1.008.726.648a14 14 0 0 1 1.363 1.473c.352.453.692.824.75.824.063 0 .149-.383.2-.855.14-1.336.402-2.375.675-2.68.23-.258.297-.262.98-.059 1.02.301 2.177 1.473 2.852 2.891.461.965 1.313 3.805 1.184 3.937-.078.082-3.11-1.546-4.281-2.289l-1.012-.644-1.289 1.703c-.707.938-1.262 1.723-1.23 1.75.234.18 1.421.84 2.668 1.488l1.484.77-2.004 1.383c-1.102.761-1.98 1.425-1.945 1.476.03.047.96.555 2.07 1.125l2.012 1.035 1.781-1.73c2.176-2.117 2.332-2.145 2.477-.453.05.617.093 1.844.093 2.726v1.606h8.504v10.07h4.762l.086-2.695 1.324 1.496c.727.824 1.387 1.496 1.469 1.496s1.101-.36 2.258-.8m-6.02-36.52V49.47h15.211v-4.446h-15.21v-1.777h11.929v-16.29h-11.93v-2.074h16.11v-4.445h-16.11v-5.481h-5.223v5.48H41.066v4.446h16.707v2.074H45.395v16.29h12.378v1.776H42.262v4.446h15.511v3.254h5.223Zm0 0"/>
    <path fill="#f9f9f9" d="M63.887 81.172V78.05h4.633l-.04 2.46-.043 2.458-1.937.554c-1.066.305-2.09.602-2.273.66l-.34.11Zm-.891-43.109v-1.184h7.156v2.367h-7.156Zm0-6.071v-1.187h7.156v2.37h-7.156Zm-12.383 0v-1.187h7.16v2.37h-7.16Zm0 6.071v-1.184h7.16v2.367h-7.16Zm0 0"/>
</svg>
