<svg xmlns="http://www.w3.org/2000/svg" width="120" height="120" viewBox="0 0 120 136">
    <path stroke="red" stroke-width=".004" d="m-32.63-34.424-.138.026-.131.025-.248.048-.036.006-.296.055-.306.057v2.575h1.452v1.103h-1.452v.75h.885v.461l.068-.057.064-.053.004-.003.068-.055.153-.121.02-.017.016-.011.01-.009.005-.004.049.164.072.21.088.232.097.235.06.135.037.082.072.142.017.034-.422.313-.346.297-.073.062-.404.397-.13.148-.247.28-.338.45-.287.467-.57-.215-.443-.168.024-.053.026-.052.028-.052.03-.052.02-.032.012-.02.002-.003.018-.028.014-.022-.306-.247-.3-.253-.285-.253-.264-.247-.235-.234-.2-.215.44-.526.31-.37.136.161v-.897h.923v-.751h-1.384v-1.103h1.384v-2.345l-.703.153.108.032.528.156.01.002.004.002-.07.266-.075.3-.069.298-.004.018-.068.32-.057.309-.043.282-.915-.238.096-.304.097-.31.024-.077.072-.228.096-.293.093-.27.085-.233.004-.01-.044.01-.553.114-.01-.114-.088-.951.283-.073.4-.103.687-.175.163-.041.516-.13.66-.165.627-.16.245-.063.337-.086.287 1.218-.233.047-.253.05m-.24.332.03.271.051.304.02.103.046.222.078.333.024.09.062.238.09.309-.008.003-.291.08-.525.147-.093-.308-.088-.325-.034-.143-.046-.186-.07-.322-.058-.301-.043-.27.821-.236.02-.005.014-.004m-3.434-.843-.106.057-.086.062-.014.01-.089.094-.024.04-.048.081-.047.151-.017.187v7.809h-4.804v-4.889h1.975l-.055-.19-.058-.184-.062-.182-.065-.18-.068-.176-.071-.176-.2.157-.2.165-.191.167-.181.167-.165.162-.08.086-.064.069-.817-.897.224-.176.233-.176.097-.071.139-.102.188-.133.05-.034.233-.16.228-.152-.212-.295-.229-.273-.07-.071-.177-.18-.266-.226-.287-.203-.154-.088-.06-.034-.04-.023-.025-.014-.02-.012-.011-.006.148-.141.158-.17.16-.192.151-.199.135-.196.11-.182.178.135.475.36.473.522.019.02.064.072.47.72.149.31.014.03.025.053.025.051.033.07.144.302.156.44.001.002.163.459.26.975h.543v-2.943l-.966.254-.357.094-.016.004-.012.004-.012.002-.006.002-.004-.177-.011-.196-.018-.201-.022-.197-.017-.13-.007-.05-.027-.152.51-.156.396-.123.665-.216.469-.165.315-.128.202-.101.004-.002.04-.026.05-.032.022-.014.017-.011.011-.007.037.169.056.191.07.198.08.194.085.173.08.127.008.013m4.28-8.613v.001l-.05.035-.203.142-.005.004-.282.202-.204.151-.006.005-.101.075-.245.185-.086.065-.134.104-.161.124-.02.015-.026.02-.002.002-.352.274v1.731l.553-.452.008-.007.005-.005.154.253.198.285.215.285.014.02.248.309.255.3.008.009.243.269-.002.002-.766.602-.116.092-.168-.173-.174-.183-.098-.105-.016-.018-.062-.068-.174-.195-.168-.194-.024-.03-.133-.162V-37h-1.233v-10h1.233v3.39l.216-.184.213-.182.132-.112.007-.006.001-.001.003-.002.068-.057.208-.173.205-.166.08-.063.108-.085.01-.007.005-.005.405.719.19.337.002.006.005.008.002.003.007.012.004.007.005.009.002.004m-3.46.208v1.167h-4.08v1.041h-.672l.112.038.006.002.188.06.106.032.085.026h.002l.033.01.008.002.14.04.124.035.007.002.016.005.008.002-.004.004-.008.007-.012.01-.018.016-.251.22-.03.025-.001.002-.13.146-.007.008-.075.084-.079.089-.236.33-.001.001-.025.034v.001l-.002.002-.153.264-.031.053-.041.071-.001.002-.044.093-.147.315-.068.19-.053.145-.03.082-.042-.004-.071-.007-.5-.047-.469-.044.045-.13.046-.126.048-.127.05-.124.055-.123.058-.122.179-.351.232-.371.124-.177.004-.005.122-.165.006-.008.124-.154.134-.153.036-.038.038-.04.063-.066.012-.012.057-.054h-.34v-1.04H-42v-1.168h1.164v-2.316l.01-.279.037-.238.067-.2.093-.149.01-.015.147-.134.04-.022.155-.083.233-.076.108-.022.156-.033.297-.036.075-.005.255-.016.241-.007.122-.003.33-.003h.068l.008.045.025.14.052.202.002.006.02.062.03.095.015.047.006.017.024.065.047.126.04.092.003.008.042.098.001.001.047.093.033.07.003.004.004.008.001.003H-38l-.272-.007-.111-.002h-.016l-.149-.002-.14-.002-.06-.001h-.163l-.12-.001h-.307l-.07.003h-.008l-.056.01-.042.023-.019.022-.009.01-.015.048-.006.06v2.294h2.436l-.015-.017-.135-.155-.01-.01-.09-.103-.007-.01-.085-.103-.158-.195-.075-.1-.117-.153-.041-.054-.01-.012-.159-.228-.04-.056-.022-.032-.19-.303-.1-.185-.002-.004-.047-.087.047-.026.496-.274.098-.054.058-.031.049-.028.08-.044.093-.052.035-.02.005-.002.009-.005.056-.03.04-.023.002-.002h.003l.025-.015.02-.011.028.06.068.144.038.082.176.316.067.106.074.117.07.11.2.293.033.046.007.01.218.29.02.028h.002l.249.305-.015.008-.026.013-.004.003-.042.02-.184.096-.398.205-.13.067-.203.105h1.584m-.678 2.04v.004l.002.006.043.21.036.12.038.126.097.266.054.128.06.144.004.008.003.007.122.254.049.091.085.161.001.001-.013.002-.05.01-.21.037-.496.09-.196.035-.142-.242-.002-.004-.002-.003-.002-.004-.044-.083-.006-.01-.086-.162-.048-.1-.07-.145-.008-.017-.03-.07-.05-.114-.03-.07-.088-.242-.026-.094-.034-.12.255-.055.081-.017.26-.055.268-.057.03-.006h.002l.007-.001.052-.011.037-.008h.001l.027-.006h.001l.018-.004m-1.842.297.019-.002v.006l.004.04.021.176.052.253.02.07.003.015.05.188.09.28.004.01.012.031.087.233.002.006.04.093.073.171-.014.001-.021.002h-.007l-.01.002h-.021l-.01.002-.019.002-.26.024-.614.056-.037-.077-.084-.178-.005-.01-.003-.006-.039-.092-.07-.168-.024-.06-.08-.211-.063-.191-.005-.016-.019-.057-.01-.035v-.003l-.057-.21-.01-.05-.03-.157-.001-.013.127-.015.289-.035.189-.022.082-.01.22-.027.01-.001.008-.001.005-.001.04-.005.035-.004h.002l.008-.001.02-.003m2.604 3.014h-.166l-.274.002-.211.002-.065.001-.22.022-.521.053h-.007l-.017.002-.01.001-.31.055-.086.016-.338.06-.08.014h-.004l-.179.045-.496.12-.007.002-.152.038-.257.078-.112.034-.25.076-.206.062-.011.004h-.005l-.016.007-.536.194-.114.042-.163.059-.2-.368-.019-.038-.114-.211-.254-.472.007-.003.247-.09.114-.042.139-.051.156-.055.096-.034.105-.035.146-.05.25-.08.14-.041.112-.033.376-.105.112-.032.245-.07h.004l.167-.037.292-.065.204-.045.137-.03.353-.067.04-.007.07-.012.088-.014.225-.038.076-.01.035-.005.26-.036.268-.03.092-.01.345-.026.03-.002.029-.001.264-.01h.008l.001.018.009.158.017.167.003.036v.005l.002.014.028.227.035.236v.002l.007.04.028.163.002.015.003.015.002.01.005.026.016.083.01.05M-24-50l-2.872 17.232-.928 5.57L-28-26l-7.52 5.013-.001.001L-37-20l-9-6-.2-1.197-.928-5.571L-50-50h26m-20.618 22.772v.03h.007l2.61 1.785L-37-21.997l5-3.416.859-.587 1.752-1.197h.007v-.031l.903-5.54.479-2.941.21-1.291 1.793-11.002h-22.006L-46-35.709l.479 2.94.903 5.54m10.891-1.298.138-.145.023-.025h-2.057l.025.025.144.147.181.18.19.182.197.184.07.064.13.119.17.148.013.011.012.012.006.005.004.003.145-.19.148-.185.15-.182.154-.178.157-.175m-4.219-.868v-.85h-2.375v.85h2.375m-2.375 1.855h2.375v-.828h-2.375Zm0 0" transform="matrix(4.29492 0 0 4.26451 219.04 217.49)"/>
    <path fill="#f9f9f9" d="M43.914 112.555c-8.91-6.047-16.254-11.047-16.316-11.114-.149-.16-14.61-88.363-14.504-88.468.047-.047 21.25-.063 47.125-.04l47.043.04-7.235 44.086c-3.98 24.246-7.265 44.164-7.304 44.257-.047.13-29.7 20.364-32.176 21.957l-.43.278Zm28.691-6.797c1.61-2.793 5.891-7.258 8.739-9.117l.379-.246-.563-1.23a37 37 0 0 1-1.027-2.548c-.258-.722-.531-1.383-.606-1.465-.078-.09-.402.063-.789.368-.36.289-.699.523-.75.523-.05 0-.09-.367-.09-.82v-.82h-3.804v-2.958h6.12V82.52h-6.12l.023-4.477c.012-2.461.055-4.29.094-4.063.187 1.082.95 4.348 1.336 5.711.324 1.149.488 1.504.664 1.434.133-.047.977-.285 1.879-.527 1.246-.332 1.617-.493 1.55-.672-.374-.965-1.574-6.348-1.578-7.074-.007-.852-.136-.875-1.992-.348-.949.27-1.785.492-1.851.492-.07 0-.125-.297-.125-.66 0-.36.02-.656.047-.656.234 0 6.793-1.317 6.855-1.38.043-.042-.203-1.265-.547-2.714-.511-2.16-.676-2.625-.886-2.559-.141.043-3.934 1.004-8.43 2.133-4.492 1.125-8.195 2.078-8.235 2.113-.058.059.293 4.57.364 4.668.02.024.543-.062 1.172-.195.625-.129 1.164-.207 1.199-.176.031.032-.203.82-.524 1.754-1.234 3.586-1.746 5.406-1.546 5.48.105.036 1.03.286 2.05.551l1.856.477.097-.602c.2-1.23.918-4.578 1.223-5.69l.313-1.15.015 4.063.016 4.067h-5.965l.094 4.843 2.933.047 2.938.043v2.95h-3.969v1.742c0 1.464-.039 1.714-.23 1.558-.184-.152-.54.18-1.817 1.695-.875 1.04-1.594 1.965-1.594 2.063 0 .383 3.579 3.758 6.02 5.676l.637.504-.356.691c-.27.523-.304.711-.144.773.117.043 1.066.407 2.113.805 1.047.403 1.992.735 2.098.738s.43-.394.714-.89M61.36 87.957c0-9.289.051-17.14.11-17.445.074-.352.398-.828.91-1.32l.8-.774-.335-.566c-.422-.711-1.32-3.137-1.32-3.567 0-.426-.051-.418-1.403.238-1.16.563-4.89 1.86-8.578 2.977-1.813.55-1.95.621-1.86.953.055.195.188 1.285.297 2.426l.196 2.074 2.738-.715c1.508-.394 2.793-.718 2.863-.718.067-.004.125 2.77.125 6.156v6.156h-2.101l-.543-2.094c-1.914-7.386-5.211-13.035-9.461-16.203l-1.434-1.07-.953 1.347c-.523.747-1.39 1.813-1.933 2.376l-.985 1.019.543.293c1.778.957 4.43 3.336 5.598 5.023l.5.723-1.188.805a93 93 0 0 0-2.843 2.035 408 408 0 0 1-1.805 1.34c-.086.058.652.984 1.637 2.05a471 471 0 0 1 1.84 2.004c.023.036.66-.535 1.417-1.257.754-.727 1.782-1.657 2.282-2.063.898-.734.914-.738 1.101-.383.227.43 1.38 3.696 1.38 3.907 0 .086-1.817.148-4.216.148H40.52v21.02h20.84Zm-9.343-30.066c5.02-1.496 9.738-2.305 13.488-2.305 1.383 0 1.664-.04 1.59-.23-.086-.22-.465-2.723-.7-4.594l-.101-.801-1.68.11c-5.3.347-12.265 1.87-18.343 4.003l-2.606.914 1.012 1.899A90 90 0 0 0 46 59.305l.313.511 1.773-.64c.98-.356 2.746-.934 3.93-1.285m21.582-3.403v-5.37l.863.976a75 75 0 0 0 2.113 2.261l1.254 1.286 1.73-1.348a81 81 0 0 0 1.958-1.555c.191-.175.023-.441-1.024-1.61-1.355-1.51-3.547-4.37-4.133-5.386-.199-.347-.414-.633-.48-.633-.063 0-.563.368-1.11.82-.542.45-1.03.821-1.082.821-.05 0-.09-1.57-.09-3.492V37.77l2.606-1.98a169 169 0 0 1 3.969-2.946c.75-.528 1.36-1.04 1.355-1.137-.02-.285-2.539-4.582-2.718-4.633-.094-.027-1.282.875-2.649 2.008l-2.48 2.063-.086-14.149h-5.621v21.32c0 11.727.05 21.371.113 21.43.059.063 1.324.11 2.809.11h2.703Zm-29.512-2.957c1.039-2.761 2.555-5.14 4.496-7.054l1.36-1.348-1.528-.488-1.527-.485 1.199-.015 1.2-.02v-4.434h17.366v-5.09l-6.367-.007 1.942-1.016c1.07-.558 1.945-1.062 1.945-1.12 0-.063-.434-.657-.965-1.325-1.332-1.68-2.887-4.008-3.687-5.524-.372-.699-.7-1.296-.727-1.328-.059-.058-4.531 2.38-4.766 2.598-.18.168.203.898 1.426 2.715 1.125 1.664 2.527 3.476 3.402 4.39l.586.618h-10.16l.086-10.266 3.266-.043c1.797-.023 3.27-.098 3.27-.164 0-.07-.258-.715-.575-1.434-.316-.722-.703-1.843-.855-2.492l-.282-1.176-2.164.075c-4.343.152-6.136.59-7.304 1.785-.403.41-.762.984-.887 1.414-.145.496-.238 2.527-.293 6.512l-.082 5.789h-4.926v5.09h4.961v4.433h1.34l-1.027 1.184c-1.25 1.441-2.516 3.355-3.457 5.222-.82 1.621-1.54 3.45-1.41 3.578.101.098 3.953.5 4.449.465.218-.015.422-.316.695-1.039m11.941-1.949c.938-.062 1.743-.18 1.79-.258.05-.078-.11-.64-.352-1.246-.63-1.562-1.223-3.594-1.34-4.601-.121-.997-.035-.973-2.379-.7-2.629.309-2.504.258-2.375.953.184 1.004 1 3.368 1.652 4.793.532 1.145.668 1.329.961 1.258.192-.047 1.11-.133 2.043-.199m8.598-1.316c.934-.16 1.695-.352 1.695-.43s-.261-.652-.578-1.281c-.758-1.492-1.476-3.317-1.73-4.39-.114-.477-.254-.864-.313-.864-.191-.004-4.406.879-4.48.933-.223.176 1.136 3.473 2.25 5.446.527.941.629 1.035 1.023.96.242-.046 1.2-.214 2.133-.374m0 0"/>
    <path fill="#f9f9f9" d="m68.469 97.309-2.23-2.13 8.382-.015-.883 1.004a70 70 0 0 0-1.765 2.094c-.485.597-.97 1.11-1.075 1.133-.109.023-1.199-.915-2.43-2.086m-22.491.976v-1.644h9.925v3.285h-9.925Zm0-7.965v-1.726h9.925v3.449h-9.925Zm21.832-16.707c-.59-.183-1-.36-.91-.386.093-.032.632-.16 1.199-.286l1.035-.23v.633c0 .351-.055.629-.125.62-.067-.007-.61-.167-1.2-.35m0 0"/>
</svg>
