<svg xmlns="http://www.w3.org/2000/svg" width="120" height="120" viewBox="0 0 120 120">
    <path fill="red" stroke="red" stroke-width=".004" d="M4.21-47v1.134H.936v.7h2.89v1.045H.935v.7h2.89v1.02H.935v.709h4.063v.099l-.004.1-.003.117-.004.114-.004.1-.014.202-.057.855-.078.856-.088.67-.101.507-.121.362-.144.24-.118.126-.122.1-.045.025-.084.05-.135.056-.149.04-.16.03-.169.018-.193.013-.132.006h-.001l-.084.003-.234.003-.25-.003-.17-.005-.048-.002H2.26l-.015-.001-.022-.198-.039-.212-.055-.216-.07-.214-.01-.025-.072-.175-.067-.132-.026-.051.163.013h.002l.048.005.204.014.186.01.094.003h.213l.109-.005.083-.002.071-.004.017-.003.046-.01.056-.02.052-.033.05-.048.072-.129.067-.208.053-.261.01-.043.059-.408.054-.524.054-.655H-3.59V-47h7.8m-1.167 8.26-.995.37-.078-.232-.102-.262-.023-.048-.103-.233-.14-.284-.15-.28-.156-.262.752-.26.18-.062.165.253.161.268.152.275.136.268.114.256.023.061.064.171m-2.89 1.022-.047-.288-.073-.332-.095-.358-.065-.215-.046-.156-.127-.365-.135-.345.014-.004.42-.107.57-.145.139.332.134.355.124.362.022.073.086.282.084.333.002.002.058.293-1.023.272-.027.008-.016.003m-2.098.281-.018-.335-.039-.376-.045-.32-.012-.08-.061-.363-.008-.048-.084-.405-.093-.382h.013l.245-.041.83-.135.109.379.095.397.047.235.034.17.065.397.046.373.027.333-1.11.194-.025.004-.016.003m-2.012.354-.138-.088-.646-.413-.117-.076-.089-.056-.052-.034.29-.321.247-.37.209-.413.158-.412.013-.034.135-.47.099-.49.259.075.884.255-.115.545-.127.474-.016.057-.174.508-.22.472-.27.426-.33.365m8.32-16.076h-2.74v.42H4.37v.723H1.622v.44h2.693v.716H1.622v.432h2.8v.732l.102.037.102.034.1.03.097.029.092.025.084.02-.06.37-.017.103-.129.362-.189.26-.26.173-.248.07-.093.025-.435.03H1.953l-.536-.027-.411-.095-.297-.173-.197-.268-.11-.38-.004-.08-.017-.25-.012-.173v-4.52h2.769v-.587H.368v-3.242h1.254v.708h3.154v1.012H1.622v.594h2.74v2.45m-5.076-2.71-.262.574-.124.272h1.046v1.043H-5v-1.043h.992l-.034-.147-.035-.125-.005-.022-.014-.047-.03-.1-.046-.146-.046-.14-.044-.133.166-.039.742-.174h-1.477v-1.043h1.777l-.03-.1-.03-.102-.028-.082-.005-.018-.034-.098-.033-.097-.032-.089L-2.108-58l.06.137.06.143.055.147.052.147.027.082.02.063.042.14h1.6v1.044h-1.562l1.04.227m-2.28.512.016.062.03.112.033.16h.738l.059-.177.03-.095.03-.088.01-.031.05-.154.053-.184.047-.178.036-.166h-1.384l.07.177.065.187.062.19.054.185M-.43-53.54v4.231l-.005.157-.003.084-.03.207-.052.176-.083.149-.118.123-.154.102-.18.08-.2.059-.223.038-.244.022-.265.01h-.06l-.073.002h-.156l-.037-.179-.055-.192-.067-.196-.075-.191-.08-.179-.056-.115-.014-.025-.002-.006-.004-.007-.003-.005.171.01.17.006.158.002h.146l.105-.004.074-.006.055-.003.043-.009.033-.017.022-.028.013-.037.003-.05v-.861l-.028.016-.233.131-.14.077-.119.066-.254.139-.25.137-.245.132-.24.132-.25-.695-.028-.074-.013-.038-.043.388-.063.386-.054.243-.03.133-.108.362-.132.34-.163.317-.026-.023-.091-.075-.153-.113-.172-.119-.177-.113-.167-.096-.077-.037-.067-.033.21-.434.033-.109.111-.362.092-.49.051-.496.022-.482.004-.458v-2.1H-.43m-2.304 1.312.01.004.217.086.23.096.225.097.005.005.198.092.173.088v-.875h-1.746v.89l.407-.479.07-.083.211.079m-.69.967v.062l-.001.102-.003.17-.007.176-.008.18-.01.182.25-.085.271-.095.295-.107.31-.115.28-.105.042-.016.329-.124v-.693l-.371.464-.05.066-.07.086-.166-.086-.195-.1-.215-.106-.228-.107-.23-.106-.217-.094-.002-.001h-.002v.296l-.001.156M9.048-48 9-48.29l-1.382-8.48v-.032h-.007L5-58.588l-5-3.415-5 3.415-2.61 1.785h-.007v.031L-9-48.292l-2.003 12.294h22.007L10.84-37 9.048-48M-13-34l3.8-22.803L-9-58l7.52-5.014L0-64l7.226 4.816L9-58l.2 1.197L13-34.001h-26M2.123-49.126h1.338l.134-.01.044-.016.06-.02.079-.068.057-.106.043-.15.03-.201H1.623v.122l.009.168.028.121.055.081.092.049.022.004.11.019.185.007m-4.437 3.26v.7H-.35v-.7h-1.965m0 2.444H-.35v-.7h-1.965v.7M-.35-42.4h-1.965v.708H-.35Zm0 0" transform="matrix(3.78963 0 0 3.7628 60.114 244.582)"/>
    <path fill="#f9f9f9" d="M18.547 108.895c.012-.305 12.793-77.961 12.844-78.004.257-.239 28.582-19.387 28.695-19.395.191-.023 28.73 19.332 28.805 19.531.082.23 12.734 77.47 12.734 77.739 0 .218-3.406.238-41.54.238-22.847 0-41.538-.047-41.538-.11m54.738-3.598c2.723-.34 3.903-1.426 4.543-4.152.512-2.204 1.024-6.91 1.227-11.32l.093-2.15h-15.41V85.16h10.89v-3.996h-10.89v-2.52h10.89v-4.148h-10.89V72.13h12.383v-4.445H46.438v24.441h27.406l-.051.625c-.41 4.82-.832 7.02-1.473 7.656-.382.38-.382.38-2.754.344l-2.367-.035.434 1.012c.234.558.543 1.62.691 2.367l.266 1.36h1.715c.949 0 2.285-.075 2.98-.157m-27.422-.922c.86-.992 1.778-2.508 2.36-3.902.515-1.227 1.441-4.453 1.582-5.524l.097-.699-2.199-.629c-1.207-.344-2.21-.605-2.23-.582s-.121.48-.227 1.008c-.629 3.113-2.047 6.164-3.629 7.808-.332.348-.558.672-.504.727.14.14 3.887 2.543 3.989 2.559.046.007.386-.336.761-.766m9.352-1.016 1.996-.336-.102-1.043c-.23-2.382-1.238-7.218-1.574-7.546-.12-.125-3.976.402-4.14.566-.043.043.093.863.308 1.82.348 1.559.664 3.653.93 6.157.078.707.137.843.344.789.136-.04 1.144-.22 2.238-.407m9.57-1.914c0-1.035-2.203-7.547-2.555-7.547-.167 0-3.765.891-3.82.95-.02.02.168.597.426 1.285.621 1.668 1.281 3.937 1.574 5.41l.238 1.207 2.067-.535c1.566-.403 2.07-.59 2.07-.77m5.024-1.863c1.363-.512 1.836-.75 1.836-.937 0-.68-2.872-5.852-3.184-5.743l-1.813.63a63 63 0 0 0-1.683.597c-.028.016.32.68.765 1.469.45.789 1.106 2.164 1.461 3.054.352.887.672 1.618.711 1.618.04 0 .899-.313 1.907-.688M45.344 62.844c.613-1.317 1.347-4.063 1.488-5.555.113-1.18.18-1.133.734.52.239.699.461 1.129.563 1.09.098-.04 1.383-.731 2.86-1.544l2.683-1.468.043 1.418c.066 2.23.207 2.086-1.969 2.086h-1.848l.504 1.148c.278.629.618 1.598.766 2.145l.258 1 .972-.004c2.286-.004 4.102-.461 5.055-1.266 1.07-.914 1.067-.848 1.067-10.68v-8.636H43.008v5.668c-.004 3.195-.074 6.242-.164 6.996-.223 1.785-.785 3.89-1.328 4.965-.25.484-.45.91-.45.953 0 .039.32.238.711.433.391.2 1.18.696 1.75 1.106.578.41 1.102.75 1.164.754.07.004.364-.5.653-1.13m30.21.531c1.005-.207 1.903-.719 2.4-1.367.5-.645.976-2.059 1.03-3.051l.043-.789-2.011-.598V54.8H66.277v-1.484h10.29v-2.812h-10.29v-1.629h10.438v-2.812H66.277v-1.485h10.438V35.25H66.277v-2.074h12.078v-4H66.277v-2.664h-4.773v12.437H71.94v2.078H61.504v9.387c0 8.922.012 9.438.293 10.332.473 1.508 1.277 2.188 3.043 2.57 1.172.254 9.547.301 10.715.059M60.013 39.473v-2.004h-1.938c-1.07 0-1.941-.028-1.941-.063s.304-.71.672-1.5c.367-.789.672-1.48.672-1.535s-.625-.23-1.383-.39l-1.38-.286 2.352-.043 2.348-.039v-4.14h-3.059c-2.628 0-3.054-.032-3.054-.223 0-.445-1.094-3.047-1.254-2.988a76 76 0 0 1-2.215.535c-1.129.265-2.05.531-2.05.59 0 .062.132.5.296.976.164.473.3.918.3.985 0 .07-1.515.125-3.358.125h-3.356v4.144l4.55.031-1.116.293c-.614.16-1.141.317-1.168.344-.028.028.156.688.41 1.473.25.781.457 1.488.457 1.566 0 .09-.738.145-1.863.145h-1.868v4h18.946Zm0 0"/>
    <path fill="#f9f9f9" d="M48.914 36.516a22 22 0 0 0-.594-1.926l-.351-.973h5.015l-.226.781c-.121.426-.39 1.293-.598 1.922l-.379 1.149h-2.62Zm-1.73 11.656v-1.516h6.562v1.492c0 1.145-.043 1.48-.184 1.414-1.222-.535-4.488-1.874-4.582-1.874-.101 0-.613.558-1.535 1.687-.246.3-.258.258-.261-1.203m0 4.344c0-1.508.054-2.309.156-2.309.086 0 1.164.48 2.394 1.066 1.364.645 2.282 1.008 2.344.914.055-.082.438-.57.848-1.085l.746-.934.043 1.078c.027.594-.008 1.129-.074 1.188-.106.101-5.328 2.046-6.121 2.285l-.336.101Zm19.886 7.007c-.496-.144-.558-.253-.722-1.28l-.098-.63h8.566l-.093.598c-.121.742-.348 1.11-.801 1.316-.43.196-6.172.196-6.852-.004m-15.71 13.79v-1.184h7.308v2.367h-7.309Zm0 6.589v-1.257h7.308v2.52h-7.309Zm0 6.516V85.16h7.308v2.516h-7.309Zm0 0"/>
</svg>
