<svg xmlns="http://www.w3.org/2000/svg" width="120" height="120" viewBox="0 0 120 136">
    <path fill="none" stroke="red" stroke-width=".004" d="m-13.323 28.02-.453.107-.474.097-.49.089-.505.08-.517.072-.527.065v.881h4.09v1.144h-2.553l.29.165.236.135.517.308.493.31.458.302.41.289.06.046.288.222-.288.377-.044.06-.399.52-.018.025-.436-.366-.24-.18-.135-.102-.156-.117-.134-.093-.468-.325-.647-.42-.666-.407-.658-.378v1.53h-1.315v-1.53l-.35.343-.373.327-.394.308-.413.289-.429.266-.442.244h6.445v4.282h-1.33v-.317h-3.998V37h-1.269v-4.227l-.164.08-.159.073h-.003l-.162.072-.163.066-.166.062-.152.05-.01.003-.008.003-.11-.166-.136-.19-.044-.058-.106-.141-.131-.162-.027-.034-.156-.18-.146-.15.329-.104.237-.075.56-.215.394-.18.151-.069.524-.277.493-.303.222-.158.232-.165h-2.813v-1.144h4.067v-.75l-.125.01-.36.03-.483.035-.48.03-.477.024-.473.02-.469.014-.009-.062-.013-.09-.003-.02-.041-.186-.052-.196-.06-.193-.06-.168-.005-.014-.031-.08-.022-.055-.01-.026 1.183-.056 1.197-.084 1.175-.111.838-.103.095-.01.181-.023 1.014-.162.877-.185.894 1.02m1.223-9.134h-3.287l.02.21.031.31.06.508.068.491.012.075.063.398.081.454.086.433.205-.359.191-.37.178-.382.073-.174.092-.219.151-.406.137-.42.018.005 1.247.298-.234.669-.03.073-.235.57-.293.615-.32.586-.174.277-.174.28-.202.285-.17.239.06.134.096.216.014.025.148.27.165.233.168.172.17.105.168.036.119-.045.098-.138.079-.24.06-.35.021-.198.027-.269.025-.44.003-.055.002-.042.002-.035.001-.019.157.144.175.138.188.128.191.114.081.042.108.056.18.079-.123.847-.09.336-.08.295-.223.443-.291.282-.366.15-.452.043-.358-.043-.333-.125-.31-.202-.284-.273-.264-.338-.142-.232-.102-.166-.147.143-.024.023-.105.102-.286.255-.295.242-.11.082-.195.147-.314.217-.233.149-.038.023-.019.013-.017.01-.01.006-.007.005-.116-.154-.148-.179-.166-.19-.173-.187-.165-.17-.124-.12-.02-.018.399-.23.004-.003.382-.25.039-.029.084-.062.194-.143.054-.04.151-.125.204-.169.222-.206.013-.012.103-.095.319-.331-.162-.586-.008-.03-.15-.656-.102-.541-.028-.147-.001-.007-.102-.667-.01-.061-.095-.755-.077-.778h-3.088v1.123h2.628v.002l-.001.02v.017l-.001.052-.002.093-.002.077v.129l-.002.081v.004l-.012.67-.007.327-.029.805-.017.242-.027.386-.061.47-.042.168-.041.162-.11.206-.1.122-.106.096-.113.075-.123.057-.135.04-.15.032-.152.016-.042.002-.137.008-.2.006-.22.002-.233-.001-.083-.001h-.069l-.045-.002h-.045l-.02-.192-.039-.202-.054-.206-.068-.201-.008-.019-.072-.17-.09-.168v-.002l.188.013.171.01h.01l.167.007.15.004.13.003h.17l.06-.007.053-.013.047-.022.044-.033.043-.045.048-.107.04-.179.032-.263.004-.052.022-.31.02-.47.018-.594h-1.387l-.037.802-.054.572-.026.28-.062.394-.001.004-.055.346-.019.121-.207.845-.02.058-.214.58-.055.149-.3.542-.042.075-.018.033-.013.024-.007.013-.005.008-.14-.136-.177-.158-.2-.166-.205-.157-.193-.136-.165-.099.3-.572.048-.093.243-.735.158-.773.09-.782.04-.763.01-.713v-3.06h4.337l-.008-.255-.007-.205-.002-.052-.008-.258-.007-.258-.004-.245v-.016l-.002-.262h1.325l-.002.262v.261l.002.258.003.14.003.118.002.052.005.205.01.256h1.633l-.209-.16-.225-.159-.071-.047-.141-.095-.022-.015-.237-.153-.234-.146-.225-.137.371-.362.395-.384.305.161.32.184.065.039.256.158.303.2.267.198.216.183-.07.074-.436.46h1.103v1.23m-12.518-1.659L-26 25.708l-1.15 7.06-.853 5.234h22.006L-6.16 37l-.689-4.232-1.15-7.06-1.382-8.48v-.03h-.007L-12 15.412l-5-3.416-5 3.416-2.61 1.784h-.008v.031M-8 16l.2 1.197 2.594 15.571.873 5.234L-4 40h-26l1.206-7.232 2.594-15.57L-26 16l1.775-1.183 5.745-3.831h.001L-17 10l9 6m-6.89 17.662h-3.998v.587h3.998v-.587m0 2.047v-.595h-3.998v.595Zm0 0" transform="matrix(4.29492 0 0 4.26451 133.142 -38.38)"/>
    <path fill="red" d="M4.46 131.988c0-.066 3.849-23.058 8.552-51.09l8.55-50.968L60.118 4.406l19.16 12.684c10.54 6.976 19.227 12.746 19.305 12.824.125.125 17.191 101.332 17.191 101.953 0 .219-6.195.246-55.656.246-30.61 0-55.652-.054-55.656-.125m102.974-8.703c-.055-.246-3.34-20.219-7.301-44.379-4.035-24.59-7.29-44.008-7.403-44.113-.19-.18-31.617-21.492-32.296-21.902-.317-.192-1.711.714-16.746 10.918-9.02 6.117-16.399 11.195-16.399 11.285 0 .207-14.36 87.789-14.473 88.273l-.086.371h94.797Zm0 0"/>
    <path fill="red" d="M42.402 71.531c-.797-.73-2.32-1.918-3.191-2.484l-.383-.25.703-1.39c1.25-2.466 2.051-5.227 2.59-8.946.207-1.434.277-3.836.336-11.617l.074-9.813h18.672l-.226-6.57h5.507l.004 1.684c0 .925.047 2.406.106 3.285l.11 1.601h3.526c2.22 0 3.532-.062 3.532-.164 0-.086-1.262-.992-2.809-2.008l-2.812-1.847 1.523-1.516 1.52-1.52 1.25.665c1.511.808 5.265 3.27 5.68 3.726.292.324.28.356-.704 1.395-.55.586-1 1.11-1 1.168 0 .054 1.04.101 2.317.101h2.312v5.09h-7.027c-5.516 0-7.028.043-7.028.207.008 1.11.926 7.746 1.414 10.223.34 1.726.399 1.91.575 1.8.504-.308 3.054-5.769 3.894-8.331.258-.793.547-1.415.64-1.38.095.036 1.216.305 2.49.602 1.273.293 2.366.582 2.433.64.12.106-.758 2.63-1.602 4.614-1.285 3.024-3.426 6.86-5.246 9.402-.437.61-.797 1.192-.797 1.29 0 .097.352.855.781 1.68 1.543 2.98 3.633 4.265 4.434 2.73.352-.672.7-2.32.816-3.852a115 115 0 0 1 .188-2.172l.09-.86 1.023.778a19 19 0 0 0 2.227 1.406c.906.47 1.187.696 1.125.903-.043.148-.168.902-.274 1.668-.43 3.074-1.382 5.629-2.496 6.68-1.672 1.581-5.355 1.734-7.52.308-1.25-.82-2.804-2.523-3.742-4.102l-.453-.761-1.656 1.472c-1.578 1.403-4.422 3.551-5.59 4.22l-.543.308-.445-.57c-.25-.317-1.074-1.262-1.836-2.102s-1.355-1.547-1.324-1.57c.035-.024.597-.352 1.254-.73 1.875-1.09 4.453-3.071 6.226-4.79l1.63-1.574-.505-1.883c-1.035-3.875-1.726-7.742-2.332-13.05-.187-1.626-.34-3.013-.34-3.079 0-.07-3.011-.125-6.699-.125H48.13v4.926h11.246l-.004 1.11c-.008 3.234-.355 10.573-.57 12.093-.137.96-.406 2.117-.602 2.57-.414.953-1.554 2.032-2.441 2.313-.332.101-1.832.222-3.34.265l-2.738.075-.203-1.09c-.168-.918-.618-2.32-1.082-3.383-.094-.219.164-.242 2.085-.187 3.297.093 3.301.082 3.598-5.31.09-1.624.164-3.12.164-3.323l.004-.371h-6.078l-.102.515c-.058.281-.105 1.004-.105 1.602-.004 1.336-.398 5.144-.746 7.238-.606 3.656-1.774 7.262-3.145 9.723a52 52 0 0 1-.789 1.39c-.02.016-.414-.32-.879-.746m4.237 38.75v-9.02l-1.117.505c-.613.277-1.578.675-2.14.886l-1.024.383-.379-.61c-.207-.335-.992-1.366-1.75-2.292-.835-1.031-1.27-1.684-1.117-1.684.567 0 4.614-1.578 6.832-2.66 1.301-.637 3.274-1.758 4.383-2.492l2.016-1.336-12.157-.086v-4.758h17.368v-3.285h-.453c-.25 0-2.055.106-4.012.234-1.957.13-4.496.278-5.649.332l-2.09.094-.285-1.273c-.156-.7-.449-1.727-.648-2.278l-.367-1 2.742-.109c8.02-.32 18.27-1.45 23.36-2.574.8-.176 1.562-.32 1.687-.32.324 0 3.812 3.937 3.637 4.105-.239.234-4.852 1.121-8.551 1.644-1.926.274-3.594.532-3.707.57-.149.052-.207.598-.207 1.966v1.894H80.71v4.758l-5.531.043-5.528.043 2.172 1.23c2.281 1.297 8.07 5.059 9.04 5.871l.566.481-1.532 1.996-1.53 1.992-1.184-.988c-2.348-1.961-7.621-5.488-11.965-7.996-1.106-.64-2.055-1.121-2.11-1.067-.054.051-.097 1.524-.097 3.27v3.176h-5.457V93.32l-1.492 1.41c-2.254 2.13-5.165 4.235-7.891 5.707-.567.305-1.035.614-1.035.68s6.215.121 13.808.121h13.809v18.067h-5.457v-1.48H51.934v1.48H46.64Zm22.657 2.371v-1.394H51.934v2.789h17.363Zm0-6.238v-1.398H51.934v2.793h17.363Zm0 0"/>
    <path fill="#f8f8f8" d="M13.066 123.328c0-.527 14.391-88.035 14.512-88.226.184-.297 32.3-22.047 32.555-22.047.12 0 7.496 4.937 16.387 10.972 15.273 10.36 16.175 11 16.285 11.535.066.313 3.254 19.668 7.082 43.016 3.832 23.348 7.062 43.024 7.183 43.723l.22 1.273H60.175c-41.79 0-47.11-.027-47.11-.246m39.032-4.516v-.66h17.035v1.317h5.789v-18.414l1.3 1c.716.547 1.43 1.144 1.594 1.324.164.176.387.324.496.324.11 0 .922-.941 1.81-2.094l1.605-2.093-.633-.54c-.98-.835-6-4.12-8.559-5.601l-2.305-1.332h10.645v-5.09h-17.53v-1.805c0-1.144.062-1.808.172-1.808.547 0 6.492-.903 8.554-1.3 2.84-.548 3.844-.802 3.844-.97 0-.066-.855-1.09-1.898-2.273l-1.899-2.156-1.453.324c-5.535 1.226-15.621 2.363-23.984 2.7-1.567.062-2.852.147-2.852.19s.176.567.395 1.165c.215.601.523 1.668.68 2.375l.288 1.285 2.172-.102c2.887-.14 7.157-.398 8.746-.523l1.282-.106v3.004H40.023v5.086l11.649.086-.82.582c-2.844 2.02-6.989 4.035-10.946 5.32l-1.36.446 1.028 1.195c.567.66 1.403 1.727 1.856 2.367.965 1.367.797 1.352 3.308.29l1.653-.704.043 8.926.043 8.922h5.62Zm-7.84-47.828c1.988-3.582 3.265-8.668 3.707-14.738.101-1.402.222-2.934.27-3.41l.081-.86h5.782l-.086 1.352c-.051.746-.133 2.207-.188 3.246-.12 2.406-.32 3.313-.824 3.781-.387.364-.465.372-2.734.274-1.782-.074-2.313-.05-2.246.098.64 1.43 1.02 2.53 1.242 3.609l.27 1.3 2.894-.062c2.586-.054 2.984-.101 3.722-.433 1.75-.79 2.422-1.922 2.82-4.735.235-1.668.56-8.468.567-11.922l.004-1.601H48.293v-4.598h13.035l.106 1.028c.601 5.656 1.425 10.62 2.402 14.445l.613 2.418-1.586 1.531c-2.16 2.082-4.66 3.969-6.922 5.215-.78.43-.824.512-.425.84.347.285 2.64 2.832 3.226 3.582l.446.566 1.62-1.078c1.755-1.164 3.16-2.258 4.97-3.863l1.144-1.016.816 1.238c.996 1.516 2.703 3.149 3.895 3.727a7.46 7.46 0 0 0 3.945.68c2.77-.297 4.234-1.684 5.129-4.871.262-.922.996-4.836.996-5.297 0-.043-.582-.38-1.297-.746-.71-.368-1.761-1.043-2.328-1.5-.57-.454-1.07-.797-1.105-.762s-.141 1.02-.235 2.187c-.261 3.274-.695 4.989-1.347 5.34-.91.48-2.551-.992-3.735-3.351l-.695-1.391 1.539-2.3a59 59 0 0 0 2.79-4.739c1.862-3.625 3.647-8.145 3.327-8.422-.164-.14-5.351-1.387-5.418-1.3-.023.03-.316.855-.652 1.827-.336.977-.93 2.5-1.324 3.383-.73 1.649-2.246 4.52-2.336 4.426-.028-.031-.282-1.422-.563-3.094-.445-2.629-.722-4.636-1.097-7.922l-.09-.78h14.07v-5.419h-4.5l1.016-1.14 1.02-1.137-.88-.695c-1.215-.965-3.965-2.73-5.472-3.516l-1.262-.656-1.656 1.636c-.914.903-1.606 1.692-1.535 1.754.066.067.984.668 2.039 1.336 1.058.672 2.277 1.489 2.71 1.817l.793.601h-6.613l-.105-1.847a65 65 0 0 1-.11-3.286v-1.437h-5.84l.204 6.57H42.367l-.074 9.813c-.078 10.129-.16 11.468-.863 14.656-.446 2.008-1.395 4.703-2.176 6.16l-.727 1.36 1.313.914c.722.5 1.746 1.32 2.277 1.816s1.04.906 1.133.91c.09.004.543-.68 1.008-1.512m0 0"/>
    <path fill="#f8f8f8" d="M48.184 100.7c3.074-1.759 5.71-3.645 7.84-5.618l1.367-1.262v6.27h5.945l.047-3.184.043-3.183 3.058 1.832c3.063 1.832 6.922 4.34 7.86 5.101l.496.406H47.55Zm3.914 5.714v-1.234h17.035v2.465H52.098Zm0 6.238v-1.23h17.035v2.46H52.098Zm0 0"/>
</svg>
