<svg xmlns="http://www.w3.org/2000/svg" width="120" height="120" viewBox="0 0 120 136">
    <path fill="none" stroke="red" stroke-width=".004" d="M17.871 31.696H11.95v-1.17h2.269v-1.101h-1.952v-1.147h1.952v-1.21h1.293v1.21h1.93v1.147h-1.93v1.1h2.36v1.171m-2.36.323v.993h2.081v1.17h-2.08v1.263H18v1.201h-6.543v-1.201h2.76v-1.263h-2.08v-1.17h2.08v-.993h1.294M10.708 27v1.994h1.142v1.185h-1.142v.347l.134.194.047.069.23.348.246.386.237.375.196.318.128.211-.285.341-.204.244-.23.276-.004.006-.003.003-.06-.16-.07-.18-.08-.189-.002-.005-.089-.203-.094-.209-.097-.21V37H9.573v-4.134l-.144.428-.155.412-.162.39-.17.363-.177.33-.016.027-.16.257-.007.01-.068-.195-.029-.072-.06-.148-.103-.233-.109-.232-.02-.042-.089-.175L8 33.798l.192-.287.119-.178.292-.554.005-.01.266-.607.242-.656.21-.669.03-.117.051-.194.091-.347H8.325v-1.177h1.248V27h1.135m6.384-6.593-.03.073-.235.57-.293.615-.15.274-.17.312-.174.277-.174.28-.372.524.06.134.096.216.162.294.165.234.168.172.17.105.07.015.098.021.119-.045.098-.138.079-.24.06-.35.048-.467.02-.37.005-.07.003-.055.002-.042.002-.035.001-.019.157.144.175.138.188.128.191.114.19.098.179.079-.123.847-.09.336-.08.295-.223.443-.291.282-.366.15-.443.042-.009.001-.358-.043-.333-.125-.31-.202-.284-.273-.264-.338-.142-.232-.102-.166-.171.166-.075.073-.03.03-.286.254-.295.242-.305.229-.314.217-.29.185-.017.01-.01.006-.007.005-.116-.154-.148-.179-.166-.19-.064-.069-.11-.118-.164-.17-.124-.12-.02-.018.399-.23.004-.003.015-.01.367-.24.371-.274.355-.294.338-.313.319-.331-.125-.452-.037-.134-.008-.03-.15-.656-.131-.695-.102-.667-.01-.061-.095-.755-.077-.778h-3.088v1.123h2.628v.002l-.001.02v.017l-.001.052-.002.093-.002.077v.129l-.002.081v.004l-.019.997-.029.805-.017.242-.027.386-.061.47-.083.33-.11.206-.1.122-.101.091-.005.005-.113.075-.123.057-.135.04-.15.032-.152.016-.179.01-.167.005-.034.001-.22.002-.232-.001-.083-.001h-.069l-.045-.002h-.045l-.02-.192-.039-.202-.054-.206-.068-.201-.008-.019-.035-.085-.037-.085-.023-.042-.012-.023-.027-.05-.029-.055.048.003.008.001.133.01.18.01.168.006.15.004.13.003h.17l.06-.007.033-.008.02-.005.047-.022.044-.033.043-.045.048-.107.04-.179.032-.263.004-.052.022-.31.02-.47.018-.594h-1.387l-.037.802-.054.572-.026.28-.137.865-.207.845-.02.058-.27.729-.341.617-.018.033-.013.024-.007.013L9.08 26l-.14-.136-.177-.158-.2-.166-.205-.157-.166-.117-.027-.02L8 25.149l.192-.367.108-.205.048-.093.243-.735.158-.773.052-.447.038-.335.04-.763.01-.713v-3.06h4.337l-.008-.255-.007-.205-.002-.052-.008-.258-.007-.258-.004-.245v-.016l-.002-.262h1.325l-.002.262v.261l.002.258.003.14.003.118.002.052.005.205.01.256h1.633l-.209-.16-.225-.159-.212-.142-.022-.015-.237-.153-.234-.146-.225-.137.371-.362.395-.384.305.161.32.184.065.039.123.076.133.082.303.2.267.198.216.183-.07.074-.436.46H17.9v1.23h-3.287l.02.208.031.312.06.507.068.491.012.075.063.398.081.454.086.433.205-.359.191-.37.178-.382.073-.174.092-.219.151-.406.137-.42.018.005.305.073.942.225-.234.669m-11.71-3.179L4 25.708l-1.15 7.06-.853 5.234h22.006L23.84 37l-.689-4.232-1.15-7.06-1.382-8.48v-.03h-.007L18 15.412l-5-3.416-5 3.416-2.61 1.784h-.008v.031M22 16l.2 1.197 2.594 15.571.873 5.234L26 40H0l1.206-7.232L3.8 17.198 4 16l1.775-1.183 5.745-3.831h.001L13 10Zm0 0" transform="matrix(4.29492 0 0 4.26451 4.295 -38.38)"/>
    <path fill="red" d="M4.46 131.988c0-.066 3.849-23.058 8.552-51.09l8.55-50.968L60.118 4.406l19.16 12.684c10.54 6.976 19.227 12.746 19.305 12.824.125.125 17.191 101.332 17.191 101.953 0 .219-6.195.246-55.656.246-30.61 0-55.652-.054-55.656-.125m102.974-8.703c-.055-.246-3.34-20.219-7.301-44.379-4.035-24.59-7.29-44.008-7.403-44.113-.19-.18-31.617-21.492-32.296-21.902-.317-.192-1.711.714-16.746 10.918-9.02 6.117-16.399 11.195-16.399 11.285 0 .207-14.36 87.789-14.473 88.273l-.086.371h94.797Zm0 0"/>
    <path fill="red" d="M42.402 71.531c-.797-.73-2.32-1.918-3.191-2.484l-.383-.25.703-1.39c1.25-2.466 2.051-5.227 2.59-8.946.207-1.434.277-3.836.336-11.617l.074-9.813h18.672l-.226-6.57h5.507l.004 1.684c0 .925.047 2.406.106 3.285l.11 1.601h3.526c2.22 0 3.532-.062 3.532-.164 0-.086-1.262-.992-2.809-2.008l-2.812-1.847 1.523-1.516 1.52-1.52 1.25.665c1.511.808 5.265 3.27 5.68 3.726.292.324.28.356-.704 1.395-.55.586-1 1.11-1 1.168 0 .054 1.04.101 2.317.101h2.312v5.09h-7.027c-5.516 0-7.028.043-7.028.207.008 1.11.926 7.746 1.414 10.223.34 1.726.399 1.91.575 1.8.504-.308 3.054-5.769 3.894-8.331.258-.793.547-1.415.64-1.38.095.036 1.216.305 2.49.602 1.273.293 2.366.582 2.433.64.12.106-.758 2.63-1.602 4.614-1.285 3.024-3.426 6.86-5.246 9.402-.437.61-.797 1.192-.797 1.29 0 .097.352.855.781 1.68 1.543 2.98 3.633 4.265 4.434 2.73.352-.672.7-2.32.816-3.852a115 115 0 0 1 .188-2.172l.09-.86 1.023.778a19 19 0 0 0 2.227 1.406c.906.47 1.187.696 1.125.903-.043.148-.168.902-.274 1.668-.43 3.074-1.382 5.629-2.496 6.68-1.672 1.581-5.355 1.734-7.52.308-1.25-.82-2.804-2.523-3.742-4.102l-.453-.761-1.656 1.472c-1.578 1.403-4.422 3.551-5.59 4.22l-.543.308-.445-.57c-.25-.317-1.074-1.262-1.836-2.102s-1.355-1.547-1.324-1.57c.035-.024.597-.352 1.254-.73 1.875-1.09 4.453-3.071 6.226-4.79l1.63-1.574-.505-1.883c-1.035-3.875-1.726-7.742-2.332-13.05-.187-1.626-.34-3.013-.34-3.079 0-.07-3.011-.125-6.699-.125H48.13v4.926h11.246l-.004 1.11c-.008 3.234-.355 10.573-.57 12.093-.137.96-.406 2.117-.602 2.57-.414.953-1.554 2.032-2.441 2.313-.332.101-1.832.222-3.34.265l-2.738.075-.203-1.09c-.168-.918-.618-2.32-1.082-3.383-.094-.219.164-.242 2.085-.187 3.297.093 3.301.082 3.598-5.31.09-1.624.164-3.12.164-3.323l.004-.371h-6.078l-.102.515c-.058.281-.105 1.004-.105 1.602-.004 1.336-.398 5.144-.746 7.238-.606 3.656-1.774 7.262-3.145 9.723a52 52 0 0 1-.789 1.39c-.02.016-.414-.32-.879-.746m3.074 38.946c-.004-4.961-.067-8.72-.145-8.579-.078.133-.418 1.016-.758 1.954-1.031 2.859-3.164 7.222-3.402 6.953-.059-.067-.234-.453-.39-.864-.157-.406-.66-1.527-1.122-2.492l-.836-1.754.778-1.156c1.851-2.77 4.566-9.605 5.46-13.77l.114-.53h-4.989v-4.927h5.293V76.77h4.797v8.543h4.797v4.925h-4.797v.848c0 .789.102 1 1.47 3.078a241 241 0 0 1 2.55 3.977l1.086 1.746-1.477 1.758c-1.199 1.43-1.496 1.703-1.586 1.457-.222-.61-1.695-3.997-1.86-4.278-.12-.207-.175 2.84-.179 10.094l-.004 10.387H45.48Zm10.257-16.215v-2.383h9.758v-4.926H57.06v-4.598h8.433v-5.253h5.293v5.253h8.27v4.598h-8.27v4.926H81.04v4.762H55.734Zm-2.148 21.101v-2.465h11.906v-5.582h-8.93v-4.761h8.93v-4.27h5.293v4.27h8.934v4.761h-8.934v5.582h10.75v4.926h-27.95Zm0 0"/>
    <path fill="#f8f8f8" d="M13.066 123.328c0-.527 14.391-88.035 14.512-88.226.184-.297 32.3-22.047 32.555-22.047.12 0 7.496 4.937 16.387 10.972 15.273 10.36 16.175 11 16.285 11.535.066.313 3.254 19.668 7.082 43.016 3.832 23.348 7.062 43.024 7.183 43.723l.22 1.273H60.175c-41.79 0-47.11-.027-47.11-.246m37.418-13.918.043-10.058.903 2.175c.496 1.196.941 2.172.992 2.168.11-.011 3.043-3.554 3.117-3.765.047-.137-2.75-4.657-4.375-7.063-.57-.844-.723-1.215-.723-1.765v-.7h4.797v-5.254H50.45l-.043-4.23-.047-4.23-2.52-.043-2.523-.047v8.55h-5.293v5.254h4.93l-.324 1.274c-1.168 4.582-3.48 10.207-5.309 12.914l-.765 1.133.793 1.574c.433.871 1 2.113 1.257 2.77.254.656.508 1.19.563 1.19.434-.003 2.758-4.874 3.95-8.292.124-.356.175 1.902.187 8.004l.011 8.5h5.125Zm31.22 5.953v-2.629h-10.75v-5.254h8.929v-5.09h-8.93v-4.269h-5.625v4.27h-8.93v5.09h8.93v5.253H53.422v5.254h28.281Zm-.497-21.101v-2.547H70.953v-4.598h8.27v-4.926h-8.27v-5.254h-5.625v5.254h-8.433v4.926h8.433v4.598H55.57v5.09h25.637Zm-36.95-23.278c1.99-3.582 3.266-8.668 3.708-14.738.101-1.402.222-2.934.27-3.41l.081-.86h5.782l-.086 1.352c-.051.746-.133 2.207-.188 3.246-.12 2.406-.32 3.313-.824 3.781-.387.364-.465.372-2.734.274-1.782-.074-2.313-.05-2.246.098.64 1.43 1.02 2.53 1.242 3.609l.27 1.3 2.894-.062c2.586-.054 2.984-.101 3.722-.433 1.75-.79 2.422-1.922 2.82-4.735.235-1.668.56-8.468.567-11.922l.004-1.601H48.293v-4.598h13.035l.106 1.028c.601 5.656 1.425 10.62 2.402 14.445l.613 2.418-1.586 1.531c-2.16 2.082-4.66 3.969-6.922 5.215-.78.43-.824.512-.425.84.347.285 2.64 2.832 3.226 3.582l.446.566 1.62-1.078c1.755-1.164 3.16-2.258 4.97-3.863l1.144-1.016.816 1.238c.996 1.516 2.703 3.149 3.895 3.727a7.46 7.46 0 0 0 3.945.68c2.77-.297 4.234-1.684 5.129-4.871.262-.922.996-4.836.996-5.297 0-.043-.582-.38-1.297-.746-.71-.368-1.761-1.043-2.328-1.5-.57-.454-1.07-.797-1.105-.762s-.141 1.02-.235 2.187c-.261 3.274-.695 4.989-1.347 5.34-.91.48-2.551-.992-3.735-3.351l-.695-1.391 1.539-2.3a59 59 0 0 0 2.79-4.739c1.862-3.625 3.647-8.145 3.327-8.422-.164-.14-5.351-1.387-5.418-1.3-.023.03-.316.855-.652 1.827-.336.977-.93 2.5-1.324 3.383-.73 1.649-2.246 4.52-2.336 4.426-.028-.031-.282-1.422-.563-3.094-.445-2.629-.722-4.636-1.097-7.922l-.09-.78h14.07v-5.419h-4.5l1.016-1.14 1.02-1.137-.88-.695c-1.215-.965-3.965-2.73-5.472-3.516l-1.262-.656-1.656 1.636c-.914.903-1.606 1.692-1.535 1.754.066.067.984.668 2.039 1.336 1.058.672 2.277 1.489 2.71 1.817l.793.601h-6.613l-.105-1.847a65 65 0 0 1-.11-3.286v-1.437h-5.84l.204 6.57H42.367l-.074 9.813c-.078 10.129-.16 11.468-.863 14.656-.446 2.008-1.395 4.703-2.176 6.16l-.727 1.36 1.313.914c.722.5 1.746 1.32 2.277 1.816s1.04.906 1.133.91c.09.004.543-.68 1.008-1.512m0 0"/>
</svg>
