<svg xmlns="http://www.w3.org/2000/svg" width="120" height="120" viewBox="0 0 120 120">
    <path fill="red" stroke="red" stroke-width=".004" d="m58.179 45.403-.52.256-.315.158-.266.134-.61.319-.604.34-.57.347-.21.146-.257.182-.404.336-.331.35-.248.363-.155.382-.054.403.005.033.064.362.207.327.344.257.481.186.619.112.753.039.642-.017.594-.038.084-.006.691-.068.676-.088.635-.103.57-.113-.017 1.703-.527.084-.57.07-.614.06-.658.043-.27.01-.434.018-.75.01-1.131-.058-1.001-.188-.78-.314-.057-.023-.639-.509-.408-.698L52 49.3l.016-.15.051-.483.191-.581.3-.534.395-.495.295-.287.181-.174.542-.436-.046-.09-.231-.44-.28-.563-.007-.013-.273-.577-.279-.61-.278-.623-.02-.048-.254-.583 1.318-.538.052-.02.05-.022.038-.015.03-.012.017-.007.234.614.244.583.003.01.253.567.254.54.252.509.122.232.125.241.423-.24.069-.038.484-.266.422-.227.042-.024.43-.23.179-.095.202-.109.318-.172.216-.13.201-.122.188-.118.174-.117.164-.119.118-.092.037-.03.003.008.015.022.804 1.355-.18.107-.187.108-.192.105-.199.105-.15.078-.056.03-.212.107-.43.211M61 56.29l-.146.157-.157.183-.158.2-.151.204-.135.198-.068.112-.041.068-.177-.068-.057-.022-.236-.097-.237-.102-.238-.109-.234-.11-.235-.116v.64h-2.105v1.13h3.331v1.152H58.31l1.044.398-.187.304-.19.305-.188.3-.185.29-.088.133-.09.138-.17.245h2.25V63h-9.038v-1.177h2.059l-.098-.262-.051-.121-.073-.17-.056-.117-.089-.185-.16-.31-.167-.303-.17-.286.382-.167.13-.057.074-.032.233-.103H51.97v-1.153h3.324v-1.13h-2.12v-.53l-.223.107-.222.104-.223.1-.225.094-.103.042-.124.05-.227.088-.069-.138-.03-.06-.123-.207-.14-.212-.152-.207-.113-.14-.044-.053-.091-.103L51 56.29l.97-.334.934-.42.344-.2.072-.04.46-.266.795-.59.693-.677.028-.037.316-.426.038-.052.185-.248.536.248.644.298-.097.145-.095.146-.05.071-.05.074.562.47.059.04.594.41.674.393.045.028.734.363.032.015.788.325.64.214.063.02.037.013.021.007.018.006.01.004m-3.519-.262-.137-.096-.18-.128-.308-.23-.295-.24-.046-.039-.24-.204-.263-.241-.012-.01-.258.262-.207.193-.06.057-.28.24-.287.225-.295.217-.305.208h3.498l-.325-.214M66.84 63 65 51.71l-1.38-8.48v-.032h-.008l-3.61-2.468L56 37.997l-4 2.732-3.61 2.468h-.008v.031L47 51.708l-2.003 12.294h22.007L66.84 63M43 66l3.8-22.804L47 42l7.52-5.014L56 36l7.226 4.816L65 42l.2 1.197L69 65.999H43m15.15-6.289h-1.526v2.113h1.308l-.588-.25-.11-.046.053-.087.057-.09.055-.089.169-.298.167-.315.156-.323.14-.316.12-.299m-2.857 1.418V59.71h-1.58l.185.282.18.3.172.303.152.3.127.283.094.255-.016.007-.84.383h1.526Zm0 0" transform="matrix(3.78963 0 0 3.7628 -152.106 -131.698)"/>
    <path fill="#f9f9f9" d="M18.547 108.895c.012-.305 12.793-77.961 12.844-78.004.257-.239 28.582-19.387 28.695-19.395.191-.023 28.73 19.332 28.805 19.531.082.23 12.734 77.47 12.734 77.739 0 .218-3.406.238-41.54.238-22.847 0-41.538-.047-41.538-.11m58.766-5.739v-2.297h-8.465l1-1.52c1.586-2.41 2.992-4.671 2.992-4.816 0-.074-.79-.437-1.75-.816l-1.758-.676 2.95-.011 2.94-.012v-4.442H62.548v-4.148h8.055v-1.11c0-.609.035-1.109.078-1.109s.535.227 1.093.508c1.024.512 3.856 1.711 4.032 1.711.05 0 .246-.27.437-.602.192-.332.914-1.3 1.613-2.164.696-.859 1.239-1.586 1.211-1.613-.027-.027-.664-.25-1.414-.492-4.879-1.582-10.32-4.496-13.687-7.32a67 67 0 0 0-.945-.786c-.024-.011.203-.402.511-.855.301-.461.528-.852.492-.875-.144-.106-4.414-2.027-4.5-2.027-.054 0-.597.652-1.207 1.441-3.449 4.488-8.566 7.914-15.308 10.254-1.028.355-1.89.668-1.922.691-.031.028.168.301.45.606.64.707 1.75 2.261 2.296 3.226.23.407.434.758.45.782.019.027 1.062-.395 2.323-.938 1.262-.539 2.375-1.016 2.48-1.055.138-.058.185.157.185.825v.902h8.054v4.148H44.797v4.442l5.445.008-1.418.613c-.781.34-1.437.633-1.46.644-.024.02.273.555.66 1.196.726 1.215 2.132 4.07 2.41 4.91l.164.48h-7.743v4.594h34.458Zm-7.235-39.539c2.656-.285 4.996-.62 5.113-.738.051-.047.118-1.516.153-3.27.082-3.578.168-3.332-1.09-3.03-1.098.257-6.688 1.019-8.727 1.183-3.136.258-7.144.218-8.789-.082-3.722-.68-5.468-2.2-5.425-4.727.03-1.867.964-3.543 3.027-5.45 2.238-2.062 5.21-3.847 12.308-7.386 5.395-2.691 7.832-3.996 7.832-4.195 0-.106-2.777-4.852-3.058-5.23-.016-.02-.86.511-1.883 1.187a56 56 0 0 1-3.785 2.25 571 571 0 0 0-5.035 2.703c-1.7.918-3.153 1.676-3.223 1.676-.273 0-3.664-7.242-5.023-10.738a98 98 0 0 0-.598-1.516c-.02-.043-5.328 2.105-5.648 2.285-.176.098-.149.27.164 1.008.937 2.21 3.289 7.258 4.53 9.723l1.364 2.703-.57.453c-1.52 1.203-2.817 2.414-3.633 3.41-2.652 3.219-3.527 6.18-2.918 9.852.227 1.347.36 1.726 1.008 2.859.637 1.117.926 1.45 2.012 2.316 1.054.844 1.566 1.13 3.007 1.676 1.664.637 4.239 1.207 6.063 1.348 1.836.144 10.7-.043 12.824-.27m0 0"/>
    <path fill="#f9f9f9" d="M54.273 79.703c.082-.062.809-.613 1.625-1.21a38 38 0 0 0 2.856-2.4l1.379-1.308.793.715c1.492 1.332 2.437 2.074 4.066 3.203l1.617 1.125h-6.238c-3.43 0-6.172-.055-6.098-.125m-.71 20.481c.757-.356 1.378-.735 1.378-.836-.004-.371-1.3-3.032-2.23-4.559-.52-.855-.973-1.61-1.008-1.668s1.219-.113 2.777-.113h2.844v7.851l-2.57-.011-2.574-.012Zm8.984-3.25v-3.926h2.762c1.765 0 2.757.055 2.757.152 0 .32-1.48 3.41-2.359 4.922-.508.875-.922 1.648-.922 1.719 0 .066.469.312 1.043.539.574.23 1.043.441 1.043.469s-.969.05-2.164.05h-2.16Zm0 0"/>
</svg>
