<svg xmlns="http://www.w3.org/2000/svg" width="120" height="120" viewBox="0 0 120 120">
    <path fill="red" stroke="red" stroke-width=".004" d="M23-37v-1.403h4.277v-3.065h-3.236v-1.41h3.236v-2.702h-3.752V-47h8.91v1.42h-3.774v2.701h3.346v1.411H28.66v3.065h4.338V-37H23m4.287-18.87-.262.574-.124.272h1.046v1.043H23v-1.043h.992l-.034-.147-.04-.147-.044-.148-.046-.145-.046-.14-.044-.133.838-.197.07-.016h-1.477v-1.043h1.777l-.03-.1-.03-.102-.028-.082-.005-.018-.034-.098-.033-.097-.032-.089L25.892-58l.06.137.06.143.055.147.052.147.027.082.02.063.042.14h1.6v1.044h-1.562l.378.083.662.144m-2.28.512.016.062.03.112.033.16h.738l.059-.177.03-.095.03-.088.06-.185.053-.184.047-.178.036-.166h-1.384l.069.177.066.187.062.19.054.185m3.364 1.262h2.769v-.586h-2.77v-3.242h1.254v.708h3.154v1.012h-3.154v.594h2.74v2.45h-2.74v.42h2.747v.723h-2.747v.44h2.693v.716h-2.693v.432h2.8v.732l.102.037.102.034.1.03.041.013.056.016.092.025.084.02-.06.37-.017.103-.129.362-.026.034-.002.005-.16.222-.26.172-.342.095-.435.03h-1.615l-.536-.027-.411-.095-.297-.173-.037-.05-.018-.025-.136-.186-.006-.007-.065-.226-.044-.154-.004-.065-.001-.015-.03-.423v-4.52m-.799.555v4.231l-.005.157-.003.084-.03.207-.052.176-.083.149-.118.123-.154.102-.18.08-.2.059-.12.02-.103.018-.244.022-.265.01-.133.002h-.156l-.037-.179-.055-.192-.067-.196-.075-.191-.08-.179-.076-.153-.003-.005.171.01.1.003.07.003.158.002h.146l.105-.004.074-.006.055-.003.043-.009.033-.017.022-.028.013-.037.003-.05v-.861l-.028.016-.233.131-.259.143-.203.112-.051.027-.25.137-.245.132-.24.132-.238-.661-.013-.034-.027-.074-.013-.038-.043.388-.063.386-.054.243-.03.133-.108.362-.132.34-.098.192-.03.058-.016.03-.014.03-.005.007-.117-.098-.153-.113-.172-.119-.177-.113-.167-.096-.077-.037-.067-.033.21-.434.033-.109.111-.362.092-.49.051-.496.022-.482.004-.458v-2.1h4.046m-2.304 1.312.01.004.217.086.108.045.123.05.224.098.203.097.173.088v-.875h-1.746v.89l.407-.479.07-.083.211.079m-.688.81-.001.157-.002.164-.003.17-.007.176-.008.18-.01.182.002-.002.247-.083.272-.095.296-.107.31-.115.321-.12.127-.05.202-.075v-.693l-.422.53-.07.086-.165-.086-.066-.034-.129-.066-.215-.106-.228-.107-.23-.106-.22-.095h-.001v.296M37.048-48 37-48.29l-1.382-8.48v-.032h-.007L33-58.588l-5-3.415-5 3.415-2.61 1.785h-.007v.031L19-48.292l-2.003 12.294h22.007L38.84-37l-1.791-11M15-34l3.8-22.803L19-58l7.52-5.014L28-64l7.226 4.816L37-58l.2 1.197L41-34.001H15m15.123-15.125h1.338l.134-.01.044-.016.06-.02.079-.068.057-.106.043-.15.03-.201h-2.286v.122l.009.168.028.121.055.081.092.049.022.004.11.019Zm0 0" transform="matrix(3.78963 0 0 3.7628 -45.996 244.582)"/>
    <path fill="#f9f9f9" d="M18.613 108.45c.051-.305 2.934-17.868 6.407-39.032 3.472-21.16 6.34-38.496 6.37-38.527.258-.239 28.583-19.387 28.696-19.395.191-.023 28.73 19.332 28.805 19.531.082.23 12.734 77.47 12.734 77.739 0 .218-3.406.238-41.55.238H18.52Zm60.492-5.74v-2.737h-16.41V88.566h12.68v-5.48h-12.68v-9.922h14.32v-5.48H43.009v5.48h14.316v9.922H45.098v5.48h12.226v11.407H41.066v5.48h38.04ZM45.344 62.845c.605-1.293 1.316-3.938 1.5-5.555l.125-1.082.504 1.375c.289.793.57 1.348.668 1.313.09-.04 1.37-.727 2.847-1.54l2.684-1.468.043 1.418c.066 2.23.207 2.086-1.969 2.086h-1.848l.504 1.148c.278.629.618 1.598.766 2.145l.258 1 .972-.004c2.286-.004 4.102-.461 5.055-1.266 1.07-.914 1.067-.848 1.067-10.68v-8.636H43.008v5.668c-.004 3.195-.074 6.242-.164 6.996-.223 1.785-.785 3.89-1.328 4.965-.25.484-.45.91-.45.953 0 .039.32.238.711.433.391.2 1.18.696 1.75 1.106.578.41 1.102.75 1.164.754.07.004.364-.5.653-1.13m30.21.531c1.005-.207 1.903-.719 2.4-1.367.5-.645.976-2.059 1.03-3.051l.043-.789-2.011-.598V54.8H66.277v-1.484h10.29v-2.812h-10.29v-1.629h10.438v-2.812H66.277v-1.485h10.438V35.25H66.277v-2.074h12.078v-4H66.277v-2.664h-4.773v12.437H71.94v2.078H61.504v9.387c0 8.922.012 9.438.293 10.332.473 1.508 1.277 2.188 3.043 2.57 1.172.254 9.547.301 10.715.059M60.013 39.473v-2.004h-1.938c-1.07 0-1.941-.028-1.941-.063s.304-.71.672-1.5c.367-.789.672-1.48.672-1.535s-.625-.23-1.383-.39l-1.38-.286 2.352-.043 2.348-.039v-4.14h-3.059c-2.628 0-3.054-.032-3.054-.223 0-.445-1.094-3.047-1.254-2.988a76 76 0 0 1-2.215.535c-1.129.265-2.05.531-2.05.59 0 .062.132.5.296.976.164.473.3.918.3.985 0 .07-1.515.125-3.358.125h-3.356v4.144l4.55.031-1.116.293c-.614.16-1.141.317-1.168.344-.028.028.156.688.41 1.473.25.781.457 1.488.457 1.566 0 .09-.738.145-1.863.145h-1.868v4h18.946Zm0 0"/>
    <path fill="#f9f9f9" d="M48.914 36.516a22 22 0 0 0-.594-1.926l-.351-.973h5.015l-.226.781c-.121.426-.39 1.293-.598 1.922l-.379 1.149h-2.62Zm-1.73 11.656v-1.516h6.562v1.492c0 1.145-.043 1.48-.184 1.414-1.222-.535-4.488-1.874-4.582-1.874-.101 0-.613.558-1.535 1.687-.246.3-.258.258-.261-1.203m0 4.332c0-1.5.054-2.297.156-2.297.086 0 1.164.48 2.394 1.066 1.364.645 2.282 1.008 2.344.914.23-.34 1.567-1.98 1.613-1.98.032 0 .055.5.055 1.11v1.109l-.543.226c-.715.297-5.836 2.149-5.937 2.149-.047 0-.082-1.035-.082-2.297m19.886 7.019c-.496-.144-.558-.253-.722-1.28l-.098-.63h8.566l-.093.598c-.121.742-.348 1.11-.801 1.316-.43.196-6.172.196-6.852-.004m0 0"/>
</svg>
