<svg xmlns="http://www.w3.org/2000/svg" width="120" height="120" viewBox="0 0 120 136">
    <path fill="none" stroke="red" stroke-width=".004" d="m47.024 32.448.007.007.285.313.525.577-.224.176-.233.176-.236.173-.044.031-.193.136-.234.161-.228.151.212.295.144.172.085.101.214.217.033.034.266.226.287.203.154.089.06.033.04.023.025.014.02.011.01.007-.147.141-.158.17-.16.192-.151.199-.135.196-.11.182-.034-.026-.619-.47-.473-.521-.083-.092-.47-.72-.1-.209-.265-.555-.025-.052v-.002l-.013-.035-.307-.864-.144-.54-.035-.136-.08-.299h-.544v2.943l1.11-.292.173-.045.04-.011.016-.004.012-.003.012-.003.006-.002.004.177.011.196.018.201.022.197.024.18.027.152-.365.113-.54.166-.666.216-.469.165-.315.128-.114.057-.092.046-.14.09-.03-.136-.007-.033-.056-.191-.07-.198-.079-.194-.086-.173-.08-.127-.008-.013.106-.057.052-.038.048-.034.089-.094.024-.04.048-.08.047-.152.017-.187v-7.809h4.804v4.889h-1.975l.055.189.058.185.02.061.042.121.065.179.068.177.071.176.2-.157.2-.165.191-.167.178-.164.003-.003.165-.162.144-.155m-5.234-1.67h-.923v.75h1.384v1.104h-1.384v2.345l.093-.02.61-.133-.027-.008-.583-.172-.04-.012.04-.15.03-.116.075-.299.063-.275.01-.042.068-.32.057-.31.043-.281.915.238-.096.304-.097.31-.032.101-.064.204-.096.293-.093.27-.09.242.598-.123.012.138.021.22.065.707-.377.097-.306.08-.687.174-.019.005-.66.165-.66.166-.627.159-.101.026-.481.124-.287-1.218.233-.047.233-.046.02-.004.27-.05v-.002l.012-.002.235-.044.036-.007.296-.055.306-.057v-2.575h-1.452v-1.103h1.452v-.751H38.9v-.46l-.068.057-.068.056-.068.055-.153.121-.02.017-.016.012-.009.007-.006.005-.049-.164-.072-.21-.088-.232-.097-.235-.05-.111-.047-.106-.037-.073-.035-.07-.017-.033.422-.313.419-.359.07-.07.334-.327.377-.428.338-.45.287-.467.713.27.3.113-.024.053-.026.052-.028.052-.03.052-.032.052-.02.03-.009.015-.005.008.306.247.3.253.285.253.237.222.027.025.235.234.2.215-.75.896-.136-.161v.897m4.271-11.342.018.004 1.247.298-.234.669-.03.073-.235.57-.293.615-.32.586-.174.277-.174.28-.372.524.098.22.058.13.162.294.165.234.168.172.17.105.168.036.119-.045.098-.138.079-.24.06-.35.021-.198.027-.269.032-.572.001-.019.157.144.027.021.148.117.188.128.191.114.19.098.179.079-.123.847-.09.336-.08.295-.223.443-.291.282-.366.15-.452.043-.358-.043-.333-.125-.31-.202-.284-.273-.034-.044-.23-.294-.123-.202-.02-.03-.101-.166-.147.143-.024.023-.105.102-.286.255-.295.242-.305.229-.314.217-.098.062-.135.087-.038.023-.019.013-.017.01-.01.006-.007.005-.116-.154-.148-.179-.166-.19-.173-.187-.165-.17-.124-.12-.02-.018.399-.23.004-.003.296-.193.032-.022.045-.03.01-.005.038-.029.084-.062.194-.143.036-.027.018-.013.355-.294.338-.313.319-.331-.162-.586-.008-.03-.15-.656-.13-.688-.001-.007-.102-.667-.01-.061-.095-.755-.077-.778h-3.088v1.123h2.628v.002l-.001.02v.017l-.001.052-.002.093-.002.077v.129l-.002.081v.004l-.012.67-.007.327-.029.805-.017.242-.027.386-.061.47-.042.168-.041.162-.11.206-.1.122-.106.096-.113.075-.123.057-.135.04-.15.032-.152.016-.179.01-.2.006-.22.002h-.051l-.182-.001-.083-.001h-.069l-.045-.002h-.045l-.02-.192-.039-.202-.054-.206-.068-.201-.008-.019-.072-.17-.08-.152-.003-.002-.004-.008-.003-.006v-.002l.188.013.18.01.168.007.15.004.089.002.04.001h.171l.06-.007.053-.013.047-.022.044-.033.043-.045.048-.107.04-.179.032-.263.004-.052.022-.31.02-.47.018-.594h-1.387l-.037.802-.054.572-.026.28-.062.394-.001.004v.007l-.003.01v.003l-.052.326-.019.121-.207.845-.02.058-.27.729-.3.542-.041.075-.018.033-.013.024-.007.013-.005.008-.14-.136-.177-.158-.2-.166-.205-.157-.193-.136-.165-.099.3-.572.048-.093.243-.735.158-.773.052-.447.038-.335.04-.763.01-.713v-3.06h4.337l-.008-.255-.007-.205-.002-.052-.008-.258-.007-.258-.004-.245v-.016l-.002-.262h1.325l-.002.262v.261l.002.258.003.14.003.118.002.052.005.205.01.256h1.633l-.209-.16-.225-.159-.212-.142-.022-.015-.237-.153-.208-.13-.026-.016-.225-.137.251-.244.12-.118.395-.384.305.161.32.184.065.039.256.158.303.2.267.198.216.183-.07.074-.436.46H47.9v1.23h-3.287l.051.52.06.507.068.491.012.075.063.398.081.454.086.433.022-.038.183-.32.191-.37.178-.383.073-.174.092-.219.151-.406.137-.42m-10.679-2.207L34 25.708l-1.15 7.06-.853 5.234h22.006L53.84 37l-.689-4.232-1.15-7.06-1.382-8.48v-.03h-.007L48 15.412l-5-3.416-5 3.416-2.61 1.784h-.008v.031M52 16l.2 1.197 2.594 15.571.873 5.234L56 40H30l1.206-7.232 2.594-15.57L34 16l1.775-1.183 5.745-3.831h.001L43 10l9 6M39.386 33.3l.088.325.08.33.07.32.058.302.038.24.005.03-.813.233-.027.007-.015.005-.03-.271-.001-.005-.05-.3-.066-.324-.078-.333-.086-.328-.09-.309.008-.002.435-.121.38-.107.094.308m6.935-4.76h-2.375v.828h2.375v-.828m-5.435.439-.2-.183-.143-.124-.062-.055-.042.055-.103.135-.148.185-.15.182-.154.178-.157.175-.161.17h2.057l-.17-.172-.18-.179-.19-.183-.123-.115-.074-.07m4.17 1.417h-1.11v.85h2.375v-.85Zm0 0" transform="matrix(4.29492 0 0 4.26451 -124.553 -38.38)"/>
    <path fill="red" d="M4.46 131.988c0-.066 3.849-23.058 8.552-51.09l8.55-50.968L60.118 4.406l19.16 12.684c10.54 6.976 19.227 12.746 19.305 12.824.125.125 17.191 101.332 17.191 101.953 0 .219-6.195.246-55.656.246-30.61 0-55.652-.054-55.656-.125m102.974-8.703c-.055-.246-3.34-20.219-7.301-44.379-4.031-24.578-7.293-44.008-7.403-44.113-.19-.18-31.617-21.492-32.296-21.902-.317-.192-1.711.714-16.746 10.918-9.02 6.117-16.399 11.195-16.399 11.285 0 .207-14.36 87.789-14.473 88.273l-.086.371h94.797Zm0 0"/>
    <path fill="red" d="M42.402 71.531c-.797-.73-2.32-1.918-3.191-2.484l-.383-.25.703-1.39c1.25-2.466 2.051-5.227 2.59-8.946.207-1.434.277-3.836.336-11.617l.074-9.813h18.672l-.226-6.57h5.507l.004 1.684c0 .925.047 2.406.106 3.285l.11 1.601h3.526c2.22 0 3.532-.062 3.532-.164 0-.086-1.262-.992-2.809-2.008l-2.812-1.847 1.523-1.516 1.52-1.52 1.25.665c1.511.808 5.265 3.27 5.68 3.726.292.324.28.356-.704 1.395-.55.586-1 1.11-1 1.168 0 .054 1.04.101 2.317.101h2.312v5.09h-7.027c-5.516 0-7.028.043-7.028.207.008 1.11.926 7.746 1.414 10.223.34 1.726.399 1.91.575 1.8.504-.308 3.054-5.769 3.894-8.331.258-.793.547-1.415.64-1.38.095.036 1.216.305 2.49.602 1.273.293 2.366.582 2.433.64.12.106-.758 2.63-1.602 4.614-1.285 3.024-3.426 6.86-5.246 9.402-.437.61-.797 1.192-.797 1.29 0 .097.352.855.781 1.68 1.543 2.98 3.633 4.265 4.434 2.73.352-.672.7-2.32.816-3.852a115 115 0 0 1 .188-2.172l.09-.86 1.023.778a19 19 0 0 0 2.227 1.406c.906.47 1.187.696 1.125.903-.043.148-.168.902-.274 1.668-.43 3.074-1.382 5.629-2.496 6.68-1.672 1.581-5.355 1.734-7.52.308-1.25-.82-2.804-2.523-3.742-4.102l-.453-.761-1.656 1.472c-1.578 1.403-4.422 3.551-5.59 4.22l-.543.308-.445-.57c-.25-.317-1.074-1.262-1.836-2.102s-1.355-1.547-1.324-1.57c.035-.024.597-.352 1.254-.73 1.875-1.09 4.453-3.071 6.226-4.79l1.63-1.574-.505-1.883c-1.035-3.875-1.726-7.742-2.332-13.05-.187-1.626-.34-3.013-.34-3.079 0-.07-3.011-.125-6.699-.125H48.13v4.926h11.246l-.004 1.11c-.008 3.234-.355 10.573-.57 12.093-.137.96-.406 2.117-.602 2.57-.414.953-1.554 2.032-2.441 2.313-.332.101-1.832.222-3.34.265l-2.738.075-.203-1.09c-.168-.918-.618-2.32-1.082-3.383-.094-.219.164-.242 2.085-.187 3.297.093 3.301.082 3.598-5.31.09-1.624.164-3.12.164-3.323l.004-.371h-6.078l-.102.515c-.058.281-.105 1.004-.105 1.602-.004 1.336-.398 5.144-.746 7.238-.606 3.656-1.774 7.262-3.145 9.723a52 52 0 0 1-.789 1.39c-.02.016-.414-.32-.879-.746m-2.024 45.859c-.094-.437-.356-1.554-.574-2.48-.223-.93-.36-1.715-.301-1.746.059-.035 1.652-.348 3.539-.695l3.43-.637v-11.086h-6.285v-4.598h6.285v-3.285h-3.801v-.984c0-.543-.063-.984-.14-.984-.075 0-.485.27-.91.597-.43.332-.794.57-.817.535-.024-.035-.215-.582-.434-1.215a29 29 0 0 0-.95-2.363c-.304-.668-.554-1.261-.554-1.324 0-.059.5-.473 1.113-.922 2.461-1.789 5.829-5.344 7.454-7.871.41-.633.796-1.215.867-1.289.117-.129 3.691 1.105 4.027 1.39.078.067-.012.391-.21.723l-.356.602.457.355c1.218.942 3.902 3.328 5.066 4.504l1.3 1.317-1.542 1.832-1.54 1.832-.292-.38c-.285-.366-.293-.323-.297 1.634l-.004 2.011h-3.969v3.285h5.954v4.598H50.94v10.149l1.364-.31c.75-.167 1.46-.308 1.582-.308.523-.011-.063-.316-1.266-.656l-1.305-.367.461-1.817c.254-1 .625-2.683.825-3.742l.363-1.925 1.734.464c.957.258 1.778.508 1.828.559.094.094-1.207 4.328-1.89 6.148-.215.579-.36 1.086-.32 1.125.038.04.609-.046 1.261-.195.656-.148 1.207-.25 1.227-.223.066.086.441 4.27.386 4.317-.027.027-3.62.945-7.988 2.039a2095 2095 0 0 0-8.293 2.086c-.312.082-.379 0-.531-.7m12.707-30.367a75 75 0 0 0-2.5-2.382l-1.262-1.137-.96 1.191a73 73 0 0 1-2.024 2.38l-1.063 1.19h9.043Zm0 0"/>
    <path fill="red" d="M42.438 110.723c-.04-.203-.16-.922-.27-1.602-.11-.676-.445-2.223-.754-3.437-.305-1.215-.512-2.25-.46-2.301.1-.102 3.097-.969 3.167-.914.211.172 1.617 6 1.723 7.136l.05.563-1.57.457c-.863.254-1.625.46-1.691.465-.067 0-.156-.164-.196-.367m16.305 7.586c-.105-.457-.457-1.395-.777-2.09l-.586-1.258.582-.496c1.144-.98 1.082.11 1.082-18.723v-17h20.508v20.692h-4.215c-3.492 0-4.219.039-4.219.226 0 .125.293 1.07.649 2.094.847 2.433.851 2.441 1.02 2.441.202 0 2.163-1.64 3.51-2.937l1.126-1.086 1.148 1.23a58 58 0 0 1 1.653 1.84l.496.606-1.617 1.21a84 84 0 0 1-2.899 2.07c-.707.47-1.281.919-1.281.997 0 .297 1.508 2.113 2.754 3.316 1.125 1.082 2.96 2.446 3.578 2.653.113.039-.23.523-.793 1.125a23 23 0 0 0-1.8 2.23l-.81 1.18-1.277-.969c-4.254-3.215-7.41-8.644-9.43-16.215l-.535-2.011h-2.437v6.32c0 4.953.043 6.324.207 6.32.113-.004 1.394-.32 2.851-.707l2.645-.707.2 1.817c.105 1 .234 2.011.277 2.246.082.418.035.445-1.684.965-3.59 1.09-7.262 2.347-8.45 2.89a36 36 0 0 1-1.253.563c-.016 0-.117-.375-.223-.832m15.684-25.2v-1.886H64.172V95h10.254Zm0-8.046v-1.887H64.172v3.777h10.254Zm0 0"/>
    <path fill="#f8f8f8" d="M13.066 123.328c0-.527 14.391-88.035 14.512-88.226.184-.297 32.3-22.047 32.555-22.047.12 0 7.496 4.937 16.387 10.972 15.273 10.36 16.175 11 16.285 11.535.066.313 3.254 19.668 7.082 43.016 3.832 23.348 7.062 43.024 7.183 43.723l.22 1.273H60.175c-41.79 0-47.11-.027-47.11-.246m46.887-4.375c1.102-.578 4.313-1.719 7.828-2.785l2.867-.871-.093-.469c-.051-.258-.18-1.332-.282-2.39-.101-1.055-.203-1.938-.226-1.965-.031-.035-4.348 1.062-5.422 1.379-.273.078-.29-.286-.29-6.086v-6.168h2.114l.352 1.355q3.064 11.823 9.55 16.797c.762.582 1.458 1.063 1.544 1.063.085 0 .242-.168.347-.372.34-.652 1.906-2.644 2.715-3.453.434-.433.762-.808.727-.836s-.696-.453-1.47-.953c-1.57-1.004-3.183-2.496-4.35-4.023l-.774-1.012 2.023-1.402c1.114-.774 2.457-1.746 2.985-2.16l.96-.754-.831-.934a174 174 0 0 0-1.813-2.004l-.988-1.066-1.293 1.246c-1.887 1.816-3.188 2.851-3.356 2.68-.12-.122-1.496-3.899-1.496-4.11 0-.035 1.899-.062 4.219-.062h4.219v-21.02h-20.84v7.3l-1.695-1.655c-1.543-1.508-3.442-3.192-4.641-4.118l-.465-.355.352-.684c.195-.379.328-.707.3-.734-.03-.031-1.042-.422-2.25-.871l-2.195-.82-.762 1.175c-1.851 2.852-5.39 6.618-7.87 8.375-.614.434-1.118.825-1.118.864s.215.496.477 1.011c.261.516.754 1.68 1.09 2.582.34.903.644 1.672.683 1.711.035.036.438-.246.89-.629l.829-.69v1.987h3.805v2.957h-6.286v4.926h6.286v10.77l-3.48.636c-1.915.352-3.517.696-3.56.762-.124.203 1.137 5.242 1.317 5.242.207 0 16.7-4.129 16.781-4.199.031-.031-.035-1.094-.148-2.363-.23-2.598-.11-2.445-1.692-2.07-.52.124-.949.16-.949.082 0-.082.113-.43.254-.774.32-.8 2.07-6.324 2.02-6.371-.079-.07-3.98-1.059-4.02-1.016-.02.024-.23 1.04-.469 2.258-.242 1.219-.613 2.883-.832 3.695l-.394 1.477-.016-4.062-.016-4.067h5.954v-4.926h-5.954v-2.957h3.97l.01-1.847c.009-1.016.052-1.754.099-1.64.175.437.539.14 2.046-1.677l1.567-1.879.047 12.676c.027 6.973.004 13.145-.055 13.715-.09.898-.184 1.113-.71 1.656-.333.344-.704.656-.825.696-.16.05-.082.32.289 1.027.281.527.664 1.484.855 2.133.188.644.372 1.27.41 1.39.04.121.126.192.196.164.066-.03.496-.25.95-.488m-13.89-8.71c.207-.208-1.458-7.63-1.782-7.95-.066-.066-1.676.328-3.453.848-.238.07-.215.27.207 1.84a64 64 0 0 1 1.219 5.804l.094.594 1.804-.516c.993-.285 1.852-.562 1.91-.62m-1.805-39.259c1.988-3.582 3.265-8.668 3.707-14.738.101-1.402.222-2.934.27-3.41l.081-.86h5.782l-.086 1.352c-.051.746-.133 2.207-.188 3.246-.12 2.406-.32 3.313-.824 3.781-.387.364-.465.372-2.734.274-1.782-.074-2.313-.05-2.246.098.64 1.43 1.02 2.53 1.242 3.609l.27 1.3 2.894-.062c2.586-.054 2.984-.101 3.722-.433 1.75-.79 2.422-1.922 2.82-4.735.235-1.668.56-8.468.567-11.922l.004-1.601H48.293v-4.598h13.035l.106 1.028c.601 5.656 1.425 10.62 2.402 14.445l.613 2.418-1.586 1.531c-2.16 2.082-4.66 3.969-6.922 5.215-.78.43-.824.512-.425.84.347.285 2.64 2.832 3.226 3.582l.446.566 1.62-1.078c1.755-1.164 3.16-2.258 4.97-3.863l1.144-1.016.816 1.238c.996 1.516 2.703 3.149 3.895 3.727a7.46 7.46 0 0 0 3.945.68c2.77-.297 4.234-1.684 5.129-4.871.262-.922.996-4.836.996-5.297 0-.043-.582-.38-1.297-.746-.71-.368-1.761-1.043-2.328-1.5-.57-.454-1.07-.797-1.105-.762s-.141 1.02-.235 2.187c-.261 3.274-.695 4.989-1.347 5.34-.91.48-2.551-.992-3.735-3.351l-.695-1.391 1.539-2.3a59 59 0 0 0 2.79-4.739c1.862-3.625 3.647-8.145 3.327-8.422-.164-.14-5.351-1.387-5.418-1.3-.023.03-.316.855-.652 1.827-.336.977-.93 2.5-1.324 3.383-.73 1.649-2.246 4.52-2.336 4.426-.028-.031-.282-1.422-.563-3.094-.445-2.629-.722-4.636-1.097-7.922l-.09-.78h14.07v-5.419h-4.5l1.016-1.14 1.02-1.137-.88-.695c-1.215-.965-3.965-2.73-5.472-3.516l-1.262-.656-1.656 1.636c-.914.903-1.606 1.692-1.535 1.754.066.067.984.668 2.039 1.336 1.058.672 2.277 1.489 2.71 1.817l.793.601h-6.613l-.105-1.847a65 65 0 0 1-.11-3.286v-1.437h-5.84l.204 6.57H42.367l-.074 9.813c-.078 10.129-.16 11.468-.863 14.656-.446 2.008-1.395 4.703-2.176 6.16l-.727 1.36 1.313.914c.722.5 1.746 1.32 2.277 1.816s1.04.906 1.133.91c.09.004.543-.68 1.008-1.512m0 0"/>
    <path fill="#f8f8f8" d="M46.09 87.71a48 48 0 0 1 1.293-1.526 70 70 0 0 0 1.492-1.77l.504-.629 4.453 4.305-4.023.004-4.024.008Zm18.246-2.647V83.34h9.922v3.45h-9.922Zm0 8.047v-1.723h9.922v3.449h-9.922Zm-13.231 16.937c0-.328.04-.598.086-.598.293 0 2.063.57 2.063.664 0 .063-.242.157-.535.207-.297.051-.782.145-1.078.207-.528.114-.536.106-.536-.48m0 0"/>
</svg>
