<svg xmlns="http://www.w3.org/2000/svg" width="120" height="120" viewBox="0 0 120 120">
    <path stroke="red" stroke-width=".004" d="M-79-42.238h-1.454v3.759l-.013.313-.039.263-.072.218-.112.179-.156.142-.05.026-.156.084-.242.083-.282.058-.165.02-.142.017-.017.001-.02.003-.345.02-.41.01-.269.003h-.183l-.035-.2-.052-.22-.061-.229-.073-.227-.079-.215-.081-.19-.001-.005.307.013.258.006.049.001.29.005h.256l.093-.002h.111l.136-.008.086-.003.003-.001.065-.012.053-.023.034-.037.02-.053.007-.07v-3.73h-3.14v-1.209h5.88v1.21m-.267-2.943h-5.168v-1.21h5.168v1.21m-6.4-.804-.348.383-.114.127-.416.418-.08.08-.517.476-.524.437-.396.297-.021.014-.047.036-.025.02-.014.009-.01.008-.09-.156-.11-.183-.123-.192-.13-.192-.126-.173-.094-.115-.024-.03.448-.31.032-.026.42-.336.44-.396.409-.41.36-.409.295-.392.036.016.42.175.761.317-.412.507m-.12 3.14-.21.266v5.58h-1.264v-4.177l-.149.144-.076.072-.071.067-.147.134-.144.13-.143.126-.13.11-.007.007-.006.003v.001l-.11-.152-.138-.188-.157-.208-.022-.03-.14-.179-.1-.122-.056-.068-.042-.045-.065-.071-.035-.038.547-.416.545-.483.526-.534.078-.092.413-.48.44-.596.376-.605.057.022h.002l.018.008 1.14.44-.166.275-.177.275-.187.276-.196.276-.203.272m6.786-6.62-.015.312v.001l-.052.26-.09.216-.138.178-.185.142-.24.112-.292.081-.338.06-.387.037-.438.022-.491.011-.253.001-.11.001h-.183l-.05-.189-.077-.21-.09-.219-.102-.215-.105-.203-.05-.085-.05-.084-.006-.008.416.018.407.01h.01l.391.004h.345l.279-.001.184-.001.11-.008.085-.021.064-.034.043-.05.025-.07.008-.091v-.84h-5.823l-.172.437-.221.424-.21.315-.062.091-.324.383-.386.355-.288.21-.07.051-.036.025-.025.02-.015.01-.01.007-.117-.139-.157-.16-.18-.169-.188-.162-.182-.141-.158-.107.343-.274.372-.297.5-.632.326-.67.185-.69.083-.685.02-.66v-1.58l-.098.08-.1.075-.102.075-.104.074-.018.013-.085.06-.048.034-.047.03-.011.009-.124-.157-.155-.17-.177-.173-.183-.164-.18-.143-.162-.109.679-.464.024-.015.621-.517.543-.539.367-.436.097-.114.301-.427.02-.03.066-.092.31-.534 1.485.237-.037.065-.039.067-.077.131-.04.064-.042.062h2.307l.219-.047.041.024.089.053.818.48-.038.061-.098.152-.147.214-.157.223-.164.222-.17.223-.133.167-.041.052h2.96v6.084m-6.902-2.115-.027.169h2.098v-1.008h-2.005l-.01.165-.01.168-.01.168-.015.169-.02.169M-74.953-48l-.047-.29-1.382-8.48v-.032h-.007L-79-58.588l-5-3.415-5 3.415-2.61 1.785h-.007v.031L-93-48.292l-2.003 12.294h22.007L-73.16-37l-1.792-11M-97-34l3.8-22.803L-93-58l7.52-5.014L-84-64l7.226 4.816L-75-58l.2 1.197 3.8 22.802h-26m11.25-21.676-.121.127h2.4l.093-.121.094-.13.095-.134.092-.137.088-.136.083-.136H-85.2l-.105.135-.108.135-.11.133-.112.133-.115.131m3.235 2.196h2.14v-.962h-2.14v.962m2.14 2.069v-1.008h-2.14v1.008h2.14m-5.454-3.031v.962h1.997v-.962Zm0 0" transform="matrix(3.78963 0 0 3.7628 378.443 244.582)"/>
    <path fill="#f9f9f9" d="M18.613 108.45c.051-.305 2.934-17.868 6.407-39.032 3.472-21.16 6.34-38.496 6.37-38.527.258-.239 28.583-19.387 28.696-19.395.191-.023 28.73 19.332 28.805 19.531.078.23 12.734 77.473 12.734 77.739 0 .218-3.488.238-41.55.238H18.52ZM52.551 95V84.55l1.324-1.757c1.367-1.816 3.004-4.293 3.004-4.547 0-.14-4.23-1.828-4.57-1.824-.094 0-.496.52-.887 1.148-2.188 3.512-5.715 7.34-9.203 9.989l-1.16.882.457.547c.25.293 1.004 1.258 1.672 2.133.667.879 1.257 1.59 1.304 1.59.051 0 .778-.637 1.613-1.414l1.524-1.422v15.578h4.922Zm17.02 9.95c2.07-.395 3.034-.99 3.59-2.208l.35-.773.04-8.11.047-8.105h5.507v-4.738H56.73v4.738h11.942l-.043 7.101c-.031 5.606-.082 7.141-.234 7.297-.149.145-.954.188-3.32.184-1.72 0-3.126.008-3.126.02 0 .007.262.808.586 1.777.32.972.63 2.09.688 2.488l.109.727 2.555-.094c1.402-.047 3.062-.184 3.683-.305M45.214 79.644c1.793-1.317 3.613-2.915 5.781-5.067 2.16-2.14 4.39-4.64 4.39-4.914 0-.11-4.394-1.988-4.64-1.98-.047 0-.465.488-.926 1.086-1.21 1.566-4.687 4.875-6.613 6.296l-1.664 1.227.82 1.14c.453.626.996 1.438 1.207 1.801.422.739.633 1.04.73 1.04.036 0 .446-.282.915-.63m32.848-7.368v-2.37H58.37v4.738h19.691Zm-32.114-8.953c2.45-1.773 4.559-4.535 5.633-7.379l.266-.703h21.894l-.082 3.778-.52.187c-.398.145-1.464.168-4.44.105l-3.915-.09.668 1.305c.367.72.832 1.774 1.031 2.344.442 1.258.153 1.191 4.399.973 5.148-.266 6.722-.79 7.71-2.567l.434-.777.043-12.473.043-12.476-5.539-.04-5.535-.042.594-.739c.82-1.023 2.867-3.933 2.867-4.078 0-.066-.777-.566-1.727-1.113l-1.722-.992-9.57.055.406-.688c.222-.379.383-.707.355-.727-.027-.023-1.226-.222-2.66-.445-1.437-.219-2.719-.433-2.855-.469-.176-.046-.387.18-.727.786-2.09 3.703-5.422 7.246-9.516 10.109-.843.594-1.515 1.094-1.492 1.113.024.024.446.352.942.735a20 20 0 0 1 1.882 1.754l.993 1.054 1.062-.77c.586-.425 1.106-.769 1.16-.769.149 0-.07 8.23-.254 9.555-.578 4.148-2.308 7.277-5.375 9.707l-1.375 1.086.5.379c.996.754 2.493 2.074 2.84 2.508.196.246.426.449.512.453s.566-.29 1.07-.649m0 0"/>
    <path fill="#f9f9f9" d="M65.828 49.246v-1.851h7.906v3.703h-7.906Zm-12.875 1.516c.035-.18.11-1 .168-1.813l.102-1.48 3.691-.043 3.691-.04v3.712h-7.71Zm.347-9.219V39.84h7.305v3.406h-7.304Zm12.528 0V39.84h7.906v3.406h-7.906Zm-12.351-6.262c.109-.144.652-.812 1.214-1.484l1.02-1.215h4.172c3.297 0 4.148.04 4.062.188a62 62 0 0 1-.992 1.48l-.887 1.297h-4.394c-4.192 0-4.383-.016-4.195-.266m0 0"/>
</svg>
