<svg xmlns="http://www.w3.org/2000/svg" width="120" height="120" viewBox="0 0 120 136">
    <path stroke="red" stroke-width=".004" d="M-42-35.403h4.277v-3.065h-3.236v-1.411h3.236v-2.701h-3.752V-44h8.91v1.42h-3.775v2.701h3.346v1.41h-3.346v3.066H-32V-34h-10v-1.403M-38.866-33v10H-40.1v-3.39l-.216.184-.213.182-.132.112-.007.006-.001.001-.003.002-.068.057-.208.173-.013.01-.192.156-.188.148-.01.007-.005.005-.405-.719-.19-.337-.003-.005-.004-.009-.002-.003-.007-.012-.004-.007-.005-.009-.002-.004h.001v-.001l.05-.035.195-.136.008-.006.287-.206.311-.231.165-.125.08-.06.086-.065.134-.104.161-.124.02-.015.026-.02.002-.002.352-.274v-1.73l-.553.45-.008.008-.005.005-.154-.253-.141-.203-.057-.082-.229-.304-.248-.31-.255-.3-.008-.01-.243-.268.002-.002.882-.694.156.16.012.013.174.183.114.123.062.068.174.195.075.087.093.107.024.029.133.163V-33h1.233m5.08 0 .125.232.073.136.02.038.114.21.254.473-.007.003-.247.09-.114.042-.139.051-.252.089-.25.084-.252.08-.08.025-.059.017-.112.033-.104.03-.384.107-.245.07h-.004l-.167.037-.633.14-.02.004-.333.063-.04.007-.07.012-.088.014-.064.01-.161.028-.076.01-.295.04-.111.013-.157.018-.092.01-.132.01-.213.016-.03.002-.241.01h-.043l-.01.001h-.007l-.001-.018-.009-.158-.02-.203v-.005l-.002-.014-.028-.227-.035-.236v-.002l-.007-.039-.017-.097-.01-.067-.003-.015-.003-.015-.002-.01-.005-.026-.01-.053-.003-.014-.006-.03-.007-.037h.046l.05-.001h.07l.329-.002.156-.001.065-.001.22-.022.521-.053.025-.002.009-.001.245-.044.064-.01.087-.017.338-.06.08-.014h.004l.675-.165.007-.002.152-.038.084-.026.173-.052.363-.11.02-.006.185-.056.011-.004h.002l.003-.001.016-.006.174-.063.476-.173.163-.059m-10.831-9.772L-46-34.292l-.248 1.524-1.755 10.77h22.006L-26.16-23l-1.591-9.768-.248-1.523-1.382-8.48v-.032h-.007L-32-44.587l-5-3.416-5 3.416-2.61 1.784h-.008v.031M-28-44l.2 1.197 1.672 10.035 1.795 10.77L-24-20h-26l2.128-12.768 1.672-10.035L-46-44l1.775-1.183 5.745-3.831h.001L-37-50l9 6m-4.315 13.416-.058.122-.179.351-.216.345-.016.026-.03.044-.094.133-.004.005-.122.165-.13.162-.134.153-.074.078-.063.066-.012.012-.057.054h.34v1.04H-32v1.168h-1.164v2.316l-.01.279-.037.238-.067.199-.093.15-.01.015-.147.134-.04.022-.155.083-.07.022-.163.054-.264.055-.297.036-.075.005-.224.014-.031.002-.363.01-.354.003h-.044l-.008-.045-.025-.14-.052-.202-.002-.006-.02-.062-.024-.074-.006-.021-.015-.047-.077-.208-.003-.007-.04-.093-.042-.098h-.001l-.018-.038-.03-.056-.032-.069-.003-.005-.004-.008-.001-.003H-36l.159.004.113.003h.015l.096.002.165.002.14.002.06.001h.057l.226.001.152.001h.155l.07-.004h.008l.056-.01.042-.023.019-.022.009-.01.015-.048.006-.06v-2.294h-2.436l.008.009.023.027.12.136.008.01.09.103.093.113.158.195.192.253.041.054.001.002.008.01.104.148.056.08.04.056.022.032.19.303.102.189.047.087-.047.026-.454.25-.14.078-.107.059-.035.02-.045.024-.093.052-.035.02-.005.002-.009.005-.056.03-.04.023h-.002l-.001.002h-.002l-.025.015-.02.011-.028-.06-.068-.144-.038-.082-.03-.054-.015-.027-.131-.235-.211-.334-.201-.292-.032-.046-.007-.01-.218-.29-.02-.028h-.002l-.249-.305.015-.008.024-.012.002-.002.004-.002.042-.022.184-.094.398-.205.263-.136.07-.036h-1.584v-1.167h4.08v-1.04h.672l-.027-.01-.085-.03-.006-.001-.188-.06-.106-.032-.087-.026-.033-.01h-.003l-.004-.001-.001-.001-.14-.041-.147-.04-.008-.003.002-.001.002-.003.008-.007.03-.026.028-.025.223-.195.03-.025.001-.002.137-.154.121-.136.033-.037.236-.33.026-.035.003-.005.152-.262.031-.053.041-.071.001-.002.044-.093.064-.136.076-.164.007-.015.121-.335.03-.082.042.004.343.032.228.022.469.044-.045.13-.046.126-.048.127-.05.124-.055.123m-3.057.193.003.006.039.092.07.168.104.27.052.16.011.032.024.073.01.035.057.213.01.05.03.157.001.013-.416.05-.189.022-.274.034-.029.003-.009.001-.008.001-.005.001-.04.005-.035.004h-.002l-.008.001-.02.003-.02.002v-.006l-.02-.183-.005-.033-.052-.253-.023-.085-.038-.14-.013-.048-.09-.28-.003-.01-.099-.265-.002-.005-.04-.093-.073-.171h.014l.021-.003h.007l.017-.002.014-.001.009-.001.05-.005.502-.046.342-.03.037.076.084.178.005.01M-36.8-28.92l-.064.014-.533.112-.267.057-.03.006h-.002l-.007.001-.052.011-.037.008h-.001l-.027.006h-.001l-.018.004v-.004l-.002-.006-.043-.21-.004-.012-.07-.234-.097-.266-.054-.128-.058-.136-.003-.008-.003-.008-.003-.007-.122-.254-.135-.253.013-.002.026-.005.024-.004.706-.128.196-.035.14.24.002.002.002.004.002.003.002.004.05.094.086.161.094.196.024.05.008.016.03.07.05.114.03.07.07.192.014.039.004.01zm0 0" transform="matrix(4.29492 0 0 4.26451 219.04 217.49)"/>
    <path fill="#f9f9f9" d="M13.066 123.328c0-.531 14.391-88.035 14.512-88.226.102-.164 11.621-8.02 29.492-20.11l3.07-2.078L76.255 23.84c8.863 6.008 16.203 11.012 16.312 11.113.114.106 3.332 19.293 7.32 43.625 3.919 23.89 7.188 43.785 7.266 44.215l.141.781H60.18c-41.793 0-47.114-.027-47.114-.246M52.262 98.04V76.605h-5.457v10.918l-.778-.902a67 67 0 0 0-2.191-2.34l-1.414-1.437-1.82 1.41c-1 .777-1.88 1.473-1.957 1.547-.079.07.242.547.703 1.054 1.25 1.372 3.3 3.957 4.203 5.313.441.652.836 1.187.883 1.187.046 0 .468-.316.937-.703.473-.386.984-.8 1.145-.922.273-.207.289-.027.289 3.313v3.531l-2.356 1.805a200 200 0 0 1-4.011 2.988c-.91.653-1.676 1.238-1.7 1.309-.062.164 2.512 4.66 2.703 4.722.086.032 1.309-.902 2.72-2.074l2.562-2.125.043 7.137.043 7.133h5.453Zm19.433 21.086c3.27-.445 4.524-1.465 4.887-3.96.082-.571.152-3.345.156-6.165v-5.133h4.965v-5.09h-4.965v-4.433h-1.363l.645-.7c1.546-1.675 3.289-4.277 4.207-6.28.632-1.384 1.171-2.9 1.07-3.005-.043-.039-.73-.132-1.531-.21-.801-.075-1.836-.176-2.301-.227l-.848-.086-.539 1.352c-1.125 2.84-2.957 5.585-4.824 7.242l-1.008.89 1.55.493 1.552.496-1.114.015-1.117.02v4.433H53.586v5.09l3.184.004 3.183.008-1.941 1.02c-1.067.562-1.942 1.062-1.942 1.117-.004.05.41.605.914 1.23 1.258 1.563 2.887 3.996 3.727 5.57.387.723.723 1.34.746 1.371.05.067 4.117-2.136 4.605-2.492.301-.218.29-.27-.277-1.277-.773-1.371-2.402-3.633-3.71-5.156-.575-.672-1.048-1.258-1.048-1.305 0-.05 2.27-.09 5.047-.09h5.043v4.856c0 3.03-.066 4.972-.172 5.172-.16.296-.375.32-3.406.32-3.023 0-3.23.015-3.113.285.59 1.355 1.258 3.242 1.426 4.008l.199.93 2.242-.079c1.234-.043 2.766-.148 3.402-.234m-12.847-24.41 2.203-.453-.098-.516c-.133-.7-.797-2.293-1.66-3.992-1.133-2.219-.828-2.067-3.234-1.64-1.133.198-2.082.382-2.114.406-.027.023.285.738.7 1.593.75 1.547 1.753 4.29 1.753 4.79 0 .331-.136.343 2.45-.188m7.644-1.028c2.645-.312 2.524-.261 2.399-.957-.164-.898-1.145-3.73-1.739-5.011-.449-.977-.566-1.114-.882-1.04-.2.048-1.125.137-2.063.2-.934.066-1.734.176-1.781.25-.043.07.152.707.433 1.41.586 1.469 1.309 4.043 1.313 4.668 0 .727.074.742 2.32.48m-9.574-7.398c3.863-.383 8.45-1.281 12.57-2.465 2.707-.777 7.09-2.281 7.075-2.43-.04-.32-2.598-4.699-2.727-4.667-.086.02-1.457.48-3.05 1.02-5.95 2.019-11.606 3.128-15.919 3.128-1.328 0-1.613.047-1.613.25 0 .137.105.93.238 1.766.13.836.285 1.98.348 2.543l.11 1.027h.628c.344 0 1.399-.078 2.34-.172m24.785-16.824v-3.04H63.012V53.454h14.39v-6.078h-14.39V36.047h16.21v-6.242h-38.37v6.242h16.043v11.328H43v6.078h13.895v12.973h-18.36V72.5h43.168Zm0 0"/>
</svg>
