<svg xmlns="http://www.w3.org/2000/svg" width="120" height="120" viewBox="0 0 120 120">
    <path stroke="red" stroke-width=".004" d="M-51.317 21.018h-4.076v.524h3.251v4.292h-3.251v.577h4.392v1.148h-4.392V29h-1.341v-1.44H-61v-1.15h4.266v-.577h-3.173v-4.292h3.173v-.524h-4.004V19.87h4.004V19h1.341v.871h4.076v1.147m.118-9.463h-2.553l.504.287.022.014.516.307.2.125.294.184.458.303.41.289.347.268-.702.92-.028.037-.018.025-.435-.366-.376-.282-.156-.117-.532-.369-.07-.049-.647-.42-.666-.407-.027-.016-.63-.362v1.53h-1.316v-1.53l-.35.344-.021.018-.352.309-.017.012-.376.295-.414.289-.429.267-.442.242h6.445v4.283h-1.33v-.317h-3.998V18h-1.27v-4.227l-.162.079-.072.033-.091.043-.162.07-.163.066-.166.062-.025.008-.07.023-.035.012-.022.008-.01.002-.008.003-.11-.166-.136-.19-.15-.2-.157-.196-.157-.18-.065-.066-.054-.056L-61 13.1l.567-.178.56-.215.48-.22.065-.03.32-.17.203-.106.493-.303.453-.323h-2.813V10.41h4.068v-.749l-.485.039-.255.018-.228.017-.48.03-.478.024-.473.02-.348.01-.037.002h-.026l-.029.001-.015.001h-.013l-.025-.17-.04-.188-.053-.196-.023-.073-.038-.12-.064-.182-.03-.079-.024-.056-.009-.026 1.183-.056 1.197-.084.053-.005 1.122-.106.933-.113.182-.023.968-.155.046-.007.876-.185.168.192.726.829-.453.105-.342.071-.13.027h-.002l-.49.088-.505.081-.517.072-.527.064v.882h4.09v1.144M-46.952 18l-.048-.29-1.382-8.48v-.032h-.007L-51 7.412l-5-3.415-5 3.415-2.61 1.785h-.007v.031L-65 17.708l-2.003 12.294h22.007L-45.16 29l-1.792-11M-69 32l3.8-22.803L-65 8l7.52-5.014L-56 2l7.226 4.816L-47 8l.2 1.197 3.8 22.802h-26m11.656-7.837h-1.31v.655h1.92v-.655h-.61m3.878 0h-1.927v.655h1.927v-.655m-3.268-1.61h-1.92v.654h1.92v-.654m3.268 0h-1.927v.654h1.927v-.654m-.424-7.89h-3.998v.587h3.998v-.587m0 1.452h-3.998v.595h3.998Zm0 0" transform="matrix(3.78963 0 0 3.7628 272.333 -3.763)"/>
    <path fill="#f9f9f9" d="M18.613 108.45c.051-.305 2.934-17.868 6.407-39.032 3.472-21.16 6.34-38.496 6.37-38.527.258-.239 28.583-19.387 28.696-19.395.191-.023 28.73 19.332 28.805 19.531.082.23 12.734 77.47 12.734 77.739 0 .218-3.406.238-41.55.238H18.52Zm43.934-5.74v-2.737h16.558v-4.446H62.547v-2.074H74.78V77.164H62.547v-1.777H77.91V70.94H62.547v-3.257h-5.223v3.257h-15.21v4.446h15.21v1.777H45.246v16.29h12.078v2.073H41.066v4.446h16.258v5.48h5.223ZM53 63.388v-.59h15.066v1.183h5.22v-7.996c0-4.398.042-8 .097-8 .05 0 .57.387 1.152.852.578.469 1.203.973 1.383 1.113.328.262.336.25 1.758-1.582.785-1.012 1.426-1.898 1.426-1.965-.004-.324-4.497-3.34-8.016-5.382l-2.031-1.18h9.3v-4.442H62.844v-3.214l1.976-.258c3.973-.512 9.145-1.5 9.207-1.762.02-.062-.73-.98-1.656-2.035-1.094-1.242-1.766-1.89-1.914-1.848-.129.035-.875.2-1.664.364-4.938 1.039-12.313 1.84-21.36 2.32-1.558.082-1.75.12-1.66.34.348.847.825 2.386.973 3.14l.176.875 1.586-.082c3.219-.16 6.84-.363 8.035-.457l1.23-.093v2.71h-15.52l.083 4.372 5.14.07 5.141.078-.793.559c-2.195 1.57-6.195 3.52-9.297 4.539l-1.445.472 1.195 1.434c.657.789 1.375 1.719 1.594 2.062.223.348.516.63.652.63.2 0 1.606-.536 3.368-1.286.148-.062.187 1.55.187 7.79v7.862H53Zm0 0"/>
    <path fill="#f9f9f9" d="M53 52.504v-.961h15.066v1.922H53Zm0 5.551v-1.032h15.066v2.07H53Zm-2.832 24.293v-1.184h7.156v2.367h-7.156Zm12.379 0v-1.184h7.16v2.367h-7.16Zm0 6.07v-1.184h7.16v2.371h-7.16Zm-12.379 0v-1.184h7.156v2.371h-7.156Zm.297-41.48c2.512-1.485 4.422-2.91 6.226-4.633l1.082-1.035v5.68h5.07v-2.83c0-2.27.044-2.816.196-2.758.785.301 8.328 5.035 9.633 6.051.351.27.098.273-11.559.273H49.2Zm0 0"/>
</svg>
