<svg xmlns="http://www.w3.org/2000/svg" width="120" height="120" viewBox="0 0 120 136">
    <path fill="none" stroke="red" stroke-width=".004" d="m-42.002 32.406-.003.101-.003.116-.004.115-.001.03-.003.07-.042.62-.03.438-.077.854-.008.066-.08.604-.101.507-.121.363-.144.24-.118.126-.122.1-.13.075-.08.033-.055.023-.148.04-.16.03-.168.018-.194.013-.216.01-.235.002-.25-.003-.261-.008-.014-.125-.008-.074-.04-.211-.054-.217-.07-.213-.082-.2-.032-.064-.035-.068-.026-.05.06.004.153.013h.004l.023.001.176.013.187.01.094.002.073.002h.14l.108-.006h.067l.017-.001.071-.005.063-.012.056-.02.052-.034.05-.048.072-.129.067-.209.051-.246.012-.057.034-.229.025-.178.055-.525.052-.655h-7.235V27h7.8v1.134h-3.274v.7h2.89v1.045h-2.89v.7h2.89V31.6h-2.89v.708H-42l-.001.027v.038l-.001.033m-.127-12.88v1.17h-5.922v-1.17h2.269v-1.101h-1.952v-1.147h1.952v-1.21h1.293v1.21h1.93v1.147h-1.93v1.1h2.36m-6.02-.346h-1.143v.347l.14.203.041.06.23.348.218.343.028.043.237.375.196.318.128.211-.706.847-.005.006-.008.008-.004.006-.003.003-.06-.16-.07-.18-.082-.194-.089-.203-.05-.114-.044-.095-.097-.209V26h-1.135v-4.134l-.144.428-.088.234-.067.178-.162.39-.17.363-.177.33-.114.185-.028.045-.016.023-.01.016-.008.015-.007.01-.068-.195-.089-.22-.103-.233-.109-.232-.109-.217-.104-.188.18-.27.13-.195.293-.554.27-.617.243-.656.009-.026.2-.643.173-.658h-1.173v-1.177h1.248V16h1.135v1.994h1.142v1.185m5.742 2.833v1.17h-2.08v1.263H-42v1.201h-6.543v-1.2h2.76v-1.264h-2.08v-1.17h2.08v-.993h1.294v.993h2.081m-12.21-4.784L-56 25.708l-1.15 7.06-.853 5.234h22.006L-36.16 37l-.689-4.232-1.15-7.06-1.382-8.48v-.03h-.007L-42 15.412l-5-3.416-5 3.416-2.61 1.784h-.008v.031M-38 16l.2 1.197 2.594 15.571.873 5.234L-34 40h-26l1.206-7.232 2.594-15.57L-56 16l1.775-1.183 5.745-3.831h.001L-47 10l9 6m-6.158 18.771.02.045.094.21.012.034.074.2-.074.028-.909.338-.01.004-.079-.232-.026-.066-.077-.196-.125-.28-.02-.04-.12-.245-.15-.28-.156-.262.648-.224.284-.098.165.253.16.268.153.274.136.27m-3.277-.55.015-.004.988-.253.14.333.134.355.056.163.068.199.108.355.085.333v.002l.059.294-.99.262-.033.009-.027.007-.015.004-.047-.288-.073-.332-.095-.358-.042-.139-.07-.231-.04-.117-.086-.249-.135-.345m-.675.233.087.361.009.038.08.405.066.396.047.372.026.334-1.022.178-.055.01-.032.006-.026.004-.016.003-.018-.335-.039-.376-.056-.4-.07-.411-.023-.111-.024-.113-.037-.18-.093-.382.013-.002.141-.023.934-.152.108.378m-2.48-.64.884.254-.115.545-.054.202-.088.33-.175.507-.219.472-.271.425-.283.314-.047.052-.081-.052-.702-.45-.118-.075-.089-.056-.052-.034.289-.32.248-.372.21-.412.125-.329.045-.117.135-.47.099-.489.26.074m3.24-5.68h-1.965v.7h1.966v-.7m0 3.466h-1.966v.708h1.966V31.6m0-1.72h-1.966v.699h1.966Zm0 0" transform="matrix(4.29492 0 0 4.26451 261.99 -38.38)"/>
    <path d="M4.46 131.988c0-.066 3.849-23.058 8.552-51.09l8.55-50.968L60.118 4.406l19.16 12.684c10.54 6.976 19.227 12.746 19.305 12.824.125.125 17.191 101.332 17.191 101.953 0 .219-6.195.246-55.656.246-30.61 0-55.652-.054-55.656-.125m102.974-8.703c-.055-.246-3.34-20.219-7.301-44.379-4.024-24.515-7.293-44.008-7.403-44.113-.19-.176-31.613-21.488-32.296-21.902-.317-.192-1.711.714-16.746 10.918-9.02 6.117-16.399 11.195-16.399 11.285 0 .207-14.36 87.789-14.473 88.273l-.086.371h94.797Zm0 0"/>
    <path d="m45.441 63.512-.043-8.828-.632 1.773c-1.172 3.277-3.27 7.617-3.586 7.422-.063-.04-.25-.422-.41-.856-.165-.433-.66-1.527-1.102-2.433-.441-.91-.8-1.707-.8-1.778 0-.066.284-.542.636-1.058 1.3-1.899 3.066-5.754 4.187-9.145.52-1.57 1.461-4.906 1.461-5.175 0-.098-.965-.164-2.48-.164h-2.484v-4.762h5.292v-8.54h4.797v8.54h4.797v4.762h-4.797v.93c0 .718.09 1.046.387 1.437.469.617 2.484 3.726 3.773 5.82l.946 1.54-1.43 1.702c-.789.938-1.48 1.649-1.539 1.582-.062-.066-.547-1.144-1.082-2.402l-.973-2.281-.043 10.37-.039 10.368h-4.793Zm10.293-16.137v-2.46h9.758v-4.763H57.06v-4.761h8.433v-5.094h5.293v5.094h8.27v4.761h-8.27v4.762H81.04v4.926H55.734Zm-2.148 21.02v-2.461h11.906v-5.582h-8.93v-4.766h8.93v-4.27h5.293v4.27h8.934v4.766h-8.934v5.582h10.75v4.925h-27.95Zm16.144 49.988c-.09-.797-.671-2.719-1.156-3.84-.094-.215.211-.242 2.305-.191q2.407.058 2.883-.137c1.011-.418 1.465-2.403 2.054-8.992l.09-1.028H44.82V76.77h33.243v4.765h-14.06v3.117H76.41v4.27H64.004v3.121H76.41v4.27H64.004v3.12h17.531v.536c-.012 2.672-.777 10.793-1.262 13.34-.46 2.46-.843 3.351-1.863 4.359-1.316 1.293-1.996 1.484-5.656 1.594l-2.914.086ZM58.71 97.875v-1.562h-8.597v3.12h8.598Zm0-7.39v-1.563h-8.597v3.121h8.598Zm0-7.391v-1.559h-8.597v3.117h8.598ZM40.96 117.55l-2.124-1.378.562-.617c1.747-1.918 3.192-4.993 3.938-8.375.164-.754.336-1.407.375-1.446.102-.101 4.289 1.086 4.492 1.27.203.191-.414 2.973-1.152 5.183-.856 2.555-1.844 4.372-3.223 5.915l-.746.828Zm0 0"/>
    <path d="M51.762 116.473c-.004-1.192-.383-3.907-.899-6.43-.238-1.164-.386-2.16-.332-2.215.055-.055 1.055-.254 2.223-.441l2.121-.336.508 2.062c.59 2.395.969 4.524 1.117 6.266l.105 1.23-2.066.364c-2.91.507-2.773.535-2.777-.5m8.933-1.235c-.437-2.172-1.812-6.758-2.218-7.41-.055-.086.144-.234.441-.328.773-.242 3.207-.84 3.426-.84.539 0 3.14 7.969 2.726 8.36-.125.117-3.816 1.164-4.105 1.164-.043 0-.164-.426-.27-.946m7.864-3.035c-.254-.656-.946-2.137-1.54-3.289-.593-1.152-1.046-2.121-1.011-2.148s.875-.329 1.863-.672c1.461-.504 1.824-.578 1.945-.399.809 1.235 2.246 3.836 2.707 4.903l.57 1.328-.366.136c-.204.075-1.098.403-1.985.731-.89.328-1.64.598-1.672.598-.027 0-.257-.536-.511-1.188m0 0"/>
    <path fill="#f8f8f8" d="M13.066 123.328c0-.527 14.391-88.035 14.512-88.226.184-.297 32.3-22.047 32.555-22.047.195 0 31.965 21.449 32.433 21.898.114.106 3.336 19.313 7.32 43.625 3.919 23.89 7.188 43.785 7.266 44.215l.141.781H60.18c-41.692 0-47.114-.027-47.114-.246m62.375-4.039c1.442-.223 2.106-.492 2.883-1.168 1.555-1.355 2.164-3.457 2.793-9.656.168-1.645.582-7.621.582-8.414l.004-.781H64.172v-2.793h12.402v-4.598H64.172v-2.793h12.402v-4.598H64.172V81.7h14.055v-5.094h-33.57v27.754h31.058l-.063.618c-.039.335-.187 1.796-.332 3.238-.406 4.004-.937 5.715-1.84 5.941-.226.055-1.52.067-2.875.024s-2.464-.063-2.464-.043.183.441.414.933c.468 1.016 1.074 3.235 1.074 3.93v.469h2.324c1.277 0 2.848-.082 3.488-.18m-31.406-1.086c1.649-1.851 2.89-4.508 3.836-8.176.3-1.175.59-2.37.645-2.66.109-.59.433-.441-3.364-1.527l-1.574-.445-.45 1.82c-.917 3.71-2.245 6.46-3.987 8.265-.368.383-.633.727-.594.762.277.25 4.555 2.89 4.633 2.856.054-.024.437-.426.855-.895m10.524-1.058 2.214-.372-.101-1.402c-.168-2.308-1.352-8.058-1.73-8.406-.114-.102-4.594.555-4.735.695-.039.035.074.656.246 1.38.484 2.01.957 4.956 1.07 6.667.125 1.871.164 2 .532 1.895.16-.047 1.285-.25 2.504-.457m8.714-1.36c1.145-.308 2.114-.59 2.149-.625.094-.094-.54-2.656-1.027-4.148-.403-1.239-1.704-4.684-1.766-4.68-.176.004-4.3 1.148-4.363 1.211-.047.043.117.61.363 1.25.738 1.918 1.676 5.203 1.976 6.937.067.38.2.618.344.618.13 0 1.176-.254 2.324-.563m9.043-3.375c.524-.195.95-.441.95-.55-.004-.7-3.246-6.516-3.637-6.516-.234 0-3.692 1.176-3.844 1.308-.07.055.422 1.172 1.09 2.477s1.39 2.867 1.605 3.465l.391 1.094 1.246-.461c.688-.254 1.676-.622 2.2-.817M50.484 62.48l.043-10.02.907 2.142c.5 1.175.964 2.117 1.03 2.093.173-.058 3.106-3.582 3.106-3.73 0-.153-2.793-4.594-4.148-6.594-.836-1.234-.98-1.555-.98-2.191v-.746h4.796v-5.09h-4.797v-8.54h-5.125v8.54h-5.293v5.09h2.48c1.368 0 2.481.027 2.481.054 0 .239-1.57 5.403-1.964 6.465-1.215 3.274-2.625 6.176-3.848 7.934l-.629.906.82 1.625c.453.895 1.04 2.184 1.305 2.863l.48 1.239.516-.813c.8-1.25 1.926-3.617 2.824-5.934l.817-2.105.004 8.418.007 8.414h5.125Zm31.22 5.915V65.77h-10.75v-5.254h8.929v-5.094h-8.93v-4.27h-5.625v4.27h-8.93v5.094h8.93v5.254H53.422v5.253h28.281Zm-.497-21.02V44.75H70.953v-4.434h8.27v-5.093h-8.27v-5.09h-5.625v5.09h-8.433v5.093h8.433v4.434H55.57v5.254h25.637Zm0 0"/>
    <path fill="#f8f8f8" d="M50.277 83.094v-1.395h8.27v2.79h-8.27Zm0 7.39v-1.398h8.27v2.793h-8.27Zm0 7.391v-1.398h8.27v2.793h-8.27Zm0 0"/>
</svg>
