<svg xmlns="http://www.w3.org/2000/svg" width="120" height="120" viewBox="0 0 120 120">
    <path stroke="red" stroke-width=".004" d="m3.937 20.18-.867.138-.928.12-.972.104-.997.088-.173.012-.832.06-.996.057v1.103h6.222v1.189h-1.74v1.89H5v1.203H-5v-1.203h1.844v-5.293l1.131-.057.198-.014.952-.064.876-.076.26-.023 1.088-.12 1.013-.137.906-.157.67 1.18m1.038 7.817-.879.81-.144.133-.015.015-.403-.275-.012-.008-.485-.302-.557-.329-.587-.332-.58-.322-.55-.293.007-.006.954-.835.535.254.583.29.597.308.578.313.08.046.443.256.435.277m-6.825-1.775.03.021 1.119.797-.483.353-.54.357-.577.351-.594.332-.463.24-.128.065-.568.262-.042-.048-.084-.096-.147-.164-.161-.172-.167-.172-.163-.159-.122-.112-.028-.026.56-.238.312-.155.267-.133.57-.32.537-.334.478-.333.394-.316m6.594-11.78.255.36-.903.576-.164.104-.046.03-.01.006-.012.007-.009.008-.008.004-.084-.138-.096-.146-.108-.148-.117-.153-.096-.12-.03-.038-.128-.161-.76.946-.38.31-.551.45-.085.045-1.017.552-1.263.461-1.421.347-1.35.219-.088.014-.06.01-.038.006-.026.005-.011.002-.076-.208-.092-.22-.109-.22-.12-.215-.126-.2-.035-.05-.067-.09-.028-.04.96-.101.908-.137.648-.135.202-.042.79-.222.276-.104.45-.168.28-.14.375-.187H-.73v-3.166h-4.236v-1.204h1.485V8.718h1.336v2.433h1.478V8H.684v1.011h3.178v1.142H.684v.997h4.26v1.204H.58v3.044l.263-.184.245-.195.231-.207.213-.223.196-.236.013-.018.167-.236.642.236.558.205-.18-.205-.033-.038-.222-.238-.228-.236-.23-.228-.228-.22-.221-.21 1.072-.65.399.35.409.383.402.4.048.053.324.35.324.39m-7.685-1.84.04.011 1.327.4-.311.478-.352.469-.317.376-.064.075-.4.422-.405.381-.393.324-.007.006-.156-.129-.117-.086-.077-.058-.215-.152-.22-.145-.21-.13-.08-.045-.067-.038-.002-.002L-5 14.74l.033-.023.366-.26.39-.324.115-.112.254-.246.341-.38.303-.394.257-.4M9.048 18 9 17.71 7.618 9.23v-.032h-.007L5 7.412 0 3.997l-5 3.415-2.61 1.785h-.007v.031L-9 17.708l-2.003 12.294h22.007L10.84 29 9.048 18M-13 32l3.8-22.803L-9 8l7.52-5.014L0 2l7.226 4.816L9 8l.2 1.197L13 31.999h-26m14.315-7.423V23.05h-3.143v1.89h3.143Zm0 0" transform="matrix(3.78963 0 0 3.7628 60.114 -3.763)"/>
    <path fill="#f9f9f9" d="M18.613 108.45c.051-.305 2.934-17.868 6.407-39.032 3.472-21.16 6.34-38.496 6.37-38.527.258-.239 28.583-19.387 28.696-19.395.191-.023 28.73 19.332 28.805 19.531.078.23 12.734 77.473 12.734 77.739 0 .218-3.488.238-41.55.238H18.52Zm27.778-3.747c2.968-1.375 6.925-3.672 9.816-5.695.7-.488 1.262-.953 1.258-1.035 0-.082-.988-.832-2.184-1.66l-2.176-1.516-.91.715c-2.636 2.066-6.535 4.316-10.285 5.926l-.726.308 1.77 1.844a114 114 0 0 0 1.796 1.855c.02.004.762-.332 1.64-.742m30.89-1.457 1.836-1.691-.937-.59c-2.903-1.828-11.328-6.121-11.645-5.938-.347.211-3.539 3.047-3.539 3.153 0 .054.484.36 1.082.675 3.445 1.829 8.848 4.973 10.402 6.055.622.43.375.574 2.801-1.664m1.824-10.902v-2.297H70.3v-6.961h6.562v-4.59H53.301v-4.101l2.12-.106c4.188-.2 10.419-.75 14.509-1.285 2.683-.348 5.03-.715 5.117-.8.05-.048-2.23-4.231-2.45-4.5-.023-.032-1.1.116-2.398.331-5.363.883-12.539 1.582-20.07 1.957l-2.05.102v19.953h-7.013v4.594h38.04ZM49.06 63.473c10.734-1.828 17.511-5.028 21.71-10.254.743-.922 1.395-1.676 1.45-1.676.078 0 1.527 1.883 2.304 3 .168.246.36.156 2.344-1.09 1.192-.75 2.192-1.387 2.23-1.422.356-.308-3.937-5.07-7.042-7.808l-1.16-1.02-2.047 1.23c-1.13.68-2.075 1.255-2.106 1.278s1.028 1.121 2.352 2.441c1.32 1.317 2.383 2.422 2.351 2.45-.054.054-.906-.23-2.894-.965l-1.227-.457-.617.828c-.336.457-.996 1.203-1.457 1.66-.8.797-2.586 2.242-2.766 2.242-.047 0-.086-2.5-.086-5.555v-5.554h16.555v-4.739h-16.11v-3.554h11.938v-4.442H62.844v-3.851h-5.367v11.848h-5.372v-9.036h-5.218v9.035h-5.672v4.739h16.11v11.851l1.98.004 1.972.008-.996.512c-3.472 1.77-9.433 3.258-15.41 3.84-.492.047-1.144.12-1.445.168l-.555.082.59.863c.512.734 1.547 2.766 1.832 3.594.125.347.309.336 3.766-.25m-1.829-9.97c1.797-1.55 4.036-4.03 5.547-6.132 1.16-1.61 1.508-2.168 1.407-2.246-.106-.082-5.258-1.586-5.29-1.547-.011.024-.261.406-.546.852-1.344 2.113-4.094 4.968-6.207 6.445-.582.406-1.059.773-1.063.816 0 .036.496.364 1.102.727.61.36 1.601 1.035 2.195 1.504.602.469 1.152.86 1.223.867.07.004.804-.574 1.632-1.285m0 0"/>
    <path fill="#f9f9f9" d="M53.3 86.566v-3.48h11.782v6.96H53.301Zm0 0"/>
</svg>
