<svg xmlns="http://www.w3.org/2000/svg" width="120" height="120" viewBox="0 0 120 120">
    <path stroke="red" stroke-width=".004" d="M-51.317 55.018h-4.076v.524h3.251v4.292h-3.251v.577h4.392v1.148h-4.392V63h-1.341v-1.44H-61v-1.15h4.266v-.577h-3.173v-4.292h3.173v-.524h-4.004V53.87h4.004V53h1.341v.871h4.076v1.147m-.001-10.981-.495.685-.1.14-.013.018-.015.02-.005.008-.181-.113-.216-.122-.242-.129-.262-.132-.276-.135-.125-.06-.158-.076.147.387.011.023.163.317.136.187.073.1.247.225.288.15.335.071.057-.017.051-.072.048-.117.042-.16.035-.18.004-.02.002-.017.003-.018.003-.02.003-.015.003-.019v-.008l.02-.125v-.009l.106.134.101.117.017.02.122.134.125.124.064.058.059.051.117.089-.108.439-.068.157-.08.182-.19.245-.23.152-.268.061-.303-.023-.667-.188-.087-.024-.223-.151-.36-.243-.44-.55-.251-.533-.066-.14-.192-.664-.03-.107-.15-.842h-5.507V42.12h6.522l.007.15.01.148.014.147.029.29.014.144.25.079.15-.152.016-.017.168-.181.165-.19.158-.187.147-.182.127-.169 1.058.542.001.001-.055.045-.134.11-.188.156-.185.154v.001l-.183.15-.047.038-.132.109-.12.097-.024.02-.017.014-.009.007-.003.002.23.1.22.1.209.098.195.099.175.097.15.092.008.005m-5.87.594-.156.05-.049.014-.204.062-.209.06-.211.059-.214.055v1.342h1.24v-1.709l-.198.067m1.417-1.026v2.668h2.238l.007.246.006.186v.056l.01.24.005.102.007.135.013.237.02.236.174.064.044-.04.122-.11.17-.158.167-.16.16-.159.043-.045.104-.107.056-.06.072-.08.483.247.592.304-.19.14-.188.133-.185.131-.183.125-.179.118-.113.074-.014.008-.034.022-.008.005-.004.004.218.104.21.106.203.106.189.103.17.1.153.095-.277.37-.337.451-.006.009-.014.018-.01.013-.007.01-.182-.128-.211-.131-.238-.138-.194-.103-.063-.034-.27-.14-.28-.14.07.314.005.023.04.183.15.46.191.384.235.3.29.2.343.092.061-.025.055-.092.046-.156.041-.209.021-.136.017-.118.03-.268.001-.02v-.006l.112.146.12.149.1.117.023.026.127.132.045.042.079.072.12.09-.108.52-.055.142-.097.257-.19.289-.234.179-.274.075-.319-.024-.794-.263-.176-.152-.413-.355-.422-.715-.284-.887-.079-.452-.05-.289-.048-.277-.102-1.115h-1.126v4.361h-1.22v-4.361h-1.255l-.067.774-.136.779-.036.128-.185.641-.328.745-.455.709-.58.635-.013.014-.007.008-.12-.146-.15-.163-.163-.158-.006-.006-.176-.16-.056-.044-.118-.097-.06-.042-.097-.07.512-.535.39-.57.284-.597.053-.164.14-.447.122-.618.064-.616h-1.338v-1.198h1.368v-1.078l-.15.035-.147.03-.147.03-.147.027-.146.024-.135.02-.012.002-.041-.149-.058-.159-.001-.002-.073-.168-.082-.165-.088-.158-.088-.142.476-.104.062-.014.533-.135.257-.076.262-.076.495-.163.462-.173.417-.177.412.46.352.394v-.751h1.22m8.82 8.395-.048-.29-1.382-8.48v-.032h-.007L-51 41.412l-5-3.415-5 3.415-2.61 1.785h-.007v.031L-65 51.708l-2.003 12.294h22.007L-45.16 63l-1.792-11M-69 66l3.8-22.803L-65 42l7.52-5.014L-56 36l7.226 4.816L-47 42l.2 1.197 3.8 22.802h-26m11.656-9.447h-1.31v.654h1.92v-.654h-.61m3.878 0h-1.927v.654h1.927v-.654m0 2.265v-.655h-1.927v.655h1.927m-3.268 0v-.655h-1.92v.655Zm0 0" transform="matrix(3.78963 0 0 3.7628 272.333 -131.698)"/>
    <path fill="#f9f9f9" d="M18.613 108.45c.051-.305 2.934-17.868 6.407-39.032 3.472-21.16 6.34-38.496 6.37-38.527.258-.239 28.583-19.387 28.696-19.395.191-.023 28.73 19.332 28.805 19.531.082.23 12.734 77.47 12.734 77.739 0 .218-3.406.238-41.55.238H18.52Zm43.934-5.74v-2.737h16.558v-4.446H62.547v-2.074H74.78V77.164H62.547v-1.777H77.91V70.94H62.547v-3.257h-5.223v3.257h-15.21v4.446h15.21v1.777H45.246v16.29h12.078v2.073H41.066v4.446h16.258v5.48h5.223Zm14.351-39.226c.942-.714 1.645-2.12 2.075-4.148l.187-.867-.68-.614c-.375-.335-1-1-1.39-1.468-.395-.473-.746-.825-.785-.782-.04.04-.164.668-.27 1.399-.113.734-.297 1.566-.418 1.848l-.219.515-.644-.16c-1.363-.336-2.3-1.254-3.188-3.113-.449-.942-1.105-3.086-1.113-3.637 0-.227 2.977 1.277 4.387 2.211.484.324.93.535.984.469.414-.469 2.383-3.16 2.383-3.258 0-.164-.41-.41-2.441-1.461-1.692-.875-1.758-.926-1.422-1.102.582-.3 3.719-2.53 3.719-2.64 0-.059-.938-.563-2.075-1.125l-2.07-1.02-1.766 1.727c-.972.953-1.804 1.726-1.855 1.726-.047 0-.195-.082-.328-.183-.203-.153-.262-.637-.348-2.817l-.105-2.625h-8.461V32.29H56.28v2.664l-1.355-1.48c-.746-.817-1.422-1.48-1.504-1.48-.086 0-.899.292-1.817.652-2.109.828-4.562 1.582-7.03 2.167-1.067.25-2.052.489-2.192.528-.211.058-.153.246.402 1.285.356.668.727 1.5.828 1.848.211.71.028.695 2.305.242.57-.117 1.09-.207 1.152-.207.063 0 .114.867.114 1.926v1.925h-5.22v4.59h5.079l-.09.778c-.594 5.046-2.117 8.625-4.894 11.476-.57.594-1.012 1.094-.977 1.117.75.52 2.383 1.957 2.938 2.582l.718.825.828-.872c1.23-1.289 1.621-1.785 2.47-3.093 1.91-2.946 3.183-7.125 3.554-11.664l.094-1.149h4.597v16.438h4.774V46.949h4.129l.187 2.11c.578 6.566 2.098 10.824 4.625 12.937.852.711 1.332.977 2.578 1.43 1.356.488 1.664.547 2.664.508.957-.043 1.211-.11 1.66-.45m-.39-19.437c1.097-.52 1.945-1.809 2.347-3.578l.188-.805-1.398-1.406c-.774-.774-1.415-1.383-1.43-1.356-.02.028-.145.606-.278 1.285-.296 1.477-.425 1.672-1.062 1.555-1.207-.215-2.383-.996-3.281-2.172-.461-.61-1.504-2.75-1.39-2.863.066-.066 3.23 1.488 4.609 2.266.39.218.734.37.765.336.027-.032.578-.79 1.219-1.672 1.375-1.903 1.5-1.61-1.317-2.977l-1.906-.918 1.938-1.59c1.07-.87 1.984-1.648 2.027-1.718.05-.079-.852-.602-1.996-1.172l-2.078-1.035-.535.683a61 61 0 0 1-1.688 1.992c-1.12 1.278-1.469 1.493-1.941 1.192-.156-.098-.477-2.2-.489-3.176 0-.242-.695-.258-12.457-.258H43.902v4.59h10.43c9.809 0 10.438.016 10.512.258.039.144.18.86.304 1.594.786 4.558 2.516 7.87 5.012 9.597 1.856 1.281 5.047 1.961 6.348 1.348m0 0"/>
    <path fill="#f9f9f9" d="m51.84 39.887.043-2.469 1.863-.54c1.024-.3 2.016-.589 2.2-.651l.335-.11v6.242h-4.48Zm-1.672 42.461v-1.184h7.156v2.367h-7.156Zm12.379 0v-1.184h7.16v2.367h-7.16Zm0 6.07v-1.184h7.16v2.371h-7.16Zm-12.379 0v-1.184h7.156v2.371h-7.156Zm0 0"/>
</svg>
