<svg xmlns="http://www.w3.org/2000/svg" width="120" height="120" viewBox="0 0 120 136">
    <path stroke="red" stroke-width=".004" d="m-37.76-42.303.236.234.2.215-.748.894-.002.002-.002-.002-.134-.16v.898h-.923v.75h1.384v1.104h-1.384v2.345l.221-.048.482-.105-.482-.143-.163-.047-.005-.002.07-.266.058-.23.017-.07.023-.099.05-.217.068-.32.057-.31.043-.28.915.237-.096.304-.097.31-.096.305-.046.14-.05.153-.093.27-.09.242.598-.123.044.482.054.583-.683.176-.578.147-.109.028-.443.11-.038.01-.198.05-.515.13-.145.036-.6.152-.027.007-.582.15-.287-1.218.233-.047.233-.046.02-.004.27-.05.032-.007.029-.006.034-.006.045-.009.107-.02.036-.007.296-.055.306-.057v-2.575h-1.452v-1.103h1.452v-.75h-.885v-.461l-.068.057-.068.056-.068.055-.173.138-.016.012-.009.007-.006.005-.049-.164-.072-.21-.088-.232v-.002l-.097-.233-.097-.217-.037-.073-.035-.07-.017-.033.422-.313.419-.359.199-.196.205-.201.13-.148.18-.205.067-.075.338-.45.279-.454.008-.013.841.318.172.065-.024.053-.026.052-.028.052-.03.052-.032.052-.029.045-.003.005-.002.003.002.002.304.245.056.048.243.205.1.087.186.166.264.247M-32-35.226l-.148.141-.158.17-.16.192-.151.199-.135.196-.016.026-.094.156-.653-.495-.158-.175-.315-.347-.083-.092-.381-.585-.089-.135-.149-.31-.014-.03-.112-.235-.115-.241-.026-.073-.294-.828-.26-.975h-.543v2.943l1.238-.325.125-.033.006-.002.004.177.004.067.007.129.018.201.022.197.024.18.027.152-.237.073-.669.206-.665.216-.469.165-.245.1-.07.028-.206.103-.04.026-.05.03-.022.016-.017.011-.011.007-.037-.169-.056-.191-.07-.198-.079-.194-.032-.064-.054-.11-.005-.007-.05-.078-.025-.04-.008-.014.106-.057.1-.072.089-.094.022-.036.002-.003.048-.082.047-.151.017-.187v-7.809h4.804v4.889h-1.975l.055.189.058.185.062.182.065.18.017.043.051.133.071.176.2-.157.183-.152.016-.013.192-.167.181-.167.165-.162.144-.155.007.008.2.22.61.67-.224.175-.233.176-.152.112-.084.06-.237.168-.144.099-.09.062-.228.151.212.295.229.273.24.243.007.008.095.08.17.146.288.203.154.088.06.034.04.023.025.014.02.01.01.008m-8.445-1.82.07.322.058.301.043.27-.685.196-.11.031-.026.009-.02.005-.014.004-.03-.271-.051-.304-.066-.325-.013-.056-.065-.277-.086-.328-.09-.309.008-.002.563-.157.253-.07.093.307.088.325.08.33m1.58 4.045v10H-40.1v-3.39l-.216.184-.213.182-.132.112-.007.006-.001.001-.003.002-.068.057-.208.173-.013.01-.192.156-.188.148-.01.007-.005.005-.405-.719-.19-.337-.003-.005-.004-.009-.002-.003-.007-.012-.004-.007-.005-.009-.002-.004h.001v-.001l.05-.035.195-.136.008-.006.287-.206.311-.231.165-.125.08-.06.086-.065.134-.104.161-.124.02-.015.026-.02.002-.002.352-.274v-1.73l-.553.45-.008.008-.005.005-.154-.253-.141-.203-.057-.082-.229-.304-.248-.31-.255-.3-.008-.01-.243-.268.002-.002.882-.694.156.16.012.013.174.183.114.123.062.068.174.195.075.087.093.107.024.029.133.163V-33h1.233m5.08 0 .125.232.073.136.02.038.114.21.254.473-.007.003-.247.09-.114.042-.139.051-.252.089-.25.084-.252.08-.08.025-.059.017-.112.033-.104.03-.384.107-.245.07h-.004l-.167.037-.633.14-.02.004-.333.063-.04.007-.07.012-.088.014-.064.01-.161.028-.076.01-.295.04-.111.013-.157.018-.092.01-.132.01-.213.016-.03.002-.241.01h-.043l-.01.001h-.007l-.001-.018-.009-.158-.02-.203v-.005l-.002-.014-.028-.227-.035-.236v-.002l-.007-.039-.017-.097-.01-.067-.003-.015-.003-.015-.002-.01-.005-.026-.01-.053-.003-.014-.006-.03-.007-.037h.046l.05-.001h.07l.329-.002.156-.001.065-.001.22-.022.521-.053.025-.002.009-.001.245-.044.064-.01.087-.017.338-.06.08-.014h.004l.675-.165.007-.002.152-.038.084-.026.173-.052.363-.11.02-.006.185-.056.011-.004h.002l.003-.001.016-.006.174-.063.476-.173.163-.059m-10.831-9.772L-46-34.292l-.248 1.524-1.755 10.77h22.006L-26.16-23l-1.591-9.768-.248-1.523-1.382-8.48v-.032h-.007L-32-44.587l-5-3.416-5 3.416-2.61 1.784h-.008v.031M-28-44l.2 1.197 1.672 10.035 1.795 10.77L-24-20h-26l2.128-12.768 1.672-10.035L-46-44l1.775-1.183 5.745-3.831h.001L-37-50l9 6m-4.315 13.416-.058.122-.179.351-.216.345-.016.026-.03.044-.094.133-.004.005-.122.165-.13.162-.134.153-.074.078-.063.066-.012.012-.057.054h.34v1.04H-32v1.168h-1.164v2.316l-.01.279-.037.238-.067.199-.093.15-.01.015-.147.134-.04.022-.155.083-.07.022-.163.054-.264.055-.297.036-.075.005-.224.014-.031.002-.363.01-.354.003h-.044l-.008-.045-.025-.14-.052-.202-.002-.006-.02-.062-.024-.074-.006-.021-.015-.047-.077-.208-.003-.007-.04-.093-.042-.098h-.001l-.018-.038-.03-.056-.032-.069-.003-.005-.004-.008-.001-.003H-36l.159.004.113.003h.015l.096.002.165.002.14.002.06.001h.057l.226.001.152.001h.155l.07-.004h.008l.056-.01.042-.023.019-.022.009-.01.015-.048.006-.06v-2.294h-2.436l.008.009.023.027.12.136.008.01.09.103.093.113.158.195.192.253.041.054.001.002.008.01.104.148.056.08.04.056.022.032.19.303.102.189.047.087-.047.026-.454.25-.14.078-.107.059-.035.02-.045.024-.093.052-.035.02-.005.002-.009.005-.056.03-.04.023h-.002l-.001.002h-.002l-.025.015-.02.011-.028-.06-.068-.144-.038-.082-.03-.054-.015-.027-.131-.235-.211-.334-.201-.292-.032-.046-.007-.01-.218-.29-.02-.028h-.002l-.249-.305.015-.008.024-.012.002-.002.004-.002.042-.022.184-.094.398-.205.263-.136.07-.036h-1.584v-1.167h4.08v-1.04h.672l-.027-.01-.085-.03-.006-.001-.188-.06-.106-.032-.087-.026-.033-.01h-.003l-.004-.001-.001-.001-.14-.041-.147-.04-.008-.003.002-.001.002-.003.008-.007.03-.026.028-.025.223-.195.03-.025.001-.002.137-.154.121-.136.033-.037.236-.33.026-.035.003-.005.152-.262.031-.053.041-.071.001-.002.044-.093.064-.136.076-.164.007-.015.121-.335.03-.082.042.004.343.032.228.022.469.044-.045.13-.046.126-.048.127-.05.124-.055.123m-3.057.193.003.006.039.092.07.168.104.27.052.16.011.032.024.073.01.035.057.213.01.05.03.157.001.013-.416.05-.189.022-.274.034-.029.003-.009.001-.008.001-.005.001-.04.005-.035.004h-.002l-.008.001-.02.003-.02.002v-.006l-.02-.183-.005-.033-.052-.253-.023-.085-.038-.14-.013-.048-.09-.28-.003-.01-.099-.265-.002-.005-.04-.093-.073-.171h.014l.021-.003h.007l.017-.002.014-.001.009-.001.05-.005.502-.046.342-.03.037.076.084.178.005.01M-36.8-28.92l-.064.014-.533.112-.267.057-.03.006h-.002l-.007.001-.052.011-.037.008h-.001l-.027.006h-.001l-.018.004v-.004l-.002-.006-.043-.21-.004-.012-.07-.234-.097-.266-.054-.128-.058-.136-.003-.008-.003-.008-.003-.007-.122-.254-.135-.253.013-.002.026-.005.024-.004.706-.128.196-.035.14.24.002.002.002.004.002.003.002.004.05.094.086.161.094.196.024.05.008.016.03.07.05.114.03.07.07.192.014.039.004.01.06.215m-3.473-12.553-.161.17h2.057l-.17-.172-.18-.18-.185-.177-.005-.005-.197-.184-.2-.183-.17-.148-.013-.012-.012-.011-.006-.005-.004-.003-.145.19-.148.185-.15.182-.154.178-.157.175m6.594-.987h-2.375v.828h2.375v-.828m-2.375 1.855v.85h2.375v-.85Zm0 0" transform="matrix(4.29492 0 0 4.26451 219.04 217.49)"/>
    <path fill="#f9f9f9" d="M13.066 123.328c0-.531 14.391-88.035 14.512-88.226.102-.164 11.633-8.028 29.492-20.11l3.07-2.078L76.255 23.84c8.863 6.008 16.203 11.012 16.312 11.113.114.106 3.332 19.293 7.32 43.625 3.919 23.89 7.188 43.785 7.266 44.215l.141.781H60.18c-41.711 0-47.114-.027-47.114-.246M52.262 98.04V76.605h-5.457v10.918l-.778-.902a67 67 0 0 0-2.191-2.34l-1.414-1.437-1.82 1.41c-1 .777-1.88 1.473-1.957 1.547-.079.07.242.547.703 1.054 1.25 1.372 3.3 3.957 4.203 5.313.441.652.836 1.187.883 1.187.046 0 .468-.316.937-.703.473-.386.984-.8 1.145-.922.273-.207.289-.027.289 3.313v3.531l-2.356 1.805a200 200 0 0 1-4.011 2.988c-.91.653-1.676 1.238-1.7 1.309-.062.164 2.512 4.66 2.703 4.722.086.032 1.309-.902 2.72-2.074l2.562-2.125.043 7.137.043 7.133h5.453Zm19.433 21.086c3.27-.445 4.524-1.465 4.887-3.96.082-.571.152-3.345.156-6.165v-5.133h4.965v-5.09h-4.965v-4.433h-1.363l.645-.7c1.546-1.675 3.289-4.277 4.207-6.28.632-1.384 1.171-2.9 1.07-3.005-.043-.039-.73-.132-1.531-.21-.801-.075-1.836-.176-2.301-.227l-.848-.086-.539 1.352c-1.125 2.84-2.957 5.585-4.824 7.242l-1.008.89 1.55.493 1.552.496-1.114.015-1.117.02v4.433H53.586v5.09l3.184.004 3.183.008-1.941 1.02c-1.067.562-1.942 1.062-1.942 1.117-.004.05.41.605.914 1.23 1.258 1.563 2.887 3.996 3.727 5.57.387.723.723 1.34.746 1.371.05.067 4.117-2.136 4.605-2.492.301-.218.29-.27-.277-1.277-.773-1.371-2.402-3.633-3.71-5.156-.575-.672-1.048-1.258-1.048-1.305 0-.05 2.27-.09 5.047-.09h5.043v4.856c0 3.03-.066 4.972-.172 5.172-.16.296-.375.32-3.406.32-3.023 0-3.23.015-3.113.285.59 1.355 1.258 3.242 1.426 4.008l.199.93 2.242-.079c1.234-.043 2.766-.148 3.402-.234m-12.847-24.41 2.203-.453-.098-.516c-.133-.7-.797-2.293-1.66-3.992-1.133-2.219-.828-2.067-3.234-1.64-1.133.198-2.082.382-2.114.406-.027.023.285.738.7 1.593.75 1.547 1.753 4.29 1.753 4.79 0 .331-.136.343 2.45-.188m7.644-1.028c2.645-.312 2.524-.261 2.399-.957-.164-.898-1.145-3.73-1.739-5.011-.449-.977-.566-1.114-.882-1.04-.2.048-1.125.137-2.063.2-.934.066-1.734.176-1.781.25-.043.07.152.707.433 1.41.586 1.469 1.309 4.043 1.313 4.668 0 .727.074.742 2.32.48m-9.574-7.398c3.863-.383 8.45-1.281 12.57-2.465 2.707-.777 7.09-2.281 7.075-2.43-.04-.32-2.598-4.699-2.727-4.667-.086.02-1.457.48-3.05 1.02-5.95 2.019-11.606 3.128-15.919 3.128-1.328 0-1.613.047-1.613.25 0 .137.105.93.238 1.766.13.836.285 1.98.348 2.543l.11 1.027h.628c.344 0 1.399-.078 2.34-.172m3.246-14.344c1.102-.55 4.762-1.828 8.523-2.976 1.922-.586 1.954-.606 1.864-1.035-.098-.485-.426-3.664-.426-4.141 0-.27-.254-.23-2.77.426-1.523.398-2.828.726-2.894.726-.07 0-.125-2.77-.125-6.156v-6.156h2.098l.535 2.012c1.574 5.93 3.941 10.714 6.89 13.925 1.254 1.364 4.067 3.606 4.16 3.32.145-.433 1.778-2.581 2.731-3.597.621-.656.953-1.125.828-1.168-.113-.04-.785-.441-1.488-.898-1.348-.868-3.559-2.98-4.461-4.262l-.535-.754.949-.621c.902-.59 4.582-3.25 4.898-3.54.086-.077-.543-.89-1.476-1.91a329 329 0 0 1-1.813-1.976c-.144-.164-.488.078-1.562 1.098-.754.718-1.805 1.644-2.328 2.054-.828.645-.973.707-1.075.461-.332-.816-1.207-3.3-1.3-3.695l-.11-.45h8.442V31.614h-20.84v7.266l-1.7-1.621a76 76 0 0 0-3.265-2.926l-1.703-1.414c-.074-.063.016-.398.203-.746.188-.348.285-.684.219-.75-.13-.121-4.106-1.617-4.305-1.617-.066 0-.336.351-.598.78-1.75 2.83-4.87 6.243-7.625 8.333a123 123 0 0 1-1.53 1.156c-.024.016.21.57.519 1.242.312.668.77 1.809 1.023 2.532.25.722.516 1.379.59 1.46.074.087.469-.109.922-.46l.793-.618.05.918.048.914h3.789v2.958h-6.286v4.925h6.286v10.793l-3.493.672c-1.921.367-3.523.703-3.562.738-.04.04.207 1.266.547 2.723.504 2.152.668 2.633.875 2.567.14-.043 3.933-1 8.426-2.13 4.492-1.128 8.199-2.081 8.238-2.12.105-.106-.317-4.704-.434-4.696-.05 0-.578.106-1.168.23-.59.13-1.09.215-1.11.196-.019-.02.481-1.617 1.11-3.555.633-1.937 1.094-3.574 1.028-3.636s-.989-.332-2.051-.598l-1.934-.484-.191 1.167c-.238 1.442-1.285 6.036-1.403 6.153-.042.043-.082-1.742-.082-3.969v-4.05h5.954V49.02h-5.954v-2.958h3.97V44.32c0-1.488.034-1.718.234-1.554.191.16.53-.157 1.859-1.73l1.629-1.927.047 13.207c.031 8.977-.008 13.399-.13 13.813-.105.371-.456.848-.91 1.246l-.738.648.473.883c.39.723.844 1.942 1.27 3.39.082.282.097.278 1.355-.35M44.45 63.88c1.02-.281 1.696-.547 1.696-.676 0-.465-.86-4.363-1.348-6.105-.317-1.141-.586-1.832-.7-1.785a95 95 0 0 1-1.84.527c-.91.25-1.667.465-1.683.472-.015.008.188.79.457 1.735.418 1.484.848 3.508 1.223 5.805.066.386.184.605.3.562.11-.039.962-.281 1.895-.535m0 0"/>
    <path fill="#f9f9f9" d="M46.758 40.027a65 65 0 0 0 1.86-2.207l.73-.933 1.582 1.453c.87.8 1.914 1.793 2.316 2.207l.738.754H45.63Zm17.578-1.847v-1.64h9.922v3.284h-9.922Zm0 7.965v-1.723h9.922v3.45h-9.922ZM51.105 63.098c0-.532.047-.621.29-.547.16.05.726.222 1.261.383l.973.293-2.524.507Zm0 0"/>
</svg>
