<svg xmlns="http://www.w3.org/2000/svg" width="120" height="120" viewBox="0 0 120 120">
    <path d="m39 6.188-.516.023-.507.078-.18.043-.32.082-.485.172-.469.223-.441.261-.414.309-.379.348-.117.128-.23.25-.31.415-.26.44-.224.47-.171.484-.032.129-.093.371-.079.508v.031l-.023.485.023.515.079.508.125.5.171.484.223.47.02.034v.004L23.477 24.867l-.579.586-.57.598-.558.605-.551.614-.543.625-.528.628-.523.641-.508.648-.5.657-.492.66-.156.223-.324.449-.47.68-.456.683-.446.695-.437.7-.426.707-.414.71-.402.723-.035.059-.356.664-.383.734-.367.735-.36.746-.343.75-.332.754-.324.757-.309.766-.297.77-.285.773-.195.55-.078.227-.125.375-.137.407-.25.785-.234.793-.223.793-.211.797-.2.8-.183.79-.004.011-.172.809-.164.808-.148.813-.133.812-.027.184-.098.633-.11.816-.093.817-.086.82-.07.824-.059.82-.047.825-.031.824-.02.824-.007.824.004.575.003.253.02.82.031.825.047.824.059.824.07.82.086.821.094.82.11.817.124.816.137.813.027.148.121.664.16.809.172.804.004.016.184.79.199.8.21.797.224.793.234.789.25.785.262.785.27.77.003.007.285.774.297.77.309.765.324.758.332.754.344.75.254.523.105.219.367.738.383.73.39.727.403.719.215.367.2.348.425.707.437.7.446.69.457.688.469.676.324.453.156.219.492.664.5.656.508.648.48.586.043.051.528.633.543.621.55.613.56.61.276.289.293.304.352.36v14.93h73.5v-14.93l.352-.36.335-.347.235-.246.558-.61.551-.613.543-.621.528-.633.043-.05.48-.587.508-.648.5-.656.492-.664.48-.672.47-.676.456-.687.446-.692.257-.41.18-.29.426-.706.2-.348.214-.367.402-.719.39-.726.384-.73.367-.74.105-.218.254-.523.344-.75.332-.754.324-.758.309-.766.297-.77.285-.773.004-.007.27-.77.261-.785.25-.785.234-.79.223-.792.211-.797.2-.8.187-.806.172-.804.164-.809.117-.664.027-.148.137-.813.125-.816.11-.817.093-.82.086-.82.07-.82.059-.825.047-.824.031-.824.02-.82.003-.255.004-.574-.007-.824-.02-.824-.031-.824-.047-.825-.059-.82-.07-.824-.086-.817-.094-.82-.11-.816-.097-.633-.027-.184-.137-.812-.144-.813-.164-.808-.172-.809-.188-.8-.199-.801-.21-.797-.224-.793-.234-.793-.25-.785-.137-.407-.125-.375-.078-.226-.195-.551-.285-.773-.297-.77-.309-.766-.324-.757-.332-.754-.344-.75-.36-.746-.366-.735-.383-.734-.356-.664-.035-.059-.402-.722-.414-.711-.426-.707-.18-.29-.257-.41-.446-.695-.457-.684-.469-.68-.48-.671-.492-.66-.5-.657-.508-.648-.523-.64-.528-.63-.543-.624-.55-.614-.56-.605-.57-.598-.578-.586L85.95 14.293l-.136-.14-.106-.102-.066-.067-.032-.035.02-.035.223-.469.171-.484.125-.5.079-.508.023-.515-.023-.485v-.031l-.079-.508-.074-.293-.05-.207-.172-.484-.223-.47-.262-.44-.308-.415-.348-.378-.379-.348-.414-.309-.441-.261-.47-.223-.484-.172-.043-.012-.214-.054-.243-.059-.507-.078L81 6.187l-.516.024-.507.078-.5.125-.485.172-.469.223-.343.207-.098.054-.414.309-.379.348-.348.378-.308.415-.262.44-.223.47-.171.484-.125.5-.079.508v.031l-.023.485.023.515.079.508.125.5.171.484.223.47.262.44.23.31-.023.034-.055.086-.254.39-.226.348-.328.508-.227.348-.2.308-15.515 23.891-15.515-23.89-.27-.415-.477-.734-.125-.195-.152-.235-.117-.18-.094-.14-.062-.101-.04-.06-.011-.015.195-.258.262-.44.144-.306.079-.164.171-.484.125-.5.079-.508.023-.515-.023-.485v-.031l-.079-.508-.125-.5-.171-.484-.079-.164-.144-.305-.262-.441-.308-.415-.348-.378-.379-.348-.414-.309-.441-.261-.47-.223-.484-.172-.5-.125-.507-.078h-.043Zm-.418 10.996 18.324 28.214 2.496 3.844.633.977.414.64 24.86 38.278 4.09 6.3H27.151l.035-.035-.542-.55-.075-.082-.457-.48-.523-.567-.04-.043-.476-.535-.504-.586-.496-.594-.484-.602-.477-.61-.465-.616-.457-.625-.445-.633-.348-.512-.085-.125-.239-.36-.187-.288-.414-.653-.403-.66-.39-.664-.383-.676-.371-.675-.356-.688-.347-.691-.336-.696-.328-.699-.313-.707-.3-.715-.126-.304-.164-.41-.281-.723-.266-.723-.254-.73-.242-.735-.23-.738-.219-.742-.207-.746-.191-.746-.184-.754-.168-.754-.156-.758-.008-.043-.137-.715-.133-.761-.12-.766-.106-.766-.098-.765-.078-.77-.07-.77-.059-.773-.043-.77-.031-.773-.02-.773-.003-.2-.004-.574.007-.773.02-.774.031-.77.043-.773.059-.77.07-.769.082-.77.094-.769.105-.765.121-.762.055-.332.078-.43.145-.761.156-.754.168-.754.184-.754.191-.746.207-.746.219-.743.23-.738.242-.734.254-.73.262-.712.004-.015.281-.719.29-.719.3-.71.313-.708.328-.703.336-.695.347-.692.356-.683.37-.68.384-.672.39-.668.403-.656.175-.281.239-.375.425-.645.434-.64.445-.633.457-.625.465-.617.477-.61.484-.601.496-.594.504-.582.516-.578.523-.57.457-.481.075-.078.449-.453.093-.098Zm42.879.043 11.352 11.351.093.098.45.453.53.558.524.57.516.579.457.527.047.055.496.594.484.601.477.61.465.617.457.625.445.633.433.64.426.645.239.375.175.281.403.656.39.668.383.672.371.68.356.683.347.692.336.695.328.703.313.707.3.711.29.719.281.719.004.015.262.711.254.73.242.735.23.738.219.743.207.746.191.746.184.754.168.754.156.754.145.761.078.43.055.332.12.762.106.765.094.77.082.77.07.769.059.77.043.773.031.77.02.773.007.773-.004.575-.003.199-.02.773-.031.774-.043.77-.059.773-.07.77-.078.769-.098.765-.105.766-.121.766-.133.761-.137.715-.008.043-.156.758-.168.754-.184.754-.191.746-.207.746-.219.742-.23.738-.242.735-.254.73-.266.723-.281.722-.164.41-.125.305-.301.715-.313.707-.328.7-.336.695-.347.691-.356.688-.37.675-.384.676-.39.664-.403.66-.414.653-.425.648-.086.125-.348.512-.445.633-.457.625-.465.617-.477.61-.484.6-.496.595-.047.058-.457.528-.438.488L68.727 53.96l-.512-.785-5.05-7.778L76.5 24.868Zm-40.7 32.535-1.925.097-1.914.282-1.871.468-1.301.465-.52.188-1.746.824-.113.066-1.547.93-.101.074-1.086.805-.364.27-1.43 1.296-.09.098-.183.207-1.027 1.129-1.148 1.55-.993 1.657-.828 1.75-.23.645-.418 1.171-.473 1.875-.281 1.91-.098 1.93.086 1.715.012.215.281 1.91.473 1.875.648 1.82.828 1.746.621 1.036.372.62 1.148 1.555 1.027 1.13.274.3 1.43 1.297 1.55 1.152.598.356 1.062.636 1.746.829 1.266.453.555.195.12.031.102.028.09.02 1.559.39 1.914.285 1.926.094 1.933-.094 1.91-.285 1.56-.39.315-.079 1.817-.648 1.746-.829 1.66-.992.672-.5.879-.652 1.43-1.297 1.296-1.43 1.153-1.554.37-.621.622-1.036.828-1.746.652-1.82.47-1.875.28-1.91.008-.133.004-.082.082-1.715-.094-1.93-.28-1.91-.47-1.875-.421-1.172-.23-.644-.829-1.75-.992-1.656-1.153-1.551-.187-.211-1.11-1.223-1.43-1.297-.362-.27-1.043-.773-.145-.105-1.66-.996-1.746-.824-1.817-.653-1.875-.468-.832-.121-1.078-.16Zm0 3.937 1.548.078 1.254.184.21.031.063.012 1.5.375.16.059 1.293.46 1.398.66 1.325.797.187.137 1.055.781 1.148 1.04.473.523.563.621.585.79.336.452.793 1.328.258.535.29.622.116.238.52 1.457.375 1.5.227 1.527.074 1.543-.075 1.543-.023.172-.203 1.36-.375 1.5-.05.144-.47 1.309-.664 1.398-.793 1.324-.922 1.242-.292.325-.27.3-.473.52-1.148 1.039-1.242.922-1.325.793-1.156.547-.242.113-1.453.523-1.5.375-.063.008-1.464.219-1.547.074-1.543-.074-1.528-.227-.152-.039-1.348-.336-.144-.054-.875-.313-.434-.156-1.398-.66-.774-.465-.554-.328-1.239-.922-1.148-1.04-.742-.82-.293-.324-.922-1.242-.793-1.324-.305-.645-.36-.753-.519-1.454-.375-1.5-.203-1.359-.023-.172-.078-1.543.078-1.543.226-1.527.375-1.5.52-1.457.113-.238.246-.516.305-.64.793-1.329.922-1.242 1.035-1.145 1.148-1.039 1.239-.918 1.328-.796.41-.192.988-.469 1.309-.468.144-.051 1.5-.375.274-.043 1.254-.184Zm0 1.313-.034.039-.094.105-.145.168-.195.227-.234.277-.278.32-.308.364-.336.394-.364.422-.187.227-.191.222-1.317 1.547-1.027 1.207 1.41.008 1.414.008.004 2.016v4.992H33.75l-1.879-.004-.012-1.41-.015-1.414-.973.832-1.789 1.523-.445.379-.426.363-.07.063-.325.277-.363.309-.32.277-.278.238-.222.192-.063.054-.105.094-.106.09-.035.035.04.035.105.094.101.086.067.059.226.191.278.238.32.278.363.308.395.336.105.086.2.176.12.097.446.38 2.754 2.347.015-2.828h7.02v7.004l-1.414.004-1.418.008 1.203 1.414.625.734.523.617.38.445.363.426.148.176.184.211.007.008.31.363.276.324.235.278.195.226.145.168.093.11.008.011.024.024.035-.035.09-.106.148-.168.191-.223.239-.277.152-.18.125-.14.137-.16.172-.203.34-.399.363-.426.379-.445.636-.746.52-.613 1.203-1.414-1.422-.008h-.3l-1.118-.004v-7.004h3.664l3.309-.004h.023l.004 1.418.008 1.418 2.711-2.305.055-.047.445-.382.316-.27.11-.09.363-.308.035-.032.364-.308.3-.258.02-.02.277-.238.227-.191.168-.145.11-.094.019-.015.015-.016-.031-.035h-.004l-.102-.09-.167-.148-.188-.16-.039-.032-.277-.238-.32-.277-.16-.137-.204-.172-.398-.34-.422-.363-.45-.383-.062-.05-2.094-1.786-.613-.52-.008 1.423-.004.054-.004 1.364h-6.996v-.223l.004-2.617v-4.16l1.113-.012h.301l1.414-.016-1.715-2.011-.218-.258-.422-.492-.383-.45-.36-.422-.062-.074-.277-.324-.309-.36-.12-.14-.157-.184-.238-.273-.196-.223-.144-.168ZM28.5 100.688h63v7.874h-63Zm0 0"/>
    <path fill="#f9f9f9" d="M79.625 70.664a18225 18225 0 0 1-15.621-24.078l-.766-1.203 8.965-13.82c4.934-7.602 9.043-13.903 9.137-14 .137-.141 1.633 1.285 6.957 6.636 3.73 3.746 7.273 7.43 7.871 8.184 5.52 6.96 8.824 14.754 10.098 23.804.129.915.187 2.872.183 5.915-.004 3.902-.047 4.816-.312 6.492-.828 5.27-2.082 9.37-4.227 13.812-1.797 3.715-3.617 6.574-6.156 9.66-.668.817-1.227 1.48-1.242 1.477-.016 0-6.715-10.297-14.887-22.879M25.809 93.871c-6.832-7.55-10.91-16.523-12.11-26.648-.285-2.403-.324-7.477-.078-9.813.973-9.246 4.383-17.633 10.117-24.894 1.137-1.446 14.762-15.274 14.899-15.13.156.165 50.582 77.876 50.582 77.95 0 .047-13.95.086-31.004.086h-31Zm16.84-4.8c4.581-.466 8.78-2.45 12.015-5.684 9.234-9.235 7.176-24.574-4.176-31.078-7.636-4.38-17.41-3.051-23.66 3.222-2.617 2.625-4.316 5.645-5.2 9.239a19.67 19.67 0 0 0 4.29 17.636c3.648 4.192 8.844 6.602 14.637 6.793.328.012 1.27-.047 2.093-.129m0 0"/>
    <path fill="#f9f9f9" d="M38.95 85.02c-7.204-.758-13.024-6.688-13.763-14.016-1.054-10.5 8.368-18.992 18.739-16.887 4.523.918 8.465 3.848 10.601 7.875 1.399 2.64 1.848 4.453 1.852 7.465.004 2.914-.484 4.887-1.852 7.465-2.386 4.5-7.011 7.574-12.203 8.11-1.61.163-1.715.163-3.375-.012m4.237-3.868c1.278-1.504 2.325-2.77 2.325-2.812 0-.047-.617-.082-1.371-.082h-1.37v-6.926h6.78v1.348c0 .738.04 1.382.087 1.43.09.093 5.539-4.497 5.539-4.665 0-.11-5.274-4.64-5.496-4.726-.07-.024-.13.574-.13 1.336v1.382h-6.78v-6.78h1.289c.71 0 1.32-.048 1.359-.11.07-.113-4.39-5.399-4.621-5.477-.168-.054-4.817 5.387-4.7 5.5.048.047.692.086 1.43.086h1.348v6.782h-6.922v-1.372c0-.754-.035-1.37-.078-1.37-.156 0-5.55 4.679-5.516 4.784.02.06 1.274 1.16 2.782 2.45l2.738 2.343.043-1.472.039-1.469h6.914v6.914l-1.46.043-1.462.04 2.363 2.776c1.301 1.528 2.403 2.778 2.454 2.778.05 0 1.14-1.23 2.417-2.73m-14.699 23.499v-3.894h62.895v7.789H28.488Zm0 0"/>
</svg>
