<svg xmlns="http://www.w3.org/2000/svg" width="120" height="120" viewBox="0 0 120 119">
    <path d="M26.05 16.281v31.594l.005.41.008.41.011.407.016.41.02.406.019.41.023.406.028.41.03.407.036.406.035.41.086.813.028.246.02.16.05.402.05.407.06.406.058.402.062.406.067.403.14.804.075.403.082.402.011.07.07.329.087.402.085.398.188.797.098.395.101.398.102.395.219.789.105.36.008.03.117.395.117.39.125.391.125.387.13.39.265.774.14.383.141.386.145.383.136.352.008.027.152.383.153.379.156.379.16.375.117.27.043.109.168.37.168.376.344.742.176.367.078.156.101.215.059.117.125.247.188.367.187.363.191.36.196.363.195.36.2.355.202.355.207.355.207.352.211.352.215.347.055.086.164.262.219.348.445.687.461.68.23.336.235.336.238.332.242.332.242.328.25.328.223.293.024.035.254.324.25.32.257.32.258.317.262.317.265.316.266.313.27.308.027.028.246.28.273.305.274.301.281.305.563.594.285.293.578.586 18.555 18.398 3.71-3.68 14.84-14.718.579-.586.285-.293.285-.297.281-.297.277-.305.278-.3.273-.305.54-.617.265-.313.266-.316.043-.051.007-.012.211-.254.258-.316.258-.32.254-.32.25-.325.027-.035.223-.293.246-.328.242-.328.242-.332.239-.332.468-.672.23-.34.227-.34.227-.344.223-.343.218-.348.164-.262.051-.086.215-.347.21-.352.208-.352.207-.355.203-.355.2-.356.199-.36.191-.363.191-.359.192-.363.183-.367.125-.247.059-.117.102-.215.078-.156.175-.367.176-.371.168-.371.172-.375.164-.371.16-.38.16-.374.157-.38.152-.378.152-.383.141-.37.004-.009.144-.383.145-.386.137-.383.265-.773.13-.391.124-.387.125-.39.117-.391.118-.395.011-.03.102-.36.113-.395.211-.789.102-.398.097-.395.094-.398.18-.797.086-.402.066-.329.016-.07.078-.402.148-.805.133-.805.067-.406.058-.402.11-.813.05-.402.016-.16.031-.246.043-.407.04-.406.038-.41.063-.812.027-.41.023-.407.024-.41.016-.406.015-.41.012-.407.008-.41.004-.41.004-.371V16.28Zm5.247 5.203h39.375l-.59 1.797-.281.864-.035.109-.028.086-.023.066-.02.059-.015.043-.008.027-.004.012-.11-.043-.55-.184-.555-.168-.558-.156-.563-.14-.57-.126-.57-.109-.57-.094-.575-.082-.336-.035-.242-.027-.578-.047-.582-.035-.579-.02h-.582l-.367.008-.215.004-.578.027-.578.043-.578.063-.578.074-.57.09-.575.101-.566.122-.566.136-.559.149-.305.09-.254.074-.55.18-.547.195-.54.207-.535.222-.53.239-.524.25-.516.265-.508.278-.5.293-.492.304-.484.317-.477.332-.465.34-.214.164-.247.191-.445.367-.437.383-.426.387-.149.144-.003-.004-.004-.007-.266.265-2.516 2.496.008.012-2.316 2.297L32.168 44.3l.012.011.004.008-.282.293-.25.29-.023.023-.262.324-.07.102Zm39.926 0h17.422v26.02h.003l-.003.344-.004.386-.008.383-.024.766-.039.765-.023.383-.027.383-.032.379-.031.383-.039.383-.04.379-.042.382-.043.38-.031.226-.02.152-.05.383-.055.379-.059.379-.062.379-.063.375-.07.379-.07.375-.075.378-.074.375-.082.375-.074.336-.008.04-.086.37-.09.376-.187.742-.098.37-.102.368-.105.371-.219.734-.113.368-.117.363-.051.16-.07.207-.121.363-.125.36-.13.363-.265.719-.14.36-.137.355-.145.355-.297.711-.203.469-.105.23-.156.352-.16.348-.165.347-.082.168V44.79l-.008-.58-.023-.573-.04-.575-.054-.574-.07-.57-.082-.57-.102-.567-.117-.566-.129-.559-.148-.558-.16-.555-.176-.547-.192-.543-.203-.539-.222-.535v-.004l-.235-.523-.168-.348-.078-.172-.261-.512-.278-.508-.289-.5-.305-.492-.316-.48-.328-.477-.184-.25-.156-.215-.355-.457-.368-.445-.379-.437-.082-.09-.308-.336-.399-.418-.414-.406-.422-.395-.433-.383-.445-.37-.395-.313-.059-.047-.464-.344-.473-.336-.48-.324-.489-.309-.437-.258-.063-.039-.504-.28-.078-.04v-.004l-.008-.027-.84-2.559Zm-8.711 5.957.515.012.516.027.512.043.511.059.141.02.371.054.508.086.504.102.023.004.48.113.497.133.492.144.492.16.297.11-1.973 6.012h3.032l1.52-4.625 1.515 4.625h3.031l-.59-1.801.047.047.352.375.34.382.328.391.316.406.148.2.157.21.293.422.281.43.266.434.203.359.05.086.243.453.226.457.211.465.156.367.043.106.188.476.172.48.156.489.14.492.102.39.028.102.113.5.097.5.083.504.07.508.05.508.04.512.023.507.008.512h-.004v23.59H55.414l.7-1.063 5.667-8.652V50.93l3.551-1.461-.836-2-.77-1.844-1.945.797-2.547 1.047-1.648.676-1.473.605-9.11 3.742-4.651 1.91-.176.075-1.645.675-.078.032.004.004-.207.078-.293.093-.297.075-.3.054-.305.035-.137.008-.172.012-.305-.004-.308-.02-.305-.039-.3-.058-.298-.078-.289-.094-.175-.07-.11-.043-.277-.133-.27-.149-.257-.164-.247-.18-.238-.195-.222-.21-.208-.223-.195-.235-.125-.168-.039-.054-.016-.024-.164-.257-.148-.266-.129-.277-.113-.286-.094-.289-.074-.293-.059-.3-.035-.301-.02-.305v-.305l.02-.304.04-.301.058-.297.078-.297.05-.16.044-.129.113-.285.129-.273.148-.266.164-.258.184-.246.195-.234.004-.004.203-.215-.004-.004-.011-.008 2.359-2.34.594-.59 4.082-4.046 4.828-4.79 2.973-2.949-.008-.007.004.003.367-.355.383-.348.39-.332.399-.324.41-.309.418-.296.207-.141.219-.148.437-.274.442-.258.449-.25.46-.234.466-.219.468-.207.477-.195.148-.051.336-.129.297-.098.191-.066.493-.148.496-.137.5-.121.152-.035.352-.075.508-.09.507-.078.512-.062.512-.047.515-.035.297-.008.219-.008Zm-7.867 6.247-.204.007-.207.032-.199.05-.074.024-.117.043-.188.09-.176.105-.167.121-.094.082-.059.055-.137.152-.12.164-.11.172-.086.188-.07.191-.051.2-.027.202-.012.204.012.203.027.203.05.195v.004l.071.191.086.184.11.176.12.164.137.148.153.14.167.122.176.105.188.086.117.043.074.028.2.047.206.03.204.013.207-.012.203-.031.199-.047.195-.07.188-.087.175-.105.165-.121.136-.121.016-.02.14-.148.122-.164.105-.176.09-.184.066-.191v-.004l.051-.195.031-.203.012-.203-.012-.204-.03-.203-.052-.199-.066-.191-.09-.188-.105-.172-.121-.164-.141-.152-.016-.016-.136-.12-.164-.122-.176-.105-.188-.09-.195-.067-.2-.05-.202-.032Zm2.94 18.964v5.32l-1.17 1.739-.302.453-1.207 1.79-4.32 6.425h-.137v.207l-1.273 1.894-1.387 2.063h33.52l-.196.305-.21.32-.216.32-.214.317-.22.316-.222.317-.219.304-.003.008-.227.309-.46.617-.235.304-.235.301-.129.16-.113.141-.238.3-.492.595-.25.293-.25.289-.508.578-.258.285-.078.082-.184.2-.261.28-.266.278-.27.277-.27.273-.108.11-.16.164h-.004l-1.508 1.492-2.203 2.188-11.13 11.039-14.843-14.72-.274-.272-.27-.274-.53-.555-.266-.28-.184-.2-.074-.082-.258-.285-.058-.063-.2-.226-.253-.29-.25-.288-.25-.293-.246-.297-.243-.297-.242-.301-.476-.602-.235-.304-.46-.617-.223-.309-.008-.008-.219-.305-.656-.949-.211-.32-.125-.191-.086-.13-.21-.324-.407-.648-.2-.328-.199-.332-.195-.328-.191-.332-.04-.075-.148-.261-.187-.336-.184-.336-.36-.68-.171-.344-.176-.34-.168-.347-.168-.344-.16-.347-.164-.348-.156-.352-.102-.23-.055-.117-.152-.352-.148-.355-.29-.711-.14-.356-.14-.36-.266-.718-.13-.363-.124-.36-.121-.363-.067-.207-.054-.16-.118-.363-.113-.367-.219-.735-.101-.371-.07-.246-.032-.121-.101-.371-.032-.13-.062-.241-.094-.371-.027-.114-.063-.261-.047-.204-.039-.168-.007-.039-.02-.09-.043-.195-.012-.05-.015-.07-.012-.067-.004-.02.11.11.316.273.133.11.191.148.336.246.348.23.36.215.366.196.13.062.25.117.382.164.39.145.4.125.401.11.41.09.41.07.415.054.418.031.418.016.406-.004h.012l.418-.023.414-.043.414-.063.41-.078.406-.102.403-.117.394-.133.387-.152-.004-.012.004-.004 3.39-1.39 1.438-.594 9.11-3.738Zm0 0"/>
    <path fill="#f9f9f9" d="M31.36 33.281V21.582h39.206l-.242.777-.433 1.395c-.106.34-.246.617-.317.617-.07 0-.804-.18-1.629-.398a21 21 0 0 0-6.703-.692c-4.117.219-7.558 1.356-11.09 3.66-1.465.957-2.687 2.102-10.226 9.563l-8.567 8.476Zm52.75 21.367c-.067-12.101-.079-12.52-.43-14.062-.7-3.094-1.711-5.45-3.465-8.078-1.156-1.735-3.953-4.434-5.918-5.711l-1.66-1.082-.614-1.973c-.34-1.086-.617-2.015-.617-2.066 0-.055 3.88-.094 8.617-.094h8.618l-.067 14.973c-.07 16.238-.062 16.054-1.05 20.691-.665 3.125-2.16 7.656-3.126 9.453-.191.36-.234-1.426-.289-12.05M51.203 86.445c-9.062-9.03-9.996-10.07-12.512-13.957-1.46-2.258-3.386-6.101-4.336-8.648-.683-1.84-1.835-5.664-1.835-6.09 0-.152.34 0 .996.441 1.98 1.34 4.507 1.868 6.73 1.403.723-.149 4.328-1.535 9.184-3.528l7.996-3.28.043 2.609.047 2.609-4.891 7.266-4.887 7.265 16.707.082 16.703.082-.84 1.23c-1.898 2.77-3.55 4.563-11.699 12.68-4.687 4.668-8.566 8.493-8.62 8.493-.051 0-4.005-3.895-8.786-8.657m0 0"/>
    <path fill="#f9f9f9" d="M56.07 67.488c.309-.472 1.723-2.636 3.149-4.812l2.59-3.95v-7.742l1.738-.71c.953-.391 1.734-.797 1.738-.899 0-.102-.344-1.004-.762-2-.703-1.676-.789-1.805-1.117-1.676-.195.074-5.605 2.293-12.023 4.934-11.188 4.597-11.711 4.797-12.746 4.797-1.817.008-3.285-.852-4.258-2.485-.332-.558-.445-1.008-.504-1.992-.133-2.308-.328-2.062 8.707-11.047 4.34-4.316 8.488-8.297 9.215-8.843 3.691-2.782 8.629-4.047 13.074-3.348 1.77.277 3.39.707 3.39.898 0 .067-.406 1.332-.91 2.813-.5 1.484-.91 2.793-.91 2.91 0 .156.399.207 1.54.207h1.539l.64-2.055c.352-1.133.688-2.09.746-2.125s.422.89.813 2.059l.703 2.121h1.582c1.375 0 1.562-.031 1.476-.258-.19-.488-.3-1.055-.21-1.055.156 0 1.52 1.848 2.12 2.875.856 1.465 1.63 3.418 2.008 5.083.325 1.41.344 2.109.407 14.32l.066 12.844h-24.36Zm.043-30.164c1.211-1.129.684-3.172-.937-3.605-.543-.145-.774-.121-1.383.148-1.156.508-1.602 1.828-1 2.977.582 1.117 2.36 1.37 3.32.48m0 0"/>
</svg>
