<svg xmlns="http://www.w3.org/2000/svg" width="120" height="120" viewBox="0 0 120 120">
    <path d="M57.375 8.813v8.398H49.5v5.25h7.875v14.586l-.852-1.149-.156-.21-.457-.504-1.36-1.5-2.003-1.817-2.172-1.61-2.32-1.39-2.446-1.156-2.547-.91-2.167-.543-.454-.117-2.675-.395-2.703-.133-2.704.133-.066.008-2.605.387-2.625.66-2.547.91-.825.39-1.62.766-1.446.867-.875.524-2.172 1.61-2.004 1.816-1.36 1.5-.456.504-1.613 2.175-1.391 2.32-1.156 2.446-.414 1.156-.496 1.387-.024.09-.633 2.535-.398 2.676-.008.144-.008.184-.008.164-.007.14-.004.118-.008.097v.067l-.004.031-.063.07-.023.032-.168.226-.168.277-.137.29-.027.074-.082.23-.078.313-.047.316-.016.324.016.32.047.317.078.313.008.02.101.284.063.133-.012.008-.066.027 13.613 32.86v23.335h78.75V87.852l13.613-32.86-.015-.008-.047-.02-.016-.007.063-.133.101-.285.008-.02.078-.312.047-.316.016-.32-.016-.325-.047-.316-.078-.313-.082-.23-.027-.075-.137-.289-.168-.277-.168-.226-.023-.032-.063-.07v-.016l-.004-.09-.012-.214-.023-.45-.008-.175-.398-2.676-.633-2.535-.023-.086-.91-2.547-.696-1.473-.46-.972-1.392-2.32-1.457-1.962-.156-.21-.457-.508-1.36-1.5-2.003-1.813-2.172-1.613-.875-.524-1.445-.867-2.446-1.156-2.546-.91-.434-.11-2.192-.55-2.671-.395-2.704-.133-2.703.133-2.675.395-2.368.593-.254.067-1.636.586-.91.324-2.446 1.156-2.32 1.39-2.172 1.614-2.004 1.813-1.36 1.5-.456.507-1.008 1.356V22.46H70.5v-5.25h-7.875V8.813Zm-22.312 22.05 2.187.106 2.164.324 1.48.367.645.164 2.063.738 1.98.934 1.879 1.125.754.563 1.004.742 1.62 1.472 1.47 1.622 1.304 1.757 1.13 1.88.933 1.98.738 2.062.531 2.125.32 2.164.07 1.399.04.789v34.387H26.188l-2.829-6.825-2.734-6.605-1.883-4.543-3.562-8.602-1.715-4.136-.125-.305-.242-.586-.07-.172-.06-.14-.05-.122-.04-.093-.026-.067-.016-.039-.004-.012.121-.199.137-.293.105-.285.004-.02.078-.312.047-.316.016-.32-.016-.325-.047-.316-.078-.313-.082-.23-.027-.075-.137-.289-.137-.226.004-.055.008-.16.031-.594.102-.699.219-1.465.16-.648.37-1.477.74-2.062.402-.852.53-1.129 1.13-1.879 1.304-1.757 1.47-1.622 1.339-1.214.281-.258 1.004-.742.758-.563 1.023-.613.852-.512 1.98-.934 2.063-.738 2.125-.531 1.582-.234.582-.09Zm49.875 0 2.187.106 2.164.324 2.125.531 1.09.387.973.352 1.98.933 1.875 1.125.758.563 1.004.742.281.258 1.34 1.214 1.469 1.622 1.304 1.757 1.13 1.88.933 1.98.738 2.062.371 1.477.16.648.22 1.465.019.14.039.247.03.219.017.093.003.102.008.172.008.148.008.133.004.11.004.081.004.051v.012l-.137.226-.137.29-.027.074-.082.23-.078.313-.047.316-.016.324.016.32.047.317.078.313.008.02.101.284.137.293.098.164.023.035-.012.032-.02.043-.011.035-.465 1.12-4.457 10.763-.004.007-.195.465-.746 1.809-1.883 4.543-2.734 6.605-2.829 6.825H62.626V53.176l.04-.79.07-1.398.32-2.168.53-2.12.74-2.063.937-1.98 1.125-1.88 1.304-1.757 1.47-1.622 1.62-1.472 1.004-.742.758-.563 1.879-1.125.879-.414 1.097-.52 2.063-.738 2.125-.531 2.164-.324Zm-59.063 61.95h68.25v13.124h-68.25Zm12.89 3.726-2.6 2.598 2.6 2.601 2.598-2.601Zm14.122 0-2.598 2.598 2.598 2.601 2.597-2.601Zm14.226 0-2.597 2.598 2.597 2.601 2.598-2.601Zm14.121 0-2.597 2.598 2.597 2.601 2.602-2.601Zm0 0"/>
    <path fill="#f9f9f9" d="M19.55 71.414c-6.542-15.812-6.636-16.059-6.421-16.578.297-.707.277-1.82-.04-2.617-.237-.598-.241-.782-.007-2.278 1.621-10.43 9.957-18.168 20.36-18.902 5.093-.363 9.93.926 14.062 3.738 5.723 3.899 9.125 9.77 9.703 16.75.09 1.086.156 9.172.16 18.918v17.028l-31.18-.008Zm43.083-.969c.004-9.746.07-17.832.16-18.918.46-5.539 2.645-10.261 6.535-14.132a21.92 21.92 0 0 1 13.957-6.364c8.528-.605 16.43 3.528 20.848 10.907 1.316 2.199 2.445 5.507 2.844 8.332.164 1.132.152 1.402-.07 1.957-.313.789-.333 1.906-.04 2.605.215.516.11.79-6.418 16.578l-6.636 16.055-31.18.008ZM25.95 99.355v-6.46h68.1v12.918h-68.1Zm14.277-1.515c-.7-.703-1.348-1.278-1.438-1.278-.094 0-.738.575-1.437 1.278l-1.266 1.273 1.348 1.36 1.351 1.355 2.711-2.71Zm13.992-.04-1.313-1.312-1.36 1.348-1.355 1.352 1.313 1.32 1.316 1.32 1.356-1.355 1.355-1.36Zm14.234.044-1.355-1.36-1.313 1.317-1.316 1.312 1.351 1.356 1.352 1.36 1.32-1.317 1.32-1.313Zm14.152-.043-1.312-1.313-1.356 1.348-1.355 1.352 2.625 2.64 2.715-2.715Zm0 0"/>
</svg>
