<svg xmlns="http://www.w3.org/2000/svg" width="120" height="120" viewBox="0 0 120 120">
    <path d="m60 9.938-1.8.09-1.786.265-1.746.437-1.7.606-.034.02-.286.132-1.308.621-1.547.926-1.45 1.074-1.335 1.211-1.211 1.336-1.074 1.45-.93 1.546-.14.305-.63 1.324-.605 1.7-.441 1.75-.262 1.78-.09 1.802.012.246.078 1.554.262 1.785.441 1.75.605 1.696.77 1.633.113.183.817 1.363 1.074 1.446 1.21 1.336 1.337 1.21 1.449 1.075 1.547.93.785.37v17.548H39v15.75h12.832l-.016.148-.046.387-.047.382-.11.766-.043.297-.015.086-.059.383-.066.379-.067.382-.07.38-.074.378-.157.758-.085.375-.086.379-.18.75-.012.05-.086.325-.097.375-.102.371-.105.375-.106.371-.113.371-.227.735-.12.37-.126.364-.125.367-.097.278-.032.085-.265.727-.137.363-.14.36-.145.36-.149.355-.148.359-.152.351-.153.356-.32.703-.129.281-.035.07-.336.696-.172.348-.176.343-.18.344-.18.34-.183.344-.375.672-.191.335-.195.336-.2.332-.082.141-.117.192-.406.656-.633.972-.117.168-.102.153-.218.316-.22.32-.226.313-.222.312-.23.313-.231.309-.211.277-.024.031-.476.61-.242.3-.02.024-.227.277-.492.594-.508.586-.253.289-.258.289-.13.14H33.75l-.68.09-.633.262-.542.418-.418.543-.262.633-.09.68.09.68.262.632.418.543.543.418.632.262.68.09h52.5l.68-.09.632-.262.543-.418.418-.543.262-.633.09-.68-.09-.68-.262-.632-.418-.543-.543-.418-.632-.262-.68-.09h-6.008l-.129-.14-.258-.29-.253-.288-.508-.586-.492-.594-.149-.176-.098-.125-.242-.3-.476-.61-.024-.031-.207-.277-.234-.31-.68-.937-.219-.32-.218-.316-.22-.32-.632-.973-.406-.656-.117-.192-.082-.14-.2-.333-.195-.335-.191-.336-.375-.672-.184-.344-.18-.34-.18-.344-.175-.343-.172-.348-.336-.695-.035-.07-.129-.282-.32-.703-.153-.356-.152-.351-.148-.36-.149-.355-.144-.36-.14-.359-.138-.363-.265-.727-.032-.085-.097-.278-.125-.367-.125-.363-.117-.371-.118-.368-.113-.367-.058-.187-.055-.184-.106-.37-.105-.376-.102-.371-.097-.375-.086-.324-.012-.051-.18-.75-.086-.379-.085-.375-.157-.758-.074-.379-.07-.379-.067-.382-.066-.38-.059-.382-.015-.086-.043-.297-.11-.766-.047-.382-.046-.387-.016-.148H81v-15.75H67.875V44.89l.785-.371 1.192-.715.355-.215 1.45-1.074 1.335-1.211 1.211-1.336 1.074-1.446.817-1.363.113-.183.77-1.633.609-1.696.437-1.75.262-1.785.078-1.554.012-.247-.09-1.8-.262-1.782-.437-1.75-.61-1.699-.628-1.324-.141-.305-.93-1.547-1.074-1.449-1.21-1.336-1.337-1.21-1.449-1.075-.355-.21-1.192-.716-1.594-.754-.035-.02-1.699-.605-1.746-.437-1.785-.266Zm0 5.25 1.25.062h.035l1.274.191 1.25.313 1.214.434 1.165.55 1.105.66 1.035.77.953.863.57.633.266.293.028.031.77 1.035.66 1.102.55 1.164.434 1.215.316 1.25.188 1.273.062 1.285-.012.247-.05 1.043-.188 1.273-.316 1.25-.434 1.21-.55 1.165-.66 1.105-.77 1.036-.293.32-.176.2-.395.433-.953.863-1.035.77-1.106.664-1.164.55-1.214.434-1.25.313-1.274.187-.035.004-1.25.059-1.285-.063-1.274-.187-1.25-.313-1.214-.434-1.164-.55-1.106-.664-.059-.043-.976-.727-.953-.863-.395-.434-.469-.52-.77-1.035-.66-1.105-.55-1.164-.434-1.211-.312-1.25-.191-1.273-.051-1.043-.012-.247.063-1.285.19-1.273.313-1.25.434-1.215.55-1.164.66-1.102.77-1.035.028-.031.836-.926.953-.863.976-.723.059-.047 1.105-.66 1.165-.55 1.214-.434 1.25-.313 1.274-.191Zm-2.625 31.289.824.125 1.801.086 1.8-.086.825-.125v21.21H75.75v5.254h-7.875v-.004h-5.25v.415l.008.41.008.414.011.41.012.414.02.41.02.414.003.043.02.367.03.414.028.41.035.41.078.821.043.41.047.41.051.41.055.407.031.242.023.168.059.406.063.41.066.407.07.406.149.812.078.403.082.406.086.402.09.403.015.078.074.324.094.402.098.399.101.402.211.797.114.394.113.399.234.789.125.395.125.39.13.395.132.39.133.387.14.39.141.387.29.774.304.765.156.38.016.042.144.34.16.38.168.378.168.375.344.75.176.371.183.371.18.371.375.735.121.23.07.133.391.726.61 1.079.125.214.085.141.211.352.215.355.215.348.219.351.223.348.168.254.058.09.227.343.23.344.234.34.235.336.238.336.242.336.243.332.246.332.25.328.015.023H46.594l.015-.023.25-.328.246-.332.243-.332.242-.336.238-.336.234-.336.235-.34.23-.344.227-.343.059-.09.167-.254.223-.348.219-.351.215-.348.215-.355.21-.352.211-.355.61-1.079.39-.726.07-.133.122-.23.375-.735.183-.37.102-.216.078-.156.176-.371.172-.375.097-.215.075-.16.168-.375.168-.379.16-.379.144-.34.016-.043.156-.379.305-.765.289-.774.14-.386.141-.391.133-.387.133-.39.129-.395.125-.39.125-.395.234-.79.117-.397.11-.395.21-.797.102-.402.098-.399.094-.402.074-.324.015-.078.09-.403.086-.402.082-.406.078-.403.149-.812.07-.406.066-.407.063-.41.059-.406.023-.168.031-.242.055-.406.05-.41.048-.41.043-.41.078-.821.035-.41.027-.41.031-.415.02-.367.004-.043.02-.414.019-.41.012-.414.011-.41.008-.414.008-.41v-.415h-5.25v.004H44.25v-5.254h13.125Zm0 0"/>
    <path fill="#f9f9f9" d="M56.785 40.93c-2.43-.645-4.07-1.594-5.91-3.426-1.39-1.379-1.77-1.902-2.5-3.422-1.125-2.355-1.371-3.445-1.348-5.973.016-1.683.114-2.375.496-3.547 1.852-5.656 6.77-9.285 12.575-9.269 1.992.004 3.785.45 5.797 1.445 3 1.48 5.511 4.38 6.48 7.477 2.16 6.902-1.453 14.144-8.187 16.418-2.184.738-5.282.863-7.403.297m-8.992 62.34c5.59-7.778 9.148-18.063 9.508-27.446l.113-2.988H44.25v-5.129h13.105V46.676l2.563.008 2.566.004v21.019H75.59v5.129h-6.45c-3.82 0-6.488.07-6.554.176-.184.297.254 5.843.652 8.3 1.278 7.82 4.48 15.672 8.953 21.942.512.715.926 1.34.926 1.39 0 .055-5.933.098-13.187.098H46.738Zm0 0"/>
</svg>
