<svg xmlns="http://www.w3.org/2000/svg" width="120" height="120" viewBox="0 0 120 120">
    <path d="M6.188 7.895v15.75h.011l.012.355.031.574.047.57.055.57.07.567.078.567.024.129.07.437.105.563.118.562.132.555.141.554.156.555.164.547.18.543.188.543.203.535.215.531.222.528.238.52.247.515.257.512.028.046.242.457.055.098.226.402.293.493.3.488.317.48.32.473.337.465.168.223.175.234.352.45.363.444.129.149.246.285.383.426.39.418.399.41.41.402.418.39.426.384.437.37.442.364.449.356.457.343.219.153.25.18.398.273.07.05.481.313.488.3.492.294.5.281.504.27.512.257.516.25.523.235.215.094.309.132.53.211.54.203.539.192.543.176.55.168.552.152.554.144.184.043.375.086.43.09v63.531h65.625v-63.53l.43-.09.558-.13.554-.144.551-.152.29-.09.261-.078.543-.176.54-.192.538-.203.531-.21.524-.227.523-.235.516-.25.512-.257.504-.27.5-.281.492-.293.488-.3.48-.313.473-.325.25-.18.215-.156.223-.164.234-.175.254-.2.195-.156.442-.363.437-.371.426-.383.418-.395.41-.398.398-.41.395-.418.379-.426.246-.285.129-.149.363-.445.352-.45.175-.233.168-.223.336-.465.32-.473.317-.48.3-.488.294-.493.226-.402.055-.098.27-.503.257-.512.247-.516.238-.52.222-.527.215-.53.203-.536.168-.477.02-.066.18-.543.164-.547.156-.555.14-.554.133-.555.118-.562.105-.563.094-.566.078-.567.07-.566.059-.57.043-.57.031-.575.012-.355h.011V7.895h-21v10.5h-7.874v-10.5h-21v10.5h-7.876v-10.5h-21v10.5h-7.874v-10.5Zm5.25 5.246h10.5v10.504h18.375V13.14h10.5v10.504h18.374V13.14h10.504v5.254h-.004v5.25h18.376V13.14h10.503v9.714l-.007.516-.02.516-.031.511-.043.516-.059.512-.07.512-.082.507-.094.508-.004.024-.101.48-.121.5-.13.5-.144.496-.156.488-.168.489-.18.484-.191.477-.164.386-.04.09-.214.469-.227.46-.234.462-.25.449-.258.445-.273.438-.282.433-.289.426-.304.418-.16.211-.153.2-.32.402-.332.394-.34.387-.352.375-.359.371-.371.36-.375.351-.387.34-.394.332-.403.324-.41.313-.418.3-.16.11-.266.183-.433.282-.438.27-.445.257-.453.25-.457.238-.461.227-.469.21-.476.204-.403.164-.074.027-.484.18-.489.168-.488.156-.496.145-.352.093-.148.036-.5.12-.504.106-.508.094-.507.082-.512.07-.512.059-.516.043-.511.031-.516.02-.43.003h-.085v52.5H32.438v-52.5h-.086l-.426-.003-.516-.02-.515-.031-.516-.043-.512-.059-.508-.07-.511-.082-.504-.094-.508-.105-.5-.121-.148-.036-.352-.093-.453-.133-.04-.012-.491-.156-.489-.168-.48-.18-.48-.191-.473-.203-.47-.211-.464-.227-.457-.238-.453-.25-.004-.004-.441-.254-.438-.27-.433-.28-.422-.294-.418-.3-.41-.313-.403-.324-.394-.332-.387-.34-.379-.352-.176-.171-.191-.188-.36-.367-.351-.38-.344-.386-.332-.394-.32-.403-.153-.199-.16-.21-.3-.419-.293-.426-.282-.43-.27-.44-.26-.446-.247-.45-.238-.46-.227-.461-.215-.469-.039-.09-.164-.382-.191-.48-.18-.485-.168-.485-.156-.492-.14-.496-.134-.5-.117-.5-.101-.48-.008-.024-.094-.508-.082-.508-.07-.511-.055-.512-.047-.512-.031-.515-.02-.516-.004-.516Zm21 88.464h55.125v5.254H32.438Zm0 0"/>
    <path fill="#f9f9f9" d="m32.473 70.008-.051-26.23-1.777-.126c-8.106-.574-15.336-6.23-18.008-14.082-.918-2.695-1.063-4.097-1.063-10.414V13.25h10.278v10.473h18.574V13.25h10.273v10.473h18.574V13.25h10.274v10.473H98.12V13.25h10.305l-.082 6.668c-.074 6.082-.117 6.8-.508 8.176a25.5 25.5 0 0 1-2.465 5.77c-1.183 2.019-4.875 5.675-6.965 6.89-3.015 1.762-5.836 2.66-9.078 2.894l-1.777.13-.102 52.46H32.523Zm.047 34.234v-2.472h54.933v4.94H32.52Zm0 0"/>
</svg>
