<svg xmlns="http://www.w3.org/2000/svg" width="120" height="120" viewBox="0 0 120 120">
    <path d="m60 9.863-.516.024-.507.078-.5.125-.485.172-.469.218-.28.172-.161.094-.414.309-.379.343-.348.383-.308.414-.262.442-.223.465-.171.488-.024.09-.101.41-.079.508-.023.515.023.516.079.508.125.5.171.484.223.465.234.394.028.051.308.41.348.383.379.348.414.305.16.097.133.078v3.489h-.004l-.129.015-2.93.438-2.996.75-2.91 1.043-2.797 1.32-2.652 1.59-2.48 1.84-.399.363-.187.168-.852-.852-.793-.796-.953-.95-.137-.136-.02-.024.005-.015.05-.207.079-.512.023-.512-.004-.082-.02-.434-.003-.027-.075-.484-.125-.5-.171-.485-.223-.465-.262-.44-.308-.415L35.8 23l-.012-.012-.031-.039-.02-.015-.363-.329-.414-.308-.441-.266-.465-.218-.489-.172-.5-.13-.507-.073-.516-.024-.516.023-.09.012-.417.063-.5.129-.485.172-.465.218-.445.266-.164.125-.246.183-.383.344-.348.383-.304.414-.266.442-.223.464-.171.485-.125.5-.075.511-.023.434-.004.082.027.512.075.512.125.5.171.484.223.465.266.441.304.414.348.383.05.047.333.297.246.183.164.125.445.266.465.219.485.175.5.125.418.063.09.012.515.027.516-.027.507-.075.438-.109.039.04.09.093.078.078.035.031 2.457 2.457-.094.102-.504.68-1.335 1.804-1.59 2.649-1.325 2.797-1.039 2.91-.351 1.402-.399 1.598-.21 1.414-.247 1.64-.047.989-.101 2.101.148 3.086.457 3.059.75 3 1.04 2.91 1.324 2.793.152.254 1.438 2.398 1.84 2.485.093.101-.012.008-2.515 2.516-.082.086-.051.05-.016.012-.328-.082-.511-.078-.512-.023-.516.023-.223.035-.285.043-.5.125-.488.172-.465.223-.441.261-.328.246-.086.063-.383.348-.016.015-.328.363-.308.415-.266.44-.219.47-.172.484-.125.5-.078.508-.023.516.008.18.015.335.078.508.125.5.172.484.219.47.266.44.308.415.344.378.383.348.117.086.297.223.195.113.246.148.465.223.488.172.5.125.508.078.516.023.511-.023.512-.078.5-.125.485-.172.464-.223.25-.148.196-.113.41-.309.363-.328.055-.055.312-.343.305-.415.266-.44.222-.47.172-.484.125-.5.074-.508.02-.336.008-.18-.028-.515-.074-.508-.082-.332 2.649-2.648.148.132.438.395 2.48 1.844 2.652 1.59 2.797 1.32.832.297.63.226-.056.14-.171.43-.293.731-.227.574-9.043 22.606-.617 1.543h42l-6.512-16.274-3.148-7.875-.219-.547-.3-.754-.177-.433-.054-.14.629-.227.836-.297 1.3-.617.63-.297.863-.406 2.652-1.59 2.48-1.844.102-.09.012.008 2.203 2.203-.082.332-.074.508-.028.516.028.515.074.508.125.5.172.484.222.47.266.44.305.415.312.343.035.035.016.02.367.328.41.309.196.113.25.148.464.223.485.172.5.125.508.078.515.023.516-.023.508-.078.5-.125.488-.172.465-.223.246-.148.195-.113.414-.309.383-.348.031-.035.078-.09.235-.253.078-.106.23-.309.262-.44.223-.47.172-.484.125-.5.078-.508.023-.516-.023-.515-.078-.508-.125-.5-.172-.484-.223-.47-.262-.44-.23-.31-.078-.105-.235-.253-.093-.11-.016-.015-.383-.348-.086-.063-.328-.246-.441-.261-.465-.223-.488-.172-.5-.125-.508-.078-.516-.023-.515.023-.508.078-.328.082-.176-.176-.871-.867-.606-.61-.382-.378-.157-.16.25-.278.278-.304 1.843-2.485 1.434-2.398.152-.254 1.325-2.793 1.039-2.91.753-3 .293-1.996.16-1.063.153-3.086-.106-2.101-.046-.989-.16-1.058-.294-1.996-.753-3-1.04-2.91-1.324-2.797-1.586-2.649-.859-1.16-.48-.644-.504-.68-.528-.582.055-.059 1.953-1.949.086-.086.074-.078.047-.047.438.11.414.062.093.012.516.027.516-.027.507-.075.387-.097.113-.027.485-.176.465-.219.445-.266.41-.308.332-.297.031-.031.02-.016.293-.32.055-.063.304-.414.266-.441.223-.465.171-.485.125-.5.075-.511.027-.512-.004-.082-.023-.434-.075-.511-.125-.5-.171-.485-.223-.465-.266-.44-.304-.415-.055-.062-.258-.282-.035-.039-.02-.015-.363-.329-.41-.308-.445-.266-.465-.218-.485-.172-.113-.032-.387-.097-.507-.075-.516-.023-.516.023-.093.016-.414.059-.5.129-.489.172-.465.218-.44.266-.415.308-.383.344-.031.04-.012.011-.3.332-.31.414-.26.442-.224.464-.058.16-.113.325-.09.347-.035.153-.079.511-.02.434-.003.082.023.512.079.512.054.222-.02.02-.07.074-.066.066-1.535 1.532-.422.425-.207.203-.102-.093-2.48-1.84-2.652-1.59-.864-.406-1.93-.914-2.913-1.043-2.997-.75-3.058-.453-.922-.047v-3.442l.293-.175.414-.305.379-.348.348-.383.308-.41.028-.05.234-.395.223-.465.171-.484.125-.5.079-.508.023-.516-.023-.515-.079-.508-.101-.41-.024-.09-.171-.488-.223-.465-.262-.442-.308-.414-.348-.383-.379-.343-.414-.309-.441-.266-.47-.218-.464-.164-.02-.008-.5-.125-.507-.078Zm.46 18.375 2.571.125 2.551.38 2.496.624 2.426.867 2.328 1.102 1.613.969.598.355 2.07 1.535 1.09.989.817.742 1.73 1.91 1.535 2.066 1.324 2.211 1.102 2.328.867 2.426.625 2.5.379 2.547.023.473.106 2.101-.129 2.57-.379 2.551-.625 2.496-.11.313-.202.566-.399.38-.82.714-.856.68-.886.637-.914.593-.942.555-.965.508-.988.465-1.008.418-1.027.37-1.043.321-.973.254-.086.023-1.066.223-1.078.176-1.082.129-1.09.074-1.09.023-1.094-.023-1.086-.074-.93-.11-.156-.02-1.078-.175-1.066-.223-1.059-.277-1.039-.32-1.027-.371-1.008-.418-.988-.465-.965-.508-.215-.125-.726-.43-.918-.593-.883-.637-.856-.68-.824-.715-.789-.754-.754-.789-.719-.824-.003-.008-.672-.847-.637-.887-.598-.914-.55-.942-.512-.964-.461-.989-.418-1.008-.371-1.027-.317-1.023-.007-.02-.274-1.054-.226-1.07-.176-1.075-.125-1.086-.074-1.09-.028-1.09.028-1.09.07-1.027.004-.062.125-1.086.176-1.075.226-1.07.274-1.054.324-1.043.37-1.028.419-1.008.46-.988.102-.187.41-.778.551-.941.598-.914.637-.887.675-.855.72-.825.194-.203.84-.3.313-.114 2.496-.625 1.906-.281.645-.098Zm-18.624 7.758-.195.531-.364 1.137-.316 1.152-.27 1.16-.222 1.172-.172 1.184-.121 1.188-.074 1.19-.024 1.192.024 1.196.074 1.191.12 1.184.173 1.183.222 1.172.13.559.14.605.316 1.149.364 1.136.41 1.121.457 1.106.504 1.082.543 1.059.59 1.039.19.304.442.707.547.801.125.184.715.957.754.925.789.899.828.86.86.827.894.79.926.75.957.714.183.125.094.063.707.484 1.016.633 1.035.59 1.063.547.972.453.11.05 1.101.454 1.121.414 1.137.363 1.152.317 1.164.27 1.172.218 1.18.172 1.187.125 1.192.074 1.191.023 1.196-.023 1.19-.074 1.188-.125 1.18-.172.742-.14.43-.079 1.164-.27 1.152-.316 1.137-.363.813-.3-.02.022-.101.11-.016.016-.336.304-.64.582-.915.828-2.07 1.535-.598.36-1.613.965-2.328 1.101-2.426.867-2.496.63-2.55.374-2.571.13-2.574-.13-.645-.093-1.906-.282-2.496-.629-2.426-.867-2.328-1.101-2.211-1.325-2.07-1.535-1.907-1.73-1.73-1.906-.09-.125-.039-.047-1.02-1.38-.386-.519-1.324-2.207-1.102-2.332-.867-2.426-.625-2.496-.38-2.55-.124-2.57.102-2.102.023-.473.379-2.547.625-2.5.867-2.426 1.102-2.328 1.324-2.21 1.445-1.946.09-.121.078-.086.309-.344.285-.312.265-.293Zm13.32 49.512.574.086 1.512.222.13.02 3.089.152 3.086-.152 2.215-.328.093.215.118.265 8.27 18.903H46.675l8.27-18.903.023-.05.152-.352Zm0 0"/>
    <path fill="#fff" d="M66.46 69.309c-7.784-.813-14.964-5.754-18.476-12.711-4.18-8.282-3.125-18.45 2.633-25.434 1.192-1.445 1.61-1.652 4.594-2.277 2.781-.582 6.96-.657 9.687-.168 7.668 1.367 14.297 6.004 18.239 12.754 3.437 5.89 4.367 13.363 2.5 20.054-.461 1.649-.766 1.98-3.664 3.938-3.235 2.187-6.907 3.488-10.938 3.87-2.25.212-2.312.212-4.574-.026m0 0"/>
    <path fill="#fff" d="M59.3 80.61c-9.316-.36-18.023-6.024-22.241-14.47-4.188-8.386-3.547-18.257 1.703-26.19.988-1.493 2.55-3.407 2.675-3.278.036.035-.097.617-.296 1.289-.817 2.758-1.043 4.527-1.032 8.078.012 2.777.094 3.797.434 5.418 1.25 5.895 3.812 10.652 8.004 14.844 4.207 4.207 8.894 6.734 14.844 8.004 2.886.617 7.949.625 10.968.02 1.164-.235 2.48-.555 2.922-.712s.895-.281 1.008-.281c.348 0-1 1.258-2.523 2.356-4.75 3.417-10.54 5.152-16.465 4.921m-12.375 23.965c.066-.183 1.937-4.508 4.156-9.61l4.035-9.273 1.805.145c2.32.184 4.762.184 7.039-.004l1.805-.152 4.14 9.468c2.278 5.211 4.137 9.536 4.137 9.614s-6.129.144-13.621.144c-12.89 0-13.613-.02-13.496-.332m0 0"/>
    <path fill="#f9f9f9" d="m49.7 104.727-2.7-.114 4.047-9.32 4.043-9.32 3.508.05c1.925.028 4.316-.015 5.312-.093l1.805-.149 2.867 6.563c4.563 10.449 5.29 12.164 5.203 12.246-.14.137-21.273.258-24.086.137m7.375-24.367c-7.23-1.016-14.23-5.376-18.191-11.333-4.446-6.675-5.63-14.988-3.203-22.468.652-2.008 2.11-5 3.215-6.618 1.062-1.539 2.214-2.984 2.308-2.89.035.035-.148.914-.414 1.953-.652 2.562-.902 6.105-.668 9.379.89 12.457 10.223 23.05 22.82 25.914 2.145.484 6.883.676 9.442.379a35 35 0 0 0 3.707-.68c.988-.25 1.832-.414 1.879-.367.246.246-3.82 3.125-5.871 4.16-1.746.879-4.274 1.738-6.438 2.195-2.117.446-6.672.645-8.586.375m0 0"/>
    <path fill="#f9f9f9" d="M65.074 69.035c-5.761-1.012-11.304-4.39-14.781-9.012-6.461-8.59-6.297-20.586.402-28.808 1.032-1.266 1.88-1.688 4.465-2.223 2.43-.504 7.43-.605 9.7-.199 5.19.93 10.234 3.574 13.98 7.34 3.863 3.87 6.285 8.484 7.254 13.797.715 3.906.25 10.129-.938 12.55-1.015 2.07-6.687 5.282-11.113 6.293-2.254.516-6.773.649-8.969.262m0 0"/>
    <path fill="#f9f9f9" d="M65.035 69.035c-4.832-.875-9.14-3.156-12.738-6.742-4.496-4.48-6.723-9.98-6.703-16.55.011-5.204 1.601-10.013 4.597-13.903 1.364-1.774 1.93-2.145 4.008-2.633 8.985-2.105 18.082.395 24.473 6.734 3.91 3.88 6.172 8.04 7.332 13.493.59 2.761.586 7.386-.012 10.195-.707 3.32-.965 3.7-3.824 5.61-4.168 2.78-8.61 4.109-13.598 4.073-1.152-.011-2.742-.132-3.535-.277m0 0"/>
    <path fill="#f9f9f9" d="M56.492 80.273c-7.097-1.183-13.73-5.437-17.68-11.34-3.109-4.648-4.55-9.761-4.332-15.39.149-3.93 1.004-7.266 2.754-10.746 1.196-2.387 3.711-6.004 3.985-5.73.047.046-.09.71-.301 1.48-.637 2.281-.797 3.797-.793 7.492 0 2.773.082 3.902.387 5.41.808 3.965 2.496 7.895 4.785 11.125 1.375 1.942 4.64 5.293 6.394 6.567 7.278 5.265 15.63 6.921 24.371 4.84 1.09-.262 2.012-.442 2.051-.403.04.043-.508.547-1.218 1.121-3.207 2.614-6.887 4.356-11.18 5.301-2.293.504-7 .645-9.223.273m0 0"/>
</svg>
