<svg xmlns="http://www.w3.org/2000/svg" width="120" height="120" viewBox="0 0 120 120">
    <path d="M26.063 16.426V48.3l.003.414.012.41.008.414.016.41.02.414.019.41.023.414.008.09.02.32.03.41.036.415.035.41.086.82.047.41.05.407.051.41.059.406.043.293.016.117.062.407.066.406.07.41.071.402.156.813.082.402.086.406.086.403.094.402.094.399.097.402.102.398.21.797.11.399.114.394.117.399.12.394.122.39.129.395.02.067.109.324.129.39.136.391.137.387.14.39.145.383.149.387.304.766.157.382.16.38.05.12.11.262.164.375.172.38.168.374.176.371.175.375.078.156.102.215.184.367.375.735.191.367.117.219.078.144.196.364.199.359.203.36.414.71.211.356.215.351.219.352.218.348.446.695.23.344.016.023.215.316.23.34.238.34.239.336.242.336.242.332.246.328.004.008.246.324.25.324.254.325.258.324.258.32.261.32.024.028.242.289.266.312.539.625.273.309.555.61.281.3.285.3.285.298.024.023.265.27.29.293L60 103.574l18.563-18.562.578-.586.285-.297.164-.176.12-.125.278-.3.282-.305.277-.305.273-.309.54-.625.265-.312.242-.29.024-.027.261-.32.258-.32.258-.324.254-.325.25-.324.25-.332.246-.328.223-.305.02-.027.241-.336.239-.336.468-.68.215-.316.016-.023.23-.344.446-.695.218-.348.22-.352.214-.351.21-.356.415-.71.203-.36.2-.36.195-.363.023-.039.172-.324.191-.367.375-.735.184-.367.102-.215.078-.156.175-.375.176-.37.168-.376.172-.379.164-.379.11-.258.05-.12.16-.38.157-.382.304-.766.149-.387.144-.382.14-.391.138-.387.136-.39.13-.391.109-.324.02-.067.128-.394.121-.39.121-.395.117-.399.114-.394.11-.399.21-.797.102-.398.097-.402.004-.02.059-.246.031-.133.094-.402.086-.403.086-.406.082-.402.156-.813.07-.402.07-.41.067-.406.062-.407.016-.117.043-.293.059-.406.05-.41.051-.407.047-.41.086-.82.035-.41.035-.414.032-.41.02-.32.007-.09.023-.415.02-.41.02-.414.015-.41.008-.414.012-.41.004-.414V16.426Zm5.25 5.25h57.375v26.25h.003l-.004.347-.003.387-.008.387-.012.387-.031.773-.02.387-.023.386-.024.297-.004.086-.062.774-.04.383-.038.386-.043.383-.094.766-.05.383-.055.382-.059.383-.062.375v.008l-.067.383-.066.379-.07.379-.075.378-.078.383-.078.375-.082.38-.086.374-.09.38-.187.75-.04.132-.062.238-.101.375-.102.371-.219.742-.113.368-.117.37-.242.735-.13.363-.128.368-.13.363-.003.008-.133.355-.137.36-.14.359-.29.719-.148.355-.152.356-.156.355-.32.703-.165.352-.164.347-.097.196-.075.152-.171.344-.176.344-.36.687-.183.34-.188.34-.187.336-.192.336-.39.664-.203.332-.164.27-.04.058-.203.328-.21.328-.208.324-.43.64-.218.321-.445.633-.227.313-.23.312-.23.309-.235.308-.239.305-.093.121-.031.04-.114.144-.484.601-.246.297-.25.297-.25.293-.254.289-.258.293-.258.285-.523.57-.266.282-.27.277-.1.105-.169.172-.11.11-.16.164h-.003L60 96.148 45.152 81.301h-.004l-.16-.164-.11-.11-.538-.554-.266-.282-.523-.57-.258-.285-.258-.293-.254-.29-.25-.292-.25-.297-.246-.297-.484-.601-.145-.184-.093-.121-.239-.305-.191-.254-.043-.054-.23-.309-.231-.312-.227-.313-.222-.316-.22-.317-.222-.32-.215-.32-.21-.32-.211-.325-.211-.328-.203-.328-.04-.059-.164-.27-.398-.663-.195-.332-.192-.336-.187-.336-.188-.34-.183-.34-.36-.687-.176-.344-.171-.344-.153-.309-.02-.039-.163-.347-.164-.352-.32-.703-.157-.355-.152-.356-.149-.355-.289-.72-.14-.358-.137-.36-.133-.355-.004-.008-.129-.363-.129-.368-.129-.363-.242-.734-.117-.371-.113-.368-.219-.742-.102-.37-.101-.376-.067-.238-.035-.133-.187-.75-.09-.379-.086-.375-.082-.379-.078-.375-.016-.07-.062-.313-.074-.378-.07-.38-.067-.378-.067-.383v-.008l-.062-.375-.059-.383-.054-.383-.051-.382-.094-.766-.043-.383-.039-.386-.039-.383-.062-.774-.004-.086-.024-.297-.023-.386-.02-.387-.031-.773-.012-.387-.008-.387-.003-.387Zm22.125 5.25v10.5h-10.5V50.55h10.5v28.875h13.124V50.55h10.5V37.426h-10.5v-10.5Zm3.937 3.933h5.25v10.5h10.5v5.254h-10.5v28.875h-5.25V46.613h-10.5V41.36h10.5Zm0 0"/>
    <path fill="#5984bd" d="M57.367 61.012V46.605h-10.43v-5.132h10.43V30.879h5.13l.042 5.258.047 5.254 5.254.043 5.258.046v5.125H62.5v28.81h-5.133Zm0 0"/>
    <path fill="#5984bd" d="M51.227 87.21c-5.95-5.976-9.086-9.253-9.946-10.386-5.691-7.527-8.894-15.73-9.73-24.918-.106-1.148-.176-7.52-.176-16.02V21.774H88.68l-.063 15.106c-.074 16.383-.062 16.2-1.05 20.879-1.489 7.043-4.622 13.691-9.227 19.562-1.012 1.293-18.063 18.625-18.32 18.625-.055 0-4.008-3.93-8.793-8.734m15.375-22.183.039-14.445h10.43V37.336H66.64v-10.43H53.395v10.426l-5.258.043-5.254.043-.086 13.164h10.598v28.977l13.164-.086Zm0 0"/>
</svg>
