<svg xmlns="http://www.w3.org/2000/svg" width="120" height="120" viewBox="0 0 120 120">
    <path d="M26.273 18.89v31.5l.004.38.004.41.008.414.012.41.015.414.016.41.023.414.016.27.008.14.027.41.032.415.07.82.039.41.094.82.047.407.054.41.059.41.008.059.05.347.063.41.066.407.14.812.075.402.164.813.035.164.047.238.09.403.07.304.024.098.094.402.097.399.102.398.101.403.11.398.11.394.112.399.118.394.242.79.074.226.05.164.13.395.132.39.137.387.137.39.14.387.145.387.094.246.055.137.148.387.152.382.157.38.113.269.047.113.164.379.164.375.168.379.172.375.175.375.176.371.074.156.106.215.183.367.184.371.192.368.19.363.048.094.144.27.2.362.199.36.203.36.207.359.207.355.21.352.43.703.223.351.223.344.223.348.09.136.136.207.23.34.235.344.234.336.239.336.242.336.492.664.246.328.254.328.254.324.254.32.261.321.094.117.168.203.262.317.27.316.265.313.547.617.555.61.28.3.286.3.285.298.29.296.288.293 18.563 18.563 3.71-3.715 15.141-15.14.286-.297.289-.297.562-.602.555-.61.547-.616.27-.313.53-.633.043-.05.122-.153.097-.117.258-.32.254-.32.258-.325.5-.656.246-.332.242-.332.242-.336.238-.336.235-.336.234-.344.23-.34.137-.207.09-.136.227-.348.222-.344.22-.351.429-.703.21-.352.212-.355.406-.72.2-.359.198-.363.145-.27.05-.093.192-.363.188-.368.183-.37.184-.368.105-.219.075-.152.18-.371.343-.75.168-.379.164-.375.137-.32.027-.059.16-.383.156-.379.153-.382.152-.387.145-.383.144-.387.14-.386.141-.391.133-.387.133-.39.129-.395.055-.164.07-.227.125-.394.234-.79.114-.398.113-.394.105-.398.106-.403.098-.398.101-.399.094-.402.02-.098.07-.304.09-.403.05-.238.035-.164.083-.406.078-.407.074-.402.074-.406.133-.813.066-.41.051-.347.117-.88.051-.406.047-.41.043-.41.078-.82.031-.41.032-.414.027-.41.008-.141.02-.27.019-.414.02-.41.011-.414.012-.41.008-.414.003-.41.004-.38v-31.5Zm5.25 5.25h57.38v26.602l-.016.774-.008.382-.016.387-.039.774-.023.386-.004.067-.024.32-.03.383-.032.387-.035.382-.043.387-.04.383-.046.383-.05.386-.052.383-.054.383-.059.383-.023.14-.04.239-.062.383-.14.757-.075.383-.074.38-.082.378-.082.375-.086.379-.09.375-.094.375-.07.277-.023.098-.098.375-.102.371-.105.371-.219.742-.113.371-.117.368-.242.734-.125.367-.13.363-.05.141-.082.223-.133.363-.14.36-.141.363-.14.355-.15.36-.148.355-.152.355-.156.356-.157.351-.328.704-.074.156-.09.191-.344.696-.351.687-.18.34-.183.34-.188.34-.574 1.007-.2.332-.199.329-.023.039-.18.293-.207.328-.203.316-.004.008-.21.324-.43.64-.22.321-.444.633-.227.312-.23.313-.23.308-.235.31-.153.194-.086.11-.238.304-.484.602-.246.297-.25.297-.25.293-.254.293-.11.12-.148.169-.258.285-.262.289-.261.281-.266.281-.266.278-.273.277-.121.125-15 15L49.074 87.48l-3.71-3.714h-.005l-.148-.149-.121-.125-.54-.555-.265-.28-.262-.282-.261-.29-.258-.284-.258-.29-.254-.292-.25-.293-.082-.098-.168-.2-.246-.296-.484-.602-.114-.144-.125-.16-.086-.11-.152-.195-.234-.308-.23-.31-.231-.312-.227-.312-.222-.317-.22-.316-.437-.64-.21-.32-.422-.65-.204-.327-.18-.293-.023-.04-.086-.14-.113-.188-.2-.332-.194-.336-.192-.335-.187-.336-.188-.34-.183-.34-.18-.34-.18-.344-.176-.343-.343-.696-.09-.191-.074-.156-.164-.352-.32-.703-.157-.356-.148-.355-.153-.356-.144-.359-.145-.355-.14-.364L34.55 67l-.137-.363-.078-.223-.05-.14-.13-.364-.129-.367-.242-.734-.113-.368-.117-.37-.22-.743-.202-.742-.098-.375-.027-.098-.07-.277-.094-.375-.086-.375-.086-.379-.086-.375-.156-.758-.075-.383-.07-.379-.066-.378-.067-.383-.039-.239-.023-.14-.059-.383-.054-.383-.051-.383-.047-.382-.047-.387-.043-.383-.039-.387-.04-.382-.03-.387-.032-.383-.02-.32-.007-.067-.023-.386-.02-.387-.015-.387-.016-.383-.012-.386-.008-.387-.004-.387v-.129l-.003-.222h.003Zm0 0"/>
    <path fill="#5984bd" d="M51.512 89.742c-6.008-6.035-9.16-9.324-10.016-10.457-5.121-6.773-8.066-13.672-9.434-22.097-.34-2.114-.355-2.778-.414-17.61l-.058-15.414h57.223L88.75 39.66c-.062 16.63-.04 16.11-.957 20.547-1.324 6.434-4.371 13.09-8.5 18.582-1.809 2.406-4.832 5.613-12.594 13.352l-6.422 6.406Zm0 0"/>
</svg>
