<svg xmlns="http://www.w3.org/2000/svg" width="120" height="120" viewBox="0 0 120 120">
    <path d="M6.188 7.895v15.75h.011l.012.355.031.574.047.57.055.57.07.567.078.567.024.129.07.437.105.563.118.562.132.555.141.554.156.555.164.547.18.543.188.543.203.535.215.531.222.528.238.52.247.515.257.512.028.046.242.457.055.098.226.402.293.493.3.488.317.48.32.473.337.465.168.223.175.234.352.45.363.444.129.149.246.285.383.426.39.418.399.41.41.398.418.395.426.383.437.37.442.364.449.356.457.34.219.156.25.18.398.273.07.05.481.313.488.3.492.294.5.281.504.27.512.257.516.25.523.235.215.094.309.132.53.211.54.203.539.192.543.176.55.168.552.152.554.144.184.043.375.086.43.09v63.531h65.625v-63.53l.43-.09.558-.13.554-.144.551-.152.29-.09.261-.078.543-.176.54-.192.538-.203.531-.21.524-.227.523-.235.516-.25.512-.257.504-.27.5-.281.492-.293.488-.3.48-.313.47-.325.253-.18.215-.156.223-.164.234-.175.254-.2.195-.156.442-.363.437-.371.426-.383.418-.395.41-.398.398-.41.395-.418.379-.426.246-.285.129-.149.363-.445.352-.45.175-.233.168-.223.336-.465.32-.473.317-.48.3-.488.294-.493.226-.402.055-.098.27-.503.257-.512.247-.516.238-.52.222-.527.215-.53.203-.536.168-.477.02-.066.18-.543.164-.547.156-.555.14-.554.133-.555.118-.562.105-.563.094-.566.078-.567.07-.566.059-.57.043-.57.031-.575.012-.355h.011V7.895h-21v10.5h-7.874v-10.5h-21v10.5h-7.876v-10.5h-21v10.5h-7.874v-10.5Zm5.25 5.246h10.5v10.504h18.375V13.14h10.5v10.504h18.374V13.14h10.5v10.504h18.376V13.14h10.5v9.714l-.004.516-.02.516-.031.511-.047.516-.055.512-.07.512-.082.507-.094.508-.004.024-.101.48-.121.5-.13.5-.144.496-.156.488-.168.489-.18.484-.191.477-.164.386-.04.09-.214.469-.227.46-.238.458-.246.453-.262.445-.27.438-.28.433-.29.426-.304.418-.16.211-.153.2-.32.402-.332.394-.344.387-.348.375-.363.371-.367.36-.379.351-.383.34-.394.332-.403.324-.414.309-.418.304-.156.11-.266.18-.433.28-.438.274-.445.258-.453.25-.457.234-.461.227-.469.215-.476.203-.403.164-.074.027-.484.18-.489.168-.492.156-.492.145-.352.09-.148.039-.5.12-.504.106-.508.094-.507.082-.512.07-.512.059-.516.043-.511.031-.516.02-.43.003h-.085v52.5H32.438v-52.5h-.086l-.43-.003-.516-.02-.511-.031-.516-.043-.512-.059-.512-.07-.507-.082-.508-.094-.504-.105-.5-.121-.148-.04-.352-.09-.453-.132-.04-.012-.491-.156-.489-.168-.484-.18-.477-.191-.476-.203-.465-.215-.465-.227-.457-.234-.453-.25-.004-.004-.441-.254-.438-.273-.433-.278-.426-.293-.414-.304-.414-.309-.403-.324-.394-.332-.383-.34-.379-.352-.176-.171-.195-.188-.36-.371-.347-.375-.344-.387-.332-.394-.32-.403-.153-.199-.16-.21-.304-.419-.29-.426-.28-.433-.27-.438-.262-.445-.25-.453-.234-.457-.227-.461-.215-.469-.039-.09-.164-.386-.191-.477-.18-.484-.168-.489-.156-.488-.145-.496-.129-.5-.12-.5-.102-.48-.004-.024-.094-.508-.082-.508-.07-.511-.055-.512-.047-.516-.031-.511-.02-.516-.004-.516ZM60 40.313l-1.93.093-1.91.285-.097.024-1.778.445-1.82.653-.278.132-1.468.692-1.657.992-1.55 1.152-1.434 1.297-1.297 1.434-1.152 1.55-.024.043-.02.036-.948 1.578-.825 1.746-.113.316-.539 1.504-.469 1.875-.285 1.91-.093 1.93.093 1.93.285 1.91.47 1.875.651 1.82.825 1.746.422.703.527.875.043.079 1.152 1.55 1.297 1.434 1.434 1.297 1.55 1.152 1.657.992 1.468.692.278.132 1.82.653 1.875.469 1.91.285 1.93.094.79-.04 1.14-.054 1.91-.285 1.875-.47 1.82-.651 1.746-.825.11-.066 1.546-.926 1.551-1.152 1.434-1.297 1.297-1.434 1.152-1.55.57-.954.422-.703.63-1.328.195-.418.652-1.82.469-1.875.285-1.91.094-1.93-.094-1.93-.285-1.91-.47-1.875-.538-1.504-.114-.316-.195-.418-.629-1.328-.968-1.614-.024-.042-1.152-1.551-1.297-1.434-1.434-1.297-1.55-1.152-1.547-.926-.11-.066-1.746-.825-1.82-.652-1.778-.445-.097-.024-1.91-.285-1.14-.054Zm0 3.937.79.04.753.034 1.531.227.864.219.636.16 1.453.52 1.399.66 1.324.796.64.473.602.445 1.145 1.04.218.241.82.903.919 1.242.797 1.324.097.207.563 1.192.52 1.457.378 1.496.227 1.531L75.75 60l-.074 1.543-.227 1.531-.379 1.5-.52 1.453-.66 1.399-.796 1.324-.914 1.234-.004.008-.196.215-.003.004-.84.926-1.145 1.039-.601.445-.641.473-1.324.797-1.399.66-1.453.52-1.5.378-1.531.227-.754.035-.789.039-1.543-.074-1.531-.227-1.496-.379-1.457-.52-1.399-.66-.386-.234-.938-.562-1.242-.918-.215-.196-.93-.843-1.039-1.145-.004-.008-.914-1.234-.797-1.324-.66-1.399-.52-1.453-.378-1.5-.227-1.531L44.25 60l.074-1.543.227-1.531.379-1.496.52-1.457.562-1.192.097-.207.797-1.324.918-1.242.82-.903.22-.242 1.144-1.039 1.242-.918.938-.562.386-.235 1.399-.66 1.457-.52.633-.16.863-.218 1.531-.227Zm10.207 5.54h-.05l-.137.01-.223.016-.297.02-.11.008-.253.02-.422.034-.477.036-.324.027-.195.016-.555.043-.59.046-3.625.293 1 1.012 1 1.008h-.004l-4.156 4.156-.789.785-4.535-4.539-.41-.41.988-1.008.992-1.008-3.62-.292-.587-.043-.133-.012-.422-.035-.086-.004-.433-.035-.477-.036-.422-.035-.363-.023-.297-.024-.218-.015-.141-.008h-.047l.004.05v.032l.008.11.015.222.024.297.008.125.015.203.004.035.031.422.04.473.042.52.04.5.003.054.047.582.29 3.61 1.003-.997 1.004-.992 4.961 4.953-1.39 1.39-3.567 3.563-.184-.18-.824-.808-1.008-.992-.289 3.62-.046.587-.047.555-.04.52-.003.07-.032.406-.035.422-.023.363-.024.297-.011.18-.004.038-.008.141v.047h.05l.141-.012.106-.008.117-.007.297-.024.363-.027.422-.031.473-.04.425-.035.094-.007.457-.036.098-.007.582-.047 3.61-.29-.997-1.003-.992-1.004L60 62.668l.79.785 4.163 4.164-.996 1.004-.996 1.008 3.617.293.781.062.36.028.52.043.476.035.422.035.254.02.109.007.297.024.101.008.122.011.14.008.047.004h.004v-.05l-.004-.036-.008-.101v-.036l-.015-.187-.004-.059-.016-.238-.027-.363-.035-.422-.036-.477-.043-.52-.03-.39-.013-.168-.046-.586-.293-3.625-.25.25-.758.75-1.008 1-4.953-4.953 4.945-4.95 1.004.997 1.008.996v.004l.293-3.621.047-.582.004-.059.039-.5.043-.52.035-.476.035-.422.027-.363.024-.297.008-.094.007-.129.012-.14Zm-37.77 51.815h55.126v5.254H32.438Zm0 0"/>
    <path fill="#5984bd" d="M32.484 70.07V43.8h-.664c-1.078 0-3.086-.28-4.441-.624-3.805-.965-7.082-2.844-9.844-5.649-2.844-2.89-4.695-6.32-5.629-10.422-.258-1.14-.289-1.84-.344-7.578l-.054-6.324h10.36v10.48h18.44v-10.48H50.79v10.48h18.44v-10.48h10.34v10.48h18.582v-10.48h10.364l-.059 6.254c-.055 5.711-.082 6.363-.352 7.547-2.14 9.52-9.746 16.129-19.277 16.754l-1.293.086v52.492h-55.05Zm30.082 9.489c1.274-.192 3.438-.735 4.395-1.102 7.695-2.96 12.762-10.3 12.746-18.473-.012-9.359-6.492-17.289-15.785-19.324-1.594-.351-5.078-.433-6.781-.164-8.754 1.39-15.254 7.89-16.645 16.645-.27 1.703-.187 5.187.164 6.78 1.797 8.216 8.137 14.231 16.414 15.587 1.348.219 4.203.246 5.492.05m0 0"/>
    <path fill="#5984bd" d="M57.344 75.441c-3.157-.57-5.817-1.902-8.078-4.043-2.465-2.328-4.07-5.285-4.7-8.664-.343-1.828-.226-4.824.258-6.664.914-3.48 3.242-6.855 6.114-8.867 1.355-.945 3.53-1.96 5.093-2.367 1.895-.492 4.88-.613 6.703-.273 7.559 1.417 12.926 7.832 12.926 15.449 0 5.652-2.953 10.738-7.894 13.597-3.008 1.743-7.028 2.45-10.422 1.832m-3.914-5.445c1.504-.117 2.953-.246 3.215-.289l.472-.078-.996-1.004-1-1.004 4.89-4.883 2.442 2.442 2.445 2.441-.992 1-.996 1 .543.082c1.121.168 6.625.547 6.711.457.09-.09-.32-6.265-.457-6.926-.07-.316-.133-.273-1.078.664l-1.008 1-2.441-2.445-2.442-2.441 4.883-4.89 1.004.995 1.004 1 .082-.613c.11-.832.5-5.77.5-6.328v-.446l-3.461.262c-1.898.14-3.547.285-3.656.324-.137.043.117.387.8 1.075l1.004 1.007-2.445 2.442-2.441 2.441-4.89-4.883 1.003-1.007c.68-.684.938-1.032.8-1.075-.25-.078-5.87-.511-6.628-.507l-.563.004.258 3.457c.145 1.902.29 3.546.324 3.656.043.136.387-.121 1.075-.801l1.007-1.004 4.883 4.89-2.441 2.442-2.442 2.445-1.007-1.003c-.684-.68-1.032-.938-1.075-.801-.078.246-.511 5.863-.507 6.593.004.63-.239.61 3.62.31M32.484 104.23v-2.582h55.051v5.168h-55.05Zm0 0"/>
</svg>
