<svg xmlns="http://www.w3.org/2000/svg" width="120" height="120" viewBox="0 0 120 120">
    <path d="M26.973 16.098v31.875l.007.414.008.41.012.414.012.41.02.387v.027l.019.371v.04l.015.265.008.144.031.415.028.41.035.41.078.82.043.41.047.41.05.41.055.41.055.407.059.41.062.406.067.407.07.406.148.812.078.407.082.402.086.402.09.403.067.3.023.102.094.402.098.403.101.398.211.797.11.398.117.395.113.395.058.191.063.207.125.39.07.223.055.172.258.781.137.391.136.387.434 1.16.305.766.156.382.11.262.05.117.16.38.168.378.168.375.344.75.176.371.18.371.183.371.375.735.191.367.196.363.195.36.035.062.168.3.203.36.203.356.422.71.211.352.219.352.219.347.222.348.227.344.086.133.14.21.23.344.47.68.238.336.242.336.242.332.246.328.5.656.254.325.258.324.258.32.09.11.172.21.265.317.266.312.539.625.277.309.274.305.28.304.563.602.286.297.289.293.175.175-.007.012 3.71 3.711.008-.008 14.965 14.965 18.563-18.562-.008-.008.008.008.578-.586.285-.297.285-.301.188-.203.09-.098.28-.304.278-.305.273-.309.54-.625.265-.312.266-.317.172-.21.09-.11.257-.32.258-.325.254-.324.5-.656.246-.328.242-.332.243-.336.046-.066.192-.27.469-.68.23-.343.145-.211.085-.133.223-.344.223-.348.219-.347.218-.352.215-.351.211-.356.414-.71.203-.36.2-.363.195-.36.148-.277.047-.086.192-.367.374-.735.184-.37.18-.372.176-.37.175-.376.168-.375.172-.375.164-.379.16-.379.051-.117.11-.262.156-.382.305-.766.148-.387.144-.387.141-.386.137-.387.137-.39.257-.782.059-.172.07-.222.121-.391.063-.203.058-.195.118-.395.113-.395.11-.398.21-.797.102-.398.097-.403.094-.402.024-.102.07-.3.086-.403.039-.183.047-.219.082-.402.156-.813.14-.812.067-.407.063-.406.058-.41.059-.406.101-.82.047-.41.086-.821.07-.82.032-.41.027-.415.008-.144.016-.266v-.039l.02-.37.003-.028.016-.387.015-.41.008-.414.012-.41.004-.414V16.098Zm5.25 5.25h57.375v26.25h.004l-.004.347-.004.387-.008.387-.023.773-.02.387-.008.16-.012.227-.007.109-.016.273-.004.063-.023.324-.032.387-.03.383-.079.773-.086.766-.101.765-.055.383-.059.383-.023.137-.04.246-.062.379-.07.383-.07.378-.149.758-.164.758-.086.375-.09.379-.093.375-.067.27-.027.105-.102.371-.097.375-.106.371-.097.34-.012.031-.11.371-.113.368-.117.37-.242.735-.125.363-.13.367-.05.133-.082.23-.137.364-.136.36-.141.359-.29.719-.148.355-.152.355-.156.356-.32.703-.118.25-.046.098-.07.152-.095.2-.171.347-.172.344-.176.343-.36.688-.367.68-.382.671-.391.665-.203.332-.016.03-.187.298-.203.328-.207.328-.211.32-.215.325-.215.32-.219.32-.445.633-.227.312-.23.309-.23.313-.235.308-.145.188-.093.117-.239.3-.242.305-.242.297-.246.3-.25.294-.25.297-.254.289-.258.293-.258.285-.523.57-.266.282-.09.09-.18.187-.269.277-.183.188-.008-.012-.086.09-3.625 3.625.008.008-10.961 10.957-.266.265-14.847-14.847-.012.007.008-.007-.157-.157-.113-.117-.539-.554-.266-.282-.523-.57-.258-.285-.258-.293-.043-.05-.21-.24-.25-.296-.25-.293-.247-.3-.242-.298-.242-.304-.238-.301-.09-.117-.031-.04-.118-.148-.234-.308-.23-.313-.23-.309-.227-.312-.223-.316-.219-.317-.223-.32-.214-.32-.211-.325-.211-.32-.211-.328-.203-.328-.184-.297-.02-.031-.398-.664-.195-.332-.192-.336-.187-.336-.188-.34-.183-.34-.36-.688-.175-.343-.172-.344-.168-.348-.098-.199-.07-.152-.164-.348-.32-.703-.458-1.066-.289-.72-.14-.359-.137-.359-.137-.363-.082-.23-.047-.134-.129-.367-.128-.363-.243-.734-.117-.371-.113-.368-.11-.37-.011-.036-.098-.336-.101-.37-.102-.376-.102-.371-.023-.105-.07-.27-.094-.375-.043-.188-.047-.19-.086-.376-.082-.379-.156-.758-.074-.379-.07-.378-.067-.383-.066-.38-.04-.245-.023-.137-.059-.383-.054-.383-.051-.382-.094-.766-.043-.383-.039-.387-.039-.382-.062-.774-.024-.324-.004-.063-.015-.273-.008-.11-.012-.226-.008-.16-.03-.774-.013-.386-.007-.387-.004-.387Zm20.289 7.859 8.125 20.727-20.723-8.13 3.246 5.758 1.438 2.547.05.094-.054.098-2.492 4.418-2.192 3.886 2.192-.859L59.305 51l1.332-.52-1.332 3.395-2.133 5.438-4.66 11.89 8.304-4.683.09-.051.102.054 8.304 4.684-8.128-20.727 15.324 6.008 5.398 2.117-4.683-8.304-.051-.09.058-.102 1.438-2.547 3.242-5.757-20.722 8.129 8.12-20.723-8.3 4.68v.004l-.094.05-.098-.058Zm8.398 21"/>
    <path fill="#5984bd" d="M52.129 86.875c-7.293-7.32-8.984-9.102-10.23-10.781-5.758-7.742-8.825-15.98-9.504-25.531-.094-1.31-.165-8.11-.168-15.758V21.352h57.308V35.52c0 8.437-.066 14.906-.164 15.996a52.5 52.5 0 0 1-1.344 7.863c-1.574 6.152-4.867 12.71-8.968 17.851-1.153 1.442-17.832 18.418-18.098 18.418-.05 0-4.023-3.949-8.832-8.773m5.074-18.25c2.117-1.2 3.727-2.016 3.867-1.96.13.05 2.024 1.097 4.203 2.327s3.989 2.211 4.016 2.184c.031-.031-1.734-4.614-3.918-10.184-2.187-5.57-3.933-10.168-3.887-10.215.047-.047 4.645 1.703 10.215 3.891 5.57 2.184 10.149 3.95 10.18 3.922.031-.031-.89-1.723-2.04-3.762-1.151-2.043-2.198-3.93-2.327-4.2-.235-.487-.223-.507 2.082-4.593 1.27-2.258 2.285-4.137 2.25-4.172s-4.649 1.735-10.25 3.934c-5.606 2.195-10.207 3.969-10.227 3.941-.02-.027 1.77-4.652 3.98-10.281 2.212-5.625 4.005-10.242 3.985-10.262s-1.926 1.028-4.23 2.325c-2.305 1.3-4.235 2.335-4.286 2.304s-1.941-1.097-4.199-2.37c-3.394-1.919-4.09-2.259-4.015-1.966.05.196 1.843 4.817 3.984 10.27 2.137 5.453 3.867 9.937 3.84 9.96-.028.028-4.606-1.738-10.176-3.925-5.574-2.184-10.18-3.953-10.242-3.93-.059.028.719 1.512 1.734 3.301 1.012 1.79 2.067 3.656 2.34 4.145l.504.89-2.363 4.184c-1.297 2.3-2.34 4.207-2.317 4.23.028.024 4.649-1.765 10.274-3.976 5.62-2.211 10.246-4.004 10.27-3.989.027.016-1.716 4.524-3.872 10.012-2.152 5.492-3.953 10.117-3.996 10.278-.102.367-.238.437 4.621-2.313m0 0"/>
</svg>
