<svg xmlns="http://www.w3.org/2000/svg" width="120" height="120" viewBox="0 0 120 120">
    <path d="m39 6.188-.516.027-.507.074-.5.125-.485.172-.469.223-.441.265-.414.305-.379.348-.117.128-.23.25-.31.415-.26.44-.224.47-.171.484-.125.5-.079.508v.031l-.023.485.023.515.079.508.125.5.171.484.223.47.02.034v.004l-.047.043-.086.09-10.781 10.781-.227.23-.352.356-.57.598-.558.605-.551.614-.543.625-.528.628-.043.055-.48.586-.508.648-.5.657-.492.66-.156.223-.324.449-.47.68-.456.683-.45.695-.433.7-.426.707-.414.71-.402.723-.035.059-.356.664-.383.734-.367.735-.105.218-.254.528-.344.75-.332.754-.324.757-.309.766-.297.77-.285.773-.273.777-.125.375-.137.407-.25.785-.234.793-.223.793-.211.797-.2.8-.183.79-.004.011-.172.809-.164.808-.148.813-.133.812-.027.184-.098.633-.11.816-.097.817-.082.82-.07.824-.059.82-.047.825-.031.824-.02.824-.007.824.004.575.003.25.02.824.031.824.047.824.059.824.07.82.082.821.098.82.11.817.124.816.133.813.027.148.121.664.16.809.176.804.004.016.184.79.195.8.215.797.223.793.234.789.25.785.262.785.27.77.003.007.285.774.297.77.309.765.324.758.332.754.344.75.254.523.105.219.367.738.383.73.39.727.403.719.215.371.2.344.425.707.434.7.449.69.457.688.469.676.324.453.156.219.492.664.5.656.508.648.48.586.043.051.528.633.543.621.55.617.56.606.57.593.351.36v14.93h73.5v-14.93l.352-.36.57-.593.558-.606.551-.617.54-.621.53-.633.044-.05.48-.587.508-.648.5-.656.492-.664.48-.672.47-.676.456-.687.446-.692.257-.41.18-.29.426-.706.2-.344.214-.371.402-.719.39-.726.384-.73.367-.74.105-.218.25-.523.348-.75.332-.754.324-.758.309-.766.297-.77.285-.773.004-.007.27-.77.261-.785.25-.785.234-.79.223-.792.211-.797.2-.8.187-.806.172-.804.16-.809.12-.664.028-.148.137-.813.125-.816.11-.817.093-.82.086-.82.07-.82.059-.825.047-.824.031-.824.02-.82.003-.255.004-.574-.007-.824-.02-.824-.031-.824-.047-.825-.059-.82-.07-.824-.082-.82-.098-.817-.11-.816-.097-.633-.027-.184-.133-.812-.148-.813-.164-.808-.172-.809-.188-.8-.199-.801-.21-.797-.224-.793-.234-.793-.25-.785-.137-.407-.125-.375-.273-.777-.285-.773-.297-.77-.309-.766-.324-.757-.332-.754-.344-.75-.254-.528-.105-.218-.367-.735-.383-.734-.356-.664-.035-.059-.402-.722-.414-.711-.426-.707-.18-.29-.254-.41-.449-.695-.457-.684-.469-.68-.48-.671-.492-.66-.5-.657-.508-.648-.48-.586-.043-.055-.528-.628-.543-.625-.55-.614-.56-.605-.57-.598-.351-.355-.227-.23L85.95 14.292l-.136-.14-.106-.102-.066-.067-.032-.035.02-.035.223-.469.171-.484.125-.5.079-.508.023-.515-.023-.485v-.031l-.079-.508-.125-.5-.171-.484-.223-.47-.262-.44-.308-.415-.348-.378-.379-.348-.414-.309-.441-.261-.47-.223-.484-.172-.043-.012-.457-.113-.507-.078L81 6.187l-.516.024-.507.078-.5.125-.485.172-.469.223-.035.02-.308.187-.098.054-.414.309-.379.348-.348.378-.308.415-.262.44-.223.47-.171.484-.125.5-.079.508v.031l-.023.485.004.082.02.433.078.508.125.5.171.484.223.47.262.44.23.31-.023.034-.055.086-.254.39-.226.348-.328.508-.227.348-5.512 8.488-2.363 3.637-5.25 8.086-2.59 3.988-2.66-4.094-5.25-8.086-2.293-3.53-5.312-8.18-.27-.415-.477-.734-.125-.195-.152-.235-.121-.18-.09-.144-.062-.098-.04-.058-.011-.016.191-.258.266-.44.144-.306.079-.164.171-.484.125-.5.079-.508.02-.433.003-.082-.023-.485-.004-.031-.075-.508-.125-.5-.171-.484-.079-.164-.144-.305-.266-.441-.304-.415-.348-.378-.379-.348-.414-.309-.406-.242-.04-.02-.464-.222-.485-.172-.5-.125-.507-.078h-.043Zm-.418 10.996 4.988 7.683 8.555 13.172 5.25 8.086 5.25 8.082 5.25 8.086 15.137 23.305 6.386 9.84H27.152l.035-.036-.542-.55-.075-.082-.457-.48-.523-.567-.516-.578-.504-.586-.496-.594-.484-.602-.34-.433-.137-.176-.465-.617-.457-.625-.445-.633-.348-.508-.085-.129-.426-.648-.414-.653-.403-.66-.39-.664-.383-.676-.371-.675-.356-.688-.351-.687-.332-.7-.328-.699-.313-.707-.3-.715-.126-.3-.164-.415-.281-.722-.266-.723-.254-.73-.242-.735-.23-.738-.219-.742-.207-.746-.191-.746-.184-.754-.168-.754-.156-.758-.008-.039-.137-.719-.133-.761-.12-.766-.11-.766-.094-.765-.082-.77-.066-.77-.059-.769-.043-.773-.031-.774-.02-.773-.003-.2-.004-.574.007-.773.016-.77.031-.773.047-.774.055-.77.07-.769.082-.77.094-.765.11-.77.117-.761.058-.332.074-.43.145-.761.16-.754.168-.754.18-.754.195-.746.207-.746.219-.743.23-.738.242-.734.254-.73.262-.712.004-.015.281-.719.29-.719.3-.71.313-.708.324-.703.336-.695.347-.692.36-.683.37-.68.384-.672.39-.668.403-.656.175-.281.239-.375.425-.645.434-.64.445-.633.454-.625.468-.617.137-.176.336-.434.488-.601.496-.594.504-.582.516-.578.523-.57.457-.481.075-.078.445-.453Zm42.879.043 7.637 7.64 3.715 3.711.093.098.45.453.53.558.524.57.516.575.457.531.047.055.496.594.484.601.34.434.137.176.465.617.457.625.445.633.433.64.426.645.239.375.175.277.403.66.39.668.383.672.371.68.356.683.347.692.336.695.328.703.313.707.3.711.29.715.281.723.004.015.262.711.254.73.242.735.23.738.219.743.207.742.191.75.184.75.168.758.156.754.145.761.078.43.055.332.12.762.11.765.094.77.082.765.066.774.059.77.043.773.031.77.02.773.007.773-.004.575-.003.199-.02.773-.031.774-.043.77-.059.773-.07.77-.082.769-.094.765-.105.766-.121.766-.133.761-.137.715-.008.043-.156.758-.168.754-.184.754-.191.746-.207.746-.219.742-.23.738-.242.735-.254.73-.266.723-.281.722-.164.41-.125.305-.301.715-.313.703-.328.703-.336.696-.347.691-.356.688-.37.675-.384.672-.39.668-.403.66-.414.653-.425.648-.086.125-.348.512-.445.633-.457.625-.465.617-.137.176-.34.433-.484.602-.496.594-.047.054-.457.532-.438.488L68.727 53.96l-.512-.785-.34-.524-4.71-7.254 4.71-7.253L76.5 24.867ZM57.375 62.363v5.25h-5.25v5.25h5.25v15.75h5.25v-15.75h5.25v-5.25h-5.25v-5.25ZM28.5 100.688h63v7.874h-63Zm0 0"/>
    <path fill="#5984bd" d="M26.04 94.133C15.64 82.84 11.343 67.566 14.362 52.629c1.516-7.5 4.7-14.266 9.614-20.414C25.41 30.418 38.453 17.219 38.62 17.39c.082.082 50.012 76.933 50.52 77.754.086.144-6.137.18-30.95.18l-31.058-.005Zm36.65-13.305v-7.863h5.192v-5.48H62.69v-5.196h-5.336v5.188l-5.265.078v5.336l2.633.043 2.632.039v15.715h5.336Zm16.228-11.265c-8.566-13.204-15.57-24.094-15.563-24.196.008-.105 4.098-6.472 9.083-14.152l9.066-13.965 6.36 6.406c3.495 3.528 6.937 7.11 7.652 7.965 5.734 6.89 9.23 14.7 10.601 23.672.39 2.574.543 8.16.293 10.828-.926 9.832-4.738 18.992-10.953 26.317-.437.515-.832.98-.875 1.035-.047.05-7.094-10.707-15.664-23.91m-50.414 35.066v-3.824h62.894v7.644H28.504Zm0 0"/>
</svg>
