<svg xmlns="http://www.w3.org/2000/svg" width="120" height="120" viewBox="0 0 120 120">
    <path d="m60.133 9.895-.516.027-.406.058-.106.016-.5.125-.484.172-.465.223-.441.265-.414.305-.383.348-.344.382-.308.41-.266.446-.219.465-.172.484-.129.5-.027.203-.047.305-.023.516.023.515.074.508.13.5.171.488.219.465.266.442.308.414.133.148.211.234.383.344.414.309.293.172v3.394l-.594.027-3.059.454-3 .753-2.91 1.04-2.793 1.324-2.652 1.586-.492.367-1.992 1.476-.309.278-2.437-2.438.054-.226.074-.492v-.016l.028-.516-.028-.515-.074-.508-.125-.5-.172-.485-.222-.468-.266-.442-.305-.414-.347-.379-.032-.03-.03-.028-.321-.29-.41-.308-.446-.262-.464-.222-.485-.172-.5-.125-.508-.078-.515-.024-.516.024-.508.078-.5.125-.488.172-.465.222-.441.262-.414.309-.32.289-.024.023-.04.035-.343.38-.308.413-.266.442-.219.468-.172.485-.125.5-.078.508-.023.515.023.516.004.016.074.492.125.5.172.484.223.469.262.441.308.414.344.38.039.034.344.313.414.305.441.265.43.203.035.02.488.172.5.125.508.078.516.023.515-.023.508-.078.207-.051.227-.059 2.36 2.36-.345.379-1.84 2.48-1.59 2.652-.245.524-1.075 2.27-1.043 2.913-.75 2.997-.453 3.058-.027.528h-3.406l-.098-.16-.305-.415-.011-.008-.336-.374-.383-.344-.414-.309-.442-.262-.464-.222-.485-.172-.5-.125-.511-.078-.512-.024-.254.012-.262.012-.512.078-.5.125-.484.172-.465.222-.441.262-.414.309-.383.343-.344.383-.308.414-.188.313-.078.129-.219.465-.172.488-.129.5-.074.508-.023.515.023.512.074.512.13.5.171.484.219.465.078.133.047.074.14.234.31.414.343.383.383.348.414.305.441.265.465.219.484.176.5.125.512.074.262.016.254.011.512-.027.511-.074.5-.125.485-.176.464-.219.442-.265.414-.305.383-.348.336-.37.011-.013.305-.414.14-.234.114-.187h3.258l.008.187.011.211.453 3.059.75 2.996 1.043 2.91 1.32 2.797 1.59 2.648 1.84 2.484.09.098 1.989 2.192 2.289 2.078 1.992 1.476.492.364 2.652 1.59 2.793 1.324.832.296.633.227-.058.14-.172.43-.29.73-.23.571-7.562 18.902-2.098 5.25h42l-2.098-5.25-7.562-18.902-.219-.543-.3-.754-.173-.433-.058-.141.633-.227.832-.296 2.793-1.325 1.566-.937 1.086-.652 2.484-1.84 2.29-2.078 1.988-2.192.09-.097 1.84-2.485 1.59-2.648 1.32-2.797 1.043-2.91.351-1.403.399-1.593.21-1.418.243-1.641.011-.211.008-.187h3.258l.113.187.14.238.306.41.347.383.383.348.414.305.442.265.464.219.485.176.199.05.3.075.512.074.512.027.516-.027.512-.074.5-.125.484-.176.465-.219.441-.265.059-.043.355-.262.383-.348.344-.383.308-.41.141-.238.125-.207.219-.465.172-.484.129-.5.074-.512.023-.512-.023-.515-.074-.508-.13-.5-.171-.488-.219-.465-.266-.442-.308-.414-.344-.383-.383-.343-.355-.262-.059-.047-.441-.262-.465-.222-.484-.172-.5-.125-.512-.078-.516-.024-.512.024-.511.078-.301.074-.2.05-.484.173-.464.222-.442.262-.414.309-.383.343-.347.383-.305.414-.098.16h-3.406l-.027-.527-.453-3.058-.75-2.996-1.043-2.915-.618-1.3-.457-.97-.246-.523-1.59-2.652-1.84-2.48-.218-.243.75-.75 1.406-1.402.074-.078.082-.082.223.059.512.074.515.027.512-.027.512-.074.5-.125.484-.176.317-.149.148-.07.441-.266.414-.304.383-.348.094-.105.25-.278.309-.414.265-.441.219-.465.176-.484.125-.5.074-.512.008-.113.02-.399-.028-.515-.074-.512-.125-.5-.176-.485-.219-.464-.265-.442-.309-.414-.25-.277-.094-.106-.176-.16-.03-.027-.177-.156-.414-.31-.441-.265-.465-.218-.484-.172-.5-.13-.512-.073-.512-.024-.515.024-.512.074-.5.129-.484.172-.465.218-.442.266-.414.309-.175.156-.032.027-.176.16-.343.383-.309.414-.266.442-.218.464-.172.485-.129.5-.074.512-.024.515.02.399.004.113.074.512.11.433-.04.04-.09.093-.906.906-.625.621-.562.563-.446-.403-2.484-1.843-1.086-.649-1.566-.937-2.793-1.324-2.91-1.04-3-.753-3.06-.454-.327-.015v-3.406l.289-.172.414-.309.05-.047.333-.297.347-.382.305-.415.266-.44.218-.466.176-.488.125-.5.074-.508.028-.515-.028-.512-.043-.309-.03-.203-.126-.5-.176-.484-.218-.465-.266-.445-.305-.41-.347-.383-.332-.301-.051-.047-.414-.305-.442-.265-.464-.223-.485-.172-.5-.125-.511-.074ZM60 28.203l2.574.129 2.547.379 2.5.625 2.426.867 2.328 1.102 2.207 1.324 1.832 1.36.238.175 1.91 1.73 1.731 1.907 1.531 2.07.156.258 1.168 1.953 1.102 2.328.871 2.426.625 2.496.379 2.55.125 2.571-.125 2.574-.047.305-.332 2.242-.031.13-.594 2.37-.871 2.426-1.102 2.328-1.324 2.211-1.531 2.07-1.73 1.907-1.676 1.52-.235.21-.238.176-1.832 1.36-2.207 1.323-2.328 1.102-2.426.867-2.5.625-2.547.38-2.574.124-.79-.039-1.784-.086-2.547-.379-2.5-.625-2.426-.867-2.328-1.102-2.207-1.324-2.07-1.535-.235-.21-1.675-1.52-1.731-1.907-1.531-2.07-1.328-2.21L35.75 64.5l-.871-2.426-.625-2.5-.332-2.242-.047-.305-.125-2.574.125-2.57.379-2.551.625-2.496.871-2.426 1.098-2.328 1.172-1.953.156-.258 1.531-2.07 1.73-1.906.57-.52 1.34-1.21 2.071-1.536 2.207-1.324 2.328-1.102 2.426-.867 2.5-.625 2.547-.379 1.785-.09Zm0 21-.516.027-.273.04-.234.035-.5.125-.485.175-.469.22-.441.265-.414.308-.379.344-.348.383-.308.414-.262.441-.223.465-.171.485-.028.101-.097.399-.079.511-.023.512.023.516.079.511.125.5.171.485.223.465.238.402.024.04.308.413.348.383.379.344.414.308.441.266.47.219.484.172.5.128.234.036.273.039.516.023.516-.023.507-.075.5-.128.485-.172.469-.22.441-.265.414-.308.379-.344.348-.383.308-.414.024-.039.238-.402.223-.465.171-.485.125-.5.079-.511.023-.516-.023-.512-.079-.511-.097-.399-.028-.101-.171-.485-.223-.465-.262-.44-.308-.415-.348-.383-.379-.344-.414-.308-.441-.266-.47-.219-.484-.175-.5-.125-.507-.075Zm-5.305 36.27.578.086 1.641.246.594.027v3.39l-.293.176-.414.309-.383.344-.344.383-.308.414-.266.441-.21.45-.009.015-.172.484-.129.5-.074.512-.023.516.023.511.074.512.13.5.171.484.219.465.266.442.308.414.344.383.383.347.414.305.441.266.465.218.484.176.5.125.106.016.406.058.516.028.512-.028.511-.074.5-.125.485-.176.464-.218.442-.266.414-.305.383-.347.347-.383.305-.414.266-.442.218-.465.176-.484.125-.5.074-.512.028-.511-.028-.516-.074-.512-.125-.5-.176-.484-.007-.016-.211-.449-.266-.441-.305-.414-.347-.383-.383-.344-.414-.309-.29-.175V85.82l.329-.015 2.219-.332.093.218.114.262 5.715 13.063 2.554 5.84H46.22l8.27-18.903.019-.047.156-.355Zm0 0"/>
    <path fill="#5984bd" d="M56.734 80.418c-6.254-.988-11.09-3.375-15.191-7.496-10.117-10.152-10.258-26.36-.316-36.637 5.507-5.695 13.367-8.62 21.101-7.851 3.8.375 6.66 1.234 10.047 3.02 6.766 3.566 11.707 10.23 13.23 17.847q1.52 7.564-1.304 14.77c-3.324 8.495-10.867 14.566-20.102 16.183-1.527.266-6.172.371-7.465.164m5.641-21.262c1.96-.96 3.047-2.894 2.867-5.113-.11-1.363-.484-2.2-1.445-3.215-.95-.996-1.984-1.488-3.371-1.601-4.43-.356-7.27 4.48-4.813 8.195 1.465 2.21 4.297 2.937 6.762 1.734m-15.902 45.407c0-.09 8.172-18.91 8.25-19 .007-.008.636.07 1.394.18l1.38.195v1.636c0 1.602-.013 1.64-.556 1.961-.683.406-1.664 1.856-1.941 2.88-.312 1.16-.098 2.776.52 3.91.94 1.726 2.546 2.683 4.535 2.695 1.601.007 2.91-.579 4.004-1.79 1.953-2.175 1.87-4.992-.207-7.14l-1.036-1.067v-1.578c0-1.37.047-1.578.336-1.59.18-.003.73-.074 1.22-.156l.89-.148 2.664 6.101c1.469 3.352 3.351 7.657 4.183 9.567l1.52 3.469H60.05c-7.469 0-13.578-.055-13.578-.126m0 0"/>
</svg>
