<svg xmlns="http://www.w3.org/2000/svg" width="120" height="120" viewBox="0 0 120 120">
    <path d="m87.234 10.914-2.101 6.3-.524 1.575-.043.125-.066.203-.059.172-.046.14-.04.122-.027.082-.02.062-.011.032-.004.007-.758-.277-1-.34-1.008-.308-.187-.055-.828-.23-1.024-.254-1.027-.23-1.035-.2-1.04-.176-1.042-.144-1.051-.118-1.05-.09-.505-.027-.547-.031-1.054-.035-1.055-.004-1.05.023-1.055.051-1.051.082-1.051.106-1.043.136-1.043.164-1.035.192-1.031.218-1.028.25-1.015.274-1.012.3-1 .329-.992.355-.985.383-.972.406-.961.434-.95.46-.933.485-.926.508-.152.09-.754.445-.523.324-.372.235-.878.578-.864.605-.476.352-.121.09-.25.187-.254.2-.578.453-.809.672-.793.691-.777.715-.754.738-27.844 27.84.043.043-.523.55-.395.458-.113.133-.477.609-.445.637-.313.496-.101.156-.383.676-.348.695-.312.707-.278.723-.242.738-.207.746-.168.758-.133.766-.09.761-.003.008-.055.774-.016.773.02.777.059.774.097.77.137.761.172.758.207.746.246.734.281.723.32.707.149.297.203.394.383.676.058.094.36.558.449.633.48.61.508.586.54.558.562.531.02.012.57.492.617.473.637.441.656.415.676.374.695.348.71.309.727.273.395.13.344.108.746.204.758.164.765.129.77.09.773.05.778.012.773-.024.773-.062.77-.102.762-.14.59-.137.168-.039.746-.21.734-.25.52-.208.199-.078-.008-.024.008-.003 5.867-2.43 8.848-3.664 5.25-2.176 12.074-5v8.629L52.059 95.699l-5.25 7.875-3.672 5.512h66.672v-52.5l-.012-1.05-.043-1.056-.07-1.05-.098-1.051-.129-1.047-.156-1.043-.18-1.039-.21-1.031-.24-1.028-.265-1.02-.293-1.015-.32-1.004-.344-.996-.375-.984-.398-.977-.336-.761-.09-.204-.45-.953-.476-.941-.5-.926-.265-.46-.262-.454-.55-.898-.575-.887-.117-.172-.477-.695-.621-.852-.644-.836-.665-.82-.687-.797-.707-.781-.711-.746-.02-.016-.746-.742-.77-.723-.788-.703-.805-.68-.824-.656-.84-.637-.86-.613-.87-.59-.668-.422-.012-.007-2.004-6.008Zm-16.8 11.547.957.012.957.043.39.027.567.039.953.094.949.12.945.15.942.171.531.113.402.086.93.227.926.254.914.277.543.18.367.121.898.332.028.008-1.293 3.887-1.98 5.937h5.25l2.562-7.687.156.09 1.633 4.89.902 2.707h5.246l-.765-2.297.222.215.668.688.649.703.597.691.028.031.61.739.585.757.563.774.277.398.266.39.523.806.496.816.477.832.187.352.262.492.43.855.402.867.379.88.351.89.329.898.304.91.278.915.253.925.227.93.008.04.191.894.172.941.149.95.12.945.094.953.067.957.039.957.012.844.004.109h-.004v47.25H53.12l16.266-24.934v-12.12l6.156-2.552-2.012-4.851-4.144 1.719-5.25 2.175-12.078 5-5.25 2.176-12.868 5.328-4.062 1.684.004.012-.153.062-.25.094-.574.187-.582.153-.59.12-.597.087-.602.05-.601.02-.504-.016-.102-.003-.601-.051-.594-.09-.594-.117-.582-.156-.574-.188-.563-.219-.547-.254-.144-.078-.387-.207-.515-.312-.497-.344-.476-.371-.453-.395-.43-.425-.164-.18-.242-.266-.38-.469-.35-.488-.325-.512-.293-.527-.262-.543-.23-.558-.2-.567-.163-.582-.133-.59-.098-.593-.062-.598-.028-.606.004-.601.043-.602.063-.5.011-.101.11-.59.144-.59.176-.574.207-.567.242-.554.274-.535.305-.524.332-.5.359-.484.39-.461.395-.422.012-.012-.004-.008-.012-.007 2.668-2.672.36-.356 24.804-24.804-.02-.02.505-.492.125-.117.011-.016.043-.043.707-.648.723-.625.738-.61.758-.586.773-.566.79-.543.8-.52.82-.496.829-.476.844-.45.859-.43.867-.401.879-.38.89-.351.9-.332.905-.3.918-.278.922-.254.93-.227.402-.086.535-.113.36-.066.582-.106.945-.148.95-.121.952-.094.954-.066.957-.043Zm16.785 4.25.043.031.039.113Zm-31.223 8.875-.383.02-.078.011-.305.047-.375.094-.363.129-.351.164-.133.082-.2.117-.308.23-.285.262-.262.285-.23.309-.2.332-.164.352-.129.363-.093.375-.059.383-.02.382.02.387.059.383.093.375.13.363.163.352.2.328.23.312.262.286.285.261.309.227.332.2.351.167.363.129.375.094.305.047.078.011.383.016.387-.016.383-.058.375-.094.363-.129.348-.168.332-.2.312-.226.285-.261.262-.286.23-.312.196-.328.168-.352.129-.363.093-.375.059-.383.016-.387-.016-.382-.059-.383-.093-.375-.13-.363-.167-.352-.196-.332-.23-.309-.262-.285-.285-.262-.312-.23-.332-.2-.348-.163-.363-.13-.375-.093-.383-.059Zm0 0"/>
    <path fill="#5984bd" d="M53.402 103.613c.051-.129 3.664-5.707 8.028-12.394l7.937-12.16V66.863l3.074-1.273c1.692-.703 3.075-1.348 3.075-1.434 0-.164-1.825-4.664-1.938-4.777-.035-.035-10.07 4.082-22.3 9.144s-22.68 9.297-23.223 9.41c-3.446.723-6.907-.328-9.446-2.863-3.308-3.308-4.007-8.027-1.824-12.277.625-1.215 1.883-2.531 15.41-16.105 8.102-8.13 15.48-15.415 16.403-16.192 6.695-5.629 15.382-8.453 24.136-7.844 3.157.22 5.098.59 8.301 1.59l1.52.473-3.29 9.851 2.72-.05 2.722-.051 1.223-3.68c.668-2.023 1.265-3.68 1.32-3.68s.648 1.657 1.32 3.68l1.22 3.68 2.64.05c1.484.028 2.64-.023 2.64-.117 0-.093-.125-.523-.277-.96-.156-.434-.281-.829-.281-.876 0-.171 1.988 2.086 3.035 3.45 2.726 3.543 4.652 7.539 5.808 12.047 1.149 4.46 1.122 3.789 1.122 30.921v24.774l-25.582.047c-20.45.035-25.567 0-25.493-.188m4.375-60.515c.942-.453 1.813-1.551 2.11-2.657.64-2.375-1.457-4.949-4.035-4.953-.922 0-2.524.922-3.137 1.809-.637.918-.844 2.41-.485 3.496.73 2.215 3.422 3.336 5.547 2.305m0 0"/>
</svg>
