<svg xmlns="http://www.w3.org/2000/svg" width="120" height="120" viewBox="0 0 120 136">
    <path fill="none" stroke="red" stroke-width=".004" d="M46-42.5v1h-1.793l2.682 2.682.707-.707.236 1.65.118.825-.825-.118-1.65-.236.707-.707-2.682-2.682V-39h-1v-1.793l-2.682 2.682.707.707-1.65.236-.825.118.118-.825.236-1.65.707.707 2.682-2.682H40v-1h1.793l-2.682-2.682-.707.707-.236-1.65-.118-.825.825.118 1.65.236-.707.707 2.682 2.682V-45h1v1.793l2.682-2.682-.707-.707 1.65-.236.825-.118-.118.825-.236 1.65-.707-.707-2.682 2.682H46m2 7.251-.289.321-.075.112-.173.259-.21.412-.17.446-.135.471-.094.46-.005.028-.097-.028-1.046-.3.115-.546.142-.53.175-.51.075-.162.144-.309.271-.425.33-.366.99.633.052.034m-2.694 1.995-.013.002-.237.039-.838.136-.108-.378-.096-.399-.08-.405-.066-.396-.047-.372-.026-.334 1.11-.194.025-.004.016-.003.018.335.039.376.053.378.003.022.07.41.084.405.093.382m-1.871.032-.015.004-.412.105-.576.148-.14-.333-.134-.355-.047-.14-.077-.222-.108-.355-.085-.333v-.002l-.022-.111-.037-.183 1.05-.278.015-.004.047.288.039.177.034.155.041.154.054.204.112.37.126.366.135.345m-2.318-1.544-.157-.014-.056-.004H40.9l-.2-.014-.186-.01-.094-.002-.073-.002h-.14l-.108.006h-.084l-.07.006-.01.001-.054.011-.056.021-.052.033-.05.048-.072.129-.067.209-.063.303-.036.253-.023.154-.055.525-.028.345-.024.31h7.235V-26h-7.8v-1.134h3.274v-.7h-2.89v-1.045h2.89v-.7h-2.89V-30.6h2.89v-.708H38l.001-.027v-.038l.001-.033.003-.1.003-.117.004-.115.004-.101.042-.619.022-.31.008-.128.077-.854.088-.67.079-.396.022-.111.121-.363.144-.24.118-.126.122-.1.053-.03.076-.045.136-.056.148-.041.16-.029.168-.018.194-.013.216-.009.235-.003.25.003.102.003.068.002.048.001.028.001.015.001.022.199.04.21.054.218.07.213.018.044.064.157.067.132.026.05m.587 1.737-.744.257-.012.004-.176.061-.04-.061-.125-.192-.16-.268-.153-.274-.136-.27-.01-.02-.104-.235-.086-.233.994-.37.008.023.07.21.103.261.125.28.031.064.11.22.15.28.155.263M56-50l-2.872 17.23-.928 5.572L52-26l-7.52 5.013-.001.001L43-20l-9-6-.2-1.197-.928-5.571L30-50h26M35.382-27.228v.03h.007L38-25.412l5 3.415 5-3.416.859-.587 1.752-1.197h.007v-.031l.903-5.54L52-35.71l2.003-12.293H31.997L34-35.709l.479 2.94.903 5.54m9.932-2.35h-1.966v.7h1.966v-.7m-.258-1.021h.258v-.708h-1.966v.708h1.708m.258 2.766h-1.966v.7h1.966Zm0 0" transform="matrix(4.29492 0 0 4.26451 -124.553 217.49)"/>
    <path fill="red" d="m40.84 119.297-19.278-12.762-8.55-50.969C8.309 27.536 4.46 4.543 4.46 4.476c.004-.07 25.047-.124 55.656-.124 49.461 0 55.656.027 55.656.246 0 .136-3.835 23.082-8.52 50.988-4.683 27.91-8.515 50.781-8.515 50.824 0 .047-8.691 5.836-19.312 12.867L60.117 132.06Zm35.648-6.57c8.91-6.051 16.258-11.055 16.32-11.122.067-.066 3.36-19.886 7.325-44.046 3.96-24.16 7.246-44.133 7.3-44.38l.094-.452H12.73l.086.37c.047.204 3.325 20.137 7.286 44.298 3.957 24.16 7.214 43.988 7.238 44.062.05.176 32.562 22.262 32.777 22.266.094.004 7.457-4.946 16.371-10.996m0 0"/>
    <path fill="red" d="M42.176 104.195v-2.297H56.23v-3.12H43.828v-4.434H56.23v-3.121H43.828v-4.106H56.23v-3.285h-8.765c-6.903 0-8.762-.043-8.762-.203 0-.113.11-1.797.238-3.742.567-8.422 1.184-11.989 2.375-13.707.61-.88 1.942-1.649 3.235-1.875.574-.098 2.125-.18 3.449-.18h2.406l.11.863c.093.742.726 2.801 1.168 3.805.132.3.066.309-1.75.203-3.22-.183-3.996.082-4.43 1.527-.43 1.434-1.27 8.22-1.063 8.59.036.067 7.024.121 15.52.121h15.457v27.262H42.176Zm27.949-3.86v-1.558h-8.602v3.121h8.602Zm0-7.554v-1.558h-8.602v3.12h8.602Zm0-7.304v-1.645h-8.602v3.285h8.602Zm4.715-8.235c-.91-.262-1.942-.55-2.293-.648l-.637-.172.113-.746c.184-1.215 1.196-4.727 1.735-6.012.66-1.57 1.805-3.46 2.683-4.43l.711-.78 2.051 1.308c1.129.722 2.09 1.351 2.14 1.402.048.047-.175.363-.495.703-1.68 1.754-3.192 4.969-3.942 8.363-.168.766-.328 1.41-.36 1.438-.03.027-.8-.168-1.706-.426m0 0"/>
    <path fill="red" d="M64.863 74.184c-.726-2.95-1.43-7.43-1.164-7.43.043 0 1.114-.184 2.383-.41 1.27-.227 2.324-.41 2.348-.41.023 0 .039.379.039.84 0 1.105.597 5.163 1.062 7.218.203.895.328 1.63.274 1.63-.051.003-.95.148-1.996.327s-2.02.328-2.168.328c-.2 0-.387-.492-.778-2.093m-7.289 2.238c-1.043-2.637-1.457-3.82-1.933-5.55-.313-1.122-.567-2.161-.567-2.313 0-.215.461-.395 2.074-.813 1.141-.297 2.114-.504 2.16-.457s.274.926.505 1.95c.347 1.55 1.5 5.245 1.94 6.234.095.215-.179.336-1.585.699-.938.246-1.871.484-2.074.539-.282.074-.403.008-.52-.29m-7.562.544c-.805-1.192-2.711-4.903-2.711-5.278 0-.214.48-.46 1.914-.988 1.066-.394 1.969-.64 2.039-.558.07.078.262.511.43.96.41 1.102 1.421 3.223 2.14 4.481.32.563.555 1.023.52 1.023-.04 0-.887.293-1.887.649l-1.816.644ZM39.04 59.094c0-.168.315-2.469.698-5.11l.7-4.808 1.402 1.398c.77.77 1.476 1.403 1.57 1.403s2.778-2.59 5.957-5.75l5.79-5.747H47.3v-4.105h7.855l-5.87-5.828-5.868-5.828-1.445 1.426c-.793.785-1.47 1.394-1.504 1.351-.059-.07-1.438-9.598-1.438-9.937 0-.114 1.739.074 4.922.527 2.703.39 5.027.707 5.164.71.133.005-.441.692-1.281 1.528l-1.523 1.52 5.746 5.707c3.16 3.137 5.8 5.703 5.87 5.703.067 0 .122-1.7.122-3.777v-3.778h4.136v3.778c0 2.078.055 3.777.122 3.777.066 0 2.71-2.566 5.87-5.703l5.747-5.707-1.524-1.52c-.84-.836-1.418-1.523-1.28-1.527.132-.004 2.456-.32 5.163-.711 3.192-.457 4.922-.64 4.926-.527.004.097-.313 2.414-.7 5.144l-.702 4.969-1.496-1.477-1.493-1.476-5.87 5.828-5.868 5.828h7.856v4.105h-7.856l5.785 5.747c3.184 3.16 5.863 5.75 5.953 5.75.086 0 .797-.63 1.575-1.399l1.414-1.394.722 5.007c.403 2.754.692 5.047.649 5.09-.082.082-9.41-1.176-9.887-1.332-.16-.05.23-.543 1.2-1.508l1.433-1.433-5.871-5.824-5.868-5.829v7.797H58.05v-7.797l-5.871 5.829-5.867 5.824 1.433 1.433c.969.965 1.36 1.457 1.2 1.508-.133.043-2.173.344-4.54.672-2.363.324-4.543.633-4.836.688-.449.078-.539.043-.53-.215m0 0"/>
    <path fill="#f9f9f9" d="M43.91 112.559c-8.914-6.047-16.265-11.086-16.332-11.196-.07-.113-3.144-18.605-6.828-41.093-8.285-50.547-7.746-47.207-7.652-47.301.043-.043 21.246-.059 47.12-.035l47.044.039-7.235 44.086c-3.98 24.246-7.265 44.164-7.304 44.257-.047.133-29.72 20.375-32.176 21.957l-.43.278ZM75.582 92.78V78.906H44.609l.114-1.683c.168-2.477.558-5.145.933-6.403.48-1.605.645-1.683 3.496-1.648 1.262.016 2.45.074 2.645.137.41.129.394.058-.29-1.57-.25-.587-.57-1.684-.714-2.438l-.266-1.371-3.144.078c-3.348.082-3.946.191-5.016.902-2.172 1.45-2.84 4.168-3.582 14.57-.133 1.899-.246 3.688-.246 3.985l-.004.531h17.531v2.957H43.664v4.434h12.402v2.793H43.664v4.761h12.402v2.793H42.008v4.926h33.574ZM52.617 77.406c1.078-.375 1.961-.726 1.961-.789 0-.058-.398-.824-.887-1.699a35 35 0 0 1-1.59-3.36c-.39-.972-.722-1.785-.742-1.808-.054-.062-4.129 1.445-4.27 1.582-.155.152.673 2.172 1.485 3.625.82 1.465 1.88 3.129 1.992 3.129.051 0 .973-.305 2.051-.68m24.184.227c.043-.156.168-.73.277-1.274.59-2.972 2.547-7.113 3.957-8.37.836-.747.817-.774-1.547-2.286-1.21-.777-2.277-1.414-2.363-1.414-.234 0-1.695 1.809-2.406 2.98-1.082 1.774-2.278 5.305-3.028 8.942-.062.309.149.402 2.282 1.012 2.757.789 2.722.78 2.828.41m-16.805-1.215c1.113-.285 2.024-.57 2.024-.637 0-.066-.262-.844-.586-1.73-.567-1.559-1.59-5.242-1.805-6.524-.082-.488-.168-.605-.387-.543-.156.047-1.176.317-2.265.602-1.094.285-2.036.547-2.094.582-.434.258 2.383 8.766 2.898 8.77.102 0 1.098-.235 2.215-.52m7.969-.309c1.133-.183 2.086-.359 2.117-.39.035-.035-.05-.492-.187-1.024-.575-2.242-1.258-6.66-1.258-8.136 0-.434-.075-.79-.16-.79-.09 0-1.223.184-2.52.41-1.297.227-2.387.41-2.426.41-.12 0 .13 2.638.395 4.188.14.813.488 2.422.77 3.57.6 2.438.257 2.25 3.269 1.762m-24.04-17.234c2.54-.36 4.868-.695 5.18-.75l.563-.098-1.512-1.511-1.515-1.508 5.625-5.578 5.62-5.582v7.468h4.466v-7.632l5.664 5.62 5.66 5.622-1.555 1.55-1.55 1.551.562.098c1.082.188 9.793 1.402 10.066 1.402.246 0 .196-.55-.5-5.293-.43-2.914-.789-5.332-.797-5.375-.011-.047-.71.602-1.55 1.434l-1.532 1.516-11.242-11.164h7.524V36.21h-7.524l5.66-5.625 5.664-5.621 1.485 1.469c.816.804 1.511 1.433 1.547 1.394.07-.09 1.578-10.566 1.527-10.629-.02-.02-2.465.313-5.438.738l-5.398.782 1.527 1.523 1.524 1.52-5.66 5.62-5.664 5.626v-7.473h-4.465v7.469l-5.621-5.578-5.625-5.582 1.52-1.516c.835-.832 1.487-1.543 1.448-1.582-.129-.113-10.648-1.57-10.734-1.484-.121.12 1.34 10.304 1.508 10.484.086.098.722-.414 1.629-1.312l1.488-1.47 5.664 5.622 5.66 5.625h-7.687v4.434h7.523L43.418 51.809l-1.52-1.504c-1.414-1.399-1.53-1.477-1.613-1.11-.164.742-1.418 9.524-1.418 9.93 0 .23.094.402.223.402.12 0 2.3-.293 4.836-.652m0 0"/>
    <path fill="#f9f9f9" d="M61.691 100.336V98.94h8.27v2.793h-8.27Zm0-7.555v-1.394h8.27v2.793h-8.27Zm0-7.304v-1.48h8.27v2.956h-8.27Zm0 0"/>
</svg>
