<svg xmlns="http://www.w3.org/2000/svg" width="120" height="120" viewBox="0 0 120 136">
    <path fill="none" stroke="red" stroke-width=".004" d="m-49.475-38.818-.707-.707 1.975-1.975H-50v-1h2.5V-45h1v2.5h2.5v1h-1.793l1.975 1.975-.707.707-1.975-1.975V-39h-1v-1.793l-1.975 1.975m.327 2.895v.3h4.173V-36h1.26v4.19h-6.755v-4.113h1.322M-34-50l-2.872 17.232-.928 5.57L-38-26l-7.52 5.013-.001.001L-47-20l-9-6-.2-1.197-.928-5.571L-60-50h26m-10.172 18.882.65-.394.537-.263.055-.028.016-.008.064-.031.021.031.09.136.135.184.15.191.156.186.155.169.143.14-.2.085-.418.176-.603.313-.578.362-.543.403-.498.439-.216.227-.121.128-.107.112h2.983v1.176h-4.096V-26h-1.322v-1.384h-4.157v-1.176l1.406-.005 1.318-.005 1.433-.005-.217-.097-.396-.177-.79-.368-.03-.014-.835-.398-.483-.235-.353-.172-.705-.355-.348-.186-.124-.066.124-.26.428-.898.004-.01.473.305.501.31.087.053.66.395.571.333.121.07.682.39.63.35v-1.945h1.322v2.506l.485-.58.537-.543.319-.275.264-.226.071-.052.549-.398m-10.446 3.89v.03h.007l2.61 1.785L-47-21.997l5-3.416.859-.587 1.752-1.197h.007v-.031l.903-5.54.479-2.941 2.003-12.293h-22.006L-56-35.709l.479 2.94.903 5.54m5.47-5.75h4.173v-1.476h-4.173Zm0 0" transform="matrix(4.29492 0 0 4.26451 261.99 217.49)"/>
    <path fill="red" d="m40.84 119.297-19.278-12.762-8.55-50.969C8.309 27.536 4.46 4.543 4.46 4.476c.004-.07 25.047-.124 55.656-.124 49.461 0 55.656.027 55.656.246 0 .136-3.835 23.082-8.52 50.988-4.683 27.91-8.515 50.781-8.515 50.824 0 .047-8.691 5.836-19.312 12.867L60.117 132.06Zm35.648-6.57c8.91-6.051 16.258-11.055 16.32-11.122.067-.066 3.36-19.886 7.325-44.046 3.96-24.16 7.246-44.133 7.3-44.38l.094-.452H12.73l.086.37c.047.204 3.325 20.137 7.286 44.298 3.957 24.16 7.214 43.988 7.238 44.062.05.176 32.562 22.262 32.777 22.266.094.004 7.457-4.946 16.371-10.996m0 0"/>
    <path fill="red" d="M57.059 103.54v-2.958H39.195V95.82l5.582-.023a453 453 0 0 0 8.957-.121l3.375-.102-3.043-1.383c-3.718-1.687-14.504-6.941-14.93-7.27-.292-.226-.253-.339.79-2.51.601-1.255 1.125-2.31 1.164-2.349.035-.035.5.223 1.031.579 1.664 1.109 5.926 3.644 10.473 6.226l4.383 2.488.086-8.343h5.62l.005 5.379.007 5.379.766-.907c1.484-1.75 5.277-5.351 6.91-6.562 3.188-2.364 7.453-4.696 7.719-4.219.277.492 1.71 2.309 2.488 3.152l.813.883-.61.254c-.336.14-.644.254-.687.254-.215 0-4.168 2.07-5.176 2.71a41 41 0 0 0-4.652 3.47c-1.102.965-2.79 2.726-2.79 2.914 0 .058 2.868.101 6.372.101h6.367v4.762H62.684v5.914h-5.625ZM45.316 73.078v-8.621h5.457v1.148h18.192v-1.48h5.129v17.574H45.316Zm23.649.656v-3.203H50.773v6.406h18.192ZM48.086 50.375l-1.445-1.437 4.257-4.227 4.258-4.23h-7.855v-4.106h10.75V25.699h4.136v10.676h10.75v4.105h-7.855l4.258 4.23 4.258 4.227-1.446 1.438-1.445 1.434-4.262-4.227-4.257-4.227v7.797H58.05v-7.797l-4.258 4.227-4.262 4.227Zm0 0"/>
    <path fill="#f9f9f9" d="M43.914 112.555c-8.91-6.047-16.254-11.047-16.316-11.114-.149-.16-14.61-88.363-14.504-88.468.047-.047 21.25-.063 47.125-.04l47.043.04-7.235 44.086c-3.98 24.246-7.265 44.164-7.304 44.257-.047.133-29.72 20.375-32.176 21.957l-.43.278Zm18.934-8.852v-2.957h17.53V95.66l-6.327-.043-6.324-.043 1.496-1.476c2.996-2.961 7.238-5.762 11.074-7.317.726-.293 1.351-.562 1.39-.59.036-.03-.34-.484-.835-1.004-.5-.519-1.34-1.515-1.868-2.218-.527-.7-1.027-1.27-1.109-1.27-.242 0-2.754 1.281-4.277 2.18-3.196 1.887-7.672 5.703-10.059 8.574l-.68.82-.007-5.21-.004-5.215h-5.953v8.191l-2.688-1.492c-2.734-1.524-10.273-5.984-12.164-7.195l-1.04-.668-1.241 2.578c-.95 1.976-1.188 2.617-1.028 2.726.438.293 11.243 5.547 14.32 6.957l3.188 1.465-3.933.102c-2.164.054-6.036.11-8.606.12l-4.672.024v5.09h17.864v5.914h5.953Zm11.41-30.789v-8.953H68.8v1.48H50.94V64.29h-5.789v17.574h29.106ZM53.793 47.91l4.094-4.062v7.468h4.465v-7.632l4.214 4.183 4.22 4.184 1.57-1.555 1.574-1.555-8.352-8.296h7.524V36.21h-10.75V25.535h-4.465v10.676h-10.75v4.434h7.523l-4.176 4.148-4.175 4.145 1.527 1.519c.844.836 1.605 1.52 1.695 1.52s2.008-1.832 4.262-4.067m0 0"/>
    <path fill="#f9f9f9" d="M50.941 73.734v-3.039h17.86v6.075H50.94Zm0 0"/>
</svg>
