<svg xmlns="http://www.w3.org/2000/svg" width="120" height="120" viewBox="0 0 120 136">
    <path fill="none" stroke="red" stroke-width=".004" d="m-19.475-38.818-.707-.707 1.975-1.975H-20v-1h2.5V-45h1v2.5h2.5v1h-1.793l1.975 1.975-.707.707-1.975-1.975V-39h-1v-1.793l-1.975 1.975M-12-36v1.29h-4.274v1.314h3.421v1.242h-3.421v.955h-1.404v-.955h-3.405v-1.242h3.405v-1.314H-22V-36h10m8-14-2.872 17.232-.928 5.57L-8-26l-7.52 5.013-.001.001L-17-20l-9-6-.2-1.197-.928-5.571L-30-50h26m-8.279 20.306h-3.995v1.075h3.158v1.242h-3.158V-26h-1.404v-1.377h-3.174v-1.242h3.174v-1.075h-4.035v-1.258h9.434v1.258m-12.339 2.466v.03h.007l2.61 1.785L-17-21.997l5-3.416.859-.587 1.752-1.197h.007v-.031l.903-5.54L-8-35.71l2.003-12.293h-22.006L-26-35.709l.479 2.94Zm0 0" transform="matrix(4.29492 0 0 4.26451 133.142 217.49)"/>
    <path fill="red" d="m40.84 119.297-19.278-12.762-8.55-50.969C8.309 27.536 4.46 4.543 4.46 4.476c.004-.07 25.047-.124 55.656-.124 49.461 0 55.656.027 55.656.246 0 .136-3.835 23.082-8.52 50.988-4.683 27.91-8.515 50.781-8.515 50.824 0 .047-8.691 5.836-19.312 12.867L60.117 132.06Zm35.648-6.57c8.91-6.051 16.258-11.055 16.32-11.122.067-.066 3.36-19.886 7.325-44.046 3.96-24.16 7.246-44.133 7.3-44.38l.094-.452H12.73l.086.37c.047.204 3.325 20.137 7.286 44.298 3.957 24.16 7.214 43.988 7.238 44.062.05.176 32.562 22.262 32.777 22.266.094.004 7.457-4.946 16.371-10.996m0 0"/>
    <path fill="red" d="M57.223 103.54v-2.958H43.664v-5.09h13.559V90.73h-17.2v-5.09H80.38v5.09h-17.2v4.762h13.56v5.09H63.18v5.914h-5.956Zm0-21.267V80.22H42.672v-5.09h14.55v-5.746H38.7v-5.258h42.836v5.258H63.18v5.746h14.718v5.09H63.18v4.105h-5.957Zm-9.137-31.898-1.445-1.437 4.257-4.227 4.258-4.23h-7.855v-4.106h10.75V25.699h4.136v10.676h10.75v4.105h-7.855l4.258 4.23 4.258 4.227-1.446 1.438-1.445 1.434-4.262-4.227-4.257-4.227v7.797H58.05v-7.797l-4.258 4.227-4.262 4.227Zm0 0"/>
    <path fill="#f9f9f9" d="M43.914 112.555c-8.91-6.047-16.254-11.047-16.316-11.114-.149-.16-14.61-88.363-14.504-88.468.047-.047 21.25-.063 47.125-.04l47.043.04-7.235 44.086c-3.98 24.246-7.265 44.164-7.304 44.257-.047.133-29.72 20.375-32.176 21.957l-.43.278Zm19.43-8.852v-2.957h13.562v-5.418H63.344v-4.433h17.199v-5.418H39.859v5.418h17.2v4.433H43.496v5.418H57.06v5.914h6.285Zm0-21.266v-2.054h14.718v-5.418H63.345v-5.418h18.36V63.96H38.534v5.586H57.06v5.418H42.504v5.418h14.555v4.105h6.285ZM53.793 47.91l4.094-4.062v7.468h4.465v-7.632l4.214 4.183 4.22 4.184 1.57-1.555 1.574-1.555-8.352-8.296h7.524V36.21h-10.75V25.535h-4.465v10.676h-10.75v4.434h7.523l-4.176 4.148-4.175 4.145 1.527 1.519c.844.836 1.605 1.52 1.695 1.52s2.008-1.832 4.262-4.067m0 0"/>
</svg>
