<svg xmlns="http://www.w3.org/2000/svg" width="120" height="120" viewBox="0 0 120 136">
    <path fill="none" stroke="red" stroke-width=".004" d="m-79.475-38.818-.707-.707 1.975-1.975H-80v-1h2.5V-45h1v2.5h2.5v1h-1.793l1.975 1.975-.707.707-1.975-1.975V-39h-1v-1.793l-1.975 1.975M-73-33.301l-.056.533-.011.1-.191.581-.3.534-.17.213-.225.282-.348.338-.128.124-.543.435.047.09.013.025.008.014.21.401.28.563.188.396.092.194.28.61.126.284.151.34.02.047.254.583-.425.174-.945.385-.05.02-.038.016-.03.012-.017.007-.235-.614-.243-.583-.003-.01-.253-.567-.254-.54-.178-.358-.075-.151-.24-.46-.002-.006-.004-.007-.491.278-.485.266-.148.08-.316.17-.089.048-.341.183-.381.204-.318.173-.216.129-.201.122-.187.118-.175.117-.164.118-.118.093-.037.03-.005-.008-.013-.022-.804-1.355.18-.107.022-.013.165-.094.153-.084.039-.022.2-.106.205-.107.212-.107.429-.21.521-.257.58-.292.254-.133.355-.186.605-.34.181-.11.388-.237.468-.328.404-.336.331-.35.248-.363.155-.382.007-.052.047-.351-.07-.395-.206-.327-.344-.257-.48-.186-.62-.112-.753-.038-.642.016-.074.005-.604.04-.691.067-.676.088-.636.103-.569.113.017-1.704.527-.082.57-.07.614-.06.658-.044.704-.028.086-.002.664-.008 1.131.058 1 .188.838.338.463.368.176.14.408.698.144.909M-64-50l-2.872 17.232-.928 5.57L-68-26l-7.52 5.013-.001.001L-77-20l-9-6-.2-1.197-.928-5.571L-90-50h26m-20.618 22.772v.03h.007l2.61 1.785 1.001.684 4 2.732 5-3.416.859-.587 1.752-1.197h.007v-.031l.903-5.54.479-2.941 2.003-12.293h-22.006L-86-35.709l.479 2.94Zm0 0" transform="matrix(4.29492 0 0 4.26451 390.838 217.49)"/>
    <path fill="red" d="m40.84 119.297-19.278-12.762-8.55-50.969C8.309 27.536 4.46 4.543 4.46 4.476c.004-.07 25.047-.124 55.656-.124 49.461 0 55.656.027 55.656.246 0 .136-3.835 23.082-8.52 50.988-4.683 27.91-8.515 50.781-8.515 50.824 0 .047-8.691 5.836-19.312 12.867L60.117 132.06Zm35.648-6.57c8.91-6.051 16.258-11.055 16.32-11.122.067-.066 3.36-19.886 7.325-44.046 3.96-24.16 7.246-44.133 7.3-44.38l.094-.452H12.73l.086.37c.047.204 3.325 20.137 7.286 44.298 3.957 24.16 7.214 43.988 7.238 44.062.055.18 32.562 22.262 32.777 22.266.094.004 7.457-4.946 16.371-10.996m0 0"/>
    <path fill="red" d="M69.473 106.117a115 115 0 0 0-4.73-10.652c-.79-1.567-1.466-2.883-1.509-2.926s-.39.094-.77.305c-.382.21-2.94 1.594-5.687 3.074-5.37 2.89-6.656 3.633-8.3 4.789-.825.582-1.082.695-1.188.516-.07-.125-.84-1.407-1.703-2.848l-1.57-2.617 1.27-.727c.698-.394 3.788-1.972 6.87-3.504 10.84-5.39 14.567-7.863 16.813-11.144.996-1.461 1.375-2.758 1.273-4.39-.07-1.153-.156-1.47-.594-2.145-.933-1.442-2.699-2.391-5.449-2.922-1.75-.336-7.453-.383-10.613-.086-2.766.262-6.652.789-8.684 1.18-.91.175-1.71.316-1.777.316-.152 0-.16-2.168-.016-4.957l.106-2.082 1.094-.176c4.57-.734 9.836-1.058 15.394-.945 3.992.078 4.817.14 6.7.511 3.1.614 5.25 1.5 7.062 2.926 1.254.98 1.55 1.32 2.289 2.602.766 1.328.879 1.656 1.164 3.398.375 2.274.262 3.735-.453 5.867-1 2.985-2.91 5.391-6.906 8.704l-.793.656 1.914 3.86a256 256 0 0 1 3.558 7.554c1.414 3.168 1.61 3.71 1.371 3.8-.152.055-1.562.626-3.132 1.266-2.825 1.145-2.864 1.157-3.004.797M48.086 50.375l-1.445-1.437 4.257-4.227 4.258-4.23h-7.855v-4.106h10.75V25.699h4.136v10.676h10.75v4.105h-7.855l4.258 4.23 4.258 4.227-1.446 1.438-1.445 1.434-4.262-4.227-4.257-4.227v7.797H58.05v-7.797l-4.258 4.227-4.262 4.227Zm0 0"/>
    <path fill="#f9f9f9" d="M43.914 112.555c-8.91-6.047-16.254-11.047-16.316-11.114-.149-.16-14.61-88.363-14.504-88.468.047-.047 21.25-.063 47.125-.04l47.043.04-7.235 44.086c-3.98 24.246-7.265 44.164-7.304 44.257-.047.133-29.72 20.375-32.176 21.957l-.43.278Zm28.867-7.137c1.676-.68 3.11-1.297 3.184-1.371.203-.203-3.953-9.387-6.02-13.297-.543-1.031-.968-1.883-.941-1.898.367-.211 2.156-1.743 3.16-2.707 3.125-3.008 4.664-5.79 5.078-9.196.149-1.191.121-1.722-.156-3.437-.309-1.914-.379-2.114-1.238-3.547-.778-1.293-1.106-1.664-2.266-2.555-1.8-1.383-4.012-2.293-7.055-2.902-2.25-.45-2.34-.453-8.64-.453-4.977 0-6.93.062-8.934.285-3.09.347-5.808.742-5.926.855-.047.047-.12 1.711-.16 3.696-.086 4.191-.36 3.785 2.2 3.293 6.55-1.258 15.437-1.766 19.019-1.086 3.871.734 5.773 2.277 5.988 4.851.254 2.985-1.832 5.922-6.398 9.02-2.403 1.625-5.336 3.242-11 6.054-5.637 2.797-8.27 4.184-8.656 4.547-.188.176.078.715 1.546 3.188.973 1.637 1.832 2.976 1.907 2.976.078 0 .191-.086.254-.187.273-.438 4.168-2.762 8.836-5.274a817 817 0 0 0 5.816-3.152l.773-.433 1.57 3.167c1.97 3.98 3.071 6.485 4.59 10.434.079.203.204.371.282.371.074 0 1.511-.558 3.187-1.242M53.793 47.91l4.094-4.062v7.468h4.465v-7.632l4.214 4.183 4.22 4.184 1.57-1.555 1.574-1.555-8.352-8.296h7.524V36.21h-10.75V25.535h-4.465v10.676h-10.75v4.434h7.523l-4.176 4.148-4.175 4.145 1.527 1.519c.844.836 1.605 1.52 1.695 1.52s2.008-1.832 4.262-4.067m0 0"/>
</svg>
