<svg xmlns="http://www.w3.org/2000/svg" width="120" height="120" viewBox="0 0 120 136">
    <path fill="none" stroke="red" stroke-width=".004" d="m76.182-39.525-.182.182-.343.343-.182.182-.182-.182-1.793-1.793V-39h1l-1 1.333L73-37l-.5-.667-1-1.333h1v-1.793L70.707-39l-.182.182-.182-.182-.343-.343-.182-.182.182-.182 1.793-1.793H70v1L68-42l.666-.5 1.334-1v1h1.793L70-44.293l-.182-.182.182-.182.343-.343.182-.182.182.182 1.793 1.793V-45h-1l1-1.333L73-47l.5.667 1 1.333h-1v1.793L75.293-45l.182-.182.182.182.343.343.182.182-.182.182-1.793 1.793H76v-1l1.333 1L78-42l-2 1.5v-1h-1.793L76-39.707l.182.182M78-35.391l-.176.364-.034.07-.043.14-.101.331-.092.49-.021.204-.03.292-.022.483-.003.249-.001.208v2.1H73.43v-4.23l.008-.242.03-.207.052-.176.083-.148.117-.124.007-.004.149-.097.179-.082.201-.058.222-.038.244-.022h.029l.236-.01.134-.001h.091l.026-.002h.038l.037.18.054.192.068.196.075.19.08.18.043.087.014.03.012.023.003.006.004.008.002.004-.17-.01-.17-.006-.158-.002h-.14l-.11.004-.037.003-.038.003-.055.003-.043.01-.033.017-.022.027-.012.037-.004.051v.86l.261-.147.14-.077.118-.066.255-.14.25-.136.075-.041.17-.092.24-.13.251.695.026.072.014.04.043-.39.063-.385.047-.211.036-.165.108-.362.133-.34.128-.25.016-.031.008-.017.007-.011.003-.008.118.098.153.114.172.118.177.113.135.078.032.018.144.07m-2.83 2.504.164.087.063.032.131.067.216.106.032.015.196.092.229.105.218.095h.002l.002.002v-.297l.001-.156v-.03l.002-.134.004-.171.006-.175.008-.18.01-.18-.249.082-.273.096-.156.056-.138.05-.31.116-.322.121-.127.048-.008.003-.194.074v.692l.397-.497.093-.117.002-.002m-7.09-2.064.128-.362.188-.26.26-.173.341-.095.435-.03h1.615l.537.028.097.022.314.072.297.173.197.269.11.379.004.066.029.43v4.528h-2.769v.586h2.769v3.242h-1.254v-.708h-3.154v-1.012h3.154v-.594h-2.739v-2.45h2.739v-.419H68.63v-.723h2.746v-.44h-2.692v-.717h2.692v-.433h-2.8v-.731l-.1-.037-.103-.034-.1-.031-.097-.028-.092-.024-.085-.021.057-.338.022-.135M85.999-50l-2.87 17.232-.93 5.57L82-26l-7.52 5.013v.001L73-20l-9-6-.2-1.197-.928-5.571L60-50h26m-8 21.024h-.992l.034.146.04.148.003.01.041.138.046.145.046.14.044.133-.908.213h1.477v1.043h-1.777l.03.1.03.1.011.036.016.048.006.018.034.098.033.096.032.09-.47.113-.668.161-.06-.137-.06-.143-.055-.147-.052-.147-.017-.05-.03-.096-.042-.14h-1.6v-1.043h1.562l-1.026-.225-.013-.003.013-.029.233-.512.139-.304h-1.046v-1.042H78v1.042m-2.051.16-.034-.16h-.738l-.059.177-.042.127-.018.056-.059.185-.054.184-.047.178-.036.166h1.384l-.07-.177-.065-.187-.062-.189-.055-.186-.008-.03-.037-.145m-10.567 1.589v.03h.007L68-25.412l5 3.415 5-3.416.859-.587 1.752-1.197h.007v-.031l.903-5.54L82-35.71l2.003-12.293H61.997L64-35.709l.479 2.94.903 5.54m5.495-7.645h-1.339l-.133.011-.104.036-.013.01-.065.057-.058.106-.042.15-.031.2h2.285v-.121l-.008-.168-.028-.12-.055-.082-.091-.049-.134-.023-.184-.007m3.973 2.722-.173-.088v.875h1.746v-.891l-.477.563-.17-.064-.041-.015-.227-.09-.23-.096-.224-.098Zm0 0" transform="matrix(4.29492 0 0 4.26451 -253.4 217.49)"/>
    <path fill="red" d="m40.84 119.297-19.278-12.762-8.55-50.969C8.309 27.536 4.46 4.543 4.46 4.476c.004-.07 25.047-.124 55.656-.124 49.461 0 55.656.027 55.656.246 0 .136-3.835 23.082-8.52 50.988-4.683 27.91-8.515 50.781-8.515 50.824 0 .047-8.691 5.836-19.312 12.867L60.117 132.06Zm35.648-6.57c8.91-6.051 16.258-11.055 16.32-11.122.067-.066 3.36-19.886 7.325-44.046 3.96-24.16 7.246-44.133 7.3-44.38l.094-.452H12.73l.086.37c.047.204 3.325 20.137 7.286 44.298 3.957 24.16 7.214 43.988 7.238 44.062.05.176 32.562 22.262 32.777 22.266.094.004 7.457-4.946 16.371-10.996m0 0"/>
    <path fill="red" d="m57.012 55.418-3.098-4.102h4.137v-7.96l-4.258 4.226-4.262 4.227-1.445-1.434-1.445-1.437 4.257-4.227 4.258-4.23h-8.02v1.968c0 1.086-.038 1.973-.085 1.973s-1.914-1.363-4.149-3.027l-4.062-3.028 4.11-3.062 4.105-3.059.043 2.063.047 2.066h8.011l-4.3-4.27-4.297-4.27 1.445-1.437 1.445-1.433 4.18 4.144c2.297 2.278 4.23 4.145 4.3 4.145.067 0 .122-1.734.122-3.856v-3.851l-2.059-.047-2.054-.047 2.976-3.941c1.637-2.168 3.04-4.004 3.117-4.082.078-.078 1.516 1.68 3.227 3.941l3.086 4.082-4.156.094v3.851c0 2.122.054 3.856.12 3.856.067 0 2.005-1.867 4.301-4.145l4.176-4.144 1.445 1.433 1.45 1.438-4.301 4.27-4.297 4.269h8.008l.047-2.066.047-2.063 4.113 3.063c2.262 1.687 4.047 3.125 3.969 3.191-.079.07-1.95 1.469-4.153 3.11l-4.011 2.98v-4.11h-8.02l4.258 4.23 4.258 4.227-1.446 1.438-1.445 1.434-4.262-4.227-4.257-4.227v7.961h4.136l-3 3.985a548 548 0 0 1-3.11 4.101c-.058.067-1.5-1.726-3.202-3.984m-3.758 49.27v-1.477H39.69v-4.106h13.563v-2.793H41.512v-10.18h11.742V84.16H41.512v-2.953h11.742V79.07H41.68v-2.793h11.574V74.31H41.18v-3.24l-2.438-.718.227-1.184c.418-2.211 1.543-3.719 3.168-4.242.875-.281 10.304-.399 11.945-.145 2.324.356 3.473 1.242 4.035 3.114.23.777.266 2.214.266 11.453V89.91H46.64v2.625h11.742v13.633h-5.13Zm-.031-34.344c-.121-1.633-.082-1.617-4.688-1.617-2.12 0-4.039.066-4.262.148-.449.172-.941 1.21-.941 1.988v.489h9.961Zm8.832 7.289c.047-9.613.054-9.824.398-10.551.836-1.75 2.184-2.36 5.688-2.574l1.57-.098.676 1.953c.375 1.075.734 2.082.804 2.239.118.261-.02.289-1.613.289-.957 0-1.86.043-2.004.097-.219.086-.261.438-.261 2.219 0 1.164.042 2.117.097 2.117s1.465-.746 3.137-1.656 3.098-1.621 3.172-1.574.39.793.703 1.656c.308.867.61 1.52.668 1.45.058-.067.191-.825.293-1.688.25-2.078.898-4.489 1.625-6.074l.597-1.293.848.617c.469.34 1.32.902 1.89 1.25.782.476 1.012.699.927.894-1.684 3.828-2.047 6.559-2.047 15.406v5.133H62.008Zm12.867 2.117c0-2.246.047-4.437.11-4.871l.105-.785-.489.097c-.273.051-2.03.664-3.914 1.356l-3.421 1.258v7.027h7.609Zm0 0"/>
    <path fill="red" d="M70.074 81.14c-1.344-.574-2.492-1.09-2.543-1.144-.054-.05.336-.633.864-1.289.527-.66.98-1.223 1.003-1.258.028-.031 1.036.422 2.247 1.004 1.21.586 2.367 1.117 2.574 1.18.203.066.37.191.37.285 0 .191-1.8 2.273-1.964 2.273-.055-.004-1.203-.472-2.55-1.05m-1.305 24.246a34 34 0 0 1-.641-1.809l-.207-.695h-6.895v-4.27l3.434-.008c1.973 0 3.324-.062 3.184-.144-.137-.074-1.032-.297-1.985-.496-2.562-.528-2.418-.305-1.492-2.309l.797-1.722-2.215-.047-2.219-.047v-4.258h21.004v4.27H77.23l.106.449c.062.25.285 1.008.5 1.683.215.68.39 1.309.39 1.407 0 .097-.769.343-1.714.55-.942.211-1.817.446-1.942.524-.132.082 1.082.144 2.957.144l3.184.004v4.262l-3.79.047-3.788.043.383 1.2c.27.847.328 1.222.191 1.265-.187.058-4.402 1.066-4.469 1.066-.02 0-.23-.5-.468-1.11m5.324-6.907c0-.074-.211-.757-.469-1.52a31 31 0 0 1-.68-2.25l-.207-.858h-3.39l-.59 2.011a86 86 0 0 0-.672 2.38l-.082.37h3.047c1.672 0 3.043-.062 3.043-.133m0 0"/>
    <path fill="#f9f9f9" d="M43.91 112.559c-8.914-6.047-16.265-11.086-16.332-11.196-.07-.113-3.144-18.605-6.828-41.093-8.285-50.547-7.746-47.207-7.652-47.301.043-.043 21.246-.059 47.12-.035l47.044.039-7.235 44.086c-3.98 24.246-7.265 44.164-7.304 44.257-.047.133-29.72 20.38-32.176 21.957l-.43.278Zm27.86-6.461c1.226-.301 2.25-.614 2.277-.7.027-.082-.098-.582-.281-1.113-.184-.527-.332-1.023-.332-1.101 0-.075 1.71-.137 3.8-.137h3.805v-4.598L75.5 98.41l1.488-.379c.82-.21 1.496-.386 1.508-.39.012-.008-.223-.809-.516-1.778l-.539-1.765 2.13-.047 2.132-.047v-4.586h-21.5v4.598h2.25c1.734 0 2.23.046 2.164.203-.05.113-.406.886-.793 1.722-.39.832-.668 1.555-.62 1.602.046.047.858.262 1.808.48l1.722.399-2.937.012-2.934.015v4.598h6.887l.297.945c.465 1.465 1.047 2.668 1.281 2.66.121-.004 1.219-.254 2.442-.554m-13.06-6.746v-6.98H46.806v-2.298h11.937l-.074-10.715c-.066-9.73-.102-10.8-.367-11.62-.59-1.794-1.59-2.618-3.684-3.04-1.941-.39-11.664-.285-12.785.137-1.668.633-2.602 1.95-3.059 4.324-.132.68-.238 1.262-.238 1.29 0 .03.559.218 1.242.421l1.239.363v3.239H53.09v1.64H41.512v3.121H53.09v1.809H41.348v3.281H53.09v1.645H41.348v10.508H53.09v2.464H39.527v4.434H53.09v2.957h5.62Zm20.677-16.793c.004-8.711.453-12.313 1.894-15.137.242-.477.418-.883.39-.902a36 36 0 0 0-.995-.567 23 23 0 0 1-1.946-1.258c-.55-.402-1.062-.734-1.14-.734-.184 0-1.055 1.926-1.485 3.285-.41 1.277-.82 3.262-.964 4.629l-.106.996-.558-1.531c-.305-.84-.59-1.559-.63-1.602-.038-.039-1.445.68-3.12 1.594-1.68.914-3.098 1.664-3.149 1.664-.055 0-.101-.851-.101-1.887 0-2.234-.141-2.12 2.472-2.03.914.03 1.664.026 1.664-.009s-.297-.812-.66-1.726c-.363-.91-.738-1.973-.832-2.356l-.176-.699-1.11.004c-2.55.008-4.573.512-5.612 1.394-1.325 1.126-1.278.704-1.332 11.946l-.051 9.976h17.547ZM63.512 55.422l3.16-4.188-2.16-.043-2.16-.046v-7.461l4.214 4.183 4.22 4.184 1.57-1.555 1.574-1.555-8.352-8.296h7.348l.094 4.25 4.3-3.204c2.364-1.757 4.313-3.25 4.332-3.312.035-.121-8.414-6.438-8.609-6.438-.059 0-.106.961-.106 2.133v2.137h-7.359l8.43-8.375-1.61-1.602-1.613-1.597-4.215 4.183-4.218 4.184v-7.305H64.5c1.184 0 2.152-.039 2.152-.086 0-.12-6.441-8.617-6.535-8.617s-6.531 8.496-6.531 8.617c0 .047.969.086 2.148.086h2.153v7.305l-4.219-4.184-4.215-4.183-1.574 1.554-1.574 1.559 4.261 4.23 4.258 4.23h-7.523v-2.136c0-1.172-.04-2.133-.086-2.133-.164 0-8.707 6.43-8.637 6.5.04.04 1.996 1.504 4.356 3.262l4.285 3.192.047-2.125.043-2.125h7.351l-4.18 4.148-4.175 4.148 1.535 1.516c.844.836 1.605 1.52 1.695 1.52s2.004-1.832 4.258-4.067l4.094-4.062v7.297l-2.14.046-2.138.043 3.25 4.309c1.786 2.367 3.305 4.254 3.371 4.187.063-.066 1.54-2.003 3.282-4.308m0 0"/>
    <path fill="#f9f9f9" d="M43.496 70.96c0-.6.242-1.284.594-1.66l.383-.41h3.879c4.539 0 4.558.005 4.699 1.446l.082.852h-4.82c-3.977 0-4.817-.04-4.817-.227m28.719 7.543c-1.258-.582-2.395-1.152-2.531-1.262-.16-.133-.286-.144-.356-.039-.254.375-1.738 2.195-1.793 2.195-.031 0-.058-.543-.058-1.21V76.98l1.613-.617c2.183-.832 5.707-2.074 5.73-2.02.082.204-.113 5.22-.203 5.22-.062 0-1.144-.477-2.402-1.06m-4.738 3.45v-1.715l.953.422c1.691.754 4.058 1.695 4.265 1.695.114 0 .621-.488 1.133-1.082l.926-1.078v3.473h-7.277Zm.894 15.961c.059-.293.34-1.289.625-2.215l.52-1.683h3.058l.207.859c.184.773.75 2.52 1.067 3.285.109.27-.086.29-2.735.29h-2.847Zm0 0"/>
</svg>
