<svg xmlns="http://www.w3.org/2000/svg" width="120" height="120" viewBox="0 0 120 136">
    <path fill="none" stroke="red" stroke-width=".004" d="m10.525-38.818-.707-.707 1.975-1.975H10v-1h2.5V-45h1v2.5H16v1h-1.793l1.975 1.975-.707.707-1.975-1.975V-39h-1v-1.793l-1.975 1.975M8.521-36h8.921v1.205h-3.744v1.377h2.717v1.18h-2.717v1.295h2.204v.976l.226-.161.224-.153.032-.021.191-.125.22-.14.219-.13.076-.043.062-.036.038-.02.025-.016.01-.005.005-.003.1.174.117.189.128.195.138.192.143.18.054.06.058.064.032.036-.59.293-.603.355-.423.287-.176.12-.004.003-.257.197-.324.248-.557.48-.515.501h1.396V-26h-3.585l-.074-.102-.44-.612-.433-.483-.19-.21-.716-.654-.788-.594-.028-.017-.814-.497-.687-.323-.182-.086-.01-.004.141-.167.051-.067.101-.132.154-.219.148-.226.134-.222.055-.105.054-.1.191.1.034.018.223.125.22.132.22.139.217.145.215.153v-.935H12.4v-1.295H9.653v-1.18H12.4v-1.377H8.52V-36M26-50l-2.872 17.232-.928 5.57L22-26l-7.52 5.013-.001.001L13-20l-9-6-.2-1.197-.928-5.571L0-50h26M14.22-28.554l.129-.118.32-.298.465-.399.474-.377h-5.095l.475.38.455.4.307.294.127.121.41.427.384.437.263.326.043.054.031.04.018.021.367-.442.4-.437.428-.429m-8.839 1.326v.03h.007L8-25.412l5 3.415 5-3.416.859-.587 1.752-1.197h.007v-.031l.903-5.54L22-35.71l2.003-12.293H1.997L4-35.709l.479 2.94Zm0 0" transform="matrix(4.29492 0 0 4.26451 4.295 217.49)"/>
    <path fill="red" d="m40.84 119.297-19.278-12.762-8.55-50.969C8.309 27.536 4.46 4.543 4.46 4.476c.004-.07 25.047-.124 55.656-.124 49.461 0 55.656.027 55.656.246 0 .136-3.835 23.082-8.52 50.988-4.683 27.91-8.515 50.781-8.515 50.824 0 .047-8.691 5.836-19.312 12.867L60.117 132.06Zm35.648-6.57c8.91-6.051 16.258-11.055 16.32-11.122.067-.066 3.36-19.886 7.325-44.046 3.96-24.16 7.246-44.133 7.3-44.38l.094-.452H12.73l.086.37c.047.204 3.325 20.137 7.286 44.298 3.957 24.16 7.214 43.988 7.238 44.062.05.176 32.562 22.262 32.777 22.266.094.004 7.457-4.946 16.371-10.996m0 0"/>
    <path fill="red" d="M56.258 104.895c-3.703-5.098-9.625-9.942-15.567-12.73l-1.832-.86.957-1.266a33 33 0 0 0 1.7-2.5c.406-.68.808-1.234.89-1.238.23-.008 2.68 1.418 4.121 2.398.715.485 1.328.883 1.368.883.035 0 .066-.887.066-1.973v-1.968h9.758v-5.75H45.812v-4.758l5.915-.043 5.91-.043.047-2.996.043-2.996H41.016v-4.93h38.039v4.93H63.012v6.074h11.742v4.762H63.012v5.75h9.43v2.05c0 1.13.042 2.055.101 2.055.055 0 1.043-.617 2.191-1.371 2.235-1.469 3.457-2.18 3.547-2.066.031.039.547.808 1.153 1.71.601.903 1.293 1.88 1.527 2.165l.434.52-1.797.913c-3.95 2.008-8.957 5.672-12.114 8.871l-.906.914h6.192v5.094H57.422Zm6.754-6.598c1.734-1.89 4.754-4.684 6.988-6.457.797-.633 1.45-1.176 1.45-1.211s-4.95-.063-11-.063c-6.052 0-10.997.055-10.993.121.004.07.54.532 1.188 1.028 1.722 1.316 6.187 5.683 8.027 7.847l1.59 1.872.59-.711c.324-.395 1.296-1.485 2.16-2.426M48.086 50.375l-1.445-1.437 4.257-4.227 4.258-4.23h-7.855v-4.106h10.75V25.699h4.136v10.676h10.75v4.105h-7.855l4.258 4.23 4.258 4.227-1.446 1.438-1.445 1.434-4.262-4.227-4.257-4.227v7.797H58.05v-7.797l-4.258 4.227-4.262 4.227Zm0 0"/>
    <path fill="#f9f9f9" d="M43.914 112.555c-8.91-6.047-16.254-11.047-16.316-11.114-.149-.16-14.61-88.363-14.504-88.468.047-.047 21.25-.063 47.125-.04l47.043.04-7.235 44.086c-3.98 24.246-7.265 44.164-7.304 44.257-.047.133-29.72 20.375-32.176 21.957l-.43.278Zm29.024-8.606v-2.71L70 101.233l-2.934-.007 1.528-1.465c3.379-3.239 8.586-6.899 12.031-8.453.547-.246 1.02-.47 1.047-.496.031-.032-.379-.598-.906-1.262a28 28 0 0 1-1.688-2.395c-.398-.652-.758-1.187-.805-1.187-.144 0-2.035 1.156-3.8 2.328-.93.617-1.73 1.121-1.778 1.121-.05 0-.09-.887-.09-1.973v-1.968H63.18v-5.422h11.742v-5.09H63.18v-5.746h16.043V63.96H40.852v5.258H57.39v5.746H45.648v5.09h11.743v5.422h-9.582l-.094 3.789-.578-.43c-.621-.465-4.239-2.629-4.657-2.785-.18-.07-.468.265-1.035 1.219a35 35 0 0 1-1.843 2.714l-1.067 1.403 2.028.957c6.078 2.87 11.917 7.656 15.62 12.797l1.094 1.52h15.66ZM53.793 47.91l4.094-4.062v7.468h4.465v-7.632l4.214 4.183 4.22 4.184 1.57-1.555 1.574-1.555-8.352-8.296h7.524V36.21h-10.75V25.535h-4.465v10.676h-10.75v4.434h7.523l-4.176 4.148-4.175 4.145 1.527 1.519c.844.836 1.605 1.52 1.695 1.52s2.008-1.832 4.262-4.067m0 0"/>
    <path fill="#f9f9f9" d="M59.129 99.738c-1.484-1.808-6.258-6.527-8-7.91L49.75 90.73h10.629c5.844 0 10.598.032 10.559.067s-.551.45-1.145.918c-2.914 2.308-6.746 6.027-8.941 8.68l-.594.714Zm0 0"/>
</svg>
