<svg xmlns="http://www.w3.org/2000/svg" width="120" height="120" viewBox="0 0 120 136">
    <path fill="none" stroke="red" stroke-width=".004" d="m-42.404 40.475.236 1.65.118.825-.825-.118-1.65-.236.707-.707L-47 38.707l-3.182 3.182.707.707-1.65.236-.825.118.118-.825.236-1.65.707.707L-47.707 38l-3.182-3.182-.707.707-.236-1.65-.118-.825.825.118 1.65.236-.707.707L-47 37.293l3.182-3.182-.707-.707 1.65-.236.825-.118-.118.825-.236 1.65-.707-.707L-46.293 38l3.182 3.182.707-.707M-42.982 44l.117.138.157.16.18.17.188.162.181.14.159.108-.223.178-.492.393-.501.632-.324.67-.186.689-.083.686-.004.132-.016.528v1.58l.098-.08.1-.075.102-.075.103-.074.02-.013.084-.06.048-.033.028-.02.019-.012.01-.008.125.156.156.17.176.175.183.164.18.142.162.109-.539.368-.163.112-.622.516-.543.539-.368.436-.096.114-.233.331-.154.218-.103.178-.207.356-1.485-.237.037-.065.038-.066.078-.132.04-.064.042-.062h-2.307l-.22.046-.112-.067-.835-.49.038-.06.098-.151.147-.216.157-.221.164-.223.17-.223.061-.077.113-.142H-52v-6.084l.016-.313.019-.097.033-.165.09-.216.138-.177.186-.142.239-.112.292-.082.338-.058.387-.038.438-.022.491-.01.181-.002h.365l.05.188.076.21.091.219.102.216.1.191.006.011.092.157.008.012.004.008-.415-.018-.416-.01h-.063l-.33-.004h-.345l-.277.001h-.185l-.109.01-.086.02-.064.034-.043.05-.025.07-.008.092v.839h5.822l.173-.437.221-.424.271-.406.005-.005.32-.378.385-.355.29-.21.069-.05.035-.026.027-.02.013-.01.011-.007M-38 54l-.042.029-1.733 1.155-5.745 3.83h-.001L-47 60l-6.746-4.497L-56 54l-.2-1.197-.699-4.197-.202-1.212-2.437-14.626-.048-.283-.08-.487-.01-.053L-60 30h26l-.462 2.768-1.528 9.171-.305 1.834-.604 3.621-.202 1.212-.7 4.197L-38 54m-16.61-1.197 1.14.78 1.47 1.004 5 3.416 5-3.416.859-.587 1.752-1.197h.007v-.031l.012-.072.891-5.472.198-1.215.28-1.722.122-.744.49-3.006 1.267-7.773.125-.77h-22.006l.03.19.095.58.278 1.703 1.6 9.82.28 1.722.199 1.215.903 5.544v.03h.007m9.514-5.221.027-.169h-2.098v1.008h2.005l.01-.165.01-.168.011-.168.015-.169.02-.17m-3.388 1.9h-2.14v.963h2.14v-.962m3.236 2.196.12-.127h-2.4l-.093.122-.095.129-.094.134-.092.137-.088.136-.083.136h2.274l.105-.135.108-.134.11-.134.112-.133.116-.13m-3.236-3.258v-1.008h-2.14v1.008h2.14m3.314 2.023v-.962h-1.997v.962Zm0 0" transform="matrix(4.29492 0 0 4.26451 261.99 -123.67)"/>
    <path d="m40.84 119.297-19.278-12.762-8.55-50.969C8.309 27.536 4.46 4.543 4.46 4.476c.004-.07 25.047-.124 55.656-.124 49.461 0 55.656.027 55.656.246 0 .136-3.835 23.082-8.52 50.988-4.683 27.91-8.515 50.781-8.515 50.824 0 .047-8.691 5.836-19.312 12.867L60.117 132.06Zm35.648-6.57c8.91-6.051 16.258-11.055 16.32-11.122.067-.066 3.36-19.886 7.325-44.046 3.96-24.16 7.246-44.133 7.3-44.38l.094-.452H12.73l.086.37c.047.204 3.325 20.137 7.286 44.298 3.957 24.16 7.214 43.988 7.238 44.062.05.176 32.562 22.262 32.777 22.266.094.004 7.457-4.946 16.371-10.996m0 0"/>
    <path d="M39.04 59.098c0-.168.315-2.473.698-5.114l.7-4.808 1.402 1.398c.77.77 1.476 1.403 1.57 1.403s3.238-3.051 6.992-6.774l6.82-6.773-13.804-13.711-1.445 1.426c-.793.785-1.47 1.394-1.504 1.351-.059-.07-1.438-9.598-1.438-9.937 0-.114 1.739.074 4.922.527 2.703.39 5.027.707 5.164.71.133.005-.441.692-1.281 1.528l-1.523 1.52 6.82 6.773c3.754 3.723 6.894 6.774 6.984 6.774s3.235-3.051 6.988-6.774l6.82-6.773-1.523-1.52c-.84-.836-1.418-1.523-1.28-1.527.132-.004 2.456-.32 5.163-.711 4.86-.695 4.922-.7 4.914-.363-.004.187-.32 2.504-.703 5.148l-.695 4.805-1.489-1.48-1.484-1.485-6.91 6.86-6.906 6.855 6.824 6.773c3.75 3.727 6.894 6.778 6.984 6.778s.797-.63 1.575-1.399l1.414-1.394.722 5.007c.403 2.754.692 5.047.649 5.09-.082.082-9.41-1.176-9.887-1.332-.16-.05.23-.543 1.195-1.508l1.438-1.433-6.906-6.852-6.903-6.855-6.906 6.86-6.906 6.855 1.406 1.39c.773.762 1.352 1.434 1.281 1.492-.066.055-2.129.38-4.586.72s-4.668.655-4.918.702c-.367.07-.457.024-.449-.222m25.215 46.898-2.856-.476c-.023-.008.13-.29.344-.625.211-.34.442-.711.512-.829.101-.175-.93-.21-5.477-.191l-5.597.023-1.653-.945c-.906-.52-1.742-1.031-1.859-1.133-.168-.152.066-.578 1.137-2.07a85 85 0 0 1 2.004-2.7l.66-.82-12.782-.085.055-13.832c.055-14.606.047-14.41.832-15.579 1.153-1.703 3.45-2.296 9.801-2.53l2.98-.11.301.992c.164.547.645 1.684 1.07 2.523l.77 1.528h-4.77c-4.527 0-4.777.015-5.003.316-.172.238-.235.863-.235 2.422v2.105h25.157l.187-.535c.375-1.07 1.79-3.68 2.52-4.636 1.035-1.36 2.613-2.934 3.882-3.871l1.067-.786 1.426 1.34c.78.738 1.695 1.528 2.03 1.754.337.227.61.45.606.492-.004.047-.633.563-1.398 1.153-3.309 2.539-5.38 6.312-6.035 11-.203 1.437-.438 11.332-.27 11.332.063 0 .672-.418 1.356-.93l1.242-.926 1.605 1.551c.883.855 1.817 1.703 2.075 1.883l.468.324-1.215.797c-4.148 2.723-8.504 7.23-10.84 11.215-.453.777-.894 1.347-1.038 1.34-.137-.008-1.512-.223-3.06-.48m1.758-7.18c.32-.43.976-1.203 1.457-1.722l.87-.946H57.72l-.766 1.055a33 33 0 0 0-1.164 1.723l-.402.672h10.035Zm-12.094-9.398v-2.137h-9.43v4.27h9.43Zm14.223 0v-2.137h-8.766v4.27h8.766Zm-14.223-8.79v-2.214h-9.43v4.434h9.43Zm14.285.618c.063-.879.156-1.879.211-2.215l.098-.617h-9.137v4.434h8.715Zm0 0"/>
    <path fill="#f9f9f9" d="M43.914 112.555c-8.91-6.047-16.254-11.047-16.316-11.114-.149-.16-14.61-88.363-14.504-88.468.047-.047 21.25-.063 47.125-.04l47.043.04-7.235 44.086c-3.98 24.246-7.265 44.164-7.304 44.257-.047.133-29.72 20.375-32.176 21.957l-.43.278Zm24.473-7.075c2.164-3.832 6.55-8.421 10.793-11.289.84-.57 1.53-1.058 1.53-1.09 0-.03-.315-.273-.702-.538-.801-.551-2.492-2.133-3.164-2.965l-.453-.559-.446.32c-.246.172-.847.606-1.34.957l-.898.645.106-4.754c.058-2.617.19-5.383.292-6.152.645-4.77 2.668-8.45 6.09-11.082.82-.633 1.496-1.196 1.5-1.254.004-.055-.304-.305-.68-.551-.378-.25-1.335-1.07-2.128-1.828-.79-.758-1.492-1.38-1.567-1.38-.07 0-.629.372-1.242.825-2.414 1.778-4.73 4.692-5.941 7.485l-.637 1.464-12.422.043-12.422.04v-1.938c0-1.422.063-2.027.235-2.262.222-.3.472-.316 5.043-.316 2.644 0 4.808-.024 4.808-.051 0-.023-.402-.863-.894-1.86-.496-.995-.993-2.175-1.11-2.62l-.207-.81-1.168.005c-2.386.008-6.883.324-8.086.57-2.398.492-3.738 1.41-4.343 2.977-.293.758-.313 1.57-.36 14.8l-.05 14h12.585l-.804 1.028c-1.137 1.441-3.004 4.16-3.004 4.363 0 .094.836.664 1.86 1.27l1.862 1.097 5.493-.03 5.492-.028-.426.758c-.234.414-.383.8-.328.855.11.105 5.379.988 6.059 1.012.347.011.519-.176 1.074-1.157M43.926 58.875c2.539-.36 4.867-.695 5.18-.75l.562-.098-1.512-1.511-1.515-1.508 13.562-13.461 6.734 6.691 6.739 6.688-1.555 1.55-1.55 1.551.562.098c1.082.188 9.793 1.402 10.066 1.402.246 0 .196-.55-.5-5.293-.43-2.914-.789-5.332-.797-5.375-.011-.047-.71.602-1.55 1.434l-1.532 1.516-13.476-13.383 6.781-6.73 6.777-6.731 1.485 1.469c.816.804 1.511 1.433 1.547 1.394.07-.09 1.578-10.566 1.527-10.629-.02-.02-2.465.313-5.438.738l-5.398.782 1.527 1.523 1.524 1.52-13.555 13.46-6.738-6.687-6.742-6.691 1.52-1.516c.835-.832 1.487-1.543 1.448-1.582-.129-.113-10.648-1.57-10.734-1.484-.121.12 1.34 10.304 1.508 10.484.086.098.722-.414 1.629-1.312l1.488-1.47 6.738 6.692 6.739 6.688-6.782 6.73-6.777 6.735-1.52-1.504c-1.414-1.399-1.53-1.477-1.613-1.11-.164.742-1.418 9.524-1.418 9.93 0 .23.094.402.223.402.12 0 2.3-.293 4.836-.652m0 0"/>
    <path fill="#f9f9f9" d="M56.004 98.95c.16-.27.648-.97 1.086-1.563l.793-1.075h9.926l-2.563 3.11-4.766.008-4.761.004Zm3.536-9.532v-1.973h8.433v3.942h-8.434Zm-14.884 0v-1.973h8.93v3.942h-8.93Zm0-8.789v-2.05h8.93v4.105h-8.93Zm14.884 0v-2.05h8.8l-.09.37c-.05.203-.145 1.125-.207 2.051l-.117 1.684h-8.387Zm0 0"/>
</svg>
