<svg xmlns="http://www.w3.org/2000/svg" width="120" height="120" viewBox="0 0 120 136">
    <path fill="none" stroke="red" stroke-width=".004" d="M-90 30h26l-.462 2.768-3.338 20.035L-68 54l-1.775 1.184-5.745 3.83h-.001L-77 60l-9-6-.2-1.197-3.338-20.035-.129-.77L-90 30m12.5 5h1v2.5h2.5v1h-1.793l1.975 1.975-.707.707-1.975-1.975V41h-1v-1.793l-1.975 1.975-.707-.707 1.975-1.975H-80v-1h2.5V35m5.034 9v1.177h-2.06l.098.262.124.29.145.304.16.31.167.302.104.175.066.111-.066.029-.33.144-.423.185h1.511v1.154h-3.323v1.13h2.12v.53l.222-.107.222-.104h.001l.222-.099.225-.095.226-.092.056-.022.056-.02.047-.02.032-.012.037-.014.1.199.123.207.14.21.15.207.158.194.091.103.065.073-.97.334-.758.34-.177.08-.876.505-.795.59-.248.243-.444.434-.008.011-.56.752-.988-.458-.191-.088.096-.146.04-.06.055-.082v-.002l.05-.073.052-.073-.102-.085-.156-.13-.305-.255-.653-.45-.72-.42-.765-.38-.24-.098-.548-.227-.642-.213-.061-.02-.006-.003-.08-.026.08-.085.067-.072.157-.184.158-.2.15-.204.136-.198.11-.18.233.09.236.096.237.103.237.108.235.112.092.045.143.07v-.639h2.105v-1.13h-3.331v-1.154h1.647l-.487-.185-.077-.03-.481-.182.186-.304.19-.305.105-.167.084-.134.186-.289.178-.271.168-.245h-2.248V44h9.038m-5.767 1.473-.166.266-.169.297-.166.316-.157.323-.14.316-.045.113-.074.185h1.526v-2.112h-1.308l.597.253.04.018.03.011.02.009.012.005m.068 5.723.005.004.303.227.033.027.264.211.286.245.206.189.033.03.022.02.013.012.257-.263.268-.25.279-.24.265-.208.022-.018.296-.217.305-.207h-3.497l.324.214.316.224m8.783 1.576L-68 44.29l1.878-11.523.125-.77h-22.006l.125.77L-86 44.291l1.382 8.48v.032h.007l2.61 1.784L-77 58.003l5-3.416.859-.587 1.752-1.197h.007v-.031m-6.242-7.205.857-.39h-1.526v2.112h1.579l-.121-.185-.064-.096-.181-.3-.171-.303-.152-.3-.127-.283Zm0 0" transform="matrix(4.29492 0 0 4.26451 390.838 -123.67)"/>
    <path d="m40.84 119.297-19.278-12.762-8.55-50.969C8.309 27.536 4.46 4.543 4.46 4.476c.004-.07 25.047-.124 55.656-.124 49.461 0 55.656.027 55.656.246 0 .136-3.835 23.082-8.52 50.988-4.683 27.91-8.515 50.781-8.515 50.824 0 .047-8.691 5.836-19.312 12.867L60.117 132.06Zm35.648-6.57c8.91-6.051 16.258-11.055 16.32-11.122.067-.066 3.36-19.886 7.325-44.046 3.96-24.16 7.246-44.133 7.3-44.38l.094-.452H12.73l.086.37c.047.204 3.325 20.137 7.286 44.298 3.957 24.16 7.214 43.988 7.238 44.062.05.176 32.562 22.262 32.777 22.266.094.004 7.457-4.946 16.371-10.996m0 0"/>
    <path d="M58.422 105.39c-1.293-.593-2.356-1.148-2.356-1.23s.223-.472.496-.867c.274-.395.497-.781.497-.86 0-.195-2.106-1.902-3.715-3.011-3.645-2.512-8.606-4.95-12.824-6.313-.774-.25-1.461-.484-1.532-.523s.25-.492.711-1.004a26 26 0 0 0 1.68-2.164c.465-.68.898-1.293.965-1.367.101-.117 2.195.726 5.164 2.078l.949.433v-2.789h9.098v-4.925H43.168v-4.762h3.582c1.969 0 3.527-.055 3.46-.125-.065-.066-1.026-.465-2.136-.883-1.289-.488-2.008-.844-1.996-.988.008-.125.996-1.754 2.192-3.621 1.195-1.864 2.171-3.43 2.171-3.485 0-.05-2.156-.093-4.793-.093h-4.796v-4.766H79.55v4.766h-8.926l.414 1.09c.461 1.218 2.145 4.601 2.813 5.652.242.375.375.742.296.812-.074.067-.77.399-1.543.73-.773.333-1.476.673-1.562.759-.098.093 1.098.152 3.102.152h3.257v4.762h-14.39v4.925h9.097v1.16c0 1.313-.004 1.313 1.407.598.363-.183 1.511-.683 2.546-1.113l1.887-.773.793 1.308a26 26 0 0 0 1.719 2.45c.613.75.855 1.163.71 1.21-4.831 1.688-6.921 2.594-9.808 4.25-3.886 2.239-6.87 4.77-9.136 7.742-.684.903-1.293 1.692-1.348 1.754s-1.16-.375-2.457-.968m3.41-8.113a43 43 0 0 1 3.25-2.718c.906-.668 1.84-1.356 2.066-1.528.407-.308.317-.312-7.27-.32-4.226-.008-7.612.05-7.523.125.086.07 1.04.754 2.125 1.516a61 61 0 0 1 3.72 2.894c.964.828 1.816 1.512 1.894 1.52.078.004.86-.664 1.738-1.489m-4.277-23.789v-4.597h-2.926c-1.762 0-2.867.058-2.774.148.09.082.735.387 1.442.68.703.289 1.281.574 1.281.629 0 .054-.27.543-.594 1.078-.953 1.57-3.21 6.203-3.21 6.594 0 .035 1.527.066 3.39.066h3.39Zm12.406 4.508c0-.047-.457-.836-1.016-1.75-1.039-1.707-2.57-4.746-2.66-5.27-.035-.226.324-.456 1.606-1.035.91-.41 1.726-.816 1.812-.898.098-.094-1.152-.152-3.266-.152h-3.425v9.195h3.472c1.91 0 3.477-.04 3.477-.09M48.086 50.375l-1.445-1.437 4.257-4.227 4.258-4.23h-7.855v-4.106h10.75V25.699h4.136v10.676h10.75v4.105h-7.855l4.258 4.23 4.258 4.227-1.446 1.438-1.445 1.434-4.262-4.227-4.257-4.227v7.797H58.05v-7.797l-4.258 4.227-4.262 4.227Zm0 0"/>
    <path fill="#f9f9f9" d="M43.914 112.555c-8.91-6.047-16.254-11.047-16.316-11.114-.149-.16-14.61-88.363-14.504-88.468.047-.047 21.25-.063 47.125-.04l47.043.04-7.235 44.086c-3.98 24.246-7.265 44.164-7.3 44.257-.051.13-29.801 20.43-32.18 21.957l-.43.278Zm18.234-7.496c3.633-4.934 10.239-9.329 17.692-11.774 1.023-.336 1.863-.648 1.863-.691 0-.047-.367-.504-.808-1.016-.868-.992-2.418-3.281-2.586-3.812-.055-.176-.168-.32-.254-.32-.227 0-2.375.867-4.024 1.624-.812.371-1.496.676-1.523.676-.028 0-.074-.465-.102-1.027l-.05-1.028-4.586-.043-4.59-.043v-4.593h14.386V77.93l-3.007-.047-3.012-.043 1.48-.637a46 46 0 0 0 1.52-.668c.023-.02-.442-.879-1.035-1.91-.899-1.574-2.559-5.121-2.559-5.469 0-.058 1.969-.101 4.383-.101h4.383V63.96H40.684v5.094h9.586l-.965 1.433c-1.157 1.727-3.485 5.418-3.594 5.7-.05.128.61.457 1.871.925l1.953.727-3.27.043L43 77.93v5.082h14.39v4.597h-9.097v1.313c0 .723-.04 1.316-.086 1.316-.05 0-.516-.215-1.039-.476-1.313-.657-4.469-1.989-4.719-1.989-.113 0-.515.461-.894 1.028-.602.902-1.055 1.48-2.657 3.41l-.378.457 1.62.531c5.797 1.903 11.442 4.895 15.548 8.246l1.187.973-.598.894c-.355.536-.535.954-.445 1.04.195.187 4.727 2.285 4.961 2.296.098.008.707-.71 1.355-1.59M53.793 47.91l4.094-4.062v7.468h4.465v-7.632l4.214 4.183 4.22 4.184 1.57-1.555 1.574-1.555-8.352-8.296h7.524V36.21h-10.75V25.535h-4.465v10.676h-10.75v4.434h7.523l-4.176 4.148-4.175 4.145 1.527 1.519c.844.836 1.605 1.52 1.695 1.52s2.008-1.832 4.262-4.067m0 0"/>
    <path fill="#f9f9f9" d="M59.371 97.922a56 56 0 0 0-4.894-3.836l-1.758-1.223h14.3l-1.964 1.457c-1.078.801-2.63 2.086-3.45 2.856l-1.492 1.394Zm3.809-24.434v-4.433l3.015.011 3.02.012-1.625.754c-1.531.715-1.617.781-1.52 1.18.168.707 1.82 3.945 2.79 5.472l.91 1.438h-6.59ZM51.191 77.55c.188-.652 2.317-4.929 3.036-6.1.382-.626.636-1.192.562-1.263-.07-.07-.648-.351-1.285-.624l-1.16-.497 2.523-.007 2.524-.004v8.867h-6.309Zm0 0"/>
</svg>
