<svg xmlns="http://www.w3.org/2000/svg" width="120" height="120" viewBox="0 0 120 136">
    <path fill="none" stroke="red" stroke-width=".004" d="M30 30h26l-.462 2.768L52.2 52.803 52 54l-1.775 1.184-5.745 3.83h-.001L43 60l-9-6-.2-1.197-3.338-20.035-.129-.77L30 30m9.818 5.525.707-.707 1.975 1.975V35h1v1.793l1.975-1.975.707.707-1.975 1.975H46v1h-1.793l1.975 1.975-.707.707-1.975-1.975V41h-1v-1.793l-1.975 1.975-.707-.707 1.975-1.975H40v-1h1.793l-1.975-1.975M48 45.403h-4.277v3.065h3.236v1.411h-3.236v2.701h3.752V54h-8.91v-1.42h3.775v-2.7h-3.346v-1.412h3.346v-3.065H38V44h10v1.403m2.618 7.369L52 44.29l1.878-11.523.125-.77H31.997l.125.77L34 44.291l1.382 8.48v.032h.007L38 54.587l5 3.416 5-3.416.859-.587 1.752-1.197h.007Zm0 0" transform="matrix(4.29492 0 0 4.26451 -124.553 -123.67)"/>
    <path d="m40.84 119.297-19.278-12.762-8.55-50.969C8.309 27.536 4.46 4.543 4.46 4.476c.004-.07 25.047-.124 55.656-.124 49.461 0 55.656.027 55.656.246 0 .136-3.835 23.082-8.52 50.988-4.683 27.91-8.515 50.781-8.515 50.824 0 .047-8.691 5.836-19.312 12.867L60.117 132.06Zm35.648-6.57c8.91-6.051 16.258-11.055 16.32-11.122.067-.066 3.36-19.886 7.325-44.046 3.96-24.16 7.246-44.133 7.3-44.38l.094-.452H12.73l.086.37c.047.204 3.325 20.137 7.286 44.298 3.957 24.16 7.214 43.988 7.238 44.062.05.176 32.562 22.262 32.777 22.266.094.004 7.457-4.946 16.371-10.996m0 0"/>
    <path d="M41.18 103.54v-2.958h16.21v-11.66H43v-5.746h14.39V69.875H38.7v-5.75h42.835v5.75H63.18v13.3h13.89v5.747H63.18v11.66h16.043v5.914H41.18Zm6.906-53.165-1.445-1.437 4.257-4.227 4.258-4.23h-7.855v-4.106h7.855l-4.3-4.27-4.297-4.27 1.445-1.437 1.445-1.433 4.18 4.144c2.297 2.278 4.23 4.145 4.3 4.145.067 0 .122-1.7.122-3.777v-3.778h4.136v3.778c0 2.078.055 3.777.122 3.777.066 0 2.004-1.867 4.3-4.145l4.176-4.144 1.445 1.433 1.45 1.438-4.301 4.27-4.297 4.269h7.856v4.105h-7.856l4.258 4.23 4.258 4.227-1.446 1.438-1.445 1.434-4.262-4.227-4.257-4.227v7.797H58.05v-7.797l-4.258 4.227-4.262 4.227Zm0 0"/>
    <path fill="#f9f9f9" d="M43.914 112.555c-8.91-6.047-16.254-11.047-16.316-11.114-.149-.16-14.61-88.363-14.504-88.468.047-.047 21.25-.063 47.125-.04l47.043.04-7.235 44.086c-3.98 24.246-7.265 44.164-7.304 44.257-.047.133-29.72 20.375-32.176 21.957l-.43.278Zm35.473-9.016v-3.121H63.344V89.086h13.89v-6.074h-13.89V70.039h18.36v-6.078h-43.17v6.078h18.688v12.973H42.836v6.074h14.387v11.332H41.016v6.242h38.37ZM53.793 47.91l4.094-4.062v7.468h4.465v-7.632l4.214 4.183 4.22 4.184 1.57-1.555 1.574-1.555-8.352-8.296h7.524V36.21h-7.524l8.43-8.375-1.61-1.602-1.613-1.597-4.215 4.183-4.218 4.184v-7.469h-4.465v7.469l-4.219-4.184-4.215-4.183-1.574 1.554-1.574 1.559 4.261 4.23 4.258 4.23h-7.687v4.435h7.523l-4.176 4.148-4.175 4.145 1.527 1.519c.844.836 1.605 1.52 1.695 1.52s2.008-1.832 4.262-4.067m0 0"/>
</svg>
