<svg xmlns="http://www.w3.org/2000/svg" width="120" height="120" viewBox="0 0 120 136">
    <path fill="none" stroke="red" stroke-width=".004" d="m13.433-2.278.029.052.021.055.013.057.004.058V1h1L13 3l-1.5-2h1v-3.056l.004-.058.013-.057.021-.055.03-.052.035-.048.043-.044.05-.038.054-.032.05-.022.009-.004.062-.019.064-.01L13-2.5l.065.004.064.011.062.02.06.025.053.032.008.006.042.032.043.044.036.048M0-10h26L24.333 0 22.2 12.803 22 14l-1.775 1.184-5.745 3.83h-.001L13 20l-9-6-.2-1.197L1.667 0 .333-8.002 0-10M17.144 7.818l.11.166.136.19.014.018.136.181.131.162.027.034.156.18.146.15-.329.104-.237.075-.56.215-.49.224-.055.025-.524.277-.493.303-.166.118-.288.205h2.813v1.144h-4.067v.749l.485-.039.152-.01.33-.025.48-.03.478-.024.473-.02.382-.012.087-.002.016.112.01.059.04.187.052.196.023.073.038.12.064.182.063.161-.393.019-.79.037-1.197.084-1.175.111-.933.114h-.001l-.18.022-1.014.162-.877.185-.894-1.02.453-.107.342-.07.132-.027.49-.09.505-.08.517-.07.526-.066v-.88h-4.09v-1.145h2.554l-.36-.205-.166-.095-.517-.308-.493-.31-.458-.302-.41-.29-.156-.12L8 8.669l.192-.252.171-.224.368-.482.018-.024.436.366.186.14.19.142.155.117.602.418.647.42.666.407.657.377v.001-1.53h1.316v1.53l.35-.343.373-.327.01-.007.384-.301.413-.289.429-.266.397-.22.045-.024H9.56V4.015h1.33v.317h3.998V4h1.269v4.227l.073-.035.09-.044.064-.03.1-.045.161-.07.163-.067.166-.062.152-.05.01-.004.008-.002m3.474 4.954L22 4.29 22.699 0l1.304-8.003H1.997L3.3 0 4 4.29l1.382 8.482v.03h.007L8 14.588l5 3.415 5-3.416.859-.587 1.752-1.197h.007v-.031m-5.73-5.434v-.587H10.89v.587h3.998m0-2.047H10.89v.595h3.998Zm0 0" transform="matrix(4.29492 0 0 4.26451 4.295 46.91)"/>
    <path d="M40.934 119.367A11972 11972 0 0 0 21.78 106.68c-.144-.082-3.05-17.024-8.722-50.856C8.379 27.922 4.508 4.926 4.46 4.723l-.086-.371H115.87l-.101.535c-.055.293-3.915 23.273-8.579 51.07s-8.511 50.566-8.55 50.598c-.493.43-38.414 25.39-38.563 25.382-.113-.007-8.73-5.664-19.144-12.57m35.707-6.746c8.879-6.02 16.171-10.965 16.203-10.992.074-.055 14.562-88.18 14.57-88.613.004-.274-2.355-.29-47.297-.29-26.015 0-47.3.055-47.3.126-.008.382 14.433 88.203 14.55 88.488.188.457 32.586 22.433 32.899 22.312.129-.047 7.496-5.011 16.375-11.03m0 0"/>
    <path d="m56.984 55.383-3.004-3.985 2.075-.043 2.078-.046v-6.856c0-7.512-.024-7.308.996-7.832 1.094-.562 2.539-.031 2.922 1.074.14.399.203 2.485.207 7.09l.012 6.524 1.992.046 1.996.043-3.008 3.985c-1.652 2.191-3.062 3.98-3.133 3.98-.066 0-1.476-1.789-3.133-3.98m-10.613 49.019-1.86-2.093 1.196-.274c2.074-.48 5.79-1.12 8.664-1.5l2.77-.363v-3.86H39.609v-4.761h5.47c3.007 0 5.429-.063 5.382-.137-.047-.078-1-.66-2.121-1.3-3.992-2.286-9.39-5.91-9.39-6.31 0-.128 2.202-3.097 2.827-3.812.07-.078.524.188 1.004.594 1.418 1.187 4.18 3.176 6.668 4.8 2.313 1.509 6.864 4.243 7.406 4.45.266.102.286-.121.286-3.113v-3.22h5.457v3.204c0 1.762.047 3.203.101 3.203s.742-.601 1.528-1.332c1.835-1.703 4.324-3.547 6.683-4.945a195 195 0 0 0 2.11-1.262c.16-.105-4.586-.164-13.688-.172l-13.934-.008V64.125h5.625v1.316h17.364v-1.316h5.293v8.953c0 4.922.027 8.95.058 8.95.035 0 .575-.235 1.2-.516 1.132-.512 2.914-1.168 2.953-1.086.066.136 2.48 3.265 2.91 3.777.375.442.457.637.297.692-.121.046-1 .347-1.953.671-2.172.746-4.91 1.957-6.672 2.957-1.73.985-4.41 2.743-4.414 2.907 0 .066 2.714.12 6.035.12h6.035v4.763H62.598v3.324l1.199-.106c2.035-.18 5.703-.402 8.48-.52l2.653-.113.21 1.016c.114.559.391 1.543.61 2.188.219.644.375 1.199.344 1.23s-1.387.129-3.012.211c-9.285.488-18.016 1.477-23.258 2.633-.793.176-1.48.32-1.52.32-.042 0-.913-.941-1.933-2.094m22.016-27.464V75.62H51.023v2.629h17.364Zm-.035-6.2.05-1.355H51.023v2.793l17.282-.086Zm0 0"/>
    <path fill="#f9f9f9" d="M56.953 121.387c-7.047-4.739-28.535-19.352-28.984-19.707l-.477-.38-7.25-44.163a94025 94025 0 0 1-7.254-44.207c-.008-.082 94.075.047 94.16.129.086.086-14.347 88.304-14.464 88.41-.04.031-6.692 4.547-14.786 10.035a9019 9019 0 0 0-16.222 11.012l-1.504 1.039Zm-7-15.047c4.977-1.074 13.121-2.035 20.914-2.469 1.774-.101 3.754-.219 4.399-.27l1.171-.085-.539-1.59c-.293-.875-.585-1.95-.652-2.39l-.121-.806-2.914.114c-3.02.117-6.844.351-8.496.523l-.95.098v-2.988h17.532V91.39l-11.828-.086 1.715-1.137c2.836-1.883 7.02-3.852 10.32-4.86.613-.187 1.113-.374 1.113-.417s-.597-.797-1.332-1.676c-.734-.88-1.535-1.918-1.777-2.305-.535-.851-.64-.847-2.945.133-.852.36-1.586.656-1.633.656s-.082-3.992-.082-8.867V63.96h-5.625v1.316H51.188V63.96h-5.95l-.043 9.121-.043 9.117-1.382-1.113c-.758-.61-1.508-1.203-1.66-1.316-.247-.176-.47.039-1.82 1.793-.845 1.097-1.575 2.09-1.618 2.203-.152.39 3.676 3.03 8.707 6.007l2.726 1.614h-10.66v5.09h17.532v3.613h-.457c-1.489.004-11.829 1.8-12.153 2.113-.152.145 3.625 4.457 3.903 4.457.113 0 .87-.144 1.683-.32m16.613-55.063c0-.066-.93-.125-2.066-.125h-2.066v-6.574c0-7.273-.02-7.43-1.024-8.035-.652-.395-1.77-.438-2.45-.086-1.019.523-.991.316-.991 7.836v6.86H55.82c-1.183 0-2.152.038-2.152.085s1.457 2.012 3.238 4.364l3.235 4.28 3.21-4.241c1.766-2.332 3.212-4.297 3.215-4.364m0 0"/>
    <path fill="#f9f9f9" d="M51.188 70.695v-1.148h17.035v2.297H51.188Zm0 6.243v-1.153h17.035v2.3H51.188Zm3.14 11.23c-2.488-1.465-8.527-5.398-8.691-5.664-.055-.09 5.285-.149 13.426-.149 7.433 0 13.484.028 13.445.063-.035.035-.828.508-1.758 1.055-2.137 1.257-4.465 2.968-6.441 4.738l-1.543 1.387V83.34h-5.79v3.12c0 1.716-.054 3.122-.124 3.122-.067 0-1.204-.637-2.524-1.414m0 0"/>
</svg>
