<svg xmlns="http://www.w3.org/2000/svg" width="120" height="120" viewBox="0 0 120 136">
    <path fill="none" stroke="red" stroke-width=".004" d="m43.324-3.207.154.052.147.072.136.09.123.109.108.123.091.136.072.147.052.154.032.16.008.116.003.048-.011.163-.032.16-.052.155-.072.147-.09.136-.109.123-.123.108-.136.091-.147.072-.154.052-.161.032-.155.01H43l-.163-.01-.16-.032-.155-.052-.147-.072-.136-.091-.123-.108-.108-.123-.091-.136-.072-.147-.052-.154-.032-.161-.01-.163.002-.048.008-.115.032-.16.052-.155.072-.147.09-.136.109-.123.123-.108.136-.091.147-.072.154-.052.161-.032.163-.01h.008l.155.01.16.032M30-10h26L54.333 0 52.2 12.803 52 14l-1.775 1.184-5.745 3.83h-.001L43 20l-9-6-.2-1.197L31.667 0l-1.334-8.002L30-10M42.405 1.022l.001.002.051.152.032.16.01.164-.01.163-.032.16-.052.155-.034.07-.038.077-.09.136-.109.123-.123.108-.136.091-.147.072-.154.052-.161.032-.163.01-.163-.01-.127-.025-.034-.007-.154-.052-.147-.072-.136-.091-.123-.108-.108-.123-.091-.136-.037-.077-.035-.07-.052-.154-.032-.161L40 1.5l.011-.163.032-.16.052-.155.072-.147.09-.136.11-.123.122-.108.136-.091.147-.072.154-.052.034-.007.127-.025.163-.01.163.01.16.032.155.052.147.072.136.09.123.109.108.123.091.136.072.147m3.584.315.01.163-.01.163-.032.16-.052.155-.035.07-.037.077-.09.136-.11.123-.122.108-.136.091-.147.072-.154.052-.018.004-.143.028-.163.01-.163-.01-.16-.032-.155-.052-.147-.072-.136-.091-.123-.108-.108-.123-.091-.136-.038-.077-.034-.07-.052-.154-.032-.161-.01-.163.01-.163.032-.16.05-.153.002-.002.072-.147.09-.136.109-.123.123-.108.136-.091.147-.072.154-.052.161-.032.163-.01.163.01.143.029.018.003.154.052.147.072.136.09.123.109.108.123.091.136.072.147.052.154.032.16M46.427 4v4.134l.144-.428.155-.412.162-.39.17-.363.177-.331.042-.066.134-.217.007-.01.068.195.013.032.076.188.103.233.109.232.109.217.07.127.034.06-.31.466-.278.525-.015.03-.27.616-.243.656-.21.669-.02.077-.152.58h1.173v1.178h-1.248V14h-1.135v-1.994H44.15v-1.185h1.142v-.347l-.161-.234-.02-.03-.055-.083-.174-.264-.247-.386-.237-.375-.196-.318-.128-.211.318-.381.17-.204.23-.276.005-.006.003-.003.06.16.07.18.064.149.018.045.044.1.045.103.094.209.097.209V4h1.135m-1.884 1.555h-2.76v1.263h2.08v1.17h-2.08v.993h-1.294v-.993h-2.081v-1.17h2.08V5.555H38V4.354h6.543v1.2m-.809 7.168h-1.952v1.21H40.49v-1.21h-1.93v-1.147h1.93v-1.101h-2.36v-1.17h5.922v1.17h-2.269v1.1h1.952v1.148m6.884.05L52 4.29 52.699 0l.123-.751 1.181-7.252H31.997L33.3 0l.7 4.29 1.382 8.482v.03h.007L38 14.588l5 3.415 5-3.416.859-.587 1.752-1.197h.007Zm0 0" transform="matrix(4.29492 0 0 4.26451 -124.553 46.91)"/>
    <path d="m40.84 119.297-19.278-12.762-8.55-50.969C8.309 27.536 4.46 4.543 4.46 4.476c.004-.07 25.047-.124 55.656-.124 49.461 0 55.656.027 55.656.246 0 .136-3.835 23.082-8.52 50.988-4.683 27.91-8.515 50.781-8.515 50.824 0 .047-8.691 5.836-19.312 12.867L60.117 132.06Zm35.648-6.57c8.91-6.051 16.258-11.055 16.32-11.122.067-.066 3.36-19.886 7.325-44.046 3.96-24.16 7.246-44.133 7.3-44.38l.094-.452H12.73l.086.37c.047.204 3.325 20.137 7.286 44.298 3.957 24.16 7.214 43.988 7.238 44.062.05.176 32.562 22.262 32.777 22.266.094.004 7.457-4.946 16.371-10.996m0 0"/>
    <path d="M58.414 43.297c-1.094-.387-1.945-1.055-2.633-2.063-.691-1.011-.922-1.886-.843-3.214.16-2.727 2.39-4.805 5.183-4.829 3.797-.035 6.363 3.961 4.738 7.371-1.148 2.399-3.988 3.606-6.445 2.735m-7.226 15.027c-1.094-.36-1.637-.703-2.38-1.504-1.038-1.12-1.41-2.047-1.41-3.53 0-1.481.372-2.415 1.395-3.517 1.047-1.125 2.266-1.656 3.8-1.648 1.52.008 2.458.387 3.614 1.46 1.121 1.044 1.586 2.122 1.59 3.704.008 2.117-1.102 3.852-3.016 4.723-1.078.488-2.644.625-3.593.312m15.05 0c-1.59-.523-2.687-1.469-3.37-2.902-.571-1.195-.602-2.984-.075-4.133.504-1.086 1.586-2.187 2.676-2.715.765-.375 1.156-.453 2.176-.453 1.535 0 2.757.531 3.8 1.652 1.032 1.11 1.403 2.04 1.403 3.516.004 1.473-.485 2.664-1.5 3.676-1.282 1.27-3.547 1.87-5.11 1.36M49.45 83.012v-2.137h-8.93v-4.762h8.93v-5.582H38.7v-4.926h27.952v4.926h-11.91v5.582h8.934v4.762h-8.934v4.273H49.45Zm0 20.609v-2.547h-8.27v-4.761h8.27V91.55H39.362v-4.926H64.5v4.926h-9.758v4.761h8.438v4.762h-8.438v5.094H49.45Zm20.675-1.394v-4.27h-4.96v-4.766h4.96v-.761c0-.688-.152-1-1.465-3-2.328-3.547-3.664-5.703-3.664-5.914 0-.184 2.574-3.332 2.797-3.418.055-.024.238.332.402.793.164.457.645 1.546 1.07 2.421l.778 1.586.043-10.386.039-10.387h4.629v8.82c0 4.852.062 8.75.14 8.664s.383-.859.676-1.718c.97-2.817 3.137-7.383 3.508-7.387.059 0 .156.2.219.45.062.25.555 1.366 1.094 2.487.539 1.118.98 2.102.98 2.184s-.308.602-.683 1.152c-1.801 2.633-4.618 9.727-5.512 13.883l-.117.531h4.988v4.766h-5.293v8.54h-4.629Zm0 0"/>
    <path fill="#f9f9f9" d="M43.914 112.555c-8.91-6.047-16.254-11.047-16.316-11.114-.149-.16-14.61-88.363-14.504-88.468.047-.047 21.25-.063 47.125-.04l47.043.04-7.235 44.086c-3.98 24.246-7.265 44.164-7.304 44.261-.051.13-29.727 20.38-32.176 21.953l-.43.278Zm31.008-10.164v-4.27h5.457v-5.094h-5.094l.324-1.27c1.168-4.589 3.395-10.015 5.282-12.87l.824-1.254-.895-1.785c-.492-.98-1.066-2.25-1.27-2.813-.28-.77-.425-.988-.577-.863-.551.453-2.832 5.367-3.856 8.293-.12.355-.176-1.903-.183-8.004l-.012-8.5H69.96l-.008 10.14c-.008 11.391.11 10.708-1.254 7.47-.426-1.02-.828-1.833-.894-1.81-.098.04-2.18 2.473-2.95 3.45-.253.324-.07.656 3.188 5.676 1.543 2.379 1.918 3.07 1.918 3.55v.59h-4.965v5.094h4.965v8.54h4.96Zm-20.012 1.394v-2.547h8.434v-5.09H54.91v-4.433h9.758V86.46H39.195v5.254h10.09v4.433h-8.27v5.09h8.27v5.094h5.625Zm0-20.61v-2.132h8.93v-5.094h-8.93v-5.254h11.906v-5.254h-28.28v5.254h10.75v5.254h-8.93v5.094h8.93v4.27h5.624Zm.008-24.991a5.44 5.44 0 0 0 2.617-2.598c.363-.754.434-1.129.434-2.297-.004-1.652-.336-2.523-1.41-3.68-1.434-1.547-3.489-2.066-5.625-1.422-1.028.31-1.344.504-2.157 1.313-.816.805-1.007 1.121-1.32 2.14-.91 2.977.59 5.883 3.535 6.84 1.043.34 2.836.204 3.926-.296m14.992.039c1.024-.442 2.235-1.657 2.746-2.766.504-1.074.5-3.23-.004-4.332-.492-1.082-1.578-2.184-2.668-2.719-.804-.39-1.132-.453-2.34-.449-1.187.008-1.554.078-2.34.457-4.35 2.09-4.003 8.379.555 9.992 1.149.407 2.856.332 4.051-.183M62.566 43.21c1.825-.887 2.95-2.691 2.95-4.742.004-3.211-2.192-5.43-5.399-5.45-1.117-.007-1.465.06-2.246.442-1.934.941-2.98 2.492-3.094 4.586-.14 2.586 1.153 4.594 3.496 5.422 1.243.441 3.082.332 4.293-.258m0 0"/>
</svg>
