<svg xmlns="http://www.w3.org/2000/svg" width="120" height="120" viewBox="0 0 120 136">
    <path fill="none" stroke="red" stroke-width=".004" d="m-16.87-2.483.061.02.06.03.053.036.05.043.043.05.036.054.029.06.021.061.013.064v.017L-16.5-2v3h-1v-3l.003-.048.001-.017.013-.064.021-.062.03-.059.024-.037.01-.017.044-.05.05-.043.054-.036.059-.03.062-.02.064-.013L-17-2.5l.065.004.039.008.025.005M-30-10h26L-5.666 0-7.8 12.803-8 14l-1.775 1.184-5.745 3.83h-.001L-17 20l-9-6-.2-1.197L-28.333 0l-1.334-8.002L-30-10m17.515 15.243-.96.101-.908.137-.85.177-.79.222-.704.264-.021.008-.656.327h1.105v3.166h4.237v1.204h-1.486v2.433h-1.336v-2.433h-1.478V14h-1.352v-1.012h-3.179v-1.142h3.18v-.997h-4.261V9.645h4.364V6.602l-.263.183-.246.195-.23.207-.113.118-.1.104-.196.237-.18.254-1.2-.441.213.243.222.239.228.235.016.016.214.212.228.22.222.21-1.073.65-.398-.351-.41-.382-.401-.4-.148-.16-.225-.242-.324-.39-.256-.362 1.125-.716.01-.007.01-.006.008-.005.083.139.097.144.108.149.08.103.037.05.096.12.029.038.13.161.759-.946.34-.277.592-.482 1.101-.598 1.01-.37.253-.091 1.421-.346.986-.16.588-.097.034.096.041.112.093.22.108.22.027.047.092.168.056.088.07.113.035.048.068.092.028.04m-.691 1.212.155.128.194.145.215.151.22.146.104.065.106.065.182.103-.288.205-.11.078-.39.324-.337.326-.033.032-.341.38-.303.395-.257.4-.04-.013-1.327-.398.311-.478.238-.318.114-.152.38-.45.4-.423.406-.381.342-.281.026-.021.014-.013.011-.009.008-.006m3.794 6.316L-8 4.29-7.301 0l1.304-8.003h-22.006L-26.7 0l.7 4.29 1.382 8.482v.03h.007l2.61 1.785L-17 18.003l5-3.416.859-.587 1.752-1.197h.007Zm0 0" transform="matrix(4.29492 0 0 4.26451 133.142 46.91)"/>
    <path d="m40.84 119.297-19.278-12.762-8.55-50.969C8.309 27.536 4.46 4.543 4.46 4.476c.004-.07 25.047-.124 55.656-.124 49.461 0 55.656.027 55.656.246 0 .136-3.835 23.082-8.52 50.988-4.683 27.91-8.515 50.781-8.515 50.824 0 .047-8.691 5.836-19.312 12.867L60.117 132.06Zm35.648-6.57c8.91-6.051 16.258-11.055 16.32-11.122.067-.066 3.36-19.886 7.325-44.046 3.96-24.16 7.246-44.133 7.3-44.38l.094-.452H12.73l.086.37c.047.204 3.325 20.137 7.286 44.298 3.957 24.16 7.214 43.988 7.238 44.062.05.176 32.562 22.262 32.777 22.266.094.004 7.457-4.946 16.371-10.996m0 0"/>
    <path d="M57.223 104.36v-2.133H43.664V97.46h13.559v-4.434H39.03v-4.925h18.69V74.926l-.453.289c-1.602 1.012-4.266 3.531-4.953 4.687-.157.266-.38.48-.489.48-.113 0-1.3-.402-2.644-.894-1.344-.496-2.47-.87-2.508-.836-.102.102 3.152 3.567 4.508 4.801l1.215 1.106-2.165 1.293c-2.023 1.207-2.19 1.273-2.582 1.07-.23-.117-1.84-1.621-3.578-3.336-3.062-3.023-5.363-5.738-5.09-6.008.075-.07 1.133-.766 2.356-1.547 1.91-1.219 2.242-1.375 2.371-1.144.305.543 2.625 3.527 2.738 3.52.059-.005.782-.86 1.602-1.903 4.766-6.067 12.738-9.832 25.164-11.883 3.367-.555 3.527-.57 3.527-.308 0 .32 1.43 3.199 1.985 4 .293.421.5.792.465.828-.04.039-1.075.18-2.305.312-7.25.8-13.125 2.3-17.227 4.406l-1.355.696 2.437.047 2.442.043v13.457H81.37v4.921l-6.367.086-.086 10.43h-5.453V93.027h-6.617v13.47h-5.625Zm0 0"/>
    <path d="M69.71 86.004c-1.362-.414-2.507-.774-2.542-.797-.113-.082 1.016-1.781 2.277-3.426 1.262-1.648 5.36-5.886 6.496-6.719l.61-.445 1.277.938a43 43 0 0 0 2.414 1.636l1.137.696-1.102.781c-2.261 1.602-5.64 5.148-7.07 7.422-.262.414-.559.691-.727.683-.16-.011-1.406-.355-2.77-.77M58.05 44.527c0-6.625 0-6.625.38-7.183.886-1.305 2.492-1.305 3.379 0 .379.558.379.558.379 7.183v6.625H58.05Zm0 0"/>
    <path fill="#f9f9f9" d="M43.914 112.555c-8.91-6.047-16.254-11.047-16.316-11.114-.149-.16-14.61-88.363-14.504-88.468.047-.047 21.25-.063 47.125-.04l47.043.04-7.235 44.086c-3.98 24.246-7.265 44.164-7.304 44.257-.047.133-29.72 20.375-32.176 21.957l-.43.278Zm19.098-12.63v-6.734h6.285v10.52l2.937-.047 2.934-.043.043-5.215.047-5.215h6.277v-5.254H63.344V74.474l-4.383-.016 1.14-.582c3.985-2.031 10.243-3.57 17.63-4.34.957-.097 1.765-.207 1.8-.242s-.215-.477-.55-.98c-.641-.954-2.075-3.836-2.075-4.165 0-.285-.633-.226-4.219.375-12.097 2.04-20.007 5.782-24.64 11.66-.82 1.04-1.54 1.891-1.602 1.895-.129.008-1.937-2.344-2.394-3.113-.188-.317-.406-.485-.567-.442-.191.051-4.312 2.567-4.922 3.004-.12.086 1.07 1.66 2.47 3.266 1.433 1.648 4.238 4.406 6.003 5.906l.918.778 2.242-1.352c1.23-.742 2.27-1.398 2.309-1.46s-1.125-1.313-2.582-2.782c-1.461-1.469-2.621-2.703-2.578-2.746.039-.04 1.101.3 2.355.754 1.254.457 2.293.808 2.309.785.82-1.364 3.996-4.508 5.34-5.281.164-.098.207 1.19.207 6.21v6.332H38.867v5.254H57.06v4.106H43.496v5.094H57.06v4.27h5.953Zm10.195-13.429c1.215-2.105 5.156-6.285 7.297-7.726.555-.375 1.055-.754 1.11-.84.054-.086-.145-.285-.446-.438-.797-.41-3.34-2.125-4.008-2.707l-.578-.504-1.203.98c-1.48 1.204-4.16 3.946-5.559 5.684-1.316 1.637-3.058 4.2-2.937 4.32.074.075 5.633 1.813 5.887 1.84.046.004.242-.27.437-.609M62.352 44.527v-6.789l-.38-.558c-.206-.305-.558-.649-.785-.758-.613-.313-1.656-.254-2.277.121-1.004.61-1.023.758-1.023 8.117v6.656h4.465Zm0 0"/>
</svg>
