<svg xmlns="http://www.w3.org/2000/svg" width="120" height="120" viewBox="0 0 120 136">
    <path fill="none" stroke="red" stroke-width=".004" d="M-30 30h26l-.462 2.768L-7.8 52.803-8 54l-1.775 1.184-5.745 3.83h-.001L-17 60l-9-6-.2-1.197-3.338-20.035-.129-.77L-30 30m16 6.5 1.333 1 .667.5-2 1.5v-1h-2.5V41h1l-1 1.333-.5.667-.5-.667-1-1.333h1v-2.5H-20v1l-2-1.5.666-.5 1.334-1v1h2.5V35h-1l1-1.333.5-.667.5.667 1 1.333h-1v2.5h2.5v-1m1.054 7.596.12.146.15.162.169.165.176.159.173.14.158.114-.07.074-.157.163-.285.299-.39.57-.284.596-.194.611-.121.618-.065.616h1.34v1.198h-1.37v1.078l.15-.035.148-.03.147-.031.147-.026.146-.024.087-.013.027-.004.02-.003.013-.002.041.149.06.161.072.168.042.085.04.08.088.158.08.13.008.012-.008.002-.468.102-.062.014-.533.136-.52.15-.465.155-.03.009-.461.173-.175.074-.243.103-.092-.103-.672-.75v.75h-1.218v-2.668h-2.239l-.007-.246-.005-.185-.002-.057-.003-.087-.006-.153-.011-.238-.014-.236-.02-.236-.174-.064-.166.15-.17.158-.167.16-.16.16-.109.112-.038.04-.128.14-1.074-.552.189-.14.188-.133.185-.13.089-.062.094-.064.179-.119.127-.081.022-.015.012-.007.008-.006.004-.002-.218-.105-.21-.106-.203-.106-.188-.103-.172-.1-.152-.095.086-.115.528-.707.006-.008.014-.018.01-.013.007-.01.181.127.212.132.238.137.004.002.253.136.271.141.161.08.117.06-.013-.06-.101-.461-.15-.459-.191-.385-.236-.3-.11-.077-.178-.124-.345-.091-.06.025-.054.093-.047.155-.042.208-.037.255-.008.077-.007.06-.017.15v.007l-.11-.146-.009-.01-.11-.139-.125-.143-.127-.132-.124-.114-.121-.09.086-.406.024-.113.15-.401.192-.288.233-.179.275-.075.318.024.242.08.192.064.36.119.59.507.154.262.267.453.284.886.063.366.06.343v.002l.006.032.048.276.102 1.115h1.127v-4.361h1.218v4.36h1.256l.068-.773.135-.779.221-.77.328-.744.26-.406.195-.303.484-.53.047-.052.03-.033.019-.02.013-.014.007-.008m.19 8.602v1.182h-6.521l-.009-.15-.01-.15-.013-.145-.018-.187-.01-.103-.015-.143-.25-.08-.166.168-.146.158-.022.024-.165.189-.158.188-.146.182-.075.099-.053.07-1.058-.543h-.001l.19-.156.063-.053.124-.103.186-.154.183-.151.045-.037.133-.11.12-.095.024-.02.018-.015.008-.006.003-.003-.23-.1-.22-.099-.209-.099-.194-.099-.176-.097-.158-.097.551-.763.077-.107.173.107.008.005.216.122.177.094.065.034.262.133.276.135.282.136-.145-.387-.14-.272-.035-.069-.21-.287-.246-.224-.109-.058-.179-.093-.335-.07-.057.018-.052.071-.047.117-.042.16-.039.199-.003.018-.029.19-.002.014v.01l-.106-.134-.117-.137-.016-.017-.106-.117-.126-.124-.124-.11-.117-.087.072-.294.036-.146.15-.34.19-.244.229-.151.267-.062.304.023.25.07.504.142.584.394.44.55.317.673.033.115.138.477.02.073.03.107.15.84h5.507m-2.647-1.454.15-.043.06-.017.21-.058.214-.056v-1.342h-1.24v1.71l.198-.068.203-.064.205-.062m6.021 1.529L-8 44.29l1.878-11.523.125-.77h-22.006l.125.77L-26 44.291l1.382 8.48v.032h.007l2.61 1.784L-17 58.003l5-3.416.859-.587 1.752-1.197h.007Zm0 0" transform="matrix(4.29492 0 0 4.26451 133.142 -123.67)"/>
    <path d="m40.84 119.297-19.278-12.762-8.55-50.969C8.309 27.536 4.46 4.543 4.46 4.476c.004-.07 25.047-.124 55.656-.124 49.461 0 55.656.027 55.656.246 0 .136-3.835 23.082-8.52 50.988-4.683 27.91-8.515 50.781-8.515 50.824 0 .047-8.691 5.836-19.312 12.867L60.117 132.06Zm35.648-6.57c8.91-6.051 16.258-11.055 16.32-11.122.067-.066 3.36-19.886 7.325-44.046 3.96-24.16 7.246-44.133 7.3-44.38l.094-.452H12.73l.086.37c.047.204 3.325 20.137 7.286 44.298 3.957 24.16 7.214 43.988 7.238 44.062.05.176 32.562 22.262 32.777 22.266.094.004 7.457-4.946 16.371-10.996m0 0"/>
    <path d="m57.012 55.418-3.098-4.102h4.137V40.48H47.137v1.97c0 1.085-.04 1.972-.086 1.972-.047 0-1.914-1.363-4.149-3.027l-4.062-3.028 4.11-3.062 4.105-3.059.043 2.063.047 2.066H58.05V25.547l-2.059-.047-2.054-.047 2.976-3.941c1.637-2.168 3.04-4.004 3.117-4.082.078-.078 1.516 1.68 3.227 3.941l3.086 4.082-4.156.094v10.828H73.09l.047-2.066.047-2.063 4.113 3.063c2.262 1.687 4.047 3.125 3.969 3.191-.079.07-1.95 1.469-4.153 3.11l-4.011 2.98v-4.11H62.187v10.836h4.137l-3 3.985a548 548 0 0 1-3.11 4.101c-.058.067-1.5-1.726-3.202-3.984m9.035 42.828-1.629-1.828-.094 3.344h-5.117V88.266h-9.55l-.122-2.75c-.066-1.512-.183-2.907-.258-3.098-.07-.191-.3-.39-.507-.445-.317-.082-.708.226-2.372 1.859l-1.992 1.953-2.105-1.097c-1.16-.606-2.11-1.137-2.11-1.184s.864-.676 1.922-1.395c1.055-.722 2.075-1.43 2.258-1.574.32-.25.262-.297-1.387-1.129-1.93-.972-3.125-1.644-3.125-1.754 0-.043.57-.828 1.266-1.75a502 502 0 0 0 1.305-1.726c.02-.028.547.277 1.172.672 1.062.675 4.878 2.746 5.062 2.746.129 0-.336-2.086-.727-3.285-.984-2.989-2.332-4.59-4.32-5.118-.672-.175-.82-.171-1.031.04-.254.253-.734 2.18-.738 2.968-.008.977-.172.977-.996-.008-.438-.523-1.094-1.203-1.457-1.511l-.66-.563.386-1.52c.461-1.812 1.078-3 1.938-3.73 1.101-.933 2.324-.976 4.734-.172 1.516.508 1.84.688 2.969 1.668 1.66 1.438 2.785 3.297 3.672 6.055.644 2.004 1.379 5.95 1.562 8.375.05.723.137 1.594.188 1.93l.093.617h4.93V64.785h5.129v18.563l2.77-.043 2.769-.047.188-1.969c.624-6.477 2.69-11.582 6.234-15.406l1.187-1.285 1.407 1.379c.773.757 1.664 1.57 1.984 1.812l.578.434-1.09 1.113c-3.172 3.242-4.918 7.406-5.504 13.14l-.09.864h5.774v4.926H74.59v2.382c0 1.797.05 2.38.207 2.38.113 0 .914-.15 1.777-.329 1.926-.394 1.985-.398 1.985-.039 0 .16.367 1.028.812 1.93s.8 1.648.785 1.652c-.015.008-1.195.29-2.625.63-2.386.566-6.926 2.003-9.004 2.855l-.855.347Zm2.797-3.812.949-.266v-5.902h-5.457v7.515l1.777-.543c.977-.297 2.207-.66 2.73-.804m0 0"/>
    <path d="M42.793 105.41c-1.16-.578-2.11-1.086-2.11-1.125s1.008-.894 2.235-1.902 2.234-1.883 2.234-1.942c0-.062-.504-.324-1.117-.582-2.004-.843-3.863-1.906-3.722-2.125.066-.113.636-.914 1.265-1.78l1.14-1.579 1.012.566c1.454.825 5.266 2.7 5.336 2.63.098-.094-.851-2.313-1.355-3.165-1.106-1.87-2.672-3-4.254-3.066-.793-.031-.875 0-1.086.433-.129.262-.312.934-.41 1.5l-.18 1.028-1.441-1.461-1.442-1.457.227-.86c.73-2.761 2.027-4.062 4.047-4.062.488 0 1.601.2 2.469.441 4.656 1.297 7.422 5.301 8.695 12.57l.281 1.602h23.61v4.93H50.48l-.105-1.11c-.258-2.695-.227-2.605-.879-2.804-.328-.098-.652-.145-.723-.102-.14.086-2.785 3.117-3.457 3.957l-.414.52Zm0 0"/>
    <path fill="#f9f9f9" d="M43.914 112.555c-8.91-6.047-16.254-11.047-16.316-11.114-.149-.16-14.61-88.363-14.504-88.468.047-.047 21.25-.063 47.125-.04l47.043.04-7.235 44.086c-3.98 24.246-7.265 44.164-7.304 44.257-.047.133-29.72 20.375-32.176 21.957l-.43.278Zm1.59-6.461c.223-.313 1.059-1.313 1.855-2.219 1.43-1.629 1.817-1.871 2.38-1.516.171.11.527 2.438.534 3.52.004.27.786.289 14.063.289h14.059v-5.258H54.78l-.28-1.6c-1.297-7.325-4.082-11.317-8.77-12.579-.91-.246-2.07-.457-2.578-.468-2.12-.051-3.586 1.457-4.273 4.398l-.195.832 1.582 1.598c.925.937 1.609 1.512 1.648 1.387.035-.122.152-.696.258-1.286.105-.586.305-1.238.441-1.449.215-.336.328-.367.938-.265 1.828.3 3.363 1.699 4.52 4.117.394.824.718 1.543.718 1.601 0 .133-3.727-1.707-4.984-2.46-.512-.305-.996-.555-1.075-.551-.171.004-2.707 3.492-2.707 3.726 0 .18 1.375.945 3.36 1.871.707.328 1.324.633 1.367.676s-.937.91-2.176 1.926c-1.238 1.015-2.187 1.906-2.113 1.984.223.211 4.254 2.285 4.457 2.29.098 0 .363-.255.586-.563m24.371-6.672c2.191-.863 6.191-2.07 8.766-2.637.82-.183 1.582-.36 1.695-.394.14-.047.05-.325-.293-.907-.586-.988-1.316-2.668-1.316-3.023 0-.14-.133-.254-.293-.254-.317 0-2.766.45-3.223.59-.266.082-.29-.09-.29-2.137v-2.23h5.79v-5.254h-5.727l.133-1.274c.406-3.87 1.621-7.39 3.485-10.12.363-.528 1.214-1.563 1.894-2.294l1.23-1.328-.632-.488c-.348-.27-1.301-1.14-2.121-1.942l-1.485-1.457-1.129 1.2c-3.683 3.922-5.832 9.125-6.46 15.652l-.192 1.969-2.602.047-2.605.043V64.62h-5.457v18.555h-4.602l-.09-.617a36 36 0 0 1-.19-1.93c-.188-2.477-.915-6.371-1.571-8.383-.89-2.746-2.024-4.617-3.64-6.016-1.114-.96-1.415-1.125-3.055-1.668-2.59-.855-3.88-.812-5.032.168-.828.704-1.547 2.165-1.984 4.028l-.328 1.398 1.203 1.215c.66.668 1.394 1.465 1.633 1.774l.425.562.11-.809c.223-1.699.582-3.257.805-3.48.457-.453 2.199.332 3.199 1.441.867.957 2.09 3.868 2.437 5.797l.114.621-.989-.496c-1.343-.672-4.18-2.297-4.5-2.574-.144-.125-.347-.227-.453-.227-.101 0-.82.832-1.594 1.848l-1.402 1.848.367.281c.2.156 1.278.75 2.39 1.324l2.028 1.04-1.86 1.265c-2.526 1.715-2.718 1.871-2.523 2.05.09.083 1.145.657 2.348 1.278l2.18 1.129 2.023-2c2.73-2.691 2.696-2.711 2.887 1.8l.113 2.587h9.551v11.496h5.445l.047-1.504.05-1.504 1.474 1.668c.808.918 1.523 1.668 1.586 1.668.066 0 1.066-.375 2.23-.832m-6.363-44 3.16-4.188-2.16-.043-2.16-.046v-10.5h10.574l.094 4.25 4.3-3.204c2.364-1.757 4.313-3.25 4.332-3.312.035-.121-8.414-6.438-8.609-6.438-.059 0-.106.961-.106 2.133v2.137H62.353V25.699H64.5c1.184 0 2.152-.039 2.152-.086 0-.12-6.441-8.617-6.535-8.617s-6.531 8.496-6.531 8.617c0 .047.969.086 2.148.086h2.153v10.512H47.3v-2.137c0-1.172-.04-2.133-.086-2.133-.164 0-8.707 6.43-8.637 6.5.04.04 1.996 1.504 4.356 3.262l4.285 3.192.047-2.125.043-2.125h10.578v10.5l-2.14.046-2.138.043 3.25 4.309c1.786 2.367 3.305 4.254 3.371 4.187.063-.066 1.54-2.003 3.282-4.308m0 0"/>
    <path fill="#f9f9f9" d="M64.5 91.973V88.43h5.137l-.047 2.812-.043 2.809-2.152.61c-1.18.335-2.317.663-2.52.73l-.375.125Zm0 0"/>
</svg>
