<svg xmlns="http://www.w3.org/2000/svg" width="120" height="120" viewBox="0 0 120 136">
    <path fill="none" stroke="red" stroke-width=".004" d="M76.182-4.475 73.707-2l2 2 .475.475-.707.707L74.293 0 73.5-.793V1h-1V-.793L71.707 0l-1.182 1.182-.707-.707.475-.475 2-2-2.475-2.475.707-.707L73-2.707l2.475-2.475.707.707M60-10h26L84.333 0 82.2 12.803 82 14l-1.775 1.184-5.745 3.83h-.001L73 20l-9-6-.2-1.197L61.667 0l-1.334-8.002L60-10M77.856 5.48l-.032.006-.201.041-.233.046-.02.004-.269.051-.248.048-.036.006-.296.055-.306.057v2.575h1.452V9.47h-1.452v.75h.885v.461l.068-.057.068-.056.068-.055.153-.121.02-.017.016-.011.01-.009.005-.004.049.164.072.21.088.232.097.235.01.023.087.194.089.176-.176.13-.246.183-.419.359-.03.03-.374.367-.13.148-.247.28-.338.45-.264.43-.015.023-.008.014-.053-.02-.106-.04-.144-.054-.164-.063-.546-.206.024-.053.026-.052.028-.052.03-.052.008-.012.024-.04.002-.003.018-.028.014-.022-.306-.247-.3-.253-.285-.253-.264-.247-.015-.015-.016-.015-.204-.204-.2-.215.404-.482.346-.414.136.161v-.897h.923V9.47h-1.384V8.368h1.384V6.023l-.556.12-.147.033.636.188.01.002.004.002-.07.266-.075.3-.054.234-.02.082-.067.32-.057.309-.043.282-.915-.238.096-.304.097-.31.044-.141.052-.164.096-.293.093-.27.09-.242-.598.123-.016-.178-.005-.05-.077-.837.077-.02.606-.156.445-.113.242-.062.68-.17.075-.02.44-.11.144-.036.627-.16.582-.149.255 1.082.032.136m-.726.43.026.235.004.035.051.304.066.325.078.333.086.328.09.309-.008.003-.816.227-.093-.308-.088-.325-.08-.33-.07-.32-.058-.302-.043-.27.031-.01.824-.235m-6.551-.927.906-.28.195-.062.47-.153.469-.165.315-.128.162-.081.032-.016.012-.006.14-.09.021.096.016.073.056.191.07.198.08.194.085.173.088.14-.102.055-.004.002-.1.072-.089.094-.024.04-.048.081-.047.151-.017.187v7.809H68.46V8.667h1.975l-.055-.19-.058-.184-.034-.101-.028-.08-.065-.18-.068-.177-.071-.176-.2.157-.2.165-.025.022-.166.145-.134.124-.047.043-.165.162-.144.155-.007-.008-.321-.352-.49-.537.225-.176.233-.176.236-.173.237-.167.234-.16.228-.152-.212-.295-.178-.212-.05-.06-.248-.252-.266-.226-.287-.203-.154-.088-.06-.034-.04-.023-.025-.014-.02-.012-.01-.006.148-.141.158-.17.16-.192.151-.199.135-.196.11-.182.653.495.117.13.356.392.017.02.066.072.47.72.08.169.31.647v.002l.015.04.013.038.292.82.133.5.126.476h.544V5.724l-.374.098-.91.24-.04.01-.015.004-.012.004-.012.002-.006.002-.004-.177-.011-.196-.018-.201-.022-.197-.024-.18-.024-.138-.003-.014m10.039 7.79L82 4.292 82.699 0l1.304-8.003H61.997L63.3 0l.7 4.29 1.382 8.482v.03h.007L68 14.588l5 3.415 5-3.416.859-.587 1.752-1.197h.007v-.031m-4.345-1.3.161-.169h-2.057l.17.172.18.18.19.182.197.184.2.183.097.084.108.095.072-.095.073-.095.112-.14.036-.045.15-.182.154-.178.157-.175M69.68 9.755v.85h2.375v-.85H69.68m0 1.877v.828h2.375v-.828Zm0 0" transform="matrix(4.29492 0 0 4.26451 -253.4 46.91)"/>
    <path d="m40.84 119.297-19.278-12.762-8.55-50.969C8.309 27.536 4.46 4.543 4.46 4.476c.004-.07 25.047-.124 55.656-.124 49.461 0 55.656.027 55.656.246 0 .136-3.835 23.082-8.52 50.988-4.683 27.91-8.515 50.781-8.515 50.824 0 .047-8.691 5.836-19.312 12.867L60.117 132.06Zm35.648-6.57c8.91-6.051 16.258-11.055 16.32-11.122.067-.066 3.36-19.886 7.325-44.046 3.96-24.16 7.246-44.133 7.3-44.38l.094-.452H12.73l.086.37c.047.204 3.325 20.137 7.286 44.298 3.957 24.16 7.214 43.988 7.238 44.062.055.18 32.562 22.262 32.777 22.266.094.004 7.457-4.946 16.371-10.996m0 0"/>
    <path d="M69.879 105.734c-1.09-.406-2.008-.765-2.04-.796-.026-.028.099-.344.278-.7l.336-.648-1.594-1.3a69 69 0 0 1-3.414-3.036l-1.824-1.742 1.543-1.836c1.422-1.696 1.566-1.82 1.824-1.586.157.14.332.254.395.254.062 0 .11-.852.11-1.89v-1.888h3.804v-3.285h-5.79v-4.597h5.79v-5.102c0-4.781-.02-5.098-.29-5.023-.16.043-.866.203-1.57.351-.707.149-1.28.297-1.28.332s.62.25 1.382.48l1.383.419-.477 1.93a72 72 0 0 0-.785 3.624c-.168.93-.344 1.727-.39 1.77-.153.152-3.594-.793-3.594-.985 0-.105.511-1.742 1.136-3.632.63-1.895 1.114-3.473 1.079-3.508-.032-.035-.606.043-1.274.176l-1.219.242-.183-2.145c-.102-1.175-.16-2.164-.133-2.191.066-.063 16.273-4.145 16.465-4.145.133 0 1.36 4.785 1.254 4.891-.043.043-6.63 1.348-6.805 1.348-.039 0-.066 2.511-.066 5.586v5.582h6.117v4.597H73.93v3.285h3.636v.985c0 .543.055.984.125.984.067 0 .45-.262.852-.574.766-.606 1.008-.7 1.008-.379 0 .11.418 1.223.93 2.477l.925 2.28-.355.247c-2.98 2.074-6.75 6.02-8.531 8.926-.329.543-.614.98-.63.972-.015-.004-.921-.34-2.011-.75m1.898-6.918a57 57 0 0 1 1.942-2.289c.66-.742 1.203-1.386 1.203-1.437 0-.05-2.012-.09-4.465-.09-2.457 0-4.469.059-4.469.125 0 .234 4.684 4.637 4.93 4.637.066 0 .453-.426.86-.946m0 0"/>
    <path d="M75.938 80.344c-.38-1.203-.852-3.098-1.18-4.723a441 441 0 0 0-.422-2.066c-.063-.305.102-.39 1.59-.801.945-.266 1.719-.399 1.789-.317.074.083.222.774.336 1.543.113.766.465 2.418.781 3.668.316 1.254.543 2.309.5 2.352-.082.078-2.914.875-3.117.875-.059 0-.188-.238-.278-.531m-35.253 14V83.996h4.218c4.883 0 4.493.207 3.743-1.98-.7-2.032-1.028-2.782-1.22-2.782-.237 0-1.777 1.293-3.304 2.774-.762.734-1.336 1.176-1.418 1.078-.074-.086-.832-.914-1.68-1.844-.851-.926-1.515-1.71-1.48-1.742.34-.29 4.086-2.98 4.824-3.465.52-.344.95-.707.95-.808 0-.364-2.126-2.856-3.262-3.825-.633-.539-1.61-1.261-2.168-1.605l-1.016-.621.899-.969a23 23 0 0 0 1.683-2.07c.426-.61.828-1.164.887-1.235.176-.207 2.625 1.762 3.906 3.137 2.934 3.152 5.504 8.438 7.02 14.438l.382 1.52h2.582v-6.415c0-6.035-.015-6.41-.289-6.332-.683.203-5.445 1.418-5.546 1.418-.067 0-.122-.316-.13-.7-.003-.382-.1-1.382-.21-2.218l-.203-1.523 1.91-.582c3.718-1.137 6.886-2.239 8.234-2.864 1.219-.566 1.363-.601 1.363-.324 0 .41.914 2.906 1.293 3.523l.297.489-.504.336c-.28.183-.675.664-.879 1.066l-.37.73v34.087H40.683Zm15.546 3.941v-1.808H45.813v3.613H56.23Zm0-7.965v-1.89H45.813v3.777H56.23Zm-8.144-39.949-1.445-1.437 5.293-5.254 5.289-5.25-10.664-10.594 1.445-1.438 1.45-1.433 5.25 5.21c2.886 2.868 5.323 5.216 5.413 5.216s2.528-2.348 5.418-5.215l5.25-5.211 1.445 1.433 1.45 1.438-5.336 5.297-5.332 5.297 5.293 5.25 5.289 5.254-1.442 1.437-1.445 1.441-4.262-4.226-4.257-4.23v7.796H58.05v-7.797l-4.262 4.23-4.262 4.227Zm0 0"/>
    <path fill="#f9f9f9" d="M43.914 112.555c-8.91-6.047-16.254-11.047-16.316-11.114-.149-.16-14.61-88.363-14.504-88.468.047-.047 21.25-.063 47.125-.04l47.043.04-7.235 44.086c-3.98 24.246-7.265 44.164-7.304 44.257-.047.133-29.72 20.375-32.176 21.957l-.43.278Zm28.691-6.797c1.61-2.793 5.891-7.258 8.739-9.117l.379-.246-.563-1.23a37 37 0 0 1-1.027-2.548c-.258-.722-.531-1.383-.606-1.465-.078-.09-.402.063-.789.368-.36.289-.699.523-.75.523-.05 0-.09-.367-.09-.82v-.82h-3.804v-2.958h6.12V82.52h-6.12l.023-4.477c.012-2.461.055-4.29.094-4.063.187 1.082.95 4.348 1.336 5.711.324 1.149.488 1.504.664 1.434.133-.047.977-.285 1.879-.527 1.246-.332 1.617-.493 1.55-.672-.374-.965-1.574-6.348-1.578-7.074-.007-.852-.136-.875-1.992-.348-.949.27-1.785.492-1.851.492-.07 0-.125-.297-.125-.66 0-.36.02-.656.047-.656.234 0 6.793-1.317 6.855-1.38.043-.042-.203-1.265-.547-2.714-.511-2.16-.676-2.625-.886-2.559-.141.043-3.934 1.004-8.43 2.133-4.492 1.125-8.195 2.078-8.235 2.113-.058.059.293 4.57.364 4.668.02.024.543-.062 1.172-.195.625-.129 1.164-.207 1.199-.176.031.032-.203.82-.524 1.754-1.234 3.586-1.746 5.406-1.546 5.48.105.036 1.03.286 2.05.551l1.856.477.097-.602c.2-1.23.918-4.578 1.223-5.69l.313-1.15.015 4.063.016 4.067h-5.965l.094 4.843 2.933.047 2.938.043v2.95h-3.969v1.742c0 1.464-.039 1.714-.23 1.558-.184-.152-.54.18-1.817 1.695-.875 1.04-1.594 1.965-1.594 2.063 0 .383 3.579 3.758 6.02 5.676l.637.504-.356.691c-.27.523-.304.711-.144.773.117.043 1.066.407 2.113.805 1.047.403 1.992.735 2.098.738s.43-.394.714-.89M61.36 87.957c0-9.289.051-17.14.11-17.445.074-.352.398-.828.91-1.32l.8-.774-.335-.566c-.422-.711-1.32-3.137-1.32-3.567 0-.426-.051-.418-1.403.238-1.16.563-4.89 1.86-8.578 2.977-1.813.55-1.95.621-1.86.953.055.195.188 1.285.297 2.426l.196 2.074 2.738-.715c1.508-.394 2.793-.718 2.863-.718.067-.004.125 2.77.125 6.156v6.156h-2.101l-.543-2.094c-1.914-7.383-5.211-13.031-9.465-16.207l-1.441-1.078-.844 1.242a24 24 0 0 1-1.918 2.371l-1.074 1.13.464.28c2.192 1.325 3.778 2.688 5.22 4.485.534.668.91 1.266.835 1.328-.07.063-.765.547-1.539 1.078a82 82 0 0 0-2.719 1.957c-.722.547-1.39 1.043-1.48 1.106-.098.066.242.55.808 1.148l1.864 1.98.886.946 1.356-1.3c.746-.72 1.762-1.638 2.262-2.044.898-.734.914-.738 1.101-.383.371.703 1.38 3.762 1.29 3.907-.051.082-1.938.148-4.22.148H40.52v21.02h20.84ZM53.793 47.91l4.094-4.062v7.468h4.465v-7.632l4.218 4.187 4.215 4.184 1.57-1.559 1.575-1.562-5.293-5.25-5.293-5.254 10.664-10.594-1.61-1.602-1.613-1.601-5.332 5.297-5.336 5.293-10.664-10.586-1.574 1.554-1.574 1.559 5.336 5.297 5.332 5.297-10.664 10.593 1.527 1.52c.844.836 1.605 1.52 1.695 1.52s2.008-1.832 4.262-4.067m0 0"/>
    <path fill="#f9f9f9" d="m68.469 97.309-2.23-2.13 8.382-.015-.883 1.004a70 70 0 0 0-1.765 2.094c-.485.597-.97 1.11-1.075 1.133-.109.023-1.199-.915-2.43-2.086m-3.398-3.321c-.222-.261-.261-.332-.14-.27.21.114.218.071.23-1.745l.012-1.559h3.973v-2.957l-.153-.016c-.156-.015-4.437-.078-5.25-.078-.332 0-.449-.008-.457-.035-.008-.02-.027-.832-.043-1.805-.02-.976-.039-2.043-.05-2.375l-.02-.601h5.973v-1.2c0-1.855-.04-6.96-.051-6.945-.02.016-.223.766-.387 1.41-.363 1.426-.93 4.094-1.14 5.356-.051.3-.102.57-.114.598-.016.039-.195 0-1.336-.297-1.949-.508-2.555-.672-2.555-.703 0-.012.02-.016.051-.008.348.101 3.79.972 3.801.96a8 8 0 0 0 .11-.632c.265-1.719.816-4.25 1.39-6.375.098-.356.172-.652.168-.656a54 54 0 0 0-1.328-.395c-.723-.21-1.324-.39-1.332-.402-.012-.008.594-.149 1.344-.313.75-.16 1.375-.285 1.386-.273.082.078.09.445.102 5.137l.012 4.765h-5.938v4.735h5.934v3.164h-3.946l-.015 3.78Zm-19.11 4.305v-1.738h10.056v3.48H45.96Zm0-8.012V88.54h10.056v3.484H45.96Zm0 0"/>
</svg>
