<svg xmlns="http://www.w3.org/2000/svg" width="120" height="120" viewBox="0 0 120 136">
    <path fill="none" stroke="red" stroke-width=".004" d="m-47 30 4.152 2.768L-38 36l.2 1.197 1.992 11.955 1.475 8.85L-34 60h-26l1.808-10.848 1.992-11.955L-56 36l1.775-1.183 3.073-2.049 2.672-1.782L-47 30m.5 19v1.793l1.641-1.641 1.041-1.04-.707-.708 1.65-.236.825-.118-.118.825-.183 1.277-.053.373-.373-.373-.334-.334-.334.334-2.348 2.348H-44v1h-1.793l2.682 2.682.707-.707.236 1.65.118.825-.825-.118-1.65-.236.707-.707-2.682-2.682V55h-1v-1.793l-2.682 2.682.707.707-1.65.236-.825.118.118-.825.236-1.65.707.707 2.682-2.682H-50v-1h1.793l-2.348-2.348-.334-.334-.334.334-.373.373-.053-.373-.183-1.277-.118-.825.825.118 1.65.236-.707.707 1.03 1.03.011.01 1.64 1.642V49h1.001m3.325-10.121h-2.89v.7h2.89V40.6h-2.89v.708H-42l-.001.027v.038l-.001.033-.003.1-.003.117-.004.115-.004.101-.042.619-.03.438-.01.112-.067.742-.088.67-.101.507-.043.13-.078.233-.144.24-.118.126-.122.1-.13.075-.02.009-.115.047-.148.041-.16.029-.168.018-.194.013-.216.01-.235.002-.25-.003-.102-.004-.068-.001-.048-.001-.028-.001-.015-.001-.022-.199-.04-.21-.054-.218-.07-.213-.038-.093-.044-.108-.032-.063-.035-.069-.026-.05.06.006.153.012h.004l.023.002.176.012.187.01.094.002.073.002h.14l.108-.006h.084l.071-.006.063-.012.056-.021.052-.033.05-.048.072-.129.067-.209.051-.246.012-.057.002-.013.057-.394.055-.525.009-.105.043-.55h-7.235V36h7.8v1.134h-3.274v.7h2.89v1.045m-1.433 4.08.029.05.132.22.152.273.136.27.114.255.002.005.01.028.074.2-.074.028-.909.338-.01.004-.079-.232-.026-.066-.077-.196-.046-.104-.08-.176-.14-.285-.15-.28-.155-.262.061-.02.587-.204.284-.098.165.253m-1.825.005.018.043.122.29.134.355.124.362.005.017.103.338.085.333v.002l.059.294-.216.057-.85.225-.013-.084-.023-.14-.01-.064-.073-.332-.095-.358-.042-.139-.07-.23-.126-.367-.135-.345.015-.004.316-.08.504-.13.168-.043m-2.514 2.597-.018-.335-.018-.17-.02-.206-.057-.4-.07-.411-.023-.11-.06-.294-.094-.382.013-.002.141-.023.934-.152.108.378.096.399.08.405.066.396.047.372.002.03.024.304-1.135.198-.016.003m-1.644-2.747.672.193.212.06-.115.546-.142.531-.175.508-.187.403-.032.07-.271.424-.33.366-1.042-.667.174-.193.115-.128.248-.37.21-.413.17-.446.135-.47.044-.22.055-.27.26.076m-4.029-5.587L-56 45.708l-.56 3.444-1.04 6.377-.403 2.473h22.006l-.03-.19-1.362-8.352-.05-.308-.561-3.443-1.382-8.48v-.032h-.007L-42 35.413l-3.871-2.645-1.129-.77-1.129.77-1.023.7L-52 35.412l-2.61 1.784h-.008v.031m7.27-.03v-.064h-1.966v.7h1.966v-.637m0 1.682h-1.966v.7h1.966v-.7m0 2.43V40.6h-1.966v.708Zm0 0" transform="matrix(4.29492 0 0 4.26451 261.99 -123.67)"/>
    <path fill="red" d="M4.46 131.988c0-.066 3.849-23.058 8.552-51.09l8.55-50.968L60.118 4.406l19.16 12.684c10.54 6.976 19.227 12.746 19.305 12.824.125.125 17.191 101.332 17.191 101.953 0 .219-6.195.246-55.656.246-30.61 0-55.652-.054-55.656-.125m102.974-8.703c-.055-.246-3.34-20.219-7.301-44.379-4.031-24.57-7.293-44.008-7.403-44.113-.19-.176-31.601-21.48-32.296-21.902-.317-.192-1.704.71-16.746 10.918-9.02 6.117-16.399 11.195-16.399 11.285 0 .207-14.36 87.789-14.473 88.273l-.086.371h94.797Zm0 0"/>
    <path fill="red" d="M69.578 70.816c-.16-.832-.476-1.914-.703-2.398-.223-.484-.406-.906-.406-.938 0-.027 1.14-.039 2.531-.02 3.102.04 3.25-.022 3.742-1.6.348-1.118.746-3.704.914-5.922.059-.723.14-1.626.192-2.012l.086-.696H44.82V29.97h33.243v4.597h-14.06v3.121H76.41v4.434H64.004v3.121H76.41v4.106H64.004v3.285h17.531v.531c0 .293-.113 2.05-.25 3.902-.762 10.414-1.445 13.102-3.66 14.391-1.125.652-2.441.875-5.27.875l-2.48.004ZM58.711 50.988v-1.64h-8.598v3.285h8.598Zm0-7.304V42.12h-8.598v3.121h8.598Zm0-7.555v-1.563h-8.598v3.121h8.598ZM41.016 70.68a105 105 0 0 1-2.141-1.403c-.04-.035.195-.34.516-.68 1.726-1.808 3.422-5.503 4.109-8.956.121-.602.262-.93.383-.887.105.039 1.168.351 2.363.695 1.715.492 2.156.676 2.113.883-1.172 5.434-2.547 8.691-4.636 10.98l-.641.704Zm0 0"/>
    <path fill="red" d="M51.875 70.418c-.059-.059-.11-.48-.11-.941 0-1.133-.593-5.075-1.062-7.032-.207-.883-.351-1.601-.32-1.601s1.031-.157 2.222-.344 2.192-.316 2.223-.285c.094.094.707 2.535 1.07 4.242.368 1.742.778 5.031.641 5.168-.047.047-.937.234-1.977.414-1.035.184-2.042.363-2.234.406-.191.043-.394.032-.453-.027m8.925-1.57c-.316-1.649-1.077-4.457-1.663-6.13l-.707-2.011 1.672-.422c.918-.234 1.836-.469 2.035-.523.3-.086.406.004.636.531.63 1.45 1.622 4.363 2.059 6.05l.469 1.805-2.012.532c-1.11.293-2.105.535-2.215.535-.113 0-.238-.164-.273-.367m8.054-2.711c-.398-1.157-1.668-3.953-2.277-5.008-.402-.7-.703-1.274-.668-1.274s.89-.289 1.899-.648l1.832-.648.605.937c.8 1.242 2.008 3.508 2.465 4.625l.371.902-1.852.692c-2.117.793-2.238.816-2.375.422m-29.824 52.769c0-.34 1.38-9.867 1.438-9.941.035-.04.71.57 1.504 1.355l1.445 1.426 5.867-5.828 5.871-5.828h-7.855v-4.106h7.855l-5.789-5.746c-3.18-3.164-5.86-5.75-5.949-5.75-.09 0-.797.63-1.574 1.399L40.43 87.28l-.715-5.02c-.395-2.757-.684-5.05-.645-5.09.07-.07 9.434 1.2 9.875 1.345.16.05-.23.543-1.199 1.507l-1.434 1.434 5.868 5.824 5.87 5.828v-7.796h4.138v7.796l5.867-5.828 5.87-5.824-1.433-1.434c-.969-.964-1.36-1.457-1.199-1.507.477-.157 9.805-1.414 9.887-1.332.043.043-.246 2.336-.645 5.09l-.722 5.011-1.415-1.398c-.78-.77-1.492-1.399-1.578-1.399-.09 0-2.77 2.586-5.953 5.75l-5.785 5.746h7.856v4.106h-7.856l5.867 5.828 5.871 5.828 1.493-1.476 1.496-1.477.703 4.969c.386 2.73.703 5.047.699 5.144-.004.114-1.734-.07-4.926-.527-2.707-.39-5.031-.711-5.164-.711-.137-.004.442-.691 1.281-1.527l1.524-1.52-5.746-5.707c-3.16-3.137-5.805-5.703-5.871-5.703s-.121 1.7-.121 3.777v3.778H58.05v-3.778c0-2.078-.055-3.777-.121-3.777-.07 0-2.711 2.566-5.871 5.703l-5.746 5.707 1.523 1.52c.84.836 1.414 1.523 1.281 1.527-.137.004-2.46.32-5.164.71-3.183.454-4.922.642-4.922.528m0 0"/>
    <path fill="#f9f9f9" d="M13.066 123.328c0-.133 2.754-17.039 6.125-37.566 3.368-20.524 6.614-40.313 7.207-43.969.598-3.656 1.172-6.734 1.278-6.832.406-.39 32.066-21.781 32.344-21.856.19-.046 5.867 3.707 16.48 10.907 15.297 10.379 16.195 11.015 16.305 11.55.066.31 3.254 19.668 7.082 43.016 3.832 23.348 7.062 43.024 7.183 43.723l.22 1.273H60.175c-41.656 0-47.11-.027-47.11-.246m31.59-4.863c2.684-.375 4.91-.711 4.953-.746.04-.04-.613-.75-1.449-1.582l-1.52-1.516 5.626-5.582 5.62-5.582v7.473h4.466v-7.473l5.664 5.621 5.66 5.625-1.524 1.52-1.527 1.523 5.398.777c2.973.43 5.418.762 5.438.739.05-.059-1.457-10.535-1.527-10.625-.036-.04-.73.59-1.547 1.394l-1.485 1.469-5.664-5.621-5.66-5.625h7.524V95.82h-7.524L76.82 84.656l1.532 1.516c.84.832 1.539 1.476 1.55 1.433.008-.043.368-2.46.797-5.375.696-4.742.746-5.293.5-5.293-.273 0-8.984 1.215-10.066 1.403l-.563.097 1.551 1.551 1.555 1.547-5.66 5.625-5.664 5.621v-7.633h-4.465v7.47l-5.621-5.583-5.625-5.578 1.507-1.504c1.504-1.5 1.508-1.504 1.036-1.598-1.536-.308-10.188-1.437-10.282-1.343-.101.097 1.18 9.562 1.399 10.332.074.25.363.039 1.601-1.192l1.516-1.496L54.66 95.82h-7.523v4.434h7.687l-5.66 5.625L43.5 111.5l-1.488-1.469c-.903-.894-1.543-1.41-1.63-1.312-.136.152-1.515 9.453-1.515 10.226 0 .332.063.371.453.293.25-.05 2.653-.398 5.336-.773m32.051-46.328c3.18-1.157 3.902-3.422 4.746-14.907.133-1.851.246-3.68.246-4.066l.004-.695H64.172v-2.957h12.402v-4.434H64.172v-2.793h12.402v-4.762H64.172V34.73h14.055v-4.925h-33.57v27.754h31.011l-.05.78a99 99 0 0 1-.302 3.075c-.406 3.711-.832 5.29-1.515 5.645-.508.261-2.063.347-3.84.214-.957-.074-1.758-.12-1.781-.105-.024.016.132.43.347.914.504 1.133.887 2.457 1.032 3.574l.117.88 3.16-.071c2.32-.05 3.348-.137 3.871-.328m-32.5-1.04c1.52-1.82 2.8-4.574 3.66-7.874.38-1.446.77-3.243.719-3.29-.117-.101-4.961-1.41-5.016-1.355-.035.035-.18.617-.324 1.29-.668 3.171-2.168 6.46-3.828 8.41-.473.558-.824 1.05-.777 1.097.254.254 4.308 2.781 4.472 2.79.106.003.598-.478 1.094-1.067m10.113-.812c1.27-.226 2.34-.41 2.383-.41.137 0-.125-2.848-.39-4.27-.145-.77-.489-2.34-.766-3.492-.43-1.781-.55-2.093-.82-2.093-.336 0-4.489.644-4.551.707-.02.02.14.808.355 1.757.504 2.227 1.067 6.059 1.07 7.266 0 .648.067.945.208.945.113 0 1.242-.187 2.511-.41m8.942-1.398a175 175 0 0 0 2.18-.563c.074-.035-.497-2.453-.876-3.703-.476-1.574-1.691-4.77-1.894-4.992-.117-.129-4.457.828-4.457.984 0 .035.406 1.266.902 2.735.496 1.465 1.067 3.465 1.27 4.437.222 1.059.441 1.746.547 1.711a94 94 0 0 1 2.328-.61m7.855-2.93c2.414-.914 2.348-.766 1.328-2.926-.675-1.433-2.414-4.426-2.656-4.574-.187-.113-4.129 1.238-4.129 1.418 0 .078.223.504.496.945.653 1.051 2.028 3.973 2.387 5.07.156.477.336.86.394.856.063-.004 1.043-.36 2.18-.789m0 0"/>
    <path fill="#f9f9f9" d="M50.277 36.129V34.73h8.27v2.793h-8.27Zm0 7.555v-1.399h8.27v2.793h-8.27Zm0 7.304v-1.476h8.27v2.957h-8.27Zm0 0"/>
</svg>
