<svg xmlns="http://www.w3.org/2000/svg" width="120" height="120" viewBox="0 0 120 136">
    <path fill="none" stroke="red" stroke-width=".004" d="m43 30 4.152 2.768 2 1.333L52 36l.2 1.197 1.992 11.955 1.475 8.85L56 60H30l1.808-10.848.96-5.76 1.032-6.195L34 36l1.775-1.183 3.073-2.049 2.672-1.782L43 30m2.475 18.818.334.334.373.373-1.975 1.975H46v1h-2.5V55h-1v-2.5H40v-1h1.793l-1.975-1.975.373-.373.334-.334.334.334 1.64 1.641V49H43.5v1.793l1.641-1.641.334-.334M48 40.643l-.124.26-.027.057-.4.841-.005.01-.473-.305-.501-.31-.087-.053-.306-.183-.354-.212-.667-.39-.025-.014-.682-.389-.63-.35v1.945h-1.322v-2.506l-.485.58-.537.543-.415.357-.168.144-.402.292-.218.158-.65.394-.592.29-.017.009-.063.031-.021-.031-.09-.136-.135-.184-.15-.191-.156-.186-.141-.154-.014-.015-.143-.14.3-.128.318-.133.603-.313.578-.362.543-.403.498-.439.12-.126.324-.34H38.3v-1.177h4.096V36h1.322v1.384h4.157v1.176l-2.82.01-1.312.005h-.025l.613.274.724.337.066.031.865.412.836.407.705.355.348.186.124.066m-2.852 5.28v-.3h-4.173V46h-1.26v-4.19h6.755v4.112h-1.322m-9.766-8.695L34 45.708l-.56 3.444-.384 2.348-.162 1-.897 5.502h22.006l-.897-5.502-.162-1-.383-2.348L52 45.709l-1.382-8.48v-.032h-.007l-1.46-.997L48 35.413l-3.871-2.645-1.129-.77-1.129.77L38 35.413l-2.61 1.784h-.008v.031m9.766 5.75h-4.173v1.477h4.173Zm0 0" transform="matrix(4.29492 0 0 4.26451 -124.553 -123.67)"/>
    <path fill="red" d="M4.46 131.988c0-.066 3.849-23.058 8.552-51.09l8.55-50.968L60.118 4.406l19.16 12.684c10.54 6.976 19.227 12.746 19.305 12.824.125.125 17.191 101.332 17.191 101.953 0 .219-6.195.246-55.656.246-30.61 0-55.652-.054-55.656-.125m102.974-8.703c-.055-.246-3.34-20.219-7.301-44.379-4.024-24.535-7.293-44.008-7.403-44.11-.19-.179-31.613-21.491-32.296-21.905-.317-.192-1.704.71-16.746 10.918-9.02 6.117-16.399 11.195-16.399 11.285 0 .207-14.36 87.789-14.473 88.273l-.086.371h94.797Zm0 0"/>
    <path fill="red" d="M41.41 53.32a32 32 0 0 0-1.754-2.105l-.797-.84 1.45-.617c2.832-1.2 5.824-2.988 8.394-5.02 1.399-1.097 4.055-3.683 4.055-3.937 0-.098-2.469-.156-6.367-.156h-6.368v-4.762h17.532v-5.914h5.625v5.914h17.86v4.762l-5.5.023a454 454 0 0 0-8.942.121l-3.446.102 2.868 1.297c4.25 1.921 15.117 7.246 15.257 7.472.102.164-1.691 4.23-2.05 4.656-.059.067-.848-.343-1.75-.914-2.407-1.52-7.766-4.675-11.211-6.605l-3.004-1.68-.047 4.168-.043 4.168h-5.617l-.004-5.379-.008-5.379-.684.82c-1.367 1.65-5.382 5.477-6.93 6.614-1.882 1.387-4.288 2.91-5.742 3.637-1.894.949-1.699.98-2.777-.446m4.735 10.23v-8.784h28.777v17.242h-5.457v-1.149H51.27v1.477h-5.125Zm23.32-.82v-3.203H51.27v6.407h18.195ZM58.05 105.426v-5.336H47.3v-4.106h7.856l-8.515-8.46 1.445-1.434 1.445-1.438 4.262 4.23 4.258 4.227v-7.796h4.136v7.796l4.258-4.226 4.262-4.23 1.445 1.437 1.446 1.433-8.516 8.461h7.856v4.106h-10.75v10.676H58.05Zm0 0"/>
    <path fill="#f9f9f9" d="M13.066 123.328c0-.527 14.391-88.035 14.512-88.226.18-.297 32.3-22.047 32.555-22.047.117 0 7.492 4.937 16.387 10.968 15.28 10.368 16.175 11.004 16.285 11.54.066.308 3.254 19.667 7.082 43.015 3.832 23.348 7.062 43.024 7.183 43.723l.22 1.273H60.175c-41.79 0-47.11-.027-47.11-.246m49.286-17.738v-5.336h10.75V95.82h-7.524l8.352-8.297-1.575-1.554-1.57-1.559-4.219 4.188-4.214 4.183v-7.633h-4.465v7.47l-4.094-4.063c-2.254-2.239-4.168-4.067-4.258-4.067s-.851.684-1.695 1.52l-1.535 1.515 4.175 4.149 4.18 4.148h-7.523v4.434h10.75v10.676h4.465Zm-10.75-33.828v-.739h17.695v1.149h5.789v-17.57h-29.11V72.5h5.626Zm-7.41-17.832c3.706-1.848 6.57-3.918 9.742-7.043 1.238-1.223 2.52-2.551 2.851-2.957l.598-.742.008 10.43h5.945l.047-4.087.043-4.086 1.324.739c3.535 1.972 9.266 5.316 11.754 6.863 1.523.945 2.781 1.703 2.793 1.68s.566-1.18 1.226-2.57c.954-1.997 1.16-2.56.985-2.677-.434-.3-11.856-5.855-14.649-7.128l-2.847-1.297 4.008-.102c2.203-.055 6.07-.11 8.597-.121l4.59-.023v-5.09H63.344v-5.914H57.39v5.914H39.859v5.086l6.325.043 6.328.043-1.52 1.504c-3.02 2.992-7.203 5.738-11.215 7.367-.636.258-1.187.488-1.222.515-.035.024.441.582 1.054 1.239.614.66 1.45 1.66 1.856 2.222.406.567.808 1.028.89 1.028.086 0 .91-.375 1.836-.836m0 0"/>
    <path fill="#f9f9f9" d="M51.602 62.73v-3.039h17.695v6.079H51.602Zm0 0"/>
</svg>
