<svg xmlns="http://www.w3.org/2000/svg" width="120" height="120" viewBox="0 0 120 136">
    <path fill="none" stroke="red" stroke-width=".004" d="m13 30 4.152 2.768L22 36l.2 1.197 1.992 11.955 1.475 8.85L26 60H0l1.808-10.848L3.8 37.197 4 36l1.775-1.183 3.073-2.049 2.672-1.782L13 30m4.713 10.952H8.28v-1.258h3.995V38.62H9.116v-1.242h3.158V36h1.404v1.377h3.174v1.242h-3.174v1.075h4.035v1.258M18 46H8v-1.29h4.274v-1.314H8.853v-1.242h3.421v-.955h1.404v.955h3.405v1.242h-3.405v1.314H18V46m-2.525 2.818.334.334.373.373-1.975 1.975H16v1h-2.5V55h-1v-2.5H10v-1h1.793l-1.975-1.975.373-.373.334-.334.334.334 1.64 1.641V49H13.5v1.793l1.641-1.641.334-.334M5.382 37.228 4 45.708l-.56 3.444-.384 2.348-.162 1-.897 5.502h22.006l-.897-5.502-.162-1-.383-2.348L22 45.709l-1.382-8.48v-.032h-.007L18 35.413l-1.616-1.104-2.255-1.54L13 31.996l-1.129.771L8 35.413l-2.61 1.784h-.008Zm0 0" transform="matrix(4.29492 0 0 4.26451 4.295 -123.67)"/>
    <path fill="red" d="M4.46 131.988c0-.066 3.849-23.058 8.552-51.09l8.55-50.968L60.118 4.406l19.16 12.684c10.54 6.976 19.227 12.746 19.305 12.824.125.125 17.191 101.332 17.191 101.953 0 .219-6.195.246-55.656.246-30.61 0-55.652-.054-55.656-.125m102.974-8.703c-.055-.246-3.34-20.219-7.301-44.379-4.031-24.57-7.293-44.008-7.403-44.113-.19-.176-31.601-21.48-32.296-21.902-.317-.192-1.704.71-16.746 10.918-9.02 6.117-16.399 11.195-16.399 11.285 0 .207-14.36 87.789-14.473 88.273l-.086.371h94.797Zm0 0"/>
    <path fill="red" d="M40.023 48.281v-2.547H57.06v-4.761H43.496v-5.09H57.06v-5.914h5.953v5.914h13.562v5.09H63.012v4.761h17.203v5.09H40.023ZM38.7 69.71v-2.628h18.359v-5.746h-14.72v-5.09h14.72v-4.105h5.953v4.105h14.554v5.09H63.012v5.746h18.523v5.254H38.7Zm19.35 35.716v-5.336H47.3v-4.106h7.856l-8.515-8.46 1.445-1.434 1.445-1.438 4.262 4.23 4.258 4.227v-7.796h4.136v7.796l4.258-4.226 4.262-4.23 1.445 1.437 1.446 1.433-8.516 8.461h7.856v4.106h-10.75v10.676H58.05Zm0 0"/>
    <path fill="#f9f9f9" d="M13.066 123.328c0-.527 14.391-88.035 14.512-88.226.18-.293 32.3-22.047 32.555-22.047.117 0 7.488 4.937 16.383 10.972 15.28 10.364 16.18 11 16.289 11.535.066.31 3.254 19.668 7.082 43.016 3.832 23.348 7.062 43.024 7.183 43.723l.22 1.273H60.175c-41.79 0-47.11-.027-47.11-.246m49.286-17.738v-5.336h10.75V95.82h-7.524l8.352-8.297-1.575-1.554-1.57-1.559-4.219 4.188-4.214 4.183v-7.633h-4.465v7.47l-4.094-4.063c-2.254-2.239-4.168-4.067-4.258-4.067s-.851.684-1.695 1.52l-1.535 1.515 4.175 4.149 4.18 4.148h-7.523v4.434h10.75v10.676h4.465Zm19.351-35.88v-2.792H63.18V61.5h14.55v-5.418H63.18v-4.105h-6.285v4.105h-14.72V61.5h14.72v5.418h-18.36V72.5h43.168ZM80.38 48.282v-2.71h-17.2v-4.434h13.56V35.72H63.18v-5.914h-6.284v5.914H43.332v5.418h13.563v4.433H39.69v5.418h40.69Zm0 0"/>
</svg>
