<svg xmlns="http://www.w3.org/2000/svg" width="120" height="120" viewBox="0 0 120 136">
    <path fill="none" stroke="red" stroke-width=".004" d="m73 30 4.152 2.768L82 36l.2 1.197 1.992 11.955 1.475 8.85L86 60H60l1.808-10.848L63.8 37.197 64 36l1.536-1.024 3.312-2.208 2.672-1.782L73 30m2.475 18.818.334.334.373.373-1.975 1.975H76v1h-2.5V55h-1v-2.5H70v-1h1.793l-1.975-1.975.373-.373.334-.334.334.334 1.64 1.641V49H73.5v1.793l1.641-1.641.334-.334m-1.74-10.317.43-.23.381-.204.318-.173.216-.129.201-.122.187-.118.175-.117.164-.118.118-.093.037-.03.004.008.014.022.804 1.355-.18.107-.187.107-.192.106-.075.04-.124.066-.206.107-.212.107-.429.21-.521.257-.58.292-.35.184-.259.135-.605.34-.569.347-.004.003-.464.325-.404.336-.331.35-.248.363-.155.382-.04.292-.014.111.07.395.206.327.344.257.48.186.62.112.753.038.62-.015.022-.001.678-.044.691-.068.676-.088.636-.103.569-.113-.017 1.704-.527.082-.57.07-.614.06-.658.044-.704.028-.182.003-.568.007-1.131-.058-1-.188-.838-.338-.452-.36-.107-.085-.08-.063-.408-.698-.144-.909.067-.633.191-.581.3-.534.074-.093.321-.402.101-.098.375-.364.543-.435-.047-.09-.013-.025-.218-.415-.28-.563-.074-.156-.206-.434-.28-.61-.222-.5-.055-.123-.021-.048-.145-.333-.108-.25 1.488-.607.017-.007.235.614.103.25.14.333.003.01.253.567.254.54.253.51.046.088.197.377.003.007.491-.278.193-.106.292-.16.457-.247.007-.004M77 34.73l-2.871-1.962-1.129-.77-1.129.77L69 34.73l-1 .683-2.464 1.683-.147.101h-.007v.031L64 45.708l-.56 3.444-.384 2.348-.162 1-.897 5.502h22.006l-.897-5.502-.162-1-.383-2.348L82 45.709l-1.382-8.48v-.032h-.007L78 35.413Zm0 0" transform="matrix(4.29492 0 0 4.26451 -253.4 -123.67)"/>
    <path fill="red" d="M4.46 131.988c0-.066 3.849-23.058 8.552-51.09l8.55-50.968L60.118 4.406l19.16 12.684c10.54 6.976 19.227 12.746 19.305 12.824.125.125 17.191 101.332 17.191 101.953 0 .219-6.195.246-55.656.246-30.61 0-55.652-.054-55.656-.125m102.974-8.703c-.055-.246-3.34-20.219-7.301-44.379-4.031-24.57-7.293-44.008-7.403-44.113-.19-.176-31.601-21.48-32.296-21.902-.317-.192-1.704.71-16.746 10.918-9.02 6.117-16.399 11.195-16.399 11.285 0 .207-14.36 87.789-14.473 88.273l-.086.371h94.797Zm0 0"/>
    <path fill="red" d="M56.645 72.184c-4.114-.383-7.536-1.536-9.852-3.317-1.145-.875-1.465-1.242-2.23-2.531-.829-1.398-.918-1.652-1.215-3.469-.262-1.601-.293-2.199-.164-3.265.293-2.414 1.343-4.852 2.964-6.887.907-1.14 3.364-3.516 4.497-4.352.43-.316.78-.64.785-.722.004-.078-.844-1.852-1.883-3.938-1.809-3.64-5.059-10.754-5.059-11.074 0-.133 5.578-2.473 6.04-2.535.09-.012.374.527.632 1.199 1.496 3.887 5.613 12.637 5.95 12.637.085 0 1.28-.621 2.656-1.38a604 604 0 0 1 5.812-3.136c1.817-.965 4.195-2.34 5.277-3.055 1.086-.71 1.993-1.277 2.016-1.254.024.024.793 1.297 1.707 2.829l1.664 2.78-.949.544c-.523.3-3.668 1.906-6.988 3.57-6.438 3.227-9.27 4.777-11.66 6.371-3.067 2.051-5.004 3.992-6 6.012-.586 1.195-.614 1.32-.606 2.89.008 1.555.035 1.688.531 2.473 1.965 3.117 7.871 3.989 18.727 2.77 1.953-.223 5.781-.813 7.414-1.149l.55-.113-.054 3.457c-.031 1.902-.094 3.5-.144 3.547-.141.14-2.954.559-5.7.848-2.754.289-12.52.457-14.718.25m1.405 33.242v-5.336H47.3v-4.106h7.856l-8.515-8.46 1.445-1.434 1.445-1.438 4.262 4.23 4.258 4.227v-7.796h4.136v7.796l4.258-4.226 4.262-4.23 1.445 1.437 1.446 1.433-8.516 8.461h7.856v4.106h-10.75v10.676H58.05Zm0 0"/>
    <path fill="#f9f9f9" d="M13.066 123.328c0-.133 2.754-17.039 6.125-37.566 3.368-20.524 6.614-40.313 7.207-43.969.598-3.656 1.172-6.734 1.278-6.832.406-.39 32.066-21.781 32.344-21.856.19-.046 5.867 3.707 16.48 10.907 15.297 10.379 16.195 11.015 16.305 11.55.066.31 3.254 19.668 7.082 43.016 3.832 23.348 7.062 43.024 7.183 43.723l.22 1.273H60.175c-41.656 0-47.11-.027-47.11-.246m49.286-17.738v-5.336h10.75V95.82h-7.524l8.352-8.297-1.575-1.554-1.57-1.559-4.219 4.188-4.214 4.183v-7.633h-4.465v7.47l-4.094-4.063c-2.254-2.239-4.168-4.067-4.258-4.067s-.851.684-1.695 1.52l-1.535 1.515 4.175 4.149 4.18 4.148h-7.523v4.434h10.75v10.676h4.465Zm9.097-33.485a140 140 0 0 0 4.176-.527l1.777-.266v-7.394l-.62.094c-.34.05-1.7.277-3.02.504-3.117.535-6.172.875-9.758 1.09-7.34.437-11.59-.586-13.274-3.188-.503-.781-.535-.914-.527-2.313.008-1.238.082-1.632.445-2.417 1.778-3.852 5.633-6.649 16.688-12.122 6.785-3.355 9.102-4.625 9.02-4.93-.036-.14-.825-1.527-1.754-3.081-1.102-1.848-1.754-2.79-1.883-2.715a10 10 0 0 0-.774.555c-1.164.886-3.496 2.242-8.187 4.761a630 630 0 0 0-5.719 3.09l-.922.516-1.84-3.735c-1.668-3.382-3.64-7.855-4.16-9.441-.11-.336-.273-.656-.36-.707-.148-.09-6.21 2.285-6.48 2.543-.168.156 3.035 7.3 5.262 11.742.95 1.89 1.707 3.445 1.688 3.457-.262.125-2.11 1.695-2.989 2.535-3.207 3.063-4.812 5.938-5.23 9.375-.145 1.18-.121 1.711.16 3.418.312 1.89.39 2.121 1.23 3.531 1.207 2.024 2.754 3.262 5.387 4.313 1.8.719 4.992 1.453 6.942 1.602 2.195.164 12.41-.04 14.722-.29m0 0"/>
</svg>
