<svg xmlns="http://www.w3.org/2000/svg" width="120" height="120" viewBox="0 0 120 136">
    <path fill="none" stroke="red" stroke-width=".004" d="m-77 30 4.152 2.768L-68 36l.2 1.197 1.992 11.955 1.475 8.85L-64 60h-26l1.808-10.848 1.992-11.955L-86 36l1.775-1.183 2.305-1.537.768-.512 2.672-1.782L-77 30m-2.475 18.818.182.182.152.152 1.64 1.641V49h-.999l1-1.333.5-.667.5.667 1 1.333h-1v1.793l1.641-1.641.152-.152.182-.182.182.182.152.152.19.191.183.182-.182.182-1.793 1.793H-74v-1l1.333 1 .667.5-2 1.5v-1h-1.793L-74 54.293l.182.182-.182.182-.343.343-.182.182-.182-.182-1.793-1.793V55h1l-1 1.333-.5.667-.5-.667-1-1.333h1v-1.793L-79.293 55l-.182.182-.182-.182-.343-.343-.182-.182.182-.182 1.793-1.793H-80v1l-2-1.5.666-.5 1.334-1v1h1.793L-80 49.707l-.182-.182.182-.182.19-.191.153-.152.182-.182m6.837-7.978h-2.74v.419h2.747v.723h-2.746v.44h2.692v.717h-2.692v.433h2.8v.731l.1.037.103.034.1.031.097.028.092.024.085.021-.079.473-.037.105-.09.257-.19.26-.26.173-.34.095-.435.03h-1.615l-.537-.028-.411-.094-.297-.173-.197-.269-.072-.25-.037-.129-.034-.503v-4.521h2.769v-.586h-2.769v-3.242h1.254v.708h3.154v1.012h-3.154v.594h2.739v2.45m-5.077-2.71-.109.24-.246.542-.03.064h1.046v1.042H-82v-1.042h.992l-.015-.064-.019-.082-.04-.148-.044-.148-.046-.145-.046-.14-.044-.133.908-.213h-1.477V36.86h1.777l-.03-.1-.03-.101-.027-.083-.006-.018-.034-.098-.033-.096-.032-.09.374-.09.764-.184.06.137.06.143.055.147.052.147.047.146.042.14h1.6v1.043h-1.562l.93.204.11.024m.283 2.329v4.23l-.008.242-.018.124-.011.083-.053.176-.083.148-.117.124-.103.067-.053.034-.179.082-.2.058-.223.038-.244.022-.265.01-.188.002h-.101l-.037-.179-.054-.192-.068-.196-.075-.191-.038-.086-.041-.093-.044-.087-.014-.031-.012-.022-.003-.007-.004-.007-.002-.004.17.01.17.006.158.002h.14l.11-.004.073-.006h.002l.055-.003.043-.01.033-.017.022-.027.012-.037.004-.051v-.86l-.261.147-.14.077-.118.066-.255.139-.25.137-.171.092-.074.04-.24.132-.206-.574-.012-.032-.073-.201-.022.201-.02.187-.064.386-.083.376-.022.075-.086.287-.133.34-.098.191-.03.059-.016.031-.008.017-.006.012-.004.007-.118-.098-.153-.114-.172-.118-.177-.113-.167-.096-.064-.03-.08-.04.08-.165.082-.17.048-.1.144-.47.085-.454.007-.036.051-.496.022-.483v-.009l.004-.448v-2.1h4.046m-2.518-1.643.02.095.014.064h.738l.021-.064.038-.113.06-.183.059-.185.054-.184.047-.178.036-.166h-1.384l.07.177.065.187.062.189.055.186.045.175m.78 4.07-.165-.087-.194-.099-.216-.106-.128-.06-.1-.047-.23-.105-.21-.092-.007-.003-.003-.002h-.001v.297l-.001.156-.002.164-.003.105v.066l-.007.175-.008.18-.01.181h.002l.247-.083.273-.096.06-.022.234-.085.31-.115.322-.121.21-.08.119-.045v-.692l-.48.6-.01.014-.002.002m-.777-1.194.074.027.137.052.227.09.23.096.224.098.204.096.173.088v-.875h-1.746v.891l.477-.563m-4.672-4.465L-86 45.708l-.56 3.444-.384 2.348-.162 1-.408 2.5-.49 3.002h22.007l-.49-3.002-.407-2.5-.162-1-.383-2.348-.561-3.443-1.382-8.48v-.032h-.007L-72 35.413l-3.871-2.645-1.129-.77-1.129.77-3.791 2.59-.08.055-2.61 1.784h-.008v.031m9.74 7.646h1.34l.133-.01.104-.037.078-.067.058-.106.042-.15.031-.2h-2.285v.121l.008.168.028.12.055.082.091.049.134.023Zm0 0" transform="matrix(4.29492 0 0 4.26451 390.838 -123.67)"/>
    <path fill="red" d="M4.46 131.988c0-.066 3.849-23.058 8.552-51.09l8.55-50.968L60.118 4.406l19.16 12.684c10.54 6.976 19.227 12.746 19.305 12.824.125.125 17.191 101.332 17.191 101.953 0 .219-6.195.246-55.656.246-30.61 0-55.652-.054-55.656-.125m102.974-8.703c-.055-.246-3.34-20.219-7.301-44.379-4.035-24.597-7.29-44.008-7.403-44.11-.19-.179-31.613-21.491-32.296-21.905-.317-.192-1.704.71-16.746 10.918-9.02 6.117-16.399 11.195-16.399 11.285 0 .207-14.36 87.789-14.473 88.273l-.086.371h94.797Zm0 0"/>
    <path fill="red" d="M38.7 44.75v-2.137h2.152c1.183 0 2.148-.062 2.148-.14s-.227-.903-.504-1.828c-.277-.926-.48-1.696-.453-1.715a44 44 0 0 1 1.785-.418c.953-.215 1.809-.45 1.895-.524s-1.274-.136-3.02-.136h-3.176v-4.27h3.805c2.09 0 3.805-.023 3.805-.055 0-.027-.184-.586-.407-1.238-.292-.855-.351-1.203-.207-1.246.309-.09 4.399-1.074 4.473-1.074.082 0 1.047 2.558 1.191 3.16l.11.453h6.91v4.27h-3.34c-1.836 0-3.27.062-3.183.14.086.074.976.309 1.976.516 1 .21 1.91.426 2.02.48.136.07-.02.578-.54 1.711-.406.887-.734 1.68-.734 1.762 0 .086.969.152 2.23.152h2.235v4.27H38.7Zm12.609-3.492c.238-.742.52-1.688.62-2.094.106-.406.227-.867.27-1.023.078-.27-.14-.29-2.984-.29-1.692 0-3.07.044-3.07.09 0 .051.253.848.562 1.766.309.922.617 1.953.68 2.293l.117.613h3.367Zm-9.223 30.64c-.27-.218-1.106-.777-1.856-1.238s-1.363-.863-1.363-.898.176-.41.387-.836c.445-.883.976-2.617 1.246-4.059.36-1.926.512-5 .512-10.387l.004-5.46H58.23l-.046 9.898-.051 9.898-.422.817c-.758 1.46-2.324 2.12-5.477 2.316l-1.765.11-.18-.723c-.156-.621-.848-2.547-1.246-3.473-.113-.265.027-.289 1.672-.289.988-.004 1.906-.074 2.043-.16.195-.121.262-.605.304-2.215.036-1.422-.003-2.058-.128-2.058-.098 0-1.59.77-3.309 1.707l-3.129 1.707-.613-1.711c-.336-.942-.64-1.684-.68-1.645-.035.035-.176.828-.316 1.77-.41 2.781-1.23 5.578-2.004 6.84l-.301.492Zm6.504-10.632c1.61-.582 3.281-1.207 3.715-1.391l.785-.336v-6.906h-7.774l-.004 4.472c0 2.461-.046 4.641-.101 4.844-.074.278-.027.371.176.371.152 0 1.593-.476 3.203-1.054m0 0"/>
    <path fill="red" d="M48.21 57.836a385 385 0 0 1-2.546-1.211c-.094-.062.371-.691 1.18-1.59l.715-.8 1.855.757c1.633.664 3.14 1.348 3.324 1.512.075.066-1.847 2.52-1.965 2.512-.043-.004-1.199-.536-2.562-1.18M65.66 71.59c-2.101-.453-3.066-1.317-3.55-3.168-.215-.828-.255-2.555-.255-11.422V46.555h11.907V43.93H61.855V30.297h5.125v2.957h13.563v4.105H66.98v2.793h11.747v10.18H66.98v1.973h11.747v2.953H66.98v2.137h11.58v2.789H66.98v1.972h12.075v3.239l1.218.355 1.215.36-.148.855c-.508 2.898-1.473 4.125-3.649 4.633-1.433.336-10.46.328-12.03-.008m10.543-4.102c.328-.23.465-.566.774-1.925l.101-.45h-10.14l.093 1.024c.149 1.633.063 1.601 4.813 1.601 3.328 0 4.054-.043 4.36-.25m-19.197 47.586-3.07-4.062 2.058-.047 2.055-.047v-3.852c0-2.12-.055-3.855-.121-3.855-.07 0-2.004 1.863-4.301 4.144l-4.18 4.145-1.445-1.434-1.445-1.437 4.296-4.27 4.301-4.27h-8.011l-.047 2.067-.043 2.063-4.106-3.059-4.11-3.062 4.063-3.028c2.235-1.664 4.102-3.027 4.149-3.027s.086.887.086 1.973v1.968h8.02l-8.516-8.46 1.445-1.434 1.445-1.438 4.262 4.23 4.258 4.227v-7.96h-4.137l3.059-4.024c1.687-2.215 3.105-4.031 3.16-4.035.05-.004 1.465 1.805 3.14 4.023l3.051 4.035h-4.136v7.961l4.257-4.226 4.262-4.23 1.445 1.437 1.446 1.433-8.516 8.461h8.02v-4.109l4.011 2.98a670 670 0 0 1 4.153 3.106c.078.07-1.707 1.508-3.97 3.191l-4.112 3.067-.047-2.063-.047-2.066h-8.008l4.297 4.27 4.3 4.269-1.449 1.437-1.445 1.434-4.176-4.145c-2.296-2.28-4.234-4.144-4.3-4.144-.067 0-.121 1.734-.121 3.855v3.852l4.156.094-3.074 4.062c-1.688 2.235-3.098 4.067-3.133 4.067s-1.442-1.832-3.13-4.067m0 0"/>
    <path fill="#f9f9f9" d="M13.066 123.328c0-.133 2.754-17.039 6.125-37.566 3.368-20.524 6.614-40.313 7.207-43.969.598-3.656 1.172-6.734 1.278-6.832.406-.39 32.066-21.781 32.344-21.856.19-.046 5.867 3.707 16.48 10.907 15.297 10.379 16.195 11.015 16.305 11.55.066.31 3.254 19.668 7.082 43.016 3.832 23.348 7.062 43.024 7.183 43.723l.22 1.273H60.175c-41.656 0-47.11-.027-47.11-.246m50.36-8.125c1.773-2.348 3.226-4.305 3.226-4.351s-.968-.086-2.152-.086h-2.148v-7.305l4.218 4.184 4.215 4.183 1.613-1.598 1.61-1.601-8.43-8.375h7.36v2.137c0 1.171.046 2.132.105 2.132.195 0 8.644-6.316 8.61-6.437-.02-.063-1.97-1.555-4.333-3.313l-4.3-3.203-.094 4.25h-7.348l8.352-8.297-1.575-1.554-1.57-1.559-4.219 4.188-4.214 4.183v-7.46l2.16-.048 2.16-.043-3.258-4.316c-1.793-2.375-3.285-4.289-3.32-4.254a573 573 0 0 0-3.274 4.313l-3.215 4.257 2.141.043 2.14.047v7.297l-4.093-4.062c-2.254-2.239-4.168-4.067-4.258-4.067s-.851.684-1.695 1.52l-1.535 1.515 4.175 4.149 4.18 4.148h-7.347l-.094-4.25-4.285 3.192a550 550 0 0 0-4.356 3.261c-.07.07 8.473 6.5 8.637 6.5.047 0 .086-.96.086-2.132v-2.137h7.523l-4.258 4.23-4.261 4.23 1.574 1.56 1.574 1.554 4.215-4.183 4.219-4.184v7.305h-2.153c-1.18 0-2.148.039-2.148.086 0 .12 6.437 8.617 6.531 8.617.043 0 1.531-1.922 3.309-4.266M43.375 71.23c.715-1.55 1.355-3.863 1.656-5.953l.223-1.562.555 1.527c.437 1.215.605 1.508.816 1.43.145-.055 1.543-.797 3.105-1.652 1.567-.852 2.887-1.551 2.938-1.551.05 0 .09.847.09 1.886 0 2.235.14 2.122-2.473 2.032-.914-.032-1.66-.012-1.66.043s.21.574.473 1.148c.468 1.04.886 2.246 1.093 3.168l.106.477 1.77-.098c4.038-.219 5.644-1.102 6.128-3.367.125-.59.188-3.95.188-10.387v-9.516H40.852l-.004 5.38c-.008 8.687-.403 11.835-1.86 14.73-.27.539-.425 1-.34 1.027.375.125 2.239 1.293 2.97 1.86.44.343.886.628.987.636.102.008.45-.558.77-1.258m34.227.598c1.75-.36 2.976-1.422 3.488-3.02.2-.624.613-2.515.613-2.808 0-.023-.558-.203-1.242-.406l-1.238-.367v-3.235H67.148v-1.64h11.579V57.23H67.148v-1.808h11.907V52.14H67.148v-1.645h11.743V39.988H67.148v-2.465h13.563V33.09H67.148v-2.957h-5.457v13.96h11.907v2.298H61.69v10.62c0 9.41.032 10.739.274 11.622.496 1.797 1.515 2.683 3.594 3.133 1.296.277 10.75.328 12.043.062M60.035 44.75v-2.3h-4.46l.429-.946c.86-1.89 1.101-2.512 1.008-2.606-.055-.05-.864-.265-1.801-.472l-1.707-.38 2.934-.015 2.937-.015v-4.598H52.48l-.207-.7c-.476-1.59-1.082-2.913-1.328-2.91-.343.005-4.64 1.094-4.75 1.204-.047.05.07.55.262 1.117.191.562.348 1.086.348 1.156 0 .074-1.676.133-3.723.133h-3.719v4.598l2.77.015 2.77.012-1.571.383c-.863.21-1.586.39-1.605.398-.02.008.078.328.214.711.137.383.391 1.195.563 1.805l.309 1.11h-4.278v4.597h21.5Zm0 0"/>
    <path fill="#f9f9f9" d="M47.55 41.836c-.062-.34-.359-1.34-.66-2.219l-.546-1.601h2.793c2.55 0 2.797.027 2.797.289 0 .156-.274 1.156-.61 2.215l-.605 1.93h-3.051Zm-2.07 12.719v-1.758h7.278v3.402l-2.438-1.043c-1.343-.574-2.562-1.047-2.71-1.047-.15 0-.626.426-1.063.946-.438.52-.856 1.011-.93 1.097s-.137-.632-.137-1.597m-.03 4.972c.027-1.539.112-2.625.206-2.625.09 0 1.305.543 2.7 1.207l2.542 1.211.887-1.129c.485-.617.903-1.125.93-1.125.023 0 .043.547.043 1.22v1.218l-.95.36c-1.406.53-5.695 2.074-6.078 2.19-.324.094-.332.032-.28-2.527m22.206 7.763c-.242-.2-.383-.556-.453-1.153l-.101-.86h9.636v.414c0 .614-.418 1.504-.8 1.707-.211.114-1.727.176-4.13.176-3.37 0-3.835-.031-4.152-.285m0 0"/>
</svg>
