<svg xmlns="http://www.w3.org/2000/svg" width="120" height="120" viewBox="0 0 120 136">
    <path fill="none" stroke="red" stroke-width=".004" d="m-17 30 4.152 2.768L-8 36l.2 1.197 1.992 11.955 1.475 8.85L-4 60h-26l1.808-10.848 1.992-11.955L-26 36l1.775-1.183 3.073-2.049 2.672-1.782L-17 30m2.475 18.818.334.334.373.373-1.975 1.975H-14v1h-2.5V55h-1v-2.5H-20v-1h1.793l-1.975-1.975.373-.373.334-.334.334.334 1.64 1.641V49h1.001v1.793l1.641-1.641.334-.334M-12 39.582l-.141.167-.147.193-.005.006-.154.219-.148.226-.134.222-.11.205-.224-.118-.223-.125-.22-.132-.22-.139-.217-.145-.215-.153v.935H-16.4v1.295h2.747v1.18H-16.4v1.377h3.88V46h-8.922v-1.205h3.744v-1.377h-2.717v-1.18h2.717v-1.295h-2.204v-.976l-.226.161-.224.153-.128.084-.095.062-.22.14-.219.13-.077.043-.06.036-.04.021-.024.014-.01.006-.005.003-.1-.174-.117-.189-.128-.195-.138-.192-.143-.18-.053-.06-.059-.063-.032-.037.59-.293.603-.355.327-.222.272-.185.261-.2.324-.248.557-.48.515-.501h-1.396V36h3.585l.514.714.135.15.298.333.19.21.716.654.788.594.42.257.422.257.591.278.278.13.01.005m-4.288-1.458-.096-.11-.287-.327-.263-.326-.043-.054-.031-.04-.018-.021-.367.442-.4.437-.428.429-.386.358-.063.058-.464.399-.474.377h5.095l-.475-.38-.455-.4-.057-.054-.377-.361-.41-.427m-8.331-.896L-26 45.708l-.56 3.444-.384 2.348-.162 1-.897 5.502h22.006l-.897-5.502-.162-1-.383-2.348L-8 45.709l-1.382-8.48v-.032h-.007L-12 35.413l-3.871-2.645-1.129-.77-1.129.77L-22 35.413l-2.61 1.784h-.008Zm0 0" transform="matrix(4.29492 0 0 4.26451 133.142 -123.67)"/>
    <path fill="red" d="M4.46 131.988c0-.066 3.849-23.058 8.552-51.09l8.55-50.968L60.118 4.406l19.16 12.684c10.54 6.976 19.227 12.746 19.305 12.824.125.125 17.191 101.332 17.191 101.953 0 .219-6.195.246-55.656.246-30.61 0-55.652-.054-55.656-.125m102.974-8.703c-.055-.246-3.34-20.219-7.301-44.379-4.031-24.57-7.293-44.008-7.403-44.113-.19-.176-31.601-21.48-32.296-21.902-.317-.192-1.704.71-16.746 10.918-9.02 6.117-16.399 11.195-16.399 11.285 0 .207-14.36 87.789-14.473 88.273l-.086.371h94.797Zm0 0"/>
    <path fill="red" d="M41.18 69.875V67.41h16.043v-6.074H45.48v-4.762h11.743v-5.75h-9.426v-2.05c0-1.13-.047-2.055-.106-2.055s-.859.504-1.777 1.12c-1.934 1.298-3.637 2.329-3.844 2.329-.078 0-.36-.383-.625-.852-.265-.464-.949-1.46-1.523-2.207l-1.043-1.355.945-.441c3.61-1.676 8.703-5.293 12.188-8.645l1.656-1.598-3.02-.004-3.015-.007v-5.09h15.191l1.04 1.437c3.69 5.114 9.734 10.09 15.593 12.832.996.465 1.836.871 1.867.903.031.03-.41.68-.984 1.433-.574.758-1.336 1.875-1.695 2.485-.356.609-.715 1.109-.797 1.109-.223 0-3.2-1.75-4.364-2.566-.562-.395-1.062-.72-1.117-.72-.05 0-.094.888-.094 1.973v1.97h-9.59v5.75h11.743v4.76H62.684v6.075h16.539v4.926H41.18Zm29.773-24.031c0-.032-.652-.563-1.45-1.184-1.784-1.387-7.241-6.797-8.476-8.402-.5-.653-.953-1.188-1.007-1.192-.055-.004-.461.457-.907 1.02-.441.566-1.996 2.215-3.457 3.664-2.254 2.246-3.394 3.254-6.535 5.8l-.414.337 11.121.008c6.117 0 11.125-.02 11.125-.051M58.05 105.426v-5.336H47.3v-4.106h7.856l-8.515-8.46 1.445-1.434 1.445-1.438 4.262 4.23 4.258 4.227v-7.796h4.136v7.796l4.258-4.226 4.262-4.23 1.445 1.437 1.446 1.433-8.516 8.461h7.856v4.106h-10.75v10.676H58.05Zm0 0"/>
    <path fill="#f9f9f9" d="M13.066 123.328c0-.527 14.391-88.035 14.512-88.226.18-.297 32.3-22.047 32.555-22.047.117 0 7.492 4.937 16.387 10.968 15.28 10.368 16.175 11.004 16.285 11.54.066.308 3.254 19.667 7.082 43.015 3.832 23.348 7.062 43.024 7.183 43.723l.22 1.273H60.175c-41.688 0-47.11-.027-47.11-.246m49.286-17.738v-5.336h10.75V95.82h-7.524l8.352-8.297-1.575-1.554-1.57-1.559-4.219 4.188-4.214 4.183v-7.633h-4.465v7.47l-4.094-4.063c-2.254-2.239-4.168-4.067-4.258-4.067s-.851.684-1.695 1.52l-1.535 1.515 4.175 4.149 4.18 4.148h-7.523v4.434h10.75v10.676h4.465Zm17.035-35.715v-2.629h-16.54V61.5H74.59v-5.09H62.848v-5.422h9.582l.047-1.89.046-1.887 1.32.879c.731.48 1.954 1.23 2.723 1.664 1.282.723 1.414.766 1.575.5.425-.723 2.773-4.164 3.168-4.64l.433-.536-1.96-.914c-5.977-2.785-11.907-7.625-15.637-12.758l-1.165-1.601H47.3v5.418h5.86l-.902.918c-3.035 3.078-7.754 6.507-12.02 8.73l-1.687.879.832 1.02c.457.558 1.21 1.628 1.672 2.37.46.747.875 1.356.922 1.356.16 0 2.957-1.707 4.203-2.566.703-.485 1.316-.883 1.363-.883.05 0 .09.887.09 1.973v1.968h9.426v5.422H45.316v5.09H57.06v5.746H41.016V72.5h38.37Zm0 0"/>
    <path fill="#f9f9f9" d="M49.7 45.36c2.273-1.669 7.073-6.2 9.175-8.657.578-.68 1.094-1.246 1.148-1.266.051-.019.504.497 1.004 1.149 1.184 1.535 6.16 6.5 7.856 7.836.73.57 1.394 1.101 1.48 1.176s-4.636.132-10.5.132l-10.66-.007Zm0 0"/>
</svg>
