<svg xmlns="http://www.w3.org/2000/svg" width="120" height="120" viewBox="0 0 120 136">
    <path fill="none" stroke="red" stroke-width=".004" d="m38.404-30.475-.236-1.65-.118-.825.825.118.448.064 1.202.172-.707.707L43-28.707l3.182-3.182-.707-.707 1.202-.172.448-.064.825-.118-.026.182-.092.643-.236 1.65-.707-.707L43.707-28l3.182 3.182.707-.707.236 1.65.118.825-.825-.118-1.65-.236.707-.707L43-27.293l-3.182 3.182.707.707-1.65.236-.825.118.118-.825.236-1.65.707.707L42.293-28l-3.182-3.182-.707.707M34-44l.042-.028 1.733-1.155 5.745-3.831h.001L43-50l6.746 4.497L52-44l.2 1.197.7 4.197.201 1.212.771 4.626 1.714 10.283.08.487.01.053L56-20H30l1.99-11.94.138-.828.167-1.005.604-3.62.202-1.213.7-4.197L34-44m16.61 1.197-1.139-.78L48-44.586l-5-3.416-5 3.416-2.61 1.784h-.008v.031l-.012.072-.891 5.472-.198 1.215L34-34.29l-.121.744-.127.779-.363 2.228-1.392 8.542h22.006l-.03-.19-.373-2.283-1.352-8.297L52-34.291l-.28-1.722-.199-1.215-.903-5.544v-.03h-.007m-3.332 8.558-.175.049-.117.033-.338.058-.387.038-.438.022-.491.01-.277.002h-.269l-.05-.188-.076-.21-.091-.219-.102-.216-.106-.202-.1-.169-.004-.008.415.018.383.01h.033l.392.004h.623l.185-.002.109-.008.086-.021.064-.034.043-.05.025-.07.008-.092v-.839h-5.822l-.173.437-.221.424-.271.406-.326.383-.384.355-.445.323-.07-.083-.047-.055-.157-.16-.18-.17-.188-.162-.17-.132-.011-.01-.16-.106.716-.571.197-.248.304-.384.324-.67.03-.113.156-.576.083-.686.004-.132.016-.528v-1.58l-.098.08-.1.075-.102.075-.103.074-.02.014-.084.058-.048.034-.028.02-.019.012-.011.008-.124-.156-.156-.17-.176-.175-.183-.164-.18-.142-.162-.109.187-.128.515-.352.622-.516.543-.539.368-.436.096-.114.387-.549.007-.012.303-.522 1.485.237-.037.065-.038.066-.078.132-.04.064-.042.062h2.307l.22-.046.016.01.93.547-.037.06-.098.151-.147.216-.157.221-.164.223-.17.223-.157.197-.017.022H48v6.084l-.015.313-.052.262-.09.216-.138.177-.186.142-.239.112m-6.03-7.433-.12.127h2.4l.093-.122.095-.129.094-.134.092-.137.088-.136.083-.136H41.8l-.105.135-.108.134-.11.134-.112.133-.116.13m-.152 4.097-.027.169h2.098v-1.008h-2.005l-.01.165-.01.168-.011.168-.015.169-.02.17m5.527.168v-1.008h-2.139v1.008h2.14m0-2.07v-.961h-2.14v.962h2.14m-5.454-.962v.962h1.997v-.962Zm0 0" transform="matrix(4.29492 0 0 4.26451 -124.553 217.49)"/>
    <path d="M4.46 131.988c0-.066 3.849-23.058 8.552-51.09l8.55-50.968L60.118 4.406l19.16 12.684c10.54 6.976 19.227 12.746 19.305 12.824.125.125 17.191 101.332 17.191 101.953 0 .219-6.195.246-55.656.246-30.61 0-55.652-.054-55.656-.125m102.974-8.703c-.055-.246-3.34-20.219-7.301-44.379-4.031-24.578-7.293-44.008-7.403-44.113-.19-.18-31.617-21.492-32.296-21.902-.317-.192-1.711.714-16.746 10.918-9.02 6.117-16.399 11.195-16.399 11.28 0 .208-14.363 87.802-14.473 88.278l-.086.371h94.797Zm0 0"/>
    <path d="M41.832 71.25c-.586-.59-1.496-1.395-2.02-1.79l-.957-.718 1.489-1.183c3.277-2.606 5.14-5.918 5.902-10.493.305-1.812.524-11.824.262-11.824a.35.35 0 0 0-.274.153c-.05.082-.578.492-1.172.914l-1.082.765-1.378-1.394c-.762-.766-1.688-1.594-2.059-1.84l-.68-.445.371-.282a41 41 0 0 1 1.446-.992c3.73-2.473 8.332-7.367 10.414-11.086.304-.539.57-1.008.593-1.039.06-.074 5.547.79 5.895.926.254.101.234.2-.21.902l-.497.79 11.21-.048 1.763 1.02c.968.562 1.797 1.078 1.84 1.148.085.133-1.907 3.028-3.153 4.586l-.726.914 6.367.043 6.37.043-.093 27.828-.394.864c-.973 2.144-2.922 2.875-8.438 3.164-1.601.086-3.324.156-3.828.156l-.922.004-.207-.809c-.117-.445-.594-1.57-1.066-2.504l-.856-1.695h4.766c4.531 0 4.781-.016 5.004-.316.175-.239.234-.864.234-2.422v-2.106H50.59l-.176.508c-.379 1.074-1.625 3.403-2.41 4.508-1.149 1.602-3.59 3.941-4.934 4.719-.097.054-.656-.38-1.238-.969m19.031-15.418v-2.215h-8.715l-.109 1.602c-.059.879-.156 1.879-.21 2.215l-.106.617h9.14Zm14.883 0v-2.215h-9.262v4.434h9.262Zm-14.883-8.785v-2.133h-8.601v4.27h8.601Zm14.883 0v-2.133h-9.262v4.27h9.262Zm-12.41-7.836c.445-.606.973-1.383 1.164-1.723l.352-.62-5.012.003-5.016.004-.578.766c-.316.422-.93 1.148-1.363 1.62-.434.47-.785.9-.785.954 0 .055 2.343.101 5.21.101h5.212Zm-24.305 79.695c0-.34 1.38-9.867 1.438-9.941.035-.04.71.57 1.504 1.355l1.445 1.426 13.805-13.71-6.82-6.774c-3.755-3.723-6.9-6.774-6.985-6.774-.09 0-.797.63-1.574 1.399L40.43 87.28l-.715-5.02c-.395-2.757-.684-5.05-.645-5.09.07-.07 9.438 1.2 9.875 1.345.164.05-.222.539-1.199 1.504l-1.437 1.43 6.902 6.859 6.906 6.855 6.903-6.855 6.906-6.852-1.438-1.434c-.965-.964-1.355-1.457-1.195-1.507.477-.157 9.805-1.414 9.887-1.332.043.043-.246 2.332-.649 5.09l-.722 5.007-1.414-1.394c-.778-.77-1.485-1.399-1.575-1.399s-3.234 3.051-6.984 6.778l-6.824 6.773 6.906 6.856 6.91 6.859 1.484-1.484 1.489-1.485.695 4.809c.383 2.644.7 4.96.703 5.148.008.336-.054.332-4.914-.363-2.707-.39-5.031-.711-5.164-.711-.137-.004.442-.691 1.281-1.527l1.524-1.52-6.82-6.773c-3.754-3.727-6.899-6.774-6.989-6.774s-3.23 3.047-6.984 6.774l-6.82 6.773 1.523 1.52c.84.836 1.414 1.523 1.281 1.527-.137.004-2.46.32-5.164.71-3.183.454-4.922.642-4.922.528m0 0"/>
    <path fill="#f9f9f9" d="M13.066 123.328c0-.527 14.391-88.035 14.512-88.226.184-.297 32.3-22.047 32.555-22.047.12 0 7.496 4.937 16.387 10.972 15.273 10.36 16.175 11 16.285 11.535.066.313 3.254 19.668 7.082 43.016 3.832 23.348 7.062 43.024 7.183 43.723l.22 1.273H60.175c-41.688 0-47.11-.027-47.11-.246m31.59-4.863c2.684-.375 4.91-.711 4.953-.746.04-.04-.613-.75-1.449-1.582l-1.52-1.516 6.743-6.691 6.738-6.692 6.777 6.735 6.778 6.73-1.524 1.52-1.527 1.523 5.398.777c2.973.43 5.418.762 5.438.739.05-.059-1.457-10.535-1.527-10.625-.036-.04-.73.59-1.547 1.394l-1.485 1.469-6.777-6.73-6.781-6.73L76.82 84.655l1.532 1.516c.84.832 1.539 1.476 1.55 1.433.008-.043.368-2.46.797-5.375.696-4.742.746-5.293.5-5.293-.273 0-8.984 1.215-10.066 1.403l-.563.097 1.551 1.551 1.555 1.547-6.739 6.692-6.734 6.691-13.562-13.461 1.507-1.504c1.504-1.5 1.508-1.504 1.036-1.598-1.536-.308-10.188-1.437-10.282-1.343-.101.097 1.18 9.562 1.399 10.332.074.25.363.039 1.601-1.192l1.516-1.496 6.777 6.73 6.782 6.735-6.739 6.688L43.5 111.5l-1.488-1.469c-.903-.894-1.543-1.41-1.63-1.312-.136.152-1.515 9.453-1.515 10.226 0 .332.063.371.453.293.25-.05 2.653-.398 5.336-.773M44.06 71.77c1.28-.91 3.445-3.13 4.375-4.489.683-1 1.804-3.156 2.148-4.136l.176-.497h24.836l-.047 2.09c-.047 2.04-.059 2.094-.461 2.309-.324.168-1.418.203-5.004.16-2.523-.031-4.59-.043-4.59-.027s.406.867.906 1.89c.497 1.024.993 2.215 1.106 2.645l.203.785h1.168c2.395-.008 6.883-.324 8.102-.574 2.91-.598 4.058-1.567 4.539-3.824.129-.606.187-5.02.187-14.41v-13.54h-12.54l1.621-2.16c.89-1.183 1.774-2.426 1.961-2.758l.34-.601-3.914-2.25-5.488.035-5.485.039.422-.668c.52-.812.524-.969.05-1.074-1.058-.242-5.827-.914-6-.848-.108.043-.464.543-.788 1.117-2.215 3.926-6.297 8.207-10.711 11.235-.781.535-1.434 1.027-1.45 1.097-.019.07.395.461.919.871.523.415 1.48 1.305 2.12 1.981l1.165 1.23 1.066-.773c.59-.422 1.172-.852 1.301-.953.2-.156.219.523.129 4.742-.059 2.711-.184 5.48-.281 6.16-.676 4.668-2.618 8.18-6.043 10.914L38.52 68.75l1.039.793a23 23 0 0 1 2.113 1.875c.59.598 1.133 1.082 1.21 1.082.079 0 .606-.328 1.177-.73m0 0"/>
    <path fill="#f9f9f9" d="m53.71 38.605 1.282-1.546 4.774-.016 4.773-.012-.293.453c-.16.246-.633.95-1.05 1.559l-.762 1.105h-5l-5.004.004Zm-1.28 8.442v-1.969h8.27v3.942h-8.27Zm14.222 0v-1.969h8.93v3.942h-8.93ZM51.996 57.496c.05-.215.145-1.137.207-2.05l.11-1.665h8.386v4.106h-8.804Zm14.656-1.664v-2.05h8.93v4.105h-8.93Zm0 0"/>
</svg>
