<svg xmlns="http://www.w3.org/2000/svg" width="120" height="120" viewBox="0 0 120 136">
    <path fill="none" stroke="red" stroke-width=".004" d="m78-40.71-.147.156-.029.034-.128.15-.158.2-.151.204-.135.198-.11.18-.233-.09-.236-.096-.237-.103-.237-.108-.235-.112-.188-.092-.047-.023v.639h-2.105v1.13h3.331v1.154h-1.647l1.045.397-.017.028-.17.276-.19.305-.188.3-.186.29-.178.271-.168.245h2.248V-34h-9.038v-1.177h2.06l-.098-.262-.124-.29-.145-.304-.16-.31-.167-.302-.13-.22-.04-.066.819-.358H68.97v-1.154h3.323v-1.13h-2.12v-.53l-.222.107-.222.104-.097.043-.126.056-.225.095-.226.092-.056.022-.056.021-.047.018-.032.013-.037.014-.1-.199-.123-.207-.14-.211-.15-.206-.158-.194L68-40.71l.724-.249.247-.085.661-.297.273-.123.876-.505.795-.59.104-.102.144-.14.444-.435.456-.614.111-.149.893.413.287.133-.096.146-.096.144-.05.073-.045.065-.006.008.006.005.252.21.305.255.653.45.72.42.118.06.647.32.788.325.04.013.573.19.166.056.01.003m-3.767 5.238.166-.266.169-.297.166-.316.157-.323.14-.316.12-.298h-1.527v2.112h1.308l-.597-.253-.04-.017-.03-.012-.02-.009-.012-.005M70.9-37.008l.087.144.094.155.171.304.152.3.127.283.094.255-.857.39h1.526v-2.112h-1.579l.185.28m-5.517-5.763L64-34.292l-.248 1.524-.696 4.268-.162 1-.897 5.502h22.006l-.895-5.49-.002-.012-.162-1-.696-4.268L82-34.291l-1.382-8.48v-.032h-.007L78-44.587l-5-3.416-5 3.416-2.61 1.784h-.008v.031M82-44l.2 1.197 1.672 10.035 1.795 10.77L86-20H60l2.128-12.768L63.8-42.803 64-44l1.775-1.183 5.745-3.831h.001L73-50l9 6M70-27.5v-1h1.793l-1.975-1.975.707-.707 1.963 1.963.012.012V-31h1v1.793l1.975-1.975.707.707-1.975 1.975H76v1h-2.5v2.5h-1v-2.5H70m3.857-13.927-.13-.103-.167-.135-.286-.245-.166-.152-.04-.036-.033-.03-.022-.022-.013-.01-.257.262-.268.25-.279.24-.287.226-.229.168-.067.049-.007.005-.298.202h3.497l-.306-.202-.018-.012-.316-.224Zm0 0" transform="matrix(4.29492 0 0 4.26451 -253.4 217.49)"/>
    <path d="M4.46 131.988c0-.066 3.849-23.058 8.552-51.09l8.55-50.968L60.118 4.406l19.16 12.684c10.54 6.976 19.227 12.746 19.305 12.824.125.125 17.191 101.332 17.191 101.953 0 .219-6.195.246-55.656.246-30.61 0-55.652-.054-55.656-.125m102.974-8.703c-.055-.246-3.34-20.219-7.301-44.379-4.031-24.578-7.293-44.008-7.403-44.113-.19-.18-31.617-21.492-32.296-21.902-.317-.192-1.711.714-16.746 10.918-9.02 6.117-16.399 11.195-16.399 11.285 0 .207-14.36 87.789-14.473 88.273l-.086.371h94.797Zm0 0"/>
    <path d="M40.684 69.957v-2.383h8.953l-.114-.367c-.27-.86-1.644-3.773-2.48-5.262-.496-.883-.922-1.68-.941-1.77-.024-.093.683-.484 1.574-.874.886-.387 1.66-.754 1.722-.813.059-.058-1.394-.11-3.226-.11h-3.336v-4.76h14.387V48.69h-9.094v-1.15c0-.629-.035-1.148-.074-1.148-.04 0-.657.265-1.364.59-1.746.792-4.394 1.89-4.437 1.835-.02-.023-.168-.3-.332-.617-.438-.86-1.524-2.433-2.352-3.41-.5-.59-.66-.887-.511-.941.12-.043 1.004-.344 1.957-.668 7.261-2.47 13.843-6.907 17.289-11.649a74 74 0 0 1 1.062-1.441c.059-.067 1.2.383 2.528 1.004l2.421 1.129-.582.851c-.316.473-.554.918-.527.992.031.075.613.598 1.293 1.164 3.8 3.141 9.926 6.415 15.219 8.125.77.247 1.457.485 1.527.52.067.04-.273.527-.75 1.086a38 38 0 0 0-1.68 2.168 49 49 0 0 1-.918 1.277c-.12.145-2.707-.89-4.652-1.863-.71-.355-1.332-.645-1.383-.645-.047 0-.086.63-.086 1.395v1.398h-9.093v4.926H77.07v4.762h-3.59c-1.972 0-3.515.062-3.43.137.087.074 1.013.457 2.06.843 1.046.391 1.968.766 2.05.84.145.13-1.3 2.559-3.246 5.45-.531.792-1.012 1.55-1.062 1.683-.082.211.539.242 4.718.242h4.817v4.762H40.684Zm16.539-6.98v-4.598H53.75c-1.91 0-3.473.043-3.473.094 0 .054.442.812.985 1.683 1.254 2.028 2.906 5.434 2.715 5.602-.079.074-.852.445-1.715.832s-1.64.765-1.727.844c-.09.078 1.332.14 3.266.14h3.422Zm11.175 4.453c-.046-.078-.683-.383-1.414-.676-.73-.29-1.324-.567-1.324-.613s.262-.512.582-1.036c.621-1.02 2.95-5.738 3.133-6.355l.11-.371h-6.801v9.195h2.902c1.637 0 2.863-.062 2.812-.144m-.425-23.735c0-.035-.91-.699-2.024-1.472a62 62 0 0 1-3.738-2.848c-.941-.793-1.809-1.512-1.93-1.598-.16-.113-.64.246-1.781 1.328-.855.817-2.3 2.032-3.207 2.7-.906.672-1.867 1.383-2.133 1.582l-.484.36 7.648.007c4.207.004 7.649-.02 7.649-.059m-9.923 61.731v-5.336H47.3v-4.106h7.856l-8.515-8.46 1.445-1.434 1.445-1.438 4.262 4.23 4.258 4.227v-7.796h4.136v7.796l4.258-4.226 4.262-4.23 1.445 1.437 1.446 1.433-8.516 8.461h7.856v4.106h-10.75v10.676H58.05Zm0 0"/>
    <path fill="#f9f9f9" d="M13.066 123.328c0-.527 14.391-88.035 14.512-88.226.184-.297 32.3-22.047 32.559-22.047.117 0 7.492 4.937 16.383 10.972C91.773 34.38 92.695 35.031 92.809 35.562c.062.313 3.25 19.668 7.078 43.016 3.832 23.348 7.062 43.024 7.183 43.723l.22 1.273H60.175c-41.688 0-47.11-.027-47.11-.246m49.286-17.738v-5.336h10.75V95.82h-7.524l8.352-8.297-1.575-1.554-1.57-1.559-4.219 4.188-4.214 4.183v-7.633h-4.465v7.47l-4.094-4.063c-2.254-2.239-4.168-4.067-4.258-4.067s-.851.684-1.695 1.52l-1.535 1.515 4.175 4.149 4.18 4.148h-7.523v4.434h10.75v10.676h4.465ZM79.55 69.957V67.41h-4.71c-2.594 0-4.715-.043-4.715-.094 0-.05.238-.437.531-.859.82-1.184 3.934-6.152 3.934-6.273 0-.063-.875-.438-1.942-.836l-1.945-.723 3.266-.043 3.265-.047v-5.082H62.848v-4.598h9.097V47.54c0-.723.024-1.312.059-1.312.031 0 .906.394 1.941.878 1.79.836 3.649 1.586 3.93 1.586.07 0 .547-.609 1.055-1.355.511-.746 1.343-1.809 1.851-2.367.504-.555.922-1.047.922-1.094s-.726-.32-1.613-.61c-5.672-1.855-11.477-4.945-15.54-8.269l-1.179-.965.59-.886c.363-.543.535-.946.441-1.04-.183-.18-4.777-2.3-4.976-2.296-.074.003-.543.574-1.043 1.27-3.656 5.07-10.477 9.66-17.996 12.109-2.117.69-2.047.449-.64 2.156.694.84 2.151 3.097 2.312 3.582.066.191 1.746-.426 4.066-1.492.855-.391 1.617-.715 1.695-.715s.14.48.14 1.07v1.066h9.099v4.598H42.672v5.09l3.098.008 3.101.004-1.57.672c-.864.367-1.586.68-1.602.695-.015.012.45.871 1.031 1.91 1.004 1.777 2.555 5.066 2.555 5.418 0 .102-1.629.16-4.383.16H40.52v5.09h39.03Zm0 0"/>
    <path fill="#f9f9f9" d="M54.512 42.676c1.648-1.168 2.797-2.117 4.367-3.614l1.238-1.183.664.57a64 64 0 0 0 4.89 3.844l1.837 1.309H53.207Zm-2.25 24.14c.683-.32 1.418-.652 1.629-.734.324-.129.37-.234.285-.602-.164-.695-1.489-3.367-2.54-5.113a77 77 0 0 1-1-1.699c-.03-.07 1.403-.125 3.184-.125h3.239v8.867l-3.02-.004-3.016-.008Zm10.586-3.839v-4.434h3.14c2.004 0 3.145.059 3.145.164 0 .516-1.918 4.313-3.75 7.43-.04.066.36.308.887.535.527.226 1.109.48 1.293.566q.328.151-2.192.16l-2.523.012Zm0 0"/>
</svg>
