<svg xmlns="http://www.w3.org/2000/svg" width="120" height="120" viewBox="0 0 120 136">
    <path fill="none" stroke="red" stroke-width=".004" d="M-52-35.403h4.277v-3.065h-3.236v-1.411h3.236v-2.701h-3.752V-44h8.91v1.42h-3.775v2.701h3.346v1.41h-3.346v3.066H-42V-34h-10v-1.403m-2.618-7.369L-56-34.292l-.248 1.524-.696 4.268-.162 1-.897 5.502h22.006l-.897-5.502-.162-1-.696-4.268-.248-1.523-1.382-8.48v-.032h-.007L-42-44.587l-5-3.416-5 3.416-2.61 1.784h-.008v.031M-38-44l.2 1.197 1.672 10.035 1.795 10.77L-34-20h-26l2.128-12.768 1.672-10.035L-56-44l1.775-1.183 5.745-3.831h.001L-47-50l9 6m-12.182 18.475 1.975-1.975H-50v-1h1.793l-1.975-1.975.707-.707 1.975 1.975V-31h1v1.793l1.975-1.975.707.707-1.975 1.975H-44v1h-1.793l1.975 1.975-.707.707-1.975-1.975V-25h-1v-1.793l-1.975 1.975Zm0 0" transform="matrix(4.29492 0 0 4.26451 261.99 217.49)"/>
    <path d="M4.46 131.988c0-.066 3.849-23.058 8.552-51.09l8.55-50.968L60.118 4.406l19.16 12.684c10.54 6.976 19.227 12.746 19.305 12.824.125.125 17.191 101.332 17.191 101.953 0 .219-6.195.246-55.656.246-30.61 0-55.652-.054-55.656-.125m102.974-8.703c-.055-.246-3.34-20.219-7.301-44.379-4.031-24.578-7.293-44.008-7.403-44.113-.19-.18-31.617-21.492-32.296-21.902-.317-.192-1.711.714-16.746 10.918-9.02 6.117-16.399 11.195-16.399 11.285 0 .207-14.36 87.789-14.473 88.273l-.086.371h94.797Zm0 0"/>
    <path d="M38.7 69.465V66.59h18.359v-13.3H43.168v-5.75h13.89V35.882H41.017v-5.914h38.039v5.914H62.848v11.656h14.386v5.75H62.848v13.3h18.687v5.747H38.7Zm9.26 40.558-1.398-1.394 8.594-8.54h-7.855v-4.105h7.855l-8.515-8.46 1.445-1.434 1.445-1.438 4.262 4.23 4.258 4.227v-7.796h4.136v7.796l4.258-4.226 4.262-4.23 1.445 1.437 1.446 1.433-8.516 8.461h7.856v4.106h-7.856l4.297 4.27 4.3 4.269-1.449 1.437-1.445 1.434-4.176-4.145c-2.296-2.28-4.234-4.144-4.3-4.144-.067 0-.121 1.7-.121 3.777v3.778H58.05v-3.778c0-2.078-.055-3.777-.125-3.777s-1.985 1.848-4.258 4.105-4.172 4.106-4.219 4.106-.719-.629-1.488-1.399m0 0"/>
    <path fill="#f9f9f9" d="M13.066 123.328c0-.527 14.391-88.035 14.512-88.226.184-.297 32.3-22.047 32.555-22.047.12 0 7.496 4.937 16.387 10.972 15.273 10.36 16.175 11 16.285 11.535.066.313 3.254 19.668 7.082 43.016 3.832 23.348 7.062 43.024 7.183 43.723l.22 1.273H60.175c-41.79 0-47.11-.027-47.11-.246m40.641-15.723 4.18-4.144v7.469h4.465v-7.47l4.218 4.185 4.215 4.183 1.613-1.598 1.61-1.601-8.43-8.375h7.524V95.82h-7.524l8.352-8.297-1.575-1.554-1.57-1.559-4.219 4.188-4.214 4.183v-7.633h-4.465v7.47l-4.094-4.063c-2.254-2.239-4.168-4.067-4.258-4.067s-.851.684-1.695 1.52l-1.535 1.515 4.175 4.149 4.18 4.148h-7.523v4.434h7.687l-8.515 8.46 1.527 1.516c.844.836 1.566 1.52 1.613 1.52.043 0 1.961-1.867 4.258-4.145m27.996-38.14v-3.04h-18.69V53.454h14.39v-6.078h-14.39V36.047h16.21v-6.242h-38.37v6.242h16.043v11.328H43v6.078h13.895v12.973h-18.36V72.5h43.168Zm0 0"/>
</svg>
