<svg xmlns="http://www.w3.org/2000/svg" width="120" height="120" viewBox="0 0 120 136">
    <path fill="none" stroke="red" stroke-width=".004" d="M-12.199-.445h-2.553l.416.237.11.063.244.145.273.163.493.31.458.302.41.289.06.046.288.222-.288.377-.258.34-.203.265-.316-.266-.12-.1-.375-.282-.156-.117-.134-.093-.468-.325-.647-.42-.666-.407-.53-.304-.128-.074v1.53h-1.315v-1.53l-.075.074-.274.27-.374.326-.394.308-.413.289-.429.266-.397.218-.045.026h6.445v4.282h-1.33v-.317h-3.998V6h-1.269V1.773l-.164.08-.159.073-.003.001-.162.07-.163.067-.166.062-.026.008-.068.023-.036.011-.022.009-.01.002-.008.003-.11-.166-.136-.19-.15-.2-.158-.195-.156-.18-.065-.066-.053-.056L-22 1.1l.566-.178.56-.215.394-.18.151-.069.524-.277.295-.18.198-.123.454-.323h-2.813v-1.144h4.067v-.75l-.485.04-.343.025-.14.01-.48.03-.477.024-.473.02-.469.014-.009-.062-.016-.109-.041-.187-.052-.196-.023-.073-.038-.12-.064-.182-.063-.161.297-.014.886-.042 1.162-.082.035-.002 1.175-.111.838-.102.095-.012.181-.022 1.014-.162.758-.16.12-.025.893 1.02-.453.107-.342.07-.132.027-.086.015-.404.074-.505.08-.517.072-.527.065v.88h4.09v1.145m-12.419-2.327L-25.07 0-26 5.71l-2.003 12.293h22.006L-7.464 9l-.488-3L-8 5.709-8.93 0l-.452-2.772v-.03h-.007L-12-4.588l-5-3.416-5 3.416-2.61 1.784h-.008v.031M-8-4l.2 1.197L-7.334 0-4 20h-26l3.333-20 .467-2.803L-26-4l7.52-5.014h.001L-17-10l9 6m-8.646 16.37-.05.038-.054.032-.059.026-.062.02-.025.004-.04.006-.064.004-.065-.004-.064-.01-.062-.02-.06-.026-.053-.032-.05-.038-.043-.044-.036-.048-.029-.052-.02-.055-.014-.057-.004-.058V9h-1l1.5-2 1.5 2h-1v3.056l-.004.058-.013.057-.021.055-.03.052-.006.01-.03.038-.042.044m1.756-9.708h-3.998v.587h3.998v-.587m0 2.047v-.595h-3.998v.595Zm0 0" transform="matrix(4.29492 0 0 4.26451 133.142 46.91)"/>
    <path d="M4.46 131.988c0-.066 3.849-23.058 8.552-51.09l8.55-50.968L60.118 4.406l19.16 12.684c10.54 6.976 19.227 12.746 19.305 12.824.125.125 17.191 101.332 17.191 101.953 0 .219-6.195.246-55.656.246-30.61 0-55.652-.054-55.656-.125m102.974-8.703c-.055-.246-3.34-20.219-7.301-44.379-4.02-24.511-7.293-44.008-7.403-44.11-.19-.179-31.625-21.5-32.296-21.905-.317-.192-1.715.718-16.746 10.918-9.02 6.117-16.399 11.195-16.399 11.285 0 .207-14.36 87.789-14.473 88.273l-.086.371h94.797Zm0 0"/>
    <path d="M46.64 63.375v-8.96l-.374.116a9 9 0 0 0-1.02.438c-1.121.562-2.785 1.133-2.906.996-.067-.07-.55-.723-1.082-1.442-.531-.722-1.293-1.664-1.7-2.093-.5-.532-.66-.801-.507-.852.125-.039.636-.195 1.136-.351 3.06-.942 7.208-2.914 10.032-4.766 1.023-.668 1.902-1.293 1.96-1.383.067-.11-1.937-.164-5.945-.164h-6.047v-4.762h17.368v-1.644c0-1.203-.055-1.64-.207-1.64-.114.003-1.621.109-3.348.237-1.73.125-4.383.282-5.895.344l-2.753.117-.188-.882c-.102-.489-.379-1.461-.613-2.168-.235-.707-.387-1.32-.34-1.368.047-.05 1.379-.152 2.953-.23 3.156-.156 3.781-.2 8.242-.574 5.434-.457 11.172-1.23 14.707-1.985 1.54-.328 1.926-.363 2.098-.191.113.117.953 1.062 1.863 2.102l1.656 1.886-.859.2c-1.91.453-6.383 1.238-9 1.585l-2.777.368-.043 1.921-.047 1.922H80.71v4.758l-5.566.043-5.563.043 2.379 1.371c2.328 1.34 8.023 5.043 8.984 5.84l.485.402-.965 1.282a83 83 0 0 1-1.531 1.984l-.567.703-.523-.43c-1.606-1.304-5.13-3.84-7.223-5.195-2.855-1.848-7.156-4.398-7.422-4.398-.133 0-.187.922-.187 3.203v3.203h-5.457v-6.434l-1.446 1.305c-2.586 2.324-4.812 3.918-8.23 5.883l-.824.476 13.847.043 13.852.043v18.059h-5.457v-1.313H51.934v1.313H46.64Zm22.657 2.313v-1.399H51.934v2.793h17.363Zm0-6.16v-1.313H51.934v2.629h17.363ZM59.023 99.813c-.98-.602-.972-.547-.972-7.918v-6.747h-4.137l3.07-4.066c1.692-2.234 3.114-4.05 3.157-4.031.047.015 1.457 1.844 3.132 4.062l3.051 4.035h-4.136v6.739c0 7.398-.008 7.449-.989 7.953-.629.324-1.629.312-2.176-.028m0 0"/>
    <path fill="#f9f9f9" d="M13.066 123.328c0-.527 14.391-88.035 14.512-88.226.184-.297 32.3-22.047 32.555-22.047.12 0 7.496 4.937 16.387 10.972 15.273 10.36 16.175 11 16.285 11.535.066.313 3.254 19.668 7.082 43.016 3.832 23.348 7.062 43.024 7.183 43.723l.22 1.273H60.175c-41.688 0-47.11-.027-47.11-.246m48.286-23.344c1.007-.59 1-.527 1-7.921V85.32l2.16-.047 2.16-.043-3.258-4.316c-1.793-2.375-3.285-4.289-3.32-4.254a573 573 0 0 0-3.274 4.313l-3.215 4.257 2.141.043 2.14.047v13.594l.442.523c.242.286.594.583.785.657.578.234 1.754.176 2.239-.11m-9.254-28.14v-.656h17.035V72.5h5.789v-9.113c0-5.012.043-9.114.098-9.114.128 0 1.203.829 2.425 1.868.524.449.973.78 1.004.746.028-.04.785-1.024 1.68-2.192l1.633-2.12-.543-.423c-1.586-1.234-4.762-3.336-7.645-5.054l-3.246-1.938 10.547-.086v-5.086h-17.53v-3.613h.445c1.281 0 9.777-1.437 11.672-1.977l.625-.175-1.531-1.735c-.844-.957-1.727-1.96-1.961-2.234l-.426-.5-2.55.508c-5.68 1.136-13.946 2.047-22.626 2.492-1.672.086-3.07.187-3.11.226-.034.036.079.43.255.872.172.441.488 1.496.699 2.343l.379 1.54 2.82-.114c2.945-.117 6.774-.355 8.403-.523L57.39 37v2.988H40.023v5.086l5.903.043 5.906.043-1.398.922c-3.02 1.992-6.094 3.496-9.715 4.742l-2.196.758.961 1.082a35 35 0 0 1 1.86 2.332c.496.688.996 1.25 1.11 1.25.257 0 2.495-.879 3.374-1.324l.645-.328V72.5h5.625Zm0 0"/>
    <path fill="#f9f9f9" d="M49.043 53.27c2.496-1.415 5.676-3.774 7.266-5.387.449-.461.879-.836.949-.836.074 0 .133 1.367.133 3.039v3.039h5.953v-3.121c0-1.715.031-3.121.07-3.121.445 0 11.34 6.883 11.34 7.164 0 .035-6.117.062-13.594.062H47.563Zm3.055 6.257V58.38h17.035v2.3H52.098Zm0 6.243v-1.15h17.035v2.297H52.098Zm0 0"/>
</svg>
