<svg xmlns="http://www.w3.org/2000/svg" width="120" height="120" viewBox="0 0 120 136">
    <path fill="none" stroke="red" stroke-width=".004" d="M-42.129-.474v1.17h-5.922v-1.17h2.269v-1.101h-1.952v-1.147h1.952v-1.21h1.293v1.21h1.93v1.147h-1.93v1.1h2.36m-6.02-.346h-1.143v.347l.14.203.041.06.14.211.09.137.246.386.237.375.196.318.128.211-.519.621-.204.246-.003.003-.06-.16-.034-.089-.037-.091-.08-.194-.09-.203-.05-.114-.044-.095-.097-.209V6h-1.135V1.866l-.06.182-.084.246-.155.412-.162.39-.17.363-.177.33-.114.185-.028.045-.016.023-.01.016-.008.015-.007.01-.068-.195-.089-.22-.103-.233-.109-.232-.109-.217-.07-.127-.034-.061.31-.465.152-.285.14-.269.272-.617.242-.656.159-.506.05-.163.173-.658h-1.173v-1.177h1.248V-4h1.135v1.994h1.142V-.82m-6.468-1.95L-55.07 0-56 5.71l-2.003 12.293h22.006l-.775-4.752-.57-3.5-.61-3.75L-38 5.71-38.93 0l-.452-2.772v-.03h-.007L-42-4.588l-5-3.416-5 3.416-2.61 1.784h-.008v.031M-38-4l.2 1.197.466 2.803L-34 20h-26l3.333-20 .467-2.803L-56-4l7.52-5.014h.001L-47-10l9 6M-48.913 7.261l.163-.01.163.01.16.032.155.052.022.01.125.062.136.09.123.109.108.123.091.136.072.147.052.154.003.016.029.145.01.163-.01.163-.032.16-.052.155-.072.147-.09.136-.109.123-.123.108-.136.091-.003.001-.122.06-.022.01-.154.053-.161.032-.163.01-.163-.01-.16-.032-.079-.027-.076-.025-.147-.072-.136-.091-.123-.108-.108-.123-.091-.136-.072-.147-.052-.154-.032-.161L-50 8.5l.011-.163.029-.145.003-.016.052-.154.072-.147.09-.136.11-.123.122-.108.136-.091.147-.072.076-.026.078-.026.161-.032m4.141.084.147.072.136.09.123.109.108.123.091.136.072.147.052.154.003.016.029.145.01.163-.01.163-.032.16-.052.155-.072.147-.09.136-.11.123-.122.108-.136.091-.147.072-.154.052-.13.026-.031.006-.163.01-.163-.01-.16-.032-.155-.052-.022-.01-.125-.062-.136-.091-.123-.108-.108-.123-.03-.045-.061-.09-.072-.148-.052-.154-.032-.161-.01-.163.01-.163.03-.145.002-.016.052-.154.072-.147.09-.136.109-.123.123-.108.136-.091.125-.061.022-.01.154-.053.161-.032.163-.01.163.01.03.007.13.025.155.052m-2.065 3.416.16.032.155.052.147.072.136.09.123.109.108.123.091.136.072.147.052.154.032.16.01.164-.01.163-.025.125-.007.036-.052.154-.072.147-.09.136-.109.123-.123.108-.136.091-.147.072-.154.052-.161.032-.163.01-.104-.006-.059-.004-.16-.032-.155-.052-.147-.072-.136-.091-.123-.108-.108-.123-.091-.136-.072-.147-.052-.154-.007-.036-.025-.125-.01-.163.01-.163.032-.16.052-.155.072-.147.09-.136.109-.123.123-.108.136-.091.147-.072.154-.052.161-.032.06-.004.103-.007.163.011M-42 5.646h-6.543v-1.2h2.76V3.181h-2.08v-1.17h2.08v-.993h1.294v.993h2.081v1.17h-2.08v1.263H-42Zm0 0" transform="matrix(4.29492 0 0 4.26451 261.99 46.91)"/>
    <path d="M4.46 131.988c0-.066 3.849-23.058 8.552-51.09l8.55-50.968L60.118 4.406l19.16 12.684c10.54 6.976 19.227 12.746 19.305 12.824.125.125 17.191 101.332 17.191 101.953 0 .219-6.195.246-55.656.246-30.61 0-55.652-.054-55.656-.125m102.974-8.703c-.055-.246-3.34-20.219-7.301-44.379-4.016-24.488-7.293-44.008-7.403-44.113-.19-.176-31.613-21.488-32.296-21.902-.317-.192-1.711.714-16.746 10.918-9.02 6.117-16.399 11.195-16.399 11.285 0 .207-14.36 87.789-14.473 88.273l-.086.371h94.797Zm0 0"/>
    <path d="m45.441 63.512-.043-8.828-.632 1.773c-1.172 3.277-3.27 7.617-3.586 7.422-.063-.04-.25-.422-.41-.856-.165-.433-.66-1.527-1.102-2.433-.441-.91-.8-1.707-.8-1.778 0-.066.284-.542.636-1.058 1.3-1.899 3.066-5.754 4.187-9.145.52-1.57 1.461-4.906 1.461-5.175 0-.098-.965-.164-2.48-.164h-2.484v-4.762h5.292v-8.54h4.797v8.54h4.797v4.762h-4.797v.93c0 .718.09 1.046.387 1.437.469.617 2.484 3.726 3.773 5.82l.946 1.54-1.43 1.702c-.789.938-1.48 1.649-1.539 1.582-.062-.066-.547-1.144-1.082-2.402l-.973-2.281-.043 10.37-.039 10.368h-4.793Zm10.293-16.137v-2.46h9.758v-4.763H57.06v-4.761h8.433v-5.094h5.293v5.094h8.27v4.761h-8.27v4.762H81.04v4.926H55.734Zm-2.148 21.02v-2.461h11.906v-5.582h-8.93v-4.766h8.93v-4.27h5.293v4.27h8.934v4.766h-8.934v5.582h10.75v4.925h-27.95Zm-2.324 19.824c-2.325-.653-3.844-2.64-3.856-5.043-.008-1.508.367-2.43 1.461-3.59 1.047-1.113 2.133-1.57 3.727-1.578 2.09-.004 3.758 1.02 4.746 2.914.613 1.18.644 3.074.07 4.344-.453 1.004-1.707 2.23-2.738 2.683-.945.418-2.461.535-3.41.27m15.051 0c-1.497-.422-2.848-1.594-3.524-3.051-.523-1.14-.492-2.934.078-4.125 1.586-3.324 5.895-4.11 8.48-1.543 1.544 1.531 1.977 3.953 1.048 5.832-.528 1.074-1.653 2.168-2.68 2.621-.938.414-2.453.531-3.403.266m-7.21 14.991c-1.559-.323-2.997-1.452-3.727-2.925-.547-1.101-.547-3.406 0-4.43.578-1.085 1.453-1.949 2.484-2.453 1.23-.597 3.157-.644 4.348-.101 3.215 1.465 4.137 5.46 1.89 8.187-1.085 1.313-3.3 2.075-4.995 1.723m0 0"/>
    <path fill="#f9f9f9" d="M13.066 123.328c0-.527 14.391-88.035 14.512-88.226.184-.297 32.3-22.047 32.555-22.047.12 0 7.496 4.937 16.387 10.972 15.273 10.36 16.175 11 16.285 11.535.066.313 3.254 19.668 7.082 43.016 3.832 23.348 7.062 43.024 7.183 43.723l.22 1.273H60.175c-41.688 0-47.11-.027-47.11-.246m49.067-20.2c.988-.41 1.777-1.015 2.347-1.804.75-1.035 1.036-1.96 1.036-3.328 0-2.058-1.121-3.855-2.973-4.758-.813-.394-1.133-.457-2.426-.457s-1.61.063-2.433.461c-1.157.567-2.157 1.656-2.606 2.848-.418 1.113-.445 2.887-.062 3.875.609 1.558 2.082 2.91 3.656 3.351.945.266 2.578.176 3.46-.187m-7.324-15c1.046-.46 2.168-1.55 2.703-2.628.39-.793.457-1.133.457-2.324 0-1.649-.45-2.79-1.508-3.84-1.059-1.055-2.207-1.496-3.867-1.496-1.203 0-1.543.066-2.34.453-2.496 1.219-3.621 3.844-2.797 6.531.313 1.02.504 1.332 1.316 2.14.758.755 1.168 1.016 2.016 1.29 1.281.418 2.898.367 4.02-.125m15.203-.1c1.058-.497 2.148-1.606 2.64-2.688.504-1.102.508-3.258.004-4.336-.504-1.09-1.722-2.32-2.746-2.774-1.308-.582-3.336-.554-4.605.063-1.09.531-2.172 1.633-2.68 2.719-.496 1.07-.492 3.23.008 4.328.672 1.472 2.148 2.7 3.75 3.11.926.237 2.652.034 3.629-.423M50.484 62.48l.043-10.02.907 2.142c.5 1.175.964 2.117 1.03 2.093.173-.058 3.106-3.582 3.106-3.73 0-.153-2.793-4.594-4.148-6.594-.836-1.234-.98-1.555-.98-2.191v-.746h4.796v-5.09h-4.797v-8.54h-5.125v8.54h-5.293v5.09h2.48c1.368 0 2.481.027 2.481.054 0 .239-1.57 5.403-1.964 6.465-1.215 3.274-2.625 6.176-3.848 7.934l-.629.906.82 1.625c.453.895 1.04 2.184 1.305 2.863l.48 1.239.516-.813c.8-1.25 1.926-3.617 2.824-5.934l.817-2.105.004 8.418.007 8.414h5.125Zm31.22 5.915V65.77h-10.75v-5.254h8.929v-5.094h-8.93v-4.27h-5.625v4.27h-8.93v5.094h8.93v5.254H53.422v5.253h28.281Zm-.497-21.02V44.75H70.953v-4.434h8.27v-5.093h-8.27v-5.09h-5.625v5.09h-8.433v5.093h8.433v4.434H55.57v5.254h25.637Zm0 0"/>
</svg>
