<svg xmlns="http://www.w3.org/2000/svg" width="120" height="120" viewBox="0 0 120 136">
    <path fill="none" stroke="red" stroke-width=".004" d="M17.944-.849V.355H13.58v3.043l.263-.183.246-.195.23-.207.017-.017.196-.205.196-.237.18-.254 1.2.441-.213-.243-.222-.239-.01-.01-.218-.225-.23-.228-.228-.22-.222-.21 1.073-.65.398.35.148.139.262.244.401.4.373.402.324.39.256.362-1.115.71-.01.005-.01.008-.01.006-.008.005-.083-.139-.097-.144-.108-.149-.117-.153-.058-.073-.038-.048-.029-.037-.13-.161-.759.946-.634.517-.298.242-1.101.598-1.107.404-.156.057-1.421.346-1.498.245-.038.005-.026.005L9.137 6l-.075-.208-.093-.219-.108-.22-.027-.048-.092-.168-.056-.088-.07-.113-.036-.048-.067-.092-.028-.04.96-.1.908-.137.85-.177.79-.222.064-.024.212-.08.019-.007.43-.16.656-.328h-1.105V.355H8.032V-.85h1.486v-2.433h1.336V-.85h1.478V-4h1.352v1.012h3.179v1.142h-3.179v.997h4.26M5.382-2.772 4.93 0 4 5.71 1.997 18.002h22.006L22.048 6 22 5.709 21.07 0l-.452-2.772v-.03h-.007L18-4.588l-5-3.416-5 3.416-2.61 1.784h-.008v.031M22-4l.2 1.197L22.666 0 26 20H0L3.333 0 3.8-2.803 4-4l7.52-5.014h.001L13-10l9 6m-9.496 16.065L12.5 12V9h1v3l-.004.065-.013.064-.021.062-.03.059-.025.038-.01.016-.043.05-.042.036-.008.007-.054.036-.059.03-.062.02-.064.013L13 12.5l-.065-.004-.064-.013-.062-.02-.06-.03-.053-.036-.05-.043-.043-.05-.01-.016-.026-.038-.029-.059-.02-.062-.014-.064M10.06.602l.04.012 1.327.398-.311.478-.352.47-.074.088-.307.363-.4.422-.405.381-.342.282-.026.02-.014.013-.011.009-.008.006-.155-.128-.194-.145-.215-.151-.22-.146-.2-.124-.01-.006-.15-.085L8 2.741l.032-.023.16-.113.207-.147.39-.324.088-.086.281-.272.341-.38L9.802 1Zm0 0" transform="matrix(4.29492 0 0 4.26451 4.295 46.91)"/>
    <path d="M4.46 131.988c0-.066 3.849-23.058 8.552-51.09l8.55-50.968L60.118 4.406l19.16 12.684c10.54 6.976 19.227 12.746 19.305 12.824.125.125 17.191 101.332 17.191 101.953 0 .219-6.195.246-55.656.246-30.61 0-55.652-.054-55.656-.125m102.974-8.703c-.055-.246-3.34-20.219-7.301-44.379-4.028-24.547-7.293-44.008-7.403-44.113-.19-.176-31.617-21.488-32.296-21.902-.317-.192-1.711.714-16.746 10.918-9.02 6.117-16.399 11.195-16.399 11.285 0 .207-14.36 87.789-14.473 88.273l-.086.371h94.797Zm0 0"/>
    <path d="M43.496 72.117c0-.3-1.516-3.332-2.055-4.11-.242-.347-.414-.66-.382-.69.03-.036 1.066-.172 2.296-.305 7.34-.809 13.051-2.266 17.188-4.387l1.395-.715-2.438-.047-2.441-.043V48.363H38.867v-4.93h6.45V32.927h5.456v10.508h6.618V29.969h5.62v4.27h13.563V39H63.012v4.434h18.195v4.93H62.516v6.566c0 3.613.05 6.57.113 6.57.062 0 .648-.41 1.305-.906 1.27-.965 3.37-3.07 4.023-4.035l.398-.586 2.575.949c1.414.523 2.601.918 2.64.879.098-.094-2.257-2.633-4.097-4.414-.832-.809-1.453-1.516-1.38-1.582.071-.063 1.009-.645 2.087-1.293 1.422-.86 2.047-1.149 2.293-1.07.53.163 6.914 6.57 7.98 8.007.8 1.078.922 1.32.73 1.496-.3.282-4.476 2.91-4.519 2.848-.02-.027-.418-.602-.887-1.277-.468-.68-1.101-1.524-1.406-1.875L73.824 58l-1.699 2.066c-5.023 6.13-12.39 9.614-24.742 11.707-3.746.633-3.887.649-3.887.344m0 0"/>
    <path d="M42.633 61.066a35 35 0 0 0-2.36-1.613l-1.41-.879 1.102-.781c2.23-1.578 5.336-4.797 6.918-7.172.347-.52.676-.95.73-.953.301-.02 5.477 1.582 5.477 1.695 0 .211-1.516 2.387-2.664 3.825-1.758 2.207-6.36 6.707-6.778 6.628-.039-.007-.496-.343-1.015-.75m16.582 38.813c-.227-.113-.578-.453-.785-.758-.38-.558-.38-.558-.38-7.183v-6.626h4.138v6.626c0 6.624 0 6.624-.38 7.183-.44.649-.995.965-1.69.965-.274 0-.68-.094-.903-.207m0 0"/>
    <path fill="#f9f9f9" d="M13.066 123.328c0-.527 14.391-88.035 14.512-88.226.184-.297 32.3-22.047 32.555-22.047.12 0 7.496 4.937 16.387 10.972 15.273 10.36 16.175 11 16.285 11.535.066.313 3.254 19.668 7.082 43.016 3.832 23.348 7.062 43.024 7.183 43.723l.22 1.273H60.175c-41.79 0-47.11-.027-47.11-.246m48.122-23.285c.226-.113.578-.453.785-.758l.379-.558V85.148h-4.465v6.653c0 7.363.02 7.511 1.023 8.12.621.376 1.664.43 2.278.122M47.19 72.008c12.258-2.024 20.254-5.754 24.977-11.649.8-.996 1.516-1.847 1.594-1.898.148-.09 2.648 3.094 2.648 3.375 0 .348.54.09 2.82-1.344a238 238 0 0 0 2.446-1.55c.11-.09-1.035-1.645-2.301-3.11-1.309-1.52-4.941-5.098-6.3-6.203l-.766-.621-1.961 1.168A327 327 0 0 0 68 51.59c-.383.246-.371.262 2.297 2.95 1.473 1.487 2.644 2.741 2.601 2.784s-1.105-.297-2.355-.754c-1.254-.46-2.293-.812-2.313-.785-1.128 1.633-2.238 2.852-3.687 4.055-2.082 1.722-1.86 2.312-1.86-4.985v-6.328h18.688V43.27H63.18v-4.106h13.558v-5.09H63.18v-4.27h-5.957V43.27H50.94V32.762h-5.789V43.27H38.7v5.257h18.196v13.465l4.382.016-1.144.582c-3.985 2.031-10.145 3.55-17.586 4.34-1.024.105-1.863.218-1.863.25 0 .03.304.52.675 1.09.73 1.12 1.723 3.105 1.899 3.796.14.559.199.555 3.933-.058m-.242-12.723c2.75-2.648 6.77-7.77 6.371-8.117-.082-.066-1.078-.398-2.215-.73a739 739 0 0 1-2.851-.84l-.781-.235-.996 1.45c-1.786 2.582-4.196 5.035-6.852 6.964-1.004.73-1.105.852-.844 1.004.832.48 3.719 2.407 4.282 2.86l.64.511.684-.527c.375-.293 1.527-1.344 2.562-2.34m0 0"/>
</svg>
