<svg xmlns="http://www.w3.org/2000/svg" width="120" height="120" viewBox="0 0 120 136">
    <path fill="none" stroke="red" stroke-width=".004" d="m13-33 .174.232.326.435 1 1.333h-1v2.5H16v-1l1.333 1L18-28l-2 1.5v-1h-2.5v2.5h1l-1 1.333L13-23l-.5-.667-1-1.333h1v-2.5H10v1L8-28l.666-.5 1.334-1v1h2.5V-31h-1l1-1.333.326-.435L13-33m4.524-9.06.124.076.034.021-.495.685-.113.158-.015.02-.005.007-.181-.112-.216-.122-.242-.128-.03-.016-.232-.117-.276-.135-.282-.136.145.387.175.34.125.172.084.116.247.224.013.006.275.145.335.07.057-.018.052-.071.047-.117.042-.16.038-.195.001-.004.003-.018.002-.018.003-.02.003-.015.023-.152v-.01l.106.135.087.102.03.035.122.134.126.124.124.11.117.087-.108.44-.041.094-.109.246-.19.244-.229.151-.267.062-.304-.023-.345-.097-.409-.115-.584-.394-.44-.55-.258-.548-.059-.125-.19-.664-.032-.108-.076-.43-.073-.411H8.756v-1.182h6.521l.009.15.01.149.013.146.028.29.014.137.001.006.25.08.085-.086.08-.082.169-.182.165-.19.158-.187.125-.156.021-.026.128-.169 1.058.542.001.001-.054.045-.135.11-.188.157-.166.137-.02.017-.183.15-.045.038-.133.11-.12.095-.024.02-.018.015-.008.007-.003.002.23.1.22.1.209.098.194.099.176.097m-4.297-.335v2.668h2.239l.007.246.005.186.002.056.01.24.003.087.007.15.014.237.02.236.174.064.166-.15.17-.158.167-.16.16-.16.013-.013.045-.046.089-.092.128-.14.452.232.622.32-.189.138-.188.134-.185.131-.183.125-.179.119-.127.081-.022.015-.012.007-.008.006-.004.002.218.105.21.106.203.106.188.103.172.1.152.095-.266.355-.348.467-.006.008-.014.018-.01.013-.007.01-.181-.127-.212-.132-.238-.137-.1-.054-.123-.066-.034-.018-.271-.14-.278-.141.065.299.05.222.15.46.19.384.236.3.015.01.273.19.345.092.06-.025.054-.093.047-.155.042-.208.022-.153.015-.102.029-.268.003-.02v-.006l.11.146.12.149.087.1.037.043.127.132.124.114.12.09-.109.52-.048.126-.103.274-.19.288-.234.179-.275.075-.318-.024-.338-.112-.096-.032-.36-.119-.59-.507-.42-.715-.285-.886-.063-.366-.018-.103-.016-.09-.01-.063-.01-.052-.006-.037-.006-.031-.048-.277-.102-1.115h-1.127v4.361H12.01v-4.36h-1.256l-.068.773-.135.779-.032.112-.19.657-.327.745-.455.709-.58.635-.013.014-.007.008-.12-.146-.15-.162-.163-.16-.006-.005-.176-.16-.056-.044-.083-.068-.034-.028L8-34.982l.192-.2.32-.336.39-.57.284-.596.057-.18.137-.431.121-.618.065-.616h-1.34v-1.198h1.37v-1.078l-.15.035-.148.03-.147.031-.147.026-.146.024-.114.017-.02.003-.013.002-.041-.149-.06-.161-.005-.013-.067-.155-.082-.165-.088-.158-.088-.142.476-.104.062-.014.533-.136.52-.15.369-.123.125-.04.462-.174.175-.074.243-.103.092.103.672.75v-.75h1.218m-7.845-.377L4-34.292l-.248 1.524L3.464-31l-.408 2.5-.162 1-.408 2.5-.49 3.002h22.007L23.513-25l-.407-2.5-.162-1-.408-2.5-.288-1.768L22-34.291l-1.382-8.48v-.032h-.007L18-44.587l-5-3.416-5 3.416-2.61 1.784h-.008v.031M22-44l.2 1.197 1.672 10.035 1.795 10.77L26-20H0l2.128-12.768L3.8-42.803 4-44l1.775-1.183 5.745-3.831h.001L13-50l9 6m-11.231 2.931v1.342h1.24v-1.71l-.198.068-.203.064-.205.062-.21.06-.21.058Zm0 0" transform="matrix(4.29492 0 0 4.26451 4.295 217.49)"/>
    <path d="M4.46 131.988c0-.066 3.849-23.058 8.552-51.09l8.55-50.968L60.118 4.406l19.16 12.684c10.54 6.976 19.227 12.746 19.305 12.824.125.125 17.191 101.332 17.191 101.953 0 .219-6.195.246-55.656.246-30.61 0-55.652-.054-55.656-.125m102.974-8.703c-.055-.246-3.34-20.219-7.301-44.379-4.035-24.601-7.29-44.008-7.403-44.11-.195-.183-31.625-21.5-32.296-21.905-.317-.192-1.715.718-16.746 10.918-9.02 6.117-16.399 11.195-16.399 11.285 0 .207-14.36 87.789-14.473 88.273l-.086.371h94.797Zm0 0"/>
    <path d="M74.492 49.535c-4.523-1.305-7.215-5.176-8.504-12.246a71 71 0 0 1-.328-1.848c0-.027-5.324-.05-11.828-.05H42.008v-4.93h27.754l.093.781c.055.43.141 1.27.2 1.867.101 1.075.11 1.086.707 1.278l.601.191 1.047-1.113a45 45 0 0 0 1.977-2.29l.93-1.171 2.187 1.082 2.183 1.082-2.3 1.883c-2.172 1.781-2.543 2.16-2.121 2.16.222 0 4.101 1.863 4.5 2.164.277.207.21.344-.973 1.977l-1.273 1.75-.844-.493c-1.219-.707-5.418-2.8-5.485-2.734-.03.031.192.672.496 1.422 1.188 2.922 2.907 4.598 5.012 4.871.758.102.86.078 1.086-.277.14-.215.348-.868.465-1.457.113-.586.227-1.094.25-1.125.023-.032.68.578 1.457 1.359l1.418 1.418-.191.777c-.493 2.043-1.793 3.805-2.985 4.04-.953.19-2.203.066-3.707-.368m0 0"/>
    <path d="M74.508 71.777c-1.422-.468-1.832-.691-2.914-1.593-2.403-1.996-3.91-5.286-4.774-10.41-.257-1.536-.515-3.458-.574-4.27-.058-.813-.144-1.68-.195-1.93l-.086-.449h-4.938V71.68h-5.125V53.125h-2.726c-3.145 0-2.805-.234-2.98 2.05-.239 3.122-1.153 6.813-2.368 9.54-.855 1.93-2.516 4.433-3.941 5.953l-1.133 1.207-1.406-1.383c-.774-.758-1.657-1.57-1.965-1.8l-.555-.419 1.149-1.21c3.128-3.297 4.77-7.227 5.421-12.993l.106-.945H39.69v-4.926h5.957v-2.383c0-1.308-.058-2.379-.125-2.379-.07 0-.89.145-1.824.329-.937.18-1.765.328-1.844.328-.078 0-.187-.246-.242-.547-.058-.3-.43-1.172-.828-1.942l-.726-1.402 1.097-.21c2.059-.403 7.215-1.934 9.285-2.763l2.07-.828.579.602a135 135 0 0 1 1.691 1.832l1.117 1.234v-1.683l.004-1.684h5.125V48.2h9.559l.11 2.422c.148 3.371.199 3.64.714 3.836.395.148.54.055 1.824-1.203a90 90 0 0 0 1.977-1.977l.574-.617 2.133 1.09c1.172.598 2.129 1.14 2.129 1.203 0 .113-2.352 1.79-3.785 2.695l-.746.473.82.41c1.348.672 4.043 2.188 4.043 2.278 0 .058-2.094 2.882-2.59 3.496-.031.039-.184-.047-.344-.184-.363-.316-3.168-1.922-4.691-2.684-1.36-.68-1.34-.722-.727 1.668.864 3.387 2.375 5.512 4.309 6.07.652.188 1.047.227 1.223.118.257-.16.718-1.766.914-3.203l.105-.778.8.954c.442.527 1.102 1.21 1.466 1.523l.668.563-.305 1.23c-.469 1.89-.664 2.371-1.309 3.211-.925 1.21-1.343 1.445-2.625 1.492-.89.031-1.445-.07-2.765-.508M55.902 44.441v-3.757l-1.777.546c-.98.301-2.207.668-2.73.813l-.954.266v5.89h5.461Zm1.106 70.633-3.07-4.062 2.058-.047 2.055-.047V100.09H47.145l-.047 2.066-.043 2.063-4.106-3.059-4.11-3.062 4.063-3.028c2.235-1.664 4.102-3.027 4.149-3.027s.086.887.086 1.973v1.968H58.05V85.148h-4.137l3.059-4.023c1.687-2.215 3.105-4.031 3.16-4.035.05-.004 1.465 1.805 3.14 4.023l3.051 4.035h-4.136v10.836h10.914v-4.109l4.011 2.98a670 670 0 0 1 4.153 3.106c.078.07-1.707 1.508-3.97 3.191l-4.112 3.067-.047-2.063-.047-2.066H62.187v10.828l4.157.094-3.074 4.062c-1.688 2.235-3.098 4.067-3.133 4.067s-1.442-1.832-3.13-4.067m0 0"/>
    <path fill="#f9f9f9" d="M13.066 123.328c0-.527 14.391-88.035 14.512-88.226.184-.297 32.3-22.047 32.555-22.047.12 0 7.496 4.937 16.387 10.972 15.273 10.36 16.175 11 16.285 11.535.066.313 3.254 19.668 7.082 43.016 3.832 23.348 7.062 43.024 7.183 43.723l.22 1.273H60.175c-41.79 0-47.11-.027-47.11-.246m50.36-8.125c1.773-2.348 3.226-4.305 3.226-4.351s-.968-.086-2.152-.086h-2.148v-10.512h10.586v2.137c0 1.171.046 2.132.105 2.132.195 0 8.644-6.316 8.61-6.437-.02-.063-1.97-1.555-4.333-3.313l-4.3-3.203-.094 4.25H62.352v-10.5l2.16-.047 2.16-.043-3.258-4.316c-1.793-2.375-3.285-4.289-3.32-4.254a573 573 0 0 0-3.274 4.313l-3.215 4.257 2.141.043 2.14.047v10.5H47.31l-.043-2.125-.047-2.125-4.285 3.192a550 550 0 0 0-4.356 3.261c-.07.07 8.473 6.5 8.637 6.5.047 0 .086-.96.086-2.132v-2.137h10.586v10.512h-2.153c-1.18 0-2.148.039-2.148.086 0 .12 6.437 8.617 6.531 8.617.043 0 1.531-1.922 3.309-4.266m15.62-43.187c1.114-.79 1.93-2.356 2.411-4.625l.238-1.118-.902-.843a19 19 0 0 1-1.59-1.735c-.379-.492-.71-.87-.738-.843-.024.023-.13.671-.23 1.441-.102.766-.301 1.754-.446 2.191-.25.766-.277.793-.773.696-.551-.11-1.688-.63-2.098-.961-1.125-.91-2.484-3.668-2.89-5.867a11 11 0 0 0-.2-.887c-.07-.246.328-.094 1.863.715 1.075.562 2.414 1.312 2.973 1.664.563.351 1.086.636 1.168.633.082 0 .762-.829 1.516-1.836 1.129-1.516 1.328-1.871 1.148-2.051-.117-.117-1.2-.719-2.398-1.332l-2.184-1.113 1.86-1.262c1.023-.696 2.066-1.43 2.316-1.633l.457-.371-2.36-1.211-2.355-1.211-1.977 1.906c-1.882 1.82-2.402 2.153-2.675 1.715-.11-.176-.36-3.66-.383-5.348l-.012-.695h-9.59V36.54h-5.46v1.52l-.005 1.52-1.03-1.15a345 345 0 0 0-1.536-1.702l-.508-.559-2.43.93c-2.605.996-6.566 2.175-8.921 2.66-.797.164-1.446.363-1.446.441s.25.602.559 1.156c.309.56.691 1.383.855 1.833.16.453.352.886.422.968.11.13 2.29-.187 3.414-.492l.371-.102v4.473h-5.953v5.254h5.75l-.078.781c-.523 5.442-2.238 9.446-5.633 13.16l-1.035 1.133.785.578c.434.317 1.383 1.184 2.11 1.922l1.32 1.352 1.211-1.293c2.328-2.492 4.168-5.742 5.188-9.176.554-1.867 1.078-4.644 1.222-6.476.172-2.2-.137-1.98 2.809-1.98h2.558v18.554h5.461V53.289h4.602l.09.45c.047.25.133 1.081.187 1.847.055.77.285 2.543.508 3.941.816 5.145 2.305 8.543 4.648 10.63 1.102.976 1.434 1.167 3 1.722 1.563.55 1.91.617 3.024.57.988-.043 1.371-.133 1.793-.433m-.202-22.207c1.152-.532 2.094-1.996 2.531-3.942l.195-.875-1.582-1.61c-1.558-1.585-1.586-1.605-1.68-1.148-.328 1.543-.44 1.989-.609 2.407-.176.445-.222.46-.937.355-1.114-.168-2.192-.777-3.055-1.73-1-1.106-2.445-3.938-2.008-3.938.145 0 3.934 1.914 4.848 2.45.476.28.922.507.988.507.137 0 2.703-3.52 2.719-3.722.012-.196-1.395-.993-3.149-1.782-.843-.379-1.57-.726-1.609-.765-.043-.043.926-.903 2.156-1.91 1.227-1.012 2.23-1.895 2.23-1.965s-1.038-.641-2.308-1.266l-2.304-1.133-.383.48c-.828 1.055-2.766 3.301-3.16 3.665-.325.297-.528.36-.91.277-.47-.102-.497-.152-.594-1.207-.059-.605-.149-1.45-.2-1.879l-.093-.781H41.844v5.258h11.824c6.504 0 11.824.02 11.824.047 0 .03.149.859.332 1.847 1.317 7.14 4.059 11.02 8.684 12.266 2.484.672 3.062.683 4.336.094m0 0"/>
    <path fill="#f9f9f9" d="M50.61 45.246v-2.785l.949-.27c1.257-.351 3.71-1.078 3.968-1.175.164-.063.207.699.207 3.468v3.551H50.61Zm0 0"/>
</svg>
