<svg xmlns="http://www.w3.org/2000/svg" width="120" height="120" viewBox="0 0 120 136">
    <path fill="none" stroke="red" stroke-width=".004" d="m-77.325-1.854-.499.597-.25.299-.136-.161v.897h-.923v.75h1.384v1.104h-1.384v2.345l.703-.153-.645-.19-.005-.002.07-.266.074-.294v-.005l.074-.317.068-.32.057-.31.01-.072.033-.209.804.21.066.017.045.01-.045.144-.05.16-.098.311-.096.305-.025.076-.071.217-.093.27-.09.242.523-.108.075-.015.039.418.059.647-.173.045-.51.131-.445.114-.242.06-.68.171-.514.13-.145.036-.627.159-.582.15-.287-1.218.233-.047.233-.046.02-.004.27-.05.247-.049.036-.006.296-.055.306-.057V1.632h-1.452V.53h1.452v-.75h-.885v-.461l-.068.057-.068.056-.068.055-.173.138-.016.012-.009.007-.006.005-.049-.164-.072-.21-.088-.232-.027-.066-.07-.17-.097-.216-.01-.018-.08-.158.08-.059.343-.254.174-.149.245-.21.404-.397.13-.148.247-.28.338-.45.168-.274.11-.18.009-.013.053.02.106.04.144.054.71.269-.024.053-.026.052-.028.052-.03.052-.032.052-.02.03-.009.015-.005.008.306.247.3.253.285.253.199.186.065.061.235.234.2.215m-2.488-.154-.06.073-.09.109-.154.178-.157.175-.161.17h2.057l-.17-.172-.18-.18-.19-.182-.197-.184-.019-.017-.01-.01-.172-.156-.2-.176-.004-.003-.145.19-.116.145-.032.04m-4.806-.764L-85.07 0-86 5.71l-2.003 12.293h22.006L-67.952 6-68 5.709-68.93 0l-.452-2.772v-.03h-.007L-72-4.588l-5-3.416-5 3.416-2.61 1.784h-.008v.031m12.157-.784v4.889h-1.975l.055.189.034.11.024.075.062.182.058.16.007.02.068.176.071.176.2-.157.13-.107.07-.058.058-.05.133-.117.181-.167.165-.162.144-.155.007.008.54.592.27.297-.224.176-.233.176-.236.173-.237.167-.234.16-.228.152.212.295.229.273.176.18.071.07.266.227.287.203.154.088.06.034.04.023.025.014.02.01.01.008-.147.141-.158.17-.16.192-.151.199-.135.196-.11.182-.653-.495-.213-.235-.26-.287-.017-.02-.066-.072-.423-.649-.047-.071-.149-.31-.014-.03-.227-.476-.015-.042-.013-.038-.292-.82-.07-.26-.11-.417-.08-.3h-.543v2.944l.278-.073.407-.107.678-.178.006-.002.004.177v.003l.011.193.018.201.022.197.024.18.024.137.003.015-.906.28-.29.094-.375.121-.469.165-.18.074-.135.054-.206.103-.044.028-.043.028-.025.016-.017.011-.011.007-.037-.169-.056-.191-.07-.198-.08-.194-.063-.128-.022-.045-.005-.008-.05-.078-.025-.04-.008-.014.106-.057.1-.072.089-.094.024-.04.048-.08.047-.152.017-.187v-7.809h4.804M-68-4l.2 1.197.467 2.803L-64 20h-26l3.333-20 .467-2.803L-86-4l7.52-5.014h.001L-77-10l9 6m-5.818 13.525L-76.293 12l2.475 2.475-.707.707L-77 12.707l-2.475 2.475-.707-.707L-77.707 12l-2.475-2.475.707-.707 1.975 1.975V9h1v1.793l1.975-1.975.707.707m-6.89-7.533.018.056.076.252.088.325.08.33.07.32.058.302.043.27-.763.22-.032.007-.026.009-.02.005-.014.004-.03-.271-.051-.304-.066-.325-.078-.333-.086-.328-.09-.309.008-.002.616-.172.2-.056m6.98-4.452h-2.327v.828h2.375v-.828h-.049m0 1.855h-2.326v.85h2.375v-.85Zm0 0" transform="matrix(4.29492 0 0 4.26451 390.838 46.91)"/>
    <path d="M4.46 131.988c0-.066 3.849-23.058 8.552-51.09l8.55-50.968L60.118 4.406l19.16 12.684c10.54 6.976 19.227 12.746 19.305 12.824.125.125 17.191 101.332 17.191 101.953 0 .219-6.195.246-55.656.246-30.61 0-55.652-.054-55.656-.125m102.974-8.703c-.055-.246-3.34-20.219-7.301-44.379-4.031-24.574-7.293-44.008-7.403-44.11-.19-.179-31.625-21.5-32.296-21.905-.317-.192-1.72.722-16.746 10.914-9.02 6.12-16.399 11.199-16.399 11.289 0 .207-14.36 87.789-14.473 88.273l-.086.371h94.797Zm0 0"/>
    <path d="M40.031 68.93a138 138 0 0 0-.586-2.453c-.07-.215.157-.27 4.258-1.043l2.77-.524V53.781h-6.285v-4.597h6.285v-3.286h-3.801v-.984c0-.543-.05-.984-.11-.984-.058 0-.425.258-.812.574-.39.316-.777.574-.86.574-.085 0-.245-.316-.359-.7-.113-.382-.543-1.5-.96-2.483-.673-1.594-.723-1.801-.481-1.938.691-.383 2.976-2.316 4.332-3.664 1.644-1.637 3.566-4.02 4.383-5.434.394-.683.593-.882.797-.804.148.058 1.05.402 2.007.765.953.36 1.77.688 1.809.727.035.039-.09.351-.285.695l-.356.63 1.516 1.214c1.531 1.234 5.254 4.7 5.254 4.894 0 .055-.68.903-1.512 1.875-1.441 1.7-1.52 1.762-1.816 1.493-.301-.27-.309-.223-.309 1.636v1.914h-3.969v3.286h5.954v4.597H50.94v5.09c0 2.8.032 5.09.067 5.09.215 0 3.074-.695 3.074-.746 0-.035-.621-.25-1.383-.48l-1.383-.419.387-1.52a84 84 0 0 0 1.129-5.25c.059-.339.16-.612.223-.612.066.004.906.207 1.87.453l1.759.445-1.196 3.613c-.656 1.989-1.168 3.645-1.136 3.68.027.035.601-.047 1.273-.176l1.215-.242.191 2.133c.106 1.172.164 2.164.13 2.195-.083.082-16.161 4.145-16.415 4.149-.11.004-.418-.973-.715-2.254m14.215-27.59c0-.285-4.726-4.692-4.941-4.61-.078.032-.617.641-1.196 1.364a50 50 0 0 1-1.925 2.238c-.477.512-.868.977-.868 1.031 0 .055 2.008.102 4.465.102s4.465-.059 4.465-.125m0 0"/>
    <path d="M42.438 63.758a106 106 0 0 1-.344-1.93 46 46 0 0 0-.762-3.43c-.273-1.023-.465-1.894-.43-1.933.04-.035.762-.254 1.606-.485 1.23-.335 1.558-.375 1.668-.203.254.41 1.37 4.907 1.707 6.883l.097.586-1.57.441c-1.898.532-1.879.532-1.972.07m16.136 7.13c-.215-.703-.586-1.645-.828-2.09l-.441-.813.48-.328c.266-.18.64-.535.828-.789.348-.465.348-.504.39-17.777l.044-17.313H79.55V52.47h-4.215c-3.266 0-4.219.047-4.219.203.008.652 1.465 4.558 1.7 4.558.242 0 1.804-1.296 3.308-2.738l1.285-1.234 1.04 1.12c2.03 2.192 2.32 2.548 2.163 2.657-.086.063-.863.637-1.726 1.278-.864.64-2.11 1.519-2.766 1.953-.66.433-1.2.875-1.2.976 0 .301 2.083 2.797 3.024 3.625.473.418 1.438 1.137 2.14 1.598l1.282.836-.719.761c-.398.422-1.187 1.391-1.753 2.153a119 119 0 0 1-1.06 1.414c-.01.016-.616-.414-1.343-.953-4.125-3.059-7.387-8.707-9.363-16.196l-.531-2.011h-2.426v12.78l2.77-.723c1.523-.398 2.816-.726 2.87-.726s.192.89.301 1.984c.11 1.094.239 2.086.282 2.203.062.157-.684.453-2.614 1.055-3.539 1.102-6.808 2.25-7.781 2.738-.43.215-.84.39-.91.39s-.305-.577-.516-1.284m15.852-24.742v-1.887H64.172v3.777h10.254Zm0-7.965v-1.805H64.172v3.613h10.254ZM47.96 110.023l-1.398-1.398 5.333-5.293 5.328-5.297-5.29-5.25-5.292-5.254 1.445-1.441 1.441-1.438 4.262 4.227 4.262 4.23v-7.796h4.136v7.796l4.258-4.23 4.262-4.227 1.445 1.438 1.442 1.441-5.29 5.254-5.292 5.25 5.332 5.297 5.336 5.297-1.45 1.437-1.445 1.434-5.25-5.21c-2.89-2.868-5.328-5.216-5.418-5.216s-2.508 2.328-5.375 5.176c-2.863 2.844-5.246 5.172-5.293 5.172-.05 0-.719-.629-1.488-1.399m0 0"/>
    <path fill="#f9f9f9" d="M13.066 123.328c0-.527 14.391-88.035 14.512-88.226.184-.297 32.3-22.047 32.555-22.047.12 0 7.496 4.937 16.387 10.972 15.273 10.36 16.175 11 16.285 11.535.066.313 3.254 19.668 7.082 43.016 3.832 23.348 7.062 43.024 7.183 43.723l.22 1.273H60.175c-41.707 0-47.11-.027-47.11-.246m41.758-16.832 5.293-5.258 5.336 5.297 5.332 5.293 1.613-1.598 1.61-1.601-10.664-10.594 5.293-5.254 5.293-5.25-1.575-1.562-1.57-1.559-4.215 4.184-4.218 4.187v-7.633h-4.465v7.47l-4.094-4.063c-2.254-2.239-4.168-4.067-4.258-4.067s-.851.684-1.695 1.52l-1.535 1.515 5.336 5.297 5.332 5.301-10.664 10.594 1.527 1.515c.844.836 1.566 1.52 1.613 1.52s2.469-2.363 5.375-5.254m5.34-34.55c1.102-.551 4.762-1.829 8.523-2.977 1.922-.586 1.954-.606 1.864-1.035-.098-.485-.426-3.664-.426-4.141 0-.27-.254-.23-2.77.426-1.523.398-2.828.726-2.894.726-.07 0-.125-2.77-.125-6.156v-6.156h2.098l.535 2.012c1.562 5.89 3.969 10.753 6.879 13.917 1.265 1.372 4.078 3.614 4.172 3.329.144-.434 1.777-2.582 2.73-3.598.621-.656.953-1.125.828-1.168-.113-.04-.785-.441-1.488-.898-1.348-.868-3.559-2.98-4.461-4.262l-.535-.754.949-.621c.52-.34 1.8-1.254 2.844-2.031a711 711 0 0 1 2.058-1.524c.086-.058-.578-.91-1.476-1.887a438 438 0 0 1-1.817-1.984c-.144-.164-.488.078-1.562 1.098-.754.718-1.805 1.644-2.328 2.054-.828.645-.973.707-1.075.461-.332-.816-1.207-3.3-1.3-3.695l-.11-.45h8.442V31.614h-20.84v7.266l-1.7-1.621a76 76 0 0 0-3.265-2.926l-1.703-1.414c-.074-.063.016-.398.203-.746.188-.348.285-.684.219-.75-.13-.121-4.106-1.617-4.305-1.617-.066 0-.336.351-.598.78-1.75 2.83-4.87 6.243-7.625 8.333a123 123 0 0 1-1.53 1.156c-.024.016.21.57.519 1.242.312.668.77 1.809 1.023 2.532.25.722.516 1.379.59 1.46.074.087.469-.109.922-.46l.793-.618.05.918.048.914h3.789v2.958h-6.286v4.925h6.286v10.793l-3.493.672c-1.921.367-3.523.703-3.562.738-.04.04.207 1.266.547 2.723.504 2.149.668 2.633.875 2.57.14-.043 3.933-1.004 8.426-2.132 4.492-1.13 8.199-2.086 8.238-2.125.105-.102-.32-4.7-.434-4.692-.05 0-.578.106-1.168.23-.59.13-1.09.215-1.11.196-.019-.02.481-1.617 1.11-3.555.633-1.937 1.094-3.574 1.028-3.636s-.989-.332-2.051-.598l-1.934-.484-.191 1.167c-.238 1.442-1.285 6.036-1.403 6.153-.042.043-.082-1.742-.082-3.969v-4.05h5.954V49.02h-5.954v-2.958h3.97V44.32c0-1.488.034-1.718.234-1.554.191.16.53-.157 1.859-1.73l1.629-1.927.047 12.797c.027 7.035 0 13.203-.055 13.7-.094.804-.195.984-.906 1.671l-.801.77.465.875c.383.71.84 1.93 1.262 3.375.082.281.097.277 1.355-.352M44.45 63.878c1.02-.281 1.696-.547 1.696-.676 0-.465-.86-4.363-1.348-6.105-.317-1.141-.586-1.832-.7-1.785a95 95 0 0 1-1.84.527c-.91.25-1.667.465-1.683.472-.015.008.188.79.457 1.735.418 1.484.848 3.508 1.223 5.805.066.386.184.605.3.562.11-.039.962-.281 1.895-.535m0 0"/>
    <path fill="#f9f9f9" d="M46.75 40.027a57 57 0 0 0 1.863-2.207l.735-.933 1.418 1.293c.777.707 1.82 1.699 2.316 2.203l.906.918h-8.37Zm4.258 23.539c-.016-.14-.028-2.375-.028-4.968v-4.715h5.954V49.12H50.98V46h3.97v-1.773c0-.977.01-1.817.027-1.868.02-.078.046-.062.242.164.226.266.254.317.113.23-.117-.07-.2-.023-.23.13-.016.074-.028.812-.028 1.644v1.516h-3.969v2.996h5.954v4.887h-5.961l.015 4c.008 2.199.028 4.011.043 4.027.016.02.043.024.055.012.11-.11 1.094-4.45 1.398-6.153.078-.44.145-.757.145-.707.02.473-.742 4.086-1.344 6.364-.125.48-.222.894-.215.922.012.023.473.18 1.028.34l1.32.39.312.094-1.386.3c-.762.165-1.395.301-1.41.301-.012 0-.036-.109-.051-.25M64.32 38.203v-1.625h10.06v3.25H64.32Zm0 7.895v-1.625h10.06v3.254H64.32Zm0 0"/>
</svg>
