<svg xmlns="http://www.w3.org/2000/svg" width="100" height="100" viewBox="0 0 100 100">
    <path fill="#cdacd1" d="M14.566 18.404c0-2.11 1.73-3.84 3.84-3.84h63.2c2.1 0 3.83 1.73 3.83 3.84v63.2c0 2.1-1.73 3.83-3.83 3.83h-63.2c-2.11 0-3.84-1.73-3.84-3.83z"/>
    <path fill="none" stroke="#231f20" stroke-linecap="round" stroke-linejoin="round" stroke-width="3" d="M14.566 18.404c0-2.11 1.73-3.84 3.84-3.84h63.2c2.1 0 3.83 1.73 3.83 3.84v63.2c0 2.1-1.73 3.83-3.83 3.83h-63.2c-2.11 0-3.84-1.73-3.84-3.83z"/>
    <path fill="#dbdcdd" stroke="#231f20" stroke-linejoin="round" stroke-width="1.5" d="M38.986 36.454c-.56 1.87-1.47 3.58-3.15 4.92-2.83 2.27-6.66 2.92-9.69 4.86-6.66 4.27-7.17 14.29-1.76 19.75 1.72 1.74 3.79 3.4 6.25 3.73-.29-2.2.74-3.68 2.15-5.46-4.89.32-8.41-7.77-4.08-10.69 3.93-2.64 7.88 3.18 10.51 5.38 5.59 4.66 13.19 6.72 20.4 6.18 6.26-.46 12.11-3.68 15.44-9.06 1.73-2.78 2.94-6.05 3.09-9.33.24-5.15-2.53-12.07-4.32-16.97-1-2.77-1.29-2.42-3.96-2.35-.77.02-7.01-.63-7.11.5-.17 1.74.73 3.57.23 5.22-.5 1.01-13.02-.22-13.01-.13-.09-1.65.13-3.37-.2-4.98-.04-.19-8.39-.38-9.3-.52-.62 2.89-.64 6.11-1.49 8.95z"/>
    <path fill="#dbdcdd" stroke="#231f20" stroke-linecap="round" stroke-width="1.5" d="M47.426 57.294c1.32 3.56 7.25 5.26 10.31 3.75 4.47-2.2 6.54-10.46 1.78-13.39-3.94-2.42-7.22-2.19-11.58-.79"/>
    <path fill="#231f20" d="M43.236 51.804a1.925 1.925 0 1 0-3.85-.01 1.925 1.925 0 0 0 3.85.01"/>
    <path fill="#fff235" stroke="#231f20" stroke-linecap="round" stroke-linejoin="round" stroke-width="1.3" d="M28.976 72.254c.47-2.57 1.16-4.92 3.62-6.25 1.99-1.07 5.89-2.26 7.77-.31.38.61.55 1.31.33 2.07-.88.43-1.41.16-2.43.17-1.41.02-3.06.88-4.28 1.62-1.58.97-2.99 2.55-4.58 3.64-.29-.45-.05-1.13-.06-1.7-.17-.01-.13-.09-.19-.17"/>
    <path fill="#fff235" stroke="#231f20" stroke-linecap="round" stroke-linejoin="round" stroke-width="1.3" d="M28.396 72.044c-.44-2.58-.59-5.02 1.27-7.11 1.5-1.68 4.76-4.13 7.19-2.94.58.44.97 1.04 1.02 1.84-.67.7-1.26.62-2.23.99-1.31.49-2.57 1.86-3.46 2.98-1.16 1.45-1.95 3.41-3.07 4.98-.42-.33-.43-1.05-.64-1.58-.16.05-.15-.04-.23-.1"/>
    <path fill="#fff235" stroke="#231f20" stroke-linecap="round" stroke-linejoin="round" stroke-width="1.3" d="M30.006 66.444c-.79 1.72-.91 3.74-1.81 5.37-4.58-2.38-.4-13.27 4.93-12.14.66.29 1.19.77 1.44 1.53-.49.84-1.08.92-1.93 1.5-1.15.8-2.04 2.44-2.63 3.74"/>
    <path fill="#1163af" stroke="#231f20" stroke-linecap="round" stroke-linejoin="round" stroke-width=".8" d="m82.356 81.554-1.72-6.3-4.6 5.09zm.2-63.36-6.33 1.57 4.98 4.72zm-64.25 63.36 6.43-1.15-4.66-5.03zm0-63.36 1.43 6.37 4.83-4.87zm29.83 61.42c0-1.47 1.19-2.66 2.67-2.66 1.47 0 2.67 1.19 2.67 2.66 0 1.48-1.2 2.67-2.67 2.67-1.48 0-2.67-1.19-2.67-2.67m0-59.23a2.67 2.67 0 1 1 5.339-.001 2.67 2.67 0 0 1-5.339.001m-28.97 29.34a2.67 2.67 0 1 1 5.34 0c0 1.48-1.19 2.67-2.67 2.67a2.67 2.67 0 0 1-2.67-2.67m57.94 0a2.67 2.67 0 0 1 2.67-2.67c1.47 0 2.66 1.2 2.66 2.67 0 1.48-1.19 2.67-2.66 2.67-1.48 0-2.67-1.19-2.67-2.67"/>
</svg>
