<svg xmlns="http://www.w3.org/2000/svg" width="100" height="100" viewBox="0 0 100 100">
    <path fill="#bae4ef" d="M14.57 18.406c0-2.11 1.72-3.84 3.83-3.84h63.2c2.11 0 3.83 1.73 3.83 3.84v63.2c0 2.1-1.72 3.83-3.83 3.83H18.4c-2.11 0-3.83-1.73-3.83-3.83z"/>
    <path fill="none" stroke="#231f20" stroke-linecap="round" stroke-linejoin="round" stroke-width="3" d="M14.57 18.406c0-2.11 1.72-3.84 3.83-3.84h63.2c2.11 0 3.83 1.73 3.83 3.84v63.2c0 2.1-1.72 3.83-3.83 3.83H18.4c-2.11 0-3.83-1.73-3.83-3.83z"/>
    <path fill="#fadce9" stroke="#231f20" stroke-width="1.5" d="M42.52 50.516c-5.37 2.55-9.69-3.56-9.58-8.24.13-5.71 3.83-9.65 9-11.54 5.13-1.88 11.7-1.85 16.34 1.32 4.09 2.79 4.94 5.07 4.94 9.83"/>
    <path fill="#fadce9" stroke="#231f20" stroke-width="1.5" d="M30.2 49.836a2.68 2.68 0 1 1 5.36 0 2.68 2.68 0 0 1-5.36 0zm33.25 11.82c-.6-3.19 1.18-5.39 2.53-8.13 2.16-4.36 1.13-9-2.56-12.14-5-4.24-11.01-4.21-16.54-1.08-5.32 3.02-6.22 10.53-1.96 15.07 2.72 2.89 2.17 5.56.71 8.87-.95 2.14-2.22 4.78-2.41 7.13-.25 3.04 2.34 4.51 4.46 1.45 1.31-1.9 1.88-4.18 2.84-6.25 1.6-3.5 3.68-8.6 7.67-3.82 2.57 3.1 1.45 8.72 4.6 11.47 1.98 1.72 3.46.94 3.74-1.5.44-3.77-2.4-7.46-3.08-11.07z"/>
    <path fill="#231f20" stroke="#231f20" stroke-width="1.3" d="M58.34 50.736c0-.47.38-.86.85-.86a.86.86 0 0 1 .86.86c0 .47-.38.85-.86.85a.85.85 0 0 1-.85-.85zm-8.4.02c0-.47.39-.85.86-.85a.85.85 0 1 1 0 1.7c-.47 0-.86-.38-.86-.85z"/>
    <path fill="#fefefe" stroke="#231f20" stroke-linecap="round" stroke-linejoin="round" stroke-width="1.5" d="M56.02 44.146c-.69-.58-1.71-.58-2.4 0"/>
    <path fill="#1163af" stroke="#231f20" stroke-linecap="round" stroke-linejoin="round" stroke-width=".8" d="M47.33 79.616c0-1.47 1.19-2.66 2.67-2.66 1.47 0 2.67 1.19 2.67 2.66 0 1.48-1.2 2.67-2.67 2.67-1.48 0-2.67-1.19-2.67-2.67m-28.97 0c0-1.47 1.2-2.66 2.67-2.66 1.48 0 2.67 1.19 2.67 2.66 0 1.48-1.19 2.67-2.67 2.67a2.67 2.67 0 0 1-2.67-2.67m57.94 0c0-1.47 1.19-2.66 2.67-2.66 1.47 0 2.66 1.19 2.66 2.66 0 1.48-1.19 2.67-2.66 2.67-1.48 0-2.67-1.19-2.67-2.67m-28.97-59.23a2.67 2.67 0 1 1 5.339-.001 2.67 2.67 0 0 1-5.339.001m-28.97 29.34a2.67 2.67 0 1 1 5.34 0c0 1.48-1.19 2.67-2.67 2.67a2.67 2.67 0 0 1-2.67-2.67m57.94 0a2.67 2.67 0 0 1 2.67-2.67c1.47 0 2.66 1.2 2.66 2.67 0 1.48-1.19 2.67-2.66 2.67-1.48 0-2.67-1.19-2.67-2.67"/>
    <path fill="#e0e45a" stroke="#231f20" stroke-linecap="round" stroke-linejoin="round" stroke-width="1.3" d="M67.93 38.616c1.74 1.66 5.26 3.61 6.91 1.09-2.29-2.22-3.76-1.28-6.46-1.97"/>
    <path fill="#e0e45a" stroke="#231f20" stroke-linecap="round" stroke-linejoin="round" stroke-width="1.3" d="M67.51 39.156c2.77-.5 2.99 4.65 2.39 4.55-1.85-.28-2.55-2.85-3.01-4.38"/>
    <path fill="#f7932f" stroke="#231f20" stroke-linecap="round" stroke-linejoin="round" stroke-width="1.3" d="M58.23 34.396c-.95-1.14-4.79-3.77-4.54-5.46.35-2.4 6.71.13 8.16.78 3.09 1.38 10.86 6.97 4.19 9.79-2.25.95-5.26-2.01-7.81-5.11"/>
</svg>
