<svg xmlns="http://www.w3.org/2000/svg" width="100" height="100" viewBox="0 0 100 100">
    <path fill="#e8eca1" d="M14.57 18.406c0-2.11 1.72-3.84 3.83-3.84h63.2c2.11 0 3.83 1.73 3.83 3.84v63.2c0 2.11-1.72 3.83-3.83 3.83H18.4c-2.11 0-3.83-1.72-3.83-3.83z"/>
    <path fill="none" stroke="#231f20" stroke-linecap="round" stroke-linejoin="round" stroke-width="3" d="M14.57 18.406c0-2.11 1.72-3.84 3.83-3.84h63.2c2.11 0 3.83 1.73 3.83 3.84v63.2c0 2.11-1.72 3.83-3.83 3.83H18.4c-2.11 0-3.83-1.72-3.83-3.83z"/>
    <path fill="#1163af" stroke="#231f20" stroke-linecap="round" stroke-linejoin="round" stroke-width=".8" d="M47.18 79.316a2.67 2.67 0 1 1 5.34 0c0 1.47-1.2 2.66-2.67 2.66s-2.67-1.19-2.67-2.66m-28.97 0c0-1.48 1.2-2.67 2.67-2.67 1.48 0 2.67 1.19 2.67 2.67 0 1.47-1.19 2.66-2.67 2.66-1.47 0-2.67-1.19-2.67-2.66m57.94 0c0-1.48 1.19-2.67 2.67-2.67 1.47 0 2.66 1.19 2.66 2.67 0 1.47-1.19 2.66-2.66 2.66-1.48 0-2.67-1.19-2.67-2.66m-28.97-59.24c0-1.47 1.2-2.66 2.67-2.66s2.67 1.19 2.67 2.66a2.67 2.67 0 1 1-5.34 0m-28.97 29.35a2.67 2.67 0 1 1 5.34 0c0 1.47-1.2 2.66-2.67 2.66s-2.67-1.19-2.67-2.66m57.94 0c0-1.48 1.19-2.67 2.67-2.67 1.47 0 2.66 1.19 2.66 2.67 0 1.47-1.19 2.66-2.66 2.66-1.48 0-2.67-1.19-2.67-2.66"/>
    <path fill="none" stroke="#231f20" stroke-linecap="round" stroke-linejoin="round" stroke-width="1.5" d="M49.13 33.656v-3.78m2.75-1.38c-.86.45-1.51 1.23-2.58 1.04m-.17-2.93v2.93m-2.58-1.04c.89.31 1.82.92 2.75 1.21"/>
    <path fill="#da372b" stroke="#231f20" stroke-linecap="round" stroke-linejoin="round" stroke-width="1.5" d="M61.31 64.666c-.27 1.52-4.17 8.94-6.73 8.34-1.55-.36-.62-5.09-.21-6.36-.36 1.78-2.34 4.25-4.28 4.45-.1-1.73-.42-4.19.64-5.46-1.12 1.32-2.39 1.71-4.04 2.16-1.46-1.48.87-4.35 1.68-4.81"/>
    <path fill="#fefefe" stroke="#231f20" stroke-linecap="round" stroke-linejoin="round" stroke-width="1.5" d="M45.33 49.776c1.43.9 2.24 2.7 2.6 6.79.34 3.97.94 8.23 5.33 9.87 6.09 2.27 9.16-2.07 11.75-6.38 3.02-5.03 1.21-12.91-.37-18.16-4.46-14.81-36.89-12.68-33.6 5.57 4.5.32 10.24-.22 14.29 2.31"/>
    <path fill="#da372b" stroke="#231f20" stroke-linecap="round" stroke-linejoin="round" stroke-width="1.5" d="M65.91 59.676c2.1.23 3.25-1.71 4.29-3.12-.87-.37-1.84-.47-2.85-.47"/>
    <path fill="#231f20" stroke="#231f20" stroke-linecap="round" stroke-linejoin="round" stroke-width="1.5" d="M59.2 59.556c0-.59.48-1.08 1.08-1.08.59 0 1.08.49 1.08 1.08 0 .6-.49 1.08-1.08 1.08-.6 0-1.08-.48-1.08-1.08"/>
</svg>
