<svg xmlns="http://www.w3.org/2000/svg" width="100" height="100" viewBox="0 0 100 100">
    <path fill="#cdacd1" d="M14.566 18.406c0-2.11 1.73-3.84 3.84-3.84h63.2c2.1 0 3.83 1.73 3.83 3.84v63.2c0 2.1-1.73 3.83-3.83 3.83h-63.2c-2.11 0-3.84-1.73-3.84-3.83z"/>
    <path fill="none" stroke="#231f20" stroke-linecap="round" stroke-linejoin="round" stroke-width="3" d="M14.566 18.406c0-2.11 1.73-3.84 3.84-3.84h63.2c2.1 0 3.83 1.73 3.83 3.84v63.2c0 2.1-1.73 3.83-3.83 3.83h-63.2c-2.11 0-3.84-1.73-3.84-3.83z"/>
    <path fill="#e1e2e3" stroke="#231f20" stroke-linecap="round" stroke-linejoin="round" stroke-width="1.5" d="M36.706 39.136c-.27 1.72-.43 3.51-.74 5.2-2.2-3.44 1.65-10.25-.7-12.58-.38-.38-4.51-1.84-4.58-1.58-1.49 4.87-4.11 9.85-4.54 14.98-.34 4.16-.25 8.69 2.03 12.36 5.3 8.49 16.66 12.99 27.1 12.22 6.78-.5 13.12-3.99 16.74-9.82 1.87-3.01 3.19-6.56 3.35-10.12.17-3.72-.61-7.48-1.83-10.98-1.12-3.22-1.85-5.98-2.61-9.31 0 .03-9.13.22-9.12-.07-.03.66.52 6.44-.42 6.49-1.15.06-14.29.65-14.32-.39-.03-1.88.14-4-.06-5.85-1.14.15-9.32-.84-9.32.93.01 2.83-.53 5.67-.98 8.52"/>
    <path fill="#dddedf" stroke="#231f20" stroke-linecap="round" stroke-linejoin="round" stroke-width="1.5" d="M42.306 59.006c1.49 3.86 8.2 5.7 11.66 4.07 5.04-2.39 7.4-11.34 2.01-14.51-4.46-2.63-8.17-2.38-13.1-.86"/>
    <path fill="#231f20" d="M37.946 54.586c0-1.15-.94-2.08-2.09-2.08s-2.08.93-2.08 2.08.93 2.09 2.08 2.09 2.09-.94 2.09-2.09"/>
    <path fill="#dddedf" stroke="#231f20" stroke-linecap="round" stroke-linejoin="round" stroke-width="1.2" d="M46.946 34.796v-2.56"/>
    <path fill="#ef553a" stroke="#231f20" stroke-linecap="round" stroke-linejoin="round" stroke-width=".8" d="m81.856 81.406-1.71-6.3-4.6 5.08zm.21-63.37-6.34 1.58 4.99 4.71zm-64.25 63.37 6.42-1.15-4.65-5.04zm0-63.37 1.43 6.37 4.82-4.87z"/>
</svg>
