<svg xmlns="http://www.w3.org/2000/svg" width="100" height="100" viewBox="0 0 100 100">
    <path fill="#fbbd7a" d="M14.566 18.404c0-2.11 1.73-3.84 3.84-3.84h63.2c2.1 0 3.83 1.73 3.83 3.84v63.2c0 2.1-1.73 3.83-3.83 3.83h-63.2c-2.11 0-3.84-1.73-3.84-3.83z"/>
    <path fill="none" stroke="#231f20" stroke-linecap="round" stroke-linejoin="round" stroke-width="3" d="M14.566 18.404c0-2.11 1.73-3.84 3.84-3.84h63.2c2.1 0 3.83 1.73 3.83 3.84v63.2c0 2.1-1.73 3.83-3.83 3.83h-63.2c-2.11 0-3.84-1.73-3.84-3.83z"/>
    <path fill="#ffeba2" stroke="#231f20" stroke-width="1.6" d="M56.386 66.564c10.44-5.85 17.8-19.18 10.79-29.12-3.86-5.46-6.13 2.89-6.53 6.2.48-3.96-.18-9.32-4.01-11.32-9.73-5.1-15.4 2.94-16.25 12.12-.03-2.25.18-5.42-.73-7.53-1.02-2.34-5.01-3.61-7.39-1.85-4.72 3.51-3.76 21.31-.87 25.77 4.23 6.54 18.44 9.4 24.99 5.73z"/>
    <path fill="#8a682b" stroke="#231f20" stroke-width="1.6" d="M59.316 53.564c-.57 2.28-1.97 8.23 1.23 9.11 3.89 1.07 6.25-5.87 7.42-8.34 2.57-5.45 2.78-11.82-.79-16.89-5.51-7.8-7.34 14.1-7.86 16.12z"/>
    <path fill="#231f20" stroke="#231f20" stroke-width="1.8" d="M54.366 51.674c0-.68.55-1.24 1.23-1.24s1.23.56 1.23 1.24a1.23 1.23 0 1 1-2.46 0zm-11.08.51c0-.68.55-1.23 1.23-1.23s1.24.55 1.24 1.23-.56 1.24-1.24 1.24-1.23-.56-1.23-1.24z"/>
    <path fill="none" stroke="#231f20" stroke-linecap="round" stroke-linejoin="round" stroke-width="1.6" d="M55.076 39.734c-2.67.01-3.72.7-4 3.55"/>
    <path fill="none" stroke="#231f20" stroke-linecap="round" stroke-linejoin="round" stroke-width="1.6" d="M47.636 38.844c2.17-.03 4.28 2.29 3.44 4.55"/>
    <path fill="#c38329" stroke="#231f20" stroke-width="1.6" d="M31.986 35.114c-2.55 1.9-3.93 9.16-3.59 15.81.34 6.46 2.31 12.35 6.42 12.18 3.39-.13 4.56-5.52 5.14-8 .58-2.49.55-5.23.5-7.77-.09-4.59.04-8.43-2.37-12.49-2.43-.71-3.82-1.42-6.1.27z"/>
    <path fill="#f06340" stroke="#231f20" stroke-linecap="round" stroke-linejoin="round" stroke-width=".8" d="M47.166 79.494c0-1.5 1.22-2.71 2.72-2.71s2.72 1.21 2.72 2.71-1.22 2.72-2.72 2.72-2.72-1.22-2.72-2.72m-29.07 0c0-1.5 1.22-2.71 2.72-2.71s2.72 1.21 2.72 2.71-1.22 2.72-2.72 2.72-2.72-1.22-2.72-2.72m58.46 0c0-1.5 1.22-2.71 2.72-2.71s2.72 1.21 2.72 2.71-1.22 2.72-2.72 2.72-2.72-1.22-2.72-2.72m-29.39-59.09c0-1.5 1.22-2.72 2.72-2.72s2.72 1.22 2.72 2.72-1.22 2.71-2.72 2.71-2.72-1.21-2.72-2.71m-29.07 29.9c0-1.51 1.22-2.72 2.72-2.72s2.72 1.21 2.72 2.72c0 1.5-1.22 2.71-2.72 2.71s-2.72-1.21-2.72-2.71m58.46 0c0-1.51 1.22-2.72 2.72-2.72s2.72 1.21 2.72 2.72c0 1.5-1.22 2.71-2.72 2.71s-2.72-1.21-2.72-2.71"/>
</svg>
