<svg xmlns="http://www.w3.org/2000/svg" width="100" height="100" viewBox="0 0 100 100">
    <path fill="#f8b8b9" d="M14.57 18.406c0-2.11 1.72-3.84 3.83-3.84h63.2c2.11 0 3.83 1.73 3.83 3.84v63.2c0 2.11-1.72 3.83-3.83 3.83H18.4c-2.11 0-3.83-1.72-3.83-3.83z"/>
    <path fill="none" stroke="#231f20" stroke-linecap="round" stroke-linejoin="round" stroke-width="3" d="M14.57 18.406c0-2.11 1.72-3.84 3.83-3.84h63.2c2.11 0 3.83 1.73 3.83 3.84v63.2c0 2.11-1.72 3.83-3.83 3.83H18.4c-2.11 0-3.83-1.72-3.83-3.83z"/>
    <path fill="#f06340" stroke="#231f20" stroke-linecap="round" stroke-linejoin="round" stroke-width=".8" d="M47.62 79.436c0-1.5 1.22-2.72 2.72-2.72s2.72 1.22 2.72 2.72-1.22 2.71-2.72 2.71-2.72-1.21-2.72-2.71m-29.07 0c0-1.5 1.22-2.72 2.72-2.72s2.72 1.22 2.72 2.72-1.22 2.71-2.72 2.71-2.72-1.21-2.72-2.71m58.46 0c0-1.5 1.22-2.72 2.72-2.72s2.72 1.22 2.72 2.72-1.22 2.71-2.72 2.71-2.72-1.21-2.72-2.71m-29.39-59.1c0-1.5 1.22-2.71 2.72-2.71s2.72 1.21 2.72 2.71-1.22 2.72-2.72 2.72-2.72-1.22-2.72-2.72m-29.07 0a2.72 2.72 0 0 1 5.44 0c0 1.51-1.22 2.72-2.72 2.72s-2.72-1.21-2.72-2.72m58.46 0a2.72 2.72 0 0 1 5.44 0c0 1.51-1.22 2.72-2.72 2.72s-2.72-1.21-2.72-2.72m-58.46 29.9c0-1.5 1.22-2.72 2.72-2.72s2.72 1.22 2.72 2.72-1.22 2.72-2.72 2.72-2.72-1.22-2.72-2.72m58.46 0c0-1.5 1.22-2.72 2.72-2.72s2.72 1.22 2.72 2.72-1.22 2.72-2.72 2.72-2.72-1.22-2.72-2.72"/>
    <path fill="#e2a635" stroke="#231f20" stroke-linecap="round" stroke-linejoin="round" stroke-width="1.6" d="M75.95 43.276c-3.92 2.48-8.45 6.01-8.77 10.73-.15 2.1 7.38 12.84 10 12.94-5.36-.2-10.6.01-14.93-3.05.06.04.14 9.77.1 10.36-.38.99-11.88-6.47-12.61-7.57-.11-.16-11.48 8.89-12.33 9.39-.38-3.27-.68-7.31-.7-10.61-4.29 1.72-8.97.89-13.5.66.2.01 9.16-8.54 9.03-9.24-.99-5.01-4.88-8.28-7.34-12.44 3.45-1.26 6.67-2.94 9.94-4.52-.66.32-4.96-12.65-5.22-14.1 4.89 6.41 19.9 7.04 27.17 5.77 4.84-.85 9.02-3.61 13.49-5.51-1.18 4.97-2.78 8.13-4.38 13.14 3.36 1.85 7.14 3.49 11.1 3.39q-.51.31-1.05.66"/>
    <path fill="#ffe07f" stroke="#231f20" stroke-linecap="round" stroke-linejoin="round" stroke-width="1.6" d="M37.92 54.326q-.3-.92-.45-1.96c-.95-6.76.92-14.65 8.37-16.55 6.29-1.61 13.54 2.01 15.74 8.16 2.43 6.76-.07 14.87-7.41 16.82-6.41 1.71-14.1.13-16.25-6.47"/>
    <path fill="#231f20" stroke="#231f20" stroke-linecap="round" stroke-linejoin="round" stroke-width=".8" d="M53 51.436c0-.64.52-1.16 1.17-1.16.64 0 1.16.52 1.16 1.16a1.165 1.165 0 1 1-2.33 0m-8.2.04a1.165 1.165 0 1 1 2.33-.01 1.165 1.165 0 0 1-2.33.01"/>
    <path fill="none" stroke="#231f20" stroke-linecap="round" stroke-linejoin="round" stroke-width="1.6" d="M53.95 43.366c-2.71.02-3.77.72-4.06 3.61"/>
    <path fill="none" stroke="#231f20" stroke-linecap="round" stroke-linejoin="round" stroke-width="1.6" d="M46.4 42.466c2.2-.02 4.34 2.32 3.49 4.62"/>
    <path fill="none" stroke="#231f20" stroke-linecap="round" stroke-linejoin="round" stroke-width="1.6" d="M52.03 43.146c-.81-.96-3.18-1.87-3.59 0"/>
</svg>
