<svg xmlns="http://www.w3.org/2000/svg" width="100" height="100" viewBox="0 0 100 100">
    <path fill="#e8eca1" d="M14.566 18.406c0-2.11 1.73-3.84 3.84-3.84h63.2c2.1 0 3.83 1.73 3.83 3.84v63.2c0 2.11-1.73 3.83-3.83 3.83h-63.2c-2.11 0-3.84-1.72-3.84-3.83z"/>
    <path fill="none" stroke="#231f20" stroke-linecap="round" stroke-linejoin="round" stroke-width="3" d="M14.566 18.406c0-2.11 1.73-3.84 3.84-3.84h63.2c2.1 0 3.83 1.73 3.83 3.84v63.2c0 2.11-1.73 3.83-3.83 3.83h-63.2c-2.11 0-3.84-1.72-3.84-3.83z"/>
    <path fill="#f0633d" stroke="#231f20" stroke-linecap="round" stroke-linejoin="round" stroke-width=".8" d="M46.906 78.236c0-1.65 1.33-2.98 2.98-2.98s2.99 1.33 2.99 2.98-1.34 2.98-2.99 2.98-2.98-1.33-2.98-2.98"/>
    <path fill="#ffd801" stroke="#231f20" stroke-linecap="round" stroke-linejoin="round" stroke-width="1.5" d="M67.516 47.826c-.86.55-2.87 1.84-3.33 2.69-.53.99-.15 2.58-.55 3.71-.76 2.19-2.59 4.49-5.12 5.16-7 1.88-8.29-4.26-8.18-9-2.95.67-6.59-.07-9.66-.07-2.37 0-4.62-.11-6.96-.22-.54-.02 1.52-4.26 1.67-4.55 1.3-2.55 2.53-4.65 4.77-6.47 7.1-5.74 18.15-4.04 21.48 5.28.45 1.29.17 2.45 1.34 3.06.16.08 4.49.45 4.54.41"/>
    <path fill="#231f20" stroke="#231f20" stroke-linecap="round" stroke-linejoin="round" stroke-width="1.5" d="M57.816 53.216c0-.58.48-1.05 1.06-1.05s1.05.47 1.05 1.05-.47 1.06-1.05 1.06-1.06-.48-1.06-1.06"/>
    <path fill="none" stroke="#231f20" stroke-linecap="round" stroke-linejoin="round" stroke-width="1.5" d="M49.136 35.876v-5.15m3.74-1.87c-1.17.6-2.06 1.67-3.5 1.41m-.24-3.98v3.98m-3.5-1.41c1.2.42 2.47 1.25 3.74 1.64"/>
</svg>
