<svg xmlns="http://www.w3.org/2000/svg" width="100" height="100" viewBox="0 0 100 100">
    <path fill="#cdacd1" d="M14.57 18.404c0-2.11 1.72-3.84 3.83-3.84h63.2c2.1 0 3.83 1.73 3.83 3.84v63.2c0 2.1-1.73 3.83-3.83 3.83H18.4c-2.11 0-3.83-1.73-3.83-3.83z"/>
    <path fill="none" stroke="#231f20" stroke-linecap="round" stroke-linejoin="round" stroke-width="3" d="M14.57 18.404c0-2.11 1.72-3.84 3.83-3.84h63.2c2.1 0 3.83 1.73 3.83 3.84v63.2c0 2.1-1.73 3.83-3.83 3.83H18.4c-2.11 0-3.83-1.73-3.83-3.83z"/>
    <path fill="#ffe434" stroke="#231f20" stroke-linecap="round" stroke-linejoin="round" stroke-width="1.5" d="M65.17 79.814c-.31 1.45-.84.84.32 1.46-.23-1.54-.04-1.46.23-3.03.19-1.07 1.26-2.26 1.72-3.27.85-1.88 1.79-5.07 1.72-7.2-.02-.93-3.92 1.62-4.01 1.63-1.54.25-1.63-.67-1.79-2.09-.27-2.45.47-4.94.47-7.39 0-6.85-.18-13.69-.39-20.54-.22-7.17-.43-14.3-.79-21.44-1.68-.11-3.44-.1-5.12 0-.32 4.76-.1 9.33-.19 14.05-.01.19-6.53.09-7.12.08-.52-.01-8.15-.3-8.16-.59-.24-4.57.74-9.05.43-13.61-1.51-.13-3.2-.02-4.7.26-.46.08-2.07 22.35-1.78 23.81 1.08 5.37 6.19 5.85 10.72 5.86 3.59.02 7.2-.36 10.84-.15.36 6.68.77 13.34.77 20.01 0 2.46-1.08 4.94-.7 7.41.19 1.21.81 2.1.99 3.26.23 1.49-.2 1.34.41 2.82.68-1.2 1.08-.72 1.18-2.46 1.41-.07 2.67-.18 3.96-.39.06 1.09.3 2.44 1.31 2.97-.62-.33-.29-1.59.26-2.91"/>
    <path fill="#231f20" stroke="#231f20" stroke-linecap="round" stroke-linejoin="round" stroke-width="1.5" d="M47.12 44.654c0-1.01 1-1.82 2.24-1.82s2.25.81 2.25 1.82-1.01 1.82-2.25 1.82-2.24-.81-2.24-1.82m11.02-7.12c0-1.12 1.01-2.03 2.27-2.03 1.25 0 2.27.91 2.27 2.03s-1.02 2.03-2.27 2.03c-1.26 0-2.27-.91-2.27-2.03m1.99 19.54c0-.76.75-1.37 1.68-1.37s1.68.61 1.68 1.37c0 .75-.75 1.37-1.68 1.37s-1.68-.62-1.68-1.37m-1.29 10.33c0-.91.72-1.64 1.6-1.64s1.6.73 1.6 1.64-.72 1.64-1.6 1.64-1.6-.73-1.6-1.64"/>
    <path fill="none" stroke="#231f20" stroke-linecap="round" stroke-linejoin="round" stroke-width="1.5" d="M31.82 47.234c-.07-2.85 5.71-4.83 8.05-4.79"/>
    <path fill="#ffe434" stroke="#231f20" stroke-linecap="round" stroke-linejoin="round" stroke-width="1.6" d="M59.33 77.824c-1.51.6-2.55.5-4.17.31.38-1.26 1.77-2.56 3.67-2.66"/>
    <path fill="#231f20" stroke="#231f20" stroke-linecap="round" stroke-linejoin="round" stroke-width="1.5" d="M58.31 47.714c0-.76.76-1.37 1.68-1.37.93 0 1.69.61 1.69 1.37 0 .75-.76 1.36-1.69 1.36-.92 0-1.68-.61-1.68-1.36m-11.32-13.32c0-1.12 1.02-2.03 2.27-2.03 1.26 0 2.27.91 2.27 2.03s-1.01 2.03-2.27 2.03c-1.25 0-2.27-.91-2.27-2.03m-10.92 2.49c0-1.12 1.01-2.03 2.27-2.03 1.25 0 2.27.91 2.27 2.03s-1.02 2.03-2.27 2.03c-1.26 0-2.27-.91-2.27-2.03m28.18 38.33c0-.27.22-.48.48-.48.27 0 .48.21.48.48s-.21.48-.48.48a.48.48 0 0 1-.48-.48"/>
    <path fill="#f0633d" stroke="#231f20" stroke-linecap="round" stroke-linejoin="round" stroke-width=".8" d="m82.4 50.264-5.66-3.24.34 6.85zm-32.21 31.76 3.46-5.53-6.86.08zm-32.53-30.98 5.51 3.5-.03-6.86zm32.58-33.43-3.45 5.54 6.86-.08z"/>
</svg>
