<svg xmlns="http://www.w3.org/2000/svg" width="100" height="100" viewBox="0 0 100 100">
    <path fill="#fbbd7a" d="M14.57 18.404c0-2.11 1.72-3.84 3.83-3.84h63.2c2.11 0 3.83 1.73 3.83 3.84v63.2c0 2.1-1.72 3.83-3.83 3.83H18.4c-2.11 0-3.83-1.73-3.83-3.83z"/>
    <path fill="none" stroke="#231f20" stroke-linecap="round" stroke-linejoin="round" stroke-width="3" d="M14.57 18.404c0-2.11 1.72-3.84 3.83-3.84h63.2c2.11 0 3.83 1.73 3.83 3.84v63.2c0 2.1-1.72 3.83-3.83 3.83H18.4c-2.11 0-3.83-1.73-3.83-3.83z"/>
    <path fill="#ffeba2" stroke="#231f20" stroke-linecap="round" stroke-linejoin="round" stroke-width="1.6" d="M60.43 68.414c-.43-.43 4.41-7.96 4.81-8.72 2.44-4.78 4.15-9.81 3.76-15.31-.81-11.37-12.94-14.72-22.82-14.62-9.07.09-16.8 6.37-17.2 15.72-.3 6.97 6.09 20.59 12.47 23.81-.78-.4 3.26-6.29 3.67-6.81 1.95-2.49 4.61-2.47 7.92-1.89 2.84.5 5.25 5.76 7.39 7.82"/>
    <path fill="#231f20" stroke="#231f20" stroke-width="1.8" d="M53.19 49.824c0-.68.55-1.24 1.23-1.24s1.24.56 1.24 1.24-.56 1.23-1.24 1.23-1.23-.55-1.23-1.23zm-11.08.51c0-.68.55-1.23 1.23-1.23.69 0 1.24.55 1.24 1.23s-.55 1.24-1.24 1.24c-.68 0-1.23-.56-1.23-1.24z"/>
    <path fill="#231f20" stroke="#231f20" stroke-linecap="round" stroke-linejoin="round" stroke-width="1.4" d="M37.14 47.774h-7.98"/>
    <path fill="#231f20" stroke="#231f20" stroke-linecap="round" stroke-linejoin="round" stroke-width="1.6" d="M37.14 42.124c-2.39 0-5.36.25-7.18-.51m28.98 4.36c3.3-.31 7.01.04 10.26.51m-.76-5.64c-.34 0-5.36.25-7.19-.51"/>
    <path fill="none" stroke="#231f20" stroke-linecap="round" stroke-linejoin="round" stroke-width="1.6" d="M52.41 40.514c-2.68.02-3.72.71-4.01 3.56"/>
    <path fill="none" stroke="#231f20" stroke-linecap="round" stroke-linejoin="round" stroke-width="1.6" d="M44.96 39.634c2.17-.03 4.28 2.29 3.44 4.55"/>
    <path fill="#f06340" stroke="#231f20" stroke-linecap="round" stroke-linejoin="round" stroke-width=".8" d="M47.13 79.494c0-1.5 1.22-2.71 2.72-2.71s2.72 1.21 2.72 2.71-1.22 2.72-2.72 2.72-2.72-1.22-2.72-2.72m-29.07 0c0-1.5 1.22-2.72 2.72-2.72s2.72 1.22 2.72 2.72-1.22 2.72-2.72 2.72-2.72-1.22-2.72-2.72m58.46 0c0-1.5 1.22-2.72 2.72-2.72s2.72 1.22 2.72 2.72-1.22 2.72-2.72 2.72-2.72-1.22-2.72-2.72m-58.46-59.09c0-1.5 1.22-2.72 2.72-2.72s2.72 1.22 2.72 2.72-1.22 2.71-2.72 2.71-2.72-1.21-2.72-2.71m58.46 0c0-1.5 1.22-2.72 2.72-2.72s2.72 1.22 2.72 2.72-1.22 2.71-2.72 2.71-2.72-1.21-2.72-2.71"/>
</svg>
