<svg xmlns="http://www.w3.org/2000/svg" width="100" height="100" viewBox="0 0 100 100">
    <path fill="#bae4ef" d="M85.43 81.595c0 2.11-1.72 3.84-3.83 3.84H18.4c-2.1 0-3.83-1.73-3.83-3.84v-63.2c0-2.1 1.73-3.83 3.83-3.83h63.2c2.11 0 3.83 1.73 3.83 3.83z"/>
    <path fill="none" stroke="#231f20" stroke-linecap="round" stroke-linejoin="round" stroke-width="3" d="M85.43 81.595c0 2.11-1.72 3.84-3.83 3.84H18.4c-2.1 0-3.83-1.73-3.83-3.84v-63.2c0-2.1 1.73-3.83 3.83-3.83h63.2c2.11 0 3.83 1.73 3.83 3.83z"/>
    <path fill="#137cc1" stroke="#231f20" stroke-linecap="round" stroke-linejoin="round" stroke-width=".8" d="M52.67 20.385c0 1.47-1.2 2.66-2.67 2.66s-2.67-1.19-2.67-2.66a2.67 2.67 0 1 1 5.34 0m28.97 0c0 1.47-1.2 2.66-2.67 2.66-1.48 0-2.67-1.19-2.67-2.66 0-1.48 1.19-2.67 2.67-2.67a2.67 2.67 0 0 1 2.67 2.67m-57.94 0c0 1.47-1.19 2.66-2.67 2.66-1.47 0-2.66-1.19-2.66-2.66 0-1.48 1.19-2.67 2.66-2.67 1.48 0 2.67 1.19 2.67 2.67m28.97 59.23c0 1.47-1.2 2.67-2.67 2.67s-2.67-1.2-2.67-2.67 1.2-2.67 2.67-2.67 2.67 1.2 2.67 2.67m28.97-29.34c0 1.47-1.2 2.67-2.67 2.67s-2.67-1.2-2.67-2.67a2.67 2.67 0 1 1 5.34 0m-57.94 0a2.67 2.67 0 0 1-2.67 2.67c-1.47 0-2.66-1.2-2.66-2.67 0-1.48 1.19-2.67 2.66-2.67 1.48 0 2.67 1.19 2.67 2.67"/>
    <path fill="#68bc46" stroke="#231f20" stroke-linejoin="round" stroke-width="1.1" d="M32.9 68.245h-3.23v-10.08h3.23zm-.03-12.32h-3.4v-9.67h3.4zm-9.67-14.11c2.24.07 4.77-3.39 5.71-5.07.4-.73 1.78-3.22-.05-3.3-.72-.04-3.18 3.55-3.6 4.13-.94 1.28-1.49 2.81-2.06 4.24zm6.71 2.64c2-.99 2.61-5.24 2.63-7.17.01-.83.06-3.67-1.6-2.88-.65.31-1.12 4.62-1.22 5.33-.22 1.58.01 3.19.19 4.72zm8.23-1.08c1.04-1.98-.97-5.77-2.09-7.34-.48-.68-2.12-3.01-2.99-1.4-.34.64 1.82 4.41 2.15 5.04.75 1.41 1.89 2.57 2.93 3.7z"/>
    <path fill="#fcb911" stroke="#231f20" stroke-linejoin="round" stroke-width="1.2" d="M52 39.605c8.46-.47 17.24 2.71 19.59 9.99 1 3.09 1.2 6.8.32 9.99-.51 1.88-1.4 3.7-3.02 4.83-.47.33-1.42.56-1.76.96-.16.18-.64 1.82-.56 1.82-.83.04-2.46.41-3.2.02-.55-.27-.69-1.85-.64-1.84-2.82-.81-6.08-.1-8.98-.03-2.03.05-3.99-.23-6.03.04-.29.04-2.17.3-2.32.46-.34.36 0 1.26-.42 1.48-.85.44-2.45.13-3.36.1-.19-2.59-1-2.99-3.22-3.12-3.73-.21-6.91.09-6.19-5.25 1.49-11.18 7.93-18.79 19.79-19.45z"/>
    <path fill="#fcb911" stroke="#231f20" stroke-width="1.2" d="M34.94 61.165c.93 1.29 1.14 2.72.48 3.2-.66.47-1.95-.19-2.88-1.48-.92-1.29-1.14-2.72-.48-3.19.66-.48 1.95.18 2.88 1.47z"/>
    <path fill="#fcb911" stroke="#231f20" stroke-linecap="round" stroke-width="1.2" d="M42.21 47.915c2.08-.77 5.09-.77 6.88.52.08.05-4.07 2.01-4.62 2.3"/>
    <path fill="#231f20" d="M39.47 52.985c-.08.74-.75 1.27-1.49 1.19a1.359 1.359 0 0 1 .3-2.7c.75.09 1.28.76 1.19 1.51"/>
    <path fill="#fefefe" stroke="#231f20" stroke-linecap="round" stroke-linejoin="round" stroke-width="1.2" d="M40.06 59.325c.4 1.61.03 3.35-.79 4.73-1.3.4-3.5.52-3.12-1.4.22-1.1 3.99-3.05 3.91-3.33"/>
    <path fill="#231f20" d="M69.88 55.375c-.89-3.37-7.53-2.23-9.84-1.85-3.28.52-6.93 1.62-9.39 3.93 1.62-1.53 18.49-1.9 19.98-.23m-.85-8.13c-.88-3.45-7.68-2.22-10.05-1.81-3.35.57-7.09 1.73-9.63 4.12 1.67-1.58 18.92-2.13 20.43-.42"/>
</svg>
