<svg xmlns="http://www.w3.org/2000/svg" width="100" height="100" viewBox="0 0 100 100">
    <path fill="#cdacd1" d="M85.43 81.605c0 2.1-1.72 3.83-3.83 3.83H18.4c-2.11 0-3.83-1.73-3.83-3.83v-63.21c0-2.1 1.72-3.83 3.83-3.83h63.2c2.11 0 3.83 1.73 3.83 3.83z"/>
    <path fill="none" stroke="#231f20" stroke-linecap="round" stroke-linejoin="round" stroke-width="3" d="M85.43 81.605c0 2.1-1.72 3.83-3.83 3.83H18.4c-2.11 0-3.83-1.73-3.83-3.83v-63.21c0-2.1 1.72-3.83 3.83-3.83h63.2c2.11 0 3.83 1.73 3.83 3.83z"/>
    <path fill="#ffe434" stroke="#231f20" stroke-linecap="round" stroke-linejoin="round" stroke-width="1.5" d="M34.83 20.185c.31-1.45.83-.84-.32-1.46.23 1.54.04 1.46-.23 3.03-.19 1.07-1.27 2.26-1.72 3.27-.85 1.88-1.79 5.07-1.73 7.2.03.93 3.93-1.62 4.01-1.63 1.55-.25 1.64.67 1.8 2.09.27 2.45-.47 4.94-.47 7.39 0 6.85.18 13.69.38 20.54.22 7.17.44 14.3.8 21.44 1.67.11 3.44.1 5.12 0 .32-4.76.1-9.33.19-14.05.01-.19 6.53-.09 7.12-.08.52.01 8.15.3 8.16.59.23 4.57-.74 9.05-.43 13.61 1.51.13 3.2.02 4.7-.26.46-.08 2.07-22.35 1.78-23.8-1.08-5.38-6.19-5.86-10.72-5.87-3.59-.02-7.2.37-10.84.15-.37-6.68-.77-13.34-.77-20.01 0-2.46 1.07-4.94.7-7.41-.19-1.2-.81-2.1-.99-3.26-.23-1.49.2-1.34-.41-2.82-.68 1.2-1.08.72-1.18 2.46-1.41.07-2.67.18-3.96.39-.06-1.09-.3-2.44-1.31-2.97.62.33.29 1.59-.27 2.91"/>
    <path fill="#231f20" stroke="#231f20" stroke-linecap="round" stroke-linejoin="round" stroke-width="1.5" d="M52.88 55.345c0 1.01-1 1.82-2.24 1.82s-2.25-.81-2.25-1.82 1.01-1.82 2.25-1.82 2.24.81 2.24 1.82m-11.02 7.12c0 1.12-1.01 2.03-2.27 2.03-1.25 0-2.27-.91-2.27-2.03s1.02-2.03 2.27-2.03c1.26 0 2.27.91 2.27 2.03m-1.99-19.54c0 .76-.75 1.37-1.68 1.37s-1.68-.61-1.68-1.37c0-.75.75-1.37 1.68-1.37s1.68.62 1.68 1.37m1.28-10.33c0 .91-.71 1.64-1.59 1.64-.89 0-1.6-.73-1.6-1.64s.71-1.64 1.6-1.64c.88 0 1.59.73 1.59 1.64"/>
    <path fill="none" stroke="#231f20" stroke-linecap="round" stroke-linejoin="round" stroke-width="1.5" d="M68.18 52.765c.07 2.85-5.71 4.83-8.05 4.79"/>
    <path fill="#ffe434" stroke="#231f20" stroke-linecap="round" stroke-linejoin="round" stroke-width="1.6" d="M40.67 22.175c1.51-.6 2.55-.5 4.17-.31-.38 1.26-1.77 2.56-3.67 2.66"/>
    <path fill="#231f20" stroke="#231f20" stroke-linecap="round" stroke-linejoin="round" stroke-width="1.5" d="M41.69 52.285c0 .76-.76 1.37-1.69 1.37s-1.68-.61-1.68-1.37c0-.75.75-1.36 1.68-1.36s1.69.61 1.69 1.36m11.32 13.32c0 1.12-1.02 2.03-2.27 2.03-1.26 0-2.27-.91-2.27-2.03s1.01-2.03 2.27-2.03c1.25 0 2.27.91 2.27 2.03m10.92-2.49c0 1.12-1.02 2.03-2.27 2.03s-2.27-.91-2.27-2.03 1.02-2.03 2.27-2.03 2.27.91 2.27 2.03m-28.18-38.33c0 .27-.22.48-.48.48-.27 0-.49-.21-.49-.48s.22-.48.49-.48c.26 0 .48.21.48.48"/>
    <path fill="#c7d93a" stroke="#231f20" stroke-linecap="round" stroke-linejoin="round" stroke-width="1.3" d="M24.46 37.625c-.77 2.14-2.34 3.54-3.51 3.12s-1.49-2.5-.73-4.64c.77-2.14 2.34-3.54 3.51-3.13 1.17.42 1.5 2.5.73 4.65"/>
    <path fill="#c7d93a" stroke="#231f20" stroke-linecap="round" stroke-linejoin="round" stroke-width="1.3" d="M28.21 34.265c1.65 1.09 2.43 2.81 1.75 3.85-.69 1.04-2.58.99-4.23-.1s-2.43-2.82-1.75-3.85c.69-1.04 2.58-.99 4.23.1"/>
    <path fill="#c7d93a" stroke="#231f20" stroke-linecap="round" stroke-linejoin="round" stroke-width="1.3" d="M27.6 30.395c-.83 2.12-2.45 3.46-3.61 3-1.15-.45-1.41-2.54-.57-4.66s2.46-3.47 3.61-3.01c1.16.46 1.41 2.55.57 4.67"/>
    <path fill="#c7d93a" stroke="#231f20" stroke-linecap="round" stroke-linejoin="round" stroke-width="1.3" d="M21.64 29.105c1.43 1.03 2.01 2.69 1.29 3.7-.73 1.01-2.48.99-3.92-.05-1.44-1.03-2.02-2.69-1.29-3.69.73-1.02 2.48-.99 3.92.04"/>
    <path fill="none" stroke="#231f20" stroke-linecap="round" stroke-linejoin="round" stroke-width="1.3" d="M20.21 33.835c-2.25.4-4.34 1.83-5.17 3.36"/>
    <path fill="#1163af" stroke="#231f20" stroke-linecap="round" stroke-linejoin="round" stroke-width=".8" d="m16.96 49.635 5.67 3.24-.34-6.85zm33.21-31.77-3.45 5.54 6.86-.08zm32.54 30.99-5.51-3.5.02 6.85zm-59.83-28.11c0 1.47-1.2 2.66-2.67 2.66-1.48 0-2.67-1.19-2.67-2.66 0-1.48 1.19-2.67 2.67-2.67a2.67 2.67 0 0 1 2.67 2.67m0 58.77c0 1.47-1.2 2.66-2.67 2.66-1.48 0-2.67-1.19-2.67-2.66 0-1.48 1.19-2.67 2.67-2.67a2.67 2.67 0 0 1 2.67 2.67m58.26-58.78c0 1.48-1.2 2.67-2.67 2.67-1.48 0-2.67-1.19-2.67-2.67 0-1.47 1.19-2.66 2.67-2.66 1.47 0 2.67 1.19 2.67 2.66m0 58.78c0 1.47-1.2 2.66-2.67 2.66-1.48 0-2.67-1.19-2.67-2.66 0-1.48 1.19-2.67 2.67-2.67a2.67 2.67 0 0 1 2.67 2.67m-31.02 2.77 3.46-5.54-6.86.08z"/>
</svg>
