<svg xmlns="http://www.w3.org/2000/svg" width="100" height="100" viewBox="0 0 100 100">
    <path fill="#fbbd7a" d="M85.435 81.595c0 2.11-1.73 3.84-3.84 3.84h-63.2c-2.1 0-3.83-1.73-3.83-3.84v-63.2c0-2.1 1.73-3.83 3.83-3.83h63.2c2.11 0 3.84 1.73 3.84 3.83z"/>
    <path fill="none" stroke="#231f20" stroke-linecap="round" stroke-linejoin="round" stroke-width="3" d="M85.435 81.595c0 2.11-1.73 3.84-3.84 3.84h-63.2c-2.1 0-3.83-1.73-3.83-3.84v-63.2c0-2.1 1.73-3.83 3.83-3.83h63.2c2.11 0 3.84 1.73 3.84 3.83z"/>
    <path fill="#ffeba2" stroke="#231f20" stroke-linecap="round" stroke-linejoin="round" stroke-width="1.6" d="M39.565 29.585c.43.43-4.41 7.96-4.8 8.72-2.44 4.78-4.16 9.81-3.77 15.31.81 11.37 12.95 14.72 22.82 14.62 9.03-.09 16.74-6.3 17.2-15.59.34-6.78-6.32-20.83-12.47-23.94.78.4-3.26 6.29-3.67 6.81-1.95 2.49-4.61 2.47-7.92 1.89-2.84-.5-5.25-5.76-7.39-7.82"/>
    <path fill="#231f20" stroke="#231f20" stroke-width="1.8" d="M46.805 48.175c0 .68-.55 1.24-1.23 1.24s-1.24-.56-1.24-1.24.56-1.23 1.24-1.23 1.23.55 1.23 1.23zm11.08-.51c0 .68-.55 1.23-1.23 1.23-.69 0-1.24-.55-1.24-1.23s.55-1.23 1.24-1.23c.68 0 1.23.55 1.23 1.23z"/>
    <path fill="#231f20" stroke="#231f20" stroke-linecap="round" stroke-linejoin="round" stroke-width="1.4" d="M62.855 50.225h7.98"/>
    <path fill="#231f20" stroke="#231f20" stroke-linecap="round" stroke-linejoin="round" stroke-width="1.6" d="M62.855 55.875c2.4 0 5.36-.25 7.18.51m-28.98-4.36c-3.3.31-7.01-.04-10.26-.51m.76 5.64c.34 0 5.36-.25 7.19.51"/>
    <path fill="none" stroke="#231f20" stroke-linecap="round" stroke-linejoin="round" stroke-width="1.6" d="M47.595 57.485c2.67-.02 3.71-.71 4-3.56"/>
    <path fill="none" stroke="#231f20" stroke-linecap="round" stroke-linejoin="round" stroke-width="1.6" d="M55.035 58.365c-2.17.03-4.28-2.29-3.44-4.55"/>
    <path fill="#10bfe6" stroke="#231f20" stroke-linecap="round" stroke-linejoin="round" stroke-width="1.5" d="M45.465 75.005c.49-3.86 3.52-8.18 4.81-11.8-3.57 2.6-9.49 5.29-13.91 5.39-2.58.06-12.75-.06-10.46-6.39 1.38-3.83 7.74-2.77 9.92-1.98 2.41.87 6.03 2.23 7.45 4.8 1.29 2.31 1.83 7.15 2.19 9.98"/>
    <path fill="#1163af" stroke="#231f20" stroke-linecap="round" stroke-linejoin="round" stroke-width=".8" d="M52.945 20.705a2.67 2.67 0 1 1-5.341.001 2.67 2.67 0 0 1 5.341-.001m28.96 0a2.67 2.67 0 1 1-5.339.001 2.67 2.67 0 0 1 5.339-.001m-57.93 0c0 1.47-1.2 2.67-2.67 2.67s-2.67-1.2-2.67-2.67 1.2-2.67 2.67-2.67 2.67 1.2 2.67 2.67m28.97 58.39c0 1.47-1.2 2.66-2.67 2.66-1.48 0-2.67-1.19-2.67-2.66 0-1.48 1.19-2.67 2.67-2.67a2.67 2.67 0 0 1 2.67 2.67m28.96-29.35c0 1.48-1.19 2.67-2.67 2.67-1.47 0-2.66-1.19-2.66-2.67 0-1.47 1.19-2.67 2.66-2.67 1.48 0 2.67 1.2 2.67 2.67m-57.93 0a2.67 2.67 0 1 1-5.339.001 2.67 2.67 0 0 1 5.339-.001"/>
</svg>
