<svg xmlns="http://www.w3.org/2000/svg" width="100" height="100" viewBox="0 0 100 100">
    <path fill="#bae4ef" d="M85.435 81.595c0 2.11-1.73 3.84-3.84 3.84h-63.2c-2.1 0-3.83-1.73-3.83-3.84v-63.2c0-2.1 1.73-3.83 3.83-3.83h63.2c2.11 0 3.84 1.73 3.84 3.83z"/>
    <path fill="none" stroke="#231f20" stroke-linecap="round" stroke-linejoin="round" stroke-width="3" d="M85.435 81.595c0 2.11-1.73 3.84-3.84 3.84h-63.2c-2.1 0-3.83-1.73-3.83-3.84v-63.2c0-2.1 1.73-3.83 3.83-3.83h63.2c2.11 0 3.84 1.73 3.84 3.83z"/>
    <path fill="#ef553a" stroke="#231f20" stroke-linecap="round" stroke-linejoin="round" stroke-width=".8" d="m49.905 18.245-3.33 5.61 6.85-.23z"/>
    <path fill="#fcb911" stroke="#231f20" stroke-linejoin="round" stroke-width="1.3" d="M49.425 43.395c9.44-.52 19.23 3.01 21.85 11.14 1.12 3.45 1.34 7.58.36 11.14-.57 2.09-1.57 4.12-3.37 5.39-.52.36-1.58.62-1.97 1.06-.17.21-.7 2.04-.62 2.03-.92.05-2.74.47-3.57.03-.61-.31-.77-2.06-.71-2.05-3.15-.91-6.78-.11-10.02-.03-2.26.05-4.45-.26-6.72.04-.32.04-2.42.33-2.59.51-.37.4 0 1.41-.46 1.65-.96.49-2.74.14-3.76.11-.2-2.89-1.11-3.33-3.58-3.47-4.16-.24-7.71.09-6.91-5.86 1.66-12.47 8.85-20.96 22.07-21.69z"/>
    <path fill="#fcb911" stroke="#231f20" stroke-width="1.3" d="M30.395 67.435c1.04 1.44 1.28 3.03.54 3.57-.74.52-2.17-.21-3.21-1.65-1.03-1.44-1.27-3.03-.54-3.56.74-.53 2.18.2 3.21 1.64z"/>
    <path fill="#fcb911" stroke="#231f20" stroke-linecap="round" stroke-width="1.3" d="M38.505 52.655c2.33-.86 5.68-.86 7.68.58.08.06-4.55 2.24-5.15 2.57"/>
    <path fill="#231f20" d="M35.455 58.305c-.09.83-.84 1.43-1.67 1.33-.83-.09-1.42-.84-1.33-1.67s.84-1.43 1.67-1.33c.83.09 1.43.84 1.33 1.67"/>
    <path fill="#fefefe" stroke="#231f20" stroke-linecap="round" stroke-linejoin="round" stroke-width="1.3" d="M36.115 65.385c.44 1.8.03 3.74-.89 5.28-1.44.44-3.9.58-3.47-1.57.24-1.22 4.44-3.4 4.36-3.71"/>
    <path fill="#231f20" d="M69.365 60.985c-.99-3.76-8.39-2.49-10.98-2.07-3.64.58-7.72 1.8-10.46 4.38 1.8-1.7 20.62-2.12 22.28-.25m-.95-9.07c-.98-3.85-8.56-2.47-11.2-2.02-3.74.63-7.92 1.93-10.75 4.6 1.87-1.76 21.1-2.38 22.79-.47"/>
</svg>
