<svg xmlns="http://www.w3.org/2000/svg" width="100" height="100" viewBox="0 0 100 100">
    <path fill="#bae4ef" d="M85.435 81.595c0 2.11-1.73 3.84-3.84 3.84h-63.2c-2.11 0-3.83-1.73-3.83-3.84v-63.2c0-2.1 1.72-3.83 3.83-3.83h63.2c2.11 0 3.84 1.73 3.84 3.83z"/>
    <path fill="none" stroke="#231f20" stroke-linecap="round" stroke-linejoin="round" stroke-width="3" d="M85.435 81.595c0 2.11-1.73 3.84-3.84 3.84h-63.2c-2.11 0-3.83-1.73-3.83-3.84v-63.2c0-2.1 1.72-3.83 3.83-3.83h63.2c2.11 0 3.84 1.73 3.84 3.83z"/>
    <path fill="#f0633d" stroke="#231f20" stroke-linecap="round" stroke-linejoin="round" stroke-width=".8" d="M81.215 21.205c0 1.5-1.22 2.72-2.72 2.72s-2.72-1.22-2.72-2.72 1.22-2.72 2.72-2.72 2.72 1.22 2.72 2.72m-57.44 0a2.715 2.715 0 1 1-5.43 0 2.715 2.715 0 1 1 5.43 0"/>
    <path fill="#144ea1" stroke="#231f20" stroke-linecap="round" stroke-width="1.2" d="M46.955 76.445c1.35 1.45 2.63 2.98 3.91 4.49"/>
    <path fill="#144ea1" stroke="#231f20" stroke-linecap="round" stroke-width="1.2" d="M51.025 76.445c-1.68 1.13-2.73 3.09-4.23 4.38"/>
    <path fill="#fadce9" stroke="#231f20" stroke-width="1.5" d="M56.525 48.465c5.37-2.55 9.7 3.56 9.59 8.24-.14 5.71-3.84 9.65-9 11.54-5.13 1.88-11.71 1.85-16.34-1.32-4.09-2.79-4.95-5.07-4.95-9.84"/>
    <path fill="#fadce9" stroke="#231f20" stroke-width="1.5" d="M68.855 49.145a2.68 2.68 0 0 1-5.36 0c0-1.48 1.2-2.69 2.68-2.69s2.68 1.21 2.68 2.69zm-33.26-11.82c.6 3.19-1.17 5.39-2.52 8.13-2.16 4.36-1.13 9 2.55 12.13 5 4.25 11.02 4.22 16.54 1.09 5.33-3.02 6.23-10.54 1.96-15.07-2.72-2.89-2.17-5.56-.7-8.87.95-2.14 2.22-4.78 2.41-7.13.25-3.04-2.35-4.51-4.46-1.45-1.31 1.9-1.89 4.18-2.84 6.25-1.61 3.5-3.69 8.6-7.67 3.82-2.58-3.1-1.45-8.72-4.61-11.47-1.97-1.72-3.45-.94-3.74 1.5-.44 3.77 2.4 7.46 3.08 11.07z"/>
    <path fill="#231f20" stroke="#231f20" stroke-width="1.3" d="M40.715 48.245c0 .47-.39.86-.86.86s-.85-.39-.85-.86.38-.86.85-.86.86.39.86.86zm8.39-.02c0 .47-.38.85-.85.85-.48 0-.86-.38-.86-.85s.38-.85.86-.85c.47 0 .85.38.85.85z"/>
    <path fill="#fefefe" stroke="#231f20" stroke-linecap="round" stroke-linejoin="round" stroke-width="1.5" d="M43.025 54.835c.69.58 1.72.58 2.4 0"/>
</svg>
