<svg xmlns="http://www.w3.org/2000/svg" width="100" height="100" viewBox="0 0 100 100">
    <path fill="#fbbd7a" d="M85.43 81.595c0 2.11-1.72 3.84-3.83 3.84H18.4c-2.11 0-3.83-1.73-3.83-3.84v-63.2c0-2.1 1.72-3.83 3.83-3.83h63.2c2.11 0 3.83 1.73 3.83 3.83z"/>
    <path fill="none" stroke="#231f20" stroke-linecap="round" stroke-linejoin="round" stroke-width="3" d="M85.43 81.595c0 2.11-1.72 3.84-3.83 3.84H18.4c-2.11 0-3.83-1.73-3.83-3.84v-63.2c0-2.1 1.72-3.83 3.83-3.83h63.2c2.11 0 3.83 1.73 3.83 3.83z"/>
    <path fill="#ffeba2" stroke="#231f20" stroke-linecap="round" stroke-linejoin="round" stroke-width="1.6" d="M39.57 31.585c.43.43-4.41 7.96-4.81 8.72-2.44 4.78-4.15 9.81-3.76 15.31.81 11.37 12.94 14.72 22.82 14.62 9.07-.09 16.8-6.37 17.2-15.72.3-6.97-6.09-20.59-12.47-23.81.78.4-3.26 6.29-3.67 6.81-1.95 2.49-4.61 2.47-7.92 1.89-2.84-.5-5.25-5.76-7.39-7.82"/>
    <path fill="#231f20" stroke="#231f20" stroke-width="1.8" d="M46.81 50.175c0 .68-.55 1.24-1.23 1.24s-1.24-.56-1.24-1.24.56-1.23 1.24-1.23 1.23.55 1.23 1.23zm11.08-.51c0 .68-.55 1.23-1.23 1.23-.69 0-1.24-.55-1.24-1.23s.55-1.24 1.24-1.24c.68 0 1.23.56 1.23 1.24z"/>
    <path fill="#231f20" stroke="#231f20" stroke-linecap="round" stroke-linejoin="round" stroke-width="1.4" d="M62.86 52.225h7.98"/>
    <path fill="#231f20" stroke="#231f20" stroke-linecap="round" stroke-linejoin="round" stroke-width="1.6" d="M62.86 57.875c2.39 0 5.36-.25 7.18.51m-28.98-4.36c-3.3.31-7.01-.04-10.26-.51m.76 5.64c.34 0 5.36-.25 7.19.51"/>
    <path fill="none" stroke="#231f20" stroke-linecap="round" stroke-linejoin="round" stroke-width="1.6" d="M47.59 59.485c2.68-.02 3.72-.71 4.01-3.56"/>
    <path fill="none" stroke="#231f20" stroke-linecap="round" stroke-linejoin="round" stroke-width="1.6" d="M55.04 60.365c-2.17.03-4.28-2.29-3.44-4.55"/>
    <path fill="#f06340" stroke="#231f20" stroke-linecap="round" stroke-linejoin="round" stroke-width=".8" d="M52.87 20.505c0 1.5-1.22 2.71-2.72 2.71s-2.72-1.21-2.72-2.71 1.22-2.72 2.72-2.72 2.72 1.22 2.72 2.72m29.07 0c0 1.5-1.22 2.72-2.72 2.72s-2.72-1.22-2.72-2.72 1.22-2.72 2.72-2.72 2.72 1.22 2.72 2.72m-58.46 0c0 1.5-1.22 2.72-2.72 2.72s-2.72-1.22-2.72-2.72 1.22-2.72 2.72-2.72 2.72 1.22 2.72 2.72m58.46 59.09c0 1.5-1.22 2.72-2.72 2.72s-2.72-1.22-2.72-2.72 1.22-2.71 2.72-2.71 2.72 1.21 2.72 2.71m-58.46 0c0 1.5-1.22 2.72-2.72 2.72s-2.72-1.22-2.72-2.72 1.22-2.71 2.72-2.71 2.72 1.21 2.72 2.71"/>
</svg>
