<svg xmlns="http://www.w3.org/2000/svg" viewBox="0 0 2048 2048">
    <path fill="#f9f9f9" d="M1024.001 1539.04q0 109.729-97.217 191.064t-214.646 81.334H235.681c0-75.078 20.855-90.51 62.565-130.294s87.27-51.678 136.68-51.678h240.635q49.09 0 84.704-6.738c23.743-4.492 93.792-88.508 115.609-122.518 63.278 4.162-149.048-5.958-212.344-9.84 42.994-74.436 50.754-157.114 53.963-229.625-73.153-76.363-134.335-129.662-165.137-196.719q-46.202-100.585-5.775-215.128 31.764-92.404 113.58-182.401t300.312-237.266c25.909-7.058 11.15-37.018-7.46-53.06-18.608-16.043-43.253-32.186-43.253-66.837 0-37.218 7.018-61.883 33.328-86.267 26.308-24.386 43.053-33.509 80.913-33.509q55.827 0 95.773 36.577c26.63 24.384 21.537 30.64 21.537 67.859 0 34.651-15.602 47.726-34.532 63.768s-39.665 52.138-49.931 59.196c145.022 98.18 275.486 189.541 330.03 249.539q81.816 89.997 114.543 182.401 40.426 114.543-5.775 215.128c-30.802 67.057-91.984 123.426-165.137 199.787 2.567 72.512 16.465 158.258 60.1 232.694l-309.818 3.068c263.318-42.842 277.27 510.196 55.827 0h57.812c-1.283-2.567 4.994 33.248 12.694 46.082 21.176 34.01 55.907 72.58 79.65 77.071q35.614 6.738 85.666 6.738h240.635c48.77 0 94.169 11.892 136.2 51.678 42.031 39.785 63.046 55.216 63.046 130.294h-476.457q-118.393 0-215.128-81.334t-96.735-191.065"/>
    <path d="M1024 356q66 0 64-66 1-55-64-55-66 0-64 55-3 66 64 66m0 1204q0 114-101 198.5T700 1843H205q0-117 65-179t142-62h250q51 0 88-7t71-60q12-20 10-16h76q-7 21-3 13-45 105-109 124.5T649 1676H409q-52 0-86 40t-34 53h424q66 0 158.5-65t93.5-185H624q67-116 72-229-114-119-162-223.5T528 843q33-96 118-189.5T958 407q-17-11-46-36t-29-79q0-58 41-96t100-38q58 0 99.5 38t41.5 96q0 54-29.5 79t-45.5 36q226 153 311 246.5T1520 843q42 119-6 223.5T1352 1290q4 113 72 229h-341q0 120 93 185t159 65h424q0-13-34.5-53t-85.5-40h-240q-83 0-146.5-19.5T1144 1532q4 8-3-13h76q-2-4 10 16 33 53 70 60t89 7h250q76 0 141.5 62t65.5 179h-495q-123 0-223.5-84.5T1024 1560m0-114h283q-28-84-29-154-120-41-254-38-135-3-254 38-2 70-29 154zm0-267q159-1 285 42 189-180 142-346-60-193-427-431-368 238-427 431-48 166 142 346 125-43 285-42m-47-361V714h94v104h95v89h-95v165h-94V907h-95v-89z"/>
</svg>
