<svg xmlns="http://www.w3.org/2000/svg" viewBox="0 0 2048 2048">
    <path fill="#f9f9f9" d="m489.71 386.542 21.34 295.441 135.984 109.17-47.83 689.373-154.662 126.677-39.847 215.187h1227.763l-15.983-215.187-154.661-126.677-54.34-693.712 120.798-83.136 38.695-317.136H1343.05l-4.34 151.34h-202.084v-151.34H924.391l-8.68 151.34H709.289v-151.34Z"/>
    <path d="M1024 1501H643l5-74h752l5 74zm0-661H692l5-74h654l5 74zm0 1003H383l29-264 159-118 50-659-149-107-17-341h289v147h137V354h286v147h137V354h289l-17 341-149 107 50 659 159 118 29 264zm0-74h557l-15-149-161-119-54-735 152-109 13-230h-138v148h-285V427H955v148H670V427H532l13 230 152 109-54 735-161 119-15 149z"/>
</svg>
