<svg xmlns="http://www.w3.org/2000/svg" viewBox="0 0 2048 2048">
    <path fill="#5984bd" d="M1027.068 1501.706c0 76-64.348 178.984-131.681 235.317S781.326 1808.14 700 1809.251l-448.978 6.136c0-78-5.947-73.236 37.387-114.57 43.333-41.333 78.399-64.37 129.727-65.068l225.455-3.068c33.997-.462 69.47.735 94.137-3.932 24.666-4.666 85.15-33.87 107.817-69.204 8-13.333-13.212-43.212-14.545-40.545 0 0-71.877-36.643-154.842-30.681 44.667-77.334 44.122-138.326 47.455-213.66-76-79.333-123.864-150.765-155.864-220.431S534.712 922.333 562.712 843c22-64 70.011-114.15 126.678-176.483S872.667 509.864 1024 407.864c-11.333-7.333-71.19-44.742-90.523-61.409s-10.591-30.727-10.591-66.727c0-38.667 19.803-46.122 47.136-71.455 27.333-25.334 26.917-19.592 66.25-19.592 38.667 0 35.016 6.53 62.683 31.864 27.667 25.333 38.432 32.788 38.432 71.455 0 36-6.765 50.06-26.432 66.728-19.667 16.666-76.288 41.803-86.955 49.136 150.667 102 295.788 213.984 352.455 276.317 56.667 62.334 87.129 110.16 109.796 174.16 28 79.333 22.931 126.22-9.069 195.887-32 69.666-76.795 125.757-152.795 205.09 2.667 75.334-4.015 148.6 41.319 225.933L1083 1519c-21.33-70.962 32.716-43.797 89.203-54.254 67.742 14.31 44.884-57.104 23.102 30.39-1.333-2.667 2.218 57.212 10.218 70.545 22 35.334 36.13 39.993 60.796 44.66 24.667 4.666 75.813 28.942 110.477 28.476l228.523-3.068c50.662-.68 82.492-3.878 126.16 37.455 43.666 41.334 71.635 58.047 71.635 136.047l-430.569 3.068c-81.998.584-150.364-31.235-217.364-87.568-67-56.334-128.113-147.045-128.113-223.045"/>
    <path d="M1024 356q66 0 64-66 1-55-64-55-66 0-64 55-3 66 64 66m0 1204q0 114-101 198.5T700 1843H205q0-117 65-179t142-62h250q51 0 88-7t71-60q12-20 10-16h76q-7 21-3 13-45 105-109 124.5T649 1676H409q-52 0-86 40t-34 53h424q66 0 158.5-65t93.5-185H624q67-116 72-229-114-119-162-223.5T528 843q33-96 118-189.5T958 407q-17-11-46-36t-29-79q0-58 41-96t100-38q58 0 99.5 38t41.5 96q0 54-29.5 79t-45.5 36q226 153 311 246.5T1520 843q42 119-6 223.5T1352 1290q4 113 72 229h-341q0 120 93 185t159 65h424q0-13-34.5-53t-85.5-40h-240q-83 0-146.5-19.5T1144 1532q4 8-3-13h76q-2-4 10 16 33 53 70 60t89 7h250q76 0 141.5 62t65.5 179h-495q-123 0-223.5-84.5T1024 1560m0-114h283q-28-84-29-154-120-41-254-38-135-3-254 38-2 70-29 154zm0-267q159-1 285 42 189-180 142-346-60-193-427-431-368 238-427 431-48 166 142 346 125-43 285-42"/>
    <path fill="none" stroke="#000" stroke-width="75" d="M1024 407.864v789.695M538.034 928.542c954.576 0 948.44-4.075 948.44-4.075"/>
</svg>
