<svg xmlns="http://www.w3.org/2000/svg" viewBox="0 0 2048 2048">
    <path fill="#5984bd" stroke="#000" stroke-width="75" d="M995.875 1492.61c-217.511 65.062-450.896 107.644-512 351.458h1084.746c-19.394-218.568-266.454-273.15-485.966-351.458"/>
    <circle cx="1022.644" cy="1084.746" r="512" fill="#5984bd" stroke="#000" stroke-linecap="round" stroke-linejoin="round" stroke-width="75"/>
    <ellipse cx="1552.678" cy="572.78" stroke="#000" stroke-linecap="round" stroke-linejoin="round" stroke-width="75" rx="69.424" ry="73.763"/>
    <ellipse cx="1744.881" cy="1084.746" stroke="#000" stroke-linecap="round" stroke-linejoin="round" stroke-width="75" rx="69.424" ry="73.763"/>
    <ellipse cx="300.407" cy="1084.746" stroke="#000" stroke-linecap="round" stroke-linejoin="round" stroke-width="75" rx="69.424" ry="73.763"/>
    <ellipse cx="501.288" cy="572.78" stroke="#000" stroke-linecap="round" stroke-linejoin="round" stroke-width="75" rx="69.424" ry="73.763"/>
    <ellipse cx="1022.644" cy="370.508" stroke="#000" stroke-linecap="round" stroke-linejoin="round" stroke-width="75" rx="69.424" ry="73.763"/>
    <ellipse cx="1022.644" cy="1843.051" stroke="#000" stroke-linecap="round" stroke-linejoin="round" stroke-width="75" rx="69.424" ry="73.763"/>
    <path d="M1019.198 1181.042q18.6 10.2 32.4 25.2 12.6-9 21.9-8.1t20.1-.9q46.8-6.6 77.1-51t31.5-99l-11.4-40.2q-33 143.4-112.8 154.2-12.6 1.8-27 3.3t-31.8 16.5m-154.8-269.4-27.6-36q3.6-23.4 69.3-64.5t132.3-86.1l69-92.4 57.6 130.2q205.2 103.2 259.5 250.5c36.2 98.2 19.666 244.934 2.466 388.134-43.647 56.406-45.21 32.995-109.106 92.016-76.358 41.92-125.076 70.182-220.535 84.346-128.562-3.511-278.701-16.95-321.983-61.144-37.084-37.865 36.709-135.083 97.651-177.211 41.614-32.434 59.407-51.841 74.207-73.841q22.2-33 33-51-141.6-25.2-175.2 36l-33.6 61.2-130.2-72.6 69-49.2-30.6-30-73.2 51.6-7.2-178.2 237.6-157.8q7.2 10.8 13.8 18.6t13.8 17.4l-219.6 144.6 2.4 75 38.4-24.6 82.8 86.4-46.8 39 28.2 16.8 88.2-70.8q32.4-10.8 99-16.2t114.6 44.4c-22.4 25.2-27.629 41.919-54.6 79.5-59.942 83.522-127.005 98.969-190.96 210.629 68.748 101.622 242.3 67.894 348.832 59.116 88.663-25.032 153.397-76.509 203.11-134.422 22.21-55.874 28.618-124.785 27.314-192.378-1.244-64.439.904-118.045-15.096-176.045q-30.6-75.6-80.4-140.4t-157.2-112.8l-35.4-79.8-29.4 41.4q-59.4 37.2-124.8 78.6t-78.6 72m175.2 18-127.2-1.2 69.6-60q18-15 48 23.1t9.6 38.1m-321.6 117 22.2 18.6-27.6 33-34.2-15.6 19.8-33.6z"/>
</svg>
