<svg xmlns="http://www.w3.org/2000/svg" viewBox="0 0 2048 2048">
    <path fill="#5984bd" d="m1036.273 1812.319-598.047-9.205 13.66-205.705 159-118 57.317-672.358-159.386-133.528-10.863-282.706h206.16l9.205 140.864 201.43-6.136 3.068-131.66 218.502-3.067 6.136 131.659 195.294 3.068 12.273-134.728 209.229-3.068-17 285.774-139.796 103.932 46.932 708.09 159 130.272 25.932 199.57z"/>
    <path d="M1024 1501H643l5-74h752l5 74zm0-661H692l5-74h654l5 74zm0 1003H383l29-264 159-118 50-659-149-107-17-341h289v147h137V354h286v147h137V354h289l-17 341-149 107 50 659 159 118 29 264zm0-74h557l-15-149-161-119-54-735 152-109 13-230h-138v148h-285V427H955v148H670V427H532l13 230 152 109-54 735-161 119-15 149z"/>
    <path fill="none" stroke="#000" stroke-width="75" d="m668.203 807.05 728.95 659.526m-737.628 0 720.272-659.525"/>
</svg>
