<svg xmlns="http://www.w3.org/2000/svg" viewBox="0 0 2048 2048">
    <path fill="#5984bd" d="M1000.706 313.34v-85.795l52.724-3.068 3.068 91.932 95.79 9.204v48.978l-95.79-3.068-3.068 189.818c-30.482-10.667-26.58-10.667-55.792 0l6.136-192.886-108.062 6.136 6.136-58.182zm-146.587 727.728c-19.686-24 1.7-319.72-10.366-332.387C902.813 615.348 968.008 538 1027.068 538c58.424 0 126.688 108.03 198.656 182.954-12.701 12.666-47.988 289.605-67.04 313.605-100.255-161.03-225.315-105.449-304.565 6.509M1027.068 1843H478.385l58.107-365q-309.586-280-310.539-535c-.635-106 45.192-188.296 125.208-265.296 80.017-77 152.523-94.023 242.065-94.023 49.534 0 99.862 18.735 150.983 50.068C795.33 665.083 846.714 671 886.087 719c159.62 252.33 122.718 220.522 281.962 0 38.738-48 102.235-63.122 153.674-94.455s108.062-40.864 157.596-40.864c88.906 0 142.687 26.228 222.703 103.228S1828.182 837 1828.182 943q-1.905 255-310.539 535l58.107 365z"/>
    <path d="M977 298v-95h94v95h107v95h-107v153q-48-16-94 0V393H870v-95zm47 314q-47 0-136 121-31-36-50-55 93-140 186-140 92 0 186 140-20 19-50 55-90-121-136-121m-447 907-26 156 145-84zm410-206q-1-147-36.5-274.5T870 845q-45-88-131.5-153T570 627q-103 0-208 93T257 949q0 109 86.5 236T546 1408q212-88 441-95m37 530H448l61-365q-325-280-326-535-1-159 125-274.5T575 553q78 0 158.5 47T876 719q61 74 98.5 164.5T1024 1034q12-60 49-150.5t99-164.5q61-72 142-119t159-47q140 0 266 115.5T1865 943q-2 255-326 535l61 365zm0-74h489l-50-298q-216-84-439-84t-439 84l-50 298zm447-250 26 156-145-84zm-410-206q229 7 441 95 115-96 202-223t87-236q0-136-105.5-229T1478 627q-83 0-169.5 65T1178 845q-46 66-81.5 193.5T1061 1313m-176 233 141-84 137 86-141 84z"/>
</svg>
