<svg xmlns="http://www.w3.org/2000/svg" viewBox="0 0 2048 2048">
    <path fill="#5984bd" d="M706.508 613.373c4-26 59.856-70.511 132.856-116.178s144.33-89.161 218.33-139.161l86.798-106.271 85.152 169.27c228 114.668 369.997 292.885 430.33 456.552 60.334 163.666 41.455 271.545 12.789 510.212-12 85.333-1.822 192.37 13.178 264.703s8.133 88.105 31.466 142.771L588.22 1806.12c-6-118.667 9.17-188.794 41.17-271.127 32-82.334 66.966-120.28 156.966-196.28 52-10.667 118.537-60.367 143.203-97.034 24.667-36.667 56.017-88.864 68.017-108.864-157.333-28-362.05-24.427-378.78 51.322l-51.66 62.949-108.526-64.593 69.44-71.153-90.05-91.22-87.288 49.118-7.661-203.712 378.644-260.83c336.348 388.677 25.129 355.73-15.187 8.678"/>
    <path d="M1004 1092q31 17 54 42 21-15 36.5-13.5t33.5-1.5q78-11 128.5-85t52.5-165l-19-67q-55 239-188 257-21 3-45 5.5t-53 27.5M746 643l-46-60q6-39 115.5-107.5T1036 332l115-154 96 217q342 172 432.5 417.5T1727 1416q-18 128 4.5 236.5T1789 1843H547q-9-178 39-301.5T769 1304q78-16 115-71t55-85q-236-42-292 60l-56 102-217-121 115-82-51-50-122 86-12-297 396-263q12 18 23 31t23 29L380 884l4 125 64-41 138 144-78 65 47 28 38.5-45 108.5-73q54-18 165-27t191 74q-56 63-91 132.5T815 1369q-92 79-146 176.5T621 1769h1019q-35-133-32-234.5t12.5-199 9-205T1589 878q-51-126-134-234t-262-188l-59-133-49 69q-99 62-208 131T746 643m292 30-212-2 116-100q30-25 80 38.5t16 63.5M502 868l37 31-46 55-57-26 33-56z"/>
    <ellipse cx="720.814" cy="609.627" rx="25.492" ry="32.542"/>
    <ellipse cx="1022.915" cy="1109.152" rx="29.288" ry="22.237"/>
</svg>
