<?xml version="1.0" encoding="UTF-8" standalone="no"?>
<!-- Created with Inkscape (http://www.inkscape.org/) -->

<svg
   viewBox="0 0 38.549999 41.919998"
   version="1.1"
   id="svg1"
   inkscape:version="1.3.2 (091e20e, 2023-11-25, custom)"
   sodipodi:docname="Narikyo.svg"
   xml:space="preserve"
   xmlns:inkscape="http://www.inkscape.org/namespaces/inkscape"
   xmlns:sodipodi="http://sodipodi.sourceforge.net/DTD/sodipodi-0.dtd"
   xmlns="http://www.w3.org/2000/svg"
   xmlns:svg="http://www.w3.org/2000/svg"><sodipodi:namedview
     id="namedview1"
     pagecolor="#ffffff"
     bordercolor="#111111"
     borderopacity="1"
     inkscape:showpageshadow="false"
     inkscape:pageopacity="0"
     inkscape:pagecheckerboard="1"
     inkscape:deskcolor="#d1d1d1"
     inkscape:document-units="mm"
     showguides="true"
     inkscape:zoom="13.096375"
     inkscape:cx="19.280144"
     inkscape:cy="20.959998"
     inkscape:window-width="1292"
     inkscape:window-height="745"
     inkscape:window-x="-8"
     inkscape:window-y="-8"
     inkscape:window-maximized="1"
     inkscape:current-layer="layer1"
     labelstyle="default"><inkscape:page
       x="0"
       y="0"
       width="38.549999"
       height="41.919998"
       id="page42"
       margin="0"
       bleed="0" /></sodipodi:namedview><defs
     id="defs1"><inkscape:path-effect
       effect="powerstroke"
       id="path-effect12"
       is_visible="true"
       lpeversion="1.3"
       scale_width="1"
       interpolator_type="CubicBezierJohan"
       interpolator_beta="0.2"
       start_linecap_type="zerowidth"
       end_linecap_type="zerowidth"
       offset_points="7,4.9921382"
       linejoin_type="extrp_arc"
       miter_limit="4"
       not_jump="false"
       sort_points="true"
       message="&lt;b&gt;Ctrl + click&lt;/b&gt; on existing node and move it" /><inkscape:path-effect
       effect="powerstroke"
       id="path-effect13"
       is_visible="true"
       lpeversion="1.3"
       scale_width="1"
       interpolator_type="CubicBezierJohan"
       interpolator_beta="0.2"
       start_linecap_type="zerowidth"
       end_linecap_type="zerowidth"
       offset_points="5,4.9921382"
       linejoin_type="extrp_arc"
       miter_limit="4"
       not_jump="false"
       sort_points="true"
       message="&lt;b&gt;Ctrl + click&lt;/b&gt; on existing node and move it" /><inkscape:path-effect
       effect="powerstroke"
       id="path-effect13-8"
       is_visible="true"
       lpeversion="1.3"
       scale_width="1"
       interpolator_type="CubicBezierJohan"
       interpolator_beta="0.2"
       start_linecap_type="zerowidth"
       end_linecap_type="zerowidth"
       offset_points="5,4.9921382"
       linejoin_type="extrp_arc"
       miter_limit="4"
       not_jump="false"
       sort_points="true"
       message="&lt;b&gt;Ctrl + click&lt;/b&gt; on existing node and move it" /><inkscape:path-effect
       effect="powerstroke"
       id="path-effect13-86"
       is_visible="true"
       lpeversion="1.3"
       scale_width="1"
       interpolator_type="CubicBezierJohan"
       interpolator_beta="0.2"
       start_linecap_type="zerowidth"
       end_linecap_type="zerowidth"
       offset_points="5,4.9921382"
       linejoin_type="extrp_arc"
       miter_limit="4"
       not_jump="false"
       sort_points="true"
       message="&lt;b&gt;Ctrl + click&lt;/b&gt; on existing node and move it" /><inkscape:path-effect
       effect="powerstroke"
       id="path-effect13-5"
       is_visible="true"
       lpeversion="1.3"
       scale_width="1"
       interpolator_type="CubicBezierJohan"
       interpolator_beta="0.2"
       start_linecap_type="zerowidth"
       end_linecap_type="zerowidth"
       offset_points="5,4.9921382"
       linejoin_type="extrp_arc"
       miter_limit="4"
       not_jump="false"
       sort_points="true"
       message="&lt;b&gt;Ctrl + click&lt;/b&gt; on existing node and move it" /></defs><g
     inkscape:label="Layer 1"
     inkscape:groupmode="layer"
     id="layer1"
     transform="matrix(-0.81881521,0,0,-1,105.2506,205.36)"><path
       style="fill:#938e5e;fill-opacity:1;fill-rule:evenodd;stroke:none;stroke-width:1;stroke-linecap:round;stroke-linejoin:round;stroke-dasharray:none;stroke-opacity:1;paint-order:stroke fill markers"
       d="m 119.35,200 v -6.4 l -4.93136,-22.29416 -9.41866,-2.50583 -9.418612,2.50581 -4.931372,22.29418 2e-6,6.4 z"
       id="path12"
       sodipodi:nodetypes="cccccccc" /><path
       style="display:inline;fill:#fff29e;fill-opacity:1;fill-rule:evenodd;stroke:none;stroke-width:0.360847;stroke-linecap:round;stroke-linejoin:round;paint-order:stroke fill markers"
       d="m 105,172 9.41864,2.50583 L 119.35,200 h -28.7 l 4.931368,-25.49419 z"
       id="path13"
       sodipodi:nodetypes="cccccc" /><path
       id="path1"
       style="fill:#000000;stroke-width:0.60804"
       d="m 102.9684,176.03018 c -0.25664,-0.0408 -0.41566,-0.0409 -0.44933,0.004 -0.06,0.0795 -0.002,0.51649 0.12848,0.97126 0.30805,1.0718 0.30256,1.61193 -0.0298,2.91663 -0.36452,1.43072 -0.2531,1.54506 1.37994,1.42078 1.46622,-0.11157 1.49189,-0.047 0.57607,1.43899 -0.78495,1.27364 -1.31433,2.36388 -1.1952,2.46142 0.05,0.0409 0.30082,-0.012 1.0756,-0.23533 0.77478,-0.22328 1.51483,-0.47379 2.12598,-0.72712 1.57057,-0.65101 1.50601,-1.08276 -0.28127,-1.88651 -0.41274,-0.1856 -0.51511,-0.31436 -0.43926,-0.55188 0.31013,-0.97106 3.07622,-2.06168 3.07622,-2.71732 0,-0.70524 -1.27477,-0.74586 -3.16372,-0.10065 -0.32211,0.11003 -0.6524,0.16614 -0.73407,0.12482 -0.0817,-0.0413 -0.0408,-0.48552 0.0906,-0.98719 0.39668,-1.51404 0.42696,-1.4626 -1.12473,-1.89191 -0.42471,-0.11753 -0.77883,-0.19888 -1.03547,-0.23969 z m -0.80352,9.37456 c -0.16005,0.0513 -0.38464,0.24603 -0.68407,0.58742 -0.56798,0.64762 -0.77544,1.53499 -0.45731,1.95646 0.18481,0.24484 0.73837,0.16587 1.63586,-0.23344 0.966,-0.42979 2.30806,-0.779 3.30644,-0.86037 0.56055,-0.0457 0.70535,-1.3e-4 0.85526,0.26926 0.12081,0.21753 0.12128,0.45053 0.002,0.70797 -0.1608,0.34631 -0.29603,0.39358 -1.38828,0.48535 -1.15951,0.0974 -2.89913,0.6766 -3.21873,0.88222 -0.31961,0.20562 -0.46074,0.83066 -0.22001,1.42794 0.11305,0.28049 0.48079,0.7079 0.81706,0.94966 0.66645,0.47913 0.72565,0.61791 0.38926,0.91468 -1.85874,1.63981 -1.91123,1.70227 -1.91123,2.27547 0,0.59773 0.22058,0.83768 1.04798,1.13902 h 3.5e-4 c 0.53449,0.19466 0.9908,0.13006 2.77418,-0.62314 1.78337,-0.7532 2.03448,-0.82158 4.29325,-1.35806 0.80088,-0.19021 1.31498,-0.39525 1.39036,-0.55472 0.0658,-0.13917 0.15196,-0.90814 0.19168,-1.70881 0.0694,-1.39745 0.06,-1.44409 -0.23856,-1.16461 -0.60367,0.56509 -2.60733,1.56245 -3.48076,1.80549 -0.57541,0.16011 -0.71377,0.15909 -0.84171,-0.006 -0.0842,-0.10883 -0.15457,-0.23441 -0.15592,-0.27892 -0.003,-0.0942 0.62553,-0.78559 1.18688,-1.30535 1.42849,-1.32267 1.55131,-1.56549 1.03027,-2.03692 -0.24038,-0.21749 -0.24038,-0.30003 0,-0.7711 0.41708,-0.81736 0.341,-1.23511 -0.32467,-1.78017 -0.84515,-0.69202 -1.29399,-0.7378 -3.52313,-0.35967 -1.06825,0.1812 -1.98506,0.29437 -2.03727,0.25162 -0.0522,-0.0427 -0.11601,-0.19466 -0.14168,-0.33778 -0.0416,-0.23218 -0.13717,-0.3245 -0.29723,-0.27323 z m 3.87037,3.95045 c 0.0827,0.0148 0.13828,0.0563 0.1705,0.1251 0.11199,0.23896 -0.86946,1.45289 -1.27855,1.58143 -0.40936,0.12863 -0.48808,0.11721 -0.92991,-0.13619 -1.26257,-0.72412 1.49857,-1.48075 1.70426,-1.53566 0.14109,-0.0376 0.25098,-0.0495 0.3337,-0.0347 z"
       sodipodi:nodetypes="cccsssscsssssscscccssscccscsssscccsscssscsssssscccccssccc"
       transform="translate(6.5424442e-7)" /></g></svg>
