<?xml version="1.0" encoding="UTF-8" standalone="no"?>
<!-- Created with Inkscape (http://www.inkscape.org/) -->

<svg
   viewBox="0 0 38.549999 41.919998"
   version="1.1"
   id="svg1"
   inkscape:version="1.3.2 (091e20e, 2023-11-25, custom)"
   sodipodi:docname="Narikei.svg"
   xml:space="preserve"
   xmlns:inkscape="http://www.inkscape.org/namespaces/inkscape"
   xmlns:sodipodi="http://sodipodi.sourceforge.net/DTD/sodipodi-0.dtd"
   xmlns="http://www.w3.org/2000/svg"
   xmlns:svg="http://www.w3.org/2000/svg"><sodipodi:namedview
     id="namedview1"
     pagecolor="#ffffff"
     bordercolor="#111111"
     borderopacity="1"
     inkscape:showpageshadow="false"
     inkscape:pageopacity="0"
     inkscape:pagecheckerboard="1"
     inkscape:deskcolor="#d1d1d1"
     inkscape:document-units="mm"
     showguides="true"
     inkscape:zoom="13.096375"
     inkscape:cx="19.280144"
     inkscape:cy="20.959998"
     inkscape:window-width="1292"
     inkscape:window-height="745"
     inkscape:window-x="-8"
     inkscape:window-y="-8"
     inkscape:window-maximized="1"
     inkscape:current-layer="layer1"
     labelstyle="default"><inkscape:page
       x="0"
       y="0"
       width="38.549999"
       height="41.919998"
       id="page42"
       margin="0"
       bleed="0" /></sodipodi:namedview><defs
     id="defs1"><inkscape:path-effect
       effect="powerstroke"
       id="path-effect12"
       is_visible="true"
       lpeversion="1.3"
       scale_width="1"
       interpolator_type="CubicBezierJohan"
       interpolator_beta="0.2"
       start_linecap_type="zerowidth"
       end_linecap_type="zerowidth"
       offset_points="7,4.9921382"
       linejoin_type="extrp_arc"
       miter_limit="4"
       not_jump="false"
       sort_points="true"
       message="&lt;b&gt;Ctrl + click&lt;/b&gt; on existing node and move it" /><inkscape:path-effect
       effect="powerstroke"
       id="path-effect13"
       is_visible="true"
       lpeversion="1.3"
       scale_width="1"
       interpolator_type="CubicBezierJohan"
       interpolator_beta="0.2"
       start_linecap_type="zerowidth"
       end_linecap_type="zerowidth"
       offset_points="5,4.9921382"
       linejoin_type="extrp_arc"
       miter_limit="4"
       not_jump="false"
       sort_points="true"
       message="&lt;b&gt;Ctrl + click&lt;/b&gt; on existing node and move it" /><inkscape:path-effect
       effect="powerstroke"
       id="path-effect13-2"
       is_visible="true"
       lpeversion="1.3"
       scale_width="1"
       interpolator_type="CubicBezierJohan"
       interpolator_beta="0.2"
       start_linecap_type="zerowidth"
       end_linecap_type="zerowidth"
       offset_points="5,4.9921382"
       linejoin_type="extrp_arc"
       miter_limit="4"
       not_jump="false"
       sort_points="true"
       message="&lt;b&gt;Ctrl + click&lt;/b&gt; on existing node and move it" /><inkscape:path-effect
       effect="powerstroke"
       id="path-effect13-7"
       is_visible="true"
       lpeversion="1.3"
       scale_width="1"
       interpolator_type="CubicBezierJohan"
       interpolator_beta="0.2"
       start_linecap_type="zerowidth"
       end_linecap_type="zerowidth"
       offset_points="5,4.9921382"
       linejoin_type="extrp_arc"
       miter_limit="4"
       not_jump="false"
       sort_points="true"
       message="&lt;b&gt;Ctrl + click&lt;/b&gt; on existing node and move it" /><inkscape:path-effect
       effect="powerstroke"
       id="path-effect13-6"
       is_visible="true"
       lpeversion="1.3"
       scale_width="1"
       interpolator_type="CubicBezierJohan"
       interpolator_beta="0.2"
       start_linecap_type="zerowidth"
       end_linecap_type="zerowidth"
       offset_points="5,4.9921382"
       linejoin_type="extrp_arc"
       miter_limit="4"
       not_jump="false"
       sort_points="true"
       message="&lt;b&gt;Ctrl + click&lt;/b&gt; on existing node and move it" /></defs><g
     inkscape:label="Layer 1"
     inkscape:groupmode="layer"
     id="layer1"
     transform="matrix(-0.88850161,0,0,-1,112.56767,204.85999)"><path
       style="fill:#938e5e;fill-opacity:1;fill-rule:evenodd;stroke:none;stroke-width:1;stroke-linecap:round;stroke-linejoin:round;stroke-dasharray:none;stroke-opacity:1;paint-order:stroke fill markers"
       d="m 119.35,200 v -6.4 L 114.67855,170.59411 105,167.79999 95.321455,170.59411 90.649996,193.6 l 2e-6,6.4 z"
       id="path12"
       sodipodi:nodetypes="cccccccc" /><path
       style="display:inline;fill:#fff29e;fill-opacity:1;fill-rule:evenodd;stroke:none;stroke-width:0.367234;stroke-linecap:round;stroke-linejoin:round;paint-order:stroke fill markers"
       d="m 105,171 9.67855,2.79412 L 119.35,200 h -28.7 l 4.671455,-26.20588 z"
       id="path13"
       sodipodi:nodetypes="cccccc" /><path
       d="m 102.59972,177.77035 c -0.0423,0.0393 -0.0167,0.15411 0.0363,0.38207 0.26718,1.15321 0.2738,1.53459 0.034,1.97668 -0.3182,0.58664 -1.249,1.5846 -2.76186,2.96141 -1.106021,1.00656 -1.688921,1.40099 -3.753159,2.54001 -0.397044,0.21909 -0.721657,0.4638 -0.721657,0.54381 0,0.38036 3.159694,-0.53603 4.428071,-1.27033 1.993395,-1.0816 3.606665,-2.49363 4.884405,-4.21707 0.31759,-0.41583 0.36677,-0.60799 0.28265,-1.10634 -0.0864,-0.51223 -0.21585,-0.67709 -0.85879,-1.09642 -0.41627,-0.2715 -0.95577,-0.56077 -1.19874,-0.64285 -0.21871,-0.0739 -0.3289,-0.11026 -0.3712,-0.071 z m 3.96896,2.52076 c -0.099,0.088 0.49251,0.86402 1.14919,1.50767 0.66029,0.64718 4.58097,3.53712 4.994,3.681 0.34863,0.12145 1.31725,0.11674 1.53711,-0.007 0.10487,-0.0593 0.23275,-0.35926 0.28452,-0.66677 0.15744,-0.93584 -0.15612,-1.23895 -2.93212,-2.83188 -0.92533,-0.53095 -4.85149,-1.84363 -5.0327,-1.68261 z m -2.5758,1.79016 v 0.87968 c 0,0.55542 -0.0859,0.98048 -0.23283,1.1531 -0.12798,0.15035 -0.23475,0.32096 -0.23775,0.37905 -0.008,0.16868 2.63424,0.12205 3.06958,-0.0542 0.54462,-0.22048 0.61298,-0.47102 0.29164,-1.07168 -0.30565,-0.57132 -1.27668,-1.08365 -2.29622,-1.21142 z m 3.10394,3.07888 c -0.36841,-0.0257 -0.87963,0.0304 -1.59809,0.16422 -1.40431,0.26156 -3.10557,0.28236 -4.08165,0.0497 -0.59442,-0.14162 -0.55357,0.0567 0.1585,0.76938 0.50101,0.50141 0.71217,0.60657 1.34456,0.66981 0.41267,0.0412 0.94763,0.006 1.18883,-0.0801 0.24119,-0.0853 0.65268,-0.1871 0.91422,-0.22611 0.26155,-0.039 0.66258,-0.10734 0.8913,-0.15183 0.34483,-0.0672 0.42791,-0.0248 0.48669,0.24838 0.12684,0.58956 -0.003,0.67117 -1.06407,0.67117 -1.12736,0 -1.72976,0.15946 -2.25567,0.59718 -0.48827,0.40638 -0.47192,1.15842 0.0396,1.8273 0.21795,0.28498 0.39627,0.61084 0.39627,0.72426 0,0.11344 -0.41016,0.45644 -0.91144,0.76223 -0.83992,0.51238 -0.90783,0.59364 -0.86344,1.03372 0.0305,0.30295 0.19532,0.58599 0.45014,0.77433 0.45806,0.33854 1.36083,0.33586 2.59282,-0.008 0.93035,-0.25945 1.44597,-0.34159 2.68786,-0.42775 1.14031,-0.079 1.47666,-0.31625 1.99964,-1.41056 0.14808,-0.30984 0.36652,-0.76323 0.48545,-1.00731 0.43157,-0.88573 0.26505,-0.95295 -0.68945,-0.27865 -0.36735,0.25951 -1.00933,0.54711 -1.42661,0.63899 -0.41727,0.0919 -1.11208,0.25743 -1.54424,0.36805 -0.61417,0.1572 -0.81239,0.16339 -0.9074,0.0286 -0.073,-0.10359 -0.0283,-0.1905 0.15876,-0.36101 0.65008,-0.59263 2.4932,-1.39081 2.68483,-1.76448 0.13761,-0.26836 0.10905,-0.42443 -0.14644,-0.79771 -0.26672,-0.38962 -0.30213,-0.61278 -0.22043,-1.39157 0.0535,-0.51016 0.0403,-1.00282 -0.0294,-1.0948 -0.14719,-0.19434 -0.37273,-0.30212 -0.74115,-0.32788 z m -1.76249,2.95977 c 0.76727,0 0.8505,0.35895 0.21764,0.9391 -0.5949,0.54532 -0.63186,0.55317 -0.97986,0.21152 -0.5424,-0.53253 -0.13295,-1.15062 0.76222,-1.15062 z"
       stroke-width="0.564708"
       id="path3"
       transform="translate(6.4484719e-7)"
       inkscape:label="path1" /></g></svg>
