<?xml version="1.0" encoding="UTF-8" standalone="no"?>
<!-- Created with Inkscape (http://www.inkscape.org/) -->

<svg
   viewBox="0 0 38.549999 41.919998"
   version="1.1"
   id="svg1"
   inkscape:version="1.3.2 (091e20e, 2023-11-25, custom)"
   sodipodi:docname="Ryu.svg"
   xml:space="preserve"
   xmlns:inkscape="http://www.inkscape.org/namespaces/inkscape"
   xmlns:sodipodi="http://sodipodi.sourceforge.net/DTD/sodipodi-0.dtd"
   xmlns="http://www.w3.org/2000/svg"
   xmlns:svg="http://www.w3.org/2000/svg"><sodipodi:namedview
     id="namedview1"
     pagecolor="#ffffff"
     bordercolor="#111111"
     borderopacity="1"
     inkscape:showpageshadow="false"
     inkscape:pageopacity="0"
     inkscape:pagecheckerboard="1"
     inkscape:deskcolor="#d1d1d1"
     inkscape:document-units="mm"
     showguides="true"
     inkscape:zoom="13.096375"
     inkscape:cx="19.280145"
     inkscape:cy="20.959999"
     inkscape:window-width="1292"
     inkscape:window-height="745"
     inkscape:window-x="-8"
     inkscape:window-y="-8"
     inkscape:window-maximized="1"
     inkscape:current-layer="layer1"
     labelstyle="default"><inkscape:page
       x="0"
       y="0"
       width="38.549999"
       height="41.919998"
       id="page42"
       margin="0"
       bleed="0" /></sodipodi:namedview><defs
     id="defs1"><inkscape:path-effect
       effect="powerstroke"
       id="path-effect12"
       is_visible="true"
       lpeversion="1.3"
       scale_width="1"
       interpolator_type="CubicBezierJohan"
       interpolator_beta="0.2"
       start_linecap_type="zerowidth"
       end_linecap_type="zerowidth"
       offset_points="7,4.9921382"
       linejoin_type="extrp_arc"
       miter_limit="4"
       not_jump="false"
       sort_points="true"
       message="&lt;b&gt;Ctrl + click&lt;/b&gt; on existing node and move it" /><inkscape:path-effect
       effect="powerstroke"
       id="path-effect13"
       is_visible="true"
       lpeversion="1.3"
       scale_width="1"
       interpolator_type="CubicBezierJohan"
       interpolator_beta="0.2"
       start_linecap_type="zerowidth"
       end_linecap_type="zerowidth"
       offset_points="5,4.9921382"
       linejoin_type="extrp_arc"
       miter_limit="4"
       not_jump="false"
       sort_points="true"
       message="&lt;b&gt;Ctrl + click&lt;/b&gt; on existing node and move it" /><inkscape:path-effect
       effect="powerstroke"
       id="path-effect13-8"
       is_visible="true"
       lpeversion="1.3"
       scale_width="1"
       interpolator_type="CubicBezierJohan"
       interpolator_beta="0.2"
       start_linecap_type="zerowidth"
       end_linecap_type="zerowidth"
       offset_points="5,4.9921382"
       linejoin_type="extrp_arc"
       miter_limit="4"
       not_jump="false"
       sort_points="true"
       message="&lt;b&gt;Ctrl + click&lt;/b&gt; on existing node and move it" /><inkscape:path-effect
       effect="powerstroke"
       id="path-effect13-5"
       is_visible="true"
       lpeversion="1.3"
       scale_width="1"
       interpolator_type="CubicBezierJohan"
       interpolator_beta="0.2"
       start_linecap_type="zerowidth"
       end_linecap_type="zerowidth"
       offset_points="5,4.9921382"
       linejoin_type="extrp_arc"
       miter_limit="4"
       not_jump="false"
       sort_points="true"
       message="&lt;b&gt;Ctrl + click&lt;/b&gt; on existing node and move it" /><inkscape:path-effect
       effect="powerstroke"
       id="path-effect13-52"
       is_visible="true"
       lpeversion="1.3"
       scale_width="1"
       interpolator_type="CubicBezierJohan"
       interpolator_beta="0.2"
       start_linecap_type="zerowidth"
       end_linecap_type="zerowidth"
       offset_points="5,4.9921382"
       linejoin_type="extrp_arc"
       miter_limit="4"
       not_jump="false"
       sort_points="true"
       message="&lt;b&gt;Ctrl + click&lt;/b&gt; on existing node and move it" /><inkscape:path-effect
       effect="powerstroke"
       id="path-effect13-4"
       is_visible="true"
       lpeversion="1.3"
       scale_width="1"
       interpolator_type="CubicBezierJohan"
       interpolator_beta="0.2"
       start_linecap_type="zerowidth"
       end_linecap_type="zerowidth"
       offset_points="5,4.9921382"
       linejoin_type="extrp_arc"
       miter_limit="4"
       not_jump="false"
       sort_points="true"
       message="&lt;b&gt;Ctrl + click&lt;/b&gt; on existing node and move it" /><inkscape:path-effect
       effect="powerstroke"
       id="path-effect13-51"
       is_visible="true"
       lpeversion="1.3"
       scale_width="1"
       interpolator_type="CubicBezierJohan"
       interpolator_beta="0.2"
       start_linecap_type="zerowidth"
       end_linecap_type="zerowidth"
       offset_points="5,4.9921382"
       linejoin_type="extrp_arc"
       miter_limit="4"
       not_jump="false"
       sort_points="true"
       message="&lt;b&gt;Ctrl + click&lt;/b&gt; on existing node and move it" /><inkscape:path-effect
       effect="powerstroke"
       id="path-effect13-87"
       is_visible="true"
       lpeversion="1.3"
       scale_width="1"
       interpolator_type="CubicBezierJohan"
       interpolator_beta="0.2"
       start_linecap_type="zerowidth"
       end_linecap_type="zerowidth"
       offset_points="5,4.9921382"
       linejoin_type="extrp_arc"
       miter_limit="4"
       not_jump="false"
       sort_points="true"
       message="&lt;b&gt;Ctrl + click&lt;/b&gt; on existing node and move it" /><inkscape:path-effect
       effect="powerstroke"
       id="path-effect13-2"
       is_visible="true"
       lpeversion="1.3"
       scale_width="1"
       interpolator_type="CubicBezierJohan"
       interpolator_beta="0.2"
       start_linecap_type="zerowidth"
       end_linecap_type="zerowidth"
       offset_points="5,4.9921382"
       linejoin_type="extrp_arc"
       miter_limit="4"
       not_jump="false"
       sort_points="true"
       message="&lt;b&gt;Ctrl + click&lt;/b&gt; on existing node and move it" /><inkscape:path-effect
       effect="powerstroke"
       id="path-effect13-6"
       is_visible="true"
       lpeversion="1.3"
       scale_width="1"
       interpolator_type="CubicBezierJohan"
       interpolator_beta="0.2"
       start_linecap_type="zerowidth"
       end_linecap_type="zerowidth"
       offset_points="5,4.9921382"
       linejoin_type="extrp_arc"
       miter_limit="4"
       not_jump="false"
       sort_points="true"
       message="&lt;b&gt;Ctrl + click&lt;/b&gt; on existing node and move it" /></defs><g
     inkscape:label="Layer 1"
     inkscape:groupmode="layer"
     id="layer1"
     transform="rotate(180,62.137499,101.93)"><path
       style="fill:#938e5e;fill-opacity:1;fill-rule:evenodd;stroke:none;stroke-width:0.982424;stroke-linecap:round;stroke-linejoin:round;stroke-dasharray:none;stroke-opacity:1;paint-order:stroke fill markers"
       d="m 118.85,200 v -6.4 L 114.42512,168.86241 105,165.8 95.574879,168.86241 91.149996,193.6 l 2e-6,6.4 z"
       id="path12"
       sodipodi:nodetypes="cccccccc" /><path
       style="display:inline;fill:#fff29e;fill-opacity:1;fill-rule:evenodd;stroke:none;stroke-width:0.373013;stroke-linecap:round;stroke-linejoin:round;paint-order:stroke fill markers"
       d="m 105,169 9.42512,3.06241 L 118.85,200 H 91.149999 l 4.42488,-27.93759 z"
       id="path13"
       sodipodi:nodetypes="cccccc" /><path
       id="path1"
       style="fill:#000000;stroke-width:0.549752"
       d="m 106.95459,175.4657 c -0.1377,-0.004 -0.28159,0.0105 -0.43421,0.0448 -1.19097,0.26861 -1.57,0.67668 -1.57638,1.70144 -0.005,0.79186 0.23827,1.23011 1.06193,1.93036 0.28006,0.23809 0.3877,0.44745 0.34218,0.65602 -0.0366,0.1681 -0.1548,0.71981 -0.26194,1.22712 -0.16193,0.76691 -0.26226,0.95953 -0.60176,1.13508 -1.08128,0.55916 -2.69358,1.79785 -3.502,2.69258 -0.4933,0.54597 -0.96305,0.99485 -1.04305,0.99586 -0.24398,0.002 -1.963389,-0.76378 -1.963389,-0.8755 0,-0.0575 0.85551,-0.38282 1.899679,-0.72212 2.02455,-0.65785 2.2599,-0.87366 1.39938,-1.28611 -0.52365,-0.25097 -1.29122,-0.0797 -3.634149,0.80942 -0.94467,0.35851 -1.759368,0.60991 -1.810001,0.55929 -0.05064,-0.0506 0.261209,-0.45164 0.693793,-0.88967 0.632278,-0.64023 0.880108,-0.79526 1.260158,-0.79526 0.26002,0 0.71909,-0.10728 1.02181,-0.23835 0.944739,-0.40912 1.118939,-0.46795 1.642449,-0.56871 0.62413,-0.1201 0.87313,-0.30968 0.87313,-0.66075 0,-0.66088 -0.89446,-0.71714 -2.994629,-0.19116 -1.03094,0.25821 -1.781674,0.35961 -2.383438,0.32566 -0.521644,-0.0295 -0.878019,0.009 -0.87786,0.0968 0.30437,0.58602 0.914973,0.78693 1.441861,1.08081 0.176911,0.112 0.176911,0.1559 0,0.32565 -0.366388,0.35158 -1.354249,1.05983 -1.876071,1.34276 -1.058778,0.57403 -1.281441,1.00458 -1.019451,1.97754 0.31433,1.16733 0.883942,1.23708 1.628289,0.20059 0.796063,-1.10849 1.165927,-0.68344 0.460168,0.52861 -0.816816,1.40277 -1.371618,2.64954 -1.45838,3.28253 -0.115109,0.83982 0.191596,2.14386 0.592319,2.52031 0.298328,0.28026 0.313842,0.28239 0.663115,0.0189 0.331982,-0.25042 0.365707,-0.39321 0.462529,-1.99171 0.122589,-2.0237 0.235509,-2.52833 0.854261,-3.78517 l 0.462528,-0.93923 0.60412,0.0944 c 0.82871,0.12863 1.514219,0.45887 1.616489,0.7811 0.0499,0.15762 -0.12666,0.71336 -0.42713,1.3404 -0.330769,0.69023 -0.512089,1.28148 -0.512089,1.6684 0,1.23915 1.058829,1.40816 1.706159,0.27139 0.25773,-0.4526 0.32637,-0.8022 0.32803,-1.68965 0.002,-1.1831 0.3426,-1.78407 0.62063,-2.07666 0.18,-0.18943 0.5856,-0.71296 0.90383,-1.16577 0.61463,-0.87452 2.06311,-2.21056 2.22296,-2.05069 0.0526,0.0524 -0.0256,0.63147 -0.17227,1.28848 -0.39728,1.78117 -0.41607,2.03833 -0.17698,2.35983 0.21593,0.29034 0.21717,0.28842 0.62771,-0.0165 0.27797,-0.20652 0.47883,-0.54636 0.61591,-1.05249 0.27446,-1.01329 0.59579,-1.00582 0.59469,0.0142 -4.5e-4,0.42 -0.0605,0.99195 -0.13452,1.27196 -0.0739,0.27998 -0.17037,0.89363 -0.21474,1.36398 -0.0442,0.47033 -0.15373,0.94487 -0.24306,1.05249 -0.15796,0.19034 -2.73959,1.07373 -3.13623,1.07373 -0.10898,0 -0.19823,0.0663 -0.19823,0.1463 0,0.22128 2.02549,0.16479 2.69259,-0.0755 0.32,-0.11527 0.59233,-0.21127 0.60647,-0.21239 0.0141,-0.001 0.19075,0.33989 0.39174,0.75988 0.201,0.42002 0.49403,0.91075 0.65131,1.09024 0.39568,0.45155 1.62277,1.04488 2.44244,1.26015 0.81969,0.21529 3.589,-0.13435 4.65123,-0.77402 1.06225,-0.63964 2.2635,-2.41268 2.1687,-2.90496 -0.1241,-0.64447 -0.75634,-1.28097 -1.74864,-1.75809 -0.24001,-0.11538 -0.55096,-0.30376 -0.69144,-0.42005 -0.41317,-0.34201 -0.47433,-0.0645 -0.1345,0.61592 0.1739,0.3482 0.31622,0.77759 0.31622,0.95574 0,0.42315 -1.34957,1.72423 -2.26309,2.18048 -1.7146,0.85631 -4.40195,0.1329 -4.25243,-1.14451 0.0381,-0.32467 0.20762,-0.4263 1.42535,-0.85191 1.23478,-0.43157 1.77636,-0.67685 3.2542,-1.47489 0.88871,-0.47991 1.46513,-1.28414 1.3758,-1.91619 -0.0375,-0.26437 -0.29381,-0.47661 -1.06193,-0.88023 -0.55769,-0.29306 -1.03504,-0.59421 -1.05957,-0.66783 -0.0434,-0.13034 0.56935,-0.34922 1.52682,-0.54512 0.30758,-0.0631 0.4736,-0.18172 0.47196,-0.33982 -0.002,-0.38683 -0.18117,-0.57201 -0.92505,-0.96753 -0.62777,-0.33379 -0.75785,-0.35439 -1.30264,-0.20767 -0.74496,0.20058 -1.69909,0.67611 -1.69909,0.84718 0,0.12475 0.55143,0.31853 1.05958,0.37286 0.50437,0.054 0.59755,0.3081 0.34217,0.94629 -0.17326,0.43308 -0.20082,0.67428 -0.0944,0.87315 0.39873,0.74503 0.0402,1.26067 -1.67547,2.40231 -1.3746,0.91462 -1.76512,0.96258 -1.61178,0.19587 0.05,-0.25029 0.13284,-1.18947 0.18408,-2.08611 0.10282,-1.80106 0.10031,-1.81002 -0.81415,-1.95866 -0.59147,-0.0962 -0.67586,-0.30845 -0.45073,-1.14453 0.15416,-0.57243 0.17423,-0.584 1.86427,-1.25778 0.93907,-0.37436 1.76571,-0.73925 1.83831,-0.80943 0.21452,-0.20734 -0.11581,-0.48041 -1.30027,-1.07372 -0.60952,-0.30533 -1.14341,-0.64632 -1.18699,-0.75987 -0.14711,-0.38312 0.41343,-0.25409 0.49557,-1.61885 0.0435,-0.72064 0.003,-0.88607 -0.31151,-1.2342 -0.35542,-0.39338 -0.71022,-0.58534 -1.12328,-0.59939 z m -6.76566,0.0755 c -0.1543,-0.005 -0.346549,-0.002 -0.592319,0.005 -0.58904,0.0151 -1.10362,0.0792 -1.14216,0.1416 -0.0386,0.0623 0.084,0.21229 0.27138,0.33509 0.37078,0.24295 0.88836,1.0955 1.02889,1.69437 0.16498,0.70311 -0.11956,0.8495 -1.83359,0.95337 -0.860008,0.0521 -1.562218,0.1227 -1.562218,0.15576 0,0.0793 0.824057,0.77446 1.297911,1.09496 0.425447,0.28774 1.045757,0.26848 3.400536,-0.10383 1.48045,-0.23411 2.42826,-0.54027 2.42826,-0.78583 0,-0.33188 -0.50061,-0.5923 -1.31443,-0.68436 l -0.87077,-0.0991 0.0378,-0.98641 c 0.0332,-0.87394 -0.002,-1.03173 -0.31622,-1.36634 -0.24404,-0.26017 -0.3701,-0.34033 -0.83302,-0.35398 z m 6.18985,1.04069 c 0.0514,0.003 0.10267,0.0122 0.1534,0.0283 0.34841,0.11055 0.41515,0.31012 0.33274,0.98406 -0.0372,0.30531 -0.14553,0.54512 -0.24779,0.54512 -0.35042,0 -0.94866,-0.59995 -0.94866,-0.95101 0,-0.30038 0.25663,-0.54858 0.55693,-0.59941 0.0501,-0.008 0.10196,-0.0102 0.15338,-0.007 z m 1.37816,3.55864 c 0.0294,0.003 0.0574,0.0124 0.0826,0.0283 0.17304,0.1091 0.17654,0.17102 0.0189,0.36104 -0.19922,0.24007 -0.58995,0.31337 -0.58995,0.11092 0,-0.21977 0.20715,-0.44682 0.39645,-0.4932 0.0315,-0.008 0.0626,-0.0103 0.092,-0.007 z"
       transform="translate(-0.01245937)" /></g></svg>
