<?xml version="1.0" encoding="UTF-8" standalone="no"?>
<!-- Created with Inkscape (http://www.inkscape.org/) -->

<svg
   viewBox="0 0 38.549999 41.919998"
   version="1.1"
   id="svg1"
   inkscape:version="1.3.2 (091e20e, 2023-11-25, custom)"
   sodipodi:docname="Narigin.svg"
   xml:space="preserve"
   xmlns:inkscape="http://www.inkscape.org/namespaces/inkscape"
   xmlns:sodipodi="http://sodipodi.sourceforge.net/DTD/sodipodi-0.dtd"
   xmlns="http://www.w3.org/2000/svg"
   xmlns:svg="http://www.w3.org/2000/svg"><sodipodi:namedview
     id="namedview1"
     pagecolor="#ffffff"
     bordercolor="#111111"
     borderopacity="1"
     inkscape:showpageshadow="0"
     inkscape:pageopacity="0"
     inkscape:pagecheckerboard="1"
     inkscape:deskcolor="#d1d1d1"
     inkscape:document-units="mm"
     showguides="true"
     inkscape:zoom="13.096375"
     inkscape:cx="19.280144"
     inkscape:cy="20.959998"
     inkscape:window-width="1292"
     inkscape:window-height="745"
     inkscape:window-x="-8"
     inkscape:window-y="-8"
     inkscape:window-maximized="1"
     inkscape:current-layer="layer1"><inkscape:page
       x="0"
       y="0"
       width="38.549999"
       height="41.919998"
       id="page42"
       margin="0"
       bleed="0" /></sodipodi:namedview><defs
     id="defs1"><inkscape:path-effect
       effect="powerstroke"
       id="path-effect13"
       is_visible="true"
       lpeversion="1.3"
       scale_width="1"
       interpolator_type="CubicBezierJohan"
       interpolator_beta="0.2"
       start_linecap_type="zerowidth"
       end_linecap_type="zerowidth"
       offset_points="5,4.9921382"
       linejoin_type="extrp_arc"
       miter_limit="4"
       not_jump="false"
       sort_points="true"
       message="&lt;b&gt;Ctrl + click&lt;/b&gt; on existing node and move it" /><inkscape:path-effect
       effect="powerstroke"
       id="path-effect12"
       is_visible="true"
       lpeversion="1.3"
       scale_width="1"
       interpolator_type="CubicBezierJohan"
       interpolator_beta="0.2"
       start_linecap_type="zerowidth"
       end_linecap_type="zerowidth"
       offset_points="7,4.9921382"
       linejoin_type="extrp_arc"
       miter_limit="4"
       not_jump="false"
       sort_points="true"
       message="&lt;b&gt;Ctrl + click&lt;/b&gt; on existing node and move it" /><inkscape:path-effect
       effect="powerstroke"
       id="path-effect13-0"
       is_visible="true"
       lpeversion="1.3"
       scale_width="1"
       interpolator_type="CubicBezierJohan"
       interpolator_beta="0.2"
       start_linecap_type="zerowidth"
       end_linecap_type="zerowidth"
       offset_points="5,4.9921382"
       linejoin_type="extrp_arc"
       miter_limit="4"
       not_jump="false"
       sort_points="true"
       message="&lt;b&gt;Ctrl + click&lt;/b&gt; on existing node and move it" /><inkscape:path-effect
       effect="powerstroke"
       id="path-effect13-9"
       is_visible="true"
       lpeversion="1.3"
       scale_width="1"
       interpolator_type="CubicBezierJohan"
       interpolator_beta="0.2"
       start_linecap_type="zerowidth"
       end_linecap_type="zerowidth"
       offset_points="5,4.9921382"
       linejoin_type="extrp_arc"
       miter_limit="4"
       not_jump="false"
       sort_points="true"
       message="&lt;b&gt;Ctrl + click&lt;/b&gt; on existing node and move it" /><inkscape:path-effect
       effect="powerstroke"
       id="path-effect13-1"
       is_visible="true"
       lpeversion="1.3"
       scale_width="1"
       interpolator_type="CubicBezierJohan"
       interpolator_beta="0.2"
       start_linecap_type="zerowidth"
       end_linecap_type="zerowidth"
       offset_points="5,4.9921382"
       linejoin_type="extrp_arc"
       miter_limit="4"
       not_jump="false"
       sort_points="true"
       message="&lt;b&gt;Ctrl + click&lt;/b&gt; on existing node and move it" /><inkscape:path-effect
       effect="powerstroke"
       id="path-effect13-03"
       is_visible="true"
       lpeversion="1.3"
       scale_width="1"
       interpolator_type="CubicBezierJohan"
       interpolator_beta="0.2"
       start_linecap_type="zerowidth"
       end_linecap_type="zerowidth"
       offset_points="5,4.9921382"
       linejoin_type="extrp_arc"
       miter_limit="4"
       not_jump="false"
       sort_points="true"
       message="&lt;b&gt;Ctrl + click&lt;/b&gt; on existing node and move it" /><inkscape:path-effect
       effect="powerstroke"
       id="path-effect13-06"
       is_visible="true"
       lpeversion="1.3"
       scale_width="1"
       interpolator_type="CubicBezierJohan"
       interpolator_beta="0.2"
       start_linecap_type="zerowidth"
       end_linecap_type="zerowidth"
       offset_points="5,4.9921382"
       linejoin_type="extrp_arc"
       miter_limit="4"
       not_jump="false"
       sort_points="true"
       message="&lt;b&gt;Ctrl + click&lt;/b&gt; on existing node and move it" /></defs><g
     inkscape:label="Layer 1"
     inkscape:groupmode="layer"
     id="layer1"
     transform="translate(-84.724992,-164.64)"><path
       style="fill:#938e5e;fill-opacity:1;fill-rule:evenodd;stroke:none;stroke-width:0.964528;stroke-linecap:round;stroke-linejoin:round;stroke-dasharray:none;stroke-opacity:1;paint-order:stroke fill markers"
       d="m 90.649993,169 v 6.4 l 4.285044,23.85462 9.064953,2.94538 9.06497,-2.94539 L 117.34999,175.4 V 169 Z"
       id="path12"
       sodipodi:nodetypes="cccccccc" /><path
       style="display:inline;fill:#fff29e;fill-opacity:1;fill-rule:evenodd;stroke:none;stroke-width:0.360263;stroke-linecap:round;stroke-linejoin:round;paint-order:stroke fill markers"
       d="M 103.99999,199 94.935037,196.05462 90.649995,169 h 26.699995 l -4.28503,27.05461 z"
       id="path13-6"
       sodipodi:nodetypes="cccccc" /><path
       id="path1"
       style="fill:#000000;stroke-width:0.488431"
       d="m 101.50352,177.38307 c -0.36389,0 -0.49902,0.54562 -0.27056,1.09241 0.11259,0.26942 0.20394,0.70102 0.20344,0.95885 -0.002,0.72646 -0.81663,2.29593 -1.815281,3.51847 -2.084536,2.55185 -4.813643,3.02706 -4.90244,3.08391 -0.14176,0.0907 -0.154658,0.16134 -0.04872,0.2673 0.105958,0.10602 0.430624,0.10348 1.226677,-0.009 1.143929,-0.16231 1.550884,-0.31004 2.697951,-0.97983 0.680125,-0.39714 2.584603,-2.11955 2.962033,-2.68611 0.37742,-0.56655 0.58112,-0.88161 0.79398,-1.40005 0.12273,-0.29894 0.19964,-0.34185 0.48865,-0.27261 1.30519,0.3128 3.91938,2.26048 6.41333,4.77851 0.71267,0.71958 1.38304,1.34025 1.48967,1.37913 0.3628,0.13235 0.68171,0.0916 1.21355,-0.15547 1.05661,-0.4907 1.44371,-0.63818 1.8963,-0.72189 1.02251,-0.18912 0.99501,-0.45583 -0.073,-0.70699 -3.05893,-0.71929 -2.86656,-0.64641 -4.19998,-1.5914 -2.5817,-1.82962 -3.65211,-2.50777 -4.78152,-3.02959 -0.67524,-0.31198 -1.31493,-0.6151 -1.42154,-0.67341 -0.20122,-0.11 -0.21347,-0.35427 -0.0618,-1.24536 0.0828,-0.4867 0.0572,-0.55347 -0.34428,-0.89199 -0.45869,-0.38673 -1.13131,-0.7143 -1.46647,-0.7143 z m 3.79515,7.14276 c -0.32092,-0.007 -0.80428,0.0626 -1.55378,0.20544 -0.73599,0.14029 -1.67386,0.23877 -2.08436,0.21886 -0.41052,-0.0199 -0.77242,0.006 -0.80417,0.0571 -0.0847,0.13701 0.57921,0.69134 1.07171,0.89478 0.2568,0.10611 0.41074,0.25286 0.38769,0.36976 -0.0419,0.21231 -0.98692,0.54024 -1.56615,0.54317 -0.27418,9.5e-4 -0.35432,0.057 -0.32232,0.22312 0.0278,0.14427 0.3119,0.30299 0.81728,0.45686 0.80902,0.24631 1.18283,0.50138 1.04999,0.71632 -0.087,0.14068 -1.5969,0.35451 -1.87888,0.39199 -0.0974,0.013 -0.19805,0.025 -0.22818,0.10645 -0.10634,0.28759 0.86799,0.79934 1.92862,1.0129 0.31537,0.0636 0.35538,0.12894 0.35538,0.58029 0,0.48434 -0.0231,0.51299 -0.48461,0.60524 -0.65524,0.131 -1.53241,0.1311 -2.196937,2.6e-4 -0.76954,-0.15151 -0.718897,0.0601 0.237267,0.98994 0.73354,0.71331 0.81958,0.76037 1.27414,0.69941 0.81954,-0.10991 2.99204,-1.24824 4.78859,-1.25648 0.63358,-0.003 1.42154,-0.3912 1.42154,-0.70092 0,-0.10243 -0.15322,-0.307 -0.34049,-0.45432 -0.45966,-0.36136 -1.53396,-0.36194 -2.32564,-9.6e-4 -0.72561,0.33055 -0.98527,0.18655 -0.92658,-0.51364 l 0.039,-0.46342 0.71078,-0.0435 c 0.75269,-0.0461 1.16307,-0.28748 1.16307,-0.68401 0,-0.30197 -0.64714,-0.63885 -1.03334,-0.53786 -0.20498,0.0537 -0.35203,0.003 -0.47225,-0.1608 -0.2649,-0.36226 -0.21484,-0.44776 0.26175,-0.44776 1.15739,0 1.69747,-0.39332 1.32361,-0.96393 -0.17044,-0.2601 -0.2581,-0.28463 -0.71732,-0.20065 -0.38243,0.0699 -0.56308,0.0474 -0.6719,-0.0838 -0.0819,-0.0986 -0.12608,-0.19436 -0.0982,-0.21277 0.7772,-0.51278 0.85123,-0.0875 1.28748,-0.55175 0.2398,-0.25523 0.27573,-0.37209 0.16736,-0.54519 -0.10042,-0.16058 -0.25912,-0.24318 -0.58002,-0.24987 z"
       sodipodi:nodetypes="csccsscscssscsssssssscccssssccsssscsssssscscccccsscsssscsscc"
       transform="rotate(180,103.99999,184.5)" /></g></svg>
