<?xml version="1.0" encoding="UTF-8" standalone="no"?>
<!-- Created with Inkscape (http://www.inkscape.org/) -->

<svg
   viewBox="0 0 38.549999 41.919998"
   version="1.1"
   id="svg1"
   inkscape:version="1.3.2 (091e20e, 2023-11-25, custom)"
   sodipodi:docname="Kin.svg"
   xml:space="preserve"
   xmlns:inkscape="http://www.inkscape.org/namespaces/inkscape"
   xmlns:sodipodi="http://sodipodi.sourceforge.net/DTD/sodipodi-0.dtd"
   xmlns="http://www.w3.org/2000/svg"
   xmlns:svg="http://www.w3.org/2000/svg"><sodipodi:namedview
     id="namedview1"
     pagecolor="#ffffff"
     bordercolor="#111111"
     borderopacity="1"
     inkscape:showpageshadow="0"
     inkscape:pageopacity="0"
     inkscape:pagecheckerboard="1"
     inkscape:deskcolor="#d1d1d1"
     inkscape:document-units="mm"
     showguides="true"
     inkscape:zoom="13.096375"
     inkscape:cx="19.280144"
     inkscape:cy="20.959998"
     inkscape:window-width="1292"
     inkscape:window-height="745"
     inkscape:window-x="-8"
     inkscape:window-y="-8"
     inkscape:window-maximized="1"
     inkscape:current-layer="layer1"><inkscape:page
       x="0"
       y="0"
       width="38.549999"
       height="41.919998"
       id="page42"
       margin="0"
       bleed="0" /></sodipodi:namedview><defs
     id="defs1"><inkscape:path-effect
       effect="powerstroke"
       id="path-effect13"
       is_visible="true"
       lpeversion="1.3"
       scale_width="1"
       interpolator_type="CubicBezierJohan"
       interpolator_beta="0.2"
       start_linecap_type="zerowidth"
       end_linecap_type="zerowidth"
       offset_points="5,4.9921382"
       linejoin_type="extrp_arc"
       miter_limit="4"
       not_jump="false"
       sort_points="true"
       message="&lt;b&gt;Ctrl + click&lt;/b&gt; on existing node and move it" /><inkscape:path-effect
       effect="powerstroke"
       id="path-effect12"
       is_visible="true"
       lpeversion="1.3"
       scale_width="1"
       interpolator_type="CubicBezierJohan"
       interpolator_beta="0.2"
       start_linecap_type="zerowidth"
       end_linecap_type="zerowidth"
       offset_points="7,4.9921382"
       linejoin_type="extrp_arc"
       miter_limit="4"
       not_jump="false"
       sort_points="true"
       message="&lt;b&gt;Ctrl + click&lt;/b&gt; on existing node and move it" /><inkscape:path-effect
       effect="powerstroke"
       id="path-effect13-0"
       is_visible="true"
       lpeversion="1.3"
       scale_width="1"
       interpolator_type="CubicBezierJohan"
       interpolator_beta="0.2"
       start_linecap_type="zerowidth"
       end_linecap_type="zerowidth"
       offset_points="5,4.9921382"
       linejoin_type="extrp_arc"
       miter_limit="4"
       not_jump="false"
       sort_points="true"
       message="&lt;b&gt;Ctrl + click&lt;/b&gt; on existing node and move it" /><inkscape:path-effect
       effect="powerstroke"
       id="path-effect13-9"
       is_visible="true"
       lpeversion="1.3"
       scale_width="1"
       interpolator_type="CubicBezierJohan"
       interpolator_beta="0.2"
       start_linecap_type="zerowidth"
       end_linecap_type="zerowidth"
       offset_points="5,4.9921382"
       linejoin_type="extrp_arc"
       miter_limit="4"
       not_jump="false"
       sort_points="true"
       message="&lt;b&gt;Ctrl + click&lt;/b&gt; on existing node and move it" /><inkscape:path-effect
       effect="powerstroke"
       id="path-effect13-1"
       is_visible="true"
       lpeversion="1.3"
       scale_width="1"
       interpolator_type="CubicBezierJohan"
       interpolator_beta="0.2"
       start_linecap_type="zerowidth"
       end_linecap_type="zerowidth"
       offset_points="5,4.9921382"
       linejoin_type="extrp_arc"
       miter_limit="4"
       not_jump="false"
       sort_points="true"
       message="&lt;b&gt;Ctrl + click&lt;/b&gt; on existing node and move it" /><inkscape:path-effect
       effect="powerstroke"
       id="path-effect13-03"
       is_visible="true"
       lpeversion="1.3"
       scale_width="1"
       interpolator_type="CubicBezierJohan"
       interpolator_beta="0.2"
       start_linecap_type="zerowidth"
       end_linecap_type="zerowidth"
       offset_points="5,4.9921382"
       linejoin_type="extrp_arc"
       miter_limit="4"
       not_jump="false"
       sort_points="true"
       message="&lt;b&gt;Ctrl + click&lt;/b&gt; on existing node and move it" /><inkscape:path-effect
       effect="powerstroke"
       id="path-effect13-06"
       is_visible="true"
       lpeversion="1.3"
       scale_width="1"
       interpolator_type="CubicBezierJohan"
       interpolator_beta="0.2"
       start_linecap_type="zerowidth"
       end_linecap_type="zerowidth"
       offset_points="5,4.9921382"
       linejoin_type="extrp_arc"
       miter_limit="4"
       not_jump="false"
       sort_points="true"
       message="&lt;b&gt;Ctrl + click&lt;/b&gt; on existing node and move it" /><inkscape:path-effect
       effect="powerstroke"
       id="path-effect13-5"
       is_visible="true"
       lpeversion="1.3"
       scale_width="1"
       interpolator_type="CubicBezierJohan"
       interpolator_beta="0.2"
       start_linecap_type="zerowidth"
       end_linecap_type="zerowidth"
       offset_points="5,4.9921382"
       linejoin_type="extrp_arc"
       miter_limit="4"
       not_jump="false"
       sort_points="true"
       message="&lt;b&gt;Ctrl + click&lt;/b&gt; on existing node and move it" /></defs><g
     inkscape:label="Layer 1"
     inkscape:groupmode="layer"
     id="layer1"
     transform="translate(-84.724992,-164.64)"><path
       style="fill:#938e5e;fill-opacity:1;fill-rule:evenodd;stroke:none;stroke-width:0.964528;stroke-linecap:round;stroke-linejoin:round;stroke-dasharray:none;stroke-opacity:1;paint-order:stroke fill markers"
       d="m 90.649993,169 v 6.4 l 4.285044,23.85462 9.064953,2.94538 9.06497,-2.94539 L 117.34999,175.4 V 169 Z"
       id="path12"
       sodipodi:nodetypes="cccccccc" /><path
       style="display:inline;fill:#fff29e;fill-opacity:1;fill-rule:evenodd;stroke:none;stroke-width:0.360263;stroke-linecap:round;stroke-linejoin:round;paint-order:stroke fill markers"
       d="M 103.99999,199 94.935037,196.05462 90.649995,169 h 26.699995 l -4.28503,27.05461 z"
       id="path13-6"
       sodipodi:nodetypes="cccccc" /><path
       id="path1-7"
       style="display:inline;fill:#000000;stroke-width:0.568238"
       d="m 101.08682,176.26022 c -0.12398,0.0239 -0.11578,0.16758 -0.0138,0.43558 0.31767,0.83551 0.0869,1.78773 -0.72597,2.99146 -0.22334,0.33077 -0.441194,0.6339 -0.483984,0.67527 -1.55645,1.99241 -3.245507,3.87976 -5.29843,5.37218 -0.310087,0.20942 -0.564643,0.44944 -0.564643,0.53238 0,0.24401 1.279851,0.002 2.189433,-0.41484 1.479029,-0.576 2.96226,-1.8291 3.53998,-2.69185 0.577714,-0.86275 0.999304,-1.34265 1.412754,-1.82299 1.05774,-1.22888 1.25581,-1.42428 1.43581,-1.42428 0.23318,0 1.71214,0.84035 2.99145,1.70084 0.61531,0.41385 1.72821,1.35642 2.47522,2.09494 0.74701,0.73853 1.55582,1.44333 1.79533,1.56718 0.56585,0.29262 1.23822,0.16607 2.51671,-0.47477 2.31085,-1.15832 2.31337,-1.15289 -0.81816,-1.87138 -1.29976,-0.29822 -1.63797,-0.44937 -6.74577,-3.03064 l -1.60865,-0.81356 -0.009,-0.75132 c -0.0106,-0.92792 -0.29048,-1.32006 -1.2814,-1.79763 -0.42601,-0.20532 -0.68265,-0.30053 -0.80663,-0.27657 z m 3.92485,5.86769 c -0.18866,-0.0442 -0.95547,0.11511 -1.70776,0.35492 -0.75411,0.2404 -1.52774,0.43657 -2.08803,0.52546 -0.5603,0.0888 -1.05092,0.3236 -1.05092,0.50011 0,0.1515 1.38244,0.76284 1.72388,0.76284 0.30571,0 0.47212,0.4198 0.25352,0.6384 -0.0917,0.0917 -0.65912,0.18743 -1.26066,0.21203 -0.60153,0.0246 -1.313744,0.0838 -1.583304,0.13137 -0.43029,0.0758 -0.47153,0.12134 -0.33418,0.37796 0.27438,0.5127 1.333974,0.93783 2.403774,0.96335 0.89159,0.0212 0.98074,0.052 1.02558,0.36184 0.11339,0.78377 -0.59847,0.99754 -1.37358,0.41253 -0.69295,-0.52299 -1.602154,-0.75766 -2.304684,-0.5946 -0.54875,0.12737 -0.59855,0.18738 -0.908035,1.10854 -0.586994,1.74715 -0.417073,2.72817 0.560035,3.23346 0.38109,0.19704 0.50612,0.19962 0.93109,0.0184 0.26982,-0.11505 0.69454,-0.43742 0.942614,-0.71675 0.24807,-0.27933 0.83201,-0.79248 1.29982,-1.14081 0.99245,-0.73899 1.0302,-0.70776 1.0302,0.86886 0,0.95437 -0.0275,1.04312 -0.33879,1.10854 -0.18605,0.0391 -0.81089,0.17084 -1.38972,0.29269 -0.57882,0.12186 -1.425824,0.26528 -1.880614,0.32035 -1.238082,0.14997 -1.258238,0.10394 0.52547,1.2814 0.496,0.32741 0.925244,0.5944 0.951834,0.5946 0.0267,2e-4 0.32977,-0.16517 0.67526,-0.36644 0.34548,-0.20128 0.96691,-0.44322 2.12721,-0.7928 1.16031,-0.3496 4.06724,-0.45149 5.59804,-0.24199 3.13627,0.42918 2.98514,0.43033 3.41552,0 0.21381,-0.21382 0.38718,-0.45017 0.38718,-0.52546 0,-0.29615 -0.5984,-0.87552 -1.22147,-1.18 -0.57862,-0.28276 -0.85548,-0.31214 -2.34846,-0.26043 -1.9246,0.0667 -1.94725,0.0477 -1.38971,-1.10624 0.39482,-0.81702 0.39408,-1.8311 -0.002,-2.33462 -0.44162,-0.56142 -1.18298,-0.75731 -2.413,-0.63379 -0.73914,0.0742 -1.04401,0.0561 -1.04401,-0.0645 0,-0.0937 0.0857,-0.19716 0.18899,-0.23046 0.28598,-0.0922 1.79879,-0.2678 2.16408,-0.25121 0.19163,0.008 0.42621,-0.14221 0.57616,-0.37106 0.23743,-0.36236 0.23565,-0.40252 -0.0115,-0.67526 -0.35749,-0.39503 -1.06732,-0.55706 -1.79073,-0.40793 -1.73997,0.3587 -1.57514,0.39449 -1.63861,-0.35723 -0.008,-0.0979 0.22221,-0.20427 0.51163,-0.23507 1.16043,-0.12361 1.65475,-0.3299 1.65475,-0.69601 0,-0.39128 -0.3625,-0.76211 -0.86425,-0.88499 z m 0.33879,5.34453 c 0.32958,-0.003 0.42998,0.077 0.52316,0.2512 0.3295,0.61568 -0.44624,3.16431 -0.96336,3.16431 -0.11564,0 -0.30011,0.0274 -0.41023,0.0622 -0.49356,0.15593 -0.5694,-0.0635 -0.47706,-1.38972 0.11257,-1.61643 0.23787,-1.98056 0.91264,-2.05806 0.1687,-0.0194 0.30498,-0.0288 0.41485,-0.03 z m -5.851564,0.62917 c 0.0564,-5.3e-4 0.12193,0.0102 0.20511,0.03 0.21165,0.0504 0.511704,0.15576 0.666054,0.23508 0.33919,0.17432 0.18169,0.36655 -0.698314,0.85272 -0.3126,0.17271 -0.59958,0.31574 -0.63839,0.31574 -0.12761,0 -0.0739,-0.49623 0.10832,-1.00022 0.11608,-0.32104 0.18813,-0.43136 0.35722,-0.43328 z"
       transform="rotate(180,103.99999,184.5)" /></g></svg>
