<?xml version="1.0" encoding="UTF-8" standalone="no"?>
<!-- Created with Inkscape (http://www.inkscape.org/) -->

<svg
   viewBox="0 0 38.549999 41.919998"
   version="1.1"
   id="svg1"
   inkscape:version="1.3.2 (091e20e, 2023-11-25, custom)"
   sodipodi:docname="Gyoku.svg"
   xml:space="preserve"
   xmlns:inkscape="http://www.inkscape.org/namespaces/inkscape"
   xmlns:sodipodi="http://sodipodi.sourceforge.net/DTD/sodipodi-0.dtd"
   xmlns="http://www.w3.org/2000/svg"
   xmlns:svg="http://www.w3.org/2000/svg"><sodipodi:namedview
     id="namedview1"
     pagecolor="#ffffff"
     bordercolor="#111111"
     borderopacity="1"
     inkscape:showpageshadow="false"
     inkscape:pageopacity="0"
     inkscape:pagecheckerboard="1"
     inkscape:deskcolor="#d1d1d1"
     inkscape:document-units="mm"
     showguides="true"
     inkscape:zoom="11.569391"
     inkscape:cx="19.231782"
     inkscape:cy="20.960481"
     inkscape:window-width="1292"
     inkscape:window-height="745"
     inkscape:window-x="-8"
     inkscape:window-y="-8"
     inkscape:window-maximized="1"
     inkscape:current-layer="layer1"
     labelstyle="default"><inkscape:page
       x="0"
       y="0"
       width="38.549999"
       height="41.919998"
       id="page42"
       margin="0"
       bleed="0" /></sodipodi:namedview><defs
     id="defs1"><inkscape:path-effect
       effect="powerstroke"
       id="path-effect12"
       is_visible="true"
       lpeversion="1.3"
       scale_width="1"
       interpolator_type="CubicBezierJohan"
       interpolator_beta="0.2"
       start_linecap_type="zerowidth"
       end_linecap_type="zerowidth"
       offset_points="7,4.9921382"
       linejoin_type="extrp_arc"
       miter_limit="4"
       not_jump="false"
       sort_points="true"
       message="&lt;b&gt;Ctrl + click&lt;/b&gt; on existing node and move it" /><inkscape:path-effect
       effect="powerstroke"
       id="path-effect13"
       is_visible="true"
       lpeversion="1.3"
       scale_width="1"
       interpolator_type="CubicBezierJohan"
       interpolator_beta="0.2"
       start_linecap_type="zerowidth"
       end_linecap_type="zerowidth"
       offset_points="5,4.9921382"
       linejoin_type="extrp_arc"
       miter_limit="4"
       not_jump="false"
       sort_points="true"
       message="&lt;b&gt;Ctrl + click&lt;/b&gt; on existing node and move it" /><inkscape:path-effect
       effect="powerstroke"
       id="path-effect13-0"
       is_visible="true"
       lpeversion="1.3"
       scale_width="1"
       interpolator_type="CubicBezierJohan"
       interpolator_beta="0.2"
       start_linecap_type="zerowidth"
       end_linecap_type="zerowidth"
       offset_points="5,4.9921382"
       linejoin_type="extrp_arc"
       miter_limit="4"
       not_jump="false"
       sort_points="true"
       message="&lt;b&gt;Ctrl + click&lt;/b&gt; on existing node and move it" /><inkscape:path-effect
       effect="powerstroke"
       id="path-effect13-9"
       is_visible="true"
       lpeversion="1.3"
       scale_width="1"
       interpolator_type="CubicBezierJohan"
       interpolator_beta="0.2"
       start_linecap_type="zerowidth"
       end_linecap_type="zerowidth"
       offset_points="5,4.9921382"
       linejoin_type="extrp_arc"
       miter_limit="4"
       not_jump="false"
       sort_points="true"
       message="&lt;b&gt;Ctrl + click&lt;/b&gt; on existing node and move it" /><inkscape:path-effect
       effect="powerstroke"
       id="path-effect13-1"
       is_visible="true"
       lpeversion="1.3"
       scale_width="1"
       interpolator_type="CubicBezierJohan"
       interpolator_beta="0.2"
       start_linecap_type="zerowidth"
       end_linecap_type="zerowidth"
       offset_points="5,4.9921382"
       linejoin_type="extrp_arc"
       miter_limit="4"
       not_jump="false"
       sort_points="true"
       message="&lt;b&gt;Ctrl + click&lt;/b&gt; on existing node and move it" /></defs><g
     inkscape:label="Layer 1"
     inkscape:groupmode="layer"
     id="layer1"
     transform="rotate(180,62.137499,101.68)"><path
       style="fill:#938e5e;fill-opacity:1;fill-rule:evenodd;stroke:none;stroke-width:1;stroke-linecap:round;stroke-linejoin:round;stroke-dasharray:none;stroke-opacity:1;paint-order:stroke fill markers"
       d="m 119.35,200 v -6.4 L 114.78527,167.97943 105,164.8 95.21473,167.97943 90.649996,193.6 l 2e-6,6.4 z"
       id="path12"
       sodipodi:nodetypes="cccccccc" /><path
       style="display:inline;fill:#fff29e;fill-opacity:1;fill-rule:evenodd;stroke:none;stroke-width:0.385762;stroke-linecap:round;stroke-linejoin:round;paint-order:stroke fill markers"
       d="m 105,168 9.78527,3.17942 L 119.35,200 h -28.7 l 4.56473,-28.82058 z"
       id="path13" /><path
       id="path1"
       style="fill:#000000;stroke-width:0.419228"
       d="m 105.57412,176.02418 c -0.10949,-0.007 -0.22929,-0.005 -0.36123,0.002 -0.52778,0.0283 -1.25297,0.16636 -2.30835,0.42115 -2.30344,0.5561 -3.443243,0.69892 -5.261642,0.66078 -0.876387,-0.0183 -1.47102,0.0122 -1.473117,0.0758 -0.0017,0.058 0.216636,0.33261 0.484578,0.60969 0.658215,0.68063 1.065483,0.79338 2.155048,0.59912 0.47151,-0.0841 0.9944,-0.15468 1.16122,-0.15682 l 0.303083,-0.004 -0.0705,0.6925 c -0.11585,1.16352 0.0307,1.09209 -2.311885,1.14361 -1.033053,0.0227 -1.008149,0.013 -0.764753,0.28193 0.116141,0.12832 0.435525,0.36543 0.710128,0.52688 0.423947,0.24924 0.628537,0.29427 1.358577,0.29427 h 0.859913 l 0.1762,0.53039 c 0.0971,0.29205 0.15187,0.59597 0.12159,0.67488 -0.0321,0.0836 -0.417493,0.1956 -0.925103,0.2696 -0.47868,0.0698 -0.99461,0.15891 -1.147127,0.19736 -0.584584,0.14737 -2.340419,0.18103 -2.842272,0.0546 -0.28207,-0.071 -0.540572,-0.10086 -0.574445,-0.067 -0.09038,0.0904 0.494653,0.67342 1.236995,1.23348 0.574925,0.43376 0.713546,0.48986 1.228186,0.48986 0.319415,0 0.876133,-0.0945 1.236993,-0.20969 3.412633,-1.08873 3.812933,-1.16654 5.536533,-1.0784 0.79309,0.0406 1.6173,0.10086 1.83083,0.13392 0.21352,0.0332 0.80073,0.0625 1.30394,0.0652 1.46142,0.008 1.83102,-0.40439 1.08898,-1.21409 l -0.37885,-0.41586 -1.5894,0.007 c -1.07748,0.004 -1.82172,0.063 -2.31013,0.18502 -0.39618,0.0989 -0.74288,0.15756 -0.77004,0.1304 -0.0738,-0.0738 0.33422,-1.18283 0.51102,-1.38854 0.0939,-0.10927 0.42164,-0.20626 0.84228,-0.25022 0.44109,-0.0461 0.76051,-0.14378 0.88987,-0.27313 0.19505,-0.19505 0.19535,-0.2103 -0.005,-0.45813 -0.17437,-0.21536 -0.34162,-0.26523 -1.04139,-0.31014 l -0.83349,-0.0529 -0.18502,-0.60088 c -0.10184,-0.33057 -0.18502,-0.66772 -0.18502,-0.74889 0,-0.18925 0.72128,-0.37139 2.68721,-0.67665 0.41586,-0.0646 0.75234,-0.38581 0.75066,-0.71717 -4.1e-4,-0.0932 -0.16489,-0.28213 -0.36652,-0.41939 -0.20242,-0.1378 -0.4398,-0.21832 -0.76828,-0.23787 z m 1.88369,1.76914 c -0.23957,-0.01 -0.41585,0.0279 -0.41585,0.11806 0,0.0675 0.12594,0.22011 0.27842,0.34009 0.33031,0.25981 0.35261,0.56129 0.0705,0.96211 -0.11403,0.16193 -0.24545,0.41292 -0.29074,0.55859 -0.0735,0.23648 -0.0541,0.25916 0.17973,0.20439 0.14404,-0.0338 0.5867,-0.17827 0.98326,-0.3207 0.66541,-0.23901 0.72427,-0.28614 0.75593,-0.61321 0.0459,-0.47458 -0.23116,-0.8649 -0.76475,-1.0784 -0.25301,-0.10128 -0.5569,-0.16042 -0.79647,-0.17093 z"
       transform="matrix(1.5526719,0,0,1.5526719,-53.278421,-95.926618)" /></g></svg>
