<?xml version="1.0" encoding="UTF-8" standalone="no"?>
<!-- Created with Inkscape (http://www.inkscape.org/) -->

<svg
   viewBox="0 0 38.549999 41.919998"
   version="1.1"
   id="svg1"
   inkscape:version="1.3.2 (091e20e, 2023-11-25, custom)"
   sodipodi:docname="Narikyo.svg"
   xml:space="preserve"
   xmlns:inkscape="http://www.inkscape.org/namespaces/inkscape"
   xmlns:sodipodi="http://sodipodi.sourceforge.net/DTD/sodipodi-0.dtd"
   xmlns="http://www.w3.org/2000/svg"
   xmlns:svg="http://www.w3.org/2000/svg"><sodipodi:namedview
     id="namedview1"
     pagecolor="#ffffff"
     bordercolor="#111111"
     borderopacity="1"
     inkscape:showpageshadow="false"
     inkscape:pageopacity="0"
     inkscape:pagecheckerboard="1"
     inkscape:deskcolor="#d1d1d1"
     inkscape:document-units="mm"
     showguides="true"
     inkscape:zoom="13.096375"
     inkscape:cx="19.280144"
     inkscape:cy="20.959998"
     inkscape:window-width="1292"
     inkscape:window-height="745"
     inkscape:window-x="-8"
     inkscape:window-y="-8"
     inkscape:window-maximized="1"
     inkscape:current-layer="layer1"
     labelstyle="default"><inkscape:page
       x="0"
       y="0"
       width="38.549999"
       height="41.919998"
       id="page42"
       margin="0"
       bleed="0" /></sodipodi:namedview><defs
     id="defs1"><inkscape:path-effect
       effect="powerstroke"
       id="path-effect12"
       is_visible="true"
       lpeversion="1.3"
       scale_width="1"
       interpolator_type="CubicBezierJohan"
       interpolator_beta="0.2"
       start_linecap_type="zerowidth"
       end_linecap_type="zerowidth"
       offset_points="7,4.9921382"
       linejoin_type="extrp_arc"
       miter_limit="4"
       not_jump="false"
       sort_points="true"
       message="&lt;b&gt;Ctrl + click&lt;/b&gt; on existing node and move it" /><inkscape:path-effect
       effect="powerstroke"
       id="path-effect13"
       is_visible="true"
       lpeversion="1.3"
       scale_width="1"
       interpolator_type="CubicBezierJohan"
       interpolator_beta="0.2"
       start_linecap_type="zerowidth"
       end_linecap_type="zerowidth"
       offset_points="5,4.9921382"
       linejoin_type="extrp_arc"
       miter_limit="4"
       not_jump="false"
       sort_points="true"
       message="&lt;b&gt;Ctrl + click&lt;/b&gt; on existing node and move it" /><inkscape:path-effect
       effect="powerstroke"
       id="path-effect13-8"
       is_visible="true"
       lpeversion="1.3"
       scale_width="1"
       interpolator_type="CubicBezierJohan"
       interpolator_beta="0.2"
       start_linecap_type="zerowidth"
       end_linecap_type="zerowidth"
       offset_points="5,4.9921382"
       linejoin_type="extrp_arc"
       miter_limit="4"
       not_jump="false"
       sort_points="true"
       message="&lt;b&gt;Ctrl + click&lt;/b&gt; on existing node and move it" /><inkscape:path-effect
       effect="powerstroke"
       id="path-effect13-86"
       is_visible="true"
       lpeversion="1.3"
       scale_width="1"
       interpolator_type="CubicBezierJohan"
       interpolator_beta="0.2"
       start_linecap_type="zerowidth"
       end_linecap_type="zerowidth"
       offset_points="5,4.9921382"
       linejoin_type="extrp_arc"
       miter_limit="4"
       not_jump="false"
       sort_points="true"
       message="&lt;b&gt;Ctrl + click&lt;/b&gt; on existing node and move it" /><inkscape:path-effect
       effect="powerstroke"
       id="path-effect13-5"
       is_visible="true"
       lpeversion="1.3"
       scale_width="1"
       interpolator_type="CubicBezierJohan"
       interpolator_beta="0.2"
       start_linecap_type="zerowidth"
       end_linecap_type="zerowidth"
       offset_points="5,4.9921382"
       linejoin_type="extrp_arc"
       miter_limit="4"
       not_jump="false"
       sort_points="true"
       message="&lt;b&gt;Ctrl + click&lt;/b&gt; on existing node and move it" /><inkscape:path-effect
       effect="powerstroke"
       id="path-effect13-2"
       is_visible="true"
       lpeversion="1.3"
       scale_width="1"
       interpolator_type="CubicBezierJohan"
       interpolator_beta="0.2"
       start_linecap_type="zerowidth"
       end_linecap_type="zerowidth"
       offset_points="5,4.9921382"
       linejoin_type="extrp_arc"
       miter_limit="4"
       not_jump="false"
       sort_points="true"
       message="&lt;b&gt;Ctrl + click&lt;/b&gt; on existing node and move it" /></defs><g
     inkscape:label="Layer 1"
     inkscape:groupmode="layer"
     id="layer1"
     transform="matrix(-0.81881521,0,0,-1,105.2506,205.36)"><path
       style="fill:#938e5e;fill-opacity:1;fill-rule:evenodd;stroke:none;stroke-width:1;stroke-linecap:round;stroke-linejoin:round;stroke-dasharray:none;stroke-opacity:1;paint-order:stroke fill markers"
       d="m 119.35,200 v -6.4 l -4.93136,-22.29416 -9.41866,-2.50583 -9.418612,2.50581 -4.931372,22.29418 2e-6,6.4 z"
       id="path12"
       sodipodi:nodetypes="cccccccc" /><path
       style="display:inline;fill:#fff29e;fill-opacity:1;fill-rule:evenodd;stroke:none;stroke-width:0.360847;stroke-linecap:round;stroke-linejoin:round;paint-order:stroke fill markers"
       d="m 105,172 9.41864,2.50583 L 119.35,200 h -28.7 l 4.931368,-25.49419 z"
       id="path13"
       sodipodi:nodetypes="cccccc" /><path
       id="path1-4"
       style="fill:#000000;stroke-width:0.599439"
       d="m 104.36928,177.82494 c -0.0723,-0.002 -0.13031,0.19452 -0.13031,0.43649 0,0.242 -0.0919,0.58173 -0.20137,0.75413 -0.23235,0.36586 -1.52323,1.41541 -2.16185,1.75802 -0.24298,0.13036 -0.44125,0.33517 -0.44125,0.45346 0,0.22613 0.25279,0.21345 1.63175,-0.08 0.60597,-0.12897 0.6817,-0.11349 0.81144,0.16732 0.20973,0.45401 0.0867,0.52482 -0.92101,0.52862 -0.50041,10e-4 -1.20961,0.0614 -1.57549,0.13095 -0.40865,0.0776 -1.3361,0.0631 -2.404676,-0.034 -0.956748,-0.0869 -1.794595,-0.11152 -1.862747,-0.0558 -0.162286,0.13288 0.763414,0.92667 1.397798,1.19789 0.296609,0.12683 0.863329,0.1985 1.403729,0.17702 l 0.906186,-0.0364 -0.0503,0.48254 c -0.0268,0.26543 -0.14344,0.57358 -0.25765,0.68625 -0.24885,0.24552 -2.200833,1.32274 -3.24869,1.81379 -1.047857,0.49104 -2.094976,0.94328 -2.407646,0.94328 -0.472607,0 -0.184656,0.35256 0.367218,0.4486 0.28125,0.0489 0.631296,0.071 0.775895,0.0485 0.1446,-0.0223 0.576861,-0.0828 0.962467,-0.13579 1.543843,-0.32571 2.99097,-0.89145 4.329606,-1.58828 1.36086,-0.72083 1.38703,-0.71788 2.30992,0.20126 0.52088,0.51875 1.55147,1.31427 1.70283,1.31427 0.26881,0 0.85548,-0.75844 0.96839,-1.25122 0.0635,-0.27684 0.0405,-1.07921 -0.0474,-1.78471 -0.0879,-0.7055 -0.11641,-1.33842 -0.0651,-1.404 0.12476,-0.1601 1.16574,-0.28514 3.06804,-0.371 1.22168,-0.0551 1.64797,-0.1321 1.90124,-0.33949 0.28333,-0.23198 0.29577,-0.3065 0.0918,-0.57469 -0.44455,-0.5843 -1.02032,-0.60995 -4.58727,-0.20369 -0.4639,0.0529 -0.85981,-0.005 -1.27343,-0.18671 -0.64551,-0.28465 -0.72892,-0.58581 -0.2754,-0.77354 0.15874,-0.0657 0.44333,-0.17107 0.83512,-0.3516 0.36619,-0.22246 0.60411,-0.35349 0.81143,-0.51165 l 0.37611,-0.28613 -0.3465,-0.39526 c -0.29584,-0.33459 -1.98055,-1.16406 -2.39283,-1.17849 z m -0.68409,5.20378 c 0.61162,0.031 0.67378,0.33004 0.81736,1.4331 l 0.12733,0.97236 -0.54786,-0.0339 c -0.87202,-0.0544 -1.06105,-0.20221 -0.95359,-0.74443 0.0874,-0.44107 0.0307,-0.51945 -0.71074,-0.95541 -0.44406,-0.26111 -0.78796,-0.48795 -0.76405,-0.50438 0.024,-0.0164 0.57057,-0.0736 1.2142,-0.12851 0.34859,-0.0297 0.61347,-0.0491 0.81735,-0.0388 z m 5.0137,0.839 c -0.29259,0.009 -0.42939,0.0426 -0.42939,0.097 0,0.0859 0.45258,0.39736 1.00688,0.69351 0.5543,0.29613 1.24483,0.69847 1.53402,0.89235 0.28921,0.19385 1.00003,0.53444 1.57845,0.75898 1.17013,0.45428 2.53032,0.55015 2.88147,0.20369 0.30913,-0.30499 -0.0652,-1.26826 -0.69002,-1.77985 -0.59255,-0.4852 -1.58896,-0.66758 -4.51321,-0.82688 -0.6262,-0.0342 -1.07562,-0.0484 -1.3682,-0.0388 z m 0.53307,3.14021 c -0.19281,-10e-4 -0.76029,0.12527 -1.26157,0.28128 -0.5013,0.156 -1.1715,0.32268 -1.48961,0.36857 -0.31812,0.0459 -1.16934,0.2003 -1.89235,0.34434 -2.34563,0.4673 -3.56076,0.59019 -5.300966,0.53348 -1.017865,-0.0332 -1.708752,-0.002 -1.708752,0.08 0,0.0755 0.35664,0.42333 0.793666,0.77111 0.880966,0.70108 1.305806,1.40169 1.945662,3.21538 0.2367,0.67093 0.56087,1.30048 0.71963,1.39914 0.34985,0.21744 0.69467,0.23344 0.77589,0.034 0.0329,-0.0808 -0.0122,-0.75951 -0.10068,-1.50827 -0.097,-0.82099 -0.0962,-1.68803 0,-2.18481 l 0.1599,-0.82445 1.05132,-0.0824 c 0.97153,-0.076 2.65817,-0.32565 4.96041,-0.73474 1.9058,-0.33864 2.27735,0.12142 1.85681,2.30847 -0.14574,0.75788 -0.31197,1.62206 -0.36722,1.91808 -0.0636,0.34072 -0.0311,0.53832 0.0888,0.53832 0.25444,0 1.25723,-0.88668 1.54884,-1.30458 0.29162,-0.41791 0.50791,-0.69019 0.69002,-1.02087 0.18211,-0.33069 0.59201,-0.85556 0.90915,-1.16636 0.65416,-0.64113 0.63153,-0.9272 -0.11253,-1.5786 -0.80866,-0.70791 -2.39559,-1.38159 -3.26646,-1.38701 z m -1.96639,2.59946 c -0.28464,0.008 -0.63945,0.055 -1.0987,0.13821 -0.43379,0.0787 -0.96043,0.1653 -1.16977,0.19399 -1.36079,0.18667 -2.16184,0.44282 -2.16184,0.69109 0,0.0612 0.25825,0.23885 0.57155,0.39526 0.63023,0.31464 0.97404,0.34169 1.88348,0.14791 0.33741,-0.0719 1.19794,-0.24912 1.91308,-0.39283 0.71513,-0.14371 1.32888,-0.32772 1.36227,-0.40981 0.0334,-0.0821 -0.10409,-0.29155 -0.30208,-0.46557 -0.19687,-0.17305 -0.41491,-0.26868 -0.7374,-0.29341 -0.0806,-0.006 -0.16571,-0.007 -0.26059,-0.005 z m 0.65447,1.80652 c -0.17266,0.002 -0.35216,0.0244 -0.52714,0.0679 -0.87588,0.21809 -3.3563,0.54803 -4.12231,0.54803 -0.43186,0 -0.78479,0.0563 -0.78479,0.12609 0,0.0698 0.31599,0.35956 0.70187,0.64501 0.38588,0.28545 0.73267,0.51892 0.76997,0.51892 0.39338,0 3.17753,-0.49744 3.78471,-0.67653 1.03503,-0.3053 1.25647,-0.45716 1.19346,-0.81718 -0.0452,-0.2585 -0.49776,-0.42028 -1.01577,-0.41223 z"
       transform="translate(6.5424442e-7)" /></g></svg>
