<?xml version="1.0" encoding="UTF-8" standalone="no"?>
<!-- Created with Inkscape (http://www.inkscape.org/) -->

<svg
   viewBox="0 0 38.549999 41.919998"
   version="1.1"
   id="svg1"
   inkscape:version="1.3.2 (091e20e, 2023-11-25, custom)"
   sodipodi:docname="Uma.svg"
   xml:space="preserve"
   xmlns:inkscape="http://www.inkscape.org/namespaces/inkscape"
   xmlns:sodipodi="http://sodipodi.sourceforge.net/DTD/sodipodi-0.dtd"
   xmlns="http://www.w3.org/2000/svg"
   xmlns:svg="http://www.w3.org/2000/svg"><sodipodi:namedview
     id="namedview1"
     pagecolor="#ffffff"
     bordercolor="#111111"
     borderopacity="1"
     inkscape:showpageshadow="0"
     inkscape:pageopacity="0"
     inkscape:pagecheckerboard="1"
     inkscape:deskcolor="#d1d1d1"
     inkscape:document-units="mm"
     showguides="true"
     inkscape:zoom="13.096375"
     inkscape:cx="16.378579"
     inkscape:cy="17.37122"
     inkscape:window-width="1292"
     inkscape:window-height="745"
     inkscape:window-x="-8"
     inkscape:window-y="-8"
     inkscape:window-maximized="1"
     inkscape:current-layer="layer1"><inkscape:page
       x="0"
       y="0"
       width="38.549999"
       height="41.919998"
       id="page42"
       margin="0"
       bleed="0" /></sodipodi:namedview><defs
     id="defs1"><inkscape:path-effect
       effect="powerstroke"
       id="path-effect13"
       is_visible="true"
       lpeversion="1.3"
       scale_width="1"
       interpolator_type="CubicBezierJohan"
       interpolator_beta="0.2"
       start_linecap_type="zerowidth"
       end_linecap_type="zerowidth"
       offset_points="5,4.9921382"
       linejoin_type="extrp_arc"
       miter_limit="4"
       not_jump="false"
       sort_points="true"
       message="&lt;b&gt;Ctrl + click&lt;/b&gt; on existing node and move it" /></defs><g
     inkscape:label="Layer 1"
     inkscape:groupmode="layer"
     id="layer1"
     transform="translate(-85.737497,-165.14)"><path
       style="fill:#fff29e;fill-opacity:1;fill-rule:evenodd;stroke:none;stroke-width:0.373013;stroke-linecap:round;stroke-linejoin:round;paint-order:stroke fill markers"
       d="m 105.01246,169 9.42512,3.06241 L 118.86246,200 H 91.162456 l 4.42488,-27.93759 z"
       id="path13"
       sodipodi:nodetypes="cccccc" /><path
       style="display:inline;fill:#938e5e;fill-opacity:1;fill-rule:evenodd;stroke:none;stroke-width:0.379217;stroke-linecap:round;stroke-linejoin:round;stroke-dasharray:none;stroke-opacity:1;paint-order:stroke fill markers"
       d="m 91.175004,200 -3e-6,3.2 H 118.875 V 200 Z"
       id="path45" /><path
       id="path1-7"
       style="fill:#000000;fill-opacity:1;stroke-width:0.638415"
       d="m 112.54635,179.1427 c -0.23899,0.006 -0.51052,0.0224 -0.8327,0.0447 -2.70303,0.18697 -2.75171,0.19194 -6.85605,0.94042 -0.46454,0.0846 -1.41522,0.23957 -2.11198,0.3441 -0.6968,0.10451 -1.56473,0.26738 -1.9281,0.3625 -0.36339,0.0951 -0.7797,0.19829 -0.927279,0.22855 -0.147607,0.0304 -0.839922,0.17586 -1.536685,0.3231 -0.696773,0.1473 -1.819048,0.26787 -2.49551,0.26793 -0.970675,1.2e-4 -1.25272,0.0577 -1.334434,0.27057 -0.120251,0.31336 0.750993,1.11267 1.694311,1.48417 0.94332,0.37153 1.621584,0.33195 2.747663,-0.17337 1.211844,-0.54379 4.288984,-1.33125 6.567114,-1.68118 0.929,-0.14265 3.24674,-0.29454 5.15122,-0.33887 0.30374,-0.007 0.58819,-0.0156 0.85373,-0.0237 2.76504,-0.0829 3.53662,-0.22316 3.88771,-0.64619 0.3019,-0.36376 -0.19754,-0.84028 -1.24249,-1.18733 -0.33963,-0.11271 -0.63415,-0.1791 -1.00607,-0.20491 -0.18597,-0.0129 -0.39144,-0.0162 -0.63045,-0.0105 z m -5.36926,3.43328 c -0.71911,0.008 -1.73302,0.18121 -2.91053,0.51749 -0.57488,0.16391 -1.20281,0.22599 -1.64703,0.16286 -0.86103,-0.12227 -0.97822,0.19615 -0.27583,0.74865 1.51244,1.18969 2.23643,-0.16627 2.01479,0.90101 -0.0627,0.30192 -0.12695,0.77729 -0.14447,1.05598 -0.0279,0.44012 0.0308,0.51451 0.44657,0.56215 0.26322,0.0303 0.74466,-0.0721 1.06912,-0.22592 0.69531,-0.32993 2.04435,-0.37178 3.06289,-0.0946 1.49846,0.40771 1.87259,2.22791 0.69874,3.40176 -0.19104,0.19108 -4.03605,2.65023 -4.44724,1.57873 -0.0563,-0.147 -0.10244,-0.52931 -0.10244,-0.85111 0,-0.86817 -0.61449,-1.41586 -1.59186,-1.41586 -0.99403,0 -2.37466,0.62732 -3.17847,1.44213 -0.821367,0.83261 -0.848581,1.42299 -0.0867,1.99378 0.69817,0.52306 1.08965,0.6375 2.65573,0.7828 1.48262,0.13754 1.97802,0.0947 3.8063,-0.331 4.36716,-1.01684 6.39738,-3.36829 5.10921,-5.91826 -0.20904,-0.41377 -0.61921,-0.91188 -0.91151,-1.10589 -0.63834,-0.42375 -2.12676,-0.91117 -3.034,-0.99295 -0.36185,-0.0327 -0.71314,-0.0667 -0.7828,-0.0762 -0.31932,-0.0431 -0.0629,-0.40784 0.63306,-0.89838 0.41807,-0.29467 0.75916,-0.63543 0.75916,-0.75917 0,-0.32485 -0.42357,-0.48502 -1.14268,-0.47807 z m -4.22133,7.60733 c 0.20868,-0.01 0.33049,0.10674 0.43868,0.3441 0.10841,0.23796 0.19703,0.6206 0.19703,0.84848 0,0.35891 -0.0735,0.41133 -0.54903,0.39402 -1.58856,-0.0577 -2.07473,-0.59913 -1.05598,-1.17683 0.46461,-0.26346 0.76063,-0.40029 0.9693,-0.40977 z" /></g></svg>
