<?xml version="1.0" encoding="UTF-8" standalone="no"?>
<!-- Created with Inkscape (http://www.inkscape.org/) -->

<svg
   viewBox="0 0 38.549999 41.919998"
   version="1.1"
   id="svg1"
   inkscape:version="1.3.2 (091e20e, 2023-11-25, custom)"
   sodipodi:docname="Kaku.svg"
   xml:space="preserve"
   xmlns:inkscape="http://www.inkscape.org/namespaces/inkscape"
   xmlns:sodipodi="http://sodipodi.sourceforge.net/DTD/sodipodi-0.dtd"
   xmlns="http://www.w3.org/2000/svg"
   xmlns:svg="http://www.w3.org/2000/svg"><sodipodi:namedview
     id="namedview1"
     pagecolor="#ffffff"
     bordercolor="#111111"
     borderopacity="1"
     inkscape:showpageshadow="0"
     inkscape:pageopacity="0"
     inkscape:pagecheckerboard="1"
     inkscape:deskcolor="#d1d1d1"
     inkscape:document-units="mm"
     showguides="true"
     inkscape:zoom="13.096375"
     inkscape:cx="19.280145"
     inkscape:cy="20.959999"
     inkscape:window-width="1292"
     inkscape:window-height="745"
     inkscape:window-x="-8"
     inkscape:window-y="-8"
     inkscape:window-maximized="1"
     inkscape:current-layer="layer1"><inkscape:page
       x="0"
       y="0"
       width="38.549999"
       height="41.919998"
       id="page42"
       margin="0"
       bleed="0" /></sodipodi:namedview><defs
     id="defs1"><inkscape:path-effect
       effect="powerstroke"
       id="path-effect13"
       is_visible="true"
       lpeversion="1.3"
       scale_width="1"
       interpolator_type="CubicBezierJohan"
       interpolator_beta="0.2"
       start_linecap_type="zerowidth"
       end_linecap_type="zerowidth"
       offset_points="5,4.9921382"
       linejoin_type="extrp_arc"
       miter_limit="4"
       not_jump="false"
       sort_points="true"
       message="&lt;b&gt;Ctrl + click&lt;/b&gt; on existing node and move it" /></defs><g
     inkscape:label="Layer 1"
     inkscape:groupmode="layer"
     id="layer1"
     transform="translate(-85.737497,-165.14)"><path
       style="fill:#fff29e;fill-opacity:1;fill-rule:evenodd;stroke:none;stroke-width:0.373013;stroke-linecap:round;stroke-linejoin:round;paint-order:stroke fill markers"
       d="m 105.01246,169 9.42512,3.06241 L 118.86246,200 H 91.162456 l 4.42488,-27.93759 z"
       id="path13"
       sodipodi:nodetypes="cccccc" /><path
       style="display:inline;fill:#938e5e;fill-opacity:1;fill-rule:evenodd;stroke:none;stroke-width:0.379217;stroke-linecap:round;stroke-linejoin:round;stroke-dasharray:none;stroke-opacity:1;paint-order:stroke fill markers"
       d="m 91.175004,200 -3e-6,3.2 H 118.875 V 200 Z"
       id="path45" /><path
       id="path1-6"
       style="fill:#000000;stroke-width:0.663197"
       d="m 102.8647,174.49999 c -0.41669,0 -0.43289,0.0394 -0.32064,0.70379 0.0898,0.53127 0.0305,0.88558 -0.24456,1.45378 -0.45623,0.94243 -1.99405,2.67939 -2.687438,3.03796 -0.66488,0.34383 -0.50579,0.50656 0.437508,0.44834 1.07216,-0.0662 2.87217,-0.69627 3.93737,-1.37767 l 0.92663,-0.59237 v 0.85868 c 0,0.97061 -0.2187,1.32118 -1.71464,2.73906 -1.19556,1.1332 -1.25175,1.16068 -2.45102,1.20921 -0.72827,0.0295 -1.023638,0.11141 -1.059758,0.29889 -0.0968,0.50307 2.379528,1.47065 3.081438,1.20379 0.56549,-0.21501 0.56284,-0.21626 0.55978,0.32607 -0.005,0.74014 -0.1945,0.89674 -1.14129,0.94019 -1.92363,0.0882 -2.241268,0.80111 -0.66029,1.48093 0.13535,0.0581 1.36265,-0.19496 1.45104,0.47554 -0.005,0.6812 -0.21913,0.80104 -1.53257,0.86139 -0.69879,0.0321 -1.27033,0.13713 -1.26899,0.23369 0.007,0.53386 0.77717,0.96909 1.98093,1.11955 l 0.86953,0.1087 0.0734,0.96465 c 0.162,2.12752 0.64552,2.90623 1.41572,2.28256 0.48544,-0.39307 0.67775,-0.88883 0.83422,-2.14124 0.12633,-1.01124 0.46605,-1.36954 1.3016,-1.36954 0.60166,0 1.59245,-0.51935 1.58965,-0.83422 -0.006,-0.65818 -0.3007,-0.83116 -1.43748,-0.83964 -1.05995,-0.008 -1.10065,-0.0258 -1.05431,-0.43206 0.0593,-0.52003 0.21607,-0.62498 1.4755,-0.98367 0.54883,-0.15633 1.03606,-0.38162 1.08149,-0.49999 0.20694,-0.53928 -0.67699,-1.015 -1.76081,-0.94835 -0.65851,0.0405 -0.85884,-0.0206 -1.13041,-0.35597 -0.59887,-0.73959 -0.44032,-1.00548 0.7065,-1.19019 1.61811,-0.26057 3.87508,-0.17822 4.51346,0.16305 0.46312,0.24758 0.56115,0.42045 0.64946,1.13311 0.19077,1.5393 0.14307,6.56671 -0.0653,6.81776 -0.14417,0.17368 -0.4921,0.20806 -1.32333,0.13044 -0.78954,-0.0738 -1.12498,-0.0456 -1.12498,0.0951 0,0.11047 0.1,0.2011 0.22283,0.2011 0.12283,0 0.64468,0.27633 1.15757,0.61411 0.57886,0.3547 1.11267,0.55943 1.46464,1.14127 0.67925,1.1937 2.2445,0.18427 2.2445,-1.44833 0,-0.32439 -0.16543,-1.21753 -0.36683,-1.98365 -0.34113,-1.29773 -0.3501,-1.52505 -0.14674,-3.32327 0.27453,-2.42741 0.24512,-2.98408 -0.19292,-3.69285 -0.75652,-1.22408 -2.73492,-2.15754 -3.87492,-1.82875 -1.60205,0.46205 -5.77159,0.9938 -5.77159,0.73639 0,-0.19169 0.95052,-0.67493 2.67929,-1.36411 1.45844,-0.58141 2.05702,-1.03512 2.05702,-1.55702 0,-0.52006 -0.41599,-0.88067 -1.47279,-1.27441 -1.10152,-0.41043 -1.33719,-0.75517 -0.84781,-1.24453 0.22273,-0.22276 0.32999,-0.49955 0.27446,-0.71195 -0.10786,-0.41254 -2.67128,-1.78533 -3.33415,-1.78533 z m -5.372141,8.03512 0.152165,1.11412 c 0.260504,1.91138 0.16559,2.57734 -0.692913,4.85855 -0.917152,2.43709 -0.998361,3.24833 -0.429338,4.26077 0.210789,0.37504 0.48043,0.68206 0.600528,0.68206 0.326914,0 0.788683,-0.5216 1.076063,-1.22009 0.14056,-0.3416 0.354846,-0.85717 0.478248,-1.1467 0.29911,-0.70172 0.75234,-2.35526 1.05703,-3.85318 0.24281,-1.19374 0.23787,-1.23733 -0.19564,-2.10047 -0.2435,-0.48481 -0.8033,-1.26738 -1.244529,-1.73909 z" /></g></svg>
