<?xml version="1.0" encoding="UTF-8" standalone="no"?>
<!-- Created with Inkscape (http://www.inkscape.org/) -->

<svg
   viewBox="0 0 38.549999 41.919998"
   version="1.1"
   id="svg1"
   inkscape:version="1.3.2 (091e20e, 2023-11-25, custom)"
   sodipodi:docname="Gyoku.svg"
   xml:space="preserve"
   xmlns:inkscape="http://www.inkscape.org/namespaces/inkscape"
   xmlns:sodipodi="http://sodipodi.sourceforge.net/DTD/sodipodi-0.dtd"
   xmlns="http://www.w3.org/2000/svg"
   xmlns:svg="http://www.w3.org/2000/svg"><sodipodi:namedview
     id="namedview1"
     pagecolor="#ffffff"
     bordercolor="#111111"
     borderopacity="1"
     inkscape:showpageshadow="0"
     inkscape:pageopacity="0"
     inkscape:pagecheckerboard="1"
     inkscape:deskcolor="#d1d1d1"
     inkscape:document-units="mm"
     showguides="true"
     inkscape:zoom="13.096375"
     inkscape:cx="19.280145"
     inkscape:cy="20.959999"
     inkscape:window-width="1292"
     inkscape:window-height="745"
     inkscape:window-x="-8"
     inkscape:window-y="-8"
     inkscape:window-maximized="1"
     inkscape:current-layer="layer1"><inkscape:page
       x="0"
       y="0"
       width="38.549999"
       height="41.919998"
       id="page42"
       margin="0"
       bleed="0" /></sodipodi:namedview><defs
     id="defs1"><inkscape:path-effect
       effect="powerstroke"
       id="path-effect13"
       is_visible="true"
       lpeversion="1.3"
       scale_width="1"
       interpolator_type="CubicBezierJohan"
       interpolator_beta="0.2"
       start_linecap_type="zerowidth"
       end_linecap_type="zerowidth"
       offset_points="5,4.9921382"
       linejoin_type="extrp_arc"
       miter_limit="4"
       not_jump="false"
       sort_points="true"
       message="&lt;b&gt;Ctrl + click&lt;/b&gt; on existing node and move it" /></defs><g
     inkscape:label="Layer 1"
     inkscape:groupmode="layer"
     id="layer1"
     transform="matrix(1.5526719,0,0,1.5526719,-139.00342,-260.56662)"><path
       style="display:inline;fill:#fff29e;fill-opacity:1;fill-rule:evenodd;stroke:none;stroke-width:0.24845;stroke-linecap:round;stroke-linejoin:round;paint-order:stroke fill markers"
       d="m 101.93939,168 6.30221,2.04771 2.93992,18.56192 H 92.697253 l 2.939919,-18.56192 z"
       id="path13"
       transform="translate(4.5566654e-7,1.9822226)" /><path
       style="display:inline;fill:#938e5e;fill-opacity:1;fill-rule:evenodd;stroke:none;stroke-width:0.248604;stroke-linecap:round;stroke-linejoin:round;stroke-dasharray:none;stroke-opacity:1;paint-order:stroke fill markers"
       d="m 92.697255,188.60963 -2e-6,2.06096 h 18.484267 v -2.06096 z"
       id="path45"
       transform="translate(4.5566654e-7,1.9822226)" /><path
       id="path1"
       style="fill:#000000;stroke-width:0.419228"
       d="m 105.57412,176.02418 c -0.10949,-0.007 -0.22929,-0.005 -0.36123,0.002 -0.52778,0.0283 -1.25297,0.16636 -2.30835,0.42115 -2.30344,0.5561 -3.443243,0.69892 -5.261642,0.66078 -0.876387,-0.0183 -1.47102,0.0122 -1.473117,0.0758 -0.0017,0.058 0.216636,0.33261 0.484578,0.60969 0.658215,0.68063 1.065483,0.79338 2.155048,0.59912 0.47151,-0.0841 0.9944,-0.15468 1.16122,-0.15682 l 0.303083,-0.004 -0.0705,0.6925 c -0.11585,1.16352 0.0307,1.09209 -2.311885,1.14361 -1.033053,0.0227 -1.008149,0.013 -0.764753,0.28193 0.116141,0.12832 0.435525,0.36543 0.710128,0.52688 0.423947,0.24924 0.628537,0.29427 1.358577,0.29427 h 0.859913 l 0.1762,0.53039 c 0.0971,0.29205 0.15187,0.59597 0.12159,0.67488 -0.0321,0.0836 -0.417493,0.1956 -0.925103,0.2696 -0.47868,0.0698 -0.99461,0.15891 -1.147127,0.19736 -0.584584,0.14737 -2.340419,0.18103 -2.842272,0.0546 -0.28207,-0.071 -0.540572,-0.10086 -0.574445,-0.067 -0.09038,0.0904 0.494653,0.67342 1.236995,1.23348 0.574925,0.43376 0.713546,0.48986 1.228186,0.48986 0.319415,0 0.876133,-0.0945 1.236993,-0.20969 3.412633,-1.08873 3.812933,-1.16654 5.536533,-1.0784 0.79309,0.0406 1.6173,0.10086 1.83083,0.13392 0.21352,0.0332 0.80073,0.0625 1.30394,0.0652 1.46142,0.008 1.83102,-0.40439 1.08898,-1.21409 l -0.37885,-0.41586 -1.5894,0.007 c -1.07748,0.004 -1.82172,0.063 -2.31013,0.18502 -0.39618,0.0989 -0.74288,0.15756 -0.77004,0.1304 -0.0738,-0.0738 0.33422,-1.18283 0.51102,-1.38854 0.0939,-0.10927 0.42164,-0.20626 0.84228,-0.25022 0.44109,-0.0461 0.76051,-0.14378 0.88987,-0.27313 0.19505,-0.19505 0.19535,-0.2103 -0.005,-0.45813 -0.17437,-0.21536 -0.34162,-0.26523 -1.04139,-0.31014 l -0.83349,-0.0529 -0.18502,-0.60088 c -0.10184,-0.33057 -0.18502,-0.66772 -0.18502,-0.74889 0,-0.18925 0.72128,-0.37139 2.68721,-0.67665 0.41586,-0.0646 0.75234,-0.38581 0.75066,-0.71717 -4.1e-4,-0.0932 -0.16489,-0.28213 -0.36652,-0.41939 -0.20242,-0.1378 -0.4398,-0.21832 -0.76828,-0.23787 z m 1.88369,1.76914 c -0.23957,-0.01 -0.41585,0.0279 -0.41585,0.11806 0,0.0675 0.12594,0.22011 0.27842,0.34009 0.33031,0.25981 0.35261,0.56129 0.0705,0.96211 -0.11403,0.16193 -0.24545,0.41292 -0.29074,0.55859 -0.0735,0.23648 -0.0541,0.25916 0.17973,0.20439 0.14404,-0.0338 0.5867,-0.17827 0.98326,-0.3207 0.66541,-0.23901 0.72427,-0.28614 0.75593,-0.61321 0.0459,-0.47458 -0.23116,-0.8649 -0.76475,-1.0784 -0.25301,-0.10128 -0.5569,-0.16042 -0.79647,-0.17093 z" /><path
       d="m -190.76156,97.336843 0.006,0.0243 q -0.18835,0.01013 -0.19038,0.01013 -0.0871,0 -0.17215,-0.05873 -0.0668,-0.04456 -0.21671,-0.236962 -0.1438,-0.18633 -0.21063,-0.307849 -0.0182,0.107342 -0.0182,0.139747 0,0.01013 0.004,0.04658 0.004,0.03443 0.004,0.05671 0,0.07089 0.0182,0.170127 0.0182,0.08101 0.0344,0.166077 0.0182,0.09722 -0.1438,0.328102 l -0.0365,0.01013 -0.0608,-0.0243 q -0.0385,-0.03646 -0.0425,-0.07494 0,-0.0162 -0.004,-0.04051 -0.0263,-0.05266 -0.0932,-0.109367 -0.10329,-0.08304 -0.10937,-0.08911 -0.0121,-0.04658 -0.0527,-0.08709 -0.0385,-0.03646 -0.0749,-0.07291 -0.0445,0.02025 -0.0851,0.07089 -0.0466,0.05873 -0.077,0.07899 -0.0587,0.04253 -0.17418,0.06076 l -0.0567,-0.03848 q 0.1762,-0.117469 0.26734,-0.293672 -0.0101,-0.02836 -0.0446,-0.06279 -0.0527,-0.05063 -0.0547,-0.05266 -0.002,-0.0041 -0.0405,-0.06279 -0.0223,-0.03646 -0.0547,-0.05063 l -0.008,-0.04051 q 0.0304,-0.07696 0.11747,-0.137722 0.008,-0.0041 0.16203,-0.08911 0.0587,-0.03038 0.10126,-0.06684 0.0243,0.01823 0.0567,0.0243 0.0344,0.0041 0.0648,0.0081 0.0871,0.0162 0.0992,0.09924 -0.0506,0.04253 -0.0749,0.111393 -0.0203,0.06279 -0.0405,0.127595 -0.0142,0.03848 -0.11342,0.21671 0.17215,0.170127 0.35241,0.22076 0.0263,-0.05266 0.0203,-0.160001 -0.0101,-0.151899 -0.0162,-0.565064 0,-0.0061 0.004,-0.04456 l -0.0122,-0.02835 q 0.008,-0.119494 0.0405,-0.350381 l -0.0223,-0.111393 -0.0284,-0.0081 q -0.083,0.0081 -0.0891,0.0081 0,0 -0.0466,-0.0041 l -0.0344,-0.06076 q 0.002,-0.0041 0.0425,-0.05063 0.0263,-0.02835 0.0263,-0.05671 l 0.0365,-0.03241 0.0405,0.01013 0.0385,-0.01013 q 0.0263,0.0162 0.12759,0.03646 0.079,0.01823 0.1195,0.07696 0.0283,0.04456 0.0324,0.103291 -0.0851,0.01418 -0.0992,0.131646 -0.002,0.02025 -0.006,0.06076 -0.0142,0.101266 -0.0142,0.09316 0.004,0.07291 0.008,0.09114 0.006,0.05468 0.0223,0.09114 l 0.0547,0.06481 q 0.14582,-0.08911 0.26329,-0.259241 l -0.081,-0.03848 0.12557,-0.08911 q 0.0972,0.01418 0.12152,0.02025 0.0608,0.02025 0.10127,0.07291 l -0.0365,0.09316 q -0.0749,0.03241 -0.21063,0.147849 -0.12962,0.105317 -0.21671,0.139747 0.0648,0.119494 0.21063,0.222785 0.13165,0.08101 0.26329,0.164052 0.17013,0.109367 0.18836,0.22076 l 0.0263,0.02835 q -0.0142,0.0061 -0.0385,0.01823 z m -1.33469,-0.62785 q -0.0405,0.02228 -0.12355,0.04861 -0.083,0.02633 -0.11747,0.04658 0.006,0.03038 0.0486,0.09114 0.0446,0.05873 0.0709,0.07494 0.008,0.0061 0.0223,0.01013 0.0648,-0.149873 0.10126,-0.267342 z m 0.27544,5.004567 q 0,-0.0162 -0.0324,-0.0385 -0.0142,-0.008 -0.0344,-0.0263 0.0284,-0.0122 0.0425,-0.0122 0.0344,0 0.0972,0.0284 0.0668,-0.0608 0.19848,-0.18026 -0.14379,0.0365 -0.20658,0.0608 -0.11747,0.0446 -0.19038,0.10329 -0.0344,-0.0223 -0.0506,-0.0608 -0.0162,-0.0405 -0.0304,-0.081 0.0182,-0.0729 0.079,-0.21063 0.0628,-0.13772 0.081,-0.21064 l -0.0203,-0.0587 h 0.0567 q 0.0142,0.0101 0.083,0.0405 0.0689,0.0304 0.0689,0.15392 -0.0263,0.0182 -0.0365,0.0446 -0.0203,0.0527 -0.0223,0.0547 -0.002,0.002 -0.0263,0.0324 -0.0162,0.0203 -0.0162,0.0365 0,0.004 0.004,0.0101 0.14785,-0.0547 0.45165,-0.16 0.0486,0.008 0.0972,0.0162 0.0506,0.0182 0.0506,0.077 0,0.0182 -0.006,0.0446 -0.0466,0.0162 -0.0952,0.0547 -0.0466,0.0365 -0.0911,0.0729 -0.0628,0.0365 -0.15798,0.11139 0.0182,0.0101 0.0304,0.0365 0.0142,0.0324 0.0203,0.0405 0.1843,-0.0466 0.26936,-0.0385 0.0122,-0.0263 0.0122,-0.0466 0,-0.006 0,-0.008 l -0.0648,-0.0203 q 0.0142,-0.0425 0.0506,-0.0587 0.0567,-0.0243 0.0648,-0.0324 l 0.0911,-0.0182 q 0.0284,-0.006 0.0506,0.0284 0.0223,0.0344 0.0223,0.0689 -0.0223,0.006 -0.0425,0.0263 -0.0182,0.0203 -0.0182,0.0385 0,0.008 0.008,0.0182 l 0.11545,-0.0101 q 0.0304,-0.002 0.10126,0.0223 0.0709,0.0223 0.10329,0.0425 l 0.0101,0.0891 -0.0365,0.0506 -0.32,-0.0547 q -0.006,-0.002 -0.0121,-0.002 -0.0425,0 -0.0952,0.0668 -0.0385,0.0506 -0.077,0.10126 -0.0263,0.0284 -0.0567,0.0587 0.0182,0.0142 0.0749,0.0324 0.0567,0.0162 0.0851,0.0385 l 0.0162,0.0689 q -0.0324,0 -0.0344,0.004 -0.002,0.002 -0.0162,0.0365 -0.15393,0.0203 -0.35241,0.11747 -0.1681,0.081 -0.3362,0.16405 -0.0284,-0.002 -0.0263,-0.002 0,0 -0.15797,0.0182 l 0.21468,-0.12557 q -0.12354,0.0324 -0.21874,0.083 -0.0628,-0.008 -0.0628,-0.0567 0,-0.008 0.006,-0.0162 l -0.0122,-0.0527 0.0142,-0.0567 0.12152,-0.0668 -0.0527,-0.10734 v -0.0284 q -0.0608,0.004 -0.1843,0.0466 -0.12152,0.0425 -0.19038,0.0425 -0.13772,0 -0.16405,-0.083 0.13772,-0.0689 0.26531,-0.11545 0.0871,-0.0243 0.2633,-0.077 -0.0122,-0.0344 -0.0405,-0.077 -0.0202,-0.0263 -0.0689,-0.10127 l 0.0365,-0.002 q 0.0486,-0.002 0.0992,0.0486 0.0405,0.0446 0.079,0.0891 0.0446,-0.0182 0.13772,-0.0547 l -0.006,-0.0162 -0.0972,0.0182 z m 0.39089,0.15393 -0.004,0.0972 q 0.0729,-0.0486 0.12759,-0.13164 -0.0729,0.0121 -0.12354,0.0344 z m -0.13975,-0.22076 q -0.0506,0.0243 -0.11949,0.0729 l 0.0121,0.0324 q 0.0648,-0.0142 0.13165,-0.0425 -0.0101,-0.0466 -0.0243,-0.0628 z m 0.008,0.3119 0.0121,-0.0405 -0.006,-0.0122 -0.10734,0.0344 0.0101,0.14582 q 0.0344,-0.0203 0.1114,-0.0526 0.002,-0.004 0.002,-0.008 0,-0.0101 -0.0101,-0.0324 -0.0101,-0.0223 -0.0121,-0.0344 z m -0.24304,0.0648 0.0101,-0.0547 q -0.004,0 -0.008,0 -0.0101,0 -0.0567,0.0243 -0.0385,0.0223 -0.0506,0.081 -0.004,0.0486 -0.0101,0.0972 0.083,-0.004 0.18025,-0.0567 -0.002,-0.002 -0.0223,-0.0527 -0.0122,-0.0304 -0.0425,-0.0385 z m 1.08963,0.60152 q -0.0121,0.0871 -0.0628,0.077 l -0.0365,0.0142 q -0.16405,-0.0587 -0.3119,-0.28557 l 0.0608,-0.0263 q 0.22886,0.083 0.40911,0.23696 z m -0.6157,0.13165 q -0.0911,0 -0.11949,-0.0587 l -0.0891,-0.079 0.002,-0.0162 q 0,-0.0142 -0.0304,-0.0385 l -0.0142,-0.0101 q -0.0263,-0.0223 -0.0263,-0.0385 0,-0.0122 0.0162,-0.0284 0.0182,-0.004 0.0365,-0.004 0.0466,0 0.1762,0.0425 l 0.0709,-0.081 q 0.0142,0.11746 0.0142,0.11746 0,0.16203 0,0.16811 z m -0.4557,-0.0365 q -0.0567,0.0446 -0.0567,0.12557 l -0.0567,0.0182 q -0.0324,0.0101 -0.0992,-0.0648 -0.0608,-0.0689 -0.079,-0.11545 l -0.0446,-0.008 q -0.14177,0.0344 -0.20051,0.10127 -0.0324,0.002 -0.0466,-0.0101 -0.004,-0.002 -0.0284,-0.0365 -0.008,-0.008 -0.0182,-0.0122 l 0.006,-0.0911 q 0.0324,-0.0405 0.13772,-0.0911 0.0284,-0.0122 0.0567,-0.0304 l 0.0344,0.0608 0.0223,0.008 0.0263,-0.006 q 0.0547,0.008 0.10937,0.0182 0.0547,0.0101 0.0972,0.0446 0.0506,-0.0162 0.10532,-0.0527 0.0344,-0.0223 0.16203,-0.10734 -0.11342,0.15392 -0.1276,0.24911 z m 0.44355,4.70482 q 0.0567,0 0.13164,-0.0851 l 0.0628,0.0121 q 0.0263,-0.0121 0.0527,-0.0121 0.0243,0 0.0506,0.0162 v 0.083 q -0.0689,0.0385 -0.11949,0.13165 -0.0425,0.083 -0.083,0.16405 -0.0668,0.10937 -0.17621,0.24101 l -0.0668,0.0223 -0.0223,-0.077 q 0.0668,-0.11747 0.18836,-0.36456 l -0.17823,0.0871 -0.0284,-0.10329 0.0304,-0.0567 h 0.0162 q 0.0445,0.002 0.0891,-0.0729 -0.0243,-0.0162 -0.0304,-0.0506 -0.004,-0.0344 -0.0162,-0.0486 0.0203,-0.46988 0.21266,-0.76963 l -0.0689,0.008 -0.13569,-0.0668 q 0.077,-0.0162 0.13772,-0.0405 0.079,-0.0344 0.15595,-0.0689 0.0952,-0.0385 0.16405,-0.0385 0,0 0.10532,0.008 0.0304,0.0243 0.0304,0.0587 0,0.002 -0.002,0.0202 -0.0749,0.0608 -0.13974,0.0628 -0.0162,0.0101 -0.0648,0.0324 -0.0405,0.0182 -0.0607,0.0466 -0.0304,0.0405 -0.077,0.0729 -0.0648,0.0486 -0.0729,0.10532 l 0.004,0.0101 q 0.12152,-0.1033 0.22481,-0.1276 l 0.0425,0.008 0.0365,-0.0122 q 0.081,0.008 0.1357,0.0628 0.0142,0.0324 0.0142,0.17012 0,0.0203 -0.006,0.0628 -0.004,0.0425 -0.004,0.0628 0,0.0405 0.004,0.12557 0.006,0.0851 0.006,0.1276 0,0.19443 -0.081,0.30785 l -0.0425,0.0243 q -0.0567,-0.0182 -0.0749,-0.0709 -0.0162,-0.0466 -0.0324,-0.0932 l 0.006,-0.22076 q -0.0142,-0.006 -0.0263,-0.006 -0.0223,0 -0.0486,0.0223 -0.0243,0.0203 -0.0466,0.0385 -0.10734,0.0749 -0.11544,0.081 -0.0608,0.0486 -0.081,0.10936 z m 0.29975,-0.67645 q -0.0324,-0.002 -0.0608,0.0203 -0.0425,0.0304 -0.0547,0.0365 -0.0486,0.004 -0.11747,0.0344 l -0.0101,0.0749 q 0.0385,-0.006 0.12152,-0.0405 0.077,-0.0324 0.12354,-0.0344 l 0.008,-0.0486 q 0,-0.0162 -0.0101,-0.0425 z m 0.006,0.2086 -0.15797,0.0425 -0.10937,-0.008 -0.0324,0.10735 0.0142,0.0405 q 0.11949,-0.0243 0.19646,-0.079 l 0.0344,0.008 0.0668,-0.0182 z m -0.2957,0.24304 q -0.0243,0.1195 -0.0243,0.1357 0,0.008 0.004,0.0203 v 0.006 q 0.0689,-0.0608 0.1357,-0.14582 z m 0.61773,0.80406 -0.0486,0.0284 h -0.0749 q -0.0486,0 -0.10531,-0.0567 l -0.11342,-0.0344 0.0628,-0.0486 q -0.0162,-0.0405 -0.0749,-0.11544 -0.0587,-0.0547 -0.0608,-0.0547 -0.0284,-0.0344 -0.0284,-0.079 0.0284,0.0223 0.0668,0.0304 0.0405,0.008 0.079,0.0142 l 0.0445,-0.0182 q 0.0405,0.0203 0.1195,0.0547 0.10126,0.0405 0.13164,0.079 0.0425,0.0446 0.0425,0.14987 z m -0.77165,-1.09773 q -0.0263,0.0344 -0.081,0.0952 -0.0304,0.0304 -0.0304,0.0324 v 0.002 q 0.0648,-0.0142 0.0689,-0.0142 0.0142,0 0.0344,0.0122 l 0.0223,0.0526 -0.0121,0.0405 q -0.0162,0.006 -0.13975,0.0284 -0.077,0.0122 -0.10532,0.0446 v 0.19241 q 0.0142,-0.0223 0.0466,-0.0668 0.0142,-0.0162 0.0527,-0.0425 -0.0405,0.17215 -0.10937,0.2795 -0.008,0.0911 -0.008,0.0972 0,0.0425 0.008,0.12557 0.0101,0.083 0.0101,0.1276 0,0 -0.0121,0.0587 l -0.0405,0.0365 q -0.0628,-0.0182 -0.083,-0.081 -0.0304,-0.10329 -0.0324,-0.10936 l 0.004,-0.0547 -0.20658,0.14785 q -0.0851,-0.0425 -0.0851,-0.11342 0,-0.0121 0.004,-0.0263 0.0486,-0.079 0.14583,-0.25721 0.0891,-0.16608 0.14582,-0.25317 h -0.0385 l -0.0263,-0.0587 0.0162,-0.0506 q 0.0385,0 0.0891,-0.0466 l 0.0122,-0.10734 -0.0101,-0.0385 q -0.14582,0.0587 -0.20861,0.16202 0.0101,0.077 0.0101,0.0851 0,0.0263 -0.0304,0.0628 -0.0486,-0.0121 -0.0567,-0.0628 l -0.002,-0.0162 q -0.004,-0.0243 -0.0223,-0.0324 v -0.0628 q 0,-0.0932 0.0729,-0.18633 0.0101,-0.0142 0.13975,-0.1519 0.0243,-0.0243 0.0304,-0.0385 l -0.0162,0.002 -0.16,-0.0365 q 0.1033,-0.0385 0.2876,-0.1114 l 0.0203,-0.0851 q -0.006,-0.0142 -0.006,-0.0608 0,-0.0162 -0.004,-0.0162 h -0.0972 q 0.0385,-0.1114 0.16,-0.11545 l 0.0749,0.0304 q 0.0101,0.0466 0.0101,0.0466 0,0.0162 -0.0121,0.11746 l 0.0506,0.0182 0.0304,-0.0121 0.0385,0.0223 0.0142,0.0344 -0.0142,0.0486 q -0.0425,0.008 -0.0851,0.0182 -0.0547,0.0122 -0.077,0.0365 l -0.008,0.13975 0.13165,-0.0344 q 0.0445,0.006 0.0891,0.0162 0.0466,0.0101 0.0689,0.0506 -0.0223,0.0263 -0.0689,0.079 z m -0.24101,0.0101 q -0.008,0.0122 -0.008,0.0344 0,0.008 0.004,0.0466 0.0202,-0.0162 0.081,-0.10329 z m -0.0952,-0.17013 q -0.17418,0.11544 -0.22887,0.23494 l 0.21469,-0.1276 q 0.0142,-0.083 0.0142,-0.0911 0,-0.006 0,-0.0162 z m -0.33013,-0.0587 q -0.0547,0.0506 -0.10937,0.10126 -0.0729,0.0709 -0.0729,0.11139 0,0.0122 0.0223,0.0932 -0.0121,0.11747 -0.0466,0.2957 -0.0486,0.25924 -0.0547,0.29164 0.0608,-0.0952 0.11342,-0.21266 0.0263,-0.0608 0.0709,-0.13164 -0.0101,0.14582 -0.0486,0.26126 -0.0203,0.0628 -0.081,0.20456 -0.0263,0.0749 -0.0527,0.1438 -0.0324,0.0851 -0.0932,0.12557 -0.0324,-0.0142 -0.0587,-0.0527 -0.0243,-0.0385 -0.0243,-0.0709 0,-0.0324 0.0203,-0.16203 0.0142,-0.0932 0.0547,-0.23089 0.0547,-0.18228 0.0648,-0.22278 0.0182,-0.077 0.0587,-0.3038 0.0344,-0.19038 0.0689,-0.30177 l -0.13165,-0.11545 0.18025,-0.0182 0.008,0.006 q 0.002,0.004 0.006,0.004 0.006,0 0.0203,-0.002 0.0142,-0.004 0.0203,-0.004 l 0.083,0.0466 q 0.0203,0.0749 0.0203,0.081 0,0.0243 -0.0385,0.0628 z"
       id="text1"
       style="font-size:2.07393px;line-height:0;font-family:HakusyuGyosyoBold;-inkscape-font-specification:HakusyuGyosyoBold;text-align:center;writing-mode:vertical-lr;text-anchor:middle;stroke-width:0.220456;stroke-linecap:round;stroke-linejoin:round"
       transform="rotate(-90)"
       aria-label="水   無   瀬"
       inkscape:label="path1" /></g></svg>
