<?xml version="1.0" encoding="UTF-8" standalone="no"?>
<!-- Created with Inkscape (http://www.inkscape.org/) -->

<svg
   viewBox="0 0 38.549999 41.919998"
   version="1.1"
   id="svg1"
   inkscape:version="1.3.2 (091e20e, 2023-11-25, custom)"
   sodipodi:docname="Kei.svg"
   xml:space="preserve"
   xmlns:inkscape="http://www.inkscape.org/namespaces/inkscape"
   xmlns:sodipodi="http://sodipodi.sourceforge.net/DTD/sodipodi-0.dtd"
   xmlns="http://www.w3.org/2000/svg"
   xmlns:svg="http://www.w3.org/2000/svg"><sodipodi:namedview
     id="namedview1"
     pagecolor="#ffffff"
     bordercolor="#111111"
     borderopacity="1"
     inkscape:showpageshadow="0"
     inkscape:pageopacity="0"
     inkscape:pagecheckerboard="1"
     inkscape:deskcolor="#d1d1d1"
     inkscape:document-units="mm"
     showguides="true"
     inkscape:zoom="9.2605356"
     inkscape:cx="11.716385"
     inkscape:cy="15.711834"
     inkscape:window-width="1292"
     inkscape:window-height="745"
     inkscape:window-x="-8"
     inkscape:window-y="-8"
     inkscape:window-maximized="1"
     inkscape:current-layer="layer1"><inkscape:page
       x="0"
       y="0"
       width="38.549999"
       height="41.919998"
       id="page42"
       margin="0"
       bleed="0" /></sodipodi:namedview><defs
     id="defs1"><inkscape:path-effect
       effect="powerstroke"
       id="path-effect13"
       is_visible="true"
       lpeversion="1.3"
       scale_width="1"
       interpolator_type="CubicBezierJohan"
       interpolator_beta="0.2"
       start_linecap_type="zerowidth"
       end_linecap_type="zerowidth"
       offset_points="5,4.9921382"
       linejoin_type="extrp_arc"
       miter_limit="4"
       not_jump="false"
       sort_points="true"
       message="&lt;b&gt;Ctrl + click&lt;/b&gt; on existing node and move it" /></defs><g
     inkscape:label="Layer 1"
     inkscape:groupmode="layer"
     id="layer1"
     transform="matrix(0.88850158,0,0,1,-74.017663,-166.14)"><path
       style="fill:#fff29e;fill-opacity:1;fill-rule:evenodd;stroke:none;stroke-width:0.367234;stroke-linecap:round;stroke-linejoin:round;paint-order:stroke fill markers"
       d="m 105,171 9.78527,2.88135 L 119.35,200 H 90.649994 l 4.56473,-26.11865 z"
       id="path13" /><path
       style="display:inline;fill:#938e5e;fill-opacity:1;fill-rule:evenodd;stroke:none;stroke-width:0.386001;stroke-linecap:round;stroke-linejoin:round;stroke-dasharray:none;stroke-opacity:1;paint-order:stroke fill markers"
       d="m 90.649998,200 -3e-6,3.2 H 119.35 V 200 Z"
       id="path45" /><path
       id="path1"
       style="display:inline;fill:#000000;stroke-width:0.617374"
       d="m 101.7731,178.17771 c -0.14662,-5.5e-4 -0.31647,0.0107 -0.50272,0.0372 -0.3725,0.0525 -0.80942,0.157 -1.24183,0.30308 l -0.4728,0.15953 0.71517,0.57428 c 0.60373,0.4852 0.72261,0.68317 0.76904,1.26291 0.0755,0.94268 -0.33854,1.28563 -1.85228,1.5394 -1.022654,0.17143 -1.721835,0.16477 -3.647706,-0.0372 -0.662583,-0.0696 -0.442367,0.32886 0.487759,0.87739 1.596953,0.9418 2.13203,1.04916 3.516037,0.70723 0.64622,-0.15967 1.21974,-0.24193 1.27476,-0.18346 0.055,0.0584 0.055,0.52082 0,1.02893 -0.072,0.66518 -0.17191,0.92919 -0.35909,0.94385 -0.14296,0.0109 -0.45296,0.0636 -0.69124,0.11699 -0.35201,0.0787 -0.58986,-0.0339 -1.26278,-0.59823 -0.861785,-0.72278 -1.305034,-0.89913 -1.068278,-0.4254 0.07407,0.14819 0.170738,0.57091 0.212459,0.93855 0.06292,0.55433 -0.05949,0.92291 -0.712185,2.15622 -1.246194,2.35481 -1.226497,3.6389 0.05685,3.7568 0.363349,0.0334 0.500586,-0.0835 0.855821,-0.72052 l 0.424923,-0.75774 0.52965,0.60353 c 0.29086,0.33304 0.87102,0.90033 1.28972,1.26024 1.03382,0.88866 1.61139,0.85 2.34901,-0.15686 0.26489,-0.36161 0.29659,-0.63061 0.20648,-1.77073 -0.3021,-3.82149 -0.30443,-4.14439 -0.0449,-5.54345 0.29189,-1.57319 0.35775,-1.72817 0.72714,-1.72817 0.13885,0 0.55939,-0.085 0.93363,-0.18877 1.31946,-0.36589 1.23566,-1.50484 -0.11071,-1.50484 -0.63888,0 -0.92167,-0.37427 -0.92167,-1.22037 0,-0.49278 -0.57255,-1.2141 -1.10118,-1.38786 -0.0907,-0.0298 -0.21247,-0.042 -0.35909,-0.0425 z m 6.01767,1.16187 c -0.22775,0.003 -0.48724,0.0703 -0.96055,0.20472 -1.07649,0.3056 -1.1859,0.41381 -0.65832,0.66468 0.18756,0.0892 0.61792,0.48299 0.95456,0.87473 0.45815,0.53311 0.61344,0.86271 0.61344,1.31075 0,0.70503 -0.0287,0.71867 -1.81637,0.86408 -0.85034,0.0692 -1.39108,0.1844 -1.43634,0.30576 -0.0933,0.25006 0.92713,0.62776 2.25026,0.83484 1.05104,0.1645 1.37367,0.42098 1.01442,0.8056 -0.10999,0.11775 -0.86057,0.30021 -1.66676,0.40678 -0.80617,0.10659 -1.46626,0.23989 -1.46626,0.29778 0,0.14623 0.52439,0.53818 1.03537,0.77369 0.23498,0.10836 0.8171,0.20426 1.2957,0.2127 0.90738,0.0161 1.14414,0.22465 0.79596,0.70722 -0.12674,0.17568 -0.56232,0.23779 -1.81038,0.25524 -0.90253,0.0122 -1.72791,0.0692 -1.83433,0.12762 -0.33,0.18121 0.14457,0.5248 1.52311,1.10603 0.94135,0.3969 1.42662,0.52072 1.79843,0.45464 l 0.5087,-0.0904 -0.0539,0.72849 -0.0539,0.72849 -2.03482,0.0425 c -1.11991,0.0238 -2.0378,0.0982 -2.0378,0.16219 0,0.1649 1.59619,1.5138 1.90912,1.61385 0.42034,0.13436 1.12991,0.11606 1.30768,-0.0319 0.0905,-0.0754 0.90493,-0.29049 1.81038,-0.47857 1.43054,-0.29713 1.90705,-0.32667 3.63873,-0.2313 3.11495,0.17156 3.24239,0.16568 3.78835,-0.20739 0.86771,-0.59292 -0.0472,-1.78248 -1.56201,-2.02861 -0.65584,-0.10659 -1.94923,0.0645 -3.58786,0.47591 -0.88889,0.22317 -1.05838,0.0943 -1.0623,-0.80825 -0.001,-0.46048 0.0657,-0.49512 0.32318,-0.54504 0.68247,-0.13231 1.37221,-0.26336 2.04678,-0.43604 0.11353,-0.0278 0.34416,-0.23806 0.5117,-0.46527 0.29763,-0.40358 0.29581,-0.42006 -0.11072,-0.71254 -0.30304,-0.218 -0.57121,-0.27435 -0.98748,-0.21005 -0.31438,0.0486 -0.84541,0.13173 -1.179,0.18346 -0.59494,0.0923 -0.60745,0.0824 -0.60745,-0.43072 0,-0.5693 0.0402,-0.58464 1.51713,-0.63277 0.40509,-0.0136 0.73567,-0.0678 1.5291,-0.23929 0.79342,-0.17153 1.18747,-0.53447 0.92167,-0.97576 -0.32484,-0.53929 -0.93239,-0.66664 -2.11562,-0.44135 -0.58999,0.11231 -1.24584,0.23873 -1.46028,0.27917 -0.30673,0.0579 -0.392,0.004 -0.392,-0.24991 0,-0.33439 0.0653,-0.35941 1.56201,-0.59823 0.71298,-0.1138 0.78302,-0.16698 0.83189,-0.61151 0.064,-0.58168 -0.33485,-0.83139 -1.52611,-0.95979 l -0.78101,-0.0851 0.0569,-0.78167 c 0.0476,-0.65839 -0.0138,-0.85871 -0.38901,-1.25493 -0.24528,-0.25896 -0.77715,-0.58722 -1.182,-0.73115 -0.34926,-0.12415 -0.54429,-0.18626 -0.77203,-0.18344 z m -7.21462,6.56972 c 0.25259,0 0.27153,0.19854 0.17356,1.8106 -0.0604,0.99505 -0.16093,1.96302 -0.22144,2.15357 -0.061,0.1922 -0.23498,0.33813 -0.39201,0.32702 -0.44331,-0.0313 -1.38335,-0.46894 -1.47823,-0.68861 -0.19052,-0.44112 1.49251,-3.60258 1.91812,-3.60258 z" /></g></svg>
