<?xml version="1.0" encoding="UTF-8" standalone="no"?>
<!-- Created with Inkscape (http://www.inkscape.org/) -->

<svg
   viewBox="0 0 38.549999 41.919998"
   version="1.1"
   id="svg1"
   inkscape:version="1.3.2 (091e20e, 2023-11-25, custom)"
   sodipodi:docname="Fu.svg"
   xml:space="preserve"
   xmlns:inkscape="http://www.inkscape.org/namespaces/inkscape"
   xmlns:sodipodi="http://sodipodi.sourceforge.net/DTD/sodipodi-0.dtd"
   xmlns="http://www.w3.org/2000/svg"
   xmlns:svg="http://www.w3.org/2000/svg"><sodipodi:namedview
     id="namedview1"
     pagecolor="#ffffff"
     bordercolor="#111111"
     borderopacity="1"
     inkscape:showpageshadow="0"
     inkscape:pageopacity="0"
     inkscape:pagecheckerboard="1"
     inkscape:deskcolor="#d1d1d1"
     inkscape:document-units="mm"
     showguides="true"
     inkscape:zoom="13.096375"
     inkscape:cx="19.280145"
     inkscape:cy="20.959999"
     inkscape:window-width="1292"
     inkscape:window-height="745"
     inkscape:window-x="-8"
     inkscape:window-y="-8"
     inkscape:window-maximized="1"
     inkscape:current-layer="layer1"><inkscape:page
       x="0"
       y="0"
       width="38.549999"
       height="41.919998"
       id="page42"
       margin="0"
       bleed="0" /></sodipodi:namedview><defs
     id="defs1"><inkscape:path-effect
       effect="powerstroke"
       id="path-effect13"
       is_visible="true"
       lpeversion="1.3"
       scale_width="1"
       interpolator_type="CubicBezierJohan"
       interpolator_beta="0.2"
       start_linecap_type="zerowidth"
       end_linecap_type="zerowidth"
       offset_points="5,4.9921382"
       linejoin_type="extrp_arc"
       miter_limit="4"
       not_jump="false"
       sort_points="true"
       message="&lt;b&gt;Ctrl + click&lt;/b&gt; on existing node and move it" /></defs><g
     inkscape:label="Layer 1"
     inkscape:groupmode="layer"
     id="layer1"
     transform="matrix(0.78397198,0,0,1,-63.042056,-167.14)"><path
       style="fill:#fff29e;fill-opacity:1;fill-rule:evenodd;stroke:none;stroke-width:0.354345;stroke-linecap:round;stroke-linejoin:round;paint-order:stroke fill markers"
       d="m 105,173 9.78527,2.68264 L 119.35,200 H 90.649995 l 4.56473,-24.31736 z"
       id="path13" /><path
       style="display:inline;fill:#938e5e;fill-opacity:1;fill-rule:evenodd;stroke:none;stroke-width:0.386001;stroke-linecap:round;stroke-linejoin:round;stroke-dasharray:none;stroke-opacity:1;paint-order:stroke fill markers"
       d="m 90.649998,200 -3e-6,3.2 H 119.35 V 200 Z"
       id="path45" /><path
       id="path1-0"
       style="fill:#000000;stroke-width:0.726148"
       d="m 102.01893,179.05547 c -0.62247,0.003 -1.10014,0.0513 -1.14637,0.15652 -0.0474,0.10831 0.34792,0.57877 0.8791,1.04767 1.06977,0.94428 1.35614,1.70877 1.11416,2.97386 -0.15797,0.82584 -0.48865,1.04024 -1.84192,1.20419 -0.41771,0.0505 -0.96514,0.13899 -1.217207,0.19692 -0.64047,0.14727 -0.80846,-0.30517 -0.39929,-1.07292 0.26421,-0.49568 0.28078,-0.71651 0.0805,-1.09564 -0.13806,-0.26131 -0.26483,-0.47956 -0.28016,-0.4847 -0.0152,-0.005 -0.785,-0.0503 -1.70989,-0.10095 -1.091511,-0.0598 -1.680914,-0.0287 -1.680914,0.0858 0,0.0969 0.09163,0.21877 0.202868,0.27265 0.111237,0.0539 0.323671,0.51941 0.470142,1.03252 0.21445,0.75118 0.207751,1.11301 -0.02254,1.86561 -0.260449,0.85113 -0.248882,0.96695 0.109478,1.27739 0.218142,0.18899 0.668942,0.34081 1.011126,0.34081 0.76717,0 0.80878,0.26501 0.0644,0.41149 -0.678767,0.13356 -1.173152,0.97409 -1.854805,3.1531 -0.373774,1.19485 -0.441626,1.69706 -0.286593,2.18371 0.186846,0.58649 0.257431,0.62921 0.978925,0.61345 0.375832,-0.009 2.047813,-0.1349 4.10246,-1.65355 0.4177,-0.30875 1.16525,-0.7393 1.66159,-0.95678 l 0.90164,-0.39383 1.00468,0.68413 c 0.33545,0.31006 0.52302,0.38122 0.7503,0.38122 0.29125,0 0.62111,-0.32641 1.12061,-1.10574 0.38982,-0.60814 0.84681,-1.05261 0.97571,-1.10573 0.11865,-0.0489 0.69054,-0.15322 1.21077,-0.33829 1.24824,-0.44404 1.48771,-0.42818 1.48771,0.0934 0,0.84339 -0.41452,1.24531 -2.27987,2.21651 -2.23896,1.16575 -4.25143,1.69532 -8.462537,2.22914 -0.79437,0.10069 -0.84508,0.13776 -0.68267,0.46955 0.0792,0.16172 3.009737,0.91126 9.470447,-0.7523 0.65639,-0.16902 1.73297,-0.43092 2.38934,-0.58063 3.05229,-0.69619 3.33307,-1.45079 1.20756,-3.24146 -0.54831,-0.46193 -0.92184,-0.89422 -0.8308,-0.96184 0.0911,-0.0676 0.98748,-0.24453 1.99328,-0.3913 1.00579,-0.14678 1.90636,-0.36375 1.99971,-0.48217 0.2256,-0.28615 -0.23441,-0.80649 -1.13994,-1.29508 -1.04246,-0.56246 -2.03078,-0.42858 -4.82378,0.64881 -2.55341,0.98497 -2.54649,0.98442 -3.35538,-0.1439 -0.74244,-1.03563 -0.62271,-1.0652 4.50497,-1.14865 4.26242,-0.0694 4.7245,-0.18249 4.05416,-0.98456 -0.19803,-0.23695 -0.67538,-0.49777 -1.06264,-0.58063 -0.85639,-0.18326 -3.81749,-0.11582 -5.14579,0.11865 -1.0663,0.18827 -1.52635,0.0384 -1.52635,-0.50239 0,-0.42716 0.52169,-0.60598 2.08987,-0.7119 1.80893,-0.12215 2.88592,-0.70696 2.55358,-1.38595 -0.29616,-0.60504 -1.70761,-0.66906 -3.90281,-0.17672 -0.45172,0.10134 -0.58372,-0.0443 -1.03368,-1.14864 -0.0646,-0.15883 -0.39819,-0.40143 -0.74063,-0.54025 -0.39188,-0.15888 -1.38825,-0.269 -2.30239,-0.30546 v -0.003 c -0.22854,-0.009 -0.45265,-0.0133 -0.66013,-0.0129 z m 0.84689,6.84898 c 0.55904,0 0.6973,0.29443 0.80504,1.70151 0.0503,0.65762 -7.9e-4,0.76789 -0.37032,0.7927 -0.23675,0.0159 -0.87015,-0.17275 -1.4072,-0.41907 -0.53704,-0.24632 -1.4999,-0.61353 -2.141387,-0.81794 -1.02698,-0.32725 -1.11719,-0.39253 -0.74708,-0.54781 0.5297,-0.22224 3.180127,-0.70939 3.860947,-0.70939 z m -3.812647,2.5346 c 0.26247,0.0171 0.61096,0.10729 1.059427,0.27012 0.62069,0.22545 1.12786,0.47082 1.12706,0.5453 -6.6e-4,0.0744 -0.5708,0.42416 -1.265517,0.77501 -1.61287,0.81455 -1.98684,0.82492 -1.98684,0.053 0,-0.20321 0.44201,-1.57472 0.8308,-1.63587 0.0684,-0.0103 0.14758,-0.0133 0.23507,-0.008 z"
       sodipodi:nodetypes="scccccccccsccscscsscccccsccsscccccsccccsscsccscccccccsscsscssccccscccc" /></g></svg>
