<?xml version="1.0" encoding="UTF-8" standalone="no"?>
<!-- Created with Inkscape (http://www.inkscape.org/) -->

<svg
   viewBox="0 0 38.549999 41.919998"
   version="1.1"
   id="svg1"
   inkscape:version="1.3.2 (091e20e, 2023-11-25, custom)"
   sodipodi:docname="Hi.svg"
   xml:space="preserve"
   xmlns:inkscape="http://www.inkscape.org/namespaces/inkscape"
   xmlns:sodipodi="http://sodipodi.sourceforge.net/DTD/sodipodi-0.dtd"
   xmlns="http://www.w3.org/2000/svg"
   xmlns:svg="http://www.w3.org/2000/svg"><sodipodi:namedview
     id="namedview1"
     pagecolor="#ffffff"
     bordercolor="#111111"
     borderopacity="1"
     inkscape:showpageshadow="0"
     inkscape:pageopacity="0"
     inkscape:pagecheckerboard="1"
     inkscape:deskcolor="#d1d1d1"
     inkscape:document-units="mm"
     showguides="true"
     inkscape:zoom="13.096375"
     inkscape:cx="14.164225"
     inkscape:cy="19.967358"
     inkscape:window-width="1292"
     inkscape:window-height="745"
     inkscape:window-x="-8"
     inkscape:window-y="-8"
     inkscape:window-maximized="1"
     inkscape:current-layer="layer1"><inkscape:page
       x="0"
       y="0"
       width="38.549999"
       height="41.919998"
       id="page42"
       margin="0"
       bleed="0" /></sodipodi:namedview><defs
     id="defs1"><inkscape:path-effect
       effect="powerstroke"
       id="path-effect13"
       is_visible="true"
       lpeversion="1.3"
       scale_width="1"
       interpolator_type="CubicBezierJohan"
       interpolator_beta="0.2"
       start_linecap_type="zerowidth"
       end_linecap_type="zerowidth"
       offset_points="5,4.9921382"
       linejoin_type="extrp_arc"
       miter_limit="4"
       not_jump="false"
       sort_points="true"
       message="&lt;b&gt;Ctrl + click&lt;/b&gt; on existing node and move it" /></defs><g
     inkscape:label="Layer 1"
     inkscape:groupmode="layer"
     id="layer1"
     transform="translate(-85.737497,-165.14)"><path
       style="fill:#fff29e;fill-opacity:1;fill-rule:evenodd;stroke:none;stroke-width:0.373013;stroke-linecap:round;stroke-linejoin:round;paint-order:stroke fill markers"
       d="m 105.01246,169 9.42512,3.06241 L 118.86246,200 H 91.162456 l 4.42488,-27.93759 z"
       id="path13"
       sodipodi:nodetypes="cccccc" /><path
       style="display:inline;fill:#938e5e;fill-opacity:1;fill-rule:evenodd;stroke:none;stroke-width:0.379217;stroke-linecap:round;stroke-linejoin:round;stroke-dasharray:none;stroke-opacity:1;paint-order:stroke fill markers"
       d="m 91.175004,200 -3e-6,3.2 H 118.875 V 200 Z"
       id="path45" /><path
       id="path1"
       style="fill:#000000;stroke-width:0.585589"
       d="m 104.54801,176.17697 c -0.32556,0.0131 -1.13264,0.2257 -2.09466,0.55341 -1.02078,0.34775 -2.38839,0.73265 -3.036068,0.85597 -0.647678,0.12327 -1.335395,0.28195 -1.53095,0.3543 l -0.356876,0.13189 0.372391,0.35171 c 0.782629,0.73891 2.006745,1.15438 2.392133,0.81204 0.25362,-0.22534 3.12956,-1.00241 3.36959,-0.91032 0.16774,0.0644 0.25629,0.47291 0.33105,1.53356 0.12552,1.78071 0.33468,2.74237 0.6827,3.14723 0.44349,0.5159 1.26563,0.89435 2.18003,1.00077 0.86654,0.10104 2.37878,-0.19505 3.49897,-0.68271 0.25562,-0.11131 0.79306,-0.3198 1.19213,-0.46288 0.5898,-0.21144 0.74307,-0.34604 0.82496,-0.71895 0.0874,-0.39777 -0.006,-0.58763 -0.7241,-1.4249 -0.45446,-0.53105 -0.91499,-1.05631 -1.02149,-1.16891 -0.10657,-0.11265 -0.19394,-0.27 -0.19394,-0.34913 0,-0.0787 -0.0609,-0.1422 -0.13447,-0.1422 -0.0734,0 -0.16904,0.48964 -0.21206,1.09131 -0.0936,1.30905 -0.48436,1.83248 -1.59043,2.12829 -1.68024,0.44941 -3.03567,0.0715 -3.22996,-0.8999 -0.245,-1.22481 -0.27848,-1.1977 1.44298,-1.17668 1.38511,0.0171 1.57965,-0.0158 1.87749,-0.3129 l 0.33103,-0.33102 -0.32587,-0.32845 c -0.3822,-0.38217 -0.83191,-0.40525 -2.10762,-0.10346 -0.5113,0.12102 -0.98408,0.16817 -1.04994,0.10346 -0.066,-0.0646 -0.0181,-0.36434 0.10859,-0.66719 l 0.23019,-0.55083 1.39906,0.0804 c 1.5279,0.0872 1.86713,-0.0371 1.86713,-0.67493 0,-0.68629 -0.96993,-0.8768 -2.24985,-0.44221 l -0.71116,0.24049 -0.53537,-0.47068 c -0.29533,-0.25926 -0.69497,-0.5104 -0.887,-0.55853 -0.0258,-0.006 -0.0622,-0.009 -0.10861,-0.007 z m -3.94371,3.42912 c -0.36848,0.0178 -0.28816,0.26766 0.0621,0.89735 0.46734,0.84029 0.93614,2.44973 0.93614,3.21191 0,0.37093 -0.0988,0.49209 -0.56118,0.68529 -0.70954,0.29653 -0.67756,0.30137 -0.67756,-0.14741 0,-0.6227 -0.30625,-1.10872 -0.866314,-1.37579 -0.484966,-0.23126 -0.698246,-0.62344 -0.406017,-0.74739 0.06703,-0.0281 0.281437,-0.27905 0.475843,-0.55597 0.662338,-0.94337 -0.0191,-1.58785 -1.675764,-1.58785 h -0.936155 v 0.94132 0.94392 l -1.23872,1.26197 c -0.681718,0.69373 -1.241305,1.27985 -1.241305,1.30338 0,0.29437 2.367925,-0.47689 3.041201,-0.99047 0.662862,-0.50557 0.826612,-0.35274 0.830119,0.77328 0.0051,1.47192 -0.513345,1.81021 -2.777422,1.81021 -0.856379,0 -1.556803,0.0363 -1.556803,0.0829 0,0.20489 0.9196,0.89784 1.665423,1.25419 0.447376,0.21381 0.812021,0.45405 0.812021,0.53274 0,0.14455 -1.070565,1.41826 -1.267169,1.50768 -0.05838,0.0265 -0.338184,0.25917 -0.620651,0.5172 l -0.512045,0.47068 0.695654,-0.10114 c 1.199024,-0.17092 2.386212,-1.04615 3.542887,-2.6119 0.326255,-0.44165 0.692526,-0.8787 0.812026,-0.97236 0.325992,-0.25549 2.277061,-0.97104 2.376571,-0.87152 0.1433,0.1433 0.0911,2.11106 -0.0621,2.35332 -0.12366,0.19548 -0.25082,0.19038 -0.97752,-0.0389 -0.980828,-0.30917 -1.042185,-0.31523 -1.042185,-0.10346 0,0.20806 2.684065,2.93776 2.888635,2.93776 0.0858,0 0.32356,-0.18056 0.53015,-0.40082 0.34543,-0.36835 0.37223,-0.51226 0.34394,-1.78179 -0.0171,-0.75924 -0.10299,-1.7709 -0.19138,-2.24987 -0.0886,-0.479 -0.12159,-0.93323 -0.0748,-1.00858 0.0465,-0.0752 0.41974,-0.13705 0.83012,-0.13705 0.71175,0 0.75069,0.0217 0.84306,0.48362 0.053,0.26629 0.0989,1.2954 0.10113,2.28604 0.004,1.44446 0.0625,1.93008 0.30254,2.45934 0.44428,0.97876 1.45488,1.7946 2.56021,2.06368 1.14163,0.2779 2.59477,0.0753 4.10667,-0.57153 0.99916,-0.42766 2.78475,-1.37491 3.52735,-2.00937 0.74266,-0.63442 0.80945,-0.73719 0.80945,-1.30076 0,-0.90416 -0.533,-1.41106 -2.56791,-2.44123 -0.16376,-0.083 -0.52477,-0.26898 -0.80173,-0.41376 -0.2769,-0.14482 -0.50427,-0.2154 -0.50427,-0.15519 0,0.0604 0.17702,0.47119 0.39309,0.91289 1.0292,2.10366 0.45734,2.89066 -2.63774,3.61786 -2.15198,0.50564 -2.87611,0.49616 -3.41619,-0.044 -0.47664,-0.47658 -0.56179,-1.58329 -0.10865,-1.40939 0.35219,0.1352 2.68609,0.12775 3.07225,-0.0104 0.88599,-0.31647 1.09142,-1.00582 0.40598,-1.36026 -0.37078,-0.19174 -0.59997,-0.19565 -1.58782,-0.0207 -0.63504,0.11253 -1.35049,0.28126 -1.59038,0.37496 -0.58658,0.2292 -0.5719,0.24024 -0.56898,-0.331 0.005,-0.81538 0.13035,-0.89599 1.4146,-0.87666 1.11429,0.0168 1.96769,-0.22265 2.21363,-0.62065 0.36499,-0.59061 -0.93397,-1.10988 -1.96541,-0.78616 -0.3619,0.11357 -0.72585,0.26317 -0.80682,0.33357 -0.29137,0.2534 -0.56864,0.11947 -0.77581,-0.37496 -0.11611,-0.27694 -0.39846,-0.67919 -0.62586,-0.8922 -0.35894,-0.33632 -0.55353,-0.38632 -1.48436,-0.38532 h -1.07063 l -0.0182,-0.54305 c -0.008,-0.29891 -0.005,-1.10687 0.0104,-1.79475 0.0308,-1.48111 -0.0314,-1.56355 -1.41196,-1.85163 -0.33798,-0.0705 -0.59818,-0.11964 -0.78878,-0.13703 v 0.002 c -0.0713,-0.006 -0.13353,-0.0106 -0.18617,-0.007 z" /></g></svg>
