<?xml version="1.0" encoding="UTF-8" standalone="no"?>
<!-- Created with Inkscape (http://www.inkscape.org/) -->

<svg
   viewBox="0 0 38.549999 41.919998"
   version="1.1"
   id="svg1"
   inkscape:version="1.3.2 (091e20e, 2023-11-25, custom)"
   sodipodi:docname="Gin.svg"
   xml:space="preserve"
   xmlns:inkscape="http://www.inkscape.org/namespaces/inkscape"
   xmlns:sodipodi="http://sodipodi.sourceforge.net/DTD/sodipodi-0.dtd"
   xmlns="http://www.w3.org/2000/svg"
   xmlns:svg="http://www.w3.org/2000/svg"><sodipodi:namedview
     id="namedview1"
     pagecolor="#ffffff"
     bordercolor="#111111"
     borderopacity="1"
     inkscape:showpageshadow="0"
     inkscape:pageopacity="0"
     inkscape:pagecheckerboard="1"
     inkscape:deskcolor="#d1d1d1"
     inkscape:document-units="mm"
     showguides="true"
     inkscape:zoom="13.096375"
     inkscape:cx="19.241966"
     inkscape:cy="20.959999"
     inkscape:window-width="1292"
     inkscape:window-height="745"
     inkscape:window-x="-8"
     inkscape:window-y="-8"
     inkscape:window-maximized="1"
     inkscape:current-layer="layer1"><inkscape:page
       x="0"
       y="0"
       width="38.549999"
       height="41.919998"
       id="page42"
       margin="0"
       bleed="0" /></sodipodi:namedview><defs
     id="defs1"><inkscape:path-effect
       effect="powerstroke"
       id="path-effect13"
       is_visible="true"
       lpeversion="1.3"
       scale_width="1"
       interpolator_type="CubicBezierJohan"
       interpolator_beta="0.2"
       start_linecap_type="zerowidth"
       end_linecap_type="zerowidth"
       offset_points="5,4.9921382"
       linejoin_type="extrp_arc"
       miter_limit="4"
       not_jump="false"
       sort_points="true"
       message="&lt;b&gt;Ctrl + click&lt;/b&gt; on existing node and move it" /></defs><g
     inkscape:label="Layer 1"
     inkscape:groupmode="layer"
     id="layer1"
     transform="translate(-84.724993,-165.64)"><path
       style="display:inline;fill:#fff29e;fill-opacity:1;fill-rule:evenodd;stroke:none;stroke-width:0.360263;stroke-linecap:round;stroke-linejoin:round;paint-order:stroke fill markers"
       d="m 104,170 9.06496,2.94538 L 117.34999,200 H 90.649996 l 4.285031,-27.05461 z"
       id="path13"
       sodipodi:nodetypes="cccccc" /><path
       style="display:inline;fill:#938e5e;fill-opacity:1;fill-rule:evenodd;stroke:none;stroke-width:0.372309;stroke-linecap:round;stroke-linejoin:round;stroke-dasharray:none;stroke-opacity:1;paint-order:stroke fill markers"
       d="m 90.649998,200 -3e-6,3.2 H 117.34999 V 200 Z"
       id="path45" /><path
       id="path1-8"
       style="fill:#000000;stroke-width:0.564136"
       d="m 98.693864,176.91621 c -0.32239,0.0147 -0.392697,0.085 -0.421134,0.27909 -0.277011,1.89128 -0.740392,2.59672 -2.663841,4.04436 -0.608833,0.45823 -1.108896,0.92822 -1.108896,1.0441 0,0.11598 0.05724,0.20932 0.127088,0.20932 1.554493,-0.32277 2.852154,-1.08181 3.992023,-2.16297 0.72829,-0.69779 1.34594,-1.26837 1.37304,-1.26837 0.027,0 0.604906,0.2672 1.283326,0.59556 0.67841,0.32837 1.32816,0.59671 1.4453,0.59557 0.84771,-0.0102 0.59743,-1.01493 -0.3688,-1.48268 -0.34769,-0.16832 -0.81036,-0.30651 -1.02915,-0.30651 -0.29499,0 -0.42203,-0.0918 -0.48842,-0.35635 -0.0494,-0.19621 -0.27814,-0.53957 -0.51084,-0.76251 -0.342416,-0.32805 -0.575626,-0.40873 -1.216046,-0.42612 -0.17146,-0.005 -0.30619,-0.007 -0.41365,-0.002 z m 10.642906,1.06155 c -0.1916,0 -0.6353,0.1346 -0.9868,0.29903 -0.78264,0.36613 -1.78428,0.56271 -2.57912,0.50337 l -0.59806,-0.0449 0.50587,0.52579 c 0.72011,0.75081 1.21137,0.92412 1.996,0.70521 0.34788,-0.0971 0.73408,-0.19519 0.85722,-0.21929 0.12312,-0.024 0.35663,-0.0957 0.52081,-0.15699 0.61571,-0.22998 0.68541,-0.21714 0.82481,0.14951 0.0786,0.2066 0.16161,1.17182 0.1844,2.14304 0.023,0.98126 0.11393,1.85632 0.20434,1.97109 0.31304,0.39781 0.32493,0.88266 -0.0623,1.47769 -0.38726,0.59505 -0.55845,0.83533 -0.69772,1.12884 -0.18656,0.39315 -0.31778,0.50884 -0.50088,0.43857 -0.36195,-0.13887 -1.54906,-0.38293 -2.04585,-0.42113 -0.51465,-0.0395 -0.90085,-0.61668 -1.05408,-1.57487 l -0.10465,-0.64791 0.43358,0.22429 c 0.73428,0.3795 1.36487,0.33946 2.28757,-0.14205 0.2107,-0.10997 0.48754,-0.20134 0.61551,-0.20185 0.12798,-5e-4 0.35009,-0.0845 0.49338,-0.18937 0.33251,-0.24313 0.18893,-0.647 -0.32644,-0.91702 -0.38879,-0.20372 -0.67579,-0.14111 -1.70196,0.37627 -0.14089,0.0711 -0.50921,0.1887 -0.81984,0.26165 -0.3106,0.0729 -0.6643,0.15869 -0.78744,0.18938 -0.16853,0.0421 -0.23647,-0.10511 -0.27162,-0.59556 -0.0632,-0.88063 0.0387,-1.12083 0.39622,-0.92948 0.43265,0.23154 1.22516,0.2072 1.96361,-0.0598 0.95711,-0.34609 1.24207,-0.58941 1.12385,-0.96188 -0.12159,-0.38324 -0.87266,-0.41669 -1.95862,-0.0872 -1.13736,0.34505 -1.36406,0.30556 -1.47771,-0.25915 -0.17889,-0.88878 -0.22782,-0.96334 -0.78743,-1.2011 -0.99883,-0.4244 -1.2294,-0.45305 -1.22602,-0.152 10e-4,0.14918 0.14589,0.57499 0.31896,0.94442 0.25173,0.53739 0.32084,1.00432 0.34887,2.34239 0.0265,1.26326 0.10187,1.81239 0.30899,2.24022 0.29755,0.61476 0.31374,0.98727 0.13955,3.26438 -0.0832,1.08657 -0.0622,1.66136 0.0747,2.07577 0.20432,0.61907 1.22677,1.82805 1.71443,2.02591 0.41931,0.17012 0.47309,0.16608 1.03166,-0.0673 0.27296,-0.11393 0.75693,-0.48947 1.0765,-0.83478 0.51092,-0.55208 0.73194,-0.89492 1.27335,-1.97856 0.0712,-0.14254 0.12959,-0.39289 0.12959,-0.55819 0,-0.39551 0.16051,-0.37912 0.68277,0.0698 0.23694,0.20358 0.91252,0.61501 1.50262,0.91453 0.82839,0.42047 1.17005,0.52016 1.49514,0.43857 0.51723,-0.12982 0.64259,-0.31346 0.6454,-0.94692 0.004,-0.83727 -1.21374,-1.65516 -3.29429,-2.21281 -0.5272,-0.1413 -1.0124,-0.30453 -1.07899,-0.36133 -0.0666,-0.0568 0.2031,-0.25312 0.59806,-0.43857 2.27068,-1.06623 2.56044,-1.90959 0.89707,-2.59656 l -0.56566,-0.23174 0.0972,-0.78993 c 0.0526,-0.43384 0.1823,-1.31445 0.28907,-1.95864 0.17958,-1.08337 0.15365,-1.47914 -0.14703,-2.21779 -0.10921,-0.26828 -1.37109,-0.75505 -1.95862,-0.75505 z m -8.14354,3.39397 c -0.36563,0.0238 -0.83201,0.12637 -1.427856,0.30152 -0.72051,0.21177 -1.679057,0.48683 -2.130571,0.61301 -0.809526,0.22621 -1.317799,0.41547 -1.876401,0.61051 -0.558604,0.19507 -0.660353,0.293 -0.660353,0.41366 0,0.28783 1.231883,0.64561 1.998504,0.58061 0.678431,-0.0575 0.986793,0.13626 0.986793,0.62298 0,0.35898 -0.06625,0.38842 -1.45527,0.59805 -0.386587,0.0584 -0.635435,0.17347 -0.635435,0.29654 0,0.28417 0.235298,0.40121 1.343134,0.67281 0.860506,0.21096 0.971842,0.28094 0.971842,0.60055 0,0.38503 0.04195,0.36768 -2.053326,0.76502 -0.47203,0.0894 -0.857214,0.22285 -0.857214,0.29653 0,0.13454 1.23443,0.72105 1.816595,0.88214 0.582165,0.16111 0.912902,0.29411 1.056566,0.34138 0.143671,0.0473 0.267278,0.23884 0.274109,0.42612 0.0069,0.18729 0.02871,0.49574 0.04984,0.68776 0.0496,0.45337 -0.244441,0.73525 -0.894587,0.85722 -0.407369,0.0765 -0.756357,-0.007 -1.579866,-0.37379 -0.581401,-0.25998 -1.080066,-0.44995 -1.108895,-0.42113 -0.02882,0.0288 0.110762,0.45364 0.311487,0.94194 0.200723,0.48827 0.367109,1.01596 0.368802,1.17368 0.0019,0.15773 0.115808,0.41056 0.251682,0.56067 0.135857,0.15012 0.28506,0.26946 0.333914,0.26664 0.408359,-0.0235 2.559893,-0.65453 3.523553,-1.03414 0.656753,-0.25868 1.557093,-0.56957 2.000983,-0.69025 0.70407,-0.19143 1.3556,-0.64947 1.3556,-0.95191 0,-0.18015 -0.58187,-0.7277 -0.87218,-0.81984 -0.15751,-0.05 -0.55506,-0.0293 -0.88462,0.0449 -0.78043,0.17535 -0.93477,0.0599 -0.97183,-0.73012 l -0.0324,-0.65538 0.7376,-0.15948 c 0.45686,-0.0991 0.9007,-0.32145 1.16869,-0.58559 l 0.4336,-0.42612 -0.38375,-0.38126 c -0.36021,-0.36018 -0.424,-0.37319 -1.1388,-0.22677 -0.66833,0.1369 -0.77476,0.12358 -0.89957,-0.10964 -0.17939,-0.33513 -0.18544,-1.07654 -0.007,-0.96686 0.1371,0.0847 1.17247,-0.23006 1.76924,-0.53824 0.82217,-0.4246 -0.003,-1.10946 -1.15376,-0.95689 -0.69845,0.0927 -0.74477,0.0771 -0.83228,-0.27162 -0.13048,-0.51987 -0.0131,-0.63663 0.76002,-0.75256 0.37358,-0.0561 0.91317,-0.19969 1.1986,-0.31896 0.51156,-0.21375 0.51428,-0.22182 0.29655,-0.6429 -0.16677,-0.3225 -0.41307,-0.50084 -0.81735,-0.53826 -0.10108,-0.009 -0.21204,-0.0104 -0.33392,-0.002 z m 5.20807,5.68153 c 0.0647,0.002 0.16045,0.0499 0.309,0.1246 0.22201,0.11355 0.62218,0.2514 0.88961,0.309 0.63511,0.13679 2.34986,1.05144 2.34986,1.25342 0,0.0863 -0.24493,0.4505 -0.54324,0.80737 -0.43792,0.52389 -0.69247,0.68288 -1.31821,0.82732 -1.03982,0.24001 -1.42249,0.22627 -1.66209,-0.0623 -0.22922,-0.27615 -0.36625,-2.03503 -0.21929,-2.81834 0.0482,-0.25695 0.0757,-0.3857 0.13955,-0.42612 0.016,-0.0101 0.0332,-0.0156 0.0548,-0.0149 z" /></g></svg>
