<svg xmlns="http://www.w3.org/2000/svg" xmlns:xlink="http://www.w3.org/1999/xlink" width="30mm" height="34mm" viewBox="0 0 30 34">
    <defs>
        <linearGradient id="1UM_svg__a">
            <stop offset="0" stop-color="#ffdba6"/>
            <stop offset="1" stop-color="#f2c478"/>
        </linearGradient>
        <linearGradient xlink:href="#1UM_svg__a" id="1UM_svg__b" x1="289.069" x2="289.07" y1="220.195" y2="143.722" gradientTransform="translate(-2279.056 -212.603)" gradientUnits="userSpaceOnUse"/>
    </defs>
    <path fill="url(#1UM_svg__b)" d="m0 0-21.223 7.255a1.62 1.62 0 0 1-1.044 0L-43.49 0c-.512-.175-.879-.592-.956-1.088L-54.328-64.8c-.128-.823.569-1.559 1.477-1.559H9.361c.907 0 1.605.736 1.477 1.559L.955-1.088C.879-.592.512-.175 0 0" transform="matrix(-.35278 0 0 .35278 7.329 27.41)"/>
    <path fill="#4d3608" d="M25.974 3.7c.482 0 .892.415.817.896l-3.485 22.476a.8.8 0 0 1-.537.622l-7.488 2.56a.87.87 0 0 1-.562 0l-7.487-2.56a.79.79 0 0 1-.536-.622L3.209 4.596c-.075-.481.335-.896.818-.896H15Zm0 .6H4.027c-.158 0-.24.103-.225.203v.001l3.486 22.477c.009.057.054.116.138.145l7.487 2.56a.3.3 0 0 0 .174 0l7.487-2.56c.084-.029.13-.089.138-.146l3.486-22.476c.016-.1-.066-.204-.224-.204"/>
    <path fill="red" d="m17.082 20.478-.628.133q-.231-.662-.364-1.29l.695-.166q.033.53.297 1.323m1.092.232-.662-.232q.232-.86.596-1.62l.661.297q-.264.629-.595 1.555m-2.547-.166-.562.199q-.232-.364-.496-1.158l.595-.231q.132.397.463 1.19m-1.918-.86.562 1.026-.562.264q-.298-.43-.595-.992Zm1.587 2.15v.728h1.952v-.728zm0 1.356v.662h1.952v-.662zm0 1.257v.662h1.952v-.662zm2.712-3.506v4.862h-6.25v-.694h2.778v-.662h-2.348v-.595h2.348v-.662h-2.348v-.628h2.348v-.728h-3.043q.033-2.017.199-2.58.066-.363.297-.462.397-.232 1.323-.364.033.297.298.86h-.794q-.265 0-.298.099-.132.231-.165 1.786h4.895v-.232zM11.835 7.483l6.648 6.717-.32.316L11.515 7.8z"/>
    <path fill="red" d="M18.548 13v1.583h-1.569v-.45h1.118v-1.132zm-5.53-5.584v.45H11.9v1.132h-.45V7.416Zm5.145.067.32.316-6.648 6.717-.32-.317z"/>
    <path fill="red" d="M18.548 7.416v1.583h-.45V7.867h-1.119v-.451ZM11.9 13v1.133h1.118v.45H11.45v-1.582zm3.325-4.5v5h-.45v-5Z"/>
    <path fill="red" d="M17.5 10.774v.451h-5v-.45z"/>
</svg>
