<svg xmlns="http://www.w3.org/2000/svg" xmlns:xlink="http://www.w3.org/1999/xlink" width="30mm" height="34mm" viewBox="0 0 30 34">
    <defs>
        <linearGradient id="1NY_svg__a">
            <stop offset="0" stop-color="#ffdba6"/>
            <stop offset="1" stop-color="#f2c478"/>
        </linearGradient>
        <linearGradient xlink:href="#1NY_svg__a" id="1NY_svg__b" x1="289.069" x2="289.07" y1="220.195" y2="143.722" gradientTransform="translate(-2279.056 -212.603)" gradientUnits="userSpaceOnUse"/>
    </defs>
    <path fill="url(#1NY_svg__b)" d="m0 0-18.208 6.244c-.37.127-.78.127-1.15 0L-37.566 0c-.538-.184-.92-.612-.998-1.116l-8.551-55.301c-.13-.841.611-1.59 1.573-1.59H7.976c.962 0 1.703.749 1.573 1.59L.998-1.116C.92-.612.538-.184 0 0" transform="matrix(-.35278 0 0 .35278 8.374 26.113)"/>
    <path fill="#4d3608" d="M24.44 5.35c.496 0 .928.413.852.906l-3.017 19.509a.81.81 0 0 1-.551.632L15.3 28.6a.92.92 0 0 1-.6 0l-6.424-2.203a.81.81 0 0 1-.551-.632L4.709 6.256c-.076-.493.356-.907.85-.907H15Zm0 .6H5.56c-.184 0-.274.115-.258.214l3.016 19.51c.01.056.057.123.153.155l6.424 2.203a.34.34 0 0 0 .21 0l6.425-2.203c.096-.033.143-.099.152-.156l3.017-19.508c.015-.1-.075-.215-.258-.215"/>
    <path fill="red" d="M13.019 19.174v1.447h3.824v-1.447zm3.824-1.17h.827v3.34h-5.478v-3.34h.827v.481h3.824zm-1.482 6.924v1.068h-.86v-1.068H11.09v-.69h3.066q-.724-.826-1.344-1.308-.723-.552-1.93-1.137.242-.31.518-.758 1.205.689 1.791 1.171.62.482 1.31 1.31V21.62h.86v1.93q.483-.517 1.103-1.034.31-.24.999-.723l1.102-.62q.345.482.552.654-1.103.517-1.895 1.103-.861.62-1.447 1.309H18.6v.689zM15.225 8v8h-.45V8Z"/>
    <path fill="red" d="M19 11.774v.451h-8v-.45z"/>
    <path fill="red" d="m15.159 11.84 2.828 2.83-.318.317-2.828-2.828z"/>
    <path fill="red" d="m14.84 11.84.319.319-2.828 2.828-.319-.318z"/>
</svg>
