<svg xmlns="http://www.w3.org/2000/svg" xmlns:xlink="http://www.w3.org/1999/xlink" width="30mm" height="34mm" viewBox="0 0 30 34">
    <defs>
        <linearGradient id="1NK_svg__a">
            <stop offset="0" stop-color="#ffdba6"/>
            <stop offset="1" stop-color="#f2c478"/>
        </linearGradient>
        <linearGradient xlink:href="#1NK_svg__a" id="1NK_svg__b" x1="289.069" x2="289.07" y1="220.195" y2="143.722" gradientTransform="translate(-2279.056 -212.603)" gradientUnits="userSpaceOnUse"/>
    </defs>
    <path fill="url(#1NK_svg__b)" d="m0 0-19.243 6.562a1.66 1.66 0 0 1-1.059 0L-39.545 0c-.531-.181-.912-.618-.993-1.139l-8.982-57.757c-.134-.863.585-1.636 1.523-1.636H8.452c.938 0 1.657.773 1.523 1.636L.993-1.139C.912-.618.531-.181 0 0" transform="matrix(-.35278 0 0 .35278 8.025 26.504)"/>
    <path fill="#4d3608" d="M24.957 4.85c.496 0 .91.43.834.923l-3.168 20.375a.82.82 0 0 1-.55.64l-6.79 2.315a.9.9 0 0 1-.565 0h-.001l-6.789-2.315a.82.82 0 0 1-.55-.64L4.21 5.774c-.077-.492.338-.924.834-.924H15Zm0 .6H5.044c-.166 0-.26.113-.241.23L7.97 26.056a.21.21 0 0 0 .15.164l-.096.284.097-.284 6.788 2.314a.3.3 0 0 0 .18 0l6.789-2.314c.09-.03.14-.096.15-.164L25.2 5.68c.017-.117-.076-.23-.242-.23"/>
    <path fill="red" d="M15.465 20.897v1h-.827v-1h-2.584v-.723h2.584v-1.172h-3.41v-.757h7.544v.757h-3.307v1.172h2.55v.723zm0 3.721v1.137h-.827v-1.137h-2.584v-.69h2.584v-1.101h-3.41v-.69h7.51v.69h-3.273v1.102h2.55v.689zM15.225 8v8h-.45V8Z"/>
    <path fill="red" d="M19 11.775v.45h-8v-.45Z"/>
    <path fill="red" d="m15.159 11.84 2.828 2.83-.318.318-2.828-2.829z"/>
    <path fill="red" d="m14.84 11.84.32.32-2.83 2.828-.318-.319z"/>
</svg>
