<svg xmlns="http://www.w3.org/2000/svg" xmlns:xlink="http://www.w3.org/1999/xlink" width="30mm" height="34mm" viewBox="0 0 30 34">
    <defs>
        <linearGradient id="1RY_svg__a">
            <stop offset="0" stop-color="#ffdba6"/>
            <stop offset="1" stop-color="#f2c478"/>
        </linearGradient>
        <linearGradient xlink:href="#1RY_svg__a" id="1RY_svg__b" x1="289.069" x2="289.07" y1="220.195" y2="143.722" gradientTransform="translate(-2279.056 -212.603)" gradientUnits="userSpaceOnUse"/>
    </defs>
    <path fill="url(#1RY_svg__b)" d="m0 0-21.223 7.255a1.62 1.62 0 0 1-1.044 0L-43.49 0c-.512-.175-.879-.592-.956-1.088L-54.328-64.8c-.128-.823.569-1.559 1.477-1.559H9.361c.907 0 1.605.736 1.477 1.559L.955-1.088C.879-.592.512-.175 0 0" transform="matrix(-.35278 0 0 .35278 7.329 27.41)"/>
    <path fill="#4d3608" d="M25.974 3.7c.482 0 .892.415.817.896l-3.485 22.476a.8.8 0 0 1-.537.622l-7.488 2.56a.87.87 0 0 1-.562 0l-7.487-2.56a.79.79 0 0 1-.536-.622L3.209 4.596c-.075-.481.335-.896.818-.896H15Zm0 .6H4.027c-.158 0-.24.103-.225.203v.001l3.486 22.477c.009.057.054.116.138.145l7.487 2.56a.3.3 0 0 0 .174 0l7.487-2.56c.084-.029.13-.089.138-.146l3.486-22.476c.016-.1-.066-.204-.224-.204"/>
    <path fill="red" d="M15.225 6.82v8.36h-.45V6.82Z"/>
    <path fill="red" d="m15.685 14.176.319.318L15 15.497l-1.004-1.003.319-.318.685.685zM15 6.503l1.004 1.003-.319.318L15 7.14l-.685.685-.318-.318zm4.18 4.272v.45h-8.36v-.45z"/>
    <path fill="red" d="M18.494 9.996 19.497 11l-1.003 1.004-.318-.319.685-.685-.685-.685zm-6.988 0 .318.319-.685.685.685.685-.318.318L10.503 11zm4.684 10.648v.496h1.456v-.496zm0 1.025v.53h1.456v-.53zm2.184-3.142v4.366h-2.91v-3.539q0-.33.198-.529.264-.198.826-.298.034.298.1.463 0 .033.066.133l.165.165h-.43q-.132 0-.165.033t-.033.132v.596h1.455v-1.522zm-3.671 5.325v2.282h-.794v-.628h-2.381v-.596h2.38v-.496h-2.38v-1.686h2.447v-.497h-2.216v-.43h2.216v-.463h-2.216v-.463h2.216v-.463h-2.216v-.463h2.216v-.396q0-.232-.132-.265-.066-.066-.463-.066h-.926q-.331 0-.364.033-.298.1-.331.53-.33-.232-.661-.332.132-.496.363-.661.232-.199.53-.199h1.72q.363 0 .562.067.165.033.33.264.1.132.1.43v3.936h-2.448v.562zm1.852.1-.265.991h1.19q-.165-.529-.297-.992zm.727 1.554v.661h-.794v-.661h-1.322v-.563h.396l.331-.992H15v-.661h3.77v.661h-.892q0 .1.099.43.099.364.165.562h.496v.563zm-4.587-17.13 4.929 4.93-.319.318-4.929-4.93z"/>
    <path fill="red" d="m17.305 8.376.319.318-4.93 4.93-.318-.318z"/>
</svg>
