<svg xmlns="http://www.w3.org/2000/svg" xmlns:xlink="http://www.w3.org/1999/xlink" width="30mm" height="34mm" viewBox="0 0 30 34">
    <defs>
        <linearGradient id="1NG_svg__a">
            <stop offset="0" stop-color="#ffdba6"/>
            <stop offset="1" stop-color="#f2c478"/>
        </linearGradient>
        <linearGradient xlink:href="#1NG_svg__a" id="1NG_svg__b" x1="289.069" x2="289.07" y1="220.195" y2="143.722" gradientTransform="translate(-2279.056 -212.603)" gradientUnits="userSpaceOnUse"/>
    </defs>
    <path fill="url(#1NG_svg__b)" d="m0 0-20.266 6.952a1.47 1.47 0 0 1-.952 0L-41.484 0a1.59 1.59 0 0 1-1.038-1.274l-9.381-60.689c-.151-.981.569-1.871 1.515-1.871H8.905c.945 0 1.666.89 1.514 1.871L1.038-1.274A1.59 1.59 0 0 1 0 0" transform="matrix(-.35278 0 0 .35278 7.683 27.02)"/>
    <path fill="#4d3608" d="M25.46 4.2c.521 0 .91.491.83 1.006l-3.309 21.41a.86.86 0 0 1-.566.688l-7.15 2.452a.82.82 0 0 1-.53 0l-7.149-2.452a.86.86 0 0 1-.566-.688L3.71 5.206c-.08-.514.31-1.005.831-1.005H15Zm0 .6H4.541c-.145 0-.265.137-.238.314l3.31 21.41a.26.26 0 0 0 .166.212l7.15 2.453a.2.2 0 0 0 .14 0l7.15-2.453a.27.27 0 0 0 .168-.212l3.309-21.41c.027-.177-.092-.313-.238-.313"/>
    <path fill="red" d="M15.225 7.5v8h-.45v-8Z"/>
    <path fill="red" d="M19 11.275v.45h-8v-.45z"/>
    <path fill="red" d="m15.16 11.34 2.828 2.83-.319.318-2.828-2.829z"/>
    <path fill="red" d="m14.84 11.34.32.32-2.83 2.828-.318-.319zm.264 13.554q.723-.793 1.102-1.137.448-.448 1.102-.93h-4.34q1.205.93 2.136 2.067m.172 1.033-.793-.31.138-.172q-.964-1.068-1.998-1.826-.827-.551-1.757-.896.31-.31.517-.758l1.24.62v-.482h2.033v-1.137h-2.033v-.689h2.033v-1.481h-3.204v-.724h7.166v.724h-3.136v1.481h2.17v.69h-2.17v1.136h2.17v.482q.552-.413 1.034-.654.104.24.448.689-1.378.792-2.136 1.447-.827.723-1.722 1.86"/>
</svg>
