<svg xmlns="http://www.w3.org/2000/svg" xmlns:xlink="http://www.w3.org/1999/xlink" width="30mm" height="34mm" viewBox="0 0 30 34">
    <defs>
        <linearGradient id="1OU_svg__a">
            <stop offset="0" stop-color="#ffdba6"/>
            <stop offset="1" stop-color="#f2c478"/>
        </linearGradient>
        <linearGradient xlink:href="#1OU_svg__a" id="1OU_svg__b" x1="289.069" x2="289.07" y1="220.195" y2="143.722" gradientTransform="translate(-2279.056 -212.603)" gradientUnits="userSpaceOnUse"/>
    </defs>
    <path fill="url(#1OU_svg__b)" d="m0 0-22.28 7.578c-.3.102-.625.102-.924 0L-45.484 0a1.42 1.42 0 0 1-.949-1.125l-10.308-66.12a1.422 1.422 0 0 1 1.411-1.636H9.846a1.42 1.42 0 0 1 1.41 1.636L.948-1.125A1.42 1.42 0 0 1 0 0" transform="matrix(-.35278 0 0 .35278 6.977 27.8)"/>
    <path fill="#4d3608" d="M26.496 3.2c.486 0 .87.443.795.924l-3.637 23.325a.8.8 0 0 1-.534.635l-7.86 2.673a.8.8 0 0 1-.52 0l-7.86-2.673a.8.8 0 0 1-.534-.635L2.71 4.124a.807.807 0 0 1 .794-.923H15Zm0 .6H3.504a.196.196 0 0 0-.202.23L6.94 27.358a.2.2 0 0 0 .134.159l7.861 2.673a.2.2 0 0 0 .132 0l7.86-2.673a.2.2 0 0 0 .135-.159L26.697 4.03a.196.196 0 0 0-.2-.23"/>
    <path d="M18.175 24.956v.728h-6.416v-.728h2.877V22.94h-2.514v-.761h2.514v-2.282h-3.34v-.794h7.408v.794H15.43v2.282h2.381v.76H15.43v2.018zM15.225 6.5v9h-.45v-9Z"/>
    <path d="M19.5 10.775v.45h-9v-.45z"/>
    <path d="m11.977 7.659 6.364 6.364-.318.318-6.364-6.364z"/>
    <path d="m18.023 7.659.318.318-6.364 6.364-.318-.318z"/>
</svg>
