<svg xmlns="http://www.w3.org/2000/svg" xmlns:xlink="http://www.w3.org/1999/xlink" width="30mm" height="34mm" viewBox="0 0 30 34">
    <defs>
        <linearGradient id="1KY_svg__a">
            <stop offset="0" stop-color="#ffdba6"/>
            <stop offset="1" stop-color="#f2c478"/>
        </linearGradient>
        <linearGradient xlink:href="#1KY_svg__a" id="1KY_svg__b" x1="289.069" x2="289.07" y1="220.195" y2="143.722" gradientTransform="translate(-2279.056 -212.603)" gradientUnits="userSpaceOnUse"/>
    </defs>
    <path fill="url(#1KY_svg__b)" d="m0 0-18.208 6.244c-.37.127-.78.127-1.15 0L-37.566 0c-.538-.184-.92-.612-.998-1.116l-8.551-55.301c-.13-.841.611-1.59 1.573-1.59H7.976c.962 0 1.703.749 1.573 1.59L.998-1.116C.92-.612.538-.184 0 0" transform="matrix(-.35278 0 0 .35278 8.374 26.114)"/>
    <path fill="#4d3608" d="M24.44 5.35c.496 0 .928.414.852.907l-3.017 19.509a.81.81 0 0 1-.551.632L15.3 28.601a.92.92 0 0 1-.6 0l-6.424-2.203a.81.81 0 0 1-.551-.632L4.709 6.257c-.076-.493.356-.907.85-.907H15Zm0 .6H5.56c-.184 0-.274.116-.258.215l3.016 19.51c.01.056.057.123.153.155l6.424 2.203a.34.34 0 0 0 .21 0l6.425-2.203c.096-.033.143-.099.152-.156l3.017-19.508c.015-.1-.075-.215-.258-.215"/>
    <path d="M13.347 19.02v.694h3.373v-.694zm0 1.322v.53h3.373v-.53Zm1.29 2.48v-1.157h.727v1.092q.926-.76 1.687-1.257h-4.2q.264.132.926.628.099.067.86.695m0 1.886v-.728h-3.34v-.727h2.81q-.727-.629-1.389-.96-.595-.363-1.687-.727.232-.231.298-.364l.199-.33q.496.231 1.025.496V18.06h.794v.331h3.373v-.364h.76v3.241q.662-.33.993-.463.165.331.198.43.033.067.232.265-1.488.53-3.076 1.753h2.844v.727h-3.307v.662q1.19-.132 2.315-.165.066.231.165.43.067.231.1.264-1.885.1-3.076.199-1.058.132-2.084.33l-.463-.661q1.059-.199 2.315-.331m.589-14.828v5.922h-.45V9.88Z"/>
    <path d="m15.635 14.85.318.319-.953.95-.953-.95.319-.319.634.634z"/>
</svg>
