<svg xmlns="http://www.w3.org/2000/svg" xmlns:xlink="http://www.w3.org/1999/xlink" width="30mm" height="34mm" viewBox="0 0 30 34">
    <defs>
        <linearGradient id="1FU_svg__a">
            <stop offset="0" stop-color="#ffdba6"/>
            <stop offset="1" stop-color="#f2c478"/>
        </linearGradient>
        <linearGradient xlink:href="#1FU_svg__a" id="1FU_svg__b" x1="289.069" x2="289.07" y1="220.195" y2="143.722" gradientTransform="translate(-2279.056 -212.603)" gradientUnits="userSpaceOnUse"/>
    </defs>
    <path fill="url(#1FU_svg__b)" d="m0 0-16.217 5.989a1.8 1.8 0 0 1-1.241 0L-33.674 0c-.531-.196-.903-.627-.975-1.131l-7.687-53.534c-.122-.848.627-1.598 1.595-1.598H7.066c.969 0 1.717.75 1.596 1.598L.975-1.131C.902-.627.531-.196 0 0" transform="matrix(-.35278 0 0 .35278 9.06 25.848)"/>
    <path fill="#4d3608" d="M23.432 5.7c.497 0 .93.41.86.906L21.58 25.492a.81.81 0 0 1-.536.637l-5.721 2.113a.93.93 0 0 1-.645 0L8.956 26.13a.82.82 0 0 1-.537-.637L5.707 6.606c-.07-.495.364-.906.86-.906H15Zm0 .6H6.567c-.187 0-.28.117-.266.22l2.712 18.886c.009.06.055.126.151.16l5.721 2.113a.35.35 0 0 0 .23 0l5.72-2.112c.097-.035.143-.102.152-.16L23.699 6.52c.014-.103-.08-.221-.266-.221"/>
    <path d="M15.225 11.5v3h-.45v-3zm3.075 5.994q.099.43.296.76-.951.034-2.1.331-.918.232-1.607.728-.688.463-1.344 1.19l-.59-.462q.754-.761.983-.926.46-.364 1.148-.695.46-.264 1.443-.562.788-.199 1.772-.364m-6.756 2.844.492-.595q.95.86 1.77 1.356l-.425.562q-1.083-.694-1.837-1.323m6.92-.926q.099.199.165.265l.328.364q-.656.463-.853.661-.361.298-.984.992l-.623-.496.262-.264.262-.265q.656-.661.722-.694.525-.43.722-.563m-2.853 3.175v2.58h-.722v-.992h-2.558v-.695h2.558v-.893h-3.28v-.727h3.28v-1.92q0-.264.23-.463.197-.165 1.017-.33.033.33.328.793h-.722q-.033 0-.098.067-.033.033-.033.099v1.753h3.378v.727H17.71v1.885h-.754v-1.885z"/>
</svg>
