<svg xmlns="http://www.w3.org/2000/svg" xmlns:xlink="http://www.w3.org/1999/xlink" width="30mm" height="34mm" viewBox="0 0 30 34">
    <defs>
        <linearGradient id="1HI_svg__a">
            <stop offset="0" stop-color="#ffdba6"/>
            <stop offset="1" stop-color="#f2c478"/>
        </linearGradient>
        <linearGradient xlink:href="#1HI_svg__a" id="1HI_svg__b" x1="289.069" x2="289.07" y1="220.195" y2="143.722" gradientTransform="translate(-2279.056 -212.603)" gradientUnits="userSpaceOnUse"/>
    </defs>
    <path fill="url(#1HI_svg__b)" d="m0 0-21.223 7.255a1.62 1.62 0 0 1-1.044 0L-43.49 0c-.512-.175-.879-.593-.956-1.088L-54.328-64.8c-.128-.823.569-1.559 1.477-1.559H9.361c.907 0 1.605.736 1.477 1.559L.955-1.088C.879-.593.512-.175 0 0" transform="matrix(-.35278 0 0 .35278 7.329 27.41)"/>
    <path fill="#4d3608" d="M25.974 3.7c.482 0 .892.415.817.896l-3.485 22.476a.8.8 0 0 1-.537.622l-7.488 2.56a.87.87 0 0 1-.562 0l-7.487-2.56a.79.79 0 0 1-.536-.622L3.209 4.596c-.075-.481.335-.896.818-.896H15Zm0 .6H4.027c-.158 0-.24.103-.225.203v.001l3.486 22.477c.009.056.054.116.138.145l7.487 2.56a.3.3 0 0 0 .174 0l7.487-2.56c.084-.028.13-.089.138-.146l3.486-22.476c.016-.1-.066-.204-.224-.204"/>
    <path d="M15.225 6.82v8.36h-.45V6.82Z"/>
    <path d="m15.685 14.176.319.318L15 15.497l-1.004-1.003.319-.318.685.685zM15 6.503l1.004 1.003-.319.318L15 7.14l-.685.685-.318-.318zm4.18 4.272v.45h-8.36v-.45z"/>
    <path d="M18.494 9.996 19.497 11l-1.003 1.003-.318-.318.685-.685-.685-.685zm-6.988 0 .318.319-.685.685.685.685-.318.318L10.503 11zm4.024 12.665v2.282h-.728v-2.282h-1.588q0-.826-.033-1.29l-.86.794-.529-.496.695-.595-.86-.33.33-.63q.067.034.43.166.331.165.662.298-.265-.629-.595-.992-.265-.265-.364-.265-.033 0-.1.066-.099.165-.198.562-.165-.132-.628-.397.165-.595.364-.76.198-.199.43-.199.363 0 .892.364.463.33.728.992.298.728.33 2.018h.894V18.56h.727v3.407h1.125q.066-1.025.165-1.39.166-.528.33-.826.398-.53.43-.595.067-.1.695-.629.331.463.53.629-.563.43-.794.727-.298.43-.43.827-.132.43-.199 1.257h1.29v.694h-1.29v1.059q.199-.066 1.125-.298.198.463.33.695-.694.099-1.09.198-.331.1-1.522.496l-.364-.595q.397-.166.76-.298v-1.257zm-1.654 2.48h4.597v.695h-5.292q.033-.297-.033-.992-.198.232-.43.463-.231.265-.463.496l-.53-.529.464-.397.397-.33q-.1-.034-.33-.133-.265-.066-.695-.198l.297-.596 1.158.43q-.265-.496-.662-.893-.231-.231-.397-.231-.033 0-.099.066l-.165.463q-.232-.231-.662-.397.265-.628.364-.727.166-.166.331-.166.364 0 .926.364.595.364.827.893.297.53.397 1.72"/>
</svg>
