<svg xmlns="http://www.w3.org/2000/svg" xmlns:xlink="http://www.w3.org/1999/xlink" width="30mm" height="34mm" viewBox="0 0 30 34">
    <defs>
        <linearGradient id="0NY_svg__a">
            <stop offset="0" stop-color="#ffdba6"/>
            <stop offset="1" stop-color="#f2c478"/>
        </linearGradient>
        <linearGradient xlink:href="#0NY_svg__a" id="0NY_svg__b" x1="289.069" x2="289.07" y1="220.195" y2="143.722" gradientTransform="translate(-2279.056 -212.603)" gradientUnits="userSpaceOnUse"/>
    </defs>
    <path fill="url(#0NY_svg__b)" d="m0 0-18.208 6.244c-.37.127-.78.127-1.15 0L-37.566 0c-.538-.184-.92-.612-.998-1.116l-8.551-55.301c-.13-.841.611-1.59 1.573-1.59H7.976c.962 0 1.703.749 1.573 1.59L.998-1.116C.92-.612.538-.184 0 0" transform="matrix(.35278 0 0 -.35278 21.626 7.886)"/>
    <path fill="#4d3608" d="M5.56 28.65c-.496 0-.928-.414-.852-.907L7.725 8.234a.81.81 0 0 1 .551-.632L14.7 5.399a.92.92 0 0 1 .6 0l6.424 2.203a.81.81 0 0 1 .551.632l3.017 19.509c.076.493-.356.907-.85.907H15Zm0-.6h18.88c.184 0 .274-.116.258-.215l-3.016-19.51c-.01-.056-.057-.123-.153-.155l-6.424-2.203a.34.34 0 0 0-.21 0L8.47 8.17c-.096.033-.143.099-.152.156L5.301 27.834c-.015.1.075.215.258.215"/>
    <path fill="red" d="M16.981 14.825v-1.447h-3.824v1.447zm-3.824 1.172h-.827v-3.342h5.478v3.342h-.827v-.483h-3.824zm1.481-6.925V8.004h.862v1.068h3.41v.689h-3.066q.724.827 1.344 1.31.723.55 1.93 1.136-.242.31-.518.758-1.205-.69-1.791-1.171-.62-.483-1.31-1.31v1.895h-.86V10.45q-.483.517-1.103 1.034-.31.24-.999.723l-1.102.62q-.345-.482-.552-.654 1.103-.517 1.895-1.103.861-.62 1.447-1.309H11.4v-.689ZM14.775 26v-8h.45v8z"/>
    <path fill="red" d="M11 22.225v-.45h8v.45z"/>
    <path fill="red" d="m14.84 22.16-2.827-2.83.318-.318 2.828 2.829z"/>
    <path fill="red" d="m15.16 22.16-.32-.32 2.83-2.828.318.319z"/>
</svg>
