<svg xmlns="http://www.w3.org/2000/svg" xmlns:xlink="http://www.w3.org/1999/xlink" width="30mm" height="34mm" viewBox="0 0 30 34">
    <defs>
        <linearGradient id="0NK_svg__a">
            <stop offset="0" stop-color="#ffdba6"/>
            <stop offset="1" stop-color="#f2c478"/>
        </linearGradient>
        <linearGradient xlink:href="#0NK_svg__a" id="0NK_svg__b" x1="289.069" x2="289.07" y1="220.195" y2="143.722" gradientTransform="translate(-2279.056 -212.603)" gradientUnits="userSpaceOnUse"/>
    </defs>
    <path fill="url(#0NK_svg__b)" d="m0 0-19.243 6.562a1.66 1.66 0 0 1-1.059 0L-39.545 0c-.531-.181-.912-.618-.993-1.139l-8.982-57.757c-.134-.863.585-1.636 1.523-1.636H8.452c.938 0 1.657.773 1.523 1.636L.993-1.139C.912-.618.531-.181 0 0" transform="matrix(.35278 0 0 -.35278 21.975 7.496)"/>
    <path fill="#4d3608" d="M5.043 29.15c-.496 0-.91-.43-.834-.923L7.377 7.852a.82.82 0 0 1 .55-.64l6.79-2.315a.9.9 0 0 1 .565 0h.001l6.789 2.315c.285.098.503.34.55.64l3.168 20.375c.077.492-.338.924-.834.924H15Zm0-.6h19.913c.166 0 .26-.113.241-.23L22.03 7.944a.21.21 0 0 0-.15-.164l.096-.284-.097.284-6.788-2.314a.3.3 0 0 0-.18 0L8.12 7.78c-.09.03-.14.096-.15.164L4.8 28.32c-.017.117.076.23.242.23"/>
    <path fill="red" d="M14.535 13.103v-1h.827v1h2.584v.723h-2.584v1.172h3.41v.757h-7.544v-.757h3.307v-1.172h-2.55v-.723zm0-3.72V8.244h.827v1.137h2.584v.69h-2.584v1.102h3.41v.689h-7.51v-.69h3.273V10.07h-2.55v-.689ZM14.775 26v-8h.45v8z"/>
    <path fill="red" d="M11 22.225v-.45h8v.45z"/>
    <path fill="red" d="m14.841 22.16-2.828-2.83.318-.318 2.828 2.829z"/>
    <path fill="red" d="m15.16 22.16-.32-.32 2.83-2.828.318.319z"/>
</svg>
