<svg xmlns="http://www.w3.org/2000/svg" xmlns:xlink="http://www.w3.org/1999/xlink" width="30mm" height="34mm" viewBox="0 0 30 34">
    <defs>
        <linearGradient id="0RY_svg__a">
            <stop offset="0" stop-color="#ffdba6"/>
            <stop offset="1" stop-color="#f2c478"/>
        </linearGradient>
        <linearGradient xlink:href="#0RY_svg__a" id="0RY_svg__b" x1="289.069" x2="289.07" y1="220.195" y2="143.722" gradientTransform="translate(-2279.056 -212.603)" gradientUnits="userSpaceOnUse"/>
    </defs>
    <path fill="url(#0RY_svg__b)" d="m0 0-21.223 7.255a1.62 1.62 0 0 1-1.044 0L-43.49 0c-.512-.175-.879-.592-.956-1.088L-54.328-64.8c-.128-.823.569-1.559 1.477-1.559H9.361c.907 0 1.605.736 1.477 1.559L.955-1.088C.879-.592.512-.175 0 0" transform="matrix(.35278 0 0 -.35278 22.671 6.59)"/>
    <path fill="#4d3608" d="M4.026 30.3c-.482 0-.892-.415-.817-.896L6.694 6.928a.8.8 0 0 1 .537-.622l7.488-2.56a.87.87 0 0 1 .562 0l7.487 2.56a.79.79 0 0 1 .536.622l3.487 22.476c.075.481-.335.896-.818.896H15Zm0-.6h21.947c.158 0 .24-.103.225-.203v-.001L22.712 7.019c-.009-.057-.054-.116-.138-.145l-7.487-2.56a.3.3 0 0 0-.174 0l-7.487 2.56c-.084.029-.13.089-.138.146L3.802 29.496c-.016.1.066.204.224.204"/>
    <path fill="red" d="M14.775 27.18v-8.36h.45v8.359z"/>
    <path fill="red" d="m14.315 19.825-.319-.319L15 18.503l1.004 1.003-.319.319L15 19.14zM15 27.498l-1.004-1.003.319-.319.685.685.685-.685.318.319zm-4.18-4.272v-.45h8.36v.45z"/>
    <path fill="red" d="M11.506 24.004 10.503 23l1.003-1.004.318.318-.685.686.685.685zm6.988 0-.318-.318.685-.686-.685-.685.318-.318L19.497 23zM13.81 13.356v-.496h-1.456v.496zm0-1.025v-.53h-1.456v.53zm-2.184 3.142v-4.366h2.91v3.54q0 .33-.198.528-.264.199-.826.298-.034-.298-.1-.463 0-.033-.066-.132l-.165-.166h.43q.132 0 .165-.033t.033-.132v-.595h-1.455v1.521zm3.671-5.325V7.866h.794v.629h2.382v.595h-2.382v.496h2.382v1.687h-2.448v.496h2.216v.43h-2.216v.463h2.216v.463h-2.216v.463h2.216v.463h-2.216v.397q0 .231.132.264.067.066.463.066h.926q.331 0 .364-.033.298-.099.331-.529.33.232.661.331-.132.496-.363.661-.232.199-.53.199h-1.72q-.363 0-.562-.066-.165-.033-.33-.265-.1-.132-.1-.43V10.71h2.448v-.562zm-1.852-.099.265-.992h-1.19q.165.529.297.992zm-.727-1.554v-.662h.794v.662h1.322v.562h-.396l-.331.992H15v.661h-3.77v-.661h.892q0-.1-.099-.43-.099-.364-.165-.562h-.496v-.562Zm4.588 17.129-4.93-4.93.319-.318 4.929 4.93z"/>
    <path fill="red" d="m12.695 25.625-.319-.319 4.93-4.93.318.319z"/>
</svg>
