<svg xmlns="http://www.w3.org/2000/svg" xmlns:xlink="http://www.w3.org/1999/xlink" width="30mm" height="34mm" viewBox="0 0 30 34">
    <defs>
        <linearGradient id="0KI_svg__a">
            <stop offset="0" stop-color="#ffdba6"/>
            <stop offset="1" stop-color="#f2c478"/>
        </linearGradient>
        <linearGradient xlink:href="#0KI_svg__a" id="0KI_svg__b" x1="289.069" x2="289.07" y1="220.195" y2="143.722" gradientTransform="translate(-2279.056 -212.603)" gradientUnits="userSpaceOnUse"/>
    </defs>
    <path fill="url(#0KI_svg__b)" d="m0 0-20.266 6.952a1.47 1.47 0 0 1-.952 0L-41.484 0a1.59 1.59 0 0 1-1.038-1.274l-9.381-60.689c-.151-.981.569-1.871 1.515-1.871H8.905c.945 0 1.666.89 1.514 1.871L1.038-1.274A1.59 1.59 0 0 1 0 0" transform="matrix(.35278 0 0 -.35278 22.317 6.98)"/>
    <path fill="#4d3608" d="M4.54 29.8c-.521 0-.91-.491-.83-1.006l3.309-21.41a.86.86 0 0 1 .566-.688l7.15-2.452a.82.82 0 0 1 .53 0l7.149 2.452a.86.86 0 0 1 .566.688l3.31 21.41c.08.514-.31 1.005-.831 1.005H15Zm0-.6h20.918c.145 0 .265-.137.238-.314l-3.31-21.41a.26.26 0 0 0-.166-.212L15.07 4.81a.2.2 0 0 0-.14 0L7.78 7.264a.27.27 0 0 0-.168.212l-3.309 21.41c-.027.177.092.313.238.313"/>
    <path d="M14.775 26v-8h.45v8z"/>
    <path d="M11 22.226v-.451h8v.45z"/>
    <path d="m14.84 22.16-2.828-2.83.319-.317 2.828 2.828z"/>
    <path d="m15.16 22.16-.32-.319 2.83-2.828.318.318zm-2.882-8.851.655-.379q.172.207.758 1.171l-.724.345q-.275-.62-.689-1.137m2.619-4.65q-.62.688-.655.723l-1.102 1.033h3.617q-.896-.758-1.034-.896zm-.173-1.172.827.413-.138.172q.793.93 1.62 1.482.999.792 2.101 1.309-.482.62-.551.758-.655-.345-1.344-.861v.379H15.31v.86h3.1v.655h-3.1v1.999h1.481q-.24-.173-.585-.38.344-.55.689-1.412l.792.414q-.482.93-.792 1.378h1.895v.723h-7.614v-.723h3.307v-1.999h-2.894V12h2.894v-.861h-1.722v-.414q-.552.482-1.344 1-.069-.139-.138-.207l-.034-.104q0-.034-.138-.172-.103-.172-.207-.276 2.102-1.205 3.824-3.48"/>
</svg>
