<svg xmlns="http://www.w3.org/2000/svg" xmlns:xlink="http://www.w3.org/1999/xlink" width="30mm" height="34mm" viewBox="0 0 30 34">
    <defs>
        <linearGradient id="0OU_svg__a">
            <stop offset="0" stop-color="#ffdba6"/>
            <stop offset="1" stop-color="#f2c478"/>
        </linearGradient>
        <linearGradient xlink:href="#0OU_svg__a" id="0OU_svg__b" x1="289.069" x2="289.07" y1="220.195" y2="143.722" gradientTransform="translate(-2279.056 -212.603)" gradientUnits="userSpaceOnUse"/>
    </defs>
    <path fill="url(#0OU_svg__b)" d="m0 0-22.28 7.578c-.3.102-.625.102-.924 0L-45.484 0a1.42 1.42 0 0 1-.949-1.125l-10.308-66.12a1.422 1.422 0 0 1 1.411-1.636H9.846a1.42 1.42 0 0 1 1.41 1.636L.948-1.125A1.42 1.42 0 0 1 0 0" transform="matrix(.35278 0 0 -.35278 23.023 6.2)"/>
    <path fill="#4d3608" d="M3.504 30.8a.808.808 0 0 1-.795-.924L6.346 6.551a.8.8 0 0 1 .534-.635l7.86-2.673a.8.8 0 0 1 .52 0l7.86 2.673a.8.8 0 0 1 .534.635l3.636 23.325a.807.807 0 0 1-.794.923H15Zm0-.6h22.992a.196.196 0 0 0 .202-.23L23.06 6.642a.2.2 0 0 0-.134-.159L15.065 3.81a.2.2 0 0 0-.132 0l-7.86 2.673a.2.2 0 0 0-.135.159L3.303 29.97a.196.196 0 0 0 .2.23"/>
    <path d="M11.825 9.044v-.728h6.417v.728h-2.878v2.017h2.514v.761h-2.514v2.282h3.34v.794h-7.408v-.794h3.274v-2.282h-2.38v-.76h2.38V9.043Zm2.95 18.456v-9h.45v9z"/>
    <path d="M10.5 23.225v-.45h9v.45z"/>
    <path d="m18.023 26.341-6.364-6.364.318-.318 6.364 6.364z"/>
    <path d="m11.977 26.341-.318-.318 6.364-6.364.318.318z"/>
</svg>
