<svg xmlns="http://www.w3.org/2000/svg" xmlns:xlink="http://www.w3.org/1999/xlink" width="30mm" height="34mm" viewBox="0 0 30 34">
    <defs>
        <linearGradient id="0KY_svg__a">
            <stop offset="0" stop-color="#ffdba6"/>
            <stop offset="1" stop-color="#f2c478"/>
        </linearGradient>
        <linearGradient xlink:href="#0KY_svg__a" id="0KY_svg__b" x1="289.069" x2="289.07" y1="220.195" y2="143.722" gradientTransform="translate(-2279.056 -212.603)" gradientUnits="userSpaceOnUse"/>
    </defs>
    <path fill="url(#0KY_svg__b)" d="m0 0-18.208 6.244c-.37.127-.78.127-1.15 0L-37.566 0c-.538-.184-.92-.612-.998-1.116l-8.551-55.301c-.13-.841.611-1.59 1.573-1.59H7.976c.962 0 1.703.749 1.573 1.59L.998-1.116C.92-.612.538-.184 0 0" transform="matrix(.35278 0 0 -.35278 21.626 7.887)"/>
    <path fill="#4d3608" d="M5.56 28.65c-.496 0-.928-.413-.852-.906L7.725 8.235a.81.81 0 0 1 .551-.632L14.7 5.4a.92.92 0 0 1 .6 0l6.424 2.203a.81.81 0 0 1 .551.632l3.017 19.509c.076.493-.356.907-.85.907H15Zm0-.6h18.88c.184 0 .274-.115.258-.214l-3.016-19.51c-.01-.056-.057-.123-.153-.155l-6.424-2.203a.34.34 0 0 0-.21 0L8.47 8.171c-.096.033-.143.099-.152.156L5.301 27.835c-.015.1.075.215.258.215"/>
    <path d="M16.653 14.98v-.694H13.28v.695zm0-1.322v-.53H13.28v.53zm-1.29-2.48v1.157h-.727v-1.092q-.926.761-1.687 1.257h4.2q-.264-.132-.925-.628-.1-.066-.86-.695m0-1.886v.728h3.341v.727h-2.811q.727.629 1.389.96.595.363 1.687.727-.232.232-.298.364l-.199.33q-.496-.23-1.025-.495v3.307h-.794v-.33h-3.373v.363h-.76v-3.241q-.662.33-.993.463-.165-.33-.198-.43-.033-.066-.232-.265 1.489-.529 3.076-1.753H11.33v-.727h3.307v-.662q-1.19.133-2.315.166-.066-.232-.165-.43-.067-.232-.1-.265 1.886-.099 3.076-.198 1.058-.133 2.084-.331l.463.661q-1.059.199-2.315.331m-.59 14.829v-5.922h.45v5.922z"/>
    <path d="m14.365 19.15-.318-.318.953-.951.953.95-.318.319-.635-.634z"/>
</svg>
