<svg xmlns="http://www.w3.org/2000/svg" xmlns:xlink="http://www.w3.org/1999/xlink" width="30mm" height="34mm" viewBox="0 0 30 34">
    <defs>
        <linearGradient id="0KE_svg__a">
            <stop offset="0" stop-color="#ffdba6"/>
            <stop offset="1" stop-color="#f2c478"/>
        </linearGradient>
        <linearGradient xlink:href="#0KE_svg__a" id="0KE_svg__b" x1="289.069" x2="289.07" y1="220.195" y2="143.722" gradientTransform="translate(-2279.056 -212.603)" gradientUnits="userSpaceOnUse"/>
    </defs>
    <path fill="url(#0KE_svg__b)" d="m0 0-19.243 6.562a1.66 1.66 0 0 1-1.059 0L-39.545 0c-.531-.181-.912-.618-.993-1.139l-8.982-57.757c-.134-.863.585-1.636 1.523-1.636H8.452c.938 0 1.657.773 1.523 1.636L.993-1.139C.912-.618.531-.181 0 0" transform="matrix(.35278 0 0 -.35278 21.975 7.496)"/>
    <path fill="#4d3608" d="M5.043 29.15c-.496 0-.91-.43-.834-.923L7.377 7.852a.82.82 0 0 1 .55-.64l6.79-2.315a.9.9 0 0 1 .565 0h.001l6.789 2.315c.285.098.503.34.55.64l3.168 20.375c.077.492-.338.924-.834.924H15Zm0-.6h19.913c.166 0 .26-.113.241-.23L22.03 7.944a.21.21 0 0 0-.15-.164l.096-.284-.097.284-6.788-2.314a.3.3 0 0 0-.18 0L8.12 7.78c-.09.03-.14.096-.15.164L4.8 28.32c-.017.117.076.23.242.23"/>
    <path d="M15.893 13.162v-1.026h.76v1.026h1.687v.694h-1.687v1.158h1.985v.694h-4.961v-.694h2.216v-1.158h-1.555v-.694zm0-3.705V8.4h.76v1.058h1.72v.695h-1.72v1.058h1.985v.728h-4.597v-.728h1.852v-1.058h-1.555v-.695Zm-3.539.53V8.366h.76v1.62h.761v.695h-.76v.76q.496.53.992.993-.132.132-.463.595-.364-.364-.53-.595v3.506h-.76v-3.308q-.463.993-1.025 1.72-.133-.562-.331-.926.43-.562.728-1.091.33-.695.628-1.654h-1.158v-.694Zm1.992 15.763c0-2.398-.323-4.226-.758-5.43-.217-.603-.464-1.05-.7-1.328-.234-.278-.442-.374-.59-.366l-.023-.45c.347-.019.672.187.958.526s.548.827.778 1.464c.46 1.274.785 3.146.785 5.584zm.858 0c0-2.438.325-4.31.785-5.584q.347-.956.778-1.464c.286-.339.611-.545.958-.526l-.023.45c-.148-.008-.356.088-.591.366-.235.279-.482.725-.7 1.327-.434 1.205-.757 3.033-.757 5.431z"/>
</svg>
