<svg xmlns="http://www.w3.org/2000/svg" xmlns:xlink="http://www.w3.org/1999/xlink" width="30mm" height="34mm" viewBox="0 0 30 34">
    <defs>
        <linearGradient id="0FU_svg__a">
            <stop offset="0" stop-color="#ffdba6"/>
            <stop offset="1" stop-color="#f2c478"/>
        </linearGradient>
        <linearGradient xlink:href="#0FU_svg__a" id="0FU_svg__b" x1="289.069" x2="289.07" y1="220.195" y2="143.722" gradientTransform="translate(-2279.056 -212.603)" gradientUnits="userSpaceOnUse"/>
    </defs>
    <path fill="url(#0FU_svg__b)" d="m0 0-16.217 5.989a1.8 1.8 0 0 1-1.241 0L-33.674 0c-.531-.196-.903-.627-.975-1.131l-7.687-53.534c-.122-.848.627-1.598 1.595-1.598H7.066c.969 0 1.717.75 1.596 1.598L.975-1.131C.902-.627.531-.196 0 0" transform="matrix(.35278 0 0 -.35278 20.94 8.152)"/>
    <path fill="#4d3608" d="M6.568 28.3c-.497 0-.93-.41-.86-.906L8.42 8.508a.81.81 0 0 1 .536-.637l5.721-2.113a.93.93 0 0 1 .645 0l5.722 2.113c.279.103.494.34.537.637l2.712 18.886c.07.495-.364.906-.86.906H15Zm0-.6h16.865c.187 0 .28-.117.266-.22L20.987 8.593c-.009-.06-.055-.126-.151-.16L15.115 6.32a.35.35 0 0 0-.23 0l-5.72 2.112c-.097.035-.143.102-.152.16L6.301 27.48c-.014.103.08.221.266.221"/>
    <path d="M14.775 22.5v-3h.45v3zM11.7 16.506q-.099-.43-.296-.76.951-.034 2.1-.331.918-.232 1.607-.728.688-.463 1.344-1.19l.59.462q-.754.761-.983.926-.46.364-1.148.695-.46.264-1.443.562-.788.199-1.772.364m6.756-2.844-.492.595q-.95-.86-1.77-1.356l.425-.562q1.083.694 1.837 1.323m-6.92.926q-.099-.199-.165-.265l-.328-.364q.656-.463.853-.661.361-.298.984-.992l.623.496-.262.264-.262.265q-.656.661-.722.694-.525.43-.722.563m2.853-3.175v-2.58h.722v.992h2.558v.695h-2.558v.893h3.28v.727h-3.28v1.919q0 .264-.23.463-.197.165-1.017.33-.033-.33-.328-.793h.722q.033 0 .098-.067.033-.033.033-.099V12.14h-3.378v-.727h1.279V9.528h.754v1.885z"/>
</svg>
