<svg xmlns="http://www.w3.org/2000/svg" xmlns:xlink="http://www.w3.org/1999/xlink" width="30mm" height="34mm" viewBox="0 0 30 34">
    <defs>
        <linearGradient id="0HI_svg__a">
            <stop offset="0" stop-color="#ffdba6"/>
            <stop offset="1" stop-color="#f2c478"/>
        </linearGradient>
        <linearGradient xlink:href="#0HI_svg__a" id="0HI_svg__b" x1="289.069" x2="289.07" y1="220.195" y2="143.722" gradientTransform="translate(-2279.056 -212.603)" gradientUnits="userSpaceOnUse"/>
    </defs>
    <path fill="url(#0HI_svg__b)" d="m0 0-21.223 7.255a1.62 1.62 0 0 1-1.044 0L-43.49 0c-.512-.175-.879-.593-.956-1.088L-54.328-64.8c-.128-.823.569-1.559 1.477-1.559H9.361c.907 0 1.605.736 1.477 1.559L.955-1.088C.879-.593.512-.175 0 0" transform="matrix(.35278 0 0 -.35278 22.671 6.59)"/>
    <path fill="#4d3608" d="M4.026 30.3c-.482 0-.892-.415-.817-.896L6.694 6.928a.8.8 0 0 1 .537-.622l7.488-2.56a.87.87 0 0 1 .562 0l7.487 2.56c.277.095.491.33.536.622l3.487 22.476c.075.481-.335.896-.818.896H15Zm0-.6h21.947c.158 0 .24-.103.225-.203v-.001L22.712 7.019c-.009-.056-.054-.116-.138-.145l-7.487-2.56a.3.3 0 0 0-.174 0l-7.487 2.56c-.084.028-.13.089-.138.146L3.802 29.496c-.016.1.066.204.224.204"/>
    <path d="M14.775 27.18v-8.36h.45v8.359z"/>
    <path d="m14.315 19.825-.319-.319L15 18.503l1.004 1.003-.319.319L15 19.14zM15 27.498l-1.004-1.004.319-.318.685.685.685-.685.318.318zm-4.18-4.272v-.45h8.36v.45z"/>
    <path d="M11.506 24.004 10.503 23l1.003-1.004.318.318-.685.686.685.685zm6.988 0-.318-.318.685-.686-.685-.685.318-.318L19.497 23zM14.47 11.339V9.057h.728v2.282h1.588q0 .827.033 1.29l.86-.794.529.496-.695.595.86.331-.33.629q-.067-.033-.43-.166-.331-.165-.662-.297.265.628.595.992.265.264.364.264.033 0 .1-.066.099-.165.198-.562.165.132.628.397-.165.595-.364.76-.198.199-.43.199-.363 0-.892-.364-.463-.33-.728-.992-.298-.728-.33-2.018h-.894v3.407h-.727v-3.407h-1.125q-.066 1.026-.165 1.39-.166.529-.33.826-.398.53-.43.596-.067.099-.695.628-.331-.463-.53-.628.563-.43.794-.728.298-.43.43-.827.132-.43.199-1.257h-1.29v-.694h1.29v-1.058q-.199.066-1.125.297-.198-.463-.33-.694.694-.1 1.09-.199.332-.099 1.522-.496l.364.596q-.397.165-.76.297v1.257zm1.654-2.48h-4.597v-.695h5.292q-.033.298.033.992.198-.231.43-.463.231-.264.463-.496l.53.53-.464.396-.397.33q.1.034.33.133.266.066.695.199l-.297.595-1.158-.43q.265.496.662.893.231.231.397.231.033 0 .099-.066l.165-.463q.232.232.662.397-.265.628-.364.728-.166.165-.33.165-.365 0-.927-.364-.595-.364-.827-.893-.297-.529-.397-1.72"/>
</svg>
