<svg xmlns="http://www.w3.org/2000/svg" xmlns:xlink="http://www.w3.org/1999/xlink" width="30mm" height="34mm" viewBox="0 0 30 34">
    <defs>
        <linearGradient id="0GI_svg__a">
            <stop offset="0" stop-color="#ffdba6"/>
            <stop offset="1" stop-color="#f2c478"/>
        </linearGradient>
        <linearGradient xlink:href="#0GI_svg__a" id="0GI_svg__b" x1="289.069" x2="289.07" y1="220.195" y2="143.722" gradientTransform="translate(-2279.056 -212.603)" gradientUnits="userSpaceOnUse"/>
    </defs>
    <path fill="url(#0GI_svg__b)" d="m0 0-20.266 6.952a1.47 1.47 0 0 1-.952 0L-41.484 0a1.59 1.59 0 0 1-1.038-1.274l-9.381-60.689c-.151-.981.569-1.871 1.515-1.871H8.905c.945 0 1.666.89 1.514 1.871L1.038-1.274A1.59 1.59 0 0 1 0 0" transform="matrix(.35278 0 0 -.35278 22.317 6.98)"/>
    <path fill="#4d3608" d="M4.54 29.8c-.521 0-.91-.491-.83-1.006l3.309-21.41a.86.86 0 0 1 .566-.688l7.15-2.452a.82.82 0 0 1 .53 0l7.149 2.452a.86.86 0 0 1 .566.688l3.31 21.41c.08.514-.31 1.005-.831 1.005H15Zm0-.6h20.918c.145 0 .265-.137.238-.314l-3.31-21.41a.26.26 0 0 0-.166-.212L15.07 4.81a.2.2 0 0 0-.14 0L7.78 7.264a.27.27 0 0 0-.168.212l-3.309 21.41c-.027.177.092.313.238.313"/>
    <path d="M14.775 22.5V18h.45v4.5z"/>
    <path d="m18.023 25.842-6.364-6.364.318-.319 6.364 6.364z"/>
    <path d="m11.977 25.841-.318-.318 6.364-6.364.318.319zm-.78-13.081.628-.198q.364.893.397 1.19l-.595.265q-.133-.529-.43-1.256m2.58-.231.628.265-.53 1.124q-.132-.033-.264-.132l-.132-.066q-.066-.033-.166-.033.1-.232.199-.497.132-.264.264-.661m3.77-1.521v-.761h-1.952v.76zm0-1.39v-.76h-1.952v.76zm-2.712 4.995v-6.45h3.44v3.54H17.05q.066.628.066.66.033.133.099.464l1.157-.86.463.661q-.396.232-1.356.86.133.33.331.562.265.331.397.463.132.067.265.166.132.066.43.264-.199.199-.298.265l-.132.132-.1.1q-.033.066-.099.132-.727-.563-.992-.926-.43-.496-.628-1.092-.298-.86-.331-1.852h-.728v2.712q.298-.1.563-.165l.529-.132.033.727-2.282.662-.199-.761zm-2.183-6.846.694.363-.099.166.595.463q.067.033.232.198l.496.397-.53.628-.859-.793q-.1-.1-.198-.166-.067-.066-.133-.099-.562.893-.926 1.257h2.084v.628h-.827v.695h1.025v.628H13.18v2.117q.661-.132.992-.232v.695q-.694.198-1.587.397l-1.257.297-.199-.793 1.356-.199v-2.282h-1.157v-.628h1.157v-.695h-.661v-.496l-.397.43q-.264-.463-.43-.694.926-.927 1.654-2.282"/>
</svg>
