<svg xmlns="http://www.w3.org/2000/svg" viewBox="0 0 20.637 20.637">
    <path fill="#fd5" stroke="#deaa87" stroke-linejoin="round" stroke-miterlimit="10" stroke-width=".353" d="m61.716 73.284-2.7 17.273-5.748 1.638-5.554-1.56-2.895-17.351zm-42.272-.304-2.798 17.83-5.956 1.69-5.756-1.61-2.998-17.91zm21.07.305-2.7 17.272-5.748 1.637-5.556-1.56-2.893-17.35zm.022-23.805-2.7 17.273-5.748 1.638-5.554-1.56-2.895-17.351zm21.435 0-2.7 17.273-5.748 1.638-5.554-1.56-2.894-17.351zM42.643 24.613 40.04 41.327l-5.54 1.586-5.354-1.51-2.789-16.79zM83.34 49.587l-2.604 16.716-5.541 1.583-5.354-1.508-2.789-16.791zM63.438 23.686l-2.486 16.157-5.291 1.532-5.113-1.46-2.664-16.23zM17.487 1.778l-2.292 15.6-4.876 1.48-4.713-1.409L3.15 1.78z"/>
    <path fill="red" d="m11.016 5.235-.215 1.36-.459.13-.44-.123-.231-1.367zm-2.841.745a.596.596 0 1 1-1.191 0 .596.596 0 0 1 1.191 0m5.479 0a.596.596 0 1 1-1.192 0 .596.596 0 0 1 1.192 0M8.175 8.69a.596.596 0 1 1-1.192-.001.596.596 0 0 1 1.192 0zm5.479 0a.596.596 0 1 1-1.192-.001.596.596 0 0 1 1.192 0zm-2.724 0a.596.596 0 1 1-1.192-.001.596.596 0 0 1 1.192 0zm0-5.519a.596.596 0 1 1-1.192 0 .596.596 0 0 1 1.192 0"/>
    <path fill="red" d="m11.291 4.82-.32 2.028-.683.193-.658-.183-.342-2.038zM8.38 14.585q.143-.187.64-.41.489-.212.542-.283-.07-.578-.035-.871-.276-.24-.329-.498.08-.284.444-.72.364-.427.454-.675-.16-.16-.818-.32-.586-.143-.8-.498.009-.142.267-.231.257-.098 1.35-.302 1.094-.213 1.307-.214.382 0 .48.382-.045.213-.284.49-.276.302-.338.47.089.072.55.09.419.008.419.39 0 .25-.276.56-.284.32-.827.622-.461.25-.924.49-.053.257-.053.47 0 .09.009.151.24-.07 1.137-.524.685-.346 1.182-.338h.063q.16.08.16.231 0 .285-.791.916v-.151l.062-.196q-.347.09-.951.427-.569.32-.871.577-.045.116-.045.222 0 .098.045.178.658-.426 1.209-.56l-1.156 1.138q.356.053.64.32.285.275.284.622 0 .151-.16.542l-.23.552q-.213-.063-.49-.232-.337-.204-.337-.364 0-.063.178-.276.177-.213.177-.346 0-.045-.008-.08-.08-.018-.187-.018t-.329.018-.338.018q-.675 0-.649-.418v-.062q.152-.107.596-.338.382-.196.569-.365-.231-.124-.685-.222a15 15 0 0 0-.488-.044q-.24-.045-.365-.32m1.991-2.124v.018q.898-.25 1.298-.694.142-.16.142-.267 0-.062-.071-.088a.6.6 0 0 0-.134-.018q-.444 0-.844.311-.409.32-.39.738m-.143-1.867q0 .125.071.258.293-.32.48-.489a.2.2 0 0 0-.062-.009q-.17 0-.48.16-.009.036-.009.08"/>
</svg>
