<svg xmlns="http://www.w3.org/2000/svg" viewBox="0 0 20.637 20.637">
    <path fill="#fd5" stroke="#deaa87" stroke-linejoin="round" stroke-miterlimit="10" stroke-width=".353" d="m61.716 73.284-2.7 17.273-5.748 1.638-5.554-1.56-2.895-17.351zm-42.272-.304-2.798 17.83-5.956 1.69-5.756-1.61-2.998-17.91zm21.07.305-2.7 17.272-5.748 1.637-5.556-1.56-2.893-17.35zm.022-23.805-2.7 17.273-5.748 1.638-5.554-1.56-2.895-17.351zm21.435 0-2.7 17.273-5.748 1.638-5.554-1.56-2.894-17.351zM42.643 24.613 40.04 41.327l-5.54 1.586-5.354-1.51-2.789-16.79zM83.34 49.587l-2.604 16.716-5.541 1.583-5.354-1.508-2.789-16.791zM18.096 1.474 15.61 17.63l-5.291 1.532-5.113-1.459-2.664-16.23z"/>
    <path fill="red" d="M11.016 4.93 10.8 6.292l-.459.13-.44-.124-.231-1.366zm-2.841.745a.596.596 0 1 1-1.191 0 .596.596 0 0 1 1.191 0m5.479 0a.596.596 0 1 1-1.192 0 .596.596 0 0 1 1.192 0m-5.479 2.71a.596.596 0 1 1-1.192 0 .596.596 0 0 1 1.192 0m5.479 0a.596.596 0 1 1-1.192 0 .596.596 0 0 1 1.192 0m-2.724 0a.596.596 0 1 1-1.192 0 .596.596 0 0 1 1.192 0m0-5.518a.596.596 0 1 1-1.192 0 .596.596 0 0 1 1.192 0"/>
    <path fill="red" d="m11.321 4.516-.32 2.028-.682.192-.659-.183-.344-2.037zM6.935 14.804q0-.08.053-.16.178-.116.409-.178.222-.062.435-.115.151-.063.445-.178.346-.134.968-.294l.151.018-.55.516q-.347.338-.383.613.116.115.738.115 1.146 0 2.035-.47.782-.41 1.609-1.343l.409-.48q.249-.284.444-.426.258.178.258.693 0 .267-.391.791-.036.053-.88 1.013-.676.765-.853.978-.507.622-.738 1.057.133.267.284.347-.124.062-.24.125-.168.08-.24.08-.426 0-.604-.267 0-.418.356-.88.115-.16.71-.791.445-.47.57-.773-.854.542-1.512.746-.702.223-1.661.223-.33 0-.57-.036-.293-.044-.755-.347-.497-.328-.497-.577m1.573-4.737q0-.32.382-.32.053 0 .124.008.622.116 1.138.116.756 0 1.76-.453.355.107.373.64l-.658.524q.027.027.56.302.436.222.436.4 0 .24-.338.543-.276.248-.56.382-.675.32-.738.355-.364.249-.364.676 0 .088.018.177.284-.142.684-.142.222 0 .436.053l.133.107q-.284.107-.587.444-.373.41-.515.507-.09.062-.267.062-.648 0-.986-.222v-.07q-.01-.179.097-.321.098-.133.205-.267.124-.23.142-.72-.035-.053-.329-.124-.302-.062-.409-.187-.008-.044-.008-.088 0-.285.648-.96.756-.783.854-.978-.507.151-1.174.151-1.057 0-1.057-.595m2.24 2.097q1.03-.187 1.315-.79-.054-.17-.649-.205-.409.15-.667.995"/>
</svg>
