<svg xmlns="http://www.w3.org/2000/svg" viewBox="0 0 20.637 20.637">
    <path fill="#fd5" stroke="#deaa87" stroke-linejoin="round" stroke-miterlimit="10" stroke-width=".353" d="m61.716 73.284-2.7 17.273-5.748 1.638-5.554-1.56-2.895-17.351zm-42.272-.304-2.798 17.83-5.956 1.69-5.756-1.61-2.998-17.91zm21.07.305-2.7 17.272-5.748 1.637-5.556-1.56-2.893-17.35zm.022-23.805-2.7 17.273-5.748 1.638-5.554-1.56-2.895-17.351zm21.435 0-2.7 17.273-5.748 1.638-5.554-1.56-2.894-17.351zM42.643 24.613 40.04 41.327l-5.54 1.586-5.354-1.51-2.789-16.79zM83.34 49.587l-2.604 16.716-5.541 1.583-5.354-1.508-2.789-16.791zM63.438 23.686l-2.486 16.157-5.291 1.532-5.113-1.46-2.664-16.23zm20.869.681-2.292 15.6-4.876 1.48-4.713-1.41-2.455-15.67zM17.181 2.084l-2.193 15.042-4.67 1.427-4.512-1.358-2.35-15.111z"/>
    <path fill="red" d="m11.016 5.541-.215 1.36-.459.13-.44-.124-.231-1.366zm-2.841.745a.596.596 0 1 1-1.191 0 .596.596 0 0 1 1.191 0m5.479 0a.596.596 0 1 1-1.192 0 .596.596 0 0 1 1.192 0M8.175 8.995a.596.596 0 1 1-1.192 0 .596.596 0 0 1 1.192 0m5.479 0a.596.596 0 1 1-1.192 0 .596.596 0 0 1 1.192 0m-2.724 0a.596.596 0 1 1-1.192 0 .596.596 0 0 1 1.192 0m0-5.518a.596.596 0 1 1-1.192 0 .596.596 0 0 1 1.192 0"/>
    <path fill="red" d="m11.293 5.126-.32 2.028-.682.192-.661-.183-.342-2.037zm.987 10.769q-.171 0-.466-.124-.38-.17-.59-.542-.108-.202-.271-.737-.155-.505-.318-.745-.217 0-.791.597-.55.574-.613.8l.117.247q-.032 0-.14.023-.093.008-.147.008-.218 0-.536-.364-.318-.365-.31-.59v-.054q.21-.108.59-.357.387-.349 1.17-.977.133-.077.373-.225.093-.054.233-.225.124-.14.263-.201.784-.776.784-1.18 0-.442-.946-.442-.45 0-1.102.171-1.031.287-1.078.295-.225-.085-.442-.163-.24-.1-.326-.303 0-.186.155-.286.148-.101.636-.256.45-.163.66-.202.395-.078.993-.078.76 0 1.31.264.73.334.73 1 0 .505-.389 1.071l-.682.946q.202.372.364.698.217.528.442 1.047.31.667.683.8-.023.084-.357.084"/>
</svg>
