<svg xmlns="http://www.w3.org/2000/svg" viewBox="0 0 20.637 20.637">
    <path fill="#fd5" stroke="#deaa87" stroke-linejoin="round" stroke-miterlimit="10" stroke-width=".353" d="m65.597 27.07-2.701 17.274-5.748 1.638-5.554-1.56L48.7 27.07zM19.072.559l-2.798 17.83-5.955 1.69-5.756-1.61L1.565.559zm25.323 26.513-2.701 17.271-5.748 1.638-5.556-1.56-2.892-17.35zm.022-23.805L41.716 20.54l-5.748 1.638-5.554-1.56L27.52 3.267zm21.435 0-2.7 17.273-5.748 1.638-5.555-1.56-2.894-17.351z"/>
    <path d="M8.176 5.517a.596.596 0 1 1-1.192 0 .596.596 0 0 1 1.192 0m5.477 0a.596.596 0 1 1-1.191 0 .596.596 0 0 1 1.191 0M8.176 8.226a.596.596 0 1 1-1.192 0 .596.596 0 0 1 1.192 0m5.477 0a.596.596 0 1 1-1.191 0 .596.596 0 0 1 1.191 0m-2.723 0a.596.596 0 1 1-1.192 0 .596.596 0 0 1 1.192 0M8.176 2.709a.594.594 0 0 1-.596.593.594.594 0 1 1 0-1.19c.329 0 .596.267.596.597m5.477 0a.593.593 0 0 1-.595.593.594.594 0 1 1 0-1.19c.329 0 .595.267.595.597m-2.723 0a.594.594 0 1 1-1.188-.001.594.594 0 0 1 1.188 0zm.445 1.648-.32 2.027-.682.194-.661-.183-.342-2.038zM8.906 19.093l-1.233-.2q-.022-.056-.211-.212-.19-.144-.222-.333.155-.278.61-.389.156-.033.756-.077.178-.012.778-.145.589-.122.756-.178.31-.1.533-.256-.333-.155-.656-.3-.355-.177-.444-.555l.044-.211q.223-.011.29-.2.033-.09.033-.378.01-.044.022-.145.011-.088.011-.133l-.034-.267q-.1 0-.433.034-.266.022-.433.022-.734 0-1.111-.533v-.323l.244-.155.467.1q.133.033.633-.1.49-.134.634-.256l.066-.267-.066-.266.2-1.978q-2.29.089-2.367.089-.356 0-.844-.145-.5-.144-.712-.322l-.311-.322q-.233-.267-.233-.4 0-.122.166-.256.167-.144.267-.11 1.145.4 1.334.455.8.233 1.4.233 1.166 0 2.81-.355.145-.023.401-.167.244-.145.378-.178.378-.089.444-.122.223-.1.278-.322l.411-.156q.278.056.556.378.266.322.433.378l.145.333-.078.055q-.045-.01-.156-.044-.122-.033-.178-.033-.033 0-.889.266-.944.29-1.244.367-.722.189-1.278.234.222.444.222 1.388v.145q0 .578.056.889l.522-.045q.511.123 1.423.512l-.245-.023q-.222 0-1.8.523-.067 2.055-.067 1.889 0 .4.367.544.145-.033.555-.044.345 0 .478-.056.59.256 1.4.933l-.5-.055q-.41 0-2.278.522-1.11.311-2.1.723"/>
</svg>
