<svg xmlns="http://www.w3.org/2000/svg" viewBox="0 0 20.637 20.637">
    <path fill="#fd5" stroke="#deaa87" stroke-linejoin="round" stroke-miterlimit="10" stroke-width=".353" d="m65.597 27.07-2.701 17.274-5.748 1.638-5.554-1.56L48.7 27.07zm-21.202.002-2.701 17.271-5.748 1.638-5.556-1.56-2.892-17.35zM18.767.863l-2.7 17.273-5.748 1.638-5.555-1.56L1.87.864zm47.085 2.404-2.7 17.273-5.748 1.638-5.555-1.56-2.894-17.351z"/>
    <path d="m11.065 5.662-.221 1.407-.474.134-.458-.127-.237-1.414z"/>
    <path d="m10.372 7.29.022-.002.473-.134a.09.09 0 0 0 .064-.07l.221-1.408a.088.088 0 0 0-.087-.102h-1.39a.088.088 0 0 0-.087.103l.237 1.413a.09.09 0 0 0 .063.07l.459.128.025.003zm-.002-.179-.38-.105-.21-1.256h1.182L10.765 7zm.463 3.236v-2.48h-.926v2.48zm-.03-5.449.022-2.477-.926-.008-.022 2.477zM8.879 6.882v-.925H6.4v.925zm5.356.014.005-.927-2.48-.012-.004.925z" overflow="visible"/>
    <path d="M7.346 17.61q0-.418.762-.418.218 0 .409.181l.327.309-.01.054q-.59.182-.97.182-.518 0-.518-.309m.227-1.044q0-.045.009-.09.181-.128.445-.128.562 0 .844.409v.09q-.5.083-.799.083-.5 0-.5-.364zM6.02 11.291q0-.245.164-.382.163-.145.417-.145.227 0 .7.173.417.154.671.3.726.426 1.117 1.261.345.763.345 1.68 0 .208-.018.408.254-.09.58-.236v-.635q-.008-1.135.046-1.644.118-1.153.545-1.425.254.899.254 2.66 0 .554.018.735.4-.172.763-.372.1-1.153.753-1.915.708-.817 1.825-.872l.082.046q-.545.335-1.108 1.034-.626.781-.672 1.335.817-.336.917-.608.027-.01.046-.01.172 0 .281.364.09.272.09.5 0 .08-.072.335l-.063.064-.246-.21q-.517.228-1.016.428v.081q-.018.382.335.7.418-.273.872-.291-.935.862-1.389 1.661l.29.182-.008.081-.627.164q-.635-.064-.799-.463.127-.227.554-.554.318-.254.645-.5-.572-.108-.681-.762-.381.182-.826.327l-.01.508q-.009 1.09.091 1.344.046.09.146.218.145.172.163.209l.01.127-.546.145q-.563-.082-.898-.572.072-.136.172-.418.09-.281.073-1.016v-.191l-.618.218q-.1.054-.208.109-.118.054-.227.045.59.436.59 1.634l-.028.754q.2-.055 1.299-.481 1.053-.409 1.071-.409.272 0 .735.835l-.09.073q-.218-.054-.409-.054-.109 0-2.869.99-.254-.019-.753-.219-.055-.19-.055-.281 0-.164.145-.246.21-.108.273-.19.145-.2.145-.644 0-.636-.309-1.054-.336-.454-.953-.48-.327.108-.345 1.098-.118-.127-.236-.4-.163-.4-.19-.426-.128-.173-.364-.518-.081-.136-.081-.272 0-.055.018-.118.272-.173.717-.173.572 0 1.153.218.054-.163.054-.327.236-.081.236-.508 0-.245-.045-.49l-.517.535.19.155.037.063h-.037q-.29-.009-.672.164-.435-.1-.435-.473 0-.1.072-.154.018-.018.373-.1.344-.081.753-.354-.581-.045-.808-.127-.481-.163-.481-.563 0-.236.245-.318.227.019.59.264.272.209.545.408-.418-.917-1.489-1.298-.282.345-.4 1.888-.208-.326-.29-.853l-.145-.89q-.173-.771-.173-.88"/>
</svg>
