<svg xmlns="http://www.w3.org/2000/svg" viewBox="0 0 20.637 20.637">
    <path fill="#fd5" stroke="#deaa87" stroke-linejoin="round" stroke-miterlimit="10" stroke-width=".353" d="m61.716 73.284-2.7 17.273-5.748 1.638-5.554-1.56-2.895-17.351zm-42.272-.304-2.798 17.83-5.956 1.69-5.756-1.61-2.998-17.91zm21.07.305-2.7 17.272-5.748 1.637-5.556-1.56-2.893-17.35zm.022-23.805-2.7 17.273-5.748 1.638-5.554-1.56-2.895-17.351zm21.435 0-2.7 17.273-5.748 1.638-5.554-1.56-2.894-17.351zM42.643 24.613 40.04 41.327l-5.54 1.586-5.354-1.51-2.789-16.79zM18.462 1.169 15.86 17.885l-5.542 1.583-5.353-1.508-2.79-16.791zM83.34 49.587l-2.604 16.716-5.541 1.583-5.354-1.508-2.789-16.791zM84.307.624l-2.29 15.6-4.878 1.48-4.713-1.41L69.973.624zM63.438 23.686l-2.486 16.157-5.291 1.532-5.113-1.46-2.664-16.23zm20.869.681-2.292 15.6-4.876 1.48-4.713-1.41-2.455-15.67zM105.49 1.589l-2.195 15.044-4.667 1.427-4.513-1.358-2.35-15.113zm.048 23.303-2.193 15.042-4.67 1.427-4.512-1.358-2.35-15.111zM63.653.322l-2.488 16.16-5.291 1.53-5.113-1.46L48.097.322z"/>
    <path d="M8.176 8.836a.596.596 0 1 1-1.192 0 .596.596 0 0 1 1.192 0m5.477 0a.596.596 0 1 1-1.192 0 .596.596 0 0 1 1.192 0m-2.723 0a.596.596 0 1 1-1.191 0 .596.596 0 0 1 1.192 0zM8.176 3.319a.595.595 0 0 1-.596.594.594.594 0 1 1 0-1.19c.33 0 .596.266.596.596m5.477 0a.595.595 0 0 1-.596.594.594.594 0 1 1 0-1.19c.33 0 .596.266.596.596M11.32 5.094l-.318 2.03-.685.19-.658-.182-.342-2.038zm.774 12.586q-.09.027-.32-.071-.196-.071-.312-.151.01-.027.01-.036-.01-.026-.063-.142-.053-.106-.053-.169l.009-.053q.453-.187.649-.809-.782-.018-1.2-.338l-.08-.373.044-.15h.054q.337-.01.71.221.32.205.632.41.364-.339.728-1.192h-.044q-.249-.009-.658.231-.409.249-.63.249-.054 0-.108-.009l-.177-.195v-.16q.23-.054.524-.205.24-.133.489-.275l-.409-.231-.08-.187q-.266.08-.64.08-.053 0-.124-.018-.054-.08-.098-.16-.07-.106-.07-.169 0-.026.008-.07.16-.072.524-.116t.525-.134V12.25q-.4.373-.49.649l.08.195-.834-.044-.116-.462.915-.4q.063.026.125.026.186 0 .338-.186v-.454q-.427.213-.81.213-.053 0-.124-.008-.089-.054-.204-.25.204-.204.613-.363l.658-.258q.23-.125.693-.347.196-.053.578-.204.257-.125.337-.356l.223.098q.142.204.142.498 0 .133-.027.266l-.195-.044q-.311.062-.756.266-.542.24-.738.303l.063.613q0 .16-.027.489-.036.328-.036.488l.071.294q.765-.187.97-.418.186.071.55.338-.31.062-.773.284-.56.276-.755.338-.018.044-.018.089 0 .106.169.284.16.178.16.214 0 .026-.027.062l.382.178.48-.516q.089-.151.302-.427.178-.195.4-.275.054-.134.222-.249.16-.116.303-.107h.009q-1.796 2.24-2.445 4.204l.303.276-.018.053h-.018q-.027 0-.08-.027-.053-.017-.071-.017zm-4.737-.569q-.09-.204-.09-.39 0-.054.01-.116l.195-.125q.036-.302.062-.595.053-.338.125-.569.08-.169.195-.596-.267-.088-.782-.31l-.098-.178q.134-.213.56-.294.125-.08.347-.24.089-.07.222-.257.124-.187.222-.267-.302-.693-1.04-1.289-.47-.373-1.395-.897l-.053-.205q.106-.106.293-.16.249-.062.311-.089l.187.036.302-.107.4.036q.622.506 1.03 1.182.303-.16.863-.747.169-.142.48-.444.186-.196.186-.507l.25-.089.346.347.036.382-.24 1.884q.008.09.017.276-.026.356-.124 2.604 0 .036.009.116t.009.115q0 .4.133.649.044.098.24.311.133.142.133.302l-.4-.142q-.364.08-1.093.249-.204.053-.427.133-.133.062-.417.187-.08.035-.258.035-.195 0-.746-.23m2.568-.712q-.098-.07-.133-.266-.045-.196-.107-.267-.267.053-.729.213-.489.17-.72.223l.018.48q1.102-.08 1.67-.383m-1.154-.729q.106 0 .32-.026.204-.018.32-.018.186 0 .337-.124l.098-.622q0-.072-.027-.196-.035-.027-.07-.044-.659.222-1.423.613l-.008.417zm.426-1.181v-.143l-.569-.808-.284.31q-.213.223-.187.356l.054.285h-.196l-.124.168.266.08zm.65-.187q.079-.818.194-1.316l-.035-.16.035-.577-.106-.09q-.445.268-.89.81.143.257.259.693.107.364.204.729zm3.012-2.444.169-.605q.107.027.258.134v.053q-.01.07.062.213-.063.693-.063.614 0 .177.187.382-.31-.063-.417-.196-.08-.089-.107-.276-.027-.222-.089-.32m-4.026.676q.16-.08.453-.267.311-.213.462-.284.134.062.17.062.044 0 .062-.009.07-.07.07-.488l-.044-.418q-.649.266-1.511.835.071.151.142.311.107.205.196.258"/>
</svg>
