<svg xmlns="http://www.w3.org/2000/svg" viewBox="0 0 20.637 20.637">
    <path fill="#fd5" stroke="#deaa87" stroke-linejoin="round" stroke-miterlimit="10" stroke-width=".353" d="m61.716 73.284-2.7 17.273-5.748 1.638-5.554-1.56-2.895-17.351zM3.15 18.859l2.292-15.6 4.877-1.48 4.712 1.409 2.456 15.67zm84.248-5.474L89.593-1.66l4.667-1.427 4.513 1.358 2.35 15.113zm0 23.575 2.193-15.043 4.67-1.427 4.512 1.358 2.35 15.111zM19.444 72.98l-2.798 17.83-5.956 1.69-5.756-1.61-2.998-17.91zm21.07.305-2.7 17.272-5.748 1.637-5.556-1.56-2.893-17.35zm.022-23.805-2.7 17.273-5.748 1.638-5.554-1.56-2.895-17.351zm21.435 0-2.7 17.273-5.748 1.638-5.554-1.56-2.894-17.351zm43.033 25.022-2.601 16.714-5.541 1.586-5.354-1.51-2.79-16.79zm.003-25.007-2.604 16.716-5.541 1.584-5.354-1.509-2.79-16.79zm-21.667.092-2.604 16.716-5.541 1.583-5.354-1.508-2.789-16.791zm63.328.927-2.29 15.599-4.878 1.48-4.712-1.41-2.453-15.67zM125.8 73.575l-2.486 16.157-5.292 1.532-5.113-1.459-2.664-16.23zm20.868.681-2.291 15.6-4.877 1.48-4.712-1.409-2.456-15.67zm21.184-22.778-2.195 15.044-4.668 1.427-4.512-1.358-2.35-15.113zm.048 23.303-2.193 15.043-4.67 1.426-4.512-1.358-2.35-15.11zm-41.885-24.569-2.488 16.159-5.291 1.53-5.113-1.46-2.664-16.23z"/>
    <path fill="red" d="m9.621 15.402.216-1.36.458-.13.441.123.23 1.367zm2.841-.745a.596.596 0 1 1 1.191 0 .596.596 0 0 1-1.191 0m-5.479 0a.596.596 0 1 1 1.192 0 .596.596 0 0 1-1.192 0m5.479-2.71a.596.596 0 1 1 1.192.001.596.596 0 0 1-1.192 0zm-5.479 0a.596.596 0 1 1 1.192.001.596.596 0 0 1-1.192 0zm2.724 0a.596.596 0 1 1 1.192.001.596.596 0 0 1-1.192 0zm0 5.519a.596.596 0 1 1 1.192 0 .596.596 0 0 1-1.192 0"/>
    <path fill="red" d="m9.346 15.817.32-2.028.683-.193.658.183.342 2.038zm2.911-9.765q-.143.187-.64.41-.489.212-.542.283.07.578.035.871.276.24.329.498-.08.284-.444.72-.364.427-.454.675.16.16.818.32.586.143.8.498-.009.142-.267.231-.257.098-1.35.302-1.094.213-1.307.214-.382 0-.48-.382.045-.213.284-.49.276-.302.338-.47-.089-.072-.55-.09-.419-.008-.419-.39 0-.25.276-.56.284-.32.827-.622.461-.25.924-.49.053-.257.053-.47 0-.09-.009-.151-.24.07-1.137.524-.685.346-1.182.338h-.063q-.16-.08-.16-.231 0-.285.791-.916v.151l-.062.196q.347-.09.951-.427.569-.32.871-.577.045-.116.045-.222 0-.098-.045-.178-.658.426-1.209.56l1.156-1.138q-.356-.053-.64-.32-.285-.275-.284-.622 0-.151.16-.542l.23-.552q.213.063.49.232.337.204.337.364 0 .063-.178.276-.177.213-.177.346 0 .045.008.08.08.018.187.018t.329-.018.338-.018q.675 0 .649.418v.062q-.152.107-.596.338-.382.196-.569.365.231.124.685.222a15 15 0 0 0 .488.044q.24.045.365.32m-1.991 2.124v-.018q-.898.25-1.298.694-.142.16-.142.267 0 .062.071.088a.6.6 0 0 0 .134.018q.444 0 .844-.311.409-.32.39-.738m.143 1.867q0-.125-.071-.258-.293.32-.48.489a.2.2 0 0 0 .062.009q.17 0 .48-.16.009-.036.009-.08"/>
</svg>
