<svg xmlns="http://www.w3.org/2000/svg" viewBox="0 0 20.637 20.637">
    <path fill="#fd5" stroke="#deaa87" stroke-linejoin="round" stroke-miterlimit="10" stroke-width=".353" d="m61.716 73.284-2.7 17.273-5.748 1.638-5.554-1.56-2.895-17.351zM3.456 18.553 5.65 3.511l4.67-1.427 4.512 1.358 2.35 15.111zM19.444 72.98l-2.798 17.83-5.956 1.69-5.756-1.61-2.998-17.91zm21.07.305-2.7 17.272-5.748 1.637-5.556-1.56-2.893-17.35zm.022-23.805-2.7 17.273-5.748 1.638-5.554-1.56-2.895-17.351zm21.435 0-2.7 17.273-5.748 1.638-5.554-1.56-2.894-17.351zm43.033 25.022-2.601 16.714-5.541 1.586-5.354-1.51-2.79-16.79zm.003-25.007-2.604 16.716-5.541 1.584-5.354-1.509-2.79-16.79zm-21.667.092-2.604 16.716-5.541 1.583-5.354-1.508-2.789-16.791zm63.328.927-2.29 15.599-4.878 1.48-4.712-1.41-2.453-15.67zM125.8 73.575l-2.486 16.157-5.292 1.532-5.113-1.459-2.664-16.23zm20.868.681-2.291 15.6-4.877 1.48-4.712-1.409-2.456-15.67zm21.184-22.778-2.195 15.044-4.668 1.427-4.512-1.358-2.35-15.113zm.048 23.303-2.193 15.043-4.67 1.426-4.512-1.358-2.35-15.11zm-41.885-24.569-2.488 16.159-5.291 1.53-5.113-1.46-2.664-16.23z"/>
    <path fill="red" d="m9.621 15.096.216-1.36.458-.129.441.123.23 1.366zm2.841-.744a.596.596 0 1 1 1.191 0 .596.596 0 0 1-1.191 0m-5.479 0a.596.596 0 1 1 1.192 0 .596.596 0 0 1-1.192 0m5.479-2.71a.596.596 0 1 1 1.192 0 .596.596 0 0 1-1.192 0m-5.479 0a.596.596 0 1 1 1.192 0 .596.596 0 0 1-1.192 0m2.724 0a.596.596 0 1 1 1.192 0 .596.596 0 0 1-1.192 0m0 5.518a.596.596 0 1 1 1.192 0 .596.596 0 0 1-1.192 0"/>
    <path fill="red" d="m9.344 15.511.32-2.028.683-.192.66.183.342 2.037zM8.358 4.742q.17 0 .465.124.38.17.59.542.108.202.271.737.155.505.318.745.217 0 .791-.597.55-.574.613-.8l-.117-.247q.032 0 .14-.023.093-.008.147-.008.218 0 .536.364.318.365.31.59v.054q-.21.108-.59.357-.387.349-1.17.977-.133.077-.373.225-.093.054-.233.225-.124.14-.263.201-.784.776-.784 1.18 0 .442.946.442.45 0 1.102-.171 1.031-.287 1.078-.295.225.085.442.163.24.1.326.303 0 .186-.155.286-.148.101-.636.256-.45.163-.66.202-.395.078-.993.078-.76 0-1.31-.264-.73-.334-.73-1 0-.505.389-1.071l.682-.946q-.202-.372-.364-.698-.217-.528-.442-1.047-.31-.667-.683-.8.023-.084.357-.084"/>
</svg>
