<svg xmlns="http://www.w3.org/2000/svg" viewBox="0 0 20.637 20.637">
    <path fill="#fd5" stroke="#deaa87" stroke-linejoin="round" stroke-miterlimit="10" stroke-width=".353" d="m44.982 43.71 2.7-17.274 5.748-1.638 5.555 1.56 2.894 17.351zm16.734 29.574-2.7 17.273-5.748 1.638-5.554-1.56-2.895-17.351zM1.938 44.014l2.797-17.83 5.957-1.69 5.754 1.611 2.998 17.909zm-.373-23.935L4.363 2.248l5.955-1.69 5.757 1.61 2.997 17.91zm22.069 23.629 2.701-17.271 5.748-1.638 5.556 1.56 2.892 17.35zm-.006-23.97L26.33 2.464 32.077.827l5.554 1.56 2.894 17.35zm21.425.152 2.7-17.274L53.501.978l5.554 1.56 2.894 17.351zm43.755 23.162 2.602-16.714 5.541-1.586 5.354 1.51 2.789 16.79zm.034-23.646L91.446 2.69l5.54-1.584 5.355 1.509 2.789 16.791zm-21.85-.142 2.604-16.716L75.137.965l5.354 1.508 2.789 16.791zm43.644-.191 2.488-16.158 5.292-1.53 5.113 1.459 2.664 16.23zm21.699-.217 2.29-15.6 4.878-1.48 4.712 1.41 2.453 15.67zm-21.908 24.121 2.486-16.157 5.291-1.532 5.113 1.459 2.664 16.23zm21.905-.309 2.292-15.6 4.876-1.48 4.713 1.409 2.455 15.67zm22.042-23.671 2.195-15.044 4.668-1.426 4.512 1.358 2.35 15.112zm0 23.575 2.193-15.043 4.67-1.427 4.512 1.358 2.35 15.112zm-134.93 6.595-2.798 17.83-5.957 1.691-5.754-1.612-2.997-17.909zm0 23.813-2.798 17.83-5.956 1.69-5.756-1.61-2.998-17.91zm21.07.305-2.7 17.272-5.748 1.637-5.556-1.56-2.893-17.35zm.022-23.805-2.7 17.273-5.748 1.638-5.554-1.56-2.895-17.351zm21.435 0-2.7 17.273-5.748 1.638-5.554-1.56-2.894-17.351zm43.033 25.022-2.601 16.714-5.541 1.586-5.354-1.51-2.79-16.79zm.003-25.007-2.604 16.716-5.541 1.584-5.354-1.509-2.79-16.79zm-21.667.092-2.604 16.716-5.541 1.583-5.354-1.508-2.789-16.791zm63.328.927-2.29 15.599-4.878 1.48-4.712-1.41-2.453-15.67zM125.8 73.575l-2.486 16.157-5.292 1.532-5.113-1.459-2.664-16.23zm20.868.681-2.291 15.6-4.877 1.48-4.712-1.409-2.456-15.67zm21.184-22.778-2.195 15.044-4.668 1.427-4.512-1.358-2.35-15.113zm.048 23.303-2.193 15.043-4.67 1.426-4.512-1.358-2.35-15.11zm-41.885-24.569-2.488 16.159-5.291 1.53-5.113-1.46-2.664-16.23z"/>
    <path d="m9.292 16.76.32-2.027.683-.194.658.183.344 2.038zm3.17-1.11a.596.596 0 1 1 1.192 0 .596.596 0 0 1-1.192 0m-5.478 0a.596.596 0 1 1 1.191-.001.596.596 0 0 1-1.191 0zm5.478-2.71a.596.596 0 1 1 1.192 0 .596.596 0 0 1-1.192 0m-5.478 0a.596.596 0 1 1 1.191 0 .596.596 0 0 1-1.191 0m2.723 0a.596.596 0 1 1 1.192 0 .596.596 0 0 1-1.192 0m2.755 5.518c0-.33.266-.594.596-.594a.594.594 0 1 1 0 1.19.596.596 0 0 1-.596-.596m-5.478 0c0-.33.266-.594.595-.594a.594.594 0 1 1 0 1.19.596.596 0 0 1-.595-.596m2.723 0a.594.594 0 1 1 1.188 0 .594.594 0 0 1-1.188 0"/>
    <path d="m9.262 16.81.32-2.028.682-.193.661.182.342 2.038zM11.73 2.073l1.234.2q.022.056.211.212.19.144.222.333-.155.278-.61.389-.156.033-.756.077-.178.012-.778.145-.589.122-.756.178-.31.1-.533.256.333.155.656.3.355.177.444.555l-.044.211q-.223.011-.29.2-.033.09-.033.378-.01.044-.022.145-.011.088-.011.133l.034.267q.1 0 .433-.034.266-.022.433-.022.734 0 1.111.533v.323l-.244.155-.467-.1q-.133-.033-.633.1-.49.134-.634.256l-.066.267.066.266-.2 1.978q2.29-.089 2.367-.089.356 0 .844.145.5.144.712.322l.311.322q.233.267.233.4 0 .122-.166.256-.167.144-.267.11-1.145-.4-1.334-.455-.8-.233-1.4-.233-1.166 0-2.81.355-.145.023-.401.167-.244.145-.378.178-.378.089-.444.122-.223.1-.278.322l-.411.156q-.278-.056-.556-.378-.266-.322-.433-.378l-.145-.333.078-.055q.045.01.156.044.122.033.178.033.033 0 .889-.266.944-.29 1.244-.367.722-.189 1.278-.234-.222-.444-.222-1.388v-.145q0-.578-.056-.889l-.522.045q-.511-.123-1.423-.512l.245.023q.222 0 1.8-.523.067-2.055.067-1.889 0-.4-.367-.544-.145.033-.555.044-.345 0-.478.056-.59-.256-1.4-.933l.5.055q.41 0 2.278-.522 1.11-.311 2.1-.723"/>
</svg>
