<svg xmlns="http://www.w3.org/2000/svg" viewBox="0 0 20.637 20.637">
    <path fill="#fd5" stroke="#deaa87" stroke-linejoin="round" stroke-miterlimit="10" stroke-width=".353" d="m61.716 73.284-2.7 17.273-5.748 1.638-5.554-1.56-2.895-17.351zM3.152 18.858 5.442 3.26l4.878-1.48 4.712 1.41 2.453 15.67zm62.204 18.197 2.292-15.6 4.876-1.48 4.713 1.41 2.455 15.67zm22.042-23.67L89.593-1.66l4.667-1.427 4.513 1.358 2.35 15.113zm0 23.575 2.193-15.043 4.67-1.427 4.512 1.358 2.35 15.111zM19.444 72.98l-2.798 17.83-5.956 1.69-5.756-1.61-2.998-17.91zm21.07.305-2.7 17.272-5.748 1.637-5.556-1.56-2.893-17.35zm.022-23.805-2.7 17.273-5.748 1.638-5.554-1.56-2.895-17.351zm21.435 0-2.7 17.273-5.748 1.638-5.554-1.56-2.894-17.351zm43.033 25.022-2.601 16.714-5.541 1.586-5.354-1.51-2.79-16.79zm.003-25.007-2.604 16.716-5.541 1.584-5.354-1.509-2.79-16.79zm-21.667.092-2.604 16.716-5.541 1.583-5.354-1.508-2.789-16.791zm63.328.927-2.29 15.599-4.878 1.48-4.712-1.41-2.453-15.67zM125.8 73.575l-2.486 16.157-5.292 1.532-5.113-1.459-2.664-16.23zm20.868.681-2.291 15.6-4.877 1.48-4.712-1.409-2.456-15.67zm21.184-22.778-2.195 15.044-4.668 1.427-4.512-1.358-2.35-15.113zm.048 23.303-2.193 15.043-4.67 1.426-4.512-1.358-2.35-15.11zm-41.885-24.569-2.488 16.159-5.291 1.53-5.113-1.46-2.664-16.23z"/>
    <path d="m9.4 18.023.274-1.732.581-.164.564.155.293 1.741z"/>
    <path d="M9.792 12.258v3.05h.926v-3.05z" overflow="visible"/>
    <path d="m9.317 18.29.32-2.027.683-.194.658.183.342 2.038zm1.126-14.923.32.063.17-.063q.204.036.355.187t.151.356q0 .284-.213.364-.178.036-.516.116-.169.053-.533.24-.427.213-.48.32l.453.169q.063.15.293.408.845-.266 1.822-.266.312 0 .525.204.222.205.222.516l-.027.124-.382.107-.533-.107q-.347-.062-.551-.062-.231 0-.41.062.97 1.04 2.054 1.538.374.177.756.346.426.196.71.418l.107.204q-.142.142-.284.205l-.196-.045-.364.08-.489-.044-.178.08q-.613-.071-1.102-.569v.133q-.07.071-.142.151-.071.072-.071.187 0 .062.036.142 0 .214.008.596.01.417.01.586 0 .987-.472 1.173l-.16-.035-.142-.276q-.062-.026-.604-.124-.054.009-.738.098-.462.062-.738.16-.213.124-.64.355-.195-.16-.32-.417.16-.871.16-2.116 0-.533-.24-.613-.213.133-.213.293-.204.24-.4.49-.266.328-.453.452-.382.24-.569.24l-.417-.009q.586-.417 1.413-1.475.72-.924 1.146-1.715-.8 0-1.173.453-.044.01-.098.01-.293 0-.409-.303-.053-.125-.115-.57.249.036.586.125.72-.168 1.076-.266.764-.205 1.04-.356-.054-.32-.32-.693l-.125.045-.142-.045q-.222.062-.258.062-.035 0-.088-.026l-.747-.036q.142-.08 1.147-.613.675-.374 1.093-.72l-.134-.134V3.43l.196.018zm-.133 2.685q-.107.026-.133.23-.018.16-.027.312l.053.133-.08.436.063.16q-.071.026-.09.142-.017.106-.026.196l.054.24.986-.08q.391-.036.685.133-.507-.622-1.485-1.902M8.15 8.193l.427.17q.16-.09.525-.16t.515-.142q-.089-.303-.098-.81t-.062-.72q-.267.036-.444.25-.027.035-.285.453-.018.044-.329.462-.204.258-.248.498zm.534.543.044.773q.489-.036.933-.151l.845-.293h.258q.115 0 .222-.054.035-.426.035-.47 0-.267-.186-.267.106 0-.543.08-1.066.15-1.608.382m.48 1.164-.107-.027q-.284 0-.347.098v.16q0-.044.036.151-.018.196.018.569.258-.035 1.093-.258.667-.169 1.102-.186v-.854l-.107-.044q-.746.124-.853.151-.569.116-.835.24"/>
</svg>
