<svg xmlns="http://www.w3.org/2000/svg" viewBox="0 0 20.637 20.637">
    <path fill="#fd5" stroke="#deaa87" stroke-linejoin="round" stroke-miterlimit="10" stroke-width=".353" d="m61.716 73.284-2.7 17.273-5.748 1.638-5.554-1.56-2.895-17.351zM2.54 19.163 5.028 3.004l5.292-1.53 5.113 1.46 2.664 16.229zm62.818-5.92 2.29-15.6 4.878-1.48 4.713 1.41 2.453 15.67zM43.45 37.364l2.486-16.157 5.292-1.532 5.113 1.46 2.664 16.23zm21.906-.309 2.292-15.6 4.876-1.48 4.713 1.41 2.455 15.67zm22.042-23.67L89.593-1.66l4.667-1.427 4.513 1.358 2.35 15.113zm0 23.575 2.193-15.043 4.67-1.427 4.512 1.358 2.35 15.111zM19.444 72.98l-2.798 17.83-5.956 1.69-5.756-1.61-2.998-17.91zm21.07.305-2.7 17.272-5.748 1.637-5.556-1.56-2.893-17.35zm.022-23.805-2.7 17.273-5.748 1.638-5.554-1.56-2.895-17.351zm21.435 0-2.7 17.273-5.748 1.638-5.554-1.56-2.894-17.351zm43.033 25.022-2.601 16.714-5.541 1.586-5.354-1.51-2.79-16.79zm.003-25.007-2.604 16.716-5.541 1.584-5.354-1.509-2.79-16.79zm-21.667.092-2.604 16.716-5.541 1.583-5.354-1.508-2.789-16.791zm63.328.927-2.29 15.599-4.878 1.48-4.712-1.41-2.453-15.67zM125.8 73.575l-2.486 16.157-5.292 1.532-5.113-1.459-2.664-16.23zm20.868.681-2.291 15.6-4.877 1.48-4.712-1.409-2.456-15.67zm21.184-22.778-2.195 15.044-4.668 1.427-4.512-1.358-2.35-15.113zm.048 23.303-2.193 15.043-4.67 1.426-4.512-1.358-2.35-15.11zm-41.885-24.569-2.488 16.159-5.291 1.53-5.113-1.46-2.664-16.23z"/>
    <path d="M10.304 13.755a.87.87 0 0 0-.865.865c0 .475.391.863.865.863.473 0 .862-.39.862-.863a.87.87 0 0 0-.862-.865m0 .53a.33.33 0 0 1 .333.335c0 .19-.144.334-.333.334a.33.33 0 0 1-.336-.334c0-.188.147-.336.336-.336z" overflow="visible"/>
    <path d="M12.475 11.894a.599.599 0 1 1 1.197 0 .599.599 0 0 1-1.197 0m-5.511 0a.599.599 0 1 1 1.197 0 .599.599 0 0 1-1.197 0"/>
    <path d="M10.304 11.03a.87.87 0 0 0-.865.863c0 .475.39.865.865.865a.87.87 0 0 0 .862-.865.867.867 0 0 0-.862-.862zm0 .53c.189 0 .333.144.333.333a.33.33 0 0 1-.333.336.33.33 0 0 1-.336-.336.33.33 0 0 1 .336-.333" overflow="visible"/>
    <path d="m9.62 18.194.214-1.368.46-.13.446.123.23 1.375z"/>
    <path d="m9.288 18.463.32-2.029.683-.191.658.182.344 2.038zm2.438-15.238q.107.053.418.08.267.017.401.15l-.045.232q-.151.053-.16.178v.231l-.089.258.045.125.347-.063q.089.027.329.036.24 0 .391.16.018.044.018.09 0 .115-.205.328-.009 0-.32.098-.178.053-.293.169l-.338.134-.045.622q.116.027.25.027.302 0 .542-.08.756.089 1.12.364v.25l-.489.062q-.062.008-.275-.08-.205-.09-.33-.09-.053 0-.106.018-.09-.035-.17-.035-.373 0-1.102.169-.027.008-.454.169-.427.16-.462.178-.152.08-.214.195l-.338-.098q-.027-.097-.133-.16-.098-.062-.098-.124 0-.009.009-.036l.151.01q.267-.125.774-.276.551-.17.782-.267l-.026-.142.062-.374-.81-.214-.248-.24q.631-.115 1.058-.32 0-.089.027-.293.026-.214.026-.312l-.044-.613q-.222-.098-.356-.285zM8.8 3.509q.267.107.534.205.276.133.329.436-.231.044-.267.275v.445q0 .044-.018.125-.017.08-.017.124 0 .125.115.205.027 0 .116-.01.062-.008.107-.008.196 0 .293.178l-.044.204q-.205.116-.41.223-.284.151-.275.31.017.241.017.188l-.08.365.036.222q.347.124.694.258.356.195.373.587l-.178.222q-.115.009-.31-.027-.01 0-.205-.15-.187-.16-.205-.188-.035-.07-.142-.204l-.045.115.01.347-.063.374.036.151-.036.187.053.302-.035.187.053.338q0 .036-.018.107-.017.062-.017.098l.035.204-.053.196.08.213-.16.365-.196-.009q-.134-.133-.196-.374-.089-.328-.124-.409l.115-1.618-.017-.312q-.196.027-.383.294-.133.205-.267.418-.213.275-.684.534-.588.302-.747.444l-.125-.035-.418.044-.178-.053q.383-.294 1.13-.916.373-.32.836-1.023.471-.712.595-1.174-.587.106-.773.409-.16 0-.347-.17-.25-.212-.303-.24l-.16-.39q.063-.027.134-.027.16 0 .373.142.294-.062.685-.275.498-.285.65-.348l.08-1.093-.036-.427q-.187-.063-.383-.392l-.008-.044q.204.009.15.009.16 0 .294-.134m2.926 3.389.614.231q.036.125.036.151 0 .072-.063.187-.053.107-.053.17 0 .053.045.124l.178-.009q.693-.036.835.213l-.008.17q-.116.097-.41.16-.337.062-.444.115-.205.107-.205.356 0 .053.018.16.027.107.027.16l-.045.275.134.054.373-.071q.063-.134.285-.134l.293.071q.267.063.552.125.311.089.498.25l.053.23-.098.232-.169.053q-.186-.027-.756-.187-.471-.133-.747-.133-.382 0-.987.098-.676.098-.952.222-.275.116-.427.347-.133-.054-.24-.231-.097-.17-.169-.187v-.196l.125.045q.275-.107.756-.24.551-.143.765-.214v-.756q-.08-.027-.516-.044-.32-.018-.49-.187.765-.24 1.14-.445.017-.258.017-.516 0-.062-.009-.115l-.311-.24q.026-.045.07-.134l-.008-.027z"/>
</svg>
