<svg xmlns="http://www.w3.org/2000/svg" viewBox="0 0 26.458 26.458">
    <g stroke="#000" stroke-width="1.345">
        <path fill="#fff7b7" stroke-width=".712" d="m27.7 0-3.845 27.358L13.85 31 3.845 27.358 0 0z" transform="matrix(-.70129 0 0 -.7024 22.942 24.126)"/>
        <path stroke-width=".534" d="M52.57 284.936q-.185.37-1.031 1.27-1.985 2.25-4.922 4.577-2.936 2.329-4.683 2.329-.344 0-.344-.133 0-.185 1.006-.9 1.032-.74 1.217-.846 1.614-1.138 3.995-3.942 2.169-2.54 2.646-3.837 0-.026.159-.555.158-.555.317-.874.158-.343.344-.343.45 0 1.455.767 1.032.741 1.032 1.164a.48.48 0 0 1-.159.344.6.6 0 0 1-.317.185c1.411 1.923 3.431 3.511 6.765 5.469l1.905 1.111q.027.027.476.265.477.21.741.423.291.212.291.423 0 .319-.714.37-.714.054-.926 0a7.8 7.8 0 0 1-1.773-.184 4.5 4.5 0 0 1-1.455-.715 19 19 0 0 1-1.058-.9c-.247-.264-.266-.335-.76-.917a28 28 0 0 0-1.084-1.27l-1.879-2.038q-1.006-1.084-1.243-1.243zm-1.19 10.398q0-2.885-.476-3.201a7 7 0 0 0-.873.185q-.582.132-.9.132-.397 0-.979-.291-.582-.318-.582-.661 0-.291.979-.291.291 0 .873.052.608.027.926.027 1.111 0 3.413-.662.053 0 .397-.132.37-.132.582-.132.423 0 1.138.317.714.318.714.688 0 .424-1.481.477t-1.561-.027q-.318 0-.9.053.423.635.582 1.111t.132.98v1.216l1.508-.211a17 17 0 0 0 .9-.186q.715-.185 1.138-.185.476 0 1.243.344.768.345.768.74 0 .399-.53.398-.423 0-1.27-.053a22 22 0 0 0-1.27-.053q-1.401 0-2.487.106-.026.687-.106 6.297 1.905-.053 2.805-.132.16-.027.74-.133.583-.08.874-.08.662 0 1.746.345 1.112.344 1.112.873 0 .423-.847.423-.318 0-.9-.105a8 8 0 0 0-.714-.08q-2.753-.212-4.233-.212-2.78 0-5.821.583-1.8.343-2.038.343-.556 0-1.375-.264-.82-.264-.82-.688 0-.159.264-.238.291-.08.609-.106h1.111q3.016-.212 4.524-.344l1.19-.106q0-.66-.052-2.037-.027-1.403-.053-2.09 0-.715.026-2.064l-1.931.291a13 13 0 0 0-1.058.212q-.794.185-1.244.185t-1.243-.344q-.794-.345-.794-.688 0-.264.529-.265.184 0 .582.053.397.027.609.027 2.328 0 4.524-.397zm2.752 5.477q.132-.238.82-.953.688-.714.952-1.243 0-.027.16-.397.158-.37.29-.582.159-.238.291-.238.37 0 1.058.661.69.636.662.98v.052q-.027.132-.185.238-.132.105-.45.212-.291.08-.318.08-.237.078-.952.423-.687.344-1.297.582-.581.21-.9.211h-.052a.2.2 0 0 0-.08-.026zm-8.361-2.62h.08q1.137 0 2.407.662 1.296.635 1.296 1.64v.291q0 .741-.502.741-.424 0-1.879-1.508-1.455-1.534-1.402-1.825z" transform="matrix(.63116 0 0 .63216 -19.668 -171.276)"/>
    </g>
</svg>
