<svg xmlns="http://www.w3.org/2000/svg" viewBox="0 0 26.458 26.458">
    <g stroke="#000" stroke-width=".997">
        <path fill="#fff7b7" stroke-width=".754" d="m27.7 0-3.845 27.358L13.85 31 3.845 27.358 0 0z" transform="matrix(-.7001 0 0 -.70074 22.925 24.089)"/>
        <g stroke-width=".565">
            <path d="M-20.208 335.956q1.746-2.488 1.746-3.784c0-.14.044-.293.026-.434q0-.239.106-.424.132-.185.397-.185.555 0 1.402.609.846.607.847 1.137 0 .185-.768.953l-.529.661c-.106.194-.435.546-.912 1.075-1.605 2.214-3.125 1.982-2.315.392z" transform="matrix(-.13241 .60792 -.60738 -.13253 218.661 74.42)"/>
            <path d="M-23.199 339.331q1.297-.9 3.043-3.387t1.746-3.783q0-.212-.026-.423 0-.239.106-.424.132-.185.397-.185.555 0 1.402.609.846.607.847 1.137 0 .185-.768.953.556.237 1.297.476.767.239 1.428.74.662.504.662 1.112 0 .53-.503.53-.397 0-1.693-1.033-1.27-1.032-1.72-1.164-.159.291-.873 1.085-2.54 2.832-5.292 3.995zm15.637 8.096q-.423.37-.794.662a12 12 0 0 0-.714.608l-.635.635a8 8 0 0 0-.608.688q-.291.397-.556.847-.105.264-.503.82-.396.582-.688.582-.344 0-1.19-.9-.82-.872-.82-1.216 0-.239.74-.635.768-.424.82-.503.053-.212.053-1.085l.027-4.895q0-.555.026-1.64.027-1.112.027-1.667v-3.837q0-.819-.37-1.693-.372-.873-.371-1.005 0-.477.9-.477.237 0 .714.16.476.158.688.158.556 0 1.534-.185.98-.212 1.482-.45.052-.027.556-.318.503-.29.74-.29.53 0 1.456.767.952.767.952 1.296 0 .212-.423.9-.264.503-.767 2.09-.477 1.587-.477 2.09 0 .398.609.873.61.45 1.19.9.61.423.61.767 0 .37-.927.926-.9.555-1.19.662-.186.132-.794.529-.582.397-1.032.661a4.4 4.4 0 0 1-.847.37c.088.124.256.283.503.53.247.212.706.69.724.708 6.192 6.335 1.685 4.422-.354 2.017a2.7 2.7 0 0 1-.29-.45zm.503-11.641q.159-.768.159-1.932 0-.503-.556-.503-.608 0-1.64.318-1.006.318-1.376.37l-.027 2.567a35 35 0 0 0 1.165-.476q.45-.186.952-.265.53-.08 1.323-.08zm-.132 1.137-3.281.53-.159 2.778q2.17-.98 3.334-.98zm-11.272 5.821q-2.275.873-2.672.873-.37 0-.952-.185-.556-.212-.556-.503l.053-.158.106-.08a44 44 0 0 0 2.275-.45q1.587-.37 1.693-.529.08-.132.08-.952 0-.291-.159-.926-.159-.662-.344-.662a.8.8 0 0 0-.238.053 1 1 0 0 1-.212.027q-.238 0-.793-.212-.556-.211-.556-.397 0-.053.026-.08.054-.053 2.064-.687 2.037-.662 2.196-.662.291 0 .82.238.53.213.53.45 0 .291-.768.503-.767.212-1.19.212.291.264.423.45.132.158.132.608 0 .264-.079.794-.08.502-.08.714 1.005-.582 1.403-.582.345 0 .82.291.477.264.476.582 0 .291-1.084.503-1.086.212-1.614.212 0 1.375-.053 4.18.741-1.11 1.032-2.143.184-.212.37-.212.397 0 1.032.344.66.317.661.662 0 .158-.397.423l-.423.264-2.275 2.117-.08 1.376q.159-.053 1.297-.45 1.137-.423 1.614-.423a.4.4 0 0 1 .158.053q.027.026.027.08 0 .026-.291.317-.714.502-1.588.979-.873.45-1.984.952-1.085.503-1.667.794-.423.211-1.64.952h-.053q-.318.027-.873-.635-.556-.635-.556-.979 0-.079.027-.105.132-.265.635-.265.66 0 1.799-.344 1.164-.344 1.587-.423l-.08-2.17a621 621 0 0 0-.052-2.593 97 97 0 0 1-.027-2.196zm9.79 1.323q2.831-2.408 2.752-3.413v-.132l-.08-.159h-.08q-.687 0-2.566.476-1.851.45-2.037.476 0 .107-.026.318v.291q0 .291.793 1.058.794.767 1.244 1.085zm-2.117-1.058-.37 5.503a71 71 0 0 0 2.99-1.773q-1.005-1.217-2.62-3.73zm-11.985 2.513h.132q.9 0 2.09.556 1.217.53 1.217 1.296 0 .662-.635.662-.45 0-1.64-1.032t-1.19-1.429v-.026z" transform="matrix(.62164 0 0 .6222 21.22 -198.008)"/>
        </g>
    </g>
</svg>
