<svg xmlns="http://www.w3.org/2000/svg" viewBox="0 0 60 60">
    <defs>
        <filter id="1UM_svg__a" color-interpolation-filters="sRGB">
            <feFlood flood-color="#000" flood-opacity=".498" result="flood"/>
            <feComposite in="flood" in2="SourceGraphic" operator="in" result="composite1"/>
            <feGaussianBlur in="composite1" result="blur" stdDeviation="1"/>
            <feOffset dx="5" dy="3" result="offset"/>
            <feComposite in="SourceGraphic" in2="offset" result="composite2"/>
        </filter>
    </defs>
    <g opacity=".99">
        <g filter="url(#1UM_svg__a)" transform="matrix(.6 0 0 .6 -89.934 -160.851)">
            <path fill="#feec99" d="m199.89 352.22 21.067-6.56 10.823-65.489H168l10.822 65.489z"/>
            <path fill="#c3983c" fill-opacity=".992" d="M178.822 349.44v-3.78l21.068 6.56 21.067-6.56v3.78L199.89 356z"/>
        </g>
        <path fill="#fd0000" stroke="#fd0000" stroke-width=".945" d="M20.61 29.286a3.04 3.04 0 0 1-1.689-.517q-.825-.482-1.24-1.24 0-.208.518-.793c2.38-4.564 3.531-8.509 7.028-11.68q1-.93 1.757-1.172.31.036.586.552a43 43 0 0 0 .93 1.516 11.7 11.7 0 0 0 1.619 1.999v.172q-.276 0-.896-.172a11 11 0 0 1-1.172-.31 6 6 0 0 1-.585-.172c-.666.091-1.824.332-2.792 1.403-1.88 2.226-2.975 5.1-3.686 7.76q0 .758.45 1 .412.275 1.48.275.794 0 2.687-.172h.31q5.376-.482 11.06-2.24.723.38 1.103.964-.897 5.066-.896 8.442 0 2.482.345 3.721 0 .105.344.654.345.587.345.896 0 .345-.276.517-.654 0-1.964-.792l-.413-.242q-3.48.173-7.305 1l-2.756.689-.62.069h-.137a.6.6 0 0 1-.138.034q-1.035 0-1.516-.654-.035-.38.31-.517.344-.138 1.447-.31a9 9 0 0 0 .55-.069l4.032-.827q-.69-.38-.69-1.447a1 1 0 0 1 .035-.206v-.208l.104-.895-1.792.413a1.88 1.88 0 0 1-1.275-.207q-.447-.206-.482-.447l.241-.241 3.308-.827a19 19 0 0 0 .172-2.654l-2.309.586h-.172a.6.6 0 0 1-.138.035q-.688 0-1.205-.448-.07-.448.516-.69.585-.24 1.723-.413 1.136-.172 1.585-.31l.104-2.721-4.755.62a12 12 0 0 1-1.034.034l-2.722.24zm15.056-1.344q-.172-.311-1.068-.31-.895 0-2.309.275-1.446.276-1.687.276v2.549l2.17-.104.93.276q.172.103.241.379-.31.137-1.482.31-1.205.173-1.86.344v2.653q.793-.171 1.275-.172 1.447 0 1.688.723-.24.103-2.962.655.171 2.411.482 2.997 2.79-.24 3.824-.24.69-1.276.86-7.097v-.586q.001-2.62-.103-2.93zm-7.097-2.24q-1.069-.723-1.448-1.033-.378-.276-.758-.792a2.34 2.34 0 0 1-.448-1.138q.277-1.102.758-1.102.277 0 .69.344.378.38.93 1.344.516 1 .86 2.377zm2.514-3.445q0-.965.552-1.172.758 0 1.412 1.344.62 1.344.62 2.102-.033.035-.172.035-.517 0-1.447-.724-.963-.69-.964-1.585zm4.893-2.24q.55.105.999 1.103.414.999.414 1.93 0 .446-.172.723-.794 0-1.344-1.103-.553-1.101-.552-2.067.276-.413.655-.586zm4.823 4.618q-.345 0-.586-1.034a7.3 7.3 0 0 1-.275-1.93q0-1.344.378-2.412.38-1.067 1.276-1.068.723.792.723 1.792 0 .62-.275 1.378l-.758 2.205q0 .034-.069.379-.07.38-.138.517-.103.173-.276.173z" opacity=".99"/>
    </g>
</svg>
