<svg xmlns="http://www.w3.org/2000/svg" viewBox="0 0 60 60">
    <defs>
        <filter id="0OU_svg__a" color-interpolation-filters="sRGB">
            <feFlood flood-color="#000" flood-opacity=".498" result="flood"/>
            <feComposite in="flood" in2="SourceGraphic" operator="in" result="composite1"/>
            <feGaussianBlur in="composite1" result="blur" stdDeviation="1"/>
            <feOffset dx="5" dy="3" result="offset"/>
            <feComposite in="SourceGraphic" in2="offset" result="composite2"/>
        </filter>
    </defs>
    <g opacity=".99">
        <g filter="url(#0OU_svg__a)" transform="matrix(.6 0 0 .6 6.557 3.624)">
            <path fill="#fee572" d="M39.071 3.92 16.52 11.313 6 78.331h66.142l-10.52-67.018z" opacity=".99"/>
            <path fill="#c3983c" fill-opacity=".992" d="M6 78.331V84h66.142v-5.669z"/>
        </g>
        <path stroke="#000" stroke-width=".848" d="M-1.085-14.282c-1.722 0-4.415-.629-5.248-1.462 0-.195 1.498-.121 1.665-.205q.291-.124 1.25-.208 1-.125 2.292-.25 1.333-.125 4-.583 2.666-.459 5.75-1.167a5.7 5.7 0 0 1 1.458-.167q1.833 0 2.792 1.125.041.417-.167.667-.208.208-.958.417-.75.166-1.584.291-.791.084-2.541.375-1.75.292-3.417.625 1.041.542 1.042 1.667l-.209 2.25-.125 4.042v.041l4.004-.579c.167-.028 1.309-.254 1.587-.254q1.625 0 2.375 1.042-.042.583-1.542 1c-1.5.417-3.243.5-4.465.666q-1.834.21-1.917.25l-.125.209-.25 8.208q4.874-.333 8.042-.75l3.583-.625h.292q1.208 0 2.541 1.292 1.375 1.25 1.375 1.916-.166.292-.833.292-.625 0-5.458-.458l-2.667-.167q-3.459 0-9.667.583c-4.139.39-6.357.785-7.857 1.257l-1.875.541a.7.7 0 0 0-.166.042h-.167q-.833 0-1.792-.625-.957-.625-1.416-1.417 0-.457.25-.666l.19.035c1.611.3 3.833-.167 6.583-.5q4.125-.5 6.75-.5h.167l.125-8.25-3.75.25c-1.222-.028-2.917-.233-3.528-.9q0-.458.541-.5l2.654-.267L2.54-6.24v-6.084q0-1.207-.791-2.125-1.5.167-2.834.167z" transform="matrix(1.00697 0 0 1.0097 25.502 34.892)"/>
    </g>
</svg>
