<svg xmlns="http://www.w3.org/2000/svg" width="136" height="136">
    <g stroke="#000" filter="drop-shadow(2px 2px 1px rgba(0,0,0,0.5))">
        <path fill="#e8bc5d" stroke-width="1.197" d="m123.254 4.456-15.34 109.145L68 128.13 28.085 113.6 12.745 4.456z"/>
        <g fill="none" fill-rule="evenodd" stroke-linecap="round" stroke-linejoin="round" stroke-width="3.967">
            <g fill="#ce0101" stroke="#ce0101" stroke-linecap="butt">
                <path d="M103.7 29.42c-8.964 2.566-26.735-1.137-35.7 5.29-8.964-6.427-26.735-2.724-35.7-5.29 0 0-4.363-1.427-7.933-5.288 1.798-2.565 4.364-2.618 7.934-1.323 8.964 2.566 26.735-1.216 35.7 2.645 8.964-3.861 26.735-.08 35.7-2.645 3.58-1.295 6.142-1.242 7.932 1.323-3.58 5.13-7.933 5.289-7.933 5.289Z"/>
                <path d="M87.834 39.998c-6.612-6.61-33.056-6.61-39.667 0-1.322 3.967 0 5.29 0 5.29 0 6.61 6.611 10.577 6.611 10.577C40.234 59.83 38.912 86.275 68 96.853c29.09-10.577 27.767-37.022 13.222-40.988 0 0 6.612-3.967 6.612-10.578 0 0 1.322-1.322 0-5.289z"/>
                <path d="M61.39 103.465a6.611 6.611 0 1 1 13.221 0 6.611 6.611 0 1 1-13.222 0z"/>
            </g>
            <path stroke="#fff" stroke-linejoin="miter" d="M81.222 55.865H54.778m33.056-10.578H48.167M68 83.631V70.41m6.611 6.611H61.39"/>
        </g>
    </g>
</svg>
