<svg xmlns="http://www.w3.org/2000/svg" width="136" height="136">
    <g filter="drop-shadow(2px 2px 1px rgba(0,0,0,0.5))">
        <path fill="#e8bc5d" stroke="#000" stroke-width="1.197" d="M17.134 4.456h101.732l-14.394 102.422L68 120.151l-36.472-13.273z"/>
        <g fill-rule="evenodd" stroke-width=".958">
            <path fill="#ce0101" stroke="#ce0101" stroke-linecap="round" stroke-linejoin="round" stroke-width="1.437" d="M22 10c10.5 1 16.5 8 16 29H15c0-9 10-6.5 8-21" transform="matrix(-2.16077 0 0 -2.35585 114.29 110.033)"/>
            <path fill="#ce0101" stroke="#ce0101" stroke-linecap="round" stroke-linejoin="round" stroke-width="1.437" d="M24 18c.38 2.91-5.55 7.37-8 9-3 2-2.82 4.34-5 4-1.042-.94 1.41-3.04 0-3-1 0 .19 1.23-1 2-1 0-4.003 1-4-4 0-2 6-12 6-12s1.89-1.9 2-3.5c-.73-.994-.5-2-.5-3 1-1 3 2.5 3 2.5h2s.78-1.992 2.5-3c1 0 1 3 1 3" transform="matrix(-2.16077 0 0 -2.35585 114.29 110.033)"/>
            <path fill="#fff" stroke="#fff" stroke-linecap="round" stroke-linejoin="round" stroke-width="1.437" d="M9.5 25.5a.5.5 0 1 1-1 0 .5.5 0 1 1 1 0" transform="matrix(-2.16077 0 0 -2.35585 114.29 110.033)"/>
            <path fill="#fff" stroke="#fff" stroke-linecap="round" stroke-linejoin="round" stroke-width="1.437" d="M15 15.5a.5 1.5 0 1 1-1 0 .5 1.5 0 1 1 1 0" transform="matrix(-1.87123 -1.17792 1.08038 -2.04016 93.346 122.22)"/>
            <path fill="#fff" d="m61.243 85.532.972-3.416-1.08-.353c-6.806-2.356-12.208-5.866-17.07-15.902s-7.023-24.289-5.942-47.706l.108-1.178h-4.862l-.108 1.178c-1.08 23.7 1.902 39.696 7.023 50.274s12.51 15.643 19.857 16.868Z"/>
        </g>
    </g>
</svg>
