<svg xmlns="http://www.w3.org/2000/svg" width="136" height="136">
    <g stroke="#000" filter="drop-shadow(2px 2px 1px rgba(0,0,0,0.5))">
        <path fill="#e8bc5d" stroke-width="1.197" d="M12.745 4.456h110.51l-15.34 109.145L68 128.13 28.085 113.6z"/>
        <g fill="none" fill-rule="evenodd" stroke-linecap="round" stroke-linejoin="round" stroke-width="1.5">
            <g fill="#000" stroke-linecap="butt">
                <path d="M103.7 29.423c-8.965 2.565-26.735-1.137-35.7 5.289-8.965-6.426-26.735-2.724-35.7-5.29 0 0-4.363-1.427-7.933-5.288 1.798-2.565 4.363-2.618 7.933-1.322 8.965 2.565 26.735-1.217 35.7 2.644 8.965-3.86 26.735-.08 35.7-2.644 3.58-1.296 6.143-1.243 7.933 1.322-3.58 5.13-7.933 5.289-7.933 5.289Z"/>
                <path d="M87.833 40c-6.61-6.61-33.055-6.61-39.666 0-1.322 3.967 0 5.29 0 5.29 0 6.61 6.61 10.577 6.61 10.577C40.234 59.834 38.912 86.278 68 96.856c29.089-10.578 27.767-37.022 13.222-40.989 0 0 6.611-3.967 6.611-10.578 0 0 1.322-1.322 0-5.288z"/>
                <path d="M61.389 103.467a6.611 6.611 0 1 1 13.222 0 6.611 6.611 0 1 1-13.222 0z"/>
            </g>
            <path stroke="#fff" stroke-linejoin="miter" stroke-width="3.967" d="M81.222 55.867H54.778m33.056-10.578H48.167M68 83.633V70.411m6.611 6.611H61.39"/>
        </g>
    </g>
</svg>
