<svg xmlns="http://www.w3.org/2000/svg" width="136" height="136">
    <g stroke="#000" filter="drop-shadow(2px 2px 1px rgba(0,0,0,0.5))">
        <path fill="#e8bc5d" stroke-width="1.181" d="M26.57 117.042 10.751 4.454H125.25l-15.823 112.588-41.428 14.413z"/>
        <g fill="none" fill-rule="evenodd" stroke-linecap="round" stroke-linejoin="round" stroke-width="3.455">
            <path stroke-linejoin="miter" d="M67.951 91.013v12.968"/>
            <path fill="#000" stroke-linecap="butt" stroke-linejoin="miter" d="M67.951 60.219s-10.364 17.274-6.91 24.184c0 0 2.304 5.758 6.91 5.758s6.91-5.758 6.91-5.758c3.455-6.91-6.91-24.184-6.91-24.184"/>
            <path fill="#000" d="M93.287 32.58c-12.668-8.061-35.7-8.061-48.368 0v16.123s-20.73 10.364-13.82 24.184c9.213 14.97 31.094 8.061 36.852-9.213v-8.061 8.06c8.061 17.275 29.942 24.185 36.852 9.214 6.91-13.82-11.516-23.033-11.516-23.033z"/>
            <path stroke-linejoin="miter" d="M73.71 99.374H62.192"/>
            <path stroke="#fff" d="M46.07 49.854s-19.577 9.213-13.888 22.227c8.936 13.474 30.011 4.26 35.77-10.71l-.024-4.837.023 4.837c5.758 14.97 29.007 24.184 35.707 10.71 5.751-13.014-11.177-20.73-11.177-20.73"/>
            <path stroke="#fff" d="M93.287 48.703c-12.668 6.91-35.7 6.91-48.368 0m48.368-8.062c-12.668 6.91-35.7 6.91-48.368 0m48.368-8.06c-12.668 6.909-35.7 6.909-48.368 0"/>
        </g>
    </g>
</svg>
