<svg xmlns="http://www.w3.org/2000/svg" width="136" height="136">
    <g stroke="#000" filter="drop-shadow(2px 2px 1px rgba(0,0,0,0.5))">
        <path fill="#c9983f" stroke-width="1.197" d="m12.745 131.544 15.34-109.145L67.998 7.87l39.915 14.53 15.34 109.145z"/>
        <g fill="none" fill-rule="evenodd" stroke-linecap="round" stroke-linejoin="round" stroke-width="3.967">
            <g fill="#ce0101" stroke="#ce0101" stroke-linecap="butt">
                <path d="M32.3 106.58c8.964-2.565 26.735 1.138 35.7-5.288 8.964 6.426 26.735 2.723 35.7 5.288 0 0 4.363 1.428 7.933 5.29-1.798 2.564-4.364 2.617-7.934 1.322-8.964-2.566-26.735 1.216-35.7-2.645-8.964 3.861-26.735.08-35.7 2.645-3.58 1.295-6.142 1.242-7.932-1.323 3.58-5.13 7.933-5.289 7.933-5.289Z"/>
                <path d="M48.166 96.003c6.612 6.61 33.056 6.61 39.667 0 1.322-3.967 0-5.29 0-5.29 0-6.61-6.611-10.577-6.611-10.577C95.766 76.17 97.088 49.726 68 39.148 38.91 49.725 40.233 76.17 54.778 80.136c0 0-6.612 3.967-6.612 10.578 0 0-1.322 1.322 0 5.289z"/>
                <path d="M74.61 32.536a6.611 6.611 0 1 1-13.221 0 6.611 6.611 0 1 1 13.222 0z"/>
            </g>
            <path stroke="#fff" stroke-linejoin="miter" d="M54.778 80.136h26.444M48.166 90.714h39.667M68 52.37v13.222m-6.611-6.611H74.61"/>
        </g>
    </g>
</svg>
