<svg xmlns="http://www.w3.org/2000/svg" width="136" height="136">
    <g stroke="#000" filter="drop-shadow(2px 2px 1px rgba(0,0,0,0.5))">
        <path fill="#c9983f" stroke-width="1.197" d="M123.254 131.544H12.744l15.34-109.145L68 7.87l39.915 14.53z"/>
        <g fill="none" fill-rule="evenodd" stroke-linecap="round" stroke-linejoin="round" stroke-width="1.5">
            <g fill="#000" stroke-linecap="butt">
                <path d="M32.3 106.577c8.965-2.565 26.735 1.137 35.7-5.289 8.965 6.426 26.735 2.724 35.7 5.29 0 0 4.363 1.427 7.933 5.288-1.798 2.565-4.363 2.618-7.933 1.322-8.965-2.565-26.735 1.217-35.7-2.644-8.965 3.86-26.735.08-35.7 2.644-3.58 1.296-6.143 1.243-7.933-1.322 3.58-5.13 7.933-5.289 7.933-5.289Z"/>
                <path d="M48.167 96c6.61 6.61 33.055 6.61 39.666 0 1.322-3.967 0-5.29 0-5.29 0-6.61-6.61-10.577-6.61-10.577C95.766 76.166 97.088 49.722 68 39.144 38.911 49.722 40.233 76.166 54.778 80.133c0 0-6.611 3.967-6.611 10.578 0 0-1.322 1.322 0 5.288z"/>
                <path d="M74.611 32.533a6.611 6.611 0 1 1-13.222 0 6.611 6.611 0 1 1 13.222 0z"/>
            </g>
            <path stroke="#fff" stroke-linejoin="miter" stroke-width="3.967" d="M54.778 80.133h26.444M48.166 90.711h39.667M68 52.367v13.222m-6.611-6.611H74.61"/>
        </g>
    </g>
</svg>
