<svg xmlns="http://www.w3.org/2000/svg" width="136" height="136">
    <g stroke="#000" filter="drop-shadow(2px 2px 1px rgba(0,0,0,0.5))">
        <path fill="#c9983f" stroke-width="1.181" d="m109.429 18.958 15.819 112.588H10.75L26.573 18.958 68 4.545z"/>
        <g fill="none" fill-rule="evenodd" stroke-linecap="round" stroke-linejoin="round" stroke-width="3.455">
            <path stroke-linejoin="miter" d="M68.049 44.985V32.017"/>
            <path fill="#000" stroke-linecap="butt" stroke-linejoin="miter" d="M68.049 75.779s10.364-17.274 6.91-24.184c0 0-2.304-5.758-6.91-5.758s-6.91 5.758-6.91 5.758c-3.455 6.91 6.91 24.184 6.91 24.184"/>
            <path fill="#000" d="M42.713 103.418c12.668 8.061 35.7 8.061 48.368 0V87.295s20.73-10.364 13.82-24.184c-9.213-14.97-31.094-8.061-36.852 9.213v8.061-8.06C59.988 55.05 38.107 48.14 31.197 63.11c-6.91 13.82 11.516 23.033 11.516 23.033z"/>
            <path stroke-linejoin="miter" d="M62.29 36.624h11.517"/>
            <path stroke="#fff" d="M89.93 86.144s19.577-9.213 13.888-22.227c-8.936-13.474-30.011-4.26-35.77 10.71l.024 4.837-.023-4.837c-5.758-14.97-29.007-24.184-35.707-10.71-5.751 13.014 11.177 20.73 11.177 20.73"/>
            <path stroke="#fff" d="M42.713 87.295c12.668-6.91 35.7-6.91 48.368 0m-48.368 8.062c12.668-6.91 35.7-6.91 48.368 0m-48.368 8.06c12.668-6.909 35.7-6.909 48.368 0"/>
        </g>
    </g>
</svg>
