<svg xmlns="http://www.w3.org/2000/svg" width="52.157" height="52.157">
    <path fill="#fee672" stroke="#000" d="m-11.523 7.362-13.179 4.663-6.147 42.27h38.65l-6.147-42.27Z" transform="matrix(1.02676 0 0 -.95127 37.91 55.39)"/>
    <path d="M15.294 37.168a.764.687 0 0 1-.733-.879l.966-2.982a.764.687 0 0 1 .733-.495h7.482v-7.03h-5.476a.764.687 0 0 1-.724-.467l-.966-2.576a.764.687 0 0 1 .724-.907h6.442v-8.114H13.01a.764.687 0 0 1-.734-.495l-.968-2.982a.764.687 0 0 1 .734-.879h28.075a.764.687 0 0 1 .734.879l-.966 2.982a.764.687 0 0 1-.733.495H28.286v8.114h6.26a.764.687 0 0 1 .721.907l-.965 2.576a.764.687 0 0 1-.725.467h-5.29v7.03h7.527a.764.687 0 0 1 .733.495l.966 2.982a.764.687 0 0 1-.734.88zm1.018-1.374h19.45l-.522-1.608h-7.719a.764.687 0 0 1-.762-.686v-8.404a.764.687 0 0 1 .762-.688h5.508l.451-1.202h-5.959a.764.687 0 0 1-.762-.686v-9.49a.764.687 0 0 1 .762-.686h11.057l.52-1.608H13.06l.522 1.608h10.923a.764.687 0 0 1 .765.686v9.49a.764.687 0 0 1-.765.686h-6.142l.451 1.202h5.69a.764.687 0 0 1 .766.688V33.5a.764.687 0 0 1-.765.686h-7.672z"/>
</svg>
