<svg xmlns="http://www.w3.org/2000/svg" viewBox="0 0 52.157 52.157">
    <g opacity=".99">
        <path fill="#feec99" stroke="#000" stroke-width=".878" d="m26.079 45.888-11.234-3.73-5.88-37.94h34.228l-5.881 37.94z"/>
        <path stroke="#000" stroke-width=".769" d="m515.823 67.786 16.979-16.978 1.546 1.546-16.978 16.979z" transform="matrix(.66267 0 0 -.64762 -321.881 53.054)"/>
        <g stroke="#000" stroke-width="4.938">
            <path stroke-width="5.276" d="M372.14 1585.471V1324.82h15v260.652z" transform="matrix(.09664 0 0 -.09444 -10.608 155.313)"/>
            <g fill="none">
                <path stroke-width="7.914" d="m373.444 1325.142-13.45-9.477 2.65-110.432 16.688-28.57 17.542 28.57 2.373 110.432-13.382 9.477z" transform="matrix(.09664 0 0 -.09444 -10.608 155.313)"/>
                <path stroke-width="5.935" d="M379.551 1181.017v105.099l17.91 15.182m-17.91-15.182-17.687 15.182" transform="matrix(.09664 0 0 -.09444 -10.608 155.313)"/>
            </g>
        </g>
        <path stroke="#000" stroke-width=".467" d="M19.295 41.675H33.88v1.329H19.295z" transform="matrix(1.09107 0 0 -1.06628 -2.93 59.297)"/>
        <path d="M26.079 23.112a9.169 8.96 0 0 1-9.17-8.96 9.169 8.96 0 0 1 9.17-8.961 9.169 8.96 0 0 1 9.168 8.96 9.169 8.96 0 0 1-9.168 8.96zm0-1.954a7.169 7.006 0 0 0 7.168-7.007 7.169 7.006 0 0 0-7.168-7.005 7.169 7.006 0 0 0-7.17 7.005 7.169 7.006 0 0 0 7.17 7.007"/>
        <path stroke="#000" stroke-width=".769" d="m517.37 50.808 16.978 16.978-1.546 1.547-16.979-16.979z" transform="matrix(.66267 0 0 -.64762 -321.881 53.054)"/>
    </g>
</svg>
