<svg xmlns="http://www.w3.org/2000/svg" viewBox="0 0 52.157 52.157">
    <path fill="#fee572" fill-opacity=".992" stroke="#000" d="m-10.912 7.41-13.002 4.104-6.935 42.781H9.024l-6.926-42.73z" opacity=".99" transform="matrix(.9704 0 0 .9364 36.668 -2.801)"/>
    <path d="m26.086 10.466-.302.422c-.881 1.232-1.746 2.732-3.104 3.324l-.568.246.482.393c.913.738 1.493 2.047 1.81 3.75.073.388.128.8.175 1.224-1.322.534-2.516 1.368-3.635 2.377.388.246.951.583 1.687.977 1.2.642 2.681.86 3.457.861.79.001 2.274-.218 3.473-.861.746-.4 1.279-.735 1.664-.98-1.117-1.007-2.308-1.84-3.627-2.374.047-.423.1-.836.172-1.224.317-1.703.896-3.012 1.809-3.75l.484-.393-.568-.246c-1.358-.592-2.225-2.092-3.106-3.324Zm-10.025 2.211-.621.023c-.08 4.185.19 8.092 1.703 10.961a8 8 0 0 0 2.12 2.58c.39.142 1.18.421 2.333.764 1.506.447 3.341.885 4.48.885 1.143 0 2.984-.437 4.495-.885a42 42 0 0 0 2.308-.752 8 8 0 0 0 2.133-2.592c1.512-2.869 1.784-6.776 1.703-10.96l-.62-.024c-.32 4.498-1.06 7.262-2.56 8.967-.368.419-.806.762-1.285 1.068l.006.01s-.975.67-2.224 1.34-2.719.982-3.944.98c-1.214-.001-2.68-.313-3.93-.982-1.249-.67-2.257-1.336-2.257-1.336l.007-.012c-.48-.306-.92-.649-1.289-1.068-1.5-1.705-2.24-4.468-2.558-8.967m2.85 14.54c-2.324 4.953-6.477 10.709-8.36 13.315l-.195.268.17.291c.872 1.49 2.601 3.546 4.418 3.986l.289.07.135-.31c.338-.778 1.224-4.756 2.197-7.47q.005 0 .007.004l3.01-9.594c-.93-.296-1.416-.47-1.672-.56zm14.34.005c-.263.092-.736.26-1.659.553l3.06 9.756c.948 2.641 1.804 6.545 2.135 7.306l.137.31.29-.07c1.816-.44 3.543-2.496 4.415-3.986l.172-.29-.195-.268c-1.882-2.606-6.032-8.36-8.356-13.311zm-2.614.85c-1.5.436-3.235.863-4.56.863-1.32 0-3.046-.426-4.54-.861l-.609 1.943c.342.122.901.318 1.711.558 1.156.344 2.565.68 3.44.68.877 0 2.291-.336 3.45-.68a30 30 0 0 0 1.717-.558zm-9.95 2.71-2.189 6.983c2.074.887 5.395 2.16 7.58 2.164 2.176.003 5.487-1.24 7.608-2.135l-2.2-7.011a32 32 0 0 1-1.728.562c-1.188.352-2.61.711-3.68.71-1.065 0-2.482-.36-3.667-.712-.8-.237-1.36-.431-1.723-.56z" overflow="visible"/>
</svg>
