<svg xmlns="http://www.w3.org/2000/svg" width="120" height="120" viewBox="0 0 120 120">
    <path fill="red" stroke="red" stroke-width=".004" d="m2.724 72.613.026.47.054.525.016.12.062.441.099.574.116.566.116.467.015.068-1.522.248-.092-.316-.06-.214-.135-.557-.113-.567-.09-.555-.02-.155-.047-.366-.036-.468 1.554-.27.036-.007.021-.004m4.276.44-.404.448-.152.227-.196.292-.291.577-.24.624-.19.66-.14.684-.36-.105-.93-.268-.309-.089.069-.327.093-.435.146-.549.053-.195.245-.71.073-.159.233-.502.377-.595.464-.514 1.387.89.072.045M5.027 76.96V86h-10.92v-1.589h4.584v-.98h-4.047V81.97h4.047v-.98h-4.047v-1.43h4.047v-.991H-7v-.038l.003-.1.004-.141.01-.323.006-.14v-.002l.058-.866.043-.614.107-1.196.124-.938.095-.483.046-.226.17-.508.19-.32.01-.016.166-.177.17-.138.181-.107.19-.078.208-.057.225-.04.234-.025.27-.019.303-.012.09-.001.239-.003.351.003.344.011.021.001.031.278.04.21.015.086.077.302.097.3.115.282.128.248.002.005-.297-.025-.138-.01-.146-.009-.263-.013-.19-.005-.043-.002h-.197l-.15.008h-.035l-.083.002-.1.007-.086.016-.079.03-.004.002-.069.045-.044.042-.027.025-.101.18-.094.294-.088.422-.082.571-.076.735-.074.917h10.13m-4.419-1.07L0 76.044l-.795.204-.197-.465-.002-.008-.184-.49-.176-.507-.149-.497-.12-.466-.018-.088-.064-.327 1.469-.388.023-.006.063.403.07.318.032.145.048.178.086.325.158.518.176.512.144.37.044.112m-3.475-1.969.11.324.143.367.175.39.196.4.195.363.007.013.01.016.217.367-1.304.45-.232-.353-.225-.375-.059-.105-.154-.278-.19-.378-.118-.265-.043-.093-.12-.325.163-.06 1.083-.404.06-.022.038-.014.032-.012.016-.006M13 68.001 9.2 90.803 9 92l-7.52 5.013L0 98l-7.225-4.815L-9 92l-.199-1.197-3.8-22.802h26m-24.004 1.997L-9 82.291l1.383 8.481v.031h.008l7.61 5.2 7.611-5.2h.007v-.031l.778-4.771L9 82.29l2.003-12.293h-22.007M.488 80.99v.979H3.24v-.98H.488m0-1.429H3.24v-.991H.488v.991m0 4.852H3.24v-.98H.488Zm0 0" transform="matrix(3.78963 0 0 3.7628 60.114 -252.108)"/>
    <path fill="#f9f9f9" d="M45.766 99.285a5552 5552 0 0 1-14.375-9.77c-.032-.027-2.899-17.363-6.371-38.523-3.473-21.164-6.356-38.73-6.407-39.031l-.093-.555h41.554c38.32 0 41.551.016 41.551.239 0 .273-12.652 77.503-12.734 77.738-.043.117-28.387 19.445-28.723 19.586-.043.015-6.527-4.336-14.402-9.684m33.488-44.781V37.469H40.883l.101-1.516c.25-3.621.774-7.375 1.227-8.777.656-2.02.77-2.067 4.86-1.953 1.702.047 3.097.066 3.097.039s-.203-.473-.441-.992c-.54-1.145-1.168-3.293-1.313-4.497l-.117-.89-3.574.008c-2.871.004-3.766.054-4.512.254-2.902.777-4.219 2.43-5.04 6.328-.534 2.543-1.085 7.535-1.405 12.812l-.239 3.887-.086 1.371H55.09v3.703H39.727v5.477H55.09v3.558H39.727v5.63H55.09v3.554H37.637v6.07h41.617ZM53.187 34.52c.063-.055-.19-.633-.566-1.282-.957-1.648-2.098-4.023-2.77-5.765-.355-.918-.644-1.465-.761-1.442-.23.051-5.094 1.836-5.164 1.899-.223.183 2.144 4.976 3.488 7.054l.828 1.29 2.418-.829c1.328-.449 2.469-.867 2.528-.925m28.016-1.122c.55-2.28 1.34-4.386 2.332-6.226.887-1.645 1.2-2.094 2.324-3.371.496-.567.832-1.067.758-1.137-.297-.273-5.344-3.41-5.492-3.41-.254 0-1.773 1.766-2.543 2.965-1.66 2.566-2.988 6.218-3.937 10.804l-.27 1.305 3.07.879 3.078.875.11-.383c.058-.207.316-1.242.57-2.3m-21.191.75c1.351-.355 2.445-.703 2.43-.77a148 148 0 0 0-.93-2.675c-.852-2.437-1.82-5.992-2.032-7.484-.054-.39-.117-.707-.14-.707-.153 0-5.64 1.48-5.7 1.535-.21.21.926 4.394 1.977 7.277.969 2.66 1.363 3.48 1.672 3.477.145-.004 1.367-.297 2.723-.653m9.734-.359c1.375-.23 2.54-.46 2.59-.508.047-.047-.09-.812-.305-1.699-.695-2.895-1.426-7.727-1.433-9.473 0-.386-.055-.789-.118-.886-.09-.145-.828-.055-3.18.355l-3.066.535.059.754c.219 2.715.906 6.61 1.691 9.547.567 2.129.16 1.98 3.762 1.375m0 0"/>
    <path fill="#f9f9f9" d="M62.098 45.395v-1.852h10.144v3.703H62.098Zm0 9.109v-1.781h10.144v3.558H62.098Zm0 9.18V61.91h10.144v3.555H62.098Zm0 0"/>
</svg>
