<svg xmlns="http://www.w3.org/2000/svg" width="120" height="120" viewBox="0 0 120 136">
    <path fill="none" stroke="red" stroke-width=".004" d="M-20.008 14.108v.42h5.843V14h1.763v5.865h-9.456v-5.757h1.85m3.852 6.123v3.508l.68-.812.752-.76.816-.702.868-.63.587-.355.323-.196.853-.42.087-.042.029.043.127.19.189.258.13.167.079.1.214.254.005.006.216.237.2.197-.421.178-.443.186-.844.439-.579.362-.23.144-.761.565-.698.614-.621.655h4.176v1.646h-5.734V28h-1.85v-1.937h-5.82v-1.646l5.243-.02.309-.001h.123l.068-.001h.077l-.86-.384-1.105-.515-1.21-.577-1.171-.57-.988-.496-.487-.26L-24 21.5l.173-.363.313-.657.286-.6.007-.015.662.427.305.188.517.319.925.553.968.566.955.545.883.49v-2.722h1.85M-4 10.001l-3.795 22.767-.005.035L-8 34l-7.52 5.013-.001.001L-17 40l-9-6-.2-1.197-.005-.035L-30 10h26m-20.618 22.772v.03h.007l2.61 1.785L-17 38.003l5-3.416 2.61-1.784h.008v-.035L-8.603 28-8 24.29l2.003-12.292h-22.006L-26 24.291l1.381 8.477.001.004m4.61-16.388v1.845h5.843v-2.066h-5.843Zm0 0" transform="matrix(4.29492 0 0 4.26451 133.142 -38.38)"/>
    <path fill="red" d="m40.84 119.297-19.278-12.762-8.55-50.969C8.309 27.536 4.46 4.543 4.46 4.476c.004-.07 25.047-.124 55.656-.124 49.461 0 55.656.027 55.656.246 0 .136-3.835 23.082-8.52 50.988-4.683 27.91-8.515 50.781-8.515 50.824 0 .047-8.691 5.836-19.312 12.867L60.117 132.06Zm35.648-6.57c8.91-6.051 16.258-11.055 16.32-11.122.067-.066 3.36-19.886 7.325-44.046 3.96-24.16 7.246-44.133 7.3-44.38l.094-.452H12.73l.086.37c.047.204 3.325 20.137 7.286 44.298 3.957 24.16 7.214 43.988 7.238 44.062.05.176 32.562 22.262 32.777 22.266.094.004 7.457-4.946 16.371-10.996m0 0"/>
    <path fill="red" d="M55.902 76.77v-4.102H30.926V65.77h12.523c7.77 0 12.457-.06 12.36-.153-.086-.086-1.309-.668-2.72-1.297-6.3-2.808-21.616-10.215-22.546-10.902-.285-.211-.211-.41 1.219-3.422.832-1.758 1.574-3.254 1.644-3.328.067-.074.86.336 1.758.914 4.82 3.09 20.11 11.945 20.625 11.945.063 0 .113-2.586.113-5.746v-5.746h7.77l.043 7.488.043 7.493 1.148-1.375c3.828-4.567 8.98-9.043 13.84-12.016 1.899-1.16 6.043-3.281 6.258-3.203.074.027.695.805 1.387 1.73.691.922 1.789 2.23 2.437 2.914l1.184 1.235-.559.234c-3.808 1.594-5.816 2.617-8.742 4.461a48.6 48.6 0 0 0-9.086 7.336l-1.398 1.438h18.09v6.898H63.675v8.207h-7.774ZM39.363 34.074V21.922h7.774v1.808H72.44v-2.3h7.278v24.797H39.363Zm33.078.903V30.46H47.137v9.035H72.44Zm0 0"/>
    <path fill="#f8f8f8" d="M43.914 112.555c-8.91-6.047-16.254-11.047-16.316-11.114-.149-.16-14.61-88.363-14.504-88.468.047-.047 21.25-.063 47.125-.04l47.043.04-7.235 44.086c-3.98 24.246-7.265 44.164-7.304 44.257-.047.133-29.72 20.375-32.176 21.957l-.43.278ZM63.84 76.937v-4.105h24.644v-7.227H70.75l1.219-1.28c4.238-4.47 10.457-8.66 16.59-11.192.902-.371 1.671-.703 1.703-.735.031-.03-.328-.453-.801-.937-.98-1.008-2.988-3.465-3.773-4.617-.29-.43-.563-.782-.606-.782s-.988.454-2.102 1.004c-3.816 1.895-7.394 4.196-10.539 6.786-2.046 1.683-5.785 5.359-7.25 7.125l-1.27 1.527-.085-14.633h-8.102v11.473L52.47 57.53c-6.074-3.37-13.14-7.543-17.29-10.203-.98-.629-1.804-1.117-1.835-1.082-.028.035-.809 1.649-1.735 3.582-1.254 2.625-1.629 3.55-1.468 3.652 1.433.899 16.507 8.172 22.597 10.903l2.54 1.14-12.258.043-12.258.04v7.226h24.972v8.211h8.106Zm16.207-43.109V21.266h-7.774v2.3H47.301v-1.808h-8.106V46.39h40.852Zm0 0"/>
    <path fill="#f8f8f8" d="M47.3 34.977v-4.352h24.973v8.703H47.301Zm0 0"/>
</svg>
