<svg xmlns="http://www.w3.org/2000/svg" width="120" height="120" viewBox="0 0 120 136">
    <path fill="none" stroke="red" stroke-width=".004" d="M-40 14v1.806h-5.984v1.84h4.79v1.738h-4.79v1.337h-1.965v-1.337h-4.767v-1.739h4.767v-1.84H-54V14h14m-.39 8.828h-5.594v1.505h4.421v1.74h-4.421V28h-1.965v-1.928h-4.443v-1.74h4.443v-1.504h-5.65v-1.76h13.208v1.76M-34 10l-3.794 22.768-.005.035L-38 34l-7.52 5.013-.001.001L-47 40l-9-6-.2-1.197-.005-.035L-60 10h26m-20.618 22.772v.03h.007l2.61 1.785L-47 38.003l5-3.416 2.61-1.784h.008v-.035l.778-4.768.604-3.71 2.003-12.292h-22.006L-56 24.291l1.381 8.477Zm0 0" transform="matrix(4.29492 0 0 4.26451 261.99 -38.38)"/>
    <path fill="red" d="m40.84 119.297-19.278-12.762-8.55-50.969C8.309 27.536 4.46 4.543 4.46 4.476c.004-.07 25.047-.124 55.656-.124 49.461 0 55.656.027 55.656.246 0 .136-3.835 23.082-8.52 50.988-4.683 27.91-8.515 50.781-8.515 50.824 0 .047-8.691 5.836-19.312 12.867L60.117 132.06Zm35.648-6.57c8.91-6.051 16.258-11.055 16.32-11.122.067-.066 3.36-19.886 7.325-44.046 3.96-24.16 7.246-44.133 7.3-44.38l.094-.452H12.73l.086.37c.047.204 3.325 20.137 7.286 44.298 3.957 24.16 7.214 43.988 7.238 44.062.05.176 32.562 22.262 32.777 22.266.094.004 7.457-4.946 16.371-10.996m0 0"/>
    <path fill="red" d="M56.066 76.77v-4.102h-19.02v-7.227h19.02v-6.57H31.918v-7.39h56.566v7.39H64.336v6.57h19.02v7.227h-19.02v8.207h-8.27Zm0-29.723v-2.79H35.723v-7.226h20.343v-8.047H30.102V21.43h60.035v7.554H64.328l.047 3.98.043 3.985 10.297.043 10.293.043v7.223H64.336v5.582h-8.27Zm0 0"/>
    <path fill="#f8f8f8" d="M43.914 112.555c-8.91-6.047-16.254-11.047-16.316-11.114-.149-.16-14.61-88.363-14.504-88.468.047-.047 21.25-.063 47.125-.04l47.043.04-7.235 44.086c-3.98 24.246-7.265 44.164-7.304 44.257-.047.133-29.72 20.375-32.176 21.957l-.43.278ZM64.5 76.937v-4.105h19.02v-7.555H64.5v-6.242h24.148v-7.719H31.754v7.72h24.148v6.241h-19.02v7.555h19.02v8.211H64.5Zm0-29.726v-2.79h20.676v-7.718H64.5v-7.555h25.8v-7.882H29.935v7.882h25.968v7.555H35.56v7.719h20.343v5.582H64.5Zm0 0"/>
</svg>
