<svg xmlns="http://www.w3.org/2000/svg" width="120" height="120" viewBox="0 0 120 120">
    <path fill="red" stroke="red" stroke-width=".004" d="m-60.978-27.588.658-.114.713-.101.766-.082.823-.062.674-.03.206-.009.938-.013 1.414.08 1.25.263 1.047.474.8.71.151.291.127.243.213.408.019.036.081.577.049.341.048.354-.082.887-.24.813-.319.637-.055.111-.494.693-.34.37-.214.23-.042.046-.46.416-.218.194.06.126.015.033.011.025.006.013.125.265.131.279.35.788.349.825.35.857.092.23.256.642.342.882-1.826.835-.035.015-.02.01-.295-.859-.307-.83-.276-.695-.04-.1-.318-.756-.317-.712-.294-.637-.005-.006-.004-.011-.004-.009-.613.389-.606.373-.58.351-.426.256-.113.066-.476.285-.397.242-.27.182-.128.087-.123.084-.234.165-.219.164-.205.165-.194.172-.006-.012-.392-.738-.618-1.168-.011-.02.226-.151.232-.15.222-.135.02-.013.248-.148.257-.149.267-.15.534-.296.651-.358.726-.41.003-.003.758-.444.756-.473.041-.028.67-.46.586-.458.505-.472.413-.488.31-.509.193-.536.07-.564-.087-.553-.032-.056-.227-.4-.431-.36-.602-.261-.772-.158-.941-.053-.803.022-.407.03-.442.032-.863.096-.845.122-.794.146-.712.157.022-2.385M-43-32l-3.8 22.802L-47-8l-7.52 5.013L-56-2l-7.225-4.815L-65-8l-.199-1.197-3.8-22.802h26m-24.004 1.997L-65-17.709l1.383 8.481v.031h.008l7.61 5.2 7.611-5.2h.007v-.031l.778-4.771.604-3.71 2.003-12.293Zm0 0" transform="matrix(3.78963 0 0 3.7628 272.333 124.173)"/>
    <path fill="#f9f9f9" d="M45.766 99.285a5552 5552 0 0 1-14.375-9.77c-.032-.027-2.899-17.363-6.371-38.523-3.473-21.164-6.356-38.73-6.407-39.031l-.093-.555h41.554c38.32 0 41.551.016 41.551.239 0 .273-12.652 77.507-12.738 77.742-.043.117-28.38 19.441-28.715 19.582-.047.015-6.531-4.336-14.406-9.684m28.02-29.176c1.734-.78 3.335-1.515 3.55-1.629l.402-.199-.3-.777c-1.77-4.629-5.008-12.36-6.676-15.93l-.918-1.969.863-.757c2.762-2.426 5.277-5.493 6.516-7.938.898-1.785 1.558-4.094 1.757-6.2.149-1.53.13-1.96-.175-4.124l-.336-2.418-.992-1.844c-.93-1.746-1.063-1.918-2.473-3.176-1.352-1.199-1.688-1.41-3.504-2.226-1.715-.77-2.41-.985-4.629-1.457l-2.61-.555-5.964-.012c-5.922-.015-7.656.07-11.86.594-2.128.262-5.058.738-5.16.836-.039.04-.109 2.117-.16 4.621-.094 4.446-.09 4.559.188 4.473 1.535-.465 6.433-1.313 9.906-1.711 11.387-1.313 17.383-.18 19.352 3.668.546 1.07.554 1.125.55 2.738-.008 1.418-.066 1.805-.418 2.762-1.058 2.875-3.246 5.406-7.187 8.309-2.844 2.093-6.223 4.14-13.145 7.96-4.476 2.473-7.297 4.133-8.226 4.848-.055.043 3.449 6.715 3.777 7.203.156.23.262.18 1.055-.484 1.453-1.219 4.258-3.074 8.043-5.324a402 402 0 0 0 5.949-3.594c1.328-.82 2.422-1.406 2.496-1.34.473.469 4.422 9.887 5.953 14.191 1.05 2.961 1.024 2.887 1.13 2.887.05 0 1.515-.64 3.245-1.426m0 0"/>
</svg>
