<svg xmlns="http://www.w3.org/2000/svg" width="120" height="120" viewBox="0 0 120 120">
    <path fill="red" stroke="red" stroke-width=".004" d="m-21 72.852-.294.607-.082.27-.12.39-.129.687-.07.692-.013.278-.018.401-.006.638v2.941h-5.665v-5.923l.004-.105.008-.232.04-.29.076-.246.115-.21.163-.171.219-.141.148-.069.103-.048.28-.08.31-.052.332-.03.01-.002.373-.014.384-.004h.02l.052.252.06.21.016.058.094.275.014.035.092.233.111.25.107.215.003.006-.239-.013-.074-.004-.164-.005-.22-.004-.18.001h-.015l-.156.005-.104.009-.078.004-.06.013-.045.024-.001.002-.019.023-.011.013-.018.052-.005.072v1.204l.365-.206.36-.2.351-.192.006-.003.352-.192.343-.187.333-.182.353.971.038.105.018.054.061-.544.088-.54.05-.225.067-.302.15-.506.187-.478.001-.003.137-.265.04-.077.023-.047.012-.022.009-.018.005-.01.165.138.212.16.241.164.249.157.235.135.108.052.093.046m-2.19 2.999.004-.075.007-.176.014-.255v.002l-.048.015-.09.03-.21.07-.384.135-.41.15-.082.03-.187.069-.166.061-.45.17-.176.067-.284.107v.97l.686-.86.003-.003.23.121.157.081.116.06.302.148.318.15.32.146.272.117.015.007.007.003.01.004.006.004h.002v-.416l.001-.218.003-.23.006-.238.009-.246M-21 81.834h-1.39l.021.086.028.118.057.208.06.205.061.194.004.01.064.196.061.187-1.27.298h2.067v1.46h-2.488l.04.14.045.14.045.142.048.138.047.134.045.126-1.12.27-.474.115-.086-.193-.081-.2-.078-.206-.072-.206-.067-.203-.057-.198h-2.241v-1.46h2.186l-1.079-.236-.374-.082.374-.823.125-.274.039-.086h-1.466v-1.46H-21v1.46m-3.172-3.914-.242-.095-.075-.03-.087-.038-.236-.098-.313-.138-.285-.134-.242-.124v1.226h2.444v-1.247l-.493.583-.174.205-.297-.11m-4.345 2.614h-3.877v.821h3.877v4.538h-1.755v-.99h-4.416v-1.417h4.416v-.832h-3.834v-3.43h3.834v-.587h-3.846v-1.01h3.846v-.618h-3.77v-1.003h3.77v-.608h-3.92v-1.022l-.142-.051-.141-.049-.14-.043-.137-.039-.13-.034-.118-.03.067-.402.042-.26.18-.506.264-.365.364-.242.478-.133.608-.04h2.262l.752.039.574.13.416.243.278.376.043.154.046.163.062.214.006.094.01.133.031.478v6.328m4.646 1.522-.029-.136-.018-.086h-1.034l-.029.086-.054.16-.084.257-.083.26-.075.258-.066.248-.051.233h1.939l-.096-.25-.094-.26-.086-.266-.077-.258-.063-.246M-15 68l-3.8 22.802L-19 92l-7.52 5.013L-28 98l-7.225-4.815L-37 92l-.199-1.197-3.8-22.802h26m-15.972 5.576h-1.874l-.187.015-.145.05-.1.086-.01.01-.08.147-.06.21-.042.28h3.198v-.17l-.011-.235-.04-.17-.049-.072-.028-.041-.129-.068-.186-.033-.257-.01m-8.032-3.578L-37 82.291l1.383 8.481v.031h.008l7.61 5.2 7.611-5.2h.007v-.031l.778-4.771.604-3.71 2.003-12.293Zm0 0" transform="matrix(3.78963 0 0 3.7628 166.223 -252.108)"/>
    <path fill="#f9f9f9" d="M45.766 99.285A8288 8288 0 0 1 31.39 89.52c-.051-.047-12.832-77.7-12.844-78.004 0-.063 18.691-.11 41.539-.11 38.133 0 41.539.016 41.539.239 0 .265-12.652 77.507-12.734 77.738-.043.117-28.387 19.445-28.723 19.586-.043.015-6.527-4.336-14.402-9.684M74.3 70.867c1.535-.367 2.867-.695 2.965-.73.12-.043.027-.508-.317-1.516l-.492-1.457 4.68-.035 4.68-.043v-5.621l-7.235-.031 2.078-.504c1.14-.278 2.094-.524 2.117-.547.024-.02-.215-.836-.527-1.813-.316-.972-.617-1.988-.676-2.254l-.11-.48h5.247v-5.629H60.309v5.621l2.746.043 2.742.04-.95 2.073c-.523 1.141-.952 2.141-.956 2.223 0 .082 1.09.395 2.422.688l2.425.542-3.84.012-3.843.016v5.62l4.254.044 4.254.035.574 1.633c.746 2.098 1.031 2.738 1.215 2.738.09 0 1.41-.3 2.949-.668m-16.078-8.293V53.91H43.605v-2.96h14.633l-.054-13.294c-.055-13.285-.055-13.297-.387-14.258-.73-2.113-1.887-3.105-4.274-3.648-1.066-.246-1.914-.273-7.832-.273-5.953 0-6.738.027-7.605.27-2.5.687-3.711 2.276-4.328 5.651-.153.817-.262 1.485-.25 1.489.8.215 2.379.683 2.68.797l.406.152v3.86h14.765v2.07H37.191v4H51.36v2.074H36.891v4h14.468v2.074H36.891v13.031h14.468v2.965H34.652v5.477H51.36v1.828c0 1.004.043 1.87.102 1.926.055.054 1.598.097 3.426.097h3.336Zm25.699-22.328c.055-4.336.168-8.52.258-9.293.367-3.223.957-5.535 1.953-7.68.543-1.168.601-1.5.27-1.5-.227 0-2.337-1.304-3.532-2.175-.594-.434-1.137-.79-1.207-.79-.184 0-1.137 2.114-1.68 3.72-.511 1.515-1.129 4.312-1.273 5.757-.05.531-.137 1.05-.191 1.152-.055.102-.395-.628-.75-1.628-.352-1-.668-1.84-.692-1.868-.05-.058-1.871.899-5.547 2.914l-2.422 1.332v-2.34c0-1.992.04-2.367.25-2.542.188-.153.793-.196 2.61-.18 1.297.016 2.363.008 2.363-.016 0-.023-.227-.535-.5-1.132-.484-1.055-1.32-3.45-1.512-4.336l-.093-.434-2.118.098c-3.308.152-5.058.644-6.332 1.785-.836.75-1.215 1.723-1.382 3.539-.153 1.719-.2 23.258-.047 23.406.054.055 4.91.098 10.793.098h10.691Zm0 0"/>
    <path fill="#f9f9f9" d="M39.605 26.918c.172-.945.536-1.602 1.024-1.852.277-.14 1.539-.18 5.172-.148 4.754.035 4.808.039 5.14.371.266.266.344.54.395 1.367l.059 1.04H39.469Zm30.547 34.359c0-.293.692-2.73 1.164-4.105l.43-1.262 3.738-.086.262 1.082c.145.59.524 1.824.84 2.742.32.914.578 1.7.578 1.743 0 .039-1.578.074-3.504.074-2.707 0-3.508-.043-3.508-.188m5.371-24.23c-1.355-.633-2.789-1.34-3.187-1.574-.633-.364-.754-.391-.895-.203-.527.699-2.238 2.792-2.28 2.792-.028 0-.052-.718-.052-1.597V34.87l1.903-.719c2.77-1.043 7.23-2.62 7.27-2.574.077.102-.122 6.633-.204 6.625-.05-.004-1.2-.523-2.555-1.156m-6.413 3.911v-2.14l1.304.601c1.14.523 5.203 2.2 5.328 2.2.028 0 .59-.641 1.258-1.423l1.207-1.422v4.325h-9.098Zm0 0"/>
</svg>
