<svg xmlns="http://www.w3.org/2000/svg" width="120" height="120" viewBox="0 0 120 136">
    <path fill="none" stroke="red" stroke-width=".004" d="M-70.782 14v1.687h-5.241v1.928h3.804v1.652h-3.804v1.813h3.086v1.366l.316-.225.314-.215.311-.204.31-.194.305-.183.197-.112.052-.03.03-.017.017-.01.007-.004.14.244.163.264.18.273.193.268.18.227.02.026.074.083.082.09.046.052-.827.409-.843.497-.839.57-.418.321-.401.307-.4.345-.379.326-.722.702h1.955V28h-5.02l-.718-.999-.874-.972-1.001-.915-.714-.538-.39-.293-.33-.201-.849-.518-1.031-.485-.078-.037-.055-.026-.03-.014-.023-.01-.013-.007.197-.234.213-.279.216-.306.208-.316.186-.311.153-.287.315.166.312.175.28.167.029.017.307.195.304.203.302.214V21.08h3.138v-1.813h-3.846v-1.652h3.846v-1.928h-5.431V14h12.49m-3.231 9.284.284-.226.379-.302h-7.133l.665.532.637.56.608.58.142.148.433.451.537.611.427.531.046.056.024.031.513-.619.56-.613.447-.448.152-.152.63-.582.649-.558M-64 10l-3.795 22.768-.005.035L-68 34l-7.52 5.013-.001.001L-77 40l-9-6-.2-1.197-.005-.035L-90 10h26m-20.618 22.772v.03h.007l2.61 1.785L-77 38.003l5-3.416 2.61-1.784h.008v-.035l.778-4.768.604-3.71 2.003-12.292h-22.006L-86 24.291l1.381 8.477Zm0 0" transform="matrix(4.29492 0 0 4.26451 390.838 -38.38)"/>
    <path fill="red" d="m40.84 119.297-19.278-12.762-8.55-50.969C8.309 27.536 4.46 4.543 4.46 4.476c.004-.07 25.047-.124 55.656-.124 49.461 0 55.656.027 55.656.246 0 .136-3.835 23.082-8.52 50.988-4.683 27.91-8.515 50.781-8.515 50.824 0 .047-8.691 5.836-19.312 12.867L60.117 132.06Zm35.648-6.57c8.91-6.051 16.258-11.055 16.32-11.122.067-.066 3.36-19.886 7.325-44.046 3.96-24.16 7.246-44.133 7.3-44.38l.094-.452H12.73l.086.37c.047.204 3.325 20.137 7.286 44.298 3.957 24.16 7.214 43.988 7.238 44.062.05.176 32.562 22.262 32.777 22.266.094.004 7.457-4.946 16.371-10.996m0 0"/>
    <path fill="red" d="M54.797 78.781c-5.121-7.11-13.703-14.152-21.758-17.863a115 115 0 0 1-2.55-1.195c-.18-.102-.036-.371.628-1.188 1.028-1.27 2.996-4.2 3.559-5.3.308-.606.472-.77.687-.692.715.27 3.61 1.95 5.559 3.234l2.16 1.422.094-5.554h13.386v-7.88H40.024v-6.898h16.54v-8.375h-23.32V21.43h53.421v7.062H64.172v8.375h16.371v6.899H64.172v7.879h13.387l.046 2.87.043 2.868 2.067-1.399c2.215-1.496 5.543-3.515 5.8-3.515.087 0 .157.062.157.14 0 .25 2.906 4.504 3.637 5.325.386.433.671.816.636.855-.035.035-.707.356-1.488.715-5.137 2.344-12.215 7.422-17.832 12.785l-1.41 1.352 4.258.004 4.257.007v7.227H56.31Zm6.492-6.238c3.61-4.254 7.11-7.691 11.469-11.273a239 239 0 0 0 2.73-2.27l.508-.445-15.437-.008c-9.028 0-15.414.058-15.38.144.028.079.688.649 1.462 1.266 4.34 3.45 9.004 8.07 12.547 12.422.57.7 1.062 1.273 1.097 1.273.031 0 .485-.5 1.004-1.109m0 0"/>
    <path fill="#f8f8f8" d="M43.914 112.555c-8.91-6.047-16.254-11.047-16.316-11.114-.149-.16-14.61-88.363-14.504-88.468.047-.047 21.25-.063 47.125-.04l47.043.04-7.235 44.086c-3.98 24.246-7.265 44.164-7.304 44.261-.051.13-29.727 20.38-32.176 21.953l-.43.278Zm33.984-35.29v-3.777h-8.175l.984-1c1.328-1.34 4.89-4.386 7.023-6.008 3.567-2.707 6.555-4.605 10.301-6.543l2.281-1.175-.984-1.164c-.973-1.157-2.863-3.899-3.39-4.926-.153-.293-.31-.531-.352-.531-.184 0-3.82 2.218-5.746 3.511l-2.11 1.41V51.48H64.336v-7.55H80.71v-7.227H64.336v-8.047h22.656v-7.39H33.078v7.39h23.32v8.047H39.86v7.227H56.4v7.55H43v5.43l-1.695-1.129c-1.828-1.215-4.102-2.57-5.41-3.23l-.82-.41-.442.777c-.93 1.633-1.832 2.98-3.242 4.852l-1.457 1.937 1.035.469c3.21 1.453 4.426 2.082 6.758 3.492 6.656 4.031 12.886 9.656 16.933 15.293l1.488 2.07 10.875.004 10.875.008Zm0 0"/>
    <path fill="#f8f8f8" d="M59.367 72.277c-3.094-3.93-7.855-8.664-12.312-12.25a157 157 0 0 1-1.559-1.257c-.039-.036 6.695-.06 14.969-.06l15.035.009-.43.363c-.234.2-1.425 1.176-2.644 2.168-2.567 2.09-8.93 8.313-10.844 10.605l-1.309 1.57Zm0 0"/>
</svg>
