<svg xmlns="http://www.w3.org/2000/svg" width="120" height="120" viewBox="0 0 120 120">
    <path stroke="red" stroke-width=".004" d="m89.626 72 .164.193.218.225.252.238.264.226.253.198.223.149-.625.5-.263.21-.113.09-.702.886-.454.938-.26.963-.117.96v.049l-.026.876v2.212l.137-.111.14-.107.142-.105.145-.104.146-.101.066-.046.039-.028.027-.018.015-.011.173.219.22.24.246.244.176.156.08.072.251.2.228.152-.52.355-.039.027-.424.29-.87.722-.76.755-.65.77-.543.768-.434.749-.415-.068-1.664-.264.107-.184.053-.093.055-.09.057-.091.057-.087h-3.23l-.305.064-1.327-.78.19-.295.206-.303.218-.309.231-.311.238-.313.244-.308H77v-8.517l.016-.324.008-.114.07-.366.13-.304.19-.248.26-.197.336-.157.408-.115.473-.081.543-.054.438-.022.175-.01.686-.014.661-.003h.104l.071.265.106.294.126.306.119.25.026.053.147.283.137.234.008.014-.318-.014h-.007l-.256-.011-.581-.015-.55-.005-.484-.001h-.17l-.218.002-.258.001-.153.011-.07.018-.05.011-.09.047-.061.072-.035.098-.012.128v1.176h8.152l.243-.613.308-.594.218-.325.163-.242.455-.535.538-.499.404-.294.1-.07.05-.039.035-.023.021-.016.014-.01m-3.042 5.956.008-.131.005-.103.018-.236.022-.236.027-.237.038-.236h-2.937v1.41h2.807l.012-.23m-.606 5.348.038-.046.116-.142.157-.186.163-.184.167-.178h-3.36l-.13.172-.132.18-.132.188-.129.19-.123.194-.116.189h3.183l.147-.188.15-.19M97 68.002l-3.8 22.802L93 92l-7.52 5.013L84 98l-7.225-4.815L75 92l-.199-1.197L71 68.001h26M81.92 78.188v-1.411h-2.995v1.41h2.995m-8.924-8.189L75 82.291l1.383 8.481v.031h.008l7.61 5.2 7.611-5.2h.007v-.031l.778-4.771.604-3.71 2.003-12.293H72.996m13.02 9.674h-2.251v1.348h2.795v-1.348h-.544m-4.095 0h-2.996v1.348h2.996Zm0 0" transform="matrix(3.78963 0 0 3.7628 -258.215 -252.108)"/>
    <path fill="#f9f9f9" d="M45.766 99.285a5552 5552 0 0 1-14.375-9.77c-.032-.027-2.899-17.363-6.371-38.523-3.473-21.164-6.356-38.73-6.407-39.031l-.093-.555h41.554c38.32 0 41.551.016 41.551.239 0 .273-12.652 77.503-12.734 77.738-.043.117-28.387 19.445-28.723 19.586-.043.015-6.527-4.336-14.402-9.684m24.488-29.191c3.148-5.317 7.965-10.336 13.433-14 .997-.672 1.82-1.254 1.825-1.293.004-.043-.313-.27-.703-.512-.391-.238-1.602-1.32-2.696-2.406l-1.988-1.973-.695.473c-.387.258-1.094.765-1.575 1.133l-.875.66.082-6.055c.083-6.68.208-8.05.989-10.922 1.136-4.176 3.308-7.441 6.758-10.172 1.046-.828 1.902-1.55 1.902-1.605 0-.059-.211-.23-.465-.379-.766-.45-3.043-2.402-3.922-3.371-.527-.578-.898-.871-1.039-.817-.597.23-2.715 1.946-4.043 3.278a22.7 22.7 0 0 0-5.074 7.746l-.422 1.074H40.918v-2.2c0-1.206.074-2.401.16-2.651.274-.782.473-.805 6.692-.75 3.12.027 5.68.03 5.68.003 0-.02-.458-.953-1.013-2.07s-1.18-2.558-1.378-3.2l-.371-1.167-4.25.086c-4.45.09-5.868.215-7.81.695-1.667.414-2.667.91-3.503 1.738-.887.88-1.305 1.907-1.512 3.708-.09.785-.148 7.62-.152 17.398v16.105h15.668l-1.02 1.297c-2.015 2.563-4.007 5.465-3.855 5.621.055.051 1.21.746 2.57 1.536 2.332 1.351 2.5 1.43 3.02 1.308.297-.07 3.277-.129 6.617-.133h6.07l-.601.977c-.328.539-.575.996-.547 1.023.066.067 7.14 1.223 7.61 1.243.362.011.5-.145 1.26-1.426m0 0"/>
    <path fill="#f9f9f9" d="M54.95 62.094c.187-.305.8-1.203 1.362-2l1.028-1.446h6.183c3.403 0 6.184.043 6.184.09s-.371.489-.816.985a44 44 0 0 0-1.61 1.902l-.781 1.004-5.941.012-5.942.007Zm4.316-11.887v-2.52h10.441v5.036H59.266Zm0-10.734v-2.594h10.992l-.117.703c-.067.387-.164 1.55-.223 2.594l-.11 1.886H59.267Zm-18.348 0v-2.594h11.187v5.184H40.918Zm0 10.734v-2.52h11.187v5.036H40.918Zm0 0"/>
</svg>
