<svg xmlns="http://www.w3.org/2000/svg" width="120" height="120" viewBox="0 0 120 120">
    <path stroke="red" stroke-width=".004" d="M-21.653 38v1.648h-2.884l.136.367.177.405.203.427.057.113.165.32.234.424.24.4-1.149.5h2.115v1.616h-4.653v1.582h2.97v.741l.311-.15.312-.144.31-.14.315-.132.318-.13.16-.06.058-.022.048-.019.033-.012.018-.008.14.278.173.29.196.295.212.289.183.226.036.046.13.144.089.1-1.36.47-1.307.587-.909.524-.308.177-.01.005-1.114.828-.966.946-.307.412-.178.24-.154.208-.155.21-1.653-.764.067-.104.134-.202.067-.101.07-.102.072-.104-.788-.656-.914-.631-.317-.185-.691-.405-1.046-.517-.025-.012-1.104-.456-.899-.299-.089-.029-.045-.016-.033-.01-.024-.008-.014-.005.206-.22.22-.258.221-.28.212-.285.188-.276.153-.252.329.126.328.134.331.144.045.02.288.13.33.157.328.162v-.895h2.947V44.22h-4.663v-1.615h2.304l-1.462-.557.263-.425.263-.427.149-.236.117-.186.26-.404.25-.38.236-.342h-3.147v-1.647h12.651m-8.074 2.061-.232.372-.236.416-.057.11-.177.334-.218.45-.197.444-.167.417h2.137v-2.957h-1.83l.933.395.029.012.015.007m4.176 1.304-.207-.406-.007-.013-.177-.396-.132-.358 1.2-.545h-2.138v2.957h2.211l-.257-.394-.255-.418-.238-.427m-2.832 7.708.085.078.298.272.268-.272.093-.094.375-.35.39-.334.402-.32.414-.303.427-.29h-4.894l.452.3.443.314.43.322.417.335.11.094.29.248M-15 34.001l-3.8 22.802L-19 58l-7.52 5.013L-28 64l-7.225-4.815L-37 58l-.199-1.197-3.8-22.802h26m-24.004 1.997L-37 48.291l1.383 8.481v.031h.008l7.61 5.2 7.611-5.2h.007v-.031l.778-4.771.604-3.71 2.003-12.293Zm0 0" transform="matrix(3.78963 0 0 3.7628 166.223 -124.173)"/>
    <path fill="#f9f9f9" d="M45.766 99.285a5552 5552 0 0 1-14.375-9.77c-.032-.027-2.899-17.363-6.371-38.523-3.473-21.164-6.356-38.73-6.407-39.031l-.093-.555h41.554c38.32 0 41.551.016 41.551.239 0 .273-12.652 77.507-12.738 77.742-.043.117-28.38 19.441-28.715 19.582-.047.015-6.531-4.336-14.406-9.684m16.558-29.422c4.399-6.129 12.324-11.496 21.719-14.71 1.344-.458 2.492-.88 2.555-.934.058-.051-.336-.625-.887-1.278-1.043-1.238-2.664-3.605-3.113-4.546-.149-.305-.32-.56-.387-.56-.211 0-2.988 1.138-5.008 2.052l-1.98.894v-2.648H63.887v-5.774h17.75v-6.218l-3.875-.036-3.883-.042 2.016-.868c1.109-.48 2.015-.902 2.015-.933 0-.04-.34-.64-.754-1.336-1.36-2.29-3.722-7.196-3.722-7.742 0-.106 1.699-.153 5.37-.153h5.372V18.81H36.145v6.222h5.89c3.242 0 5.895.024 5.895.059 0 .031-.528.844-1.176 1.812-1.383 2.07-4.492 7.024-4.492 7.149 0 .047 1.195.535 2.648 1.082l2.649.992-4.293.008-4.293.004.039 3.074.043 3.074 17.675.074v5.774H45.543v3.265l-1.008-.503c-1.2-.602-4.222-1.918-5.5-2.399l-.918-.348-.71 1.067a37 37 0 0 1-3.009 3.91c-.515.586-.886 1.094-.824 1.129.059.031 1.082.379 2.27.773 6.828 2.239 14.086 6.13 18.867 10.114.742.617 1.371 1.132 1.398 1.152.028.02-.297.547-.722 1.168-.422.625-.742 1.164-.707 1.195.117.117 6.156 2.871 6.3 2.871.083 0 .688-.746 1.344-1.664m0 0"/>
    <path fill="#f9f9f9" d="M58.473 60.215a66 66 0 0 0-6.055-4.653l-1.555-1.058h8.93c4.91 0 8.863.055 8.785.121-.074.066-.808.594-1.629 1.172-1.777 1.246-3.86 2.965-5.586 4.613-.691.66-1.261 1.203-1.265 1.203-.008-.004-.735-.633-1.625-1.398m5.414-29.633v-5.55h3.832c2.105 0 3.797.03 3.754.07-.04.039-.97.472-2.063.964-1.097.493-2.02.918-2.047.946-.23.23 2.246 5.242 3.707 7.5.45.687.868 1.34.926 1.441.09.149-.746.184-3.996.184h-4.113ZM48.824 36.07c0-.039.375-.925.828-1.965a56 56 0 0 1 3.235-6.234c.418-.7.687-1.293.617-1.367-.074-.067-.8-.402-1.621-.738-.82-.34-1.52-.645-1.555-.676s1.395-.059 3.168-.059h3.234v11.106h-3.953c-2.172 0-3.953-.028-3.953-.067m0 0"/>
</svg>
