<svg xmlns="http://www.w3.org/2000/svg" width="120" height="120" viewBox="0 0 120 120">
    <path stroke="red" stroke-width=".004" d="m-63.61-41.197.61.417 7 4.783 7.611-5.2h.007v-.031l.778-4.771.604-3.71 2.003-12.293h-22.007L-65-49.71l1.383 8.482v.031h.008M-69-63.999h26l-3 18-.8 4.802L-47-40l-7.52 5.013L-56-34l-7-4.666-.225-.15L-65-40l-.199-1.197-3.8-22.802m20 5.964h-5.987v4.29h4.528v1.975h-4.528v3.782h5.252V-46H-62.21v-1.99h5.287v-3.781h-4.685v-1.976h4.685v-4.29H-63V-60h14Zm0 0" transform="matrix(3.78963 0 0 3.7628 272.333 244.582)"/>
    <path fill="#f9f9f9" d="M45.766 99.285a5552 5552 0 0 1-14.375-9.77c-.032-.027-2.899-17.363-6.371-38.523-3.473-21.164-6.356-38.73-6.407-39.031l-.093-.555h41.554c38.32 0 41.551.016 41.551.239 0 .273-12.652 77.507-12.738 77.742-.043.117-28.38 19.441-28.715 19.582-.047.015-6.531-4.336-14.406-9.684m38.113-31.527V63.98h-19.84V49.91h17.156v-7.7H64.04V26.216h22.672V18.81H33.46v7.406h23.121V42.21h-17.75v7.7h17.75v14.07H36.445v7.554H83.88Zm0 0"/>
</svg>
