<svg xmlns="http://www.w3.org/2000/svg" width="120" height="120" viewBox="0 0 120 120">
    <path stroke="red" stroke-width=".004" d="M60.42 6v5.918l.23-.111.225-.105.228-.1.228-.092.108-.04.125-.046.182-.06.03-.01.016-.006.01-.003.155.232.187.265.212.28.134.166.05.063.036.046.22.252.204.21-.46.145-.332.106-.784.3-.764.349-.733.388-.69.424-.635.452h3.938v1.6h-5.694v1.05l.498-.04.18-.015.677-.049.672-.041.667-.033.662-.028.49-.015.053-.002.038-.001.033-.001h.026l.017-.001.035.238.058.262.073.275.084.27.09.256.044.11.03.078.014.036-1.656.08-1.676.116-.611.058-1.034.098-1.305.16-.253.03-1.422.227-.082.018-1.144.242-1.252-1.429.635-.15.663-.136.685-.124.413-.065.296-.047.723-.102.738-.09v-1.234h-5.727v-1.601h3.575l-.737-.42-.723-.432-.691-.433-.641-.424-.574-.405-.335-.257-.152-.117.152-.199.037-.048.793-1.04.04-.053.027-.034.608.512.526.394.22.164.08.057.763.528.906.589.096.058.835.511.922.53v-2.142h1.841v2.143l.489-.483.009-.007.513-.45.553-.43.578-.405.6-.373.125-.07.396-.219.096-.054h-9.022V6.022h1.863v.443h5.598V6h1.776M69 2l-3.8 22.802L65 26l-7.52 5.013L56 32l-7.225-4.815L47 26l-.199-1.197L43 2.001h26M44.996 3.998 47 16.291l1.383 8.481v.031h.008l7.61 5.2 7.611-5.2h.007v-.031l.778-4.771.604-3.71 2.003-12.293H44.996m13.648 3.809h-5.598v.834h5.598v-.834m0 2.867v-.822h-5.598v.822Zm0 0" transform="matrix(3.78963 0 0 3.7628 -152.106 -3.763)"/>
    <path fill="#f9f9f9" d="M45.766 99.285a5552 5552 0 0 1-14.375-9.77c-.032-.027-2.899-17.363-6.371-38.523-3.473-21.164-6.356-38.73-6.407-39.031l-.093-.555h41.554c38.32 0 41.551.016 41.551.239 0 .273-12.652 77.507-12.738 77.742-.043.117-28.38 19.441-28.715 19.582-.047.015-6.531-4.336-14.406-9.684m1.875-28.183c6.613-1.438 18.156-2.711 29.504-3.262 1.59-.074 2.918-.172 2.957-.207.039-.04-.204-.906-.54-1.926-.332-1.02-.683-2.32-.785-2.89l-.18-1.04-1.5.067c-6.699.289-9.933.476-12.722.742l-.934.086v-3.875h21.477v-6.07l-14.688-.075 1.938-1.28c4.172-2.75 8.742-4.915 13.238-6.27.715-.215 1.305-.442 1.305-.5 0-.063-.211-.313-.469-.551-.613-.567-2.644-3.082-3.43-4.25l-.652-.965c-.058-.078-2.207.738-3.637 1.383l-1.433.644-.04-11.023-.038-11.031h-7.008v1.628H48.973V18.81h-7.16v22.68l-.93-.704a83 83 0 0 1-2.074-1.637c-.625-.52-1.2-.933-1.266-.93-.137.009-4.129 5.184-4.05 5.243 2.503 1.965 6.948 4.902 10.855 7.191a358 358 0 0 1 3.058 1.797c.438.266.309.27-6.226.274h-6.676v6.074H56.28v2.297c0 1.855-.039 2.293-.207 2.293-1.722 0-14.101 2.129-15.34 2.633-.21.09.172.593 2.141 2.812 1.316 1.488 2.477 2.703 2.578 2.703.098 0 1.086-.195 2.188-.437Zm0 0"/>
    <path fill="#f9f9f9" d="M55.164 50.04c-3.133-1.833-5.293-3.138-7.16-4.33-2.211-1.417-5.52-3.683-5.887-4.034-.187-.176 2.121-.207 16.707-.207l16.922.004-.672.382c-4.46 2.567-7.386 4.672-10.254 7.38l-1.379 1.304v-7.887H56.29l-.043 4-.039 3.996Zm-6.191-15.235v-1.48h21.03v2.96h-21.03Zm0-7.629V25.62h21.03v3.11h-21.03Zm0 0"/>
</svg>
