<svg xmlns="http://www.w3.org/2000/svg" width="120" height="120" viewBox="0 0 120 136">
    <path fill="none" stroke="red" stroke-width=".004" d="M15.16 16.177h-3.865v1.768h2.912v1.638h-2.912v1.39H9.484v-1.39H6.572v-1.638h2.912v-1.768H6v-1.681h9.16v1.68m1.049 0V14h1.588v5.788l.203-.6.216-.576.075-.18.152-.366.238-.508.248-.463.162-.26.037-.06.02-.032.016-.025.013-.02.008-.014.096.272.124.309.144.327.153.324.153.304.117.212.028.051-.435.65-.41.776-.25.571-.128.294-.34.918-.293.937-.24.92h1.64v1.65h-1.747V28h-1.588v-2.79h-1.6v-1.661h1.6v-.485l-.254-.368-.32-.488-.346-.54-.33-.526-.277-.444-.131-.218-.047-.078.683-.819.306-.366.007-.01.01-.011.007-.007.003-.005.084.225.1.252.113.271.124.284.119.264.012.028.137.293v-4.624m-1.737 5.25v1.637h-3.177v1.54h2.732v1.607h-2.732v1.692H9.484v-1.692h-2.7v-1.606h2.7v-1.54H6.18v-1.639h8.292M26 10l-3.795 22.768-.005.035L22 34l-7.52 5.013-.001.001L13 40l-9-6-.2-1.197-.005-.035L0 10h26M5.382 32.772v.03h.007L8 34.588l5 3.415 5-3.416 2.61-1.784h.008v-.035L21.397 28 22 24.29l2.003-12.292H1.997L4 24.291l1.381 8.477Zm0 0" transform="matrix(4.29492 0 0 4.26451 4.295 -38.38)"/>
    <path d="m40.84 119.297-19.278-12.762-8.55-50.969C8.309 27.536 4.46 4.543 4.46 4.476c.004-.07 25.047-.124 55.656-.124 49.461 0 55.656.027 55.656.246 0 .136-3.835 23.082-8.52 50.988-4.683 27.91-8.515 50.781-8.515 50.824 0 .047-8.691 5.836-19.312 12.867L60.117 132.06Zm35.648-6.57c8.91-6.051 16.258-11.055 16.32-11.122.067-.066 3.36-19.886 7.325-44.046 3.96-24.16 7.246-44.133 7.3-44.38l.094-.452H12.73l.086.37c.047.204 3.325 20.137 7.286 44.298 3.957 24.16 7.214 43.988 7.238 44.062.05.176 32.562 22.262 32.777 22.266.094.004 7.457-4.946 16.371-10.996m0 0"/>
    <path d="M73.93 74.965v-5.91h-6.782v-6.899h6.782v-2.281l-1.875-2.84c-2.29-3.48-4.832-7.512-5.086-8.066-.176-.383-.059-.567 1.836-2.813 1.113-1.324 2.062-2.367 2.105-2.324.047.047.547 1.176 1.11 2.512.566 1.336 1.222 2.797 1.46 3.25l.434.82.016-28.984h6.777l.043 12.36.043 12.355.473-1.395c1.324-3.895 3.515-8.8 4.87-10.906.5-.778.52-.79.673-.41.082.218.312.8.507 1.296.196.5.883 1.993 1.532 3.32l1.175 2.419-.996 1.523c-2.855 4.367-5.746 11.45-7.484 18.305-.184.738-.383 1.457-.438 1.601-.09.23.286.258 3.473.258h3.574v6.899h-7.441v11.82H73.93Zm-28.778 1.973v-3.614H33.574V66.59h11.578v-6.735H30.926v-6.73H66.32v6.73H52.758v6.735H64.5v6.734H52.758v7.223h-7.606Zm0-28.903v-2.957h-12.57V38.18h12.57v-7.72h-15.05v-6.894h39.195v6.895h-16.54v7.719h12.407v6.898H52.758v5.91h-7.606Zm0 0"/>
    <path fill="#f8f8f8" d="M43.914 112.555c-8.91-6.047-16.254-11.047-16.316-11.114-.149-.16-14.61-88.363-14.504-88.468.047-.047 21.25-.063 47.125-.04l47.043.04-7.235 44.086c-3.98 24.246-7.265 44.164-7.304 44.257-.047.133-29.72 20.38-32.176 21.957l-.43.278Zm36.961-37.426v-5.91h7.441v-7.227h-3.472c-1.977 0-3.473-.066-3.473-.148 0-.285.86-3.395 1.524-5.516 1.835-5.86 4.101-10.922 6.44-14.402l.962-1.426-1.207-2.45c-.664-1.347-1.461-3.09-1.766-3.87-.304-.782-.597-1.418-.652-1.418-.16 0-1.406 2.101-2.29 3.86-1.003 2.007-1.835 3.976-2.777 6.566l-.714 1.972-.008-11.945-.008-11.95h-7.113L73.75 35.43l-.016 14.164-.558-1.149a63 63 0 0 1-1.336-3.082c-.43-1.058-.836-1.93-.903-1.93-.093 0-3.152 3.567-4.257 4.962-.192.242.023.667 1.722 3.367a345 345 0 0 0 3.653 5.656c1.699 2.555 1.707 2.574 1.707 3.57v1.004H66.98v7.227h6.782v11.824h7.113Zm-27.95 1.973v-3.614h11.743v-7.062H52.926V60.02h13.558v-7.06H30.762v7.06h14.222v6.406H33.41v7.062h11.574v7.223h7.942Zm0-28.903v-2.957h12.403v-7.226H52.926v-7.391h16.539v-7.223H29.934v7.223h15.05v7.39H32.418v7.227h12.566v5.91h7.942Zm0 0"/>
</svg>
