<svg xmlns="http://www.w3.org/2000/svg" width="120" height="120" viewBox="0 0 120 120">
    <path stroke="red" stroke-width=".004" d="m6.32 7.74-1.345.142-1.268.192-.567.118-.625.13-1.105.311-.386.145-.63.235L0 9.211l-.523.259h1.547v4.433h5.93v1.686h-2.08v3.406h-1.87v-3.406H.935V20h-1.89v-1.416H-5.41v-1.601h4.452v-1.395h-5.965v-1.686h6.11v-4.26l-.367.256-.346.273-.075.067-.246.223-.298.31-.276.332-.25.355-1.426-.522-.255-.094.255.291.042.048.311.336.32.328.32.319.13.123.19.184.312.296-1.502.909-.557-.49-.574-.535-.364-.364-.198-.197-.522-.561-.454-.546-.358-.508 1.495-.95.06-.04.007-.004.01-.007.02-.011.012-.008.01-.007.117.193.135.202.151.208.165.216.174.22.18.226.368-.457.014-.018.683-.85 1.305-1.063.247-.134 1.293-.703L0 7.287l1.215-.442 1.99-.484 1.889-.31.126-.02.08-.013.055-.01.036-.005L5.408 6l.105.29.13.307.15.309.168.301.177.281.05.069.092.126.04.057M7 10.562l-.559.396-.544.455-.519.5-.335.375-.14.158-.426.553-.36.558-.056-.018-1.858-.555.435-.67.02-.026.473-.633.535-.63.43-.455.129-.137.568-.533.48-.396.033-.028.02-.016.017-.015.01-.007.218.178.27.205.302.21.31.206.276.173.016.009.114.064.09.051.05.028M13 2.001 9.2 24.803 9 26l-7.52 5.013L0 32l-7.225-4.815L-9 26l-.199-1.197L-13 2.001h26m-24.004 1.997L-9 16.291l1.383 8.481v.031h.008l7.61 5.2 7.611-5.2h.007v-.031l.778-4.771L9 16.29l2.003-12.293Zm0 0" transform="matrix(3.78963 0 0 3.7628 60.114 -3.763)"/>
    <path fill="#f9f9f9" d="M45.766 99.285A8288 8288 0 0 1 31.39 89.52c-.051-.047-12.832-77.7-12.844-78.004 0-.063 18.691-.11 41.539-.11 38.309 0 41.539.016 41.539.239 0 .273-12.652 77.507-12.738 77.742-.043.117-28.38 19.441-28.715 19.582-.047.015-6.531-4.336-14.406-9.684m17.972-36.047v-8.293h7.606l.078 12.813 7.234.078v-12.89h7.903V48.43h-22.52V31.844l-2.797-.012-2.797-.004 1.492-.754c5.075-2.558 12.665-4.437 21.778-5.383 1.312-.136 2.406-.27 2.43-.289.023-.023-.254-.465-.614-.984-.855-1.215-1.898-3.172-2.426-4.535-.312-.805-.488-1.074-.699-1.074-.148 0-2.101.296-4.332.66-8.828 1.437-15.55 3.496-20.984 6.422-2.55 1.37-3.219 1.816-5.422 3.593C47.344 31.355 47 31.7 45.172 33.97l-1.977 2.457-1.113-1.442a39 39 0 0 1-2.305-3.27c-.03-.042-4.441 2.688-5.836 3.61l-.48.324.84 1.168a44 44 0 0 0 2.004 2.508c1.25 1.442 5.976 6.106 7.683 7.586l1.055.918 2.8-1.687c1.536-.926 2.837-1.723 2.884-1.77s-1.442-1.621-3.309-3.504c-1.871-1.879-3.371-3.441-3.332-3.48.035-.035 1.344.402 2.906.972s2.899 1.036 2.973 1.036c.066-.004.387-.38.707-.836.902-1.282 3.281-3.668 4.805-4.801.757-.567 1.414-1.028 1.46-1.028.051 0 .09 3.532.09 7.852v7.848H33.762v6.515h22.672v5.188h-16.86v6.07h16.86v5.332h7.304Zm14.617-19.586c1.899-2.37 4.465-4.8 7.09-6.699 1.438-1.043 1.38-.992 1.164-1.066-.355-.13-4.328-2.766-5.214-3.469-.504-.398-.957-.723-1-.723-.047 0-.676.489-1.395 1.082-2.492 2.063-5.715 5.461-7.898 8.32-1.122 1.47-2.766 3.946-2.68 4.036.035.031 1.695.547 3.691 1.14l3.63 1.082.995-1.46a48 48 0 0 1 1.617-2.243m0 0"/>
</svg>
