<svg xmlns="http://www.w3.org/2000/svg" width="120" height="120" viewBox="0 0 120 120">
    <path stroke="red" stroke-width=".004" d="m63-26.625-.718.75-.545.798-.238.501-.16.333-.27.856-.17.866-.092.861h1.875v1.678h-1.916v1.508l.21-.047.208-.045.205-.041.05-.009.155-.028.205-.034.011-.001.06-.01.054-.007.035-.005.028-.004.017-.003.058.208.082.227.103.233.115.233.122.22.109.175.014.024-.751.165-.417.106-.332.085-.725.211-.694.23-.558.207-.087.033-.243.102-.344.148-.13-.148-.121-.135-.818-.915v1.05h-1.706v-3.733H52.55l-.01-.346-.006-.152-.005-.186-.012-.335-.015-.333-.021-.33-.028-.33-.243-.091-.232.21-.238.222-.233.224-.225.222-.081.084-.125.129-.18.195-1.503-.771.265-.193.262-.19.26-.182.256-.175.25-.167.08-.051.099-.064.026-.017.021-.014.011-.007.004-.003-.303-.148-.295-.147-.284-.149-.263-.144-.241-.14-.212-.133.809-1.082.05-.068.01-.014.017-.022.025-.033.041.028.154.11.058.04.296.185.334.19.078.043.282.153.38.196.389.196-.16-.729-.09-.275-.12-.367-.267-.54-.33-.42-.084-.056-.32-.225-.481-.128-.086.035-.075.132-.066.215-.059.291-.051.358-.012.11-.014.134-.01.086-.005.046-.003.025v.012l-.157-.207-.166-.207-.176-.201-.175-.186-.175-.159-.017-.013-.152-.113.152-.712.004-.014.209-.562.268-.402.327-.252.384-.103.446.033.41.135.7.231.827.712.52.884.07.116.396 1.24.012.072.236 1.356.142 1.56h1.578v-6.105h1.706v6.105h1.758l.096-1.082.188-1.09.215-.744.096-.334.46-1.044.635-.993.749-.817.036-.041.029-.031.016-.018.011-.011.17.204.209.225.235.233.247.222.076.063.164.135.086.06.137.098m-13.02 6.038.373-.087.426.032.42.12.156.042.48.136.818.551.595.742.02.026.445.944.31 1.08.11.617.098.56h7.71v1.656h-9.13l-.01-.21-.016-.208-.019-.205-.018-.204-.02-.201-.021-.203-.35-.11-.233.235-.234.255-.232.264-.221.265-.203.254-.034.043-.146.194-1.481-.761h-.001l.264-.22.263-.217.26-.216.256-.21.25-.205.224-.182.015-.012.003-.002-.322-.14-.309-.139-.17-.08-.122-.059-.27-.138-.248-.136-.22-.135.68-.946.01-.014.017-.023.153-.21.01-.015.007-.012.255.16.302.168.32.17.02.01.366.186.386.19.396.19-.205-.542-.244-.478-.293-.402-.015-.013-.33-.299-.081-.043-.323-.17-.47-.1-.078.029-.074.098-.065.165-.06.223-.017.097-.036.183-.003.023-.005.028-.003.027-.037.233-.001.014-.148-.19-.163-.191-.116-.127-.056-.06-.175-.174-.173-.152-.045-.034-.12-.09.12-.49.031-.125.21-.477.266-.341.16-.105.161-.107M69-32 65.2-9.197 65-8l-7.52 5.013L56-2l-7.225-4.815L47-8l-.2-1.197L43-31.999h26M58.824-18.025l.3-.079v-1.878h-1.737v2.393l.279-.094.282-.09.288-.086.292-.084.296-.082M44.996-30.002 47-17.709l1.383 8.481v.031h.008l7.61 5.2 7.611-5.2h.007v-.031l.778-4.771.604-3.71 2.003-12.293Zm0 0" transform="matrix(3.78963 0 0 3.7628 -152.106 124.173)"/>
    <path fill="#f9f9f9" d="M45.766 99.285a5552 5552 0 0 1-14.375-9.77c-.032-.027-2.899-17.363-6.371-38.523-3.473-21.164-6.356-38.73-6.407-39.031l-.093-.555h41.554c38.145 0 41.551.016 41.551.239 0 .27-12.656 77.507-12.738 77.742-.043.117-28.38 19.441-28.715 19.582-.047.015-6.531-4.336-14.406-9.684m-3.098-29.27a54 54 0 0 1 2.453-2.824l1.242-1.304.598.21.598.208.171 1.617c.094.887.18 1.93.184 2.316l.016.703h34.754v-6.367H68.066c-8.039 0-14.617-.05-14.617-.117 0-.633-.894-4.836-1.375-6.457-1.308-4.441-3.25-7.45-6.047-9.363-1.316-.903-1.66-1.059-3.617-1.645-1.965-.59-2.281-.644-3.43-.597-.851.039-1.464.148-1.867.34-1.39.66-2.582 2.495-3.203 4.949-.273 1.054-.293 1.273-.117 1.406.91.68 1.695 1.422 2.57 2.441.567.657 1.067 1.196 1.121 1.196.059 0 .18-.532.282-1.18.218-1.414.543-2.414.886-2.723.22-.191.375-.199 1.149-.039 2.156.453 3.953 2.028 5.273 4.63.508 1.01 1.082 2.448 1.008 2.523-.078.078-4.363-2.063-5.953-2.973-.8-.465-1.52-.809-1.59-.766-.156.098-3.133 4.192-3.234 4.453-.102.254 1.554 1.207 4.047 2.34 1.066.48 1.953.89 1.972.903.016.015-1.238 1.054-2.789 2.316-1.55 1.258-2.808 2.34-2.789 2.406.035.13 5.309 2.895 5.55 2.91.087.004.7-.675 1.372-1.511m28.129-6.902c3.652-1.527 10.207-3.508 13.535-4.093.922-.165.961-.25.453-1.067-.558-.898-1.234-2.363-1.582-3.418-.308-.93-.25-.922-2.906-.402-1.027.203-1.914.37-1.977.37-.058 0-.113-1.233-.113-2.741v-2.739h7.313v-6.37h-7.102l.184-1.704c.695-6.433 2.796-11.258 6.73-15.46l1.441-1.54-.363-.238c-.703-.453-2.316-1.902-3.57-3.203l-1.258-1.305-.73.8c-.403.442-1.153 1.274-1.668 1.84-2.227 2.466-4.442 6.7-5.586 10.665-.625 2.16-1.274 5.664-1.426 7.703-.05.652-.129 1.465-.176 1.816l-.086.625h-6.53V19.551h-6.563v23.101H55.91c-1.601 0-2.91-.047-2.91-.109 0-.063-.133-1.477-.293-3.148-.402-4.168-1.031-7.536-1.937-10.364-.63-1.953-.93-2.636-1.887-4.238-1.067-1.781-1.246-2-2.688-3.215l-1.543-1.308-2.195-.73c-2.34-.774-3.477-.915-4.738-.567-1.774.492-3.164 2.699-3.95 6.27l-.289 1.327.325.227c.703.488 1.496 1.289 2.52 2.543.59.723 1.093 1.289 1.124 1.258.031-.032.153-.762.266-1.63.238-1.823.617-3.265.914-3.515.344-.281 1.785.121 2.746.766 1.398.945 2.645 2.886 3.469 5.402.402 1.223.847 3.031.847 3.43 0 .34-4.355-1.957-7.035-3.707l-.402-.262-3.516 4.645.344.28c.441.348 3.895 2.235 4.836 2.634.383.164.703.328.703.359s-.488.375-1.082.77a104 104 0 0 0-2.848 1.964l-1.77 1.258.677.383c.367.215 1.68.887 2.914 1.492l2.238 1.102 2.48-2.403c2.079-2.015 2.536-2.39 2.81-2.308.175.054.378.144.44.203.157.144.395 3.543.403 5.75l.004 1.812h11.93V63.09h6.558l.04-1.88.042-1.878 1.938 2.164c1.066 1.191 1.96 2.172 1.984 2.18.023.004.66-.25 1.418-.563m0 0"/>
    <path fill="#f9f9f9" d="M65.379 53.457v-4.434h6.562v6.95l-.632.16c-1.153.293-4.329 1.215-5.137 1.488l-.793.274Zm0 0"/>
</svg>
