<svg xmlns="http://www.w3.org/2000/svg" width="120" height="120" viewBox="0 0 120 136">
    <path stroke="red" stroke-width=".004" d="m34.396 72.365.323 1.363.08.342-.327.067-.354.07-.377.071-.397.075-.415.078-.161.03-.267.05v3.604h2.033v1.545H32.5v1.051h1.239v.644l.095-.08.095-.078.096-.077.07-.056.025-.02.095-.075.054-.042.02-.017.013-.01.009-.007.068.23.101.292.123.326.074.179.061.15.069.154.04.089.027.061.05.1.05.1.025.047-.59.438-.588.502-.565.556-.49.555-.038.044-.473.631-.4.653-1.136-.428-.284-.108.033-.075.037-.073.04-.072.042-.073.045-.073.026-.042.014-.022.006-.01-.428-.346-.42-.354-.4-.354-.001-.002-.367-.344-.33-.327-.06-.066-.218-.235.217-.26.682-.816.15-.179.151.179.04.046v-1.255h1.29V79.66h-1.937v-1.545h1.938v-3.283l-.984.215.904.267.006.001-.099.373-.104.418-.103.444-.094.448-.08.432-.06.394v.001h-.004l-1.276-.331v-.001l.133-.426.135-.434.136-.428.134-.41.006-.019.124-.36.125-.337-.837.172-.137-1.492.12-.031.836-.215.835-.212.127-.032.952-.239.923-.232.064-.016.813-.207.815-.21m-.614 2.306.042.379.071.426.06.3.032.156.11.466.12.459.126.432-.012.003-1.142.319-.13-.43-.123-.456-.112-.46-.056-.255-.043-.196-.007-.038-.073-.384-.06-.377.183-.052.967-.279.027-.007.02-.006m-4.808-1.18-.147.08-.141.101-.014.015-.039.04-.072.077-.1.168-.066.212-.024.262v10.932h-6.725v-6.845h2.764l-.077-.264-.081-.259-.064-.186-.023-.068-.091-.251-.095-.248-.099-.247-.281.22-.278.23-.269.235-.14.13-.113.104-.23.227-.203.216-.009-.01-.49-.538-.645-.707.315-.247.325-.246.33-.242.333-.234.327-.225.222-.147.097-.064-.297-.414-.32-.382-.345-.35-.373-.318-.402-.283-.414-.237-.003-.003-.017-.009.207-.197.22-.24.224-.267.213-.278.189-.274.154-.256.914.694.753.83.026.03.657 1.007.019.04.189.395.025.054.024.049.037.078.065.136.187.391.449 1.261.174.655.188.71h.762v-4.12l-1.734.456-.112.03-.03.008-.02.004-.01.003-.01.003-.006-.25-.017-.272-.024-.283-.03-.275-.015-.11-.019-.136-.001-.006-.023-.134-.01-.058-.004-.02 1.268-.39.931-.303.657-.232.441-.18.288-.143.122-.079.036-.023.023-.014.015-.01.052.236.078.267.098.279.052.126.06.144.12.243.076.122.034.055.012.019M28 98l-7.225-4.816-.393-.262L19 92l-4-24h26l-4 24-1.382.922-.393.262-5.745 3.83L28 98m7.618-7.228L37 82.29l2.003-12.293H16.997L19 82.291l1.382 8.48v.032h.007l7.611 5.2 7.61-5.2h.008v-.031m-3.035-8.31.185-.196.04-.042h-2.88l.236.24.253.252.266.256.037.035.239.223.282.256.236.207.017.016.018.014.01.01.004.003.204-.265.206-.26.211-.255.216-.249.22-.245m-5.907-1.214v-1.19H23.35v1.19h3.325m0 2.596v-1.159H23.35v1.16Zm0 0" transform="matrix(4.29492 0 0 4.26451 -60.129 -285.722)"/>
    <path fill="#f8f8f8" d="M43.867 112.523c-8.926-6.054-16.258-11.035-16.293-11.07-.035-.031-3.285-19.68-7.219-43.664-3.937-23.984-7.203-43.89-7.261-44.234l-.106-.63h47.094c43.23 0 47.094.02 47.094.27 0 .305-14.34 87.844-14.434 88.106-.047.133-32.172 22.039-32.55 22.195-.051.02-7.399-4.914-16.325-10.973m33.797-32.84c1.48-2.449 3.309-4.675 6.172-7.511 1.543-1.527 3.602-3.371 4.578-4.102.977-.726 1.805-1.347 1.844-1.375.035-.03-.278-.793-.703-1.691-.762-1.625-1.852-4.399-2.078-5.29-.063-.253-.188-.46-.274-.46-.09 0-.633.379-1.207.84l-1.047.843-.101-2.523H79.62v-4.367h8.621v-6.711h-8.62V32.102l2.495-.461c3.867-.711 7.145-1.375 7.235-1.465.074-.074-1.582-7.2-1.707-7.324-.051-.051-23.606 5.816-23.676 5.902-.07.082.57 6.344.656 6.433.055.055.809-.054 1.676-.238.863-.183 1.601-.308 1.636-.273.036.031-.246.949-.624 2.035-1.176 3.363-2.598 7.96-2.493 8.066.246.243 5.54 1.489 5.59 1.317.031-.102.219-1.145.422-2.32.2-1.172.7-3.5 1.11-5.176.413-1.676.714-3.102.675-3.164-.043-.067-.847-.34-1.793-.606l-1.719-.488 1.665-.375c.918-.207 1.761-.383 1.878-.387.168-.004.211 1.477.211 6.875v6.883h-8.28v6.71h8.28v4.368H67.28l-.004 2.559c-.004 2.554-.004 2.558-.324 2.14-.18-.226-.375-.367-.433-.308-.614.613-4.473 5.304-4.477 5.445-.004.297 4.453 4.523 7.035 6.668l2.387 1.98-.504.922c-.277.508-.477.946-.441.973.164.133 5.84 2.25 6.058 2.258.145.004.617-.59 1.086-1.367M61.875 54.513v-23.88l.41-.87c.363-.774 1.332-1.723 1.985-1.938.105-.035-.04-.449-.34-.976-.621-1.09-1.317-2.852-1.723-4.356-.16-.601-.36-1.09-.441-1.09-.082.004-.793.32-1.582.703-1.891.918-4.743 1.926-10.235 3.618l-4.5 1.386.102.504c.101.504.336 2.578.562 4.969l.121 1.277 4.059-1.062c2.23-.586 4.074-1.067 4.098-1.07.023 0 .043 3.886.043 8.64v8.645H52.84c-1.375 0-1.606-.04-1.684-.293-.047-.16-.39-1.43-.765-2.824-2.797-10.368-7.18-17.82-13.137-22.333-1.887-1.43-1.973-1.472-2.203-1.152-.13.184-.707 1-1.278 1.813-.574.816-1.675 2.148-2.449 2.968l-1.406 1.485.973.547c2.566 1.445 5.43 4 7.375 6.582.543.722.96 1.332.93 1.355-.036.024-.934.633-2.005 1.356-2.308 1.558-6.254 4.464-6.254 4.605 0 .14 4.735 5.29 4.93 5.363.086.032 1.008-.761 2.055-1.761 1.812-1.739 4.176-3.754 4.398-3.754.059 0 .227.285.375.633.43 1.007 1.766 4.925 1.766 5.18 0 .19-.992.23-5.832.23h-5.832v29.375H61.87Zm23.04-9.848c1.284-.36 2.378-.691 2.429-.742.05-.05-.18-1.098-.516-2.328-.785-2.899-1.203-4.824-1.539-7.094-.152-1.012-.289-1.855-.309-1.867-.066-.055-5.039 1.402-5.14 1.508-.352.343 2.191 11.183 2.62 11.18.067-.005 1.173-.298 2.454-.657m0 0"/>
    <path fill="#f8f8f8" d="M72.27 68.508c-1.582-1.465-3.06-2.863-3.286-3.106l-.41-.441h11.953l-.336.375c-2.054 2.309-2.875 3.266-3.777 4.406-.582.738-1.11 1.363-1.168 1.383-.055.023-1.398-1.156-2.976-2.617m-32.036.816v-2.351h14.2v4.699h-14.2Zm0-11.164v-2.433h14.2v4.867h-14.2Zm0 0"/>
</svg>
