<svg xmlns="http://www.w3.org/2000/svg" width="120" height="120" viewBox="0 0 120 136">
    <path fill="red" stroke="red" stroke-width=".004" d="m-7.618-56.772-1.241 7.62-.141.86-2.003 12.294h22.006L10.677-38 9-48.291l-.14-.861-1.242-7.62v-.03h-.007L7-57.22l-2-1.367-5-3.416-5 3.416-2 1.367-.61.417h-.008v.031M-13-34l2.525-15.152L-9-58l1.382-.921.618-.413 5.52-3.68h.001L0-64l7 4.666.618.413L9-58l1.475 8.848L12.333-38l.334 2.002L13-34h-26M5.893-52v1.588H1.31v.98h4.046v1.463H1.31v.98h4.046v1.43H1.31v.99H7l-.001.038-.002.1-.004.14-.004.163-.005.161-.006.141-.06.867-.041.614-.108 1.195-.025.19-.098.75-.142.708-.17.508-.048.082-.152.254-.166.177-.17.138-.18.106-.192.08-.207.056-.225.04-.234.025-.27.02-.303.011-.09.001-.239.004-.35-.004-.242-.008-.064-.002h-.04l-.02-.002-.03-.278-.056-.296-.077-.303-.006-.019-.09-.28-.116-.281-.065-.126-.024-.048-.025-.048-.008-.016-.006-.01-.002-.006.297.025h.006l.031.003.052.003.195.013.263.013.19.005.043.002h.197l.15-.008.035-.001h.083l.1-.008.087-.016.078-.03.073-.047.044-.042.027-.025.101-.18.094-.293.087-.423.032-.224.051-.347.077-.735.073-.917h-10.13V-52h10.92M3.978-41.12l.071.16.047.104.042.094.121.325-.163.06-1.181.44-.032.012-.016.006-.11-.324-.143-.367-.157-.35L2.44-41l-.196-.4-.211-.39-.218-.368 1.305-.451.23.354.226.375.213.383.19.378m-2.8-.166.113.326.062.18.15.498.12.466.082.415-1.432.378-.037.01-.022.006-.065-.403-.102-.464L0-40.051l-.086-.325-.158-.518-.022-.066-.154-.446-.188-.483.02-.005.588-.151.795-.204.196.466.188.497m-4.408-.558.02-.003 1.504-.245.15.53.135.557.01.045.104.522.09.555.066.52.037.469-1.433.25-.072.013-.049.008-.035.006-.022.004-.026-.47-.054-.525-.078-.561-.1-.575-.044-.216-.072-.349-.13-.535m-.722.503-.102.381-.044.168-.052.195-.246.71-.306.661-.378.595-.464.514-1.097-.704-.163-.104-.126-.081-.072-.046.404-.449.348-.519.292-.577.14-.363.1-.26.188-.661.14-.684.361.104.93.27.309.088-.162.762m.71-3.228h2.752v-.99H-3.24v.99m2.752-5.843H-3.24v.98h2.752v-.98M-3.24-46.99h2.752v-.979H-3.24Zm0 0" transform="matrix(4.29492 0 0 4.26451 60.129 277.193)"/>
    <path fill="#f9f9f9" d="M13.094 122.91c.058-.347 3.324-20.25 7.261-44.234 3.934-23.985 7.184-43.633 7.22-43.668.292-.27 32.394-21.969 32.523-21.98.218-.024 32.562 21.91 32.644 22.136.094.262 14.434 87.797 14.434 88.106 0 .246-3.864.27-47.094.27H12.988Zm68.82-8.02c1.754-.304 2.926-.843 3.934-1.812 1.726-1.656 2.496-3.992 3.226-9.8.504-4.028 1.2-12.739 1.2-15.067v-1.094H65.93v-4.199h17.242v-6.211H65.93V72.68h17.242V66.3H65.93v-4.027h19.61v-6.882H38.374v38.605H82l-.09.797c-.05.441-.168 1.707-.265 2.812-.407 4.711-1.055 8.22-1.704 9.266-.66 1.059-.976 1.121-4.996 1.008l-3.578-.106.574 1.239c.575 1.234 1.309 3.832 1.512 5.34l.106.796h3.433c2.328 0 3.91-.085 4.922-.257m-44.547-1.21c2.785-3.059 4.742-7.524 6.172-14.086.234-1.07.402-1.969.375-1.996-.027-.028-1.61-.5-3.512-1.051l-3.465-1.004-.21.95c-.868 3.917-1.438 5.675-2.653 8.187-1.05 2.18-1.992 3.617-3.261 4.988-.5.543-.887 1.008-.856 1.031.32.29 6.188 3.938 6.332 3.942.11 0 .594-.43 1.078-.961m14.953-1.735c1.676-.285 3.07-.547 3.102-.578.098-.097-.309-3.578-.668-5.703-.399-2.375-1.031-5.223-1.512-6.828-.293-.969-.402-1.145-.719-1.14-.503.003-6.183.925-6.273 1.015-.04.039.113.828.336 1.75.59 2.422 1.367 7.187 1.605 9.867l.207 2.317.442-.09c.242-.047 1.808-.32 3.48-.61m11.918-1.832c1.442-.375 2.754-.722 2.918-.773.39-.121.371-.5-.12-2.524-.825-3.386-3.138-9.793-3.536-9.8-.477-.012-6.023 1.437-6.023 1.57 0 .082.277.879.613 1.766 1.156 3.039 2.406 7.46 2.695 9.507.14 1.028.195 1.125.55 1.024.157-.047 1.462-.39 2.903-.77m11.453-4.238c1.512-.562 2.746-1.11 2.746-1.223 0-.715-2.433-5.566-3.968-7.902l-.914-1.395-2.672.922c-1.469.504-2.77.953-2.887.996-.156.055-.07.325.309.961.976 1.645 3.027 5.895 3.566 7.387.426 1.184.59 1.465.805 1.379.148-.059 1.504-.566 3.015-1.125m0 0"/>
    <path fill="#f9f9f9" d="M46.32 64.29v-2.017h11.664v4.028H46.32Zm0 10.405V72.68h11.664v4.027H46.32Zm0 10.321v-2.098h11.664v4.2H46.32Zm0 0"/>
</svg>
