<svg xmlns="http://www.w3.org/2000/svg" width="120" height="120" viewBox="0 0 120 136">
    <path fill="none" stroke="red" stroke-width=".004" d="M-45.994-18v1.937h5.82v1.646l-.786.003-4.766.018h-.123l-.068.001h-.077l.86.384 1.105.515 1.21.577 1.171.57.121.06.567.286.3.15.487.26.173.093-.173.363-.606 1.272-.181-.117-.481-.31-.701-.433-.121-.074-.925-.553-.968-.566-.648-.37-.307-.175-.883-.49v2.722h-1.85v-3.508l-.68.812-.628.636-.004.003-.12.122-.816.701-.868.63-.91.551-.853.419-.087.043-.029-.043-.127-.19-.189-.258-.093-.118-.116-.149-.219-.26-.216-.237-.201-.197.752-.316.113-.048.844-.439.337-.211.472-.295.761-.565.698-.614.621-.655h-4.176v-1.646h5.734V-18h1.85m-8.624-4.772-1.041 6.388L-56-14.29l-2.003 12.293h22.006L-36.323-4-38-14.291l-.341-2.093-1.041-6.388v-.03h-.007L-42-24.588l-5-3.416-5 3.416-2.61 1.784h-.008v.031M-38-24l.2 1.197 1.07 6.42L-34 0h-26l2.73-16.384 1.07-6.419L-56-24l7.52-5.014h.001L-47-30l9 6m-5.992 19.892v-.419h-5.843V-4h-1.763v-5.865h9.456v5.757h-1.85m0-4.121h-5.843v2.066h5.843Zm0 0" transform="matrix(4.29492 0 0 4.26451 261.99 132.2)"/>
    <path fill="red" d="M4.48 131.93c0-.66 17.106-102.051 17.23-102.13.08-.05 8.747-5.784 19.267-12.75l19.12-12.655 19.274 12.742c12.7 8.398 19.3 12.855 19.356 13.078.046.183 3.886 23.031 8.535 50.773 4.648 27.742 8.492 50.61 8.539 50.817l.09.379H60.184c-49.504 0-55.704-.028-55.704-.254m102.95-8.356c0-.23-14.297-87.48-14.461-88.27-.082-.37-2.746-2.242-15.766-11.07-8.617-5.843-15.98-10.843-16.363-11.109l-.695-.484-16.38 11.109c-9.007 6.113-16.39 11.121-16.402 11.137-.015.015-3.27 19.816-7.23 44.004-3.965 24.187-7.25 44.183-7.301 44.437l-.094.465h47.344c38.82 0 47.348-.04 47.348-.219m0 0"/>
    <path fill="red" d="M33.934 88.402c-.676-.906-1.766-2.23-2.43-2.941-.66-.715-1.172-1.316-1.137-1.34.035-.027.594-.262 1.246-.523 5.79-2.336 11.575-6.149 16.051-10.582l2.375-2.348-9.004-.047-9-.043v-6.71h24.512v-8.391h7.777v8.39h25.02v6.715l-3.426.023c-1.883.012-7.523.07-12.535.125l-9.113.102 2.773 1.246c6.73 3.016 21.727 10.266 22.707 10.977.266.191.148.496-1.316 3.52-.883 1.82-1.645 3.312-1.692 3.312-.05 0-.836-.48-1.746-1.067-4.86-3.125-19.945-11.86-20.484-11.86-.133 0-.188 1.653-.188 5.79v5.793h-7.773l-.043-7.512-.047-7.511-1.348 1.593c-4.02 4.746-8.922 8.922-14.203 12.094-1.808 1.086-5.297 2.852-5.625 2.844-.066 0-.676-.742-1.351-1.649m6.554 14.238V90.224h40.403v24.336h-7.778v-1.676H47.926v2.18h-7.438Zm32.625-1.09v-4.448H47.926V106h25.187Zm0 0"/>
    <path fill="#f8f8f8" d="M13.016 123.504c0-.422 14.414-87.984 14.527-88.254.129-.312 32.266-22.242 32.59-22.242.18 0 31.36 21.144 32.113 21.777l.55.465 7.192 43.895c3.957 24.14 7.192 44.023 7.192 44.183-.004.281-2.36.297-47.082.297-25.895 0-47.082-.055-47.082-.121m34.996-9.363v-1.09h25.02v1.676h8.113V90.055h-40.91v25.175h7.777Zm-10.68-24.746c4.188-2.082 8.191-4.754 11.61-7.743 2.16-1.89 5.175-4.949 6.507-6.597l.93-1.149.086 14.805h8.113V77.145l2.578 1.437c5.899 3.285 15.242 8.77 17.54 10.29.511.339 1.214.788 1.562.995l.637.383 1.59-3.281c.874-1.805 1.636-3.426 1.695-3.606.093-.285-.598-.675-5.606-3.18-5.55-2.769-12.386-6.027-17.207-8.195L65 70.922h6.34a841 841 0 0 0 12.297-.117l5.96-.11v-7.164H64.579V55.31h-8.117v8.222H31.78v7.219h17.78L48.5 71.93c-3.77 4.215-10.785 8.953-17.012 11.488l-1.562.637.96 1.027c1.15 1.23 3.446 4.07 3.872 4.79.172.284.37.519.445.519.074 0 1.031-.45 2.129-.996m0 0"/>
    <path fill="#f8f8f8" d="M48.012 101.55v-4.28h25.02v8.562h-25.02Zm0 0"/>
</svg>
