<svg xmlns="http://www.w3.org/2000/svg" width="120" height="120" viewBox="0 0 120 136">
    <path fill="none" stroke="red" stroke-width=".004" d="M-16.051-18v1.928h4.443v1.74h-4.443v1.504h5.649v1.76H-23.61v-1.76h5.593v-1.505h-4.421v-1.74h4.421V-18h1.965m-8.567-4.772-1.041 6.388-.34 2.094-2.003 12.293h22.006L-6.323-4-8-14.291l-.341-2.093-1.041-6.388v-.03h-.007L-12-24.588l-5-3.416-5 3.416-2.61 1.784h-.008v.031M-8-24l.2 1.197 1.07 6.42L-4 0h-26l2.73-16.384 1.07-6.419L-26-24l7.52-5.014h.001L-17-30l9 6m-2 20h-14v-1.806h5.984v-1.839h-4.79v-1.739h4.79v-1.337h1.965v1.337h4.767v1.739h-4.767v1.84h6.05Zm0 0" transform="matrix(4.29492 0 0 4.26451 133.142 132.2)"/>
    <path fill="red" d="M4.48 131.93c0-.66 17.106-102.051 17.23-102.13.08-.05 8.747-5.784 19.267-12.75l19.12-12.655 19.274 12.742c12.7 8.398 19.3 12.855 19.356 13.078.046.183 3.886 23.031 8.535 50.773 4.648 27.742 8.492 50.61 8.539 50.817l.09.379H60.184c-49.504 0-55.704-.028-55.704-.254m102.95-8.356c0-.23-14.297-87.48-14.461-88.27-.082-.37-2.746-2.242-15.766-11.07-8.617-5.843-15.98-10.843-16.363-11.109l-.695-.484-16.38 11.109c-9.007 6.113-16.39 11.121-16.402 11.137-.015.015-3.27 19.816-7.23 44.004-3.965 24.187-7.25 44.183-7.301 44.437l-.094.465h47.344c38.82 0 47.348-.04 47.348-.219m0 0"/>
    <path fill="red" d="M31.867 81.242v-3.61h24.004v-6.714H36.937v-7.219h18.934v-8.222h8.285v8.222h19.102v7.219H64.156v6.715h24.172v7.215h-56.46Zm-1.691 30.043v-3.777H55.87v-8.055H35.246v-7.219h20.625v-5.707h8.285v5.707H84.61v7.22H64.156v8.054H90.02v7.555H30.176Zm0 0"/>
    <path fill="#f8f8f8" d="M13.094 122.91c.058-.347 3.324-20.25 7.261-44.234 3.934-23.985 7.184-43.633 7.22-43.668.292-.27 32.394-21.969 32.523-21.98.16-.02 31.543 21.214 32.308 21.855.328.273 1.04 4.445 7.567 44.21 3.96 24.15 7.203 44.028 7.203 44.177 0 .246-3.883.27-47.094.27H12.988Zm77.18-11.625v-3.86H64.237v-7.722h20.457v-7.55H64.238v-5.708h-8.62v5.707H35.163v7.551h20.453v7.723H29.922v7.722h60.351Zm-1.692-30.043V77.38H64.238v-6.211H83.34v-7.55H64.238V55.39h-8.62v8.226H36.683v7.551h18.933v6.21H31.613v7.724h56.969Zm0 0"/>
</svg>
