<svg xmlns="http://www.w3.org/2000/svg" width="120" height="120" viewBox="0 0 120 136">
    <path fill="red" stroke="red" stroke-width=".004" d="M48.39 43.197h-.008v.031l-.965 5.924L47 51.709l-2.003 12.293h22.006L66.677 62 65 51.709l-.417-2.557-.965-5.924v-.03h-.007L61 41.412l-5-3.416-5 3.416-2.61 1.784M65 42l1.192 7.152L68.332 62l.335 2.002.255 1.534L69 66H43l.078-.464 2.73-16.384L47 42l1.382-.921L51 39.334l3.52-2.348h.001L56 36l5 3.334 2.618 1.745L65 42m-11.741 6 .295.859.109.293.199.537.315.795.318.756.316.712.296.637.004.006.004.01.004.009.613-.388.606-.373.58-.351.426-.255.078-.047.034-.02.477-.286.397-.242.27-.18.251-.172.234-.165.22-.164.204-.165.194-.171.005.01.824 1.555.198.373-.226.15-.232.149-.222.137-.02.012-.248.148-.257.149-.266.15-.535.297-.651.358-.222.125-.504.284-.003.002-.758.445-.756.473-.711.487-.586.46-.23.213-.275.258-.413.488-.31.51-.173.476-.02.058-.069.565.087.553.118.209.14.248.431.36.602.26.772.158.942.053.802-.022.407-.03.442-.032.863-.096.845-.123.794-.144.712-.159-.022 2.386-.658.115-.713.1-.766.082-.823.062-.674.03-.206.009L56.2 62l-1.414-.08-1.25-.264-.288-.13-.759-.343-.8-.712-.51-.977-.18-1.273.083-.877.001-.01.24-.812.374-.748.495-.693.595-.647.678-.609-.27-.577-.078-.164-.35-.788-.349-.826-.35-.855-.347-.873-.23-.59-.113-.292 1.86-.851Zm0 0" transform="matrix(4.29492 0 0 4.26451 -180.387 -149.258)"/>
    <path fill="#f9f9f9" d="M13.094 122.91c.058-.347 3.324-20.25 7.261-44.234 3.934-23.985 7.184-43.633 7.22-43.668.292-.27 32.394-21.969 32.523-21.98.218-.024 32.562 21.91 32.644 22.136.094.262 14.434 87.797 14.434 88.106 0 .246-3.864.27-47.094.27H12.988Zm55.965-7.933c4.25-.274 9.496-.895 12.129-1.438l.464-.098v-10.343l-1.394.316c-1.93.441-6.719 1.25-9.258 1.566-3.879.48-6.309.637-9.973.633-3.004-.004-3.957-.066-5.496-.36-4.68-.901-7.297-2.964-7.828-6.171-.598-3.598 1.274-7.52 5.352-11.21 3.457-3.134 7.925-6 18.074-11.606 5.64-3.114 9.34-5.34 9.34-5.625 0-.153-2.328-4.598-3.828-7.313l-.579-1.039-1.347 1.078c-1.668 1.34-4.57 3.27-7.688 5.113a869 869 0 0 0-6.476 3.91c-2.258 1.38-4.14 2.477-4.18 2.438-.14-.14-1.644-3.422-2.86-6.234a172 172 0 0 1-4.152-10.602c-.484-1.383-.914-2.547-.949-2.586-.031-.039-1.89.754-4.125 1.762-3.89 1.754-4.058 1.852-3.96 2.242.323 1.309 5.484 13.746 7.593 18.305.61 1.312 1.105 2.441 1.105 2.504 0 .062-.625.672-1.394 1.355-5.461 4.848-8.375 9.961-8.899 15.614-.16 1.734-.136 2.207.223 4.648.402 2.719.406 2.727 1.477 4.77 1.023 1.949 1.152 2.117 2.797 3.582 1.586 1.414 1.918 1.62 4.058 2.574 2.668 1.187 5.926 1.984 9.008 2.207 2.715.195 9.746.199 12.766.008m0 0"/>
</svg>
