<svg xmlns="http://www.w3.org/2000/svg" width="120" height="120" viewBox="0 0 120 136">
    <path fill="red" stroke="red" stroke-width=".004" d="m20.382-56.772-1.241 7.62-.141.86-2.003 12.294h22.006L38.677-38 37-48.291l-.14-.861-1.242-7.62v-.03h-.007L35-57.22l-2-1.367-5-3.416-5 3.416-2 1.367-.61.417h-.008v.031M15-34l2.525-15.152L19-58l1.382-.921.618-.413 5.52-3.68h.001L28-64l7 4.666.618.413L37-58l1.475 8.848L40.333-38l.334 2.002L41-34H15m19.688-16.903v1.417h-4.416v.832h3.834v3.43h-3.834v.586h3.845v1.012h-3.845v.618h3.77v1.002h-3.77v.607h3.92v1.023l.142.05.142.049.14.044.136.039.064.016.065.018.119.03-.11.661-.074.208-.106.299-.036.05-.227.315-.364.242-.478.133-.608.041h-2.262l-.751-.04-.575-.13-.417-.243-.276-.376-.044-.153-.046-.163-.062-.215-.006-.094-.04-.595-.001-.015v-6.329h3.877v-.821h-3.877v-4.538h1.755v.99h4.416m-13.451.107h2.488l-.04-.14-.045-.141-.046-.141-.047-.138-.047-.134-.045-.126 1.12-.27.474-.114.085.192.082.2.078.206.073.206.066.203.058.197h2.24v1.46h-2.186l.838.184.615.135-.538 1.183h1.465v1.46H21v-1.46h1.39l-.049-.205-.056-.207-.061-.206-.061-.192-.004-.011-.064-.196-.061-.187.486-.114.785-.184h-2.068v-1.46m3.726 8.438-.23-.122-.157-.08-.116-.059-.302-.148-.318-.15-.198-.091-.123-.056-.311-.135v.415l-.001.22-.003.23-.006.237-.004.113-.004.133-.011.25-.014.255h.001l.347-.116.383-.135.412-.149.268-.1.166-.061.45-.17.176-.066.014-.006.27-.102v-.97l-.17.213-.516.647-.003.003m1.81 3.92-.15.069-.102.047-.28.08-.311.054-.342.031-.372.015-.355.002h-.03l-.019.001-.052-.252-.076-.268-.086-.253-.008-.022-.014-.035-.092-.233-.111-.25-.107-.215-.003-.006.24.014.073.003.163.005.221.004.18-.001h.015l.156-.005.104-.009.078-.004.06-.013.045-.024.03-.038.02-.053.004-.071v-1.203l-.192.108-.173.097-.361.2-.35.191-.007.004-.35.19-.344.188-.333.183-.211-.582-.082-.225-.06-.164-.03-.082-.027-.077-.009.077-.05.467-.089.54-.117.527-.15.506-.003.008-.184.47-.002.004-.175.34-.024.047-.012.022-.009.019-.005.01-.165-.138-.213-.16-.24-.164-.249-.158-.033-.019-.167-.095-.035-.02-.108-.052-.093-.046.294-.608.202-.659.13-.687.015-.154.055-.54.03-.677.006-.639v-2.94h5.665v5.923l-.012.338-.04.29-.075.246-.116.208-.163.172-.219.142m-2.283-5.357.087.037.236.098.313.138.285.134.242.124v-1.226h-2.444v1.247l.667-.788.297.11.317.126m.853-5.309.011-.05.041-.183h-1.939l.072.184.025.065.093.26.086.266.077.259.063.246.047.222h1.034l.083-.247.084-.256.082-.26.076-.258.065-.248m5.63 9.526h1.874l.187-.015.145-.05.11-.095.08-.148.059-.21.044-.281h-3.199v.17l.01.236.04.169.078.114.128.068.187.033Zm0 0" transform="matrix(4.29492 0 0 4.26451 -60.129 277.193)"/>
    <path fill="#f9f9f9" d="M13.02 123.414c.011-.344 14.5-88.355 14.554-88.406.293-.27 32.395-21.969 32.524-21.98.218-.024 32.562 21.91 32.644 22.136.094.262 14.434 87.797 14.434 88.106 0 .246-3.864.27-47.078.27-25.895 0-47.078-.056-47.078-.126m23.378-9.52c1.196-2.363 2.204-6.003 2.668-9.62.11-.856.22-1.536.239-1.512.023.027.367.953.765 2.062.399 1.11.778 2.074.844 2.149.066.078 2.066-.926 4.453-2.223 2.383-1.297 4.371-2.36 4.418-2.36s.086 1.204.086 2.676c0 1.957-.059 2.711-.21 2.813-.118.074-1.446.121-2.95.11l-2.734-.028.566 1.238c.691 1.504 1.367 3.418 1.617 4.582l.188.864 1.465-.004c5.32-.004 8.316-1.215 9.343-3.774l.407-1.008.046-13.972.051-13.973H33.133v7.676c-.004 4.226-.082 8.793-.172 10.152-.3 4.387-1.023 7.586-2.348 10.375l-.664 1.406 1.043.575c1.235.68 3.89 2.465 4.18 2.808.367.438.59.254 1.226-1.011m48.93.118c2.79-.907 4.063-2.645 4.7-6.418.132-.785.242-1.473.242-1.531 0-.06-.504-.235-1.122-.387-.617-.153-1.378-.387-1.691-.516l-.566-.234v-4.383H69.988v-2.348h16.227V93.66H69.988v-2.344l8.239-.043 8.242-.046.094-4.446H69.988V84.43h16.395V69.66H69.988V66.3h18.934v-6.21H69.988v-4.363h-7.777v19.64h16.734v3.356H62.188l.066 14.898.066 14.895.387 1.261c.695 2.274 2.176 3.684 4.406 4.196 1.746.398 3.465.468 10.313.425 6.367-.043 6.918-.07 7.902-.386m-25.484-37.64v-3.188H56.8c-1.672 0-3.043-.063-3.043-.137s.449-1.117 1-2.313c.55-1.195 1.027-2.28 1.058-2.414.043-.18-.62-.39-2.734-.863l-2.789-.625 4.352-.016L59 66.805v-6.38h-9.574l-.309-.964c-.465-1.465-1.262-3.48-1.504-3.813-.207-.28-.41-.253-3.59.504-1.851.438-3.394.825-3.433.852-.035.031.176.77.465 1.644.293.872.53 1.63.53 1.684 0 .05-2.394.094-5.323.094h-5.324v6.379l4.183.011 4.184.016-2.328.547c-1.278.3-2.375.598-2.438.66-.062.063.168 1 .512 2.082.344 1.086.668 2.219.726 2.516l.102.547h-5.957v6.379h29.922Zm0 0"/>
    <path fill="#f9f9f9" d="M70.809 108.012c-.54-.293-.82-1.024-.82-2.121v-.817h6.761c5.297 0 6.762.047 6.758.211-.008.758-.547 2.106-1.008 2.52l-.516.46-5.367-.007c-4.332-.004-5.449-.051-5.808-.246M39.523 96.934c.024-2.075.082-3.774.125-3.774.16 0 3.579 1.567 5.493 2.52l2 .996 1.363-1.696 1.367-1.699v3.703l-3.508 1.297c-2.629.973-6.746 2.43-6.883 2.43-.003 0 .016-1.7.043-3.777m.036-6.879V87.62H49.87v4.844l-1.566-.735a83 83 0 0 0-3.75-1.597c-2.145-.848-2.188-.86-2.45-.535-.75.933-2.433 2.89-2.484 2.89-.035 0-.062-1.097-.062-2.433m2.899-17.886c-.18-.867-1.23-4.133-1.629-5.07-.117-.274.137-.293 3.957-.293h4.078l-.113.46c-.129.544-1.098 3.762-1.516 5.036l-.289.883h-4.277Zm0 0"/>
</svg>
