<svg xmlns="http://www.w3.org/2000/svg" width="120" height="120" viewBox="0 0 120 136">
    <path fill="none" stroke="red" stroke-width=".004" d="m5.382-22.772-1.041 6.388L4-14.29 1.997-1.998h22.006L23.677-4 22-14.291l-.341-2.093-1.041-6.388v-.03h-.007L20-23.22l-2-1.367-5-3.416-5 3.416-2 1.367-.61.417h-.008v.031M4-24l2-1.334 5.52-3.68h.001L13-30l7 4.666L22-24l.2 1.197 1.07 6.42L25.332-4 26 0H0l2.73-16.384 1.07-6.419L4-24m9.893 6 .719 1 .554.616.32.355.898.82.103.095.491.37.612.46 1.18.72 1.194.562.023.01.013.007-.197.234-.213.279-.13.184-.086.122-.208.316-.186.311-.153.287-.315-.166-.312-.175-.309-.184-.205-.13-.102-.065-.304-.203-.159-.113-.143-.1v1.308H13.84v1.813h3.846v1.652H13.84v1.928h5.431V-4H6.781v-1.687h5.242v-1.928H8.22v-1.652h3.804v-1.813H8.937v-1.366l-.063.045-.159.113-.094.067-.314.215-.115.075-.196.13-.31.193-.305.183-.109.062-.088.05-.052.03-.03.017-.016.01-.008.004-.14-.244-.163-.264-.18-.273-.193-.268-.2-.253-.074-.083-.082-.09L6-12.78l.827-.409.843-.497.522-.355.317-.215.365-.28.454-.348.779-.67.722-.703H8.874V-18h5.02m2.428 5.244h.16l-.098-.078-.567-.454-.637-.56-.608-.58-.575-.599-.537-.61-.473-.588-.024-.031-.513.619-.162.178-.398.435-.599.6-.63.582-.649.558-.663.528Zm0 0" transform="matrix(4.29492 0 0 4.26451 4.295 132.2)"/>
    <path fill="red" d="M4.46 131.988c0-.066 3.849-23.058 8.552-51.09l8.55-50.968L60.118 4.406l19.16 12.684c10.54 6.976 19.227 12.746 19.305 12.824.125.125 17.191 101.332 17.191 101.953 0 .219-6.195.246-55.656.246-30.61 0-55.652-.054-55.656-.125m102.974-8.703c-.055-.246-3.34-20.219-7.301-44.379-4.031-24.578-7.293-44.008-7.403-44.113-.19-.18-31.617-21.492-32.296-21.902-.317-.192-1.711.714-16.746 10.918-9.02 6.117-16.399 11.195-16.399 11.285 0 .207-14.36 87.789-14.473 88.273l-.086.371h94.797Zm0 0"/>
    <path fill="red" d="M33.574 111.504v-3.531h22.492v-8.375H39.691v-6.899h16.375v-7.883h-13.23v-2.87c0-1.583-.05-2.876-.113-2.876-.059 0-1.196.727-2.52 1.618-2.414 1.617-5.2 3.308-5.45 3.308-.073 0-.226-.203-.339-.45-.348-.765-2.352-3.675-3.273-4.757l-.88-1.027 1.66-.828c3.395-1.692 7.184-4.082 10.75-6.79 2.071-1.57 5.977-4.933 7.352-6.328l.989-1.004h-8.508v-7.226H63.94l1.586 2.176c5.246 7.191 13.235 13.742 21.633 17.742 1.5.715 2.754 1.324 2.79 1.355.03.032-.243.414-.606.848-1.063 1.262-2.434 3.23-3.356 4.82-.468.809-.902 1.47-.96 1.47-.25 0-4.208-2.321-5.891-3.454-1-.676-1.875-1.25-1.942-1.281-.07-.032-.125 1.207-.125 2.75v2.804H63.676V92.7h16.539v6.899h-16.54v8.375h23.317v7.062H33.574Zm41.512-33.719c0-.078-.652-.648-1.445-1.273-4.23-3.313-9.625-8.668-12.614-12.516-.5-.644-.957-1.172-1.011-1.176-.055-.004-.875.899-1.817 2.004-3.082 3.621-7.742 8.055-12.18 11.598-.933.742-1.695 1.383-1.695 1.426 0 .039 6.922.074 15.38.074 8.46 0 15.382-.063 15.382-.137m0 0"/>
    <path fill="#f8f8f8" d="M13.066 123.328c0-.527 14.391-88.035 14.512-88.226.184-.297 32.3-22.047 32.555-22.047.195 0 31.965 21.449 32.433 21.898.114.106 3.336 19.328 7.32 43.625 3.919 23.89 7.188 43.785 7.266 44.215l.141.781H60.18c-41.711 0-47.114-.027-47.114-.246m74.094-11.824v-3.695H63.84v-8.047h16.539v-7.227h-16.54V84.98h13.388l.046-2.683.047-2.688 2.16 1.414c1.946 1.274 4.864 2.965 5.543 3.22.188.07.348-.095.575-.595.433-.957 2.629-4.253 3.757-5.644.512-.629.88-1.2.817-1.258-.067-.062-1.266-.644-2.664-1.293-8.285-3.84-16.684-10.719-21.895-17.937l-1.511-2.094H42.34v7.555h8.176l-.989 1.003c-.543.551-1.992 1.864-3.218 2.918-4.895 4.207-8.957 6.98-14.098 9.625l-2.277 1.172.753.875c.977 1.133 1.981 2.54 3.06 4.278.472.765.886 1.422.913 1.453.086.097 3.68-2.086 5.817-3.531 1.109-.754 2.058-1.372 2.105-1.372.05 0 .09 1.258.09 2.793v2.79h13.23v7.554H39.527v7.227h16.375v8.047H33.41v7.39h53.75Zm0 0"/>
    <path fill="#f8f8f8" d="M45.395 77.219c5.617-4.5 9.406-8.106 13.218-12.555.711-.836 1.364-1.477 1.442-1.43.082.051.73.805 1.445 1.684 3.04 3.719 7.684 8.3 11.648 11.488.84.672 1.555 1.25 1.594 1.285.04.036-6.699.063-14.969.059l-15.035-.004Zm0 0"/>
</svg>
