<svg xmlns="http://www.w3.org/2000/svg" width="120" height="120" viewBox="0 0 120 136">
    <path stroke="red" stroke-width=".004" d="m-91.618-56.772-1.241 7.62-.141.86-2.003 12.294h22.006L-73.323-38-75-48.291l-.14-.861-1.242-7.62v-.03h-.007L-77-57.22l-2-1.367-5-3.416-5 3.416-2 1.367-.61.417h-.008v.031M-97-34l2.525-15.152L-93-58l1.382-.921.618-.413 5.52-3.68h.001L-84-64l7 4.666.618.413L-75-58l1.475 8.848L-71.667-38l.334 2.002L-71-34h-26m16.336-15.19-.028.038-.21.275-.244.308H-77v8.517l-.023.438-.072.366-.128.304-.191.247-.26.198-.15.07-.186.087-.408.115-.473.081-.035.004-.168.016-.34.034-.172.008-.266.014-.174.01-.687.014-.661.003h-.104l-.072-.265-.105-.294-.127-.306-.118-.25-.025-.053-.148-.283-.145-.248.318.013.263.012.581.015.55.005.484.001h.17l.218-.002.258-.001.153-.012.12-.029.09-.047.06-.07.036-.099.011-.128v-1.176h-8.15l-.12.3-.124.313-.308.594-.38.568-.456.535-.538.498-.589.426-.022.017-.013.009-.164-.193-.218-.225-.104-.098-.148-.14-.264-.226-.254-.198-.222-.149.888-.71.113-.09.702-.885.022-.046.432-.893.26-.964.116-.959.027-.925v-2.212l-.137.111-.14.107-.142.105-.145.104-.146.102-.065.045-.04.028-.026.018-.016.011-.174-.219-.219-.24-.246-.243-.134-.12-.042-.038-.08-.071-.25-.2-.23-.152.56-.382.424-.29.87-.722.194-.193.566-.562.65-.77.542-.768.435-.748.415.066 1.664.265-.106.184-.054.093-.055.09-.056.091-.058.087h3.23l.305-.064 1.327.78-.19.295-.206.303-.219.309-.23.312m-5.314-.116-.038.046-.088.107-.028.035-.157.186-.163.183-.167.179h3.36l.13-.172.132-.18.132-.188.03-.043.1-.148.122-.192.116-.189h-3.183l-.147.188-.151.188m4.058 5.117v1.41h2.994v-1.41h-2.994m-4.745 1.175-.036.236h2.936v-1.41h-2.807l-.012.231-.014.234-.017.236-.022.236-.028.237m7.74-2.66v-1.347h-2.996v1.347h2.995m-7.09-1.347h-.544v1.347h2.795v-1.347Zm0 0" transform="matrix(4.29492 0 0 4.26451 420.902 277.193)"/>
    <path fill="#f9f9f9" d="M13.094 122.91c.058-.347 3.324-20.25 7.261-44.234 3.934-23.985 7.184-43.633 7.22-43.668.292-.27 32.394-21.969 32.523-21.98.218-.024 32.562 21.91 32.644 22.136.094.262 14.434 87.797 14.434 88.106 0 .246-3.864.27-47.094.27H12.988Zm24.453-8.765a26.1 26.1 0 0 0 8.695-11l.7-1.676 17.44-.043 17.438-.043v2.75c0 2.46-.035 2.793-.324 3.148l-.324.395h-6.777c-3.727 0-6.754.039-6.735.086.024.047.524 1.027 1.106 2.183.586 1.153 1.28 2.739 1.546 3.524l.481 1.426 4.71-.016c4.837-.012 7.364-.242 9.528-.856 2.168-.613 3.79-1.796 4.446-3.242.785-1.722.785-1.676.789-21.777l.007-19.008-17.585-.086 1.507-1.972c2.153-2.817 3.95-5.481 3.856-5.715-.043-.11-1.34-.934-2.88-1.828-2.612-1.52-2.839-1.618-3.359-1.47-.308.087-3.628.16-7.453.16h-6.898l.617-1.1c.344-.606.59-1.133.55-1.169-.073-.078-8.433-1.425-8.82-1.425-.128 0-.636.699-1.132 1.554-3.309 5.73-9.055 11.758-15.16 15.903-1.141.77-2.075 1.453-2.075 1.511 0 .063.422.399.93.746 1.016.696 3.621 3.145 4.438 4.18.605.758.492.793 2.62-.785l1.481-1.098v6.32c0 7.235-.191 9.442-1.097 12.794-1.317 4.836-3.797 8.566-7.758 11.664l-2.149 1.68.461.335c1.559 1.145 3.012 2.403 4.117 3.57.7.739 1.364 1.348 1.48 1.36.114.012.829-.43 1.583-.98m0 0"/>
    <path fill="#f9f9f9" d="M50.07 68.945a95 95 0 0 0 1.899-2.265l.98-1.22h6.66c3.66 0 6.657.044 6.657.095 0 .156-1.184 1.945-2.137 3.222l-.906 1.22h-14.07Zm-.875 10.618v-2.856h11.832v5.707H49.195Zm-.441 14.394c.094-.648.43-4.453.437-4.953 0-.164 1.301-.211 5.918-.211h5.918v5.875H48.648ZM69.14 91.73v-2.937h12.68v5.875H69.14Zm0-12.167v-2.856h12.68v5.707H69.14Zm0 0"/>
</svg>
