<svg xmlns="http://www.w3.org/2000/svg" width="120" height="120" viewBox="0 0 120 136">
    <path stroke="red" stroke-width=".004" d="m20.382-22.772-1.041 6.388L19-14.29 16.997-1.998h22.006L38.677-4 37-14.291l-.341-2.093-1.041-6.388v-.03h-.007L35-23.22l-2-1.367-5-3.416-5 3.416-2 1.367-.61.417h-.008v.031M15 0l2.73-16.384L19-24l1.382-.921.618-.413 5.52-3.68h.001L28-30l7 4.666.618.413L37-24l1.27 7.616L40.332-4l.334 2.002L41 0H15m14.42-17.236-.067.103-.066.1-.067.102-.068.101-.069.102-.072.103.289.241.499.416.914.631 1.008.59 1.047.517.024.012 1.104.456.899.299.088.029.046.016.033.01.024.008.014.005-.206.22-.22.258-.221.279-.211.286-.19.276-.152.252-.328-.125-.33-.135-.33-.144-.044-.02-.09-.04-.199-.09-.33-.157-.328-.162v.895h-2.947v1.582h4.663v1.615h-2.305l1.085.413.378.144-.262.425-.265.427-.265.422-.26.404-.149.226-.1.153-.236.343h3.147V-4H21.653v-1.648h2.884l-.137-.367-.175-.405-.203-.427-.223-.433-.235-.424-.238-.399.204-.089.339-.148.25-.11.355-.155h-2.116v-1.615h4.653v-1.582h-2.97v-.742l-.31.15-.228.106-.083.04-.312.138-.314.133-.317.13-.3.114-.019.007-.14-.277-.168-.285-.004-.006-.196-.295-.212-.288-.16-.198-.06-.074-.128-.145-.09-.1 1.36-.47 1.307-.587.909-.524.317-.182 1.114-.827.409-.4.559-.547.638-.86.155-.21 1.653.765m-4.362 9.025.011.02.243.398.238.427.214.419.177.396.132.358-1.2.545h2.137v-2.957h-2.21l.258.394m4.667 2.149.051-.082.181-.29.237-.416.233-.443.219-.45.197-.445.002-.004.165-.413h-2.137v2.957h1.83l-.978-.414m-.942-8.67-.112-.094-.29-.248-.23-.211-.057-.053-.047-.043-.03-.028-.018-.016-.36.368-.376.35-.389.334-.402.318-.415.304-.426.29h4.894l-.453-.3-.443-.313-.43-.324Zm0 0" transform="matrix(4.29492 0 0 4.26451 -60.129 132.2)"/>
    <path fill="#f9f9f9" d="M13.094 122.91c.058-.347 3.324-20.25 7.261-44.234 3.934-23.985 7.184-43.633 7.22-43.668.292-.27 32.394-21.969 32.523-21.98.218-.024 32.562 21.91 32.644 22.136.094.262 14.434 87.797 14.434 88.106 0 .246-3.864.27-47.094.27H12.988Zm74.136-11.285v-3.523l-6.656-.043-6.656-.047 1.305-1.953c1.812-2.72 4.945-7.727 5.027-8.032.05-.191-.645-.523-2.828-1.343l-2.895-1.09 4.746-.047 4.747-.043v-7.047H63.902v-6.543H76.57l.094-3.64 2.45 1.124c2.37 1.086 5.948 2.567 5.988 2.477.21-.496 2.644-3.828 3.71-5.082.786-.922 1.38-1.727 1.317-1.785-.059-.055-.984-.387-2.055-.735-6.031-1.953-12.855-5.28-18.004-8.785-2.011-1.367-5.324-4.011-5.324-4.246 0-.082.356-.68.79-1.324.46-.688.722-1.238.632-1.32-.188-.168-6.828-3.207-7.012-3.207-.07 0-.902 1.039-1.851 2.308-5.106 6.832-13.676 12.59-24.086 16.18-1.582.547-2.973 1.027-3.094 1.07-.145.051.137.5.816 1.297 1.215 1.43 3.16 4.27 3.614 5.29.175.39.398.71.488.71.293 0 4.008-1.516 6.02-2.453 1.058-.496 1.953-.902 1.984-.902.035 0 .062.68.062 1.511v1.512h12.676v6.543H35.84v7.047l4.351.043 4.352.047-4.648 1.984.359.602c1.73 2.894 3.809 7.015 4.523 8.953l.356.965H32.797v7.05H87.23Zm0 0"/>
    <path fill="#f9f9f9" d="M51.91 73.586a57 57 0 0 0 6.5-5.305l1.774-1.68 1.054.973c1.582 1.461 5.223 4.301 7.227 5.645.976.656 1.847 1.254 1.937 1.332.086.078-4.375.144-9.957.144H50.332Zm-4.406 34.293c.23-.106 1.297-.59 2.363-1.074 1.07-.485 1.969-.953 1.996-1.043.172-.512-2.36-5.625-4.18-8.446-.562-.875-1.027-1.636-1.027-1.699 0-.058 2.055-.11 4.567-.11h4.562v12.59l-4.351-.011c-3.438-.008-4.266-.05-3.93-.207m16.398-6.074v-6.297h4.477c2.586 0 4.48.066 4.48.152 0 .586-2.968 6.633-4.453 9.07-.527.868-.902 1.637-.832 1.704s.91.437 1.864.828c.953.39 1.73.738 1.73.773s-1.633.063-3.633.063h-3.633Zm0 0"/>
</svg>
