<svg xmlns="http://www.w3.org/2000/svg" width="120" height="120" viewBox="0 0 120 136">
    <path stroke="red" stroke-width=".004" d="M62.21 81v1.988h-5.286v3.782h4.685v1.975h-4.685v4.29H63V95H49v-1.964h5.987v-4.29h-4.529V86.77h4.529v-3.782h-5.252V81H62.21m-13.82-4.803h-.008v.031l-.928 5.692L47 84.71l-2.003 12.293h22.006L66.677 95 65 84.709l-.454-2.789-.928-5.692v-.03h-.007L61 74.412l-5-3.416-5 3.416-2.61 1.784M56 69l7.618 5.079L65 75l1.154 6.92 2.513 15.082.217 1.302L69 99H43l.116-.696 2.73-16.384L47 75l1.382-.921 6.138-4.093h.001Zm0 0" transform="matrix(4.29492 0 0 4.26451 -180.387 -289.987)"/>
    <path fill="#f9f9f9" d="M13.094 122.91c.058-.347 3.324-20.25 7.261-44.234 3.934-23.985 7.184-43.633 7.22-43.668.292-.27 32.394-21.969 32.523-21.98.218-.024 32.562 21.91 32.644 22.136.094.262 14.434 87.797 14.434 88.106 0 .246-3.864.27-47.094.27H12.988Zm77.18-11.96v-4.196H64.237V88.625h20.117v-8.727H64.238V63.953h22.653v-8.562H33.133v8.562h22.484v15.945H36.176v8.727h19.441v18.129H29.922v8.394h60.351Zm0 0"/>
</svg>
