<svg xmlns="http://www.w3.org/2000/svg" width="120" height="120" viewBox="0 0 120 136">
    <path stroke="red" stroke-width=".004" d="m-63.618 9.228-1.166 7.156L-65 17.71l-2.003 12.293h22.006L-45.323 28-47 17.709l-.216-1.325-1.166-7.156v-.03h-.007L-49 8.78l-2-1.367-5-3.416-5 3.416-2 1.367-.61.417h-.008v.031M-69 32l2.603-15.616L-65 8l1.382-.921.618-.413 5.52-3.68h.001L-56 2l7 4.666.618.413L-47 8l1.397 8.384L-43.667 28l.334 2.002L-43 32h-26m14.733-15.95-.738.092v1.234h5.727v1.601h-3.575l.737.42.723.432.69.433.331.218.311.205.573.405.336.258.152.117-.152.199-.717.94-.064.083-.05.065-.04.052-.026.035-.609-.512-.525-.394-.22-.165-.843-.584-.905-.588-.097-.06-.093-.056-.742-.454-.922-.53v2.142h-1.84v-2.142l-.49.48-.01.009-.512.45-.057.045-.496.386-.578.404-.6.373-.52.287-.098.055h9.023v5.993h-1.863v-.443h-5.598V28h-1.776v-5.918l-.23.111-.226.105-.227.099-.228.093-.109.04-.124.046-.032.01-.097.033-.053.018-.03.01-.016.005-.009.003-.155-.233-.189-.265-.21-.279-.222-.275-.219-.252-.165-.17-.04-.04.793-.25.768-.296.016-.006.239-.109.525-.239.319-.168.414-.22.69-.424.636-.452h-3.94v-1.6h5.695v-1.05l-.498.04-.18.015-.028.002-.648.047-.673.041-.667.034-.663.027-.656.02-.025-.169-.01-.069-.057-.263-.074-.274-.085-.27-.089-.255-.044-.112-.03-.077-.014-.036 1.655-.08 1.677-.117.61-.057 1.035-.098 1.305-.16.254-.03 1.42-.227 1.227-.26 1.252 1.429-.635.15-.663.136-.686.124-.707.112-.724.1m1.221 7.276h-5.598v.822h5.598v-.822m0 2.867v-.833h-5.598v.833Zm0 0" transform="matrix(4.29492 0 0 4.26451 300.644 -4.265)"/>
    <path fill="#f9f9f9" d="M13.094 122.91c.058-.347 3.324-20.25 7.261-44.234 3.934-23.985 7.184-43.633 7.22-43.668.292-.27 32.394-21.969 32.523-21.98.218-.024 32.562 21.91 32.644 22.136.094.262 14.434 87.797 14.434 88.106 0 .246-3.864.27-47.094.27H12.988Zm35.761-8.687v-.922h23.836v1.847h8.286v-12.757c0-7.016.043-12.758.101-12.758.14 0 1.242.851 2.984 2.312.813.68 1.555 1.215 1.645 1.184.172-.059 4.559-5.692 4.563-5.86.003-.156-3.407-2.64-5.66-4.124-2.84-1.868-4.727-3.028-7.895-4.856l-2.742-1.582H89.09v-6.879H64.578v-2.601c0-1.59.063-2.602.164-2.602.508 0 6.938-.922 9.469-1.355 3.246-.56 7.562-1.461 7.918-1.657.164-.09-.527-.984-2.422-3.133-1.457-1.652-2.738-3.027-2.855-3.054-.114-.024-1.301.187-2.645.469-7.754 1.644-19 2.91-32.016 3.609-2.597.14-4.746.277-4.773.309-.031.027.219.84.55 1.8.337.965.747 2.422.919 3.239.172.82.336 1.507.367 1.535.16.148 13.422-.559 16.238-.864l.969-.105v4.41H31.949v6.879l8.328.043 8.325.043-1.352.945c-4.5 3.14-9.95 5.766-15.836 7.63l-1.465.464 1.059 1.203c1.105 1.262 2.703 3.309 3.617 4.645l.54.785 1.14-.387a43 43 0 0 0 2.746-1.098l1.816-.793c.168-.066.211 2.485.211 12.438v12.523h7.777Zm0 0"/>
    <path fill="#f9f9f9" d="M44.04 88.52c3.718-2.079 7.476-4.81 10.394-7.551l1.945-1.824.043 4.492.047 4.492 4.011-.047 4.012-.043.047-4.406c.023-2.422.09-4.406.148-4.406.61 0 13.208 7.906 15.782 9.902.418.328.308.328-18.848.332l-19.273.004Zm4.815 8.5v-1.68h23.836v3.36H48.855Zm0 8.644v-1.762h23.836v3.524H48.855Zm0 0"/>
</svg>
