<svg xmlns="http://www.w3.org/2000/svg" width="120" height="120" viewBox="0 0 120 136">
    <path fill="none" stroke="red" stroke-width=".004" d="M-80.209-18v2.79h1.6v1.661h-1.6v.485l.254.368.267.408.053.08.346.54.33.526.277.444.178.296-.135.162-.548.657-.306.366-.007.01-.01.011-.007.008-.003.004-.084-.225-.1-.252-.113-.271-.124-.284-.01-.024-.121-.268-.137-.293V-4h-1.588v-5.787l-.123.363-.08.237-.216.576-.175.42-.052.126-.238.508-.248.463-.2.32-.02.032-.015.025-.013.021-.008.013-.096-.272-.124-.309-.144-.327-.153-.324-.14-.276-.013-.028-.1-.179-.045-.084.435-.651.02-.038.39-.737.378-.865.34-.918.293-.937.224-.855.017-.065h-1.642v-1.65h1.748V-18h1.588m6.725.097v1.692h2.7v1.606h-2.7v1.541h3.304v1.638h-8.292v-1.638h3.177v-1.54h-2.732v-1.607h2.732v-1.692h1.811m-11.134-4.869-1.041 6.388L-86-14.29l-2.003 12.293h22.006L-66.323-4-68-14.291l-.341-2.093-1.041-6.388v-.03h-.007L-72-24.588l-5-3.416-5 3.416-2.61 1.784h-.008v.031M-68-24l.2 1.197 1.07 6.42L-64 0h-26l2.73-16.384 1.07-6.419L-86-24l7.52-5.014h.001L-77-30l9 6m-2.572 14.417v1.638h-2.912v1.768H-70v1.681h-9.16v-1.68h3.865v-1.77h-2.912v-1.637h2.912v-1.39h1.811v1.39Zm0 0" transform="matrix(4.29492 0 0 4.26451 390.838 132.2)"/>
    <path d="M4.445 131.723c.051-.207 3.918-23.196 8.594-51.078l8.504-50.704L40.84 17.168l19.3-12.777 19.165 12.68c10.543 6.972 19.218 12.726 19.285 12.784.101.09 17.21 101.57 17.21 102.075 0 .113-18.46.172-55.722.172H4.36Zm102.989-8.395c-.047-.207-3.32-20.129-7.27-44.27-3.953-24.14-7.242-43.988-7.312-44.101-.157-.258-32.497-22.2-32.72-22.2-.112 0-32.234 21.68-32.726 22.09-.074.06-14.547 88.137-14.554 88.567-.004.277 2.359.293 47.332.293h47.34Zm0 0"/>
    <path d="m39.516 102.684-.043-12.293-.743 2.097c-1.41 3.973-3.363 8.235-4.722 10.285l-.422.637-.574-1.472c-.317-.813-1.07-2.485-1.676-3.715l-1.106-2.235 1.008-1.543c2.871-4.39 5.446-10.644 7.387-17.945l.57-2.14h-7.074v-6.883h7.438V55.559h6.761v11.918h6.762v6.882H46.32v2.239l2.008 3.035c2.55 3.86 5.09 7.926 5.09 8.152 0 .195-3.883 4.871-4.04 4.867-.054 0-.429-.812-.827-1.804a66 66 0 0 0-1.465-3.317l-.738-1.508-.016 14.477-.012 14.48h-6.76Zm14.41-22.704v-3.44H67.62v-6.712H55.785v-6.715h11.836v-7.218h7.438v7.218h11.664v6.715H75.059v6.711h14.199v6.883H53.926Zm-3.043 29.461v-3.527H67.62v-7.719H55.11V91.48h12.512v-6.043h7.43l.047 2.981.043 2.977 6.214.046 6.211.043v6.711H75.06v7.72h15.043v7.05h-39.22Zm0 0"/>
    <path fill="#f8f8f8" d="M13.238 123.406c-.152-.094 1.621-11.238 7.035-44.23 3.98-24.258 7.266-44.133 7.301-44.168.293-.27 32.395-21.969 32.524-21.98.218-.024 32.562 21.906 32.64 22.132.094.266 14.438 87.8 14.438 88.11 0 .246-3.844.27-46.867.27-25.778-.005-46.961-.063-47.07-.134m33.266-22.402.016-14.14.566 1.175c.316.645.926 2.043 1.355 3.106.43 1.062.809 1.953.836 1.984.125.129 4.493-5.242 4.418-5.43-.125-.32-3.324-5.375-5.375-8.488-1.785-2.711-1.832-2.809-1.832-3.734v-.95h6.762V67.31h-6.762V55.39h-7.101v11.918H31.95v7.218h3.465c1.906 0 3.469.055 3.469.125-.004.25-1.051 4.028-1.602 5.77-1.808 5.71-4.039 10.648-6.37 14.105l-.977 1.457.828 1.567c.886 1.676 2.27 4.793 2.46 5.554.192.754.38.696 1.04-.328 1.277-1.984 2.86-5.379 4.355-9.367l.758-2.015.008 11.875.004 11.878h7.101Zm43.77 8.437v-3.695h-14.88v-7.383h12.512v-7.05H75.395V85.27H67.28v6.043H54.773v7.05h12.508v7.383H50.715v7.387h39.558Zm-.848-29.46v-3.61H75.395v-6.375H86.89v-7.05H75.395v-7.22H67.28v7.22H55.617v7.05h11.664v6.375H53.758v7.219h35.668Zm0 0"/>
</svg>
