<svg xmlns="http://www.w3.org/2000/svg" width="120" height="120" viewBox="0 0 120 136">
    <path stroke="red" stroke-width=".004" d="m-7.618 9.228-1.166 7.156L-9 17.71l-2.003 12.293h22.006L10.677 28 9 17.709l-.216-1.325-1.166-7.156v-.03h-.007L7 8.78 5 7.413 0 3.997l-5 3.416-2 1.367-.61.417h-.008v.031M-13 32l2.603-15.616L-9 8l1.382-.921.618-.413 5.52-3.68h.001L0 2l7 4.666.618.413L9 8l1.397 8.384L12.333 28l.334 2.002L13 32h-26m9.995-16.995v3.406h2.07V14H.957v1.416h4.452v1.6H.957v1.395h5.965v1.686H.812v4.26l.368-.256.344-.273.322-.29.299-.31.275-.332.251-.355 1.425.522.255.094-.255-.291-.042-.048-.269-.29-.042-.046-.32-.328-.32-.319-.32-.308-.312-.295 1.244-.752.258-.156.177.156.38.334.574.535.562.56.522.562.454.546.358.507-1.495.951-.059.038-.007.004-.012.008-.018.011-.013.009-.01.006-.116-.193-.136-.202-.15-.209-.166-.215-.174-.22-.181-.226-.367.457-.67.833-.027.034-1.305 1.064-1.54.837-.554.202-1.215.442-1.99.485-2.186.357-.018.003-.104-.292-.06-.143-.07-.163-.151-.31-.039-.069-.128-.23-.077-.123-.1-.159-.05-.068-.092-.128-.041-.056 1.345-.14 1.27-.193 1.191-.248 1.105-.31 1.015-.381L0 24.79l.43-.214.093-.046h-1.547v-4.433h-5.931V18.41h2.081v-3.406h1.869m-1.113 5.438.123.037 1.792.536-.435.67-.493.658-.535.632-.43.454-.129.136-.568.534-.48.396-.033.028-.021.016-.016.014-.01.008-.218-.179-.27-.204-.302-.21-.309-.206-.1-.062-.177-.11-.016-.01-.114-.064-.09-.05-.051-.029.559-.396.544-.455.518-.5.477-.533.425-.553.335-.52Zm0 0" transform="matrix(4.29492 0 0 4.26451 60.129 -4.265)"/>
    <path fill="#f9f9f9" d="M13.02 123.414c.011-.344 14.5-88.355 14.554-88.406.293-.27 32.395-21.969 32.524-21.98.218-.024 32.562 21.91 32.644 22.136.094.262 14.434 87.797 14.434 88.106 0 .246-3.864.27-47.078.27-25.895 0-47.078-.056-47.078-.126m29.02-9.008c10.038-1.644 17.683-3.988 23.866-7.32 2.875-1.547 3.602-2.031 6.106-4.063 2.59-2.097 3.031-2.539 5-4.992 1.191-1.48 2.215-2.691 2.277-2.691.164 0 2.188 2.582 3.117 3.98.742 1.11.84 1.196 1.168 1.024.492-.262 6.41-4.008 6.594-4.176.184-.164-1.023-1.883-2.758-3.934-1.625-1.918-5.781-6.078-8.277-8.285l-1.93-1.703-.523.336c-.29.184-1.758 1.07-3.27 1.969-1.512.898-2.746 1.683-2.746 1.742s.848.89 1.887 1.848c1.875 1.73 5.793 5.84 5.68 5.953-.032.031-1.536-.48-3.34-1.14l-3.278-1.2-.433.555c-2.282 2.937-4.328 4.945-6.664 6.543l-.786.535V81.578h26.204v-7.387H64.406v-5.875h19.106v-6.882H64.406V55.39h-8.449v18.8h-8.625V59.586h-8.281V74.19H30.09v7.387h25.527v18.797l3.168.008 3.172.012-1.812.914c-5.676 2.859-14.325 5-24.391 6.039-1.488.152-2.734.304-2.77.34-.035.035.371.726.903 1.535 1.035 1.586 2.289 4.062 2.636 5.215.168.562.293.71.598.71.211 0 2.422-.335 4.918-.742m-3.33-15.074c2.923-2.465 5.595-5.215 8.204-8.441 1.309-1.621 3.883-5.426 3.754-5.555-.059-.059-1.941-.656-4.184-1.328l-4.082-1.223-.777 1.2c-2.484 3.843-6.613 8.093-10.594 10.906l-1.144.808 1.074.625c1.41.824 3.863 2.473 5.117 3.446.55.425 1.047.773 1.102.773.05 0 .742-.543 1.53-1.211m0 0"/>
</svg>
