<svg xmlns="http://www.w3.org/2000/svg" width="120" height="120" viewBox="0 0 120 136">
    <path stroke="red" stroke-width=".004" d="m-63.618 43.228-.965 5.924-.417 2.557-2.003 12.293h22.006L-45.323 62-47 51.709l-.417-2.557-.965-5.924v-.03h-.007L-49 42.78l-2-1.367-5-3.416-5 3.416-2 1.367-.61.417h-.008v.031M-47 42l1.192 7.152L-43.668 62l.335 2.002.255 1.534L-43 66h-26l.078-.464 2.73-16.384L-65 42l1.382-.921.618-.413 5.52-3.68h.001L-56 36l7 4.666.618.413L-47 42m-5.812 6.168.012.21.015.208.018.205.02.203.015.158.004.044.021.202.35.112.232-.236.112-.122.123-.133.232-.264.221-.264.204-.255.179-.236 1.482.76-.264.219-.209.173-.054.045-.26.216-.256.21-.25.206-.167.135-.037.03-.02.016-.014.011-.004.003.322.14.31.14.29.138.272.138.247.136.22.135-.25.35-.431.596-.01.014-.169.234-.01.014-.008.011-.254-.158-.302-.17-.32-.169-.019-.01-.367-.186-.36-.177-.026-.013-.396-.19.076.203.128.34.245.477.293.4.345.314.081.043.323.17.469.1.08-.028.072-.1.066-.164.06-.224.053-.278.004-.026.004-.025.004-.027.036-.234.002-.013.147.19.094.11.069.08.172.187.175.174.173.153.045.034.12.09-.12.489-.031.126-.21.476-.266.341-.321.212-.374.087-.425-.032-.42-.119-.636-.178-.818-.552-.437-.545-.158-.198-.02-.025-.445-.944-.31-1.08-.208-1.178h-7.71v-1.655h9.129M-49 59.954l-.152.712-.003.014-.21.561-.132.2-.136.203-.326.251-.385.105-.446-.033-1.109-.368-.186-.159-.642-.552-.52-.884-.07-.117-.396-1.24-.226-1.303-.022-.124-.143-1.56h-1.578v6.105h-1.705V55.66h-1.758l-.096 1.083-.104.6-.085.49-.31 1.077-.46 1.044-.635.992-.605.662-.143.156-.037.04-.029.032-.016.018-.011.012-.17-.205-.209-.226-.235-.232-.247-.222-.076-.063-.165-.135-.085-.06-.137-.098.717-.75.546-.798.297-.624.1-.21.272-.856.008-.043.162-.823.09-.86h-1.874v-1.679h1.916v-1.509l-.21.048-.207.045-.206.041-.05.01-.155.027-.205.034-.142.02-.018.004-.027.003-.02.003-.056-.208-.083-.226-.102-.234-.115-.233-.123-.22-.123-.199.667-.147.086-.018.415-.106.332-.085.726-.211.694-.229.646-.24.242-.104.343-.146.13.146.852.952.088.1v-1.052h1.705v3.734h3.134l.01.345.01.34.012.334.013.295.002.038.02.33.029.331.243.09.233-.21.237-.221.234-.225.134-.133.09-.09.081-.083.125-.129.18-.195.969.497.534.274-.264.194-.263.19-.26.18-.256.176-.25.166-.179.116-.026.017-.021.014-.011.007-.005.003.304.147.296.148.283.148.263.145.212.123.03.017.211.133-.86 1.15-.01.013-.017.023-.013.02-.011.013-.253-.178-.297-.185-.333-.191-.078-.042-.282-.152-.38-.197-.389-.196.16.729.21.642.222.449.045.09.33.42.084.058.32.224.482.128.085-.035.075-.131.066-.216.06-.292.034-.246.016-.11.041-.377.003-.025v-.011l.157.206.167.207.095.11.08.09.175.186.175.16.017.013.152.113m-10.124-7.836v1.864h1.737V51.59l-.278.094-.283.09-.288.086-.292.084-.296.082-.118.03-.182.05Zm0 0" transform="matrix(4.29492 0 0 4.26451 300.644 -149.258)"/>
    <path fill="#f9f9f9" d="M13.094 122.91c.058-.347 3.324-20.25 7.261-44.234 3.934-23.985 7.184-43.633 7.22-43.668.292-.27 32.394-21.969 32.523-21.98.218-.024 32.562 21.91 32.644 22.136.094.262 14.434 87.797 14.434 88.106 0 .246-3.864.27-47.094.27H12.988Zm72.36-7.95c.898-.241 2.042-1.136 2.706-2.12.617-.918 1.469-3.242 1.863-5.106l.278-1.28-1.41-1.349c-.774-.738-1.75-1.8-2.168-2.359s-.809-1.016-.868-1.02c-.058-.003-.195.731-.304 1.63-.223 1.808-.637 3.656-.922 4.113-.547.867-3.426-.422-4.809-2.153-.793-.992-1.785-2.91-2.34-4.52-.44-1.28-1.109-4.128-.996-4.241.11-.11 5.32 2.691 6.957 3.742.809.516 1.524.879 1.59.805.2-.223 3.645-4.82 3.774-5.032.148-.25-.934-.922-4.157-2.578l-2.5-1.285.872-.535c1.195-.738 5.347-3.676 5.468-3.867.098-.16-6.004-3.375-6.402-3.375-.121 0-.59.398-1.043.882-.453.485-1.68 1.688-2.723 2.676-1.82 1.723-1.922 1.793-2.39 1.63-.48-.165-.493-.2-.594-1.716-.059-.847-.156-2.77-.215-4.27l-.113-2.726H61.535V64.961h-7.43l-.046 2.105-.047 2.11-2.188-2.442c-1.199-1.347-2.203-2.445-2.222-2.445-.024 0-.672.266-1.442.594-4.168 1.77-9.883 3.492-16.168 4.867l-.383.082.524.879c.738 1.242 1.656 3.234 1.89 4.094.239.89.274.894 3.235.308a79 79 0 0 1 2.21-.418c.052 0 .09 1.399.09 3.106v3.105h-8.285v7.215h8.145l-.094.633a42 42 0 0 0-.191 1.719c-.164 1.75-.735 4.465-1.38 6.535-1.265 4.086-3.417 7.719-6.292 10.637-1.465 1.484-1.594 1.66-1.305 1.824.723.41 2.653 2.11 4.086 3.605l1.531 1.594 1.786-1.902c4.265-4.54 7.058-10.465 8.328-17.672.367-2.078.77-5.516.77-6.594v-.379h7.44v26.188h7.438V88.12h3.293c3.277 0 3.293.004 3.371.379.043.207.2 1.734.344 3.39.387 4.356 1.137 8.4 2.152 11.59.715 2.239 1.07 3.043 2.125 4.832 1.192 2.024 1.371 2.239 3.075 3.684 1.808 1.535 1.812 1.54 4.164 2.332 2.52.848 3.968 1.02 5.394.633m.25-31.3c1.835-.539 3.292-2.574 4.081-5.7l.348-1.374-1.766-1.742c-.969-.961-1.933-1.969-2.137-2.242-.453-.602-.601-.438-.753.832-.137 1.14-.72 3.011-1.016 3.257-.176.145-.48.133-1.227-.039-2.613-.609-4.515-2.265-6.035-5.261-.636-1.254-1.316-2.907-1.195-2.907.183 0 6.336 3.125 7.305 3.711.605.364 1.16.64 1.23.618.074-.028.973-1.211 2.004-2.633l1.871-2.586-.617-.418c-.508-.34-4.754-2.426-6.086-2.989-.32-.136-.016-.43 2.836-2.746 1.758-1.43 3.168-2.675 3.137-2.77-.063-.187-6.012-3.276-6.286-3.265-.093.004-.742.735-1.437 1.617-.7.883-1.934 2.305-2.742 3.157l-1.477 1.547-.672-.18c-.746-.2-.754-.219-.941-2.547a91 91 0 0 0-.188-2.055l-.09-.883H34.485v7.22h33.13l.085.374c.051.211.246 1.285.438 2.395.902 5.242 2.652 9.656 4.96 12.52 1.051 1.3 1.626 1.831 3.024 2.788 1.59 1.09 1.914 1.235 4.094 1.864 2.656.761 4.02.87 5.488.437m0 0"/>
    <path fill="#f9f9f9" d="M46.828 76.973c0-3.602.024-3.942.293-4.02l2.664-.762c1.3-.37 2.805-.824 3.34-1.007l.973-.332v10.054h-7.27Zm0 0"/>
</svg>
