<svg xmlns="http://www.w3.org/2000/svg" width="120" height="120" viewBox="0 0 120 136">
    <path stroke="red" stroke-width=".004" d="M34.354 80.622v6.845H31.59l.077.264.081.259.087.254.091.25.095.249.1.247.28-.22.278-.231.089-.077.18-.157.253-.234.23-.227.203-.216.009.01 1.135 1.245-.315.247-.325.246-.33.242-.333.234-.327.225-.053.035-.266.176.297.414.32.382.345.351.373.317.402.283.213.122.087.05.056.032.036.02.025.015.017.01-.207.197-.22.24-.224.267-.213.278-.189.274-.154.256-.914-.694-.111-.123-.55-.607-.025-.027-.06-.066-.033-.036-.657-1.008-.208-.435-.025-.054-.024-.048-.037-.08-.065-.135-.106-.221-.071-.15-.011-.022-.021-.058-.017-.05-.41-1.151-.362-1.364h-.762v4.12l1.802-.474.044-.012.03-.009.02-.004.01-.003.01-.003.006.25.017.272.024.283.03.275.035.252.023.133.01.06.004.02-1.268.39-.931.302-.518.183-.139.049-.441.18-.233.116-.055.027-.056.036-.066.042-.036.024-.023.015-.015.009-.052-.236-.078-.267-.098-.279-.111-.27-.121-.243-.007-.01-.103-.167-.012-.019.147-.08.141-.101.125-.132.022-.036.078-.132.066-.212.024-.262V80.622h6.725m-8.987.28-.026.042-.014.022-.006.01.428.346.42.354.275.244.124.11.369.346.33.327.278.301-.806.964-.243.291-.19-.225v1.255h-1.292v1.051h1.938v1.545h-1.938v3.283l.984-.215-.904-.266-.006-.002.099-.373.05-.2.054-.218.103-.444.094-.448.08-.432.06-.395 1.28.332-.133.426-.135.434-.136.428-.104.317-.03.093-.13.379-.125.337.509-.104.328-.068.13 1.411.007.081-.465.12-.491.126-.661.168-.3.076-.596.15-.357.09-.923.23-.877.224-.815.21-.349-1.475-.054-.23.327-.067.354-.069.377-.072.397-.075.415-.078.428-.08v-3.604h-2.033V86.34H23.5v-1.05h-1.24v-.644l-.095.08-.095.078-.096.077-.07.056-.025.02-.095.075-.054.042-.02.017-.013.01-.009.007-.068-.23-.101-.292-.123-.326-.119-.291-.016-.038-.136-.304-.05-.1-.05-.1L21 83.38l.59-.438.588-.502.528-.52.037-.036.528-.599.473-.631.39-.636.01-.017.072.027.154.058 1.194.45-.033.076-.037.073-.04.072-.042.073-.045.073m-3.71 7.809.012-.003 1.142-.319.13.43.123.456.112.46.083.377.016.074.08.422.06.377-1.15.33-.027.008-.02.006-.042-.379-.071-.426-.083-.412-.01-.044-.11-.466-.12-.459-.125-.432M20.39 75.197h-.007v.031L19 83.708l-2.003 12.294h22.006L38.677 94 37 83.709l-1.382-8.48v-.032h-.007L28 69.997l-7.61 5.2M28 68l7.225 4.817.393.262L37 74l4 24H15l4-24 1.382-.921.393-.262 5.745-3.831L28 68m-4.583 15.538-.225.238h2.88l-.236-.24-.253-.252-.266-.256-.276-.258-.282-.256-.183-.16-.053-.047-.035-.031-.01-.008-.004-.004-.203.265-.207.26-.211.255-.216.249-.22.245m5.907-1.382v1.159h3.325v-1.159h-3.325m3.325 2.596h-3.325v1.19h3.325Zm0 0" transform="matrix(4.29492 0 0 4.26451 -60.129 -285.722)"/>
    <path fill="#f8f8f8" d="M13.094 122.91c.058-.347 3.324-20.25 7.261-44.234 3.934-23.985 7.184-43.633 7.22-43.668.292-.27 32.394-21.969 32.523-21.98.218-.024 32.562 21.91 32.644 22.136.094.262 14.434 87.797 14.434 88.106 0 .246-3.864.27-47.094.27H12.988Zm46.742-8.418c1.953-1 5.988-2.41 12.832-4.484l2.086-.633-.113-.848c-.301-2.242-.426-3.64-.426-4.761 0-1.094-.035-1.22-.297-1.141-.164.047-1.781.473-3.594.941-1.812.473-3.543.922-3.844 1.004l-.55.145V87.437l1.562.051 1.559.047.793 2.938c1.648 6.117 3.797 11.148 6.488 15.191 1.965 2.957 4.16 5.344 6.625 7.207 1.047.79 1.965 1.438 2.043 1.438s.25-.207.383-.457c.426-.813 2.605-3.622 3.777-4.872l1.14-1.218-.534-.293c-2.098-1.149-4.168-2.778-5.903-4.633-1.168-1.25-2.718-3.223-2.718-3.453 0-.067.777-.645 1.73-1.281 2.418-1.618 6.383-4.594 6.383-4.786 0-.136-2.844-3.316-4.406-4.93l-.477-.488-1.574 1.489c-1.668 1.578-4.676 4.105-4.883 4.105-.172 0-2.184-5.512-2.184-5.988 0-.027 2.664-.05 5.918-.05h5.914V58.077h-29.07l-.043 23.875c-.043 22.594-.062 23.914-.351 24.55-.352.774-.985 1.474-1.762 1.954l-.543.332.422.637c.511.77 1.422 3.031 1.847 4.59.168.62.348 1.132.403 1.132.05 0 .668-.296 1.367-.656M44.488 110.7c6.43-1.617 11.719-2.965 11.754-3 .153-.152-.531-6.484-.699-6.476-.098.004-.863.148-1.7.32-.835.176-1.542.297-1.566.273-.023-.027.137-.53.364-1.125.699-1.84 2.832-8.718 2.765-8.914-.031-.101-1.293-.504-2.793-.894l-2.734-.711-.102.613c-.304 1.89-1.187 6.094-1.68 7.988-.312 1.207-.515 2.235-.452 2.29.062.054.867.316 1.792.582l1.684.484-1.262.289c-.691.156-1.543.336-1.89.394l-.637.11V89.129h8.453v-6.715h-8.453v-4.363h5.582v-5.094l.813.758 2.289-2.723 2.293-2.726-.774-.856c-1.168-1.289-4.285-4.152-6.566-6.031a413 413 0 0 1-2.098-1.73c-.039-.032.133-.43.379-.88.25-.453.45-.894.45-.988 0-.136-5.774-2.398-6.11-2.39-.063 0-.547.699-1.082 1.554-2.621 4.188-6.406 8.22-10.938 11.649l-1.648 1.246.504.988c.586 1.156 1.652 3.79 2.195 5.43.34 1.027.406 1.12.656.914.153-.129.68-.555 1.168-.95l.887-.718v2.547h5.41v4.363H31.95v6.715h8.793v7.637c0 4.863-.062 7.64-.168 7.64-.215 0-9.129 1.664-9.488 1.77-.234.07-.168.515.555 3.562.879 3.723.925 3.899 1.066 3.899.047 0 5.352-1.32 11.781-2.938m-6.418-7.636 2.485-.72-.09-.523a88 88 0 0 0-1.426-6.648c-.89-3.488-1.05-4.027-1.203-4.027-.219 0-4.906 1.324-4.996 1.41-.043.043.039.441.183.886.747 2.278 2.141 8.79 2.141 9.985q0 .51.211.433a126 126 0 0 1 2.695-.796m0 0"/>
    <path fill="#f8f8f8" d="M41.031 70.035a88 88 0 0 0 2.649-3.105l1.324-1.637.86.715c.476.394 1.968 1.785 3.32 3.097l2.46 2.387-5.968.008-5.969.004ZM65.93 67.14v-2.347h14.03v4.7H65.93Zm0 11.165V75.87h14.03v4.867H65.93Zm0 0"/>
</svg>
