<svg xmlns="http://www.w3.org/2000/svg" width="498.898" height="544.252" viewBox="0 0 1320 1440">
    <defs>
        <linearGradient id="1TO_svg__a" x1="1091.453" x2="1049.718" y1="563.806" y2="563.806" gradientUnits="userSpaceOnUse" spreadMethod="reflect">
            <stop offset="0" stop-color="#ffd285"/>
            <stop offset=".232" stop-color="#ffcd79"/>
            <stop offset=".616" stop-color="#ffca73"/>
            <stop offset=".808" stop-color="#ffd386"/>
            <stop offset="1" stop-color="#ffc86e"/>
        </linearGradient>
        <linearGradient id="1TO_svg__b" x1="659.982" x2="659.982" y1="1050.815" y2="76.793" gradientUnits="userSpaceOnUse">
            <stop offset="0"/>
            <stop offset=".6" stop-color="#fff"/>
        </linearGradient>
        <clipPath id="1TO_svg__c">
            <path stroke-width="1.534" d="M1808.815-1033.572a7.223 7.223 0 0 1-7.239-7.239v-120.827h-120.827a7.223 7.223 0 0 1-7.239-7.239v-4.879a7.223 7.223 0 0 1 7.239-7.239h107.142l-75.763-75.759a7.22 7.22 0 0 1 0-10.237l3.451-3.451a7.223 7.223 0 0 1 10.238 0l75.759 75.763v-107.143a7.223 7.223 0 0 1 7.239-7.239h4.878a7.223 7.223 0 0 1 7.239 7.239v107.143l75.759-75.763a7.223 7.223 0 0 1 10.238 0l3.451 3.451a7.22 7.22 0 0 1 0 10.237l-75.759 75.759h107.139a7.224 7.224 0 0 1 7.239 7.239v4.879a7.224 7.224 0 0 1-7.239 7.239h-120.827v120.827a7.223 7.223 0 0 1-7.239 7.239zm2.436-137.74h.01z"/>
        </clipPath>
    </defs>
    <path d="m929.913 1032.465-43.05 53.432-292.106 68.069-261.852-85.283-159.975-802.06 77.7-64.448z" opacity=".5"/>
    <path fill="url(#1TO_svg__a)" d="m659.957 1108.163 270.001-75.701 17.663-57.348 142.368-882.306-20.751-16.013H250.674l-20.751 16.013 142.368 882.306 17.663 57.348z"/>
    <path fill="url(#1TO_svg__b)" d="m659.982 1050.815 287.664-75.701 142.368-882.306-20.749-16.013H250.701L229.95 92.808l142.37 882.306z" opacity=".25" style="mix-blend-mode:overlay"/>
    <path d="m389.995 1032.473-17.663-57.348L660 1050.826l287.668-75.701-17.663 57.348L660 1108.174z" opacity=".7"/>
    <path d="m250.668 97.854.043-21.064-20.75 16.013z" opacity=".2"/>
    <path d="m947.669 975.124-17.664-13.248L660 1034.424v16.402z" opacity=".4"/>
    <path d="m372.331 975.124 17.664-13.248L660 1034.424v16.402z" opacity=".6"/>
    <path d="m372.331 975.124 17.664-13.248L250.668 97.854l-20.707-5.052z" opacity=".4"/>
    <g fill="#fff">
        <path d="m947.669 975.124-17.664-13.248 139.327-864.022 20.707-5.052z" opacity=".3"/>
        <path d="m1069.332 97.854-.043-21.064 20.75 16.013z" opacity=".8"/>
        <path d="M1069.332 97.854H250.668l.043-21.064h818.579z" opacity=".3"/>
    </g>
    <path fill="#350000" d="M656.441 150.746a10.405 10.405 0 0 0-10.428 10.428v174.064H471.949a10.405 10.405 0 0 0-10.428 10.428v7.028a10.405 10.405 0 0 0 10.428 10.428h154.349L517.154 472.26a10.406 10.406 0 0 0 0 14.748l4.971 4.971a10.406 10.406 0 0 0 14.748 0l109.139-109.144v154.35a10.405 10.405 0 0 0 10.428 10.428h7.028a10.405 10.405 0 0 0 10.428-10.428v-154.35L783.035 491.98a10.406 10.406 0 0 0 14.748 0l4.971-4.971a10.406 10.406 0 0 0 0-14.748L693.616 363.122H847.96a10.405 10.405 0 0 0 10.428-10.428v-7.028a10.405 10.405 0 0 0-10.428-10.428H673.897V161.174a10.405 10.405 0 0 0-10.428-10.428zm3.509 198.429h.014z"/>
    <path fill="#9a0000" d="M1799.134-1043.253a7.223 7.223 0 0 1-7.239-7.239v-120.827h-120.827a7.223 7.223 0 0 1-7.239-7.239v-4.878a7.223 7.223 0 0 1 7.239-7.239h107.143l-75.763-75.759a7.223 7.223 0 0 1 0-10.238l3.451-3.451a7.22 7.22 0 0 1 10.237 0l75.759 75.763v-107.142a7.223 7.223 0 0 1 7.239-7.239h4.879a7.224 7.224 0 0 1 7.239 7.239v107.142l75.759-75.763a7.22 7.22 0 0 1 10.237 0l3.451 3.451a7.223 7.223 0 0 1 0 10.238l-75.759 75.759h107.139a7.224 7.224 0 0 1 7.239 7.239v4.878a7.223 7.223 0 0 1-7.239 7.239h-120.827v120.827a7.223 7.223 0 0 1-7.239 7.239zm2.436-137.74h.01v-.01z" clip-path="url(#1TO_svg__c)" transform="matrix(1.4406 0 0 -1.4406 -1949.339 -1338.218)"/>
    <path fill="#310000" d="M738.067 578.209c7.973 2.998 22.95 14.691 33.282 25.986 17.462 19.09 18.785 22.287 18.785 45.41 0 20.195-2.247 27.778-11.944 40.304-18.296 23.635-33.678 36.472-64.227 53.599l-27.969 15.681 3.89 22.661c2.14 12.463 7.166 35.78 11.169 51.814 6.915 27.698 8.135 23.348 18.702 27.267 17.846 6.617 18.377 7.95-.909 25.017-16.894 14.95-39.902 25.452-45.384 20.716-1.477-1.276-2.956-19.428-3.286-40.336s-1.879-50.807-3.443-66.441l-2.843-28.425-27.544 11.404c-32.44 13.431-39.02 14.203-39.02 4.575 0-4.207 10.992-13.851 26.694-23.42 37.695-22.971 99.633-74.246 106.176-87.896 8.639-18.022 9.077-37.902-5.847-47.479-16.612-10.661-50.154-15.821-98.518 3.322-52.495 20.778-74.412 8.137-74.412-17.576 0-17.719 21.453-26.314 89.863-36.002 50.743-7.186 78.011-7.237 96.782-.18z"/>
    <path fill="#900" d="M730.516 600.86c7.973 2.998 34.808 43.958 34.808 67.081 0 20.195-2.506 36.592-12.203 49.118-18.296 23.635-8.611 9.321-39.159 26.448l-27.969 15.681-6.087 20.773c-3.556 12.135 9.862 56.004 13.866 72.039 6.915 27.698 13.528 14.45 24.096 18.368 17.846 6.617 20.265-1.488.979 15.579-16.894 14.95-39.902 25.452-45.384 20.716-1.477-1.276-2.956-19.428-3.286-40.336s-1.879-50.807-3.443-66.441l-2.843-28.425-27.544 11.404c-32.44 13.431-39.02 14.203-39.02 4.575 0-4.207 10.992-13.851 26.694-23.42 37.695-22.971 99.633-74.246 106.176-87.896 8.639-18.022 9.077-37.902-5.847-47.479-16.612-10.661-50.154-15.821-98.518 3.322-52.495 20.778-74.412 8.137-74.412-17.576 0-17.719 160.323-20.587 179.094-13.53z"/>
    <path fill="#fff" d="M582.49 637.924c3.427-3.919 5.604-12.261.741-14.488s-16.766 1.661-20.194 5.583 1.618 7.873 6.482 10.098 9.544 2.727 12.971-1.193m97.685 265.253c-3.148-1.205-3.522-5.451-.56-6.368s9.257 1.495 9.443 3.617-5.735 3.955-8.883 2.751m-73.38-111.448c-3.116-.344-6.087-2.007-6.419-4.265s1.98-5.108 5.098-4.762 7.039 3.887 7.369 6.142-2.932 3.228-6.048 2.884z"/>
</svg>
