<svg xmlns="http://www.w3.org/2000/svg" width="498.898" height="544.252" viewBox="0 0 1320 1440">
    <defs>
        <linearGradient id="1KA_svg__a" x1="-1430.769" x2="-1409.955" y1="-77.47" y2="-77.47" gradientUnits="userSpaceOnUse" spreadMethod="reflect">
            <stop offset="0" stop-color="#ffd285"/>
            <stop offset=".232" stop-color="#ffcd79"/>
            <stop offset=".616" stop-color="#ffca73"/>
            <stop offset=".808" stop-color="#ffd386"/>
            <stop offset="1" stop-color="#ffc86e"/>
        </linearGradient>
        <linearGradient id="1KA_svg__b" x1="-904.556" x2="-904.556" y1="-406.052" y2="184.159" gradientUnits="userSpaceOnUse">
            <stop offset="0"/>
            <stop offset=".599" stop-color="#fff"/>
        </linearGradient>
        <clipPath id="1KA_svg__c">
            <path stroke-width="10.708" d="M1720.699 1071.423c-1.85 0-3.7.708-5.118 2.125l-3.45 3.45a7.22 7.22 0 0 0 0 10.237l5.263 5.263 8.565 30.343c.771 2.729 3.59 5.545 6.319 6.315l10.886-10.889 54.405 54.405-54.405 54.405-10.886-10.889c-2.729.771-5.548 3.59-6.319 6.319l-8.562 30.337-5.266 5.266a7.22 7.22 0 0 0 0 10.237l3.45 3.45a7.22 7.22 0 0 0 10.237 0l5.259-5.259 30.347-8.569c2.729-.771 5.545-3.586 6.315-6.315l-10.889-10.889 54.405-54.405 54.405 54.405-10.889 10.889c.771 2.729 3.586 5.545 6.315 6.315l30.347 8.569 5.259 5.259a7.22 7.22 0 0 0 10.237 0l3.45-3.45a7.22 7.22 0 0 0 0-10.237l-5.263-5.263-8.565-30.34c-.771-2.729-3.59-5.548-6.319-6.319l-10.886 10.889-54.405-54.405 54.405-54.405 10.886 10.889c2.729-.771 5.548-3.586 6.319-6.315l8.569-30.347 5.259-5.26a7.22 7.22 0 0 0 0-10.237l-1.725-1.725-1.725-1.725a7.22 7.22 0 0 0-10.237 0l-5.266 5.266-30.34 8.565c-2.729.771-5.545 3.586-6.315 6.315l10.889 10.889-54.405 54.405-54.405-54.405 10.889-10.889c-.771-2.729-3.586-5.545-6.315-6.315l-30.34-8.565-5.266-5.266a7.2 7.2 0 0 0-5.118-2.125zm90.556 101.246h.01l-.01.01-.01-.01z"/>
        </clipPath>
    </defs>
    <path d="m1013.059 1142.48-52.496 58.045-346.032 112.608-387.339-123.24L47.573 287.21l92.022-99.032z" opacity=".5"/>
    <path fill="url(#1KA_svg__a)" d="m-1220.686-363.581-176.123 60.03-8.809 28.459-84.914 494.898 10.349 7.986h518.995l10.348-7.986-84.914-495.039-8.809-28.459z" transform="translate(-1787.64 533.54)scale(-2.0051)"/>
    <path fill="url(#1KA_svg__b)" d="m-905.02-407.213-176.123 59.888-8.809 26.778-84.914 496.72 10.349 7.986h518.995l10.349-7.986-84.914-494.898-8.809-28.601z" opacity=".25" style="mix-blend-mode:overlay" transform="translate(-1154.688 446.054)scale(-2.0051)"/>
    <path d="m139.629 97.854.043-21.064-20.75 16.013zm891.185 987.285-17.664-13.248L660 1188.821v16.402z" opacity=".4"/>
    <path d="m289.186 1085.139 17.664-13.248L660 1188.821v16.402z" opacity=".6"/>
    <path d="m289.186 1085.139 17.664-13.248L139.629 97.854l-20.707-5.052z" opacity=".6"/>
    <g fill="#fff">
        <path d="m1030.814 1085.139-17.664-13.248 167.221-974.037 20.707-5.052z" opacity=".3"/>
        <path d="m1180.371 97.854-.043-21.064 20.75 16.013z" opacity=".8"/>
        <path d="M1180.371 97.854H139.629l.043-21.064h1040.656z" opacity=".3"/>
    </g>
    <path d="m306.849 1142.487-17.663-57.348L660 1205.223l370.814-120.084-17.663 57.348L660 1262.571z" opacity=".7"/>
    <path d="M529.493 203.303a10.4 10.4 0 0 0-7.373 3.062l-4.971 4.971a10.405 10.405 0 0 0 0 14.747l7.582 7.582 12.339 43.713c1.11 3.932 5.171 7.988 9.103 9.098l15.682-15.687 78.375 78.375-78.375 78.375-15.682-15.687c-3.931 1.11-7.993 5.171-9.103 9.103l-12.334 43.703-7.587 7.587a10.405 10.405 0 0 0 0 14.747l4.971 4.971a10.405 10.405 0 0 0 14.747 0l7.577-7.577 43.717-12.344c3.931-1.11 7.988-5.167 9.098-9.098l-15.687-15.687 78.375-78.375 78.375 78.375-15.687 15.687c1.11 3.931 5.167 7.988 9.098 9.098l43.717 12.344 7.577 7.577a10.405 10.405 0 0 0 14.747 0l4.971-4.971a10.405 10.405 0 0 0 0-14.747l-7.582-7.582-12.339-43.708c-1.11-3.931-5.172-7.993-9.103-9.103l-15.682 15.687-78.375-78.375 78.375-78.375 15.682 15.687c3.931-1.11 7.993-5.167 9.103-9.098l12.344-43.717 7.577-7.577a10.405 10.405 0 0 0 0-14.747l-2.485-2.485-2.485-2.485a10.405 10.405 0 0 0-14.747 0l-7.587 7.587-43.708 12.339c-3.932 1.11-7.988 5.167-9.098 9.098l15.687 15.687-78.375 78.375-78.375-78.375 15.687-15.687c-1.11-3.931-5.167-7.988-9.098-9.098l-43.708-12.339-7.586-7.587a10.4 10.4 0 0 0-7.374-3.062zm130.455 145.855h.014l-.014.014-.014-.014z"/>
    <path fill="#29303d" d="M1711.017 1079.746c-1.85 0-3.7.707-5.118 2.125l-1.725 1.725-1.725 1.725a7.22 7.22 0 0 0 0 10.237l5.266 5.266 8.565 30.34c.771 2.729 3.586 5.545 6.315 6.315l10.889-10.886 54.401 54.401-54.401 54.401-10.889-10.886c-2.729.771-5.545 3.59-6.315 6.319l-8.565 30.337-5.266 5.266a7.22 7.22 0 0 0 0 10.237l3.45 3.45a7.22 7.22 0 0 0 10.237 0l5.26-5.259 30.347-8.569c2.729-.771 5.545-3.59 6.315-6.319l-10.886-10.889 54.401-54.401 54.401 54.401-10.886 10.889c.771 2.729 3.59 5.548 6.319 6.319l30.34 8.565 5.263 5.263a7.22 7.22 0 0 0 10.237 0l3.45-3.45a7.22 7.22 0 0 0 0-10.237l-5.259-5.26-8.569-30.343c-.771-2.729-3.59-5.548-6.319-6.319l-10.889 10.886-54.401-54.401 54.401-54.401 10.889 10.886c2.729-.771 5.548-3.586 6.319-6.315l8.569-30.347 5.259-5.26a7.22 7.22 0 0 0 0-10.237l-3.45-3.45a7.22 7.22 0 0 0-10.237 0l-5.266 5.266-30.337 8.565c-2.729.771-5.548 3.586-6.319 6.315l10.886 10.889-54.401 54.401-54.401-54.401 10.886-10.889c-.771-2.729-3.586-5.545-6.315-6.315l-30.34-8.565-5.266-5.266a7.2 7.2 0 0 0-5.118-2.125zm90.556 101.246h.01l-.01.01z" clip-path="url(#1KA_svg__c)" transform="translate(-1949.345 -1340.19)scale(1.4406)"/>
    <path d="M460.817 870.745c2.48 14.883 49.613 36.217 74.916 34.233 8.93-.496 15.876-7.442 24.807-8.434 10.914-1.489 39.195-6.45 50.11-4.465-11.908 20.34-23.815 40.682-32.25 64.001-8.93 6.45-30.263 8.434-31.751 16.372-8.434-2.48-18.853 2.977-21.83 9.923 22.326 18.358 50.605 35.721 87.319 31.256 9.923-17.861 30.76-15.876 55.567-13.396 4.465 28.28 66.482 15.876 78.389 16.869.496-15.38-18.358-19.845-23.318-24.807 38.698-41.178 76.9-82.357 123.04-116.59-4.465-3.97-7.442-9.427-12.403-12.9-27.783-.993-33.737 10.914-50.11 24.31-30.76 25.303-63.505 46.14-90.295 75.908-10.418 5.955-46.14 6.946-64.002 6.45-1.984-26.792 19.845-57.055 24.31-82.358 22.823-3.969 76.405-3.473 105.18-14.388 3.97 7.442 9.924 3.473 15.877 7.938 5.954-1.985 5.458-9.923 12.403-11.41-4.962-15.38-16.869-24.807-26.295-36.218-17.365-86.823 9.923-181.584 47.133-241.616-8.435-1.985-18.853-3.473-30.265 1.489-26.791 21.334-39.195 64.497-48.62 99.226-24.807-11.41-73.427 9.923-96.746 0-17.365 9.427-62.016 8.93-78.389 12.9 11.411 17.364 43.164 26.295 64.498 19.844-.993 9.923-1.489 30.265-1.985 49.117-18.853 9.427-43.66 3.473-59.04 13.396 5.954 13.396 36.714 26.791 57.055 17.86 2.48 12.404-.993 40.683 6.945 58.048-22.821 1.489-50.11 5.954-72.93 3.473-5.458-13.396-2.977-27.783-3.473-46.637-1.985-56.558-20.341-134.948 1.985-188.53 42.171 4.465 80.87 5.458 115.102 14.388-1.489-.496-.496-1.488.496-2.976-11.907-2.48-21.83-6.45-32.248-11.41-9.427-4.466-15.876-11.908-24.807-16.373-9.923-4.961-23.317-6.45-33.737-11.907-2.48-1.489-2.976-6.45-5.457-7.938-17.365-11.907-53.582-32.744-67.475-13.396-14.388 28.776-11.41 67.97-8.93 105.18 1.489 24.807 11.907 49.613 10.42 73.924-1.49 28.775-5.459 57.55-8.931 78.388-8.434 11.41-33.241 13.396-30.265 31.256m190.516-70.947c26.295-.496 45.644-7.938 67.97-5.954-1.489 20.341 7.938 33.737-1.985 52.59-7.938 8.434-42.171 7.441-52.093 12.403-15.876-10.418-13.892-35.721-13.892-59.04zm1.984-27.287c-.497-21.333 0-34.73 1.985-50.605 24.31.496 43.659-6.45 69.458-5.458 0 15.38-6.45 32.745-5.458 50.606-21.83-.993-46.14 2.48-65.985 5.457"/>
    <path fill="#29303d" d="M460.749 870.298c2.48 14.884 49.613 36.217 74.916 34.234 8.93-.497 15.876-7.442 24.806-8.435 10.915-1.489 39.195-6.449 50.11-4.465-11.908 20.341-23.815 40.682-32.249 64.001-3.532 13.315-16.154 19.494-17.642 27.432-8.435-2.48-32.963-8.082-35.94-1.136 22.326 18.357 50.606 35.72 87.32 31.255 9.922-17.86 30.76-15.876 55.566-13.395 4.466 28.279 66.482 15.876 78.389 16.868-13.628-6.674-42.763-8.786-23.318-24.806 38.699-41.18 65.854-73.918 111.995-108.151-4.466-3.97-7.442-9.427-12.404-12.9-27.783-.992-22.691 2.475-39.063 15.87-30.761 25.303-63.506 46.14-90.296 75.909-14.232 20.445-68.64 20.293-86.501 19.798-1.984-26.792 17.175-72.31 46.81-95.705 22.823-3.97 76.405-3.473 105.18-14.389 3.97 7.442 9.923 3.473 15.876 7.938 5.954-1.985-5.22-11.448 1.725-12.936-4.961-15.38-11.53-15.272-20.956-26.684-49.075-20.13 2.07-179.802 45.382-237.546-8.434-1.986-18.852-3.473-30.264 1.488-26.792 21.334-32.105 52.419-41.532 87.148-20.994 16.81-79.91 20.982-103.228 11.06-17.365 9.427-48.445 5.676-64.818 9.645 11.41 17.365 36.075 18.489 57.41 12.04-.993 9.923-1.49 30.264-1.986 49.116-10.66 33.7-43.66 3.473-59.04 13.396 5.954 13.396 36.714 26.792 57.055 17.861 2.48 12.403-.993 40.683 6.945 58.047-10.427 15.027-60.787 15.87-83.608 13.39-5.458-13.397-1.261-33.886-1.758-52.74-1.985-56.558-36.549-149.629 10.947-192.342 42.171 4.465 89.8 14.329 79.38 9.367-9.426-4.465-15.875-11.907-24.806-16.372-9.923-4.961-23.317-6.45-33.737-11.907-2.48-1.489-2.976-6.45-5.457-7.938-17.365-11.907-53.582-32.744-67.475-13.396-14.388 28.776-7.441 58.602-4.961 95.812 1.489 24.806 11.907 49.613 10.42 73.923-1.49 28.775-5.459 57.55-8.931 78.388-8.435 11.411-33.241 13.396-30.265 31.256zm190.515-70.947c26.295-.496 45.644-7.938 67.97-5.954-1.488 20.342 7.938 33.737-1.985 52.59-10.226 19.684-49.226 17.738-59.148 22.7-15.876-10.419-21.9-47.163-6.837-69.337zm-5.262-16.036c-.496-21.334-3.905-46.5 9.231-61.856 24.31.496 43.659-6.449 69.458-5.458 0 15.38-6.45 32.745-5.458 50.606-13.25 12.546-53.386 13.73-73.23 16.708"/>
    <path fill="#fff" d="M495.36 878.358c1.421-4.034-2.138-8.355-8.725-9.673s-16.201.37-17.621 4.407 5.355 10.418 11.94 11.733 12.987-2.433 14.407-6.467m64.613 109.44c-5.49-.42-11.765 3.448-11.578 7.206s6.834 7.399 12.323 7.816 9.819-2.388 9.633-6.142-4.888-8.46-10.379-8.88zm112.707 15.237c1.018-1.925 7.008-1.05 8.985 1.313s-.057 6.209-3.05 5.773-6.952-5.16-5.935-7.085z"/>
</svg>
