<svg xmlns="http://www.w3.org/2000/svg" xmlns:xlink="http://www.w3.org/1999/xlink" width="498.898" height="544.252" viewBox="0 0 1320 1440">
    <defs>
        <linearGradient id="1OU_svg__a" x1="-1430.769" x2="-1409.955" y1="-77.47" y2="-77.47" gradientUnits="userSpaceOnUse" spreadMethod="reflect">
            <stop offset="0" stop-color="#ffd285"/>
            <stop offset=".232" stop-color="#ffcd79"/>
            <stop offset=".616" stop-color="#ffca73"/>
            <stop offset=".808" stop-color="#ffd386"/>
            <stop offset="1" stop-color="#ffc86e"/>
        </linearGradient>
        <linearGradient id="1OU_svg__b" x1="-904.556" x2="-904.556" y1="-406.052" y2="184.159" gradientUnits="userSpaceOnUse">
            <stop offset="0"/>
            <stop offset=".604" stop-color="#fff"/>
        </linearGradient>
        <clipPath id="1OU_svg__c">
            <path stroke-width="1.534" d="M1799.132 1043.252a7.223 7.223 0 0 0-7.237 7.24v107.141l-75.759-75.762a7.22 7.22 0 0 0-10.237 0l-3.45 3.45a7.22 7.22 0 0 0 0 10.237l75.756 75.759h-107.138a7.223 7.223 0 0 0-7.237 7.24v4.88a7.22 7.22 0 0 0 7.237 7.237h107.141l-75.759 75.759a7.226 7.226 0 0 0 0 10.24l3.45 3.45a7.22 7.22 0 0 0 10.237 0l75.759-75.762v107.141c0 4.01 3.227 7.24 7.237 7.24h4.88c4.01 0 7.24-3.23 7.24-7.24V1204.36l75.759 75.762a7.22 7.22 0 0 0 10.237 0l3.45-3.45a7.226 7.226 0 0 0 0-10.24l-75.759-75.759h107.138c4.01 0 7.24-3.227 7.24-7.237v-4.88c0-4.01-3.23-7.24-7.24-7.24h-107.135l75.756-75.759a7.22 7.22 0 0 0 0-10.237l-3.45-3.45a7.22 7.22 0 0 0-10.237 0l-75.759 75.762v-107.141c0-4.01-3.23-7.24-7.24-7.24zm2.438 137.74h-.01z"/>
        </clipPath>
        <clipPath id="1OU_svg__e">
            <path stroke-width="31.011" d="M516.242 741.851c31.877 14.376 52.503 42.503 91.881 38.752-15.626-25.001-46.253-81.255-86.255-100.006-18.126 15.001-15.001 37.502-5.625 61.254zM397.485 613.718c21.876 36.877 71.879 45.628 110.007 55.628 18.751-14.376 39.377-18.126 62.504-18.126s46.253 2.5 72.504 3.125c-1.875 38.127-3.75 103.756-3.75 146.884-45.628 6.875-103.756 6.25-152.509 5-15.001 0-14.376 9.376-8.751 17.501 18.126 18.751 46.253 26.252 75.63 32.502 13.751-11.251 60.004-11.251 85.005-11.251-2.5 35.627-3.125 88.13-4.375 134.383-36.877 2.5-73.129 6.25-102.506 6.875-30.002.625-56.878 1.875-84.38 7.5 8.126 35.627 41.878 44.378 79.38 48.128 3.125.625 5.625-7.501 11.876-8.126 60.004-8.126 210.013-21.251 261.891-14.376 24.376 3.125 47.503 11.251 77.505 18.751 8.75 1.875 8.75-8.126 6.25-19.376-15.626-19.376-32.502-43.753-52.503-54.378-13.126-6.875-28.127 5-41.252 6.875-35.002 5.625-63.129.625-91.88 5-5.625-23.126-8.126-43.753-9.376-65.004s-1.25-42.503-1.25-71.254c68.754-9.376 130.633.625 180.011-6.25-9.376-11.876-36.877-44.378-65.004-54.378-10.626-3.75-18.751 6.25-28.752 8.751-27.502 6.875-57.503 6.875-85.63 10.001l-1.25-147.509c64.379-3.125 132.508-15.001 177.511-16.251 20.001-.625 37.502 13.126 58.128 5-15.626-30.002-44.378-45.003-70.629-62.504-23.126-8.751-28.127 5.625-45.628 13.126-27.502 11.876-82.505 16.251-113.132 18.126-95.006 5.625-186.886 5.625-241.889-8.125-13.751-3.75-40.627-1.25-53.753 13.751z"/>
        </clipPath>
        <path id="1OU_svg__d" d="M658.215 539.379c2.233 2.233 6.088 1.999 3.783 4.304s-5.984 2.363-8.217.13-2.175-5.912.13-8.217 2.071 1.55 4.304 3.783"/>
    </defs>
    <path d="m1048.25 1165.407-52.495 58.046-382.156 144.698-421.6-155.331L41.146 287.208l92.022-99.032z" opacity=".5"/>
    <path fill="url(#1OU_svg__a)" d="m-1220.221-390.88-194.139 75.893-8.809 28.459-70.567 506.333 10.349 7.986h525.404l10.348-7.986-70.567-506.333-8.809-28.459z" transform="translate(-1787.64 533.54)scale(-2.0051)"/>
    <path fill="url(#1OU_svg__b)" d="m-904.556-434.511-194.139 75.893-8.809 31.887-70.567 502.905 10.349 7.986h525.404l10.349-7.986-70.567-502.905-8.809-31.887z" opacity=".25" style="mix-blend-mode:overlay" transform="translate(-1154.688 446.054)scale(-2.0051)"/>
    <path d="m133.204 97.854.043-21.064-20.75 16.013zm932.803 1010.214-17.664-13.248-389.274 149.021v16.402z" opacity=".4"/>
    <path d="m253.993 1108.068 17.664-13.248 387.412 149.021v16.402z" opacity=".6"/>
    <path d="m253.993 1108.068 17.664-13.248L133.204 97.854l-20.707-5.052z" opacity=".6"/>
    <g fill="#fff">
        <path d="m1066.007 1108.068-17.664-13.248 138.453-996.966 20.707-5.052z" opacity=".3"/>
        <path d="m1186.796 97.854-.043-21.064 20.75 16.013z" opacity=".8"/>
        <path d="M1186.796 97.854H133.204l.043-21.064h1053.506z" opacity=".3"/>
    </g>
    <path d="m271.655 1165.416-17.663-57.348 405.076 152.176 406.938-152.176-17.663 57.348-389.275 152.176z" opacity=".7"/>
    <path d="M656.649 150.856a10.406 10.406 0 0 0-10.426 10.431v154.359L537.077 206.495a10.406 10.406 0 0 0-14.748 0l-4.971 4.971a10.406 10.406 0 0 0 0 14.748L626.499 335.36H472.146a10.405 10.405 0 0 0-10.426 10.431v7.03a10.4 10.4 0 0 0 10.426 10.426h154.359L517.358 472.393a10.41 10.41 0 0 0 0 14.753l4.971 4.971a10.406 10.406 0 0 0 14.748 0l109.146-109.151v154.359a10.406 10.406 0 0 0 10.426 10.431h7.03a10.41 10.41 0 0 0 10.431-10.431V382.966l109.146 109.151a10.406 10.406 0 0 0 14.748 0l4.971-4.971a10.41 10.41 0 0 0 0-14.753L693.829 363.247h154.354a10.406 10.406 0 0 0 10.431-10.426v-7.03a10.41 10.41 0 0 0-10.431-10.431H693.834l109.141-109.146a10.406 10.406 0 0 0 0-14.748l-4.971-4.971a10.406 10.406 0 0 0-14.748 0L674.11 315.646V161.287a10.41 10.41 0 0 0-10.431-10.431zm3.512 198.442h-.014z"/>
    <path fill="#29303d" fill-opacity=".99" d="M1789.457 1052.923a7.223 7.223 0 0 0-7.237 7.24v107.141l-75.759-75.762a7.22 7.22 0 0 0-10.237 0l-3.45 3.45a7.22 7.22 0 0 0 0 10.237l85.431 66.088-9.675 9.671h-107.138a7.223 7.223 0 0 0-7.237 7.24v4.88a7.22 7.22 0 0 0 7.237 7.237h107.141l-75.759 75.759a7.226 7.226 0 0 0 0 10.24l3.45 3.45a7.22 7.22 0 0 0 10.237 0l75.759-75.762v107.141c0 4.01 3.227 7.24 7.237 7.24h4.88c4.01 0 7.24-3.23 7.24-7.24v-107.141l9.675-9.671 66.084 85.434a7.22 7.22 0 0 0 10.237 0l3.45-3.45a7.226 7.226 0 0 0 0-10.24l-75.759-75.759 9.675-9.671 97.463 9.671c3.991.396 7.24-3.227 7.24-7.237v-4.88c0-4.01-3.23-7.24-7.24-7.24h-107.135l75.756-75.759a7.22 7.22 0 0 0 0-10.237l-3.45-3.45a7.22 7.22 0 0 0-10.237 0l-75.759 75.762v-107.141c0-4.01-3.23-7.24-7.24-7.24zm2.438 137.74h-.01z" clip-path="url(#1OU_svg__c)" transform="translate(-1935.36 -1352.156)scale(1.4407)"/>
    <g fill="#fff" fill-opacity=".98">
        <path d="M527.209 482.662c3.434 3.434 8.262 4.173 5.957 6.478s-6.958 1.39-10.391-2.043-4.349-8.086-2.043-10.391 3.044 2.523 6.478 5.956z"/>
        <use xlink:href="#1OU_svg__d"/>
        <use xlink:href="#1OU_svg__d" x="-187.182" y="-188.25"/>
    </g>
    <path d="M397.485 613.718c21.876 36.877 71.879 45.628 110.007 55.628 18.751-14.376 39.377-18.126 62.504-18.126s46.253 2.5 72.504 3.125c-1.875 38.127-3.75 103.756-3.75 146.884-45.628 6.875-103.756 6.25-152.509 5-15.001 0-14.376 9.376-8.751 17.501 18.126 18.751 46.253 26.252 75.63 32.502 13.751-11.251 60.004-11.251 85.005-11.251-2.5 35.627-3.125 88.13-4.375 134.383-36.877 2.5-73.129 6.25-102.506 6.875-30.002.625-56.878 1.875-84.38 7.5 8.126 35.627 41.877 44.378 79.38 48.128 3.125.625 5.625-7.501 11.876-8.126 60.004-8.126 210.012-21.251 261.891-14.376 24.376 3.125 47.503 11.251 77.505 18.751 8.75 1.875 8.75-8.126 6.25-19.376-15.626-19.376-32.502-43.753-52.503-54.378-13.126-6.875-28.127 5-41.253 6.875-35.002 5.625-63.129.625-91.88 5-5.625-23.126-8.126-43.753-9.376-65.004s-1.25-42.503-1.25-71.254c68.754-9.376 130.633.625 180.011-6.25-9.376-11.876-36.877-44.378-65.004-54.378-10.626-3.75-18.751 6.25-28.752 8.75-27.502 6.875-57.503 6.875-85.63 10.001l-1.25-147.509c64.379-3.125 132.508-15.001 177.511-16.251 20.001-.625 37.502 13.126 58.128 5-15.626-30.002-44.378-45.003-70.629-62.504-23.126-8.751-28.127 5.625-45.628 13.126-27.502 11.876-82.505 16.251-113.132 18.126-95.006 5.625-186.886 5.625-241.889-8.125-13.751-3.75-40.627-1.25-53.753 13.751z"/>
    <path fill="#29303d" d="M396.406 637.312c21.876 36.877 72.958 22.034 111.085 32.034 18.751-14.376 39.377-18.126 62.504-18.126s46.253 2.5 72.504 3.125c-1.875 38.127-3.75 103.756-3.75 146.884-19.982 43.878-73.629 23.411-122.382 22.161-15.001 0-44.503-7.785-38.878.34 18.126 18.751 46.253 26.252 75.63 32.502 13.751-11.251 60.004-11.251 85.005-11.251-2.5 35.627-3.125 88.13-4.375 134.383-14.377 26.907-67.79 22.649-97.167 23.274-30.002.625-56.878 1.875-84.38 7.5 8.126 35.627 36.539 27.979 74.041 31.73 3.125.625 5.625-7.501 11.876-8.126 60.004-8.126 210.013-21.251 261.891-14.376 24.376 3.125 47.503 11.251 77.505 18.751 8.75 1.875-3.834-8.507-6.334-19.758-15.626-19.376-20.299-29.642-40.3-40.268-13.126-6.875-28.127 5-41.252 6.875-35.002 5.625-83.722 5.201-112.474 9.577-5.625-23.126-1.261-43.753-2.511-65.004s-14.642-62.333 12.86-89.559c68.754-9.376 109.302 2.613 158.68-4.262-9.376-11.876-22.792-27.679-50.919-37.68-10.626-3.75-18.751 6.25-28.752 8.75-27.502 6.875-65.359 5.447-93.485 8.572 0-34.377-13.059-127.84 13.851-164.767 64.379-3.125 132.508-15.001 177.511-16.251 20.001-.625 10.433 13.971 31.06 5.846-15.626-30.002-18.387-22.254-44.639-39.755-23.126-8.751-28.127 5.625-45.628 13.126-27.502 11.876-82.505 16.251-113.132 18.126-95.006 5.625-186.886 5.625-241.889-8.125-13.751-3.75-40.627-1.25-53.753 13.751z" clip-path="url(#1OU_svg__e)"/>
    <path fill="#fff" d="M505.611 644.43c-7.11-5.678-30.562-12.34-40.874-11.27s-7.483 9.875-.371 15.553 18.504 8.233 28.815 7.162 19.54-5.766 12.43-11.444zm14.179 185.014c10.34 1.262 26.054 7.812 31.123 12.055s-.51 6.178-10.847 4.918-25.434-5.72-30.504-9.963-.11-8.271 10.228-7.01m-24.264 184.573c10.091.725 24.211 8.047 29.435 12.794s1.554 6.92-8.534 6.196-26.595-4.346-31.821-9.094.83-10.62 10.92-9.895z"/>
</svg>
