<svg xmlns="http://www.w3.org/2000/svg" width="498.898" height="544.252" viewBox="0 0 1320 1440">
    <defs>
        <linearGradient id="1KE_svg__a" x1="-1430.769" x2="-1409.955" y1="-77.47" y2="-77.47" gradientUnits="userSpaceOnUse" spreadMethod="reflect">
            <stop offset="0" stop-color="#ffd285"/>
            <stop offset=".232" stop-color="#ffcd79"/>
            <stop offset=".616" stop-color="#ffca73"/>
            <stop offset=".808" stop-color="#ffd386"/>
            <stop offset="1" stop-color="#ffc86e"/>
        </linearGradient>
        <linearGradient id="1KE_svg__b" x1="-905.021" x2="-904.556" y1="-376.306" y2="184.159" gradientUnits="userSpaceOnUse">
            <stop offset="0"/>
            <stop offset=".602" stop-color="#fff"/>
        </linearGradient>
        <clipPath id="1KE_svg__c">
            <path d="M-1212.432 99.634c-8.503-42.888-13.793-93.985-24.472-118.6s-26.746-22.746-39.602-29.087c8.573 6.76 17.144 13.52 27.824 38.135s23.466 67.084 36.251 109.552zm0 0c12.785-42.468 25.571-84.937 36.251-109.552s19.251-31.375 27.824-38.135c-12.856 6.341-28.922 4.472-39.601 29.087s-15.971 75.712-24.474 118.6"/>
        </clipPath>
    </defs>
    <path d="m960.441 1115.89-52.496 58.045-293.414 77.227-334.721-87.858-172.45-876.092 92.022-99.032z" opacity=".5"/>
    <path fill="url(#1KE_svg__a)" d="m-1220.686-332.674-149.881 42.384-8.809 28.459-81.338 481.636 10.349 7.986h459.359l10.348-7.986-81.338-481.636-8.809-28.459z" transform="translate(-1787.64 533.54)scale(-2.0051)"/>
    <path fill="url(#1KE_svg__b)" d="m-905.021-376.306-149.881 44.065-8.809 26.778-81.358 481.64 10.349 7.986 459.383-.004 10.349-7.986-81.343-481.636-8.809-28.601z" opacity=".25" style="mix-blend-mode:overlay" transform="translate(-1154.688 446.054)scale(-2.0051)"/>
    <path d="m199.419 97.854.043-21.064-20.75 16.013zm778.776 960.694-17.664-13.248L660 1126.847v16.402z" opacity=".4"/>
    <path d="m341.805 1058.548 17.664-13.248L660 1126.847v16.402z" opacity=".6"/>
    <path d="m341.805 1058.548 17.664-13.248-160.05-947.446-20.707-5.052z" opacity=".6"/>
    <g fill="#fff">
        <path d="m978.195 1058.548-17.664-13.248 160.05-947.446 20.707-5.052z" opacity=".3"/>
        <path d="m1120.582 97.854-.043-21.064 20.75 16.013z" opacity=".8"/>
        <path d="M1120.582 97.854H199.419l.043-21.064h921.077z" opacity=".3"/>
    </g>
    <path d="m359.468 1115.896-17.663-57.348L660 1143.25l318.195-84.702-17.663 57.348L660 1200.598z" opacity=".7"/>
    <path d="M660.04 150.767c22.85 115.253 37.066 252.566 65.764 318.714s71.877 61.126 106.425 78.166c-23.038-18.166-46.071-36.333-74.772-102.48s-63.06-180.275-97.417-294.4m0 0c-34.357 114.125-68.717 228.252-97.417 294.4s-51.734 84.314-74.772 102.48c34.548-17.04 77.722-12.018 106.42-78.166s42.919-203.46 65.769-318.714"/>
    <path fill="#29303d" d="M-1208.494 95.696c-8.503-42.888-13.793-93.985-24.472-118.6s-26.746-22.746-39.602-29.087c8.573 6.76 17.144 13.52 27.824 38.135s23.466 67.084 36.251 109.552zm0 0c12.785-42.468 25.571-84.937 36.251-109.552s19.251-31.375 27.824-38.135c-12.856 6.341-28.922 4.472-39.601 29.087s-15.971 75.712-24.474 118.6" clip-path="url(#1KE_svg__c)" transform="translate(-2598.128 418.514)scale(-2.6873)"/>
    <path d="M431.38 610.137c17.387 24.903 44.64 34.771 73.775 39.942 8.457-17.387 46.99-13.628 65.315-10.338-4.23 19.265-2.82 39.94-4.7 56.387-24.904 5.638-50.28 2.349-75.653-.47-8.46 6.108-23.966-1.879-26.314 12.687 13.627 14.097 33.833 20.205 54.039 26.784 12.686-10.808 31.014-12.217 47.457-7.52-3.76 16.447-5.17 26.315 2.349 39.472-32.893 4.7-77.061 2.349-109.954 7.519-5.638.94-4.697 7.049-3.289 10.808 14.568 10.338 35.241 27.255 54.977 25.374 7.049-.94 12.687-9.868 20.206-11.279 14.565-2.819 27.722-3.76 41.82-2.349-.941 15.976 1.878 30.074-2.35 47.928-40.41 7.52-75.182-.47-101.966 13.157 3.76 27.255 46.05 39.472 60.615 22.555 12.216-1.878 24.903-4.23 39.941-1.878-2.819 25.373-6.579 38.06-7.99 61.555 13.628 16.916 42.29 50.28 66.256 39-2.819-10.337-13.157-25.843-19.265-38.06-2.349-17.386-3.76-46.05-3.29-64.844 12.687-1.879 30.544-3.76 48.869-.47 17.857 3.289 38.06 19.265 46.05 4.23-9.868-20.206-16.917-38.06-39.001-46.05-19.736 7.519-38.53 8.927-55.447 8.927.47-12.687 0-33.363-1.408-48.398 31.481-1.411 67.663-8.927 92.569 1.878 4.23.94 9.398-3.29 13.627-7.049 15.506 10.338 28.193 22.085 23.495 47.928-13.157 4.23-26.784 7.99-39 13.157.94 20.206 28.662 15.976 41.35 28.193-2.35 23.965-7.05 63.904-.941 82.231 15.035 14.568 34.3 37.593 58.736 29.604-17.387-29.133-28.663-78.002-26.314-122.643 30.073-16.447 58.736-4.7 88.34 5.167 3.289.47 5.637-4.23 4.697-10.338-12.687-18.324-23.495-39-45.58-46.05-12.216 7.52-28.662 15.036-42.29 9.398 9.868-31.482 92.1-132.978 117.943-154.125-.94-8.457-17.386-.47-25.373-13.627-36.182 20.206-72.364 79.413-99.148 108.546.47-39.472-4.697-92.57 2.349-135.33 26.314 1.878 50.747 14.568 76.593 19.265-11.278-13.157-20.676-20.676-28.192-34.303-13.628-10.338-38.06-18.325-52.628-30.074-10.338-7.99-15.506-18.795-28.663-7.99-9.398 70.483 6.108 132.041 1.41 196.886-14.567-11.746-27.254-26.314-46.049-23.966 1.879 15.506 20.206 21.614 17.857 36.182-14.097-11.278-18.795-29.133-38.53-31.952-22.085-2.819-49.34 23.025-64.845-.47-1.408-8.927-3.29-18.795-2.349-31.011 33.834-7.99 62.496 0 91.63-.47-3.29-25.374-25.374-28.663-39.001-42.29-16.917 7.518-39.001 7.989-53.099 11.278-.94-20.206-.47-35.712-1.41-55.447 37.59-.94 88.81-11.746 125.929-4.7-4.698-30.074-30.544-43.701-54.507-45.58-55.917 35.242-171.979 21.147-232.126 12.217-6.108-.94-8.927 4.7-7.519 10.808z"/>
    <path fill="#29303d" d="M431.509 610.623c17.387 24.904 44.639 34.771 73.774 39.942 8.457-17.387 46.99-13.628 65.315-10.338-4.23 19.265-2.819 39.94-4.7 56.387-10.413 14.791-41.508 9.597-66.881 6.775-8.46 6.108-23.966-1.879-26.315 12.687 13.628 14.097 25.062 12.958 45.268 19.536 12.687-10.808 31.014-12.216 47.458-7.519-3.76 16.447-5.17 26.314 2.348 39.471-11.536 24.912-65.43 9.787-98.322 14.955-5.638.94-16.331-.387-14.92 3.37 14.567 10.338 35.24 27.255 54.976 25.373 7.05-.94 12.687-9.867 20.206-11.278 14.565-2.82 27.722-3.76 41.82-2.349-.94 15.976 1.878 30.074-2.349 47.928-14.511 32.847-71.278 10.462-98.062 24.086 11.324 20.733 42.145 28.54 56.713 11.626 12.216-1.879 24.903-4.23 39.941-1.879-2.819 25.374-6.578 38.06-7.99 61.556 13.628 16.916 33.82 52.493 57.786 41.217-2.82-10.338-14.393-21.05-20.504-33.266-2.349-17.387-18.451-51.983 6.42-71.855 12.686-1.879 30.544-3.76 48.868-.47 17.857 3.289 25.522 17.475 36.744 10.528-9.868-20.206-10.849-34.653-32.933-42.64-19.736 7.52-45.542 5.692-62.458 5.692.47-12.686-3.776-43.069 8.838-54.872 31.482-1.41 67.664-8.927 92.57 1.879 4.23.94 9.397-3.29 13.627-7.049 15.506 10.338 28.192 22.084 23.495 47.928-5.606 19.87-25.462 14.05-37.679 19.217.94 20.206 27.34 9.916 40.028 22.133-2.35 23.965-7.05 63.904-.941 82.231 15.035 14.568 21.899 31.243 48.49 31.243-17.387-29.133-50.696-78.84-16.068-124.283 30.074-16.446 58.737-4.7 88.34 5.168 3.29.47-6.227-5.848-7.167-11.956-12.687-18.325-18.728-21.407-32.097-31.487-12.217 7.52-38.372 10.722-52 5.084 9.868-31.481 89.598-131.723 115.442-152.87-.941-8.456-17.387-.47-25.374-13.627-36.182 20.206-67.704 79.776-94.488 108.909.47-39.471-27.34-129.652 8.282-145.577 26.314 1.879 35.013 10.835 60.86 15.533-11.28-13.157-12.491-7.234-20.01-20.862-13.627-10.338-36.443-16.17-51.01-27.915-10.339-7.99-11.11-16.973-24.267-6.165-9.397 70.482 7.643 118.351 2.945 183.196-15.105 7.707-22.049-14.31-40.844-11.961 1.879 15.505 14.627 13.044 12.278 27.612-14.097-11.279-21.66-18.005-41.395-20.824-22.084-2.82-55.81 15.473-71.318-8.022-1.408-8.927-3.558-31.2 7.358-38.025 33.833-7.99 54.901-.054 84.034-.524-3.289-25.374-16.161-19.171-29.788-32.799-16.917 7.52-48.71 8.799-62.805 12.088-.94-20.206-.74-55.668 6.68-65.694 37.59-.94 75.428-13.517 112.55-6.468-4.697-30.074-23.095-24.672-47.057-26.55-55.918 35.24-152.026 14.578-212.173 5.648-6.109-.94-22.95-5.993-21.542.116z"/>
    <path fill="#fff" d="M485.896 870.24c2.486.676 6.02-2.644 5.302-4.981s-5.69-3.691-7.458-2.03-.33 6.335 2.156 7.011m-17.806-80.273c4.216 2.133 9.542-.215 7.989-3.522s-9.985-7.577-12.649-6.403.444 7.792 4.66 9.925m7.725-77.76c2.976 2.151 9.227.922 9.379-1.844s-5.798-7.072-8.925-6.457-3.429 6.15-.454 8.301m-29.656-92.316c3.931 3.929 10.107 3.476 9.266-.681s-8.701-12.018-11.79-11.79-1.406 8.542 2.524 12.471m130.186 328.933c4.165.736 6.221-1.601 3.084-3.506s-11.47-3.379-12.497-2.209 5.249 4.98 9.414 5.716zm169.98 19.833c5.035-.178 11.205-4.377 9.254-6.3s-12.024-1.57-15.108.531.818 5.947 5.854 5.768zm-37.206-104.99c3.874-.767 6.201-6.128 3.49-8.042s-10.463-.381-11.626 2.301 4.262 6.509 8.136 5.741m20.919-63.4c2.928-.416 5.383-4.494 3.682-6.118s-7.561-.794-8.788 1.246 2.178 5.288 5.106 4.872"/>
</svg>
