<svg xmlns="http://www.w3.org/2000/svg" width="498.898" height="544.252" viewBox="0 0 1320 1440">
    <defs>
        <linearGradient id="1FU_svg__a" x1="1091.453" x2="1049.718" y1="563.801" y2="563.801" gradientUnits="userSpaceOnUse" spreadMethod="reflect">
            <stop offset="0" stop-color="#ffd285"/>
            <stop offset=".232" stop-color="#ffcd79"/>
            <stop offset=".616" stop-color="#ffca73"/>
            <stop offset=".808" stop-color="#ffd386"/>
            <stop offset="1" stop-color="#ffc86e"/>
        </linearGradient>
        <linearGradient id="1FU_svg__b" x1="659.982" x2="659.982" y1="1050.809" y2="76.788" gradientUnits="userSpaceOnUse">
            <stop offset="0"/>
            <stop offset=".6" stop-color="#fff"/>
        </linearGradient>
        <clipPath id="1FU_svg__c">
            <path stroke-width="1.534" d="M1799.134-1180.993h4.879a7.223 7.223 0 0 1 7.239 7.239v123.263a7.223 7.223 0 0 1-7.239 7.239h-4.879a7.223 7.223 0 0 1-7.239-7.239v-123.263a7.223 7.223 0 0 1 7.239-7.239"/>
        </clipPath>
    </defs>
    <path d="m929.913 1032.459-43.05 53.432-292.106 68.069-261.852-85.283-159.975-802.06 77.7-64.448z" opacity=".5"/>
    <path fill="url(#1FU_svg__a)" d="m659.957 1108.158 270.001-75.701 17.663-57.348 142.368-882.306-20.751-16.013H250.674l-20.751 16.013 142.368 882.306 17.663 57.348z"/>
    <path fill="url(#1FU_svg__b)" d="m659.982 1050.81 287.664-75.701 142.368-882.306-20.749-16.013H250.701L229.95 92.803l142.37 882.306z" opacity=".25" style="mix-blend-mode:overlay"/>
    <path d="m389.995 1032.468-17.663-57.348L660 1050.821l287.668-75.701-17.663 57.348L660 1108.169z" opacity=".7"/>
    <path d="m250.668 97.849.043-21.064-20.75 16.013z" opacity=".2"/>
    <path d="m947.669 975.119-17.664-13.248L660 1034.419v16.402z" opacity=".4"/>
    <path d="m372.331 975.119 17.664-13.248L660 1034.419v16.402z" opacity=".6"/>
    <path d="m372.331 975.119 17.664-13.248L250.668 97.849l-20.707-5.052z" opacity=".4"/>
    <g fill="#fff">
        <path d="m947.669 975.119-17.664-13.248 139.327-864.022 20.707-5.052z" opacity=".3"/>
        <path d="m1069.332 97.849-.043-21.064 20.75 16.013z" opacity=".8"/>
        <path d="M1069.332 97.849H250.668l.043-21.064h818.579z" opacity=".3"/>
    </g>
    <path d="M656.554 461.696h7.03a10.406 10.406 0 0 0 10.429-10.429V273.682a10.406 10.406 0 0 0-10.429-10.429h-7.03a10.406 10.406 0 0 0-10.429 10.429v177.585a10.406 10.406 0 0 0 10.429 10.429"/>
    <path fill="#29303d" d="M1789.477-1189.927h4.879a7.223 7.223 0 0 1 7.239 7.239v123.263a7.223 7.223 0 0 1-7.239 7.239h-4.879a7.223 7.223 0 0 1-7.239-7.239v-123.263a7.223 7.223 0 0 1 7.239-7.239" clip-path="url(#1FU_svg__c)" transform="matrix(1.4407 0 0 -1.4407 -1935.458 -1239.761)"/>
    <path d="M507.664 684.366c16.915 29.599 53.279 47.358 93.026 48.627v-4.651c-29.6-24.948-48.204-61.736-87.529-71.884-4.651 5.075-10.148 16.068-5.497 27.908m-13.953 92.602c16.49 12.263 41.439 16.49 67.232 19.45 22.834-12.685 65.963-7.611 87.529-8.457-3.806 8.034-3.806 20.297-5.497 30.868-35.519 8.034-73.997 2.96-92.18 21.987 26.216 16.491 62.158 14.377 92.602 7.189-3.383 19.028-8.034 31.713 2.114 43.976 12.685 1.691 26.217 16.49 42.707 16.914 6.343 0 10.148-2.538 16.914-1.692-2.959-16.068-15.222-28.33-26.638-39.325.845-9.725-3.806-13.953-3.383-23.256 5.92-.423 10.994-1.269 19.874-1.692-4.652-6.765-13.954-12.262-19.874-14.377 1.269-15.222-2.537-31.29 3.806-43.975 22.41-.424 40.17-6.766 60.467-2.538 4.228 15.646-.423 37.21 9.725 49.473 9.726 11.416 43.553 18.605 53.279 15.645-7.189-14.376-15.646-27.485-29.176-35.095l-6.765-36.365c12.685.846 21.565-1.691 27.061-7.611 5.075.423 5.075 5.92 9.303 7.188 8.457-5.92 13.954 3.383 24.525.846-4.652-19.029-30.023-29.176-46.09-41.862-25.371 19.873-62.158 19.873-102.751 22.41-8.034-28.33-11.417-63.004-1.692-86.682 16.068-.423 29.176 2.537 42.707 8.034-7.61-24.103-25.37-53.7-58.352-52.01.424-1.692.424-1.269 4.652-1.269 18.605-17.759 42.707-30.444 61.312-48.203-3.806-3.383 4.228-6.343 7.188-7.189.423 5.074 12.263-4.228 18.183-7.612 2.114-1.691 12.263-9.725 10.571-5.92 17.336-1.691 29.599-16.913 45.244-18.604.424-6.765-6.343-3.383-6.343-8.457-5.496.423-8.457-1.692-13.53-4.228 0 0 5.496.423 5.919-1.692-38.478-3.383-67.232 23.68-97.677 39.747-21.142 8.457-38.056 21.565-49.472 35.941-35.52 19.451-57.084 51.587-83.723 79.072 3.806 18.182 27.062 31.29 50.318 30.022 5.074-8.457-3.806-10.571-4.651-17.336 8.879-15.223 21.142-32.982 31.29-38.902.845-5.496 1.268-14.377 8.879-17.76-10.994 22.411-6.343 47.782-6.343 73.998 0 14.377-1.269 29.176-7.189 43.553 5.075 2.537 9.726 5.074 12.263 10.148-43.13-1.269-91.334 6.343-122.624-.846q-14.589 4.44-30.445 7.612c-4.228 1.268-1.268 5.496-1.268 8.879zM724.16 694.09c5.92 10.148 3.805 27.908 12.685 35.096 21.142-7.188 29.176-34.25 58.775-28.754 2.96-3.382 6.343-5.92 8.879-5.92-1.269-9.302 1.269-22.833 1.269-33.826s-2.538-19.874-13.954-19.029c-2.96 0-10.994 4.228-15.222 7.612-15.646 11.84-34.674 37.633-52.433 44.821z"/>
    <path fill="#29303d" d="M508.15 681.925c16.913 29.6 43.682 51.379 83.43 52.648v-4.651c-29.6-24.949-48.206-61.736-87.53-71.885-4.652 5.074-.551 12.049 4.1 23.888m-13.954 92.605c16.491 12.263 41.44 16.492 67.234 19.451 22.834-12.686 65.965-7.612 87.53-8.457-3.804 8.034-3.804 20.296-5.496 30.868-28.25 33.93-73.999 2.96-92.182 21.988 26.217 16.492 62.16 14.378 92.606 7.189-3.383 19.028-8.034 31.714 2.113 43.977 12.686 1.691 26.217 16.49 42.708 16.914 6.343 0 6.196 0 12.184-1.773-2.96-16.069-14.226-17.982-25.643-28.977.846-9.725-17.185-16.132.35-33.524 5.921-.424 2.648-.686 11.528-1.108-4.65-6.766-14.63-6.934-20.55-9.05 1.268-15.223-17.16-24.756 12.83-49.887 22.41-.424 40.17-6.766 60.468-2.537 4.228 15.645-.424 37.21 9.725 49.473 9.725 11.417 32.597 19.025 42.324 16.065-7.189-14.378-15.646-27.486-29.178-35.098-2.113-12.262-6.687-24.66 4.191-36.784 12.686.846 21.566-1.692 27.062-7.612 5.075.424 5.075 5.92 9.303 7.188 8.458-5.92 13.954 3.383 24.526.846-11.496-11.576-28.778-18.598-44.847-31.284-25.371 19.874-71.495 19.563-112.087 22.1-8.034-28.332-21.997-75.765 6.397-96.953 16.07-.423 20.259 1.401 34.379 4.97-7.612-24.102-23.532-45.798-56.514-44.107.423-1.691 6.912-6.108 11.14-6.108 18.606-17.76 42.709-30.445 61.315-48.206-3.805-3.383 4.229-6.342 7.188-7.188.423 5.075 12.263-4.228 18.183-7.611 2.114-1.692 12.262-9.726 10.57-5.92 17.338-1.692 14.1-11.352 29.745-13.043.423-6.766-6.343-3.383-6.343-8.457-5.496.423-8.457-1.692-13.532-4.23 0 0 5.497.424 5.92-1.69-38.479-3.384-51.731 18.115-82.178 34.184-21.142 8.458-38.057 21.566-49.473 35.942-35.52 19.451-57.086 51.589-83.726 79.074 3.805 18.182 27.062 31.29 50.32 30.023 5.074-8.458-15.686-9.68-16.532-16.447 8.88-15.223 33.023-33.873 43.172-39.793.845-5.497 1.269-14.378 8.88-17.76-10.995 22.41-6.343 47.782-6.343 73.998 0 14.378-1.268 29.178-7.188 43.554 5.074 2.537 9.725 5.075 12.262 10.149-29.968 26.35-74.616 16.023-105.907 8.835q-14.589 4.44-30.445 7.611c-4.229 1.268-17.99-4.182-17.99-.8zm230.455-82.88c5.92 10.15 3.805 27.909 12.686 35.098 21.142-7.188 29.178-34.252 58.777-28.754 2.96-3.383 6.343-5.92 8.88-5.92-1.268-9.303-5.577-6.344-5.577-17.338s-2.537-19.874-13.954-19.029c-2.96 0-10.994 4.229-15.223 7.612-15.645 11.84-27.83 21.144-45.589 28.333z"/>
    <path fill="#fff" d="M521.114 686.072c2.811 3.366 8.232 1.607 8.131-2.64s-5.72-10.985-8.43-10.104-2.511 9.377.3 12.744zm60.166-1.88c2.198 1.214 4.252-1.217 3.08-3.648s-5.572-4.862-6.599-3.645 1.32 6.08 3.518 7.293m179.539 145.225c2.844-2.582 8.533-7.747 6.295-10.28s-12.406-2.433-15.251.151 1.635 7.65 3.872 10.181 2.238 2.532 5.082-.05zm-110.54 53.007c2.418-1.717 9.145-1.21 10.089.76s-3.892 5.397-7.256 5.145-5.252-4.188-2.833-5.905"/>
</svg>
