<svg xmlns="http://www.w3.org/2000/svg" width="498.898" height="544.252" viewBox="0 0 1320 1440">
    <defs>
        <linearGradient id="0UM_svg__a" x1="228.547" x2="270.281" y1="660.587" y2="660.587" gradientUnits="userSpaceOnUse" spreadMethod="reflect">
            <stop offset="0" stop-color="#ffd285"/>
            <stop offset=".232" stop-color="#ffcd79"/>
            <stop offset=".616" stop-color="#ffca73"/>
            <stop offset=".808" stop-color="#ffd386"/>
            <stop offset="1" stop-color="#ffc86e"/>
        </linearGradient>
        <linearGradient id="0UM_svg__b" x1="660.031" x2="660.029" y1="176.668" y2="1147.598" gradientUnits="userSpaceOnUse">
            <stop offset=".597" stop-color="#fff"/>
            <stop offset="1"/>
        </linearGradient>
        <clipPath id="0UM_svg__c">
            <path stroke-width="1.534" d="M1799.132 1043.254a7.22 7.22 0 0 0-7.237 7.237v107.141l-44.726-44.726 10.889-10.886c-.771-2.729-3.59-5.548-6.319-6.319l-30.343-8.569-5.259-5.26a7.22 7.22 0 0 0-10.237 0l-3.45 3.45a7.22 7.22 0 0 0 0 10.237l5.259 5.259 8.569 30.343c.771 2.729 3.59 5.548 6.319 6.319l10.886-10.889 44.726 44.726h-107.141a7.22 7.22 0 0 0-7.237 7.237v4.88c0 4.01 3.227 7.24 7.237 7.24h107.141l-44.726 44.726-10.886-10.889c-2.729.771-5.548 3.586-6.319 6.315l-8.569 30.347-5.259 5.259a7.22 7.22 0 0 0 0 10.237l3.45 3.45a7.22 7.22 0 0 0 10.237 0l5.266-5.266 30.337-8.565c2.729-.771 5.548-3.586 6.319-6.315l-10.889-10.886 44.726-44.726v107.138c0 4.01 3.227 7.24 7.237 7.24h4.88c4.01 0 7.24-3.23 7.24-7.24v-107.138l44.726 44.726-10.889 10.886c.771 2.729 3.586 5.545 6.315 6.315l30.34 8.565 5.266 5.266a7.22 7.22 0 0 0 10.237 0l3.45-3.45a7.22 7.22 0 0 0 0-10.237l-5.266-5.266-8.565-30.34c-.771-2.729-3.586-5.545-6.315-6.315l-10.886 10.889-44.726-44.726h107.138c4.01 0 7.24-3.23 7.24-7.24v-4.88c0-4.01-3.23-7.237-7.24-7.237H1824.94l44.726-44.726 10.886 10.889c2.729-.771 5.545-3.59 6.315-6.319l8.565-30.337 5.266-5.266a7.22 7.22 0 0 0 0-10.237l-1.725-1.725-1.725-1.725a7.22 7.22 0 0 0-10.237 0l-5.259 5.26-30.347 8.569c-2.729.771-5.545 3.59-6.315 6.319l10.889 10.886-44.726 44.726V1050.49c0-4.01-3.23-7.237-7.24-7.237zm2.438 137.74h.01v.01h-.01z"/>
        </clipPath>
    </defs>
    <path d="m1167.083 1341.43-49.031 69.971H80.26l-28.823-22.557L261.35 383.954l63.084-35.292z" opacity=".5"/>
    <path fill="url(#0UM_svg__a)" d="M660.043 176.666 306.898 293.594l-167.217 974.019 13.3 73.818 20.099 16.718h973.903l20.099-16.718 13.324-73.818-167.217-974.019z"/>
    <path fill="url(#0UM_svg__b)" d="M660.031 176.668 306.887 293.595l-167.217 974.02 13.312 73.816 20.099 16.719h973.903l20.099-16.719 13.312-73.816-167.217-974.019z" opacity=".25" style="mix-blend-mode:overlay"/>
    <path fill="#fff" d="m1159.664 1262.571-.043 21.064 20.75-16.013z" opacity=".8"/>
    <path d="m1180.371 1267.622-20.75 16.013-12.637 74.514 20.099-16.718z" opacity=".6"/>
    <g fill="#fff">
        <path d="m306.85 293.586 17.664 13.248L660 193.058v-16.402zm706.3 0-17.664 13.248L660 193.058v-16.402z" opacity=".3"/>
        <path d="m1013.15 293.586-17.664 13.248 164.177 955.737 20.707 5.052z" opacity=".3"/>
    </g>
    <path d="m306.85 293.586 17.664 13.248-164.177 955.737-20.707 5.052z" opacity=".4"/>
    <path d="m139.629 1267.622 20.75 16.013 12.702 74.514-20.099-16.718z" opacity=".9"/>
    <path d="m160.337 1262.571.043 21.064-20.75-16.013z" opacity=".6"/>
    <path d="M160.337 1262.571h999.327l-.043 21.064H160.379z" opacity=".2"/>
    <path d="m1159.621 1283.635-12.637 74.514H173.081l-12.702-74.514h999.241z" opacity=".7"/>
    <path fill="#340000" d="M876.159 598.638c-14.74-16.705-37.833-33.902-61.908-41.763-18.179-5.896-36.85-6.387-53.555 2.457-31.445-4.913-53.555-.491-77.631-1.474.983-9.827-2.948-25.549 3.931-29.971 23.093 0 46.677-4.913 69.769-7.37 7.861-.983 16.214 4.913 21.127-3.439-14.249-19.653-52.081-28.989-92.862-18.671-.983-10.809-1.965-17.197 1.965-29.971 34.393-1.965 65.347-1.474 92.862-12.775-6.879-14.249-26.041-23.093-49.625-26.041-7.37 7.37-24.075 5.896-39.307 5.896 5.405-20.636-6.879-30.463-11.792-42.746 30.954-6.387 78.613-.983 115.463-3.931-.491-23.584-44.22-31.445-65.347-28.497-26.532 3.931-58.96 2.457-85.983 4.422-41.763 2.948-81.07 12.283-119.394 14.74-3.439.983.491 8.844-3.439 9.335-7.861.491-9.827-5.405-19.162-3.439-5.405 9.827 4.422 15.231 5.896 24.075 14.74 4.422 20.145 16.705 20.636 34.885.983 37.833 0 104.654-9.335 137.573 11.301 10.318 17.688 26.041 30.463 34.885 2.457-2.948 18.671-6.387 18.671-12.775 71.243-7.861 139.048-19.162 204.395-14.74 8.353 29.48-5.896 58.96-7.37 83.527-.491 5.405 4.913 11.301 3.931 16.705-2.457 15.723-14.249 27.023-26.532 32.919 0-3.439 22.11-18.671 21.127-26.041-15.231 10.318-29.48 34.885-49.625 37.341-28.497 3.439-59.943-21.619-85.492-12.775 19.653 7.861 32.919 23.584 43.729 40.781 20.636 10.809 34.885 31.445 64.365 29.48 15.723-.983 40.289-13.757 51.099-24.075 32.919-30.463 28.989-97.284 41.763-144.452 20.636-2.948 39.307-14.249 47.168-24.075zm-160.666 83.035c2.948-11.301 2.457-20.636 0-28.497-6.387-21.619-29.971-32.919-55.029-41.763 1.474 6.879 2.457 14.74 1.965 24.075 14.74 17.688 22.601 50.116 53.064 46.185m-68.787-19.162c-7.37-22.601-35.376-35.867-50.607-43.729-4.913 38.815 19.653 71.243 49.133 72.226 4.422-10.809 3.931-20.145 1.474-28.497m-69.278 8.844c-6.879-22.601-32.428-39.307-53.555-47.168 6.387 33.902 13.757 76.648 51.099 78.122 4.913-11.301 5.405-21.619 2.457-30.954zm-74.191 45.694c12.283-53.064-23.093-73.209-56.995-90.897-9.335 9.827 12.283 36.359 1.965 52.081 11.301 8.844 18.671 26.041 30.463 34.885 6.387 4.913 14.249 7.37 24.567 3.931m141.995-276.13c-27.023-.491-43.237 7.861-73.7 5.405 2.948-7.861.983-25.058-3.931-30.954 14.249-17.197 48.151-16.214 73.7-19.162 2.457 13.757 4.913 27.515 3.931 44.711m-1.965 62.891c-28.497.491-46.677 2.948-71.735 5.405-3.931-8.353-1.474-27.515 0-31.445 27.515-2.457 43.729-8.353 71.735-7.37-.491 12.283 1.965 22.601 0 33.411zm1.965 57.486c-28.006 7.861-51.59 7.37-75.665 9.335-1.474-9.827 3.439-22.601 1.474-30.954 27.023 1.965 44.22-10.809 72.226-9.827-.491 11.792 3.439 18.671 1.965 31.445z"/>
    <path fill="#9b0000" d="M875.258 600.223c-14.74-16.704-37.831-33.901-61.906-41.762-18.18-5.895-36.85-6.386-53.555 2.457-31.444-4.914-53.554-.492-77.628-1.474.982-9.827-2.949-25.549 3.93-29.97 23.093 0 46.676-4.914 69.769-7.37 7.861-.983 16.213 4.913 21.126-3.44-14.248-19.653-52.08-28.988-92.86-18.67-.982-10.81-1.964-17.196 1.966-29.971 34.392-1.965 65.345-1.474 92.859-12.775-6.878-14.248-26.04-23.092-49.624-26.04-7.369 7.37-24.075 5.896-39.306 5.896 5.405-20.635-6.878-30.462-11.791-42.745 30.953-6.386 78.61-.982 115.46-3.93-.49-23.584-44.218-31.445-65.345-28.497-26.531 3.93-58.96 2.456-85.981 4.422-41.762 2.948-81.068 12.282-119.39 14.74-3.44.982.49 8.843-3.44 9.335-7.862.49-9.827-5.405-19.162-3.44-5.405 9.827 4.422 15.231 5.896 24.075 14.74 4.422 20.144 16.705 20.635 34.884.982 37.831 0 104.652-9.335 137.57 11.3 10.317 17.687 26.04 30.462 34.884 2.456-2.949 18.67-6.387 18.67-12.775 71.242-7.862 139.044-19.162 204.39-14.74 8.352 29.48-5.896 58.959-7.37 83.524-.491 5.405 4.913 11.3 3.93 16.705-2.455 15.722-14.248 27.022-26.53 32.918 0-3.44 22.109-18.67 21.126-26.04-15.23 10.317-29.48 34.884-49.623 37.34-28.497 3.44-59.942-21.618-85.49-12.774 19.653 7.862 32.918 23.584 43.728 40.78 20.635 10.809 34.884 31.444 64.363 29.48 15.722-.983 40.289-13.758 51.097-24.076 32.918-30.462 28.989-97.281 41.762-144.448 20.636-2.948 39.306-14.248 47.167-24.075zm-160.661 83.033c2.948-11.3 2.456-20.635 0-28.497-6.387-21.618-29.971-32.918-55.028-41.762 1.473 6.878 2.457 14.74 1.964 24.075 14.74 17.687 22.6 50.115 53.063 46.184zm-68.785-19.161c-7.369-22.6-35.375-35.867-50.606-43.728-4.913 38.814 19.653 71.241 49.133 72.223 4.422-10.808 3.93-20.144 1.473-28.497zm-69.276 8.844c-6.878-22.6-32.427-39.306-53.555-47.167 6.387 33.902 13.758 76.646 51.098 78.12 4.913-11.3 5.404-21.618 2.456-30.953zm-74.19 45.692c12.282-53.062-23.093-73.206-56.993-90.894-9.335 9.826 12.282 36.358 1.965 52.08 11.3 8.844 18.67 26.04 30.462 34.884 6.386 4.913 14.248 7.369 24.566 3.93M644.338 442.51c-27.023-.492-43.236 7.861-73.698 5.404 2.948-7.862.982-25.057-3.93-30.953 14.248-17.196 48.148-16.214 73.697-19.162 2.456 13.757 4.913 27.514 3.93 44.71m-1.964 62.89c-28.497.49-46.675 2.948-71.733 5.404-3.93-8.353-1.474-27.514 0-31.445 27.514-2.456 43.728-8.353 71.733-7.369-.491 12.283 1.965 22.6 0 33.41m1.965 57.483c-28.005 7.862-51.589 7.37-75.664 9.336-1.474-9.827 3.44-22.6 1.474-30.953 27.022 1.964 44.219-10.81 72.224-9.827-.492 11.791 3.44 18.67 1.964 31.444z"/>
    <path fill="#340000" d="M643.199 817.8a10.4 10.4 0 0 0-10.425 10.425v154.348l-64.433-64.433 15.687-15.682c-1.11-3.931-5.172-7.993-9.103-9.103l-43.713-12.344-7.577-7.577a10.405 10.405 0 0 0-14.747 0l-4.971 4.971a10.405 10.405 0 0 0 0 14.747l7.577 7.577 12.344 43.713c1.11 3.932 5.171 7.993 9.103 9.103l15.682-15.687 64.433 64.433H458.708a10.4 10.4 0 0 0-10.425 10.425v7.029c0 5.777 4.648 10.43 10.425 10.43h154.348l-64.433 64.433-15.682-15.687c-3.931 1.11-7.993 5.167-9.103 9.098l-12.344 43.717-7.577 7.577a10.405 10.405 0 0 0 0 14.747l4.971 4.971a10.405 10.405 0 0 0 14.747 0l7.587-7.587 43.703-12.339c3.931-1.11 7.993-5.167 9.103-9.098l-15.687-15.682 64.433-64.433v154.343c0 5.777 4.648 10.43 10.425 10.43h7.03a10.41 10.41 0 0 0 10.43-10.43v-154.343l64.433 64.433-15.687 15.682c1.11 3.931 5.167 7.988 9.098 9.098l43.708 12.339 7.586 7.587a10.405 10.405 0 0 0 14.747 0l4.971-4.971a10.405 10.405 0 0 0 0-14.747l-7.587-7.586-12.339-43.708c-1.11-3.931-5.167-7.988-9.098-9.098l-15.682 15.687-64.433-64.433h154.343a10.41 10.41 0 0 0 10.43-10.43v-7.029a10.404 10.404 0 0 0-10.43-10.425H680.376l64.433-64.433 15.682 15.687c3.931-1.11 7.988-5.172 9.098-9.103l12.339-43.703 7.587-7.586a10.405 10.405 0 0 0 0-14.747l-2.485-2.485-2.485-2.485a10.405 10.405 0 0 0-14.747 0l-7.577 7.577-43.717 12.344c-3.932 1.11-7.988 5.171-9.098 9.103l15.687 15.682-64.433 64.433v-154.35a10.404 10.404 0 0 0-10.43-10.425zm3.512 198.429h.014v.014h-.014z"/>
    <path fill="#9b0000" d="M1789.451 1052.929a7.22 7.22 0 0 0-7.237 7.237v107.141l-44.726-44.726 10.889-10.886c-.771-2.729-3.59-5.548-6.319-6.319l-30.343-8.569-5.259-5.26a7.22 7.22 0 0 0-10.237 0l-3.45 3.45a7.22 7.22 0 0 0 0 10.237l5.259 5.259 8.569 30.343c.771 2.729 3.59 5.548 6.319 6.319l10.886-10.889 44.726 44.726h-107.141a7.22 7.22 0 0 0-7.237 7.237v4.88c0 4.01 3.227 7.24 7.237 7.24h107.141l-44.726 44.726-10.886-10.889c-2.729.771-5.548 3.586-6.319 6.315l-8.569 30.347-5.259 5.259a7.22 7.22 0 0 0 0 10.237l3.45 3.45a7.22 7.22 0 0 0 10.237 0l5.266-5.266 30.336-8.565c2.729-.771 5.548-3.586 6.319-6.315l-10.889-10.886 44.726-44.726v107.138c0 4.01 3.227 7.24 7.237 7.24h4.88c4.01 0 7.24-3.23 7.24-7.24v-107.138l44.726 44.726-10.889 10.886c.771 2.729 3.586 5.545 6.315 6.315l30.34 8.565 5.266 5.266a7.22 7.22 0 0 0 10.237 0l3.45-3.45a7.22 7.22 0 0 0 0-10.237l-5.266-5.266-8.565-30.34c-.771-2.729-3.586-5.545-6.315-6.315l-10.886 10.889-44.726-44.726h107.138c4.01 0 7.24-3.23 7.24-7.24v-4.88c0-4.01-3.23-7.237-7.24-7.237h-107.138l44.726-44.726 10.886 10.889c2.729-.771 5.545-3.59 6.315-6.319l8.565-30.337 5.266-5.266a7.22 7.22 0 0 0 0-10.237l-1.725-1.725-1.725-1.725a7.22 7.22 0 0 0-10.237 0l-5.259 5.26-30.347 8.569c-2.729.771-5.545 3.59-6.315 6.319l10.889 10.886-44.726 44.726v-107.141c0-4.01-3.23-7.237-7.24-7.237zm2.438 137.74h.01v.01h-.01z" clip-path="url(#0UM_svg__c)" transform="translate(-1948.631 -685.111)scale(1.4406)"/>
    <path fill="#fff" d="M463.437 688.373c4.738 2.164 10.378-1.986 8.46-6.225s-11.395-8.57-14.216-6.495 1.017 10.556 5.756 12.72m83.006-5.297c4.396 1.796 9.422-1.409 7.54-4.808s-10.674-6.995-13.187-5.391 1.252 8.403 5.647 10.199m123.966-42.947c-2.675 3.519 2.628 11.675 7.952 12.235s10.673-6.475 8.024-10.554-13.301-5.2-15.976-1.681m-58.617 22.504c3.554.746 9.64-3.449 9.13-6.294s-7.618-4.341-10.662-2.242-2.022 7.79 1.532 8.536m-70.795-62.258c5.986 2.065 9.689-1.99 9.142-6.174s-5.347-8.498-11.334-10.565-13.16-1.885-12.612 2.301 8.819 12.373 14.804 14.438m132.926 153.07c6.079 2.009 14.316-4.296 12.356-9.46s-14.117-9.186-18.237-6.032-.198 13.482 5.881 15.491z"/>
</svg>
