<svg xmlns="http://www.w3.org/2000/svg" width="498.898" height="544.252" viewBox="0 0 1320 1440">
    <defs>
        <linearGradient id="0NY_svg__a" x1="-1430.769" x2="-1409.955" y1="-77.47" y2="-77.47" gradientUnits="userSpaceOnUse" spreadMethod="reflect">
            <stop offset="0" stop-color="#ffd285"/>
            <stop offset=".232" stop-color="#ffcd79"/>
            <stop offset=".616" stop-color="#ffca73"/>
            <stop offset=".808" stop-color="#ffd386"/>
            <stop offset="1" stop-color="#ffc86e"/>
        </linearGradient>
        <linearGradient id="0NY_svg__b" x1="-899.903" x2="-899.906" y1="-319.311" y2="125.211" gradientUnits="userSpaceOnUse">
            <stop offset=".599" stop-color="#fff"/>
            <stop offset="1"/>
        </linearGradient>
        <clipPath id="0NY_svg__c">
            <path stroke-width="1.534" d="M1799.132 1043.253a7.22 7.22 0 0 0-7.237 7.237v107.141l-75.759-75.759a7.22 7.22 0 0 0-10.237 0l-3.45 3.45a7.22 7.22 0 0 0 0 10.237l75.759 75.759h-107.141a7.223 7.223 0 0 0-7.237 7.24v4.876c0 4.01 3.227 7.24 7.237 7.24h120.828v120.828a7.22 7.22 0 0 0 7.237 7.237h4.88c4.01 0 7.24-3.227 7.24-7.237v-120.828h120.825c4.01 0 7.24-3.23 7.24-7.24v-4.876c0-4.01-3.23-7.24-7.24-7.24h-107.138l75.759-75.759a7.22 7.22 0 0 0 0-10.237l-3.45-3.45a7.22 7.22 0 0 0-10.237 0l-75.759 75.759V1050.49c0-4.01-3.23-7.237-7.24-7.237zm2.438 137.74h.01v.01h-.01z"/>
        </clipPath>
    </defs>
    <path d="m1107.176 1348.302-56.54 70.558h-913.03l-20.225-18.874L321.87 430.64l63.084-35.292z" opacity=".5"/>
    <path fill="url(#0NY_svg__a)" d="m-1215.568-283.246-145.942 38.045-83.762 462.487 6.639 36.814 10.024 8.338h426.077l10.024-8.338 6.639-36.814-83.759-462.487z" transform="translate(3097.382 831.934)scale(2.0051)"/>
    <path fill="url(#0NY_svg__b)" d="m-899.903-323.401-145.942 37.996-83.762 462.487 6.639 36.814 10.024 8.338h426.077l10.024-8.338 6.639-36.814-83.759-462.487z" opacity=".25" style="mix-blend-mode:overlay" transform="translate(2464.43 912.55)scale(2.0051)"/>
    <path fill="#fff" d="m1099.875 1262.57-.043 21.064 20.75-16.013z" opacity=".8"/>
    <path d="m1120.582 1267.622-20.75 16.013-12.661 74.524 20.099-16.719z" opacity=".6"/>
    <g fill="#fff">
        <path d="m367.372 340.273 17.664 13.248 274.969-73.032v-16.402zm585.261 0-17.664 13.248-274.964-73.032v-16.402z" opacity=".3"/>
        <path d="m952.633 340.273-17.664 13.248 164.905 909.049 20.707 5.052z" opacity=".3"/>
    </g>
    <path d="m367.372 340.273 17.664 13.248-164.91 909.049-20.707 5.052z" opacity=".4"/>
    <path d="m199.418 1267.622 20.75 16.013 12.661 74.524-20.099-16.719z" opacity=".9"/>
    <path d="m220.126 1262.57.043 21.064-20.75-16.013z" opacity=".6"/>
    <path d="M220.126 1262.57h879.749l-.043 21.064H220.168l-.043-21.064z" opacity=".2"/>
    <path d="m1099.832 1283.634-12.661 74.524H232.829l-12.661-74.524h879.663z" opacity=".7"/>
    <path fill="#300" d="M656.431 812.747a10.4 10.4 0 0 0-10.425 10.425V977.52L536.867 868.382a10.405 10.405 0 0 0-14.747 0l-4.971 4.971a10.405 10.405 0 0 0 0 14.747l109.138 109.138H471.941a10.404 10.404 0 0 0-10.425 10.43v7.025c0 5.777 4.648 10.43 10.425 10.43h174.065v174.065a10.4 10.4 0 0 0 10.425 10.425h7.03c5.777 0 10.43-4.648 10.43-10.425v-174.065h174.06a10.41 10.41 0 0 0 10.43-10.43v-7.025a10.41 10.41 0 0 0-10.43-10.43H693.609L802.747 888.1a10.405 10.405 0 0 0 0-14.747l-4.971-4.971a10.405 10.405 0 0 0-14.747 0L673.891 977.521V823.173a10.404 10.404 0 0 0-10.43-10.425zm3.512 198.429h.014v.014h-.014z"/>
    <path fill="#9b0000" d="M1789.451 1052.935a7.22 7.22 0 0 0-7.237 7.237v107.141l-75.759-75.759a7.22 7.22 0 0 0-10.237 0l-3.45 3.45a7.22 7.22 0 0 0 0 10.237l75.759 75.759h-107.141a7.223 7.223 0 0 0-7.237 7.24v4.876c0 4.01 3.227 7.24 7.237 7.24h120.828v120.828a7.22 7.22 0 0 0 7.237 7.237h4.88c4.01 0 7.24-3.227 7.24-7.237v-120.828h120.825c4.01 0 7.24-3.23 7.24-7.24v-4.876c0-4.01-3.23-7.24-7.24-7.24h-107.138l75.759-75.759a7.22 7.22 0 0 0 0-10.237l-3.45-3.45a7.22 7.22 0 0 0-10.237 0l-75.759 75.759v-107.141c0-4.01-3.23-7.237-7.24-7.237zm2.438 137.74h.01v.01h-.01z" clip-path="url(#0NY_svg__c)" transform="translate(-1935.399 -690.163)scale(1.4406)"/>
    <path fill="#310000" d="M612.231 781.527c-10.773-2.891-20.795-8.5-26.001-14.553-7.483-8.7-8.209-12.077-6.224-28.965 2.771-23.573 4.476-26.795 24.682-46.616 18.508-18.155 19.817-23.236 7.442-28.875-4.843-2.207-12.026-8.924-15.961-14.927s-12.681-18.84-19.436-28.526-12.28-21.947-12.28-27.248c0-11.92 6.773-10.214 15.045 3.789 6.787 11.489 36.056 39.304 41.359 39.304 2.173 0 3.609-11.837 3.609-29.752v-29.752l-20.298-2.281c-11.164-1.254-26.233-4.524-33.487-7.266-12.512-4.73-13.442-4.58-18.14 2.909-2.723 4.342-6.83 13.821-9.126 21.064-3.547 11.189-6.337 13.752-18.55 17.041-10.763 2.898-15.016 2.835-16.924-.253-2.568-4.154 7.602-28.955 15.903-38.783 2.46-2.912 5.639-9.267 7.065-14.121 4.047-13.777 19.078-31.771 26.539-31.771 7.244 0 15.731 12.099 12.339 17.588-3.087 4.995 24.429 17.713 38.322 17.713 10.853 0 11.951-.857 10.173-7.943-1.096-4.369-8.096-16.541-15.555-27.051-10.665-15.025-13.563-22.351-13.563-34.287 0-13.74 9.456-46.777 17.759-62.044 2.293-4.216 1.586-7.683-2.372-11.641-7.516-7.516-3.894-10.445 6.374-5.155 13.35 6.877 27.661 21.846 27.661 28.932 0 3.616-2.448 11.309-5.44 17.094s-4.601 11.875-3.577 13.533 11.018 4.083 22.208 5.39c31.266 3.652 42.773 8.389 48.83 20.1 10.913 21.104-4.244 36.522-32.536 33.096-23.909-2.896-29.2 1.383-19.154 15.491 4.291 6.026 9.248 10.955 11.016 10.955s15.492-4.121 30.496-9.158c22.507-7.555 32.302-8.945 55.981-7.943 24.539 1.039 30.762 2.644 42.921 11.073 8.768 6.078 16.282 15.107 19.599 23.55 5.082 12.937 4.962 14.28-2.171 24.367-5.718 8.086-14.154 12.863-34.785 19.695-14.98 4.961-30.521 9.02-34.536 9.02-11.963 0-42.103-17.121-60.603-34.424-10.092-9.44-18.539-14.831-20.279-12.941-1.64 1.781-3.821 19.521-4.847 39.423l-1.865 36.184h11.617c6.389 0 19.702-2.611 29.583-5.802 14.598-4.715 18.975-4.965 23.351-1.333 8.03 6.664 6.522 19.156-3.523 29.202-9.258 9.258-36.848 18.27-47.02 15.358-6.77-1.938-27.626 21.998-31.049 35.634-3.555 14.163 3.359 17.173 19.783 8.612 17.941-9.351 21.543-9.375 33.182-.22 17.275 13.589 10.751 35.825-14.295 48.725-10.136 5.22-37.354 4.664-59.241-1.21zm155.791-187.271c11.025-7.224 7.259-13.849-12.284-21.612-17.414-6.917-54.865-8.072-70.717-2.181-8.199 3.047-8.148 3.182 5.019 13.225 23.539 17.954 59.311 22.802 77.982 10.569zm-101.194-97.021c0-3.883-2.253-7.06-5.007-7.06s-7.168-.829-9.809-1.843c-6.503-2.495-18.659 6.822-15.522 11.898 1.382 2.236 8.773 4.066 16.425 4.066 11.559 0 13.912-1.194 13.912-7.06z"/>
    <path fill="#980000" d="M611.783 781.435c-10.774-2.892-20.795-8.501-26.002-14.554-7.484-8.7-8.209-12.077-6.224-28.965 2.77-23.574 4.476-26.796 24.683-46.617 18.509-18.156 19.818-23.236 7.441-28.875-4.843-2.207-12.025-8.925-15.96-14.928s-12.682-18.84-19.437-28.526-12.281-21.948-12.281-27.249c0-11.92 47.938 51.003 53.242 51.003 2.173 0 6.773-19.746 6.773-37.662V575.31l-20.3-2.28c-11.163-1.255-26.233-4.525-33.487-7.267-12.512-4.73-21.645-.946-26.342 6.544-2.724 4.342-6.457 10.28-8.754 17.523-3.546 11.19 1.492 13.66-10.721 16.948-10.763 2.899-15.016 2.835-16.924-.253-2.568-4.155 7.603-28.957 15.903-38.785 2.461-2.912 5.64-9.266 7.066-14.121 4.047-13.777 16.969-23.073 24.43-23.073 7.245 0 8.878 9.727 5.486 15.216-3.087 4.995 32.866 17.45 46.76 17.45 10.853 0 12.478-6.92 10.7-14.006-1.095-4.369-8.095-16.542-15.555-27.052-10.666-15.026-13.563-22.352-13.563-34.287 0-13.74 9.456-46.78 17.759-62.047 2.292-4.216 1.586-7.683-2.372-11.64-7.516-7.517 25.834 17.808 25.834 24.895 0 3.616-10.67 34.573-9.646 36.231s19.85 2.502 31.04 3.81c31.266 3.65 34.866 5.883 40.922 17.596 10.914 21.104 3.664 33.887-24.628 30.46-23.91-2.896-36.187 4.81-26.141 18.919 4.29 6.025 10.565 14.119 12.335 14.119s23.664-3.33 38.669-8.367c22.508-7.556 32.303-8.945 55.982-7.943 24.54 1.039 27.996 3.962 40.154 12.39 8.77 6.08 10.617 10.811 14.063 19.202 3.702 9.013 1.984 9.835-.722 18.831-2.851 9.485-9.805 14.05-30.436 20.882-14.98 4.961-30.522 9.02-34.538 9.02-11.964 0-42.105-17.12-60.604-34.425-10.093-9.44-18.457-14.751-20.28-12.941-19.565 19.422-13.223 34.105-13.546 52.868l-.548 31.704 20.317-1.055c6.38-.332 18.12-2.875 28.002-6.066 14.599-4.715 16.868-3.647 21.244-.015 8.03 6.665 8.895 10.194-1.151 20.24-9.259 9.258-36.85 18.27-47.022 15.358-6.77-1.939-35.009 27.385-38.431 41.022-3.555 14.163 11.004 26.021 27.428 17.46 17.941-9.351 18.287-9.166 28.702 1.362 11.802 11.933 14.97 20.01-10.077 32.91-10.136 5.22-37.355 4.663-59.244-1.211zM767.58 594.158c11.026-7.223 7.259-13.85-12.284-21.613-17.414-6.917-54.867-8.073-70.719-2.18-8.199 3.046-8.148 3.181 5.02 13.224 23.539 17.955 59.313 22.804 77.984 10.57zm-101.197-97.024c0-3.883-2.253-7.06-5.006-7.06s-7.168-.829-9.81-1.843c-6.502-2.496-25.249 9.196-22.112 14.271 1.383 2.236 10.75 7.23 18.403 7.23 11.559 0 18.526-6.731 18.526-12.597z"/>
    <path fill="#fff" d="M599.977 767.795c6.072 3.557 11.268-2.439 11.98-7.233s-3.063-8.39-9.136-11.949-14.442-7.081-15.153-2.284 6.237 17.909 12.309 21.466m14.829-112.367c4.47.527 6.324-6.04 2.782-9.851s-12.485-4.866-13.412-1.582 6.161 10.906 10.631 11.433zm-6.814-139.592c3.835.422 7.644-5.575 8.27-9.562s-1.932-5.964-5.768-6.389-8.949.706-9.575 4.695 3.238 10.833 7.073 11.255z"/>
</svg>
