<svg xmlns="http://www.w3.org/2000/svg" width="498.898" height="544.252" viewBox="0 0 1320 1440">
    <defs>
        <linearGradient id="0TO_svg__a" x1="228.547" x2="270.281" y1="805.748" y2="805.748" gradientUnits="userSpaceOnUse" spreadMethod="reflect">
            <stop offset="0" stop-color="#ffd285"/>
            <stop offset=".232" stop-color="#ffcd79"/>
            <stop offset=".616" stop-color="#ffca73"/>
            <stop offset=".808" stop-color="#ffd386"/>
            <stop offset="1" stop-color="#ffc86e"/>
        </linearGradient>
        <linearGradient id="0TO_svg__b" x1="660.031" x2="660.029" y1="318.739" y2="1292.759" gradientUnits="userSpaceOnUse">
            <stop offset=".604" stop-color="#fff"/>
            <stop offset="1"/>
        </linearGradient>
        <clipPath id="0TO_svg__c">
            <path stroke-width="1.534" d="M1799.132 1043.253a7.22 7.22 0 0 0-7.237 7.237v107.141l-75.759-75.759a7.22 7.22 0 0 0-10.237 0l-3.45 3.45a7.22 7.22 0 0 0 0 10.237l75.759 75.759h-107.141a7.223 7.223 0 0 0-7.237 7.24v4.876c0 4.01 3.227 7.24 7.237 7.24h120.828v120.828a7.22 7.22 0 0 0 7.237 7.237h4.88c4.01 0 7.24-3.227 7.24-7.237v-120.828h120.825c4.01 0 7.24-3.23 7.24-7.24v-4.876c0-4.01-3.23-7.24-7.24-7.24h-107.138l75.759-75.759a7.22 7.22 0 0 0 0-10.237l-3.45-3.45a7.22 7.22 0 0 0-10.237 0l-75.759 75.759V1050.49c0-4.01-3.23-7.237-7.24-7.237zm2.438 137.74h.01v.01h-.01z"/>
        </clipPath>
    </defs>
    <path d="m1076.765 1357.436-46.356 69.884h-874.72l-26.637-22.586L326.962 484.8l63.084-35.291z" opacity=".5"/>
    <path fill="url(#0TO_svg__a)" d="m660.043 318.74-287.664 75.7-142.368 882.306 13.312 80.689 20.099 16.719h793.244l20.099-16.719 13.312-80.689L947.708 394.44z"/>
    <path fill="url(#0TO_svg__b)" d="M660.031 318.739 372.368 394.44 230 1283.62l13.312 73.816 20.099 16.718h793.244l20.099-16.718 13.312-73.816-142.37-889.18z" opacity=".25" style="mix-blend-mode:overlay"/>
    <path fill="#fff" d="m1069.332 1271.7-.043 21.064 20.75-16.013z" opacity=".8"/>
    <path d="m1090.039 1276.752-20.75 16.013-12.661 81.397 20.099-16.719z" opacity=".6"/>
    <g fill="#fff">
        <path d="m372.331 394.43 17.664 13.248L660 335.13v-16.402zm575.338 0-17.664 13.248L660 335.13v-16.402z" opacity=".3"/>
        <path d="m947.669 394.43-17.664 13.248 139.327 864.022 20.707 5.052z" opacity=".3"/>
    </g>
    <path d="m372.331 394.43 17.664 13.248L250.668 1271.7l-20.707 5.052z" opacity=".4"/>
    <path d="m229.96 1276.752 20.75 16.013 12.661 81.397-20.099-16.719z" opacity=".9"/>
    <path d="m250.668 1271.7.043 21.064-20.75-16.013z" opacity=".6"/>
    <path d="M250.668 1271.7h818.665l-.043 21.064H250.71z" opacity=".2"/>
    <path d="m1069.289 1292.764-12.661 81.397H263.371l-12.661-81.397z" opacity=".7"/>
    <path fill="#300" d="M656.567 821.94a10.32 10.32 0 0 0-10.342 10.342v153.116L537.958 877.131a10.32 10.32 0 0 0-14.629 0l-4.931 4.931a10.32 10.32 0 0 0 0 14.629l108.267 108.267H473.549a10.32 10.32 0 0 0-10.342 10.347v6.968a10.32 10.32 0 0 0 10.342 10.347h172.676v172.676a10.32 10.32 0 0 0 10.342 10.342h6.973a10.32 10.32 0 0 0 10.347-10.342V1032.62h172.671a10.326 10.326 0 0 0 10.347-10.347v-6.968a10.326 10.326 0 0 0-10.347-10.347h-153.11l108.267-108.267a10.32 10.32 0 0 0 0-14.629l-4.931-4.931a10.32 10.32 0 0 0-14.629 0L673.888 985.398V832.282a10.32 10.32 0 0 0-10.347-10.342zm3.484 196.845h.014v.014h-.014z"/>
    <path fill="#9b0000" d="M1789.451 1052.935a7.22 7.22 0 0 0-7.237 7.237v107.141l-75.759-75.759a7.22 7.22 0 0 0-10.237 0l-3.45 3.45a7.22 7.22 0 0 0 0 10.237l75.759 75.759h-107.141a7.223 7.223 0 0 0-7.237 7.24v4.876c0 4.01 3.227 7.24 7.237 7.24h120.828v120.828a7.22 7.22 0 0 0 7.237 7.237h4.88c4.01 0 7.24-3.227 7.24-7.237v-120.828h120.825c4.01 0 7.24-3.23 7.24-7.24v-4.876c0-4.01-3.23-7.24-7.24-7.24h-107.138l75.759-75.759a7.22 7.22 0 0 0 0-10.237l-3.45-3.45a7.22 7.22 0 0 0-10.237 0l-75.759 75.759v-107.141c0-4.01-3.23-7.237-7.24-7.237zm2.438 137.74h.01v.01h-.01z" clip-path="url(#0TO_svg__c)" transform="translate(-1914.573 -668.973)scale(1.4291)"/>
    <path fill="#310000" d="M592.711 790.198c-7.973-2.998-22.95-14.691-33.282-25.986-17.462-19.09-18.785-22.287-18.785-45.41 0-20.195 2.247-27.778 11.944-40.304 18.296-23.635 33.678-36.472 64.227-53.599l27.969-15.681-3.89-22.661c-2.14-12.463-7.166-35.78-11.169-51.814-6.915-27.698-8.135-23.348-18.702-27.267-17.846-6.617-18.377-7.95.909-25.017 16.894-14.95 39.902-25.452 45.384-20.716 1.477 1.276 2.956 19.428 3.286 40.336s1.879 50.807 3.443 66.441l2.843 28.425 27.544-11.404c32.44-13.431 39.02-14.203 39.02-4.575 0 4.207-10.992 13.851-26.694 23.42-37.695 22.971-99.633 74.246-106.176 87.896-8.639 18.022-9.077 37.902 5.847 47.479 16.612 10.661 50.154 15.821 98.518-3.322 52.495-20.778 74.412-8.137 74.412 17.576 0 17.719-21.453 26.314-89.863 36.002-50.743 7.186-78.011 7.237-96.782.18z"/>
    <path fill="#980000" d="M595.908 790.442c-7.973-2.998-22.95-14.692-33.282-25.986-17.462-19.09-18.784-22.287-18.784-45.411 0-20.196 2.247-27.778 11.945-40.304 18.296-23.635 33.678-36.472 64.227-53.599l27.969-15.681-3.89-22.66c-2.14-12.464-7.166-35.78-11.17-51.815-6.915-27.698-8.136-23.348-18.703-27.266-17.846-6.618-9.363-4.526 8.995-15.719 19.261-11.742 17.261-8.067 22.742-3.331 1.477 1.276 17.24 118.223 17.24 118.223l36.452-13.022c33.064-11.811 37-22.288 37-12.661 0 4.207-10.992 13.852-26.694 23.42-37.695 22.971-99.451 74.336-106.177 87.897-10.681 21.539-24.037 44.764-9.113 54.342 16.612 10.66 68.272 29.431 114.286 5.178 29.45-15.522 54.601-17.032 54.601 8.681 0 17.72-2.451 19.845-70.861 29.534-50.744 7.186-78.012 7.237-96.783.18"/>
    <path fill="#fff" d="M585.925 774.994c7.413.682 8.041-13.842 4.177-21.787s-12.221-9.309-19.636-9.992-13.887-.682-10.022 7.263 18.067 23.834 25.48 24.516zm39.969-278.624c-5.749.628-8.747 5.868-8.394 9.352s4.056 5.214 9.802 4.584 13.539-3.616 13.188-7.099-8.848-7.466-14.597-6.838z"/>
</svg>
