<svg xmlns="http://www.w3.org/2000/svg" width="498.898" height="544.252" viewBox="0 0 1320 1440">
    <defs>
        <linearGradient id="0RY_svg__a" x1="228.547" x2="270.281" y1="660.587" y2="660.587" gradientUnits="userSpaceOnUse" spreadMethod="reflect">
            <stop offset="0" stop-color="#ffd285"/>
            <stop offset=".232" stop-color="#ffcd79"/>
            <stop offset=".616" stop-color="#ffca73"/>
            <stop offset=".808" stop-color="#ffd386"/>
            <stop offset="1" stop-color="#ffc86e"/>
        </linearGradient>
        <linearGradient id="0RY_svg__b" x1="660.031" x2="660.029" y1="176.668" y2="1147.598" gradientUnits="userSpaceOnUse">
            <stop offset=".599" stop-color="#fff"/>
            <stop offset="1"/>
        </linearGradient>
        <clipPath id="0RY_svg__c">
            <path stroke-width="10.708" d="M1799.135 1043.254a7.223 7.223 0 0 0-7.24 7.237v7.446l-15.399 27.512c-1.385 2.475-1.385 6.457 0 8.932h15.399v63.253l-75.759-75.759a7.22 7.22 0 0 0-10.237 0l-3.45 3.45a7.22 7.22 0 0 0 0 10.237l75.759 75.759h-63.252v-15.399c-2.475-1.385-6.457-1.385-8.932 0l-27.515 15.399h-7.442a7.22 7.22 0 0 0-7.237 7.237v4.879c0 4.01 3.227 7.24 7.237 7.24h7.449l27.508 15.395c2.475 1.385 6.457 1.385 8.932 0v-15.395h63.252l-75.759 75.759a7.22 7.22 0 0 0 0 10.237l3.45 3.45a7.22 7.22 0 0 0 10.237 0l75.759-75.759v63.249h-15.399c-1.385 2.475-1.385 6.461 0 8.935l15.399 27.512v7.442c0 4.01 3.23 7.24 7.24 7.24h4.876c4.01 0 7.24-3.23 7.24-7.24v-7.442l15.399-27.512c1.385-2.475 1.385-6.461 0-8.935h-15.399v-63.249l75.759 75.759a7.22 7.22 0 0 0 10.237 0l3.45-3.45a7.22 7.22 0 0 0 0-10.237l-75.759-75.759h63.249v15.395c2.475 1.385 6.461 1.385 8.935 0l27.508-15.395h7.449c4.01 0 7.237-3.23 7.237-7.24v-4.88a7.22 7.22 0 0 0-7.237-7.237h-7.442l-27.515-15.399c-2.475-1.385-6.461-1.385-8.935 0v15.399h-63.249l75.759-75.759a7.22 7.22 0 0 0 0-10.237l-3.45-3.45a7.22 7.22 0 0 0-10.237 0l-75.759 75.759v-63.253h15.399c1.385-2.475 1.385-6.457 0-8.932l-15.399-27.512v-7.446c0-4.01-3.23-7.237-7.24-7.237zm2.435 137.74h.01z"/>
        </clipPath>
    </defs>
    <path d="m1167.083 1341.43-49.031 69.971H80.26l-28.823-22.557L261.35 383.954l63.084-35.292z" opacity=".5"/>
    <path fill="url(#0RY_svg__a)" d="M660.043 176.666 306.898 293.594l-167.217 974.019 13.3 73.818 20.099 16.718h973.903l20.099-16.718 13.324-73.818-167.217-974.019z"/>
    <path fill="url(#0RY_svg__b)" d="M660.031 176.668 306.887 293.595l-167.217 974.02 13.312 73.816 20.099 16.719h973.903l20.099-16.719 13.312-73.816-167.217-974.019z" opacity=".25" style="mix-blend-mode:overlay"/>
    <path fill="#fff" d="m1159.664 1262.571-.043 21.064 20.75-16.013z" opacity=".8"/>
    <path d="m1180.371 1267.622-20.75 16.013-12.637 74.514 20.099-16.718z" opacity=".6"/>
    <g fill="#fff">
        <path d="m306.85 293.586 17.664 13.248L660 193.058v-16.402zm706.3 0-17.664 13.248L660 193.058v-16.402z" opacity=".3"/>
        <path d="m1013.15 293.586-17.664 13.248 164.177 955.737 20.707 5.052z" opacity=".3"/>
    </g>
    <path d="m306.85 293.586 17.664 13.248-164.177 955.737-20.707 5.052z" opacity=".4"/>
    <path d="m139.629 1267.622 20.75 16.013 12.702 74.514-20.099-16.718z" opacity=".9"/>
    <path d="m160.337 1262.571.043 21.064-20.75-16.013z" opacity=".6"/>
    <path d="M160.337 1262.571h999.327l-.043 21.064H160.379z" opacity=".2"/>
    <path d="m1159.621 1283.635-12.637 74.514H173.081l-12.702-74.514h999.241z" opacity=".7"/>
    <path fill="#350000" d="M656.419 812.739a10.404 10.404 0 0 0-10.43 10.425v10.726l-22.183 39.633c-1.995 3.565-1.995 9.302 0 12.867h22.183v91.122L536.85 868.374a10.405 10.405 0 0 0-14.747 0l-4.971 4.971a10.405 10.405 0 0 0 0 14.747L626.271 997.23H535.15v-22.183c-3.565-1.995-9.302-1.995-12.867 0l-39.638 22.183h-10.721a10.4 10.4 0 0 0-10.425 10.425v7.029c0 5.777 4.648 10.43 10.425 10.43h10.731l39.629 22.178c3.565 1.995 9.302 1.995 12.867 0v-22.178h91.121l-109.138 109.138a10.405 10.405 0 0 0 0 14.747l4.971 4.971a10.405 10.405 0 0 0 14.747 0l109.138-109.138v91.117h-22.183c-1.995 3.565-1.995 9.307 0 12.872l22.183 39.633v10.721a10.41 10.41 0 0 0 10.43 10.43h7.025a10.41 10.41 0 0 0 10.43-10.43v-10.721l22.183-39.633c1.995-3.565 1.995-9.307 0-12.872h-22.183v-91.117l109.138 109.138a10.405 10.405 0 0 0 14.747 0l4.971-4.971a10.405 10.405 0 0 0 0-14.747l-109.138-109.138h91.117v22.178c3.565 1.995 9.307 1.995 12.872 0l39.629-22.178h10.731a10.404 10.404 0 0 0 10.425-10.43v-7.03a10.4 10.4 0 0 0-10.425-10.425h-10.721l-39.638-22.183c-3.565-1.995-9.307-1.995-12.872 0v22.183h-91.117L802.73 888.091a10.405 10.405 0 0 0 0-14.747l-4.971-4.971a10.405 10.405 0 0 0-14.747 0L673.874 977.512V886.39h22.183c1.995-3.565 1.995-9.302 0-12.867l-22.183-39.633v-10.726a10.404 10.404 0 0 0-10.43-10.425zm3.508 198.429h.014z"/>
    <path fill="#970000" d="M1789.454 1052.929a7.223 7.223 0 0 0-7.24 7.237v7.446l-15.399 27.512c-1.385 2.475-1.385 6.457 0 8.932h15.399v63.253l-75.759-75.759a7.22 7.22 0 0 0-10.237 0l-3.45 3.45a7.22 7.22 0 0 0 0 10.237l75.759 75.759h-63.252v-15.399c-2.475-1.385-6.457-1.385-8.932 0l-27.515 15.399h-7.442a7.22 7.22 0 0 0-7.237 7.237v4.879c0 4.01 3.227 7.24 7.237 7.24h7.449l27.508 15.395c2.475 1.385 6.457 1.385 8.932 0v-15.395h63.252l-75.759 75.759a7.22 7.22 0 0 0 0 10.237l3.45 3.45a7.22 7.22 0 0 0 10.237 0l75.759-75.759v63.249h-15.399c-1.385 2.475-1.385 6.461 0 8.935l15.399 27.512v7.442c0 4.01 3.23 7.24 7.24 7.24h4.876c4.01 0 7.24-3.23 7.24-7.24v-7.442l15.399-27.512c1.385-2.475 1.385-6.461 0-8.935h-15.399v-63.249l75.759 75.759a7.22 7.22 0 0 0 10.237 0l3.45-3.45a7.22 7.22 0 0 0 0-10.237l-75.759-75.759h63.249v15.395c2.475 1.385 6.461 1.385 8.935 0l27.508-15.395h7.449c4.01 0 7.237-3.23 7.237-7.24v-4.88a7.22 7.22 0 0 0-7.237-7.237h-7.442l-27.515-15.399c-2.475-1.385-6.461-1.385-8.935 0v15.399h-63.249l75.759-75.759a7.22 7.22 0 0 0 0-10.237l-3.45-3.45a7.22 7.22 0 0 0-10.237 0l-75.759 75.759v-63.253h15.399c1.385-2.475 1.385-6.457 0-8.932l-15.399-27.512v-7.446c0-4.01-3.23-7.237-7.24-7.237zm2.435 137.74h.01z" clip-path="url(#0RY_svg__c)" transform="translate(-1935.415 -690.172)scale(1.4406)"/>
    <path fill="#300" d="M853.347 538.323c-15.27-18.719-41.378-31.034-68.471-33.497-19.211-1.478-43.349 14.285-63.545 6.896 3.941-20.689 19.211-43.841 13.3-63.545 13.793-3.448 35.467 0 53.693 0 16.256 0 30.048-3.448 33.004-16.748-9.359-6.896-46.304-26.108-63.545-21.674 0 0 3.941 1.478 3.448 4.926-35.467-.493-63.545 5.419-95.071 3.448 1.97-9.359 2.956-30.048 6.404-43.841-4.433-4.926-12.315-3.941-14.778-11.822-27.093-4.926-49.752-3.448-68.471 6.896 9.852 16.256 33.989 18.226 48.275 30.048 1.97 5.911 1.478 15.271 3.448 21.674-47.782 1.478-88.175 10.837-130.046 5.419-1.478 3.941 4.433 3.448 3.448 6.404-12.808 1.478-25.122-12.808-40.393-4.926 3.448 28.078 26.108 25.615 34.974 46.797 17.241-3.448 31.034-11.33 47.289-11.822 4.926 21.182 10.837 46.797 19.704 58.619-9.852.985-39.408 3.448-59.112 4.926-22.659 1.478-42.856.985-52.708-8.374-4.926 4.433-8.867 0-11.822 0-4.926 17.241 21.674 45.812 33.497 48.767 7.389 1.97 17.241-2.956 28.571-4.926 62.067-11.33 166.005-17.733 245.313-20.196 40.393-.985 66.993 11.822 93.593-3.448zm14.778 187.68c-10.837-3.448-13.793-14.778-16.748-22.167-38.423-20.196-49.26-48.767-49.26-48.767-.985 7.882-1.97 24.63-1.97 32.019-.493 26.6.493 49.752-30.541 52.215-.493 1.97.493 4.433-1.478 4.926-24.137-7.882-80.786 7.882-103.445-11.822 0-8.374-1.478-17.734 2.956-21.674 36.945 0 63.545-3.448 85.219-1.478 3.448-3.448 2.463-12.808 10.345-11.822 12.315-22.167 10.345-53.693 21.674-82.264 10.345-3.941 21.674-5.419 23.152-16.748 6.896-8.867-4.433-11.33-3.448-21.674-20.689-4.433-43.841-18.226-68.471-18.226-65.515.493-138.912 10.345-197.039 18.226-3.448 9.852-14.285 4.433-16.748 6.896-9.852 15.763 13.793 26.108 18.719 41.871 7.882 25.615 0 53.2 6.404 75.367 11.822 5.419 16.256 18.719 27.093 25.122 10.837-6.404 16.748-7.389 33.004-6.896 3.448-6.896 16.256-6.404 23.152-7.389.985 9.852-2.956 36.452 10.345 40.886-1.97 5.911 6.896 16.256 11.822 13.3 0 0-5.419-3.448-1.478-4.926 3.448 7.389 13.793 4.926 9.852 11.822 43.349 14.778 122.164 17.241 162.064 8.374 4.926-.985 19.211-2.956 19.704-13.3 12.808-1.97 18.719-8.867 23.645-15.271-3.941-9.852 2.463-15.271 1.478-26.6zM694.731 448.177c3.448 18.226-13.793 45.812-8.374 65.023-25.615 2.956-52.708 5.419-80.293 6.896-7.389-20.689-2.463-48.767-23.152-60.097 32.511-9.359 95.564-10.837 111.82-11.822zm41.378 140.39c.493 36.452-4.926 67.486-9.852 99.012-18.226-2.956-37.93-4.433-60.097-3.448.493-9.852 1.97-22.167 1.478-33.497 17.241-5.419 36.945.985 43.841-11.822-2.463-5.419-4.926 2.463-8.374 0-.493-12.315-23.152-17.734-36.945-21.674.493-7.882 2.956-20.196-3.448-25.122 20.196-5.419 45.319-2.956 73.397-3.448zm-103.445 33.497c-14.778 5.419-41.871 5.911-55.171 6.896-1.97-8.374-5.419-16.256-8.374-23.645 15.271-7.882 41.871-11.822 57.141-10.345 6.404 7.882 5.911 16.748 6.404 27.093zm0 32.019c0 10.837.985 22.659-1.478 31.526-12.315.985-35.96 4.926-50.737 3.448-1.97-12.808 0-25.122-.493-32.019 13.793-.985 40.393-3.941 52.708-2.956z"/>
    <path fill="#900" d="M844.715 542.264c-13.87-10.091-29.297-21.54-56.389-24.004-19.21-1.477-60.761 14.72-80.957 7.331-2.704-16.43-.38-66.913 27.231-77.475 13.793-3.448 35.466 0 53.692 0 16.255 0 14.964-2.217 17.92-15.517-9.359-6.897-27.77-22.413-45.011-17.98 0 0-4.433 6.404-4.926 9.852-35.466-.493-71.856 6.958-103.381 4.987 1.97-9.358 2.032-26.662 5.48-40.453-4.433-4.926-12.315-3.941-14.779-11.823-27.092-4.926-35.59-18.224-54.309-7.88 9.852 16.255 33.989 18.225 48.274 30.048 1.97 5.911 1.477 15.27 3.447 21.674-5.369 8.138-8.579 11.513-8.579 11.513s-107.987 15.383-120.193 14.24c-6.403.74-36.964-7.9-33.716-4.548 12.297 12.695 22.524 20.921 30.474 32.488 17.24-3.448 31.033-11.33 47.288-11.822 4.926 21.18 10.838 46.795 19.704 58.617l-14.012 14.623-108.395-4.287c-.462 8.468 20.44 32.027 32.263 34.982 7.389 1.97 17.24-2.955 28.57-4.926 62.066-11.329 166.002-17.733 245.31-20.196 58.653 4.022 69.837 3.799 84.992.556zm3.058 191.676c-10.837-3.447-13.793-14.778-16.749-22.166-18.004-16.028-30.91-32.14-30.91-24.752-.494 26.599-1.903 49.75-23.358 56.35 7.997 4.8-1.467 12.705-3.437 13.198-74.856-.262-98.2-5.614-120.858-25.318 0-8.374 10.713-16.645 15.146-20.586 36.944 0 63.543-3.447 85.218-1.477 3.448-3.447-9.236-19.888-1.354-18.902 12.314-22.167 6.958-39.532 18.287-68.101 10.344-3.941 15.084-7.08 23.442-9.968 6.896-8.867-11.188-18.417-10.203-28.761-20.689-4.433-36.452-10.482-61.08-10.482-65.515.493-112.744 5.064-170.87 12.945-3.448 9.852-14.285 4.433-16.748 6.897-9.852 15.763 1.786 16.871 6.712 32.635 7.882 25.614 0 53.2 6.404 75.366 11.822 5.418 16.255 18.719 27.092 25.122 10.837-6.403 16.748-7.389 33.004-6.897 3.447-6.896 16.255-6.403 23.151-7.388.985 9.852-2.955 36.451 10.344 40.885-1.97 5.911 6.897 16.256 11.823 13.3 0 0-5.418-3.448-1.478-4.926 3.448 7.388 13.793 4.926 9.852 11.822 43.348 14.778 122.162 17.24 162.062 8.374 4.926-.985 19.21-2.956 19.704-13.3 12.808-1.97-1.6-.863 3.327-7.266-3.941-9.852 2.462-15.27 1.477-26.6zM694.699 448.117c3.448 18.225-13.793 45.81-8.373 65.022-7.583 9.096-1.604 13.172-18.945 15.158s-58.003 1.882-71.796 2.622c-7.388-20.689-35.786-53.182-12.702-70.98 32.51-9.359 95.562-10.837 111.817-11.822zm41.377 140.388c.494 36.451-4.926 67.484-9.852 99.01l-2.263 6.376s-52.909-2.916-63.993-2.424c.247-4.926 1.14-34.915 1.14-34.915l6.498-5.983c17.24-5.418 16.738-2.582 29.11-3.497-2.462-5.418-10.71-10.13-16.935-13.984-7.679-4.754-10.962-7.067-24.755-11.007.247-3.941-.81-18.296 1.842-24.228s9.014-3.438 5.812-5.902c20.196-5.418 45.318-2.955 73.395-3.447zM632.633 622c-7.389 2.709 6.694 7.727-6.128 11.267s-52.55 5.603-59.2 6.095c-.986-4.187-6.573-15.484-5.51-22.042s8.772-8.373 7.295-12.068c15.27-7.881 41.87-11.822 57.14-10.344 6.404 7.882 5.912 16.749 6.404 27.093zm0 32.018c0 10.837.985 22.66-1.478 31.525-6.157.492-.4 3.683-8.445 9.614-9.526 7.02-43.827 1.539-51.216.8-.985-6.403-2.236-20.738.18-28.022s8.499-7.514 8.252-10.962c13.793-.986 40.392-3.941 52.707-2.956z"/>
    <path fill="#fff" d="M484.333 561.74c6.128 1.216 10.719-2.721 10.313-6.312s-5.812-6.839-11.941-8.058-12.982-.405-12.574 3.189 8.075 9.965 14.203 11.181zm24.953-94.953c4.983-1.514 10.136-11.019 10.678-15.676s-3.531-4.465-8.516-2.953-10.881 4.346-11.42 9.004 4.275 11.138 9.258 9.624zm48.484 236.65c-2.203-4.177 5.823-5.795 12.039-2.427s10.62 11.719 6.608 12.528-16.444-5.923-18.647-10.1zm61.973-321.282c1.006-3.696 12.492-4.304 20.699-2.637s13.132 5.608 12.125 9.301-7.945 7.142-16.15 5.477-17.68-8.446-16.674-12.141m28.222 368.076c.039-2.171 2.454-3.712 5.045-3.099s5.356 3.378 5.315 5.546-2.885 3.74-5.474 3.13-4.925-3.407-4.886-5.577"/>
</svg>
