<svg xmlns="http://www.w3.org/2000/svg" xmlns:xlink="http://www.w3.org/1999/xlink" width="498.898" height="544.252" viewBox="0 0 1320 1440">
    <defs>
        <linearGradient id="0KY_svg__a" x1="-1430.769" x2="-1409.955" y1="-77.47" y2="-77.47" gradientUnits="userSpaceOnUse" spreadMethod="reflect">
            <stop offset="0" stop-color="#ffd285"/>
            <stop offset=".232" stop-color="#ffcd79"/>
            <stop offset=".616" stop-color="#ffca73"/>
            <stop offset=".808" stop-color="#ffd386"/>
            <stop offset="1" stop-color="#ffc86e"/>
        </linearGradient>
        <linearGradient id="0KY_svg__b" x1="-899.903" x2="-899.906" y1="-319.311" y2="125.211" gradientUnits="userSpaceOnUse">
            <stop offset=".598" stop-color="#fff"/>
            <stop offset="1"/>
        </linearGradient>
        <clipPath id="0KY_svg__c">
            <path stroke-width="16.454" d="M656.249 788.52a11.1 11.1 0 0 0-11.121 11.126v11.436l-23.663 42.276c-2.128 3.803-2.128 9.928 0 13.73h23.663v333.369a11.1 11.1 0 0 0 11.121 11.126h7.498a11.104 11.104 0 0 0 11.126-11.126V867.089h23.657c2.128-3.803 2.128-9.928 0-13.73l-23.657-42.271v-11.441a11.104 11.104 0 0 0-11.126-11.126H660z"/>
        </clipPath>
        <path id="0KY_svg__d" d="M575.315 663.409c4.312 1.091 9.314-1.943 7.505-4.553s-10.434-4.796-12.936-3.277 1.12 6.739 5.431 7.83"/>
    </defs>
    <path d="m1107.176 1348.302-56.54 70.558h-913.03l-20.225-18.874L321.87 430.64l63.084-35.292z" opacity=".5"/>
    <path fill="url(#0KY_svg__a)" d="m-1215.568-283.246-145.942 38.045-83.762 462.487 6.639 36.814 10.024 8.338h426.077l10.024-8.338 6.639-36.814-83.759-462.487z" transform="translate(3097.382 831.934)scale(2.0051)"/>
    <path fill="url(#0KY_svg__b)" d="m-899.903-323.401-145.942 37.996-83.762 462.487 6.639 36.814 10.024 8.338h426.077l10.024-8.338 6.639-36.814-83.759-462.487z" opacity=".25" style="mix-blend-mode:overlay" transform="translate(2464.43 912.55)scale(2.0051)"/>
    <path fill="#fff" d="m1099.875 1262.57-.043 21.064 20.75-16.013z" opacity=".8"/>
    <path d="m1120.582 1267.622-20.75 16.013-12.661 74.524 20.099-16.719z" opacity=".6"/>
    <g fill="#fff">
        <path d="m367.372 340.273 17.664 13.248 274.969-73.032v-16.402zm585.261 0-17.664 13.248-274.964-73.032v-16.402z" opacity=".3"/>
        <path d="m952.633 340.273-17.664 13.248 164.905 909.049 20.707 5.052z" opacity=".3"/>
    </g>
    <path d="m367.372 340.273 17.664 13.248-164.91 909.049-20.707 5.052z" opacity=".4"/>
    <path d="m199.418 1267.622 20.75 16.013 12.661 74.524-20.099-16.719z" opacity=".9"/>
    <path d="m220.126 1262.57.043 21.064-20.75-16.013z" opacity=".6"/>
    <path d="M220.126 1262.57h879.749l-.043 21.064H220.168l-.043-21.064z" opacity=".2"/>
    <path d="m1099.832 1283.634-12.661 74.524H232.829l-12.661-74.524h879.663z" opacity=".7"/>
    <path d="M873.221 680.126c-14.568-38.848-59.155-55.623-90.498-71.957-31.785-16.334-63.128-46.794-91.38-71.957 56.064-5.297 84.759.442 135.967-1.324-11.036-22.514-45.028-31.784-67.542-33.109-1.324 2.649-3.09 4.414-4.415 7.946-30.019-7.946-56.947 9.712-78.137-1.766 2.207-8.829 3.09-18.541 4.415-28.253-4.856-6.622-9.712-12.802-13.244-20.307 11.919-7.063 54.299-7.063 76.371-23.397 1.766-33.992-45.911-30.46-76.371-28.253-.442 9.271 7.505 9.712 10.595 15.451-16.775 8.388-35.316 11.919-56.506 20.307-11.036 4.415-37.082 12.802-31.785 17.217-7.946-4.415-29.577 4.856-30.902 9.712 6.622-3.532 14.126-1.324 10.595 4.415 18.1 11.036 41.055 4.415 65.776-3.09 6.18 11.919 3.09 25.163 6.18 41.055-44.145 7.063-110.363 14.126-145.237 9.27 1.766 22.955 24.721 33.992 47.235 40.614 16.334-12.802 50.767-15.451 75.047-15.451-52.091 54.299-104.624 107.273-172.608 145.238 25.163 4.414 38.848 4.414 54.74-3.09 19.424-8.829 40.172-24.28 56.947-37.523 25.604 19.865 10.595 79.02 24.28 116.102-3.532-.442-5.739 0-7.505 1.324 4.856 8.388 30.019 24.721 36.64 23.397 3.532-.442 8.388-7.946 11.919-9.27 25.163-9.27 60.92-3.09 90.056-4.856 4.415 5.297 10.595 8.829 15.892 12.802 6.18-1.324 9.271-2.207 15.009 0 22.514-28.253 11.919-90.056 36.64-115.66 25.163 18.541 63.128 22.514 91.822 4.414zm-135.967-56.064c-6.18 2.649-17.658 3.973-18.541 7.505-7.946-4.856-30.46-3.532-44.587-1.324.442-28.694-.442-47.235 3.09-72.398 25.163 16.334 42.379 41.938 60.037 66.218zm-91.822 7.505c-18.541 1.324-47.235 4.415-70.191 6.18 12.361-25.604 47.677-45.028 64.01-67.101h4.856c2.649 17.217 1.766 45.911 1.324 60.92zm80.786 20.307c6.622 31.784-.883 71.957-7.505 103.3-30.902-3.09-65.776 3.532-105.507 3.532-4.415-15.892-2.649-14.126-4.415-34.433 33.55-12.361 76.813-5.739 111.246-16.334-10.153-8.388-22.956-13.244-34.875-19.865-26.046 6.18-49.001 7.063-79.461 9.27-3.973-8.829 2.649-23.838-4.415-34.433 39.731-10.153 79.903-11.919 124.931-11.036z"/>
    <path fill="#29303d" d="M855.72 688.683c-14.57-38.848-41.678-44.232-73.02-60.565-31.785-16.334-105.507-69.78-91.381-91.412 56.064-5.297 67.817.782 119.026-.984-20.413-19.386-18.674-21.457-41.187-22.781-1.324 2.648-3.09 4.415-4.415 7.946-30.018-7.946-78.912 7.83-100.101-3.649 2.207-8.83-5.99-27.327-4.666-37.038l8.387-20.307c11.919-7.064 32.774-7.91 60.623-15.19 1.766-33.992-53.119-26.748-50.028-21.009-16.776 8.387-35.317 11.919-56.506 20.307-11.037 4.415-37.081 12.802-31.785 17.217-7.946-4.415-29.577 4.856-30.901 9.711 6.622-3.531 14.126-1.324 10.594 4.415 18.1 11.037 41.055 4.415 65.776-3.09 6.18 11.918 3.09 25.162 6.18 41.055-3.355 27.144-104.523 30.555-139.397 25.699 10.941 10.684 18.88 17.563 41.394 24.185 16.333-12.801 50.767-15.45 75.046-15.45-52.09 54.298-104.624 107.274-172.608 145.238 25.163 4.415 38.848 4.415 54.74-3.09 19.424-8.83 40.172-24.28 56.948-37.524 25.604 19.865 10.595 79.02 24.28 116.102-3.532-.441-2.317 4.221-4.083 5.545 4.855 8.388 26.596 20.5 33.218 19.175 3.532-.44 8.387-7.946 11.919-9.27 25.163-9.27 60.92-3.09 90.057-4.856 4.414 5.298 10.594 8.83 15.892 12.802 6.18-1.324 9.27-2.207 15.01 0 22.514-28.253 11.918-90.057 36.64-115.66 25.163 18.54 40.166 15.656 74.344 12.477zm-118.49-64.127c-5.113 5.345-12.333 12.626-13.216 16.158-7.947-4.856-46.454-3.4-60.58-1.192-1.92-30.11-11.147-68.844 13.757-81.184 25.163 16.333 42.38 41.938 60.038 66.218zm-91.822 7.505c-3.724 13.975-76.261 15.794-76.261 15.794l6.07-9.613c12.361-25.604 47.677-45.028 64.01-67.101h4.857c2.648 17.216 1.766 45.91 1.324 60.92m80.786 20.307c6.622 31.785-.883 71.957-7.505 103.3-5.642 14.795-74.511 12.474-114.242 12.474-4.415-15.893-6.11-33.156 4.32-43.376 33.55-12.36 67.5-2.845 99.714-13.44-10.154-8.387-15.417-7.484-27.337-14.106-26.046 6.18-56.766 5.732-87.227 7.94-3.972-8.83 2.191-31.988 7.345-41.755 39.731-10.154 79.903-11.919 124.931-11.037z"/>
    <path d="M656.485 817.83a10.406 10.406 0 0 0-10.426 10.431v10.721l-22.184 39.635c-1.995 3.565-1.995 9.308 0 12.873h22.184v312.784a10.406 10.406 0 0 0 10.426 10.431h7.03a10.41 10.41 0 0 0 10.431-10.431V891.49h22.179c1.995-3.565 1.995-9.308 0-12.873l-22.179-39.63v-10.726a10.41 10.41 0 0 0-10.431-10.431h-3.512z"/>
    <path fill="#29303d" d="M644.418 799.075a11.1 11.1 0 0 0-11.121 11.126v11.436l-23.663 42.276c-2.128 3.803-2.128 9.928 0 13.73h23.663v333.629a11.1 11.1 0 0 0 11.121 11.126h7.498a11.104 11.104 0 0 0 11.126-11.126V877.644h23.657c2.128-3.803 2.128-9.928 0-13.73l-23.657-42.271v-11.441a11.104 11.104 0 0 0-11.126-11.126h-3.747z" clip-path="url(#0KY_svg__c)" transform="translate(43.5 78.575)scale(.9375)"/>
    <g fill="#fff">
        <path d="M680.916 420.45c2.752 1.151 7.435-.448 7.026-2.401s-5.911-4.259-8.254-3.458-1.524 4.707 1.228 5.858z"/>
        <use xlink:href="#0KY_svg__d"/>
        <use xlink:href="#0KY_svg__d" x="17.835" y="116.1"/>
        <use xlink:href="#0KY_svg__d" x="151.31" y="120.379"/>
    </g>
</svg>
