<svg xmlns="http://www.w3.org/2000/svg" xmlns:xlink="http://www.w3.org/1999/xlink" width="498.898" height="544.252" viewBox="0 0 1320 1440">
    <defs>
        <linearGradient id="0KE_svg__b" x1="-1430.769" x2="-1409.955" y1="-77.47" y2="-77.47" gradientUnits="userSpaceOnUse" spreadMethod="reflect">
            <stop offset="0" stop-color="#ffd285"/>
            <stop offset=".232" stop-color="#ffcd79"/>
            <stop offset=".616" stop-color="#ffca73"/>
            <stop offset=".808" stop-color="#ffd386"/>
            <stop offset="1" stop-color="#ffc86e"/>
        </linearGradient>
        <linearGradient id="0KE_svg__c" x1="-1215.571" x2="-1215.572" y1="-296.329" y2="165.415" gradientUnits="userSpaceOnUse">
            <stop offset=".601" stop-color="#fff"/>
            <stop offset="1"/>
        </linearGradient>
        <path id="0KE_svg__a" d="m-1215.571-296.329-149.881 40.669-79.82 472.51 6.639 36.814 10.024 8.338h426.077l10.024-8.338 6.639-36.814-79.82-472.51z"/>
    </defs>
    <path d="m1107.176 1347.43-56.54 70.557h-913.03l-20.225-18.874 196.586-989.44 63.084-35.292z" opacity=".5"/>
    <use xlink:href="#0KE_svg__a" fill="url(#0KE_svg__b)" transform="translate(3097.382 831.934)scale(2.0051)"/>
    <use xlink:href="#0KE_svg__a" x="315.666" y="-40.204" fill="url(#0KE_svg__c)" opacity=".25" style="mix-blend-mode:overlay" transform="translate(2464.43 912.55)scale(2.0051)"/>
    <path fill="#fff" d="m1099.874 1261.697-.043 21.064 20.75-16.013z" opacity=".8"/>
    <path d="m1120.582 1266.748-20.75 16.013-12.661 74.524 20.099-16.719z" opacity=".6"/>
    <g fill="#fff">
        <path d="m359.469 319.303 17.664 13.248L660 254.157v-16.402zm601.062 0-17.664 13.248L660 254.157v-16.402z" opacity=".3"/>
        <path d="m960.531 319.303-17.664 13.248 157.007 929.146 20.707 5.052z" opacity=".3"/>
    </g>
    <path d="m359.469 319.303 17.664 13.248-157.007 929.146-20.707 5.052z" opacity=".4"/>
    <path d="m199.419 1266.748 20.75 16.013 12.661 74.524-20.099-16.719z" opacity=".9"/>
    <path d="m220.126 1261.697.043 21.064-20.75-16.013z" opacity=".6"/>
    <path d="M220.126 1261.697h879.749l-.043 21.064H220.169z" opacity=".2"/>
    <path d="m1099.831 1282.761-12.661 74.524H232.829l-12.661-74.524z" opacity=".7"/>
    <path d="M878.231 750.287c-16.593-23.769-42.604-33.186-70.409-38.119-8.072 16.593-44.846 13.005-62.336 9.866 4.036-18.387 2.691-38.119 4.485-53.815 23.768-5.382 47.985-2.242 72.202.449 8.072-5.83 22.872 1.794 25.114-12.108-13.005-13.454-32.289-19.284-51.573-25.562-12.108 10.315-29.599 11.66-45.295 7.175 3.588-15.696 4.933-25.114-2.242-37.671 31.392-4.485 73.548-2.242 104.94-7.175 5.382-.897 4.485-6.727 3.139-10.315-13.902-9.866-33.635-26.011-52.47-24.217-6.727.897-12.109 9.418-19.284 10.763-13.902 2.691-26.459 3.588-39.913 2.242.897-15.248-1.794-28.702 2.242-45.743 38.568-7.175 71.754.449 97.316-12.557-3.588-26.011-43.949-37.671-57.852-21.526-11.66 1.794-23.769 4.036-38.119 1.794 2.691-24.217 6.278-36.325 7.624-58.749-13.005-16.145-40.362-47.986-63.233-37.222 2.691 9.866 12.557 24.665 18.387 36.325 2.242 16.593 3.588 43.949 3.139 61.888-12.109 1.794-29.15 3.588-46.64.449-17.042-3.139-36.325-18.387-43.949-4.036 9.418 19.284 16.145 36.325 37.222 43.949 18.835-7.175 36.774-8.521 52.919-8.521-.449 12.109 0 31.841 1.345 46.192-30.047 1.345-64.579 8.521-88.347-1.794-4.036-.897-8.969 3.139-13.005 6.727-14.799-9.866-26.908-21.078-22.423-45.743 12.557-4.036 25.562-7.624 37.222-12.557-.897-19.284-27.356-15.248-39.465-26.908 2.242-22.872 6.727-60.991.897-78.481-14.351-13.902-32.738-35.877-56.058-28.253 16.593 27.805 27.356 74.445 25.114 117.049-28.702 15.696-56.058 4.485-84.311-4.933-3.139-.449-5.382 4.036-4.485 9.866 12.108 17.49 22.423 37.222 43.501 43.949 11.66-7.175 27.356-14.351 40.362-8.969-9.418 30.047-87.899 126.915-112.564 147.096.897 8.072 16.593.449 24.217 13.005 34.532-19.284 69.063-75.79 94.626-103.595-.449 37.671 4.485 88.347-2.242 129.157-25.114-1.794-48.434-13.902-73.099-18.387 10.763 12.557 19.732 19.732 26.908 32.738 13.005 9.866 36.325 17.49 50.228 28.702 9.866 7.624 14.799 17.938 27.356 7.624 8.969-67.269-5.83-126.018-1.345-187.906 13.902 11.212 26.011 25.114 43.949 22.872-1.794-14.799-19.284-20.629-17.042-34.532 13.454 10.763 17.938 27.805 36.774 30.495 21.078 2.691 47.089-21.975 61.888.449 1.345 8.521 3.139 17.938 2.242 29.598-32.289 7.624-59.645 0-87.45.449 3.139 24.217 24.217 27.356 37.222 40.362 16.145-7.175 37.222-7.624 50.676-10.763.897 19.284.449 34.083 1.345 52.919-35.877.897-84.759 11.212-120.188 4.485 4.485 28.702 29.15 41.707 52.022 43.501 53.367-33.635 164.137-20.181 221.54-11.66 5.83.897 8.521-4.485 7.175-10.315z"/>
    <path fill="#29303d" d="M714.865 417.844s-14.422-10.376-17.638-8.862c2.69 9.865 7.9 13.477 13.729 25.138 2.242 16.593 3.587 43.945 3.139 61.883-6.055.897-1.884 9.288-9.916 12.162s-28.267.232-37.012-1.338c-17.042-3.14-30.571-17.517-38.196-3.166 9.417 19.284 10.68 25.08 31.757 32.703 18.836-7.175 36.775-8.52 52.918-8.52-.448 12.108.002 31.842 1.347 46.193-6.264 10.503 3.421 10.357-11.938 11.03s-50.4 5.157-62.284 0c-3.88-.863-22.714-9.995-26.657-6.52.221.076.365-.05.59.167.654.633 1.25 2 1.257 2.752 0 .038-.034.031-.036.066 12.735 10.786 17.442 27.1 35.832 29.727 21.078 2.69 47.091-21.976 61.89.447 1.346 8.52 3.137 17.942 2.24 29.602-2.085 9.354 3.534 14.475-10.816 13.579s-59.125-1.53-73.028-1.304c7.752 19.028 20.613 15.527 33.618 28.532 16.145-7.175 37.225-7.626 50.678-10.765.897 19.284.444 34.082 1.341 52.918-4.99 13.385-10.618 11.228-23.384 12.116-20.747 1.442-75.088 9.184-92.802 5.821 2.467 16.884 25.152 28.256 48.023 30.05 53.367-33.635 164.136-20.18 221.539-11.659 5.83.897.365-3.463-.98-9.293-16.594-23.768-37.503-22.385-65.308-27.318-8.072 16.594-50.582 9.536-68.071 6.397 2.018-9.193-.003-24.072 2.588-35.355s-2.03-15.095 10.69-26.815c23.768-5.382 47.985-2.238 72.202.453 8.072-5.83 11.861 1.791 14.103-12.111-13.005-13.454-24.951-8.89-44.234-15.169-12.108 10.314-37.359 8.302-53.054 3.818 1.794-7.848 3.03-22.612 5.774-30.258s-4.824-12.044 3.41-14.45c31.392-4.484 73.551-2.24 104.943-7.173 5.381-.896-4.595-4.666-5.94-8.254-13.903-9.865-16.775-15.967-35.61-14.173-6.727.897-13.838 2.645-21.013 3.99-13.903 2.691-40.866 7.486-54.32 6.14.448-7.623.458-35.245 2.49-44.953s2.898-7.546 8.108-10.019c38.567-7.175 64.035 3.705 89.597-9.3-3.587-26.011-37.01-31.756-50.912-15.61-11.66 1.793-33.096 4.19-47.447 1.947 2.69-24.216 3.016-38.814 4.361-61.237-11.176-13.874-27.57-24.007-27.57-24.007zm-162.76-14.958c-2.596.005-5.713.566-9.538 1.816 9.759 30.484 18.608 56.77 16.366 99.373-1.115 13.776-21.538 17.904-37.275 19.248-3.14-.448-52.421-20.145-51.524-14.315 12.107 17.49 22.422 37.226 43.5 43.953 11.659-7.175 27.354-14.354 40.36-8.972-9.417 30.047-87.897 126.917-112.563 147.097.897 8.072 16.592.448 24.216 13.004 34.53-19.284 69.063-75.792 94.625-103.596-.448 37.67 4.487 88.35-2.24 129.16-3.545 5.478-5.165 5.8-9.23 8.203-7.931 4.69-40.084-11.794-52.417-14.038 10.763 12.557 8.278 7.18 15.455 20.185 13.004 9.865 36.329 17.49 50.232 28.702 9.865 7.624 14.798 17.934 27.356 7.619-15.738-7.477-16.03-124.588-12.84-155.319.534-5.14-.502-7.882 11.493-32.584 13.903 11.211 26.009 25.113 43.947 22.87-22.032-8.287-24.239-33.198-24.877-34.612-15.204-9.875-45.047-27.045-15.93-47.454 12.556-4.036 25.56-7.625 37.22-12.558-18.909-3.8-38.785-3.817-50.893-15.477 2.242-22.872 5.407-58.787-.423-76.276-11.996-11.622-11.79-26.058-25.02-26.027z"/>
    <path d="M487.646 811.135c23.06 18.184 46.121 36.363 74.845 102.574s63.119 180.449 97.511 294.687c-22.872-115.362-37.104-252.803-65.83-319.016s-71.946-61.188-106.526-78.245m172.357 397.261c34.392-114.237 68.782-228.476 97.506-294.687s51.786-84.39 74.845-102.574c-34.58 17.057-77.795 12.031-106.521 78.245s-42.958 203.655-65.83 319.016"/>
    <path fill="#29303d" d="M487.64 811.125c23.06 18.183 46.12 36.363 74.844 102.573s63.118 180.447 97.51 294.683c-22.872-115.36-57.012-241.518-85.739-307.73s-52.035-72.47-86.615-89.526m172.354 397.256c34.391-114.236 58.494-228.806 87.219-295.015s7.337-90.21-21.39-23.997-42.957 203.651-65.829 319.012"/>
    <path fill="#fff" d="M513.036 543.713c4.608 1.826 8.622-.309 6.021-3.203s-11.818-6.548-13.825-5.48 3.196 6.857 7.804 8.683m102.955 205.931c5.131 1 10.711-2.857 8.371-5.787s-12.604-4.934-15.394-3.004 1.893 7.79 7.023 8.791m-92.26-7.147c3.862-1.173 7.576-5.993 5.57-7.232s-9.734 1.106-11.59 3.517 2.158 4.887 6.02 3.714z"/>
</svg>
