<svg xmlns="http://www.w3.org/2000/svg" width="498.898" height="544.252" viewBox="0 0 1320 1440">
    <defs>
        <linearGradient id="0FU_svg__a" x1="228.547" x2="270.281" y1="805.755" y2="805.755" gradientUnits="userSpaceOnUse" spreadMethod="reflect">
            <stop offset="0" stop-color="#ffd285"/>
            <stop offset=".232" stop-color="#ffcd79"/>
            <stop offset=".616" stop-color="#ffca73"/>
            <stop offset=".808" stop-color="#ffd386"/>
            <stop offset="1" stop-color="#ffc86e"/>
        </linearGradient>
        <linearGradient id="0FU_svg__b" x1="660.031" x2="660.029" y1="318.746" y2="1292.766" gradientUnits="userSpaceOnUse">
            <stop offset=".596" stop-color="#fff"/>
            <stop offset="1"/>
        </linearGradient>
        <clipPath id="0FU_svg__c">
            <path stroke-width="1.534" d="M1799.134-1180.993h4.879a7.223 7.223 0 0 1 7.239 7.239v123.263a7.223 7.223 0 0 1-7.239 7.239h-4.879a7.223 7.223 0 0 1-7.239-7.239v-123.263a7.223 7.223 0 0 1 7.239-7.239"/>
        </clipPath>
    </defs>
    <path d="m1076.635 1357.441-46.356 69.884h-874.72l-26.637-22.586 197.91-919.934 63.084-35.291z" opacity=".5"/>
    <path fill="url(#0FU_svg__a)" d="m660.043 318.747-287.664 75.701-142.368 882.306 13.312 80.689 20.099 16.718h793.244l20.099-16.718 13.312-80.689-142.368-882.306z"/>
    <path fill="url(#0FU_svg__b)" d="m660.031 318.746-287.664 75.701L230 1283.627l13.312 73.816 20.099 16.718h793.244l20.099-16.718 13.312-73.816-142.37-889.18z" opacity=".25" style="mix-blend-mode:overlay"/>
    <path fill="#fff" d="m1069.332 1271.707-.043 21.064 20.75-16.013z" opacity=".8"/>
    <path d="m1090.039 1276.759-20.75 16.013-12.661 81.397 20.099-16.719z" opacity=".6"/>
    <g fill="#fff">
        <path d="m372.331 394.437 17.664 13.248L660 335.137v-16.402zm575.338 0-17.664 13.248L660 335.137v-16.402z" opacity=".3"/>
        <path d="m947.669 394.437-17.664 13.248 139.327 864.022 20.707 5.052z" opacity=".3"/>
    </g>
    <path d="m372.331 394.437 17.664 13.248-139.327 864.022-20.707 5.052z" opacity=".4"/>
    <path d="m229.96 1276.759 20.75 16.013 12.661 81.397-20.099-16.719z" opacity=".9"/>
    <path d="m250.668 1271.707.043 21.064-20.75-16.013z" opacity=".6"/>
    <path d="M250.668 1271.707h818.665l-.043 21.064H250.71z" opacity=".2"/>
    <path d="m1069.289 1292.771-12.661 81.397H263.371l-12.661-81.397z" opacity=".7"/>
    <path d="M656.554 1106.744h7.03a10.406 10.406 0 0 0 10.429-10.429V918.73a10.406 10.406 0 0 0-10.429-10.429h-7.03a10.406 10.406 0 0 0-10.429 10.429v177.585a10.406 10.406 0 0 0 10.429 10.429"/>
    <path fill="#29303d" d="M1789.477-1189.927h4.879a7.223 7.223 0 0 1 7.239 7.239v123.263a7.223 7.223 0 0 1-7.239 7.239h-4.879a7.223 7.223 0 0 1-7.239-7.239v-123.263a7.223 7.223 0 0 1 7.239-7.239" clip-path="url(#0FU_svg__c)" transform="matrix(1.4407 0 0 -1.4407 -1935.458 -594.713)"/>
    <path d="M812.322 685.102c-16.912-29.597-53.276-47.356-93.02-48.624v4.65c29.597 24.947 48.202 61.731 87.523 71.88 4.651-5.075 10.148-16.068 5.497-27.906m13.953-92.597c-16.49-12.262-41.437-16.49-67.229-19.45-22.832 12.685-65.96 7.611-87.523 8.457 3.805-8.033 3.805-20.295 5.496-30.866 35.517-8.033 73.993-2.96 92.174-21.986-26.214-16.49-62.155-14.376-92.597-7.188 3.382-19.026 8.033-31.711-2.114-43.973-12.685-1.691-26.214-16.49-42.704-16.913-6.342 0-10.148 2.537-16.913 1.691 2.959 16.068 15.222 28.33 26.638 39.322-.846 9.724 3.804 13.953 3.382 23.255-5.92.423-10.993 1.268-19.872 1.691 4.65 6.766 13.953 12.262 19.872 14.376-1.268 15.222 2.537 31.289-3.805 43.974-22.41.423-40.167 6.765-60.463 2.537-4.228-15.644.424-37.208-9.724-49.47-9.725-11.416-43.55-18.603-53.276-15.644 7.188 14.376 15.644 27.484 29.175 35.094l6.765 36.363c-12.685-.846-21.564 1.691-27.06 7.61-5.074-.423-5.074-5.919-9.302-7.187-8.457 5.92-13.953-3.382-24.523-.845 4.65 19.026 30.02 29.174 46.087 41.858 25.368-19.872 62.154-19.872 102.745-22.41 8.033 28.33 11.416 63 1.691 86.678-16.068.423-29.175-2.537-42.704-8.033 7.61 24.1 25.369 53.698 58.348 52.006-.423 1.692-.422 1.268-4.65 1.268-18.604 17.76-42.705 30.443-61.31 48.202 3.806 3.383-4.227 6.342-7.187 7.187-.423-5.074-12.261 4.229-18.18 7.611-2.114 1.692-12.262 9.725-10.571 5.92-17.336 1.691-29.597 16.913-45.241 18.603-.424 6.766 6.342 3.383 6.342 8.457 5.496-.423 8.456 1.691 13.53 4.228 0 0-5.496-.423-5.92 1.692 38.476 3.382 67.229-23.678 97.672-39.745 21.14-8.457 38.053-21.564 49.47-35.94 35.516-19.448 57.08-51.583 83.717-79.066-3.804-18.18-27.06-31.288-50.315-30.02-5.074 8.456 3.805 10.57 4.65 17.335-8.878 15.222-21.14 32.98-31.288 38.9-.845 5.496-1.269 14.376-8.878 17.759 10.993-22.41 6.341-47.779 6.341-73.993 0-14.376 1.268-29.175 7.188-43.55-5.074-2.537-9.724-5.074-12.261-10.148 43.127 1.268 91.329-6.342 122.617.846q14.588-4.44 30.443-7.611c4.228-1.268 1.268-5.496 1.268-8.879zm-230.436 82.872c-5.92-10.148-3.805-27.906-12.685-35.094-21.14 7.187-29.175 34.248-58.772 28.751-2.959 3.383-6.342 5.92-8.879 5.92 1.268 9.302-1.267 22.831-1.267 33.825s2.537 19.873 13.952 19.027c2.96 0 10.994-4.228 15.222-7.611 15.645-11.84 34.671-37.63 52.43-44.819z"/>
    <path fill="#29303d" d="M797.187 690.808c-11.787-12.667-10.975-13.897-42.885-37.098l-34.987-12.617c29.596 24.945 48.199 61.73 87.518 71.876 4.652-5.073-4.996-10.322-9.646-22.16m18.941-96.676c-16.489-12.26-36.08-7.627-61.87-10.587-22.832 12.684-72.703 6.503-94.266 7.347 1.902-4.016 6.36-33.589 6.36-33.589l10.683-6.69c35.515-8.034 59.414-3.488 81.286-14.205-26.214-16.49-62.161-10.524-92.602-3.337 3.382-19.026 4.11-27.03 5.528-38.83-12.684-1.69-16.797-16.488-33.288-16.911-6.343 0-9.473 2.557-16.238 1.712 2.959 16.066 8.381 11.534 19.797 22.527-.846 9.725 3.805 13.952 3.382 23.253-3.026 3.933-4.732 7.824-13.61 8.248 4.65 6.764 7.692 5.704 13.61 7.818-1.268 15.221 2.537 31.287-3.805 43.971-3.032 8.105-3.615 7.674-9.792 10.213-11.323 4.656-48.646 2.93-58.792.816-4.229-15.645.608-40.715-9.54-52.976-9.725-11.416-30.98-14.914-40.704-11.954 7.187 14.375 11.013 18.807 24.543 26.418l6.765 36.36-15.798 17.211c-5.073-.423-17.074-6.657-21.302-7.925-8.456 5.92-10.529-5.453-21.1-2.916 7.236 15.334 27.334 22.382 43.4 35.065 25.368-19.87 62.151-19.87 102.74-22.408 8.034 28.328 11.416 62.997 1.691 86.674-6.466 13.162-23.578 11.806-37.108 6.31 5.342 9.178 19.773 39.352 52.751 37.66-.423 1.692-.423 1.269-4.65 1.269-18.603 17.757-42.703 30.44-61.306 48.2 3.805 3.381-4.229 6.342-7.188 7.187-.423-5.074-12.26 4.228-18.18 7.61-2.114 1.691-12.26 9.725-10.57 5.92-17.335 1.69-29.596 16.912-45.239 18.603-.423 6.764 6.343 3.382 6.343 8.455 5.496-.423 8.455 1.691 13.53 4.229 0 0-5.496-.423-5.92 1.69 38.475 3.383 67.226-23.676 97.667-39.742 21.14-8.455 38.052-21.562 49.468-35.937 35.515-19.448 43.046-51.951 69.683-79.433-3.805-18.18-13.67-19.426-37.724-23.686 6.093 11.37 5.247 4.606 6.093 11.37-8.878 15.222-21.14 32.979-31.287 38.898-.846 5.496-1.268 14.375-8.878 17.757-5.624-1.546-3.311-60.072-2.335-95.406.463-16.734-3.705-24.347-3.705-24.347l7.31-7.933c43.125 1.268 91.323-6.342 122.61.847q14.588-4.44 30.441-7.611c4.229-1.268-8.885-3.835-8.885-7.218zm-228.965 86.015c-5.919-10.146-7.198-13.226-12.085-23.19-27.84 14.24-31.19 17.991-48.587 19.873-3.689.398-8.43-1.915-10.968-1.915 1.268 9.302-1.268 22.832-1.268 33.825s2.537 19.871 13.952 19.026c2.959 0 10.993-4.228 15.221-7.61 15.644-11.84 25.977-32.822 43.734-40.01z"/>
    <path fill="#fff" d="M639.762 496.34c5.55 2.817 15.458.375 14.865-3.664s-11.688-9.677-16.644-8.455-3.77 9.301 1.779 12.119m-13.487 229.361c2 1.508 5.29-2.708 4.938-6.323s-4.35-6.635-5.997-4.526-.94 9.342 1.06 10.85zm-97.873-2.333c4.862 1.9 9.936-.637 7.611-3.806s-12.05-6.975-14.586-5.706 2.113 7.612 6.975 9.512"/>
</svg>
