<svg xmlns="http://www.w3.org/2000/svg" width="498.898" height="544.252" viewBox="0 0 1320 1440">
    <defs>
        <linearGradient id="0HI_svg__a" x1="228.547" x2="270.281" y1="660.584" y2="660.584" gradientUnits="userSpaceOnUse" spreadMethod="reflect">
            <stop offset="0" stop-color="#ffd285"/>
            <stop offset=".232" stop-color="#ffcd79"/>
            <stop offset=".616" stop-color="#ffca73"/>
            <stop offset=".808" stop-color="#ffd386"/>
            <stop offset="1" stop-color="#ffc86e"/>
        </linearGradient>
        <linearGradient id="0HI_svg__b" x1="660.031" x2="660.029" y1="176.665" y2="1147.595" gradientUnits="userSpaceOnUse">
            <stop offset=".6" stop-color="#fff"/>
            <stop offset="1"/>
        </linearGradient>
        <clipPath id="0HI_svg__c">
            <path stroke-width="10.708" d="M1799.133 1043.254a7.22 7.22 0 0 0-7.237 7.237v7.442l-15.399 27.515c-1.385 2.475-1.385 6.457 0 8.932h15.399v76.939h-76.939v-15.399c-2.475-1.385-6.457-1.385-8.932 0l-27.518 15.399h-7.439a7.22 7.22 0 0 0-7.237 7.237v4.879c0 4.01 3.227 7.24 7.237 7.24h7.445l27.512 15.395c2.475 1.385 6.457 1.385 8.932 0v-15.395h76.939v76.936h-15.399c-1.385 2.475-1.385 6.46 0 8.935l15.399 27.515v7.439c0 4.01 3.227 7.24 7.237 7.24h4.88c4.01 0 7.24-3.23 7.24-7.24v-7.445l15.395-27.508c1.385-2.475 1.385-6.46 0-8.935h-15.395v-76.936h76.936v15.395c2.475 1.385 6.461 1.385 8.935 0l27.508-15.395h7.445c4.01 0 7.24-3.23 7.24-7.24v-4.88c0-4.01-3.23-7.237-7.24-7.237h-7.439l-27.515-15.399c-2.475-1.385-6.46-1.385-8.935 0v15.399h-76.936v-76.939h15.395c1.385-2.475 1.385-6.457 0-8.932l-15.395-27.508v-7.449c0-4.01-3.23-7.237-7.24-7.237zm2.438 137.74h.01v.01h-.01z"/>
        </clipPath>
    </defs>
    <path d="m1167.083 1341.428-49.031 69.972H80.26l-28.823-22.557L261.35 383.953l63.084-35.292z" opacity=".5"/>
    <path fill="url(#0HI_svg__a)" d="M660.043 176.664 306.898 293.591 139.681 1267.61l13.3 73.818 20.099 16.718h973.903l20.099-16.718 13.324-73.818-167.217-974.019z"/>
    <path fill="url(#0HI_svg__b)" d="M660.031 176.665 306.887 293.593 139.67 1267.612l13.312 73.816 20.099 16.718h973.903l20.099-16.718 13.312-73.816-167.217-974.019z" opacity=".25" style="mix-blend-mode:overlay"/>
    <path fill="#fff" d="m1159.664 1262.568-.043 21.064 20.75-16.013z" opacity=".8"/>
    <path d="m1180.371 1267.619-20.75 16.013-12.637 74.514 20.099-16.718z" opacity=".6"/>
    <g fill="#fff">
        <path d="m306.85 293.583 17.664 13.248L660 193.055v-16.402zm706.3 0-17.664 13.248L660 193.055v-16.402z" opacity=".3"/>
        <path d="m1013.15 293.583-17.664 13.248 164.177 955.737 20.707 5.052z" opacity=".3"/>
    </g>
    <path d="m306.85 293.583 17.664 13.248-164.177 955.737-20.707 5.052z" opacity=".4"/>
    <path d="m139.629 1267.619 20.75 16.013 12.702 74.514-20.099-16.718z" opacity=".9"/>
    <path d="m160.337 1262.568.043 21.064-20.75-16.013z" opacity=".6"/>
    <path d="M160.337 1262.568h999.327l-.043 21.064H160.379z" opacity=".2"/>
    <path d="m1159.621 1283.632-12.637 74.514H173.081l-12.702-74.514h999.241z" opacity=".7"/>
    <path d="M824.932 432.829c-3.48-11.932-26.846-21.378-44.744-18.892-10.44 17.4-28.835 27.343-41.761 42.755 16.903.994 47.23 2.983 68.11-2.486 13.423-3.48 21.875-8.452 18.395-21.378zm-31.818 76.562c5.966-7.954 5.469-18.395-.497-26.349-9.943-13.423-32.315-21.378-50.71-18.395l-3.48 2.983c7.457 22.869 27.841 43.252 54.687 41.761m36.789 125.283c-4.474-22.372-32.315-36.789-54.19-22.372 1.989 7.954-2.486 12.926-7.954 16.903-7.457 5.469-17.898 9.446-16.903 16.903 10.44-2.486 16.406 5.966 23.366 8.452 20.88-4.474 44.247-6.96 55.681-19.886m-32.315 46.732c-8.949-12.429-28.338-22.869-44.247-22.869-2.983 24.361 18.395 40.269 35.298 54.687 16.903-8.452 16.903-20.88 8.949-31.818m93.962 64.133c-.994-18.395-13.423-33.309-20.383-47.727-18.892-3.977-24.361-20.88-46.235-22.372.994 6.463 2.486 14.417 1.989 22.869-3.48 12.926-13.92 20.88-26.349 23.863-15.412 3.977-33.806.497-46.732-8.452-8.452-13.423-18.892-38.281-18.395-61.15 0-11.435 2.983-21.875 9.446-30.824 11.435-15.412 32.315-5.966 40.269-23.863-3.48-11.932-19.886-27.841-19.886-27.841 15.412 9.943 45.738 15.909 68.607 10.44 18.395-3.977 32.315-15.412 31.321-36.789-9.943-11.932-26.846-17.898-41.264-25.852-2.983-8.452-18.395-14.417-22.869-10.44 2.983 3.48 9.943 9.446 7.954 19.389-6.96 6.96-15.412 9.943-24.361 9.943-17.898 0-37.287-12.429-50.71-29.332-12.429-15.909-19.886-35.795-14.915-52.201 4.972-16.903 18.892-25.852 32.315-37.287 13.92-.497 30.326-10.937 36.292-23.863-17.898-23.863-55.184-25.852-85.511-34.304-3.977 3.977-4.972 9.446-7.457 14.417-37.784 2.486-76.562 12.926-111.363 11.932-26.349-.497-53.195-14.915-77.059-7.457 2.983 19.886 15.909 35.298 33.309 49.218 18.395-4.972 39.275-13.92 63.636-9.446-.994 4.972-6.463 5.469-5.966 11.932 17.4 39.275 17.898 88.493 17.898 139.7-11.932 1.491-31.818 2.486-46.235 4.474 2.486-17.898 3.977-32.812 0-44.744-3.48-11.435-11.932-19.389-27.841-24.361 9.943-9.943 24.361-24.361 37.784-35.795-.994-27.343-31.321-41.761-60.156-32.812.497 10.44 7.457 15.412 7.954 26.349-21.378 34.304-47.727 64.63-81.533 87.996 11.932 9.446 24.858 6.96 36.292.994 16.406-8.452 30.326-24.361 36.789-23.366 13.423 1.989 12.429 28.835 13.92 47.727-23.863 10.44-63.636 14.915-93.962 13.92-.994 5.966-11.435 3.977-9.446 12.429 9.446 17.898 22.869 22.372 38.281 21.875 19.886-.497 42.258-9.446 62.144-8.949-5.469 41.761-12.429 80.042-32.812 108.38-11.932 16.903-33.309 24.858-41.761 41.264 20.88 9.446 43.252 3.977 57.67-7.954 35.298-29.332 54.19-104.9 55.184-153.124 13.92-3.48 35.298-6.96 47.727-5.966-.497 31.818 4.972 100.922-10.937 147.158 10.44 12.429 15.412 45.241 43.252 40.269-.497-4.972 4.972-1.989 5.469-5.469-.497-74.573-5.469-122.3-.994-185.936 12.926-.497 32.812-2.486 46.235-.497 6.463 19.389 0 39.772.994 60.156 2.486 47.23 24.858 83.025 55.681 105.397 20.88 8.452 56.676 17.4 87.002 14.417 21.378-1.989 40.767-9.943 49.715-28.338zM747.874 563.083s-33.806-14.417-54.19-9.943c-7.954 9.446-24.36 16.406-42.755 11.435-.497-11.932-2.983-41.264-.497-60.653 1.491-12.926 10.937-23.366 11.435-33.806 1.989-26.846-26.846-41.761-57.173-52.201 24.361-8.949 52.698-11.435 83.025-8.452-5.469 24.858-2.983 49.218 3.48 71.093 10.44 34.304 32.315 63.636 56.676 82.528z"/>
    <path fill="#29303e" d="M814.356 435.087c-8.749-6.756-10.671-10.004-27.36-10.956-10.44 17.4-35.637 17.14-48.562 32.552 16.903.994 47.23 2.983 68.11-2.486 9.143-11.325 11.293-6.184 7.813-19.11zM793.12 509.38c5.966-7.955-.578-11.215-6.544-19.169-9.943-13.422-15.426-14.159-30.681-16.883l-17.462-5.708c7.457 22.869 27.84 43.252 54.686 41.76zm21.43 135.384c-4.474-22.372-4.863-15.906-27.116-24.161 1.988 7.954-14.2 4.612-19.669 8.59-7.457 5.467-17.897 9.445-16.902 16.902 10.44-2.486 16.405 5.966 23.366 8.451 20.88-4.474 23.234-4.726 40.321-9.784zm-27.159 39.652c-12.723-8.255-17.48-13.231-33.388-13.231-.185 19.759 17.74 27.608 34.643 42.026 16.903-8.452 6.7-17.857-1.253-28.795zm85.27 63.376c-.994-18.395-3.031-18.95-9.991-33.367-18.891-3.977-21.266-9.088-35.744-16.13-3.48 12.927-13.92 20.88-26.35 23.863-15.41 3.978-33.805.497-46.73-8.45-8.452-13.424-18.892-38.281-18.395-61.15 0-11.434 2.983-21.874 9.446-30.823 11.434-15.411 7.464-13.18 15.42-31.078-3.48-11.932 4.963-20.625 4.963-20.625 15.411 9.944 45.737 15.908 68.605 10.44 0 0 15.431-15.515 14.316-25.075-.967-8.286-17.08-18.294-17.08-18.294s-20.105-20.266-22.093-10.323c-6.96 6.96-15.411 9.944-24.36 9.944-17.897 0-37.286-12.429-50.71-29.331-12.428-15.909-19.885-35.795-14.913-52.201 4.972-16.903 18.891-25.852 32.314-37.286 13.92-.497 24.888-2.706 30.853-15.632-17.897-23.863-46.722-21.235-77.048-29.687-3.977 3.977-4.971 9.445-7.457 14.417-37.783 2.485-76.56 12.925-111.36 11.932-26.349-.497-53.194-14.914-77.058-7.457 8.557 14.46 12.885 22.45 30.285 36.37 18.395-4.971 39.275-13.92 63.635-9.445-.994 4.971-6.462 5.468-5.966 11.932 17.4 39.274 17.897 88.492 17.897 139.697-6.263 19.63-45.42 13.067-59.838 15.055 2.485-17.897 5.11-39.236 1.134-51.167-3.48-11.434-8.91-15.988-24.818-20.96-4.417-12.588 8.49-27.383 21.912-38.818-.994-27.342-27.38-21.934-26.882-10.997-21.378 34.303-47.726 64.63-81.532 87.995 11.932 9.446 24.857 6.96 36.291.994 16.406-8.451 30.326-24.36 36.79-23.366 13.422 1.989 12.428 28.835 13.919 47.726-7.614 27.444-55.7 27.384-86.025 26.39-.995 5.966-19.37-8.492-17.381-.041 9.445 17.897 22.868 22.372 38.28 21.874 19.886-.496 42.257-9.445 62.143-8.949-5.468 41.76-12.429 80.04-32.812 108.378-11.932 16.903-33.308 24.857-41.76 41.263 20.88 9.446 31.538-7.359 45.956-19.29 27.652-6.364 40.973-103.214 66.897-141.785 13.92-3.48 35.297-6.96 47.726-5.966-.498 31.817 4.972 100.92-10.938 147.154 10.44 12.43 15.412 45.241 43.252 40.27-.498-4.972-7.876-14.081-7.38-17.56 11.826-40.448-24.67-143.076 11.854-173.841 12.926-.497 32.812-2.486 46.235-.497 6.462 19.389 0 39.771.994 60.154 2.485 47.23 24.857 83.023 55.68 105.395 20.88 8.451 56.675 17.4 87 14.417 21.378-1.988 21.873-7.676 30.822-26.07zM747.88 563.072l-16.248 9.949c-17.04 0-82.205 11.017-91.276 0-.498-11.932-7.518-48.587-5.033-67.976 1.491-12.925 14.339-25.444 14.836-35.883-12.749-18.722-69.735-22.678-45.458-51.256 24.36-8.949 52.698-11.434 83.023-8.451-5.468 24.857-2.983 49.218 3.48 71.092 10.44 34.303 32.314 63.635 56.674 82.526z"/>
    <path d="M656.532 812.799a10.42 10.42 0 0 0-10.443 10.443v10.739l-22.22 39.704c-1.998 3.571-1.998 9.318 0 12.889h22.22v111.024H535.065v-22.22c-3.571-1.998-9.318-1.998-12.889 0l-39.709 22.22h-10.734a10.42 10.42 0 0 0-10.443 10.443v7.041a10.42 10.42 0 0 0 10.443 10.448h10.744l39.699 22.215c3.571 1.998 9.318 1.998 12.889 0v-22.215h111.024v111.019h-22.22c-1.998 3.571-1.998 9.323 0 12.893l22.22 39.704v10.734a10.42 10.42 0 0 0 10.443 10.448h7.041a10.427 10.427 0 0 0 10.448-10.448v-10.744l22.215-39.695c1.998-3.571 1.998-9.323 0-12.893h-22.215v-111.019H785.04v22.215c3.571 1.998 9.323 1.998 12.893 0l39.695-22.215h10.744a10.427 10.427 0 0 0 10.448-10.448v-7.041a10.42 10.42 0 0 0-10.448-10.443h-10.734l-39.704-22.22c-3.571-1.998-9.323-1.998-12.893 0v22.22h-111.02V886.574h22.215c1.998-3.571 1.998-9.318 0-12.889l-22.215-39.695v-10.748a10.42 10.42 0 0 0-10.448-10.443zm3.518 198.759h.014v.014h-.014z"/>
    <path fill="#29303d" d="M1792.246 1050.141a7.22 7.22 0 0 0-7.237 7.237v7.442l-15.399 27.515c-1.385 2.475-1.385 6.457 0 8.932h15.399v76.939h-76.939v-15.399c-2.475-1.385-6.457-1.385-8.932 0l-27.518 15.399h-7.439a7.22 7.22 0 0 0-7.237 7.237v4.879c0 4.01 3.227 7.24 7.237 7.24h7.445l27.512 15.395c2.475 1.385 6.457 1.385 8.932 0v-15.395h76.939v76.936h-15.399c-1.385 2.475-1.385 6.46 0 8.935l15.399 27.515v7.439c0 4.01 3.227 7.24 7.237 7.24h4.88c4.01 0 7.24-3.23 7.24-7.24v-7.445l15.395-27.508c1.385-2.475 1.385-6.46 0-8.935h-15.395v-76.936h76.936v15.395c2.475 1.385 6.461 1.385 8.935 0l27.508-15.395h7.445c4.01 0 7.24-3.23 7.24-7.24v-4.88c0-4.01-3.23-7.237-7.24-7.237h-7.439l-27.515-15.399c-2.475-1.385-6.46-1.385-8.935 0v15.399h-76.936v-76.939h15.395c1.385-2.475 1.385-6.457 0-8.932l-15.395-27.508v-7.449c0-4.01-3.23-7.237-7.24-7.237zm2.438 137.74h.01v.01h-.01z" clip-path="url(#0HI_svg__c)" transform="translate(-1939.618 -692.616)scale(1.443)"/>
    <path fill="#fff" d="M449.566 606.537c3.485 3.64 10.451 10.918 7.554 10.911s-15.657-7.299-19.14-10.939 2.31-3.626 5.206-3.619 2.896.007 6.38 3.647m26.454 157.642c2.217-2.566-2.974-8.362-7.788-8.693s-9.247 4.804-6.65 7.702 12.221 3.558 14.437.991zm138.47-16.878c-1.667-5.809 6.96-9.855 12.939-6.069s9.31 15.402 4.998 17.425-16.27-5.547-17.936-11.356zM761.8 480.489c4.32-1.522 14.547 4.106 15.341 8.44s-7.843 7.375-12.957 4.563-6.704-11.481-2.384-13.003m-10.322 272.406c2.963 0 2.571-6.567-.589-9.851s-9.089-3.285-8.893 0 6.518 9.851 9.482 9.851m31.181-51.472c5.564 2.205 5.146-7.393.082-14.118s-17.61-11.696-17.401-6.896 11.756 18.808 17.32 21.014zm-2.823-57.787c2.816-2.816.662-11.268-3.233-12.678s-9.529 4.224-8.45 8.451 8.867 7.044 11.683 4.227"/>
</svg>
