<svg xmlns="http://www.w3.org/2000/svg" width="42mm" height="42mm" viewBox="0 0 42 42">
    <defs>
        <filter id="1NY_svg__a" width="1.108" height="1.114" x="-.036" y="-.032" color-interpolation-filters="sRGB">
            <feFlood flood-color="#000" flood-opacity=".851" result="flood"/>
            <feComposite in="flood" in2="SourceGraphic" operator="in" result="composite1"/>
            <feGaussianBlur in="composite1" result="blur" stdDeviation=".4"/>
            <feOffset dx="1" dy="1.5" result="offset"/>
            <feComposite in="SourceGraphic" in2="offset" result="composite2"/>
        </filter>
    </defs>
    <path fill="#ffe680" d="m248.344 224.76-2.763 26.975-10.573 3.06-10.392-2.567-3.266-27.465z" filter="url(#1NY_svg__a)" transform="translate(-214.347 -219.528)"/>
    <path fill="#d40000" d="M22.459 27.947c.007-.08-.137-.335-.326-.553-.365-.42-.392-.623-.153-.978.815-1.294 1.122-1.57.422-2.074-.461-.335-.576-.633-.229-.95.547-.575 1.352-1.137 1.81-1.597.685-.69 1.479-1.599 1.768-2.016.74-.966 1.353-2.1 1.471-3.253.06-.679.03-.855-.22-1.052-.239-.168-.76-.171-.983-.06-1.248.643-2.698 1.163-4.714 1.775l.042-.5 1.407-.728c1.223-.863 1.285-1.258.335-2.306-.488-.538-.799-.697-.664-.873.22-.315-.278-.73-.884-.783a2.17 2.17 0 0 1-1.15-.525l.747-.592c1.27-1.081.852-1.573-.73-.84-.695.4-1.98.31-2.523.894-.28.31.321 1.304 1.125 1.642.186.083.834.332.834.332-.558.27-1.698.93-1.793 1.607-.12.857.553 1.293 1.15 1.613.298.16.427.236.427.585.03.274-.161.952-.161.952s-.426.172-1.337.105a13 13 0 0 0-1.896-.038c-.988.06-2.025.426-2.059.812-.026.306.167.736 1.007.997.723.238 2.266.3 3.246-.01l.805-.283s-.044.42-.103.925c-.142 1.113-.27 1.328.62 1.527.306.08.923.377.923.377s-.42.384-.645.578c-.581.526-.753.847-.036 1.5.567.492 1.784.768 1.488.881-.32.153-1.774 1.28-1.756 2.08.025.39 1.184.795 1.996.866.228.023.548 0 .739-.037m-1.432-8.055c.088-.997.142-1.217.142-1.217 1.336-.618 2.483-1.255 3.776-1.84.996-.503 1.244-.027.528 1.236-.885 1.662-2.58 2.349-4.126 3.5-.534-.498-.366-1.144-.32-1.679m1.405-5.79c.444.35.628.404-.03.868-.332.234-.734.387-.942.479.013-.449.094-1.418.18-1.81.178.078.498.256.792.463"/>
</svg>
