<svg xmlns="http://www.w3.org/2000/svg" width="42mm" height="42mm" viewBox="0 0 42 42">
    <defs>
        <filter id="1KA_svg__a" width="1.096" height="1.104" x="-.031" y="-.029" color-interpolation-filters="sRGB">
            <feFlood flood-color="#000" flood-opacity=".851" result="flood"/>
            <feComposite in="flood" in2="SourceGraphic" operator="in" result="composite1"/>
            <feGaussianBlur in="composite1" result="blur" stdDeviation=".4"/>
            <feOffset dx="1" dy="1.5" result="offset"/>
            <feComposite in="SourceGraphic" in2="offset" result="composite2"/>
        </filter>
    </defs>
    <path fill="#ffe680" d="m106.852 216.01-11.835 3.247-11.832-2.78-3.566-30.04 30.493-.027z" filter="url(#1KA_svg__a)" transform="translate(-74.366 -182.584)"/>
    <path d="M29.47 22.433c-2.605 1.33-4.247 2.03-7.06 4.831l-3.47.356 3.548-4.386 3.756-.692c.655-.147.79-.428 1.127-1.5 1.131-3.648 1.792-7.716 1.831-9.71.003-1-.187-1.179-.589-1.709-.555-.451-1.782-.285-2 .054-.389.532-.5.933-.532 2.134-.04 1.147-.08 3.36-.08 3.36-.905-.227-1.14-.195-1.939-.163l-1.738.096v-1.276c0-1.035-.488-1.716-.82-1.825-.828-.203.941.312 1.747.52-1.694-.885-5.245-3.554-5.245-3.554-.633-.421-1.15-.998-1.78-1.135-.685-.106-2.658-.387-2.907 1.03l.011 12.666c.049.788.47.933 1.032 1.488a3.64 3.64 0 0 0 1.58.912c1.449.072 5.503-.524 5.503-.524l-4.965 3.238c-.818.775-.53 1.645-.228 1.93.558.524 2.805 1.06 3.347 1.009l1.98-.625s-.636.58-.324 1.032c.58.746 1.451 1.053 2.337 1.162-.145-.347.104-1.033.327-1.553 1.687-3.564 2.677-4.49 5.551-7.166m-12.69-.249c-.52-.303-.36-1.526-.373-1.86 1.153-.146 2.874-.298 3.834-.407.18.55.35.78.559 1.052.514.541 1.13.967 1.347.745.103-.16.15-.44.125-1.048-.013-.327-.047-.666-.023-1.02.596-.073 3.393-.537 3.672-.594.05.998-.075 1.47-.025 2.231zm3.24-5.283c.026.575.069 1.236.077 1.632-1.045.122-2.623.288-3.74.386-.013-.76.012-1.022-.013-1.694 1.25-.102 2.478-.234 3.676-.324m2.273-.294c1.161-.23 2.498-.352 3.726-.592a42 42 0 0 1-.093 2.312c-.883-.102-2.736-.096-3.669-.071-.005-.567.04-1.087.036-1.65m-5.987-3.29c.012-.712.006-1.409.105-2.932 0 0 2.38.876 4.404 1.472.62.152.127.14-.27.629-.277.357-.492.568-.552 1.283-.04.601-.05 1.23-.04 1.641-1.08.088-2.274.287-3.592.23.02-.209-.056-.273-.056-2.323z"/>
</svg>
