<svg xmlns="http://www.w3.org/2000/svg" width="42mm" height="42mm" viewBox="0 0 42 42">
    <defs>
        <filter id="1KI_svg__a" width="1.1" height="1.109" x="-.033" y="-.031" color-interpolation-filters="sRGB">
            <feFlood flood-color="#000" flood-opacity=".851" result="flood"/>
            <feComposite in="flood" in2="SourceGraphic" operator="in" result="composite1"/>
            <feGaussianBlur in="composite1" result="blur" stdDeviation=".4"/>
            <feOffset dx="1" dy="1.5" result="offset"/>
            <feComposite in="SourceGraphic" in2="offset" result="composite2"/>
        </filter>
    </defs>
    <path fill="#ffe680" d="M144.614 187.036s-.633 6.698-1.452 14.252c-.82 7.554-1.49 13.861-1.49 13.861l-11.407 3.187-11.212-2.674-3.507-28.619z" filter="url(#1KI_svg__a)" transform="translate(-109.58 -182.436)"/>
    <path d="M23.667 20.475c1.11-.237 1.385-.615.139-1.171-.338-.15-1.204-.175-1.903-.093.017-.427.04-.818.053-1.281.458-.102 1.424-.222 1.935-.362.929-.225 1.557-.54.6-1.051a4.57 4.57 0 0 0-2.487-.405c.028-1.407.063-2.738.06-4.113.527-.055.444-.05.678-.074-.151.092-.097.378-.102.52-.011.316 1.463 2.51 1.838 2.87.404.379 1.367-.047 1.654-.53.691-1.498-2.098-2.526-2.785-2.935.265-.033 1.259-.128 1.64-.215 3.875-.878 4.044-1.015 2.468-1.988-.753-.545-.943-.433-1.668-.214-1.28.226-1.806.237-5.69.53-1.809.126-2.977.01-3.949-.342-.604-.211-1.09-.09-1.725.157-2.371 1.937.67 2.63 1.183 2.656 1.324.062 2.252-.049 2.44-.06-.656.315-1.758.868-2.307 1.41-.348.353-.516.833-.446 1.552.242 1.084 1.17 1.138 1.785 1.068.503-.172.5-1.429 2.234-4.138.22-.024.332-.038.563-.065.01.765-.018 3.45.037 4.191-1.12.245-2.475.2-2.875.656-.44.42.058 1.263 1.052 1.389.314.04 1.534-.148 1.933-.208.014.783.01.967.205 1.235-.91.063-1.836.203-2.464.796-.414.39.232 1.248 1.593 1.09 1.324-.11 3.142-.634 4.312-.875z"/>
    <path d="M22.1 29.18c2.148-5.1 5.075-9.87 8.363-13.358-3.872 1.974-7.35 5.349-9.516 8.797-1.794-2.113-3.701-4.396-6.247-6.45-.776-.32-1.336-.277-2.142-.305-.92-.032-1.477-.102-1.486.331.01.922.237 1.362 2.52 2.558 4.2 3.112 5.592 4.166 6.532 5.434-.522.89.892 2.753 1.977 2.994"/>
</svg>
