<svg xmlns="http://www.w3.org/2000/svg" width="42mm" height="42mm" viewBox="0 0 42 42">
    <defs>
        <filter id="1OU_svg__a" width="1.092" height="1.1" x="-.03" y="-.028" color-interpolation-filters="sRGB">
            <feFlood flood-color="#000" flood-opacity=".851" result="flood"/>
            <feComposite in="flood" in2="SourceGraphic" operator="in" result="composite1"/>
            <feGaussianBlur in="composite1" result="blur" stdDeviation=".4"/>
            <feOffset dx="1" dy="1.5" result="offset"/>
            <feComposite in="SourceGraphic" in2="offset" result="composite2"/>
        </filter>
    </defs>
    <path fill="#ffe680" d="m37.368 217.028-12.356 3.382-12.352-2.896-3.723-31.294 31.834-.027z" filter="url(#1OU_svg__a)" transform="translate(-4.354 -183.051)"/>
    <path d="M19.488 28.765c.305-.131.99-.306 1.522-.415.513-.109 1.711-.349 2.662-.545.932-.175 2.072-.393 2.51-.48 1.084-.175 1.084-.677-.057-1.92-.99-1.114-1.407-1.201-2.548-.525-.419.262-1.046.48-1.389.502l-.608.022-.057-2.357c-.038-1.767 0-2.357.19-2.422.133-.044.704-.24 1.274-.437.552-.196 1.388-.349 1.845-.349.437 0 .874-.087.932-.218.133-.262-.666-1.659-1.218-2.095-.475-.393-1.863-.458-2.167-.11a.83.83 0 0 1-.552.24c-.285 0-.323-.261-.323-2.705 0-2.073.076-2.772.266-2.968.152-.153 1.236-.35 2.415-.458a63 63 0 0 0 4.355-.655c1.35-.284 2.472-.393 2.91-.306.627.153.684.11.684-.327 0-.545-1.122-1.877-1.845-2.204-.703-.306-1.635-.24-2.13.153-.608.502-2.928 1.178-3.955 1.178-.475 0-1.008.11-1.198.218-.209.131-1.768.306-3.48.437-2.624.153-3.27.153-4.05-.131-.533-.196-2.035-.393-3.442-.458-2.168-.11-2.586-.066-3.005.24-.76.567-.551 1.2.685 2.138.95.742 1.236.83 3.157 1.07 1.616.196 2.49.196 3.86 0 .97-.153 1.844-.175 1.94-.066.209.24.228 5.281.019 5.5-.286.283-1.712.654-2.473.654-.893 0-1.217.35-1.007 1.026.19.524 1.768 1.157 2.91 1.157.38 0 .74.109.798.218.076.13.19.894.247 1.68.114 1.31.19 1.462.704 1.79 1.198.742 1.045.807-2.89 1.505-1.18.197-2.226.48-2.359.633-.456.524-.038 1.31.913 1.68.97.372 3.061.437 3.955.11"/>
</svg>
