<svg xmlns="http://www.w3.org/2000/svg" width="42mm" height="42mm" viewBox="0 0 42 42">
    <defs>
        <filter id="1KY_svg__a" width="1.108" height="1.114" x="-.036" y="-.032" color-interpolation-filters="sRGB">
            <feFlood flood-color="#000" flood-opacity=".851" result="flood"/>
            <feComposite in="flood" in2="SourceGraphic" operator="in" result="composite1"/>
            <feGaussianBlur in="composite1" result="blur" stdDeviation=".4"/>
            <feOffset dx="1" dy="1.5" result="offset"/>
            <feComposite in="SourceGraphic" in2="offset" result="composite2"/>
        </filter>
    </defs>
    <path fill="#ffe680" d="m248.688 188.016-2.762 26.974-10.573 3.06-10.392-2.567-3.266-27.464z" filter="url(#1KY_svg__a)" transform="translate(-214.692 -182.783)"/>
    <path d="M25.335 24.418c-.992-.53-3.158-.892-4.009-.347l.023-1.981s4.135-.838 6.22-1.177c.963-.203.433-1.358-.872-1.826-.71-.253-.828-.108-1.322.202-.81.478-3.061.876-3.061.876 2.29-2.86 4.56-4.852 7.257-6.598-2.089.306-2.793.417-4.406 1.378-.215-1.801-.744-3.833-1.702-5.423-.292-.38-.901-.445-1.138-.203l-4.044.072c-.092-.362-1.039-.12-1.162.247a21 21 0 0 0-1.297 5.336c-.578-.692-.873-.856-1.424-1.045-.663-.233-1.2-.228-1.97-.218-.44.01-.92.075-1.118.41-.174.359-.086.84.31 1.053.375.202.661.32 1.244.494.241.067 2.592 1.686 2.72 1.803l3.748 2.965.004.213s-2.971.522-3.65.439c-1.993-.116-2.986.295-2.108 1.55.49.577.852.725 1.914.554 1.103-.215 3.816-.701 3.816-.701.027 1.627-.141 1.687.365 2.002-.536.22-2.134.503-2.746.72-.806.305-.777 1.978.199 2.224a104 104 0 0 1 8.21-3.019zm-4.38-7.508s2.376-.237 3.054-.457c-.45-1.117-2.822-1.176-6.056-1.106l.11-1.309 4.836-.158c.235 1.741.21 2.234.664 2.383-.647.66-2.24 2.215-2.24 2.215-.083-.736-.088-1.384-.368-1.568m-1.426.121c-.211.246-.106 1.614-.127 1.83-.28-.333-1.06-1.37-1.435-1.751.596-.05.95-.038 1.562-.079m-1.201-6.103 4.027-.1.308 1.489-4.466.126z"/>
</svg>
