<svg xmlns="http://www.w3.org/2000/svg" width="42mm" height="42mm" viewBox="0 0 42 42">
    <defs>
        <filter id="1FU_svg__a" width="1.12" height="1.117" x="-.04" y="-.033" color-interpolation-filters="sRGB">
            <feFlood flood-color="#000" flood-opacity=".851" result="flood"/>
            <feComposite in="flood" in2="SourceGraphic" operator="in" result="composite1"/>
            <feGaussianBlur in="composite1" result="blur" stdDeviation=".4"/>
            <feOffset dx="1" dy="1.5" result="offset"/>
            <feComposite in="SourceGraphic" in2="offset" result="composite2"/>
        </filter>
    </defs>
    <path fill="#ffe680" d="m282.599 188.595-2.485 26.138-9.495 2.969-9.332-2.491-2.928-26.614z" filter="url(#1FU_svg__a)" transform="translate(-249.979 -182.898)"/>
    <path d="M21.257 23.701c.015-1.406.04-1.882.067-2.703.507-.09 1.137-.278 1.624-.304.154 1.585-.59 3.02 1.279 3.169 0 0 .842.154 1.132-.025-.341-.547-.496-.548-.657-1.085.045-.906.049-1.597.015-2.509 1.441-.328 2.35-.802 3.759-.695.794.063.87-.218.285-.952-.345-.438-.868-.92-1.362-.92-.786.106-2.708 1.127-5.955 1.64-.028-1.379-.1-3.12-.095-3.967.908.61 1.205.948 2.084 1.635 0 0-.177.83-.093 1.42 2.103-1.327 2.725-2.575 2.556-3.611-.06-.36-.356-.617-.67-.773-.606-.127-.998-.236-1.295.18-.291.41-.35 1.445-.435 1.891-.732-1.135-1.651-2.525-2.575-2.898l.435-.39c.93-.844 1.214-1.078 1.544-1.265.705-.644 3.846-2.668 3.846-2.668-.227-.267-2.383.625-2.968.813-2.016 1.016-3.502 1.716-5.09 3.198-.375.359-.854.765-1.064.905-.566.66-1.163 1.08-1.653 1.685-.25-.261-.5-.306-.87-.293-.327.012-.656.287-.91.513-.223.256-.351.907-.154 1.217.465.562 1.192 1.244 1.905 1.544.611.258 1.818.423 2.697.354-.4-.614-1.267-1.107-1.523-1.81.62-.674 1.413-1.665 2.182-2.116.07 2.098-.047 2.903.212 4.78-1.502.26-3.04.4-4.48.466-1.648.078-1.963.14-2.098.375s-.161.975.139 1.24c.344.297.396.444 2.303.242l4.123-.575c.028.853.005 1.2.01 1.747-.448.13-1.717.348-1.957.395-.66.109-1.165.307-1.416.78-.06.633.826 1.222 1.168 1.02.572-.123 1.619-.357 2.162-.457.02.744.092 1.459.55 1.805.467.424 1.196.593 1.6.593.21 0 .21-.047-.015-.5-.486-.94-.356-2.238-.342-3.091"/>
</svg>
