<svg xmlns="http://www.w3.org/2000/svg" width="42mm" height="42mm" viewBox="0 0 42 42">
    <defs>
        <filter id="0NY_svg__a" width="1.108" height="1.114" x="-.036" y="-.032" color-interpolation-filters="sRGB">
            <feFlood flood-color="#000" flood-opacity=".851" result="flood"/>
            <feComposite in="flood" in2="SourceGraphic" operator="in" result="composite1"/>
            <feGaussianBlur in="composite1" result="blur" stdDeviation=".4"/>
            <feOffset dx="1" dy="1.5" result="offset"/>
            <feComposite in="SourceGraphic" in2="offset" result="composite2"/>
        </filter>
    </defs>
    <path fill="#ffe680" d="m221.203 182.588 2.762-26.974 10.573-3.06 10.392 2.567 3.266 27.464z" filter="url(#0NY_svg__a)" transform="translate(-214.2 -147.32)"/>
    <path fill="#d40000" d="M18.465 12.264c-.007.08.137.335.326.552.365.42.392.624.153.978-.815 1.295-1.122 1.571-.422 2.075.461.335.576.632.229.95-.547.575-1.352 1.136-1.81 1.596-.685.69-1.48 1.6-1.768 2.016-.74.967-1.353 2.1-1.471 3.254-.06.678-.03.855.22 1.051.239.169.76.172.983.061 1.248-.643 2.698-1.164 4.714-1.776l-.042.5-1.407.729c-1.223.862-1.285 1.257-.335 2.305.488.539.799.698.664.873-.22.316.278.73.884.784.47.073.806.233 1.15.524l-.747.592c-1.27 1.082-.852 1.574.73.841.694-.401 1.98-.31 2.523-.894.28-.311-.321-1.304-1.125-1.642-.186-.084-.834-.333-.834-.333.557-.269 1.698-.93 1.793-1.606.12-.857-.553-1.293-1.15-1.614-.298-.16-.427-.236-.427-.584-.03-.275.161-.952.161-.952s.426-.172 1.337-.106c.534.057 1.387.075 1.896.04.988-.062 2.025-.428 2.059-.813.026-.306-.167-.737-1.007-.998-.723-.237-2.266-.3-3.246.01l-.805.284s.044-.421.103-.925c.142-1.114.27-1.328-.621-1.527-.305-.08-.922-.378-.922-.378s.42-.383.645-.578c.581-.525.753-.847.036-1.5-.567-.491-1.784-.767-1.488-.88.32-.153 1.774-1.28 1.756-2.08-.025-.39-1.184-.796-1.996-.867a3 3 0 0 0-.739.038m1.432 8.055c-.088.997-.142 1.217-.142 1.217-1.336.618-2.483 1.255-3.776 1.84-.996.503-1.244.027-.528-1.236.885-1.662 2.58-2.35 4.126-3.5.534.497.366 1.144.32 1.679m-1.405 5.79c-.444-.35-.628-.405.03-.868.332-.234.734-.387.942-.48-.013.45-.094 1.419-.18 1.81a5 5 0 0 1-.792-.462"/>
</svg>
