<svg xmlns="http://www.w3.org/2000/svg" width="42mm" height="42mm" viewBox="0 0 42 42">
    <defs>
        <filter id="0TO_svg__a" width="1.12" height="1.117" x="-.04" y="-.033" color-interpolation-filters="sRGB">
            <feFlood flood-color="#000" flood-opacity=".851" result="flood"/>
            <feComposite in="flood" in2="SourceGraphic" operator="in" result="composite1"/>
            <feGaussianBlur in="composite1" result="blur" stdDeviation=".4"/>
            <feOffset dx="1" dy="1.5" result="offset"/>
            <feComposite in="SourceGraphic" in2="offset" result="composite2"/>
        </filter>
    </defs>
    <path fill="#ffe680" d="m257.82 181.922 2.485-26.138 9.494-2.969 9.332 2.491 2.928 26.614z" filter="url(#0TO_svg__a)" transform="translate(-249.44 -147.119)"/>
    <path fill="#d40000" d="M16.976 14.289c-.053.128.017.495.158.814.652 2.755 1.666 5.287 2.808 7.588 0 .08-.246.351-.545.623-.755.654-1.633 1.93-1.896 2.728-.456 1.467.477 3.394 2.496 4 1.094.28 2.635.116 3.67.184 1.409.057 1.897-.31 1.897-.917 0-.67-.348-1.502-1.981-1.502-1.253-.03-4.015 1.183-4.528-.373-.228-1.037-.192-1.607 4.464-4.757.62-.445 1.262-.63 1.174-1.061-.151-.898-.451-1.48-1.664-2.01-.137.777-1.716 1.99-1.716 1.99-.858-1.622-1.225-3.544-1.232-5.046 0-1.5-.717-1.83-2.157-2.245-.737-.223-.86-.223-.948-.016"/>
</svg>
