<svg xmlns="http://www.w3.org/2000/svg" width="42mm" height="42mm" viewBox="0 0 42 42">
    <defs>
        <filter id="0NG_svg__a" width="1.1" height="1.109" x="-.033" y="-.031" color-interpolation-filters="sRGB">
            <feFlood flood-color="#000" flood-opacity=".851" result="flood"/>
            <feComposite in="flood" in2="SourceGraphic" operator="in" result="composite1"/>
            <feGaussianBlur in="composite1" result="blur" stdDeviation=".4"/>
            <feOffset dx="1" dy="1.5" result="offset"/>
            <feComposite in="SourceGraphic" in2="offset" result="composite2"/>
        </filter>
    </defs>
    <path fill="#ffe680" d="M150.4 182.807s.632-6.698 1.452-14.252 1.49-13.861 1.49-13.861l11.407-3.187 11.212 2.674 3.507 28.619z" filter="url(#0NG_svg__a)" transform="translate(-144.434 -146.907)"/>
    <g fill="#d40000">
        <path d="M19.067 11.324c-.127.413-.31.95-.423 1.269-2.114 4.628-4.844 8.44-8.408 11.418.65 0 3.901-1.613 5.347-3.176 1.148-1.302 3.947-5.114 4.53-6.23 2.515 2.651 3.387 4.948 5.907 7.164.657.573 1.511.647 2.513.774.606.076.985.089 1.285-.231.493-1.08-1.324-2.353-1.847-2.54-3.062-1.362-5.192-4.11-7.29-6.197.089-.36.37-.87.34-1.487-.015-.505-1.225-1.062-1.543-1.062-.373 0-.349-.008-.411.298"/>
        <path d="M18.18 18.945c-.752.087-1.105.167-1.113.734.014.77 1.375.77 2.342.692l.022 1.308c-.534.102-1.032.144-1.575.282-.727.217-.945.556-.64.902.663.685 1.44.513 2.223.439l.016 1.372c-.483.077-.77.08-1.162.173-.935.238-1.58.465-.887 1.076.775.57 1.22.477 2.058.38l.027 1.356c-1.746.303-3.134.428-4.943 1.088-.542.19-.515.743.08 1.301.785.78 1.188.709 2.124.207a7.3 7.3 0 0 1 1.85-.565c1.037-.136 3.602-.32 5.217-.199.5.038 1.173.12 1.672.158.915.074 1.56.074 1.582-.44.019-.445-.216-1.018-.833-1.435-.73-.511-1.249-.552-2.972-.48a31 31 0 0 0-2.148.178l-.027-1.442c.752-.09 1.375-.123 1.963-.387.453-.203.451-.546.105-1.121-.438-.478-1.293-.173-2.149-.082l-.044-1.398c.6-.085 2.13-.27 2.215-.75.086-.496-.05-.919-.474-1.005-.462-.005-1.056.082-1.722.17l-.016-1.322c.858-.124 1.037-.14 1.708-.221.333-.026.463-.444.473-.71.007-.244-.333-.749-.755-.77-1.535-.02-3 .37-4.217.512"/>
    </g>
</svg>
