<svg xmlns="http://www.w3.org/2000/svg" width="42mm" height="42mm" viewBox="0 0 42 42">
    <defs>
        <filter id="0KA_svg__a" width="1.096" height="1.104" x="-.031" y="-.029" color-interpolation-filters="sRGB">
            <feFlood flood-color="#000" flood-opacity=".851" result="flood"/>
            <feComposite in="flood" in2="SourceGraphic" operator="in" result="composite1"/>
            <feGaussianBlur in="composite1" result="blur" stdDeviation=".4"/>
            <feOffset dx="1" dy="1.5" result="offset"/>
            <feComposite in="SourceGraphic" in2="offset" result="composite2"/>
        </filter>
    </defs>
    <path fill="#ffe680" d="m82.731 116.59 11.835-3.246 11.833 2.78 3.566 30.04-30.493.027z" filter="url(#0KA_svg__a)" transform="translate(-74.218 -109.517)"/>
    <path d="M12.572 18.486c2.605-1.33 4.248-2.03 7.06-4.831l3.471-.356-3.548 4.387-3.757.691c-.655.147-.79.429-1.127 1.5-1.13 3.649-1.791 7.717-1.83 9.71-.004 1.001.186 1.18.588 1.71.556.45 1.782.284 2-.054.39-.533.5-.934.533-2.135.039-1.147.079-3.36.079-3.36.906.227 1.14.195 1.94.164l1.737-.097v1.277c0 1.034.488 1.716.82 1.824.828.203-.94-.312-1.747-.52 1.695.885 5.245 3.554 5.245 3.554.633.421 1.15.998 1.78 1.135.686.106 2.659.387 2.907-1.03l-.011-12.666c-.049-.788-.47-.933-1.032-1.488a3.64 3.64 0 0 0-1.58-.912c-1.448-.071-5.503.524-5.503.524l4.966-3.238c.817-.775.53-1.645.227-1.93-.558-.524-2.804-1.06-3.346-1.008l-1.981.624s.637-.58.325-1.032c-.58-.746-1.452-1.053-2.338-1.162.146.347-.104 1.033-.327 1.554-1.687 3.564-2.676 4.49-5.55 7.165zm12.691.249c.519.303.36 1.527.372 1.86-1.152.146-2.873.299-3.834.408-.18-.551-.35-.78-.559-1.052-.513-.542-1.129-.967-1.347-.746-.102.16-.149.44-.125 1.049.014.326.047.665.024 1.018-.596.074-3.394.538-3.673.595-.05-.998.075-1.47.026-2.231zm-3.24 5.283c-.027-.575-.07-1.236-.078-1.632 1.046-.122 2.624-.288 3.74-.386.013.76-.012 1.023.014 1.694-1.251.102-2.478.235-3.677.324zm-2.274.295c-1.161.229-2.497.351-3.725.591.02-.924.031-1.424.093-2.312.882.102 2.736.097 3.668.071.005.567-.04 1.087-.036 1.65m5.988 3.29c-.012.711-.006 1.408-.106 2.931 0 0-2.38-.876-4.404-1.471-.62-.153-.127-.14.27-.63.278-.357.493-.568.552-1.282.04-.602.05-1.23.04-1.642 1.08-.087 2.275-.286 3.593-.23-.02.21.055.274.055 2.323z"/>
</svg>
