<svg xmlns="http://www.w3.org/2000/svg" width="42mm" height="42mm" viewBox="0 0 42 42">
    <defs>
        <filter id="0KI_svg__a" width="1.1" height="1.109" x="-.033" y="-.031" color-interpolation-filters="sRGB">
            <feFlood flood-color="#000" flood-opacity=".851" result="flood"/>
            <feComposite in="flood" in2="SourceGraphic" operator="in" result="composite1"/>
            <feGaussianBlur in="composite1" result="blur" stdDeviation=".4"/>
            <feOffset dx="1" dy="1.5" result="offset"/>
            <feComposite in="SourceGraphic" in2="offset" result="composite2"/>
        </filter>
    </defs>
    <path fill="#ffe680" d="M115.398 145.666s.633-6.697 1.453-14.251 1.49-13.862 1.49-13.862l11.407-3.186 11.212 2.673 3.507 28.62z" filter="url(#0KI_svg__a)" transform="translate(-109.433 -109.766)"/>
    <path d="M17.788 19.438c-1.11.237-1.385.615-.138 1.172.337.15 1.203.175 1.902.092-.017.427-.04.818-.053 1.281-.457.102-1.424.222-1.935.362-.929.225-1.557.54-.6 1.052a4.57 4.57 0 0 0 2.487.404c-.028 1.407-.063 2.738-.06 4.114-.527.054-.444.05-.678.073.152-.092.098-.378.103-.52.01-.316-1.464-2.51-1.839-2.87-.404-.379-1.366.047-1.654.53-.691 1.498 2.098 2.527 2.785 2.935-.265.033-1.259.128-1.64.216-3.875.877-4.044 1.014-2.468 1.987.753.545.943.433 1.669.214 1.28-.226 1.806-.237 5.69-.53 1.808-.126 2.976-.01 3.948.342.604.211 1.091.09 1.725-.156 2.371-1.937-.67-2.63-1.183-2.656-1.323-.063-2.252.048-2.44.059.656-.315 1.758-.868 2.308-1.41.347-.353.515-.832.445-1.551-.241-1.085-1.17-1.139-1.784-1.069-.504.172-.502 1.429-2.234 4.138l-.564.065c-.01-.764.018-3.45-.037-4.191 1.12-.245 2.476-.2 2.875-.656.44-.42-.058-1.262-1.051-1.389-.315-.04-1.535.148-1.934.208-.014-.783-.01-.967-.205-1.235.91-.063 1.836-.203 2.464-.795.414-.391-.232-1.249-1.593-1.091-1.324.11-3.142.634-4.312.875z"/>
    <path d="M19.355 10.733c-2.148 5.1-5.074 9.87-8.363 13.358 3.872-1.974 7.351-5.349 9.516-8.797 1.794 2.113 3.701 4.396 6.248 6.45.775.32 1.335.277 2.142.306.918.032 1.476.101 1.485-.332-.01-.922-.236-1.362-2.52-2.557-4.2-3.113-5.592-4.167-6.532-5.434.522-.892-.892-2.754-1.976-2.994"/>
</svg>
