<svg xmlns="http://www.w3.org/2000/svg" width="42mm" height="42mm" viewBox="0 0 42 42">
    <defs>
        <filter id="0OU_svg__a" width="1.092" height="1.1" x="-.03" y="-.028" color-interpolation-filters="sRGB">
            <feFlood flood-color="#000" flood-opacity=".851" result="flood"/>
            <feComposite in="flood" in2="SourceGraphic" operator="in" result="composite1"/>
            <feGaussianBlur in="composite1" result="blur" stdDeviation=".4"/>
            <feOffset dx="1" dy="1.5" result="offset"/>
            <feComposite in="SourceGraphic" in2="offset" result="composite2"/>
        </filter>
    </defs>
    <path fill="#ffe680" d="m12.052 115.385 12.356-3.382 12.353 2.896 3.723 31.294-31.835.028z" filter="url(#0OU_svg__a)" transform="translate(-4.066 -108.862)"/>
    <path d="M21.408 11.311c-.31.134-1.009.312-1.552.423-.523.112-1.746.356-2.715.557-.95.178-2.115.4-2.561.49-1.106.178-1.106.69.058 1.959 1.009 1.135 1.436 1.224 2.6.534.426-.267 1.066-.49 1.416-.512l.62-.022.059 2.404c.038 1.803 0 2.404-.194 2.47-.136.045-.718.246-1.3.446-.563.2-1.416.356-1.882.356-.446 0-.892.09-.95.223-.136.267.679 1.692 1.241 2.137.485.4 1.901.467 2.212.111a.85.85 0 0 1 .562-.245c.291 0 .33.268.33 2.76 0 2.116-.078 2.828-.272 3.028-.155.156-1.26.357-2.463.468-1.203.133-3.2.423-4.442.668-1.378.29-2.522.4-2.968.311-.64-.155-.699-.111-.699.334 0 .557 1.145 1.915 1.882 2.249.718.311 1.668.245 2.173-.156.62-.512 2.987-1.202 4.034-1.202.485 0 1.029-.112 1.223-.223.213-.133 1.804-.312 3.55-.445 2.676-.156 3.336-.156 4.131.134.543.2 2.076.4 3.511.467 2.212.111 2.638.067 3.065-.245.776-.579.563-1.224-.698-2.182-.97-.756-1.261-.845-3.22-1.09-1.65-.2-2.541-.2-3.938 0-.99.155-1.882.178-1.979.067-.213-.245-.232-5.388-.02-5.61.292-.29 1.747-.668 2.523-.668.911 0 1.241-.356 1.028-1.046-.194-.535-1.804-1.18-2.968-1.18-.388 0-.757-.112-.815-.223-.077-.134-.194-.913-.252-1.714-.116-1.336-.194-1.492-.718-1.826-1.222-.756-1.067-.823 2.949-1.536 1.202-.2 2.27-.49 2.405-.645.466-.534.039-1.336-.931-1.714-.99-.379-3.123-.446-4.035-.112"/>
</svg>
