<svg xmlns="http://www.w3.org/2000/svg" width="42mm" height="42mm" viewBox="0 0 42 42">
    <defs>
        <filter id="0KY_svg__a" width="1.108" height="1.114" x="-.036" y="-.032" color-interpolation-filters="sRGB">
            <feFlood flood-color="#000" flood-opacity=".851" result="flood"/>
            <feComposite in="flood" in2="SourceGraphic" operator="in" result="composite1"/>
            <feGaussianBlur in="composite1" result="blur" stdDeviation=".4"/>
            <feOffset dx="1" dy="1.5" result="offset"/>
            <feComposite in="SourceGraphic" in2="offset" result="composite2"/>
        </filter>
    </defs>
    <path fill="#ffe680" d="m221.547 145.844 2.763-26.975 10.573-3.06 10.392 2.567 3.266 27.465z" filter="url(#0KY_svg__a)" transform="translate(-214.544 -110.576)"/>
    <path d="M15.176 14.984c.992.53 3.158.892 4.009.347l-.022 1.98s-4.136.838-6.22 1.177c-.964.203-.434 1.359.87 1.827.711.252.83.108 1.323-.202.81-.479 3.061-.876 3.061-.876-2.29 2.86-4.56 4.852-7.257 6.598 2.089-.307 2.793-.418 4.406-1.378.215 1.8.744 3.832 1.702 5.422.292.381.901.445 1.138.204l4.044-.073c.092.362 1.039.12 1.162-.246a21 21 0 0 0 1.297-5.336c.578.692.873.855 1.424 1.045.663.232 1.2.228 1.971.218.438-.01.92-.075 1.117-.411.174-.358.086-.84-.31-1.053-.375-.202-.661-.32-1.244-.493-.241-.067-2.592-1.686-2.72-1.803l-3.748-2.965-.004-.214s2.971-.521 3.65-.438c1.993.116 2.986-.295 2.108-1.551-.49-.576-.852-.725-1.914-.554-1.103.216-3.816.702-3.816.702-.027-1.627.141-1.688-.365-2.002.536-.22 2.134-.503 2.746-.72.806-.305.777-1.978-.199-2.225a104 104 0 0 1-8.21 3.02zm4.38 7.507s-2.376.237-3.054.458c.45 1.117 2.822 1.176 6.056 1.105l-.11 1.31-4.836.158c-.235-1.742-.21-2.234-.664-2.383.647-.66 2.24-2.215 2.24-2.215.083.735.088 1.383.368 1.567m1.426-.12c.211-.247.106-1.614.127-1.83.28.333 1.06 1.37 1.435 1.75-.596.05-.95.039-1.562.08m1.201 6.103-4.027.1-.308-1.49 4.466-.126z"/>
</svg>
