<svg xmlns="http://www.w3.org/2000/svg" width="42mm" height="42mm" viewBox="0 0 42 42">
    <defs>
        <filter id="0KE_svg__a" width="1.108" height="1.114" x="-.036" y="-.032" color-interpolation-filters="sRGB">
            <feFlood flood-color="#000" flood-opacity=".851" result="flood"/>
            <feComposite in="flood" in2="SourceGraphic" operator="in" result="composite1"/>
            <feGaussianBlur in="composite1" result="blur" stdDeviation=".4"/>
            <feOffset dx="1" dy="1.5" result="offset"/>
            <feComposite in="SourceGraphic" in2="offset" result="composite2"/>
        </filter>
    </defs>
    <path fill="#ffe680" d="m186.07 145.651 2.762-26.974 10.573-3.06 10.392 2.567 3.266 27.464z" filter="url(#0KE_svg__a)" transform="translate(-179.066 -110.384)"/>
    <path d="M14.432 12.85c-.355.576.49 3.216.443 5.22-.372.05-1.554.3-1.975.273-1.067-.05-.875.963.15 1.504.564.273 1.823-.052 1.823-.052-1.633 2.684-3.519 4.04-3.132 6.19.054.184.26.531.656.594.229.275 1.124 1.228 1.45 1.746.913 1.547 1.133 2.213 2.168 2.214.558 0 1.14-.71.978-1.756-.054-.255-.097-1.01-.114-2.492l-.025-3.454c.492-.73 1.055-1.498 1.505-2.252-.593.47-1.557 1.187-1.557 1.187l.022-2.263c.603-.116.987-.101 1.537-.136.699-.05.984-.394.89-.867-.145-.73-.505-1.068-1.187-.961l-1.298.204c.039-1.935.282-2.364.368-3.177.078-.79-.45-1.113-.837-1.353-.45-.207-1.584-.729-1.865-.37m.445 10.27s-.135.095-.44.336c-.732.567-.81.703-.528-.03 0 0 .607-1.377.988-2.079-.034.731-.011 1.247-.02 1.773m.063 3.357c-.114 1.578-.178 1.234-.82.813l-1.26-.74c.596.098 1.472-1.166 2.1-1.77-.016.554-.008 1.216-.02 1.697"/>
    <path d="M22.908 12.727c-.154.186-.2.34-.118.544.063.192.228.462.203 2.529-.605.126-1.102.127-1.652.216-.96.122-1.007.647-.44 1.382.298.385.503.593.912.558a8 8 0 0 0 1.245-.209l-.02 2.4c-1.423.236-2.41.382-3.734.502-.818.07-.742.61.17 1.292.652.618.827.688 1.62.42.86-.247 1.207-.341 1.963-.444l.012 2.043c-.465.122-1.163.134-1.63.209-.674.122-.81.325-.669.798.126.473.463.63 1.029.849.33.058.596.07 1.258-.024l.013 2.331c-.617.095-1.234.216-1.85.204-2.434.063-3.118.147-2.182 1.53.533.671 1.218.608 2.025.311.85-.255 2.663-.337 4.384-.264.846.036 1.682.225 2.35.223 1.965 0 1.887-.636 1.887-1.318 0-.3-.261-.839-.796-.98-.801-.172-1.899-.089-3.764.044l-.006-2.324c.404-.089 1.91-.16 2.146-.384.391-.313.16-1.223-.126-1.455-.45-.367-1.587-.212-2.038-.126l-.039-1.923s1.158-.063 1.89-.03c1.368 0 1.912-.194 1.881-.789-.084-.667-.37-1.276-1.476-1.181l-2.311.232-.027-2.421c.774-.11 2.082.048 2.421-.436.3-.408-.436-1.422-.702-1.557-.28-.144-1.141-.045-1.861.072l-.012-.898c.006-.51.258-.771.081-1.173-.12-.27-.477-.483-.766-.589-.378-.153-1.137-.285-1.272-.164"/>
</svg>
