<svg xmlns="http://www.w3.org/2000/svg" width="42mm" height="42mm" viewBox="0 0 42 42">
    <defs>
        <filter id="0FU_svg__a" width="1.12" height="1.117" x="-.04" y="-.033" color-interpolation-filters="sRGB">
            <feFlood flood-color="#000" flood-opacity=".851" result="flood"/>
            <feComposite in="flood" in2="SourceGraphic" operator="in" result="composite1"/>
            <feGaussianBlur in="composite1" result="blur" stdDeviation=".4"/>
            <feOffset dx="1" dy="1.5" result="offset"/>
            <feComposite in="SourceGraphic" in2="offset" result="composite2"/>
        </filter>
    </defs>
    <path fill="#ffe680" d="m258.211 145.495 2.486-26.138 9.494-2.969 9.332 2.491 2.929 26.614z" filter="url(#0FU_svg__a)" transform="translate(-249.831 -110.692)"/>
    <path d="M19.742 16.248c-.015 1.406-.04 1.883-.067 2.703-.507.09-1.137.278-1.624.305-.155-1.586.59-3.022-1.279-3.17 0 0-.842-.153-1.132.026.34.546.496.548.656 1.085a27 27 0 0 0-.014 2.508c-1.442.328-2.35.803-3.759.695-.794-.062-.87.219-.285.953.345.437.867.92 1.362.92.785-.107 2.708-1.128 5.954-1.64.028 1.378.1 3.12.096 3.966-.908-.61-1.205-.948-2.084-1.634 0 0 .177-.831.093-1.421-2.103 1.327-2.726 2.576-2.556 3.611.06.36.356.618.67.774.606.127.998.236 1.295-.181.29-.409.35-1.445.434-1.891.732 1.135 1.652 2.525 2.575 2.899l-.434.39c-.93.843-1.214 1.077-1.544 1.265-.705.643-3.846 2.668-3.846 2.668.227.266 2.383-.626 2.968-.813 2.016-1.016 3.502-1.717 5.09-3.198.375-.36.854-.765 1.064-.906.566-.659 1.163-1.08 1.652-1.685.25.261.501.307.87.293.327-.011.657-.287.91-.513.223-.255.352-.906.155-1.217-.465-.562-1.192-1.243-1.905-1.544-.612-.258-1.818-.423-2.698-.353.4.614 1.267 1.106 1.524 1.809-.62.674-1.413 1.666-2.183 2.116-.07-2.098.048-2.903-.212-4.78a36 36 0 0 1 4.48-.466c1.649-.078 1.964-.14 2.099-.374.134-.235.161-.975-.139-1.24-.345-.298-.396-.444-2.303-.242l-4.123.574c-.028-.853-.005-1.2-.01-1.747.448-.129 1.717-.347 1.956-.394.66-.11 1.166-.308 1.416-.781.06-.632-.825-1.221-1.167-1.02-.572.123-1.619.358-2.162.457-.02-.744-.092-1.458-.55-1.804-.467-.424-1.196-.593-1.6-.593-.21 0-.21.047.014.5.487.94.357 2.238.343 3.09"/>
</svg>
