<?xml version="1.0" encoding="UTF-8" standalone="no"?>
<svg
   version="1.0"
   viewBox="0 0 35.349998 38.720001"
   id="svg2166"
   sodipodi:version="0.32"
   inkscape:version="1.3.2 (091e20e, 2023-11-25, custom)"
   sodipodi:docname="Kaku.svg"
   inkscape:output_extension="org.inkscape.output.svg.inkscape"
   sodipodi:modified="true"
   xmlns:inkscape="http://www.inkscape.org/namespaces/inkscape"
   xmlns:sodipodi="http://sodipodi.sourceforge.net/DTD/sodipodi-0.dtd"
   xmlns:xlink="http://www.w3.org/1999/xlink"
   xmlns="http://www.w3.org/2000/svg"
   xmlns:svg="http://www.w3.org/2000/svg"
   xmlns:rdf="http://www.w3.org/1999/02/22-rdf-syntax-ns#"
   xmlns:cc="http://creativecommons.org/ns#"
   xmlns:dc="http://purl.org/dc/elements/1.1/">
  <metadata
     id="metadata15">
    <rdf:RDF>
      <cc:Work
         rdf:about="">
        <dc:format>image/svg+xml</dc:format>
        <dc:type
           rdf:resource="http://purl.org/dc/dcmitype/StillImage" />
        <dc:date>2007-07-22</dc:date>
        <dc:creator>
          <cc:Agent>
            <dc:title>13xforever</dc:title>
          </cc:Agent>
        </dc:creator>
        <dc:language>ja</dc:language>
        <dc:subject>
          <rdf:Bag>
            <rdf:li>kakugyou</rdf:li>
            <rdf:li>kakugyo</rdf:li>
            <rdf:li>角行</rdf:li>
            <rdf:li>shougi</rdf:li>
            <rdf:li>shogi</rdf:li>
            <rdf:li>将棋</rdf:li>
          </rdf:Bag>
        </dc:subject>
        <dc:coverage>board game</dc:coverage>
        <cc:license
           rdf:resource="http://creativecommons.org/licenses/by-sa/3.0/" />
      </cc:Work>
      <cc:License
         rdf:about="http://creativecommons.org/licenses/by-sa/3.0/">
        <cc:permits
           rdf:resource="http://web.resource.org/cc/Reproduction" />
        <cc:permits
           rdf:resource="http://web.resource.org/cc/Distribution" />
        <cc:requires
           rdf:resource="http://web.resource.org/cc/Notice" />
        <cc:requires
           rdf:resource="http://web.resource.org/cc/Attribution" />
        <cc:permits
           rdf:resource="http://web.resource.org/cc/DerivativeWorks" />
        <cc:requires
           rdf:resource="http://web.resource.org/cc/ShareAlike" />
      </cc:License>
    </rdf:RDF>
  </metadata>
  <sodipodi:namedview
     inkscape:window-height="745"
     inkscape:window-width="1292"
     inkscape:pageshadow="2"
     inkscape:pageopacity="0.0"
     guidetolerance="10.0"
     gridtolerance="10.0"
     objecttolerance="10.0"
     borderopacity="1.0"
     bordercolor="#666666"
     pagecolor="#ffffff"
     id="base"
     inkscape:zoom="14.178719"
     inkscape:cx="17.667323"
     inkscape:cy="19.360001"
     inkscape:window-x="-8"
     inkscape:window-y="-8"
     inkscape:current-layer="svg2166"
     inkscape:showpageshadow="0"
     inkscape:pagecheckerboard="1"
     inkscape:deskcolor="#d1d1d1"
     inkscape:window-maximized="1" />
  <defs
     id="defs2168">
    <linearGradient
       id="linearGradient10936">
      <stop
         style="stop-color:#fcf3e8;stop-opacity:1"
         offset="0"
         id="stop10938" />
      <stop
         style="stop-color:#ba6100;stop-opacity:1"
         offset="1"
         id="stop10940" />
    </linearGradient>
    <linearGradient
       x1="17.523264"
       y1="5.9785309"
       x2="101.69292"
       y2="113.38583"
       id="linearGradient10942"
       xlink:href="#linearGradient10936"
       gradientUnits="userSpaceOnUse"
       gradientTransform="translate(3.1889734)" />
    <linearGradient
       x1="17.523264"
       y1="5.9785309"
       x2="101.69292"
       y2="113.38583"
       id="linearGradient12957"
       xlink:href="#linearGradient10936"
       gradientUnits="userSpaceOnUse"
       gradientTransform="translate(3.1889734)" />
  </defs>
  <g
     id="layer1"
     transform="matrix(-0.27450148,0,0,-0.27450148,32.507805,36.860953)">
    <g
       transform="matrix(0.96514,0,0,0.9687658,1.8836745,8.83634)"
       id="g12950">
      <path
         d="M 3.6843532,112.89045 H 104.38651 L 87.439074,5.7639005 54.035433,0.49538136 20.63179,5.7639005 Z"
         style="fill:url(#linearGradient12957);fill-opacity:1;fill-rule:evenodd;stroke:#000000;stroke-width:1.03418;stroke-linecap:butt;stroke-linejoin:miter;stroke-miterlimit:4;stroke-dasharray:none;stroke-opacity:0.498039"
         id="path9965" />
      <path
         d="m 48.222112,26.491776 c 1.909489,6.4e-5 4.714113,-0.357974 8.413883,-1.074112 3.699665,-0.716009 6.205925,-1.372411 7.518785,-1.969207 1.312744,-0.596662 2.804567,-0.656335 4.475469,-0.179018 1.670777,0.47745 3.520637,1.372544 5.549582,2.685281 2.028813,1.312867 1.372406,2.446653 -1.969206,3.401355 -3.341746,0.954827 -9.070341,5.489965 -17.185801,13.605426 5.967236,-1.193409 9.607283,-2.148175 10.920144,-2.864299 1.312744,-0.716024 2.804566,-0.835369 4.475466,-0.358036 1.670778,0.477432 3.699655,1.432197 6.086641,2.864298 2.386846,1.432196 3.162592,2.744999 2.327245,3.938413 -0.835491,1.193503 -1.312878,3.699763 -1.432152,7.518788 -0.119427,3.8191 0.11928,9.60737 0.716072,17.36482 0.596661,7.75749 0.775681,13.128051 0.53706,16.11169 -0.238767,2.983645 -1.551562,5.489906 -3.938412,7.518783 -2.386984,2.02888 -3.938478,1.96921 -4.654488,-0.179007 -0.716138,-2.148225 -2.386978,-4.415796 -5.012524,-6.802714 -2.625666,-2.386909 -2.446648,-3.162658 0.537056,-2.327242 2.983582,0.835424 5.01246,1.074117 6.086637,0.716074 1.074045,-0.358032 1.491757,-3.998076 1.253131,-10.920145 -0.23876,-6.922036 -0.537123,-13.128014 -0.895096,-18.617951 -0.3581,-5.48987 -0.775812,-9.010567 -1.25313,-10.562106 -0.477448,-1.551451 -1.491885,-2.386872 -3.043319,-2.506263 -1.551555,-0.119292 -6.504402,0.537102 -14.858556,1.969205 2.148176,1.432194 3.043271,2.685323 2.685281,3.759396 -0.358086,1.074152 -0.537105,3.043355 -0.537056,5.907618 l 5.728602,-1.432151 c 1.909474,-0.477345 3.401297,-0.238654 4.475466,0.716075 1.074053,0.954803 0.537,1.790224 -1.611168,2.506264 -2.14828,0.716108 -5.012576,1.432183 -8.5929,2.148225 v 8.950939 c 2.864249,-0.47736 5.191491,-0.895072 6.981732,-1.253133 1.790129,-0.358013 3.401296,-0.05966 4.833506,0.895094 1.432088,0.954787 0.954705,1.730536 -1.432151,2.327244 -2.386972,0.59675 -5.847998,1.372497 -10.383087,2.327245 0.238643,4.535155 0.178975,8.891273 -0.179028,13.06837 -0.358085,4.177107 -1.014488,6.385001 -1.969205,6.623693 -0.954814,0.238689 -1.491869,-1.491824 -1.611169,-5.191543 -0.119388,-3.699714 -0.298412,-8.294524 -0.537056,-13.784446 -2.625649,0.477402 -4.654527,0.835438 -6.086637,1.074113 -1.432189,0.238709 -3.103029,-0.238675 -5.012527,-1.432151 -1.909566,-1.193437 -1.849891,-1.909512 0.179011,-2.148224 2.028845,-0.238673 5.66889,-0.835402 10.920145,-1.790188 v -8.5929 c -4.773872,0.716104 -7.876861,0.596758 -9.308974,-0.358038 -1.432184,-0.954733 -1.312838,-1.611137 0.358035,-1.969207 1.670806,-0.358004 4.654448,-1.014405 8.950939,-1.969205 -4.6e-5,-5.251178 -0.596773,-8.473512 -1.790189,-9.667014 l -10.741123,1.432151 c -0.477416,9.547697 -1.074144,16.768114 -1.790187,21.661269 -0.716105,4.893196 -1.790216,9.428334 -3.222339,13.605427 -1.432176,4.177107 -4.356146,7.399442 -8.771919,9.667012 -4.415809,2.267564 -4.952864,1.790185 -1.611168,-1.432149 3.341664,-3.222336 5.728577,-7.339762 7.16075,-12.352294 1.432126,-5.012508 2.327218,-11.099141 2.68528,-18.259915 0.358013,-7.160713 0.05963,-11.636178 -0.895091,-13.426407 -0.954791,-1.790144 -0.716101,-2.56589 0.716073,-2.327246 1.432123,0.238738 2.864272,0.358084 4.29645,0.358039 1.432119,4.5e-5 6.086602,-0.596683 13.963463,-1.790188 3.819018,-4.773781 6.802661,-8.354153 8.950935,-10.741127 2.148173,-2.386856 2.864246,-3.878676 2.148228,-4.475467 -0.716132,-0.596668 -1.849915,-0.716014 -3.401356,-0.358038 -1.551546,0.358101 -3.341734,0.716137 -5.370565,1.074112 -2.028921,0.358098 -4.236818,0.05974 -6.623693,-0.895093 -5.967326,6.444732 -11.457227,10.920195 -16.469724,13.426407 -5.012542,2.506307 -5.728619,2.32729 -2.148226,-0.537057 3.580352,-2.864247 6.802686,-6.026908 9.667013,-9.487995 2.864265,-3.460965 4.714127,-6.086571 5.549583,-7.876823 0.835384,-1.790121 1.193419,-3.520634 1.074112,-5.191545 -0.119387,-1.670769 0.775709,-2.148152 2.685281,-1.432151 1.909492,0.716148 3.520659,1.551568 4.833504,2.506262 1.312759,0.954838 1.432105,1.909603 0.358039,2.864301 -1.074156,0.954835 -2.327285,2.267638 -3.759394,3.938413 z"
         style="font-style:normal;font-variant:normal;font-weight:normal;font-stretch:normal;font-size:49.6406px;line-height:100%;font-family:KaiTi;text-align:center;writing-mode:lr-tb;text-anchor:middle;fill:#000000;fill-opacity:1;stroke:#000000;stroke-width:1.90954;stroke-miterlimit:4;stroke-opacity:0.498039"
         id="text2169" />
    </g>
  </g>
</svg>
