<?xml version="1.0" encoding="UTF-8" standalone="no"?>
<svg
   version="1.0"
   viewBox="0 0 35.349998 38.720001"
   id="svg2166"
   sodipodi:version="0.32"
   inkscape:version="1.3.2 (091e20e, 2023-11-25, custom)"
   sodipodi:docname="Gyoku.svg"
   inkscape:output_extension="org.inkscape.output.svg.inkscape"
   sodipodi:modified="true"
   xml:space="preserve"
   xmlns:inkscape="http://www.inkscape.org/namespaces/inkscape"
   xmlns:sodipodi="http://sodipodi.sourceforge.net/DTD/sodipodi-0.dtd"
   xmlns:xlink="http://www.w3.org/1999/xlink"
   xmlns="http://www.w3.org/2000/svg"
   xmlns:svg="http://www.w3.org/2000/svg"
   xmlns:rdf="http://www.w3.org/1999/02/22-rdf-syntax-ns#"
   xmlns:cc="http://creativecommons.org/ns#"
   xmlns:dc="http://purl.org/dc/elements/1.1/"><metadata
     id="metadata15"><rdf:RDF><cc:Work
         rdf:about=""><dc:format>image/svg+xml</dc:format><dc:type
           rdf:resource="http://purl.org/dc/dcmitype/StillImage" /><dc:date>2007-07-22</dc:date><dc:creator><cc:Agent><dc:title>13xforever</dc:title></cc:Agent></dc:creator><dc:language>ja</dc:language><dc:subject><rdf:Bag><rdf:li>gyokushou</rdf:li><rdf:li>gyokusho</rdf:li><rdf:li>玉将</rdf:li><rdf:li>shougi</rdf:li><rdf:li>shogi</rdf:li><rdf:li>将棋</rdf:li></rdf:Bag></dc:subject><dc:coverage>board game</dc:coverage><cc:license
           rdf:resource="http://creativecommons.org/licenses/by-sa/3.0/" /></cc:Work><cc:License
         rdf:about="http://creativecommons.org/licenses/by-sa/3.0/"><cc:permits
           rdf:resource="http://web.resource.org/cc/Reproduction" /><cc:permits
           rdf:resource="http://web.resource.org/cc/Distribution" /><cc:requires
           rdf:resource="http://web.resource.org/cc/Notice" /><cc:requires
           rdf:resource="http://web.resource.org/cc/Attribution" /><cc:permits
           rdf:resource="http://web.resource.org/cc/DerivativeWorks" /><cc:requires
           rdf:resource="http://web.resource.org/cc/ShareAlike" /></cc:License></rdf:RDF></metadata><sodipodi:namedview
     inkscape:window-height="745"
     inkscape:window-width="1292"
     inkscape:pageshadow="2"
     inkscape:pageopacity="0.0"
     guidetolerance="10.0"
     gridtolerance="10.0"
     objecttolerance="10.0"
     borderopacity="1.0"
     bordercolor="#666666"
     pagecolor="#ffffff"
     id="base"
     inkscape:zoom="14.178719"
     inkscape:cx="17.667322"
     inkscape:cy="19.36"
     inkscape:window-x="-8"
     inkscape:window-y="-8"
     inkscape:current-layer="svg2166"
     inkscape:showpageshadow="0"
     inkscape:pagecheckerboard="1"
     inkscape:deskcolor="#d1d1d1"
     inkscape:window-maximized="1" /><defs
     id="defs2168"><linearGradient
       id="linearGradient10936"><stop
         style="stop-color:#fcf3e8;stop-opacity:1"
         offset="0"
         id="stop10938" /><stop
         style="stop-color:#ba6100;stop-opacity:1"
         offset="1"
         id="stop10940" /></linearGradient><linearGradient
       x1="17.523264"
       y1="5.9785309"
       x2="101.69292"
       y2="113.38583"
       id="linearGradient10942"
       xlink:href="#linearGradient10936"
       gradientUnits="userSpaceOnUse"
       gradientTransform="translate(3.1889734)" /><linearGradient
       x1="17.523264"
       y1="5.9785309"
       x2="101.69292"
       y2="113.38583"
       id="linearGradient12957"
       xlink:href="#linearGradient10936"
       gradientUnits="userSpaceOnUse"
       gradientTransform="translate(3.1889734)" /></defs><g
     id="layer1"
     transform="matrix(-0.27488177,0,0,-0.27488177,32.528355,36.403993)"
     style="display:inline"><g
       transform="translate(0,5.3149579)"
       id="g12950"><path
         d="M 3.6843532,112.89045 H 104.38651 L 87.439074,5.7639005 54.035433,0.49538136 20.63179,5.7639005 Z"
         style="fill:url(#linearGradient12957);fill-opacity:1;fill-rule:evenodd;stroke:#000000;stroke-width:0.99076px;stroke-linecap:butt;stroke-linejoin:miter;stroke-opacity:0.498039"
         id="path9965" /><path
         d="m 53.929653,35.54472 c 2.835158,2.362724 3.839293,4.548193 3.012407,6.556416 -0.826983,2.008316 -1.24045,5.493255 -1.240403,10.454825 3.543958,-0.708765 6.142895,-1.240366 7.796819,-1.594804 1.653813,-0.354362 3.307683,3.9e-5 4.961612,1.063203 1.653808,1.063238 1.004074,2.12644 -1.949205,3.189607 -2.953396,1.063235 -6.556468,1.949237 -10.809226,2.658007 l -0.708802,19.846447 c 12.994639,-1.181324 20.79145,-1.949191 23.390456,-2.303605 2.598868,-0.354387 5.315939,-0.118123 8.151221,0.708801 2.83512,0.826948 4.96153,2.303617 6.37921,4.430011 1.41752,2.126412 -1.71302,2.658013 -9.391618,1.594804 -7.678753,-1.063195 -18.606102,-0.885994 -32.782079,0.531601 -14.176061,1.417608 -22.563541,2.421743 -25.16246,3.012407 -2.598955,0.590671 -5.138824,0.118139 -7.619619,-1.417603 -2.480812,-1.535731 -3.484947,-2.362665 -3.012407,-2.480806 0.472527,-0.118123 3.071464,-0.354393 7.796819,-0.708802 4.725326,-0.354392 13.939738,-1.240393 27.643266,-2.658006 -4.2e-5,-5.906664 0.118091,-12.52214 0.354401,-19.846448 -6.851786,0.945099 -11.399924,0.886032 -13.644433,-0.1772 -2.244565,-1.06317 -1.594831,-1.890106 1.949205,-2.480806 3.543974,-0.590634 7.442381,-1.358502 11.695228,-2.303606 V 42.987138 c -4.2e-5,-2.835158 -0.59071,-5.079694 -1.772004,-6.733616 -4.725381,0.23632 -8.387519,-0.177147 -10.986427,-1.240403 -2.598966,-1.063148 -2.126432,-1.890082 1.417604,-2.480806 3.543974,-0.590611 8.210247,-1.476613 13.998833,-2.658007 5.788496,-1.181275 10.159436,-1.949143 13.112832,-2.303605 2.953279,-0.354339 4.902482,0.05913 5.847614,1.240403 0.945004,1.181395 -0.413532,2.36273 -4.07561,3.544008 -3.662198,1.181392 -8.446604,2.244593 -14.353234,3.189608 z m 23.036055,33.668081 c -2.599005,-3.307718 -4.548208,-6.320122 -5.847614,-9.037222 -1.299531,-2.717042 0.531538,-2.835174 5.493213,-0.354401 4.961539,2.480834 6.969808,5.43417 6.024815,8.860022 -0.945143,3.425892 -2.835278,3.603092 -5.670414,0.531601 z"
         style="font-style:normal;font-variant:normal;font-weight:normal;font-stretch:normal;font-size:56px;line-height:100%;font-family:KaiTi;text-align:center;writing-mode:lr-tb;text-anchor:middle;fill:#000000;fill-opacity:1;stroke:#000000;stroke-width:1.62012;stroke-opacity:0.498039"
         id="text11929" /></g></g></svg>
