<?xml version="1.0" encoding="UTF-8" standalone="no"?>
<svg
   version="1.0"
   viewBox="0 0 35.349998 38.720001"
   id="svg2166"
   sodipodi:version="0.32"
   inkscape:version="1.3.2 (091e20e, 2023-11-25, custom)"
   sodipodi:docname="Fu.svg"
   inkscape:output_extension="org.inkscape.output.svg.inkscape"
   sodipodi:modified="true"
   xmlns:inkscape="http://www.inkscape.org/namespaces/inkscape"
   xmlns:sodipodi="http://sodipodi.sourceforge.net/DTD/sodipodi-0.dtd"
   xmlns:xlink="http://www.w3.org/1999/xlink"
   xmlns="http://www.w3.org/2000/svg"
   xmlns:svg="http://www.w3.org/2000/svg"
   xmlns:rdf="http://www.w3.org/1999/02/22-rdf-syntax-ns#"
   xmlns:cc="http://creativecommons.org/ns#"
   xmlns:dc="http://purl.org/dc/elements/1.1/">
  <metadata
     id="metadata15">
    <rdf:RDF>
      <cc:Work
         rdf:about="">
        <dc:format>image/svg+xml</dc:format>
        <dc:type
           rdf:resource="http://purl.org/dc/dcmitype/StillImage" />
        <dc:date>2007-07-22</dc:date>
        <dc:creator>
          <cc:Agent>
            <dc:title>13xforever</dc:title>
          </cc:Agent>
        </dc:creator>
        <dc:language>jp</dc:language>
        <dc:subject>
          <rdf:Bag>
            <rdf:li>fuhyou</rdf:li>
            <rdf:li>fuhyo</rdf:li>
            <rdf:li>歩兵</rdf:li>
            <rdf:li>shougi</rdf:li>
            <rdf:li>shogi</rdf:li>
            <rdf:li>将棋</rdf:li>
          </rdf:Bag>
        </dc:subject>
        <dc:coverage>board game</dc:coverage>
        <cc:license
           rdf:resource="http://creativecommons.org/licenses/by-sa/3.0/" />
      </cc:Work>
      <cc:License
         rdf:about="http://creativecommons.org/licenses/by-sa/3.0/">
        <cc:permits
           rdf:resource="http://web.resource.org/cc/Reproduction" />
        <cc:permits
           rdf:resource="http://web.resource.org/cc/Distribution" />
        <cc:requires
           rdf:resource="http://web.resource.org/cc/Notice" />
        <cc:requires
           rdf:resource="http://web.resource.org/cc/Attribution" />
        <cc:permits
           rdf:resource="http://web.resource.org/cc/DerivativeWorks" />
        <cc:requires
           rdf:resource="http://web.resource.org/cc/ShareAlike" />
      </cc:License>
    </rdf:RDF>
  </metadata>
  <sodipodi:namedview
     inkscape:window-height="745"
     inkscape:window-width="1292"
     inkscape:pageshadow="2"
     inkscape:pageopacity="0.0"
     guidetolerance="10.0"
     gridtolerance="10.0"
     objecttolerance="10.0"
     borderopacity="1.0"
     bordercolor="#666666"
     pagecolor="#ffffff"
     id="base"
     inkscape:zoom="14.178719"
     inkscape:cx="17.667323"
     inkscape:cy="19.360001"
     inkscape:window-x="-8"
     inkscape:window-y="-8"
     inkscape:current-layer="svg2166"
     inkscape:showpageshadow="0"
     inkscape:pagecheckerboard="1"
     inkscape:deskcolor="#d1d1d1"
     inkscape:window-maximized="1"
     inkscape:document-units="mm" />
  <defs
     id="defs2168">
    <linearGradient
       id="linearGradient10936">
      <stop
         style="stop-color:#fcf3e8;stop-opacity:1"
         offset="0"
         id="stop10938" />
      <stop
         style="stop-color:#ba6100;stop-opacity:1"
         offset="1"
         id="stop10940" />
    </linearGradient>
    <linearGradient
       x1="17.523264"
       y1="5.9785309"
       x2="101.69292"
       y2="113.38583"
       id="linearGradient10942"
       xlink:href="#linearGradient10936"
       gradientUnits="userSpaceOnUse"
       gradientTransform="translate(3.1889734)" />
    <linearGradient
       x1="17.523264"
       y1="5.9785309"
       x2="101.69292"
       y2="113.38583"
       id="linearGradient12957"
       xlink:href="#linearGradient10936"
       gradientUnits="userSpaceOnUse"
       gradientTransform="translate(3.1889734)" />
  </defs>
  <g
     id="layer1"
     transform="matrix(-0.26458333,0,0,-0.26458333,35.349998,38.720001)">
    <g
       transform="matrix(0.83256404,0,0,0.89666611,21.815189,22.340447)"
       id="g12950">
      <path
         d="M 3.6843532,112.89045 H 104.38651 L 87.439074,5.7639005 54.035433,0.49538136 20.63179,5.7639005 Z"
         style="fill:url(#linearGradient12957);fill-opacity:1;fill-rule:evenodd;stroke:#000000;stroke-width:1.22957;stroke-linecap:butt;stroke-linejoin:miter;stroke-miterlimit:4;stroke-dasharray:none;stroke-opacity:0.498039"
         id="path9965" />
      <path
         d="m 59.501163,28.513955 c 3.932862,-0.737359 7.005449,-1.597683 9.217776,-2.580977 2.212201,-0.983163 4.301561,-0.86026 6.268088,0.36871 1.966387,1.229101 1.35187,2.519589 -1.843555,3.871467 -3.19556,1.351999 -7.742991,1.905065 -13.642309,1.659198 l -0.368712,11.430043 c 7.865775,-1.228989 13.826597,-2.212216 17.882486,-2.949689 4.055746,-0.73737 6.821076,-0.491563 8.295996,0.737422 1.47477,1.229085 2.27364,2.212315 2.39662,2.949688 0.12283,0.73747 -1.65928,1.10618 -5.346307,1.106135 -3.687182,4.5e-5 -7.804451,0.245852 -12.351819,0.73742 -4.547494,0.491659 -10.262509,1.229082 -17.145062,2.212267 1.720603,0.491658 3.195446,1.229079 4.424533,2.212266 1.228984,0.983269 1.47479,2.212304 0.73742,3.68711 -0.737471,1.47488 -0.983279,4.055854 -0.73742,7.742931 0.245756,3.687137 0.245756,6.759724 0,9.217776 -0.245859,2.458091 -0.676022,4.11729 -1.29049,4.9776 -0.614566,0.86034 -1.536344,0.430176 -2.765333,-1.29049 -1.229081,-1.720632 -1.597791,-3.625637 -1.106132,-5.71502 0.491568,-2.089338 0.675923,-4.977572 0.553067,-8.664709 -0.122949,-3.687075 -0.430209,-6.268051 -0.921778,-7.742931 -0.491659,-1.474805 -0.983274,-2.826744 -1.474845,-4.055822 -13.027819,2.703921 -20.402032,4.301667 -22.122661,4.793243 -1.720671,0.491652 -3.74858,-0.06141 -6.083731,-1.659198 -2.335183,-1.597709 -2.273731,-2.396581 0.184355,-2.396623 2.703862,4.2e-5 7.988715,-0.73738 15.854574,-2.212265 -0.491645,-7.865784 -1.351971,-12.53612 -2.580978,-14.011019 -1.229064,-1.474786 -1.597774,-2.458015 -1.106132,-2.94969 0.491585,-0.491552 2.150784,-0.430101 4.977598,0.184357 2.826749,0.614579 3.994334,1.905065 3.502755,3.871466 -0.491651,1.966512 -0.614554,6.02233 -0.36871,12.167463 3.68707,-0.737377 7.742887,-1.474797 12.167463,-2.212267 -4.9e-5,-8.849008 -0.184404,-15.301444 -0.553067,-19.357327 -0.368757,-4.055751 -1.044728,-6.821082 -2.02791,-8.295999 -0.983275,-1.474768 -0.737466,-2.150738 0.737422,-2.027911 1.474796,0.122981 3.318349,0.614595 5.530665,1.474844 2.212212,0.8604 2.949634,1.843629 2.212266,2.949689 -0.737475,1.106204 -1.106185,4.363148 -1.106133,9.770842 z m 14.379729,32.446571 c 1.966391,1.720679 2.27365,2.949714 0.921778,3.68711 -1.352006,0.737447 -3.072656,2.642452 -5.161953,5.71502 -2.089424,3.072609 -5.162013,6.575361 -9.217776,10.508264 -4.055871,3.932924 -9.586532,7.681483 -16.591997,11.245686 -7.005539,3.564202 -13.826686,5.776465 -20.463461,6.636798 -6.636809,0.860317 -6.083742,-7e-6 1.6592,-2.580977 7.742904,-2.58098 14.748408,-5.960828 21.016527,-10.139552 6.268042,-4.178717 11.429992,-9.033406 15.485864,-14.564086 4.055763,-5.530641 5.960768,-9.340651 5.71502,-11.430041 -0.245868,-2.089331 0.368651,-2.888203 1.843555,-2.396622 1.474781,0.491646 3.072527,1.597779 4.793243,3.3184 z m 5.161955,-9.955199 c 3.932841,0.983268 6.698176,2.212304 8.295996,3.687111 1.59767,1.474878 2.21219,3.502786 1.84356,6.083731 -0.3688,2.581005 -1.72073,2.888264 -4.05582,0.921777 -2.33525,-1.966427 -4.608966,-3.748529 -6.821158,-5.346308 -2.212335,-1.597712 -4.055889,-3.072555 -5.530665,-4.424533 -1.474908,-1.3519 -1.782168,-2.150774 -0.921778,-2.396622 0.86026,-0.245765 3.256878,0.245848 7.189865,1.474844 z m -41.664346,9.217776 c 1.229005,-2.458041 2.150783,-3.748529 2.765333,-3.871465 0.614484,-0.122879 0.860291,1.659231 0.737423,5.346308 -0.122932,3.687137 -1.536328,7.435695 -4.240178,11.245686 -2.703907,3.81003 -4.363105,4.240192 -4.977598,1.29049 -0.614544,-2.949669 -0.06148,-5.469191 1.6592,-7.558576 1.720622,-2.089336 3.072562,-4.240149 4.05582,-6.452443 z"
         style="font-style:normal;font-variant:normal;font-weight:normal;font-stretch:normal;font-size:54.1011px;line-height:100%;font-family:KaiTi;text-align:center;writing-mode:lr-tb;text-anchor:middle;fill:#000000;fill-opacity:1;stroke:#000000;stroke-width:2.14523;stroke-miterlimit:4;stroke-opacity:0.498039"
         id="text11929" />
    </g>
  </g>
</svg>
