<?xml version="1.0" encoding="UTF-8" standalone="no"?>
<svg
   version="1.0"
   viewBox="0 0 35.349998 38.720001"
   id="svg2166"
   sodipodi:version="0.32"
   inkscape:version="1.3.2 (091e20e, 2023-11-25, custom)"
   sodipodi:docname="Hi.svg"
   inkscape:output_extension="org.inkscape.output.svg.inkscape"
   sodipodi:modified="true"
   xmlns:inkscape="http://www.inkscape.org/namespaces/inkscape"
   xmlns:sodipodi="http://sodipodi.sourceforge.net/DTD/sodipodi-0.dtd"
   xmlns:xlink="http://www.w3.org/1999/xlink"
   xmlns="http://www.w3.org/2000/svg"
   xmlns:svg="http://www.w3.org/2000/svg"
   xmlns:rdf="http://www.w3.org/1999/02/22-rdf-syntax-ns#"
   xmlns:cc="http://creativecommons.org/ns#"
   xmlns:dc="http://purl.org/dc/elements/1.1/">
  <metadata
     id="metadata16">
    <rdf:RDF>
      <cc:Work
         rdf:about="">
        <dc:format>image/svg+xml</dc:format>
        <dc:type
           rdf:resource="http://purl.org/dc/dcmitype/StillImage" />
        <dc:date>2007-07-22</dc:date>
        <dc:creator>
          <cc:Agent>
            <dc:title>13xforever</dc:title>
          </cc:Agent>
        </dc:creator>
        <dc:language>ja</dc:language>
        <dc:subject>
          <rdf:Bag>
            <rdf:li>hisha</rdf:li>
            <rdf:li>飛車</rdf:li>
            <rdf:li>shougi</rdf:li>
            <rdf:li>shogi</rdf:li>
            <rdf:li>将棋</rdf:li>
          </rdf:Bag>
        </dc:subject>
        <dc:coverage>board game</dc:coverage>
        <cc:license
           rdf:resource="http://creativecommons.org/licenses/by-sa/3.0/" />
      </cc:Work>
      <cc:License
         rdf:about="http://creativecommons.org/licenses/by-sa/3.0/">
        <cc:permits
           rdf:resource="http://web.resource.org/cc/Reproduction" />
        <cc:permits
           rdf:resource="http://web.resource.org/cc/Distribution" />
        <cc:requires
           rdf:resource="http://web.resource.org/cc/Notice" />
        <cc:requires
           rdf:resource="http://web.resource.org/cc/Attribution" />
        <cc:permits
           rdf:resource="http://web.resource.org/cc/DerivativeWorks" />
        <cc:requires
           rdf:resource="http://web.resource.org/cc/ShareAlike" />
      </cc:License>
    </rdf:RDF>
  </metadata>
  <sodipodi:namedview
     inkscape:window-height="745"
     inkscape:window-width="1292"
     inkscape:pageshadow="2"
     inkscape:pageopacity="0.0"
     guidetolerance="10.0"
     gridtolerance="10.0"
     objecttolerance="10.0"
     borderopacity="1.0"
     bordercolor="#666666"
     pagecolor="#ffffff"
     id="base"
     inkscape:zoom="14.178719"
     inkscape:cx="17.667322"
     inkscape:cy="19.36"
     inkscape:window-x="-8"
     inkscape:window-y="-8"
     inkscape:current-layer="svg2166"
     inkscape:showpageshadow="0"
     inkscape:pagecheckerboard="1"
     inkscape:deskcolor="#d1d1d1"
     inkscape:window-maximized="1" />
  <defs
     id="defs2168">
    <linearGradient
       id="linearGradient10936">
      <stop
         style="stop-color:#fcf3e8;stop-opacity:1"
         offset="0"
         id="stop10938" />
      <stop
         style="stop-color:#ba6100;stop-opacity:1"
         offset="1"
         id="stop10940" />
    </linearGradient>
    <linearGradient
       x1="17.523264"
       y1="5.9785309"
       x2="101.69292"
       y2="113.38583"
       id="linearGradient10942"
       xlink:href="#linearGradient10936"
       gradientUnits="userSpaceOnUse"
       gradientTransform="translate(3.1889734)" />
    <linearGradient
       x1="17.523264"
       y1="5.9785309"
       x2="101.69292"
       y2="113.38583"
       id="linearGradient12957"
       xlink:href="#linearGradient10936"
       gradientUnits="userSpaceOnUse"
       gradientTransform="translate(3.1889734)" />
    <linearGradient
       x1="17.523264"
       y1="5.9785309"
       x2="101.69292"
       y2="113.38583"
       id="linearGradient2173"
       xlink:href="#linearGradient10936"
       gradientUnits="userSpaceOnUse"
       gradientTransform="matrix(0.96514,0,0,0.9687658,4.9614803,8.8564779)" />
  </defs>
  <g
     id="layer1"
     transform="matrix(-0.27449728,0,0,-0.27449728,32.507578,36.860679)">
    <g
       transform="translate(0,-0.02014293)"
       id="g2271">
      <path
         d="M 5.4395911,118.22089 H 102.63127 L 86.274622,14.440348 54.035432,9.3363864 21.79624,14.440348 Z"
         style="fill:url(#linearGradient2173);fill-opacity:1;fill-rule:evenodd;stroke:#000000;stroke-width:1;stroke-linecap:butt;stroke-linejoin:miter;stroke-miterlimit:4;stroke-dasharray:none;stroke-opacity:0.498039"
         id="path9965" />
      <path
         d="m 46.558447,60.106234 c 3.938396,-1.395222 6.255122,-2.441665 6.950185,-3.139333 0.694972,-0.697591 1.7375,-0.871998 3.127584,-0.523222 1.389987,0.348853 2.606269,0.872076 3.648847,1.569666 1.042474,0.697667 1.216228,1.453432 0.521264,2.267296 -0.695071,0.813936 -1.274253,1.918515 -1.737547,3.31374 -0.463395,1.395291 -0.695068,4.650892 -0.695018,9.766813 1.853331,0.232566 3.706711,0.348837 5.560148,0.348815 3.011688,-3.720665 4.401725,-6.162366 4.170111,-7.32511 -0.231732,-1.162686 0.463286,-1.511499 2.085056,-1.046444 1.621646,0.465116 2.953763,1.220881 3.996356,2.267296 1.042461,1.046472 0.694952,1.918507 -1.042528,2.616111 -1.737609,0.697653 -4.459763,2.092912 -8.166467,4.185777 4.865068,0.930193 7.992648,2.267314 9.38275,4.011369 1.38997,1.744089 1.679559,3.139348 0.868773,4.185777 -0.810922,1.046458 -1.79553,1.220863 -2.953829,0.523223 -1.158427,-0.697617 -2.95389,-1.860331 -5.386393,-3.488148 -2.432621,-1.627784 -5.154775,-3.255586 -8.166468,-4.883407 0.92664,6.046138 2.953775,10.52259 6.081412,13.429369 3.127524,2.906795 6.428858,4.767138 9.904014,5.581036 3.475022,0.813903 5.791749,1.046446 6.950185,0.697629 1.158292,-0.348813 2.027062,-1.337121 2.606322,-2.964925 0.5791,-1.627797 1.15828,-4.650854 1.73754,-9.069184 0.57911,-4.418302 1.15829,-3.720674 1.73755,2.092889 0.5791,5.813584 1.50579,9.592407 2.78007,11.336479 1.27412,1.744072 1.10037,3.023058 -0.52126,3.836963 -1.62179,0.813891 -4.92312,1.104571 -9.904014,0.872041 C 75.112058,100.3362 70.594441,98.766532 66.540229,95.859746 62.485901,92.95296 59.589992,89.464815 57.852498,85.395304 56.114903,81.325813 55.072378,77.023768 54.724915,72.489158 54.377359,67.954594 54.203604,64.8734 54.203651,63.245566 c -4.7e-5,-1.86031 -0.521309,-2.616075 -1.563792,-2.267295 -1.04257,0.34885 -3.069706,0.87207 -6.081412,1.569666 -3.9e-5,12.789895 0.115799,20.987034 0.347509,24.59144 0.231634,3.604425 0.05788,6.80189 -0.521264,9.592406 -0.579219,2.790514 -1.216319,3.778817 -1.9113,2.964926 -0.695054,-0.813905 -1.390073,-2.034755 -2.085056,-3.662555 -0.695052,-1.627801 -0.868806,-3.081194 -0.521264,-4.360185 0.347476,-1.278982 0.637067,-3.48814 0.868773,-6.62748 0.231638,-3.13932 0.347474,-10.290015 0.34751,-21.452108 -2.548433,0.465118 -4.86516,1.046476 -6.950186,1.744074 -0.2317,5.813603 -0.984635,10.987683 -2.25881,15.522257 -1.274224,4.534603 -3.185524,8.139018 -5.733902,10.813257 -2.548418,2.674248 -5.502245,4.825271 -8.861487,6.453073 -3.359263,1.627799 -3.417181,1.104577 -0.173754,-1.569666 3.243405,-2.674245 6.25515,-6.569339 9.035241,-11.685295 2.780051,-5.115933 4.170086,-11.278321 4.170111,-18.487182 -3.938459,1.162744 -6.486857,2.034781 -7.645204,2.616111 -1.158379,0.581384 -2.142989,0.697655 -2.953829,0.348815 -0.810868,-0.348789 -1.853394,-0.988281 -3.127583,-1.918481 -1.27421,-0.930143 -0.752946,-1.511501 1.563792,-1.744074 2.316713,-0.232514 6.370984,-1.046413 12.162824,-2.441704 -2.5e-5,-4.883369 -0.579207,-8.022698 -1.737547,-9.417998 -2.780092,0.930214 -4.807228,1.511572 -6.081412,1.744074 -1.274215,0.232584 -0.984624,-0.290638 0.868773,-1.569667 1.853365,-1.278944 3.706745,-2.848609 5.560149,-4.708999 1.853358,-1.860297 2.722129,-3.255554 2.606319,-4.185777 -0.115855,-0.930121 0.637074,-1.046392 2.25881,-0.348815 1.62168,0.69768 2.780045,1.453445 3.475093,2.267296 0.694987,0.81395 0.521232,1.395306 -0.521264,1.744074 -1.042558,0.348861 -3.301366,1.685983 -6.776431,4.01137 1.390013,0.465129 2.606294,1.046487 3.648848,1.744074 1.042499,0.69767 1.447927,1.511569 1.216282,2.441703 -0.231701,0.93021 -0.463374,2.790553 -0.695019,5.581036 2.085026,-0.465053 4.401753,-1.046411 6.950186,-1.744074 -3.6e-5,-5.348452 -0.115874,-9.127275 -0.34751,-11.336479 -0.231706,-2.209112 -0.695052,-4.069456 -1.390037,-5.581037 -0.69505,-1.511476 -0.405461,-2.15097 0.868773,-1.918481 1.274166,0.232597 2.664201,0.697684 4.170111,1.395259 1.505835,0.697682 1.969179,1.569717 1.390037,2.616111 -0.579221,1.046493 -0.92673,2.906836 -1.042527,5.581036 -0.115874,2.674287 -0.173792,5.522939 -0.173755,8.545962 z M 64.976438,40.921422 c 3.24336,-3.720631 4.980905,-6.33674 5.212639,-7.848332 0.231611,-1.511466 0.86871,-2.034688 1.9113,-1.569666 1.042463,0.465149 2.142907,1.220914 3.301338,2.267295 1.158296,1.046506 1.100378,1.80227 -0.173754,2.267296 -1.274266,0.465146 -3.880583,2.209218 -7.818959,5.232222 4.633394,1.16277 7.181792,2.848706 7.645204,5.057814 0.463279,2.209206 -0.52133,2.616157 -2.953829,1.220851 -2.432626,-1.395208 -5.849796,-3.13928 -10.251523,-5.232221 -0.231726,4.418369 0.579129,7.790243 2.432565,10.115628 1.853325,2.325473 4.517559,3.72073 7.992713,4.185777 3.475026,0.465125 5.502161,0.174445 6.081412,-0.872037 0.579112,-1.046403 1.100376,-3.081154 1.563792,-6.104258 0.463273,-3.023013 0.868701,-2.848606 1.216282,0.523222 0.347437,3.371919 1.100376,5.697347 2.258806,6.976295 1.15829,1.279025 0.63703,2.383605 -1.563787,3.31374 -2.200963,0.930208 -5.038953,1.279021 -8.513977,1.046445 -3.475154,-0.232508 -6.71857,-1.569631 -9.730259,-4.01137 -3.011799,-2.441662 -4.691425,-5.755399 -5.038885,-9.941221 -0.347559,-4.185725 -0.347559,-7.848276 0,-10.987664 0.34746,-3.13927 -5e-5,-4.592665 -1.042527,-4.360185 -1.042576,0.232606 -3.938483,1.046508 -8.687732,2.441703 -4.749328,1.395319 -7.761073,2.20922 -9.03524,2.441704 -1.274231,0.2326 -2.83802,-0.29062 -4.691375,-1.569667 -1.853407,-1.278926 -1.621736,-1.91842 0.695018,-1.918481 2.548372,6.1e-5 4.923016,-0.23248 7.12394,-0.697629 2.200855,-0.465024 4.807172,-1.220789 7.818958,-2.267296 3.011703,-1.046378 5.096754,-1.97655 6.255167,-2.790518 1.158314,-0.813833 2.432513,-1.104512 3.822602,-0.872037 1.389983,0.232612 2.780018,0.755834 4.170111,1.569666 1.389979,0.813968 1.389979,1.860411 0,3.139333 -1.390093,1.279051 -2.432619,4.360244 -3.127584,9.243591 z"
         style="font-style:normal;font-variant:normal;font-weight:normal;font-stretch:normal;font-size:48px;line-height:100%;font-family:KaiTi;text-align:center;writing-mode:lr-tb;text-anchor:middle;fill:#000000;fill-opacity:1;stroke:#000000;stroke-width:1.85686;stroke-miterlimit:4;stroke-opacity:0.498039"
         id="text2172" />
    </g>
  </g>
</svg>
