<?xml version="1.0" encoding="UTF-8" standalone="no"?>
<svg
   version="1.0"
   viewBox="0 0 35.349998 38.720001"
   id="svg2166"
   sodipodi:version="0.32"
   inkscape:version="1.3.2 (091e20e, 2023-11-25, custom)"
   sodipodi:docname="Gin.svg"
   inkscape:output_extension="org.inkscape.output.svg.inkscape"
   sodipodi:modified="true"
   xmlns:inkscape="http://www.inkscape.org/namespaces/inkscape"
   xmlns:sodipodi="http://sodipodi.sourceforge.net/DTD/sodipodi-0.dtd"
   xmlns:xlink="http://www.w3.org/1999/xlink"
   xmlns="http://www.w3.org/2000/svg"
   xmlns:svg="http://www.w3.org/2000/svg"
   xmlns:rdf="http://www.w3.org/1999/02/22-rdf-syntax-ns#"
   xmlns:cc="http://creativecommons.org/ns#"
   xmlns:dc="http://purl.org/dc/elements/1.1/">
  <metadata
     id="metadata15">
    <rdf:RDF>
      <cc:Work
         rdf:about="">
        <dc:format>image/svg+xml</dc:format>
        <dc:type
           rdf:resource="http://purl.org/dc/dcmitype/StillImage" />
        <cc:license
           rdf:resource="http://creativecommons.org/licenses/by-sa/3.0/" />
        <dc:date>2007-07-22</dc:date>
        <dc:creator>
          <cc:Agent>
            <dc:title>13xforever</dc:title>
          </cc:Agent>
        </dc:creator>
        <dc:language>ja</dc:language>
        <dc:subject>
          <rdf:Bag>
            <rdf:li>ginshou</rdf:li>
            <rdf:li>ginsho</rdf:li>
            <rdf:li>銀将</rdf:li>
            <rdf:li>shougi</rdf:li>
            <rdf:li>shogi</rdf:li>
            <rdf:li>将棋</rdf:li>
          </rdf:Bag>
        </dc:subject>
        <dc:coverage>board game</dc:coverage>
      </cc:Work>
      <cc:License
         rdf:about="http://creativecommons.org/licenses/by-sa/3.0/">
        <cc:permits
           rdf:resource="http://web.resource.org/cc/Reproduction" />
        <cc:permits
           rdf:resource="http://web.resource.org/cc/Distribution" />
        <cc:requires
           rdf:resource="http://web.resource.org/cc/Notice" />
        <cc:requires
           rdf:resource="http://web.resource.org/cc/Attribution" />
        <cc:permits
           rdf:resource="http://web.resource.org/cc/DerivativeWorks" />
        <cc:requires
           rdf:resource="http://web.resource.org/cc/ShareAlike" />
      </cc:License>
    </rdf:RDF>
  </metadata>
  <sodipodi:namedview
     inkscape:window-height="745"
     inkscape:window-width="1292"
     inkscape:pageshadow="2"
     inkscape:pageopacity="0.0"
     guidetolerance="10.0"
     gridtolerance="10.0"
     objecttolerance="10.0"
     borderopacity="1.0"
     bordercolor="#666666"
     pagecolor="#ffffff"
     id="base"
     inkscape:zoom="14.178719"
     inkscape:cx="17.667323"
     inkscape:cy="19.360001"
     inkscape:window-x="-8"
     inkscape:window-y="-8"
     inkscape:current-layer="svg2166"
     inkscape:showpageshadow="0"
     inkscape:pagecheckerboard="1"
     inkscape:deskcolor="#d1d1d1"
     inkscape:window-maximized="1" />
  <defs
     id="defs2168">
    <linearGradient
       id="linearGradient10936">
      <stop
         style="stop-color:#fcf3e8;stop-opacity:1"
         offset="0"
         id="stop10938" />
      <stop
         style="stop-color:#ba6100;stop-opacity:1"
         offset="1"
         id="stop10940" />
    </linearGradient>
    <linearGradient
       x1="17.523264"
       y1="5.9785309"
       x2="101.69292"
       y2="113.38583"
       id="linearGradient10942"
       xlink:href="#linearGradient10936"
       gradientUnits="userSpaceOnUse"
       gradientTransform="translate(3.1889734)" />
    <linearGradient
       x1="17.523264"
       y1="5.9785309"
       x2="101.69292"
       y2="113.38583"
       id="linearGradient12957"
       xlink:href="#linearGradient10936"
       gradientUnits="userSpaceOnUse"
       gradientTransform="translate(3.1889734)" />
  </defs>
  <g
     id="layer1"
     transform="matrix(-0.2742131,0,0,-0.2742131,32.492222,37.499633)">
    <g
       transform="matrix(0.9299803,0,0,0.9377921,3.783544,12.988526)"
       id="g12950">
      <path
         d="M 3.6843532,112.89045 H 104.38651 L 87.439074,5.7639005 54.035433,0.49538136 20.63179,5.7639005 Z"
         style="fill:url(#linearGradient12957);fill-opacity:1;fill-rule:evenodd;stroke:#000000;stroke-width:1.0708;stroke-linecap:butt;stroke-linejoin:miter;stroke-miterlimit:4;stroke-dasharray:none;stroke-opacity:0.498039"
         id="path9965" />
      <path
         d="m 67.942895,51.830534 c -3.930992,1.310347 -7.534348,2.183888 -10.81008,2.620626 v 1.63789 c 3.275732,1.091958 6.879088,3.385003 10.81008,6.879144 1.96541,-2.402214 3.384914,-4.258489 4.258517,-5.56883 0.873478,-1.310283 1.474039,-2.67519 1.801679,-4.094728 0.327516,-1.419471 0.436708,-2.456801 0.327579,-3.111993 -0.109249,-0.65512 0.382111,-0.709715 1.474103,-0.163789 1.09186,0.546001 2.238382,1.419541 3.43957,2.620626 1.20105,1.201152 1.419435,2.020097 0.655157,2.456836 -0.764418,0.436802 -2.293114,1.637921 -4.586095,3.603361 -2.29311,1.965495 -4.422367,3.712576 -6.387775,5.241251 5.459572,4.149342 9.33591,6.660773 11.629026,7.534297 2.292974,0.873557 4.586023,1.58331 6.879143,2.129259 2.29297,0.545976 3.87626,1.09194 4.74988,1.637892 0.87346,0.545975 -1.03741,0.982744 -5.73262,1.310311 -4.695354,0.327589 -7.752748,0.272993 -9.172185,-0.163787 -1.419571,-0.436762 -2.948267,-1.583284 -4.586094,-3.439572 -1.637952,-1.85626 -3.166649,-3.657938 -4.586096,-5.405041 -1.419562,-1.747063 -3.22124,-3.603336 -5.40504,-5.568828 -2.183905,-1.965443 -4.04018,-3.275754 -5.568829,-3.93094 v 20.30985 c -4.7e-5,2.18386 0.764301,2.78442 2.293047,1.801679 1.528649,-0.982726 3.603308,-2.074653 6.223985,-3.275782 2.620568,-1.201109 3.166531,-1.091915 1.637892,0.327579 -1.528753,1.419513 -3.221239,2.893614 -5.077462,4.422306 -1.856327,1.528701 -3.330428,3.002802 -4.422306,4.422304 -1.091974,1.419506 -1.910917,2.566028 -2.456837,3.439572 -0.546007,0.873539 -1.146566,1.310308 -1.801679,1.310313 -0.436814,-5e-6 -0.982777,-0.982738 -1.637891,-2.948203 -0.655198,-1.965469 -0.546006,-3.712552 0.327577,-5.241252 0.8735,-1.528693 1.419463,-4.367701 1.637892,-8.517033 0.218341,-4.149307 0.327535,-10.045709 0.327577,-17.689223 -4.2e-5,-7.861838 -0.05464,-13.266873 -0.163787,-16.21512 -0.109234,-2.948155 -0.218431,-4.968219 -0.327579,-6.060197 -0.109233,-1.091874 -0.436814,-2.074607 -0.982735,-2.948205 -0.546005,-0.873485 0.27294,-1.091869 2.456837,-0.655155 2.183807,0.436826 4.040082,0.382231 5.568829,-0.16379 1.528646,-0.545906 3.002746,-1.09187 4.422306,-1.63789 1.419448,-0.545905 2.565971,-1.310255 3.439571,-2.293048 0.873482,-0.982672 2.347583,-1.037269 4.422305,-0.163789 2.074598,0.873602 3.494102,1.63795 4.258517,2.293047 0.764281,0.655215 0.600492,1.474159 -0.491367,2.456838 -1.091993,0.982788 -2.074726,2.948255 -2.948205,5.896407 -0.873604,2.94825 -1.474163,5.568874 -1.80168,7.861876 -0.327639,2.293087 -0.873602,4.531536 -1.63789,6.715354 -0.764408,2.183888 -1.583354,2.29308 -2.456837,0.327577 z M 36.822966,49.865065 c 1.091901,0.655193 1.419478,2.729853 0.982735,6.223985 2.40221,-0.655124 4.094696,-1.091894 5.077462,-1.310311 0.982702,-0.218354 1.965434,3.1e-5 2.948205,0.655156 0.982697,0.655186 0.65512,1.364939 -0.982736,2.129258 -1.637923,0.764377 -4.094757,1.692515 -7.370508,2.784414 l -0.655158,14.741019 c 4.586065,-1.528685 7.75265,-2.402225 9.499768,-2.620626 1.747047,-0.21837 2.402203,-0.05458 1.965469,0.491368 -0.436808,0.545976 -1.692523,1.255729 -3.767148,2.129258 -2.074694,0.873552 -5.022896,1.965479 -8.844613,3.275783 -3.821766,1.310319 -6.333197,2.402245 -7.534297,3.275782 -1.201137,0.873545 -2.402256,1.637893 -3.603361,2.293046 -1.201132,0.655159 -2.347656,0.545967 -3.439572,-0.327577 -1.091936,-0.873539 -2.074669,-1.910869 -2.948203,-3.111993 -0.873549,-1.201113 -0.272988,-1.747076 1.801681,-1.637892 2.07465,0.109201 6.715336,-0.928129 13.922073,-3.111993 V 61.002725 c -4.367729,0.873566 -7.315929,1.091951 -8.844611,0.655155 -1.528712,-0.436745 -1.091941,-1.037305 1.310312,-1.801679 2.402222,-0.764322 4.913653,-1.583268 7.534299,-2.456837 -2.3e-5,-2.620594 -0.218409,-5.022831 -0.655156,-7.206721 -1.528721,-0.218349 -2.948225,-0.545926 -4.258517,-0.982734 -1.310329,-0.436734 -0.218404,-1.146485 3.275782,-2.129259 3.494141,-0.982693 5.89638,-1.747041 7.206721,-2.293047 1.310282,-0.545921 2.620594,-0.600517 3.930938,-0.16379 1.310279,0.436814 1.474066,1.037373 0.491366,1.801682 -0.982767,0.764389 -1.856307,1.31035 -2.620625,1.63789 -0.764379,0.327616 -2.23848,0.928177 -4.422306,1.80168 z M 37.805701,30.86553 c 5.241218,1.310367 8.353208,2.2931 9.335978,2.948204 0.982697,0.655208 1.528661,1.419556 1.637892,2.293047 0.109152,0.873592 -3.9e-5,1.856324 -0.327578,2.948204 -0.327617,1.091974 -1.146562,1.310359 -2.456837,0.655156 -1.310346,-0.655109 -2.839044,-1.856228 -4.586094,-3.60336 -1.747114,-1.747032 -3.166618,-2.948151 -4.258517,-3.60336 -1.310338,2.183907 -2.402265,4.149374 -3.275782,5.896407 -0.873565,1.747131 -1.910895,3.494212 -3.111993,5.241251 -1.201139,1.747125 -2.566048,3.657997 -4.094728,5.732619 -1.528712,2.074697 -3.112005,3.985568 -4.749883,5.732618 -1.637901,1.747114 -3.330387,3.112022 -5.077462,4.094727 -1.747089,0.982762 -1.474107,0.109217 0.818946,-2.620625 2.293037,-2.729786 4.859064,-6.496931 7.698086,-11.301447 2.838993,-4.804435 4.804461,-8.353195 5.896409,-10.646292 1.091904,-2.292992 1.910849,-4.313057 2.456835,-6.060197 0.545941,-1.747023 0.600536,-3.27572 0.16379,-4.586095 -0.436794,-1.310248 0.163765,-1.692422 1.801679,-1.146523 1.637865,0.546027 2.948176,1.310376 3.93094,2.293047 0.982704,0.982796 1.091896,2.020126 0.327577,3.111993 -0.764377,1.091985 -1.47413,1.965526 -2.129258,2.620626 z m 19.327114,10.154924 c 4.149273,-1.747037 6.606106,-2.456788 7.370508,-2.129258 0.764295,0.327626 1.037277,0.764395 0.818947,1.310313 -0.21844,0.546009 -0.873596,1.037375 -1.965469,1.474101 -1.09198,0.436817 -3.16664,0.764394 -6.223986,0.982734 v 9.17219 c 2.183805,-0.436736 5.787161,-1.310276 10.81008,-2.620625 0.655099,-5.241209 1.037273,-8.844565 1.146524,-10.810081 0.109135,-1.965419 0.163731,-3.7125 0.163789,-5.241252 -5.8e-5,-1.528642 -0.218445,-2.347587 -0.655156,-2.456835 -0.436829,-0.109135 -1.528755,0.05466 -3.275782,0.491366 -1.747138,0.436827 -4.476953,1.091983 -8.189455,1.965469 z M 44.684844,61.65788 c 1.310277,0.655181 2.238413,1.310336 2.784414,1.965469 0.545926,0.655179 0.272944,1.364932 -0.818945,2.129259 -1.091963,0.764369 -2.347677,1.747102 -3.76715,2.948203 -1.419537,1.201137 -2.456867,2.020083 -3.111993,2.456837 -0.655185,0.436786 -0.545991,-0.163773 0.327578,-1.801681 0.873512,-1.637871 1.528667,-3.002779 1.96547,-4.094727 0.436738,-1.091904 0.655124,-2.074637 0.655157,-2.948204 -3.3e-5,-1.091901 0.655123,-1.310287 1.965469,-0.655156 z m -19.654692,4.258517 c 2.183838,1.091947 3.494149,2.347663 3.930938,3.767149 0.436752,1.419522 0.272962,2.511447 -0.491368,3.275782 -0.764366,0.764363 -1.528714,0.545976 -2.293046,-0.655156 -0.764364,-1.201104 -1.637907,-2.838995 -2.620626,-4.913674 -0.982746,-2.07464 -0.49138,-2.566007 1.474102,-1.474101 z"
         style="font-style:normal;font-variant:normal;font-weight:normal;font-stretch:normal;font-size:51.3986px;line-height:100%;font-family:KaiTi;text-align:center;writing-mode:lr-tb;text-anchor:middle;fill:#000000;fill-opacity:1;stroke:#000000;stroke-width:1.74708;stroke-miterlimit:4;stroke-opacity:0.498039"
         id="text11929" />
    </g>
  </g>
</svg>
