<?xml version="1.0" encoding="UTF-8" standalone="no"?>
<svg
   version="1.0"
   viewBox="0 0 35.349998 38.720001"
   id="svg2166"
   sodipodi:version="0.32"
   inkscape:version="1.3.2 (091e20e, 2023-11-25, custom)"
   sodipodi:docname="Uma.svg"
   inkscape:output_extension="org.inkscape.output.svg.inkscape"
   sodipodi:modified="true"
   xmlns:inkscape="http://www.inkscape.org/namespaces/inkscape"
   xmlns:sodipodi="http://sodipodi.sourceforge.net/DTD/sodipodi-0.dtd"
   xmlns:xlink="http://www.w3.org/1999/xlink"
   xmlns="http://www.w3.org/2000/svg"
   xmlns:svg="http://www.w3.org/2000/svg"
   xmlns:rdf="http://www.w3.org/1999/02/22-rdf-syntax-ns#"
   xmlns:cc="http://creativecommons.org/ns#"
   xmlns:dc="http://purl.org/dc/elements/1.1/">
  <metadata
     id="metadata15">
    <rdf:RDF>
      <cc:Work
         rdf:about="">
        <dc:format>image/svg+xml</dc:format>
        <dc:type
           rdf:resource="http://purl.org/dc/dcmitype/StillImage" />
        <dc:date>2007-07-22</dc:date>
        <dc:creator>
          <cc:Agent>
            <dc:title>13xforever</dc:title>
          </cc:Agent>
        </dc:creator>
        <dc:language>ja</dc:language>
        <dc:subject>
          <rdf:Bag>
            <rdf:li>ryuuma</rdf:li>
            <rdf:li>ryuume</rdf:li>
            <rdf:li>ryuma</rdf:li>
            <rdf:li>ryume</rdf:li>
            <rdf:li>龍馬</rdf:li>
            <rdf:li>shougi</rdf:li>
            <rdf:li>shogi</rdf:li>
            <rdf:li>将棋</rdf:li>
          </rdf:Bag>
        </dc:subject>
        <dc:coverage>board game</dc:coverage>
        <cc:license
           rdf:resource="http://creativecommons.org/licenses/by-sa/3.0/" />
      </cc:Work>
      <cc:License
         rdf:about="http://creativecommons.org/licenses/by-sa/3.0/">
        <cc:permits
           rdf:resource="http://web.resource.org/cc/Reproduction" />
        <cc:permits
           rdf:resource="http://web.resource.org/cc/Distribution" />
        <cc:requires
           rdf:resource="http://web.resource.org/cc/Notice" />
        <cc:requires
           rdf:resource="http://web.resource.org/cc/Attribution" />
        <cc:permits
           rdf:resource="http://web.resource.org/cc/DerivativeWorks" />
        <cc:requires
           rdf:resource="http://web.resource.org/cc/ShareAlike" />
      </cc:License>
    </rdf:RDF>
  </metadata>
  <sodipodi:namedview
     inkscape:window-height="745"
     inkscape:window-width="1292"
     inkscape:pageshadow="2"
     inkscape:pageopacity="0.0"
     guidetolerance="10.0"
     gridtolerance="10.0"
     objecttolerance="10.0"
     borderopacity="1.0"
     bordercolor="#666666"
     pagecolor="#ffffff"
     id="base"
     inkscape:zoom="14.178719"
     inkscape:cx="17.667322"
     inkscape:cy="19.289472"
     inkscape:window-x="-8"
     inkscape:window-y="-8"
     inkscape:current-layer="svg2166"
     inkscape:showpageshadow="0"
     inkscape:pagecheckerboard="1"
     inkscape:deskcolor="#d1d1d1"
     inkscape:window-maximized="1" />
  <defs
     id="defs2168">
    <linearGradient
       id="linearGradient10936">
      <stop
         style="stop-color:#fcf3e8;stop-opacity:1"
         offset="0"
         id="stop10938" />
      <stop
         style="stop-color:#ba6100;stop-opacity:1"
         offset="1"
         id="stop10940" />
    </linearGradient>
    <linearGradient
       x1="17.523264"
       y1="5.9785309"
       x2="101.69292"
       y2="113.38583"
       id="linearGradient10942"
       xlink:href="#linearGradient10936"
       gradientUnits="userSpaceOnUse"
       gradientTransform="translate(3.1889734)" />
    <linearGradient
       x1="17.523264"
       y1="5.9785309"
       x2="101.69292"
       y2="113.38583"
       id="linearGradient12957"
       xlink:href="#linearGradient10936"
       gradientUnits="userSpaceOnUse"
       gradientTransform="translate(3.1889734)" />
  </defs>
  <g
     id="layer1"
     transform="matrix(0.27450148,0,0,0.27450148,2.8421931,1.8590488)">
    <g
       transform="matrix(0.96514,0,0,0.9687658,1.8836745,8.83634)"
       id="g12950">
      <path
         d="M 3.6843532,112.89045 H 104.38651 L 87.439074,5.7639005 54.035433,0.49538136 20.63179,5.7639005 Z"
         style="fill:url(#linearGradient12957);fill-opacity:1;fill-rule:evenodd;stroke:#000000;stroke-width:1.03418;stroke-linecap:butt;stroke-linejoin:miter;stroke-miterlimit:4;stroke-dasharray:none;stroke-opacity:0.498039"
         id="path9965" />
      <path
         d="m 56.6961,22.433277 c 1.898218,1.627164 2.711764,2.915279 2.440641,3.864347 -0.271239,0.949205 -0.542423,2.508498 -0.813547,4.677888 3.254125,-0.542297 5.626963,-1.016868 7.118529,-1.423703 1.491436,-0.406707 2.779546,-0.271116 3.864344,0.40677 1.084661,0.678021 1.491431,1.288182 1.220321,1.83048 -0.271253,0.542427 -1.898345,1.220382 -4.881279,2.033862 -2.983064,0.813612 -5.694882,1.491564 -8.135462,2.033866 -0.271238,1.627154 -0.406829,4.203381 -0.406771,7.728688 3.254125,-0.54231 5.762554,-1.016878 7.525302,-1.423706 1.762616,-0.406717 3.321911,-0.135534 4.677889,0.813547 1.355838,0.949191 0.677886,1.898328 -2.033864,2.847411 -2.711887,0.949188 -6.101657,1.694938 -10.169327,2.237252 -0.271242,4.881322 -0.406829,7.999909 -0.406776,9.355782 7.593036,-0.813508 12.813283,-1.762644 15.660763,-2.847412 2.84734,-1.084686 4.948998,-1.627048 6.304982,-1.627093 1.355832,4.5e-5 2.847331,0.339021 4.474505,1.016932 1.627006,0.677998 3.593075,1.694929 5.898206,3.050799 2.304958,1.355946 2.643939,3.254219 1.01694,5.694821 -1.627179,2.440673 -2.644123,6.305011 -3.050801,11.593032 -0.406861,5.288072 -1.152609,10.440523 -2.237248,15.457382 -1.084818,5.016859 -3.389862,9.287986 -6.915147,12.813328 -3.525439,3.52536 -5.694894,3.79656 -6.508368,0.81354 -0.813617,-2.98299 -2.847478,-5.965992 -6.101596,-8.948981 -3.254247,-2.982998 -3.322042,-3.999927 -0.203386,-3.050798 3.118526,0.949139 5.626955,1.627091 7.525299,2.033861 1.898202,0.406777 3.457497,-0.745742 4.677891,-3.457573 1.220244,-2.711807 2.304967,-7.118507 3.254184,-13.220118 0.949055,-6.101571 1.22024,-10.576069 0.813547,-13.423513 -0.406851,-2.847377 -1.355988,-4.406669 -2.847411,-4.67789 -1.491577,-0.271145 -3.796624,-0.271145 -6.915143,0 -3.118659,0.271221 -7.186387,0.813585 -12.203191,1.627093 -5.016922,0.813582 -13.491349,2.16949 -25.423313,4.067731 -1.355944,2.711849 -2.576261,2.983029 -3.660958,0.813548 -1.084757,-2.169426 -1.355937,-4.542264 -0.813545,-7.118531 0.542331,-2.576188 0.813515,-6.169348 0.813545,-10.779483 V 32.602605 c -3e-5,-5.152391 -0.339007,-8.609959 -1.016934,-10.372714 -0.677981,-1.762605 -0.610188,-2.711741 0.203389,-2.84741 0.813515,-0.135504 2.237219,0.06786 4.271116,0.610157 2.033829,0.542442 5.28801,0.542442 9.762553,0 4.474457,-0.542285 9.220136,-1.35583 14.237057,-2.440635 5.016805,-1.084646 8.677758,-1.898191 10.98287,-2.440637 2.304978,-0.542283 4.067658,-0.406691 5.28805,0.40677 1.220247,0.813628 1.288041,1.627172 0.203387,2.44064 -1.0848,0.813624 -3.59323,1.627167 -7.525302,2.440639 -3.9322,0.813622 -7.254177,1.491574 -9.965941,2.033862 z m -21.152197,2.033866 c -0.542397,8.135525 -0.81358,14.915069 -0.813545,20.338652 -3.5e-5,5.423687 -0.271215,10.711732 -0.813545,15.864149 3.525328,-0.271147 6.779509,-0.610123 9.762552,-1.016935 2.982955,-0.406734 5.694776,-0.881301 8.135459,-1.423704 0.271131,-2.982959 0.406722,-5.965958 0.406775,-8.949005 -1.898325,0.271227 -3.864392,0.474614 -5.898209,0.610158 -2.03391,0.135633 -3.93218,-0.135548 -5.694821,-0.813546 -1.762723,-0.677907 -1.016974,-1.288066 2.237248,-1.830476 l 9.355782,-2.033868 v -7.728686 c -2.71187,0.271241 -5.084709,0.339034 -7.118529,0.203386 -2.033906,-0.135522 -3.457612,-0.474511 -4.271116,-1.016935 -0.813586,-0.542301 0.27114,-1.084665 3.254184,-1.627089 2.982955,-0.542304 5.694773,-1.220258 8.135461,-2.033868 -5.3e-5,-3.796481 -0.135645,-7.050662 -0.406775,-9.76255 -4.88132,0.542434 -10.304956,0.949208 -16.270921,1.220317 z M 20.086531,72.05959 c 1.084704,2.983021 1.559274,5.694842 1.423703,8.13546 -0.135618,2.44065 -0.949158,4.949083 -2.440638,7.525303 -1.491515,2.576239 -2.983016,2.644029 -4.474502,0.203388 -1.491515,-2.440629 -1.55931,-4.542292 -0.203386,-6.304992 1.355891,-1.762658 2.372824,-4.542279 3.050797,-8.338836 0.677935,-3.796523 1.559278,-4.203301 2.644026,-1.220323 z m 42.711167,-6.1016 c 3.254117,1.627121 5.287985,3.457599 6.101595,5.49144 0.813475,2.033891 0.677887,3.864361 -0.406773,5.491432 -1.084794,1.627108 -2.305111,1.627108 -3.660957,0 -1.355974,-1.627071 -2.779677,-4.271093 -4.271117,-7.932072 -1.491559,-3.66093 -0.745809,-4.677856 2.237252,-3.0508 z m -29.694434,4.474512 c 2.440604,1.08475 3.9999,2.84743 4.677892,5.288039 0.677916,2.440659 0.271143,4.474521 -1.220319,6.101602 -1.491535,1.627107 -2.779651,1.08474 -3.864345,-1.627093 -1.084758,-2.711798 -1.830508,-5.355821 -2.237252,-7.93208 -0.4068,-2.576201 0.474538,-3.186358 2.644024,-1.830468 z m 14.643831,-1.627101 c 2.982953,1.084759 4.474451,3.118621 4.474504,6.1016 -5.3e-5,2.711838 -0.542415,4.135541 -1.627093,4.271121 -1.084777,0.135603 -2.169506,-0.745743 -3.254183,-2.64403 -1.084776,-1.898251 -1.966115,-3.99991 -2.644026,-6.30498 -0.677996,-2.305021 0.338933,-2.779591 3.050798,-1.423711 z"
         style="font-style:normal;font-variant:normal;font-weight:normal;font-stretch:normal;font-size:66.1874px;line-height:100%;font-family:KaiTi;text-align:center;writing-mode:lr-tb;text-anchor:middle;fill:#000000;fill-opacity:1;stroke:#000000;stroke-width:1.62709;stroke-miterlimit:4;stroke-opacity:0.498039"
         id="text2168" />
    </g>
  </g>
</svg>
