<?xml version="1.0" encoding="UTF-8" standalone="no"?>
<svg
   version="1.0"
   viewBox="0 0 35.349998 38.720001"
   id="svg2166"
   sodipodi:version="0.32"
   inkscape:version="1.3.2 (091e20e, 2023-11-25, custom)"
   sodipodi:docname="Tokin.svg"
   inkscape:output_extension="org.inkscape.output.svg.inkscape"
   sodipodi:modified="true"
   xmlns:inkscape="http://www.inkscape.org/namespaces/inkscape"
   xmlns:sodipodi="http://sodipodi.sourceforge.net/DTD/sodipodi-0.dtd"
   xmlns:xlink="http://www.w3.org/1999/xlink"
   xmlns="http://www.w3.org/2000/svg"
   xmlns:svg="http://www.w3.org/2000/svg"
   xmlns:rdf="http://www.w3.org/1999/02/22-rdf-syntax-ns#"
   xmlns:cc="http://creativecommons.org/ns#"
   xmlns:dc="http://purl.org/dc/elements/1.1/">
  <metadata
     id="metadata14">
    <rdf:RDF>
      <cc:Work
         rdf:about="">
        <dc:format>image/svg+xml</dc:format>
        <dc:type
           rdf:resource="http://purl.org/dc/dcmitype/StillImage" />
        <dc:date>2007-07-22</dc:date>
        <dc:creator>
          <cc:Agent>
            <dc:title>13xforever</dc:title>
          </cc:Agent>
        </dc:creator>
        <dc:language>ja</dc:language>
        <dc:subject>
          <rdf:Bag>
            <rdf:li>tokin</rdf:li>
            <rdf:li>と金</rdf:li>
            <rdf:li>shougi</rdf:li>
            <rdf:li>shogi</rdf:li>
            <rdf:li>将棋</rdf:li>
          </rdf:Bag>
        </dc:subject>
        <dc:coverage>board game</dc:coverage>
        <cc:license
           rdf:resource="http://creativecommons.org/licenses/by-sa/3.0/" />
      </cc:Work>
      <cc:License
         rdf:about="http://creativecommons.org/licenses/by-sa/3.0/">
        <cc:permits
           rdf:resource="http://web.resource.org/cc/Reproduction" />
        <cc:permits
           rdf:resource="http://web.resource.org/cc/Distribution" />
        <cc:requires
           rdf:resource="http://web.resource.org/cc/Notice" />
        <cc:requires
           rdf:resource="http://web.resource.org/cc/Attribution" />
        <cc:permits
           rdf:resource="http://web.resource.org/cc/DerivativeWorks" />
        <cc:requires
           rdf:resource="http://web.resource.org/cc/ShareAlike" />
      </cc:License>
    </rdf:RDF>
  </metadata>
  <sodipodi:namedview
     inkscape:window-height="745"
     inkscape:window-width="1292"
     inkscape:pageshadow="2"
     inkscape:pageopacity="0.0"
     guidetolerance="10.0"
     gridtolerance="10.0"
     objecttolerance="10.0"
     borderopacity="1.0"
     bordercolor="#666666"
     pagecolor="#ffffff"
     id="base"
     inkscape:zoom="14.178719"
     inkscape:cx="17.667323"
     inkscape:cy="19.360001"
     inkscape:window-x="-8"
     inkscape:window-y="-8"
     inkscape:current-layer="svg2166"
     inkscape:showpageshadow="0"
     inkscape:pagecheckerboard="1"
     inkscape:deskcolor="#d1d1d1"
     inkscape:window-maximized="1" />
  <defs
     id="defs2168">
    <linearGradient
       id="linearGradient10936">
      <stop
         style="stop-color:#fcf3e8;stop-opacity:1"
         offset="0"
         id="stop10938" />
      <stop
         style="stop-color:#ba6100;stop-opacity:1"
         offset="1"
         id="stop10940" />
    </linearGradient>
    <linearGradient
       x1="17.523264"
       y1="5.9785309"
       x2="101.69292"
       y2="113.38583"
       id="linearGradient10942"
       xlink:href="#linearGradient10936"
       gradientUnits="userSpaceOnUse"
       gradientTransform="translate(3.1889734)" />
    <linearGradient
       x1="17.523264"
       y1="5.9785309"
       x2="101.69292"
       y2="113.38583"
       id="linearGradient12957"
       xlink:href="#linearGradient10936"
       gradientUnits="userSpaceOnUse"
       gradientTransform="translate(3.1889734)" />
  </defs>
  <g
     id="layer1"
     transform="matrix(0.28108653,0,0,0.28108653,2.4863677,-0.71553615)">
    <g
       transform="matrix(0.7836824,0,0,0.8440209,11.688814,23.574399)"
       id="g12950">
      <path
         d="M 3.6843532,112.89045 H 104.38651 L 87.439074,5.7639005 54.035433,0.49538136 20.63179,5.7639005 Z"
         style="fill:url(#linearGradient12957);fill-opacity:1;fill-rule:evenodd;stroke:#000000;stroke-width:1.22957;stroke-linecap:butt;stroke-linejoin:miter;stroke-miterlimit:4;stroke-dasharray:none;stroke-opacity:0.498039"
         id="path9965" />
      <path
         d="m 39.898504,19.281352 c 0.540338,-0.810489 1.756184,-0.810489 3.64754,0 1.891275,0.810638 3.377309,1.756297 4.458104,2.836976 0.81052,1.080823 0.81052,2.296669 0,3.64754 -0.810608,1.351007 -1.350984,3.512511 -1.621128,6.484516 -0.540419,2.972129 -0.405325,6.281931 0.405282,9.929416 0.81052,3.647587 2.431647,6.822296 4.863388,9.524134 8.375775,-3.78259 13.509345,-6.146734 15.400725,-7.09244 1.891251,-0.945609 2.972002,-1.823719 3.242258,-2.634335 0.270121,-1.080701 0.742949,-1.891264 1.418488,-2.431693 0.675401,-0.540323 1.8237,-0.135041 3.444898,1.215846 1.621057,1.350992 2.43162,2.769479 2.431695,4.255463 -7.5e-5,1.486083 -1.89139,2.904569 -5.673952,4.255464 -4.052888,1.080796 -7.632877,2.229095 -10.73998,3.4449 -3.107219,1.215886 -6.552114,2.769467 -10.334698,4.660746 -3.782677,1.891351 -7.295121,4.052855 -10.537338,6.484516 -3.242293,2.431721 -5.403795,5.133599 -6.484516,8.105645 -1.350971,2.972088 -1.418518,6.011702 -0.202642,9.118851 1.215816,3.107173 3.985242,5.336224 8.308287,6.687157 4.322967,1.080759 9.659179,1.418489 16.008649,1.013209 6.349361,-0.40528 11.145196,-1.148298 14.38752,-2.229056 2.971998,-1.080745 4.998407,-1.283385 6.079234,-0.607923 1.080677,0.675477 1.756146,1.553587 2.026412,2.634339 0.270109,1.08075 -0.878188,2.2966 -3.4449,3.64754 -2.566859,1.35094 -8.57854,2.1615 -18.03506,2.43169 -9.456633,0.27019 -16.751706,-0.81057 -21.885242,-3.24226 -5.133604,-2.43169 -8.105671,-5.809037 -8.916209,-10.132055 -1.080777,-4.593183 -0.540402,-9.051283 1.621128,-13.374315 2.161477,-4.32298 7.835423,-8.916175 17.021855,-13.779596 -2.97211,-4.322968 -4.79588,-8.713521 -5.471311,-13.171673 -0.675507,-4.458048 -0.878149,-8.038039 -0.607923,-10.73998 0.270151,-2.972004 0.0675,-5.403695 -0.607924,-7.295082 -0.675506,-1.891243 -0.743053,-3.107089 -0.20264,-3.64754 z"
         style="font-style:normal;font-variant:normal;font-weight:normal;font-stretch:normal;font-size:78.6925px;line-height:100%;font-family:KaiTi;text-align:center;writing-mode:lr-tb;text-anchor:middle;fill:#000000;fill-opacity:1;stroke:#000000;stroke-width:1.62113;stroke-miterlimit:4;stroke-opacity:0.498039"
         id="text11939" />
    </g>
  </g>
</svg>
