<?xml version="1.0" encoding="UTF-8" standalone="no"?>
<svg
   version="1.0"
   viewBox="0 0 35.349998 38.720001"
   id="svg2166"
   sodipodi:version="0.32"
   inkscape:version="1.3.2 (091e20e, 2023-11-25, custom)"
   sodipodi:docname="Ryu.svg"
   inkscape:output_extension="org.inkscape.output.svg.inkscape"
   sodipodi:modified="true"
   xmlns:inkscape="http://www.inkscape.org/namespaces/inkscape"
   xmlns:sodipodi="http://sodipodi.sourceforge.net/DTD/sodipodi-0.dtd"
   xmlns:xlink="http://www.w3.org/1999/xlink"
   xmlns="http://www.w3.org/2000/svg"
   xmlns:svg="http://www.w3.org/2000/svg"
   xmlns:rdf="http://www.w3.org/1999/02/22-rdf-syntax-ns#"
   xmlns:cc="http://creativecommons.org/ns#"
   xmlns:dc="http://purl.org/dc/elements/1.1/">
  <metadata
     id="metadata15">
    <rdf:RDF>
      <cc:Work
         rdf:about="">
        <dc:format>image/svg+xml</dc:format>
        <dc:type
           rdf:resource="http://purl.org/dc/dcmitype/StillImage" />
        <dc:date>2007-07-22</dc:date>
        <dc:creator>
          <cc:Agent>
            <dc:title>13xforever</dc:title>
          </cc:Agent>
        </dc:creator>
        <dc:language>ja</dc:language>
        <dc:subject>
          <rdf:Bag>
            <rdf:li>ryuuou</rdf:li>
            <rdf:li>ryuo</rdf:li>
            <rdf:li>龍王</rdf:li>
            <rdf:li>shougi</rdf:li>
            <rdf:li>shogi</rdf:li>
            <rdf:li>将棋</rdf:li>
          </rdf:Bag>
        </dc:subject>
        <dc:coverage>board game</dc:coverage>
        <cc:license
           rdf:resource="http://creativecommons.org/licenses/by-sa/3.0/" />
      </cc:Work>
      <cc:License
         rdf:about="http://creativecommons.org/licenses/by-sa/3.0/">
        <cc:permits
           rdf:resource="http://web.resource.org/cc/Reproduction" />
        <cc:permits
           rdf:resource="http://web.resource.org/cc/Distribution" />
        <cc:requires
           rdf:resource="http://web.resource.org/cc/Notice" />
        <cc:requires
           rdf:resource="http://web.resource.org/cc/Attribution" />
        <cc:permits
           rdf:resource="http://web.resource.org/cc/DerivativeWorks" />
        <cc:requires
           rdf:resource="http://web.resource.org/cc/ShareAlike" />
      </cc:License>
    </rdf:RDF>
  </metadata>
  <sodipodi:namedview
     inkscape:window-height="745"
     inkscape:window-width="1292"
     inkscape:pageshadow="2"
     inkscape:pageopacity="0.0"
     guidetolerance="10.0"
     gridtolerance="10.0"
     objecttolerance="10.0"
     borderopacity="1.0"
     bordercolor="#666666"
     pagecolor="#ffffff"
     id="base"
     inkscape:zoom="14.178719"
     inkscape:cx="17.667322"
     inkscape:cy="19.36"
     inkscape:window-x="-8"
     inkscape:window-y="-8"
     inkscape:current-layer="svg2166"
     inkscape:showpageshadow="0"
     inkscape:pagecheckerboard="1"
     inkscape:deskcolor="#d1d1d1"
     inkscape:window-maximized="1" />
  <defs
     id="defs2168">
    <linearGradient
       id="linearGradient10936">
      <stop
         style="stop-color:#fcf3e8;stop-opacity:1"
         offset="0"
         id="stop10938" />
      <stop
         style="stop-color:#ba6100;stop-opacity:1"
         offset="1"
         id="stop10940" />
    </linearGradient>
    <linearGradient
       x1="17.523264"
       y1="5.9785309"
       x2="101.69292"
       y2="113.38583"
       id="linearGradient10942"
       xlink:href="#linearGradient10936"
       gradientUnits="userSpaceOnUse"
       gradientTransform="translate(3.1889734)" />
    <linearGradient
       x1="17.523264"
       y1="5.9785309"
       x2="101.69292"
       y2="113.38583"
       id="linearGradient12957"
       xlink:href="#linearGradient10936"
       gradientUnits="userSpaceOnUse"
       gradientTransform="translate(3.1889734)" />
  </defs>
  <g
     id="layer1"
     transform="matrix(0.27450148,0,0,0.27450148,2.8421931,1.8590488)">
    <g
       transform="matrix(0.96514,0,0,0.9687658,1.8836745,8.83634)"
       id="g12950">
      <path
         d="M 3.6843532,112.89045 H 104.38651 L 87.439074,5.7639005 54.035433,0.49538136 20.63179,5.7639005 Z"
         style="fill:url(#linearGradient12957);fill-opacity:1;fill-rule:evenodd;stroke:#000000;stroke-width:1.03418;stroke-linecap:butt;stroke-linejoin:miter;stroke-miterlimit:4;stroke-dasharray:none;stroke-opacity:0.498039"
         id="path9965" />
      <path
         d="m 67.836679,26.919174 c 4.680889,-1.560273 7.634342,-2.507619 8.860368,-2.84204 1.225896,-0.334292 2.451858,-0.05566 3.677886,0.835893 1.225895,0.891685 0.612913,1.839028 -1.838945,2.84204 -2.451988,1.003131 -6.129871,1.504668 -11.033663,1.504609 l -0.668707,6.687152 c -0.222957,2.229098 0.44575,3.064991 2.006121,2.507679 1.560258,-0.557212 2.841944,-1.170198 3.845064,-1.838966 1.003002,-0.668663 2.061785,-0.724388 3.176359,-0.167187 1.114448,0.557313 2.340409,1.337482 3.677887,2.340503 1.337347,1.003121 1.337347,1.839014 0,2.507682 -1.337478,0.668762 -2.897792,2.897809 -4.680948,6.68715 1.783156,1.560374 2.173235,2.507718 1.170238,2.842039 -1.003123,0.334395 -2.451984,0.613025 -4.346597,0.835894 -1.894725,0.222941 -5.516883,0.891656 -10.866486,2.006146 -0.445852,1.783273 -0.668754,3.56651 -0.668706,5.34972 3.12058,-0.445783 5.906856,-1.003043 8.358835,-1.671786 2.451869,-0.668684 4.179358,-0.612959 5.182481,0.16717 1.002996,0.780197 0.891546,1.393184 -0.334355,1.838966 -1.226023,0.445837 -2.786339,0.835921 -4.680949,1.170251 -1.894723,0.334386 -4.848176,0.724468 -8.860368,1.170251 -0.222947,2.00617 -0.3344,3.677956 -0.334353,5.015363 3.789289,-0.668692 6.965645,-1.28168 9.529076,-1.838965 2.563315,-0.557239 4.346533,-0.445786 5.349654,0.334356 1.003001,0.780191 0.278566,1.50463 -2.173299,2.173325 -2.45198,0.668733 -6.687119,1.114543 -12.705431,1.33743 -0.222948,2.897781 -0.222948,4.903924 0,6.018436 4.457997,-0.668701 7.912979,-1.337416 10.364957,-2.006146 2.451869,-0.668698 4.012182,-0.501521 4.680952,0.501536 0.668643,1.003087 0.11138,1.727527 -1.67177,2.173324 -1.783276,0.445823 -3.73367,0.780179 -5.851186,1.003074 -2.117623,0.222916 -4.513822,0.334368 -7.1886,0.334356 0.66866,4.903917 3.120583,7.578774 7.355778,8.024581 4.235085,0.445813 8.916028,0.22291 14.042844,-0.668714 5.126679,-0.891618 8.024408,-2.842034 8.693198,-5.851255 0.668631,-3.009207 1.11443,-5.572612 1.337411,-7.690227 0.222819,-2.117578 0.50145,-1.448862 0.835889,2.006148 0.334268,3.455038 0.94725,5.962716 1.838939,7.523042 0.89152,1.560342 1.002981,2.89777 0.334339,4.012292 -0.668779,1.114527 -2.451987,2.284779 -5.349647,3.510754 -2.897801,1.225976 -6.631407,2.006142 -11.200841,2.340501 -4.569555,0.334355 -8.470343,0.05573 -11.702369,-0.835894 -3.232134,-0.891621 -5.684056,-2.451952 -7.355778,-4.681006 -1.67181,-2.229045 -2.507692,-5.684069 -2.507649,-10.365081 -4.3e-5,-4.903893 0.111405,-9.584891 0.334351,-14.043018 0.222859,-4.458064 -0.111486,-7.690185 -1.00306,-9.696367 -0.891649,-2.006104 0.891567,-1.783201 5.349657,0.668716 2.228973,-0.445774 5.795405,-1.225941 10.699311,-2.340504 0.668648,-2.897723 1.058727,-5.071044 1.170236,-6.51997 0.111392,-1.448838 -0.947393,-2.006098 -3.176358,-1.671789 -2.229077,0.334404 -3.622215,0.891667 -4.179418,1.671789 -0.557307,0.780212 -1.337464,0.668759 -2.340475,-0.334359 -1.003108,-1.003026 -1.058834,-2.173276 -0.167188,-3.510754 0.891562,-1.337381 1.225916,-3.622154 1.003065,-6.854329 -0.222954,-3.232064 -1.003111,-5.572565 -2.340475,-7.021507 -1.337461,-1.44882 -0.668754,-1.894628 2.00612,-1.337431 2.674775,0.557328 4.123638,1.839029 4.346596,3.845112 z M 34.40133,58.014424 c -0.222922,3.120695 -0.334373,5.238293 -0.334352,6.352793 2.674804,-0.891595 4.346571,-0.891595 5.015301,0 0.668682,0.891643 0.33433,1.448904 -1.003059,1.671787 -1.337438,0.222927 -2.67485,0.334379 -4.012242,0.334358 -0.445828,2.451976 -0.780178,4.235214 -1.003062,5.34972 1.337394,-0.222888 2.563356,-0.557245 3.677888,-1.003073 1.114488,-0.445791 2.006097,-0.167155 2.674831,0.835894 0.668678,1.003088 0.334326,1.671802 -1.003064,2.006146 -1.337436,0.334371 -3.232103,0.50155 -5.684007,0.501536 -0.668727,5.795538 -1.560334,9.752099 -2.67483,11.869692 -1.114525,2.117596 -2.006133,1.950419 -2.674826,-0.501537 -0.66872,-2.451949 -0.66872,-4.513818 0,-6.185615 0.668693,-1.671775 1.281673,-3.845096 1.838944,-6.519971 0.557241,-2.67484 1.003045,-5.516878 1.337414,-8.526117 0.334335,-3.009191 0.11144,-5.182511 -0.668707,-6.519971 -0.780172,-1.337398 -0.8359,-2.006112 -0.16717,-2.006145 0.668691,3.3e-5 1.393125,0.111475 2.173298,0.334359 0.780139,0.222936 1.950376,0.222936 3.51071,0 1.560295,-0.222875 3.009157,-0.724411 4.346597,-1.504611 1.337386,-0.780131 2.730525,-0.835858 4.179419,-0.16717 1.448832,0.668748 2.507618,1.337462 3.176358,2.006143 0.668671,0.668746 0.668671,1.448914 0,2.340503 -0.66874,0.891649 -0.891642,3.566506 -0.668709,8.02458 0.222871,4.458118 0.501497,8.191773 0.835885,11.200978 0.334319,3.009226 0.278594,5.795535 -0.167169,8.358938 -0.445839,2.563407 -1.170272,4.29092 -2.173299,5.18254 -1.003089,0.891618 -1.894701,0.334356 -2.674829,-1.671786 -0.780186,-2.006144 -2.173323,-3.566478 -4.179418,-4.681004 -2.006143,-1.114522 -2.117594,-1.560334 -0.334352,-1.33743 1.783192,0.222908 3.120606,0.278634 4.012242,0.167188 0.891579,-0.111441 1.337383,-1.950415 1.337413,-5.516901 -3e-5,-3.566468 -0.111474,-7.35585 -0.334352,-11.368157 -0.222932,-4.012266 -0.557285,-6.631395 -1.003061,-7.857401 -0.445832,-1.225947 -1.11454,-1.838937 -2.006121,-1.838965 -0.891635,2.8e-5 -2.674852,0.222934 -5.349657,0.668715 z M 45.434997,35.612469 c 3.566402,1.33748 4.848089,2.452006 3.845065,3.343576 -1.003098,0.891668 -2.842038,2.674906 -5.516833,5.34972 6.018323,-1.783194 9.58476,-2.173278 10.69931,-1.170251 1.114468,1.003116 0.501489,1.783283 -1.838944,2.340502 -2.340509,0.557305 -4.792434,1.058839 -7.355777,1.504609 -2.563405,0.445851 -6.297014,1.393196 -11.20084,2.842039 -4.903866,1.448918 -7.968771,2.507718 -9.19472,3.176396 -1.225974,0.668751 -3.120641,0.167206 -5.684011,-1.504607 -2.563379,-1.671751 -2.674829,-2.451917 -0.334354,-2.340503 2.340468,0.111499 5.238195,-0.167137 8.693192,-0.835895 3.454967,-0.668676 8.191637,-1.7832 14.210022,-3.343576 2.228995,-4.012243 3.232053,-7.021458 3.009183,-9.027651 -4.458076,1.337481 -7.913056,1.671836 -10.36496,1.003073 -2.451943,-0.668665 -2.451943,-1.281652 0,-1.838967 2.451904,-0.557209 5.349631,-1.44883 8.693191,-2.674862 3.343503,-1.225921 5.851151,-1.671729 7.522953,-1.337431 1.67173,0.334414 2.117533,0.891678 1.337414,1.671789 -0.780196,0.780222 -2.953489,1.727569 -6.519891,2.842039 z M 41.088401,21.569454 c 2.897701,0.222971 4.848091,0.780233 5.851186,1.671786 1.003025,0.891685 1.560278,2.00621 1.671766,3.343575 0.111405,1.337491 -0.111497,2.229109 -0.668706,2.674861 -0.557291,0.445868 -1.838978,-0.111394 -3.845066,-1.671786 -2.006148,-1.560275 -3.73364,-3.009156 -5.182478,-4.34665 -1.448889,-1.337363 -0.724456,-1.894625 2.173298,-1.671786 z m -5.349657,17.720948 c 1.783195,1.337477 2.451903,2.730634 2.006123,4.17947 -0.44583,1.448925 -1.003085,2.11764 -1.671769,2.006144 -0.668728,-0.111406 -1.281708,-0.835849 -1.838944,-2.173323 -0.557275,-1.337383 -0.89163,-2.674814 -1.003059,-4.012291 -0.111475,-1.337381 0.724412,-1.337381 2.507649,0 z"
         style="font-style:normal;font-variant:normal;font-weight:normal;font-stretch:normal;font-size:49.6406px;line-height:100%;font-family:KaiTi;text-align:center;writing-mode:lr-tb;text-anchor:middle;fill:#000000;fill-opacity:1;stroke:#000000;stroke-width:1.78323;stroke-miterlimit:4;stroke-opacity:0.498039"
         id="text3153" />
    </g>
  </g>
</svg>
